M48
; DRILL file {KiCad (5.1.6-0-10_14)} date Friday, August 07, 2020 at 02:29:32 PM
; FORMAT={-:-/ absolute / inch / decimal}
; #@! TF.CreationDate,2020-08-07T14:29:32+09:00
; #@! TF.GenerationSoftware,Kicad,Pcbnew,(5.1.6-0-10_14)
FMAT,2
INCH
T1C0.0157
T2C0.0394
%
G90
G05
T1
X5.814Y-3.339
X5.816Y-4.149
T2
X5.95Y-3.5
X5.95Y-3.6
X5.95Y-3.7
X5.95Y-3.8
X5.95Y-3.9
X6.05Y-3.5
X6.05Y-3.6
X6.05Y-3.7
X6.05Y-3.8
X6.05Y-3.9
X5.6974Y-3.2683
X5.6974Y-3.3683
X5.6974Y-3.4683
X5.6974Y-3.5683
X5.6974Y-3.6683
X5.6974Y-3.7683
X5.6974Y-3.8683
X5.6974Y-3.9683
X5.6974Y-4.0683
X5.6974Y-4.1683
T0
M30
