M48
INCH,TZ
T1C0.0079
T2C0.0157
T3C0.0157
T4C0.0256
T5C0.0315
T6C0.0390
T7C0.0394
T8C0.0433
T9C0.0470
T10C0.0472
T11C0.0551
T12C0.0590
T13C0.0591
T14C0.0630
T15C0.0748
T16C0.0787
T17C0.1083
%
G90
G05
T1
X39801Y-26457
X39801Y-26969
X39801Y-27480
X40553Y-26457
X40553Y-26969
X40553Y-27480
T2
X36547Y-22303
X37358Y-23846
X37859Y-37665
X38228Y-27217
X38307Y-29724
X39331Y-25547
X39332Y-20767
X39996Y-24315
X41870Y-37906
X41969Y-36528
X42087Y-51264
X42357Y-41891
X42650Y-46346
X42853Y-44448
X43057Y-46415
X43059Y-53161
X43108Y-49685
X43188Y-47150
X43195Y-40545
X43265Y-41622
X43542Y-45047
X43968Y-50146
X44222Y-30616
X44354Y-54994
X44630Y-45630
X44719Y-50278
X44803Y-18484
X44926Y-53179
X44988Y-55114
X45382Y-33441
X45403Y-52552
X45495Y-51790
X45504Y-52164
X45508Y-44411
X45543Y-50984
X45543Y-53173
X45725Y-44106
X45760Y-44689
X45965Y-55114
X46712Y-41542
X46732Y-51945
X46732Y-18484
X46815Y-45428
X46953Y-40618
X46997Y-42327
X47185Y-41594
X47363Y-26183
X48012Y-26133
X48132Y-47453
X48196Y-44204
X48563Y-53635
X48571Y-44209
X48697Y-55114
X48701Y-26161
X48740Y-18504
X49165Y-51945
X49177Y-51499
X49405Y-45960
X49409Y-26161
X49519Y-45585
X49626Y-44783
X49765Y-48067
X49799Y-44440
X49884Y-48587
X49967Y-53525
X49969Y-53150
X50118Y-26161
X50170Y-28280
X50259Y-50802
X50400Y-27797
X50499Y-48500
X50518Y-51435
X50538Y-50546
X50576Y-41612
X50634Y-48913
X50654Y-28995
X50738Y-46402
X50814Y-29334
X50827Y-26161
X50904Y-28084
X51004Y-18465
X51248Y-28358
X51277Y-27983
X51435Y-24154
X51516Y-26161
X51541Y-27717
X51541Y-28673
X51660Y-28072
X52008Y-55480
X52286Y-18054
X52760Y-40598
X52763Y-43859
X52897Y-48755
X52897Y-49957
X53433Y-46894
X53470Y-19247
X53474Y-47695
X53480Y-45594
X53480Y-46204
X53665Y-17634
X54664Y-44415
X56260Y-49114
X56476Y-47323
X57528Y-47807
X57594Y-26933
X59635Y-37530
T3
X44618Y-34862
X44815Y-34469
X44815Y-35256
X45051Y-34862
T4
X42560Y-47960
X42560Y-48460
X42560Y-48960
X42560Y-49460
X42560Y-49960
X46560Y-47460
X46560Y-47960
X46560Y-48460
X46560Y-48960
X46560Y-49460
X46560Y-49960
X47580Y-47460
X47580Y-47960
X47580Y-48460
X47580Y-48960
X47580Y-49460
X47580Y-49960
X47580Y-50460
X47580Y-50960
X47580Y-51460
T6
X64295Y-21325
X66972Y-16561
T7
X36850Y-28701
X36850Y-29701
X41154Y-39551
X41154Y-40551
X41154Y-41551
X41154Y-42651
X41154Y-43651
X41484Y-55906
X41484Y-56906
X41484Y-58268
X41524Y-44700
X41524Y-45700
X41524Y-46700
X41524Y-47700
X41524Y-48700
X41524Y-49700
X41524Y-50700
X41524Y-53600
X41590Y-20343
X41590Y-21343
X42484Y-55906
X42484Y-56906
X42484Y-58268
X42524Y-53600
X43165Y-20343
X43165Y-21343
X43484Y-55906
X43484Y-56906
X43484Y-58268
X44484Y-55906
X44484Y-56906
X44484Y-58268
X44740Y-20343
X44740Y-21343
X45421Y-45836
X45421Y-46836
X45484Y-55906
X45484Y-56906
X45484Y-58268
X46315Y-20343
X46315Y-21343
X46484Y-55906
X46484Y-56906
X47480Y-58268
X47484Y-55906
X47484Y-56906
X47889Y-20343
X47889Y-21343
X48484Y-55906
X48484Y-56906
X48484Y-58268
X49464Y-20343
X49464Y-21343
X49484Y-55906
X49484Y-56906
X49484Y-58268
X50484Y-55906
X50484Y-56906
X50484Y-58268
X51039Y-20343
X51039Y-21343
X51484Y-55906
X51484Y-56906
X51484Y-58268
X52484Y-55906
X52484Y-56906
X52484Y-58268
X53484Y-55906
X53484Y-56906
X53484Y-58268
X54484Y-55906
X54484Y-56906
X54484Y-58268
X55484Y-55906
X55484Y-56906
X56484Y-55906
X56484Y-56906
X57484Y-55906
X57484Y-56906
X58484Y-55906
X58484Y-56906
X59484Y-55906
X59484Y-56906
X60484Y-55906
X60484Y-56906
T8
X56299Y-16466
X56299Y-18238
X60590Y-20994
X60590Y-22766
T9
X65634Y-16561
X65634Y-21325
T10
X33680Y-32803
X33680Y-34772
X33680Y-37921
X33680Y-39890
X33680Y-43039
X33680Y-45008
X33680Y-48157
X33680Y-50126
X33680Y-53276
X33680Y-55244
X34961Y-22787
X34961Y-30787
X42717Y-15394
X44094Y-15394
X46063Y-15394
X47441Y-15394
X49409Y-15394
X50787Y-15394
X52756Y-15394
X54134Y-15394
X64437Y-22974
X64437Y-24352
T11
X57811Y-32579
X57811Y-34744
X59465Y-32579
X59465Y-34744
X61118Y-32579
X61118Y-34744
X62772Y-32579
X62772Y-34744
T12
X64078Y-16876
X67425Y-21010
T13
X57224Y-19616
X60964Y-19616
T14
X63527Y-20281
X64315Y-18648
X67189Y-19238
X67740Y-17604
T15
X57578Y-15640
X59311Y-23592
T16
X69390Y-30699
X69390Y-32668
T17
X39567Y-37114
X39567Y-47350
X39567Y-56406
X62402Y-37114
X62402Y-47350
X62402Y-56406
T5
G00X66614Y-28652
M15
G01X65787Y-28652
M16
G05
G00X66614Y-34715
M15
G01X65787Y-34715
M16
G05
G00X66161Y-30601
M15
G01X66988Y-30601
M16
G05
G00X66161Y-32766
M15
G01X66988Y-32766
M16
G05
G00X67638Y-30699
M15
G01X68465Y-30699
M16
G05
G00X67638Y-32668
M15
G01X68465Y-32668
M16
G05
G00X69961Y-28652
M15
G01X69134Y-28652
M16
G05
G00X69961Y-34715
M15
G01X69134Y-34715
M16
G05
G00X70177Y-32097
M15
G01X70177Y-31270
M16
G05
T7
G00X67649Y-26894
M15
G01X67649Y-26106
M16
G05
G00X69224Y-24650
M15
G01X68437Y-24650
M16
G05
G00X70011Y-26894
M15
G01X70011Y-26106
M16
G05
T0
M30
