G04 #@! TF.GenerationSoftware,KiCad,Pcbnew,(6.0.1-0)*
G04 #@! TF.CreationDate,2022-02-25T04:31:26+09:00*
G04 #@! TF.ProjectId,qPCR-main,71504352-2d6d-4616-996e-2e6b69636164,rev?*
G04 #@! TF.SameCoordinates,Original*
G04 #@! TF.FileFunction,Soldermask,Bot*
G04 #@! TF.FilePolarity,Negative*
%FSLAX46Y46*%
G04 Gerber Fmt 4.6, Leading zero omitted, Abs format (unit mm)*
G04 Created by KiCad (PCBNEW (6.0.1-0)) date 2022-02-25 04:31:26*
%MOMM*%
%LPD*%
G01*
G04 APERTURE LIST*
G04 Aperture macros list*
%AMRoundRect*
0 Rectangle with rounded corners*
0 $1 Rounding radius*
0 $2 $3 $4 $5 $6 $7 $8 $9 X,Y pos of 4 corners*
0 Add a 4 corners polygon primitive as box body*
4,1,4,$2,$3,$4,$5,$6,$7,$8,$9,$2,$3,0*
0 Add four circle primitives for the rounded corners*
1,1,$1+$1,$2,$3*
1,1,$1+$1,$4,$5*
1,1,$1+$1,$6,$7*
1,1,$1+$1,$8,$9*
0 Add four rect primitives between the rounded corners*
20,1,$1+$1,$2,$3,$4,$5,0*
20,1,$1+$1,$4,$5,$6,$7,0*
20,1,$1+$1,$6,$7,$8,$9,0*
20,1,$1+$1,$8,$9,$2,$3,0*%
%AMFreePoly0*
4,1,6,1.000000,0.000000,0.500000,-0.750000,-0.500000,-0.750000,-0.500000,0.750000,0.500000,0.750000,1.000000,0.000000,1.000000,0.000000,$1*%
G04 Aperture macros list end*
%ADD10C,0.600000*%
%ADD11R,1.700000X1.700000*%
%ADD12O,1.700000X1.700000*%
%ADD13C,2.000000*%
%ADD14R,2.400000X2.400000*%
%ADD15C,2.400000*%
%ADD16C,2.108200*%
%ADD17C,1.498600*%
%ADD18C,1.701800*%
%ADD19C,2.006600*%
%ADD20C,2.700000*%
%ADD21C,1.700000*%
%ADD22R,3.500000X3.500000*%
%ADD23RoundRect,0.750000X0.750000X1.000000X-0.750000X1.000000X-0.750000X-1.000000X0.750000X-1.000000X0*%
%ADD24RoundRect,0.875000X0.875000X0.875000X-0.875000X0.875000X-0.875000X-0.875000X0.875000X-0.875000X0*%
%ADD25O,2.400000X2.400000*%
%ADD26C,6.000000*%
%ADD27R,1.070000X1.800000*%
%ADD28O,1.070000X1.800000*%
%ADD29RoundRect,0.375000X-1.375000X0.375000X-1.375000X-0.375000X1.375000X-0.375000X1.375000X0.375000X0*%
%ADD30RoundRect,0.375000X0.375000X1.375000X-0.375000X1.375000X-0.375000X-1.375000X0.375000X-1.375000X0*%
%ADD31RoundRect,0.375000X1.275000X-0.375000X1.275000X0.375000X-1.275000X0.375000X-1.275000X-0.375000X0*%
%ADD32FreePoly0,90.000000*%
%ADD33FreePoly0,270.000000*%
%ADD34R,1.500000X1.500000*%
%ADD35R,1.000000X1.000000*%
%ADD36O,1.000000X1.000000*%
%ADD37O,2.201600X4.301600*%
%ADD38FreePoly0,0.000000*%
%ADD39FreePoly0,180.000000*%
G04 APERTURE END LIST*
D10*
X113829998Y-87549987D03*
X113329999Y-88549988D03*
X114429998Y-88549988D03*
X113829998Y-89549989D03*
D11*
X105370000Y-148000000D03*
D12*
X107910000Y-148000000D03*
X110450000Y-148000000D03*
X112990000Y-148000000D03*
X115530000Y-148000000D03*
D13*
X129000000Y-39100000D03*
X125500000Y-39100000D03*
D14*
X85546006Y-101319990D03*
D15*
X85546006Y-96319990D03*
D14*
X85546006Y-114319990D03*
D15*
X85546006Y-109319990D03*
D14*
X85546006Y-127319989D03*
D15*
X85546006Y-122319989D03*
D14*
X85546006Y-140319989D03*
D15*
X85546006Y-135319989D03*
D14*
X85546006Y-88319991D03*
D15*
X85546006Y-83319991D03*
D13*
X137500000Y-39100000D03*
X134000000Y-39100000D03*
X120500000Y-39100000D03*
X117000000Y-39100000D03*
X163669312Y-61854869D03*
X163669312Y-58354869D03*
D16*
X172059312Y-44714869D03*
D17*
X170109312Y-42064869D03*
D18*
X166709312Y-42064869D03*
D19*
X162759312Y-42864869D03*
D16*
X163359312Y-47364869D03*
X161359312Y-51514869D03*
D17*
X163309312Y-54164869D03*
D18*
X166709312Y-54164869D03*
D19*
X171259312Y-53364869D03*
D16*
X170659312Y-48864869D03*
D20*
X146249312Y-39724869D03*
D21*
X142999312Y-41824869D03*
X142999312Y-46324869D03*
D13*
X145349312Y-49824869D03*
X154849312Y-49824869D03*
D21*
X153899312Y-53324869D03*
X153899312Y-57824869D03*
D20*
X150649312Y-59924869D03*
D22*
X171828993Y-67310000D03*
D23*
X177828993Y-67310000D03*
D24*
X174828993Y-62610000D03*
D13*
X112000000Y-39100000D03*
X108500000Y-39100000D03*
D11*
X125639055Y-54210944D03*
D12*
X125639055Y-51670944D03*
D11*
X129639055Y-54210944D03*
D12*
X129639055Y-51670944D03*
D11*
X109639055Y-54210944D03*
D12*
X109639055Y-51670944D03*
D11*
X113639055Y-54210944D03*
D12*
X113639055Y-51670944D03*
D11*
X117639055Y-54210944D03*
D12*
X117639055Y-51670944D03*
D11*
X121639055Y-54210944D03*
D12*
X121639055Y-51670944D03*
D11*
X105639057Y-54210941D03*
D12*
X105639057Y-51670941D03*
D15*
X88800000Y-78200000D03*
D25*
X88800000Y-57880000D03*
D12*
X153630000Y-144540000D03*
X153630000Y-142000000D03*
X151090000Y-144540000D03*
X151090000Y-142000000D03*
X148550000Y-144540000D03*
X148550000Y-142000000D03*
X146010000Y-144540000D03*
X146010000Y-142000000D03*
X143470000Y-144540000D03*
X143470000Y-142000000D03*
X140930000Y-144540000D03*
X140930000Y-142000000D03*
X138390000Y-144540000D03*
X138390000Y-142000000D03*
X135850000Y-144540000D03*
X135850000Y-142000000D03*
X133310000Y-144540000D03*
X133310000Y-142000000D03*
X130770000Y-144540000D03*
X130770000Y-142000000D03*
X128230000Y-144540000D03*
X128230000Y-142000000D03*
X125690000Y-144540000D03*
X125690000Y-142000000D03*
X123150000Y-144540000D03*
X123150000Y-142000000D03*
X120610000Y-144540000D03*
X120610000Y-142000000D03*
X118070000Y-144540000D03*
X118070000Y-142000000D03*
X115530000Y-144540000D03*
X115530000Y-142000000D03*
X112990000Y-144540000D03*
X112990000Y-142000000D03*
X110450000Y-144540000D03*
X110450000Y-142000000D03*
X107910000Y-144540000D03*
X107910000Y-142000000D03*
X105370000Y-144540000D03*
D11*
X105370000Y-142000000D03*
D26*
X158500000Y-143270000D03*
X100500000Y-94270000D03*
X158500000Y-120270000D03*
X100500000Y-143270000D03*
X158500000Y-94270000D03*
X100500000Y-120270000D03*
D27*
X101000000Y-37320000D03*
D28*
X102270000Y-37320000D03*
X103540000Y-37320000D03*
X104810000Y-37320000D03*
D29*
X176650008Y-72775988D03*
X168150008Y-72775988D03*
X176650008Y-88175988D03*
X168150008Y-88175988D03*
D30*
X178250008Y-80475988D03*
D31*
X172850008Y-77975988D03*
X172850008Y-82975988D03*
X169100008Y-77725988D03*
X169100008Y-83225988D03*
D13*
X176250008Y-82975988D03*
X176250008Y-77975988D03*
D11*
X123150000Y-148000000D03*
X125690000Y-148000000D03*
X128230000Y-148000000D03*
X130770000Y-148000000D03*
X135850000Y-148000000D03*
X93599991Y-72900007D03*
D12*
X93599991Y-75440007D03*
D11*
X138390000Y-148000000D03*
D32*
X92860000Y-62500000D03*
D33*
X92860000Y-58500000D03*
D34*
X92860000Y-61700000D03*
X92860000Y-59300000D03*
D11*
X133310000Y-148000000D03*
X104530000Y-100460000D03*
D35*
X118262400Y-126898400D03*
D36*
X118262400Y-125628400D03*
X118262400Y-124358400D03*
X118262400Y-123088400D03*
X118262400Y-121818400D03*
X118262400Y-120548400D03*
D11*
X105469995Y-113538000D03*
X108039992Y-136119997D03*
X105499992Y-136119997D03*
D37*
X140490004Y-88250007D03*
X144690004Y-88250007D03*
X148890004Y-88250007D03*
X153090004Y-88250007D03*
X140490004Y-82750007D03*
X144690004Y-82750007D03*
X148890004Y-82750007D03*
X153090004Y-82750007D03*
D11*
X120600000Y-148000000D03*
D32*
X111897500Y-118600000D03*
D33*
X111897500Y-114600000D03*
D34*
X111897500Y-115400000D03*
X111897500Y-117800000D03*
D11*
X115370000Y-118963999D03*
X115370000Y-116423999D03*
D32*
X107809995Y-111571993D03*
D33*
X107809995Y-107571993D03*
D34*
X107809995Y-108371993D03*
X107809995Y-110771993D03*
D38*
X104908600Y-131470400D03*
D39*
X108908600Y-131470400D03*
D34*
X108108600Y-131470400D03*
X105708600Y-131470400D03*
D11*
X105469995Y-116078000D03*
D12*
X105469995Y-118618000D03*
D35*
X120853200Y-130708400D03*
D36*
X120853200Y-129438400D03*
X120853200Y-128168400D03*
X120853200Y-126898400D03*
X120853200Y-125628400D03*
X120853200Y-124358400D03*
X120853200Y-123088400D03*
X120853200Y-121818400D03*
X120853200Y-120548400D03*
D35*
X108102400Y-121818400D03*
D36*
X108102400Y-123088400D03*
X108102400Y-124358400D03*
X108102400Y-125628400D03*
X108102400Y-126898400D03*
D38*
X104908600Y-133604000D03*
D39*
X108908600Y-133604000D03*
D34*
X105708600Y-133604000D03*
X108108600Y-133604000D03*
D11*
X105469995Y-128778000D03*
D12*
X105469995Y-126238000D03*
D11*
X104529992Y-105539997D03*
D12*
X104529992Y-102999997D03*
D11*
X104530000Y-108334000D03*
D12*
X104530000Y-110874000D03*
D11*
X105469995Y-121158000D03*
D12*
X105469995Y-123698000D03*
M02*
