G04 #@! TF.GenerationSoftware,KiCad,Pcbnew,(6.0.1-0)*
G04 #@! TF.CreationDate,2022-02-22T01:29:47+09:00*
G04 #@! TF.ProjectId,qPCR-main,71504352-2d6d-4616-996e-2e6b69636164,rev?*
G04 #@! TF.SameCoordinates,Original*
G04 #@! TF.FileFunction,Soldermask,Top*
G04 #@! TF.FilePolarity,Negative*
%FSLAX46Y46*%
G04 Gerber Fmt 4.6, Leading zero omitted, Abs format (unit mm)*
G04 Created by KiCad (PCBNEW (6.0.1-0)) date 2022-02-22 01:29:47*
%MOMM*%
%LPD*%
G01*
G04 APERTURE LIST*
G04 Aperture macros list*
%AMRoundRect*
0 Rectangle with rounded corners*
0 $1 Rounding radius*
0 $2 $3 $4 $5 $6 $7 $8 $9 X,Y pos of 4 corners*
0 Add a 4 corners polygon primitive as box body*
4,1,4,$2,$3,$4,$5,$6,$7,$8,$9,$2,$3,0*
0 Add four circle primitives for the rounded corners*
1,1,$1+$1,$2,$3*
1,1,$1+$1,$4,$5*
1,1,$1+$1,$6,$7*
1,1,$1+$1,$8,$9*
0 Add four rect primitives between the rounded corners*
20,1,$1+$1,$2,$3,$4,$5,0*
20,1,$1+$1,$4,$5,$6,$7,0*
20,1,$1+$1,$6,$7,$8,$9,0*
20,1,$1+$1,$8,$9,$2,$3,0*%
%AMFreePoly0*
4,1,22,0.500000,-0.750000,0.000000,-0.750000,0.000000,-0.745033,-0.079941,-0.743568,-0.215256,-0.701293,-0.333266,-0.622738,-0.424486,-0.514219,-0.481581,-0.384460,-0.499164,-0.250000,-0.500000,-0.250000,-0.500000,0.250000,-0.499164,0.250000,-0.499963,0.256109,-0.478152,0.396186,-0.417904,0.524511,-0.324060,0.630769,-0.204165,0.706417,-0.067858,0.745374,0.000000,0.744959,0.000000,0.750000,
0.500000,0.750000,0.500000,-0.750000,0.500000,-0.750000,$1*%
%AMFreePoly1*
4,1,20,0.000000,0.744959,0.073905,0.744508,0.209726,0.703889,0.328688,0.626782,0.421226,0.519385,0.479903,0.390333,0.500000,0.250000,0.500000,-0.250000,0.499851,-0.262216,0.476331,-0.402017,0.414519,-0.529596,0.319384,-0.634700,0.198574,-0.708877,0.061801,-0.746166,0.000000,-0.745033,0.000000,-0.750000,-0.500000,-0.750000,-0.500000,0.750000,0.000000,0.750000,0.000000,0.744959,
0.000000,0.744959,$1*%
G04 Aperture macros list end*
%ADD10C,0.475000*%
%ADD11C,0.100000*%
%ADD12R,1.750000X0.450000*%
%ADD13RoundRect,0.150000X-0.650000X-0.150000X0.650000X-0.150000X0.650000X0.150000X-0.650000X0.150000X0*%
%ADD14R,2.410000X3.100000*%
%ADD15R,1.700000X1.700000*%
%ADD16O,1.700000X1.700000*%
%ADD17C,2.000000*%
%ADD18FreePoly0,180.000000*%
%ADD19FreePoly1,180.000000*%
%ADD20RoundRect,0.150000X-0.150000X0.587500X-0.150000X-0.587500X0.150000X-0.587500X0.150000X0.587500X0*%
%ADD21R,1.500000X2.000000*%
%ADD22R,3.800000X2.000000*%
%ADD23C,0.600000*%
%ADD24R,1.500000X2.500000*%
%ADD25R,0.499999X0.249999*%
%ADD26R,2.400000X2.400000*%
%ADD27C,2.400000*%
%ADD28R,0.508000X0.825500*%
%ADD29RoundRect,0.250000X0.250000X0.475000X-0.250000X0.475000X-0.250000X-0.475000X0.250000X-0.475000X0*%
%ADD30RoundRect,0.225000X0.225000X0.250000X-0.225000X0.250000X-0.225000X-0.250000X0.225000X-0.250000X0*%
%ADD31RoundRect,0.225000X-0.225000X-0.250000X0.225000X-0.250000X0.225000X0.250000X-0.225000X0.250000X0*%
%ADD32RoundRect,0.225000X0.250000X-0.225000X0.250000X0.225000X-0.250000X0.225000X-0.250000X-0.225000X0*%
%ADD33RoundRect,0.250000X-0.475000X0.250000X-0.475000X-0.250000X0.475000X-0.250000X0.475000X0.250000X0*%
%ADD34RoundRect,0.250000X0.325000X1.100000X-0.325000X1.100000X-0.325000X-1.100000X0.325000X-1.100000X0*%
%ADD35R,2.300000X2.500000*%
%ADD36R,1.000000X1.250000*%
%ADD37RoundRect,0.250000X-1.425000X0.362500X-1.425000X-0.362500X1.425000X-0.362500X1.425000X0.362500X0*%
%ADD38R,3.200000X1.000000*%
%ADD39R,5.100000X1.900000*%
%ADD40R,5.100000X2.100000*%
%ADD41RoundRect,0.200000X0.200000X0.275000X-0.200000X0.275000X-0.200000X-0.275000X0.200000X-0.275000X0*%
%ADD42R,1.800000X2.500000*%
%ADD43RoundRect,0.200000X-0.275000X0.200000X-0.275000X-0.200000X0.275000X-0.200000X0.275000X0.200000X0*%
%ADD44RoundRect,0.200000X0.275000X-0.200000X0.275000X0.200000X-0.275000X0.200000X-0.275000X-0.200000X0*%
%ADD45RoundRect,0.250000X0.475000X-0.250000X0.475000X0.250000X-0.475000X0.250000X-0.475000X-0.250000X0*%
%ADD46R,0.650000X0.350000*%
%ADD47R,1.500000X2.400000*%
%ADD48RoundRect,0.225000X-0.250000X0.225000X-0.250000X-0.225000X0.250000X-0.225000X0.250000X0.225000X0*%
%ADD49RoundRect,0.125000X0.125000X-0.537500X0.125000X0.537500X-0.125000X0.537500X-0.125000X-0.537500X0*%
%ADD50RoundRect,0.150000X0.512500X0.150000X-0.512500X0.150000X-0.512500X-0.150000X0.512500X-0.150000X0*%
%ADD51RoundRect,0.250000X-0.250000X-0.475000X0.250000X-0.475000X0.250000X0.475000X-0.250000X0.475000X0*%
%ADD52R,0.900000X1.000000*%
%ADD53R,1.473200X0.355600*%
%ADD54R,1.570000X0.410000*%
%ADD55R,1.473200X0.558800*%
%ADD56R,0.300000X1.250000*%
%ADD57R,2.400000X3.000000*%
%ADD58R,1.350000X0.600000*%
%ADD59R,1.350000X0.400000*%
%ADD60C,2.108200*%
%ADD61C,1.498600*%
%ADD62C,1.701800*%
%ADD63C,2.006600*%
%ADD64C,2.700000*%
%ADD65C,1.700000*%
%ADD66R,1.219200X3.098800*%
%ADD67R,1.320800X0.558800*%
%ADD68R,1.397000X0.889000*%
%ADD69R,0.863600X0.762000*%
%ADD70R,3.500000X3.500000*%
%ADD71RoundRect,0.750000X0.750000X1.000000X-0.750000X1.000000X-0.750000X-1.000000X0.750000X-1.000000X0*%
%ADD72RoundRect,0.875000X0.875000X0.875000X-0.875000X0.875000X-0.875000X-0.875000X0.875000X-0.875000X0*%
%ADD73RoundRect,0.200000X-0.200000X-0.275000X0.200000X-0.275000X0.200000X0.275000X-0.200000X0.275000X0*%
%ADD74R,0.889000X1.397000*%
%ADD75R,0.762000X0.863600*%
%ADD76R,1.516000X0.457200*%
%ADD77RoundRect,0.250000X1.100000X-0.325000X1.100000X0.325000X-1.100000X0.325000X-1.100000X-0.325000X0*%
%ADD78R,3.250000X5.000000*%
%ADD79O,2.400000X2.400000*%
%ADD80RoundRect,0.250000X-0.325000X-1.100000X0.325000X-1.100000X0.325000X1.100000X-0.325000X1.100000X0*%
%ADD81C,6.000000*%
%ADD82RoundRect,0.375000X1.275000X-0.375000X1.275000X0.375000X-1.275000X0.375000X-1.275000X-0.375000X0*%
%ADD83RoundRect,0.375000X0.375000X1.375000X-0.375000X1.375000X-0.375000X-1.375000X0.375000X-1.375000X0*%
%ADD84RoundRect,0.375000X-1.375000X0.375000X-1.375000X-0.375000X1.375000X-0.375000X1.375000X0.375000X0*%
%ADD85RoundRect,0.140000X-0.140000X-0.170000X0.140000X-0.170000X0.140000X0.170000X-0.140000X0.170000X0*%
%ADD86R,1.000000X1.000000*%
%ADD87O,1.000000X1.000000*%
%ADD88O,2.201600X4.301600*%
G04 APERTURE END LIST*
D10*
X87900003Y-52824990D02*
G75*
G03*
X87900003Y-52824990I-400000J0D01*
G01*
X88300000Y-147500000D02*
G75*
G03*
X88300000Y-147500000I-400000J0D01*
G01*
X97200010Y-35224999D02*
G75*
G03*
X97200010Y-35224999I-400000J0D01*
G01*
X178724993Y-40299996D02*
G75*
G03*
X178724993Y-40299996I-400000J0D01*
G01*
X173400010Y-86124999D02*
G75*
G03*
X173400010Y-86124999I-400000J0D01*
G01*
X160140000Y-100510000D02*
G75*
G03*
X160140000Y-100510000I-400000J0D01*
G01*
X159540000Y-137010000D02*
G75*
G03*
X159540000Y-137010000I-400000J0D01*
G01*
G36*
X133566892Y-112101109D02*
G01*
X133066892Y-112101109D01*
X133066892Y-111501109D01*
X133566892Y-111501109D01*
X133566892Y-112101109D01*
G37*
G36*
X133566892Y-112921109D02*
G01*
X133066892Y-112921109D01*
X133066892Y-112321109D01*
X133566892Y-112321109D01*
X133566892Y-112921109D01*
G37*
G36*
X134266892Y-112101109D02*
G01*
X133766892Y-112101109D01*
X133766892Y-111501109D01*
X134266892Y-111501109D01*
X134266892Y-112101109D01*
G37*
G36*
X134966892Y-111281109D02*
G01*
X134466892Y-111281109D01*
X134466892Y-110681109D01*
X134966892Y-110681109D01*
X134966892Y-111281109D01*
G37*
G36*
X133566892Y-111281109D02*
G01*
X133066892Y-111281109D01*
X133066892Y-110681109D01*
X133566892Y-110681109D01*
X133566892Y-111281109D01*
G37*
G36*
X134966892Y-112101109D02*
G01*
X134466892Y-112101109D01*
X134466892Y-111501109D01*
X134966892Y-111501109D01*
X134966892Y-112101109D01*
G37*
G36*
X133566892Y-110461109D02*
G01*
X133066892Y-110461109D01*
X133066892Y-109861109D01*
X133566892Y-109861109D01*
X133566892Y-110461109D01*
G37*
G36*
X134266892Y-112921109D02*
G01*
X133766892Y-112921109D01*
X133766892Y-112321109D01*
X134266892Y-112321109D01*
X134266892Y-112921109D01*
G37*
G36*
X134266892Y-111281109D02*
G01*
X133766892Y-111281109D01*
X133766892Y-110681109D01*
X134266892Y-110681109D01*
X134266892Y-111281109D01*
G37*
G36*
X134966892Y-112921109D02*
G01*
X134466892Y-112921109D01*
X134466892Y-112321109D01*
X134966892Y-112321109D01*
X134966892Y-112921109D01*
G37*
G36*
X134266892Y-110461109D02*
G01*
X133766892Y-110461109D01*
X133766892Y-109861109D01*
X134266892Y-109861109D01*
X134266892Y-110461109D01*
G37*
G36*
X134966892Y-110461109D02*
G01*
X134466892Y-110461109D01*
X134466892Y-109861109D01*
X134966892Y-109861109D01*
X134966892Y-110461109D01*
G37*
D11*
X155773799Y-69459000D02*
X159761599Y-69459000D01*
X159761599Y-69459000D02*
X159761599Y-65141000D01*
X159761599Y-65141000D02*
X155773799Y-65141000D01*
X155773799Y-65141000D02*
X155773799Y-69459000D01*
G36*
X159761599Y-69459000D02*
G01*
X155773799Y-69459000D01*
X155773799Y-65141000D01*
X159761599Y-65141000D01*
X159761599Y-69459000D01*
G37*
X159761599Y-69459000D02*
X155773799Y-69459000D01*
X155773799Y-65141000D01*
X159761599Y-65141000D01*
X159761599Y-69459000D01*
D12*
X110740005Y-106534000D03*
X110740005Y-107184000D03*
X110740005Y-107834000D03*
X110740005Y-108484000D03*
X110740005Y-109134000D03*
X110740005Y-109784000D03*
X110740005Y-110434000D03*
X110740005Y-111084000D03*
X110740005Y-111734000D03*
X110740005Y-112384000D03*
X110740005Y-113034000D03*
X110740005Y-113684000D03*
X117940005Y-113684000D03*
X117940005Y-113034000D03*
X117940005Y-112384000D03*
X117940005Y-111734000D03*
X117940005Y-111084000D03*
X117940005Y-110434000D03*
X117940005Y-109784000D03*
X117940005Y-109134000D03*
X117940005Y-108484000D03*
X117940005Y-107834000D03*
X117940005Y-107184000D03*
X117940005Y-106534000D03*
D13*
X99400012Y-66594990D03*
X99400012Y-67864990D03*
X99400012Y-69134990D03*
X99400012Y-70404990D03*
X104700012Y-70404990D03*
X104700012Y-69134990D03*
X104700012Y-67864990D03*
X104700012Y-66594990D03*
D14*
X102050012Y-68499990D03*
D15*
X105370000Y-148000000D03*
D16*
X107910000Y-148000000D03*
X110450000Y-148000000D03*
X112990000Y-148000000D03*
X115530000Y-148000000D03*
D17*
X129000000Y-39100000D03*
X125500000Y-39100000D03*
D15*
X93600000Y-72900000D03*
D16*
X93600000Y-75440000D03*
D18*
X145660000Y-120220000D03*
D19*
X144360000Y-120220000D03*
D20*
X94886000Y-78512500D03*
X92986000Y-78512500D03*
X93936000Y-80387500D03*
X92926000Y-91512500D03*
X91026000Y-91512500D03*
X91976000Y-93387500D03*
X92926000Y-104512500D03*
X91026000Y-104512500D03*
X91976000Y-106387500D03*
X92926000Y-117512500D03*
X91026000Y-117512500D03*
X91976000Y-119387500D03*
X92926000Y-130512500D03*
X91026000Y-130512500D03*
X91976000Y-132387500D03*
D21*
X114625000Y-76325000D03*
X112325000Y-76325000D03*
X110025000Y-76325000D03*
D22*
X112325000Y-82625000D03*
D23*
X114429997Y-88549988D03*
X113829998Y-89550011D03*
X113329999Y-88549988D03*
X113829998Y-87549990D03*
D24*
X113830000Y-88550000D03*
D25*
X115280000Y-87300000D03*
X115280000Y-87799999D03*
X115280000Y-88300000D03*
X115280000Y-88800000D03*
X115280000Y-89300001D03*
X115280000Y-89800000D03*
X112380000Y-89800000D03*
X112380000Y-89300001D03*
X112380000Y-88800000D03*
X112380000Y-88300000D03*
X112380000Y-87799999D03*
X112380000Y-87300000D03*
D26*
X85546000Y-101320000D03*
D27*
X85546000Y-96320000D03*
D26*
X85546000Y-114320000D03*
D27*
X85546000Y-109320000D03*
D26*
X85546000Y-127320000D03*
D27*
X85546000Y-122320000D03*
D26*
X85546000Y-140320000D03*
D27*
X85546000Y-135320000D03*
D28*
X134349795Y-134096354D03*
X133409995Y-134096354D03*
X132470195Y-134096354D03*
X132457495Y-136623654D03*
X134362495Y-136623654D03*
D29*
X135410000Y-127150000D03*
X133510000Y-127150000D03*
D30*
X135235000Y-129182000D03*
X133685000Y-129182000D03*
D31*
X110725000Y-70670000D03*
X112275000Y-70670000D03*
D30*
X135235000Y-130960000D03*
X133685000Y-130960000D03*
X104625000Y-80280000D03*
X106175000Y-80280000D03*
X109625000Y-90090000D03*
X111175000Y-90090000D03*
D32*
X114290000Y-84945000D03*
X114290000Y-86495000D03*
X112670000Y-84775000D03*
X112670000Y-86325000D03*
D33*
X116770000Y-89410000D03*
X116770000Y-87510000D03*
D34*
X104725000Y-89480000D03*
X107675000Y-89480000D03*
D35*
X83500000Y-69950000D03*
X83500000Y-65650000D03*
X83500000Y-73550000D03*
X83500000Y-77850000D03*
D36*
X114880000Y-91220000D03*
X116880000Y-91220000D03*
D37*
X93936000Y-82857500D03*
X93936000Y-88782500D03*
X93936000Y-95857500D03*
X93936000Y-101782500D03*
X93936000Y-108857500D03*
X93936000Y-114782500D03*
X93936000Y-121857500D03*
X93936000Y-127782500D03*
X93936000Y-134857500D03*
X93936000Y-140782500D03*
D30*
X135235000Y-132738000D03*
X133685000Y-132738000D03*
D38*
X93650000Y-59500000D03*
X93650000Y-65700000D03*
D39*
X98900000Y-76900000D03*
D40*
X98900000Y-72700000D03*
D30*
X108217000Y-66721990D03*
X106667000Y-66721990D03*
X108217000Y-68499990D03*
X106667000Y-68499990D03*
D34*
X104725000Y-92780000D03*
X107675000Y-92780000D03*
D41*
X109175000Y-88620000D03*
X110825000Y-88620000D03*
D26*
X85546000Y-88320000D03*
D27*
X85546000Y-83320000D03*
D41*
X109225000Y-87060000D03*
X110875000Y-87060000D03*
D17*
X137500000Y-39100000D03*
X134000000Y-39100000D03*
X120500000Y-39100000D03*
X117000000Y-39100000D03*
D42*
X134590000Y-48790000D03*
X134590000Y-44790000D03*
X138400000Y-48790000D03*
X138400000Y-44790000D03*
D20*
X135540000Y-51452500D03*
X133640000Y-51452500D03*
X134590000Y-53327500D03*
X139350000Y-51452500D03*
X137450000Y-51452500D03*
X138400000Y-53327500D03*
D43*
X134590000Y-55175000D03*
X134590000Y-56825000D03*
D44*
X138400000Y-55175000D03*
X138400000Y-56825000D03*
D45*
X130359988Y-136310004D03*
X130359988Y-134410004D03*
D46*
X134170000Y-118135000D03*
X134170000Y-118785000D03*
X134170000Y-119435001D03*
X134170000Y-120084999D03*
X137270000Y-120084999D03*
X137270000Y-119435001D03*
X137270000Y-118785000D03*
X137270000Y-118135000D03*
D47*
X135720000Y-119110000D03*
D12*
X120789998Y-106534000D03*
X120789998Y-107184000D03*
X120789998Y-107834000D03*
X120789998Y-108484000D03*
X120789998Y-109134000D03*
X120789998Y-109784000D03*
X120789998Y-110434000D03*
X120789998Y-111084000D03*
X120789998Y-111734000D03*
X120789998Y-112384000D03*
X120789998Y-113034000D03*
X120789998Y-113684000D03*
X127989998Y-113684000D03*
X127989998Y-113034000D03*
X127989998Y-112384000D03*
X127989998Y-111734000D03*
X127989998Y-111084000D03*
X127989998Y-110434000D03*
X127989998Y-109784000D03*
X127989998Y-109134000D03*
X127989998Y-108484000D03*
X127989998Y-107834000D03*
X127989998Y-107184000D03*
X127989998Y-106534000D03*
D30*
X108584995Y-111349993D03*
X107034995Y-111349993D03*
D32*
X140360000Y-107755000D03*
X140360000Y-106205000D03*
D31*
X107034995Y-107793993D03*
X108584995Y-107793993D03*
D48*
X107365800Y-132524200D03*
X107365800Y-134074200D03*
D32*
X109143800Y-134074200D03*
X109143800Y-132524200D03*
X118872000Y-136135004D03*
X118872000Y-134585004D03*
D29*
X112620000Y-120450000D03*
X110720000Y-120450000D03*
D49*
X124165000Y-135947500D03*
X124815000Y-135947500D03*
X125465000Y-135947500D03*
X126115000Y-135947500D03*
X126115000Y-133672500D03*
X125465000Y-133672500D03*
X124815000Y-133672500D03*
X124165000Y-133672500D03*
D50*
X113004993Y-118609988D03*
X113004993Y-117659988D03*
X113004993Y-116709988D03*
X110729993Y-116709988D03*
X110729993Y-118609988D03*
D51*
X114400000Y-120790000D03*
X116300000Y-120790000D03*
D52*
X113084500Y-130352500D03*
X113084500Y-128727500D03*
X111859500Y-128727500D03*
X111859500Y-130352500D03*
D32*
X110380000Y-130315000D03*
X110380000Y-128765000D03*
D43*
X114698000Y-128715000D03*
X114698000Y-130365000D03*
X116730000Y-128715000D03*
X116730000Y-130365000D03*
D53*
X116109400Y-126874999D03*
X116109400Y-126225001D03*
X116109400Y-125574999D03*
X116109400Y-124925001D03*
X116109400Y-124275002D03*
X116109400Y-123625001D03*
X116109400Y-122975002D03*
X116109400Y-122325001D03*
X110470600Y-122325001D03*
X110470600Y-122974999D03*
X110470600Y-123625001D03*
X110470600Y-124274999D03*
X110470600Y-124924998D03*
X110470600Y-125574999D03*
X110470600Y-126224998D03*
X110470600Y-126874999D03*
D54*
X111150000Y-131815000D03*
X111150000Y-132465000D03*
X111150000Y-133115000D03*
X111150000Y-133765000D03*
X111150000Y-134415000D03*
X111150000Y-135065000D03*
X111150000Y-135715000D03*
X111150000Y-136365000D03*
X116890000Y-136365000D03*
X116890000Y-135715000D03*
X116890000Y-135065000D03*
X116890000Y-134415000D03*
X116890000Y-133765000D03*
X116890000Y-133115000D03*
X116890000Y-132465000D03*
X116890000Y-131815000D03*
D55*
X118116198Y-116709987D03*
X118116198Y-117659988D03*
X118116198Y-118609989D03*
X120503798Y-118609989D03*
X120503798Y-116709987D03*
D43*
X108602000Y-128715000D03*
X108602000Y-130365000D03*
D41*
X108634995Y-109571993D03*
X106984995Y-109571993D03*
D44*
X120650000Y-136185004D03*
X120650000Y-134535004D03*
X122428000Y-136185004D03*
X122428000Y-134535004D03*
D12*
X130750012Y-129664994D03*
X130750012Y-129014994D03*
X130750012Y-128364994D03*
X130750012Y-127714994D03*
X130750012Y-127064994D03*
X130750012Y-126414994D03*
X130750012Y-125764994D03*
X130750012Y-125114994D03*
X130750012Y-124464994D03*
X130750012Y-123814994D03*
X130750012Y-123164994D03*
X130750012Y-122514994D03*
X123550012Y-122514994D03*
X123550012Y-123164994D03*
X123550012Y-123814994D03*
X123550012Y-124464994D03*
X123550012Y-125114994D03*
X123550012Y-125764994D03*
X123550012Y-126414994D03*
X123550012Y-127064994D03*
X123550012Y-127714994D03*
X123550012Y-128364994D03*
X123550012Y-129014994D03*
X123550012Y-129664994D03*
D56*
X139020000Y-104340000D03*
X138520000Y-104340000D03*
X138020000Y-104340000D03*
X137520000Y-104340000D03*
X137020000Y-104340000D03*
X136520000Y-104340000D03*
X136020000Y-104340000D03*
X135520000Y-104340000D03*
X135020000Y-104340000D03*
X134520000Y-104340000D03*
X134020000Y-104340000D03*
X133520000Y-104340000D03*
X133020000Y-104340000D03*
X132520000Y-104340000D03*
X132020000Y-104340000D03*
X131520000Y-104340000D03*
X131020000Y-104340000D03*
X130520000Y-104340000D03*
X130020000Y-104340000D03*
X129520000Y-104340000D03*
X129020000Y-104340000D03*
X128520000Y-104340000D03*
X128020000Y-104340000D03*
X127520000Y-104340000D03*
X127020000Y-104340000D03*
X126520000Y-104340000D03*
X126020000Y-104340000D03*
X125520000Y-104340000D03*
X125020000Y-104340000D03*
X124520000Y-104340000D03*
X124020000Y-104340000D03*
X123520000Y-104340000D03*
X123020000Y-104340000D03*
X122520000Y-104340000D03*
X122020000Y-104340000D03*
X121520000Y-104340000D03*
X121020000Y-104340000D03*
X120520000Y-104340000D03*
X120020000Y-104340000D03*
X119520000Y-104340000D03*
X119020000Y-104340000D03*
X118520000Y-104340000D03*
X118020000Y-104340000D03*
X117520000Y-104340000D03*
X117020000Y-104340000D03*
X116520000Y-104340000D03*
X116020000Y-104340000D03*
X115520000Y-104340000D03*
X115020000Y-104340000D03*
X114520000Y-104340000D03*
X114020000Y-104340000D03*
X113520000Y-104340000D03*
X113020000Y-104340000D03*
X112520000Y-104340000D03*
X112020000Y-104340000D03*
X111520000Y-104340000D03*
X111020000Y-104340000D03*
X110520000Y-104340000D03*
X110020000Y-104340000D03*
X109520000Y-104340000D03*
D57*
X140820000Y-102015000D03*
X107720000Y-102015000D03*
D58*
X137066892Y-115726109D03*
D59*
X137066892Y-114976109D03*
X137066892Y-114326109D03*
X137066892Y-113676109D03*
X137066892Y-113026109D03*
X137066892Y-112376109D03*
X137066892Y-111726109D03*
X137066892Y-111076109D03*
X137066892Y-110426109D03*
X137066892Y-109776109D03*
X137066892Y-109126109D03*
X137066892Y-108476109D03*
X137066892Y-107826109D03*
D58*
X137066892Y-107076109D03*
X130966892Y-107076109D03*
D59*
X130966892Y-107826109D03*
X130966892Y-108476109D03*
X130966892Y-109126109D03*
X130966892Y-109776109D03*
X130966892Y-110426109D03*
X130966892Y-111076109D03*
X130966892Y-111726109D03*
X130966892Y-112376109D03*
X130966892Y-113026109D03*
X130966892Y-113676109D03*
X130966892Y-114326109D03*
X130966892Y-114976109D03*
D58*
X130966892Y-115726109D03*
D17*
X163669312Y-61854869D03*
X163669312Y-58354869D03*
D60*
X172059312Y-44714869D03*
D61*
X170109312Y-42064869D03*
D62*
X166709312Y-42064869D03*
D63*
X162759312Y-42864869D03*
D60*
X163359312Y-47364869D03*
X161359312Y-51514869D03*
D61*
X163309312Y-54164869D03*
D62*
X166709312Y-54164869D03*
D63*
X171259312Y-53364869D03*
D60*
X170659312Y-48864869D03*
D64*
X146249312Y-39724869D03*
D65*
X142999312Y-41824869D03*
X142999312Y-46324869D03*
D17*
X145349312Y-49824869D03*
X154849312Y-49824869D03*
D65*
X153899312Y-53324869D03*
X153899312Y-57824869D03*
D64*
X150649312Y-59924869D03*
D66*
X98650000Y-57852700D03*
X98650000Y-52747300D03*
D67*
X123942800Y-43760200D03*
X123942800Y-45639800D03*
X126127200Y-44700000D03*
X129107800Y-43760200D03*
X129107800Y-45639800D03*
X131292200Y-44700000D03*
X118777800Y-43760200D03*
X118777800Y-45639800D03*
X120962200Y-44700000D03*
X113612800Y-43760200D03*
X113612800Y-45639800D03*
X115797200Y-44700000D03*
D68*
X84449300Y-62800000D03*
D69*
X82684000Y-62800000D03*
D70*
X171828993Y-67310000D03*
D71*
X177828993Y-67310000D03*
D72*
X174828993Y-62610000D03*
D30*
X103137000Y-62992000D03*
X101587000Y-62992000D03*
D73*
X101537000Y-64770000D03*
X103187000Y-64770000D03*
D74*
X159900000Y-73499300D03*
D75*
X159900000Y-71734000D03*
D76*
X161510199Y-69205000D03*
X161510199Y-67935000D03*
X161510199Y-66665000D03*
X161510199Y-65395000D03*
X155168199Y-65395000D03*
X155168199Y-66665000D03*
X155168199Y-67935000D03*
X155168199Y-69205000D03*
D77*
X163230000Y-73745000D03*
X163230000Y-70795000D03*
D34*
X157065000Y-73030000D03*
X154115000Y-73030000D03*
D78*
X152285000Y-68410000D03*
X141035000Y-68410000D03*
D17*
X112000000Y-39100000D03*
X108500000Y-39100000D03*
D15*
X125639055Y-54210944D03*
D16*
X125639055Y-51670944D03*
D15*
X129639055Y-54210944D03*
D16*
X129639055Y-51670944D03*
D15*
X109639055Y-54210944D03*
D16*
X109639055Y-51670944D03*
D15*
X113639055Y-54210944D03*
D16*
X113639055Y-51670944D03*
D15*
X117639055Y-54210944D03*
D16*
X117639055Y-51670944D03*
D15*
X121639055Y-54210944D03*
D16*
X121639055Y-51670944D03*
X105639055Y-51670944D03*
D15*
X105639055Y-54210944D03*
D43*
X130838000Y-63825000D03*
X130838000Y-65475000D03*
X120170000Y-63825000D03*
X120170000Y-65475000D03*
D44*
X127282000Y-65475000D03*
X127282000Y-63825000D03*
X129060000Y-65475000D03*
X129060000Y-63825000D03*
X121948000Y-65475000D03*
X121948000Y-63825000D03*
X123726000Y-65475000D03*
X123726000Y-63825000D03*
X125504000Y-65475000D03*
X125504000Y-63825000D03*
D43*
X130838000Y-67855000D03*
X130838000Y-69505000D03*
D41*
X121825000Y-61800000D03*
X120175000Y-61800000D03*
D43*
X127282000Y-67855000D03*
X127282000Y-69505000D03*
X129060000Y-67855000D03*
X129060000Y-69505000D03*
X125504000Y-67855000D03*
X125504000Y-69505000D03*
X123726000Y-67855000D03*
X123726000Y-69505000D03*
X128710000Y-115485000D03*
X128710000Y-117135000D03*
D30*
X104615000Y-95290000D03*
X106165000Y-95290000D03*
D27*
X88800000Y-78200000D03*
D79*
X88800000Y-57880000D03*
D80*
X110725000Y-73310000D03*
X113675000Y-73310000D03*
D34*
X104725000Y-86180000D03*
X107675000Y-86180000D03*
X104725000Y-82880000D03*
X107675000Y-82880000D03*
D81*
X100500000Y-120270000D03*
X158500000Y-94270000D03*
X100500000Y-143270000D03*
X158500000Y-120270000D03*
X100500000Y-94270000D03*
X158500000Y-143270000D03*
D15*
X105370000Y-142000000D03*
D16*
X105370000Y-144540000D03*
X107910000Y-142000000D03*
X107910000Y-144540000D03*
X110450000Y-142000000D03*
X110450000Y-144540000D03*
X112990000Y-142000000D03*
X112990000Y-144540000D03*
X115530000Y-142000000D03*
X115530000Y-144540000D03*
X118070000Y-142000000D03*
X118070000Y-144540000D03*
X120610000Y-142000000D03*
X120610000Y-144540000D03*
X123150000Y-142000000D03*
X123150000Y-144540000D03*
X125690000Y-142000000D03*
X125690000Y-144540000D03*
X128230000Y-142000000D03*
X128230000Y-144540000D03*
X130770000Y-142000000D03*
X130770000Y-144540000D03*
X133310000Y-142000000D03*
X133310000Y-144540000D03*
X135850000Y-142000000D03*
X135850000Y-144540000D03*
X138390000Y-142000000D03*
X138390000Y-144540000D03*
X140930000Y-142000000D03*
X140930000Y-144540000D03*
X143470000Y-142000000D03*
X143470000Y-144540000D03*
X146010000Y-142000000D03*
X146010000Y-144540000D03*
X148550000Y-142000000D03*
X148550000Y-144540000D03*
X151090000Y-142000000D03*
X151090000Y-144540000D03*
X153630000Y-142000000D03*
X153630000Y-144540000D03*
D73*
X108267000Y-70277990D03*
X106617000Y-70277990D03*
D77*
X98840000Y-82285000D03*
X98840000Y-79335000D03*
D44*
X138830000Y-115415000D03*
X138830000Y-113765000D03*
D17*
X176250000Y-77976000D03*
X176250000Y-82976000D03*
D82*
X169100000Y-83226000D03*
X169100000Y-77726000D03*
X172850000Y-82976000D03*
X172850000Y-77976000D03*
D83*
X178250000Y-80476000D03*
D84*
X168150000Y-88176000D03*
X176650000Y-88176000D03*
X168150000Y-72776000D03*
X176650000Y-72776000D03*
D85*
X107869999Y-118550004D03*
X108829999Y-118550004D03*
D41*
X109175000Y-116772000D03*
X107525000Y-116772000D03*
D44*
X102932000Y-74065000D03*
X102932000Y-72415000D03*
X104710000Y-74065000D03*
X104710000Y-72415000D03*
D34*
X99875000Y-62950000D03*
X96925000Y-62950000D03*
D15*
X123150000Y-148000000D03*
X125690000Y-148000000D03*
X128230000Y-148000000D03*
X130770000Y-148000000D03*
X135850000Y-148000000D03*
X138390000Y-148000000D03*
X133310000Y-148000000D03*
X104530000Y-100460000D03*
D86*
X118262400Y-126898400D03*
D87*
X118262400Y-125628400D03*
X118262400Y-124358400D03*
X118262400Y-123088400D03*
X118262400Y-121818400D03*
X118262400Y-120548400D03*
D15*
X105469995Y-113538000D03*
X108009995Y-136144000D03*
X105470006Y-136143994D03*
D88*
X146840000Y-88250000D03*
X151040000Y-88250000D03*
X155240000Y-88250000D03*
X159440000Y-88250000D03*
X146840000Y-82750000D03*
X151040000Y-82750000D03*
X155240000Y-82750000D03*
X159440000Y-82750000D03*
D15*
X120600000Y-148000000D03*
X115370000Y-118963999D03*
X115370000Y-116423999D03*
X105469995Y-116078000D03*
D16*
X105469995Y-118618000D03*
D86*
X120853200Y-130708400D03*
D87*
X120853200Y-129438400D03*
X120853200Y-128168400D03*
X120853200Y-126898400D03*
X120853200Y-125628400D03*
X120853200Y-124358400D03*
X120853200Y-123088400D03*
X120853200Y-121818400D03*
X120853200Y-120548400D03*
D86*
X108102400Y-121818400D03*
D87*
X108102400Y-123088400D03*
X108102400Y-124358400D03*
X108102400Y-125628400D03*
X108102400Y-126898400D03*
D15*
X105469995Y-128778000D03*
D16*
X105469995Y-126238000D03*
D15*
X104530000Y-105540000D03*
D16*
X104530000Y-103000000D03*
D15*
X104530000Y-108334000D03*
D16*
X104530000Y-110874000D03*
D15*
X105469995Y-121158000D03*
D16*
X105469995Y-123698000D03*
M02*
