G04 #@! TF.GenerationSoftware,KiCad,Pcbnew,(6.0.1-0)*
G04 #@! TF.CreationDate,2022-02-22T01:29:47+09:00*
G04 #@! TF.ProjectId,qPCR-main,71504352-2d6d-4616-996e-2e6b69636164,rev?*
G04 #@! TF.SameCoordinates,Original*
G04 #@! TF.FileFunction,Legend,Bot*
G04 #@! TF.FilePolarity,Positive*
%FSLAX46Y46*%
G04 Gerber Fmt 4.6, Leading zero omitted, Abs format (unit mm)*
G04 Created by KiCad (PCBNEW (6.0.1-0)) date 2022-02-22 01:29:47*
%MOMM*%
%LPD*%
G01*
G04 APERTURE LIST*
%ADD10C,0.127000*%
%ADD11C,0.150000*%
%ADD12C,0.120000*%
%ADD13C,0.254000*%
G04 APERTURE END LIST*
D10*
X123319333Y-146121809D02*
X123004857Y-146121809D01*
X123174190Y-146315333D01*
X123101619Y-146315333D01*
X123053238Y-146339523D01*
X123029047Y-146363714D01*
X123004857Y-146412095D01*
X123004857Y-146533047D01*
X123029047Y-146581428D01*
X123053238Y-146605619D01*
X123101619Y-146629809D01*
X123246761Y-146629809D01*
X123295142Y-146605619D01*
X123319333Y-146581428D01*
X125569047Y-146121809D02*
X125810952Y-146121809D01*
X125835142Y-146363714D01*
X125810952Y-146339523D01*
X125762571Y-146315333D01*
X125641619Y-146315333D01*
X125593238Y-146339523D01*
X125569047Y-146363714D01*
X125544857Y-146412095D01*
X125544857Y-146533047D01*
X125569047Y-146581428D01*
X125593238Y-146605619D01*
X125641619Y-146629809D01*
X125762571Y-146629809D01*
X125810952Y-146605619D01*
X125835142Y-146581428D01*
X128326761Y-146629809D02*
X128617047Y-146629809D01*
X128471904Y-146629809D02*
X128471904Y-146121809D01*
X128520285Y-146194380D01*
X128568666Y-146242761D01*
X128617047Y-146266952D01*
X128133238Y-146170190D02*
X128109047Y-146146000D01*
X128060666Y-146121809D01*
X127939714Y-146121809D01*
X127891333Y-146146000D01*
X127867142Y-146170190D01*
X127842952Y-146218571D01*
X127842952Y-146266952D01*
X127867142Y-146339523D01*
X128157428Y-146629809D01*
X127842952Y-146629809D01*
X130866761Y-146629809D02*
X131157047Y-146629809D01*
X131011904Y-146629809D02*
X131011904Y-146121809D01*
X131060285Y-146194380D01*
X131108666Y-146242761D01*
X131157047Y-146266952D01*
X130697428Y-146121809D02*
X130382952Y-146121809D01*
X130552285Y-146315333D01*
X130479714Y-146315333D01*
X130431333Y-146339523D01*
X130407142Y-146363714D01*
X130382952Y-146412095D01*
X130382952Y-146533047D01*
X130407142Y-146581428D01*
X130431333Y-146605619D01*
X130479714Y-146629809D01*
X130624857Y-146629809D01*
X130673238Y-146605619D01*
X130697428Y-146581428D01*
X133406761Y-146629809D02*
X133697047Y-146629809D01*
X133551904Y-146629809D02*
X133551904Y-146121809D01*
X133600285Y-146194380D01*
X133648666Y-146242761D01*
X133697047Y-146266952D01*
X132971333Y-146291142D02*
X132971333Y-146629809D01*
X133092285Y-146097619D02*
X133213238Y-146460476D01*
X132898761Y-146460476D01*
X139991809Y-146146000D02*
X140040190Y-146121809D01*
X140112761Y-146121809D01*
X140185333Y-146146000D01*
X140233714Y-146194380D01*
X140257904Y-146242761D01*
X140282095Y-146339523D01*
X140282095Y-146412095D01*
X140257904Y-146508857D01*
X140233714Y-146557238D01*
X140185333Y-146605619D01*
X140112761Y-146629809D01*
X140064380Y-146629809D01*
X139991809Y-146605619D01*
X139967619Y-146581428D01*
X139967619Y-146412095D01*
X140064380Y-146412095D01*
X139749904Y-146629809D02*
X139749904Y-146121809D01*
X139556380Y-146121809D01*
X139508000Y-146146000D01*
X139483809Y-146170190D01*
X139459619Y-146218571D01*
X139459619Y-146291142D01*
X139483809Y-146339523D01*
X139508000Y-146363714D01*
X139556380Y-146387904D01*
X139749904Y-146387904D01*
X139241904Y-146629809D02*
X139241904Y-146121809D01*
X138903238Y-146121809D02*
X138806476Y-146121809D01*
X138758095Y-146146000D01*
X138709714Y-146194380D01*
X138685523Y-146291142D01*
X138685523Y-146460476D01*
X138709714Y-146557238D01*
X138758095Y-146605619D01*
X138806476Y-146629809D01*
X138903238Y-146629809D01*
X138951619Y-146605619D01*
X139000000Y-146557238D01*
X139024190Y-146460476D01*
X139024190Y-146291142D01*
X139000000Y-146194380D01*
X138951619Y-146146000D01*
X138903238Y-146121809D01*
X138492000Y-146170190D02*
X138467809Y-146146000D01*
X138419428Y-146121809D01*
X138298476Y-146121809D01*
X138250095Y-146146000D01*
X138225904Y-146170190D01*
X138201714Y-146218571D01*
X138201714Y-146266952D01*
X138225904Y-146339523D01*
X138516190Y-146629809D01*
X138201714Y-146629809D01*
X137959809Y-146629809D02*
X137863047Y-146629809D01*
X137814666Y-146605619D01*
X137790476Y-146581428D01*
X137742095Y-146508857D01*
X137717904Y-146412095D01*
X137717904Y-146218571D01*
X137742095Y-146170190D01*
X137766285Y-146146000D01*
X137814666Y-146121809D01*
X137911428Y-146121809D01*
X137959809Y-146146000D01*
X137984000Y-146170190D01*
X138008190Y-146218571D01*
X138008190Y-146339523D01*
X137984000Y-146387904D01*
X137959809Y-146412095D01*
X137911428Y-146436285D01*
X137814666Y-146436285D01*
X137766285Y-146412095D01*
X137742095Y-146387904D01*
X137717904Y-146339523D01*
X136237047Y-146170190D02*
X136212857Y-146146000D01*
X136164476Y-146121809D01*
X136043523Y-146121809D01*
X135995142Y-146146000D01*
X135970952Y-146170190D01*
X135946761Y-146218571D01*
X135946761Y-146266952D01*
X135970952Y-146339523D01*
X136261238Y-146629809D01*
X135946761Y-146629809D01*
X135753238Y-146170190D02*
X135729047Y-146146000D01*
X135680666Y-146121809D01*
X135559714Y-146121809D01*
X135511333Y-146146000D01*
X135487142Y-146170190D01*
X135462952Y-146218571D01*
X135462952Y-146266952D01*
X135487142Y-146339523D01*
X135777428Y-146629809D01*
X135462952Y-146629809D01*
D11*
X110318094Y-138672373D02*
X110318094Y-137672373D01*
X109937141Y-137672373D01*
X109841903Y-137719993D01*
X109794284Y-137767612D01*
X109746665Y-137862850D01*
X109746665Y-138005707D01*
X109794284Y-138100945D01*
X109841903Y-138148564D01*
X109937141Y-138196183D01*
X110318094Y-138196183D01*
X109127618Y-137672373D02*
X108937141Y-137672373D01*
X108841903Y-137719993D01*
X108746665Y-137815231D01*
X108699046Y-138005707D01*
X108699046Y-138339040D01*
X108746665Y-138529516D01*
X108841903Y-138624754D01*
X108937141Y-138672373D01*
X109127618Y-138672373D01*
X109222856Y-138624754D01*
X109318094Y-138529516D01*
X109365713Y-138339040D01*
X109365713Y-138005707D01*
X109318094Y-137815231D01*
X109222856Y-137719993D01*
X109127618Y-137672373D01*
X108270475Y-137672373D02*
X108270475Y-138481897D01*
X108222856Y-138577135D01*
X108175237Y-138624754D01*
X108079999Y-138672373D01*
X107889522Y-138672373D01*
X107794284Y-138624754D01*
X107746665Y-138577135D01*
X107699046Y-138481897D01*
X107699046Y-137672373D01*
X107365713Y-137672373D02*
X106794284Y-137672373D01*
X107079999Y-138672373D02*
X107079999Y-137672373D01*
X106460951Y-138672373D02*
X106460951Y-137672373D01*
X106079999Y-137672373D01*
X105984760Y-137719993D01*
X105937141Y-137767612D01*
X105889522Y-137862850D01*
X105889522Y-138005707D01*
X105937141Y-138100945D01*
X105984760Y-138148564D01*
X106079999Y-138196183D01*
X106460951Y-138196183D01*
X104746665Y-137624754D02*
X105603808Y-138910469D01*
X104413332Y-138672373D02*
X104413332Y-137672373D01*
X103841903Y-138672373D01*
X103841903Y-137672373D01*
X103854095Y-126690380D02*
X103854095Y-125690380D01*
X103473142Y-125690380D01*
X103377904Y-125738000D01*
X103330285Y-125785619D01*
X103282666Y-125880857D01*
X103282666Y-126023714D01*
X103330285Y-126118952D01*
X103377904Y-126166571D01*
X103473142Y-126214190D01*
X103854095Y-126214190D01*
X102854095Y-126690380D02*
X102854095Y-125690380D01*
X102473142Y-125690380D01*
X102377904Y-125738000D01*
X102330285Y-125785619D01*
X102282666Y-125880857D01*
X102282666Y-126023714D01*
X102330285Y-126118952D01*
X102377904Y-126166571D01*
X102473142Y-126214190D01*
X102854095Y-126214190D01*
X101330285Y-126690380D02*
X101901714Y-126690380D01*
X101616000Y-126690380D02*
X101616000Y-125690380D01*
X101711238Y-125833238D01*
X101806476Y-125928476D01*
X101901714Y-125976095D01*
X91261904Y-75010009D02*
X91357142Y-74962389D01*
X91500000Y-74962389D01*
X91642857Y-75010009D01*
X91738095Y-75105247D01*
X91785714Y-75200485D01*
X91833333Y-75390961D01*
X91833333Y-75533818D01*
X91785714Y-75724294D01*
X91738095Y-75819532D01*
X91642857Y-75914770D01*
X91500000Y-75962389D01*
X91404761Y-75962389D01*
X91261904Y-75914770D01*
X91214285Y-75867151D01*
X91214285Y-75533818D01*
X91404761Y-75533818D01*
X90785714Y-75962389D02*
X90785714Y-74962389D01*
X90214285Y-75962389D01*
X90214285Y-74962389D01*
X89738095Y-75962389D02*
X89738095Y-74962389D01*
X89500000Y-74962389D01*
X89357142Y-75010009D01*
X89261904Y-75105247D01*
X89214285Y-75200485D01*
X89166666Y-75390961D01*
X89166666Y-75533818D01*
X89214285Y-75724294D01*
X89261904Y-75819532D01*
X89357142Y-75914770D01*
X89500000Y-75962389D01*
X89738095Y-75962389D01*
X90512380Y-61378095D02*
X91321904Y-61378095D01*
X91417142Y-61425714D01*
X91464761Y-61473333D01*
X91512380Y-61568571D01*
X91512380Y-61759047D01*
X91464761Y-61854285D01*
X91417142Y-61901904D01*
X91321904Y-61949523D01*
X90512380Y-61949523D01*
X91512380Y-62425714D02*
X90512380Y-62425714D01*
X90512380Y-62806666D01*
X90560000Y-62901904D01*
X90607619Y-62949523D01*
X90702857Y-62997142D01*
X90845714Y-62997142D01*
X90940952Y-62949523D01*
X90988571Y-62901904D01*
X91036190Y-62806666D01*
X91036190Y-62425714D01*
X91464761Y-63378095D02*
X91512380Y-63520952D01*
X91512380Y-63759047D01*
X91464761Y-63854285D01*
X91417142Y-63901904D01*
X91321904Y-63949523D01*
X91226666Y-63949523D01*
X91131428Y-63901904D01*
X91083809Y-63854285D01*
X91036190Y-63759047D01*
X90988571Y-63568571D01*
X90940952Y-63473333D01*
X90893333Y-63425714D01*
X90798095Y-63378095D01*
X90702857Y-63378095D01*
X90607619Y-63425714D01*
X90560000Y-63473333D01*
X90512380Y-63568571D01*
X90512380Y-63806666D01*
X90560000Y-63949523D01*
X122924761Y-119206666D02*
X122448571Y-119206666D01*
X123020000Y-119492380D02*
X122686666Y-118492380D01*
X122353333Y-119492380D01*
X122020000Y-119492380D02*
X122020000Y-118492380D01*
X121781904Y-118492380D01*
X121639047Y-118540000D01*
X121543809Y-118635238D01*
X121496190Y-118730476D01*
X121448571Y-118920952D01*
X121448571Y-119063809D01*
X121496190Y-119254285D01*
X121543809Y-119349523D01*
X121639047Y-119444761D01*
X121781904Y-119492380D01*
X122020000Y-119492380D01*
X121067619Y-119206666D02*
X120591428Y-119206666D01*
X121162857Y-119492380D02*
X120829523Y-118492380D01*
X120496190Y-119492380D01*
X120400952Y-119587619D02*
X119639047Y-119587619D01*
X118829523Y-119492380D02*
X119162857Y-119016190D01*
X119400952Y-119492380D02*
X119400952Y-118492380D01*
X119020000Y-118492380D01*
X118924761Y-118540000D01*
X118877142Y-118587619D01*
X118829523Y-118682857D01*
X118829523Y-118825714D01*
X118877142Y-118920952D01*
X118924761Y-118968571D01*
X119020000Y-119016190D01*
X119400952Y-119016190D01*
X118448571Y-119444761D02*
X118305714Y-119492380D01*
X118067619Y-119492380D01*
X117972380Y-119444761D01*
X117924761Y-119397142D01*
X117877142Y-119301904D01*
X117877142Y-119206666D01*
X117924761Y-119111428D01*
X117972380Y-119063809D01*
X118067619Y-119016190D01*
X118258095Y-118968571D01*
X118353333Y-118920952D01*
X118400952Y-118873333D01*
X118448571Y-118778095D01*
X118448571Y-118682857D01*
X118400952Y-118587619D01*
X118353333Y-118540000D01*
X118258095Y-118492380D01*
X118020000Y-118492380D01*
X117877142Y-118540000D01*
X117591428Y-118492380D02*
X117020000Y-118492380D01*
X117305714Y-119492380D02*
X117305714Y-118492380D01*
D10*
X120779333Y-146121809D02*
X120440666Y-146121809D01*
X120658380Y-146629809D01*
D11*
X91300000Y-73332380D02*
X91871428Y-73332380D01*
X91585714Y-73332380D02*
X91585714Y-72332380D01*
X91680952Y-72475238D01*
X91776190Y-72570476D01*
X91871428Y-72618095D01*
X90919047Y-72427619D02*
X90871428Y-72380000D01*
X90776190Y-72332380D01*
X90538095Y-72332380D01*
X90442857Y-72380000D01*
X90395238Y-72427619D01*
X90347619Y-72522857D01*
X90347619Y-72618095D01*
X90395238Y-72760952D01*
X90966666Y-73332380D01*
X90347619Y-73332380D01*
X90061904Y-72332380D02*
X89728571Y-73332380D01*
X89395238Y-72332380D01*
X89300000Y-73427619D02*
X88538095Y-73427619D01*
X88300000Y-72332380D02*
X88300000Y-73141904D01*
X88252380Y-73237142D01*
X88204761Y-73284761D01*
X88109523Y-73332380D01*
X87919047Y-73332380D01*
X87823809Y-73284761D01*
X87776190Y-73237142D01*
X87728571Y-73141904D01*
X87728571Y-72332380D01*
X87252380Y-73332380D02*
X87252380Y-72332380D01*
X86871428Y-72332380D01*
X86776190Y-72380000D01*
X86728571Y-72427619D01*
X86680952Y-72522857D01*
X86680952Y-72665714D01*
X86728571Y-72760952D01*
X86776190Y-72808571D01*
X86871428Y-72856190D01*
X87252380Y-72856190D01*
X86300000Y-73284761D02*
X86157142Y-73332380D01*
X85919047Y-73332380D01*
X85823809Y-73284761D01*
X85776190Y-73237142D01*
X85728571Y-73141904D01*
X85728571Y-73046666D01*
X85776190Y-72951428D01*
X85823809Y-72903809D01*
X85919047Y-72856190D01*
X86109523Y-72808571D01*
X86204761Y-72760952D01*
X86252380Y-72713333D01*
X86300000Y-72618095D01*
X86300000Y-72522857D01*
X86252380Y-72427619D01*
X86204761Y-72380000D01*
X86109523Y-72332380D01*
X85871428Y-72332380D01*
X85728571Y-72380000D01*
X103949047Y-113786666D02*
X103472857Y-113786666D01*
X104044285Y-114072380D02*
X103710952Y-113072380D01*
X103377619Y-114072380D01*
X103044285Y-114072380D02*
X103044285Y-113072380D01*
X102710952Y-113786666D01*
X102377619Y-113072380D01*
X102377619Y-114072380D01*
X101901428Y-114072380D02*
X101901428Y-113072380D01*
X101520476Y-113072380D01*
X101425238Y-113120000D01*
X101377619Y-113167619D01*
X101330000Y-113262857D01*
X101330000Y-113405714D01*
X101377619Y-113500952D01*
X101425238Y-113548571D01*
X101520476Y-113596190D01*
X101901428Y-113596190D01*
X101139523Y-114167619D02*
X100377619Y-114167619D01*
X99949047Y-113072380D02*
X99758571Y-113072380D01*
X99663333Y-113120000D01*
X99568095Y-113215238D01*
X99520476Y-113405714D01*
X99520476Y-113739047D01*
X99568095Y-113929523D01*
X99663333Y-114024761D01*
X99758571Y-114072380D01*
X99949047Y-114072380D01*
X100044285Y-114024761D01*
X100139523Y-113929523D01*
X100187142Y-113739047D01*
X100187142Y-113405714D01*
X100139523Y-113215238D01*
X100044285Y-113120000D01*
X99949047Y-113072380D01*
X99091904Y-113072380D02*
X99091904Y-113881904D01*
X99044285Y-113977142D01*
X98996666Y-114024761D01*
X98901428Y-114072380D01*
X98710952Y-114072380D01*
X98615714Y-114024761D01*
X98568095Y-113977142D01*
X98520476Y-113881904D01*
X98520476Y-113072380D01*
X98187142Y-113072380D02*
X97615714Y-113072380D01*
X97901428Y-114072380D02*
X97901428Y-113072380D01*
X102872380Y-130670476D02*
X102872380Y-131241904D01*
X103872380Y-130956190D02*
X102872380Y-130956190D01*
X102872380Y-131765714D02*
X102872380Y-131956190D01*
X102920000Y-132051428D01*
X103015238Y-132146666D01*
X103205714Y-132194285D01*
X103539047Y-132194285D01*
X103729523Y-132146666D01*
X103824761Y-132051428D01*
X103872380Y-131956190D01*
X103872380Y-131765714D01*
X103824761Y-131670476D01*
X103729523Y-131575238D01*
X103539047Y-131527619D01*
X103205714Y-131527619D01*
X103015238Y-131575238D01*
X102920000Y-131670476D01*
X102872380Y-131765714D01*
X103872380Y-132622857D02*
X102872380Y-132622857D01*
X102872380Y-133003809D01*
X102920000Y-133099047D01*
X102967619Y-133146666D01*
X103062857Y-133194285D01*
X103205714Y-133194285D01*
X103300952Y-133146666D01*
X103348571Y-133099047D01*
X103396190Y-133003809D01*
X103396190Y-132622857D01*
X103877904Y-129230380D02*
X103877904Y-128230380D01*
X103496952Y-128230380D01*
X103401714Y-128278000D01*
X103354095Y-128325619D01*
X103306476Y-128420857D01*
X103306476Y-128563714D01*
X103354095Y-128658952D01*
X103401714Y-128706571D01*
X103496952Y-128754190D01*
X103877904Y-128754190D01*
X102877904Y-129230380D02*
X102877904Y-128230380D01*
X102306476Y-129230380D01*
X102306476Y-128230380D01*
X101306476Y-129230380D02*
X101877904Y-129230380D01*
X101592190Y-129230380D02*
X101592190Y-128230380D01*
X101687428Y-128373238D01*
X101782666Y-128468476D01*
X101877904Y-128516095D01*
X110962380Y-130906190D02*
X109962380Y-130906190D01*
X109962380Y-131287142D01*
X110010000Y-131382380D01*
X110057619Y-131430000D01*
X110152857Y-131477619D01*
X110295714Y-131477619D01*
X110390952Y-131430000D01*
X110438571Y-131382380D01*
X110486190Y-131287142D01*
X110486190Y-130906190D01*
X110962380Y-131906190D02*
X109962380Y-131906190D01*
X110962380Y-132382380D02*
X109962380Y-132382380D01*
X110962380Y-132953809D01*
X109962380Y-132953809D01*
X111813809Y-111862380D02*
X111813809Y-110862380D01*
X111432857Y-110862380D01*
X111337619Y-110910000D01*
X111290000Y-110957619D01*
X111242380Y-111052857D01*
X111242380Y-111195714D01*
X111290000Y-111290952D01*
X111337619Y-111338571D01*
X111432857Y-111386190D01*
X111813809Y-111386190D01*
X110813809Y-111862380D02*
X110813809Y-110862380D01*
X110337619Y-111862380D02*
X110337619Y-110862380D01*
X109766190Y-111862380D01*
X109766190Y-110862380D01*
X102423800Y-100912380D02*
X102423800Y-99912380D01*
X102042848Y-99912380D01*
X101947610Y-99960000D01*
X101899991Y-100007619D01*
X101852371Y-100102857D01*
X101852371Y-100245714D01*
X101899991Y-100340952D01*
X101947610Y-100388571D01*
X102042848Y-100436190D01*
X102423800Y-100436190D01*
X101423800Y-100912380D02*
X101423800Y-99912380D01*
X101185705Y-99912380D01*
X101042848Y-99960000D01*
X100947610Y-100055238D01*
X100899991Y-100150476D01*
X100852371Y-100340952D01*
X100852371Y-100483809D01*
X100899991Y-100674285D01*
X100947610Y-100769523D01*
X101042848Y-100864761D01*
X101185705Y-100912380D01*
X101423800Y-100912380D01*
X100661895Y-101007619D02*
X99899991Y-101007619D01*
X99661895Y-100912380D02*
X99661895Y-99912380D01*
X99328562Y-100626666D01*
X98995229Y-99912380D01*
X98995229Y-100912380D01*
X98519038Y-99912380D02*
X98519038Y-100721904D01*
X98471419Y-100817142D01*
X98423800Y-100864761D01*
X98328562Y-100912380D01*
X98138086Y-100912380D01*
X98042848Y-100864761D01*
X97995229Y-100817142D01*
X97947610Y-100721904D01*
X97947610Y-99912380D01*
X97566657Y-99912380D02*
X96899991Y-100912380D01*
X96899991Y-99912380D02*
X97566657Y-100912380D01*
X96757133Y-101007619D02*
X95995229Y-101007619D01*
X95566657Y-99912380D02*
X95376181Y-99912380D01*
X95280943Y-99960000D01*
X95185705Y-100055238D01*
X95138086Y-100245714D01*
X95138086Y-100579047D01*
X95185705Y-100769523D01*
X95280943Y-100864761D01*
X95376181Y-100912380D01*
X95566657Y-100912380D01*
X95661895Y-100864761D01*
X95757133Y-100769523D01*
X95804752Y-100579047D01*
X95804752Y-100245714D01*
X95757133Y-100055238D01*
X95661895Y-99960000D01*
X95566657Y-99912380D01*
X94709514Y-99912380D02*
X94709514Y-100721904D01*
X94661895Y-100817142D01*
X94614276Y-100864761D01*
X94519038Y-100912380D01*
X94328562Y-100912380D01*
X94233324Y-100864761D01*
X94185705Y-100817142D01*
X94138086Y-100721904D01*
X94138086Y-99912380D01*
X93804752Y-99912380D02*
X93233324Y-99912380D01*
X93519038Y-100912380D02*
X93519038Y-99912380D01*
X110669523Y-114592380D02*
X110098095Y-114592380D01*
X110383809Y-115592380D02*
X110383809Y-114592380D01*
X109574285Y-114592380D02*
X109383809Y-114592380D01*
X109288571Y-114640000D01*
X109193333Y-114735238D01*
X109145714Y-114925714D01*
X109145714Y-115259047D01*
X109193333Y-115449523D01*
X109288571Y-115544761D01*
X109383809Y-115592380D01*
X109574285Y-115592380D01*
X109669523Y-115544761D01*
X109764761Y-115449523D01*
X109812380Y-115259047D01*
X109812380Y-114925714D01*
X109764761Y-114735238D01*
X109669523Y-114640000D01*
X109574285Y-114592380D01*
X108717142Y-115592380D02*
X108717142Y-114592380D01*
X108336190Y-114592380D01*
X108240952Y-114640000D01*
X108193333Y-114687619D01*
X108145714Y-114782857D01*
X108145714Y-114925714D01*
X108193333Y-115020952D01*
X108240952Y-115068571D01*
X108336190Y-115116190D01*
X108717142Y-115116190D01*
X111989523Y-107332380D02*
X111418095Y-107332380D01*
X111703809Y-108332380D02*
X111703809Y-107332380D01*
X110894285Y-107332380D02*
X110703809Y-107332380D01*
X110608571Y-107380000D01*
X110513333Y-107475238D01*
X110465714Y-107665714D01*
X110465714Y-107999047D01*
X110513333Y-108189523D01*
X110608571Y-108284761D01*
X110703809Y-108332380D01*
X110894285Y-108332380D01*
X110989523Y-108284761D01*
X111084761Y-108189523D01*
X111132380Y-107999047D01*
X111132380Y-107665714D01*
X111084761Y-107475238D01*
X110989523Y-107380000D01*
X110894285Y-107332380D01*
X110037142Y-108332380D02*
X110037142Y-107332380D01*
X109656190Y-107332380D01*
X109560952Y-107380000D01*
X109513333Y-107427619D01*
X109465714Y-107522857D01*
X109465714Y-107665714D01*
X109513333Y-107760952D01*
X109560952Y-107808571D01*
X109656190Y-107856190D01*
X110037142Y-107856190D01*
X91462380Y-57810952D02*
X91462380Y-57239523D01*
X91462380Y-57525238D02*
X90462380Y-57525238D01*
X90605238Y-57430000D01*
X90700476Y-57334761D01*
X90748095Y-57239523D01*
X90557619Y-58191904D02*
X90510000Y-58239523D01*
X90462380Y-58334761D01*
X90462380Y-58572857D01*
X90510000Y-58668095D01*
X90557619Y-58715714D01*
X90652857Y-58763333D01*
X90748095Y-58763333D01*
X90890952Y-58715714D01*
X91462380Y-58144285D01*
X91462380Y-58763333D01*
X90462380Y-59049047D02*
X91462380Y-59382380D01*
X90462380Y-59715714D01*
X122538571Y-116852380D02*
X123014761Y-116852380D01*
X123014761Y-115852380D01*
X122205238Y-116852380D02*
X122205238Y-115852380D01*
X121824285Y-115852380D01*
X121729047Y-115900000D01*
X121681428Y-115947619D01*
X121633809Y-116042857D01*
X121633809Y-116185714D01*
X121681428Y-116280952D01*
X121729047Y-116328571D01*
X121824285Y-116376190D01*
X122205238Y-116376190D01*
X120871904Y-116328571D02*
X121205238Y-116328571D01*
X121205238Y-116852380D02*
X121205238Y-115852380D01*
X120729047Y-115852380D01*
X120586190Y-116947619D02*
X119824285Y-116947619D01*
X119395714Y-115852380D02*
X119205238Y-115852380D01*
X119110000Y-115900000D01*
X119014761Y-115995238D01*
X118967142Y-116185714D01*
X118967142Y-116519047D01*
X119014761Y-116709523D01*
X119110000Y-116804761D01*
X119205238Y-116852380D01*
X119395714Y-116852380D01*
X119490952Y-116804761D01*
X119586190Y-116709523D01*
X119633809Y-116519047D01*
X119633809Y-116185714D01*
X119586190Y-115995238D01*
X119490952Y-115900000D01*
X119395714Y-115852380D01*
X118538571Y-115852380D02*
X118538571Y-116661904D01*
X118490952Y-116757142D01*
X118443333Y-116804761D01*
X118348095Y-116852380D01*
X118157619Y-116852380D01*
X118062380Y-116804761D01*
X118014761Y-116757142D01*
X117967142Y-116661904D01*
X117967142Y-115852380D01*
X117633809Y-115852380D02*
X117062380Y-115852380D01*
X117348095Y-116852380D02*
X117348095Y-115852380D01*
X110563798Y-119012392D02*
X110563798Y-118012392D01*
X110182846Y-118012392D01*
X110087608Y-118060012D01*
X110039989Y-118107631D01*
X109992369Y-118202869D01*
X109992369Y-118345726D01*
X110039989Y-118440964D01*
X110087608Y-118488583D01*
X110182846Y-118536202D01*
X110563798Y-118536202D01*
X109563798Y-119012392D02*
X109563798Y-118012392D01*
X109087608Y-119012392D02*
X109087608Y-118012392D01*
X108516179Y-119012392D01*
X108516179Y-118012392D01*
X124932380Y-147666666D02*
X125646666Y-147666666D01*
X125789523Y-147619047D01*
X125884761Y-147523809D01*
X125932380Y-147380952D01*
X125932380Y-147285714D01*
X124932380Y-148047619D02*
X124932380Y-148666666D01*
X125313333Y-148333333D01*
X125313333Y-148476190D01*
X125360952Y-148571428D01*
X125408571Y-148619047D01*
X125503809Y-148666666D01*
X125741904Y-148666666D01*
X125837142Y-148619047D01*
X125884761Y-148571428D01*
X125932380Y-148476190D01*
X125932380Y-148190476D01*
X125884761Y-148095238D01*
X125837142Y-148047619D01*
X127472380Y-147666666D02*
X128186666Y-147666666D01*
X128329523Y-147619047D01*
X128424761Y-147523809D01*
X128472380Y-147380952D01*
X128472380Y-147285714D01*
X127805714Y-148571428D02*
X128472380Y-148571428D01*
X127424761Y-148333333D02*
X128139047Y-148095238D01*
X128139047Y-148714285D01*
X130012380Y-147666666D02*
X130726666Y-147666666D01*
X130869523Y-147619047D01*
X130964761Y-147523809D01*
X131012380Y-147380952D01*
X131012380Y-147285714D01*
X130012380Y-148619047D02*
X130012380Y-148142857D01*
X130488571Y-148095238D01*
X130440952Y-148142857D01*
X130393333Y-148238095D01*
X130393333Y-148476190D01*
X130440952Y-148571428D01*
X130488571Y-148619047D01*
X130583809Y-148666666D01*
X130821904Y-148666666D01*
X130917142Y-148619047D01*
X130964761Y-148571428D01*
X131012380Y-148476190D01*
X131012380Y-148238095D01*
X130964761Y-148142857D01*
X130917142Y-148095238D01*
X132552380Y-147666666D02*
X133266666Y-147666666D01*
X133409523Y-147619047D01*
X133504761Y-147523809D01*
X133552380Y-147380952D01*
X133552380Y-147285714D01*
X132552380Y-148571428D02*
X132552380Y-148380952D01*
X132600000Y-148285714D01*
X132647619Y-148238095D01*
X132790476Y-148142857D01*
X132980952Y-148095238D01*
X133361904Y-148095238D01*
X133457142Y-148142857D01*
X133504761Y-148190476D01*
X133552380Y-148285714D01*
X133552380Y-148476190D01*
X133504761Y-148571428D01*
X133457142Y-148619047D01*
X133361904Y-148666666D01*
X133123809Y-148666666D01*
X133028571Y-148619047D01*
X132980952Y-148571428D01*
X132933333Y-148476190D01*
X132933333Y-148285714D01*
X132980952Y-148190476D01*
X133028571Y-148142857D01*
X133123809Y-148095238D01*
X137632380Y-147666666D02*
X138346666Y-147666666D01*
X138489523Y-147619047D01*
X138584761Y-147523809D01*
X138632380Y-147380952D01*
X138632380Y-147285714D01*
X138060952Y-148285714D02*
X138013333Y-148190476D01*
X137965714Y-148142857D01*
X137870476Y-148095238D01*
X137822857Y-148095238D01*
X137727619Y-148142857D01*
X137680000Y-148190476D01*
X137632380Y-148285714D01*
X137632380Y-148476190D01*
X137680000Y-148571428D01*
X137727619Y-148619047D01*
X137822857Y-148666666D01*
X137870476Y-148666666D01*
X137965714Y-148619047D01*
X138013333Y-148571428D01*
X138060952Y-148476190D01*
X138060952Y-148285714D01*
X138108571Y-148190476D01*
X138156190Y-148142857D01*
X138251428Y-148095238D01*
X138441904Y-148095238D01*
X138537142Y-148142857D01*
X138584761Y-148190476D01*
X138632380Y-148285714D01*
X138632380Y-148476190D01*
X138584761Y-148571428D01*
X138537142Y-148619047D01*
X138441904Y-148666666D01*
X138251428Y-148666666D01*
X138156190Y-148619047D01*
X138108571Y-148571428D01*
X138060952Y-148476190D01*
X93833333Y-56232380D02*
X93833333Y-56946666D01*
X93880952Y-57089523D01*
X93976190Y-57184761D01*
X94119047Y-57232380D01*
X94214285Y-57232380D01*
X93357142Y-57232380D02*
X93357142Y-56232380D01*
X92976190Y-56232380D01*
X92880952Y-56280000D01*
X92833333Y-56327619D01*
X92785714Y-56422857D01*
X92785714Y-56565714D01*
X92833333Y-56660952D01*
X92880952Y-56708571D01*
X92976190Y-56756190D01*
X93357142Y-56756190D01*
X92404761Y-56327619D02*
X92357142Y-56280000D01*
X92261904Y-56232380D01*
X92023809Y-56232380D01*
X91928571Y-56280000D01*
X91880952Y-56327619D01*
X91833333Y-56422857D01*
X91833333Y-56518095D01*
X91880952Y-56660952D01*
X92452380Y-57232380D01*
X91833333Y-57232380D01*
X135092380Y-147666666D02*
X135806666Y-147666666D01*
X135949523Y-147619047D01*
X136044761Y-147523809D01*
X136092380Y-147380952D01*
X136092380Y-147285714D01*
X135092380Y-148047619D02*
X135092380Y-148714285D01*
X136092380Y-148285714D01*
X119071923Y-128045780D02*
X119071923Y-128760066D01*
X119119542Y-128902923D01*
X119214780Y-128998161D01*
X119357638Y-129045780D01*
X119452876Y-129045780D01*
X118071923Y-129045780D02*
X118643352Y-129045780D01*
X118357638Y-129045780D02*
X118357638Y-128045780D01*
X118452876Y-128188638D01*
X118548114Y-128283876D01*
X118643352Y-128331495D01*
X117690971Y-128141019D02*
X117643352Y-128093400D01*
X117548114Y-128045780D01*
X117310019Y-128045780D01*
X117214780Y-128093400D01*
X117167161Y-128141019D01*
X117119542Y-128236257D01*
X117119542Y-128331495D01*
X117167161Y-128474352D01*
X117738590Y-129045780D01*
X117119542Y-129045780D01*
X122382380Y-147190476D02*
X123096666Y-147190476D01*
X123239523Y-147142857D01*
X123334761Y-147047619D01*
X123382380Y-146904761D01*
X123382380Y-146809523D01*
X123382380Y-148190476D02*
X123382380Y-147619047D01*
X123382380Y-147904761D02*
X122382380Y-147904761D01*
X122525238Y-147809523D01*
X122620476Y-147714285D01*
X122668095Y-147619047D01*
X123382380Y-149142857D02*
X123382380Y-148571428D01*
X123382380Y-148857142D02*
X122382380Y-148857142D01*
X122525238Y-148761904D01*
X122620476Y-148666666D01*
X122668095Y-148571428D01*
X112743333Y-112652380D02*
X112743333Y-113366666D01*
X112790952Y-113509523D01*
X112886190Y-113604761D01*
X113029047Y-113652380D01*
X113124285Y-113652380D01*
X112267142Y-113652380D02*
X112267142Y-112652380D01*
X111886190Y-112652380D01*
X111790952Y-112700000D01*
X111743333Y-112747619D01*
X111695714Y-112842857D01*
X111695714Y-112985714D01*
X111743333Y-113080952D01*
X111790952Y-113128571D01*
X111886190Y-113176190D01*
X112267142Y-113176190D01*
X111362380Y-112652380D02*
X110695714Y-112652380D01*
X111124285Y-113652380D01*
X108593328Y-105524373D02*
X108593328Y-106238659D01*
X108640947Y-106381516D01*
X108736185Y-106476754D01*
X108879042Y-106524373D01*
X108974280Y-106524373D01*
X108117137Y-106524373D02*
X108117137Y-105524373D01*
X107736185Y-105524373D01*
X107640947Y-105571993D01*
X107593328Y-105619612D01*
X107545709Y-105714850D01*
X107545709Y-105857707D01*
X107593328Y-105952945D01*
X107640947Y-106000564D01*
X107736185Y-106048183D01*
X108117137Y-106048183D01*
X106688566Y-105524373D02*
X106879042Y-105524373D01*
X106974280Y-105571993D01*
X107021899Y-105619612D01*
X107117137Y-105762469D01*
X107164756Y-105952945D01*
X107164756Y-106333897D01*
X107117137Y-106429135D01*
X107069518Y-106476754D01*
X106974280Y-106524373D01*
X106783804Y-106524373D01*
X106688566Y-106476754D01*
X106640947Y-106429135D01*
X106593328Y-106333897D01*
X106593328Y-106095802D01*
X106640947Y-106000564D01*
X106688566Y-105952945D01*
X106783804Y-105905326D01*
X106974280Y-105905326D01*
X107069518Y-105952945D01*
X107117137Y-106000564D01*
X107164756Y-106095802D01*
X108573333Y-129232380D02*
X108573333Y-129946666D01*
X108620952Y-130089523D01*
X108716190Y-130184761D01*
X108859047Y-130232380D01*
X108954285Y-130232380D01*
X108097142Y-130232380D02*
X108097142Y-129232380D01*
X107716190Y-129232380D01*
X107620952Y-129280000D01*
X107573333Y-129327619D01*
X107525714Y-129422857D01*
X107525714Y-129565714D01*
X107573333Y-129660952D01*
X107620952Y-129708571D01*
X107716190Y-129756190D01*
X108097142Y-129756190D01*
X106668571Y-129565714D02*
X106668571Y-130232380D01*
X106906666Y-129184761D02*
X107144761Y-129899047D01*
X106525714Y-129899047D01*
X103529523Y-116292380D02*
X103529523Y-117006666D01*
X103577142Y-117149523D01*
X103672380Y-117244761D01*
X103815238Y-117292380D01*
X103910476Y-117292380D01*
X103100952Y-116387619D02*
X103053333Y-116340000D01*
X102958095Y-116292380D01*
X102720000Y-116292380D01*
X102624761Y-116340000D01*
X102577142Y-116387619D01*
X102529523Y-116482857D01*
X102529523Y-116578095D01*
X102577142Y-116720952D01*
X103148571Y-117292380D01*
X102529523Y-117292380D01*
X101672380Y-116292380D02*
X101862857Y-116292380D01*
X101958095Y-116340000D01*
X102005714Y-116387619D01*
X102100952Y-116530476D01*
X102148571Y-116720952D01*
X102148571Y-117101904D01*
X102100952Y-117197142D01*
X102053333Y-117244761D01*
X101958095Y-117292380D01*
X101767619Y-117292380D01*
X101672380Y-117244761D01*
X101624761Y-117197142D01*
X101577142Y-117101904D01*
X101577142Y-116863809D01*
X101624761Y-116768571D01*
X101672380Y-116720952D01*
X101767619Y-116673333D01*
X101958095Y-116673333D01*
X102053333Y-116720952D01*
X102100952Y-116768571D01*
X102148571Y-116863809D01*
X121662723Y-131855780D02*
X121662723Y-132570066D01*
X121710342Y-132712923D01*
X121805580Y-132808161D01*
X121948438Y-132855780D01*
X122043676Y-132855780D01*
X121234152Y-131951019D02*
X121186533Y-131903400D01*
X121091295Y-131855780D01*
X120853200Y-131855780D01*
X120757961Y-131903400D01*
X120710342Y-131951019D01*
X120662723Y-132046257D01*
X120662723Y-132141495D01*
X120710342Y-132284352D01*
X121281771Y-132855780D01*
X120662723Y-132855780D01*
X120091295Y-132284352D02*
X120186533Y-132236733D01*
X120234152Y-132189114D01*
X120281771Y-132093876D01*
X120281771Y-132046257D01*
X120234152Y-131951019D01*
X120186533Y-131903400D01*
X120091295Y-131855780D01*
X119900819Y-131855780D01*
X119805580Y-131903400D01*
X119757961Y-131951019D01*
X119710342Y-132046257D01*
X119710342Y-132093876D01*
X119757961Y-132189114D01*
X119805580Y-132236733D01*
X119900819Y-132284352D01*
X120091295Y-132284352D01*
X120186533Y-132331971D01*
X120234152Y-132379590D01*
X120281771Y-132474828D01*
X120281771Y-132665304D01*
X120234152Y-132760542D01*
X120186533Y-132808161D01*
X120091295Y-132855780D01*
X119900819Y-132855780D01*
X119805580Y-132808161D01*
X119757961Y-132760542D01*
X119710342Y-132665304D01*
X119710342Y-132474828D01*
X119757961Y-132379590D01*
X119805580Y-132331971D01*
X119900819Y-132284352D01*
X111469523Y-124602380D02*
X111469523Y-125316666D01*
X111517142Y-125459523D01*
X111612380Y-125554761D01*
X111755238Y-125602380D01*
X111850476Y-125602380D01*
X111040952Y-124697619D02*
X110993333Y-124650000D01*
X110898095Y-124602380D01*
X110660000Y-124602380D01*
X110564761Y-124650000D01*
X110517142Y-124697619D01*
X110469523Y-124792857D01*
X110469523Y-124888095D01*
X110517142Y-125030952D01*
X111088571Y-125602380D01*
X110469523Y-125602380D01*
X109517142Y-125602380D02*
X110088571Y-125602380D01*
X109802857Y-125602380D02*
X109802857Y-124602380D01*
X109898095Y-124745238D01*
X109993333Y-124840476D01*
X110088571Y-124888095D01*
X111933333Y-133512380D02*
X111933333Y-134226666D01*
X111980952Y-134369523D01*
X112076190Y-134464761D01*
X112219047Y-134512380D01*
X112314285Y-134512380D01*
X111457142Y-134512380D02*
X111457142Y-133512380D01*
X111076190Y-133512380D01*
X110980952Y-133560000D01*
X110933333Y-133607619D01*
X110885714Y-133702857D01*
X110885714Y-133845714D01*
X110933333Y-133940952D01*
X110980952Y-133988571D01*
X111076190Y-134036190D01*
X111457142Y-134036190D01*
X109980952Y-133512380D02*
X110457142Y-133512380D01*
X110504761Y-133988571D01*
X110457142Y-133940952D01*
X110361904Y-133893333D01*
X110123809Y-133893333D01*
X110028571Y-133940952D01*
X109980952Y-133988571D01*
X109933333Y-134083809D01*
X109933333Y-134321904D01*
X109980952Y-134417142D01*
X110028571Y-134464761D01*
X110123809Y-134512380D01*
X110361904Y-134512380D01*
X110457142Y-134464761D01*
X110504761Y-134417142D01*
X102419514Y-103849380D02*
X102419514Y-104563666D01*
X102467133Y-104706523D01*
X102562371Y-104801761D01*
X102705229Y-104849380D01*
X102800467Y-104849380D01*
X101990943Y-103944619D02*
X101943324Y-103897000D01*
X101848086Y-103849380D01*
X101609991Y-103849380D01*
X101514752Y-103897000D01*
X101467133Y-103944619D01*
X101419514Y-104039857D01*
X101419514Y-104135095D01*
X101467133Y-104277952D01*
X102038562Y-104849380D01*
X101419514Y-104849380D01*
X100514752Y-103849380D02*
X100990943Y-103849380D01*
X101038562Y-104325571D01*
X100990943Y-104277952D01*
X100895705Y-104230333D01*
X100657610Y-104230333D01*
X100562371Y-104277952D01*
X100514752Y-104325571D01*
X100467133Y-104420809D01*
X100467133Y-104658904D01*
X100514752Y-104754142D01*
X100562371Y-104801761D01*
X100657610Y-104849380D01*
X100895705Y-104849380D01*
X100990943Y-104801761D01*
X101038562Y-104754142D01*
X102419514Y-108929380D02*
X102419514Y-109643666D01*
X102467133Y-109786523D01*
X102562371Y-109881761D01*
X102705229Y-109929380D01*
X102800467Y-109929380D01*
X101990943Y-109024619D02*
X101943324Y-108977000D01*
X101848086Y-108929380D01*
X101609991Y-108929380D01*
X101514752Y-108977000D01*
X101467133Y-109024619D01*
X101419514Y-109119857D01*
X101419514Y-109215095D01*
X101467133Y-109357952D01*
X102038562Y-109929380D01*
X101419514Y-109929380D01*
X100562371Y-109262714D02*
X100562371Y-109929380D01*
X100800467Y-108881761D02*
X101038562Y-109596047D01*
X100419514Y-109596047D01*
X103599513Y-123162369D02*
X103599513Y-123876655D01*
X103647132Y-124019512D01*
X103742370Y-124114750D01*
X103885228Y-124162369D01*
X103980466Y-124162369D01*
X103170942Y-123257608D02*
X103123323Y-123209989D01*
X103028085Y-123162369D01*
X102789990Y-123162369D01*
X102694751Y-123209989D01*
X102647132Y-123257608D01*
X102599513Y-123352846D01*
X102599513Y-123448084D01*
X102647132Y-123590941D01*
X103218561Y-124162369D01*
X102599513Y-124162369D01*
X102266180Y-123162369D02*
X101599513Y-123162369D01*
X102028085Y-124162369D01*
D12*
X174340312Y-44715370D02*
G75*
G03*
X174340312Y-44715370I-381000J0D01*
G01*
X146630813Y-37324869D02*
G75*
G03*
X146630813Y-37324869I-381000J0D01*
G01*
X121880000Y-149330000D02*
X121820000Y-149330000D01*
X121880000Y-146670000D02*
X121820000Y-146670000D01*
X121880000Y-149330000D02*
X121880000Y-146670000D01*
X123150000Y-149330000D02*
X124480000Y-149330000D01*
X121820000Y-149330000D02*
X121820000Y-146670000D01*
X124480000Y-149330000D02*
X124480000Y-148000000D01*
X124420000Y-146670000D02*
X124360000Y-146670000D01*
X124420000Y-149330000D02*
X124420000Y-146670000D01*
X125690000Y-149330000D02*
X127020000Y-149330000D01*
X127020000Y-149330000D02*
X127020000Y-148000000D01*
X124360000Y-149330000D02*
X124360000Y-146670000D01*
X124420000Y-149330000D02*
X124360000Y-149330000D01*
X126900000Y-149330000D02*
X126900000Y-146670000D01*
X126960000Y-146670000D02*
X126900000Y-146670000D01*
X126960000Y-149330000D02*
X126900000Y-149330000D01*
X126960000Y-149330000D02*
X126960000Y-146670000D01*
X129560000Y-149330000D02*
X129560000Y-148000000D01*
X128230000Y-149330000D02*
X129560000Y-149330000D01*
X130770000Y-149330000D02*
X132100000Y-149330000D01*
X129500000Y-149330000D02*
X129440000Y-149330000D01*
X129500000Y-146670000D02*
X129440000Y-146670000D01*
X129440000Y-149330000D02*
X129440000Y-146670000D01*
X129500000Y-149330000D02*
X129500000Y-146670000D01*
X132100000Y-149330000D02*
X132100000Y-148000000D01*
X134520000Y-149330000D02*
X134520000Y-146670000D01*
X134580000Y-149330000D02*
X134580000Y-146670000D01*
X134580000Y-146670000D02*
X134520000Y-146670000D01*
X134580000Y-149330000D02*
X134520000Y-149330000D01*
X137180000Y-149330000D02*
X137180000Y-148000000D01*
X135850000Y-149330000D02*
X137180000Y-149330000D01*
X139720000Y-149330000D02*
X139720000Y-148000000D01*
X137120000Y-149330000D02*
X137060000Y-149330000D01*
X137060000Y-149330000D02*
X137060000Y-146670000D01*
X138390000Y-149330000D02*
X139720000Y-149330000D01*
X137120000Y-149330000D02*
X137120000Y-146670000D01*
X137120000Y-146670000D02*
X137060000Y-146670000D01*
X91860000Y-57750000D02*
X91860000Y-63250000D01*
X94360000Y-59400000D02*
X94060000Y-59100000D01*
X94360000Y-58800000D02*
X94360000Y-59400000D01*
X94060000Y-59100000D02*
X94360000Y-58800000D01*
X91860000Y-63250000D02*
X93810000Y-63250000D01*
X93810000Y-63250000D02*
X93810000Y-57750000D01*
X93810000Y-57750000D02*
X91860000Y-57750000D01*
X131980000Y-149330000D02*
X131980000Y-146670000D01*
X132040000Y-149330000D02*
X132040000Y-146670000D01*
X132040000Y-146670000D02*
X131980000Y-146670000D01*
X134640000Y-149330000D02*
X134640000Y-148000000D01*
X132040000Y-149330000D02*
X131980000Y-149330000D01*
X133310000Y-149330000D02*
X134640000Y-149330000D01*
X104530000Y-99130000D02*
X103200000Y-99130000D01*
X103200000Y-99130000D02*
X103200000Y-100460000D01*
X105800000Y-99130000D02*
X105800000Y-101790000D01*
X105800000Y-99130000D02*
X105860000Y-99130000D01*
X105800000Y-101790000D02*
X105860000Y-101790000D01*
X105860000Y-99130000D02*
X105860000Y-101790000D01*
X117152400Y-126138400D02*
X117698929Y-126138400D01*
X117152400Y-126138400D02*
X117152400Y-119853400D01*
X117152400Y-126898400D02*
X117152400Y-127658400D01*
X119372400Y-126138400D02*
X119372400Y-119853400D01*
X117152400Y-119853400D02*
X117954870Y-119853400D01*
X117152400Y-127658400D02*
X118262400Y-127658400D01*
X118825871Y-126138400D02*
X119372400Y-126138400D01*
X118569930Y-119853400D02*
X119372400Y-119853400D01*
X105469995Y-112208000D02*
X104139995Y-112208000D01*
X106799995Y-112208000D02*
X106799995Y-114868000D01*
X106739995Y-112208000D02*
X106799995Y-112208000D01*
X104139995Y-112208000D02*
X104139995Y-113538000D01*
X106739995Y-112208000D02*
X106739995Y-114868000D01*
X106739995Y-114868000D02*
X106799995Y-114868000D01*
X106770000Y-137450000D02*
X106830000Y-137450000D01*
X106830000Y-134790000D02*
X106830000Y-137450000D01*
X105500000Y-134790000D02*
X104170000Y-134790000D01*
X106770000Y-134790000D02*
X106770000Y-137450000D01*
X104170000Y-134790000D02*
X104170000Y-136120000D01*
X106770000Y-134790000D02*
X106830000Y-134790000D01*
X106060011Y-134819994D02*
X104730011Y-134819994D01*
X107330011Y-134819994D02*
X107330011Y-137479994D01*
X107330011Y-134819994D02*
X107390011Y-134819994D01*
X104730011Y-134819994D02*
X104730011Y-136149994D01*
X107330011Y-137479994D02*
X107390011Y-137479994D01*
X107390011Y-134819994D02*
X107390011Y-137479994D01*
D13*
X144240000Y-90300000D02*
X162040000Y-90300000D01*
X154840000Y-79400000D02*
X151440000Y-79400000D01*
X162040000Y-80700000D02*
X144240000Y-80700000D01*
X151440000Y-79400000D02*
X151440000Y-80700000D01*
X144240000Y-80700000D02*
X144240000Y-90300000D01*
X154840000Y-79400000D02*
X154840000Y-80700000D01*
X162040000Y-90300000D02*
X162040000Y-80700000D01*
D12*
X119330000Y-146670000D02*
X119270000Y-146670000D01*
X120600000Y-149330000D02*
X121930000Y-149330000D01*
X119270000Y-149330000D02*
X119270000Y-146670000D01*
X121930000Y-149330000D02*
X121930000Y-148000000D01*
X119330000Y-149330000D02*
X119270000Y-149330000D01*
X119330000Y-149330000D02*
X119330000Y-146670000D01*
X113397500Y-115500000D02*
X113097500Y-115200000D01*
X113097500Y-115200000D02*
X113397500Y-114900000D01*
X112847500Y-113850000D02*
X110897500Y-113850000D01*
X113397500Y-114900000D02*
X113397500Y-115500000D01*
X110897500Y-119350000D02*
X112847500Y-119350000D01*
X112847500Y-119350000D02*
X112847500Y-113850000D01*
X110897500Y-113850000D02*
X110897500Y-119350000D01*
X116700000Y-118963999D02*
X116700000Y-117633999D01*
X116700000Y-120293999D02*
X114040000Y-120293999D01*
X114040000Y-120233999D02*
X114040000Y-120293999D01*
X116700000Y-117633999D02*
X115370000Y-117633999D01*
X116700000Y-120233999D02*
X116700000Y-120293999D01*
X116700000Y-120233999D02*
X114040000Y-120233999D01*
X116700000Y-117693999D02*
X116700000Y-117753999D01*
X116700000Y-116423999D02*
X116700000Y-115093999D01*
X116700000Y-115093999D02*
X115370000Y-115093999D01*
X116700000Y-117753999D02*
X114040000Y-117753999D01*
X116700000Y-117693999D02*
X114040000Y-117693999D01*
X114040000Y-117693999D02*
X114040000Y-117753999D01*
X109009995Y-108171993D02*
X109309995Y-107871993D01*
X109309995Y-108471993D02*
X109009995Y-108171993D01*
X109309995Y-107871993D02*
X109309995Y-108471993D01*
X108759995Y-112321993D02*
X108759995Y-106821993D01*
X106809995Y-112321993D02*
X108759995Y-112321993D01*
X108759995Y-106821993D02*
X106809995Y-106821993D01*
X106809995Y-106821993D02*
X106809995Y-112321993D01*
X108608600Y-132970400D02*
X108008600Y-132970400D01*
X108308600Y-132670400D02*
X108608600Y-132970400D01*
X104158600Y-130470400D02*
X104158600Y-132420400D01*
X108008600Y-132970400D02*
X108308600Y-132670400D01*
X109658600Y-130470400D02*
X104158600Y-130470400D01*
X104158600Y-132420400D02*
X109658600Y-132420400D01*
X109658600Y-132420400D02*
X109658600Y-130470400D01*
X104139995Y-117348000D02*
X104139995Y-119948000D01*
X106799995Y-119948000D02*
X104139995Y-119948000D01*
X106799995Y-117348000D02*
X106799995Y-119948000D01*
X106799995Y-116078000D02*
X106799995Y-114748000D01*
X106799995Y-117348000D02*
X104139995Y-117348000D01*
X106799995Y-114748000D02*
X105469995Y-114748000D01*
X121963200Y-129948400D02*
X121963200Y-119853400D01*
X119743200Y-129948400D02*
X120289729Y-129948400D01*
X119743200Y-131468400D02*
X120853200Y-131468400D01*
X121416671Y-129948400D02*
X121963200Y-129948400D01*
X119743200Y-129948400D02*
X119743200Y-119853400D01*
X121160730Y-119853400D02*
X121963200Y-119853400D01*
X119743200Y-119853400D02*
X120545670Y-119853400D01*
X119743200Y-130708400D02*
X119743200Y-131468400D01*
X109212400Y-127593400D02*
X108409930Y-127593400D01*
X109212400Y-122578400D02*
X109212400Y-127593400D01*
X109212400Y-122578400D02*
X108665871Y-122578400D01*
X107538929Y-122578400D02*
X106992400Y-122578400D01*
X109212400Y-121058400D02*
X108102400Y-121058400D01*
X106992400Y-122578400D02*
X106992400Y-127593400D01*
X107794870Y-127593400D02*
X106992400Y-127593400D01*
X109212400Y-121818400D02*
X109212400Y-121058400D01*
X108008600Y-135104000D02*
X108308600Y-134804000D01*
X109658600Y-132604000D02*
X104158600Y-132604000D01*
X108608600Y-135104000D02*
X108008600Y-135104000D01*
X108308600Y-134804000D02*
X108608600Y-135104000D01*
X109658600Y-134554000D02*
X109658600Y-132604000D01*
X104158600Y-132604000D02*
X104158600Y-134554000D01*
X104158600Y-134554000D02*
X109658600Y-134554000D01*
X106799995Y-127508000D02*
X106799995Y-124908000D01*
X104139995Y-128778000D02*
X104139995Y-130108000D01*
X104139995Y-130108000D02*
X105469995Y-130108000D01*
X104139995Y-124908000D02*
X106799995Y-124908000D01*
X104139995Y-127508000D02*
X106799995Y-127508000D01*
X104139995Y-127508000D02*
X104139995Y-124908000D01*
X103200000Y-104270000D02*
X103200000Y-101670000D01*
X105860000Y-104270000D02*
X105860000Y-101670000D01*
X103200000Y-106870000D02*
X104530000Y-106870000D01*
X103200000Y-105540000D02*
X103200000Y-106870000D01*
X103200000Y-101670000D02*
X105860000Y-101670000D01*
X103200000Y-104270000D02*
X105860000Y-104270000D01*
X105860000Y-109604000D02*
X103200000Y-109604000D01*
X103200000Y-109604000D02*
X103200000Y-112204000D01*
X105860000Y-109604000D02*
X105860000Y-112204000D01*
X105860000Y-112204000D02*
X103200000Y-112204000D01*
X105860000Y-107004000D02*
X104530000Y-107004000D01*
X105860000Y-108334000D02*
X105860000Y-107004000D01*
X106799995Y-122428000D02*
X106799995Y-125028000D01*
X106799995Y-122428000D02*
X104139995Y-122428000D01*
X104139995Y-122428000D02*
X104139995Y-125028000D01*
X106799995Y-119828000D02*
X105469995Y-119828000D01*
X106799995Y-125028000D02*
X104139995Y-125028000D01*
X106799995Y-121158000D02*
X106799995Y-119828000D01*
M02*
