G04 #@! TF.GenerationSoftware,KiCad,Pcbnew,(5.1.6-0-10_14)*
G04 #@! TF.CreationDate,2021-11-25T16:37:17+09:00*
G04 #@! TF.ProjectId,peltier+relay,70656c74-6965-4722-9b72-656c61792e6b,rev?*
G04 #@! TF.SameCoordinates,Original*
G04 #@! TF.FileFunction,Legend,Top*
G04 #@! TF.FilePolarity,Positive*
%FSLAX46Y46*%
G04 Gerber Fmt 4.6, Leading zero omitted, Abs format (unit mm)*
G04 Created by KiCad (PCBNEW (5.1.6-0-10_14)) date 2021-11-25 16:37:17*
%MOMM*%
%LPD*%
G01*
G04 APERTURE LIST*
%ADD10C,0.300000*%
%ADD11C,0.250000*%
%ADD12C,0.120000*%
%ADD13C,0.150000*%
G04 APERTURE END LIST*
D10*
X163561428Y-111587142D02*
X162418571Y-111587142D01*
X162990000Y-112158571D02*
X162990000Y-111015714D01*
X163541428Y-108817142D02*
X162398571Y-108817142D01*
D11*
X101149999Y-84818571D02*
X101149999Y-83318571D01*
X101149999Y-83890000D02*
X101292857Y-83818571D01*
X101578571Y-83818571D01*
X101721428Y-83890000D01*
X101792857Y-83961428D01*
X101864285Y-84104285D01*
X101864285Y-84532857D01*
X101792857Y-84675714D01*
X101721428Y-84747142D01*
X101578571Y-84818571D01*
X101292857Y-84818571D01*
X101149999Y-84747142D01*
X103149999Y-84818571D02*
X103149999Y-84032857D01*
X103078571Y-83890000D01*
X102935714Y-83818571D01*
X102649999Y-83818571D01*
X102507142Y-83890000D01*
X103149999Y-84747142D02*
X103007142Y-84818571D01*
X102649999Y-84818571D01*
X102507142Y-84747142D01*
X102435714Y-84604285D01*
X102435714Y-84461428D01*
X102507142Y-84318571D01*
X102649999Y-84247142D01*
X103007142Y-84247142D01*
X103149999Y-84175714D01*
X103649999Y-83818571D02*
X104221428Y-83818571D01*
X103864285Y-83318571D02*
X103864285Y-84604285D01*
X103935714Y-84747142D01*
X104078571Y-84818571D01*
X104221428Y-84818571D01*
X105364285Y-84747142D02*
X105221428Y-84818571D01*
X104935714Y-84818571D01*
X104792857Y-84747142D01*
X104721428Y-84675714D01*
X104649999Y-84532857D01*
X104649999Y-84104285D01*
X104721428Y-83961428D01*
X104792857Y-83890000D01*
X104935714Y-83818571D01*
X105221428Y-83818571D01*
X105364285Y-83890000D01*
X106007142Y-84818571D02*
X106007142Y-83318571D01*
X106649999Y-84818571D02*
X106649999Y-84032857D01*
X106578571Y-83890000D01*
X106435714Y-83818571D01*
X106221428Y-83818571D01*
X106078571Y-83890000D01*
X106007142Y-83961428D01*
X108149999Y-84818571D02*
X107292857Y-84818571D01*
X107721428Y-84818571D02*
X107721428Y-83318571D01*
X107578571Y-83532857D01*
X107435714Y-83675714D01*
X107292857Y-83747142D01*
X109435714Y-83818571D02*
X109435714Y-84818571D01*
X109078571Y-83247142D02*
X108721428Y-84318571D01*
X109649999Y-84318571D01*
X111292857Y-83247142D02*
X110007142Y-85175714D01*
X111792857Y-83818571D02*
X111792857Y-85318571D01*
X111792857Y-83890000D02*
X111935714Y-83818571D01*
X112221428Y-83818571D01*
X112364285Y-83890000D01*
X112435714Y-83961428D01*
X112507142Y-84104285D01*
X112507142Y-84532857D01*
X112435714Y-84675714D01*
X112364285Y-84747142D01*
X112221428Y-84818571D01*
X111935714Y-84818571D01*
X111792857Y-84747142D01*
X113721428Y-84747142D02*
X113578571Y-84818571D01*
X113292857Y-84818571D01*
X113149999Y-84747142D01*
X113078571Y-84604285D01*
X113078571Y-84032857D01*
X113149999Y-83890000D01*
X113292857Y-83818571D01*
X113578571Y-83818571D01*
X113721428Y-83890000D01*
X113792857Y-84032857D01*
X113792857Y-84175714D01*
X113078571Y-84318571D01*
X114649999Y-84818571D02*
X114507142Y-84747142D01*
X114435714Y-84604285D01*
X114435714Y-83318571D01*
X115007142Y-83818571D02*
X115578571Y-83818571D01*
X115221428Y-83318571D02*
X115221428Y-84604285D01*
X115292857Y-84747142D01*
X115435714Y-84818571D01*
X115578571Y-84818571D01*
X116078571Y-84818571D02*
X116078571Y-83818571D01*
X116078571Y-83318571D02*
X116007142Y-83390000D01*
X116078571Y-83461428D01*
X116149999Y-83390000D01*
X116078571Y-83318571D01*
X116078571Y-83461428D01*
X117364285Y-84747142D02*
X117221428Y-84818571D01*
X116935714Y-84818571D01*
X116792857Y-84747142D01*
X116721428Y-84604285D01*
X116721428Y-84032857D01*
X116792857Y-83890000D01*
X116935714Y-83818571D01*
X117221428Y-83818571D01*
X117364285Y-83890000D01*
X117435714Y-84032857D01*
X117435714Y-84175714D01*
X116721428Y-84318571D01*
X118078571Y-84818571D02*
X118078571Y-83818571D01*
X118078571Y-84104285D02*
X118149999Y-83961428D01*
X118221428Y-83890000D01*
X118364285Y-83818571D01*
X118507142Y-83818571D01*
X119007142Y-84247142D02*
X120149999Y-84247142D01*
X119578571Y-84818571D02*
X119578571Y-83675714D01*
X120864285Y-84818571D02*
X120864285Y-83818571D01*
X120864285Y-84104285D02*
X120935714Y-83961428D01*
X121007142Y-83890000D01*
X121149999Y-83818571D01*
X121292857Y-83818571D01*
X122364285Y-84747142D02*
X122221428Y-84818571D01*
X121935714Y-84818571D01*
X121792857Y-84747142D01*
X121721428Y-84604285D01*
X121721428Y-84032857D01*
X121792857Y-83890000D01*
X121935714Y-83818571D01*
X122221428Y-83818571D01*
X122364285Y-83890000D01*
X122435714Y-84032857D01*
X122435714Y-84175714D01*
X121721428Y-84318571D01*
X123292857Y-84818571D02*
X123150000Y-84747142D01*
X123078571Y-84604285D01*
X123078571Y-83318571D01*
X124507142Y-84818571D02*
X124507142Y-84032857D01*
X124435714Y-83890000D01*
X124292857Y-83818571D01*
X124007142Y-83818571D01*
X123864285Y-83890000D01*
X124507142Y-84747142D02*
X124364285Y-84818571D01*
X124007142Y-84818571D01*
X123864285Y-84747142D01*
X123792857Y-84604285D01*
X123792857Y-84461428D01*
X123864285Y-84318571D01*
X124007142Y-84247142D01*
X124364285Y-84247142D01*
X124507142Y-84175714D01*
X125078571Y-83818571D02*
X125435714Y-84818571D01*
X125792857Y-83818571D02*
X125435714Y-84818571D01*
X125292857Y-85175714D01*
X125221428Y-85247142D01*
X125078571Y-85318571D01*
X100571428Y-98936666D02*
X100523809Y-99079523D01*
X100476190Y-99127142D01*
X100380952Y-99174761D01*
X100238095Y-99174761D01*
X100142857Y-99127142D01*
X100095238Y-99079523D01*
X100047619Y-98984285D01*
X100047619Y-98603333D01*
X101047619Y-98603333D01*
X101047619Y-98936666D01*
X101000000Y-99031904D01*
X100952380Y-99079523D01*
X100857142Y-99127142D01*
X100761904Y-99127142D01*
X100666666Y-99079523D01*
X100619047Y-99031904D01*
X100571428Y-98936666D01*
X100571428Y-98603333D01*
X100047619Y-100079523D02*
X100047619Y-99603333D01*
X101047619Y-99603333D01*
X100047619Y-100412857D02*
X101047619Y-100412857D01*
X100047619Y-100984285D02*
X100619047Y-100555714D01*
X101047619Y-100984285D02*
X100476190Y-100412857D01*
X100047619Y-95627142D02*
X100523809Y-95293809D01*
X100047619Y-95055714D02*
X101047619Y-95055714D01*
X101047619Y-95436666D01*
X101000000Y-95531904D01*
X100952380Y-95579523D01*
X100857142Y-95627142D01*
X100714285Y-95627142D01*
X100619047Y-95579523D01*
X100571428Y-95531904D01*
X100523809Y-95436666D01*
X100523809Y-95055714D01*
X100571428Y-96055714D02*
X100571428Y-96389047D01*
X100047619Y-96531904D02*
X100047619Y-96055714D01*
X101047619Y-96055714D01*
X101047619Y-96531904D01*
X100047619Y-96960476D02*
X101047619Y-96960476D01*
X101047619Y-97198571D01*
X101000000Y-97341428D01*
X100904761Y-97436666D01*
X100809523Y-97484285D01*
X100619047Y-97531904D01*
X100476190Y-97531904D01*
X100285714Y-97484285D01*
X100190476Y-97436666D01*
X100095238Y-97341428D01*
X100047619Y-97198571D01*
X100047619Y-96960476D01*
X170404761Y-84745714D02*
X170452380Y-84602857D01*
X170452380Y-84364761D01*
X170404761Y-84269523D01*
X170357142Y-84221904D01*
X170261904Y-84174285D01*
X170166666Y-84174285D01*
X170071428Y-84221904D01*
X170023809Y-84269523D01*
X169976190Y-84364761D01*
X169928571Y-84555238D01*
X169880952Y-84650476D01*
X169833333Y-84698095D01*
X169738095Y-84745714D01*
X169642857Y-84745714D01*
X169547619Y-84698095D01*
X169500000Y-84650476D01*
X169452380Y-84555238D01*
X169452380Y-84317142D01*
X169500000Y-84174285D01*
X169452380Y-83840952D02*
X170452380Y-83602857D01*
X169738095Y-83412380D01*
X170452380Y-83221904D01*
X169452380Y-82983809D01*
X170166666Y-82650476D02*
X170166666Y-82174285D01*
X170452380Y-82745714D02*
X169452380Y-82412380D01*
X170452380Y-82079047D01*
X163872867Y-85884761D02*
X164015724Y-85932380D01*
X164253819Y-85932380D01*
X164349057Y-85884761D01*
X164396676Y-85837142D01*
X164444295Y-85741904D01*
X164444295Y-85646666D01*
X164396676Y-85551428D01*
X164349057Y-85503809D01*
X164253819Y-85456190D01*
X164063343Y-85408571D01*
X163968105Y-85360952D01*
X163920486Y-85313333D01*
X163872867Y-85218095D01*
X163872867Y-85122857D01*
X163920486Y-85027619D01*
X163968105Y-84980000D01*
X164063343Y-84932380D01*
X164301438Y-84932380D01*
X164444295Y-84980000D01*
X164777629Y-84932380D02*
X165015724Y-85932380D01*
X165206200Y-85218095D01*
X165396676Y-85932380D01*
X165634771Y-84932380D01*
X166349057Y-85408571D02*
X166491914Y-85456190D01*
X166539533Y-85503809D01*
X166587152Y-85599047D01*
X166587152Y-85741904D01*
X166539533Y-85837142D01*
X166491914Y-85884761D01*
X166396676Y-85932380D01*
X166015724Y-85932380D01*
X166015724Y-84932380D01*
X166349057Y-84932380D01*
X166444295Y-84980000D01*
X166491914Y-85027619D01*
X166539533Y-85122857D01*
X166539533Y-85218095D01*
X166491914Y-85313333D01*
X166444295Y-85360952D01*
X166349057Y-85408571D01*
X166015724Y-85408571D01*
X161052380Y-84814761D02*
X160052380Y-84814761D01*
X160052380Y-84433809D01*
X160100000Y-84338571D01*
X160147619Y-84290952D01*
X160242857Y-84243333D01*
X160385714Y-84243333D01*
X160480952Y-84290952D01*
X160528571Y-84338571D01*
X160576190Y-84433809D01*
X160576190Y-84814761D01*
X160052380Y-83910000D02*
X161052380Y-83671904D01*
X160338095Y-83481428D01*
X161052380Y-83290952D01*
X160052380Y-83052857D01*
X161052380Y-82671904D02*
X160052380Y-82671904D01*
X160766666Y-82338571D01*
X160052380Y-82005238D01*
X161052380Y-82005238D01*
D12*
X153260000Y-89540000D02*
X153260000Y-86240000D01*
X153260000Y-86240000D02*
X147860000Y-86240000D01*
X153260000Y-89540000D02*
X147860000Y-89540000D01*
X146460000Y-82640000D02*
X151860000Y-82640000D01*
X146460000Y-85940000D02*
X151860000Y-85940000D01*
X146460000Y-82640000D02*
X146460000Y-85940000D01*
X102250000Y-102020000D02*
X102250000Y-94020000D01*
X101350000Y-94020000D02*
X108150000Y-94020000D01*
X101350000Y-102020000D02*
X101350000Y-94020000D01*
X108150000Y-102020000D02*
X101350000Y-102020000D01*
X108150000Y-94020000D02*
X108150000Y-102020000D01*
X168900000Y-107750000D02*
X168900000Y-108800000D01*
X169950000Y-108800000D02*
X168900000Y-108800000D01*
X175000000Y-99400000D02*
X183800000Y-99400000D01*
X183800000Y-99400000D02*
X183800000Y-108600000D01*
X169100000Y-102100000D02*
X169100000Y-99400000D01*
X169100000Y-99400000D02*
X171000000Y-99400000D01*
X183800000Y-108600000D02*
X169100000Y-108600000D01*
X169100000Y-108600000D02*
X169100000Y-106000000D01*
X169100000Y-94600000D02*
X169100000Y-92000000D01*
X183800000Y-94600000D02*
X169100000Y-94600000D01*
X169100000Y-85400000D02*
X171000000Y-85400000D01*
X169100000Y-88100000D02*
X169100000Y-85400000D01*
X183800000Y-85400000D02*
X183800000Y-94600000D01*
X175000000Y-85400000D02*
X183800000Y-85400000D01*
X169950000Y-94800000D02*
X168900000Y-94800000D01*
X168900000Y-93750000D02*
X168900000Y-94800000D01*
X145780000Y-87710000D02*
X129580000Y-87710000D01*
X129580000Y-111510000D02*
X129580000Y-87710000D01*
X145780000Y-111510000D02*
X145780000Y-87710000D01*
X129580000Y-111510000D02*
X145780000Y-111510000D01*
X140260499Y-112110000D02*
G75*
G03*
X140260499Y-112110000I-381000J0D01*
G01*
X124947399Y-106391499D02*
X124947399Y-92548499D01*
X124947399Y-92548499D02*
X112603000Y-92548499D01*
X112603000Y-92548499D02*
X112603000Y-101820679D01*
X112603000Y-106391499D02*
X124947399Y-106391499D01*
X112603000Y-103919320D02*
X112603000Y-106391499D01*
X111911000Y-102869499D02*
G75*
G03*
X111911000Y-102869499I-381000J0D01*
G01*
X153790000Y-88650000D02*
X154720000Y-88650000D01*
X156950000Y-88650000D02*
X156020000Y-88650000D01*
X156950000Y-88650000D02*
X156950000Y-86490000D01*
X153790000Y-88650000D02*
X153790000Y-87190000D01*
X153790000Y-85050000D02*
X153790000Y-83590000D01*
X156950000Y-85050000D02*
X156950000Y-82890000D01*
X156950000Y-85050000D02*
X156020000Y-85050000D01*
X153790000Y-85050000D02*
X154720000Y-85050000D01*
X169100010Y-82000008D02*
X169100010Y-83330008D01*
X167770010Y-82000008D02*
X169100010Y-82000008D01*
X166500010Y-82000008D02*
X166500010Y-84660008D01*
X166500010Y-84660008D02*
X161360010Y-84660008D01*
X166500010Y-82000008D02*
X161360010Y-82000008D01*
X161360010Y-82000008D02*
X161360010Y-84660008D01*
X159048960Y-87565400D02*
X158048960Y-87565400D01*
X158048960Y-86205400D02*
X159048960Y-86205400D01*
X158920000Y-83790000D02*
X158920000Y-84790000D01*
X157560000Y-84790000D02*
X157560000Y-83790000D01*
X107810000Y-90830000D02*
X107810000Y-92160000D01*
X106480000Y-90830000D02*
X107810000Y-90830000D01*
X105210000Y-90830000D02*
X105210000Y-93490000D01*
X105210000Y-93490000D02*
X102610000Y-93490000D01*
X105210000Y-90830000D02*
X102610000Y-90830000D01*
X102610000Y-90830000D02*
X102610000Y-93490000D01*
X162107448Y-89183000D02*
X163529952Y-89183000D01*
X162107448Y-91903000D02*
X163529952Y-91903000D01*
X147704600Y-95053988D02*
X147704600Y-96476492D01*
X150424600Y-95053988D02*
X150424600Y-96476492D01*
X151673180Y-94281880D02*
X151673180Y-97228280D01*
X153324180Y-97228280D02*
X153324180Y-94281880D01*
X167209400Y-112866100D02*
X165879400Y-112866100D01*
X167209400Y-111536100D02*
X167209400Y-112866100D01*
X167209400Y-110266100D02*
X164549400Y-110266100D01*
X164549400Y-110266100D02*
X164549400Y-107666100D01*
X167209400Y-110266100D02*
X167209400Y-107666100D01*
X167209400Y-107666100D02*
X164549400Y-107666100D01*
X161536800Y-111702000D02*
X148936800Y-111702000D01*
X161536800Y-99102000D02*
X161536800Y-111702000D01*
X148936800Y-99102000D02*
X161536800Y-99102000D01*
X148936800Y-111702000D02*
X148936800Y-99102000D01*
X162869500Y-92892500D02*
X156722700Y-92892500D01*
X156722700Y-92892500D02*
X156722700Y-93207460D01*
X156722700Y-98455100D02*
X162869500Y-98455100D01*
X162869500Y-98455100D02*
X162869500Y-98140140D01*
X162869500Y-93207460D02*
X162869500Y-92892500D01*
X156722700Y-98140140D02*
X156722700Y-98455100D01*
X165627200Y-94344342D02*
X165627200Y-94818858D01*
X164582200Y-94344342D02*
X164582200Y-94818858D01*
D13*
X149111904Y-90812380D02*
X149111904Y-89812380D01*
X149350000Y-89812380D01*
X149492857Y-89860000D01*
X149588095Y-89955238D01*
X149635714Y-90050476D01*
X149683333Y-90240952D01*
X149683333Y-90383809D01*
X149635714Y-90574285D01*
X149588095Y-90669523D01*
X149492857Y-90764761D01*
X149350000Y-90812380D01*
X149111904Y-90812380D01*
X150635714Y-90812380D02*
X150064285Y-90812380D01*
X150350000Y-90812380D02*
X150350000Y-89812380D01*
X150254761Y-89955238D01*
X150159523Y-90050476D01*
X150064285Y-90098095D01*
X144581904Y-84862380D02*
X144581904Y-83862380D01*
X144820000Y-83862380D01*
X144962857Y-83910000D01*
X145058095Y-84005238D01*
X145105714Y-84100476D01*
X145153333Y-84290952D01*
X145153333Y-84433809D01*
X145105714Y-84624285D01*
X145058095Y-84719523D01*
X144962857Y-84814761D01*
X144820000Y-84862380D01*
X144581904Y-84862380D01*
X145534285Y-83957619D02*
X145581904Y-83910000D01*
X145677142Y-83862380D01*
X145915238Y-83862380D01*
X146010476Y-83910000D01*
X146058095Y-83957619D01*
X146105714Y-84052857D01*
X146105714Y-84148095D01*
X146058095Y-84290952D01*
X145486666Y-84862380D01*
X146105714Y-84862380D01*
X108677619Y-96094761D02*
X109677619Y-96094761D01*
X109677619Y-96475714D01*
X109630000Y-96570952D01*
X109582380Y-96618571D01*
X109487142Y-96666190D01*
X109344285Y-96666190D01*
X109249047Y-96618571D01*
X109201428Y-96570952D01*
X109153809Y-96475714D01*
X109153809Y-96094761D01*
X109201428Y-97094761D02*
X109201428Y-97428095D01*
X108677619Y-97570952D02*
X108677619Y-97094761D01*
X109677619Y-97094761D01*
X109677619Y-97570952D01*
X108677619Y-98475714D02*
X108677619Y-97999523D01*
X109677619Y-97999523D01*
X108677619Y-99332857D02*
X108677619Y-98761428D01*
X108677619Y-99047142D02*
X109677619Y-99047142D01*
X109534761Y-98951904D01*
X109439523Y-98856666D01*
X109391904Y-98761428D01*
X173056666Y-109092380D02*
X173056666Y-109806666D01*
X173009047Y-109949523D01*
X172913809Y-110044761D01*
X172770952Y-110092380D01*
X172675714Y-110092380D01*
X173961428Y-109092380D02*
X173770952Y-109092380D01*
X173675714Y-109140000D01*
X173628095Y-109187619D01*
X173532857Y-109330476D01*
X173485238Y-109520952D01*
X173485238Y-109901904D01*
X173532857Y-109997142D01*
X173580476Y-110044761D01*
X173675714Y-110092380D01*
X173866190Y-110092380D01*
X173961428Y-110044761D01*
X174009047Y-109997142D01*
X174056666Y-109901904D01*
X174056666Y-109663809D01*
X174009047Y-109568571D01*
X173961428Y-109520952D01*
X173866190Y-109473333D01*
X173675714Y-109473333D01*
X173580476Y-109520952D01*
X173532857Y-109568571D01*
X173485238Y-109663809D01*
X173146666Y-95112380D02*
X173146666Y-95826666D01*
X173099047Y-95969523D01*
X173003809Y-96064761D01*
X172860952Y-96112380D01*
X172765714Y-96112380D01*
X173527619Y-95112380D02*
X174194285Y-95112380D01*
X173765714Y-96112380D01*
X137621904Y-112832380D02*
X137621904Y-111832380D01*
X138193333Y-112832380D02*
X137764761Y-112260952D01*
X138193333Y-111832380D02*
X137621904Y-112403809D01*
X139145714Y-112832380D02*
X138574285Y-112832380D01*
X138860000Y-112832380D02*
X138860000Y-111832380D01*
X138764761Y-111975238D01*
X138669523Y-112070476D01*
X138574285Y-112118095D01*
X141630000Y-109712380D02*
X141630000Y-109950476D01*
X141391904Y-109855238D02*
X141630000Y-109950476D01*
X141868095Y-109855238D01*
X141487142Y-110140952D02*
X141630000Y-109950476D01*
X141772857Y-110140952D01*
X118021904Y-108292380D02*
X118021904Y-107292380D01*
X118593333Y-108292380D02*
X118164761Y-107720952D01*
X118593333Y-107292380D02*
X118021904Y-107863809D01*
X118974285Y-107387619D02*
X119021904Y-107340000D01*
X119117142Y-107292380D01*
X119355238Y-107292380D01*
X119450476Y-107340000D01*
X119498095Y-107387619D01*
X119545714Y-107482857D01*
X119545714Y-107578095D01*
X119498095Y-107720952D01*
X118926666Y-108292380D01*
X119545714Y-108292380D01*
X112982380Y-104420000D02*
X113220476Y-104420000D01*
X113125238Y-104658095D02*
X113220476Y-104420000D01*
X113125238Y-104181904D01*
X113410952Y-104562857D02*
X113220476Y-104420000D01*
X113410952Y-104277142D01*
X155224761Y-90867619D02*
X155129523Y-90820000D01*
X155034285Y-90724761D01*
X154891428Y-90581904D01*
X154796190Y-90534285D01*
X154700952Y-90534285D01*
X154748571Y-90772380D02*
X154653333Y-90724761D01*
X154558095Y-90629523D01*
X154510476Y-90439047D01*
X154510476Y-90105714D01*
X154558095Y-89915238D01*
X154653333Y-89820000D01*
X154748571Y-89772380D01*
X154939047Y-89772380D01*
X155034285Y-89820000D01*
X155129523Y-89915238D01*
X155177142Y-90105714D01*
X155177142Y-90439047D01*
X155129523Y-90629523D01*
X155034285Y-90724761D01*
X154939047Y-90772380D01*
X154748571Y-90772380D01*
X155558095Y-89867619D02*
X155605714Y-89820000D01*
X155700952Y-89772380D01*
X155939047Y-89772380D01*
X156034285Y-89820000D01*
X156081904Y-89867619D01*
X156129523Y-89962857D01*
X156129523Y-90058095D01*
X156081904Y-90200952D01*
X155510476Y-90772380D01*
X156129523Y-90772380D01*
X155304761Y-83047619D02*
X155209523Y-83000000D01*
X155114285Y-82904761D01*
X154971428Y-82761904D01*
X154876190Y-82714285D01*
X154780952Y-82714285D01*
X154828571Y-82952380D02*
X154733333Y-82904761D01*
X154638095Y-82809523D01*
X154590476Y-82619047D01*
X154590476Y-82285714D01*
X154638095Y-82095238D01*
X154733333Y-82000000D01*
X154828571Y-81952380D01*
X155019047Y-81952380D01*
X155114285Y-82000000D01*
X155209523Y-82095238D01*
X155257142Y-82285714D01*
X155257142Y-82619047D01*
X155209523Y-82809523D01*
X155114285Y-82904761D01*
X155019047Y-82952380D01*
X154828571Y-82952380D01*
X156114285Y-82285714D02*
X156114285Y-82952380D01*
X155876190Y-81904761D02*
X155638095Y-82619047D01*
X156257142Y-82619047D01*
X161736666Y-85462380D02*
X161736666Y-86176666D01*
X161689047Y-86319523D01*
X161593809Y-86414761D01*
X161450952Y-86462380D01*
X161355714Y-86462380D01*
X162355714Y-85890952D02*
X162260476Y-85843333D01*
X162212857Y-85795714D01*
X162165238Y-85700476D01*
X162165238Y-85652857D01*
X162212857Y-85557619D01*
X162260476Y-85510000D01*
X162355714Y-85462380D01*
X162546190Y-85462380D01*
X162641428Y-85510000D01*
X162689047Y-85557619D01*
X162736666Y-85652857D01*
X162736666Y-85700476D01*
X162689047Y-85795714D01*
X162641428Y-85843333D01*
X162546190Y-85890952D01*
X162355714Y-85890952D01*
X162260476Y-85938571D01*
X162212857Y-85986190D01*
X162165238Y-86081428D01*
X162165238Y-86271904D01*
X162212857Y-86367142D01*
X162260476Y-86414761D01*
X162355714Y-86462380D01*
X162546190Y-86462380D01*
X162641428Y-86414761D01*
X162689047Y-86367142D01*
X162736666Y-86271904D01*
X162736666Y-86081428D01*
X162689047Y-85986190D01*
X162641428Y-85938571D01*
X162546190Y-85890952D01*
X158413333Y-88922380D02*
X158080000Y-88446190D01*
X157841904Y-88922380D02*
X157841904Y-87922380D01*
X158222857Y-87922380D01*
X158318095Y-87970000D01*
X158365714Y-88017619D01*
X158413333Y-88112857D01*
X158413333Y-88255714D01*
X158365714Y-88350952D01*
X158318095Y-88398571D01*
X158222857Y-88446190D01*
X157841904Y-88446190D01*
X159270476Y-87922380D02*
X159080000Y-87922380D01*
X158984761Y-87970000D01*
X158937142Y-88017619D01*
X158841904Y-88160476D01*
X158794285Y-88350952D01*
X158794285Y-88731904D01*
X158841904Y-88827142D01*
X158889523Y-88874761D01*
X158984761Y-88922380D01*
X159175238Y-88922380D01*
X159270476Y-88874761D01*
X159318095Y-88827142D01*
X159365714Y-88731904D01*
X159365714Y-88493809D01*
X159318095Y-88398571D01*
X159270476Y-88350952D01*
X159175238Y-88303333D01*
X158984761Y-88303333D01*
X158889523Y-88350952D01*
X158841904Y-88398571D01*
X158794285Y-88493809D01*
X158113333Y-82972380D02*
X157780000Y-82496190D01*
X157541904Y-82972380D02*
X157541904Y-81972380D01*
X157922857Y-81972380D01*
X158018095Y-82020000D01*
X158065714Y-82067619D01*
X158113333Y-82162857D01*
X158113333Y-82305714D01*
X158065714Y-82400952D01*
X158018095Y-82448571D01*
X157922857Y-82496190D01*
X157541904Y-82496190D01*
X158684761Y-82400952D02*
X158589523Y-82353333D01*
X158541904Y-82305714D01*
X158494285Y-82210476D01*
X158494285Y-82162857D01*
X158541904Y-82067619D01*
X158589523Y-82020000D01*
X158684761Y-81972380D01*
X158875238Y-81972380D01*
X158970476Y-82020000D01*
X159018095Y-82067619D01*
X159065714Y-82162857D01*
X159065714Y-82210476D01*
X159018095Y-82305714D01*
X158970476Y-82353333D01*
X158875238Y-82400952D01*
X158684761Y-82400952D01*
X158589523Y-82448571D01*
X158541904Y-82496190D01*
X158494285Y-82591428D01*
X158494285Y-82781904D01*
X158541904Y-82877142D01*
X158589523Y-82924761D01*
X158684761Y-82972380D01*
X158875238Y-82972380D01*
X158970476Y-82924761D01*
X159018095Y-82877142D01*
X159065714Y-82781904D01*
X159065714Y-82591428D01*
X159018095Y-82496190D01*
X158970476Y-82448571D01*
X158875238Y-82400952D01*
X104646666Y-89082380D02*
X104646666Y-89796666D01*
X104599047Y-89939523D01*
X104503809Y-90034761D01*
X104360952Y-90082380D01*
X104265714Y-90082380D01*
X105027619Y-89082380D02*
X105646666Y-89082380D01*
X105313333Y-89463333D01*
X105456190Y-89463333D01*
X105551428Y-89510952D01*
X105599047Y-89558571D01*
X105646666Y-89653809D01*
X105646666Y-89891904D01*
X105599047Y-89987142D01*
X105551428Y-90034761D01*
X105456190Y-90082380D01*
X105170476Y-90082380D01*
X105075238Y-90034761D01*
X105027619Y-89987142D01*
X162652033Y-88600142D02*
X162604414Y-88647761D01*
X162461557Y-88695380D01*
X162366319Y-88695380D01*
X162223461Y-88647761D01*
X162128223Y-88552523D01*
X162080604Y-88457285D01*
X162032985Y-88266809D01*
X162032985Y-88123952D01*
X162080604Y-87933476D01*
X162128223Y-87838238D01*
X162223461Y-87743000D01*
X162366319Y-87695380D01*
X162461557Y-87695380D01*
X162604414Y-87743000D01*
X162652033Y-87790619D01*
X163604414Y-88695380D02*
X163032985Y-88695380D01*
X163318700Y-88695380D02*
X163318700Y-87695380D01*
X163223461Y-87838238D01*
X163128223Y-87933476D01*
X163032985Y-87981095D01*
X148893333Y-93167142D02*
X148845714Y-93214761D01*
X148702857Y-93262380D01*
X148607619Y-93262380D01*
X148464761Y-93214761D01*
X148369523Y-93119523D01*
X148321904Y-93024285D01*
X148274285Y-92833809D01*
X148274285Y-92690952D01*
X148321904Y-92500476D01*
X148369523Y-92405238D01*
X148464761Y-92310000D01*
X148607619Y-92262380D01*
X148702857Y-92262380D01*
X148845714Y-92310000D01*
X148893333Y-92357619D01*
X149274285Y-92357619D02*
X149321904Y-92310000D01*
X149417142Y-92262380D01*
X149655238Y-92262380D01*
X149750476Y-92310000D01*
X149798095Y-92357619D01*
X149845714Y-92452857D01*
X149845714Y-92548095D01*
X149798095Y-92690952D01*
X149226666Y-93262380D01*
X149845714Y-93262380D01*
X151771904Y-93782380D02*
X151771904Y-92782380D01*
X152010000Y-92782380D01*
X152152857Y-92830000D01*
X152248095Y-92925238D01*
X152295714Y-93020476D01*
X152343333Y-93210952D01*
X152343333Y-93353809D01*
X152295714Y-93544285D01*
X152248095Y-93639523D01*
X152152857Y-93734761D01*
X152010000Y-93782380D01*
X151771904Y-93782380D01*
X152676666Y-92782380D02*
X153295714Y-92782380D01*
X152962380Y-93163333D01*
X153105238Y-93163333D01*
X153200476Y-93210952D01*
X153248095Y-93258571D01*
X153295714Y-93353809D01*
X153295714Y-93591904D01*
X153248095Y-93687142D01*
X153200476Y-93734761D01*
X153105238Y-93782380D01*
X152819523Y-93782380D01*
X152724285Y-93734761D01*
X152676666Y-93687142D01*
X165486666Y-105942380D02*
X165486666Y-106656666D01*
X165439047Y-106799523D01*
X165343809Y-106894761D01*
X165200952Y-106942380D01*
X165105714Y-106942380D01*
X166391428Y-106275714D02*
X166391428Y-106942380D01*
X166153333Y-105894761D02*
X165915238Y-106609047D01*
X166534285Y-106609047D01*
X155070133Y-112854380D02*
X154593942Y-112854380D01*
X154593942Y-111854380D01*
X155927276Y-112854380D02*
X155355847Y-112854380D01*
X155641561Y-112854380D02*
X155641561Y-111854380D01*
X155546323Y-111997238D01*
X155451085Y-112092476D01*
X155355847Y-112140095D01*
X157714761Y-92507619D02*
X157619523Y-92460000D01*
X157524285Y-92364761D01*
X157381428Y-92221904D01*
X157286190Y-92174285D01*
X157190952Y-92174285D01*
X157238571Y-92412380D02*
X157143333Y-92364761D01*
X157048095Y-92269523D01*
X157000476Y-92079047D01*
X157000476Y-91745714D01*
X157048095Y-91555238D01*
X157143333Y-91460000D01*
X157238571Y-91412380D01*
X157429047Y-91412380D01*
X157524285Y-91460000D01*
X157619523Y-91555238D01*
X157667142Y-91745714D01*
X157667142Y-92079047D01*
X157619523Y-92269523D01*
X157524285Y-92364761D01*
X157429047Y-92412380D01*
X157238571Y-92412380D01*
X158619523Y-92412380D02*
X158048095Y-92412380D01*
X158333809Y-92412380D02*
X158333809Y-91412380D01*
X158238571Y-91555238D01*
X158143333Y-91650476D01*
X158048095Y-91698095D01*
X163436100Y-97956180D02*
X163436100Y-98194276D01*
X163198004Y-98099038D02*
X163436100Y-98194276D01*
X163674195Y-98099038D01*
X163293242Y-98384752D02*
X163436100Y-98194276D01*
X163578957Y-98384752D01*
X165093333Y-97432380D02*
X164760000Y-96956190D01*
X164521904Y-97432380D02*
X164521904Y-96432380D01*
X164902857Y-96432380D01*
X164998095Y-96480000D01*
X165045714Y-96527619D01*
X165093333Y-96622857D01*
X165093333Y-96765714D01*
X165045714Y-96860952D01*
X164998095Y-96908571D01*
X164902857Y-96956190D01*
X164521904Y-96956190D01*
X166045714Y-97432380D02*
X165474285Y-97432380D01*
X165760000Y-97432380D02*
X165760000Y-96432380D01*
X165664761Y-96575238D01*
X165569523Y-96670476D01*
X165474285Y-96718095D01*
M02*
