G04 #@! TF.GenerationSoftware,KiCad,Pcbnew,(5.1.6-0-10_14)*
G04 #@! TF.CreationDate,2021-11-25T16:37:17+09:00*
G04 #@! TF.ProjectId,peltier+relay,70656c74-6965-4722-9b72-656c61792e6b,rev?*
G04 #@! TF.SameCoordinates,Original*
G04 #@! TF.FileFunction,Copper,L2,Bot*
G04 #@! TF.FilePolarity,Positive*
%FSLAX46Y46*%
G04 Gerber Fmt 4.6, Leading zero omitted, Abs format (unit mm)*
G04 Created by KiCad (PCBNEW (5.1.6-0-10_14)) date 2021-11-25 16:37:17*
%MOMM*%
%LPD*%
G01*
G04 APERTURE LIST*
G04 #@! TA.AperFunction,ComponentPad*
%ADD10C,2.000000*%
G04 #@! TD*
G04 #@! TA.AperFunction,ComponentPad*
%ADD11R,3.500000X3.500000*%
G04 #@! TD*
G04 #@! TA.AperFunction,ComponentPad*
%ADD12C,2.700000*%
G04 #@! TD*
G04 #@! TA.AperFunction,ComponentPad*
%ADD13C,1.700000*%
G04 #@! TD*
G04 #@! TA.AperFunction,ComponentPad*
%ADD14C,2.108200*%
G04 #@! TD*
G04 #@! TA.AperFunction,ComponentPad*
%ADD15C,2.006600*%
G04 #@! TD*
G04 #@! TA.AperFunction,ComponentPad*
%ADD16C,1.701800*%
G04 #@! TD*
G04 #@! TA.AperFunction,ComponentPad*
%ADD17C,1.498600*%
G04 #@! TD*
G04 #@! TA.AperFunction,ComponentPad*
%ADD18O,1.700000X1.700000*%
G04 #@! TD*
G04 #@! TA.AperFunction,ComponentPad*
%ADD19R,1.700000X1.700000*%
G04 #@! TD*
G04 #@! TA.AperFunction,ViaPad*
%ADD20C,0.800000*%
G04 #@! TD*
G04 #@! TA.AperFunction,Conductor*
%ADD21C,1.000000*%
G04 #@! TD*
G04 #@! TA.AperFunction,Conductor*
%ADD22C,0.750000*%
G04 #@! TD*
G04 #@! TA.AperFunction,Conductor*
%ADD23C,2.540000*%
G04 #@! TD*
G04 #@! TA.AperFunction,Conductor*
%ADD24C,5.080000*%
G04 #@! TD*
G04 #@! TA.AperFunction,Conductor*
%ADD25C,0.250000*%
G04 #@! TD*
G04 #@! TA.AperFunction,Conductor*
%ADD26C,0.254000*%
G04 #@! TD*
G04 APERTURE END LIST*
D10*
X104750000Y-99770000D03*
X104750000Y-96270000D03*
D11*
X170000000Y-104000000D03*
G04 #@! TA.AperFunction,ComponentPad*
G36*
G01*
X177500000Y-103000000D02*
X177500000Y-105000000D01*
G75*
G02*
X176750000Y-105750000I-750000J0D01*
G01*
X175250000Y-105750000D01*
G75*
G02*
X174500000Y-105000000I0J750000D01*
G01*
X174500000Y-103000000D01*
G75*
G02*
X175250000Y-102250000I750000J0D01*
G01*
X176750000Y-102250000D01*
G75*
G02*
X177500000Y-103000000I0J-750000D01*
G01*
G37*
G04 #@! TD.AperFunction*
G04 #@! TA.AperFunction,ComponentPad*
G36*
G01*
X174750000Y-98425000D02*
X174750000Y-100175000D01*
G75*
G02*
X173875000Y-101050000I-875000J0D01*
G01*
X172125000Y-101050000D01*
G75*
G02*
X171250000Y-100175000I0J875000D01*
G01*
X171250000Y-98425000D01*
G75*
G02*
X172125000Y-97550000I875000J0D01*
G01*
X173875000Y-97550000D01*
G75*
G02*
X174750000Y-98425000I0J-875000D01*
G01*
G37*
G04 #@! TD.AperFunction*
G04 #@! TA.AperFunction,ComponentPad*
G36*
G01*
X174750000Y-84425000D02*
X174750000Y-86175000D01*
G75*
G02*
X173875000Y-87050000I-875000J0D01*
G01*
X172125000Y-87050000D01*
G75*
G02*
X171250000Y-86175000I0J875000D01*
G01*
X171250000Y-84425000D01*
G75*
G02*
X172125000Y-83550000I875000J0D01*
G01*
X173875000Y-83550000D01*
G75*
G02*
X174750000Y-84425000I0J-875000D01*
G01*
G37*
G04 #@! TD.AperFunction*
G04 #@! TA.AperFunction,ComponentPad*
G36*
G01*
X177500000Y-89000000D02*
X177500000Y-91000000D01*
G75*
G02*
X176750000Y-91750000I-750000J0D01*
G01*
X175250000Y-91750000D01*
G75*
G02*
X174500000Y-91000000I0J750000D01*
G01*
X174500000Y-89000000D01*
G75*
G02*
X175250000Y-88250000I750000J0D01*
G01*
X176750000Y-88250000D01*
G75*
G02*
X177500000Y-89000000I0J-750000D01*
G01*
G37*
G04 #@! TD.AperFunction*
X170000000Y-90000000D03*
D12*
X139880000Y-109710000D03*
D13*
X143130000Y-107610000D03*
X143130000Y-103110000D03*
D10*
X140780000Y-99610000D03*
D12*
X135480000Y-89510000D03*
D13*
X132230000Y-91610000D03*
X132230000Y-96110000D03*
D10*
X131280000Y-99610000D03*
D14*
X114830000Y-98720000D03*
D15*
X114230000Y-94220000D03*
D16*
X118780000Y-93420000D03*
D17*
X122180000Y-93420000D03*
D14*
X124130000Y-96070000D03*
X122130000Y-100220000D03*
D15*
X122730000Y-104720000D03*
D16*
X118780000Y-105520000D03*
D17*
X115380000Y-105520000D03*
D14*
X113430000Y-102870000D03*
D18*
X162690010Y-83330008D03*
X165230010Y-83330008D03*
D19*
X167770010Y-83330008D03*
D18*
X103940000Y-92160000D03*
D19*
X106480000Y-92160000D03*
D18*
X165879400Y-108996100D03*
D19*
X165879400Y-111536100D03*
D20*
X145860000Y-86010000D03*
X101000000Y-100790000D03*
X99700000Y-103110000D03*
X100720000Y-106740000D03*
X99730000Y-113490000D03*
X99840000Y-110160000D03*
X104200000Y-113500000D03*
X102790000Y-110840000D03*
X104870000Y-108190000D03*
X106740000Y-110780000D03*
X108860000Y-113750000D03*
X114140000Y-113350000D03*
X119600000Y-113240000D03*
X126430000Y-113440000D03*
X133750000Y-113310000D03*
X140290000Y-113430000D03*
X147050000Y-113480000D03*
X118520000Y-97210000D03*
X164950000Y-98940000D03*
X164180000Y-101380000D03*
X165370000Y-103700000D03*
X163760000Y-106490000D03*
X162630000Y-109220000D03*
X176480000Y-113030000D03*
X175170000Y-107320000D03*
X175830000Y-109940000D03*
X171760000Y-108240000D03*
X173150000Y-112070000D03*
X173150000Y-109990000D03*
X168580000Y-112970000D03*
X168803900Y-108996100D03*
X170000000Y-111300000D03*
X170435000Y-94985000D03*
X175380990Y-96219010D03*
X175380990Y-93999010D03*
X169900000Y-99500000D03*
X129900000Y-95400000D03*
X128000000Y-98700000D03*
X107600000Y-95500000D03*
X107750000Y-107900000D03*
X110000000Y-110800000D03*
X110742365Y-99942365D03*
X112530000Y-98720000D03*
X110700000Y-95700000D03*
X108750000Y-97450000D03*
X103200000Y-104200000D03*
X105450000Y-105900000D03*
X129635000Y-97965000D03*
X134300000Y-99950000D03*
X146900000Y-109300000D03*
X144100000Y-110300000D03*
X163568000Y-92702000D03*
X159550000Y-84425000D03*
D21*
X141862066Y-103110000D02*
X143130000Y-103110000D01*
X119850011Y-106590011D02*
X138382055Y-106590011D01*
X138382055Y-106590011D02*
X141862066Y-103110000D01*
X118780000Y-105520000D02*
X119850011Y-106590011D01*
D22*
X122180000Y-93420000D02*
X131280000Y-93420000D01*
X132230000Y-94370000D02*
X132230000Y-96110000D01*
X131280000Y-93420000D02*
X132230000Y-94370000D01*
X120890334Y-93420000D02*
X122180000Y-93420000D01*
X119464433Y-94845901D02*
X120890334Y-93420000D01*
X118009388Y-94845901D02*
X119464433Y-94845901D01*
X116459101Y-96396188D02*
X118009388Y-94845901D01*
X116459101Y-104440899D02*
X116459101Y-96396188D01*
X115380000Y-105520000D02*
X116459101Y-104440899D01*
D23*
X170000000Y-90000000D02*
X167489760Y-92510240D01*
X167489760Y-101489760D02*
X170000000Y-104000000D01*
X167489760Y-92510240D02*
X167489760Y-101489760D01*
D22*
X145860000Y-83954999D02*
X145860000Y-86010000D01*
X146560000Y-83254999D02*
X145860000Y-83954999D01*
X164797000Y-87835000D02*
X160216999Y-83254999D01*
X160216999Y-83254999D02*
X146560000Y-83254999D01*
X167835000Y-87835000D02*
X164797000Y-87835000D01*
X170000000Y-90000000D02*
X167835000Y-87835000D01*
D21*
X131869301Y-91970699D02*
X132230000Y-91610000D01*
X120229301Y-91970699D02*
X131869301Y-91970699D01*
X118780000Y-93420000D02*
X120229301Y-91970699D01*
D24*
X111890699Y-103845135D02*
X113147917Y-102587917D01*
X114405834Y-109710000D02*
X111890699Y-107194865D01*
X111890699Y-107194865D02*
X111890699Y-103845135D01*
X104990001Y-100010001D02*
X104750000Y-100010001D01*
X108825135Y-103845135D02*
X104990001Y-100010001D01*
X111890699Y-103845135D02*
X108825135Y-103845135D01*
X118387934Y-109710000D02*
X118507955Y-109830021D01*
X114405834Y-109710000D02*
X118387934Y-109710000D01*
X139759979Y-109830021D02*
X139880000Y-109710000D01*
X118507955Y-109830021D02*
X139759979Y-109830021D01*
X123770086Y-100220000D02*
X122130000Y-100220000D01*
X126900087Y-103350001D02*
X123770086Y-100220000D01*
X137039999Y-103350001D02*
X126900087Y-103350001D01*
X140780000Y-99610000D02*
X137039999Y-103350001D01*
X140780000Y-88756798D02*
X140780000Y-99610000D01*
X137443201Y-85419999D02*
X140780000Y-88756798D01*
X114230000Y-92655466D02*
X121465467Y-85419999D01*
X121465467Y-85419999D02*
X137443201Y-85419999D01*
X114230000Y-94220000D02*
X114230000Y-92655466D01*
D25*
X121949101Y-94690899D02*
X121050000Y-95590000D01*
X126360899Y-94690899D02*
X121949101Y-94690899D01*
X131280000Y-99610000D02*
X129635000Y-97965000D01*
X129635000Y-97965000D02*
X126360899Y-94690899D01*
X164875000Y-89125000D02*
X160575000Y-84825000D01*
X164875000Y-91395000D02*
X164875000Y-89125000D01*
X159150000Y-84825000D02*
X159550000Y-84425000D01*
X160575000Y-84825000D02*
X159150000Y-84825000D01*
X163568000Y-92702000D02*
X164875000Y-91395000D01*
D26*
G36*
X119692997Y-82767310D02*
G01*
X119209540Y-83164072D01*
X119110110Y-83285228D01*
X112095229Y-90300110D01*
X111974074Y-90399539D01*
X111577311Y-90882996D01*
X111282490Y-91434567D01*
X111100940Y-92033057D01*
X111062375Y-92424615D01*
X111039638Y-92655466D01*
X111055000Y-92811436D01*
X111055000Y-94375972D01*
X111100940Y-94842408D01*
X111282490Y-95440898D01*
X111577311Y-95992469D01*
X111974073Y-96475927D01*
X112457530Y-96872689D01*
X113009101Y-97167510D01*
X113607591Y-97349060D01*
X113899362Y-97377797D01*
X113835616Y-97546010D01*
X114830000Y-98540395D01*
X114844143Y-98526253D01*
X115023748Y-98705858D01*
X115009605Y-98720000D01*
X115023748Y-98734142D01*
X114844143Y-98913748D01*
X114830000Y-98899605D01*
X114815858Y-98913748D01*
X114636252Y-98734142D01*
X114650395Y-98720000D01*
X113656010Y-97725616D01*
X113386078Y-97827910D01*
X113239785Y-98126746D01*
X113154602Y-98448380D01*
X113133805Y-98780453D01*
X113178191Y-99110203D01*
X113281161Y-99410678D01*
X113147917Y-99397555D01*
X112525508Y-99458857D01*
X111927018Y-99640407D01*
X111375448Y-99935228D01*
X111013143Y-100232564D01*
X110575572Y-100670135D01*
X110140263Y-100670135D01*
X107345362Y-97875235D01*
X107245928Y-97754074D01*
X106762471Y-97357312D01*
X106210900Y-97062491D01*
X106190922Y-97056431D01*
X106198918Y-97044463D01*
X106322168Y-96746912D01*
X106385000Y-96431033D01*
X106385000Y-96108967D01*
X106322168Y-95793088D01*
X106198918Y-95495537D01*
X106019987Y-95227748D01*
X105792252Y-95000013D01*
X105524463Y-94821082D01*
X105226912Y-94697832D01*
X104911033Y-94635000D01*
X104588967Y-94635000D01*
X104273088Y-94697832D01*
X103975537Y-94821082D01*
X103707748Y-95000013D01*
X103480013Y-95227748D01*
X103301082Y-95495537D01*
X103177832Y-95793088D01*
X103115000Y-96108967D01*
X103115000Y-96431033D01*
X103177832Y-96746912D01*
X103301082Y-97044463D01*
X103369964Y-97147552D01*
X102977530Y-97357312D01*
X102494073Y-97754074D01*
X102097311Y-98237531D01*
X101802490Y-98789102D01*
X101620940Y-99387592D01*
X101559638Y-100010001D01*
X101620940Y-100632410D01*
X101802490Y-101230900D01*
X102097311Y-101782471D01*
X102494073Y-102265928D01*
X102977530Y-102662690D01*
X103353550Y-102863677D01*
X106469778Y-105979906D01*
X106569208Y-106101062D01*
X106936439Y-106402440D01*
X107052665Y-106497824D01*
X107604236Y-106792645D01*
X108202726Y-106974195D01*
X108715699Y-107024718D01*
X108715699Y-107038895D01*
X108700337Y-107194865D01*
X108715699Y-107350835D01*
X108715699Y-107350837D01*
X108761639Y-107817273D01*
X108943189Y-108415763D01*
X109238010Y-108967334D01*
X109634772Y-109450792D01*
X109755933Y-109550226D01*
X112050477Y-111844771D01*
X112149907Y-111965927D01*
X112633364Y-112362689D01*
X113184935Y-112657510D01*
X113783425Y-112839060D01*
X114249861Y-112885000D01*
X114249863Y-112885000D01*
X114405833Y-112900362D01*
X114561803Y-112885000D01*
X117641334Y-112885000D01*
X117885546Y-112959081D01*
X118351982Y-113005021D01*
X118351984Y-113005021D01*
X118507954Y-113020383D01*
X118663924Y-113005021D01*
X139604009Y-113005021D01*
X139759979Y-113020383D01*
X139915949Y-113005021D01*
X139915952Y-113005021D01*
X140382388Y-112959081D01*
X140980878Y-112777531D01*
X141532449Y-112482710D01*
X142015906Y-112085948D01*
X142115340Y-111964787D01*
X142235353Y-111844774D01*
X142532688Y-111482470D01*
X142827510Y-110930898D01*
X143009059Y-110332409D01*
X143070362Y-109710001D01*
X143009789Y-109095000D01*
X143276260Y-109095000D01*
X143563158Y-109037932D01*
X143833411Y-108925990D01*
X144076632Y-108763475D01*
X144283475Y-108556632D01*
X144445990Y-108313411D01*
X144557932Y-108043158D01*
X144615000Y-107756260D01*
X144615000Y-107463740D01*
X144557932Y-107176842D01*
X144445990Y-106906589D01*
X144283475Y-106663368D01*
X144076632Y-106456525D01*
X143833411Y-106294010D01*
X143563158Y-106182068D01*
X143276260Y-106125000D01*
X142983740Y-106125000D01*
X142696842Y-106182068D01*
X142426589Y-106294010D01*
X142183368Y-106456525D01*
X141976525Y-106663368D01*
X141814010Y-106906589D01*
X141726435Y-107118014D01*
X141652469Y-107057312D01*
X141100898Y-106762490D01*
X140502408Y-106580941D01*
X140041639Y-106535558D01*
X142261510Y-104315688D01*
X142426589Y-104425990D01*
X142696842Y-104537932D01*
X142983740Y-104595000D01*
X143276260Y-104595000D01*
X143563158Y-104537932D01*
X143833411Y-104425990D01*
X144076632Y-104263475D01*
X144283475Y-104056632D01*
X144445990Y-103813411D01*
X144557932Y-103543158D01*
X144615000Y-103256260D01*
X144615000Y-102963740D01*
X144557932Y-102676842D01*
X144445990Y-102406589D01*
X144283475Y-102163368D01*
X144076632Y-101956525D01*
X143833411Y-101794010D01*
X143563158Y-101682068D01*
X143276260Y-101625000D01*
X143233650Y-101625000D01*
X143314692Y-101526250D01*
X143432689Y-101382471D01*
X143727510Y-100830899D01*
X143732197Y-100815447D01*
X143909060Y-100232409D01*
X143955000Y-99765973D01*
X143955000Y-99765971D01*
X143970362Y-99610001D01*
X143955000Y-99454031D01*
X143955000Y-97655000D01*
X148963000Y-97655000D01*
X148963000Y-111752000D01*
X148965440Y-111776776D01*
X148972667Y-111800601D01*
X148984403Y-111822557D01*
X149000197Y-111841803D01*
X149019443Y-111857597D01*
X149041399Y-111869333D01*
X149065224Y-111876560D01*
X149090000Y-111879000D01*
X161536000Y-111879000D01*
X161560776Y-111876560D01*
X161584601Y-111869333D01*
X161606557Y-111857597D01*
X161625803Y-111841803D01*
X161641597Y-111822557D01*
X161653333Y-111800601D01*
X161660560Y-111776776D01*
X161663000Y-111752000D01*
X161663000Y-110686100D01*
X164391328Y-110686100D01*
X164391328Y-112386100D01*
X164403588Y-112510582D01*
X164439898Y-112630280D01*
X164498863Y-112740594D01*
X164578215Y-112837285D01*
X164674906Y-112916637D01*
X164785220Y-112975602D01*
X164904918Y-113011912D01*
X165029400Y-113024172D01*
X166729400Y-113024172D01*
X166853882Y-113011912D01*
X166973580Y-112975602D01*
X167083894Y-112916637D01*
X167180585Y-112837285D01*
X167259937Y-112740594D01*
X167318902Y-112630280D01*
X167355212Y-112510582D01*
X167367472Y-112386100D01*
X167367472Y-110686100D01*
X167355212Y-110561618D01*
X167318902Y-110441920D01*
X167259937Y-110331606D01*
X167180585Y-110234915D01*
X167083894Y-110155563D01*
X166973580Y-110096598D01*
X166892934Y-110072134D01*
X166976988Y-109996369D01*
X167151041Y-109763020D01*
X167276225Y-109500199D01*
X167320876Y-109352990D01*
X167199555Y-109123100D01*
X166006400Y-109123100D01*
X166006400Y-109143100D01*
X165752400Y-109143100D01*
X165752400Y-109123100D01*
X164559245Y-109123100D01*
X164437924Y-109352990D01*
X164482575Y-109500199D01*
X164607759Y-109763020D01*
X164781812Y-109996369D01*
X164865866Y-110072134D01*
X164785220Y-110096598D01*
X164674906Y-110155563D01*
X164578215Y-110234915D01*
X164498863Y-110331606D01*
X164439898Y-110441920D01*
X164403588Y-110561618D01*
X164391328Y-110686100D01*
X161663000Y-110686100D01*
X161663000Y-108639210D01*
X164437924Y-108639210D01*
X164559245Y-108869100D01*
X165752400Y-108869100D01*
X165752400Y-107675286D01*
X166006400Y-107675286D01*
X166006400Y-108869100D01*
X167199555Y-108869100D01*
X167320876Y-108639210D01*
X167276225Y-108492001D01*
X167151041Y-108229180D01*
X166976988Y-107995831D01*
X166760755Y-107800922D01*
X166510652Y-107651943D01*
X166236291Y-107554619D01*
X166006400Y-107675286D01*
X165752400Y-107675286D01*
X165522509Y-107554619D01*
X165248148Y-107651943D01*
X164998045Y-107800922D01*
X164781812Y-107995831D01*
X164607759Y-108229180D01*
X164482575Y-108492001D01*
X164437924Y-108639210D01*
X161663000Y-108639210D01*
X161663000Y-97655000D01*
X161660560Y-97630224D01*
X161653333Y-97606399D01*
X161641597Y-97584443D01*
X161625803Y-97565197D01*
X161606557Y-97549403D01*
X161584601Y-97537667D01*
X161560776Y-97530440D01*
X161536000Y-97528000D01*
X149090000Y-97528000D01*
X149065224Y-97530440D01*
X149041399Y-97537667D01*
X149019443Y-97549403D01*
X149000197Y-97565197D01*
X148984403Y-97584443D01*
X148972667Y-97606399D01*
X148965440Y-97630224D01*
X148963000Y-97655000D01*
X143955000Y-97655000D01*
X143955000Y-88912767D01*
X143970362Y-88756797D01*
X143954426Y-88594999D01*
X143909060Y-88134389D01*
X143727510Y-87535899D01*
X143432689Y-86984328D01*
X143035927Y-86500871D01*
X142914772Y-86401442D01*
X139798562Y-83285233D01*
X139699128Y-83164072D01*
X139215671Y-82767310D01*
X138668798Y-82475000D01*
X145918361Y-82475000D01*
X145842367Y-82537366D01*
X145810743Y-82575900D01*
X145180905Y-83205739D01*
X145142367Y-83237366D01*
X145016153Y-83391159D01*
X144922369Y-83566619D01*
X144922368Y-83566620D01*
X144864615Y-83757005D01*
X144845114Y-83954999D01*
X144850000Y-84004607D01*
X144850001Y-85782372D01*
X144825000Y-85908061D01*
X144825000Y-86111939D01*
X144864774Y-86311898D01*
X144942795Y-86500256D01*
X145056063Y-86669774D01*
X145200226Y-86813937D01*
X145369744Y-86927205D01*
X145558102Y-87005226D01*
X145758061Y-87045000D01*
X145961939Y-87045000D01*
X146161898Y-87005226D01*
X146350256Y-86927205D01*
X146519774Y-86813937D01*
X146663937Y-86669774D01*
X146777205Y-86500256D01*
X146855226Y-86311898D01*
X146895000Y-86111939D01*
X146895000Y-85908061D01*
X146870000Y-85782377D01*
X146870000Y-84373354D01*
X146978356Y-84264999D01*
X158526549Y-84264999D01*
X158515000Y-84323061D01*
X158515000Y-84400773D01*
X158444454Y-84532753D01*
X158400997Y-84676014D01*
X158386323Y-84825000D01*
X158400997Y-84973986D01*
X158444454Y-85117247D01*
X158515026Y-85249276D01*
X158609999Y-85365001D01*
X158725724Y-85459974D01*
X158857753Y-85530546D01*
X159001014Y-85574003D01*
X159112667Y-85585000D01*
X159112678Y-85585000D01*
X159150000Y-85588676D01*
X159187322Y-85585000D01*
X160260199Y-85585000D01*
X164115001Y-89439803D01*
X164115000Y-91080198D01*
X163528199Y-91667000D01*
X163466061Y-91667000D01*
X163266102Y-91706774D01*
X163077744Y-91784795D01*
X162908226Y-91898063D01*
X162764063Y-92042226D01*
X162650795Y-92211744D01*
X162572774Y-92400102D01*
X162533000Y-92600061D01*
X162533000Y-92803939D01*
X162572774Y-93003898D01*
X162650795Y-93192256D01*
X162764063Y-93361774D01*
X162908226Y-93505937D01*
X163077744Y-93619205D01*
X163266102Y-93697226D01*
X163466061Y-93737000D01*
X163669939Y-93737000D01*
X163869898Y-93697226D01*
X164058256Y-93619205D01*
X164227774Y-93505937D01*
X164371937Y-93361774D01*
X164485205Y-93192256D01*
X164563226Y-93003898D01*
X164603000Y-92803939D01*
X164603000Y-92741801D01*
X165386004Y-91958798D01*
X165415001Y-91935001D01*
X165445315Y-91898063D01*
X165509974Y-91819277D01*
X165580546Y-91687247D01*
X165603978Y-91610001D01*
X165624003Y-91543986D01*
X165635000Y-91432333D01*
X165635000Y-91432324D01*
X165638676Y-91395001D01*
X165635000Y-91357678D01*
X165635000Y-89162322D01*
X165638676Y-89124999D01*
X165635000Y-89087676D01*
X165635000Y-89087667D01*
X165624003Y-88976014D01*
X165584261Y-88845000D01*
X167416645Y-88845000D01*
X167611928Y-89040283D01*
X167611928Y-89693996D01*
X166208905Y-91097020D01*
X166136204Y-91156684D01*
X165898147Y-91446758D01*
X165721254Y-91777702D01*
X165612324Y-92136796D01*
X165591843Y-92344744D01*
X165575543Y-92510240D01*
X165584760Y-92603820D01*
X165584761Y-101396171D01*
X165575543Y-101489760D01*
X165612325Y-101863205D01*
X165721255Y-102222299D01*
X165898147Y-102553242D01*
X165956411Y-102624236D01*
X166136205Y-102843316D01*
X166208900Y-102902975D01*
X167611928Y-104306004D01*
X167611928Y-105750000D01*
X167624188Y-105874482D01*
X167660498Y-105994180D01*
X167719463Y-106104494D01*
X167798815Y-106201185D01*
X167895506Y-106280537D01*
X168005820Y-106339502D01*
X168125518Y-106375812D01*
X168250000Y-106388072D01*
X171750000Y-106388072D01*
X171874482Y-106375812D01*
X171994180Y-106339502D01*
X172104494Y-106280537D01*
X172201185Y-106201185D01*
X172280537Y-106104494D01*
X172339502Y-105994180D01*
X172375812Y-105874482D01*
X172388072Y-105750000D01*
X173861928Y-105750000D01*
X173874188Y-105874482D01*
X173910498Y-105994180D01*
X173969463Y-106104494D01*
X174048815Y-106201185D01*
X174145506Y-106280537D01*
X174255820Y-106339502D01*
X174375518Y-106375812D01*
X174500000Y-106388072D01*
X175714250Y-106385000D01*
X175873000Y-106226250D01*
X175873000Y-104127000D01*
X174023750Y-104127000D01*
X173865000Y-104285750D01*
X173861928Y-105750000D01*
X172388072Y-105750000D01*
X172388072Y-102250000D01*
X172375812Y-102125518D01*
X172339502Y-102005820D01*
X172280537Y-101895506D01*
X172201185Y-101798815D01*
X172104494Y-101719463D01*
X172042655Y-101686409D01*
X172714250Y-101685000D01*
X172873000Y-101526250D01*
X172873000Y-99427000D01*
X173127000Y-99427000D01*
X173127000Y-101526250D01*
X173285750Y-101685000D01*
X174206367Y-101686931D01*
X174145506Y-101719463D01*
X174048815Y-101798815D01*
X173969463Y-101895506D01*
X173910498Y-102005820D01*
X173874188Y-102125518D01*
X173861928Y-102250000D01*
X173865000Y-103714250D01*
X174023750Y-103873000D01*
X175873000Y-103873000D01*
X175873000Y-101773750D01*
X175714250Y-101615000D01*
X175043195Y-101613302D01*
X175104494Y-101580537D01*
X175201185Y-101501185D01*
X175280537Y-101404494D01*
X175339502Y-101294180D01*
X175375812Y-101174482D01*
X175388072Y-101050000D01*
X175385000Y-99585750D01*
X175226250Y-99427000D01*
X173127000Y-99427000D01*
X172873000Y-99427000D01*
X170773750Y-99427000D01*
X170615000Y-99585750D01*
X170611928Y-101050000D01*
X170624188Y-101174482D01*
X170660498Y-101294180D01*
X170719463Y-101404494D01*
X170798815Y-101501185D01*
X170895506Y-101580537D01*
X170954233Y-101611928D01*
X170306004Y-101611928D01*
X169394760Y-100700685D01*
X169394760Y-97550000D01*
X170611928Y-97550000D01*
X170615000Y-99014250D01*
X170773750Y-99173000D01*
X172873000Y-99173000D01*
X172873000Y-97073750D01*
X173127000Y-97073750D01*
X173127000Y-99173000D01*
X175226250Y-99173000D01*
X175385000Y-99014250D01*
X175388072Y-97550000D01*
X175375812Y-97425518D01*
X175339502Y-97305820D01*
X175280537Y-97195506D01*
X175201185Y-97098815D01*
X175104494Y-97019463D01*
X174994180Y-96960498D01*
X174874482Y-96924188D01*
X174750000Y-96911928D01*
X173285750Y-96915000D01*
X173127000Y-97073750D01*
X172873000Y-97073750D01*
X172714250Y-96915000D01*
X171250000Y-96911928D01*
X171125518Y-96924188D01*
X171005820Y-96960498D01*
X170895506Y-97019463D01*
X170798815Y-97098815D01*
X170719463Y-97195506D01*
X170660498Y-97305820D01*
X170624188Y-97425518D01*
X170611928Y-97550000D01*
X169394760Y-97550000D01*
X169394760Y-93299315D01*
X170306004Y-92388072D01*
X171750000Y-92388072D01*
X171874482Y-92375812D01*
X171994180Y-92339502D01*
X172104494Y-92280537D01*
X172201185Y-92201185D01*
X172280537Y-92104494D01*
X172339502Y-91994180D01*
X172375812Y-91874482D01*
X172388072Y-91750000D01*
X173861928Y-91750000D01*
X173874188Y-91874482D01*
X173910498Y-91994180D01*
X173969463Y-92104494D01*
X174048815Y-92201185D01*
X174145506Y-92280537D01*
X174255820Y-92339502D01*
X174375518Y-92375812D01*
X174500000Y-92388072D01*
X175714250Y-92385000D01*
X175873000Y-92226250D01*
X175873000Y-90127000D01*
X174023750Y-90127000D01*
X173865000Y-90285750D01*
X173861928Y-91750000D01*
X172388072Y-91750000D01*
X172388072Y-88250000D01*
X172375812Y-88125518D01*
X172339502Y-88005820D01*
X172280537Y-87895506D01*
X172201185Y-87798815D01*
X172104494Y-87719463D01*
X172042655Y-87686409D01*
X172714250Y-87685000D01*
X172873000Y-87526250D01*
X172873000Y-85427000D01*
X173127000Y-85427000D01*
X173127000Y-87526250D01*
X173285750Y-87685000D01*
X174206367Y-87686931D01*
X174145506Y-87719463D01*
X174048815Y-87798815D01*
X173969463Y-87895506D01*
X173910498Y-88005820D01*
X173874188Y-88125518D01*
X173861928Y-88250000D01*
X173865000Y-89714250D01*
X174023750Y-89873000D01*
X175873000Y-89873000D01*
X175873000Y-87773750D01*
X175714250Y-87615000D01*
X175043195Y-87613302D01*
X175104494Y-87580537D01*
X175201185Y-87501185D01*
X175280537Y-87404494D01*
X175339502Y-87294180D01*
X175375812Y-87174482D01*
X175388072Y-87050000D01*
X175385000Y-85585750D01*
X175226250Y-85427000D01*
X173127000Y-85427000D01*
X172873000Y-85427000D01*
X170773750Y-85427000D01*
X170615000Y-85585750D01*
X170611928Y-87050000D01*
X170624188Y-87174482D01*
X170660498Y-87294180D01*
X170719463Y-87404494D01*
X170798815Y-87501185D01*
X170895506Y-87580537D01*
X170954233Y-87611928D01*
X169040283Y-87611928D01*
X168584261Y-87155906D01*
X168552633Y-87117367D01*
X168398840Y-86991153D01*
X168223380Y-86897368D01*
X168032994Y-86839615D01*
X167884608Y-86825000D01*
X167835000Y-86820114D01*
X167785392Y-86825000D01*
X165215356Y-86825000D01*
X163140936Y-84750580D01*
X163393421Y-84645998D01*
X163636642Y-84483483D01*
X163843485Y-84276640D01*
X163960010Y-84102248D01*
X164076535Y-84276640D01*
X164283378Y-84483483D01*
X164526599Y-84645998D01*
X164796852Y-84757940D01*
X165083750Y-84815008D01*
X165376270Y-84815008D01*
X165663168Y-84757940D01*
X165933421Y-84645998D01*
X166176642Y-84483483D01*
X166308497Y-84351628D01*
X166330508Y-84424188D01*
X166389473Y-84534502D01*
X166468825Y-84631193D01*
X166565516Y-84710545D01*
X166675830Y-84769510D01*
X166795528Y-84805820D01*
X166920010Y-84818080D01*
X168620010Y-84818080D01*
X168744492Y-84805820D01*
X168864190Y-84769510D01*
X168974504Y-84710545D01*
X169071195Y-84631193D01*
X169150547Y-84534502D01*
X169209512Y-84424188D01*
X169245822Y-84304490D01*
X169258082Y-84180008D01*
X169258082Y-83550000D01*
X170611928Y-83550000D01*
X170615000Y-85014250D01*
X170773750Y-85173000D01*
X172873000Y-85173000D01*
X172873000Y-83073750D01*
X173127000Y-83073750D01*
X173127000Y-85173000D01*
X175226250Y-85173000D01*
X175385000Y-85014250D01*
X175388072Y-83550000D01*
X175375812Y-83425518D01*
X175339502Y-83305820D01*
X175280537Y-83195506D01*
X175201185Y-83098815D01*
X175104494Y-83019463D01*
X174994180Y-82960498D01*
X174874482Y-82924188D01*
X174750000Y-82911928D01*
X173285750Y-82915000D01*
X173127000Y-83073750D01*
X172873000Y-83073750D01*
X172714250Y-82915000D01*
X171250000Y-82911928D01*
X171125518Y-82924188D01*
X171005820Y-82960498D01*
X170895506Y-83019463D01*
X170798815Y-83098815D01*
X170719463Y-83195506D01*
X170660498Y-83305820D01*
X170624188Y-83425518D01*
X170611928Y-83550000D01*
X169258082Y-83550000D01*
X169258082Y-82480008D01*
X169257589Y-82475000D01*
X175946722Y-82475000D01*
X175910562Y-82656790D01*
X175910562Y-82883210D01*
X175954734Y-83105279D01*
X176041381Y-83314463D01*
X176167173Y-83502724D01*
X176327276Y-83662827D01*
X176515537Y-83788619D01*
X176724721Y-83875266D01*
X176946790Y-83919438D01*
X177173210Y-83919438D01*
X177395279Y-83875266D01*
X177486000Y-83837688D01*
X177486000Y-87611963D01*
X176285750Y-87615000D01*
X176127000Y-87773750D01*
X176127000Y-89873000D01*
X176147000Y-89873000D01*
X176147000Y-90127000D01*
X176127000Y-90127000D01*
X176127000Y-92226250D01*
X176285750Y-92385000D01*
X177486000Y-92388037D01*
X177486001Y-101611963D01*
X176285750Y-101615000D01*
X176127000Y-101773750D01*
X176127000Y-103873000D01*
X176147000Y-103873000D01*
X176147000Y-104127000D01*
X176127000Y-104127000D01*
X176127000Y-106226250D01*
X176285750Y-106385000D01*
X177486001Y-106388037D01*
X177486001Y-113835000D01*
X175242490Y-113835000D01*
X175354463Y-113788619D01*
X175542724Y-113662827D01*
X175702827Y-113502724D01*
X175828619Y-113314463D01*
X175915266Y-113105279D01*
X175959438Y-112883210D01*
X175959438Y-112656790D01*
X175915266Y-112434721D01*
X175828619Y-112225537D01*
X175702827Y-112037276D01*
X175542724Y-111877173D01*
X175354463Y-111751381D01*
X175145279Y-111664734D01*
X174923210Y-111620562D01*
X174696790Y-111620562D01*
X174474721Y-111664734D01*
X174265537Y-111751381D01*
X174077276Y-111877173D01*
X173917173Y-112037276D01*
X173791381Y-112225537D01*
X173704734Y-112434721D01*
X173660562Y-112656790D01*
X173660562Y-112883210D01*
X173704734Y-113105279D01*
X173791381Y-113314463D01*
X173917173Y-113502724D01*
X174077276Y-113662827D01*
X174265537Y-113788619D01*
X174377510Y-113835000D01*
X101242490Y-113835000D01*
X101354463Y-113788619D01*
X101542724Y-113662827D01*
X101702827Y-113502724D01*
X101828619Y-113314463D01*
X101915266Y-113105279D01*
X101959438Y-112883210D01*
X101959438Y-112656790D01*
X101915266Y-112434721D01*
X101828619Y-112225537D01*
X101702827Y-112037276D01*
X101542724Y-111877173D01*
X101354463Y-111751381D01*
X101145279Y-111664734D01*
X100923210Y-111620562D01*
X100696790Y-111620562D01*
X100474721Y-111664734D01*
X100265537Y-111751381D01*
X100077276Y-111877173D01*
X99917173Y-112037276D01*
X99791381Y-112225537D01*
X99704734Y-112434721D01*
X99660562Y-112656790D01*
X99660562Y-112883210D01*
X99704734Y-113105279D01*
X99791381Y-113314463D01*
X99917173Y-113502724D01*
X100077276Y-113662827D01*
X100265537Y-113788619D01*
X100377510Y-113835000D01*
X99185000Y-113835000D01*
X99185000Y-92013740D01*
X102455000Y-92013740D01*
X102455000Y-92306260D01*
X102512068Y-92593158D01*
X102624010Y-92863411D01*
X102786525Y-93106632D01*
X102993368Y-93313475D01*
X103236589Y-93475990D01*
X103506842Y-93587932D01*
X103793740Y-93645000D01*
X104086260Y-93645000D01*
X104373158Y-93587932D01*
X104643411Y-93475990D01*
X104886632Y-93313475D01*
X105018487Y-93181620D01*
X105040498Y-93254180D01*
X105099463Y-93364494D01*
X105178815Y-93461185D01*
X105275506Y-93540537D01*
X105385820Y-93599502D01*
X105505518Y-93635812D01*
X105630000Y-93648072D01*
X107330000Y-93648072D01*
X107454482Y-93635812D01*
X107574180Y-93599502D01*
X107684494Y-93540537D01*
X107781185Y-93461185D01*
X107860537Y-93364494D01*
X107919502Y-93254180D01*
X107955812Y-93134482D01*
X107968072Y-93010000D01*
X107968072Y-91310000D01*
X107955812Y-91185518D01*
X107919502Y-91065820D01*
X107860537Y-90955506D01*
X107781185Y-90858815D01*
X107684494Y-90779463D01*
X107574180Y-90720498D01*
X107454482Y-90684188D01*
X107330000Y-90671928D01*
X105630000Y-90671928D01*
X105505518Y-90684188D01*
X105385820Y-90720498D01*
X105275506Y-90779463D01*
X105178815Y-90858815D01*
X105099463Y-90955506D01*
X105040498Y-91065820D01*
X105018487Y-91138380D01*
X104886632Y-91006525D01*
X104643411Y-90844010D01*
X104373158Y-90732068D01*
X104086260Y-90675000D01*
X103793740Y-90675000D01*
X103506842Y-90732068D01*
X103236589Y-90844010D01*
X102993368Y-91006525D01*
X102786525Y-91213368D01*
X102624010Y-91456589D01*
X102512068Y-91726842D01*
X102455000Y-92013740D01*
X99185000Y-92013740D01*
X99185000Y-89145039D01*
X99300892Y-89222475D01*
X99496493Y-89303496D01*
X99704141Y-89344800D01*
X99915859Y-89344800D01*
X100123507Y-89303496D01*
X100319108Y-89222475D01*
X100495145Y-89104851D01*
X100644851Y-88955145D01*
X100762475Y-88779108D01*
X100843496Y-88583507D01*
X100884800Y-88375859D01*
X100884800Y-88164141D01*
X100843496Y-87956493D01*
X100762475Y-87760892D01*
X100644851Y-87584855D01*
X100597589Y-87537593D01*
X100664177Y-87471005D01*
X100784523Y-87290893D01*
X100867419Y-87090765D01*
X100909679Y-86878309D01*
X100909679Y-86661691D01*
X100867419Y-86449235D01*
X100784523Y-86249107D01*
X100664177Y-86068995D01*
X100632774Y-86037592D01*
X100683502Y-85986864D01*
X100806571Y-85802678D01*
X100891343Y-85598022D01*
X100934559Y-85380759D01*
X100934559Y-85159241D01*
X100891343Y-84941978D01*
X100806571Y-84737322D01*
X100683502Y-84553136D01*
X100667959Y-84537593D01*
X100702827Y-84502724D01*
X100828619Y-84314463D01*
X100915266Y-84105279D01*
X100959438Y-83883210D01*
X100959438Y-83656790D01*
X100915266Y-83434721D01*
X100828619Y-83225537D01*
X100702827Y-83037276D01*
X100542724Y-82877173D01*
X100354463Y-82751381D01*
X100145279Y-82664734D01*
X99923210Y-82620562D01*
X99696790Y-82620562D01*
X99474721Y-82664734D01*
X99265537Y-82751381D01*
X99185000Y-82805194D01*
X99185000Y-82475000D01*
X120239870Y-82475000D01*
X119692997Y-82767310D01*
G37*
X119692997Y-82767310D02*
X119209540Y-83164072D01*
X119110110Y-83285228D01*
X112095229Y-90300110D01*
X111974074Y-90399539D01*
X111577311Y-90882996D01*
X111282490Y-91434567D01*
X111100940Y-92033057D01*
X111062375Y-92424615D01*
X111039638Y-92655466D01*
X111055000Y-92811436D01*
X111055000Y-94375972D01*
X111100940Y-94842408D01*
X111282490Y-95440898D01*
X111577311Y-95992469D01*
X111974073Y-96475927D01*
X112457530Y-96872689D01*
X113009101Y-97167510D01*
X113607591Y-97349060D01*
X113899362Y-97377797D01*
X113835616Y-97546010D01*
X114830000Y-98540395D01*
X114844143Y-98526253D01*
X115023748Y-98705858D01*
X115009605Y-98720000D01*
X115023748Y-98734142D01*
X114844143Y-98913748D01*
X114830000Y-98899605D01*
X114815858Y-98913748D01*
X114636252Y-98734142D01*
X114650395Y-98720000D01*
X113656010Y-97725616D01*
X113386078Y-97827910D01*
X113239785Y-98126746D01*
X113154602Y-98448380D01*
X113133805Y-98780453D01*
X113178191Y-99110203D01*
X113281161Y-99410678D01*
X113147917Y-99397555D01*
X112525508Y-99458857D01*
X111927018Y-99640407D01*
X111375448Y-99935228D01*
X111013143Y-100232564D01*
X110575572Y-100670135D01*
X110140263Y-100670135D01*
X107345362Y-97875235D01*
X107245928Y-97754074D01*
X106762471Y-97357312D01*
X106210900Y-97062491D01*
X106190922Y-97056431D01*
X106198918Y-97044463D01*
X106322168Y-96746912D01*
X106385000Y-96431033D01*
X106385000Y-96108967D01*
X106322168Y-95793088D01*
X106198918Y-95495537D01*
X106019987Y-95227748D01*
X105792252Y-95000013D01*
X105524463Y-94821082D01*
X105226912Y-94697832D01*
X104911033Y-94635000D01*
X104588967Y-94635000D01*
X104273088Y-94697832D01*
X103975537Y-94821082D01*
X103707748Y-95000013D01*
X103480013Y-95227748D01*
X103301082Y-95495537D01*
X103177832Y-95793088D01*
X103115000Y-96108967D01*
X103115000Y-96431033D01*
X103177832Y-96746912D01*
X103301082Y-97044463D01*
X103369964Y-97147552D01*
X102977530Y-97357312D01*
X102494073Y-97754074D01*
X102097311Y-98237531D01*
X101802490Y-98789102D01*
X101620940Y-99387592D01*
X101559638Y-100010001D01*
X101620940Y-100632410D01*
X101802490Y-101230900D01*
X102097311Y-101782471D01*
X102494073Y-102265928D01*
X102977530Y-102662690D01*
X103353550Y-102863677D01*
X106469778Y-105979906D01*
X106569208Y-106101062D01*
X106936439Y-106402440D01*
X107052665Y-106497824D01*
X107604236Y-106792645D01*
X108202726Y-106974195D01*
X108715699Y-107024718D01*
X108715699Y-107038895D01*
X108700337Y-107194865D01*
X108715699Y-107350835D01*
X108715699Y-107350837D01*
X108761639Y-107817273D01*
X108943189Y-108415763D01*
X109238010Y-108967334D01*
X109634772Y-109450792D01*
X109755933Y-109550226D01*
X112050477Y-111844771D01*
X112149907Y-111965927D01*
X112633364Y-112362689D01*
X113184935Y-112657510D01*
X113783425Y-112839060D01*
X114249861Y-112885000D01*
X114249863Y-112885000D01*
X114405833Y-112900362D01*
X114561803Y-112885000D01*
X117641334Y-112885000D01*
X117885546Y-112959081D01*
X118351982Y-113005021D01*
X118351984Y-113005021D01*
X118507954Y-113020383D01*
X118663924Y-113005021D01*
X139604009Y-113005021D01*
X139759979Y-113020383D01*
X139915949Y-113005021D01*
X139915952Y-113005021D01*
X140382388Y-112959081D01*
X140980878Y-112777531D01*
X141532449Y-112482710D01*
X142015906Y-112085948D01*
X142115340Y-111964787D01*
X142235353Y-111844774D01*
X142532688Y-111482470D01*
X142827510Y-110930898D01*
X143009059Y-110332409D01*
X143070362Y-109710001D01*
X143009789Y-109095000D01*
X143276260Y-109095000D01*
X143563158Y-109037932D01*
X143833411Y-108925990D01*
X144076632Y-108763475D01*
X144283475Y-108556632D01*
X144445990Y-108313411D01*
X144557932Y-108043158D01*
X144615000Y-107756260D01*
X144615000Y-107463740D01*
X144557932Y-107176842D01*
X144445990Y-106906589D01*
X144283475Y-106663368D01*
X144076632Y-106456525D01*
X143833411Y-106294010D01*
X143563158Y-106182068D01*
X143276260Y-106125000D01*
X142983740Y-106125000D01*
X142696842Y-106182068D01*
X142426589Y-106294010D01*
X142183368Y-106456525D01*
X141976525Y-106663368D01*
X141814010Y-106906589D01*
X141726435Y-107118014D01*
X141652469Y-107057312D01*
X141100898Y-106762490D01*
X140502408Y-106580941D01*
X140041639Y-106535558D01*
X142261510Y-104315688D01*
X142426589Y-104425990D01*
X142696842Y-104537932D01*
X142983740Y-104595000D01*
X143276260Y-104595000D01*
X143563158Y-104537932D01*
X143833411Y-104425990D01*
X144076632Y-104263475D01*
X144283475Y-104056632D01*
X144445990Y-103813411D01*
X144557932Y-103543158D01*
X144615000Y-103256260D01*
X144615000Y-102963740D01*
X144557932Y-102676842D01*
X144445990Y-102406589D01*
X144283475Y-102163368D01*
X144076632Y-101956525D01*
X143833411Y-101794010D01*
X143563158Y-101682068D01*
X143276260Y-101625000D01*
X143233650Y-101625000D01*
X143314692Y-101526250D01*
X143432689Y-101382471D01*
X143727510Y-100830899D01*
X143732197Y-100815447D01*
X143909060Y-100232409D01*
X143955000Y-99765973D01*
X143955000Y-99765971D01*
X143970362Y-99610001D01*
X143955000Y-99454031D01*
X143955000Y-97655000D01*
X148963000Y-97655000D01*
X148963000Y-111752000D01*
X148965440Y-111776776D01*
X148972667Y-111800601D01*
X148984403Y-111822557D01*
X149000197Y-111841803D01*
X149019443Y-111857597D01*
X149041399Y-111869333D01*
X149065224Y-111876560D01*
X149090000Y-111879000D01*
X161536000Y-111879000D01*
X161560776Y-111876560D01*
X161584601Y-111869333D01*
X161606557Y-111857597D01*
X161625803Y-111841803D01*
X161641597Y-111822557D01*
X161653333Y-111800601D01*
X161660560Y-111776776D01*
X161663000Y-111752000D01*
X161663000Y-110686100D01*
X164391328Y-110686100D01*
X164391328Y-112386100D01*
X164403588Y-112510582D01*
X164439898Y-112630280D01*
X164498863Y-112740594D01*
X164578215Y-112837285D01*
X164674906Y-112916637D01*
X164785220Y-112975602D01*
X164904918Y-113011912D01*
X165029400Y-113024172D01*
X166729400Y-113024172D01*
X166853882Y-113011912D01*
X166973580Y-112975602D01*
X167083894Y-112916637D01*
X167180585Y-112837285D01*
X167259937Y-112740594D01*
X167318902Y-112630280D01*
X167355212Y-112510582D01*
X167367472Y-112386100D01*
X167367472Y-110686100D01*
X167355212Y-110561618D01*
X167318902Y-110441920D01*
X167259937Y-110331606D01*
X167180585Y-110234915D01*
X167083894Y-110155563D01*
X166973580Y-110096598D01*
X166892934Y-110072134D01*
X166976988Y-109996369D01*
X167151041Y-109763020D01*
X167276225Y-109500199D01*
X167320876Y-109352990D01*
X167199555Y-109123100D01*
X166006400Y-109123100D01*
X166006400Y-109143100D01*
X165752400Y-109143100D01*
X165752400Y-109123100D01*
X164559245Y-109123100D01*
X164437924Y-109352990D01*
X164482575Y-109500199D01*
X164607759Y-109763020D01*
X164781812Y-109996369D01*
X164865866Y-110072134D01*
X164785220Y-110096598D01*
X164674906Y-110155563D01*
X164578215Y-110234915D01*
X164498863Y-110331606D01*
X164439898Y-110441920D01*
X164403588Y-110561618D01*
X164391328Y-110686100D01*
X161663000Y-110686100D01*
X161663000Y-108639210D01*
X164437924Y-108639210D01*
X164559245Y-108869100D01*
X165752400Y-108869100D01*
X165752400Y-107675286D01*
X166006400Y-107675286D01*
X166006400Y-108869100D01*
X167199555Y-108869100D01*
X167320876Y-108639210D01*
X167276225Y-108492001D01*
X167151041Y-108229180D01*
X166976988Y-107995831D01*
X166760755Y-107800922D01*
X166510652Y-107651943D01*
X166236291Y-107554619D01*
X166006400Y-107675286D01*
X165752400Y-107675286D01*
X165522509Y-107554619D01*
X165248148Y-107651943D01*
X164998045Y-107800922D01*
X164781812Y-107995831D01*
X164607759Y-108229180D01*
X164482575Y-108492001D01*
X164437924Y-108639210D01*
X161663000Y-108639210D01*
X161663000Y-97655000D01*
X161660560Y-97630224D01*
X161653333Y-97606399D01*
X161641597Y-97584443D01*
X161625803Y-97565197D01*
X161606557Y-97549403D01*
X161584601Y-97537667D01*
X161560776Y-97530440D01*
X161536000Y-97528000D01*
X149090000Y-97528000D01*
X149065224Y-97530440D01*
X149041399Y-97537667D01*
X149019443Y-97549403D01*
X149000197Y-97565197D01*
X148984403Y-97584443D01*
X148972667Y-97606399D01*
X148965440Y-97630224D01*
X148963000Y-97655000D01*
X143955000Y-97655000D01*
X143955000Y-88912767D01*
X143970362Y-88756797D01*
X143954426Y-88594999D01*
X143909060Y-88134389D01*
X143727510Y-87535899D01*
X143432689Y-86984328D01*
X143035927Y-86500871D01*
X142914772Y-86401442D01*
X139798562Y-83285233D01*
X139699128Y-83164072D01*
X139215671Y-82767310D01*
X138668798Y-82475000D01*
X145918361Y-82475000D01*
X145842367Y-82537366D01*
X145810743Y-82575900D01*
X145180905Y-83205739D01*
X145142367Y-83237366D01*
X145016153Y-83391159D01*
X144922369Y-83566619D01*
X144922368Y-83566620D01*
X144864615Y-83757005D01*
X144845114Y-83954999D01*
X144850000Y-84004607D01*
X144850001Y-85782372D01*
X144825000Y-85908061D01*
X144825000Y-86111939D01*
X144864774Y-86311898D01*
X144942795Y-86500256D01*
X145056063Y-86669774D01*
X145200226Y-86813937D01*
X145369744Y-86927205D01*
X145558102Y-87005226D01*
X145758061Y-87045000D01*
X145961939Y-87045000D01*
X146161898Y-87005226D01*
X146350256Y-86927205D01*
X146519774Y-86813937D01*
X146663937Y-86669774D01*
X146777205Y-86500256D01*
X146855226Y-86311898D01*
X146895000Y-86111939D01*
X146895000Y-85908061D01*
X146870000Y-85782377D01*
X146870000Y-84373354D01*
X146978356Y-84264999D01*
X158526549Y-84264999D01*
X158515000Y-84323061D01*
X158515000Y-84400773D01*
X158444454Y-84532753D01*
X158400997Y-84676014D01*
X158386323Y-84825000D01*
X158400997Y-84973986D01*
X158444454Y-85117247D01*
X158515026Y-85249276D01*
X158609999Y-85365001D01*
X158725724Y-85459974D01*
X158857753Y-85530546D01*
X159001014Y-85574003D01*
X159112667Y-85585000D01*
X159112678Y-85585000D01*
X159150000Y-85588676D01*
X159187322Y-85585000D01*
X160260199Y-85585000D01*
X164115001Y-89439803D01*
X164115000Y-91080198D01*
X163528199Y-91667000D01*
X163466061Y-91667000D01*
X163266102Y-91706774D01*
X163077744Y-91784795D01*
X162908226Y-91898063D01*
X162764063Y-92042226D01*
X162650795Y-92211744D01*
X162572774Y-92400102D01*
X162533000Y-92600061D01*
X162533000Y-92803939D01*
X162572774Y-93003898D01*
X162650795Y-93192256D01*
X162764063Y-93361774D01*
X162908226Y-93505937D01*
X163077744Y-93619205D01*
X163266102Y-93697226D01*
X163466061Y-93737000D01*
X163669939Y-93737000D01*
X163869898Y-93697226D01*
X164058256Y-93619205D01*
X164227774Y-93505937D01*
X164371937Y-93361774D01*
X164485205Y-93192256D01*
X164563226Y-93003898D01*
X164603000Y-92803939D01*
X164603000Y-92741801D01*
X165386004Y-91958798D01*
X165415001Y-91935001D01*
X165445315Y-91898063D01*
X165509974Y-91819277D01*
X165580546Y-91687247D01*
X165603978Y-91610001D01*
X165624003Y-91543986D01*
X165635000Y-91432333D01*
X165635000Y-91432324D01*
X165638676Y-91395001D01*
X165635000Y-91357678D01*
X165635000Y-89162322D01*
X165638676Y-89124999D01*
X165635000Y-89087676D01*
X165635000Y-89087667D01*
X165624003Y-88976014D01*
X165584261Y-88845000D01*
X167416645Y-88845000D01*
X167611928Y-89040283D01*
X167611928Y-89693996D01*
X166208905Y-91097020D01*
X166136204Y-91156684D01*
X165898147Y-91446758D01*
X165721254Y-91777702D01*
X165612324Y-92136796D01*
X165591843Y-92344744D01*
X165575543Y-92510240D01*
X165584760Y-92603820D01*
X165584761Y-101396171D01*
X165575543Y-101489760D01*
X165612325Y-101863205D01*
X165721255Y-102222299D01*
X165898147Y-102553242D01*
X165956411Y-102624236D01*
X166136205Y-102843316D01*
X166208900Y-102902975D01*
X167611928Y-104306004D01*
X167611928Y-105750000D01*
X167624188Y-105874482D01*
X167660498Y-105994180D01*
X167719463Y-106104494D01*
X167798815Y-106201185D01*
X167895506Y-106280537D01*
X168005820Y-106339502D01*
X168125518Y-106375812D01*
X168250000Y-106388072D01*
X171750000Y-106388072D01*
X171874482Y-106375812D01*
X171994180Y-106339502D01*
X172104494Y-106280537D01*
X172201185Y-106201185D01*
X172280537Y-106104494D01*
X172339502Y-105994180D01*
X172375812Y-105874482D01*
X172388072Y-105750000D01*
X173861928Y-105750000D01*
X173874188Y-105874482D01*
X173910498Y-105994180D01*
X173969463Y-106104494D01*
X174048815Y-106201185D01*
X174145506Y-106280537D01*
X174255820Y-106339502D01*
X174375518Y-106375812D01*
X174500000Y-106388072D01*
X175714250Y-106385000D01*
X175873000Y-106226250D01*
X175873000Y-104127000D01*
X174023750Y-104127000D01*
X173865000Y-104285750D01*
X173861928Y-105750000D01*
X172388072Y-105750000D01*
X172388072Y-102250000D01*
X172375812Y-102125518D01*
X172339502Y-102005820D01*
X172280537Y-101895506D01*
X172201185Y-101798815D01*
X172104494Y-101719463D01*
X172042655Y-101686409D01*
X172714250Y-101685000D01*
X172873000Y-101526250D01*
X172873000Y-99427000D01*
X173127000Y-99427000D01*
X173127000Y-101526250D01*
X173285750Y-101685000D01*
X174206367Y-101686931D01*
X174145506Y-101719463D01*
X174048815Y-101798815D01*
X173969463Y-101895506D01*
X173910498Y-102005820D01*
X173874188Y-102125518D01*
X173861928Y-102250000D01*
X173865000Y-103714250D01*
X174023750Y-103873000D01*
X175873000Y-103873000D01*
X175873000Y-101773750D01*
X175714250Y-101615000D01*
X175043195Y-101613302D01*
X175104494Y-101580537D01*
X175201185Y-101501185D01*
X175280537Y-101404494D01*
X175339502Y-101294180D01*
X175375812Y-101174482D01*
X175388072Y-101050000D01*
X175385000Y-99585750D01*
X175226250Y-99427000D01*
X173127000Y-99427000D01*
X172873000Y-99427000D01*
X170773750Y-99427000D01*
X170615000Y-99585750D01*
X170611928Y-101050000D01*
X170624188Y-101174482D01*
X170660498Y-101294180D01*
X170719463Y-101404494D01*
X170798815Y-101501185D01*
X170895506Y-101580537D01*
X170954233Y-101611928D01*
X170306004Y-101611928D01*
X169394760Y-100700685D01*
X169394760Y-97550000D01*
X170611928Y-97550000D01*
X170615000Y-99014250D01*
X170773750Y-99173000D01*
X172873000Y-99173000D01*
X172873000Y-97073750D01*
X173127000Y-97073750D01*
X173127000Y-99173000D01*
X175226250Y-99173000D01*
X175385000Y-99014250D01*
X175388072Y-97550000D01*
X175375812Y-97425518D01*
X175339502Y-97305820D01*
X175280537Y-97195506D01*
X175201185Y-97098815D01*
X175104494Y-97019463D01*
X174994180Y-96960498D01*
X174874482Y-96924188D01*
X174750000Y-96911928D01*
X173285750Y-96915000D01*
X173127000Y-97073750D01*
X172873000Y-97073750D01*
X172714250Y-96915000D01*
X171250000Y-96911928D01*
X171125518Y-96924188D01*
X171005820Y-96960498D01*
X170895506Y-97019463D01*
X170798815Y-97098815D01*
X170719463Y-97195506D01*
X170660498Y-97305820D01*
X170624188Y-97425518D01*
X170611928Y-97550000D01*
X169394760Y-97550000D01*
X169394760Y-93299315D01*
X170306004Y-92388072D01*
X171750000Y-92388072D01*
X171874482Y-92375812D01*
X171994180Y-92339502D01*
X172104494Y-92280537D01*
X172201185Y-92201185D01*
X172280537Y-92104494D01*
X172339502Y-91994180D01*
X172375812Y-91874482D01*
X172388072Y-91750000D01*
X173861928Y-91750000D01*
X173874188Y-91874482D01*
X173910498Y-91994180D01*
X173969463Y-92104494D01*
X174048815Y-92201185D01*
X174145506Y-92280537D01*
X174255820Y-92339502D01*
X174375518Y-92375812D01*
X174500000Y-92388072D01*
X175714250Y-92385000D01*
X175873000Y-92226250D01*
X175873000Y-90127000D01*
X174023750Y-90127000D01*
X173865000Y-90285750D01*
X173861928Y-91750000D01*
X172388072Y-91750000D01*
X172388072Y-88250000D01*
X172375812Y-88125518D01*
X172339502Y-88005820D01*
X172280537Y-87895506D01*
X172201185Y-87798815D01*
X172104494Y-87719463D01*
X172042655Y-87686409D01*
X172714250Y-87685000D01*
X172873000Y-87526250D01*
X172873000Y-85427000D01*
X173127000Y-85427000D01*
X173127000Y-87526250D01*
X173285750Y-87685000D01*
X174206367Y-87686931D01*
X174145506Y-87719463D01*
X174048815Y-87798815D01*
X173969463Y-87895506D01*
X173910498Y-88005820D01*
X173874188Y-88125518D01*
X173861928Y-88250000D01*
X173865000Y-89714250D01*
X174023750Y-89873000D01*
X175873000Y-89873000D01*
X175873000Y-87773750D01*
X175714250Y-87615000D01*
X175043195Y-87613302D01*
X175104494Y-87580537D01*
X175201185Y-87501185D01*
X175280537Y-87404494D01*
X175339502Y-87294180D01*
X175375812Y-87174482D01*
X175388072Y-87050000D01*
X175385000Y-85585750D01*
X175226250Y-85427000D01*
X173127000Y-85427000D01*
X172873000Y-85427000D01*
X170773750Y-85427000D01*
X170615000Y-85585750D01*
X170611928Y-87050000D01*
X170624188Y-87174482D01*
X170660498Y-87294180D01*
X170719463Y-87404494D01*
X170798815Y-87501185D01*
X170895506Y-87580537D01*
X170954233Y-87611928D01*
X169040283Y-87611928D01*
X168584261Y-87155906D01*
X168552633Y-87117367D01*
X168398840Y-86991153D01*
X168223380Y-86897368D01*
X168032994Y-86839615D01*
X167884608Y-86825000D01*
X167835000Y-86820114D01*
X167785392Y-86825000D01*
X165215356Y-86825000D01*
X163140936Y-84750580D01*
X163393421Y-84645998D01*
X163636642Y-84483483D01*
X163843485Y-84276640D01*
X163960010Y-84102248D01*
X164076535Y-84276640D01*
X164283378Y-84483483D01*
X164526599Y-84645998D01*
X164796852Y-84757940D01*
X165083750Y-84815008D01*
X165376270Y-84815008D01*
X165663168Y-84757940D01*
X165933421Y-84645998D01*
X166176642Y-84483483D01*
X166308497Y-84351628D01*
X166330508Y-84424188D01*
X166389473Y-84534502D01*
X166468825Y-84631193D01*
X166565516Y-84710545D01*
X166675830Y-84769510D01*
X166795528Y-84805820D01*
X166920010Y-84818080D01*
X168620010Y-84818080D01*
X168744492Y-84805820D01*
X168864190Y-84769510D01*
X168974504Y-84710545D01*
X169071195Y-84631193D01*
X169150547Y-84534502D01*
X169209512Y-84424188D01*
X169245822Y-84304490D01*
X169258082Y-84180008D01*
X169258082Y-83550000D01*
X170611928Y-83550000D01*
X170615000Y-85014250D01*
X170773750Y-85173000D01*
X172873000Y-85173000D01*
X172873000Y-83073750D01*
X173127000Y-83073750D01*
X173127000Y-85173000D01*
X175226250Y-85173000D01*
X175385000Y-85014250D01*
X175388072Y-83550000D01*
X175375812Y-83425518D01*
X175339502Y-83305820D01*
X175280537Y-83195506D01*
X175201185Y-83098815D01*
X175104494Y-83019463D01*
X174994180Y-82960498D01*
X174874482Y-82924188D01*
X174750000Y-82911928D01*
X173285750Y-82915000D01*
X173127000Y-83073750D01*
X172873000Y-83073750D01*
X172714250Y-82915000D01*
X171250000Y-82911928D01*
X171125518Y-82924188D01*
X171005820Y-82960498D01*
X170895506Y-83019463D01*
X170798815Y-83098815D01*
X170719463Y-83195506D01*
X170660498Y-83305820D01*
X170624188Y-83425518D01*
X170611928Y-83550000D01*
X169258082Y-83550000D01*
X169258082Y-82480008D01*
X169257589Y-82475000D01*
X175946722Y-82475000D01*
X175910562Y-82656790D01*
X175910562Y-82883210D01*
X175954734Y-83105279D01*
X176041381Y-83314463D01*
X176167173Y-83502724D01*
X176327276Y-83662827D01*
X176515537Y-83788619D01*
X176724721Y-83875266D01*
X176946790Y-83919438D01*
X177173210Y-83919438D01*
X177395279Y-83875266D01*
X177486000Y-83837688D01*
X177486000Y-87611963D01*
X176285750Y-87615000D01*
X176127000Y-87773750D01*
X176127000Y-89873000D01*
X176147000Y-89873000D01*
X176147000Y-90127000D01*
X176127000Y-90127000D01*
X176127000Y-92226250D01*
X176285750Y-92385000D01*
X177486000Y-92388037D01*
X177486001Y-101611963D01*
X176285750Y-101615000D01*
X176127000Y-101773750D01*
X176127000Y-103873000D01*
X176147000Y-103873000D01*
X176147000Y-104127000D01*
X176127000Y-104127000D01*
X176127000Y-106226250D01*
X176285750Y-106385000D01*
X177486001Y-106388037D01*
X177486001Y-113835000D01*
X175242490Y-113835000D01*
X175354463Y-113788619D01*
X175542724Y-113662827D01*
X175702827Y-113502724D01*
X175828619Y-113314463D01*
X175915266Y-113105279D01*
X175959438Y-112883210D01*
X175959438Y-112656790D01*
X175915266Y-112434721D01*
X175828619Y-112225537D01*
X175702827Y-112037276D01*
X175542724Y-111877173D01*
X175354463Y-111751381D01*
X175145279Y-111664734D01*
X174923210Y-111620562D01*
X174696790Y-111620562D01*
X174474721Y-111664734D01*
X174265537Y-111751381D01*
X174077276Y-111877173D01*
X173917173Y-112037276D01*
X173791381Y-112225537D01*
X173704734Y-112434721D01*
X173660562Y-112656790D01*
X173660562Y-112883210D01*
X173704734Y-113105279D01*
X173791381Y-113314463D01*
X173917173Y-113502724D01*
X174077276Y-113662827D01*
X174265537Y-113788619D01*
X174377510Y-113835000D01*
X101242490Y-113835000D01*
X101354463Y-113788619D01*
X101542724Y-113662827D01*
X101702827Y-113502724D01*
X101828619Y-113314463D01*
X101915266Y-113105279D01*
X101959438Y-112883210D01*
X101959438Y-112656790D01*
X101915266Y-112434721D01*
X101828619Y-112225537D01*
X101702827Y-112037276D01*
X101542724Y-111877173D01*
X101354463Y-111751381D01*
X101145279Y-111664734D01*
X100923210Y-111620562D01*
X100696790Y-111620562D01*
X100474721Y-111664734D01*
X100265537Y-111751381D01*
X100077276Y-111877173D01*
X99917173Y-112037276D01*
X99791381Y-112225537D01*
X99704734Y-112434721D01*
X99660562Y-112656790D01*
X99660562Y-112883210D01*
X99704734Y-113105279D01*
X99791381Y-113314463D01*
X99917173Y-113502724D01*
X100077276Y-113662827D01*
X100265537Y-113788619D01*
X100377510Y-113835000D01*
X99185000Y-113835000D01*
X99185000Y-92013740D01*
X102455000Y-92013740D01*
X102455000Y-92306260D01*
X102512068Y-92593158D01*
X102624010Y-92863411D01*
X102786525Y-93106632D01*
X102993368Y-93313475D01*
X103236589Y-93475990D01*
X103506842Y-93587932D01*
X103793740Y-93645000D01*
X104086260Y-93645000D01*
X104373158Y-93587932D01*
X104643411Y-93475990D01*
X104886632Y-93313475D01*
X105018487Y-93181620D01*
X105040498Y-93254180D01*
X105099463Y-93364494D01*
X105178815Y-93461185D01*
X105275506Y-93540537D01*
X105385820Y-93599502D01*
X105505518Y-93635812D01*
X105630000Y-93648072D01*
X107330000Y-93648072D01*
X107454482Y-93635812D01*
X107574180Y-93599502D01*
X107684494Y-93540537D01*
X107781185Y-93461185D01*
X107860537Y-93364494D01*
X107919502Y-93254180D01*
X107955812Y-93134482D01*
X107968072Y-93010000D01*
X107968072Y-91310000D01*
X107955812Y-91185518D01*
X107919502Y-91065820D01*
X107860537Y-90955506D01*
X107781185Y-90858815D01*
X107684494Y-90779463D01*
X107574180Y-90720498D01*
X107454482Y-90684188D01*
X107330000Y-90671928D01*
X105630000Y-90671928D01*
X105505518Y-90684188D01*
X105385820Y-90720498D01*
X105275506Y-90779463D01*
X105178815Y-90858815D01*
X105099463Y-90955506D01*
X105040498Y-91065820D01*
X105018487Y-91138380D01*
X104886632Y-91006525D01*
X104643411Y-90844010D01*
X104373158Y-90732068D01*
X104086260Y-90675000D01*
X103793740Y-90675000D01*
X103506842Y-90732068D01*
X103236589Y-90844010D01*
X102993368Y-91006525D01*
X102786525Y-91213368D01*
X102624010Y-91456589D01*
X102512068Y-91726842D01*
X102455000Y-92013740D01*
X99185000Y-92013740D01*
X99185000Y-89145039D01*
X99300892Y-89222475D01*
X99496493Y-89303496D01*
X99704141Y-89344800D01*
X99915859Y-89344800D01*
X100123507Y-89303496D01*
X100319108Y-89222475D01*
X100495145Y-89104851D01*
X100644851Y-88955145D01*
X100762475Y-88779108D01*
X100843496Y-88583507D01*
X100884800Y-88375859D01*
X100884800Y-88164141D01*
X100843496Y-87956493D01*
X100762475Y-87760892D01*
X100644851Y-87584855D01*
X100597589Y-87537593D01*
X100664177Y-87471005D01*
X100784523Y-87290893D01*
X100867419Y-87090765D01*
X100909679Y-86878309D01*
X100909679Y-86661691D01*
X100867419Y-86449235D01*
X100784523Y-86249107D01*
X100664177Y-86068995D01*
X100632774Y-86037592D01*
X100683502Y-85986864D01*
X100806571Y-85802678D01*
X100891343Y-85598022D01*
X100934559Y-85380759D01*
X100934559Y-85159241D01*
X100891343Y-84941978D01*
X100806571Y-84737322D01*
X100683502Y-84553136D01*
X100667959Y-84537593D01*
X100702827Y-84502724D01*
X100828619Y-84314463D01*
X100915266Y-84105279D01*
X100959438Y-83883210D01*
X100959438Y-83656790D01*
X100915266Y-83434721D01*
X100828619Y-83225537D01*
X100702827Y-83037276D01*
X100542724Y-82877173D01*
X100354463Y-82751381D01*
X100145279Y-82664734D01*
X99923210Y-82620562D01*
X99696790Y-82620562D01*
X99474721Y-82664734D01*
X99265537Y-82751381D01*
X99185000Y-82805194D01*
X99185000Y-82475000D01*
X120239870Y-82475000D01*
X119692997Y-82767310D01*
G36*
X123637308Y-94445811D02*
G01*
X123329911Y-94573139D01*
X123053261Y-94757990D01*
X122817990Y-94993261D01*
X122633139Y-95269911D01*
X122505811Y-95577308D01*
X122440900Y-95903638D01*
X122440900Y-96236362D01*
X122505811Y-96562692D01*
X122633139Y-96870089D01*
X122750010Y-97045000D01*
X121974027Y-97045000D01*
X121507591Y-97090940D01*
X120909101Y-97272490D01*
X120357530Y-97567311D01*
X119874073Y-97964073D01*
X119477311Y-98447530D01*
X119182490Y-98999101D01*
X119000940Y-99597591D01*
X118939638Y-100220000D01*
X119000940Y-100842409D01*
X119182490Y-101440899D01*
X119477311Y-101992470D01*
X119874073Y-102475927D01*
X120357530Y-102872689D01*
X120909101Y-103167510D01*
X121507591Y-103349060D01*
X121844483Y-103382241D01*
X121771838Y-103582233D01*
X122730000Y-104540395D01*
X122744143Y-104526253D01*
X122923748Y-104705858D01*
X122909605Y-104720000D01*
X122923748Y-104734143D01*
X122744143Y-104913748D01*
X122730000Y-104899605D01*
X122715858Y-104913748D01*
X122536253Y-104734143D01*
X122550395Y-104720000D01*
X121592233Y-103761838D01*
X121327495Y-103858001D01*
X121186276Y-104148180D01*
X121104381Y-104460333D01*
X121084958Y-104782465D01*
X121128753Y-105102196D01*
X121234083Y-105407240D01*
X121259618Y-105455011D01*
X120320143Y-105455011D01*
X120265900Y-105400768D01*
X120265900Y-105373652D01*
X120208798Y-105086579D01*
X120096788Y-104816162D01*
X119934174Y-104572794D01*
X119727206Y-104365826D01*
X119483838Y-104203212D01*
X119213421Y-104091202D01*
X118926348Y-104034100D01*
X118633652Y-104034100D01*
X118346579Y-104091202D01*
X118076162Y-104203212D01*
X117832794Y-104365826D01*
X117625826Y-104572794D01*
X117463212Y-104816162D01*
X117351202Y-105086579D01*
X117294100Y-105373652D01*
X117294100Y-105666348D01*
X117351202Y-105953421D01*
X117463212Y-106223838D01*
X117625826Y-106467206D01*
X117693620Y-106535000D01*
X116322696Y-106535000D01*
X116455256Y-106402440D01*
X116606751Y-106175712D01*
X116711102Y-105923785D01*
X116764300Y-105656342D01*
X116764300Y-105564055D01*
X117138195Y-105190160D01*
X117176734Y-105158532D01*
X117302948Y-105004739D01*
X117396733Y-104829279D01*
X117454486Y-104638893D01*
X117469101Y-104490507D01*
X117469101Y-104490505D01*
X117473987Y-104440900D01*
X117469101Y-104391295D01*
X117469101Y-96814543D01*
X118427744Y-95855901D01*
X119414825Y-95855901D01*
X119464433Y-95860787D01*
X119662427Y-95841286D01*
X119852813Y-95783533D01*
X120028273Y-95689748D01*
X120182066Y-95563534D01*
X120213694Y-95524995D01*
X121270497Y-94468193D01*
X121297560Y-94495256D01*
X121524288Y-94646751D01*
X121776215Y-94751102D01*
X122043658Y-94804300D01*
X122316342Y-94804300D01*
X122583785Y-94751102D01*
X122835712Y-94646751D01*
X123062440Y-94495256D01*
X123127696Y-94430000D01*
X123716795Y-94430000D01*
X123637308Y-94445811D01*
G37*
X123637308Y-94445811D02*
X123329911Y-94573139D01*
X123053261Y-94757990D01*
X122817990Y-94993261D01*
X122633139Y-95269911D01*
X122505811Y-95577308D01*
X122440900Y-95903638D01*
X122440900Y-96236362D01*
X122505811Y-96562692D01*
X122633139Y-96870089D01*
X122750010Y-97045000D01*
X121974027Y-97045000D01*
X121507591Y-97090940D01*
X120909101Y-97272490D01*
X120357530Y-97567311D01*
X119874073Y-97964073D01*
X119477311Y-98447530D01*
X119182490Y-98999101D01*
X119000940Y-99597591D01*
X118939638Y-100220000D01*
X119000940Y-100842409D01*
X119182490Y-101440899D01*
X119477311Y-101992470D01*
X119874073Y-102475927D01*
X120357530Y-102872689D01*
X120909101Y-103167510D01*
X121507591Y-103349060D01*
X121844483Y-103382241D01*
X121771838Y-103582233D01*
X122730000Y-104540395D01*
X122744143Y-104526253D01*
X122923748Y-104705858D01*
X122909605Y-104720000D01*
X122923748Y-104734143D01*
X122744143Y-104913748D01*
X122730000Y-104899605D01*
X122715858Y-104913748D01*
X122536253Y-104734143D01*
X122550395Y-104720000D01*
X121592233Y-103761838D01*
X121327495Y-103858001D01*
X121186276Y-104148180D01*
X121104381Y-104460333D01*
X121084958Y-104782465D01*
X121128753Y-105102196D01*
X121234083Y-105407240D01*
X121259618Y-105455011D01*
X120320143Y-105455011D01*
X120265900Y-105400768D01*
X120265900Y-105373652D01*
X120208798Y-105086579D01*
X120096788Y-104816162D01*
X119934174Y-104572794D01*
X119727206Y-104365826D01*
X119483838Y-104203212D01*
X119213421Y-104091202D01*
X118926348Y-104034100D01*
X118633652Y-104034100D01*
X118346579Y-104091202D01*
X118076162Y-104203212D01*
X117832794Y-104365826D01*
X117625826Y-104572794D01*
X117463212Y-104816162D01*
X117351202Y-105086579D01*
X117294100Y-105373652D01*
X117294100Y-105666348D01*
X117351202Y-105953421D01*
X117463212Y-106223838D01*
X117625826Y-106467206D01*
X117693620Y-106535000D01*
X116322696Y-106535000D01*
X116455256Y-106402440D01*
X116606751Y-106175712D01*
X116711102Y-105923785D01*
X116764300Y-105656342D01*
X116764300Y-105564055D01*
X117138195Y-105190160D01*
X117176734Y-105158532D01*
X117302948Y-105004739D01*
X117396733Y-104829279D01*
X117454486Y-104638893D01*
X117469101Y-104490507D01*
X117469101Y-104490505D01*
X117473987Y-104440900D01*
X117469101Y-104391295D01*
X117469101Y-96814543D01*
X118427744Y-95855901D01*
X119414825Y-95855901D01*
X119464433Y-95860787D01*
X119662427Y-95841286D01*
X119852813Y-95783533D01*
X120028273Y-95689748D01*
X120182066Y-95563534D01*
X120213694Y-95524995D01*
X121270497Y-94468193D01*
X121297560Y-94495256D01*
X121524288Y-94646751D01*
X121776215Y-94751102D01*
X122043658Y-94804300D01*
X122316342Y-94804300D01*
X122583785Y-94751102D01*
X122835712Y-94646751D01*
X123062440Y-94495256D01*
X123127696Y-94430000D01*
X123716795Y-94430000D01*
X123637308Y-94445811D01*
G36*
X133571282Y-88930997D02*
G01*
X133495000Y-89314495D01*
X133495000Y-89705505D01*
X133571282Y-90089003D01*
X133720915Y-90450250D01*
X133938149Y-90775364D01*
X134214636Y-91051851D01*
X134539750Y-91269085D01*
X134900997Y-91418718D01*
X135284495Y-91495000D01*
X135675505Y-91495000D01*
X136059003Y-91418718D01*
X136420250Y-91269085D01*
X136745364Y-91051851D01*
X137021851Y-90775364D01*
X137239085Y-90450250D01*
X137388718Y-90089003D01*
X137427435Y-89894360D01*
X137605000Y-90071926D01*
X137605001Y-98294871D01*
X135724872Y-100175001D01*
X132822127Y-100175001D01*
X132902384Y-99868892D01*
X132921718Y-99547405D01*
X132877961Y-99228325D01*
X132772795Y-98923912D01*
X132679814Y-98749956D01*
X132415413Y-98654192D01*
X131459605Y-99610000D01*
X131473748Y-99624143D01*
X131294143Y-99803748D01*
X131280000Y-99789605D01*
X131265858Y-99803748D01*
X131086253Y-99624143D01*
X131100395Y-99610000D01*
X130144587Y-98654192D01*
X129880186Y-98749956D01*
X129739296Y-99039571D01*
X129657616Y-99351108D01*
X129638282Y-99672595D01*
X129682039Y-99991675D01*
X129745373Y-100175001D01*
X128215215Y-100175001D01*
X126514801Y-98474587D01*
X130324192Y-98474587D01*
X131280000Y-99430395D01*
X132235808Y-98474587D01*
X132140044Y-98210186D01*
X131850429Y-98069296D01*
X131538892Y-97987616D01*
X131217405Y-97968282D01*
X130898325Y-98012039D01*
X130593912Y-98117205D01*
X130419956Y-98210186D01*
X130324192Y-98474587D01*
X126514801Y-98474587D01*
X126125447Y-98085234D01*
X126026013Y-97964073D01*
X125542556Y-97567311D01*
X125201914Y-97385234D01*
X125206739Y-97382010D01*
X125442010Y-97146739D01*
X125626861Y-96870089D01*
X125754189Y-96562692D01*
X125819100Y-96236362D01*
X125819100Y-95903638D01*
X125754189Y-95577308D01*
X125626861Y-95269911D01*
X125442010Y-94993261D01*
X125206739Y-94757990D01*
X124930089Y-94573139D01*
X124622692Y-94445811D01*
X124543205Y-94430000D01*
X130861645Y-94430000D01*
X131220000Y-94788356D01*
X131220000Y-95019893D01*
X131076525Y-95163368D01*
X130914010Y-95406589D01*
X130802068Y-95676842D01*
X130745000Y-95963740D01*
X130745000Y-96256260D01*
X130802068Y-96543158D01*
X130914010Y-96813411D01*
X131076525Y-97056632D01*
X131283368Y-97263475D01*
X131526589Y-97425990D01*
X131796842Y-97537932D01*
X132083740Y-97595000D01*
X132376260Y-97595000D01*
X132663158Y-97537932D01*
X132933411Y-97425990D01*
X133176632Y-97263475D01*
X133383475Y-97056632D01*
X133545990Y-96813411D01*
X133657932Y-96543158D01*
X133715000Y-96256260D01*
X133715000Y-95963740D01*
X133657932Y-95676842D01*
X133545990Y-95406589D01*
X133383475Y-95163368D01*
X133240000Y-95019893D01*
X133240000Y-94419608D01*
X133244886Y-94370000D01*
X133225385Y-94172005D01*
X133167632Y-93981620D01*
X133073847Y-93806160D01*
X132947633Y-93652367D01*
X132909099Y-93620743D01*
X132382178Y-93093823D01*
X132663158Y-93037932D01*
X132933411Y-92925990D01*
X133176632Y-92763475D01*
X133383475Y-92556632D01*
X133545990Y-92313411D01*
X133657932Y-92043158D01*
X133715000Y-91756260D01*
X133715000Y-91463740D01*
X133657932Y-91176842D01*
X133545990Y-90906589D01*
X133383475Y-90663368D01*
X133176632Y-90456525D01*
X132933411Y-90294010D01*
X132663158Y-90182068D01*
X132376260Y-90125000D01*
X132083740Y-90125000D01*
X131796842Y-90182068D01*
X131526589Y-90294010D01*
X131283368Y-90456525D01*
X131076525Y-90663368D01*
X130961377Y-90835699D01*
X120539895Y-90835699D01*
X122780595Y-88594999D01*
X133710457Y-88594999D01*
X133571282Y-88930997D01*
G37*
X133571282Y-88930997D02*
X133495000Y-89314495D01*
X133495000Y-89705505D01*
X133571282Y-90089003D01*
X133720915Y-90450250D01*
X133938149Y-90775364D01*
X134214636Y-91051851D01*
X134539750Y-91269085D01*
X134900997Y-91418718D01*
X135284495Y-91495000D01*
X135675505Y-91495000D01*
X136059003Y-91418718D01*
X136420250Y-91269085D01*
X136745364Y-91051851D01*
X137021851Y-90775364D01*
X137239085Y-90450250D01*
X137388718Y-90089003D01*
X137427435Y-89894360D01*
X137605000Y-90071926D01*
X137605001Y-98294871D01*
X135724872Y-100175001D01*
X132822127Y-100175001D01*
X132902384Y-99868892D01*
X132921718Y-99547405D01*
X132877961Y-99228325D01*
X132772795Y-98923912D01*
X132679814Y-98749956D01*
X132415413Y-98654192D01*
X131459605Y-99610000D01*
X131473748Y-99624143D01*
X131294143Y-99803748D01*
X131280000Y-99789605D01*
X131265858Y-99803748D01*
X131086253Y-99624143D01*
X131100395Y-99610000D01*
X130144587Y-98654192D01*
X129880186Y-98749956D01*
X129739296Y-99039571D01*
X129657616Y-99351108D01*
X129638282Y-99672595D01*
X129682039Y-99991675D01*
X129745373Y-100175001D01*
X128215215Y-100175001D01*
X126514801Y-98474587D01*
X130324192Y-98474587D01*
X131280000Y-99430395D01*
X132235808Y-98474587D01*
X132140044Y-98210186D01*
X131850429Y-98069296D01*
X131538892Y-97987616D01*
X131217405Y-97968282D01*
X130898325Y-98012039D01*
X130593912Y-98117205D01*
X130419956Y-98210186D01*
X130324192Y-98474587D01*
X126514801Y-98474587D01*
X126125447Y-98085234D01*
X126026013Y-97964073D01*
X125542556Y-97567311D01*
X125201914Y-97385234D01*
X125206739Y-97382010D01*
X125442010Y-97146739D01*
X125626861Y-96870089D01*
X125754189Y-96562692D01*
X125819100Y-96236362D01*
X125819100Y-95903638D01*
X125754189Y-95577308D01*
X125626861Y-95269911D01*
X125442010Y-94993261D01*
X125206739Y-94757990D01*
X124930089Y-94573139D01*
X124622692Y-94445811D01*
X124543205Y-94430000D01*
X130861645Y-94430000D01*
X131220000Y-94788356D01*
X131220000Y-95019893D01*
X131076525Y-95163368D01*
X130914010Y-95406589D01*
X130802068Y-95676842D01*
X130745000Y-95963740D01*
X130745000Y-96256260D01*
X130802068Y-96543158D01*
X130914010Y-96813411D01*
X131076525Y-97056632D01*
X131283368Y-97263475D01*
X131526589Y-97425990D01*
X131796842Y-97537932D01*
X132083740Y-97595000D01*
X132376260Y-97595000D01*
X132663158Y-97537932D01*
X132933411Y-97425990D01*
X133176632Y-97263475D01*
X133383475Y-97056632D01*
X133545990Y-96813411D01*
X133657932Y-96543158D01*
X133715000Y-96256260D01*
X133715000Y-95963740D01*
X133657932Y-95676842D01*
X133545990Y-95406589D01*
X133383475Y-95163368D01*
X133240000Y-95019893D01*
X133240000Y-94419608D01*
X133244886Y-94370000D01*
X133225385Y-94172005D01*
X133167632Y-93981620D01*
X133073847Y-93806160D01*
X132947633Y-93652367D01*
X132909099Y-93620743D01*
X132382178Y-93093823D01*
X132663158Y-93037932D01*
X132933411Y-92925990D01*
X133176632Y-92763475D01*
X133383475Y-92556632D01*
X133545990Y-92313411D01*
X133657932Y-92043158D01*
X133715000Y-91756260D01*
X133715000Y-91463740D01*
X133657932Y-91176842D01*
X133545990Y-90906589D01*
X133383475Y-90663368D01*
X133176632Y-90456525D01*
X132933411Y-90294010D01*
X132663158Y-90182068D01*
X132376260Y-90125000D01*
X132083740Y-90125000D01*
X131796842Y-90182068D01*
X131526589Y-90294010D01*
X131283368Y-90456525D01*
X131076525Y-90663368D01*
X130961377Y-90835699D01*
X120539895Y-90835699D01*
X122780595Y-88594999D01*
X133710457Y-88594999D01*
X133571282Y-88930997D01*
M02*
