G04 #@! TF.GenerationSoftware,KiCad,Pcbnew,(5.1.6-0-10_14)*
G04 #@! TF.CreationDate,2021-11-25T16:37:17+09:00*
G04 #@! TF.ProjectId,peltier+relay,70656c74-6965-4722-9b72-656c61792e6b,rev?*
G04 #@! TF.SameCoordinates,Original*
G04 #@! TF.FileFunction,Paste,Top*
G04 #@! TF.FilePolarity,Positive*
%FSLAX46Y46*%
G04 Gerber Fmt 4.6, Leading zero omitted, Abs format (unit mm)*
G04 Created by KiCad (PCBNEW (5.1.6-0-10_14)) date 2021-11-25 16:37:17*
%MOMM*%
%LPD*%
G01*
G04 APERTURE LIST*
%ADD10C,0.475000*%
%ADD11C,0.100000*%
%ADD12R,2.500000X1.800000*%
%ADD13R,0.800000X0.900000*%
%ADD14R,0.500000X0.900000*%
%ADD15R,0.900000X0.500000*%
%ADD16R,0.762000X0.863600*%
%ADD17R,0.889000X1.397000*%
%ADD18R,3.250000X5.000000*%
%ADD19R,1.516000X0.457200*%
G04 APERTURE END LIST*
D10*
X99947500Y-88270000D02*
G75*
G03*
X99947500Y-88270000I-137500J0D01*
G01*
X99972500Y-86770000D02*
G75*
G03*
X99972500Y-86770000I-162500J0D01*
G01*
X99997500Y-85270000D02*
G75*
G03*
X99997500Y-85270000I-187500J0D01*
G01*
X177272500Y-82770000D02*
G75*
G03*
X177272500Y-82770000I-212500J0D01*
G01*
X175022500Y-112770000D02*
G75*
G03*
X175022500Y-112770000I-212500J0D01*
G01*
X101022500Y-112770000D02*
G75*
G03*
X101022500Y-112770000I-212500J0D01*
G01*
X100022500Y-83770000D02*
G75*
G03*
X100022500Y-83770000I-212500J0D01*
G01*
D11*
G36*
X157230700Y-97832800D02*
G01*
X161218500Y-97832800D01*
X161218500Y-93514800D01*
X157230700Y-93514800D01*
X157230700Y-97832800D01*
G37*
X157230700Y-97832800D02*
X161218500Y-97832800D01*
X161218500Y-93514800D01*
X157230700Y-93514800D01*
X157230700Y-97832800D01*
D12*
X151860000Y-87890000D03*
X147860000Y-87890000D03*
X151860000Y-84290000D03*
X147860000Y-84290000D03*
D13*
X156320000Y-86890000D03*
X154420000Y-86890000D03*
X155370000Y-88890000D03*
X155370000Y-85290000D03*
X154420000Y-83290000D03*
X156320000Y-83290000D03*
D14*
X157798960Y-86885400D03*
X159298960Y-86885400D03*
D15*
X158240000Y-85040000D03*
X158240000Y-83540000D03*
G36*
G01*
X160768700Y-91643001D02*
X160768700Y-89442999D01*
G75*
G02*
X161018699Y-89193000I249999J0D01*
G01*
X161668701Y-89193000D01*
G75*
G02*
X161918700Y-89442999I0J-249999D01*
G01*
X161918700Y-91643001D01*
G75*
G02*
X161668701Y-91893000I-249999J0D01*
G01*
X161018699Y-91893000D01*
G75*
G02*
X160768700Y-91643001I0J249999D01*
G01*
G37*
G36*
G01*
X163718700Y-91643001D02*
X163718700Y-89442999D01*
G75*
G02*
X163968699Y-89193000I249999J0D01*
G01*
X164618701Y-89193000D01*
G75*
G02*
X164868700Y-89442999I0J-249999D01*
G01*
X164868700Y-91643001D01*
G75*
G02*
X164618701Y-91893000I-249999J0D01*
G01*
X163968699Y-91893000D01*
G75*
G02*
X163718700Y-91643001I0J249999D01*
G01*
G37*
G36*
G01*
X147964599Y-96665240D02*
X150164601Y-96665240D01*
G75*
G02*
X150414600Y-96915239I0J-249999D01*
G01*
X150414600Y-97565241D01*
G75*
G02*
X150164601Y-97815240I-249999J0D01*
G01*
X147964599Y-97815240D01*
G75*
G02*
X147714600Y-97565241I0J249999D01*
G01*
X147714600Y-96915239D01*
G75*
G02*
X147964599Y-96665240I249999J0D01*
G01*
G37*
G36*
G01*
X147964599Y-93715240D02*
X150164601Y-93715240D01*
G75*
G02*
X150414600Y-93965239I0J-249999D01*
G01*
X150414600Y-94615241D01*
G75*
G02*
X150164601Y-94865240I-249999J0D01*
G01*
X147964599Y-94865240D01*
G75*
G02*
X147714600Y-94615241I0J249999D01*
G01*
X147714600Y-93965239D01*
G75*
G02*
X147964599Y-93715240I249999J0D01*
G01*
G37*
D16*
X152498680Y-96771080D03*
D17*
X152498680Y-95005780D03*
D18*
X160861800Y-105402000D03*
X149611800Y-105402000D03*
D19*
X156625100Y-97578800D03*
X156625100Y-96308800D03*
X156625100Y-95038800D03*
X156625100Y-93768800D03*
X162967100Y-93768800D03*
X162967100Y-95038800D03*
X162967100Y-96308800D03*
X162967100Y-97578800D03*
G36*
G01*
X164829700Y-93356600D02*
X165379700Y-93356600D01*
G75*
G02*
X165579700Y-93556600I0J-200000D01*
G01*
X165579700Y-93956600D01*
G75*
G02*
X165379700Y-94156600I-200000J0D01*
G01*
X164829700Y-94156600D01*
G75*
G02*
X164629700Y-93956600I0J200000D01*
G01*
X164629700Y-93556600D01*
G75*
G02*
X164829700Y-93356600I200000J0D01*
G01*
G37*
G36*
G01*
X164829700Y-95006600D02*
X165379700Y-95006600D01*
G75*
G02*
X165579700Y-95206600I0J-200000D01*
G01*
X165579700Y-95606600D01*
G75*
G02*
X165379700Y-95806600I-200000J0D01*
G01*
X164829700Y-95806600D01*
G75*
G02*
X164629700Y-95606600I0J200000D01*
G01*
X164629700Y-95206600D01*
G75*
G02*
X164829700Y-95006600I200000J0D01*
G01*
G37*
M02*
