%TF.GenerationSoftware,KiCad,Pcbnew,(5.1.6-0-10_14)*%
%TF.CreationDate,2021-01-06T09:57:28+09:00*%
%TF.ProjectId,qPCR-xtal,71504352-2d78-4746-916c-2e6b69636164,rev?*%
%TF.SameCoordinates,Original*%
%TF.FileFunction,Copper,L1,Top*%
%TF.FilePolarity,Positive*%
%FSLAX46Y46*%
G04 Gerber Fmt 4.6, Leading zero omitted, Abs format (unit mm)*
G04 Created by KiCad (PCBNEW (5.1.6-0-10_14)) date 2021-01-06 09:57:28*
%MOMM*%
%LPD*%
G01*
G04 APERTURE LIST*
%TA.AperFunction,SMDPad,CuDef*%
%ADD10R,1.200000X0.750000*%
%TD*%
%TA.AperFunction,SMDPad,CuDef*%
%ADD11R,1.200000X0.900000*%
%TD*%
%TA.AperFunction,SMDPad,CuDef*%
%ADD12R,0.900000X1.200000*%
%TD*%
%TA.AperFunction,SMDPad,CuDef*%
%ADD13R,1.473200X0.558800*%
%TD*%
%TA.AperFunction,SMDPad,CuDef*%
%ADD14R,2.000000X1.600000*%
%TD*%
%TA.AperFunction,ComponentPad*%
%ADD15O,1.700000X1.700000*%
%TD*%
%TA.AperFunction,ComponentPad*%
%ADD16R,1.700000X1.700000*%
%TD*%
%TA.AperFunction,ViaPad*%
%ADD17C,0.800000*%
%TD*%
%TA.AperFunction,Conductor*%
%ADD18C,1.016000*%
%TD*%
%TA.AperFunction,Conductor*%
%ADD19C,1.524000*%
%TD*%
%TA.AperFunction,Conductor*%
%ADD20C,0.250000*%
%TD*%
%TA.AperFunction,Conductor*%
%ADD21C,0.254000*%
%TD*%
G04 APERTURE END LIST*
D10*
%TO.P,C1,2*%
%TO.N,GND*%
X137050000Y-118900000D03*
%TO.P,C1,1*%
%TO.N,IN*%
X135150000Y-118900000D03*
%TD*%
%TO.P,C2,1*%
%TO.N,Net-(C2-Pad1)*%
X140750000Y-118900000D03*
%TO.P,C2,2*%
%TO.N,GND*%
X138850000Y-118900000D03*
%TD*%
D11*
%TO.P,RD1,2*%
%TO.N,Net-(C2-Pad1)*%
X138900000Y-122800000D03*
%TO.P,RD1,1*%
%TO.N,OUT*%
X136700000Y-122800000D03*
%TD*%
D12*
%TO.P,RF1,1*%
%TO.N,OUT*%
X135000000Y-122700000D03*
%TO.P,RF1,2*%
%TO.N,IN*%
X135000000Y-120500000D03*
%TD*%
D13*
%TO.P,U1,5*%
%TO.N,VCC*%
X137693800Y-115349999D03*
%TO.P,U1,4*%
%TO.N,OUT*%
X137693800Y-117250001D03*
%TO.P,U1,3*%
%TO.N,GND*%
X135306200Y-117250001D03*
%TO.P,U1,2*%
%TO.N,IN*%
X135306200Y-116300000D03*
%TO.P,U1,1*%
%TO.N,N/C*%
X135306200Y-115349999D03*
%TD*%
D14*
%TO.P,Y1,2*%
%TO.N,Net-(C2-Pad1)*%
X141100000Y-120800000D03*
%TO.P,Y1,1*%
%TO.N,IN*%
X137100000Y-120800000D03*
%TD*%
D15*
%TO.P,J1,4*%
%TO.N,OUT*%
X132325001Y-122745001D03*
%TO.P,J1,3*%
%TO.N,IN*%
X132325001Y-120205001D03*
%TO.P,J1,2*%
%TO.N,GND*%
X132325001Y-117665001D03*
D16*
%TO.P,J1,1*%
%TO.N,VCC*%
X132325001Y-115125001D03*
%TD*%
D17*
%TO.N,GND*%
X137900000Y-118300000D03*
X141500000Y-114500000D03*
X141500000Y-117700000D03*
X139200000Y-118000000D03*
X137500000Y-116300000D03*
X139100000Y-114500000D03*
X140200000Y-116100000D03*
X138700000Y-121100000D03*
X141500000Y-123400000D03*
X137800000Y-123800000D03*
X130500000Y-123500000D03*
X128100000Y-123500000D03*
X128000000Y-114400000D03*
X130500000Y-114400000D03*
X129400000Y-116400000D03*
X127900000Y-119200000D03*
X130300000Y-119200000D03*
X129400000Y-121400000D03*
%TD*%
D18*
%TO.N,GND*%
X137050000Y-118721092D02*
X135616309Y-117287401D01*
X135616309Y-117287401D02*
X135306200Y-117287401D01*
X137050000Y-118900000D02*
X137050000Y-118721092D01*
D19*
X137300000Y-118900000D02*
X137708598Y-118491402D01*
X137050000Y-118900000D02*
X137300000Y-118900000D01*
X138850000Y-118900000D02*
X137050000Y-118900000D01*
%TO.N,IN*%
X132620000Y-120500000D02*
X132325001Y-120205001D01*
X135000000Y-120500000D02*
X132620000Y-120500000D01*
X135300000Y-120800000D02*
X135000000Y-120500000D01*
X137100000Y-120800000D02*
X135300000Y-120800000D01*
X135150000Y-120350000D02*
X135000000Y-120500000D01*
X135150000Y-118900000D02*
X135150000Y-120350000D01*
D20*
X134244599Y-117994599D02*
X135150000Y-118900000D01*
X134655199Y-116300000D02*
X134244599Y-116710600D01*
X134244599Y-116710600D02*
X134244599Y-117994599D01*
X135306200Y-116300000D02*
X134655199Y-116300000D01*
D19*
%TO.N,Net-(C2-Pad1)*%
X139100000Y-122800000D02*
X141100000Y-120800000D01*
X138900000Y-122800000D02*
X139100000Y-122800000D01*
X141100000Y-119250000D02*
X140750000Y-118900000D01*
X141100000Y-120800000D02*
X141100000Y-119250000D01*
%TO.N,OUT*%
X135100000Y-122800000D02*
X135000000Y-122700000D01*
X136700000Y-122800000D02*
X135100000Y-122800000D01*
X132370002Y-122700000D02*
X132325001Y-122745001D01*
X135000000Y-122700000D02*
X132370002Y-122700000D01*
D20*
X131761000Y-116490000D02*
X133245004Y-116490000D01*
X133245004Y-116490000D02*
X134000000Y-115735004D01*
X131150000Y-117101000D02*
X131761000Y-116490000D01*
X131150000Y-121570000D02*
X131150000Y-117101000D01*
X132325001Y-122745001D02*
X131150000Y-121570000D01*
X134000000Y-115055197D02*
X134309599Y-114745598D01*
X134000000Y-115735004D02*
X134000000Y-115055197D01*
X136302801Y-114745598D02*
X136500000Y-114942797D01*
X134309599Y-114745598D02*
X136302801Y-114745598D01*
X136500000Y-114942797D02*
X136500000Y-116500000D01*
X137250001Y-117250001D02*
X137693800Y-117250001D01*
X136500000Y-116500000D02*
X137250001Y-117250001D01*
%TO.N,VCC*%
X132704404Y-114745598D02*
X132325001Y-115125001D01*
X134123198Y-114295589D02*
X133500000Y-114918787D01*
X136639390Y-114295589D02*
X134123198Y-114295589D01*
X137693800Y-115349999D02*
X136639390Y-114295589D01*
X132531215Y-114918787D02*
X132325001Y-115125001D01*
X133500000Y-114918787D02*
X132531215Y-114918787D01*
%TD*%
D21*
%TO.N,GND*%
G36*
X130836929Y-114275001D02*
G01*
X130836929Y-115975001D01*
X130849189Y-116099483D01*
X130885499Y-116219181D01*
X130910411Y-116265787D01*
X130638997Y-116537202D01*
X130610000Y-116560999D01*
X130586202Y-116589997D01*
X130586201Y-116589998D01*
X130515026Y-116676724D01*
X130444454Y-116808754D01*
X130417358Y-116898081D01*
X130400998Y-116952014D01*
X130395188Y-117011002D01*
X130386324Y-117101000D01*
X130390001Y-117138332D01*
X130390000Y-121532677D01*
X130386324Y-121570000D01*
X130390000Y-121607322D01*
X130390000Y-121607332D01*
X130400997Y-121718985D01*
X130427301Y-121805699D01*
X130444454Y-121862246D01*
X130515026Y-121994276D01*
X130536231Y-122020114D01*
X130609999Y-122110001D01*
X130639003Y-122133804D01*
X130883792Y-122378593D01*
X130840001Y-122598741D01*
X130840001Y-122891261D01*
X130897069Y-123178159D01*
X131009011Y-123448412D01*
X131171526Y-123691633D01*
X131294893Y-123815000D01*
X127685000Y-123815000D01*
X127685000Y-114185000D01*
X130845793Y-114185000D01*
X130836929Y-114275001D01*
G37*
X130836929Y-114275001D02*
X130836929Y-115975001D01*
X130849189Y-116099483D01*
X130885499Y-116219181D01*
X130910411Y-116265787D01*
X130638997Y-116537202D01*
X130610000Y-116560999D01*
X130586202Y-116589997D01*
X130586201Y-116589998D01*
X130515026Y-116676724D01*
X130444454Y-116808754D01*
X130417358Y-116898081D01*
X130400998Y-116952014D01*
X130395188Y-117011002D01*
X130386324Y-117101000D01*
X130390001Y-117138332D01*
X130390000Y-121532677D01*
X130386324Y-121570000D01*
X130390000Y-121607322D01*
X130390000Y-121607332D01*
X130400997Y-121718985D01*
X130427301Y-121805699D01*
X130444454Y-121862246D01*
X130515026Y-121994276D01*
X130536231Y-122020114D01*
X130609999Y-122110001D01*
X130639003Y-122133804D01*
X130883792Y-122378593D01*
X130840001Y-122598741D01*
X130840001Y-122891261D01*
X130897069Y-123178159D01*
X131009011Y-123448412D01*
X131171526Y-123691633D01*
X131294893Y-123815000D01*
X127685000Y-123815000D01*
X127685000Y-114185000D01*
X130845793Y-114185000D01*
X130836929Y-114275001D01*
G36*
X137907392Y-123792608D02*
G01*
X137934677Y-123815000D01*
X137665323Y-123815000D01*
X137692608Y-123792608D01*
X137800000Y-123661750D01*
X137907392Y-123792608D01*
G37*
X137907392Y-123792608D02*
X137934677Y-123815000D01*
X137665323Y-123815000D01*
X137692608Y-123792608D01*
X137800000Y-123661750D01*
X137907392Y-123792608D01*
G36*
X141815000Y-123815000D02*
G01*
X140065323Y-123815000D01*
X140092608Y-123792608D01*
X140136363Y-123739292D01*
X141637585Y-122238072D01*
X141815000Y-122238072D01*
X141815000Y-123815000D01*
G37*
X141815000Y-123815000D02*
X140065323Y-123815000D01*
X140092608Y-123792608D01*
X140136363Y-123739292D01*
X141637585Y-122238072D01*
X141815000Y-122238072D01*
X141815000Y-123815000D01*
G36*
X137177000Y-118773000D02*
G01*
X138723000Y-118773000D01*
X138723000Y-118753000D01*
X138977000Y-118753000D01*
X138977000Y-118773000D01*
X138997000Y-118773000D01*
X138997000Y-119027000D01*
X138977000Y-119027000D01*
X138977000Y-119751250D01*
X139135750Y-119910000D01*
X139450000Y-119913072D01*
X139470690Y-119911034D01*
X139461928Y-120000000D01*
X139461928Y-120462416D01*
X138738072Y-121186272D01*
X138738072Y-120000000D01*
X138725812Y-119875518D01*
X138696235Y-119778015D01*
X138723000Y-119751250D01*
X138723000Y-119027000D01*
X137177000Y-119027000D01*
X137177000Y-119047000D01*
X136923000Y-119047000D01*
X136923000Y-119027000D01*
X136903000Y-119027000D01*
X136903000Y-118773000D01*
X136923000Y-118773000D01*
X136923000Y-118753000D01*
X137177000Y-118753000D01*
X137177000Y-118773000D01*
G37*
X137177000Y-118773000D02*
X138723000Y-118773000D01*
X138723000Y-118753000D01*
X138977000Y-118753000D01*
X138977000Y-118773000D01*
X138997000Y-118773000D01*
X138997000Y-119027000D01*
X138977000Y-119027000D01*
X138977000Y-119751250D01*
X139135750Y-119910000D01*
X139450000Y-119913072D01*
X139470690Y-119911034D01*
X139461928Y-120000000D01*
X139461928Y-120462416D01*
X138738072Y-121186272D01*
X138738072Y-120000000D01*
X138725812Y-119875518D01*
X138696235Y-119778015D01*
X138723000Y-119751250D01*
X138723000Y-119027000D01*
X137177000Y-119027000D01*
X137177000Y-119047000D01*
X136923000Y-119047000D01*
X136923000Y-119027000D01*
X136903000Y-119027000D01*
X136903000Y-118773000D01*
X136923000Y-118773000D01*
X136923000Y-118753000D01*
X137177000Y-118753000D01*
X137177000Y-118773000D01*
G36*
X141815001Y-117989346D02*
G01*
X141689302Y-117863647D01*
X141529886Y-117732818D01*
X141287195Y-117603097D01*
X141023859Y-117523214D01*
X140750000Y-117496241D01*
X140476141Y-117523214D01*
X140212805Y-117603097D01*
X139970114Y-117732818D01*
X139757393Y-117907393D01*
X139722086Y-117950414D01*
X139694180Y-117935498D01*
X139574482Y-117899188D01*
X139450000Y-117886928D01*
X139135750Y-117890000D01*
X138977002Y-118048748D01*
X138977002Y-117890000D01*
X138955927Y-117890000D01*
X138960937Y-117883895D01*
X139019902Y-117773581D01*
X139056212Y-117653883D01*
X139068472Y-117529401D01*
X139068472Y-116970601D01*
X139056212Y-116846119D01*
X139019902Y-116726421D01*
X138960937Y-116616107D01*
X138881585Y-116519416D01*
X138784894Y-116440064D01*
X138674580Y-116381099D01*
X138554882Y-116344789D01*
X138430400Y-116332529D01*
X137407330Y-116332529D01*
X137342272Y-116267471D01*
X138430400Y-116267471D01*
X138554882Y-116255211D01*
X138674580Y-116218901D01*
X138784894Y-116159936D01*
X138881585Y-116080584D01*
X138960937Y-115983893D01*
X139019902Y-115873579D01*
X139056212Y-115753881D01*
X139068472Y-115629399D01*
X139068472Y-115070599D01*
X139056212Y-114946117D01*
X139019902Y-114826419D01*
X138960937Y-114716105D01*
X138881585Y-114619414D01*
X138784894Y-114540062D01*
X138674580Y-114481097D01*
X138554882Y-114444787D01*
X138430400Y-114432527D01*
X137851130Y-114432527D01*
X137603602Y-114185000D01*
X141815001Y-114185000D01*
X141815001Y-117989346D01*
G37*
X141815001Y-117989346D02*
X141689302Y-117863647D01*
X141529886Y-117732818D01*
X141287195Y-117603097D01*
X141023859Y-117523214D01*
X140750000Y-117496241D01*
X140476141Y-117523214D01*
X140212805Y-117603097D01*
X139970114Y-117732818D01*
X139757393Y-117907393D01*
X139722086Y-117950414D01*
X139694180Y-117935498D01*
X139574482Y-117899188D01*
X139450000Y-117886928D01*
X139135750Y-117890000D01*
X138977002Y-118048748D01*
X138977002Y-117890000D01*
X138955927Y-117890000D01*
X138960937Y-117883895D01*
X139019902Y-117773581D01*
X139056212Y-117653883D01*
X139068472Y-117529401D01*
X139068472Y-116970601D01*
X139056212Y-116846119D01*
X139019902Y-116726421D01*
X138960937Y-116616107D01*
X138881585Y-116519416D01*
X138784894Y-116440064D01*
X138674580Y-116381099D01*
X138554882Y-116344789D01*
X138430400Y-116332529D01*
X137407330Y-116332529D01*
X137342272Y-116267471D01*
X138430400Y-116267471D01*
X138554882Y-116255211D01*
X138674580Y-116218901D01*
X138784894Y-116159936D01*
X138881585Y-116080584D01*
X138960937Y-115983893D01*
X139019902Y-115873579D01*
X139056212Y-115753881D01*
X139068472Y-115629399D01*
X139068472Y-115070599D01*
X139056212Y-114946117D01*
X139019902Y-114826419D01*
X138960937Y-114716105D01*
X138881585Y-114619414D01*
X138784894Y-114540062D01*
X138674580Y-114481097D01*
X138554882Y-114444787D01*
X138430400Y-114432527D01*
X137851130Y-114432527D01*
X137603602Y-114185000D01*
X141815001Y-114185000D01*
X141815001Y-117989346D01*
G36*
X132452001Y-117538001D02*
G01*
X132472001Y-117538001D01*
X132472001Y-117792001D01*
X132452001Y-117792001D01*
X132452001Y-117812001D01*
X132198001Y-117812001D01*
X132198001Y-117792001D01*
X132178001Y-117792001D01*
X132178001Y-117538001D01*
X132198001Y-117538001D01*
X132198001Y-117518001D01*
X132452001Y-117518001D01*
X132452001Y-117538001D01*
G37*
X132452001Y-117538001D02*
X132472001Y-117538001D01*
X132472001Y-117792001D01*
X132452001Y-117792001D01*
X132452001Y-117812001D01*
X132198001Y-117812001D01*
X132198001Y-117792001D01*
X132178001Y-117792001D01*
X132178001Y-117538001D01*
X132198001Y-117538001D01*
X132198001Y-117518001D01*
X132452001Y-117518001D01*
X132452001Y-117538001D01*
G36*
X135453200Y-117377001D02*
G01*
X135433200Y-117377001D01*
X135433200Y-117397001D01*
X135179200Y-117397001D01*
X135179200Y-117377001D01*
X135159200Y-117377001D01*
X135159200Y-117217472D01*
X135453200Y-117217472D01*
X135453200Y-117377001D01*
G37*
X135453200Y-117377001D02*
X135433200Y-117377001D01*
X135433200Y-117397001D01*
X135179200Y-117397001D01*
X135179200Y-117377001D01*
X135159200Y-117377001D01*
X135159200Y-117217472D01*
X135453200Y-117217472D01*
X135453200Y-117377001D01*
%TD*%
M02*
