G04 #@! TF.GenerationSoftware,KiCad,Pcbnew,(5.1.6-0-10_14)*
G04 #@! TF.CreationDate,2021-12-08T11:09:57+09:00*
G04 #@! TF.ProjectId,photo-single,70686f74-6f2d-4736-996e-676c652e6b69,rev?*
G04 #@! TF.SameCoordinates,Original*
G04 #@! TF.FileFunction,Soldermask,Top*
G04 #@! TF.FilePolarity,Negative*
%FSLAX46Y46*%
G04 Gerber Fmt 4.6, Leading zero omitted, Abs format (unit mm)*
G04 Created by KiCad (PCBNEW (5.1.6-0-10_14)) date 2021-12-08 11:09:57*
%MOMM*%
%LPD*%
G01*
G04 APERTURE LIST*
%ADD10C,0.475000*%
%ADD11O,1.700000X1.700000*%
%ADD12R,1.700000X1.700000*%
%ADD13R,1.600000X1.000000*%
%ADD14R,1.200000X0.900000*%
%ADD15R,1.250000X0.300000*%
%ADD16R,3.000000X2.400000*%
G04 APERTURE END LIST*
D10*
X167400000Y-126000000D02*
G75*
G03*
X167400000Y-126000000I-400000J0D01*
G01*
X95400000Y-124500000D02*
G75*
G03*
X95400000Y-124500000I-400000J0D01*
G01*
X94400000Y-73000000D02*
G75*
G03*
X94400000Y-73000000I-400000J0D01*
G01*
X167400000Y-74000000D02*
G75*
G03*
X167400000Y-74000000I-400000J0D01*
G01*
D11*
X180905000Y-124628000D03*
X183445000Y-124628000D03*
X185985000Y-124628000D03*
X188525000Y-124628000D03*
X191065000Y-124628000D03*
X193605000Y-124628000D03*
X196145000Y-124628000D03*
X198685000Y-124628000D03*
X201225000Y-124628000D03*
D12*
X203765000Y-124628000D03*
D13*
X162921211Y-89002066D03*
X162921211Y-92002066D03*
X108921211Y-111001633D03*
X108921211Y-108001633D03*
X162921211Y-108001633D03*
X162921211Y-111001633D03*
X160921211Y-111001633D03*
X160921211Y-108001633D03*
X153921211Y-108001633D03*
X153921211Y-111001633D03*
X151921211Y-111001633D03*
X151921211Y-108001633D03*
X144921211Y-108001633D03*
X144921211Y-111001633D03*
X142921211Y-111001633D03*
X142921211Y-108001633D03*
X135921211Y-108001633D03*
X135921211Y-111001633D03*
X117921211Y-111001633D03*
X117921211Y-108001633D03*
X106921211Y-108001633D03*
X106921211Y-111001633D03*
X115921211Y-108001633D03*
X115921211Y-111001633D03*
X126921211Y-111001633D03*
X126921211Y-108001633D03*
X124921211Y-108001633D03*
X124921211Y-111001633D03*
X99921211Y-111001633D03*
X99921211Y-108001633D03*
X133921211Y-111001633D03*
X133921211Y-108001633D03*
X97921211Y-108001633D03*
X97921211Y-111001633D03*
X160921211Y-92002066D03*
X160921211Y-89002066D03*
X99921211Y-92002066D03*
X99921211Y-89002066D03*
X135921211Y-89002066D03*
X135921211Y-92002066D03*
X115921211Y-89002066D03*
X115921211Y-92002066D03*
X117921211Y-92002066D03*
X117921211Y-89002066D03*
X142921211Y-92002066D03*
X142921211Y-89002066D03*
X106921211Y-89002066D03*
X106921211Y-92002066D03*
X124921211Y-89002066D03*
X124921211Y-92002066D03*
X133921211Y-92002066D03*
X133921211Y-89002066D03*
X126921211Y-92002066D03*
X126921211Y-89002066D03*
X153921211Y-89002066D03*
X153921211Y-92002066D03*
X144921211Y-89002066D03*
X144921211Y-92002066D03*
X151921211Y-92002066D03*
X151921211Y-89002066D03*
X97921211Y-89002066D03*
X97921211Y-92002066D03*
X108921211Y-92002066D03*
X108921211Y-89002066D03*
D14*
X176600000Y-95000000D03*
X174400000Y-95000000D03*
D15*
X202074000Y-115770000D03*
X202074000Y-115270000D03*
X202074000Y-114770000D03*
X202074000Y-114270000D03*
X202074000Y-113770000D03*
X202074000Y-113270000D03*
X202074000Y-112770000D03*
X202074000Y-112270000D03*
X202074000Y-111770000D03*
X202074000Y-111270000D03*
X202074000Y-110770000D03*
X202074000Y-110270000D03*
X202074000Y-109770000D03*
X202074000Y-109270000D03*
X202074000Y-108770000D03*
X202074000Y-108270000D03*
X202074000Y-107770000D03*
X202074000Y-107270000D03*
X202074000Y-106770000D03*
X202074000Y-106270000D03*
X202074000Y-105770000D03*
X202074000Y-105270000D03*
X202074000Y-104770000D03*
X202074000Y-104270000D03*
X202074000Y-103770000D03*
X202074000Y-103270000D03*
X202074000Y-102770000D03*
X202074000Y-102270000D03*
X202074000Y-101770000D03*
X202074000Y-101270000D03*
X202074000Y-100770000D03*
X202074000Y-100270000D03*
X202074000Y-99770000D03*
X202074000Y-99270000D03*
X202074000Y-98770000D03*
X202074000Y-98270000D03*
X202074000Y-97770000D03*
X202074000Y-97270000D03*
X202074000Y-96770000D03*
X202074000Y-96270000D03*
X202074000Y-95770000D03*
X202074000Y-95270000D03*
X202074000Y-94770000D03*
X202074000Y-94270000D03*
X202074000Y-93770000D03*
X202074000Y-93270000D03*
X202074000Y-92770000D03*
X202074000Y-92270000D03*
X202074000Y-91770000D03*
X202074000Y-91270000D03*
X202074000Y-90770000D03*
X202074000Y-90270000D03*
X202074000Y-89770000D03*
X202074000Y-89270000D03*
X202074000Y-88770000D03*
X202074000Y-88270000D03*
X202074000Y-87770000D03*
X202074000Y-87270000D03*
X202074000Y-86770000D03*
X202074000Y-86270000D03*
D16*
X204399000Y-117570000D03*
X204399000Y-84470000D03*
D12*
X180905000Y-75372000D03*
D11*
X183445000Y-75372000D03*
X185985000Y-75372000D03*
X188525000Y-75372000D03*
X191065000Y-75372000D03*
X193605000Y-75372000D03*
X196145000Y-75372000D03*
X198685000Y-75372000D03*
X201225000Y-75372000D03*
X203765000Y-75372000D03*
M02*
