%TF.GenerationSoftware,KiCad,Pcbnew,(5.1.6-0-10_14)*%
%TF.CreationDate,2020-09-19T09:16:02+09:00*%
%TF.ProjectId,qPCR-main,71504352-2d6d-4616-996e-2e6b69636164,rev?*%
%TF.SameCoordinates,Original*%
%TF.FileFunction,Paste,Top*%
%TF.FilePolarity,Positive*%
%FSLAX46Y46*%
G04 Gerber Fmt 4.6, Leading zero omitted, Abs format (unit mm)*
G04 Created by KiCad (PCBNEW (5.1.6-0-10_14)) date 2020-09-19 09:16:02*
%MOMM*%
%LPD*%
G01*
G04 APERTURE LIST*
%ADD10C,0.152400*%
%ADD11R,1.200000X0.900000*%
%ADD12R,1.600000X3.500000*%
%ADD13R,3.500000X1.600000*%
%ADD14R,1.250000X1.500000*%
%ADD15R,1.500000X1.250000*%
%ADD16R,0.750000X1.200000*%
%ADD17R,1.200000X0.750000*%
%ADD18R,1.500000X4.000000*%
%ADD19R,1.320800X0.558800*%
%ADD20R,0.900000X1.200000*%
%ADD21R,0.600000X1.550000*%
%ADD22R,0.705000X0.705000*%
%ADD23R,0.279400X1.333500*%
%ADD24R,2.946400X1.752600*%
%ADD25R,2.000000X3.800000*%
%ADD26R,2.000000X1.500000*%
%ADD27R,1.473200X0.558800*%
%ADD28R,1.120000X0.270000*%
G04 APERTURE END LIST*
D10*
%TO.C,U4*%
X109932800Y-88301500D02*
X108659600Y-88301500D01*
X108659600Y-88301500D02*
X108659600Y-89854100D01*
X108659600Y-89854100D02*
X109932800Y-89854100D01*
X109932800Y-89854100D02*
X109932800Y-88301500D01*
X108459600Y-88301500D02*
X107186400Y-88301500D01*
X107186400Y-88301500D02*
X107186400Y-89854100D01*
X107186400Y-89854100D02*
X108459600Y-89854100D01*
X108459600Y-89854100D02*
X108459600Y-88301500D01*
%TD*%
D11*
%TO.C,R16*%
X141562000Y-88900000D03*
X139362000Y-88900000D03*
%TD*%
D12*
%TO.C,C1*%
X101269800Y-113886000D03*
X101269800Y-119286000D03*
%TD*%
D13*
%TO.C,C2*%
X111005600Y-102895400D03*
X105605600Y-102895400D03*
%TD*%
D14*
%TO.C,C3*%
X120319800Y-116972400D03*
X120319800Y-114472400D03*
%TD*%
D13*
%TO.C,C4*%
X105605600Y-109982000D03*
X111005600Y-109982000D03*
%TD*%
D15*
%TO.C,C5*%
X107122600Y-98501200D03*
X104622600Y-98501200D03*
%TD*%
D14*
%TO.C,C6*%
X122174000Y-116972400D03*
X122174000Y-114472400D03*
%TD*%
%TO.C,C7*%
X101142800Y-107888400D03*
X101142800Y-110388400D03*
%TD*%
D15*
%TO.C,C8*%
X107122600Y-96621600D03*
X104622600Y-96621600D03*
%TD*%
D14*
%TO.C,C9*%
X124028200Y-116972400D03*
X124028200Y-114472400D03*
%TD*%
%TO.C,C10*%
X99288600Y-107893800D03*
X99288600Y-110393800D03*
%TD*%
D15*
%TO.C,C11*%
X107122600Y-94742000D03*
X104622600Y-94742000D03*
%TD*%
D16*
%TO.C,C12*%
X125653800Y-116215200D03*
X125653800Y-114315200D03*
%TD*%
D14*
%TO.C,C13*%
X97459800Y-107893800D03*
X97459800Y-110393800D03*
%TD*%
D17*
%TO.C,C14*%
X106385400Y-93091000D03*
X104485400Y-93091000D03*
%TD*%
D16*
%TO.C,C15*%
X95859600Y-107736600D03*
X95859600Y-109636600D03*
%TD*%
D12*
%TO.C,C16*%
X94361000Y-119286000D03*
X94361000Y-113886000D03*
%TD*%
D17*
%TO.C,C18*%
X111470400Y-83667600D03*
X113370400Y-83667600D03*
%TD*%
D16*
%TO.C,C19*%
X125907800Y-109209800D03*
X125907800Y-111109800D03*
%TD*%
D15*
%TO.C,C20*%
X91369520Y-94815660D03*
X88869520Y-94815660D03*
%TD*%
%TO.C,C21*%
X107244200Y-84810600D03*
X104744200Y-84810600D03*
%TD*%
D14*
%TO.C,C22*%
X124282200Y-109367000D03*
X124282200Y-111867000D03*
%TD*%
D16*
%TO.C,C23*%
X122682000Y-109209800D03*
X122682000Y-111109800D03*
%TD*%
D14*
%TO.C,C24*%
X105105200Y-90327800D03*
X105105200Y-87827800D03*
%TD*%
D15*
%TO.C,C25*%
X90683400Y-110591600D03*
X88183400Y-110591600D03*
%TD*%
D16*
%TO.C,C26*%
X111709200Y-90307200D03*
X111709200Y-88407200D03*
%TD*%
D12*
%TO.C,C27*%
X108204000Y-120911600D03*
X108204000Y-115511600D03*
%TD*%
D14*
%TO.C,C28*%
X113055400Y-114472400D03*
X113055400Y-116972400D03*
%TD*%
%TO.C,C29*%
X114884200Y-114472400D03*
X114884200Y-116972400D03*
%TD*%
D16*
%TO.C,C30*%
X93078300Y-94785100D03*
X93078300Y-96685100D03*
%TD*%
D15*
%TO.C,C31*%
X109417800Y-95427800D03*
X111917800Y-95427800D03*
%TD*%
%TO.C,C32*%
X109417800Y-97256600D03*
X111917800Y-97256600D03*
%TD*%
D14*
%TO.C,C33*%
X80520540Y-110927200D03*
X80520540Y-108427200D03*
%TD*%
D15*
%TO.C,C34*%
X118902800Y-105130600D03*
X116402800Y-105130600D03*
%TD*%
D14*
%TO.C,C35*%
X78694280Y-110927200D03*
X78694280Y-108427200D03*
%TD*%
D15*
%TO.C,C36*%
X109677200Y-79019400D03*
X112177200Y-79019400D03*
%TD*%
%TO.C,C37*%
X118877400Y-103276400D03*
X116377400Y-103276400D03*
%TD*%
%TO.C,C38*%
X109671800Y-77165200D03*
X112171800Y-77165200D03*
%TD*%
D18*
%TO.C,L1*%
X86102600Y-109143800D03*
X82502600Y-109143800D03*
%TD*%
D19*
%TO.C,Q1*%
X141147800Y-96088200D03*
X141147800Y-97967800D03*
X143332200Y-97028000D03*
%TD*%
%TO.C,Q2*%
X141147800Y-101168200D03*
X141147800Y-103047800D03*
X143332200Y-102108000D03*
%TD*%
%TO.C,Q3*%
X141147800Y-106248200D03*
X141147800Y-108127800D03*
X143332200Y-107188000D03*
%TD*%
%TO.C,Q4*%
X141147800Y-111328200D03*
X141147800Y-113207800D03*
X143332200Y-112268000D03*
%TD*%
%TO.C,Q5*%
X141147800Y-121488200D03*
X141147800Y-123367800D03*
X143332200Y-122428000D03*
%TD*%
%TO.C,Q6*%
X141147800Y-116408200D03*
X141147800Y-118287800D03*
X143332200Y-117348000D03*
%TD*%
D20*
%TO.C,R1*%
X137668000Y-95928000D03*
X137668000Y-98128000D03*
%TD*%
%TO.C,R2*%
X137668000Y-101008000D03*
X137668000Y-103208000D03*
%TD*%
%TO.C,R3*%
X137668000Y-106088000D03*
X137668000Y-108288000D03*
%TD*%
%TO.C,R4*%
X139446000Y-98128000D03*
X139446000Y-95928000D03*
%TD*%
%TO.C,R5*%
X139446000Y-103208000D03*
X139446000Y-101008000D03*
%TD*%
%TO.C,R6*%
X139446000Y-108288000D03*
X139446000Y-106088000D03*
%TD*%
D11*
%TO.C,R7*%
X63416000Y-53825140D03*
X65616000Y-53825140D03*
%TD*%
D20*
%TO.C,R8*%
X137668000Y-111168000D03*
X137668000Y-113368000D03*
%TD*%
%TO.C,R9*%
X137668000Y-121328000D03*
X137668000Y-123528000D03*
%TD*%
%TO.C,R10*%
X137668000Y-116248000D03*
X137668000Y-118448000D03*
%TD*%
%TO.C,R11*%
X139446000Y-113368000D03*
X139446000Y-111168000D03*
%TD*%
%TO.C,R12*%
X139446000Y-123528000D03*
X139446000Y-121328000D03*
%TD*%
%TO.C,R13*%
X139446000Y-118448000D03*
X139446000Y-116248000D03*
%TD*%
D11*
%TO.C,R14*%
X141562000Y-83566000D03*
X139362000Y-83566000D03*
%TD*%
%TO.C,R15*%
X141562000Y-90678000D03*
X139362000Y-90678000D03*
%TD*%
%TO.C,R17*%
X141562000Y-85344000D03*
X139362000Y-85344000D03*
%TD*%
%TO.C,R18*%
X141562000Y-92456000D03*
X139362000Y-92456000D03*
%TD*%
%TO.C,R19*%
X141562000Y-87122000D03*
X139362000Y-87122000D03*
%TD*%
%TO.C,R20*%
X141562000Y-81788000D03*
X139362000Y-81788000D03*
%TD*%
%TO.C,R22*%
X111574400Y-93497400D03*
X113774400Y-93497400D03*
%TD*%
%TO.C,R23*%
X111777600Y-91973400D03*
X113977600Y-91973400D03*
%TD*%
%TO.C,R24*%
X94655460Y-94640400D03*
X96855460Y-94640400D03*
%TD*%
%TO.C,R25*%
X96855460Y-96164400D03*
X94655460Y-96164400D03*
%TD*%
%TO.C,R26*%
X94655460Y-97688400D03*
X96855460Y-97688400D03*
%TD*%
%TO.C,R27*%
X111480600Y-80721200D03*
X113680600Y-80721200D03*
%TD*%
%TO.C,R28*%
X113547800Y-82219800D03*
X115747800Y-82219800D03*
%TD*%
D21*
%TO.C,U2*%
X131318000Y-109415600D03*
X130048000Y-109415600D03*
X128778000Y-109415600D03*
X127508000Y-109415600D03*
X127508000Y-114815600D03*
X128778000Y-114815600D03*
X130048000Y-114815600D03*
X131318000Y-114815600D03*
D22*
X128825500Y-112703100D03*
X130000500Y-112703100D03*
X128825500Y-111528100D03*
X130000500Y-111528100D03*
%TD*%
D21*
%TO.C,U3*%
X95915480Y-100060780D03*
X94645480Y-100060780D03*
X93375480Y-100060780D03*
X92105480Y-100060780D03*
X92105480Y-105460780D03*
X93375480Y-105460780D03*
X94645480Y-105460780D03*
X95915480Y-105460780D03*
D22*
X93422980Y-103348280D03*
X94597980Y-103348280D03*
X93422980Y-102173280D03*
X94597980Y-102173280D03*
%TD*%
D23*
%TO.C,U4*%
X110310930Y-86861650D03*
X109810550Y-86861650D03*
X109310170Y-86861650D03*
X108809790Y-86861650D03*
X108309410Y-86861650D03*
X107809030Y-86861650D03*
X107308650Y-86861650D03*
X106808270Y-86861650D03*
X106808270Y-91293950D03*
X107308650Y-91293950D03*
X107809030Y-91293950D03*
X108309410Y-91293950D03*
X108809790Y-91293950D03*
X109310170Y-91293950D03*
X109810550Y-91293950D03*
X110310930Y-91293950D03*
D24*
X108559600Y-89077800D03*
%TD*%
D25*
%TO.C,U5*%
X120701200Y-109753400D03*
D26*
X114401200Y-109753400D03*
X114401200Y-112053400D03*
X114401200Y-107453400D03*
%TD*%
D27*
%TO.C,U6*%
X141706600Y-61127599D03*
X141706600Y-62077600D03*
X141706600Y-63027601D03*
X144094200Y-63027601D03*
X144094200Y-61127599D03*
%TD*%
D28*
%TO.C,U7*%
X147820000Y-61327600D03*
X147820000Y-61827600D03*
X147820000Y-62327600D03*
X147820000Y-62827600D03*
X150630000Y-62827600D03*
X150630000Y-62327600D03*
X150630000Y-61827600D03*
X150630000Y-61327600D03*
%TD*%
D11*
%TO.C,R21*%
X111472800Y-85090000D03*
X113672800Y-85090000D03*
%TD*%
M02*
