G04 #@! TF.GenerationSoftware,KiCad,Pcbnew,(5.1.6-0-10_14)*
G04 #@! TF.CreationDate,2021-12-16T11:14:58+09:00*
G04 #@! TF.ProjectId,qPCR-5VUPS,71504352-2d35-4565-9550-532e6b696361,rev?*
G04 #@! TF.SameCoordinates,Original*
G04 #@! TF.FileFunction,Copper,L1,Top*
G04 #@! TF.FilePolarity,Positive*
%FSLAX46Y46*%
G04 Gerber Fmt 4.6, Leading zero omitted, Abs format (unit mm)*
G04 Created by KiCad (PCBNEW (5.1.6-0-10_14)) date 2021-12-16 11:14:58*
%MOMM*%
%LPD*%
G01*
G04 APERTURE LIST*
G04 #@! TA.AperFunction,NonConductor*
%ADD10C,0.100000*%
G04 #@! TD*
G04 #@! TA.AperFunction,ComponentPad*
%ADD11O,1.700000X1.700000*%
G04 #@! TD*
G04 #@! TA.AperFunction,ComponentPad*
%ADD12R,1.700000X1.700000*%
G04 #@! TD*
G04 #@! TA.AperFunction,SMDPad,CuDef*
%ADD13R,2.500000X1.000000*%
G04 #@! TD*
G04 #@! TA.AperFunction,SMDPad,CuDef*
%ADD14R,0.800000X0.750000*%
G04 #@! TD*
G04 #@! TA.AperFunction,SMDPad,CuDef*
%ADD15R,1.000000X2.500000*%
G04 #@! TD*
G04 #@! TA.AperFunction,SMDPad,CuDef*
%ADD16R,1.900000X5.100000*%
G04 #@! TD*
G04 #@! TA.AperFunction,SMDPad,CuDef*
%ADD17R,2.100000X5.100000*%
G04 #@! TD*
G04 #@! TA.AperFunction,SMDPad,CuDef*
%ADD18R,0.500000X0.900000*%
G04 #@! TD*
G04 #@! TA.AperFunction,SMDPad,CuDef*
%ADD19R,1.505000X0.802000*%
G04 #@! TD*
G04 #@! TA.AperFunction,SMDPad,CuDef*
%ADD20R,2.500000X3.500000*%
G04 #@! TD*
G04 #@! TA.AperFunction,ViaPad*
%ADD21C,0.800000*%
G04 #@! TD*
G04 #@! TA.AperFunction,Conductor*
%ADD22C,1.524000*%
G04 #@! TD*
G04 #@! TA.AperFunction,Conductor*
%ADD23C,0.762000*%
G04 #@! TD*
G04 #@! TA.AperFunction,Conductor*
%ADD24C,3.048000*%
G04 #@! TD*
G04 #@! TA.AperFunction,Conductor*
%ADD25C,0.250000*%
G04 #@! TD*
G04 #@! TA.AperFunction,Conductor*
%ADD26C,0.254000*%
G04 #@! TD*
G04 APERTURE END LIST*
D10*
G36*
X98000000Y-82500000D02*
G01*
X95000000Y-82500000D01*
X94300000Y-83100000D01*
X94300000Y-84700000D01*
X94800000Y-85100000D01*
X94800000Y-90300000D01*
X92400000Y-90300000D01*
X92400000Y-81700000D01*
X98000000Y-81700000D01*
X98000000Y-82500000D01*
G37*
X98000000Y-82500000D02*
X95000000Y-82500000D01*
X94300000Y-83100000D01*
X94300000Y-84700000D01*
X94800000Y-85100000D01*
X94800000Y-90300000D01*
X92400000Y-90300000D01*
X92400000Y-81700000D01*
X98000000Y-81700000D01*
X98000000Y-82500000D01*
G36*
X102000000Y-90700000D02*
G01*
X96600000Y-90700000D01*
X96600000Y-84700000D01*
X102000000Y-84700000D01*
X102000000Y-90700000D01*
G37*
X102000000Y-90700000D02*
X96600000Y-90700000D01*
X96600000Y-84700000D01*
X102000000Y-84700000D01*
X102000000Y-90700000D01*
G36*
X96300000Y-80200000D02*
G01*
X96600000Y-80500000D01*
X98000000Y-80500000D01*
X98000000Y-81200000D01*
X92300000Y-81200000D01*
X92300000Y-79800000D01*
X96300000Y-79800000D01*
X96300000Y-80200000D01*
G37*
X96300000Y-80200000D02*
X96600000Y-80500000D01*
X98000000Y-80500000D01*
X98000000Y-81200000D01*
X92300000Y-81200000D01*
X92300000Y-79800000D01*
X96300000Y-79800000D01*
X96300000Y-80200000D01*
D11*
X93600000Y-75440000D03*
D12*
X93600000Y-72900000D03*
X100500000Y-89500000D03*
D13*
X93600000Y-77300000D03*
X93600000Y-80300000D03*
D14*
X100480000Y-76850000D03*
X101980000Y-76850000D03*
X100480000Y-74750000D03*
X101980000Y-74750000D03*
X93850000Y-83800000D03*
X95350000Y-83800000D03*
D15*
X99900000Y-86300000D03*
X102900000Y-86300000D03*
D16*
X97800000Y-87600000D03*
D17*
X93600000Y-87600000D03*
D18*
X96950000Y-72600000D03*
X95450000Y-72600000D03*
X97580000Y-76850000D03*
X99080000Y-76850000D03*
X99080000Y-74750000D03*
X97580000Y-74750000D03*
X102650000Y-72600000D03*
X101150000Y-72600000D03*
X98250000Y-72600000D03*
X99750000Y-72600000D03*
D19*
X102297500Y-79595000D03*
X97302500Y-79595000D03*
X102297500Y-80865000D03*
X97302500Y-80865000D03*
X102297500Y-82135000D03*
X97302500Y-82135000D03*
X102297500Y-83405000D03*
X97302500Y-83405000D03*
D20*
X99800000Y-81500000D03*
D21*
X102970000Y-73710000D03*
X97580000Y-75590000D03*
X102820000Y-88380000D03*
X99800000Y-81500000D03*
X100730000Y-78680000D03*
X98880000Y-79050000D03*
X92810000Y-78510000D03*
X94090000Y-79150000D03*
X100030000Y-75780000D03*
X95700000Y-89950000D03*
X95820000Y-86010000D03*
X102970000Y-90280000D03*
X101270000Y-75860000D03*
X103397600Y-72560000D03*
X95450000Y-84830000D03*
X97077848Y-78383728D03*
X102720000Y-84440000D03*
X102840000Y-74750000D03*
X96920000Y-73770000D03*
X102190370Y-78310000D03*
X100430000Y-72600000D03*
X100540000Y-83960000D03*
D22*
X93600000Y-75440000D02*
X93600000Y-77300000D01*
D23*
X99800000Y-82422000D02*
X99800000Y-81500000D01*
X98817000Y-83405000D02*
X99800000Y-82422000D01*
X97302500Y-83405000D02*
X98817000Y-83405000D01*
X98250000Y-74080000D02*
X97580000Y-74750000D01*
X98250000Y-72600000D02*
X98250000Y-74080000D01*
X100480000Y-77110122D02*
X100480000Y-76850000D01*
X99756721Y-77833401D02*
X100480000Y-77110122D01*
X97580000Y-76850000D02*
X97580000Y-77010122D01*
X98403279Y-77833401D02*
X99756721Y-77833401D01*
X97580000Y-77010122D02*
X98403279Y-77833401D01*
X97580000Y-75590000D02*
X97580000Y-76850000D01*
X97580000Y-74750000D02*
X97580000Y-75590000D01*
X102900000Y-88300000D02*
X102820000Y-88380000D01*
X102900000Y-86300000D02*
X102900000Y-88300000D01*
D24*
X99100000Y-86300000D02*
X97800000Y-87600000D01*
X99900000Y-86300000D02*
X99100000Y-86300000D01*
X98600000Y-87600000D02*
X100273590Y-89273590D01*
X100273590Y-89273590D02*
X100500000Y-89273590D01*
X97800000Y-87600000D02*
X98600000Y-87600000D01*
X100273590Y-87073590D02*
X100273590Y-89273590D01*
X99900000Y-86700000D02*
X100273590Y-87073590D01*
X99900000Y-86300000D02*
X99900000Y-86700000D01*
D25*
X103357600Y-72600000D02*
X103397600Y-72560000D01*
X102650000Y-72600000D02*
X103357600Y-72600000D01*
D22*
X95764401Y-78333677D02*
X95635599Y-78462479D01*
X95764401Y-75064401D02*
X95764401Y-78333677D01*
X95635599Y-78462479D02*
X95635599Y-80200000D01*
D23*
X95535599Y-80300000D02*
X95635599Y-80200000D01*
X93600000Y-80300000D02*
X95535599Y-80300000D01*
X96100599Y-80865000D02*
X95535599Y-80300000D01*
X97302500Y-80865000D02*
X96100599Y-80865000D01*
X95450000Y-72600000D02*
X94375000Y-73675000D01*
D22*
X94375000Y-73675000D02*
X95764401Y-75064401D01*
X93600000Y-72900000D02*
X94375000Y-73675000D01*
D25*
X101512969Y-77317031D02*
X101512969Y-79152969D01*
X101980000Y-76850000D02*
X101512969Y-77317031D01*
X101955000Y-79595000D02*
X102297500Y-79595000D01*
X101512969Y-79152969D02*
X101955000Y-79595000D01*
X95350000Y-84730000D02*
X95450000Y-84830000D01*
X95350000Y-83800000D02*
X95350000Y-84730000D01*
X97077848Y-79370348D02*
X97302500Y-79595000D01*
X97077848Y-78383728D02*
X97077848Y-79370348D01*
D23*
X97302500Y-82135000D02*
X94365000Y-82135000D01*
X93600000Y-82900000D02*
X93600000Y-87600000D01*
X94365000Y-82135000D02*
X93600000Y-82900000D01*
D25*
X103300000Y-82135000D02*
X103672590Y-82507590D01*
X102297500Y-82135000D02*
X103300000Y-82135000D01*
X103672590Y-82507590D02*
X103672590Y-84167410D01*
X103400000Y-84440000D02*
X102720000Y-84440000D01*
X103672590Y-84167410D02*
X103400000Y-84440000D01*
X102840000Y-74750000D02*
X101980000Y-74750000D01*
X99080000Y-74750000D02*
X99080000Y-76850000D01*
X100480000Y-74750000D02*
X99080000Y-74750000D01*
X96950000Y-73740000D02*
X96920000Y-73770000D01*
X96950000Y-72600000D02*
X96950000Y-73740000D01*
X102756055Y-78310000D02*
X103327401Y-78881346D01*
X103327401Y-78881346D02*
X103327401Y-80222599D01*
X102190370Y-78310000D02*
X102756055Y-78310000D01*
X102685000Y-80865000D02*
X102297500Y-80865000D01*
X103327401Y-80222599D02*
X102685000Y-80865000D01*
X101150000Y-72600000D02*
X100430000Y-72600000D01*
X99750000Y-72600000D02*
X100430000Y-72600000D01*
X102297500Y-83405000D02*
X101985000Y-83405000D01*
X101430000Y-83960000D02*
X100540000Y-83960000D01*
X101985000Y-83405000D02*
X101430000Y-83960000D01*
D26*
G36*
X95915000Y-86546582D02*
G01*
X95795693Y-86769789D01*
X95672239Y-87176762D01*
X95630554Y-87600000D01*
X95672239Y-88023238D01*
X95795693Y-88430211D01*
X95915000Y-88653418D01*
X95915000Y-90315000D01*
X95484323Y-90315000D01*
X95484933Y-90309564D01*
X95484965Y-90304950D01*
X95484983Y-90304782D01*
X95484968Y-90304614D01*
X95485000Y-90300000D01*
X95485000Y-85865000D01*
X95551939Y-85865000D01*
X95751898Y-85825226D01*
X95915000Y-85757666D01*
X95915000Y-86546582D01*
G37*
X95915000Y-86546582D02*
X95795693Y-86769789D01*
X95672239Y-87176762D01*
X95630554Y-87600000D01*
X95672239Y-88023238D01*
X95795693Y-88430211D01*
X95915000Y-88653418D01*
X95915000Y-90315000D01*
X95484323Y-90315000D01*
X95484933Y-90309564D01*
X95484965Y-90304950D01*
X95484983Y-90304782D01*
X95484968Y-90304614D01*
X95485000Y-90300000D01*
X95485000Y-85865000D01*
X95551939Y-85865000D01*
X95751898Y-85825226D01*
X95915000Y-85757666D01*
X95915000Y-86546582D01*
G36*
X103027000Y-86173000D02*
G01*
X103047000Y-86173000D01*
X103047000Y-86427000D01*
X103027000Y-86427000D01*
X103027000Y-88026250D01*
X103185750Y-88185000D01*
X103315001Y-88186853D01*
X103315001Y-90315000D01*
X102685000Y-90315000D01*
X102685000Y-88114250D01*
X102773000Y-88026250D01*
X102773000Y-86427000D01*
X102753000Y-86427000D01*
X102753000Y-86173000D01*
X102773000Y-86173000D01*
X102773000Y-86153000D01*
X103027000Y-86153000D01*
X103027000Y-86173000D01*
G37*
X103027000Y-86173000D02*
X103047000Y-86173000D01*
X103047000Y-86427000D01*
X103027000Y-86427000D01*
X103027000Y-88026250D01*
X103185750Y-88185000D01*
X103315001Y-88186853D01*
X103315001Y-90315000D01*
X102685000Y-90315000D01*
X102685000Y-88114250D01*
X102773000Y-88026250D01*
X102773000Y-86427000D01*
X102753000Y-86427000D01*
X102753000Y-86173000D01*
X102773000Y-86173000D01*
X102773000Y-86153000D01*
X103027000Y-86153000D01*
X103027000Y-86173000D01*
G36*
X97429500Y-83278000D02*
G01*
X97449500Y-83278000D01*
X97449500Y-83532000D01*
X97429500Y-83532000D01*
X97429500Y-83552000D01*
X97175500Y-83552000D01*
X97175500Y-83532000D01*
X97155500Y-83532000D01*
X97155500Y-83278000D01*
X97175500Y-83278000D01*
X97175500Y-83258000D01*
X97429500Y-83258000D01*
X97429500Y-83278000D01*
G37*
X97429500Y-83278000D02*
X97449500Y-83278000D01*
X97449500Y-83532000D01*
X97429500Y-83532000D01*
X97429500Y-83552000D01*
X97175500Y-83552000D01*
X97175500Y-83532000D01*
X97155500Y-83532000D01*
X97155500Y-83278000D01*
X97175500Y-83278000D01*
X97175500Y-83258000D01*
X97429500Y-83258000D01*
X97429500Y-83278000D01*
G36*
X101335820Y-75714502D02*
G01*
X101455518Y-75750812D01*
X101580000Y-75763072D01*
X102380000Y-75763072D01*
X102504482Y-75750812D01*
X102531674Y-75742563D01*
X102538102Y-75745226D01*
X102738061Y-75785000D01*
X102941939Y-75785000D01*
X103141898Y-75745226D01*
X103315000Y-75673524D01*
X103315000Y-77793083D01*
X103296056Y-77769999D01*
X103180331Y-77675026D01*
X103048302Y-77604454D01*
X102918278Y-77565012D01*
X102969502Y-77469180D01*
X103005812Y-77349482D01*
X103018072Y-77225000D01*
X103018072Y-76475000D01*
X103005812Y-76350518D01*
X102969502Y-76230820D01*
X102910537Y-76120506D01*
X102831185Y-76023815D01*
X102734494Y-75944463D01*
X102624180Y-75885498D01*
X102504482Y-75849188D01*
X102380000Y-75836928D01*
X101580000Y-75836928D01*
X101455518Y-75849188D01*
X101335820Y-75885498D01*
X101230000Y-75942061D01*
X101124180Y-75885498D01*
X101004482Y-75849188D01*
X100880000Y-75836928D01*
X100765750Y-75840000D01*
X100607000Y-75998750D01*
X100607000Y-76723000D01*
X100627000Y-76723000D01*
X100627000Y-76977000D01*
X100607000Y-76977000D01*
X100607000Y-77701250D01*
X100752969Y-77847219D01*
X100752970Y-79112874D01*
X100085750Y-79115000D01*
X99927000Y-79273750D01*
X99927000Y-81373000D01*
X99947000Y-81373000D01*
X99947000Y-81627000D01*
X99927000Y-81627000D01*
X99927000Y-81647000D01*
X99673000Y-81647000D01*
X99673000Y-81627000D01*
X99653000Y-81627000D01*
X99653000Y-81373000D01*
X99673000Y-81373000D01*
X99673000Y-79273750D01*
X99514250Y-79115000D01*
X98685031Y-79112358D01*
X98680812Y-79069518D01*
X98644502Y-78949820D01*
X98585537Y-78839506D01*
X98506185Y-78742815D01*
X98409494Y-78663463D01*
X98299180Y-78604498D01*
X98179482Y-78568188D01*
X98098029Y-78560166D01*
X98112848Y-78485667D01*
X98112848Y-78281789D01*
X98073074Y-78081830D01*
X98002576Y-77911633D01*
X98086318Y-77884326D01*
X98195389Y-77823093D01*
X98290419Y-77741758D01*
X98329895Y-77691575D01*
X98378815Y-77751185D01*
X98475506Y-77830537D01*
X98585820Y-77889502D01*
X98705518Y-77925812D01*
X98830000Y-77938072D01*
X99330000Y-77938072D01*
X99454482Y-77925812D01*
X99574180Y-77889502D01*
X99684494Y-77830537D01*
X99756013Y-77771843D01*
X99835820Y-77814502D01*
X99955518Y-77850812D01*
X100080000Y-77863072D01*
X100194250Y-77860000D01*
X100353000Y-77701250D01*
X100353000Y-76977000D01*
X100333000Y-76977000D01*
X100333000Y-76723000D01*
X100353000Y-76723000D01*
X100353000Y-75998750D01*
X100194250Y-75840000D01*
X100080000Y-75836928D01*
X99955518Y-75849188D01*
X99840000Y-75884230D01*
X99840000Y-75715770D01*
X99955518Y-75750812D01*
X100080000Y-75763072D01*
X100880000Y-75763072D01*
X101004482Y-75750812D01*
X101124180Y-75714502D01*
X101230000Y-75657939D01*
X101335820Y-75714502D01*
G37*
X101335820Y-75714502D02*
X101455518Y-75750812D01*
X101580000Y-75763072D01*
X102380000Y-75763072D01*
X102504482Y-75750812D01*
X102531674Y-75742563D01*
X102538102Y-75745226D01*
X102738061Y-75785000D01*
X102941939Y-75785000D01*
X103141898Y-75745226D01*
X103315000Y-75673524D01*
X103315000Y-77793083D01*
X103296056Y-77769999D01*
X103180331Y-77675026D01*
X103048302Y-77604454D01*
X102918278Y-77565012D01*
X102969502Y-77469180D01*
X103005812Y-77349482D01*
X103018072Y-77225000D01*
X103018072Y-76475000D01*
X103005812Y-76350518D01*
X102969502Y-76230820D01*
X102910537Y-76120506D01*
X102831185Y-76023815D01*
X102734494Y-75944463D01*
X102624180Y-75885498D01*
X102504482Y-75849188D01*
X102380000Y-75836928D01*
X101580000Y-75836928D01*
X101455518Y-75849188D01*
X101335820Y-75885498D01*
X101230000Y-75942061D01*
X101124180Y-75885498D01*
X101004482Y-75849188D01*
X100880000Y-75836928D01*
X100765750Y-75840000D01*
X100607000Y-75998750D01*
X100607000Y-76723000D01*
X100627000Y-76723000D01*
X100627000Y-76977000D01*
X100607000Y-76977000D01*
X100607000Y-77701250D01*
X100752969Y-77847219D01*
X100752970Y-79112874D01*
X100085750Y-79115000D01*
X99927000Y-79273750D01*
X99927000Y-81373000D01*
X99947000Y-81373000D01*
X99947000Y-81627000D01*
X99927000Y-81627000D01*
X99927000Y-81647000D01*
X99673000Y-81647000D01*
X99673000Y-81627000D01*
X99653000Y-81627000D01*
X99653000Y-81373000D01*
X99673000Y-81373000D01*
X99673000Y-79273750D01*
X99514250Y-79115000D01*
X98685031Y-79112358D01*
X98680812Y-79069518D01*
X98644502Y-78949820D01*
X98585537Y-78839506D01*
X98506185Y-78742815D01*
X98409494Y-78663463D01*
X98299180Y-78604498D01*
X98179482Y-78568188D01*
X98098029Y-78560166D01*
X98112848Y-78485667D01*
X98112848Y-78281789D01*
X98073074Y-78081830D01*
X98002576Y-77911633D01*
X98086318Y-77884326D01*
X98195389Y-77823093D01*
X98290419Y-77741758D01*
X98329895Y-77691575D01*
X98378815Y-77751185D01*
X98475506Y-77830537D01*
X98585820Y-77889502D01*
X98705518Y-77925812D01*
X98830000Y-77938072D01*
X99330000Y-77938072D01*
X99454482Y-77925812D01*
X99574180Y-77889502D01*
X99684494Y-77830537D01*
X99756013Y-77771843D01*
X99835820Y-77814502D01*
X99955518Y-77850812D01*
X100080000Y-77863072D01*
X100194250Y-77860000D01*
X100353000Y-77701250D01*
X100353000Y-76977000D01*
X100333000Y-76977000D01*
X100333000Y-76723000D01*
X100353000Y-76723000D01*
X100353000Y-75998750D01*
X100194250Y-75840000D01*
X100080000Y-75836928D01*
X99955518Y-75849188D01*
X99840000Y-75884230D01*
X99840000Y-75715770D01*
X99955518Y-75750812D01*
X100080000Y-75763072D01*
X100880000Y-75763072D01*
X101004482Y-75750812D01*
X101124180Y-75714502D01*
X101230000Y-75657939D01*
X101335820Y-75714502D01*
G36*
X93727000Y-75313000D02*
G01*
X93747000Y-75313000D01*
X93747000Y-75567000D01*
X93727000Y-75567000D01*
X93727000Y-77173000D01*
X93747000Y-77173000D01*
X93747000Y-77427000D01*
X93727000Y-77427000D01*
X93727000Y-78276250D01*
X93885750Y-78435000D01*
X94234437Y-78436111D01*
X94231840Y-78462479D01*
X94238599Y-78531104D01*
X94238599Y-79115000D01*
X92685000Y-79115000D01*
X92685000Y-78437005D01*
X93314250Y-78435000D01*
X93473000Y-78276250D01*
X93473000Y-77427000D01*
X93453000Y-77427000D01*
X93453000Y-77173000D01*
X93473000Y-77173000D01*
X93473000Y-75567000D01*
X93453000Y-75567000D01*
X93453000Y-75313000D01*
X93473000Y-75313000D01*
X93473000Y-75293000D01*
X93727000Y-75293000D01*
X93727000Y-75313000D01*
G37*
X93727000Y-75313000D02*
X93747000Y-75313000D01*
X93747000Y-75567000D01*
X93727000Y-75567000D01*
X93727000Y-77173000D01*
X93747000Y-77173000D01*
X93747000Y-77427000D01*
X93727000Y-77427000D01*
X93727000Y-78276250D01*
X93885750Y-78435000D01*
X94234437Y-78436111D01*
X94231840Y-78462479D01*
X94238599Y-78531104D01*
X94238599Y-79115000D01*
X92685000Y-79115000D01*
X92685000Y-78437005D01*
X93314250Y-78435000D01*
X93473000Y-78276250D01*
X93473000Y-77427000D01*
X93453000Y-77427000D01*
X93453000Y-77173000D01*
X93473000Y-77173000D01*
X93473000Y-75567000D01*
X93453000Y-75567000D01*
X93453000Y-75313000D01*
X93473000Y-75313000D01*
X93473000Y-75293000D01*
X93727000Y-75293000D01*
X93727000Y-75313000D01*
G36*
X97703000Y-74623000D02*
G01*
X97727000Y-74623000D01*
X97727000Y-74877000D01*
X97703000Y-74877000D01*
X97703000Y-75676250D01*
X97826750Y-75800000D01*
X97703000Y-75923750D01*
X97703000Y-76723000D01*
X97727000Y-76723000D01*
X97727000Y-76977000D01*
X97703000Y-76977000D01*
X97703000Y-76997000D01*
X97457000Y-76997000D01*
X97457000Y-76977000D01*
X97433000Y-76977000D01*
X97433000Y-76723000D01*
X97457000Y-76723000D01*
X97457000Y-75923750D01*
X97333250Y-75800000D01*
X97457000Y-75676250D01*
X97457000Y-74877000D01*
X97433000Y-74877000D01*
X97433000Y-74672008D01*
X97536278Y-74603000D01*
X97703000Y-74603000D01*
X97703000Y-74623000D01*
G37*
X97703000Y-74623000D02*
X97727000Y-74623000D01*
X97727000Y-74877000D01*
X97703000Y-74877000D01*
X97703000Y-75676250D01*
X97826750Y-75800000D01*
X97703000Y-75923750D01*
X97703000Y-76723000D01*
X97727000Y-76723000D01*
X97727000Y-76977000D01*
X97703000Y-76977000D01*
X97703000Y-76997000D01*
X97457000Y-76997000D01*
X97457000Y-76977000D01*
X97433000Y-76977000D01*
X97433000Y-76723000D01*
X97457000Y-76723000D01*
X97457000Y-75923750D01*
X97333250Y-75800000D01*
X97457000Y-75676250D01*
X97457000Y-74877000D01*
X97433000Y-74877000D01*
X97433000Y-74672008D01*
X97536278Y-74603000D01*
X97703000Y-74603000D01*
X97703000Y-74623000D01*
G36*
X98373000Y-72473000D02*
G01*
X98397000Y-72473000D01*
X98397000Y-72727000D01*
X98373000Y-72727000D01*
X98373000Y-73526250D01*
X98531750Y-73685000D01*
X98637397Y-73673104D01*
X98756318Y-73634326D01*
X98865389Y-73573093D01*
X98960419Y-73491758D01*
X98999895Y-73441575D01*
X99048815Y-73501185D01*
X99145506Y-73580537D01*
X99255820Y-73639502D01*
X99329749Y-73661928D01*
X98830000Y-73661928D01*
X98705518Y-73674188D01*
X98585820Y-73710498D01*
X98475506Y-73769463D01*
X98378815Y-73848815D01*
X98329895Y-73908425D01*
X98290419Y-73858242D01*
X98195389Y-73776907D01*
X98086318Y-73715674D01*
X97974151Y-73679099D01*
X98127000Y-73526250D01*
X98127000Y-72727000D01*
X98103000Y-72727000D01*
X98103000Y-72473000D01*
X98127000Y-72473000D01*
X98127000Y-72453000D01*
X98373000Y-72453000D01*
X98373000Y-72473000D01*
G37*
X98373000Y-72473000D02*
X98397000Y-72473000D01*
X98397000Y-72727000D01*
X98373000Y-72727000D01*
X98373000Y-73526250D01*
X98531750Y-73685000D01*
X98637397Y-73673104D01*
X98756318Y-73634326D01*
X98865389Y-73573093D01*
X98960419Y-73491758D01*
X98999895Y-73441575D01*
X99048815Y-73501185D01*
X99145506Y-73580537D01*
X99255820Y-73639502D01*
X99329749Y-73661928D01*
X98830000Y-73661928D01*
X98705518Y-73674188D01*
X98585820Y-73710498D01*
X98475506Y-73769463D01*
X98378815Y-73848815D01*
X98329895Y-73908425D01*
X98290419Y-73858242D01*
X98195389Y-73776907D01*
X98086318Y-73715674D01*
X97974151Y-73679099D01*
X98127000Y-73526250D01*
X98127000Y-72727000D01*
X98103000Y-72727000D01*
X98103000Y-72473000D01*
X98127000Y-72473000D01*
X98127000Y-72453000D01*
X98373000Y-72453000D01*
X98373000Y-72473000D01*
M02*
