%TF.GenerationSoftware,KiCad,Pcbnew,(5.1.6-0-10_14)*%
%TF.CreationDate,2020-09-19T09:16:03+09:00*%
%TF.ProjectId,qPCR-main,71504352-2d6d-4616-996e-2e6b69636164,rev?*%
%TF.SameCoordinates,Original*%
%TF.FileFunction,Profile,NP*%
%FSLAX46Y46*%
G04 Gerber Fmt 4.6, Leading zero omitted, Abs format (unit mm)*
G04 Created by KiCad (PCBNEW (5.1.6-0-10_14)) date 2020-09-19 09:16:03*
%MOMM*%
%LPD*%
G01*
G04 APERTURE LIST*
%TA.AperFunction,Profile*%
%ADD10C,0.100000*%
%TD*%
G04 APERTURE END LIST*
D10*
X62020000Y-43180000D02*
G75*
G02*
X61020000Y-42180000I0J1000000D01*
G01*
X60020000Y-37180000D02*
G75*
G02*
X61020000Y-38180000I0J-1000000D01*
G01*
X55020000Y-38180000D02*
G75*
G02*
X56020000Y-37180000I1000000J0D01*
G01*
X149020000Y-42180000D02*
G75*
G02*
X148020000Y-43180000I-1000000J0D01*
G01*
X149020000Y-38180000D02*
G75*
G02*
X150020000Y-37180000I1000000J0D01*
G01*
X154020000Y-37180000D02*
G75*
G02*
X155020000Y-38180000I0J-1000000D01*
G01*
X155020000Y-130984000D02*
G75*
G02*
X154020000Y-131984000I-1000000J0D01*
G01*
X150020000Y-131984000D02*
G75*
G02*
X149020000Y-130984000I0J1000000D01*
G01*
X148020000Y-125984000D02*
G75*
G02*
X149020000Y-126984000I0J-1000000D01*
G01*
X61020000Y-126984000D02*
G75*
G02*
X62020000Y-125984000I1000000J0D01*
G01*
X61020000Y-130984000D02*
G75*
G02*
X60020000Y-131984000I-1000000J0D01*
G01*
X56020000Y-131984000D02*
G75*
G02*
X55020000Y-130984000I0J1000000D01*
G01*
X61020000Y-130984000D02*
X61020000Y-126984000D01*
X56020000Y-131984000D02*
X60020000Y-131984000D01*
X149020000Y-130984000D02*
X149020000Y-126984000D01*
X154020000Y-131984000D02*
X150020000Y-131984000D01*
X149020000Y-38180000D02*
X149020000Y-42180000D01*
X154020000Y-37180000D02*
X150020000Y-37180000D01*
X61020000Y-38180000D02*
X61020000Y-42180000D01*
X56020000Y-37180000D02*
X60020000Y-37180000D01*
X153620000Y-40180000D02*
G75*
G03*
X153620000Y-40180000I-1600000J0D01*
G01*
X153620000Y-128984000D02*
G75*
G03*
X153620000Y-128984000I-1600000J0D01*
G01*
X59620000Y-128984000D02*
G75*
G03*
X59620000Y-128984000I-1600000J0D01*
G01*
X59620000Y-40180000D02*
G75*
G03*
X59620000Y-40180000I-1600000J0D01*
G01*
X155020000Y-38180000D02*
X155020000Y-130984000D01*
X62020000Y-43180000D02*
X148020000Y-43180000D01*
X55020000Y-130984000D02*
X55020000Y-38180000D01*
X62020000Y-125984000D02*
X148020000Y-125984000D01*
M02*
