%TF.GenerationSoftware,KiCad,Pcbnew,(5.1.6-0-10_14)*%
%TF.CreationDate,2021-10-08T19:33:03+09:00*%
%TF.ProjectId,peltier+relay,70656c74-6965-4722-9b72-656c61792e6b,rev?*%
%TF.SameCoordinates,Original*%
%TF.FileFunction,Copper,L2,Bot*%
%TF.FilePolarity,Positive*%
%FSLAX46Y46*%
G04 Gerber Fmt 4.6, Leading zero omitted, Abs format (unit mm)*
G04 Created by KiCad (PCBNEW (5.1.6-0-10_14)) date 2021-10-08 19:33:03*
%MOMM*%
%LPD*%
G01*
G04 APERTURE LIST*
%TA.AperFunction,NonConductor*%
%ADD10C,0.100000*%
%TD*%
%TA.AperFunction,ComponentPad*%
%ADD11C,2.000000*%
%TD*%
%TA.AperFunction,ComponentPad*%
%ADD12O,1.700000X1.700000*%
%TD*%
%TA.AperFunction,ComponentPad*%
%ADD13R,1.700000X1.700000*%
%TD*%
%TA.AperFunction,ComponentPad*%
%ADD14R,3.500000X3.500000*%
%TD*%
%TA.AperFunction,ComponentPad*%
%ADD15C,2.700000*%
%TD*%
%TA.AperFunction,ComponentPad*%
%ADD16C,1.700000*%
%TD*%
%TA.AperFunction,ComponentPad*%
%ADD17C,2.108200*%
%TD*%
%TA.AperFunction,ComponentPad*%
%ADD18C,2.006600*%
%TD*%
%TA.AperFunction,ComponentPad*%
%ADD19C,1.701800*%
%TD*%
%TA.AperFunction,ComponentPad*%
%ADD20C,1.498600*%
%TD*%
%TA.AperFunction,ViaPad*%
%ADD21C,0.800000*%
%TD*%
%TA.AperFunction,Conductor*%
%ADD22C,1.000000*%
%TD*%
%TA.AperFunction,Conductor*%
%ADD23C,5.080000*%
%TD*%
%TA.AperFunction,Conductor*%
%ADD24C,0.750000*%
%TD*%
%TA.AperFunction,Conductor*%
%ADD25C,0.250000*%
%TD*%
%TA.AperFunction,Conductor*%
%ADD26C,0.254000*%
%TD*%
G04 APERTURE END LIST*
D10*
G36*
X95500000Y-87810000D02*
G01*
X92470000Y-87780000D01*
X92470000Y-84290000D01*
X95500000Y-84290000D01*
X95500000Y-87810000D01*
G37*
G36*
X95500000Y-92780000D02*
G01*
X92470000Y-92750000D01*
X92470000Y-89260000D01*
X95500000Y-89260000D01*
X95500000Y-92780000D01*
G37*
G36*
X89530000Y-92920000D02*
G01*
X87060000Y-92890000D01*
X87060000Y-89400000D01*
X89530000Y-89400000D01*
X89530000Y-92920000D01*
G37*
G36*
X89530000Y-87590000D02*
G01*
X87060000Y-87560000D01*
X87060000Y-84070000D01*
X89530000Y-84070000D01*
X89530000Y-87590000D01*
G37*
D11*
%TO.P,PEL1,2*%
%TO.N,/PEL_BLK*%
X104750000Y-99770000D03*
%TO.P,PEL1,1*%
%TO.N,Net-(J3-Pad2)*%
X104750000Y-96270000D03*
%TD*%
D12*
%TO.P,J1,2*%
%TO.N,/FB_RES_B*%
X162050000Y-107810000D03*
D13*
%TO.P,J1,1*%
%TO.N,Net-(J1-Pad1)*%
X159510000Y-107810000D03*
%TD*%
D12*
%TO.P,J2,3*%
%TO.N,/POT_RES_A*%
X155560000Y-112890000D03*
%TO.P,J2,2*%
%TO.N,REG_OUT*%
X155560000Y-110350000D03*
D13*
%TO.P,J2,1*%
%TO.N,Net-(J1-Pad1)*%
X155560000Y-107810000D03*
%TD*%
D14*
%TO.P,J6,1*%
%TO.N,12V*%
X170000000Y-104000000D03*
%TO.P,J6,2*%
%TO.N,GND*%
%TA.AperFunction,ComponentPad*%
G36*
G01*
X177500000Y-103000000D02*
X177500000Y-105000000D01*
G75*
G02*
X176750000Y-105750000I-750000J0D01*
G01*
X175250000Y-105750000D01*
G75*
G02*
X174500000Y-105000000I0J750000D01*
G01*
X174500000Y-103000000D01*
G75*
G02*
X175250000Y-102250000I750000J0D01*
G01*
X176750000Y-102250000D01*
G75*
G02*
X177500000Y-103000000I0J-750000D01*
G01*
G37*
%TD.AperFunction*%
%TO.P,J6,3*%
%TA.AperFunction,ComponentPad*%
G36*
G01*
X174750000Y-98425000D02*
X174750000Y-100175000D01*
G75*
G02*
X173875000Y-101050000I-875000J0D01*
G01*
X172125000Y-101050000D01*
G75*
G02*
X171250000Y-100175000I0J875000D01*
G01*
X171250000Y-98425000D01*
G75*
G02*
X172125000Y-97550000I875000J0D01*
G01*
X173875000Y-97550000D01*
G75*
G02*
X174750000Y-98425000I0J-875000D01*
G01*
G37*
%TD.AperFunction*%
%TD*%
%TO.P,J7,3*%
%TO.N,GND*%
%TA.AperFunction,ComponentPad*%
G36*
G01*
X174750000Y-84425000D02*
X174750000Y-86175000D01*
G75*
G02*
X173875000Y-87050000I-875000J0D01*
G01*
X172125000Y-87050000D01*
G75*
G02*
X171250000Y-86175000I0J875000D01*
G01*
X171250000Y-84425000D01*
G75*
G02*
X172125000Y-83550000I875000J0D01*
G01*
X173875000Y-83550000D01*
G75*
G02*
X174750000Y-84425000I0J-875000D01*
G01*
G37*
%TD.AperFunction*%
%TO.P,J7,2*%
%TA.AperFunction,ComponentPad*%
G36*
G01*
X177500000Y-89000000D02*
X177500000Y-91000000D01*
G75*
G02*
X176750000Y-91750000I-750000J0D01*
G01*
X175250000Y-91750000D01*
G75*
G02*
X174500000Y-91000000I0J750000D01*
G01*
X174500000Y-89000000D01*
G75*
G02*
X175250000Y-88250000I750000J0D01*
G01*
X176750000Y-88250000D01*
G75*
G02*
X177500000Y-89000000I0J-750000D01*
G01*
G37*
%TD.AperFunction*%
%TO.P,J7,1*%
%TO.N,12V*%
X170000000Y-90000000D03*
%TD*%
D15*
%TO.P,K1,1*%
%TO.N,/PEL_BLK*%
X139880000Y-109710000D03*
D16*
%TO.P,K1,2*%
%TO.N,12V*%
X143130000Y-107610000D03*
%TO.P,K1,3*%
%TO.N,/PEL1*%
X143130000Y-103110000D03*
D11*
%TO.P,K1,4*%
%TO.N,REG_OUT*%
X140780000Y-99610000D03*
D15*
%TO.P,K1,8*%
%TO.N,/PEL_RED*%
X135480000Y-89510000D03*
D16*
%TO.P,K1,7*%
%TO.N,/PEL3*%
X132230000Y-91610000D03*
%TO.P,K1,6*%
%TO.N,12V*%
X132230000Y-96110000D03*
D11*
%TO.P,K1,5*%
%TO.N,/PEL2*%
X131280000Y-99610000D03*
%TD*%
D17*
%TO.P,K2,10*%
%TO.N,/PEL2*%
X114830000Y-98720000D03*
D18*
%TO.P,K2,9*%
%TO.N,REG_OUT*%
X114230000Y-94220000D03*
D19*
%TO.P,K2,8*%
%TO.N,/PEL3*%
X118780000Y-93420000D03*
D20*
%TO.P,K2,7*%
%TO.N,12V*%
X122180000Y-93420000D03*
D17*
%TO.P,K2,6*%
%TO.N,/PEL_RED*%
X124130000Y-96070000D03*
%TO.P,K2,5*%
%TO.N,REG_OUT*%
X122130000Y-100220000D03*
D18*
%TO.P,K2,4*%
%TO.N,/PEL2*%
X122730000Y-104720000D03*
D19*
%TO.P,K2,3*%
%TO.N,/PEL1*%
X118780000Y-105520000D03*
D20*
%TO.P,K2,2*%
%TO.N,12V*%
X115380000Y-105520000D03*
D17*
%TO.P,K2,1*%
%TO.N,/PEL_BLK*%
X113430000Y-102870000D03*
%TD*%
D12*
%TO.P,J4,2*%
%TO.N,GND*%
X151000000Y-112890000D03*
D13*
%TO.P,J4,1*%
%TO.N,REG_OUT*%
X151000000Y-110350000D03*
%TD*%
D12*
%TO.P,J8,3*%
%TO.N,PEL_PWM*%
X162690010Y-83330008D03*
%TO.P,J8,2*%
%TO.N,PEL_SWB*%
X165230010Y-83330008D03*
D13*
%TO.P,J8,1*%
%TO.N,PEL_SWA*%
X167770010Y-83330008D03*
%TD*%
%TO.P,J9,1*%
%TO.N,/con1*%
X88000000Y-91000000D03*
%TD*%
%TO.P,J10,1*%
%TO.N,/con2*%
X94000000Y-86000000D03*
%TD*%
%TO.P,J11,1*%
%TO.N,/con1*%
X88000000Y-86000000D03*
%TD*%
%TO.P,J12,1*%
%TO.N,/con2*%
X94000000Y-91000000D03*
%TD*%
D12*
%TO.P,J5,5*%
%TO.N,GND*%
X176160000Y-110500000D03*
%TO.P,J5,4*%
%TO.N,I2C_SDA*%
X173620000Y-110500000D03*
%TO.P,J5,3*%
%TO.N,I2C_SCL*%
X171080000Y-110500000D03*
%TO.P,J5,2*%
%TO.N,3V3*%
X168540000Y-110500000D03*
D13*
%TO.P,J5,1*%
%TO.N,5V*%
X166000000Y-110500000D03*
%TD*%
D12*
%TO.P,J3,2*%
%TO.N,Net-(J3-Pad2)*%
X103940000Y-92160000D03*
D13*
%TO.P,J3,1*%
%TO.N,/PEL_RED*%
X106480000Y-92160000D03*
%TD*%
D21*
%TO.N,12V*%
X145860000Y-86010000D03*
%TO.N,/FB_RES_B*%
X166849786Y-92743581D03*
%TO.N,GND*%
X162940000Y-109790000D03*
X156330000Y-85280000D03*
X156330000Y-88890000D03*
X102000000Y-102960000D03*
X100560000Y-82780000D03*
X100320000Y-89240000D03*
X105600000Y-82780000D03*
X104380000Y-89450000D03*
X103020000Y-85450000D03*
X106600000Y-87090000D03*
X109790000Y-82830000D03*
X112080000Y-84800000D03*
X118890000Y-82520000D03*
X116290000Y-84600000D03*
X111030000Y-93030000D03*
X110980000Y-95700000D03*
X108100000Y-97470000D03*
X107160000Y-96010000D03*
X109120000Y-95290000D03*
X105930000Y-93930000D03*
X99850000Y-98750000D03*
X101000000Y-100790000D03*
X99700000Y-103110000D03*
X100720000Y-106740000D03*
X99730000Y-113490000D03*
X99840000Y-110160000D03*
X104200000Y-113500000D03*
X102790000Y-110840000D03*
X104870000Y-108190000D03*
X106860000Y-106770000D03*
X110540000Y-110500000D03*
X106740000Y-110780000D03*
X108860000Y-113750000D03*
X114140000Y-113350000D03*
X119600000Y-113240000D03*
X126430000Y-113440000D03*
X133750000Y-113310000D03*
X140290000Y-113430000D03*
X143220000Y-109430000D03*
X147050000Y-113480000D03*
X144570000Y-111620000D03*
X147250000Y-111090000D03*
X153520000Y-112660000D03*
X145500000Y-107350000D03*
X140410000Y-106440000D03*
X143250000Y-104880000D03*
X145500000Y-102800000D03*
X135470000Y-95960000D03*
X137250000Y-97520000D03*
X130760000Y-94770000D03*
X127200000Y-98610000D03*
X121050000Y-95590000D03*
X118520000Y-97210000D03*
X117820000Y-103820000D03*
X119650000Y-102980000D03*
X118600000Y-100710000D03*
X140150000Y-83400000D03*
X142300000Y-85570000D03*
X144330000Y-83380000D03*
X144210000Y-90500000D03*
X144110000Y-95780000D03*
X149710000Y-90620000D03*
X149580000Y-96860000D03*
X146820000Y-93190000D03*
X154410000Y-98570000D03*
X157940000Y-98570000D03*
X166470000Y-89780000D03*
X166120000Y-91650000D03*
X158970000Y-89980000D03*
X157980000Y-91270000D03*
X158440000Y-92410000D03*
X171250000Y-82610000D03*
X177040000Y-82730000D03*
X176270000Y-86610000D03*
X173370000Y-88090000D03*
X168020000Y-85420000D03*
X173770000Y-92620000D03*
X177190000Y-95070000D03*
X175890000Y-98400000D03*
X177200000Y-101220000D03*
X173640000Y-102300000D03*
X168000000Y-106730000D03*
X171000000Y-108130000D03*
X172920000Y-106140000D03*
X174980000Y-109190000D03*
X177060000Y-107420000D03*
X176300000Y-112870000D03*
X171380000Y-113310000D03*
X167370000Y-113370000D03*
X160530000Y-110620000D03*
X159000000Y-109470000D03*
X157230000Y-109510000D03*
X157440000Y-113610000D03*
X157070000Y-111870000D03*
%TO.N,5V*%
X164910000Y-98744997D03*
%TO.N,PEL_PWM*%
X105430000Y-106890000D03*
%TD*%
D22*
%TO.N,/PEL1*%
X141862066Y-103110000D02*
X143130000Y-103110000D01*
X119850011Y-106590011D02*
X138382055Y-106590011D01*
X138382055Y-106590011D02*
X141862066Y-103110000D01*
X118780000Y-105520000D02*
X119850011Y-106590011D01*
D23*
%TO.N,12V*%
X170000000Y-95437602D02*
X168509990Y-96927612D01*
X170000000Y-90000000D02*
X170000000Y-95437602D01*
X168509990Y-101672388D02*
X168509990Y-96927612D01*
X170000000Y-103162398D02*
X168509990Y-101672388D01*
X170000000Y-104000000D02*
X170000000Y-103162398D01*
D24*
X122180000Y-93420000D02*
X131280000Y-93420000D01*
X132230000Y-94370000D02*
X132230000Y-96110000D01*
X131280000Y-93420000D02*
X132230000Y-94370000D01*
X120890334Y-93420000D02*
X122180000Y-93420000D01*
X119464433Y-94845901D02*
X120890334Y-93420000D01*
X118009388Y-94845901D02*
X119464433Y-94845901D01*
X116459101Y-96396188D02*
X118009388Y-94845901D01*
X116459101Y-104440899D02*
X116459101Y-96396188D01*
X115380000Y-105520000D02*
X116459101Y-104440899D01*
D22*
%TO.N,/PEL3*%
X131869301Y-91970699D02*
X132230000Y-91610000D01*
X120229301Y-91970699D02*
X131869301Y-91970699D01*
X118780000Y-93420000D02*
X120229301Y-91970699D01*
D24*
%TO.N,12V*%
X145860000Y-83954999D02*
X145860000Y-86010000D01*
X167835000Y-87835000D02*
X165166752Y-87835000D01*
X160586752Y-83254999D02*
X146560000Y-83254999D01*
X165166752Y-87835000D02*
X160586752Y-83254999D01*
X146560000Y-83254999D02*
X145860000Y-83954999D01*
X170000000Y-90000000D02*
X167835000Y-87835000D01*
D23*
%TO.N,/PEL_BLK*%
X111890699Y-103845135D02*
X113147917Y-102587917D01*
X114405834Y-109710000D02*
X111890699Y-107194865D01*
X111890699Y-107194865D02*
X111890699Y-103845135D01*
X104990001Y-100010001D02*
X104750000Y-100010001D01*
X108825135Y-103845135D02*
X104990001Y-100010001D01*
X111890699Y-103845135D02*
X108825135Y-103845135D01*
X118387934Y-109710000D02*
X118507955Y-109830021D01*
X114405834Y-109710000D02*
X118387934Y-109710000D01*
X139759979Y-109830021D02*
X139880000Y-109710000D01*
X118507955Y-109830021D02*
X139759979Y-109830021D01*
%TO.N,REG_OUT*%
X123770086Y-100220000D02*
X122130000Y-100220000D01*
X126900087Y-103350001D02*
X123770086Y-100220000D01*
X137039999Y-103350001D02*
X126900087Y-103350001D01*
X140780000Y-99610000D02*
X137039999Y-103350001D01*
X140780000Y-88756798D02*
X140780000Y-99610000D01*
X137443201Y-85419999D02*
X140780000Y-88756798D01*
X114230000Y-92655466D02*
X121465467Y-85419999D01*
X121465467Y-85419999D02*
X137443201Y-85419999D01*
X114230000Y-94220000D02*
X114230000Y-92655466D01*
D25*
%TO.N,/FB_RES_B*%
X163665001Y-109425001D02*
X162050000Y-107810000D01*
X163665001Y-110535001D02*
X163665001Y-109425001D01*
X165010000Y-111880000D02*
X163665001Y-110535001D01*
X165644980Y-95740887D02*
X165644980Y-102894980D01*
X166905002Y-111880000D02*
X165010000Y-111880000D01*
X167134990Y-109349988D02*
X167175001Y-109389999D01*
X167134990Y-104384990D02*
X167134990Y-109349988D01*
X165644980Y-102894980D02*
X167134990Y-104384990D01*
X167120000Y-94265867D02*
X165644980Y-95740887D01*
X167120000Y-93230000D02*
X167120000Y-94265867D01*
X167010000Y-93120000D02*
X167120000Y-93230000D01*
X167175001Y-111610001D02*
X166905002Y-111880000D01*
X167175001Y-109389999D02*
X167175001Y-111610001D01*
X167010000Y-93020000D02*
X167010000Y-93120000D01*
%TO.N,GND*%
X176000000Y-110340000D02*
X176160000Y-110500000D01*
X176000000Y-104000000D02*
X176000000Y-110340000D01*
X174984999Y-111675001D02*
X176160000Y-110500000D01*
X174329990Y-112330010D02*
X174984999Y-111675001D01*
X162940000Y-110446410D02*
X164823600Y-112330010D01*
X164823600Y-112330010D02*
X174329990Y-112330010D01*
X162940000Y-109790000D02*
X162940000Y-110446410D01*
X158664999Y-114065001D02*
X162940000Y-109790000D01*
D22*
X156330000Y-85280000D02*
X156330000Y-88890000D01*
D25*
X152175001Y-114065001D02*
X151000000Y-112890000D01*
X158664999Y-114065001D02*
X152175001Y-114065001D01*
D24*
X102000000Y-104903002D02*
X102000000Y-102960000D01*
X110042029Y-112945031D02*
X102000000Y-104903002D01*
X150944969Y-112945031D02*
X110042029Y-112945031D01*
X151000000Y-112890000D02*
X150944969Y-112945031D01*
D25*
X156670001Y-106634999D02*
X154449999Y-106634999D01*
X153520000Y-107564998D02*
X153520000Y-112660000D01*
X157230000Y-107194998D02*
X156670001Y-106634999D01*
X154449999Y-106634999D02*
X153520000Y-107564998D01*
X157230000Y-109510000D02*
X157230000Y-107194998D01*
X153290000Y-112890000D02*
X153520000Y-112660000D01*
X151000000Y-112890000D02*
X153290000Y-112890000D01*
%TO.N,5V*%
X166570000Y-110500000D02*
X166724991Y-110345009D01*
X166000000Y-110500000D02*
X166570000Y-110500000D01*
X166680000Y-109531408D02*
X166680000Y-104566410D01*
X166724991Y-109576399D02*
X166680000Y-109531408D01*
X166724991Y-110345009D02*
X166724991Y-109576399D01*
X166680000Y-104566410D02*
X165194970Y-103081380D01*
X165194970Y-103081380D02*
X165194970Y-99190000D01*
X165194970Y-99029967D02*
X164910000Y-98744997D01*
X165194970Y-99190000D02*
X165194970Y-99029967D01*
%TO.N,PEL_PWM*%
X105610000Y-104921736D02*
X105610000Y-106710000D01*
X103424999Y-95633999D02*
X103424999Y-97283267D01*
X104113999Y-94944999D02*
X103424999Y-95633999D01*
X105610000Y-106710000D02*
X105430000Y-106890000D01*
X107888732Y-94944999D02*
X104113999Y-94944999D01*
X101884990Y-101196726D02*
X105610000Y-104921736D01*
X120278742Y-82554989D02*
X107888732Y-94944999D01*
X101884990Y-98823276D02*
X101884990Y-101196726D01*
X103424999Y-97283267D02*
X101884990Y-98823276D01*
X161914991Y-82554989D02*
X120278742Y-82554989D01*
X162690010Y-83330008D02*
X161914991Y-82554989D01*
D22*
%TO.N,/con1*%
X88000000Y-85790000D02*
X88000000Y-92790000D01*
%TO.N,/con2*%
X94000000Y-85890000D02*
X94000000Y-92690000D01*
%TD*%
D26*
%TO.N,GND*%
G36*
X107573931Y-94184999D02*
G01*
X104151321Y-94184999D01*
X104113998Y-94181323D01*
X104076675Y-94184999D01*
X104076666Y-94184999D01*
X103965013Y-94195996D01*
X103821752Y-94239453D01*
X103689722Y-94310025D01*
X103620048Y-94367206D01*
X103573998Y-94404998D01*
X103550200Y-94433997D01*
X102914001Y-95070196D01*
X102884998Y-95093998D01*
X102834819Y-95155142D01*
X102790025Y-95209723D01*
X102757854Y-95269911D01*
X102719453Y-95341753D01*
X102675996Y-95485014D01*
X102664999Y-95596667D01*
X102664999Y-95596677D01*
X102661323Y-95633999D01*
X102664999Y-95671322D01*
X102665000Y-96968464D01*
X101373993Y-98259472D01*
X101344989Y-98283275D01*
X101313962Y-98321082D01*
X101250016Y-98399000D01*
X101179513Y-98530900D01*
X101179444Y-98531030D01*
X101135987Y-98674291D01*
X101124990Y-98785944D01*
X101124990Y-98785954D01*
X101121314Y-98823276D01*
X101124990Y-98860599D01*
X101124991Y-101159394D01*
X101121314Y-101196726D01*
X101124991Y-101234059D01*
X101130913Y-101294180D01*
X101135988Y-101345711D01*
X101179444Y-101488972D01*
X101250016Y-101621002D01*
X101305060Y-101688072D01*
X101344990Y-101736727D01*
X101373988Y-101760525D01*
X104850000Y-105236538D01*
X104850001Y-106032759D01*
X104770226Y-106086063D01*
X104626063Y-106230226D01*
X104512795Y-106399744D01*
X104434774Y-106588102D01*
X104395000Y-106788061D01*
X104395000Y-106991939D01*
X104434774Y-107191898D01*
X104512795Y-107380256D01*
X104626063Y-107549774D01*
X104770226Y-107693937D01*
X104939744Y-107807205D01*
X105128102Y-107885226D01*
X105328061Y-107925000D01*
X105531939Y-107925000D01*
X105731898Y-107885226D01*
X105920256Y-107807205D01*
X106089774Y-107693937D01*
X106233937Y-107549774D01*
X106347205Y-107380256D01*
X106425226Y-107191898D01*
X106465000Y-106991939D01*
X106465000Y-106788061D01*
X106425226Y-106588102D01*
X106370000Y-106454776D01*
X106370000Y-105880128D01*
X106469778Y-105979906D01*
X106569208Y-106101062D01*
X106933154Y-106399744D01*
X107052665Y-106497824D01*
X107604236Y-106792645D01*
X108202726Y-106974195D01*
X108715699Y-107024718D01*
X108715699Y-107038895D01*
X108700337Y-107194865D01*
X108715699Y-107350835D01*
X108715699Y-107350837D01*
X108761639Y-107817273D01*
X108943189Y-108415763D01*
X109238010Y-108967334D01*
X109634772Y-109450792D01*
X109755933Y-109550226D01*
X112050477Y-111844771D01*
X112149907Y-111965927D01*
X112633364Y-112362689D01*
X113184935Y-112657510D01*
X113783425Y-112839060D01*
X114249861Y-112885000D01*
X114249863Y-112885000D01*
X114405833Y-112900362D01*
X114561803Y-112885000D01*
X117641334Y-112885000D01*
X117885546Y-112959081D01*
X118351982Y-113005021D01*
X118351984Y-113005021D01*
X118507954Y-113020383D01*
X118663924Y-113005021D01*
X139604009Y-113005021D01*
X139759979Y-113020383D01*
X139915949Y-113005021D01*
X139915952Y-113005021D01*
X140382388Y-112959081D01*
X140980878Y-112777531D01*
X141532449Y-112482710D01*
X142015906Y-112085948D01*
X142115340Y-111964787D01*
X142235353Y-111844774D01*
X142532688Y-111482470D01*
X142827510Y-110930898D01*
X143009059Y-110332409D01*
X143070362Y-109710001D01*
X143049679Y-109500000D01*
X149511928Y-109500000D01*
X149511928Y-111200000D01*
X149524188Y-111324482D01*
X149560498Y-111444180D01*
X149619463Y-111554494D01*
X149698815Y-111651185D01*
X149795506Y-111730537D01*
X149905820Y-111789502D01*
X149986466Y-111813966D01*
X149902412Y-111889731D01*
X149728359Y-112123080D01*
X149603175Y-112385901D01*
X149558524Y-112533110D01*
X149679845Y-112763000D01*
X150873000Y-112763000D01*
X150873000Y-112743000D01*
X151127000Y-112743000D01*
X151127000Y-112763000D01*
X152320155Y-112763000D01*
X152441476Y-112533110D01*
X152396825Y-112385901D01*
X152271641Y-112123080D01*
X152097588Y-111889731D01*
X152013534Y-111813966D01*
X152094180Y-111789502D01*
X152204494Y-111730537D01*
X152301185Y-111651185D01*
X152380537Y-111554494D01*
X152439502Y-111444180D01*
X152475812Y-111324482D01*
X152488072Y-111200000D01*
X152488072Y-109500000D01*
X152475812Y-109375518D01*
X152439502Y-109255820D01*
X152380537Y-109145506D01*
X152301185Y-109048815D01*
X152204494Y-108969463D01*
X152094180Y-108910498D01*
X151974482Y-108874188D01*
X151850000Y-108861928D01*
X150150000Y-108861928D01*
X150025518Y-108874188D01*
X149905820Y-108910498D01*
X149795506Y-108969463D01*
X149698815Y-109048815D01*
X149619463Y-109145506D01*
X149560498Y-109255820D01*
X149524188Y-109375518D01*
X149511928Y-109500000D01*
X143049679Y-109500000D01*
X143009789Y-109095000D01*
X143276260Y-109095000D01*
X143563158Y-109037932D01*
X143833411Y-108925990D01*
X144076632Y-108763475D01*
X144283475Y-108556632D01*
X144445990Y-108313411D01*
X144557932Y-108043158D01*
X144615000Y-107756260D01*
X144615000Y-107463740D01*
X144557932Y-107176842D01*
X144445990Y-106906589D01*
X144283475Y-106663368D01*
X144076632Y-106456525D01*
X143833411Y-106294010D01*
X143563158Y-106182068D01*
X143276260Y-106125000D01*
X142983740Y-106125000D01*
X142696842Y-106182068D01*
X142426589Y-106294010D01*
X142183368Y-106456525D01*
X141976525Y-106663368D01*
X141814010Y-106906589D01*
X141726435Y-107118014D01*
X141652469Y-107057312D01*
X141100898Y-106762490D01*
X140502408Y-106580941D01*
X140041639Y-106535558D01*
X142261510Y-104315688D01*
X142426589Y-104425990D01*
X142696842Y-104537932D01*
X142983740Y-104595000D01*
X143276260Y-104595000D01*
X143563158Y-104537932D01*
X143833411Y-104425990D01*
X144076632Y-104263475D01*
X144283475Y-104056632D01*
X144445990Y-103813411D01*
X144557932Y-103543158D01*
X144615000Y-103256260D01*
X144615000Y-102963740D01*
X144557932Y-102676842D01*
X144445990Y-102406589D01*
X144283475Y-102163368D01*
X144076632Y-101956525D01*
X143833411Y-101794010D01*
X143563158Y-101682068D01*
X143276260Y-101625000D01*
X143233650Y-101625000D01*
X143314692Y-101526250D01*
X143432689Y-101382471D01*
X143727510Y-100830899D01*
X143732197Y-100815447D01*
X143909060Y-100232409D01*
X143955000Y-99765973D01*
X143955000Y-99765971D01*
X143970362Y-99610001D01*
X143955000Y-99454031D01*
X143955000Y-88912767D01*
X143970362Y-88756797D01*
X143932020Y-88367509D01*
X143909060Y-88134389D01*
X143727510Y-87535899D01*
X143432689Y-86984328D01*
X143035927Y-86500871D01*
X142914772Y-86401442D01*
X139828318Y-83314989D01*
X145078664Y-83314989D01*
X145016153Y-83391159D01*
X144922369Y-83566619D01*
X144922368Y-83566620D01*
X144864615Y-83757005D01*
X144845114Y-83954999D01*
X144850000Y-84004607D01*
X144850001Y-85782372D01*
X144825000Y-85908061D01*
X144825000Y-86111939D01*
X144864774Y-86311898D01*
X144942795Y-86500256D01*
X145056063Y-86669774D01*
X145200226Y-86813937D01*
X145369744Y-86927205D01*
X145558102Y-87005226D01*
X145758061Y-87045000D01*
X145961939Y-87045000D01*
X146161898Y-87005226D01*
X146350256Y-86927205D01*
X146519774Y-86813937D01*
X146663937Y-86669774D01*
X146777205Y-86500256D01*
X146855226Y-86311898D01*
X146895000Y-86111939D01*
X146895000Y-85908061D01*
X146870000Y-85782377D01*
X146870000Y-84373354D01*
X146978356Y-84264999D01*
X160168397Y-84264999D01*
X164417495Y-88514099D01*
X164449119Y-88552633D01*
X164602912Y-88678847D01*
X164748747Y-88756797D01*
X164778372Y-88772632D01*
X164968757Y-88830385D01*
X165166752Y-88849886D01*
X165216360Y-88845000D01*
X167032500Y-88845000D01*
X166870940Y-89377592D01*
X166825000Y-89844028D01*
X166825000Y-91708581D01*
X166747847Y-91708581D01*
X166547888Y-91748355D01*
X166359530Y-91826376D01*
X166190012Y-91939644D01*
X166045849Y-92083807D01*
X165932581Y-92253325D01*
X165854560Y-92441683D01*
X165814786Y-92641642D01*
X165814786Y-92845520D01*
X165854560Y-93045479D01*
X165932581Y-93233837D01*
X166045849Y-93403355D01*
X166190012Y-93547518D01*
X166359530Y-93660786D01*
X166360000Y-93660981D01*
X166360001Y-93951064D01*
X165133983Y-95177083D01*
X165104979Y-95200886D01*
X165052892Y-95264355D01*
X165010006Y-95316611D01*
X164960227Y-95409741D01*
X164939434Y-95448641D01*
X164895977Y-95591902D01*
X164884980Y-95703555D01*
X164884980Y-95703565D01*
X164881304Y-95740887D01*
X164884980Y-95778210D01*
X164884980Y-97709997D01*
X164808061Y-97709997D01*
X164608102Y-97749771D01*
X164419744Y-97827792D01*
X164250226Y-97941060D01*
X164106063Y-98085223D01*
X163992795Y-98254741D01*
X163914774Y-98443099D01*
X163875000Y-98643058D01*
X163875000Y-98846936D01*
X163914774Y-99046895D01*
X163992795Y-99235253D01*
X164106063Y-99404771D01*
X164250226Y-99548934D01*
X164419744Y-99662202D01*
X164434971Y-99668509D01*
X164434970Y-103044057D01*
X164431294Y-103081380D01*
X164434970Y-103118702D01*
X164434970Y-103118712D01*
X164445967Y-103230365D01*
X164481972Y-103349060D01*
X164489424Y-103373626D01*
X164559996Y-103505656D01*
X164593473Y-103546447D01*
X164654969Y-103621381D01*
X164683973Y-103645184D01*
X165920001Y-104881213D01*
X165920000Y-109011928D01*
X165150000Y-109011928D01*
X165025518Y-109024188D01*
X164905820Y-109060498D01*
X164795506Y-109119463D01*
X164698815Y-109198815D01*
X164619463Y-109295506D01*
X164560498Y-109405820D01*
X164524188Y-109525518D01*
X164511928Y-109650000D01*
X164511928Y-110307127D01*
X164425001Y-110220200D01*
X164425001Y-109462323D01*
X164428677Y-109425000D01*
X164425001Y-109387677D01*
X164425001Y-109387668D01*
X164414004Y-109276015D01*
X164370547Y-109132754D01*
X164299975Y-109000725D01*
X164205002Y-108885000D01*
X164176004Y-108861202D01*
X163491210Y-108176408D01*
X163535000Y-107956260D01*
X163535000Y-107663740D01*
X163477932Y-107376842D01*
X163365990Y-107106589D01*
X163203475Y-106863368D01*
X162996632Y-106656525D01*
X162753411Y-106494010D01*
X162483158Y-106382068D01*
X162196260Y-106325000D01*
X161903740Y-106325000D01*
X161616842Y-106382068D01*
X161346589Y-106494010D01*
X161103368Y-106656525D01*
X160971513Y-106788380D01*
X160949502Y-106715820D01*
X160890537Y-106605506D01*
X160811185Y-106508815D01*
X160714494Y-106429463D01*
X160604180Y-106370498D01*
X160484482Y-106334188D01*
X160360000Y-106321928D01*
X158660000Y-106321928D01*
X158535518Y-106334188D01*
X158415820Y-106370498D01*
X158305506Y-106429463D01*
X158208815Y-106508815D01*
X158129463Y-106605506D01*
X158070498Y-106715820D01*
X158034188Y-106835518D01*
X158021928Y-106960000D01*
X158021928Y-108660000D01*
X158034188Y-108784482D01*
X158070498Y-108904180D01*
X158129463Y-109014494D01*
X158208815Y-109111185D01*
X158305506Y-109190537D01*
X158415820Y-109249502D01*
X158535518Y-109285812D01*
X158660000Y-109298072D01*
X160360000Y-109298072D01*
X160484482Y-109285812D01*
X160604180Y-109249502D01*
X160714494Y-109190537D01*
X160811185Y-109111185D01*
X160890537Y-109014494D01*
X160949502Y-108904180D01*
X160971513Y-108831620D01*
X161103368Y-108963475D01*
X161346589Y-109125990D01*
X161616842Y-109237932D01*
X161903740Y-109295000D01*
X162196260Y-109295000D01*
X162416408Y-109251210D01*
X162905002Y-109739804D01*
X162905001Y-110497678D01*
X162901325Y-110535001D01*
X162905001Y-110572323D01*
X162905001Y-110572333D01*
X162915998Y-110683986D01*
X162941873Y-110769285D01*
X162959455Y-110827247D01*
X163030027Y-110959277D01*
X163069872Y-111007827D01*
X163125000Y-111075002D01*
X163154004Y-111098805D01*
X164446201Y-112391003D01*
X164469999Y-112420001D01*
X164585724Y-112514974D01*
X164717753Y-112585546D01*
X164861014Y-112629003D01*
X164972667Y-112640000D01*
X164972677Y-112640000D01*
X165010000Y-112643676D01*
X165047323Y-112640000D01*
X166867680Y-112640000D01*
X166905002Y-112643676D01*
X166942324Y-112640000D01*
X166942335Y-112640000D01*
X167053988Y-112629003D01*
X167197249Y-112585546D01*
X167329278Y-112514974D01*
X167445003Y-112420001D01*
X167468806Y-112390997D01*
X167685998Y-112173805D01*
X167715002Y-112150002D01*
X167809975Y-112034277D01*
X167880547Y-111902248D01*
X167898885Y-111841794D01*
X168106842Y-111927932D01*
X168393740Y-111985000D01*
X168686260Y-111985000D01*
X168973158Y-111927932D01*
X169243411Y-111815990D01*
X169486632Y-111653475D01*
X169693475Y-111446632D01*
X169810000Y-111272240D01*
X169926525Y-111446632D01*
X170133368Y-111653475D01*
X170376589Y-111815990D01*
X170646842Y-111927932D01*
X170933740Y-111985000D01*
X171226260Y-111985000D01*
X171513158Y-111927932D01*
X171783411Y-111815990D01*
X172026632Y-111653475D01*
X172233475Y-111446632D01*
X172350000Y-111272240D01*
X172466525Y-111446632D01*
X172673368Y-111653475D01*
X172916589Y-111815990D01*
X173186842Y-111927932D01*
X173473740Y-111985000D01*
X173766260Y-111985000D01*
X174053158Y-111927932D01*
X174323411Y-111815990D01*
X174566632Y-111653475D01*
X174773475Y-111446632D01*
X174895195Y-111264466D01*
X174964822Y-111381355D01*
X175159731Y-111597588D01*
X175393080Y-111771641D01*
X175655901Y-111896825D01*
X175803110Y-111941476D01*
X176033000Y-111820155D01*
X176033000Y-110627000D01*
X176013000Y-110627000D01*
X176013000Y-110373000D01*
X176033000Y-110373000D01*
X176033000Y-109179845D01*
X175803110Y-109058524D01*
X175655901Y-109103175D01*
X175393080Y-109228359D01*
X175159731Y-109402412D01*
X174964822Y-109618645D01*
X174895195Y-109735534D01*
X174773475Y-109553368D01*
X174566632Y-109346525D01*
X174323411Y-109184010D01*
X174053158Y-109072068D01*
X173766260Y-109015000D01*
X173473740Y-109015000D01*
X173186842Y-109072068D01*
X172916589Y-109184010D01*
X172673368Y-109346525D01*
X172466525Y-109553368D01*
X172350000Y-109727760D01*
X172233475Y-109553368D01*
X172026632Y-109346525D01*
X171783411Y-109184010D01*
X171513158Y-109072068D01*
X171226260Y-109015000D01*
X170933740Y-109015000D01*
X170646842Y-109072068D01*
X170376589Y-109184010D01*
X170133368Y-109346525D01*
X169926525Y-109553368D01*
X169810000Y-109727760D01*
X169693475Y-109553368D01*
X169486632Y-109346525D01*
X169243411Y-109184010D01*
X168973158Y-109072068D01*
X168686260Y-109015000D01*
X168393740Y-109015000D01*
X168106842Y-109072068D01*
X167898885Y-109158206D01*
X167894990Y-109145365D01*
X167894990Y-106379781D01*
X168227530Y-106652689D01*
X168779101Y-106947510D01*
X169377591Y-107129060D01*
X170000000Y-107190362D01*
X170622408Y-107129060D01*
X171220898Y-106947510D01*
X171772469Y-106652689D01*
X172255927Y-106255927D01*
X172652689Y-105772470D01*
X172664699Y-105750000D01*
X173861928Y-105750000D01*
X173874188Y-105874482D01*
X173910498Y-105994180D01*
X173969463Y-106104494D01*
X174048815Y-106201185D01*
X174145506Y-106280537D01*
X174255820Y-106339502D01*
X174375518Y-106375812D01*
X174500000Y-106388072D01*
X175714250Y-106385000D01*
X175873000Y-106226250D01*
X175873000Y-104127000D01*
X174023750Y-104127000D01*
X173865000Y-104285750D01*
X173861928Y-105750000D01*
X172664699Y-105750000D01*
X172947510Y-105220899D01*
X173129060Y-104622409D01*
X173175000Y-104155973D01*
X173175000Y-103318367D01*
X173190362Y-103162397D01*
X173170182Y-102957511D01*
X173129060Y-102539990D01*
X173009173Y-102144775D01*
X172947510Y-101941499D01*
X172776913Y-101622337D01*
X172873000Y-101526250D01*
X172873000Y-99427000D01*
X173127000Y-99427000D01*
X173127000Y-101526250D01*
X173285750Y-101685000D01*
X174206367Y-101686931D01*
X174145506Y-101719463D01*
X174048815Y-101798815D01*
X173969463Y-101895506D01*
X173910498Y-102005820D01*
X173874188Y-102125518D01*
X173861928Y-102250000D01*
X173865000Y-103714250D01*
X174023750Y-103873000D01*
X175873000Y-103873000D01*
X175873000Y-101773750D01*
X175714250Y-101615000D01*
X175043195Y-101613302D01*
X175104494Y-101580537D01*
X175201185Y-101501185D01*
X175280537Y-101404494D01*
X175339502Y-101294180D01*
X175375812Y-101174482D01*
X175388072Y-101050000D01*
X175385000Y-99585750D01*
X175226250Y-99427000D01*
X173127000Y-99427000D01*
X172873000Y-99427000D01*
X172853000Y-99427000D01*
X172853000Y-99173000D01*
X172873000Y-99173000D01*
X172873000Y-97073750D01*
X173127000Y-97073750D01*
X173127000Y-99173000D01*
X175226250Y-99173000D01*
X175385000Y-99014250D01*
X175388072Y-97550000D01*
X175375812Y-97425518D01*
X175339502Y-97305820D01*
X175280537Y-97195506D01*
X175201185Y-97098815D01*
X175104494Y-97019463D01*
X174994180Y-96960498D01*
X174874482Y-96924188D01*
X174750000Y-96911928D01*
X173285750Y-96915000D01*
X173127000Y-97073750D01*
X172873000Y-97073750D01*
X172776914Y-96977664D01*
X172947510Y-96658501D01*
X173129060Y-96060011D01*
X173175000Y-95593575D01*
X173175000Y-95593573D01*
X173190362Y-95437603D01*
X173175000Y-95281633D01*
X173175000Y-91750000D01*
X173861928Y-91750000D01*
X173874188Y-91874482D01*
X173910498Y-91994180D01*
X173969463Y-92104494D01*
X174048815Y-92201185D01*
X174145506Y-92280537D01*
X174255820Y-92339502D01*
X174375518Y-92375812D01*
X174500000Y-92388072D01*
X175714250Y-92385000D01*
X175873000Y-92226250D01*
X175873000Y-90127000D01*
X174023750Y-90127000D01*
X173865000Y-90285750D01*
X173861928Y-91750000D01*
X173175000Y-91750000D01*
X173175000Y-89844027D01*
X173129060Y-89377591D01*
X172947510Y-88779101D01*
X172652689Y-88227530D01*
X172255927Y-87744073D01*
X172185298Y-87686110D01*
X172714250Y-87685000D01*
X172873000Y-87526250D01*
X172873000Y-85427000D01*
X173127000Y-85427000D01*
X173127000Y-87526250D01*
X173285750Y-87685000D01*
X174206367Y-87686931D01*
X174145506Y-87719463D01*
X174048815Y-87798815D01*
X173969463Y-87895506D01*
X173910498Y-88005820D01*
X173874188Y-88125518D01*
X173861928Y-88250000D01*
X173865000Y-89714250D01*
X174023750Y-89873000D01*
X175873000Y-89873000D01*
X175873000Y-87773750D01*
X175714250Y-87615000D01*
X175043195Y-87613302D01*
X175104494Y-87580537D01*
X175201185Y-87501185D01*
X175280537Y-87404494D01*
X175339502Y-87294180D01*
X175375812Y-87174482D01*
X175388072Y-87050000D01*
X175385000Y-85585750D01*
X175226250Y-85427000D01*
X173127000Y-85427000D01*
X172873000Y-85427000D01*
X170773750Y-85427000D01*
X170615000Y-85585750D01*
X170612306Y-86869945D01*
X170000000Y-86809638D01*
X169377591Y-86870940D01*
X168779101Y-87052490D01*
X168584736Y-87156381D01*
X168584261Y-87155906D01*
X168552633Y-87117367D01*
X168398840Y-86991153D01*
X168223380Y-86897368D01*
X168032994Y-86839615D01*
X167884608Y-86825000D01*
X167835000Y-86820114D01*
X167785392Y-86825000D01*
X165585108Y-86825000D01*
X163401025Y-84640917D01*
X163636642Y-84483483D01*
X163843485Y-84276640D01*
X163960010Y-84102248D01*
X164076535Y-84276640D01*
X164283378Y-84483483D01*
X164526599Y-84645998D01*
X164796852Y-84757940D01*
X165083750Y-84815008D01*
X165376270Y-84815008D01*
X165663168Y-84757940D01*
X165933421Y-84645998D01*
X166176642Y-84483483D01*
X166308497Y-84351628D01*
X166330508Y-84424188D01*
X166389473Y-84534502D01*
X166468825Y-84631193D01*
X166565516Y-84710545D01*
X166675830Y-84769510D01*
X166795528Y-84805820D01*
X166920010Y-84818080D01*
X168620010Y-84818080D01*
X168744492Y-84805820D01*
X168864190Y-84769510D01*
X168974504Y-84710545D01*
X169071195Y-84631193D01*
X169150547Y-84534502D01*
X169209512Y-84424188D01*
X169245822Y-84304490D01*
X169258082Y-84180008D01*
X169258082Y-83550000D01*
X170611928Y-83550000D01*
X170615000Y-85014250D01*
X170773750Y-85173000D01*
X172873000Y-85173000D01*
X172873000Y-83073750D01*
X173127000Y-83073750D01*
X173127000Y-85173000D01*
X175226250Y-85173000D01*
X175385000Y-85014250D01*
X175388072Y-83550000D01*
X175375812Y-83425518D01*
X175339502Y-83305820D01*
X175280537Y-83195506D01*
X175201185Y-83098815D01*
X175104494Y-83019463D01*
X174994180Y-82960498D01*
X174874482Y-82924188D01*
X174750000Y-82911928D01*
X173285750Y-82915000D01*
X173127000Y-83073750D01*
X172873000Y-83073750D01*
X172714250Y-82915000D01*
X171250000Y-82911928D01*
X171125518Y-82924188D01*
X171005820Y-82960498D01*
X170895506Y-83019463D01*
X170798815Y-83098815D01*
X170719463Y-83195506D01*
X170660498Y-83305820D01*
X170624188Y-83425518D01*
X170611928Y-83550000D01*
X169258082Y-83550000D01*
X169258082Y-82480008D01*
X169257589Y-82475000D01*
X177486000Y-82475000D01*
X177486000Y-87611963D01*
X176285750Y-87615000D01*
X176127000Y-87773750D01*
X176127000Y-89873000D01*
X176147000Y-89873000D01*
X176147000Y-90127000D01*
X176127000Y-90127000D01*
X176127000Y-92226250D01*
X176285750Y-92385000D01*
X177486000Y-92388037D01*
X177486001Y-101611963D01*
X176285750Y-101615000D01*
X176127000Y-101773750D01*
X176127000Y-103873000D01*
X176147000Y-103873000D01*
X176147000Y-104127000D01*
X176127000Y-104127000D01*
X176127000Y-106226250D01*
X176285750Y-106385000D01*
X177486001Y-106388037D01*
X177486001Y-109838268D01*
X177355178Y-109618645D01*
X177160269Y-109402412D01*
X176926920Y-109228359D01*
X176664099Y-109103175D01*
X176516890Y-109058524D01*
X176287000Y-109179845D01*
X176287000Y-110373000D01*
X176307000Y-110373000D01*
X176307000Y-110627000D01*
X176287000Y-110627000D01*
X176287000Y-111820155D01*
X176516890Y-111941476D01*
X176664099Y-111896825D01*
X176926920Y-111771641D01*
X177160269Y-111597588D01*
X177355178Y-111381355D01*
X177486001Y-111161732D01*
X177486001Y-113835000D01*
X156714565Y-113835000D01*
X156875990Y-113593411D01*
X156987932Y-113323158D01*
X157045000Y-113036260D01*
X157045000Y-112743740D01*
X156987932Y-112456842D01*
X156875990Y-112186589D01*
X156713475Y-111943368D01*
X156506632Y-111736525D01*
X156332240Y-111620000D01*
X156506632Y-111503475D01*
X156713475Y-111296632D01*
X156875990Y-111053411D01*
X156987932Y-110783158D01*
X157045000Y-110496260D01*
X157045000Y-110203740D01*
X156987932Y-109916842D01*
X156875990Y-109646589D01*
X156713475Y-109403368D01*
X156581620Y-109271513D01*
X156654180Y-109249502D01*
X156764494Y-109190537D01*
X156861185Y-109111185D01*
X156940537Y-109014494D01*
X156999502Y-108904180D01*
X157035812Y-108784482D01*
X157048072Y-108660000D01*
X157048072Y-106960000D01*
X157035812Y-106835518D01*
X156999502Y-106715820D01*
X156940537Y-106605506D01*
X156861185Y-106508815D01*
X156764494Y-106429463D01*
X156654180Y-106370498D01*
X156534482Y-106334188D01*
X156410000Y-106321928D01*
X154710000Y-106321928D01*
X154585518Y-106334188D01*
X154465820Y-106370498D01*
X154355506Y-106429463D01*
X154258815Y-106508815D01*
X154179463Y-106605506D01*
X154120498Y-106715820D01*
X154084188Y-106835518D01*
X154071928Y-106960000D01*
X154071928Y-108660000D01*
X154084188Y-108784482D01*
X154120498Y-108904180D01*
X154179463Y-109014494D01*
X154258815Y-109111185D01*
X154355506Y-109190537D01*
X154465820Y-109249502D01*
X154538380Y-109271513D01*
X154406525Y-109403368D01*
X154244010Y-109646589D01*
X154132068Y-109916842D01*
X154075000Y-110203740D01*
X154075000Y-110496260D01*
X154132068Y-110783158D01*
X154244010Y-111053411D01*
X154406525Y-111296632D01*
X154613368Y-111503475D01*
X154787760Y-111620000D01*
X154613368Y-111736525D01*
X154406525Y-111943368D01*
X154244010Y-112186589D01*
X154132068Y-112456842D01*
X154075000Y-112743740D01*
X154075000Y-113036260D01*
X154132068Y-113323158D01*
X154244010Y-113593411D01*
X154405435Y-113835000D01*
X152138813Y-113835000D01*
X152271641Y-113656920D01*
X152396825Y-113394099D01*
X152441476Y-113246890D01*
X152320155Y-113017000D01*
X151127000Y-113017000D01*
X151127000Y-113037000D01*
X150873000Y-113037000D01*
X150873000Y-113017000D01*
X149679845Y-113017000D01*
X149558524Y-113246890D01*
X149603175Y-113394099D01*
X149728359Y-113656920D01*
X149861187Y-113835000D01*
X99185000Y-113835000D01*
X99185000Y-92013740D01*
X102455000Y-92013740D01*
X102455000Y-92306260D01*
X102512068Y-92593158D01*
X102624010Y-92863411D01*
X102786525Y-93106632D01*
X102993368Y-93313475D01*
X103236589Y-93475990D01*
X103506842Y-93587932D01*
X103793740Y-93645000D01*
X104086260Y-93645000D01*
X104373158Y-93587932D01*
X104643411Y-93475990D01*
X104886632Y-93313475D01*
X105018487Y-93181620D01*
X105040498Y-93254180D01*
X105099463Y-93364494D01*
X105178815Y-93461185D01*
X105275506Y-93540537D01*
X105385820Y-93599502D01*
X105505518Y-93635812D01*
X105630000Y-93648072D01*
X107330000Y-93648072D01*
X107454482Y-93635812D01*
X107574180Y-93599502D01*
X107684494Y-93540537D01*
X107781185Y-93461185D01*
X107860537Y-93364494D01*
X107919502Y-93254180D01*
X107955812Y-93134482D01*
X107968072Y-93010000D01*
X107968072Y-91310000D01*
X107955812Y-91185518D01*
X107919502Y-91065820D01*
X107860537Y-90955506D01*
X107781185Y-90858815D01*
X107684494Y-90779463D01*
X107574180Y-90720498D01*
X107454482Y-90684188D01*
X107330000Y-90671928D01*
X105630000Y-90671928D01*
X105505518Y-90684188D01*
X105385820Y-90720498D01*
X105275506Y-90779463D01*
X105178815Y-90858815D01*
X105099463Y-90955506D01*
X105040498Y-91065820D01*
X105018487Y-91138380D01*
X104886632Y-91006525D01*
X104643411Y-90844010D01*
X104373158Y-90732068D01*
X104086260Y-90675000D01*
X103793740Y-90675000D01*
X103506842Y-90732068D01*
X103236589Y-90844010D01*
X102993368Y-91006525D01*
X102786525Y-91213368D01*
X102624010Y-91456589D01*
X102512068Y-91726842D01*
X102455000Y-92013740D01*
X99185000Y-92013740D01*
X99185000Y-90966353D01*
X99181633Y-90932169D01*
X99181633Y-90919193D01*
X99180634Y-90909681D01*
X99158879Y-90715732D01*
X99145975Y-90655024D01*
X99133911Y-90594099D01*
X99131083Y-90584962D01*
X99127000Y-90572091D01*
X99127000Y-82475000D01*
X119283929Y-82475000D01*
X107573931Y-94184999D01*
G37*
X107573931Y-94184999D02*
X104151321Y-94184999D01*
X104113998Y-94181323D01*
X104076675Y-94184999D01*
X104076666Y-94184999D01*
X103965013Y-94195996D01*
X103821752Y-94239453D01*
X103689722Y-94310025D01*
X103620048Y-94367206D01*
X103573998Y-94404998D01*
X103550200Y-94433997D01*
X102914001Y-95070196D01*
X102884998Y-95093998D01*
X102834819Y-95155142D01*
X102790025Y-95209723D01*
X102757854Y-95269911D01*
X102719453Y-95341753D01*
X102675996Y-95485014D01*
X102664999Y-95596667D01*
X102664999Y-95596677D01*
X102661323Y-95633999D01*
X102664999Y-95671322D01*
X102665000Y-96968464D01*
X101373993Y-98259472D01*
X101344989Y-98283275D01*
X101313962Y-98321082D01*
X101250016Y-98399000D01*
X101179513Y-98530900D01*
X101179444Y-98531030D01*
X101135987Y-98674291D01*
X101124990Y-98785944D01*
X101124990Y-98785954D01*
X101121314Y-98823276D01*
X101124990Y-98860599D01*
X101124991Y-101159394D01*
X101121314Y-101196726D01*
X101124991Y-101234059D01*
X101130913Y-101294180D01*
X101135988Y-101345711D01*
X101179444Y-101488972D01*
X101250016Y-101621002D01*
X101305060Y-101688072D01*
X101344990Y-101736727D01*
X101373988Y-101760525D01*
X104850000Y-105236538D01*
X104850001Y-106032759D01*
X104770226Y-106086063D01*
X104626063Y-106230226D01*
X104512795Y-106399744D01*
X104434774Y-106588102D01*
X104395000Y-106788061D01*
X104395000Y-106991939D01*
X104434774Y-107191898D01*
X104512795Y-107380256D01*
X104626063Y-107549774D01*
X104770226Y-107693937D01*
X104939744Y-107807205D01*
X105128102Y-107885226D01*
X105328061Y-107925000D01*
X105531939Y-107925000D01*
X105731898Y-107885226D01*
X105920256Y-107807205D01*
X106089774Y-107693937D01*
X106233937Y-107549774D01*
X106347205Y-107380256D01*
X106425226Y-107191898D01*
X106465000Y-106991939D01*
X106465000Y-106788061D01*
X106425226Y-106588102D01*
X106370000Y-106454776D01*
X106370000Y-105880128D01*
X106469778Y-105979906D01*
X106569208Y-106101062D01*
X106933154Y-106399744D01*
X107052665Y-106497824D01*
X107604236Y-106792645D01*
X108202726Y-106974195D01*
X108715699Y-107024718D01*
X108715699Y-107038895D01*
X108700337Y-107194865D01*
X108715699Y-107350835D01*
X108715699Y-107350837D01*
X108761639Y-107817273D01*
X108943189Y-108415763D01*
X109238010Y-108967334D01*
X109634772Y-109450792D01*
X109755933Y-109550226D01*
X112050477Y-111844771D01*
X112149907Y-111965927D01*
X112633364Y-112362689D01*
X113184935Y-112657510D01*
X113783425Y-112839060D01*
X114249861Y-112885000D01*
X114249863Y-112885000D01*
X114405833Y-112900362D01*
X114561803Y-112885000D01*
X117641334Y-112885000D01*
X117885546Y-112959081D01*
X118351982Y-113005021D01*
X118351984Y-113005021D01*
X118507954Y-113020383D01*
X118663924Y-113005021D01*
X139604009Y-113005021D01*
X139759979Y-113020383D01*
X139915949Y-113005021D01*
X139915952Y-113005021D01*
X140382388Y-112959081D01*
X140980878Y-112777531D01*
X141532449Y-112482710D01*
X142015906Y-112085948D01*
X142115340Y-111964787D01*
X142235353Y-111844774D01*
X142532688Y-111482470D01*
X142827510Y-110930898D01*
X143009059Y-110332409D01*
X143070362Y-109710001D01*
X143049679Y-109500000D01*
X149511928Y-109500000D01*
X149511928Y-111200000D01*
X149524188Y-111324482D01*
X149560498Y-111444180D01*
X149619463Y-111554494D01*
X149698815Y-111651185D01*
X149795506Y-111730537D01*
X149905820Y-111789502D01*
X149986466Y-111813966D01*
X149902412Y-111889731D01*
X149728359Y-112123080D01*
X149603175Y-112385901D01*
X149558524Y-112533110D01*
X149679845Y-112763000D01*
X150873000Y-112763000D01*
X150873000Y-112743000D01*
X151127000Y-112743000D01*
X151127000Y-112763000D01*
X152320155Y-112763000D01*
X152441476Y-112533110D01*
X152396825Y-112385901D01*
X152271641Y-112123080D01*
X152097588Y-111889731D01*
X152013534Y-111813966D01*
X152094180Y-111789502D01*
X152204494Y-111730537D01*
X152301185Y-111651185D01*
X152380537Y-111554494D01*
X152439502Y-111444180D01*
X152475812Y-111324482D01*
X152488072Y-111200000D01*
X152488072Y-109500000D01*
X152475812Y-109375518D01*
X152439502Y-109255820D01*
X152380537Y-109145506D01*
X152301185Y-109048815D01*
X152204494Y-108969463D01*
X152094180Y-108910498D01*
X151974482Y-108874188D01*
X151850000Y-108861928D01*
X150150000Y-108861928D01*
X150025518Y-108874188D01*
X149905820Y-108910498D01*
X149795506Y-108969463D01*
X149698815Y-109048815D01*
X149619463Y-109145506D01*
X149560498Y-109255820D01*
X149524188Y-109375518D01*
X149511928Y-109500000D01*
X143049679Y-109500000D01*
X143009789Y-109095000D01*
X143276260Y-109095000D01*
X143563158Y-109037932D01*
X143833411Y-108925990D01*
X144076632Y-108763475D01*
X144283475Y-108556632D01*
X144445990Y-108313411D01*
X144557932Y-108043158D01*
X144615000Y-107756260D01*
X144615000Y-107463740D01*
X144557932Y-107176842D01*
X144445990Y-106906589D01*
X144283475Y-106663368D01*
X144076632Y-106456525D01*
X143833411Y-106294010D01*
X143563158Y-106182068D01*
X143276260Y-106125000D01*
X142983740Y-106125000D01*
X142696842Y-106182068D01*
X142426589Y-106294010D01*
X142183368Y-106456525D01*
X141976525Y-106663368D01*
X141814010Y-106906589D01*
X141726435Y-107118014D01*
X141652469Y-107057312D01*
X141100898Y-106762490D01*
X140502408Y-106580941D01*
X140041639Y-106535558D01*
X142261510Y-104315688D01*
X142426589Y-104425990D01*
X142696842Y-104537932D01*
X142983740Y-104595000D01*
X143276260Y-104595000D01*
X143563158Y-104537932D01*
X143833411Y-104425990D01*
X144076632Y-104263475D01*
X144283475Y-104056632D01*
X144445990Y-103813411D01*
X144557932Y-103543158D01*
X144615000Y-103256260D01*
X144615000Y-102963740D01*
X144557932Y-102676842D01*
X144445990Y-102406589D01*
X144283475Y-102163368D01*
X144076632Y-101956525D01*
X143833411Y-101794010D01*
X143563158Y-101682068D01*
X143276260Y-101625000D01*
X143233650Y-101625000D01*
X143314692Y-101526250D01*
X143432689Y-101382471D01*
X143727510Y-100830899D01*
X143732197Y-100815447D01*
X143909060Y-100232409D01*
X143955000Y-99765973D01*
X143955000Y-99765971D01*
X143970362Y-99610001D01*
X143955000Y-99454031D01*
X143955000Y-88912767D01*
X143970362Y-88756797D01*
X143932020Y-88367509D01*
X143909060Y-88134389D01*
X143727510Y-87535899D01*
X143432689Y-86984328D01*
X143035927Y-86500871D01*
X142914772Y-86401442D01*
X139828318Y-83314989D01*
X145078664Y-83314989D01*
X145016153Y-83391159D01*
X144922369Y-83566619D01*
X144922368Y-83566620D01*
X144864615Y-83757005D01*
X144845114Y-83954999D01*
X144850000Y-84004607D01*
X144850001Y-85782372D01*
X144825000Y-85908061D01*
X144825000Y-86111939D01*
X144864774Y-86311898D01*
X144942795Y-86500256D01*
X145056063Y-86669774D01*
X145200226Y-86813937D01*
X145369744Y-86927205D01*
X145558102Y-87005226D01*
X145758061Y-87045000D01*
X145961939Y-87045000D01*
X146161898Y-87005226D01*
X146350256Y-86927205D01*
X146519774Y-86813937D01*
X146663937Y-86669774D01*
X146777205Y-86500256D01*
X146855226Y-86311898D01*
X146895000Y-86111939D01*
X146895000Y-85908061D01*
X146870000Y-85782377D01*
X146870000Y-84373354D01*
X146978356Y-84264999D01*
X160168397Y-84264999D01*
X164417495Y-88514099D01*
X164449119Y-88552633D01*
X164602912Y-88678847D01*
X164748747Y-88756797D01*
X164778372Y-88772632D01*
X164968757Y-88830385D01*
X165166752Y-88849886D01*
X165216360Y-88845000D01*
X167032500Y-88845000D01*
X166870940Y-89377592D01*
X166825000Y-89844028D01*
X166825000Y-91708581D01*
X166747847Y-91708581D01*
X166547888Y-91748355D01*
X166359530Y-91826376D01*
X166190012Y-91939644D01*
X166045849Y-92083807D01*
X165932581Y-92253325D01*
X165854560Y-92441683D01*
X165814786Y-92641642D01*
X165814786Y-92845520D01*
X165854560Y-93045479D01*
X165932581Y-93233837D01*
X166045849Y-93403355D01*
X166190012Y-93547518D01*
X166359530Y-93660786D01*
X166360000Y-93660981D01*
X166360001Y-93951064D01*
X165133983Y-95177083D01*
X165104979Y-95200886D01*
X165052892Y-95264355D01*
X165010006Y-95316611D01*
X164960227Y-95409741D01*
X164939434Y-95448641D01*
X164895977Y-95591902D01*
X164884980Y-95703555D01*
X164884980Y-95703565D01*
X164881304Y-95740887D01*
X164884980Y-95778210D01*
X164884980Y-97709997D01*
X164808061Y-97709997D01*
X164608102Y-97749771D01*
X164419744Y-97827792D01*
X164250226Y-97941060D01*
X164106063Y-98085223D01*
X163992795Y-98254741D01*
X163914774Y-98443099D01*
X163875000Y-98643058D01*
X163875000Y-98846936D01*
X163914774Y-99046895D01*
X163992795Y-99235253D01*
X164106063Y-99404771D01*
X164250226Y-99548934D01*
X164419744Y-99662202D01*
X164434971Y-99668509D01*
X164434970Y-103044057D01*
X164431294Y-103081380D01*
X164434970Y-103118702D01*
X164434970Y-103118712D01*
X164445967Y-103230365D01*
X164481972Y-103349060D01*
X164489424Y-103373626D01*
X164559996Y-103505656D01*
X164593473Y-103546447D01*
X164654969Y-103621381D01*
X164683973Y-103645184D01*
X165920001Y-104881213D01*
X165920000Y-109011928D01*
X165150000Y-109011928D01*
X165025518Y-109024188D01*
X164905820Y-109060498D01*
X164795506Y-109119463D01*
X164698815Y-109198815D01*
X164619463Y-109295506D01*
X164560498Y-109405820D01*
X164524188Y-109525518D01*
X164511928Y-109650000D01*
X164511928Y-110307127D01*
X164425001Y-110220200D01*
X164425001Y-109462323D01*
X164428677Y-109425000D01*
X164425001Y-109387677D01*
X164425001Y-109387668D01*
X164414004Y-109276015D01*
X164370547Y-109132754D01*
X164299975Y-109000725D01*
X164205002Y-108885000D01*
X164176004Y-108861202D01*
X163491210Y-108176408D01*
X163535000Y-107956260D01*
X163535000Y-107663740D01*
X163477932Y-107376842D01*
X163365990Y-107106589D01*
X163203475Y-106863368D01*
X162996632Y-106656525D01*
X162753411Y-106494010D01*
X162483158Y-106382068D01*
X162196260Y-106325000D01*
X161903740Y-106325000D01*
X161616842Y-106382068D01*
X161346589Y-106494010D01*
X161103368Y-106656525D01*
X160971513Y-106788380D01*
X160949502Y-106715820D01*
X160890537Y-106605506D01*
X160811185Y-106508815D01*
X160714494Y-106429463D01*
X160604180Y-106370498D01*
X160484482Y-106334188D01*
X160360000Y-106321928D01*
X158660000Y-106321928D01*
X158535518Y-106334188D01*
X158415820Y-106370498D01*
X158305506Y-106429463D01*
X158208815Y-106508815D01*
X158129463Y-106605506D01*
X158070498Y-106715820D01*
X158034188Y-106835518D01*
X158021928Y-106960000D01*
X158021928Y-108660000D01*
X158034188Y-108784482D01*
X158070498Y-108904180D01*
X158129463Y-109014494D01*
X158208815Y-109111185D01*
X158305506Y-109190537D01*
X158415820Y-109249502D01*
X158535518Y-109285812D01*
X158660000Y-109298072D01*
X160360000Y-109298072D01*
X160484482Y-109285812D01*
X160604180Y-109249502D01*
X160714494Y-109190537D01*
X160811185Y-109111185D01*
X160890537Y-109014494D01*
X160949502Y-108904180D01*
X160971513Y-108831620D01*
X161103368Y-108963475D01*
X161346589Y-109125990D01*
X161616842Y-109237932D01*
X161903740Y-109295000D01*
X162196260Y-109295000D01*
X162416408Y-109251210D01*
X162905002Y-109739804D01*
X162905001Y-110497678D01*
X162901325Y-110535001D01*
X162905001Y-110572323D01*
X162905001Y-110572333D01*
X162915998Y-110683986D01*
X162941873Y-110769285D01*
X162959455Y-110827247D01*
X163030027Y-110959277D01*
X163069872Y-111007827D01*
X163125000Y-111075002D01*
X163154004Y-111098805D01*
X164446201Y-112391003D01*
X164469999Y-112420001D01*
X164585724Y-112514974D01*
X164717753Y-112585546D01*
X164861014Y-112629003D01*
X164972667Y-112640000D01*
X164972677Y-112640000D01*
X165010000Y-112643676D01*
X165047323Y-112640000D01*
X166867680Y-112640000D01*
X166905002Y-112643676D01*
X166942324Y-112640000D01*
X166942335Y-112640000D01*
X167053988Y-112629003D01*
X167197249Y-112585546D01*
X167329278Y-112514974D01*
X167445003Y-112420001D01*
X167468806Y-112390997D01*
X167685998Y-112173805D01*
X167715002Y-112150002D01*
X167809975Y-112034277D01*
X167880547Y-111902248D01*
X167898885Y-111841794D01*
X168106842Y-111927932D01*
X168393740Y-111985000D01*
X168686260Y-111985000D01*
X168973158Y-111927932D01*
X169243411Y-111815990D01*
X169486632Y-111653475D01*
X169693475Y-111446632D01*
X169810000Y-111272240D01*
X169926525Y-111446632D01*
X170133368Y-111653475D01*
X170376589Y-111815990D01*
X170646842Y-111927932D01*
X170933740Y-111985000D01*
X171226260Y-111985000D01*
X171513158Y-111927932D01*
X171783411Y-111815990D01*
X172026632Y-111653475D01*
X172233475Y-111446632D01*
X172350000Y-111272240D01*
X172466525Y-111446632D01*
X172673368Y-111653475D01*
X172916589Y-111815990D01*
X173186842Y-111927932D01*
X173473740Y-111985000D01*
X173766260Y-111985000D01*
X174053158Y-111927932D01*
X174323411Y-111815990D01*
X174566632Y-111653475D01*
X174773475Y-111446632D01*
X174895195Y-111264466D01*
X174964822Y-111381355D01*
X175159731Y-111597588D01*
X175393080Y-111771641D01*
X175655901Y-111896825D01*
X175803110Y-111941476D01*
X176033000Y-111820155D01*
X176033000Y-110627000D01*
X176013000Y-110627000D01*
X176013000Y-110373000D01*
X176033000Y-110373000D01*
X176033000Y-109179845D01*
X175803110Y-109058524D01*
X175655901Y-109103175D01*
X175393080Y-109228359D01*
X175159731Y-109402412D01*
X174964822Y-109618645D01*
X174895195Y-109735534D01*
X174773475Y-109553368D01*
X174566632Y-109346525D01*
X174323411Y-109184010D01*
X174053158Y-109072068D01*
X173766260Y-109015000D01*
X173473740Y-109015000D01*
X173186842Y-109072068D01*
X172916589Y-109184010D01*
X172673368Y-109346525D01*
X172466525Y-109553368D01*
X172350000Y-109727760D01*
X172233475Y-109553368D01*
X172026632Y-109346525D01*
X171783411Y-109184010D01*
X171513158Y-109072068D01*
X171226260Y-109015000D01*
X170933740Y-109015000D01*
X170646842Y-109072068D01*
X170376589Y-109184010D01*
X170133368Y-109346525D01*
X169926525Y-109553368D01*
X169810000Y-109727760D01*
X169693475Y-109553368D01*
X169486632Y-109346525D01*
X169243411Y-109184010D01*
X168973158Y-109072068D01*
X168686260Y-109015000D01*
X168393740Y-109015000D01*
X168106842Y-109072068D01*
X167898885Y-109158206D01*
X167894990Y-109145365D01*
X167894990Y-106379781D01*
X168227530Y-106652689D01*
X168779101Y-106947510D01*
X169377591Y-107129060D01*
X170000000Y-107190362D01*
X170622408Y-107129060D01*
X171220898Y-106947510D01*
X171772469Y-106652689D01*
X172255927Y-106255927D01*
X172652689Y-105772470D01*
X172664699Y-105750000D01*
X173861928Y-105750000D01*
X173874188Y-105874482D01*
X173910498Y-105994180D01*
X173969463Y-106104494D01*
X174048815Y-106201185D01*
X174145506Y-106280537D01*
X174255820Y-106339502D01*
X174375518Y-106375812D01*
X174500000Y-106388072D01*
X175714250Y-106385000D01*
X175873000Y-106226250D01*
X175873000Y-104127000D01*
X174023750Y-104127000D01*
X173865000Y-104285750D01*
X173861928Y-105750000D01*
X172664699Y-105750000D01*
X172947510Y-105220899D01*
X173129060Y-104622409D01*
X173175000Y-104155973D01*
X173175000Y-103318367D01*
X173190362Y-103162397D01*
X173170182Y-102957511D01*
X173129060Y-102539990D01*
X173009173Y-102144775D01*
X172947510Y-101941499D01*
X172776913Y-101622337D01*
X172873000Y-101526250D01*
X172873000Y-99427000D01*
X173127000Y-99427000D01*
X173127000Y-101526250D01*
X173285750Y-101685000D01*
X174206367Y-101686931D01*
X174145506Y-101719463D01*
X174048815Y-101798815D01*
X173969463Y-101895506D01*
X173910498Y-102005820D01*
X173874188Y-102125518D01*
X173861928Y-102250000D01*
X173865000Y-103714250D01*
X174023750Y-103873000D01*
X175873000Y-103873000D01*
X175873000Y-101773750D01*
X175714250Y-101615000D01*
X175043195Y-101613302D01*
X175104494Y-101580537D01*
X175201185Y-101501185D01*
X175280537Y-101404494D01*
X175339502Y-101294180D01*
X175375812Y-101174482D01*
X175388072Y-101050000D01*
X175385000Y-99585750D01*
X175226250Y-99427000D01*
X173127000Y-99427000D01*
X172873000Y-99427000D01*
X172853000Y-99427000D01*
X172853000Y-99173000D01*
X172873000Y-99173000D01*
X172873000Y-97073750D01*
X173127000Y-97073750D01*
X173127000Y-99173000D01*
X175226250Y-99173000D01*
X175385000Y-99014250D01*
X175388072Y-97550000D01*
X175375812Y-97425518D01*
X175339502Y-97305820D01*
X175280537Y-97195506D01*
X175201185Y-97098815D01*
X175104494Y-97019463D01*
X174994180Y-96960498D01*
X174874482Y-96924188D01*
X174750000Y-96911928D01*
X173285750Y-96915000D01*
X173127000Y-97073750D01*
X172873000Y-97073750D01*
X172776914Y-96977664D01*
X172947510Y-96658501D01*
X173129060Y-96060011D01*
X173175000Y-95593575D01*
X173175000Y-95593573D01*
X173190362Y-95437603D01*
X173175000Y-95281633D01*
X173175000Y-91750000D01*
X173861928Y-91750000D01*
X173874188Y-91874482D01*
X173910498Y-91994180D01*
X173969463Y-92104494D01*
X174048815Y-92201185D01*
X174145506Y-92280537D01*
X174255820Y-92339502D01*
X174375518Y-92375812D01*
X174500000Y-92388072D01*
X175714250Y-92385000D01*
X175873000Y-92226250D01*
X175873000Y-90127000D01*
X174023750Y-90127000D01*
X173865000Y-90285750D01*
X173861928Y-91750000D01*
X173175000Y-91750000D01*
X173175000Y-89844027D01*
X173129060Y-89377591D01*
X172947510Y-88779101D01*
X172652689Y-88227530D01*
X172255927Y-87744073D01*
X172185298Y-87686110D01*
X172714250Y-87685000D01*
X172873000Y-87526250D01*
X172873000Y-85427000D01*
X173127000Y-85427000D01*
X173127000Y-87526250D01*
X173285750Y-87685000D01*
X174206367Y-87686931D01*
X174145506Y-87719463D01*
X174048815Y-87798815D01*
X173969463Y-87895506D01*
X173910498Y-88005820D01*
X173874188Y-88125518D01*
X173861928Y-88250000D01*
X173865000Y-89714250D01*
X174023750Y-89873000D01*
X175873000Y-89873000D01*
X175873000Y-87773750D01*
X175714250Y-87615000D01*
X175043195Y-87613302D01*
X175104494Y-87580537D01*
X175201185Y-87501185D01*
X175280537Y-87404494D01*
X175339502Y-87294180D01*
X175375812Y-87174482D01*
X175388072Y-87050000D01*
X175385000Y-85585750D01*
X175226250Y-85427000D01*
X173127000Y-85427000D01*
X172873000Y-85427000D01*
X170773750Y-85427000D01*
X170615000Y-85585750D01*
X170612306Y-86869945D01*
X170000000Y-86809638D01*
X169377591Y-86870940D01*
X168779101Y-87052490D01*
X168584736Y-87156381D01*
X168584261Y-87155906D01*
X168552633Y-87117367D01*
X168398840Y-86991153D01*
X168223380Y-86897368D01*
X168032994Y-86839615D01*
X167884608Y-86825000D01*
X167835000Y-86820114D01*
X167785392Y-86825000D01*
X165585108Y-86825000D01*
X163401025Y-84640917D01*
X163636642Y-84483483D01*
X163843485Y-84276640D01*
X163960010Y-84102248D01*
X164076535Y-84276640D01*
X164283378Y-84483483D01*
X164526599Y-84645998D01*
X164796852Y-84757940D01*
X165083750Y-84815008D01*
X165376270Y-84815008D01*
X165663168Y-84757940D01*
X165933421Y-84645998D01*
X166176642Y-84483483D01*
X166308497Y-84351628D01*
X166330508Y-84424188D01*
X166389473Y-84534502D01*
X166468825Y-84631193D01*
X166565516Y-84710545D01*
X166675830Y-84769510D01*
X166795528Y-84805820D01*
X166920010Y-84818080D01*
X168620010Y-84818080D01*
X168744492Y-84805820D01*
X168864190Y-84769510D01*
X168974504Y-84710545D01*
X169071195Y-84631193D01*
X169150547Y-84534502D01*
X169209512Y-84424188D01*
X169245822Y-84304490D01*
X169258082Y-84180008D01*
X169258082Y-83550000D01*
X170611928Y-83550000D01*
X170615000Y-85014250D01*
X170773750Y-85173000D01*
X172873000Y-85173000D01*
X172873000Y-83073750D01*
X173127000Y-83073750D01*
X173127000Y-85173000D01*
X175226250Y-85173000D01*
X175385000Y-85014250D01*
X175388072Y-83550000D01*
X175375812Y-83425518D01*
X175339502Y-83305820D01*
X175280537Y-83195506D01*
X175201185Y-83098815D01*
X175104494Y-83019463D01*
X174994180Y-82960498D01*
X174874482Y-82924188D01*
X174750000Y-82911928D01*
X173285750Y-82915000D01*
X173127000Y-83073750D01*
X172873000Y-83073750D01*
X172714250Y-82915000D01*
X171250000Y-82911928D01*
X171125518Y-82924188D01*
X171005820Y-82960498D01*
X170895506Y-83019463D01*
X170798815Y-83098815D01*
X170719463Y-83195506D01*
X170660498Y-83305820D01*
X170624188Y-83425518D01*
X170611928Y-83550000D01*
X169258082Y-83550000D01*
X169258082Y-82480008D01*
X169257589Y-82475000D01*
X177486000Y-82475000D01*
X177486000Y-87611963D01*
X176285750Y-87615000D01*
X176127000Y-87773750D01*
X176127000Y-89873000D01*
X176147000Y-89873000D01*
X176147000Y-90127000D01*
X176127000Y-90127000D01*
X176127000Y-92226250D01*
X176285750Y-92385000D01*
X177486000Y-92388037D01*
X177486001Y-101611963D01*
X176285750Y-101615000D01*
X176127000Y-101773750D01*
X176127000Y-103873000D01*
X176147000Y-103873000D01*
X176147000Y-104127000D01*
X176127000Y-104127000D01*
X176127000Y-106226250D01*
X176285750Y-106385000D01*
X177486001Y-106388037D01*
X177486001Y-109838268D01*
X177355178Y-109618645D01*
X177160269Y-109402412D01*
X176926920Y-109228359D01*
X176664099Y-109103175D01*
X176516890Y-109058524D01*
X176287000Y-109179845D01*
X176287000Y-110373000D01*
X176307000Y-110373000D01*
X176307000Y-110627000D01*
X176287000Y-110627000D01*
X176287000Y-111820155D01*
X176516890Y-111941476D01*
X176664099Y-111896825D01*
X176926920Y-111771641D01*
X177160269Y-111597588D01*
X177355178Y-111381355D01*
X177486001Y-111161732D01*
X177486001Y-113835000D01*
X156714565Y-113835000D01*
X156875990Y-113593411D01*
X156987932Y-113323158D01*
X157045000Y-113036260D01*
X157045000Y-112743740D01*
X156987932Y-112456842D01*
X156875990Y-112186589D01*
X156713475Y-111943368D01*
X156506632Y-111736525D01*
X156332240Y-111620000D01*
X156506632Y-111503475D01*
X156713475Y-111296632D01*
X156875990Y-111053411D01*
X156987932Y-110783158D01*
X157045000Y-110496260D01*
X157045000Y-110203740D01*
X156987932Y-109916842D01*
X156875990Y-109646589D01*
X156713475Y-109403368D01*
X156581620Y-109271513D01*
X156654180Y-109249502D01*
X156764494Y-109190537D01*
X156861185Y-109111185D01*
X156940537Y-109014494D01*
X156999502Y-108904180D01*
X157035812Y-108784482D01*
X157048072Y-108660000D01*
X157048072Y-106960000D01*
X157035812Y-106835518D01*
X156999502Y-106715820D01*
X156940537Y-106605506D01*
X156861185Y-106508815D01*
X156764494Y-106429463D01*
X156654180Y-106370498D01*
X156534482Y-106334188D01*
X156410000Y-106321928D01*
X154710000Y-106321928D01*
X154585518Y-106334188D01*
X154465820Y-106370498D01*
X154355506Y-106429463D01*
X154258815Y-106508815D01*
X154179463Y-106605506D01*
X154120498Y-106715820D01*
X154084188Y-106835518D01*
X154071928Y-106960000D01*
X154071928Y-108660000D01*
X154084188Y-108784482D01*
X154120498Y-108904180D01*
X154179463Y-109014494D01*
X154258815Y-109111185D01*
X154355506Y-109190537D01*
X154465820Y-109249502D01*
X154538380Y-109271513D01*
X154406525Y-109403368D01*
X154244010Y-109646589D01*
X154132068Y-109916842D01*
X154075000Y-110203740D01*
X154075000Y-110496260D01*
X154132068Y-110783158D01*
X154244010Y-111053411D01*
X154406525Y-111296632D01*
X154613368Y-111503475D01*
X154787760Y-111620000D01*
X154613368Y-111736525D01*
X154406525Y-111943368D01*
X154244010Y-112186589D01*
X154132068Y-112456842D01*
X154075000Y-112743740D01*
X154075000Y-113036260D01*
X154132068Y-113323158D01*
X154244010Y-113593411D01*
X154405435Y-113835000D01*
X152138813Y-113835000D01*
X152271641Y-113656920D01*
X152396825Y-113394099D01*
X152441476Y-113246890D01*
X152320155Y-113017000D01*
X151127000Y-113017000D01*
X151127000Y-113037000D01*
X150873000Y-113037000D01*
X150873000Y-113017000D01*
X149679845Y-113017000D01*
X149558524Y-113246890D01*
X149603175Y-113394099D01*
X149728359Y-113656920D01*
X149861187Y-113835000D01*
X99185000Y-113835000D01*
X99185000Y-92013740D01*
X102455000Y-92013740D01*
X102455000Y-92306260D01*
X102512068Y-92593158D01*
X102624010Y-92863411D01*
X102786525Y-93106632D01*
X102993368Y-93313475D01*
X103236589Y-93475990D01*
X103506842Y-93587932D01*
X103793740Y-93645000D01*
X104086260Y-93645000D01*
X104373158Y-93587932D01*
X104643411Y-93475990D01*
X104886632Y-93313475D01*
X105018487Y-93181620D01*
X105040498Y-93254180D01*
X105099463Y-93364494D01*
X105178815Y-93461185D01*
X105275506Y-93540537D01*
X105385820Y-93599502D01*
X105505518Y-93635812D01*
X105630000Y-93648072D01*
X107330000Y-93648072D01*
X107454482Y-93635812D01*
X107574180Y-93599502D01*
X107684494Y-93540537D01*
X107781185Y-93461185D01*
X107860537Y-93364494D01*
X107919502Y-93254180D01*
X107955812Y-93134482D01*
X107968072Y-93010000D01*
X107968072Y-91310000D01*
X107955812Y-91185518D01*
X107919502Y-91065820D01*
X107860537Y-90955506D01*
X107781185Y-90858815D01*
X107684494Y-90779463D01*
X107574180Y-90720498D01*
X107454482Y-90684188D01*
X107330000Y-90671928D01*
X105630000Y-90671928D01*
X105505518Y-90684188D01*
X105385820Y-90720498D01*
X105275506Y-90779463D01*
X105178815Y-90858815D01*
X105099463Y-90955506D01*
X105040498Y-91065820D01*
X105018487Y-91138380D01*
X104886632Y-91006525D01*
X104643411Y-90844010D01*
X104373158Y-90732068D01*
X104086260Y-90675000D01*
X103793740Y-90675000D01*
X103506842Y-90732068D01*
X103236589Y-90844010D01*
X102993368Y-91006525D01*
X102786525Y-91213368D01*
X102624010Y-91456589D01*
X102512068Y-91726842D01*
X102455000Y-92013740D01*
X99185000Y-92013740D01*
X99185000Y-90966353D01*
X99181633Y-90932169D01*
X99181633Y-90919193D01*
X99180634Y-90909681D01*
X99158879Y-90715732D01*
X99145975Y-90655024D01*
X99133911Y-90594099D01*
X99131083Y-90584962D01*
X99127000Y-90572091D01*
X99127000Y-82475000D01*
X119283929Y-82475000D01*
X107573931Y-94184999D01*
G36*
X123637308Y-94445811D02*
G01*
X123329911Y-94573139D01*
X123053261Y-94757990D01*
X122817990Y-94993261D01*
X122633139Y-95269911D01*
X122505811Y-95577308D01*
X122440900Y-95903638D01*
X122440900Y-96236362D01*
X122505811Y-96562692D01*
X122633139Y-96870089D01*
X122750010Y-97045000D01*
X121974027Y-97045000D01*
X121507591Y-97090940D01*
X120909101Y-97272490D01*
X120357530Y-97567311D01*
X119874073Y-97964073D01*
X119477311Y-98447530D01*
X119182490Y-98999101D01*
X119000940Y-99597591D01*
X118939638Y-100220000D01*
X119000940Y-100842409D01*
X119182490Y-101440899D01*
X119477311Y-101992470D01*
X119874073Y-102475927D01*
X120357530Y-102872689D01*
X120909101Y-103167510D01*
X121507591Y-103349060D01*
X121791104Y-103376984D01*
X121685645Y-103447449D01*
X121457449Y-103675645D01*
X121278157Y-103943974D01*
X121154659Y-104242126D01*
X121091700Y-104558642D01*
X121091700Y-104881358D01*
X121154659Y-105197874D01*
X121261168Y-105455011D01*
X120320143Y-105455011D01*
X120265900Y-105400768D01*
X120265900Y-105373652D01*
X120208798Y-105086579D01*
X120096788Y-104816162D01*
X119934174Y-104572794D01*
X119727206Y-104365826D01*
X119483838Y-104203212D01*
X119213421Y-104091202D01*
X118926348Y-104034100D01*
X118633652Y-104034100D01*
X118346579Y-104091202D01*
X118076162Y-104203212D01*
X117832794Y-104365826D01*
X117625826Y-104572794D01*
X117463212Y-104816162D01*
X117351202Y-105086579D01*
X117294100Y-105373652D01*
X117294100Y-105666348D01*
X117351202Y-105953421D01*
X117463212Y-106223838D01*
X117625826Y-106467206D01*
X117693620Y-106535000D01*
X116322696Y-106535000D01*
X116455256Y-106402440D01*
X116606751Y-106175712D01*
X116711102Y-105923785D01*
X116764300Y-105656342D01*
X116764300Y-105564055D01*
X117138195Y-105190160D01*
X117176734Y-105158532D01*
X117302948Y-105004739D01*
X117396733Y-104829279D01*
X117454486Y-104638893D01*
X117469101Y-104490507D01*
X117469101Y-104490505D01*
X117473987Y-104440900D01*
X117469101Y-104391295D01*
X117469101Y-96814543D01*
X118427744Y-95855901D01*
X119414825Y-95855901D01*
X119464433Y-95860787D01*
X119662427Y-95841286D01*
X119852813Y-95783533D01*
X120028273Y-95689748D01*
X120182066Y-95563534D01*
X120213694Y-95524995D01*
X121270497Y-94468193D01*
X121297560Y-94495256D01*
X121524288Y-94646751D01*
X121776215Y-94751102D01*
X122043658Y-94804300D01*
X122316342Y-94804300D01*
X122583785Y-94751102D01*
X122835712Y-94646751D01*
X123062440Y-94495256D01*
X123127696Y-94430000D01*
X123716795Y-94430000D01*
X123637308Y-94445811D01*
G37*
X123637308Y-94445811D02*
X123329911Y-94573139D01*
X123053261Y-94757990D01*
X122817990Y-94993261D01*
X122633139Y-95269911D01*
X122505811Y-95577308D01*
X122440900Y-95903638D01*
X122440900Y-96236362D01*
X122505811Y-96562692D01*
X122633139Y-96870089D01*
X122750010Y-97045000D01*
X121974027Y-97045000D01*
X121507591Y-97090940D01*
X120909101Y-97272490D01*
X120357530Y-97567311D01*
X119874073Y-97964073D01*
X119477311Y-98447530D01*
X119182490Y-98999101D01*
X119000940Y-99597591D01*
X118939638Y-100220000D01*
X119000940Y-100842409D01*
X119182490Y-101440899D01*
X119477311Y-101992470D01*
X119874073Y-102475927D01*
X120357530Y-102872689D01*
X120909101Y-103167510D01*
X121507591Y-103349060D01*
X121791104Y-103376984D01*
X121685645Y-103447449D01*
X121457449Y-103675645D01*
X121278157Y-103943974D01*
X121154659Y-104242126D01*
X121091700Y-104558642D01*
X121091700Y-104881358D01*
X121154659Y-105197874D01*
X121261168Y-105455011D01*
X120320143Y-105455011D01*
X120265900Y-105400768D01*
X120265900Y-105373652D01*
X120208798Y-105086579D01*
X120096788Y-104816162D01*
X119934174Y-104572794D01*
X119727206Y-104365826D01*
X119483838Y-104203212D01*
X119213421Y-104091202D01*
X118926348Y-104034100D01*
X118633652Y-104034100D01*
X118346579Y-104091202D01*
X118076162Y-104203212D01*
X117832794Y-104365826D01*
X117625826Y-104572794D01*
X117463212Y-104816162D01*
X117351202Y-105086579D01*
X117294100Y-105373652D01*
X117294100Y-105666348D01*
X117351202Y-105953421D01*
X117463212Y-106223838D01*
X117625826Y-106467206D01*
X117693620Y-106535000D01*
X116322696Y-106535000D01*
X116455256Y-106402440D01*
X116606751Y-106175712D01*
X116711102Y-105923785D01*
X116764300Y-105656342D01*
X116764300Y-105564055D01*
X117138195Y-105190160D01*
X117176734Y-105158532D01*
X117302948Y-105004739D01*
X117396733Y-104829279D01*
X117454486Y-104638893D01*
X117469101Y-104490507D01*
X117469101Y-104490505D01*
X117473987Y-104440900D01*
X117469101Y-104391295D01*
X117469101Y-96814543D01*
X118427744Y-95855901D01*
X119414825Y-95855901D01*
X119464433Y-95860787D01*
X119662427Y-95841286D01*
X119852813Y-95783533D01*
X120028273Y-95689748D01*
X120182066Y-95563534D01*
X120213694Y-95524995D01*
X121270497Y-94468193D01*
X121297560Y-94495256D01*
X121524288Y-94646751D01*
X121776215Y-94751102D01*
X122043658Y-94804300D01*
X122316342Y-94804300D01*
X122583785Y-94751102D01*
X122835712Y-94646751D01*
X123062440Y-94495256D01*
X123127696Y-94430000D01*
X123716795Y-94430000D01*
X123637308Y-94445811D01*
G36*
X111055000Y-94375972D02*
G01*
X111100940Y-94842408D01*
X111282490Y-95440898D01*
X111577311Y-95992469D01*
X111974073Y-96475927D01*
X112457530Y-96872689D01*
X113009101Y-97167510D01*
X113607591Y-97349060D01*
X113811412Y-97369135D01*
X113753261Y-97407990D01*
X113517990Y-97643261D01*
X113333139Y-97919911D01*
X113205811Y-98227308D01*
X113140900Y-98553638D01*
X113140900Y-98886362D01*
X113205811Y-99212692D01*
X113288103Y-99411362D01*
X113147917Y-99397555D01*
X112525508Y-99458857D01*
X111927018Y-99640407D01*
X111375448Y-99935228D01*
X111013143Y-100232564D01*
X110575572Y-100670135D01*
X110140263Y-100670135D01*
X107345362Y-97875235D01*
X107245928Y-97754074D01*
X106762471Y-97357312D01*
X106210900Y-97062491D01*
X106190922Y-97056431D01*
X106198918Y-97044463D01*
X106322168Y-96746912D01*
X106385000Y-96431033D01*
X106385000Y-96108967D01*
X106322168Y-95793088D01*
X106285680Y-95704999D01*
X107851410Y-95704999D01*
X107888732Y-95708675D01*
X107926054Y-95704999D01*
X107926065Y-95704999D01*
X108037718Y-95694002D01*
X108180979Y-95650545D01*
X108313008Y-95579973D01*
X108428733Y-95485000D01*
X108452536Y-95455996D01*
X111055000Y-92853532D01*
X111055000Y-94375972D01*
G37*
X111055000Y-94375972D02*
X111100940Y-94842408D01*
X111282490Y-95440898D01*
X111577311Y-95992469D01*
X111974073Y-96475927D01*
X112457530Y-96872689D01*
X113009101Y-97167510D01*
X113607591Y-97349060D01*
X113811412Y-97369135D01*
X113753261Y-97407990D01*
X113517990Y-97643261D01*
X113333139Y-97919911D01*
X113205811Y-98227308D01*
X113140900Y-98553638D01*
X113140900Y-98886362D01*
X113205811Y-99212692D01*
X113288103Y-99411362D01*
X113147917Y-99397555D01*
X112525508Y-99458857D01*
X111927018Y-99640407D01*
X111375448Y-99935228D01*
X111013143Y-100232564D01*
X110575572Y-100670135D01*
X110140263Y-100670135D01*
X107345362Y-97875235D01*
X107245928Y-97754074D01*
X106762471Y-97357312D01*
X106210900Y-97062491D01*
X106190922Y-97056431D01*
X106198918Y-97044463D01*
X106322168Y-96746912D01*
X106385000Y-96431033D01*
X106385000Y-96108967D01*
X106322168Y-95793088D01*
X106285680Y-95704999D01*
X107851410Y-95704999D01*
X107888732Y-95708675D01*
X107926054Y-95704999D01*
X107926065Y-95704999D01*
X108037718Y-95694002D01*
X108180979Y-95650545D01*
X108313008Y-95579973D01*
X108428733Y-95485000D01*
X108452536Y-95455996D01*
X111055000Y-92853532D01*
X111055000Y-94375972D01*
G36*
X133571282Y-88930997D02*
G01*
X133495000Y-89314495D01*
X133495000Y-89705505D01*
X133571282Y-90089003D01*
X133720915Y-90450250D01*
X133938149Y-90775364D01*
X134214636Y-91051851D01*
X134539750Y-91269085D01*
X134900997Y-91418718D01*
X135284495Y-91495000D01*
X135675505Y-91495000D01*
X136059003Y-91418718D01*
X136420250Y-91269085D01*
X136745364Y-91051851D01*
X137021851Y-90775364D01*
X137239085Y-90450250D01*
X137388718Y-90089003D01*
X137427435Y-89894360D01*
X137605000Y-90071926D01*
X137605001Y-98294871D01*
X135724872Y-100175001D01*
X132815680Y-100175001D01*
X132852168Y-100086912D01*
X132915000Y-99771033D01*
X132915000Y-99448967D01*
X132852168Y-99133088D01*
X132728918Y-98835537D01*
X132549987Y-98567748D01*
X132322252Y-98340013D01*
X132054463Y-98161082D01*
X131756912Y-98037832D01*
X131441033Y-97975000D01*
X131118967Y-97975000D01*
X130803088Y-98037832D01*
X130505537Y-98161082D01*
X130237748Y-98340013D01*
X130010013Y-98567748D01*
X129831082Y-98835537D01*
X129707832Y-99133088D01*
X129645000Y-99448967D01*
X129645000Y-99771033D01*
X129707832Y-100086912D01*
X129744320Y-100175001D01*
X128215215Y-100175001D01*
X126125447Y-98085234D01*
X126026013Y-97964073D01*
X125542556Y-97567311D01*
X125201914Y-97385234D01*
X125206739Y-97382010D01*
X125442010Y-97146739D01*
X125626861Y-96870089D01*
X125754189Y-96562692D01*
X125819100Y-96236362D01*
X125819100Y-95903638D01*
X125754189Y-95577308D01*
X125626861Y-95269911D01*
X125442010Y-94993261D01*
X125206739Y-94757990D01*
X124930089Y-94573139D01*
X124622692Y-94445811D01*
X124543205Y-94430000D01*
X130861645Y-94430000D01*
X131220000Y-94788356D01*
X131220000Y-95019893D01*
X131076525Y-95163368D01*
X130914010Y-95406589D01*
X130802068Y-95676842D01*
X130745000Y-95963740D01*
X130745000Y-96256260D01*
X130802068Y-96543158D01*
X130914010Y-96813411D01*
X131076525Y-97056632D01*
X131283368Y-97263475D01*
X131526589Y-97425990D01*
X131796842Y-97537932D01*
X132083740Y-97595000D01*
X132376260Y-97595000D01*
X132663158Y-97537932D01*
X132933411Y-97425990D01*
X133176632Y-97263475D01*
X133383475Y-97056632D01*
X133545990Y-96813411D01*
X133657932Y-96543158D01*
X133715000Y-96256260D01*
X133715000Y-95963740D01*
X133657932Y-95676842D01*
X133545990Y-95406589D01*
X133383475Y-95163368D01*
X133240000Y-95019893D01*
X133240000Y-94419608D01*
X133244886Y-94370000D01*
X133225385Y-94172005D01*
X133167632Y-93981620D01*
X133128425Y-93908269D01*
X133073847Y-93806160D01*
X132947633Y-93652367D01*
X132909099Y-93620743D01*
X132382178Y-93093823D01*
X132663158Y-93037932D01*
X132933411Y-92925990D01*
X133176632Y-92763475D01*
X133383475Y-92556632D01*
X133545990Y-92313411D01*
X133657932Y-92043158D01*
X133715000Y-91756260D01*
X133715000Y-91463740D01*
X133657932Y-91176842D01*
X133545990Y-90906589D01*
X133383475Y-90663368D01*
X133176632Y-90456525D01*
X132933411Y-90294010D01*
X132663158Y-90182068D01*
X132376260Y-90125000D01*
X132083740Y-90125000D01*
X131796842Y-90182068D01*
X131526589Y-90294010D01*
X131283368Y-90456525D01*
X131076525Y-90663368D01*
X130961377Y-90835699D01*
X120539895Y-90835699D01*
X122780595Y-88594999D01*
X133710457Y-88594999D01*
X133571282Y-88930997D01*
G37*
X133571282Y-88930997D02*
X133495000Y-89314495D01*
X133495000Y-89705505D01*
X133571282Y-90089003D01*
X133720915Y-90450250D01*
X133938149Y-90775364D01*
X134214636Y-91051851D01*
X134539750Y-91269085D01*
X134900997Y-91418718D01*
X135284495Y-91495000D01*
X135675505Y-91495000D01*
X136059003Y-91418718D01*
X136420250Y-91269085D01*
X136745364Y-91051851D01*
X137021851Y-90775364D01*
X137239085Y-90450250D01*
X137388718Y-90089003D01*
X137427435Y-89894360D01*
X137605000Y-90071926D01*
X137605001Y-98294871D01*
X135724872Y-100175001D01*
X132815680Y-100175001D01*
X132852168Y-100086912D01*
X132915000Y-99771033D01*
X132915000Y-99448967D01*
X132852168Y-99133088D01*
X132728918Y-98835537D01*
X132549987Y-98567748D01*
X132322252Y-98340013D01*
X132054463Y-98161082D01*
X131756912Y-98037832D01*
X131441033Y-97975000D01*
X131118967Y-97975000D01*
X130803088Y-98037832D01*
X130505537Y-98161082D01*
X130237748Y-98340013D01*
X130010013Y-98567748D01*
X129831082Y-98835537D01*
X129707832Y-99133088D01*
X129645000Y-99448967D01*
X129645000Y-99771033D01*
X129707832Y-100086912D01*
X129744320Y-100175001D01*
X128215215Y-100175001D01*
X126125447Y-98085234D01*
X126026013Y-97964073D01*
X125542556Y-97567311D01*
X125201914Y-97385234D01*
X125206739Y-97382010D01*
X125442010Y-97146739D01*
X125626861Y-96870089D01*
X125754189Y-96562692D01*
X125819100Y-96236362D01*
X125819100Y-95903638D01*
X125754189Y-95577308D01*
X125626861Y-95269911D01*
X125442010Y-94993261D01*
X125206739Y-94757990D01*
X124930089Y-94573139D01*
X124622692Y-94445811D01*
X124543205Y-94430000D01*
X130861645Y-94430000D01*
X131220000Y-94788356D01*
X131220000Y-95019893D01*
X131076525Y-95163368D01*
X130914010Y-95406589D01*
X130802068Y-95676842D01*
X130745000Y-95963740D01*
X130745000Y-96256260D01*
X130802068Y-96543158D01*
X130914010Y-96813411D01*
X131076525Y-97056632D01*
X131283368Y-97263475D01*
X131526589Y-97425990D01*
X131796842Y-97537932D01*
X132083740Y-97595000D01*
X132376260Y-97595000D01*
X132663158Y-97537932D01*
X132933411Y-97425990D01*
X133176632Y-97263475D01*
X133383475Y-97056632D01*
X133545990Y-96813411D01*
X133657932Y-96543158D01*
X133715000Y-96256260D01*
X133715000Y-95963740D01*
X133657932Y-95676842D01*
X133545990Y-95406589D01*
X133383475Y-95163368D01*
X133240000Y-95019893D01*
X133240000Y-94419608D01*
X133244886Y-94370000D01*
X133225385Y-94172005D01*
X133167632Y-93981620D01*
X133128425Y-93908269D01*
X133073847Y-93806160D01*
X132947633Y-93652367D01*
X132909099Y-93620743D01*
X132382178Y-93093823D01*
X132663158Y-93037932D01*
X132933411Y-92925990D01*
X133176632Y-92763475D01*
X133383475Y-92556632D01*
X133545990Y-92313411D01*
X133657932Y-92043158D01*
X133715000Y-91756260D01*
X133715000Y-91463740D01*
X133657932Y-91176842D01*
X133545990Y-90906589D01*
X133383475Y-90663368D01*
X133176632Y-90456525D01*
X132933411Y-90294010D01*
X132663158Y-90182068D01*
X132376260Y-90125000D01*
X132083740Y-90125000D01*
X131796842Y-90182068D01*
X131526589Y-90294010D01*
X131283368Y-90456525D01*
X131076525Y-90663368D01*
X130961377Y-90835699D01*
X120539895Y-90835699D01*
X122780595Y-88594999D01*
X133710457Y-88594999D01*
X133571282Y-88930997D01*
%TD*%
M02*
