G04 #@! TF.GenerationSoftware,KiCad,Pcbnew,(5.1.6-0-10_14)*
G04 #@! TF.CreationDate,2021-12-04T22:46:38+09:00*
G04 #@! TF.ProjectId,qPCR-main,71504352-2d6d-4616-996e-2e6b69636164,rev?*
G04 #@! TF.SameCoordinates,Original*
G04 #@! TF.FileFunction,Paste,Top*
G04 #@! TF.FilePolarity,Positive*
%FSLAX46Y46*%
G04 Gerber Fmt 4.6, Leading zero omitted, Abs format (unit mm)*
G04 Created by KiCad (PCBNEW (5.1.6-0-10_14)) date 2021-12-04 22:46:38*
%MOMM*%
%LPD*%
G01*
G04 APERTURE LIST*
%ADD10C,0.475000*%
%ADD11C,0.100000*%
%ADD12R,1.397000X0.889000*%
%ADD13R,0.863600X0.762000*%
%ADD14R,1.320800X0.558800*%
%ADD15R,1.676400X0.355600*%
%ADD16R,0.800000X0.750000*%
%ADD17R,1.350000X0.600000*%
%ADD18R,1.350000X0.400000*%
%ADD19R,3.200000X1.000000*%
%ADD20R,0.800000X0.900000*%
%ADD21R,0.750000X0.800000*%
%ADD22R,2.500000X1.000000*%
%ADD23R,1.000000X1.250000*%
%ADD24R,1.250000X1.000000*%
%ADD25R,2.500000X2.300000*%
%ADD26R,2.300000X2.500000*%
%ADD27R,0.711200X0.678200*%
%ADD28R,0.200000X0.457200*%
%ADD29R,0.249999X0.499999*%
%ADD30R,2.500000X1.500000*%
%ADD31R,1.000000X2.500000*%
%ADD32R,0.900000X0.500000*%
%ADD33R,0.500000X0.900000*%
%ADD34R,5.100000X2.100000*%
%ADD35R,5.100000X1.900000*%
%ADD36R,1.570000X0.410000*%
%ADD37R,1.473200X0.355600*%
%ADD38R,1.000000X0.900000*%
%ADD39R,1.060000X0.650000*%
%ADD40R,1.060000X0.400000*%
%ADD41R,1.500000X2.000000*%
%ADD42R,3.800000X2.000000*%
%ADD43R,2.400000X3.000000*%
%ADD44R,0.300000X1.250000*%
%ADD45R,0.508000X0.825500*%
%ADD46R,1.219200X3.098800*%
%ADD47R,0.558800X1.473200*%
%ADD48R,2.500000X1.800000*%
%ADD49R,0.900000X0.800000*%
%ADD50R,2.400000X1.500000*%
%ADD51R,0.350000X0.650000*%
%ADD52R,1.879600X0.558800*%
%ADD53R,1.516000X0.457200*%
%ADD54R,3.250000X5.000000*%
G04 APERTURE END LIST*
D10*
X159377500Y-137010000D02*
G75*
G03*
X159377500Y-137010000I-237500J0D01*
G01*
X159977500Y-100510000D02*
G75*
G03*
X159977500Y-100510000I-237500J0D01*
G01*
X179077500Y-88610000D02*
G75*
G03*
X179077500Y-88610000I-237500J0D01*
G01*
X178377500Y-40410000D02*
G75*
G03*
X178377500Y-40410000I-237500J0D01*
G01*
X82687500Y-64300000D02*
G75*
G03*
X82687500Y-64300000I-237500J0D01*
G01*
X88137500Y-147500000D02*
G75*
G03*
X88137500Y-147500000I-237500J0D01*
G01*
X95597500Y-38930000D02*
G75*
G03*
X95597500Y-38930000I-237500J0D01*
G01*
D11*
G36*
X142233532Y-111750000D02*
G01*
X142233532Y-112350000D01*
X141733532Y-112350000D01*
X141733532Y-111750000D01*
X142233532Y-111750000D01*
G37*
G36*
X141533532Y-111750000D02*
G01*
X141533532Y-112350000D01*
X141033532Y-112350000D01*
X141033532Y-111750000D01*
X141533532Y-111750000D01*
G37*
G36*
X142933532Y-111750000D02*
G01*
X142933532Y-112350000D01*
X142433532Y-112350000D01*
X142433532Y-111750000D01*
X142933532Y-111750000D01*
G37*
G36*
X142233532Y-110930000D02*
G01*
X142233532Y-111530000D01*
X141733532Y-111530000D01*
X141733532Y-110930000D01*
X142233532Y-110930000D01*
G37*
G36*
X142933532Y-110930000D02*
G01*
X142933532Y-111530000D01*
X142433532Y-111530000D01*
X142433532Y-110930000D01*
X142933532Y-110930000D01*
G37*
G36*
X141533532Y-110930000D02*
G01*
X141533532Y-111530000D01*
X141033532Y-111530000D01*
X141033532Y-110930000D01*
X141533532Y-110930000D01*
G37*
G36*
X142233532Y-113390000D02*
G01*
X142233532Y-113990000D01*
X141733532Y-113990000D01*
X141733532Y-113390000D01*
X142233532Y-113390000D01*
G37*
G36*
X142233532Y-112570000D02*
G01*
X142233532Y-113170000D01*
X141733532Y-113170000D01*
X141733532Y-112570000D01*
X142233532Y-112570000D01*
G37*
G36*
X141533532Y-112570000D02*
G01*
X141533532Y-113170000D01*
X141033532Y-113170000D01*
X141033532Y-112570000D01*
X141533532Y-112570000D01*
G37*
G36*
X142933532Y-112570000D02*
G01*
X142933532Y-113170000D01*
X142433532Y-113170000D01*
X142433532Y-112570000D01*
X142933532Y-112570000D01*
G37*
G36*
X142933532Y-113390000D02*
G01*
X142933532Y-113990000D01*
X142433532Y-113990000D01*
X142433532Y-113390000D01*
X142933532Y-113390000D01*
G37*
G36*
X141533532Y-113390000D02*
G01*
X141533532Y-113990000D01*
X141033532Y-113990000D01*
X141033532Y-113390000D01*
X141533532Y-113390000D01*
G37*
G36*
X160114600Y-54429000D02*
G01*
X164102400Y-54429000D01*
X164102400Y-50111000D01*
X160114600Y-50111000D01*
X160114600Y-54429000D01*
G37*
X160114600Y-54429000D02*
X164102400Y-54429000D01*
X164102400Y-50111000D01*
X160114600Y-50111000D01*
X160114600Y-54429000D01*
D12*
X104879300Y-60420000D03*
D13*
X103114000Y-60420000D03*
D14*
X116852200Y-58500000D03*
X114667800Y-59439800D03*
X114667800Y-57560200D03*
X122017200Y-58500000D03*
X119832800Y-59439800D03*
X119832800Y-57560200D03*
X130162800Y-57560200D03*
X130162800Y-59439800D03*
X132347200Y-58500000D03*
X124997800Y-57560200D03*
X124997800Y-59439800D03*
X127182200Y-58500000D03*
D15*
X140299400Y-126025001D03*
X140299400Y-126675002D03*
X140299400Y-127325001D03*
X140299400Y-127975002D03*
X140299400Y-128625001D03*
X140299400Y-129274999D03*
X140299400Y-129925001D03*
X140299400Y-130574999D03*
X134660600Y-130574999D03*
X134660600Y-129924998D03*
X134660600Y-129274999D03*
X134660600Y-128624998D03*
X134660600Y-127974999D03*
X134660600Y-127325001D03*
X134660600Y-126674999D03*
X134660600Y-126025001D03*
D16*
X111870000Y-108410000D03*
X110370000Y-108410000D03*
D17*
X145033532Y-108145000D03*
X138933532Y-108145000D03*
D18*
X145033532Y-108895000D03*
X138933532Y-108895000D03*
X145033532Y-109545000D03*
X138933532Y-109545000D03*
X145033532Y-110195000D03*
X138933532Y-110195000D03*
X145033532Y-110845000D03*
X138933532Y-110845000D03*
X145033532Y-111495000D03*
X138933532Y-111495000D03*
X145033532Y-112145000D03*
X138933532Y-112145000D03*
X145033532Y-112795000D03*
X138933532Y-112795000D03*
X145033532Y-113445000D03*
X138933532Y-113445000D03*
X145033532Y-114095000D03*
X138933532Y-114095000D03*
X145033532Y-114745000D03*
X138933532Y-114745000D03*
X145033532Y-115395000D03*
X138933532Y-115395000D03*
X145033532Y-116045000D03*
X138933532Y-116045000D03*
D17*
X145033532Y-116795000D03*
X138933532Y-116795000D03*
D19*
X93936000Y-82720000D03*
X93936000Y-88920000D03*
D20*
X92926000Y-91450000D03*
X91026000Y-91450000D03*
X91976000Y-93450000D03*
D21*
X102010000Y-137450000D03*
X102010000Y-138950000D03*
D16*
X96890000Y-134310000D03*
X98390000Y-134310000D03*
D22*
X104240000Y-135350000D03*
X104240000Y-138350000D03*
D23*
X101380000Y-131830000D03*
X99380000Y-131830000D03*
D16*
X98220000Y-135930000D03*
X96720000Y-135930000D03*
D22*
X105710000Y-130660000D03*
X105710000Y-133660000D03*
D24*
X103140000Y-131720000D03*
X103140000Y-133720000D03*
D25*
X104020000Y-64130000D03*
X99720000Y-64130000D03*
D26*
X94270000Y-70140000D03*
X94270000Y-74440000D03*
D27*
X101858000Y-105700000D03*
D28*
X100610001Y-104925000D03*
X101010000Y-104925000D03*
X101410000Y-104925000D03*
X101809999Y-104925000D03*
X101809999Y-106475000D03*
X101410000Y-106475000D03*
X101010000Y-106475000D03*
X100610001Y-106475000D03*
D29*
X99220000Y-136220000D03*
X99719999Y-136220000D03*
X100220000Y-136220000D03*
X100720000Y-136220000D03*
X101220001Y-136220000D03*
X101720000Y-136220000D03*
X101720000Y-133320000D03*
X101220001Y-133320000D03*
X100720000Y-133320000D03*
X100220000Y-133320000D03*
X99719999Y-133320000D03*
X99220000Y-133320000D03*
D30*
X100470000Y-134770000D03*
D16*
X100360000Y-107770000D03*
X101860000Y-107770000D03*
D24*
X98390000Y-109720000D03*
X98390000Y-107720000D03*
D31*
X95510000Y-144040000D03*
X92510000Y-144040000D03*
D21*
X103260000Y-106540000D03*
X103260000Y-105040000D03*
D20*
X91976000Y-106450000D03*
X91026000Y-104450000D03*
X92926000Y-104450000D03*
X93936000Y-80450000D03*
X92986000Y-78450000D03*
X94886000Y-78450000D03*
X91976000Y-132450000D03*
X91026000Y-130450000D03*
X92926000Y-130450000D03*
X92926000Y-117450000D03*
X91026000Y-117450000D03*
X91976000Y-119450000D03*
D22*
X99400000Y-127040000D03*
X99400000Y-130040000D03*
D19*
X93936000Y-101920000D03*
X93936000Y-95720000D03*
D32*
X102020000Y-103780000D03*
X102020000Y-102280000D03*
X103570000Y-102270000D03*
X103570000Y-103770000D03*
X98980000Y-137450000D03*
X98980000Y-138950000D03*
D19*
X93936000Y-134720000D03*
X93936000Y-140920000D03*
X93936000Y-127920000D03*
X93936000Y-121720000D03*
X93936000Y-108720000D03*
X93936000Y-114920000D03*
D32*
X100540000Y-139350000D03*
X100540000Y-137850000D03*
D19*
X105820000Y-81860000D03*
X105820000Y-75660000D03*
D33*
X110370000Y-134198000D03*
X111870000Y-134198000D03*
D23*
X119232000Y-134198000D03*
X117232000Y-134198000D03*
D34*
X101210000Y-111520000D03*
D35*
X101210000Y-115720000D03*
D23*
X115676000Y-134198000D03*
X113676000Y-134198000D03*
D21*
X102108000Y-99850000D03*
X102108000Y-98350000D03*
D24*
X100330000Y-98100000D03*
X100330000Y-100100000D03*
D21*
X100570000Y-102130000D03*
X100570000Y-103630000D03*
D31*
X92530000Y-147530000D03*
X95530000Y-147530000D03*
D24*
X98552000Y-98100000D03*
X98552000Y-100100000D03*
D36*
X127810000Y-127155000D03*
X127810000Y-127805000D03*
X127810000Y-128455000D03*
X127810000Y-129105000D03*
X127810000Y-129755000D03*
X127810000Y-130405000D03*
X127810000Y-131055000D03*
X127810000Y-131705000D03*
X122070000Y-131705000D03*
X122070000Y-131055000D03*
X122070000Y-130405000D03*
X122070000Y-129755000D03*
X122070000Y-129105000D03*
X122070000Y-128455000D03*
X122070000Y-127805000D03*
X122070000Y-127155000D03*
D37*
X119479400Y-127155001D03*
X119479400Y-127805002D03*
X119479400Y-128455001D03*
X119479400Y-129105002D03*
X119479400Y-129755001D03*
X119479400Y-130404999D03*
X119479400Y-131055001D03*
X119479400Y-131704999D03*
X113840600Y-131704999D03*
X113840600Y-131054998D03*
X113840600Y-130404999D03*
X113840600Y-129754998D03*
X113840600Y-129104999D03*
X113840600Y-128455001D03*
X113840600Y-127804999D03*
X113840600Y-127155001D03*
D33*
X110370000Y-132166000D03*
X111870000Y-132166000D03*
D16*
X110370000Y-127848000D03*
X111870000Y-127848000D03*
D38*
X110307500Y-130552500D03*
X111932500Y-130552500D03*
X111932500Y-129327500D03*
X110307500Y-129327500D03*
D39*
X110020000Y-123890000D03*
X110020000Y-121990000D03*
X112220000Y-121990000D03*
X112220000Y-122940000D03*
X112220000Y-123890000D03*
D40*
X110020000Y-117910000D03*
X110020000Y-118560000D03*
X110020000Y-119220000D03*
X110020000Y-119870000D03*
X112220000Y-119870000D03*
X112220000Y-119220000D03*
X112220000Y-118560000D03*
X112220000Y-117910000D03*
X129780000Y-130410000D03*
X129780000Y-129760000D03*
X129780000Y-129100000D03*
X129780000Y-128450000D03*
X131980000Y-128450000D03*
X131980000Y-129100000D03*
X131980000Y-129760000D03*
X131980000Y-130410000D03*
D41*
X125140000Y-81750000D03*
X120540000Y-81750000D03*
X122840000Y-81750000D03*
D42*
X122840000Y-88050000D03*
D43*
X114430000Y-103285000D03*
X147530000Y-103285000D03*
D44*
X116230000Y-105610000D03*
X116730000Y-105610000D03*
X117230000Y-105610000D03*
X117730000Y-105610000D03*
X118230000Y-105610000D03*
X118730000Y-105610000D03*
X119230000Y-105610000D03*
X119730000Y-105610000D03*
X120230000Y-105610000D03*
X120730000Y-105610000D03*
X121230000Y-105610000D03*
X121730000Y-105610000D03*
X122230000Y-105610000D03*
X122730000Y-105610000D03*
X123230000Y-105610000D03*
X123730000Y-105610000D03*
X124230000Y-105610000D03*
X124730000Y-105610000D03*
X125230000Y-105610000D03*
X125730000Y-105610000D03*
X126230000Y-105610000D03*
X126730000Y-105610000D03*
X127230000Y-105610000D03*
X127730000Y-105610000D03*
X128230000Y-105610000D03*
X128730000Y-105610000D03*
X129230000Y-105610000D03*
X129730000Y-105610000D03*
X130230000Y-105610000D03*
X130730000Y-105610000D03*
X131230000Y-105610000D03*
X131730000Y-105610000D03*
X132230000Y-105610000D03*
X132730000Y-105610000D03*
X133230000Y-105610000D03*
X133730000Y-105610000D03*
X134230000Y-105610000D03*
X134730000Y-105610000D03*
X135230000Y-105610000D03*
X135730000Y-105610000D03*
X136230000Y-105610000D03*
X136730000Y-105610000D03*
X137230000Y-105610000D03*
X137730000Y-105610000D03*
X138230000Y-105610000D03*
X138730000Y-105610000D03*
X139230000Y-105610000D03*
X139730000Y-105610000D03*
X140230000Y-105610000D03*
X140730000Y-105610000D03*
X141230000Y-105610000D03*
X141730000Y-105610000D03*
X142230000Y-105610000D03*
X142730000Y-105610000D03*
X143230000Y-105610000D03*
X143730000Y-105610000D03*
X144230000Y-105610000D03*
X144730000Y-105610000D03*
X145230000Y-105610000D03*
X145730000Y-105610000D03*
D45*
X139037500Y-131706350D03*
X140942500Y-131706350D03*
X140929800Y-134233650D03*
X139990000Y-134233650D03*
X139050200Y-134233650D03*
D46*
X111400000Y-85252700D03*
X111400000Y-80147300D03*
D16*
X125900000Y-134170000D03*
X124400000Y-134170000D03*
X122780000Y-134210000D03*
X121280000Y-134210000D03*
X110370000Y-106632000D03*
X111870000Y-106632000D03*
X111870000Y-115522000D03*
X110370000Y-115522000D03*
X143180000Y-124140000D03*
X144680000Y-124140000D03*
D21*
X147780000Y-106950000D03*
X147780000Y-108450000D03*
D23*
X143140000Y-129090000D03*
X145140000Y-129090000D03*
D22*
X116920000Y-81830000D03*
X116920000Y-78830000D03*
D16*
X143390000Y-130614000D03*
X144890000Y-130614000D03*
X114560000Y-78140000D03*
X113060000Y-78140000D03*
X143390000Y-132138000D03*
X144890000Y-132138000D03*
D22*
X116930000Y-86660000D03*
X116930000Y-83660000D03*
D16*
X113070000Y-87290000D03*
X114570000Y-87290000D03*
X143390000Y-134170000D03*
X144890000Y-134170000D03*
D32*
X128516000Y-71880000D03*
X128516000Y-70380000D03*
X130294000Y-70380000D03*
X130294000Y-71880000D03*
X128516000Y-67850000D03*
X128516000Y-66350000D03*
X130294000Y-66350000D03*
X130294000Y-67850000D03*
X126738000Y-66350000D03*
X126738000Y-67850000D03*
X133850000Y-70380000D03*
X133850000Y-71880000D03*
X132072000Y-70380000D03*
X132072000Y-71880000D03*
X133850000Y-66350000D03*
X133850000Y-67850000D03*
X132072000Y-66350000D03*
X132072000Y-67850000D03*
D33*
X110370000Y-126070000D03*
X111870000Y-126070000D03*
X111870000Y-111966000D03*
X110370000Y-111966000D03*
X110370000Y-110188000D03*
X111870000Y-110188000D03*
X111870000Y-113744000D03*
X110370000Y-113744000D03*
X140140000Y-124140000D03*
X138640000Y-124140000D03*
X127800000Y-134170000D03*
X129300000Y-134170000D03*
X130960000Y-134170000D03*
X132460000Y-134170000D03*
D32*
X124960000Y-66350000D03*
X124960000Y-67850000D03*
D33*
X122020000Y-66550000D03*
X123520000Y-66550000D03*
D47*
X138649999Y-119746200D03*
X140550001Y-119746200D03*
X140550001Y-122133800D03*
X139600000Y-122133800D03*
X138649999Y-122133800D03*
D48*
X148810000Y-88646000D03*
X144810000Y-88646000D03*
X144810000Y-92456000D03*
X148810000Y-92456000D03*
D49*
X142210000Y-89596000D03*
X142210000Y-87696000D03*
X140210000Y-88646000D03*
X140210000Y-92456000D03*
X142210000Y-91506000D03*
X142210000Y-93406000D03*
D33*
X136850000Y-88646000D03*
X138350000Y-88646000D03*
X136850000Y-92456000D03*
X138350000Y-92456000D03*
D50*
X144140000Y-120940000D03*
D51*
X145115000Y-122490000D03*
X144465000Y-122490000D03*
X143814999Y-122490000D03*
X143165001Y-122490000D03*
X143165001Y-119390000D03*
X143814999Y-119390000D03*
X144465000Y-119390000D03*
X145115000Y-119390000D03*
D52*
X126472900Y-108555000D03*
X126472900Y-109825000D03*
X126472900Y-111095000D03*
X126472900Y-112365000D03*
X126472900Y-113635000D03*
X126472900Y-114905000D03*
X126472900Y-116175000D03*
X126472900Y-117445000D03*
X126472900Y-118715000D03*
X126472900Y-119985000D03*
X126472900Y-121255000D03*
X126472900Y-122525000D03*
X135947100Y-122525000D03*
X135947100Y-121255000D03*
X135947100Y-119985000D03*
X135947100Y-118715000D03*
X135947100Y-117445000D03*
X135947100Y-116175000D03*
X135947100Y-114905000D03*
X135947100Y-113635000D03*
X135947100Y-112365000D03*
X135947100Y-111095000D03*
X135947100Y-109825000D03*
X135947100Y-108555000D03*
X114554900Y-108555000D03*
X114554900Y-109825000D03*
X114554900Y-111095000D03*
X114554900Y-112365000D03*
X114554900Y-113635000D03*
X114554900Y-114905000D03*
X114554900Y-116175000D03*
X114554900Y-117445000D03*
X114554900Y-118715000D03*
X114554900Y-119985000D03*
X114554900Y-121255000D03*
X114554900Y-122525000D03*
X124029100Y-122525000D03*
X124029100Y-121255000D03*
X124029100Y-119985000D03*
X124029100Y-118715000D03*
X124029100Y-117445000D03*
X124029100Y-116175000D03*
X124029100Y-114905000D03*
X124029100Y-113635000D03*
X124029100Y-112365000D03*
X124029100Y-111095000D03*
X124029100Y-109825000D03*
X124029100Y-108555000D03*
D23*
X136240000Y-134050000D03*
X134240000Y-134050000D03*
D13*
X159674000Y-57840000D03*
D12*
X161439300Y-57840000D03*
D53*
X159509000Y-54175000D03*
X159509000Y-52905000D03*
X159509000Y-51635000D03*
X159509000Y-50365000D03*
X165851000Y-50365000D03*
X165851000Y-51635000D03*
X165851000Y-52905000D03*
X165851000Y-54175000D03*
D31*
X164490000Y-57840000D03*
X167490000Y-57840000D03*
X141910000Y-58530000D03*
X138910000Y-58530000D03*
D32*
X135628000Y-70380000D03*
X135628000Y-71880000D03*
X135628000Y-67850000D03*
X135628000Y-66350000D03*
D54*
X156595000Y-55830000D03*
X145345000Y-55830000D03*
M02*
