G04 #@! TF.GenerationSoftware,KiCad,Pcbnew,(5.1.6-0-10_14)*
G04 #@! TF.CreationDate,2021-12-04T22:46:38+09:00*
G04 #@! TF.ProjectId,qPCR-main,71504352-2d6d-4616-996e-2e6b69636164,rev?*
G04 #@! TF.SameCoordinates,Original*
G04 #@! TF.FileFunction,Legend,Top*
G04 #@! TF.FilePolarity,Positive*
%FSLAX46Y46*%
G04 Gerber Fmt 4.6, Leading zero omitted, Abs format (unit mm)*
G04 Created by KiCad (PCBNEW (5.1.6-0-10_14)) date 2021-12-04 22:46:38*
%MOMM*%
%LPD*%
G01*
G04 APERTURE LIST*
%ADD10C,0.149860*%
%ADD11C,0.254000*%
%ADD12C,0.150000*%
%ADD13C,0.375000*%
%ADD14C,0.127000*%
%ADD15C,0.300000*%
%ADD16C,0.500000*%
%ADD17C,0.120000*%
%ADD18C,0.152400*%
%ADD19C,0.100000*%
%ADD20C,0.050000*%
%ADD21C,0.200000*%
G04 APERTURE END LIST*
D10*
X144100000Y-117647619D02*
X144100000Y-117409523D01*
X144338095Y-117504761D02*
X144100000Y-117409523D01*
X143861904Y-117504761D01*
X144242857Y-117219047D02*
X144100000Y-117409523D01*
X143957142Y-117219047D01*
X134800000Y-125747619D02*
X134800000Y-125509523D01*
X135038095Y-125604761D02*
X134800000Y-125509523D01*
X134561904Y-125604761D01*
X134942857Y-125319047D02*
X134800000Y-125509523D01*
X134657142Y-125319047D01*
X132900000Y-131447619D02*
X132900000Y-131209523D01*
X133138095Y-131304761D02*
X132900000Y-131209523D01*
X132661904Y-131304761D01*
X133042857Y-131019047D02*
X132900000Y-131209523D01*
X132757142Y-131019047D01*
X121600000Y-126747619D02*
X121600000Y-126509523D01*
X121838095Y-126604761D02*
X121600000Y-126509523D01*
X121361904Y-126604761D01*
X121742857Y-126319047D02*
X121600000Y-126509523D01*
X121457142Y-126319047D01*
X112700000Y-125147619D02*
X112700000Y-124909523D01*
X112938095Y-125004761D02*
X112700000Y-124909523D01*
X112461904Y-125004761D01*
X112842857Y-124719047D02*
X112700000Y-124909523D01*
X112557142Y-124719047D01*
X109100000Y-117847619D02*
X109100000Y-117609523D01*
X109338095Y-117704761D02*
X109100000Y-117609523D01*
X108861904Y-117704761D01*
X109242857Y-117419047D02*
X109100000Y-117609523D01*
X108957142Y-117419047D01*
D11*
X120935428Y-40340380D02*
X121419238Y-40340380D01*
X121419238Y-41356380D01*
X120596761Y-40340380D02*
X120596761Y-41356380D01*
X120112952Y-40340380D02*
X120112952Y-41356380D01*
X119871047Y-41356380D01*
X119725904Y-41308000D01*
X119629142Y-41211238D01*
X119580761Y-41114476D01*
X119532380Y-40920952D01*
X119532380Y-40775809D01*
X119580761Y-40582285D01*
X119629142Y-40485523D01*
X119725904Y-40388761D01*
X119871047Y-40340380D01*
X120112952Y-40340380D01*
X118417523Y-41356380D02*
X118175619Y-40340380D01*
X117982095Y-41066095D01*
X117788571Y-40340380D01*
X117546666Y-41356380D01*
X117159619Y-40872571D02*
X116820952Y-40872571D01*
X116675809Y-40340380D02*
X117159619Y-40340380D01*
X117159619Y-41356380D01*
X116675809Y-41356380D01*
X115756571Y-40340380D02*
X116240380Y-40340380D01*
X116240380Y-41356380D01*
X114934095Y-40340380D02*
X115417904Y-40340380D01*
X115417904Y-41356380D01*
X113591809Y-40630666D02*
X113108000Y-40630666D01*
X113688571Y-40340380D02*
X113349904Y-41356380D01*
X113011238Y-40340380D01*
X112672571Y-40340380D02*
X112672571Y-41356380D01*
X111608190Y-40340380D02*
X111946857Y-40824190D01*
X112188761Y-40340380D02*
X112188761Y-41356380D01*
X111801714Y-41356380D01*
X111704952Y-41308000D01*
X111656571Y-41259619D01*
X111608190Y-41162857D01*
X111608190Y-41017714D01*
X111656571Y-40920952D01*
X111704952Y-40872571D01*
X111801714Y-40824190D01*
X112188761Y-40824190D01*
X98338476Y-40340380D02*
X98338476Y-41356380D01*
X98096571Y-41356380D01*
X97951428Y-41308000D01*
X97854666Y-41211238D01*
X97806285Y-41114476D01*
X97757904Y-40920952D01*
X97757904Y-40775809D01*
X97806285Y-40582285D01*
X97854666Y-40485523D01*
X97951428Y-40388761D01*
X98096571Y-40340380D01*
X98338476Y-40340380D01*
X97128952Y-41356380D02*
X96935428Y-41356380D01*
X96838666Y-41308000D01*
X96741904Y-41211238D01*
X96693523Y-41017714D01*
X96693523Y-40679047D01*
X96741904Y-40485523D01*
X96838666Y-40388761D01*
X96935428Y-40340380D01*
X97128952Y-40340380D01*
X97225714Y-40388761D01*
X97322476Y-40485523D01*
X97370857Y-40679047D01*
X97370857Y-41017714D01*
X97322476Y-41211238D01*
X97225714Y-41308000D01*
X97128952Y-41356380D01*
X96064571Y-41356380D02*
X95871047Y-41356380D01*
X95774285Y-41308000D01*
X95677523Y-41211238D01*
X95629142Y-41017714D01*
X95629142Y-40679047D01*
X95677523Y-40485523D01*
X95774285Y-40388761D01*
X95871047Y-40340380D01*
X96064571Y-40340380D01*
X96161333Y-40388761D01*
X96258095Y-40485523D01*
X96306476Y-40679047D01*
X96306476Y-41017714D01*
X96258095Y-41211238D01*
X96161333Y-41308000D01*
X96064571Y-41356380D01*
X94613142Y-40340380D02*
X94951809Y-40824190D01*
X95193714Y-40340380D02*
X95193714Y-41356380D01*
X94806666Y-41356380D01*
X94709904Y-41308000D01*
X94661523Y-41259619D01*
X94613142Y-41162857D01*
X94613142Y-41017714D01*
X94661523Y-40920952D01*
X94709904Y-40872571D01*
X94806666Y-40824190D01*
X95193714Y-40824190D01*
D12*
X110600000Y-40800000D02*
X110600000Y-42300000D01*
X108600000Y-40800000D02*
X110600000Y-40800000D01*
X98700000Y-40800000D02*
X98700000Y-42200000D01*
X100500000Y-40800000D02*
X98700000Y-40800000D01*
D11*
X108204380Y-40772571D02*
X107865714Y-40772571D01*
X107720571Y-40240380D02*
X108204380Y-40240380D01*
X108204380Y-41256380D01*
X107720571Y-41256380D01*
X107381904Y-41256380D02*
X106704571Y-40240380D01*
X106704571Y-41256380D02*
X107381904Y-40240380D01*
X106462666Y-41256380D02*
X105882095Y-41256380D01*
X106172380Y-40240380D02*
X106172380Y-41256380D01*
X105011238Y-40240380D02*
X105591809Y-40240380D01*
X105301523Y-40240380D02*
X105301523Y-41256380D01*
X105398285Y-41111238D01*
X105495047Y-41014476D01*
X105591809Y-40966095D01*
X103850095Y-41304761D02*
X104720952Y-39998476D01*
X103559809Y-41159619D02*
X103511428Y-41208000D01*
X103414666Y-41256380D01*
X103172761Y-41256380D01*
X103076000Y-41208000D01*
X103027619Y-41159619D01*
X102979238Y-41062857D01*
X102979238Y-40966095D01*
X103027619Y-40820952D01*
X103608190Y-40240380D01*
X102979238Y-40240380D01*
X101818095Y-41304761D02*
X102688952Y-39998476D01*
X101576190Y-41256380D02*
X100947238Y-41256380D01*
X101285904Y-40869333D01*
X101140761Y-40869333D01*
X101044000Y-40820952D01*
X100995619Y-40772571D01*
X100947238Y-40675809D01*
X100947238Y-40433904D01*
X100995619Y-40337142D01*
X101044000Y-40288761D01*
X101140761Y-40240380D01*
X101431047Y-40240380D01*
X101527809Y-40288761D01*
X101576190Y-40337142D01*
X114933714Y-48140380D02*
X115417523Y-48140380D01*
X115417523Y-49156380D01*
X114401523Y-49156380D02*
X114208000Y-49156380D01*
X114111238Y-49108000D01*
X114014476Y-49011238D01*
X113966095Y-48817714D01*
X113966095Y-48479047D01*
X114014476Y-48285523D01*
X114111238Y-48188761D01*
X114208000Y-48140380D01*
X114401523Y-48140380D01*
X114498285Y-48188761D01*
X114595047Y-48285523D01*
X114643428Y-48479047D01*
X114643428Y-48817714D01*
X114595047Y-49011238D01*
X114498285Y-49108000D01*
X114401523Y-49156380D01*
X112950095Y-48237142D02*
X112998476Y-48188761D01*
X113143619Y-48140380D01*
X113240380Y-48140380D01*
X113385523Y-48188761D01*
X113482285Y-48285523D01*
X113530666Y-48382285D01*
X113579047Y-48575809D01*
X113579047Y-48720952D01*
X113530666Y-48914476D01*
X113482285Y-49011238D01*
X113385523Y-49108000D01*
X113240380Y-49156380D01*
X113143619Y-49156380D01*
X112998476Y-49108000D01*
X112950095Y-49059619D01*
X112514666Y-48140380D02*
X112514666Y-49156380D01*
X111934095Y-48140380D02*
X112369523Y-48720952D01*
X111934095Y-49156380D02*
X112514666Y-48575809D01*
X122922476Y-48772571D02*
X123261142Y-48772571D01*
X123261142Y-48240380D02*
X123261142Y-49256380D01*
X122777333Y-49256380D01*
X122438666Y-48530666D02*
X121954857Y-48530666D01*
X122535428Y-48240380D02*
X122196761Y-49256380D01*
X121858095Y-48240380D01*
X121519428Y-48240380D02*
X121519428Y-49256380D01*
X120938857Y-48240380D01*
X120938857Y-49256380D01*
X133217523Y-49256380D02*
X132975619Y-48240380D01*
X132782095Y-48966095D01*
X132588571Y-48240380D01*
X132346666Y-49256380D01*
X131959619Y-48772571D02*
X131620952Y-48772571D01*
X131475809Y-48240380D02*
X131959619Y-48240380D01*
X131959619Y-49256380D01*
X131475809Y-49256380D01*
X130556571Y-48240380D02*
X131040380Y-48240380D01*
X131040380Y-49256380D01*
X129734095Y-48240380D02*
X130217904Y-48240380D01*
X130217904Y-49256380D01*
X140235428Y-48240380D02*
X140719238Y-48240380D01*
X140719238Y-49256380D01*
X139896761Y-48240380D02*
X139896761Y-49256380D01*
X139412952Y-48240380D02*
X139412952Y-49256380D01*
X139171047Y-49256380D01*
X139025904Y-49208000D01*
X138929142Y-49111238D01*
X138880761Y-49014476D01*
X138832380Y-48820952D01*
X138832380Y-48675809D01*
X138880761Y-48482285D01*
X138929142Y-48385523D01*
X139025904Y-48288761D01*
X139171047Y-48240380D01*
X139412952Y-48240380D01*
D13*
X162357142Y-86892857D02*
X162571428Y-86964285D01*
X162642857Y-87035714D01*
X162714285Y-87178571D01*
X162714285Y-87392857D01*
X162642857Y-87535714D01*
X162571428Y-87607142D01*
X162428571Y-87678571D01*
X161857142Y-87678571D01*
X161857142Y-86178571D01*
X162357142Y-86178571D01*
X162500000Y-86250000D01*
X162571428Y-86321428D01*
X162642857Y-86464285D01*
X162642857Y-86607142D01*
X162571428Y-86750000D01*
X162500000Y-86821428D01*
X162357142Y-86892857D01*
X161857142Y-86892857D01*
X164071428Y-87678571D02*
X163357142Y-87678571D01*
X163357142Y-86178571D01*
X164500000Y-87250000D02*
X165214285Y-87250000D01*
X164357142Y-87678571D02*
X164857142Y-86178571D01*
X165357142Y-87678571D01*
X166714285Y-87535714D02*
X166642857Y-87607142D01*
X166428571Y-87678571D01*
X166285714Y-87678571D01*
X166071428Y-87607142D01*
X165928571Y-87464285D01*
X165857142Y-87321428D01*
X165785714Y-87035714D01*
X165785714Y-86821428D01*
X165857142Y-86535714D01*
X165928571Y-86392857D01*
X166071428Y-86250000D01*
X166285714Y-86178571D01*
X166428571Y-86178571D01*
X166642857Y-86250000D01*
X166714285Y-86321428D01*
X167357142Y-87678571D02*
X167357142Y-86178571D01*
X168214285Y-87678571D02*
X167571428Y-86821428D01*
X168214285Y-86178571D02*
X167357142Y-87035714D01*
X164035714Y-84178571D02*
X163535714Y-83464285D01*
X163178571Y-84178571D02*
X163178571Y-82678571D01*
X163750000Y-82678571D01*
X163892857Y-82750000D01*
X163964285Y-82821428D01*
X164035714Y-82964285D01*
X164035714Y-83178571D01*
X163964285Y-83321428D01*
X163892857Y-83392857D01*
X163750000Y-83464285D01*
X163178571Y-83464285D01*
X164678571Y-83392857D02*
X165178571Y-83392857D01*
X165392857Y-84178571D02*
X164678571Y-84178571D01*
X164678571Y-82678571D01*
X165392857Y-82678571D01*
X166035714Y-84178571D02*
X166035714Y-82678571D01*
X166392857Y-82678571D01*
X166607142Y-82750000D01*
X166750000Y-82892857D01*
X166821428Y-83035714D01*
X166892857Y-83321428D01*
X166892857Y-83535714D01*
X166821428Y-83821428D01*
X166750000Y-83964285D01*
X166607142Y-84107142D01*
X166392857Y-84178571D01*
X166035714Y-84178571D01*
D14*
X145018190Y-146146000D02*
X144969809Y-146121809D01*
X144897238Y-146121809D01*
X144824666Y-146146000D01*
X144776285Y-146194380D01*
X144752095Y-146242761D01*
X144727904Y-146339523D01*
X144727904Y-146412095D01*
X144752095Y-146508857D01*
X144776285Y-146557238D01*
X144824666Y-146605619D01*
X144897238Y-146629809D01*
X144945619Y-146629809D01*
X145018190Y-146605619D01*
X145042380Y-146581428D01*
X145042380Y-146412095D01*
X144945619Y-146412095D01*
X145260095Y-146629809D02*
X145260095Y-146121809D01*
X145453619Y-146121809D01*
X145502000Y-146146000D01*
X145526190Y-146170190D01*
X145550380Y-146218571D01*
X145550380Y-146291142D01*
X145526190Y-146339523D01*
X145502000Y-146363714D01*
X145453619Y-146387904D01*
X145260095Y-146387904D01*
X145768095Y-146629809D02*
X145768095Y-146121809D01*
X146106761Y-146121809D02*
X146203523Y-146121809D01*
X146251904Y-146146000D01*
X146300285Y-146194380D01*
X146324476Y-146291142D01*
X146324476Y-146460476D01*
X146300285Y-146557238D01*
X146251904Y-146605619D01*
X146203523Y-146629809D01*
X146106761Y-146629809D01*
X146058380Y-146605619D01*
X146010000Y-146557238D01*
X145985809Y-146460476D01*
X145985809Y-146291142D01*
X146010000Y-146194380D01*
X146058380Y-146146000D01*
X146106761Y-146121809D01*
X146518000Y-146170190D02*
X146542190Y-146146000D01*
X146590571Y-146121809D01*
X146711523Y-146121809D01*
X146759904Y-146146000D01*
X146784095Y-146170190D01*
X146808285Y-146218571D01*
X146808285Y-146266952D01*
X146784095Y-146339523D01*
X146493809Y-146629809D01*
X146808285Y-146629809D01*
X147001809Y-146170190D02*
X147026000Y-146146000D01*
X147074380Y-146121809D01*
X147195333Y-146121809D01*
X147243714Y-146146000D01*
X147267904Y-146170190D01*
X147292095Y-146218571D01*
X147292095Y-146266952D01*
X147267904Y-146339523D01*
X146977619Y-146629809D01*
X147292095Y-146629809D01*
X152638190Y-146146000D02*
X152589809Y-146121809D01*
X152517238Y-146121809D01*
X152444666Y-146146000D01*
X152396285Y-146194380D01*
X152372095Y-146242761D01*
X152347904Y-146339523D01*
X152347904Y-146412095D01*
X152372095Y-146508857D01*
X152396285Y-146557238D01*
X152444666Y-146605619D01*
X152517238Y-146629809D01*
X152565619Y-146629809D01*
X152638190Y-146605619D01*
X152662380Y-146581428D01*
X152662380Y-146412095D01*
X152565619Y-146412095D01*
X152880095Y-146629809D02*
X152880095Y-146121809D01*
X153073619Y-146121809D01*
X153122000Y-146146000D01*
X153146190Y-146170190D01*
X153170380Y-146218571D01*
X153170380Y-146291142D01*
X153146190Y-146339523D01*
X153122000Y-146363714D01*
X153073619Y-146387904D01*
X152880095Y-146387904D01*
X153388095Y-146629809D02*
X153388095Y-146121809D01*
X153726761Y-146121809D02*
X153823523Y-146121809D01*
X153871904Y-146146000D01*
X153920285Y-146194380D01*
X153944476Y-146291142D01*
X153944476Y-146460476D01*
X153920285Y-146557238D01*
X153871904Y-146605619D01*
X153823523Y-146629809D01*
X153726761Y-146629809D01*
X153678380Y-146605619D01*
X153630000Y-146557238D01*
X153605809Y-146460476D01*
X153605809Y-146291142D01*
X153630000Y-146194380D01*
X153678380Y-146146000D01*
X153726761Y-146121809D01*
X154138000Y-146170190D02*
X154162190Y-146146000D01*
X154210571Y-146121809D01*
X154331523Y-146121809D01*
X154379904Y-146146000D01*
X154404095Y-146170190D01*
X154428285Y-146218571D01*
X154428285Y-146266952D01*
X154404095Y-146339523D01*
X154113809Y-146629809D01*
X154428285Y-146629809D01*
X154670190Y-146629809D02*
X154766952Y-146629809D01*
X154815333Y-146605619D01*
X154839523Y-146581428D01*
X154887904Y-146508857D01*
X154912095Y-146412095D01*
X154912095Y-146218571D01*
X154887904Y-146170190D01*
X154863714Y-146146000D01*
X154815333Y-146121809D01*
X154718571Y-146121809D01*
X154670190Y-146146000D01*
X154646000Y-146170190D01*
X154621809Y-146218571D01*
X154621809Y-146339523D01*
X154646000Y-146387904D01*
X154670190Y-146412095D01*
X154718571Y-146436285D01*
X154815333Y-146436285D01*
X154863714Y-146412095D01*
X154887904Y-146387904D01*
X154912095Y-146339523D01*
X133213238Y-146629809D02*
X132922952Y-146629809D01*
X133068095Y-146629809D02*
X133068095Y-146121809D01*
X133019714Y-146194380D01*
X132971333Y-146242761D01*
X132922952Y-146266952D01*
X133648666Y-146291142D02*
X133648666Y-146629809D01*
X133527714Y-146097619D02*
X133406761Y-146460476D01*
X133721238Y-146460476D01*
X130673238Y-146629809D02*
X130382952Y-146629809D01*
X130528095Y-146629809D02*
X130528095Y-146121809D01*
X130479714Y-146194380D01*
X130431333Y-146242761D01*
X130382952Y-146266952D01*
X130842571Y-146121809D02*
X131157047Y-146121809D01*
X130987714Y-146315333D01*
X131060285Y-146315333D01*
X131108666Y-146339523D01*
X131132857Y-146363714D01*
X131157047Y-146412095D01*
X131157047Y-146533047D01*
X131132857Y-146581428D01*
X131108666Y-146605619D01*
X131060285Y-146629809D01*
X130915142Y-146629809D01*
X130866761Y-146605619D01*
X130842571Y-146581428D01*
X128133238Y-146629809D02*
X127842952Y-146629809D01*
X127988095Y-146629809D02*
X127988095Y-146121809D01*
X127939714Y-146194380D01*
X127891333Y-146242761D01*
X127842952Y-146266952D01*
X128326761Y-146170190D02*
X128350952Y-146146000D01*
X128399333Y-146121809D01*
X128520285Y-146121809D01*
X128568666Y-146146000D01*
X128592857Y-146170190D01*
X128617047Y-146218571D01*
X128617047Y-146266952D01*
X128592857Y-146339523D01*
X128302571Y-146629809D01*
X128617047Y-146629809D01*
X125810952Y-146121809D02*
X125569047Y-146121809D01*
X125544857Y-146363714D01*
X125569047Y-146339523D01*
X125617428Y-146315333D01*
X125738380Y-146315333D01*
X125786761Y-146339523D01*
X125810952Y-146363714D01*
X125835142Y-146412095D01*
X125835142Y-146533047D01*
X125810952Y-146581428D01*
X125786761Y-146605619D01*
X125738380Y-146629809D01*
X125617428Y-146629809D01*
X125569047Y-146605619D01*
X125544857Y-146581428D01*
X122400095Y-146146000D02*
X122351714Y-146121809D01*
X122279142Y-146121809D01*
X122206571Y-146146000D01*
X122158190Y-146194380D01*
X122134000Y-146242761D01*
X122109809Y-146339523D01*
X122109809Y-146412095D01*
X122134000Y-146508857D01*
X122158190Y-146557238D01*
X122206571Y-146605619D01*
X122279142Y-146629809D01*
X122327523Y-146629809D01*
X122400095Y-146605619D01*
X122424285Y-146581428D01*
X122424285Y-146412095D01*
X122327523Y-146412095D01*
X122642000Y-146629809D02*
X122642000Y-146121809D01*
X122835523Y-146121809D01*
X122883904Y-146146000D01*
X122908095Y-146170190D01*
X122932285Y-146218571D01*
X122932285Y-146291142D01*
X122908095Y-146339523D01*
X122883904Y-146363714D01*
X122835523Y-146387904D01*
X122642000Y-146387904D01*
X123150000Y-146629809D02*
X123150000Y-146121809D01*
X123488666Y-146121809D02*
X123585428Y-146121809D01*
X123633809Y-146146000D01*
X123682190Y-146194380D01*
X123706380Y-146291142D01*
X123706380Y-146460476D01*
X123682190Y-146557238D01*
X123633809Y-146605619D01*
X123585428Y-146629809D01*
X123488666Y-146629809D01*
X123440285Y-146605619D01*
X123391904Y-146557238D01*
X123367714Y-146460476D01*
X123367714Y-146291142D01*
X123391904Y-146194380D01*
X123440285Y-146146000D01*
X123488666Y-146121809D01*
X123875714Y-146121809D02*
X124190190Y-146121809D01*
X124020857Y-146315333D01*
X124093428Y-146315333D01*
X124141809Y-146339523D01*
X124166000Y-146363714D01*
X124190190Y-146412095D01*
X124190190Y-146533047D01*
X124166000Y-146581428D01*
X124141809Y-146605619D01*
X124093428Y-146629809D01*
X123948285Y-146629809D01*
X123899904Y-146605619D01*
X123875714Y-146581428D01*
X103291809Y-149452285D02*
X103291809Y-149694190D01*
X103533714Y-149718380D01*
X103509523Y-149694190D01*
X103485333Y-149645809D01*
X103485333Y-149524857D01*
X103509523Y-149476476D01*
X103533714Y-149452285D01*
X103582095Y-149428095D01*
X103703047Y-149428095D01*
X103751428Y-149452285D01*
X103775619Y-149476476D01*
X103799809Y-149524857D01*
X103799809Y-149645809D01*
X103775619Y-149694190D01*
X103751428Y-149718380D01*
X103291809Y-149282952D02*
X103799809Y-149113619D01*
X103291809Y-148944285D01*
X103848190Y-148895904D02*
X103848190Y-148508857D01*
X103291809Y-148387904D02*
X103703047Y-148387904D01*
X103751428Y-148363714D01*
X103775619Y-148339523D01*
X103799809Y-148291142D01*
X103799809Y-148194380D01*
X103775619Y-148146000D01*
X103751428Y-148121809D01*
X103703047Y-148097619D01*
X103291809Y-148097619D01*
X103799809Y-147855714D02*
X103291809Y-147855714D01*
X103291809Y-147662190D01*
X103316000Y-147613809D01*
X103340190Y-147589619D01*
X103388571Y-147565428D01*
X103461142Y-147565428D01*
X103509523Y-147589619D01*
X103533714Y-147613809D01*
X103557904Y-147662190D01*
X103557904Y-147855714D01*
X103775619Y-147371904D02*
X103799809Y-147299333D01*
X103799809Y-147178380D01*
X103775619Y-147130000D01*
X103751428Y-147105809D01*
X103703047Y-147081619D01*
X103654666Y-147081619D01*
X103606285Y-147105809D01*
X103582095Y-147130000D01*
X103557904Y-147178380D01*
X103533714Y-147275142D01*
X103509523Y-147323523D01*
X103485333Y-147347714D01*
X103436952Y-147371904D01*
X103388571Y-147371904D01*
X103340190Y-147347714D01*
X103316000Y-147323523D01*
X103291809Y-147275142D01*
X103291809Y-147154190D01*
X103316000Y-147081619D01*
X117126000Y-148437047D02*
X117101809Y-148485428D01*
X117101809Y-148558000D01*
X117126000Y-148630571D01*
X117174380Y-148678952D01*
X117222761Y-148703142D01*
X117319523Y-148727333D01*
X117392095Y-148727333D01*
X117488857Y-148703142D01*
X117537238Y-148678952D01*
X117585619Y-148630571D01*
X117609809Y-148558000D01*
X117609809Y-148509619D01*
X117585619Y-148437047D01*
X117561428Y-148412857D01*
X117392095Y-148412857D01*
X117392095Y-148509619D01*
X117609809Y-148195142D02*
X117101809Y-148195142D01*
X117609809Y-147904857D01*
X117101809Y-147904857D01*
X117609809Y-147662952D02*
X117101809Y-147662952D01*
X117101809Y-147542000D01*
X117126000Y-147469428D01*
X117174380Y-147421047D01*
X117222761Y-147396857D01*
X117319523Y-147372666D01*
X117392095Y-147372666D01*
X117488857Y-147396857D01*
X117537238Y-147421047D01*
X117585619Y-147469428D01*
X117609809Y-147542000D01*
X117609809Y-147662952D01*
X98980000Y-136592714D02*
X98980000Y-136774142D01*
X98798571Y-136701571D02*
X98980000Y-136774142D01*
X99161428Y-136701571D01*
X98871142Y-136919285D02*
X98980000Y-136774142D01*
X99088857Y-136919285D01*
D15*
X85931428Y-60528571D02*
X85931428Y-59028571D01*
X85931428Y-59600000D02*
X86074285Y-59528571D01*
X86360000Y-59528571D01*
X86502857Y-59600000D01*
X86574285Y-59671428D01*
X86645714Y-59814285D01*
X86645714Y-60242857D01*
X86574285Y-60385714D01*
X86502857Y-60457142D01*
X86360000Y-60528571D01*
X86074285Y-60528571D01*
X85931428Y-60457142D01*
X87931428Y-60528571D02*
X87931428Y-59742857D01*
X87860000Y-59600000D01*
X87717142Y-59528571D01*
X87431428Y-59528571D01*
X87288571Y-59600000D01*
X87931428Y-60457142D02*
X87788571Y-60528571D01*
X87431428Y-60528571D01*
X87288571Y-60457142D01*
X87217142Y-60314285D01*
X87217142Y-60171428D01*
X87288571Y-60028571D01*
X87431428Y-59957142D01*
X87788571Y-59957142D01*
X87931428Y-59885714D01*
X88431428Y-59528571D02*
X89002857Y-59528571D01*
X88645714Y-59028571D02*
X88645714Y-60314285D01*
X88717142Y-60457142D01*
X88860000Y-60528571D01*
X89002857Y-60528571D01*
X90145714Y-60457142D02*
X90002857Y-60528571D01*
X89717142Y-60528571D01*
X89574285Y-60457142D01*
X89502857Y-60385714D01*
X89431428Y-60242857D01*
X89431428Y-59814285D01*
X89502857Y-59671428D01*
X89574285Y-59600000D01*
X89717142Y-59528571D01*
X90002857Y-59528571D01*
X90145714Y-59600000D01*
X90788571Y-60528571D02*
X90788571Y-59028571D01*
X91431428Y-60528571D02*
X91431428Y-59742857D01*
X91360000Y-59600000D01*
X91217142Y-59528571D01*
X91002857Y-59528571D01*
X90860000Y-59600000D01*
X90788571Y-59671428D01*
X92931428Y-60528571D02*
X92074285Y-60528571D01*
X92502857Y-60528571D02*
X92502857Y-59028571D01*
X92360000Y-59242857D01*
X92217142Y-59385714D01*
X92074285Y-59457142D01*
X94288571Y-59028571D02*
X93574285Y-59028571D01*
X93502857Y-59742857D01*
X93574285Y-59671428D01*
X93717142Y-59600000D01*
X94074285Y-59600000D01*
X94217142Y-59671428D01*
X94288571Y-59742857D01*
X94360000Y-59885714D01*
X94360000Y-60242857D01*
X94288571Y-60385714D01*
X94217142Y-60457142D01*
X94074285Y-60528571D01*
X93717142Y-60528571D01*
X93574285Y-60457142D01*
X93502857Y-60385714D01*
X96074285Y-58957142D02*
X94788571Y-60885714D01*
X96574285Y-60528571D02*
X96574285Y-59528571D01*
X96574285Y-59671428D02*
X96645714Y-59600000D01*
X96788571Y-59528571D01*
X97002857Y-59528571D01*
X97145714Y-59600000D01*
X97217142Y-59742857D01*
X97217142Y-60528571D01*
X97217142Y-59742857D02*
X97288571Y-59600000D01*
X97431428Y-59528571D01*
X97645714Y-59528571D01*
X97788571Y-59600000D01*
X97860000Y-59742857D01*
X97860000Y-60528571D01*
X99217142Y-60528571D02*
X99217142Y-59742857D01*
X99145714Y-59600000D01*
X99002857Y-59528571D01*
X98717142Y-59528571D01*
X98574285Y-59600000D01*
X99217142Y-60457142D02*
X99074285Y-60528571D01*
X98717142Y-60528571D01*
X98574285Y-60457142D01*
X98502857Y-60314285D01*
X98502857Y-60171428D01*
X98574285Y-60028571D01*
X98717142Y-59957142D01*
X99074285Y-59957142D01*
X99217142Y-59885714D01*
X99931428Y-60528571D02*
X99931428Y-59528571D01*
X99931428Y-59028571D02*
X99860000Y-59100000D01*
X99931428Y-59171428D01*
X100002857Y-59100000D01*
X99931428Y-59028571D01*
X99931428Y-59171428D01*
X100645714Y-59528571D02*
X100645714Y-60528571D01*
X100645714Y-59671428D02*
X100717142Y-59600000D01*
X100860000Y-59528571D01*
X101074285Y-59528571D01*
X101217142Y-59600000D01*
X101288571Y-59742857D01*
X101288571Y-60528571D01*
X85574285Y-57088571D02*
X85574285Y-55588571D01*
X86145714Y-55588571D01*
X86288571Y-55660000D01*
X86360000Y-55731428D01*
X86431428Y-55874285D01*
X86431428Y-56088571D01*
X86360000Y-56231428D01*
X86288571Y-56302857D01*
X86145714Y-56374285D01*
X85574285Y-56374285D01*
X87645714Y-57017142D02*
X87502857Y-57088571D01*
X87217142Y-57088571D01*
X87074285Y-57017142D01*
X87002857Y-56874285D01*
X87002857Y-56302857D01*
X87074285Y-56160000D01*
X87217142Y-56088571D01*
X87502857Y-56088571D01*
X87645714Y-56160000D01*
X87717142Y-56302857D01*
X87717142Y-56445714D01*
X87002857Y-56588571D01*
X88360000Y-57088571D02*
X88360000Y-56088571D01*
X88360000Y-56374285D02*
X88431428Y-56231428D01*
X88502857Y-56160000D01*
X88645714Y-56088571D01*
X88788571Y-56088571D01*
X89217142Y-57017142D02*
X89360000Y-57088571D01*
X89645714Y-57088571D01*
X89788571Y-57017142D01*
X89860000Y-56874285D01*
X89860000Y-56802857D01*
X89788571Y-56660000D01*
X89645714Y-56588571D01*
X89431428Y-56588571D01*
X89288571Y-56517142D01*
X89217142Y-56374285D01*
X89217142Y-56302857D01*
X89288571Y-56160000D01*
X89431428Y-56088571D01*
X89645714Y-56088571D01*
X89788571Y-56160000D01*
X90717142Y-57088571D02*
X90574285Y-57017142D01*
X90502857Y-56945714D01*
X90431428Y-56802857D01*
X90431428Y-56374285D01*
X90502857Y-56231428D01*
X90574285Y-56160000D01*
X90717142Y-56088571D01*
X90931428Y-56088571D01*
X91074285Y-56160000D01*
X91145714Y-56231428D01*
X91217142Y-56374285D01*
X91217142Y-56802857D01*
X91145714Y-56945714D01*
X91074285Y-57017142D01*
X90931428Y-57088571D01*
X90717142Y-57088571D01*
X91860000Y-56088571D02*
X91860000Y-57088571D01*
X91860000Y-56231428D02*
X91931428Y-56160000D01*
X92074285Y-56088571D01*
X92288571Y-56088571D01*
X92431428Y-56160000D01*
X92502857Y-56302857D01*
X92502857Y-57088571D01*
X93860000Y-57088571D02*
X93860000Y-56302857D01*
X93788571Y-56160000D01*
X93645714Y-56088571D01*
X93360000Y-56088571D01*
X93217142Y-56160000D01*
X93860000Y-57017142D02*
X93717142Y-57088571D01*
X93360000Y-57088571D01*
X93217142Y-57017142D01*
X93145714Y-56874285D01*
X93145714Y-56731428D01*
X93217142Y-56588571D01*
X93360000Y-56517142D01*
X93717142Y-56517142D01*
X93860000Y-56445714D01*
X94788571Y-57088571D02*
X94645714Y-57017142D01*
X94574285Y-56874285D01*
X94574285Y-55588571D01*
X97145714Y-56088571D02*
X97145714Y-57588571D01*
X97145714Y-57017142D02*
X97002857Y-57088571D01*
X96717142Y-57088571D01*
X96574285Y-57017142D01*
X96502857Y-56945714D01*
X96431428Y-56802857D01*
X96431428Y-56374285D01*
X96502857Y-56231428D01*
X96574285Y-56160000D01*
X96717142Y-56088571D01*
X97002857Y-56088571D01*
X97145714Y-56160000D01*
X97860000Y-57088571D02*
X97860000Y-55588571D01*
X98431428Y-55588571D01*
X98574285Y-55660000D01*
X98645714Y-55731428D01*
X98717142Y-55874285D01*
X98717142Y-56088571D01*
X98645714Y-56231428D01*
X98574285Y-56302857D01*
X98431428Y-56374285D01*
X97860000Y-56374285D01*
X100217142Y-56945714D02*
X100145714Y-57017142D01*
X99931428Y-57088571D01*
X99788571Y-57088571D01*
X99574285Y-57017142D01*
X99431428Y-56874285D01*
X99360000Y-56731428D01*
X99288571Y-56445714D01*
X99288571Y-56231428D01*
X99360000Y-55945714D01*
X99431428Y-55802857D01*
X99574285Y-55660000D01*
X99788571Y-55588571D01*
X99931428Y-55588571D01*
X100145714Y-55660000D01*
X100217142Y-55731428D01*
X101717142Y-57088571D02*
X101217142Y-56374285D01*
X100860000Y-57088571D02*
X100860000Y-55588571D01*
X101431428Y-55588571D01*
X101574285Y-55660000D01*
X101645714Y-55731428D01*
X101717142Y-55874285D01*
X101717142Y-56088571D01*
X101645714Y-56231428D01*
X101574285Y-56302857D01*
X101431428Y-56374285D01*
X100860000Y-56374285D01*
D16*
X88610000Y-53717142D02*
X88610000Y-50717142D01*
X90324285Y-53717142D01*
X90324285Y-50717142D01*
X91752857Y-53717142D02*
X91752857Y-51717142D01*
X91752857Y-50717142D02*
X91610000Y-50860000D01*
X91752857Y-51002857D01*
X91895714Y-50860000D01*
X91752857Y-50717142D01*
X91752857Y-51002857D01*
X93181428Y-51717142D02*
X93181428Y-53717142D01*
X93181428Y-52002857D02*
X93324285Y-51860000D01*
X93610000Y-51717142D01*
X94038571Y-51717142D01*
X94324285Y-51860000D01*
X94467142Y-52145714D01*
X94467142Y-53717142D01*
X95895714Y-51717142D02*
X95895714Y-54288571D01*
X95752857Y-54574285D01*
X95467142Y-54717142D01*
X95324285Y-54717142D01*
X95895714Y-50717142D02*
X95752857Y-50860000D01*
X95895714Y-51002857D01*
X96038571Y-50860000D01*
X95895714Y-50717142D01*
X95895714Y-51002857D01*
X98610000Y-53717142D02*
X98610000Y-52145714D01*
X98467142Y-51860000D01*
X98181428Y-51717142D01*
X97610000Y-51717142D01*
X97324285Y-51860000D01*
X98610000Y-53574285D02*
X98324285Y-53717142D01*
X97610000Y-53717142D01*
X97324285Y-53574285D01*
X97181428Y-53288571D01*
X97181428Y-53002857D01*
X97324285Y-52717142D01*
X97610000Y-52574285D01*
X98324285Y-52574285D01*
X98610000Y-52431428D01*
D17*
X161772601Y-65328501D02*
X161772601Y-79171501D01*
X161772601Y-79171501D02*
X174117000Y-79171501D01*
X174117000Y-79171501D02*
X174117000Y-69899321D01*
X174117000Y-65328501D02*
X161772601Y-65328501D01*
X174117000Y-67800680D02*
X174117000Y-65328501D01*
X175571000Y-68850501D02*
G75*
G03*
X175571000Y-68850501I-381000J0D01*
G01*
X102656800Y-61245500D02*
X105603200Y-61245500D01*
X105603200Y-59594500D02*
X102656800Y-59594500D01*
D18*
X116471200Y-57890400D02*
X116471200Y-56976000D01*
X115480600Y-60024000D02*
X116471200Y-60024000D01*
X116471200Y-60024000D02*
X116471200Y-59109600D01*
X116471200Y-56976000D02*
X116064800Y-56976000D01*
X116064800Y-56976000D02*
X115480600Y-56976000D01*
X116064800Y-56976000D02*
G75*
G02*
X115658400Y-57255400I-301019J2582D01*
G01*
X121636200Y-57890400D02*
X121636200Y-56976000D01*
X120645600Y-60024000D02*
X121636200Y-60024000D01*
X121636200Y-60024000D02*
X121636200Y-59109600D01*
X121636200Y-56976000D02*
X121229800Y-56976000D01*
X121229800Y-56976000D02*
X120645600Y-56976000D01*
X121229800Y-56976000D02*
G75*
G02*
X120823400Y-57255400I-301019J2582D01*
G01*
X131559800Y-56976000D02*
X130975600Y-56976000D01*
X131966200Y-56976000D02*
X131559800Y-56976000D01*
X131966200Y-60024000D02*
X131966200Y-59109600D01*
X130975600Y-60024000D02*
X131966200Y-60024000D01*
X131966200Y-57890400D02*
X131966200Y-56976000D01*
X131559800Y-56976000D02*
G75*
G02*
X131153400Y-57255400I-301019J2582D01*
G01*
X126394800Y-56976000D02*
X125810600Y-56976000D01*
X126801200Y-56976000D02*
X126394800Y-56976000D01*
X126801200Y-60024000D02*
X126801200Y-59109600D01*
X125810600Y-60024000D02*
X126801200Y-60024000D01*
X126801200Y-57890400D02*
X126801200Y-56976000D01*
X126394800Y-56976000D02*
G75*
G02*
X125988400Y-57255400I-301019J2582D01*
G01*
D17*
X135816189Y-130852700D02*
X139143811Y-130852700D01*
X139143811Y-125747300D02*
X135816189Y-125747300D01*
D19*
G36*
X141645600Y-129734501D02*
G01*
X141645600Y-130115501D01*
X141391600Y-130115501D01*
X141391600Y-129734501D01*
X141645600Y-129734501D01*
G37*
X141645600Y-129734501D02*
X141645600Y-130115501D01*
X141391600Y-130115501D01*
X141391600Y-129734501D01*
X141645600Y-129734501D01*
D17*
X137175200Y-125747300D02*
G75*
G03*
X137784800Y-125747300I304800J0D01*
G01*
X111470000Y-109010000D02*
X110770000Y-109010000D01*
X110770000Y-107810000D02*
X111470000Y-107810000D01*
X144233532Y-116320000D02*
X143233532Y-117320000D01*
X143233532Y-117320000D02*
X139733532Y-117320000D01*
X139733532Y-117320000D02*
X139733532Y-107620000D01*
X139733532Y-107620000D02*
X144233532Y-107620000D01*
X144233532Y-107620000D02*
X144233532Y-116320000D01*
X92116000Y-88420000D02*
X92116000Y-83220000D01*
X95756000Y-83220000D02*
X95756000Y-88420000D01*
X90396000Y-93210000D02*
X91326000Y-93210000D01*
X93556000Y-93210000D02*
X92626000Y-93210000D01*
X93556000Y-93210000D02*
X93556000Y-91050000D01*
X90396000Y-93210000D02*
X90396000Y-91750000D01*
X102610000Y-137850000D02*
X102610000Y-138550000D01*
X101410000Y-138550000D02*
X101410000Y-137850000D01*
X97290000Y-133710000D02*
X97990000Y-133710000D01*
X97990000Y-134910000D02*
X97290000Y-134910000D01*
X105720000Y-137850000D02*
X105720000Y-135850000D01*
X102760000Y-135850000D02*
X102760000Y-137850000D01*
X99880000Y-132680000D02*
X100880000Y-132680000D01*
X100880000Y-130980000D02*
X99880000Y-130980000D01*
X97820000Y-136530000D02*
X97120000Y-136530000D01*
X97120000Y-135330000D02*
X97820000Y-135330000D01*
X107190000Y-133160000D02*
X107190000Y-131160000D01*
X104230000Y-131160000D02*
X104230000Y-133160000D01*
X103990000Y-133220000D02*
X103990000Y-132220000D01*
X102290000Y-132220000D02*
X102290000Y-133220000D01*
X98320000Y-61980000D02*
X104020000Y-61980000D01*
X98320000Y-66280000D02*
X104020000Y-66280000D01*
X98320000Y-61980000D02*
X98320000Y-66280000D01*
X96420000Y-68740000D02*
X92120000Y-68740000D01*
X92120000Y-68740000D02*
X92120000Y-74440000D01*
X96420000Y-68740000D02*
X96420000Y-74440000D01*
X100201559Y-104518900D02*
X100028900Y-104518900D01*
X102218441Y-106881100D02*
X102391100Y-106881100D01*
X100028900Y-106881100D02*
X100201559Y-106881100D01*
X100028900Y-104518900D02*
X100028900Y-106881100D01*
X102391100Y-104518900D02*
X102218441Y-104518900D01*
X102391100Y-106881100D02*
X102391100Y-104518900D01*
D20*
X100155900Y-105524317D02*
G75*
G02*
X100155900Y-105875683I0J-175683D01*
G01*
D17*
X98820001Y-136369999D02*
X98820001Y-135319999D01*
X102119999Y-136369999D02*
X102119999Y-136170000D01*
X102119999Y-133370000D02*
X102119999Y-133170001D01*
X98820001Y-133370000D02*
X98820001Y-133170001D01*
X100760000Y-107170000D02*
X101460000Y-107170000D01*
X101460000Y-108370000D02*
X100760000Y-108370000D01*
X97540000Y-108220000D02*
X97540000Y-109220000D01*
X99240000Y-109220000D02*
X99240000Y-108220000D01*
X93010000Y-145520000D02*
X95010000Y-145520000D01*
X95010000Y-142560000D02*
X93010000Y-142560000D01*
X102660000Y-106140000D02*
X102660000Y-105440000D01*
X103860000Y-105440000D02*
X103860000Y-106140000D01*
X104040000Y-149330000D02*
X104040000Y-148000000D01*
X105370000Y-149330000D02*
X104040000Y-149330000D01*
X106640000Y-149330000D02*
X106640000Y-146670000D01*
X106640000Y-146670000D02*
X116860000Y-146670000D01*
X106640000Y-149330000D02*
X116860000Y-149330000D01*
X116860000Y-149330000D02*
X116860000Y-146670000D01*
X90396000Y-106210000D02*
X90396000Y-104750000D01*
X93556000Y-106210000D02*
X93556000Y-104050000D01*
X93556000Y-106210000D02*
X92626000Y-106210000D01*
X90396000Y-106210000D02*
X91326000Y-106210000D01*
X92356000Y-80210000D02*
X92356000Y-78750000D01*
X95516000Y-80210000D02*
X95516000Y-78050000D01*
X95516000Y-80210000D02*
X94586000Y-80210000D01*
X92356000Y-80210000D02*
X93286000Y-80210000D01*
X90396000Y-132210000D02*
X90396000Y-130750000D01*
X93556000Y-132210000D02*
X93556000Y-130050000D01*
X93556000Y-132210000D02*
X92626000Y-132210000D01*
X90396000Y-132210000D02*
X91326000Y-132210000D01*
X90396000Y-119210000D02*
X91326000Y-119210000D01*
X93556000Y-119210000D02*
X92626000Y-119210000D01*
X93556000Y-119210000D02*
X93556000Y-117050000D01*
X90396000Y-119210000D02*
X90396000Y-117750000D01*
X100880000Y-129540000D02*
X100880000Y-127540000D01*
X97920000Y-127540000D02*
X97920000Y-129540000D01*
X95756000Y-96220000D02*
X95756000Y-101420000D01*
X92116000Y-101420000D02*
X92116000Y-96220000D01*
X102700000Y-102530000D02*
X102700000Y-103530000D01*
X101340000Y-103530000D02*
X101340000Y-102530000D01*
X102890000Y-103520000D02*
X102890000Y-102520000D01*
X104250000Y-102520000D02*
X104250000Y-103520000D01*
X98300000Y-138700000D02*
X98300000Y-137700000D01*
X99660000Y-137700000D02*
X99660000Y-138700000D01*
X92116000Y-140420000D02*
X92116000Y-135220000D01*
X95756000Y-135220000D02*
X95756000Y-140420000D01*
X95756000Y-122220000D02*
X95756000Y-127420000D01*
X92116000Y-127420000D02*
X92116000Y-122220000D01*
X92116000Y-114420000D02*
X92116000Y-109220000D01*
X95756000Y-109220000D02*
X95756000Y-114420000D01*
X101220000Y-138100000D02*
X101220000Y-139100000D01*
X99860000Y-139100000D02*
X99860000Y-138100000D01*
X98390000Y-86160000D02*
X103510000Y-86160000D01*
X103510000Y-86160000D02*
X103510000Y-70540000D01*
X103510000Y-70540000D02*
X98390000Y-70540000D01*
X98390000Y-70540000D02*
X98390000Y-86160000D01*
X100950000Y-87130000D02*
X100950000Y-86160000D01*
X100950000Y-69570000D02*
X100950000Y-70540000D01*
X107640000Y-76160000D02*
X107640000Y-81360000D01*
X104000000Y-81360000D02*
X104000000Y-76160000D01*
X105960000Y-71650000D02*
X105960000Y-74450000D01*
X105960000Y-74450000D02*
X103960000Y-74450000D01*
X103960000Y-74450000D02*
X103960000Y-71650000D01*
X103960000Y-71650000D02*
X105960000Y-71650000D01*
X106250000Y-71650000D02*
X108250000Y-71650000D01*
X106250000Y-74450000D02*
X106250000Y-71650000D01*
X108250000Y-74450000D02*
X106250000Y-74450000D01*
X108250000Y-71650000D02*
X108250000Y-74450000D01*
X113250000Y-123780000D02*
X113250000Y-126440000D01*
X113310000Y-123780000D02*
X113250000Y-123780000D01*
X113310000Y-126440000D02*
X113250000Y-126440000D01*
X113310000Y-123780000D02*
X113310000Y-126440000D01*
X114580000Y-123780000D02*
X115910000Y-123780000D01*
X115910000Y-123780000D02*
X115910000Y-125110000D01*
X107030000Y-83570000D02*
X104370000Y-83570000D01*
X107030000Y-86170000D02*
X107030000Y-83570000D01*
X104370000Y-86170000D02*
X104370000Y-83570000D01*
X107030000Y-86170000D02*
X104370000Y-86170000D01*
X107030000Y-87440000D02*
X107030000Y-88770000D01*
X107030000Y-88770000D02*
X105700000Y-88770000D01*
X111620000Y-134878000D02*
X110620000Y-134878000D01*
X110620000Y-133518000D02*
X111620000Y-133518000D01*
X117732000Y-135048000D02*
X118732000Y-135048000D01*
X118732000Y-133348000D02*
X117732000Y-133348000D01*
X97955490Y-47280000D02*
X96625490Y-47280000D01*
X97955490Y-45950000D02*
X97955490Y-47280000D01*
X97955490Y-44680000D02*
X95295490Y-44680000D01*
X95295490Y-44680000D02*
X95295490Y-42080000D01*
X97955490Y-44680000D02*
X97955490Y-42080000D01*
X97955490Y-42080000D02*
X95295490Y-42080000D01*
X113955490Y-42080000D02*
X111295490Y-42080000D01*
X113955490Y-44680000D02*
X113955490Y-42080000D01*
X111295490Y-44680000D02*
X111295490Y-42080000D01*
X113955490Y-44680000D02*
X111295490Y-44680000D01*
X113955490Y-45950000D02*
X113955490Y-47280000D01*
X113955490Y-47280000D02*
X112625490Y-47280000D01*
X109955490Y-42080000D02*
X107295490Y-42080000D01*
X109955490Y-44680000D02*
X109955490Y-42080000D01*
X107295490Y-44680000D02*
X107295490Y-42080000D01*
X109955490Y-44680000D02*
X107295490Y-44680000D01*
X109955490Y-45950000D02*
X109955490Y-47280000D01*
X109955490Y-47280000D02*
X108625490Y-47280000D01*
X105955490Y-47280000D02*
X104625490Y-47280000D01*
X105955490Y-45950000D02*
X105955490Y-47280000D01*
X105955490Y-44680000D02*
X103295490Y-44680000D01*
X103295490Y-44680000D02*
X103295490Y-42080000D01*
X105955490Y-44680000D02*
X105955490Y-42080000D01*
X105955490Y-42080000D02*
X103295490Y-42080000D01*
X101955490Y-47280000D02*
X100625490Y-47280000D01*
X101955490Y-45950000D02*
X101955490Y-47280000D01*
X101955490Y-44680000D02*
X99295490Y-44680000D01*
X99295490Y-44680000D02*
X99295490Y-42080000D01*
X101955490Y-44680000D02*
X101955490Y-42080000D01*
X101955490Y-42080000D02*
X99295490Y-42080000D01*
X91796000Y-85820000D02*
G75*
G03*
X91796000Y-85820000I-6250000J0D01*
G01*
X85546000Y-91520000D02*
X85546000Y-89720000D01*
X84646000Y-90620000D02*
X86446000Y-90620000D01*
X84646000Y-103620000D02*
X86446000Y-103620000D01*
X85546000Y-104520000D02*
X85546000Y-102720000D01*
X91796000Y-98820000D02*
G75*
G03*
X91796000Y-98820000I-6250000J0D01*
G01*
X91796000Y-111820000D02*
G75*
G03*
X91796000Y-111820000I-6250000J0D01*
G01*
X85546000Y-117520000D02*
X85546000Y-115720000D01*
X84646000Y-116620000D02*
X86446000Y-116620000D01*
X91796000Y-124820000D02*
G75*
G03*
X91796000Y-124820000I-6250000J0D01*
G01*
X85546000Y-130520000D02*
X85546000Y-128720000D01*
X84646000Y-129620000D02*
X86446000Y-129620000D01*
X84646000Y-142620000D02*
X86446000Y-142620000D01*
X85546000Y-143520000D02*
X85546000Y-141720000D01*
X91796000Y-137820000D02*
G75*
G03*
X91796000Y-137820000I-6250000J0D01*
G01*
X98210000Y-116620000D02*
X98210000Y-110620000D01*
X104210000Y-116620000D02*
X98210000Y-116620000D01*
X104210000Y-110620000D02*
X104210000Y-116620000D01*
X98210000Y-110620000D02*
X104210000Y-110620000D01*
X114176000Y-135048000D02*
X115176000Y-135048000D01*
X115176000Y-133348000D02*
X114176000Y-133348000D01*
X101508000Y-99450000D02*
X101508000Y-98750000D01*
X102708000Y-98750000D02*
X102708000Y-99450000D01*
X101180000Y-99600000D02*
X101180000Y-98600000D01*
X99480000Y-98600000D02*
X99480000Y-99600000D01*
X101170000Y-102530000D02*
X101170000Y-103230000D01*
X99970000Y-103230000D02*
X99970000Y-102530000D01*
X95030000Y-146050000D02*
X93030000Y-146050000D01*
X93030000Y-149010000D02*
X95030000Y-149010000D01*
X97702000Y-98600000D02*
X97702000Y-99600000D01*
X99402000Y-99600000D02*
X99402000Y-98600000D01*
D21*
X120850000Y-127155000D02*
G75*
G03*
X120850000Y-127155000I-100000J0D01*
G01*
D14*
X123175000Y-126930000D02*
X126705000Y-126930000D01*
X126705000Y-131930000D02*
X123175000Y-131930000D01*
D18*
X114820576Y-132109700D02*
X118499424Y-132109700D01*
X118499424Y-126750300D02*
X114820576Y-126750300D01*
X120724000Y-130864501D02*
X120724000Y-131245501D01*
X120724000Y-131245501D02*
X120470000Y-131245501D01*
X120470000Y-131245501D02*
X120470000Y-130864501D01*
X120470000Y-130864501D02*
X120724000Y-130864501D01*
D17*
X111620000Y-132846000D02*
X110620000Y-132846000D01*
X110620000Y-131486000D02*
X111620000Y-131486000D01*
X110770000Y-127248000D02*
X111470000Y-127248000D01*
X111470000Y-128448000D02*
X110770000Y-128448000D01*
X109870000Y-128940000D02*
X112370000Y-128940000D01*
X112370000Y-128940000D02*
X112370000Y-130940000D01*
X112370000Y-130940000D02*
X109870000Y-130940000D01*
X109870000Y-130940000D02*
X109870000Y-128940000D01*
X118150000Y-50430000D02*
X126150000Y-50430000D01*
X126150000Y-49530000D02*
X126150000Y-56330000D01*
X118150000Y-49530000D02*
X126150000Y-49530000D01*
X118150000Y-56330000D02*
X118150000Y-49530000D01*
X126150000Y-56330000D02*
X118150000Y-56330000D01*
X143150000Y-56330000D02*
X135150000Y-56330000D01*
X135150000Y-56330000D02*
X135150000Y-49530000D01*
X135150000Y-49530000D02*
X143150000Y-49530000D01*
X143150000Y-49530000D02*
X143150000Y-56330000D01*
X135150000Y-50430000D02*
X143150000Y-50430000D01*
X126650000Y-50430000D02*
X134650000Y-50430000D01*
X134650000Y-49530000D02*
X134650000Y-56330000D01*
X126650000Y-49530000D02*
X134650000Y-49530000D01*
X126650000Y-56330000D02*
X126650000Y-49530000D01*
X134650000Y-56330000D02*
X126650000Y-56330000D01*
X170929000Y-59151200D02*
X170929000Y-56551200D01*
X185629000Y-59151200D02*
X170929000Y-59151200D01*
X170929000Y-49951200D02*
X172829000Y-49951200D01*
X170929000Y-52651200D02*
X170929000Y-49951200D01*
X185629000Y-49951200D02*
X185629000Y-59151200D01*
X176829000Y-49951200D02*
X185629000Y-49951200D01*
X171779000Y-59351200D02*
X170729000Y-59351200D01*
X170729000Y-58301200D02*
X170729000Y-59351200D01*
X124480000Y-149330000D02*
X124480000Y-146670000D01*
X124420000Y-149330000D02*
X124480000Y-149330000D01*
X124420000Y-146670000D02*
X124480000Y-146670000D01*
X124420000Y-149330000D02*
X124420000Y-146670000D01*
X123150000Y-149330000D02*
X121820000Y-149330000D01*
X121820000Y-149330000D02*
X121820000Y-148000000D01*
X127020000Y-149330000D02*
X127020000Y-146670000D01*
X126960000Y-149330000D02*
X127020000Y-149330000D01*
X126960000Y-146670000D02*
X127020000Y-146670000D01*
X126960000Y-149330000D02*
X126960000Y-146670000D01*
X125690000Y-149330000D02*
X124360000Y-149330000D01*
X124360000Y-149330000D02*
X124360000Y-148000000D01*
X126900000Y-149330000D02*
X126900000Y-148000000D01*
X128230000Y-149330000D02*
X126900000Y-149330000D01*
X129500000Y-149330000D02*
X129500000Y-146670000D01*
X129500000Y-146670000D02*
X129560000Y-146670000D01*
X129500000Y-149330000D02*
X129560000Y-149330000D01*
X129560000Y-149330000D02*
X129560000Y-146670000D01*
X132100000Y-149330000D02*
X132100000Y-146670000D01*
X132040000Y-149330000D02*
X132100000Y-149330000D01*
X132040000Y-146670000D02*
X132100000Y-146670000D01*
X132040000Y-149330000D02*
X132040000Y-146670000D01*
X130770000Y-149330000D02*
X129440000Y-149330000D01*
X129440000Y-149330000D02*
X129440000Y-148000000D01*
X131980000Y-149330000D02*
X131980000Y-148000000D01*
X133310000Y-149330000D02*
X131980000Y-149330000D01*
X134580000Y-149330000D02*
X134580000Y-146670000D01*
X134580000Y-146670000D02*
X134640000Y-146670000D01*
X134580000Y-149330000D02*
X134640000Y-149330000D01*
X134640000Y-149330000D02*
X134640000Y-146670000D01*
X144680000Y-149330000D02*
X144680000Y-148000000D01*
X146010000Y-149330000D02*
X144680000Y-149330000D01*
X147280000Y-149330000D02*
X147280000Y-146670000D01*
X147280000Y-146670000D02*
X147340000Y-146670000D01*
X147280000Y-149330000D02*
X147340000Y-149330000D01*
X147340000Y-149330000D02*
X147340000Y-146670000D01*
X154960000Y-149330000D02*
X154960000Y-146670000D01*
X154900000Y-149330000D02*
X154960000Y-149330000D01*
X154900000Y-146670000D02*
X154960000Y-146670000D01*
X154900000Y-149330000D02*
X154900000Y-146670000D01*
X153630000Y-149330000D02*
X152300000Y-149330000D01*
X152300000Y-149330000D02*
X152300000Y-148000000D01*
X134210000Y-138170000D02*
X133610000Y-138170000D01*
X134910000Y-136070000D02*
X134910000Y-137470000D01*
X133610000Y-135370000D02*
X134210000Y-135370000D01*
X132910000Y-137470000D02*
X132910000Y-136070000D01*
X132910000Y-136070000D02*
G75*
G02*
X133610000Y-135370000I700000J0D01*
G01*
X134210000Y-135370000D02*
G75*
G02*
X134910000Y-136070000I0J-700000D01*
G01*
X134910000Y-137470000D02*
G75*
G02*
X134210000Y-138170000I-700000J0D01*
G01*
X133610000Y-138170000D02*
G75*
G02*
X132910000Y-137470000I0J700000D01*
G01*
X121955490Y-42080000D02*
X119295490Y-42080000D01*
X121955490Y-44680000D02*
X121955490Y-42080000D01*
X119295490Y-44680000D02*
X119295490Y-42080000D01*
X121955490Y-44680000D02*
X119295490Y-44680000D01*
X121955490Y-45950000D02*
X121955490Y-47280000D01*
X121955490Y-47280000D02*
X120625490Y-47280000D01*
X117955490Y-42080000D02*
X115295490Y-42080000D01*
X117955490Y-44680000D02*
X117955490Y-42080000D01*
X115295490Y-44680000D02*
X115295490Y-42080000D01*
X117955490Y-44680000D02*
X115295490Y-44680000D01*
X117955490Y-45950000D02*
X117955490Y-47280000D01*
X117955490Y-47280000D02*
X116625490Y-47280000D01*
X110220000Y-124550000D02*
X112670000Y-124550000D01*
X112020000Y-121330000D02*
X110220000Y-121330000D01*
X110220000Y-120500000D02*
X112020000Y-120500000D01*
X112020000Y-117280000D02*
X109570000Y-117280000D01*
X129980000Y-131040000D02*
X132430000Y-131040000D01*
X131780000Y-127820000D02*
X129980000Y-127820000D01*
X126250000Y-80800000D02*
X126250000Y-86810000D01*
X119430000Y-83050000D02*
X119430000Y-86810000D01*
X126250000Y-86810000D02*
X124990000Y-86810000D01*
X119430000Y-86810000D02*
X120690000Y-86810000D01*
X115980000Y-105435000D02*
X115980000Y-106235000D01*
X145980000Y-105435000D02*
X145980000Y-106235000D01*
X112980000Y-105435000D02*
X115980000Y-105435000D01*
X148980000Y-105435000D02*
X145980000Y-105435000D01*
X112980000Y-100585000D02*
X112980000Y-105435000D01*
X148980000Y-100585000D02*
X148980000Y-105435000D01*
X148980000Y-100585000D02*
X112980000Y-100585000D01*
X145980000Y-106235000D02*
X115980000Y-106235000D01*
X112450000Y-100574000D02*
X112450000Y-101904000D01*
X111120000Y-100574000D02*
X112450000Y-100574000D01*
X109850000Y-100574000D02*
X109850000Y-103234000D01*
X109850000Y-103234000D02*
X109790000Y-103234000D01*
X109850000Y-100574000D02*
X109790000Y-100574000D01*
X109790000Y-100574000D02*
X109790000Y-103234000D01*
X112450000Y-103114000D02*
X112450000Y-104444000D01*
X111120000Y-103114000D02*
X112450000Y-103114000D01*
X109850000Y-103114000D02*
X109850000Y-105774000D01*
X109850000Y-105774000D02*
X109790000Y-105774000D01*
X109850000Y-103114000D02*
X109790000Y-103114000D01*
X109790000Y-103114000D02*
X109790000Y-105774000D01*
X112640000Y-108180000D02*
X115300000Y-108180000D01*
X112640000Y-108120000D02*
X112640000Y-108180000D01*
X115300000Y-108120000D02*
X115300000Y-108180000D01*
X112640000Y-108120000D02*
X115300000Y-108120000D01*
X112640000Y-106850000D02*
X112640000Y-105520000D01*
X112640000Y-105520000D02*
X113970000Y-105520000D01*
X141666400Y-133947900D02*
X141666400Y-131992100D01*
X140355760Y-131992100D02*
X139624240Y-131992100D01*
X138313600Y-131992100D02*
X138313600Y-133947900D01*
X112342340Y-86230600D02*
X114930600Y-86230600D01*
X110457660Y-79169400D02*
X108869400Y-79169400D01*
X113930600Y-79169400D02*
X112342340Y-79169400D01*
X114930600Y-86230600D02*
X114930600Y-80169400D01*
X107869400Y-86230600D02*
X110457660Y-86230600D01*
X107869400Y-80169400D02*
X107869400Y-86230600D01*
X108869400Y-79169400D02*
X107869400Y-80169400D01*
X113930600Y-79169400D02*
X114930600Y-80169400D01*
X125500000Y-134770000D02*
X124800000Y-134770000D01*
X124800000Y-133570000D02*
X125500000Y-133570000D01*
X122380000Y-134810000D02*
X121680000Y-134810000D01*
X121680000Y-133610000D02*
X122380000Y-133610000D01*
X110770000Y-106032000D02*
X111470000Y-106032000D01*
X111470000Y-107232000D02*
X110770000Y-107232000D01*
X111470000Y-116122000D02*
X110770000Y-116122000D01*
X110770000Y-114922000D02*
X111470000Y-114922000D01*
X143580000Y-123540000D02*
X144280000Y-123540000D01*
X144280000Y-124740000D02*
X143580000Y-124740000D01*
X148380000Y-107350000D02*
X148380000Y-108050000D01*
X147180000Y-108050000D02*
X147180000Y-107350000D01*
X144640000Y-128240000D02*
X143640000Y-128240000D01*
X143640000Y-129940000D02*
X144640000Y-129940000D01*
X115440000Y-79330000D02*
X115440000Y-81330000D01*
X118400000Y-81330000D02*
X118400000Y-79330000D01*
X143790000Y-130014000D02*
X144490000Y-130014000D01*
X144490000Y-131214000D02*
X143790000Y-131214000D01*
X114160000Y-78740000D02*
X113460000Y-78740000D01*
X113460000Y-77540000D02*
X114160000Y-77540000D01*
X143790000Y-131538000D02*
X144490000Y-131538000D01*
X144490000Y-132738000D02*
X143790000Y-132738000D01*
X115450000Y-84160000D02*
X115450000Y-86160000D01*
X118410000Y-86160000D02*
X118410000Y-84160000D01*
X113470000Y-86690000D02*
X114170000Y-86690000D01*
X114170000Y-87890000D02*
X113470000Y-87890000D01*
X143790000Y-133570000D02*
X144490000Y-133570000D01*
X144490000Y-134770000D02*
X143790000Y-134770000D01*
X129196000Y-70630000D02*
X129196000Y-71630000D01*
X127836000Y-71630000D02*
X127836000Y-70630000D01*
X129614000Y-71630000D02*
X129614000Y-70630000D01*
X130974000Y-70630000D02*
X130974000Y-71630000D01*
X129196000Y-66600000D02*
X129196000Y-67600000D01*
X127836000Y-67600000D02*
X127836000Y-66600000D01*
X129614000Y-67600000D02*
X129614000Y-66600000D01*
X130974000Y-66600000D02*
X130974000Y-67600000D01*
X126058000Y-67600000D02*
X126058000Y-66600000D01*
X127418000Y-66600000D02*
X127418000Y-67600000D01*
X133170000Y-71630000D02*
X133170000Y-70630000D01*
X134530000Y-70630000D02*
X134530000Y-71630000D01*
X131392000Y-71630000D02*
X131392000Y-70630000D01*
X132752000Y-70630000D02*
X132752000Y-71630000D01*
X133170000Y-67600000D02*
X133170000Y-66600000D01*
X134530000Y-66600000D02*
X134530000Y-67600000D01*
X131392000Y-67600000D02*
X131392000Y-66600000D01*
X132752000Y-66600000D02*
X132752000Y-67600000D01*
X111620000Y-126750000D02*
X110620000Y-126750000D01*
X110620000Y-125390000D02*
X111620000Y-125390000D01*
X110620000Y-111286000D02*
X111620000Y-111286000D01*
X111620000Y-112646000D02*
X110620000Y-112646000D01*
X111620000Y-110868000D02*
X110620000Y-110868000D01*
X110620000Y-109508000D02*
X111620000Y-109508000D01*
X110620000Y-113064000D02*
X111620000Y-113064000D01*
X111620000Y-114424000D02*
X110620000Y-114424000D01*
X138890000Y-123460000D02*
X139890000Y-123460000D01*
X139890000Y-124820000D02*
X138890000Y-124820000D01*
X129050000Y-134850000D02*
X128050000Y-134850000D01*
X128050000Y-133490000D02*
X129050000Y-133490000D01*
X132210000Y-134850000D02*
X131210000Y-134850000D01*
X131210000Y-133490000D02*
X132210000Y-133490000D01*
X124280000Y-67600000D02*
X124280000Y-66600000D01*
X125640000Y-66600000D02*
X125640000Y-67600000D01*
X123270000Y-67230000D02*
X122270000Y-67230000D01*
X122270000Y-65870000D02*
X123270000Y-65870000D01*
X141124000Y-121242516D02*
X141124000Y-120637484D01*
X139937861Y-120063700D02*
X139262139Y-120063700D01*
X138076000Y-120637484D02*
X138076000Y-121242516D01*
X138354047Y-120815128D02*
G75*
G02*
X138354047Y-121064872I-278047J-124872D01*
G01*
X118426000Y-123780000D02*
X118426000Y-125110000D01*
X117096000Y-123780000D02*
X118426000Y-123780000D01*
X115826000Y-123780000D02*
X115826000Y-126440000D01*
X115826000Y-126440000D02*
X115766000Y-126440000D01*
X115826000Y-123780000D02*
X115766000Y-123780000D01*
X115766000Y-123780000D02*
X115766000Y-126440000D01*
X118306000Y-123780000D02*
X118306000Y-126440000D01*
X118366000Y-123780000D02*
X118306000Y-123780000D01*
X118366000Y-126440000D02*
X118306000Y-126440000D01*
X118366000Y-123780000D02*
X118366000Y-126440000D01*
X119636000Y-123780000D02*
X120966000Y-123780000D01*
X120966000Y-123780000D02*
X120966000Y-125110000D01*
X143410000Y-86996000D02*
X143410000Y-90296000D01*
X143410000Y-90296000D02*
X148810000Y-90296000D01*
X143410000Y-86996000D02*
X148810000Y-86996000D01*
X143410000Y-90806000D02*
X148810000Y-90806000D01*
X143410000Y-94106000D02*
X148810000Y-94106000D01*
X143410000Y-90806000D02*
X143410000Y-94106000D01*
X175450000Y-81140000D02*
X175450000Y-89140000D01*
X175450000Y-89140000D02*
X168650000Y-89140000D01*
X168650000Y-89140000D02*
X168650000Y-81140000D01*
X168650000Y-81140000D02*
X175450000Y-81140000D01*
X169550000Y-89140000D02*
X169550000Y-81140000D01*
X140860000Y-86510000D02*
X157060000Y-86510000D01*
X157060000Y-62710000D02*
X157060000Y-86510000D01*
X140860000Y-62710000D02*
X140860000Y-86510000D01*
X157060000Y-62710000D02*
X140860000Y-62710000D01*
X147141501Y-62110000D02*
G75*
G03*
X147141501Y-62110000I-381000J0D01*
G01*
X140450000Y-87066000D02*
X141910000Y-87066000D01*
X140450000Y-90226000D02*
X142610000Y-90226000D01*
X140450000Y-90226000D02*
X140450000Y-89296000D01*
X140450000Y-87066000D02*
X140450000Y-87996000D01*
X140450000Y-90876000D02*
X140450000Y-91806000D01*
X140450000Y-94036000D02*
X140450000Y-93106000D01*
X140450000Y-94036000D02*
X142610000Y-94036000D01*
X140450000Y-90876000D02*
X141910000Y-90876000D01*
X137100000Y-87966000D02*
X138100000Y-87966000D01*
X138100000Y-89326000D02*
X137100000Y-89326000D01*
X137100000Y-91776000D02*
X138100000Y-91776000D01*
X138100000Y-93136000D02*
X137100000Y-93136000D01*
X145765600Y-122565600D02*
X145765600Y-119314400D01*
X142514400Y-119314400D02*
X142514400Y-122565600D01*
D18*
X137140900Y-113444500D02*
X137394900Y-113444500D01*
X137140900Y-113825500D02*
X137140900Y-113444500D01*
X137394900Y-113825500D02*
X137140900Y-113825500D01*
X137394900Y-113444500D02*
X137394900Y-113825500D01*
X125279100Y-119794500D02*
X125025100Y-119794500D01*
X125279100Y-120175500D02*
X125279100Y-119794500D01*
X125025100Y-120175500D02*
X125279100Y-120175500D01*
X125025100Y-119794500D02*
X125025100Y-120175500D01*
X135134300Y-107942860D02*
X135134300Y-107615200D01*
X127285700Y-123137140D02*
X127285700Y-123464800D01*
X127285700Y-107615200D02*
X127285700Y-107942860D01*
X135134300Y-107615200D02*
X127285700Y-107615200D01*
X135134300Y-123464800D02*
X135134300Y-123137140D01*
X127285700Y-123464800D02*
X135134300Y-123464800D01*
X125222900Y-113444500D02*
X125476900Y-113444500D01*
X125222900Y-113825500D02*
X125222900Y-113444500D01*
X125476900Y-113825500D02*
X125222900Y-113825500D01*
X125476900Y-113444500D02*
X125476900Y-113825500D01*
X113361100Y-119794500D02*
X113107100Y-119794500D01*
X113361100Y-120175500D02*
X113361100Y-119794500D01*
X113107100Y-120175500D02*
X113361100Y-120175500D01*
X113107100Y-119794500D02*
X113107100Y-120175500D01*
X123216300Y-107942860D02*
X123216300Y-107615200D01*
X115367700Y-123137140D02*
X115367700Y-123464800D01*
X115367700Y-107615200D02*
X115367700Y-107942860D01*
X123216300Y-107615200D02*
X115367700Y-107615200D01*
X123216300Y-123464800D02*
X123216300Y-123137140D01*
X115367700Y-123464800D02*
X123216300Y-123464800D01*
D17*
X135740000Y-133200000D02*
X134740000Y-133200000D01*
X134740000Y-134900000D02*
X135740000Y-134900000D01*
X159216800Y-58665500D02*
X162163200Y-58665500D01*
X162163200Y-57014500D02*
X159216800Y-57014500D01*
X159606600Y-54736340D02*
X159606600Y-55051300D01*
X165753400Y-49803660D02*
X165753400Y-49488700D01*
X165753400Y-55051300D02*
X165753400Y-54736340D01*
X159606600Y-55051300D02*
X165753400Y-55051300D01*
X159606600Y-49488700D02*
X159606600Y-49803660D01*
X165753400Y-49488700D02*
X159606600Y-49488700D01*
X164990000Y-59320000D02*
X166990000Y-59320000D01*
X166990000Y-56360000D02*
X164990000Y-56360000D01*
X141410000Y-57050000D02*
X139410000Y-57050000D01*
X139410000Y-60010000D02*
X141410000Y-60010000D01*
X136308000Y-70630000D02*
X136308000Y-71630000D01*
X134948000Y-71630000D02*
X134948000Y-70630000D01*
X134948000Y-67600000D02*
X134948000Y-66600000D01*
X136308000Y-66600000D02*
X136308000Y-67600000D01*
X144670000Y-62130000D02*
X144670000Y-49530000D01*
X144670000Y-49530000D02*
X157270000Y-49530000D01*
X157270000Y-49530000D02*
X157270000Y-62130000D01*
X157270000Y-62130000D02*
X144670000Y-62130000D01*
X109650000Y-50430000D02*
X117650000Y-50430000D01*
X117650000Y-49530000D02*
X117650000Y-56330000D01*
X109650000Y-49530000D02*
X117650000Y-49530000D01*
X109650000Y-56330000D02*
X109650000Y-49530000D01*
X117650000Y-56330000D02*
X109650000Y-56330000D01*
D12*
X167351904Y-72852380D02*
X167351904Y-71852380D01*
X167923333Y-72852380D02*
X167494761Y-72280952D01*
X167923333Y-71852380D02*
X167351904Y-72423809D01*
X168304285Y-71947619D02*
X168351904Y-71900000D01*
X168447142Y-71852380D01*
X168685238Y-71852380D01*
X168780476Y-71900000D01*
X168828095Y-71947619D01*
X168875714Y-72042857D01*
X168875714Y-72138095D01*
X168828095Y-72280952D01*
X168256666Y-72852380D01*
X168875714Y-72852380D01*
X172642380Y-67300000D02*
X172880476Y-67300000D01*
X172785238Y-67538095D02*
X172880476Y-67300000D01*
X172785238Y-67061904D01*
X173070952Y-67442857D02*
X172880476Y-67300000D01*
X173070952Y-67157142D01*
X103461904Y-59252380D02*
X103461904Y-58252380D01*
X103700000Y-58252380D01*
X103842857Y-58300000D01*
X103938095Y-58395238D01*
X103985714Y-58490476D01*
X104033333Y-58680952D01*
X104033333Y-58823809D01*
X103985714Y-59014285D01*
X103938095Y-59109523D01*
X103842857Y-59204761D01*
X103700000Y-59252380D01*
X103461904Y-59252380D01*
X104985714Y-59252380D02*
X104414285Y-59252380D01*
X104700000Y-59252380D02*
X104700000Y-58252380D01*
X104604761Y-58395238D01*
X104509523Y-58490476D01*
X104414285Y-58538095D01*
X115360413Y-62538461D02*
X115204159Y-62460334D01*
X115047905Y-62304080D01*
X114813524Y-62069699D01*
X114657269Y-61991571D01*
X114501015Y-61991571D01*
X114579142Y-62382207D02*
X114422888Y-62304080D01*
X114266634Y-62147826D01*
X114188507Y-61835317D01*
X114188507Y-61288428D01*
X114266634Y-60975919D01*
X114422888Y-60819665D01*
X114579142Y-60741538D01*
X114891651Y-60741538D01*
X115047905Y-60819665D01*
X115204159Y-60975919D01*
X115282286Y-61288428D01*
X115282286Y-61835317D01*
X115204159Y-62147826D01*
X115047905Y-62304080D01*
X114891651Y-62382207D01*
X114579142Y-62382207D01*
X116844828Y-62382207D02*
X115907303Y-62382207D01*
X116376066Y-62382207D02*
X116376066Y-60741538D01*
X116219811Y-60975919D01*
X116063557Y-61132173D01*
X115907303Y-61210300D01*
X120478746Y-62538461D02*
X120322492Y-62460334D01*
X120166238Y-62304080D01*
X119931857Y-62069699D01*
X119775602Y-61991571D01*
X119619348Y-61991571D01*
X119697475Y-62382207D02*
X119541221Y-62304080D01*
X119384967Y-62147826D01*
X119306840Y-61835317D01*
X119306840Y-61288428D01*
X119384967Y-60975919D01*
X119541221Y-60819665D01*
X119697475Y-60741538D01*
X120009984Y-60741538D01*
X120166238Y-60819665D01*
X120322492Y-60975919D01*
X120400619Y-61288428D01*
X120400619Y-61835317D01*
X120322492Y-62147826D01*
X120166238Y-62304080D01*
X120009984Y-62382207D01*
X119697475Y-62382207D01*
X121025636Y-60897792D02*
X121103763Y-60819665D01*
X121260017Y-60741538D01*
X121650653Y-60741538D01*
X121806907Y-60819665D01*
X121885034Y-60897792D01*
X121963161Y-61054046D01*
X121963161Y-61210300D01*
X121885034Y-61444682D01*
X120947509Y-62382207D01*
X121963161Y-62382207D01*
X130918745Y-62588461D02*
X130762491Y-62510334D01*
X130606237Y-62354080D01*
X130371856Y-62119699D01*
X130215601Y-62041571D01*
X130059347Y-62041571D01*
X130137474Y-62432207D02*
X129981220Y-62354080D01*
X129824966Y-62197826D01*
X129746839Y-61885317D01*
X129746839Y-61338428D01*
X129824966Y-61025919D01*
X129981220Y-60869665D01*
X130137474Y-60791538D01*
X130449983Y-60791538D01*
X130606237Y-60869665D01*
X130762491Y-61025919D01*
X130840618Y-61338428D01*
X130840618Y-61885317D01*
X130762491Y-62197826D01*
X130606237Y-62354080D01*
X130449983Y-62432207D01*
X130137474Y-62432207D01*
X131387508Y-60791538D02*
X132403160Y-60791538D01*
X131856270Y-61416555D01*
X132090652Y-61416555D01*
X132246906Y-61494682D01*
X132325033Y-61572809D01*
X132403160Y-61729063D01*
X132403160Y-62119699D01*
X132325033Y-62275953D01*
X132246906Y-62354080D01*
X132090652Y-62432207D01*
X131621889Y-62432207D01*
X131465635Y-62354080D01*
X131387508Y-62275953D01*
X125777079Y-62588461D02*
X125620825Y-62510334D01*
X125464571Y-62354080D01*
X125230190Y-62119699D01*
X125073935Y-62041571D01*
X124917681Y-62041571D01*
X124995808Y-62432207D02*
X124839554Y-62354080D01*
X124683300Y-62197826D01*
X124605173Y-61885317D01*
X124605173Y-61338428D01*
X124683300Y-61025919D01*
X124839554Y-60869665D01*
X124995808Y-60791538D01*
X125308317Y-60791538D01*
X125464571Y-60869665D01*
X125620825Y-61025919D01*
X125698952Y-61338428D01*
X125698952Y-61885317D01*
X125620825Y-62197826D01*
X125464571Y-62354080D01*
X125308317Y-62432207D01*
X124995808Y-62432207D01*
X127183367Y-60791538D02*
X126402096Y-60791538D01*
X126323969Y-61572809D01*
X126402096Y-61494682D01*
X126558350Y-61416555D01*
X126948986Y-61416555D01*
X127105240Y-61494682D01*
X127183367Y-61572809D01*
X127261494Y-61729063D01*
X127261494Y-62119699D01*
X127183367Y-62275953D01*
X127105240Y-62354080D01*
X126948986Y-62432207D01*
X126558350Y-62432207D01*
X126402096Y-62354080D01*
X126323969Y-62275953D01*
X136708095Y-127742380D02*
X136708095Y-128551904D01*
X136755714Y-128647142D01*
X136803333Y-128694761D01*
X136898571Y-128742380D01*
X137089047Y-128742380D01*
X137184285Y-128694761D01*
X137231904Y-128647142D01*
X137279523Y-128551904D01*
X137279523Y-127742380D01*
X137803333Y-128742380D02*
X137993809Y-128742380D01*
X138089047Y-128694761D01*
X138136666Y-128647142D01*
X138231904Y-128504285D01*
X138279523Y-128313809D01*
X138279523Y-127932857D01*
X138231904Y-127837619D01*
X138184285Y-127790000D01*
X138089047Y-127742380D01*
X137898571Y-127742380D01*
X137803333Y-127790000D01*
X137755714Y-127837619D01*
X137708095Y-127932857D01*
X137708095Y-128170952D01*
X137755714Y-128266190D01*
X137803333Y-128313809D01*
X137898571Y-128361428D01*
X138089047Y-128361428D01*
X138184285Y-128313809D01*
X138231904Y-128266190D01*
X138279523Y-128170952D01*
D10*
X108533333Y-108757142D02*
X108485714Y-108804761D01*
X108342857Y-108852380D01*
X108247619Y-108852380D01*
X108104761Y-108804761D01*
X108009523Y-108709523D01*
X107961904Y-108614285D01*
X107914285Y-108423809D01*
X107914285Y-108280952D01*
X107961904Y-108090476D01*
X108009523Y-107995238D01*
X108104761Y-107900000D01*
X108247619Y-107852380D01*
X108342857Y-107852380D01*
X108485714Y-107900000D01*
X108533333Y-107947619D01*
X109438095Y-107852380D02*
X108961904Y-107852380D01*
X108914285Y-108328571D01*
X108961904Y-108280952D01*
X109057142Y-108233333D01*
X109295238Y-108233333D01*
X109390476Y-108280952D01*
X109438095Y-108328571D01*
X109485714Y-108423809D01*
X109485714Y-108661904D01*
X109438095Y-108757142D01*
X109390476Y-108804761D01*
X109295238Y-108852380D01*
X109057142Y-108852380D01*
X108961904Y-108804761D01*
X108914285Y-108757142D01*
D12*
X141231627Y-108952380D02*
X141231627Y-109761904D01*
X141279246Y-109857142D01*
X141326865Y-109904761D01*
X141422103Y-109952380D01*
X141612579Y-109952380D01*
X141707817Y-109904761D01*
X141755436Y-109857142D01*
X141803055Y-109761904D01*
X141803055Y-108952380D01*
X142184008Y-108952380D02*
X142850674Y-108952380D01*
X142422103Y-109952380D01*
X93267142Y-86262380D02*
X92933809Y-85786190D01*
X92695714Y-86262380D02*
X92695714Y-85262380D01*
X93076666Y-85262380D01*
X93171904Y-85310000D01*
X93219523Y-85357619D01*
X93267142Y-85452857D01*
X93267142Y-85595714D01*
X93219523Y-85690952D01*
X93171904Y-85738571D01*
X93076666Y-85786190D01*
X92695714Y-85786190D01*
X93648095Y-85357619D02*
X93695714Y-85310000D01*
X93790952Y-85262380D01*
X94029047Y-85262380D01*
X94124285Y-85310000D01*
X94171904Y-85357619D01*
X94219523Y-85452857D01*
X94219523Y-85548095D01*
X94171904Y-85690952D01*
X93600476Y-86262380D01*
X94219523Y-86262380D01*
X95076666Y-85595714D02*
X95076666Y-86262380D01*
X94838571Y-85214761D02*
X94600476Y-85929047D01*
X95219523Y-85929047D01*
X93951904Y-91762380D02*
X93951904Y-92571904D01*
X93999523Y-92667142D01*
X94047142Y-92714761D01*
X94142380Y-92762380D01*
X94332857Y-92762380D01*
X94428095Y-92714761D01*
X94475714Y-92667142D01*
X94523333Y-92571904D01*
X94523333Y-91762380D01*
X95523333Y-92762380D02*
X94951904Y-92762380D01*
X95237619Y-92762380D02*
X95237619Y-91762380D01*
X95142380Y-91905238D01*
X95047142Y-92000476D01*
X94951904Y-92048095D01*
X95904285Y-91857619D02*
X95951904Y-91810000D01*
X96047142Y-91762380D01*
X96285238Y-91762380D01*
X96380476Y-91810000D01*
X96428095Y-91857619D01*
X96475714Y-91952857D01*
X96475714Y-92048095D01*
X96428095Y-92190952D01*
X95856666Y-92762380D01*
X96475714Y-92762380D01*
D14*
X101673428Y-140281428D02*
X101649238Y-140305619D01*
X101576666Y-140329809D01*
X101528285Y-140329809D01*
X101455714Y-140305619D01*
X101407333Y-140257238D01*
X101383142Y-140208857D01*
X101358952Y-140112095D01*
X101358952Y-140039523D01*
X101383142Y-139942761D01*
X101407333Y-139894380D01*
X101455714Y-139846000D01*
X101528285Y-139821809D01*
X101576666Y-139821809D01*
X101649238Y-139846000D01*
X101673428Y-139870190D01*
X101842761Y-139821809D02*
X102157238Y-139821809D01*
X101987904Y-140015333D01*
X102060476Y-140015333D01*
X102108857Y-140039523D01*
X102133047Y-140063714D01*
X102157238Y-140112095D01*
X102157238Y-140233047D01*
X102133047Y-140281428D01*
X102108857Y-140305619D01*
X102060476Y-140329809D01*
X101915333Y-140329809D01*
X101866952Y-140305619D01*
X101842761Y-140281428D01*
X102326571Y-139821809D02*
X102665238Y-139821809D01*
X102447523Y-140329809D01*
D12*
X96257142Y-133357142D02*
X96209523Y-133404761D01*
X96066666Y-133452380D01*
X95971428Y-133452380D01*
X95828571Y-133404761D01*
X95733333Y-133309523D01*
X95685714Y-133214285D01*
X95638095Y-133023809D01*
X95638095Y-132880952D01*
X95685714Y-132690476D01*
X95733333Y-132595238D01*
X95828571Y-132500000D01*
X95971428Y-132452380D01*
X96066666Y-132452380D01*
X96209523Y-132500000D01*
X96257142Y-132547619D01*
X96590476Y-132452380D02*
X97209523Y-132452380D01*
X96876190Y-132833333D01*
X97019047Y-132833333D01*
X97114285Y-132880952D01*
X97161904Y-132928571D01*
X97209523Y-133023809D01*
X97209523Y-133261904D01*
X97161904Y-133357142D01*
X97114285Y-133404761D01*
X97019047Y-133452380D01*
X96733333Y-133452380D01*
X96638095Y-133404761D01*
X96590476Y-133357142D01*
X97780952Y-132880952D02*
X97685714Y-132833333D01*
X97638095Y-132785714D01*
X97590476Y-132690476D01*
X97590476Y-132642857D01*
X97638095Y-132547619D01*
X97685714Y-132500000D01*
X97780952Y-132452380D01*
X97971428Y-132452380D01*
X98066666Y-132500000D01*
X98114285Y-132547619D01*
X98161904Y-132642857D01*
X98161904Y-132690476D01*
X98114285Y-132785714D01*
X98066666Y-132833333D01*
X97971428Y-132880952D01*
X97780952Y-132880952D01*
X97685714Y-132928571D01*
X97638095Y-132976190D01*
X97590476Y-133071428D01*
X97590476Y-133261904D01*
X97638095Y-133357142D01*
X97685714Y-133404761D01*
X97780952Y-133452380D01*
X97971428Y-133452380D01*
X98066666Y-133404761D01*
X98114285Y-133357142D01*
X98161904Y-133261904D01*
X98161904Y-133071428D01*
X98114285Y-132976190D01*
X98066666Y-132928571D01*
X97971428Y-132880952D01*
X103780142Y-137202142D02*
X103743857Y-137238428D01*
X103635000Y-137274714D01*
X103562428Y-137274714D01*
X103453571Y-137238428D01*
X103381000Y-137165857D01*
X103344714Y-137093285D01*
X103308428Y-136948142D01*
X103308428Y-136839285D01*
X103344714Y-136694142D01*
X103381000Y-136621571D01*
X103453571Y-136549000D01*
X103562428Y-136512714D01*
X103635000Y-136512714D01*
X103743857Y-136549000D01*
X103780142Y-136585285D01*
X104433285Y-136766714D02*
X104433285Y-137274714D01*
X104251857Y-136476428D02*
X104070428Y-137020714D01*
X104542142Y-137020714D01*
X105231571Y-137274714D02*
X104796142Y-137274714D01*
X105013857Y-137274714D02*
X105013857Y-136512714D01*
X104941285Y-136621571D01*
X104868714Y-136694142D01*
X104796142Y-136730428D01*
X96557142Y-131957142D02*
X96509523Y-132004761D01*
X96366666Y-132052380D01*
X96271428Y-132052380D01*
X96128571Y-132004761D01*
X96033333Y-131909523D01*
X95985714Y-131814285D01*
X95938095Y-131623809D01*
X95938095Y-131480952D01*
X95985714Y-131290476D01*
X96033333Y-131195238D01*
X96128571Y-131100000D01*
X96271428Y-131052380D01*
X96366666Y-131052380D01*
X96509523Y-131100000D01*
X96557142Y-131147619D01*
X97414285Y-131385714D02*
X97414285Y-132052380D01*
X97176190Y-131004761D02*
X96938095Y-131719047D01*
X97557142Y-131719047D01*
X98128571Y-131052380D02*
X98223809Y-131052380D01*
X98319047Y-131100000D01*
X98366666Y-131147619D01*
X98414285Y-131242857D01*
X98461904Y-131433333D01*
X98461904Y-131671428D01*
X98414285Y-131861904D01*
X98366666Y-131957142D01*
X98319047Y-132004761D01*
X98223809Y-132052380D01*
X98128571Y-132052380D01*
X98033333Y-132004761D01*
X97985714Y-131957142D01*
X97938095Y-131861904D01*
X97890476Y-131671428D01*
X97890476Y-131433333D01*
X97938095Y-131242857D01*
X97985714Y-131147619D01*
X98033333Y-131100000D01*
X98128571Y-131052380D01*
D14*
X96473428Y-137181428D02*
X96449238Y-137205619D01*
X96376666Y-137229809D01*
X96328285Y-137229809D01*
X96255714Y-137205619D01*
X96207333Y-137157238D01*
X96183142Y-137108857D01*
X96158952Y-137012095D01*
X96158952Y-136939523D01*
X96183142Y-136842761D01*
X96207333Y-136794380D01*
X96255714Y-136746000D01*
X96328285Y-136721809D01*
X96376666Y-136721809D01*
X96449238Y-136746000D01*
X96473428Y-136770190D01*
X96642761Y-136721809D02*
X96957238Y-136721809D01*
X96787904Y-136915333D01*
X96860476Y-136915333D01*
X96908857Y-136939523D01*
X96933047Y-136963714D01*
X96957238Y-137012095D01*
X96957238Y-137133047D01*
X96933047Y-137181428D01*
X96908857Y-137205619D01*
X96860476Y-137229809D01*
X96715333Y-137229809D01*
X96666952Y-137205619D01*
X96642761Y-137181428D01*
X97199142Y-137229809D02*
X97295904Y-137229809D01*
X97344285Y-137205619D01*
X97368476Y-137181428D01*
X97416857Y-137108857D01*
X97441047Y-137012095D01*
X97441047Y-136818571D01*
X97416857Y-136770190D01*
X97392666Y-136746000D01*
X97344285Y-136721809D01*
X97247523Y-136721809D01*
X97199142Y-136746000D01*
X97174952Y-136770190D01*
X97150761Y-136818571D01*
X97150761Y-136939523D01*
X97174952Y-136987904D01*
X97199142Y-137012095D01*
X97247523Y-137036285D01*
X97344285Y-137036285D01*
X97392666Y-137012095D01*
X97416857Y-136987904D01*
X97441047Y-136939523D01*
D12*
X105250142Y-132392142D02*
X105213857Y-132428428D01*
X105105000Y-132464714D01*
X105032428Y-132464714D01*
X104923571Y-132428428D01*
X104851000Y-132355857D01*
X104814714Y-132283285D01*
X104778428Y-132138142D01*
X104778428Y-132029285D01*
X104814714Y-131884142D01*
X104851000Y-131811571D01*
X104923571Y-131739000D01*
X105032428Y-131702714D01*
X105105000Y-131702714D01*
X105213857Y-131739000D01*
X105250142Y-131775285D01*
X105903285Y-131956714D02*
X105903285Y-132464714D01*
X105721857Y-131666428D02*
X105540428Y-132210714D01*
X106012142Y-132210714D01*
X106266142Y-131775285D02*
X106302428Y-131739000D01*
X106375000Y-131702714D01*
X106556428Y-131702714D01*
X106629000Y-131739000D01*
X106665285Y-131775285D01*
X106701571Y-131847857D01*
X106701571Y-131920428D01*
X106665285Y-132029285D01*
X106229857Y-132464714D01*
X106701571Y-132464714D01*
X102953333Y-130852380D02*
X102477142Y-130852380D01*
X102477142Y-129852380D01*
X103239047Y-129947619D02*
X103286666Y-129900000D01*
X103381904Y-129852380D01*
X103620000Y-129852380D01*
X103715238Y-129900000D01*
X103762857Y-129947619D01*
X103810476Y-130042857D01*
X103810476Y-130138095D01*
X103762857Y-130280952D01*
X103191428Y-130852380D01*
X103810476Y-130852380D01*
X96261904Y-64552380D02*
X96261904Y-63552380D01*
X96500000Y-63552380D01*
X96642857Y-63600000D01*
X96738095Y-63695238D01*
X96785714Y-63790476D01*
X96833333Y-63980952D01*
X96833333Y-64123809D01*
X96785714Y-64314285D01*
X96738095Y-64409523D01*
X96642857Y-64504761D01*
X96500000Y-64552380D01*
X96261904Y-64552380D01*
X97214285Y-63647619D02*
X97261904Y-63600000D01*
X97357142Y-63552380D01*
X97595238Y-63552380D01*
X97690476Y-63600000D01*
X97738095Y-63647619D01*
X97785714Y-63742857D01*
X97785714Y-63838095D01*
X97738095Y-63980952D01*
X97166666Y-64552380D01*
X97785714Y-64552380D01*
X93461904Y-72752380D02*
X93461904Y-71752380D01*
X93700000Y-71752380D01*
X93842857Y-71800000D01*
X93938095Y-71895238D01*
X93985714Y-71990476D01*
X94033333Y-72180952D01*
X94033333Y-72323809D01*
X93985714Y-72514285D01*
X93938095Y-72609523D01*
X93842857Y-72704761D01*
X93700000Y-72752380D01*
X93461904Y-72752380D01*
X94366666Y-71752380D02*
X94985714Y-71752380D01*
X94652380Y-72133333D01*
X94795238Y-72133333D01*
X94890476Y-72180952D01*
X94938095Y-72228571D01*
X94985714Y-72323809D01*
X94985714Y-72561904D01*
X94938095Y-72657142D01*
X94890476Y-72704761D01*
X94795238Y-72752380D01*
X94509523Y-72752380D01*
X94414285Y-72704761D01*
X94366666Y-72657142D01*
D10*
X97161904Y-105152380D02*
X97161904Y-105961904D01*
X97209523Y-106057142D01*
X97257142Y-106104761D01*
X97352380Y-106152380D01*
X97542857Y-106152380D01*
X97638095Y-106104761D01*
X97685714Y-106057142D01*
X97733333Y-105961904D01*
X97733333Y-105152380D01*
X98733333Y-106152380D02*
X98161904Y-106152380D01*
X98447619Y-106152380D02*
X98447619Y-105152380D01*
X98352380Y-105295238D01*
X98257142Y-105390476D01*
X98161904Y-105438095D01*
X99352380Y-105152380D02*
X99447619Y-105152380D01*
X99542857Y-105200000D01*
X99590476Y-105247619D01*
X99638095Y-105342857D01*
X99685714Y-105533333D01*
X99685714Y-105771428D01*
X99638095Y-105961904D01*
X99590476Y-106057142D01*
X99542857Y-106104761D01*
X99447619Y-106152380D01*
X99352380Y-106152380D01*
X99257142Y-106104761D01*
X99209523Y-106057142D01*
X99161904Y-105961904D01*
X99114285Y-105771428D01*
X99114285Y-105533333D01*
X99161904Y-105342857D01*
X99209523Y-105247619D01*
X99257142Y-105200000D01*
X99352380Y-105152380D01*
D12*
X99572380Y-107140000D02*
X99810476Y-107140000D01*
X99715238Y-107378095D02*
X99810476Y-107140000D01*
X99715238Y-106901904D01*
X100000952Y-107282857D02*
X99810476Y-107140000D01*
X100000952Y-106997142D01*
D14*
X99911047Y-136681809D02*
X99911047Y-137093047D01*
X99935238Y-137141428D01*
X99959428Y-137165619D01*
X100007809Y-137189809D01*
X100104571Y-137189809D01*
X100152952Y-137165619D01*
X100177142Y-137141428D01*
X100201333Y-137093047D01*
X100201333Y-136681809D01*
X100419047Y-136730190D02*
X100443238Y-136706000D01*
X100491619Y-136681809D01*
X100612571Y-136681809D01*
X100660952Y-136706000D01*
X100685142Y-136730190D01*
X100709333Y-136778571D01*
X100709333Y-136826952D01*
X100685142Y-136899523D01*
X100394857Y-137189809D01*
X100709333Y-137189809D01*
X101193142Y-137189809D02*
X100902857Y-137189809D01*
X101048000Y-137189809D02*
X101048000Y-136681809D01*
X100999619Y-136754380D01*
X100951238Y-136802761D01*
X100902857Y-136826952D01*
D10*
X103257142Y-108457142D02*
X103209523Y-108504761D01*
X103066666Y-108552380D01*
X102971428Y-108552380D01*
X102828571Y-108504761D01*
X102733333Y-108409523D01*
X102685714Y-108314285D01*
X102638095Y-108123809D01*
X102638095Y-107980952D01*
X102685714Y-107790476D01*
X102733333Y-107695238D01*
X102828571Y-107600000D01*
X102971428Y-107552380D01*
X103066666Y-107552380D01*
X103209523Y-107600000D01*
X103257142Y-107647619D01*
X104209523Y-108552380D02*
X103638095Y-108552380D01*
X103923809Y-108552380D02*
X103923809Y-107552380D01*
X103828571Y-107695238D01*
X103733333Y-107790476D01*
X103638095Y-107838095D01*
X105114285Y-107552380D02*
X104638095Y-107552380D01*
X104590476Y-108028571D01*
X104638095Y-107980952D01*
X104733333Y-107933333D01*
X104971428Y-107933333D01*
X105066666Y-107980952D01*
X105114285Y-108028571D01*
X105161904Y-108123809D01*
X105161904Y-108361904D01*
X105114285Y-108457142D01*
X105066666Y-108504761D01*
X104971428Y-108552380D01*
X104733333Y-108552380D01*
X104638095Y-108504761D01*
X104590476Y-108457142D01*
D12*
X100057142Y-109857142D02*
X100009523Y-109904761D01*
X99866666Y-109952380D01*
X99771428Y-109952380D01*
X99628571Y-109904761D01*
X99533333Y-109809523D01*
X99485714Y-109714285D01*
X99438095Y-109523809D01*
X99438095Y-109380952D01*
X99485714Y-109190476D01*
X99533333Y-109095238D01*
X99628571Y-109000000D01*
X99771428Y-108952380D01*
X99866666Y-108952380D01*
X100009523Y-109000000D01*
X100057142Y-109047619D01*
X101009523Y-109952380D02*
X100438095Y-109952380D01*
X100723809Y-109952380D02*
X100723809Y-108952380D01*
X100628571Y-109095238D01*
X100533333Y-109190476D01*
X100438095Y-109238095D01*
X101580952Y-109380952D02*
X101485714Y-109333333D01*
X101438095Y-109285714D01*
X101390476Y-109190476D01*
X101390476Y-109142857D01*
X101438095Y-109047619D01*
X101485714Y-109000000D01*
X101580952Y-108952380D01*
X101771428Y-108952380D01*
X101866666Y-109000000D01*
X101914285Y-109047619D01*
X101961904Y-109142857D01*
X101961904Y-109190476D01*
X101914285Y-109285714D01*
X101866666Y-109333333D01*
X101771428Y-109380952D01*
X101580952Y-109380952D01*
X101485714Y-109428571D01*
X101438095Y-109476190D01*
X101390476Y-109571428D01*
X101390476Y-109761904D01*
X101438095Y-109857142D01*
X101485714Y-109904761D01*
X101580952Y-109952380D01*
X101771428Y-109952380D01*
X101866666Y-109904761D01*
X101914285Y-109857142D01*
X101961904Y-109761904D01*
X101961904Y-109571428D01*
X101914285Y-109476190D01*
X101866666Y-109428571D01*
X101771428Y-109380952D01*
X89657142Y-144357142D02*
X89609523Y-144404761D01*
X89466666Y-144452380D01*
X89371428Y-144452380D01*
X89228571Y-144404761D01*
X89133333Y-144309523D01*
X89085714Y-144214285D01*
X89038095Y-144023809D01*
X89038095Y-143880952D01*
X89085714Y-143690476D01*
X89133333Y-143595238D01*
X89228571Y-143500000D01*
X89371428Y-143452380D01*
X89466666Y-143452380D01*
X89609523Y-143500000D01*
X89657142Y-143547619D01*
X90609523Y-144452380D02*
X90038095Y-144452380D01*
X90323809Y-144452380D02*
X90323809Y-143452380D01*
X90228571Y-143595238D01*
X90133333Y-143690476D01*
X90038095Y-143738095D01*
X91085714Y-144452380D02*
X91276190Y-144452380D01*
X91371428Y-144404761D01*
X91419047Y-144357142D01*
X91514285Y-144214285D01*
X91561904Y-144023809D01*
X91561904Y-143642857D01*
X91514285Y-143547619D01*
X91466666Y-143500000D01*
X91371428Y-143452380D01*
X91180952Y-143452380D01*
X91085714Y-143500000D01*
X91038095Y-143547619D01*
X90990476Y-143642857D01*
X90990476Y-143880952D01*
X91038095Y-143976190D01*
X91085714Y-144023809D01*
X91180952Y-144071428D01*
X91371428Y-144071428D01*
X91466666Y-144023809D01*
X91514285Y-143976190D01*
X91561904Y-143880952D01*
D10*
X104757142Y-106957142D02*
X104709523Y-107004761D01*
X104566666Y-107052380D01*
X104471428Y-107052380D01*
X104328571Y-107004761D01*
X104233333Y-106909523D01*
X104185714Y-106814285D01*
X104138095Y-106623809D01*
X104138095Y-106480952D01*
X104185714Y-106290476D01*
X104233333Y-106195238D01*
X104328571Y-106100000D01*
X104471428Y-106052380D01*
X104566666Y-106052380D01*
X104709523Y-106100000D01*
X104757142Y-106147619D01*
X105709523Y-107052380D02*
X105138095Y-107052380D01*
X105423809Y-107052380D02*
X105423809Y-106052380D01*
X105328571Y-106195238D01*
X105233333Y-106290476D01*
X105138095Y-106338095D01*
X106090476Y-106147619D02*
X106138095Y-106100000D01*
X106233333Y-106052380D01*
X106471428Y-106052380D01*
X106566666Y-106100000D01*
X106614285Y-106147619D01*
X106661904Y-106242857D01*
X106661904Y-106338095D01*
X106614285Y-106480952D01*
X106042857Y-107052380D01*
X106661904Y-107052380D01*
D12*
X99963333Y-148842380D02*
X99487142Y-148842380D01*
X99487142Y-147842380D01*
X100868095Y-148747142D02*
X100820476Y-148794761D01*
X100677619Y-148842380D01*
X100582380Y-148842380D01*
X100439523Y-148794761D01*
X100344285Y-148699523D01*
X100296666Y-148604285D01*
X100249047Y-148413809D01*
X100249047Y-148270952D01*
X100296666Y-148080476D01*
X100344285Y-147985238D01*
X100439523Y-147890000D01*
X100582380Y-147842380D01*
X100677619Y-147842380D01*
X100820476Y-147890000D01*
X100868095Y-147937619D01*
X101296666Y-148842380D02*
X101296666Y-147842380D01*
X101534761Y-147842380D01*
X101677619Y-147890000D01*
X101772857Y-147985238D01*
X101820476Y-148080476D01*
X101868095Y-148270952D01*
X101868095Y-148413809D01*
X101820476Y-148604285D01*
X101772857Y-148699523D01*
X101677619Y-148794761D01*
X101534761Y-148842380D01*
X101296666Y-148842380D01*
X102820476Y-148842380D02*
X102249047Y-148842380D01*
X102534761Y-148842380D02*
X102534761Y-147842380D01*
X102439523Y-147985238D01*
X102344285Y-148080476D01*
X102249047Y-148128095D01*
X93951904Y-104642380D02*
X93951904Y-105451904D01*
X93999523Y-105547142D01*
X94047142Y-105594761D01*
X94142380Y-105642380D01*
X94332857Y-105642380D01*
X94428095Y-105594761D01*
X94475714Y-105547142D01*
X94523333Y-105451904D01*
X94523333Y-104642380D01*
X95523333Y-105642380D02*
X94951904Y-105642380D01*
X95237619Y-105642380D02*
X95237619Y-104642380D01*
X95142380Y-104785238D01*
X95047142Y-104880476D01*
X94951904Y-104928095D01*
X95856666Y-104642380D02*
X96475714Y-104642380D01*
X96142380Y-105023333D01*
X96285238Y-105023333D01*
X96380476Y-105070952D01*
X96428095Y-105118571D01*
X96475714Y-105213809D01*
X96475714Y-105451904D01*
X96428095Y-105547142D01*
X96380476Y-105594761D01*
X96285238Y-105642380D01*
X95999523Y-105642380D01*
X95904285Y-105594761D01*
X95856666Y-105547142D01*
X94711904Y-80642380D02*
X94711904Y-81451904D01*
X94759523Y-81547142D01*
X94807142Y-81594761D01*
X94902380Y-81642380D01*
X95092857Y-81642380D01*
X95188095Y-81594761D01*
X95235714Y-81547142D01*
X95283333Y-81451904D01*
X95283333Y-80642380D01*
X96283333Y-81642380D02*
X95711904Y-81642380D01*
X95997619Y-81642380D02*
X95997619Y-80642380D01*
X95902380Y-80785238D01*
X95807142Y-80880476D01*
X95711904Y-80928095D01*
X97235714Y-81642380D02*
X96664285Y-81642380D01*
X96950000Y-81642380D02*
X96950000Y-80642380D01*
X96854761Y-80785238D01*
X96759523Y-80880476D01*
X96664285Y-80928095D01*
X93961904Y-129352380D02*
X93961904Y-130161904D01*
X94009523Y-130257142D01*
X94057142Y-130304761D01*
X94152380Y-130352380D01*
X94342857Y-130352380D01*
X94438095Y-130304761D01*
X94485714Y-130257142D01*
X94533333Y-130161904D01*
X94533333Y-129352380D01*
X95533333Y-130352380D02*
X94961904Y-130352380D01*
X95247619Y-130352380D02*
X95247619Y-129352380D01*
X95152380Y-129495238D01*
X95057142Y-129590476D01*
X94961904Y-129638095D01*
X96438095Y-129352380D02*
X95961904Y-129352380D01*
X95914285Y-129828571D01*
X95961904Y-129780952D01*
X96057142Y-129733333D01*
X96295238Y-129733333D01*
X96390476Y-129780952D01*
X96438095Y-129828571D01*
X96485714Y-129923809D01*
X96485714Y-130161904D01*
X96438095Y-130257142D01*
X96390476Y-130304761D01*
X96295238Y-130352380D01*
X96057142Y-130352380D01*
X95961904Y-130304761D01*
X95914285Y-130257142D01*
X93861904Y-117802380D02*
X93861904Y-118611904D01*
X93909523Y-118707142D01*
X93957142Y-118754761D01*
X94052380Y-118802380D01*
X94242857Y-118802380D01*
X94338095Y-118754761D01*
X94385714Y-118707142D01*
X94433333Y-118611904D01*
X94433333Y-117802380D01*
X95433333Y-118802380D02*
X94861904Y-118802380D01*
X95147619Y-118802380D02*
X95147619Y-117802380D01*
X95052380Y-117945238D01*
X94957142Y-118040476D01*
X94861904Y-118088095D01*
X96290476Y-118135714D02*
X96290476Y-118802380D01*
X96052380Y-117754761D02*
X95814285Y-118469047D01*
X96433333Y-118469047D01*
X98747142Y-129017142D02*
X98699523Y-129064761D01*
X98556666Y-129112380D01*
X98461428Y-129112380D01*
X98318571Y-129064761D01*
X98223333Y-128969523D01*
X98175714Y-128874285D01*
X98128095Y-128683809D01*
X98128095Y-128540952D01*
X98175714Y-128350476D01*
X98223333Y-128255238D01*
X98318571Y-128160000D01*
X98461428Y-128112380D01*
X98556666Y-128112380D01*
X98699523Y-128160000D01*
X98747142Y-128207619D01*
X99080476Y-128112380D02*
X99699523Y-128112380D01*
X99366190Y-128493333D01*
X99509047Y-128493333D01*
X99604285Y-128540952D01*
X99651904Y-128588571D01*
X99699523Y-128683809D01*
X99699523Y-128921904D01*
X99651904Y-129017142D01*
X99604285Y-129064761D01*
X99509047Y-129112380D01*
X99223333Y-129112380D01*
X99128095Y-129064761D01*
X99080476Y-129017142D01*
X100556666Y-128112380D02*
X100366190Y-128112380D01*
X100270952Y-128160000D01*
X100223333Y-128207619D01*
X100128095Y-128350476D01*
X100080476Y-128540952D01*
X100080476Y-128921904D01*
X100128095Y-129017142D01*
X100175714Y-129064761D01*
X100270952Y-129112380D01*
X100461428Y-129112380D01*
X100556666Y-129064761D01*
X100604285Y-129017142D01*
X100651904Y-128921904D01*
X100651904Y-128683809D01*
X100604285Y-128588571D01*
X100556666Y-128540952D01*
X100461428Y-128493333D01*
X100270952Y-128493333D01*
X100175714Y-128540952D01*
X100128095Y-128588571D01*
X100080476Y-128683809D01*
X93257142Y-99352380D02*
X92923809Y-98876190D01*
X92685714Y-99352380D02*
X92685714Y-98352380D01*
X93066666Y-98352380D01*
X93161904Y-98400000D01*
X93209523Y-98447619D01*
X93257142Y-98542857D01*
X93257142Y-98685714D01*
X93209523Y-98780952D01*
X93161904Y-98828571D01*
X93066666Y-98876190D01*
X92685714Y-98876190D01*
X93638095Y-98447619D02*
X93685714Y-98400000D01*
X93780952Y-98352380D01*
X94019047Y-98352380D01*
X94114285Y-98400000D01*
X94161904Y-98447619D01*
X94209523Y-98542857D01*
X94209523Y-98638095D01*
X94161904Y-98780952D01*
X93590476Y-99352380D01*
X94209523Y-99352380D01*
X95114285Y-98352380D02*
X94638095Y-98352380D01*
X94590476Y-98828571D01*
X94638095Y-98780952D01*
X94733333Y-98733333D01*
X94971428Y-98733333D01*
X95066666Y-98780952D01*
X95114285Y-98828571D01*
X95161904Y-98923809D01*
X95161904Y-99161904D01*
X95114285Y-99257142D01*
X95066666Y-99304761D01*
X94971428Y-99352380D01*
X94733333Y-99352380D01*
X94638095Y-99304761D01*
X94590476Y-99257142D01*
X102057142Y-101652380D02*
X101723809Y-101176190D01*
X101485714Y-101652380D02*
X101485714Y-100652380D01*
X101866666Y-100652380D01*
X101961904Y-100700000D01*
X102009523Y-100747619D01*
X102057142Y-100842857D01*
X102057142Y-100985714D01*
X102009523Y-101080952D01*
X101961904Y-101128571D01*
X101866666Y-101176190D01*
X101485714Y-101176190D01*
X103009523Y-101652380D02*
X102438095Y-101652380D01*
X102723809Y-101652380D02*
X102723809Y-100652380D01*
X102628571Y-100795238D01*
X102533333Y-100890476D01*
X102438095Y-100938095D01*
X103485714Y-101652380D02*
X103676190Y-101652380D01*
X103771428Y-101604761D01*
X103819047Y-101557142D01*
X103914285Y-101414285D01*
X103961904Y-101223809D01*
X103961904Y-100842857D01*
X103914285Y-100747619D01*
X103866666Y-100700000D01*
X103771428Y-100652380D01*
X103580952Y-100652380D01*
X103485714Y-100700000D01*
X103438095Y-100747619D01*
X103390476Y-100842857D01*
X103390476Y-101080952D01*
X103438095Y-101176190D01*
X103485714Y-101223809D01*
X103580952Y-101271428D01*
X103771428Y-101271428D01*
X103866666Y-101223809D01*
X103914285Y-101176190D01*
X103961904Y-101080952D01*
X105057142Y-102952380D02*
X104723809Y-102476190D01*
X104485714Y-102952380D02*
X104485714Y-101952380D01*
X104866666Y-101952380D01*
X104961904Y-102000000D01*
X105009523Y-102047619D01*
X105057142Y-102142857D01*
X105057142Y-102285714D01*
X105009523Y-102380952D01*
X104961904Y-102428571D01*
X104866666Y-102476190D01*
X104485714Y-102476190D01*
X105438095Y-102047619D02*
X105485714Y-102000000D01*
X105580952Y-101952380D01*
X105819047Y-101952380D01*
X105914285Y-102000000D01*
X105961904Y-102047619D01*
X106009523Y-102142857D01*
X106009523Y-102238095D01*
X105961904Y-102380952D01*
X105390476Y-102952380D01*
X106009523Y-102952380D01*
X106628571Y-101952380D02*
X106723809Y-101952380D01*
X106819047Y-102000000D01*
X106866666Y-102047619D01*
X106914285Y-102142857D01*
X106961904Y-102333333D01*
X106961904Y-102571428D01*
X106914285Y-102761904D01*
X106866666Y-102857142D01*
X106819047Y-102904761D01*
X106723809Y-102952380D01*
X106628571Y-102952380D01*
X106533333Y-102904761D01*
X106485714Y-102857142D01*
X106438095Y-102761904D01*
X106390476Y-102571428D01*
X106390476Y-102333333D01*
X106438095Y-102142857D01*
X106485714Y-102047619D01*
X106533333Y-102000000D01*
X106628571Y-101952380D01*
D14*
X98573428Y-140129809D02*
X98404095Y-139887904D01*
X98283142Y-140129809D02*
X98283142Y-139621809D01*
X98476666Y-139621809D01*
X98525047Y-139646000D01*
X98549238Y-139670190D01*
X98573428Y-139718571D01*
X98573428Y-139791142D01*
X98549238Y-139839523D01*
X98525047Y-139863714D01*
X98476666Y-139887904D01*
X98283142Y-139887904D01*
X98766952Y-139670190D02*
X98791142Y-139646000D01*
X98839523Y-139621809D01*
X98960476Y-139621809D01*
X99008857Y-139646000D01*
X99033047Y-139670190D01*
X99057238Y-139718571D01*
X99057238Y-139766952D01*
X99033047Y-139839523D01*
X98742761Y-140129809D01*
X99057238Y-140129809D01*
X99299142Y-140129809D02*
X99395904Y-140129809D01*
X99444285Y-140105619D01*
X99468476Y-140081428D01*
X99516857Y-140008857D01*
X99541047Y-139912095D01*
X99541047Y-139718571D01*
X99516857Y-139670190D01*
X99492666Y-139646000D01*
X99444285Y-139621809D01*
X99347523Y-139621809D01*
X99299142Y-139646000D01*
X99274952Y-139670190D01*
X99250761Y-139718571D01*
X99250761Y-139839523D01*
X99274952Y-139887904D01*
X99299142Y-139912095D01*
X99347523Y-139936285D01*
X99444285Y-139936285D01*
X99492666Y-139912095D01*
X99516857Y-139887904D01*
X99541047Y-139839523D01*
D12*
X93267142Y-138262380D02*
X92933809Y-137786190D01*
X92695714Y-138262380D02*
X92695714Y-137262380D01*
X93076666Y-137262380D01*
X93171904Y-137310000D01*
X93219523Y-137357619D01*
X93267142Y-137452857D01*
X93267142Y-137595714D01*
X93219523Y-137690952D01*
X93171904Y-137738571D01*
X93076666Y-137786190D01*
X92695714Y-137786190D01*
X93648095Y-137357619D02*
X93695714Y-137310000D01*
X93790952Y-137262380D01*
X94029047Y-137262380D01*
X94124285Y-137310000D01*
X94171904Y-137357619D01*
X94219523Y-137452857D01*
X94219523Y-137548095D01*
X94171904Y-137690952D01*
X93600476Y-138262380D01*
X94219523Y-138262380D01*
X94790952Y-137690952D02*
X94695714Y-137643333D01*
X94648095Y-137595714D01*
X94600476Y-137500476D01*
X94600476Y-137452857D01*
X94648095Y-137357619D01*
X94695714Y-137310000D01*
X94790952Y-137262380D01*
X94981428Y-137262380D01*
X95076666Y-137310000D01*
X95124285Y-137357619D01*
X95171904Y-137452857D01*
X95171904Y-137500476D01*
X95124285Y-137595714D01*
X95076666Y-137643333D01*
X94981428Y-137690952D01*
X94790952Y-137690952D01*
X94695714Y-137738571D01*
X94648095Y-137786190D01*
X94600476Y-137881428D01*
X94600476Y-138071904D01*
X94648095Y-138167142D01*
X94695714Y-138214761D01*
X94790952Y-138262380D01*
X94981428Y-138262380D01*
X95076666Y-138214761D01*
X95124285Y-138167142D01*
X95171904Y-138071904D01*
X95171904Y-137881428D01*
X95124285Y-137786190D01*
X95076666Y-137738571D01*
X94981428Y-137690952D01*
X93397142Y-125802380D02*
X93063809Y-125326190D01*
X92825714Y-125802380D02*
X92825714Y-124802380D01*
X93206666Y-124802380D01*
X93301904Y-124850000D01*
X93349523Y-124897619D01*
X93397142Y-124992857D01*
X93397142Y-125135714D01*
X93349523Y-125230952D01*
X93301904Y-125278571D01*
X93206666Y-125326190D01*
X92825714Y-125326190D01*
X93778095Y-124897619D02*
X93825714Y-124850000D01*
X93920952Y-124802380D01*
X94159047Y-124802380D01*
X94254285Y-124850000D01*
X94301904Y-124897619D01*
X94349523Y-124992857D01*
X94349523Y-125088095D01*
X94301904Y-125230952D01*
X93730476Y-125802380D01*
X94349523Y-125802380D01*
X94682857Y-124802380D02*
X95349523Y-124802380D01*
X94920952Y-125802380D01*
X93277142Y-112322380D02*
X92943809Y-111846190D01*
X92705714Y-112322380D02*
X92705714Y-111322380D01*
X93086666Y-111322380D01*
X93181904Y-111370000D01*
X93229523Y-111417619D01*
X93277142Y-111512857D01*
X93277142Y-111655714D01*
X93229523Y-111750952D01*
X93181904Y-111798571D01*
X93086666Y-111846190D01*
X92705714Y-111846190D01*
X93658095Y-111417619D02*
X93705714Y-111370000D01*
X93800952Y-111322380D01*
X94039047Y-111322380D01*
X94134285Y-111370000D01*
X94181904Y-111417619D01*
X94229523Y-111512857D01*
X94229523Y-111608095D01*
X94181904Y-111750952D01*
X93610476Y-112322380D01*
X94229523Y-112322380D01*
X95086666Y-111322380D02*
X94896190Y-111322380D01*
X94800952Y-111370000D01*
X94753333Y-111417619D01*
X94658095Y-111560476D01*
X94610476Y-111750952D01*
X94610476Y-112131904D01*
X94658095Y-112227142D01*
X94705714Y-112274761D01*
X94800952Y-112322380D01*
X94991428Y-112322380D01*
X95086666Y-112274761D01*
X95134285Y-112227142D01*
X95181904Y-112131904D01*
X95181904Y-111893809D01*
X95134285Y-111798571D01*
X95086666Y-111750952D01*
X94991428Y-111703333D01*
X94800952Y-111703333D01*
X94705714Y-111750952D01*
X94658095Y-111798571D01*
X94610476Y-111893809D01*
D14*
X100173428Y-140529809D02*
X100004095Y-140287904D01*
X99883142Y-140529809D02*
X99883142Y-140021809D01*
X100076666Y-140021809D01*
X100125047Y-140046000D01*
X100149238Y-140070190D01*
X100173428Y-140118571D01*
X100173428Y-140191142D01*
X100149238Y-140239523D01*
X100125047Y-140263714D01*
X100076666Y-140287904D01*
X99883142Y-140287904D01*
X100342761Y-140021809D02*
X100657238Y-140021809D01*
X100487904Y-140215333D01*
X100560476Y-140215333D01*
X100608857Y-140239523D01*
X100633047Y-140263714D01*
X100657238Y-140312095D01*
X100657238Y-140433047D01*
X100633047Y-140481428D01*
X100608857Y-140505619D01*
X100560476Y-140529809D01*
X100415333Y-140529809D01*
X100366952Y-140505619D01*
X100342761Y-140481428D01*
X100971714Y-140021809D02*
X101020095Y-140021809D01*
X101068476Y-140046000D01*
X101092666Y-140070190D01*
X101116857Y-140118571D01*
X101141047Y-140215333D01*
X101141047Y-140336285D01*
X101116857Y-140433047D01*
X101092666Y-140481428D01*
X101068476Y-140505619D01*
X101020095Y-140529809D01*
X100971714Y-140529809D01*
X100923333Y-140505619D01*
X100899142Y-140481428D01*
X100874952Y-140433047D01*
X100850761Y-140336285D01*
X100850761Y-140215333D01*
X100874952Y-140118571D01*
X100899142Y-140070190D01*
X100923333Y-140046000D01*
X100971714Y-140021809D01*
D12*
X100367142Y-80072380D02*
X100033809Y-79596190D01*
X99795714Y-80072380D02*
X99795714Y-79072380D01*
X100176666Y-79072380D01*
X100271904Y-79120000D01*
X100319523Y-79167619D01*
X100367142Y-79262857D01*
X100367142Y-79405714D01*
X100319523Y-79500952D01*
X100271904Y-79548571D01*
X100176666Y-79596190D01*
X99795714Y-79596190D01*
X100748095Y-79167619D02*
X100795714Y-79120000D01*
X100890952Y-79072380D01*
X101129047Y-79072380D01*
X101224285Y-79120000D01*
X101271904Y-79167619D01*
X101319523Y-79262857D01*
X101319523Y-79358095D01*
X101271904Y-79500952D01*
X100700476Y-80072380D01*
X101319523Y-80072380D01*
X101652857Y-79072380D02*
X102271904Y-79072380D01*
X101938571Y-79453333D01*
X102081428Y-79453333D01*
X102176666Y-79500952D01*
X102224285Y-79548571D01*
X102271904Y-79643809D01*
X102271904Y-79881904D01*
X102224285Y-79977142D01*
X102176666Y-80024761D01*
X102081428Y-80072380D01*
X101795714Y-80072380D01*
X101700476Y-80024761D01*
X101652857Y-79977142D01*
X105496666Y-78868571D02*
X105163333Y-78868571D01*
X105163333Y-79392380D02*
X105163333Y-78392380D01*
X105639523Y-78392380D01*
X106544285Y-79392380D02*
X105972857Y-79392380D01*
X106258571Y-79392380D02*
X106258571Y-78392380D01*
X106163333Y-78535238D01*
X106068095Y-78630476D01*
X105972857Y-78678095D01*
X104452380Y-70733333D02*
X105166666Y-70733333D01*
X105309523Y-70780952D01*
X105404761Y-70876190D01*
X105452380Y-71019047D01*
X105452380Y-71114285D01*
X105452380Y-70257142D02*
X104452380Y-70257142D01*
X104452380Y-69876190D01*
X104500000Y-69780952D01*
X104547619Y-69733333D01*
X104642857Y-69685714D01*
X104785714Y-69685714D01*
X104880952Y-69733333D01*
X104928571Y-69780952D01*
X104976190Y-69876190D01*
X104976190Y-70257142D01*
X104547619Y-69304761D02*
X104500000Y-69257142D01*
X104452380Y-69161904D01*
X104452380Y-68923809D01*
X104500000Y-68828571D01*
X104547619Y-68780952D01*
X104642857Y-68733333D01*
X104738095Y-68733333D01*
X104880952Y-68780952D01*
X105452380Y-69352380D01*
X105452380Y-68733333D01*
X108752380Y-73933333D02*
X109466666Y-73933333D01*
X109609523Y-73980952D01*
X109704761Y-74076190D01*
X109752380Y-74219047D01*
X109752380Y-74314285D01*
X109752380Y-73457142D02*
X108752380Y-73457142D01*
X108752380Y-73076190D01*
X108800000Y-72980952D01*
X108847619Y-72933333D01*
X108942857Y-72885714D01*
X109085714Y-72885714D01*
X109180952Y-72933333D01*
X109228571Y-72980952D01*
X109276190Y-73076190D01*
X109276190Y-73457142D01*
X108752380Y-72552380D02*
X108752380Y-71933333D01*
X109133333Y-72266666D01*
X109133333Y-72123809D01*
X109180952Y-72028571D01*
X109228571Y-71980952D01*
X109323809Y-71933333D01*
X109561904Y-71933333D01*
X109657142Y-71980952D01*
X109704761Y-72028571D01*
X109752380Y-72123809D01*
X109752380Y-72409523D01*
X109704761Y-72504761D01*
X109657142Y-72552380D01*
D14*
X117288761Y-122321809D02*
X117288761Y-122684666D01*
X117264571Y-122757238D01*
X117216190Y-122805619D01*
X117143619Y-122829809D01*
X117095238Y-122829809D01*
X117796761Y-122829809D02*
X117506476Y-122829809D01*
X117651619Y-122829809D02*
X117651619Y-122321809D01*
X117603238Y-122394380D01*
X117554857Y-122442761D01*
X117506476Y-122466952D01*
X118232190Y-122321809D02*
X118135428Y-122321809D01*
X118087047Y-122346000D01*
X118062857Y-122370190D01*
X118014476Y-122442761D01*
X117990285Y-122539523D01*
X117990285Y-122733047D01*
X118014476Y-122781428D01*
X118038666Y-122805619D01*
X118087047Y-122829809D01*
X118183809Y-122829809D01*
X118232190Y-122805619D01*
X118256380Y-122781428D01*
X118280571Y-122733047D01*
X118280571Y-122612095D01*
X118256380Y-122563714D01*
X118232190Y-122539523D01*
X118183809Y-122515333D01*
X118087047Y-122515333D01*
X118038666Y-122539523D01*
X118014476Y-122563714D01*
X117990285Y-122612095D01*
D12*
X107790476Y-87452380D02*
X107790476Y-88166666D01*
X107742857Y-88309523D01*
X107647619Y-88404761D01*
X107504761Y-88452380D01*
X107409523Y-88452380D01*
X108790476Y-88452380D02*
X108219047Y-88452380D01*
X108504761Y-88452380D02*
X108504761Y-87452380D01*
X108409523Y-87595238D01*
X108314285Y-87690476D01*
X108219047Y-87738095D01*
X109123809Y-87452380D02*
X109790476Y-87452380D01*
X109361904Y-88452380D01*
X110357142Y-136152380D02*
X110023809Y-135676190D01*
X109785714Y-136152380D02*
X109785714Y-135152380D01*
X110166666Y-135152380D01*
X110261904Y-135200000D01*
X110309523Y-135247619D01*
X110357142Y-135342857D01*
X110357142Y-135485714D01*
X110309523Y-135580952D01*
X110261904Y-135628571D01*
X110166666Y-135676190D01*
X109785714Y-135676190D01*
X111309523Y-136152380D02*
X110738095Y-136152380D01*
X111023809Y-136152380D02*
X111023809Y-135152380D01*
X110928571Y-135295238D01*
X110833333Y-135390476D01*
X110738095Y-135438095D01*
X111928571Y-135152380D02*
X112023809Y-135152380D01*
X112119047Y-135200000D01*
X112166666Y-135247619D01*
X112214285Y-135342857D01*
X112261904Y-135533333D01*
X112261904Y-135771428D01*
X112214285Y-135961904D01*
X112166666Y-136057142D01*
X112119047Y-136104761D01*
X112023809Y-136152380D01*
X111928571Y-136152380D01*
X111833333Y-136104761D01*
X111785714Y-136057142D01*
X111738095Y-135961904D01*
X111690476Y-135771428D01*
X111690476Y-135533333D01*
X111738095Y-135342857D01*
X111785714Y-135247619D01*
X111833333Y-135200000D01*
X111928571Y-135152380D01*
D10*
X118033333Y-136257142D02*
X117985714Y-136304761D01*
X117842857Y-136352380D01*
X117747619Y-136352380D01*
X117604761Y-136304761D01*
X117509523Y-136209523D01*
X117461904Y-136114285D01*
X117414285Y-135923809D01*
X117414285Y-135780952D01*
X117461904Y-135590476D01*
X117509523Y-135495238D01*
X117604761Y-135400000D01*
X117747619Y-135352380D01*
X117842857Y-135352380D01*
X117985714Y-135400000D01*
X118033333Y-135447619D01*
X118414285Y-135447619D02*
X118461904Y-135400000D01*
X118557142Y-135352380D01*
X118795238Y-135352380D01*
X118890476Y-135400000D01*
X118938095Y-135447619D01*
X118985714Y-135542857D01*
X118985714Y-135638095D01*
X118938095Y-135780952D01*
X118366666Y-136352380D01*
X118985714Y-136352380D01*
D12*
X87987142Y-86067142D02*
X87939523Y-86114761D01*
X87796666Y-86162380D01*
X87701428Y-86162380D01*
X87558571Y-86114761D01*
X87463333Y-86019523D01*
X87415714Y-85924285D01*
X87368095Y-85733809D01*
X87368095Y-85590952D01*
X87415714Y-85400476D01*
X87463333Y-85305238D01*
X87558571Y-85210000D01*
X87701428Y-85162380D01*
X87796666Y-85162380D01*
X87939523Y-85210000D01*
X87987142Y-85257619D01*
X88368095Y-85257619D02*
X88415714Y-85210000D01*
X88510952Y-85162380D01*
X88749047Y-85162380D01*
X88844285Y-85210000D01*
X88891904Y-85257619D01*
X88939523Y-85352857D01*
X88939523Y-85448095D01*
X88891904Y-85590952D01*
X88320476Y-86162380D01*
X88939523Y-86162380D01*
X89891904Y-86162380D02*
X89320476Y-86162380D01*
X89606190Y-86162380D02*
X89606190Y-85162380D01*
X89510952Y-85305238D01*
X89415714Y-85400476D01*
X89320476Y-85448095D01*
X88227142Y-99257142D02*
X88179523Y-99304761D01*
X88036666Y-99352380D01*
X87941428Y-99352380D01*
X87798571Y-99304761D01*
X87703333Y-99209523D01*
X87655714Y-99114285D01*
X87608095Y-98923809D01*
X87608095Y-98780952D01*
X87655714Y-98590476D01*
X87703333Y-98495238D01*
X87798571Y-98400000D01*
X87941428Y-98352380D01*
X88036666Y-98352380D01*
X88179523Y-98400000D01*
X88227142Y-98447619D01*
X88608095Y-98447619D02*
X88655714Y-98400000D01*
X88750952Y-98352380D01*
X88989047Y-98352380D01*
X89084285Y-98400000D01*
X89131904Y-98447619D01*
X89179523Y-98542857D01*
X89179523Y-98638095D01*
X89131904Y-98780952D01*
X88560476Y-99352380D01*
X89179523Y-99352380D01*
X89560476Y-98447619D02*
X89608095Y-98400000D01*
X89703333Y-98352380D01*
X89941428Y-98352380D01*
X90036666Y-98400000D01*
X90084285Y-98447619D01*
X90131904Y-98542857D01*
X90131904Y-98638095D01*
X90084285Y-98780952D01*
X89512857Y-99352380D01*
X90131904Y-99352380D01*
X88127142Y-112137142D02*
X88079523Y-112184761D01*
X87936666Y-112232380D01*
X87841428Y-112232380D01*
X87698571Y-112184761D01*
X87603333Y-112089523D01*
X87555714Y-111994285D01*
X87508095Y-111803809D01*
X87508095Y-111660952D01*
X87555714Y-111470476D01*
X87603333Y-111375238D01*
X87698571Y-111280000D01*
X87841428Y-111232380D01*
X87936666Y-111232380D01*
X88079523Y-111280000D01*
X88127142Y-111327619D01*
X88508095Y-111327619D02*
X88555714Y-111280000D01*
X88650952Y-111232380D01*
X88889047Y-111232380D01*
X88984285Y-111280000D01*
X89031904Y-111327619D01*
X89079523Y-111422857D01*
X89079523Y-111518095D01*
X89031904Y-111660952D01*
X88460476Y-112232380D01*
X89079523Y-112232380D01*
X89412857Y-111232380D02*
X90031904Y-111232380D01*
X89698571Y-111613333D01*
X89841428Y-111613333D01*
X89936666Y-111660952D01*
X89984285Y-111708571D01*
X90031904Y-111803809D01*
X90031904Y-112041904D01*
X89984285Y-112137142D01*
X89936666Y-112184761D01*
X89841428Y-112232380D01*
X89555714Y-112232380D01*
X89460476Y-112184761D01*
X89412857Y-112137142D01*
X88257142Y-125277142D02*
X88209523Y-125324761D01*
X88066666Y-125372380D01*
X87971428Y-125372380D01*
X87828571Y-125324761D01*
X87733333Y-125229523D01*
X87685714Y-125134285D01*
X87638095Y-124943809D01*
X87638095Y-124800952D01*
X87685714Y-124610476D01*
X87733333Y-124515238D01*
X87828571Y-124420000D01*
X87971428Y-124372380D01*
X88066666Y-124372380D01*
X88209523Y-124420000D01*
X88257142Y-124467619D01*
X88638095Y-124467619D02*
X88685714Y-124420000D01*
X88780952Y-124372380D01*
X89019047Y-124372380D01*
X89114285Y-124420000D01*
X89161904Y-124467619D01*
X89209523Y-124562857D01*
X89209523Y-124658095D01*
X89161904Y-124800952D01*
X88590476Y-125372380D01*
X89209523Y-125372380D01*
X90066666Y-124705714D02*
X90066666Y-125372380D01*
X89828571Y-124324761D02*
X89590476Y-125039047D01*
X90209523Y-125039047D01*
X88197142Y-138367142D02*
X88149523Y-138414761D01*
X88006666Y-138462380D01*
X87911428Y-138462380D01*
X87768571Y-138414761D01*
X87673333Y-138319523D01*
X87625714Y-138224285D01*
X87578095Y-138033809D01*
X87578095Y-137890952D01*
X87625714Y-137700476D01*
X87673333Y-137605238D01*
X87768571Y-137510000D01*
X87911428Y-137462380D01*
X88006666Y-137462380D01*
X88149523Y-137510000D01*
X88197142Y-137557619D01*
X88578095Y-137557619D02*
X88625714Y-137510000D01*
X88720952Y-137462380D01*
X88959047Y-137462380D01*
X89054285Y-137510000D01*
X89101904Y-137557619D01*
X89149523Y-137652857D01*
X89149523Y-137748095D01*
X89101904Y-137890952D01*
X88530476Y-138462380D01*
X89149523Y-138462380D01*
X90054285Y-137462380D02*
X89578095Y-137462380D01*
X89530476Y-137938571D01*
X89578095Y-137890952D01*
X89673333Y-137843333D01*
X89911428Y-137843333D01*
X90006666Y-137890952D01*
X90054285Y-137938571D01*
X90101904Y-138033809D01*
X90101904Y-138271904D01*
X90054285Y-138367142D01*
X90006666Y-138414761D01*
X89911428Y-138462380D01*
X89673333Y-138462380D01*
X89578095Y-138414761D01*
X89530476Y-138367142D01*
X101013333Y-114112380D02*
X100537142Y-114112380D01*
X100537142Y-113112380D01*
X101870476Y-114112380D02*
X101299047Y-114112380D01*
X101584761Y-114112380D02*
X101584761Y-113112380D01*
X101489523Y-113255238D01*
X101394285Y-113350476D01*
X101299047Y-113398095D01*
D10*
X114533333Y-136257142D02*
X114485714Y-136304761D01*
X114342857Y-136352380D01*
X114247619Y-136352380D01*
X114104761Y-136304761D01*
X114009523Y-136209523D01*
X113961904Y-136114285D01*
X113914285Y-135923809D01*
X113914285Y-135780952D01*
X113961904Y-135590476D01*
X114009523Y-135495238D01*
X114104761Y-135400000D01*
X114247619Y-135352380D01*
X114342857Y-135352380D01*
X114485714Y-135400000D01*
X114533333Y-135447619D01*
X115485714Y-136352380D02*
X114914285Y-136352380D01*
X115200000Y-136352380D02*
X115200000Y-135352380D01*
X115104761Y-135495238D01*
X115009523Y-135590476D01*
X114914285Y-135638095D01*
D12*
X103657142Y-99457142D02*
X103609523Y-99504761D01*
X103466666Y-99552380D01*
X103371428Y-99552380D01*
X103228571Y-99504761D01*
X103133333Y-99409523D01*
X103085714Y-99314285D01*
X103038095Y-99123809D01*
X103038095Y-98980952D01*
X103085714Y-98790476D01*
X103133333Y-98695238D01*
X103228571Y-98600000D01*
X103371428Y-98552380D01*
X103466666Y-98552380D01*
X103609523Y-98600000D01*
X103657142Y-98647619D01*
X104609523Y-99552380D02*
X104038095Y-99552380D01*
X104323809Y-99552380D02*
X104323809Y-98552380D01*
X104228571Y-98695238D01*
X104133333Y-98790476D01*
X104038095Y-98838095D01*
X105466666Y-98885714D02*
X105466666Y-99552380D01*
X105228571Y-98504761D02*
X104990476Y-99219047D01*
X105609523Y-99219047D01*
X100673142Y-96690857D02*
X100720761Y-96738476D01*
X100768380Y-96881333D01*
X100768380Y-96976571D01*
X100720761Y-97119428D01*
X100625523Y-97214666D01*
X100530285Y-97262285D01*
X100339809Y-97309904D01*
X100196952Y-97309904D01*
X100006476Y-97262285D01*
X99911238Y-97214666D01*
X99816000Y-97119428D01*
X99768380Y-96976571D01*
X99768380Y-96881333D01*
X99816000Y-96738476D01*
X99863619Y-96690857D01*
X100768380Y-95738476D02*
X100768380Y-96309904D01*
X100768380Y-96024190D02*
X99768380Y-96024190D01*
X99911238Y-96119428D01*
X100006476Y-96214666D01*
X100054095Y-96309904D01*
X99768380Y-95405142D02*
X99768380Y-94738476D01*
X100768380Y-95167047D01*
X97657142Y-103657142D02*
X97609523Y-103704761D01*
X97466666Y-103752380D01*
X97371428Y-103752380D01*
X97228571Y-103704761D01*
X97133333Y-103609523D01*
X97085714Y-103514285D01*
X97038095Y-103323809D01*
X97038095Y-103180952D01*
X97085714Y-102990476D01*
X97133333Y-102895238D01*
X97228571Y-102800000D01*
X97371428Y-102752380D01*
X97466666Y-102752380D01*
X97609523Y-102800000D01*
X97657142Y-102847619D01*
X98609523Y-103752380D02*
X98038095Y-103752380D01*
X98323809Y-103752380D02*
X98323809Y-102752380D01*
X98228571Y-102895238D01*
X98133333Y-102990476D01*
X98038095Y-103038095D01*
X98942857Y-102752380D02*
X99561904Y-102752380D01*
X99228571Y-103133333D01*
X99371428Y-103133333D01*
X99466666Y-103180952D01*
X99514285Y-103228571D01*
X99561904Y-103323809D01*
X99561904Y-103561904D01*
X99514285Y-103657142D01*
X99466666Y-103704761D01*
X99371428Y-103752380D01*
X99085714Y-103752380D01*
X98990476Y-103704761D01*
X98942857Y-103657142D01*
X89657142Y-147957142D02*
X89609523Y-148004761D01*
X89466666Y-148052380D01*
X89371428Y-148052380D01*
X89228571Y-148004761D01*
X89133333Y-147909523D01*
X89085714Y-147814285D01*
X89038095Y-147623809D01*
X89038095Y-147480952D01*
X89085714Y-147290476D01*
X89133333Y-147195238D01*
X89228571Y-147100000D01*
X89371428Y-147052380D01*
X89466666Y-147052380D01*
X89609523Y-147100000D01*
X89657142Y-147147619D01*
X90038095Y-147147619D02*
X90085714Y-147100000D01*
X90180952Y-147052380D01*
X90419047Y-147052380D01*
X90514285Y-147100000D01*
X90561904Y-147147619D01*
X90609523Y-147242857D01*
X90609523Y-147338095D01*
X90561904Y-147480952D01*
X89990476Y-148052380D01*
X90609523Y-148052380D01*
X91228571Y-147052380D02*
X91323809Y-147052380D01*
X91419047Y-147100000D01*
X91466666Y-147147619D01*
X91514285Y-147242857D01*
X91561904Y-147433333D01*
X91561904Y-147671428D01*
X91514285Y-147861904D01*
X91466666Y-147957142D01*
X91419047Y-148004761D01*
X91323809Y-148052380D01*
X91228571Y-148052380D01*
X91133333Y-148004761D01*
X91085714Y-147957142D01*
X91038095Y-147861904D01*
X90990476Y-147671428D01*
X90990476Y-147433333D01*
X91038095Y-147242857D01*
X91085714Y-147147619D01*
X91133333Y-147100000D01*
X91228571Y-147052380D01*
X96557142Y-97057142D02*
X96509523Y-97104761D01*
X96366666Y-97152380D01*
X96271428Y-97152380D01*
X96128571Y-97104761D01*
X96033333Y-97009523D01*
X95985714Y-96914285D01*
X95938095Y-96723809D01*
X95938095Y-96580952D01*
X95985714Y-96390476D01*
X96033333Y-96295238D01*
X96128571Y-96200000D01*
X96271428Y-96152380D01*
X96366666Y-96152380D01*
X96509523Y-96200000D01*
X96557142Y-96247619D01*
X97509523Y-97152380D02*
X96938095Y-97152380D01*
X97223809Y-97152380D02*
X97223809Y-96152380D01*
X97128571Y-96295238D01*
X97033333Y-96390476D01*
X96938095Y-96438095D01*
X98366666Y-96152380D02*
X98176190Y-96152380D01*
X98080952Y-96200000D01*
X98033333Y-96247619D01*
X97938095Y-96390476D01*
X97890476Y-96580952D01*
X97890476Y-96961904D01*
X97938095Y-97057142D01*
X97985714Y-97104761D01*
X98080952Y-97152380D01*
X98271428Y-97152380D01*
X98366666Y-97104761D01*
X98414285Y-97057142D01*
X98461904Y-96961904D01*
X98461904Y-96723809D01*
X98414285Y-96628571D01*
X98366666Y-96580952D01*
X98271428Y-96533333D01*
X98080952Y-96533333D01*
X97985714Y-96580952D01*
X97938095Y-96628571D01*
X97890476Y-96723809D01*
X124158095Y-128852380D02*
X124158095Y-129661904D01*
X124205714Y-129757142D01*
X124253333Y-129804761D01*
X124348571Y-129852380D01*
X124539047Y-129852380D01*
X124634285Y-129804761D01*
X124681904Y-129757142D01*
X124729523Y-129661904D01*
X124729523Y-128852380D01*
X125158095Y-128947619D02*
X125205714Y-128900000D01*
X125300952Y-128852380D01*
X125539047Y-128852380D01*
X125634285Y-128900000D01*
X125681904Y-128947619D01*
X125729523Y-129042857D01*
X125729523Y-129138095D01*
X125681904Y-129280952D01*
X125110476Y-129852380D01*
X125729523Y-129852380D01*
X115898095Y-128882380D02*
X115898095Y-129691904D01*
X115945714Y-129787142D01*
X115993333Y-129834761D01*
X116088571Y-129882380D01*
X116279047Y-129882380D01*
X116374285Y-129834761D01*
X116421904Y-129787142D01*
X116469523Y-129691904D01*
X116469523Y-128882380D01*
X117469523Y-129882380D02*
X116898095Y-129882380D01*
X117183809Y-129882380D02*
X117183809Y-128882380D01*
X117088571Y-129025238D01*
X116993333Y-129120476D01*
X116898095Y-129168095D01*
X112900000Y-126452380D02*
X112900000Y-126690476D01*
X112661904Y-126595238D02*
X112900000Y-126690476D01*
X113138095Y-126595238D01*
X112757142Y-126880952D02*
X112900000Y-126690476D01*
X113042857Y-126880952D01*
X112900000Y-126452380D02*
X112900000Y-126690476D01*
X112661904Y-126595238D02*
X112900000Y-126690476D01*
X113138095Y-126595238D01*
X112757142Y-126880952D02*
X112900000Y-126690476D01*
X113042857Y-126880952D01*
D10*
X108057142Y-132652380D02*
X107723809Y-132176190D01*
X107485714Y-132652380D02*
X107485714Y-131652380D01*
X107866666Y-131652380D01*
X107961904Y-131700000D01*
X108009523Y-131747619D01*
X108057142Y-131842857D01*
X108057142Y-131985714D01*
X108009523Y-132080952D01*
X107961904Y-132128571D01*
X107866666Y-132176190D01*
X107485714Y-132176190D01*
X109009523Y-132652380D02*
X108438095Y-132652380D01*
X108723809Y-132652380D02*
X108723809Y-131652380D01*
X108628571Y-131795238D01*
X108533333Y-131890476D01*
X108438095Y-131938095D01*
X109866666Y-131985714D02*
X109866666Y-132652380D01*
X109628571Y-131604761D02*
X109390476Y-132319047D01*
X110009523Y-132319047D01*
X108533333Y-128257142D02*
X108485714Y-128304761D01*
X108342857Y-128352380D01*
X108247619Y-128352380D01*
X108104761Y-128304761D01*
X108009523Y-128209523D01*
X107961904Y-128114285D01*
X107914285Y-127923809D01*
X107914285Y-127780952D01*
X107961904Y-127590476D01*
X108009523Y-127495238D01*
X108104761Y-127400000D01*
X108247619Y-127352380D01*
X108342857Y-127352380D01*
X108485714Y-127400000D01*
X108533333Y-127447619D01*
X108866666Y-127352380D02*
X109533333Y-127352380D01*
X109104761Y-128352380D01*
X107938095Y-129352380D02*
X107938095Y-130161904D01*
X107985714Y-130257142D01*
X108033333Y-130304761D01*
X108128571Y-130352380D01*
X108319047Y-130352380D01*
X108414285Y-130304761D01*
X108461904Y-130257142D01*
X108509523Y-130161904D01*
X108509523Y-129352380D01*
X108890476Y-129352380D02*
X109509523Y-129352380D01*
X109176190Y-129733333D01*
X109319047Y-129733333D01*
X109414285Y-129780952D01*
X109461904Y-129828571D01*
X109509523Y-129923809D01*
X109509523Y-130161904D01*
X109461904Y-130257142D01*
X109414285Y-130304761D01*
X109319047Y-130352380D01*
X109033333Y-130352380D01*
X108938095Y-130304761D01*
X108890476Y-130257142D01*
D12*
X110170000Y-130422380D02*
X110170000Y-130660476D01*
X109931904Y-130565238D02*
X110170000Y-130660476D01*
X110408095Y-130565238D01*
X110027142Y-130850952D02*
X110170000Y-130660476D01*
X110312857Y-130850952D01*
X123585714Y-55071428D02*
X123919047Y-55071428D01*
X123919047Y-54547619D02*
X123919047Y-55547619D01*
X123442857Y-55547619D01*
X123109523Y-54833333D02*
X122633333Y-54833333D01*
X123204761Y-54547619D02*
X122871428Y-55547619D01*
X122538095Y-54547619D01*
X122204761Y-54547619D02*
X122204761Y-55547619D01*
X121633333Y-54547619D01*
X121633333Y-55547619D01*
X120633333Y-54547619D02*
X121204761Y-54547619D01*
X120919047Y-54547619D02*
X120919047Y-55547619D01*
X121014285Y-55404761D01*
X121109523Y-55309523D01*
X121204761Y-55261904D01*
X140904761Y-54447619D02*
X140904761Y-55447619D01*
X140904761Y-54971428D02*
X140333333Y-54971428D01*
X140333333Y-54447619D02*
X140333333Y-55447619D01*
X139380952Y-54447619D02*
X139857142Y-54447619D01*
X139857142Y-55447619D01*
X139047619Y-54447619D02*
X139047619Y-55447619D01*
X138571428Y-54447619D02*
X138571428Y-55447619D01*
X138333333Y-55447619D01*
X138190476Y-55400000D01*
X138095238Y-55304761D01*
X138047619Y-55209523D01*
X138000000Y-55019047D01*
X138000000Y-54876190D01*
X138047619Y-54685714D01*
X138095238Y-54590476D01*
X138190476Y-54495238D01*
X138333333Y-54447619D01*
X138571428Y-54447619D01*
X137047619Y-54447619D02*
X137619047Y-54447619D01*
X137333333Y-54447619D02*
X137333333Y-55447619D01*
X137428571Y-55304761D01*
X137523809Y-55209523D01*
X137619047Y-55161904D01*
X133495238Y-54547619D02*
X133495238Y-55547619D01*
X133495238Y-55071428D02*
X132923809Y-55071428D01*
X132923809Y-54547619D02*
X132923809Y-55547619D01*
X132542857Y-55547619D02*
X132304761Y-54547619D01*
X132114285Y-55261904D01*
X131923809Y-54547619D01*
X131685714Y-55547619D01*
X131304761Y-55071428D02*
X130971428Y-55071428D01*
X130828571Y-54547619D02*
X131304761Y-54547619D01*
X131304761Y-55547619D01*
X130828571Y-55547619D01*
X129923809Y-54547619D02*
X130400000Y-54547619D01*
X130400000Y-55547619D01*
X129114285Y-54547619D02*
X129590476Y-54547619D01*
X129590476Y-55547619D01*
X128257142Y-54547619D02*
X128828571Y-54547619D01*
X128542857Y-54547619D02*
X128542857Y-55547619D01*
X128638095Y-55404761D01*
X128733333Y-55309523D01*
X128828571Y-55261904D01*
X174856666Y-57013580D02*
X174856666Y-57727866D01*
X174809047Y-57870723D01*
X174713809Y-57965961D01*
X174570952Y-58013580D01*
X174475714Y-58013580D01*
X175856666Y-58013580D02*
X175285238Y-58013580D01*
X175570952Y-58013580D02*
X175570952Y-57013580D01*
X175475714Y-57156438D01*
X175380476Y-57251676D01*
X175285238Y-57299295D01*
X132956666Y-138552380D02*
X132956666Y-139266666D01*
X132909047Y-139409523D01*
X132813809Y-139504761D01*
X132670952Y-139552380D01*
X132575714Y-139552380D01*
X133432857Y-139552380D02*
X133432857Y-138552380D01*
X133813809Y-138552380D01*
X133909047Y-138600000D01*
X133956666Y-138647619D01*
X134004285Y-138742857D01*
X134004285Y-138885714D01*
X133956666Y-138980952D01*
X133909047Y-139028571D01*
X133813809Y-139076190D01*
X133432857Y-139076190D01*
X134956666Y-139552380D02*
X134385238Y-139552380D01*
X134670952Y-139552380D02*
X134670952Y-138552380D01*
X134575714Y-138695238D01*
X134480476Y-138790476D01*
X134385238Y-138838095D01*
X107338095Y-122452380D02*
X107338095Y-123261904D01*
X107385714Y-123357142D01*
X107433333Y-123404761D01*
X107528571Y-123452380D01*
X107719047Y-123452380D01*
X107814285Y-123404761D01*
X107861904Y-123357142D01*
X107909523Y-123261904D01*
X107909523Y-122452380D01*
X108814285Y-122785714D02*
X108814285Y-123452380D01*
X108576190Y-122404761D02*
X108338095Y-123119047D01*
X108957142Y-123119047D01*
X107338095Y-118352380D02*
X107338095Y-119161904D01*
X107385714Y-119257142D01*
X107433333Y-119304761D01*
X107528571Y-119352380D01*
X107719047Y-119352380D01*
X107814285Y-119304761D01*
X107861904Y-119257142D01*
X107909523Y-119161904D01*
X107909523Y-118352380D01*
X108861904Y-118352380D02*
X108385714Y-118352380D01*
X108338095Y-118828571D01*
X108385714Y-118780952D01*
X108480952Y-118733333D01*
X108719047Y-118733333D01*
X108814285Y-118780952D01*
X108861904Y-118828571D01*
X108909523Y-118923809D01*
X108909523Y-119161904D01*
X108861904Y-119257142D01*
X108814285Y-119304761D01*
X108719047Y-119352380D01*
X108480952Y-119352380D01*
X108385714Y-119304761D01*
X108338095Y-119257142D01*
X130038095Y-126352380D02*
X130038095Y-127161904D01*
X130085714Y-127257142D01*
X130133333Y-127304761D01*
X130228571Y-127352380D01*
X130419047Y-127352380D01*
X130514285Y-127304761D01*
X130561904Y-127257142D01*
X130609523Y-127161904D01*
X130609523Y-126352380D01*
X131228571Y-126780952D02*
X131133333Y-126733333D01*
X131085714Y-126685714D01*
X131038095Y-126590476D01*
X131038095Y-126542857D01*
X131085714Y-126447619D01*
X131133333Y-126400000D01*
X131228571Y-126352380D01*
X131419047Y-126352380D01*
X131514285Y-126400000D01*
X131561904Y-126447619D01*
X131609523Y-126542857D01*
X131609523Y-126590476D01*
X131561904Y-126685714D01*
X131514285Y-126733333D01*
X131419047Y-126780952D01*
X131228571Y-126780952D01*
X131133333Y-126828571D01*
X131085714Y-126876190D01*
X131038095Y-126971428D01*
X131038095Y-127161904D01*
X131085714Y-127257142D01*
X131133333Y-127304761D01*
X131228571Y-127352380D01*
X131419047Y-127352380D01*
X131514285Y-127304761D01*
X131561904Y-127257142D01*
X131609523Y-127161904D01*
X131609523Y-126971428D01*
X131561904Y-126876190D01*
X131514285Y-126828571D01*
X131419047Y-126780952D01*
X121661904Y-84352380D02*
X121661904Y-85161904D01*
X121709523Y-85257142D01*
X121757142Y-85304761D01*
X121852380Y-85352380D01*
X122042857Y-85352380D01*
X122138095Y-85304761D01*
X122185714Y-85257142D01*
X122233333Y-85161904D01*
X122233333Y-84352380D01*
X123233333Y-85352380D02*
X122661904Y-85352380D01*
X122947619Y-85352380D02*
X122947619Y-84352380D01*
X122852380Y-84495238D01*
X122757142Y-84590476D01*
X122661904Y-84638095D01*
X124090476Y-84352380D02*
X123900000Y-84352380D01*
X123804761Y-84400000D01*
X123757142Y-84447619D01*
X123661904Y-84590476D01*
X123614285Y-84780952D01*
X123614285Y-85161904D01*
X123661904Y-85257142D01*
X123709523Y-85304761D01*
X123804761Y-85352380D01*
X123995238Y-85352380D01*
X124090476Y-85304761D01*
X124138095Y-85257142D01*
X124185714Y-85161904D01*
X124185714Y-84923809D01*
X124138095Y-84828571D01*
X124090476Y-84780952D01*
X123995238Y-84733333D01*
X123804761Y-84733333D01*
X123709523Y-84780952D01*
X123661904Y-84828571D01*
X123614285Y-84923809D01*
X130170476Y-102352380D02*
X130170476Y-103066666D01*
X130122857Y-103209523D01*
X130027619Y-103304761D01*
X129884761Y-103352380D01*
X129789523Y-103352380D01*
X131170476Y-103352380D02*
X130599047Y-103352380D01*
X130884761Y-103352380D02*
X130884761Y-102352380D01*
X130789523Y-102495238D01*
X130694285Y-102590476D01*
X130599047Y-102638095D01*
X131741904Y-102780952D02*
X131646666Y-102733333D01*
X131599047Y-102685714D01*
X131551428Y-102590476D01*
X131551428Y-102542857D01*
X131599047Y-102447619D01*
X131646666Y-102400000D01*
X131741904Y-102352380D01*
X131932380Y-102352380D01*
X132027619Y-102400000D01*
X132075238Y-102447619D01*
X132122857Y-102542857D01*
X132122857Y-102590476D01*
X132075238Y-102685714D01*
X132027619Y-102733333D01*
X131932380Y-102780952D01*
X131741904Y-102780952D01*
X131646666Y-102828571D01*
X131599047Y-102876190D01*
X131551428Y-102971428D01*
X131551428Y-103161904D01*
X131599047Y-103257142D01*
X131646666Y-103304761D01*
X131741904Y-103352380D01*
X131932380Y-103352380D01*
X132027619Y-103304761D01*
X132075238Y-103257142D01*
X132122857Y-103161904D01*
X132122857Y-102971428D01*
X132075238Y-102876190D01*
X132027619Y-102828571D01*
X131932380Y-102780952D01*
D10*
X107590476Y-100052380D02*
X107590476Y-100766666D01*
X107542857Y-100909523D01*
X107447619Y-101004761D01*
X107304761Y-101052380D01*
X107209523Y-101052380D01*
X108590476Y-101052380D02*
X108019047Y-101052380D01*
X108304761Y-101052380D02*
X108304761Y-100052380D01*
X108209523Y-100195238D01*
X108114285Y-100290476D01*
X108019047Y-100338095D01*
X109542857Y-101052380D02*
X108971428Y-101052380D01*
X109257142Y-101052380D02*
X109257142Y-100052380D01*
X109161904Y-100195238D01*
X109066666Y-100290476D01*
X108971428Y-100338095D01*
X107490476Y-103952380D02*
X107490476Y-104666666D01*
X107442857Y-104809523D01*
X107347619Y-104904761D01*
X107204761Y-104952380D01*
X107109523Y-104952380D01*
X108490476Y-104952380D02*
X107919047Y-104952380D01*
X108204761Y-104952380D02*
X108204761Y-103952380D01*
X108109523Y-104095238D01*
X108014285Y-104190476D01*
X107919047Y-104238095D01*
X108871428Y-104047619D02*
X108919047Y-104000000D01*
X109014285Y-103952380D01*
X109252380Y-103952380D01*
X109347619Y-104000000D01*
X109395238Y-104047619D01*
X109442857Y-104142857D01*
X109442857Y-104238095D01*
X109395238Y-104380952D01*
X108823809Y-104952380D01*
X109442857Y-104952380D01*
X115490476Y-106452380D02*
X115490476Y-107166666D01*
X115442857Y-107309523D01*
X115347619Y-107404761D01*
X115204761Y-107452380D01*
X115109523Y-107452380D01*
X116490476Y-107452380D02*
X115919047Y-107452380D01*
X116204761Y-107452380D02*
X116204761Y-106452380D01*
X116109523Y-106595238D01*
X116014285Y-106690476D01*
X115919047Y-106738095D01*
X116823809Y-106452380D02*
X117442857Y-106452380D01*
X117109523Y-106833333D01*
X117252380Y-106833333D01*
X117347619Y-106880952D01*
X117395238Y-106928571D01*
X117442857Y-107023809D01*
X117442857Y-107261904D01*
X117395238Y-107357142D01*
X117347619Y-107404761D01*
X117252380Y-107452380D01*
X116966666Y-107452380D01*
X116871428Y-107404761D01*
X116823809Y-107357142D01*
X138761904Y-132452380D02*
X138761904Y-133261904D01*
X138809523Y-133357142D01*
X138857142Y-133404761D01*
X138952380Y-133452380D01*
X139142857Y-133452380D01*
X139238095Y-133404761D01*
X139285714Y-133357142D01*
X139333333Y-133261904D01*
X139333333Y-132452380D01*
X140333333Y-133452380D02*
X139761904Y-133452380D01*
X140047619Y-133452380D02*
X140047619Y-132452380D01*
X139952380Y-132595238D01*
X139857142Y-132690476D01*
X139761904Y-132738095D01*
X140666666Y-132452380D02*
X141333333Y-132452380D01*
X140904761Y-133452380D01*
D12*
X138152380Y-135000000D02*
X138390476Y-135000000D01*
X138295238Y-135238095D02*
X138390476Y-135000000D01*
X138295238Y-134761904D01*
X138580952Y-135142857D02*
X138390476Y-135000000D01*
X138580952Y-134857142D01*
X138152380Y-135000000D02*
X138390476Y-135000000D01*
X138295238Y-135238095D02*
X138390476Y-135000000D01*
X138295238Y-134761904D01*
X138580952Y-135142857D02*
X138390476Y-135000000D01*
X138580952Y-134857142D01*
X110657142Y-83157142D02*
X110609523Y-83204761D01*
X110466666Y-83252380D01*
X110371428Y-83252380D01*
X110228571Y-83204761D01*
X110133333Y-83109523D01*
X110085714Y-83014285D01*
X110038095Y-82823809D01*
X110038095Y-82680952D01*
X110085714Y-82490476D01*
X110133333Y-82395238D01*
X110228571Y-82300000D01*
X110371428Y-82252380D01*
X110466666Y-82252380D01*
X110609523Y-82300000D01*
X110657142Y-82347619D01*
X111038095Y-82347619D02*
X111085714Y-82300000D01*
X111180952Y-82252380D01*
X111419047Y-82252380D01*
X111514285Y-82300000D01*
X111561904Y-82347619D01*
X111609523Y-82442857D01*
X111609523Y-82538095D01*
X111561904Y-82680952D01*
X110990476Y-83252380D01*
X111609523Y-83252380D01*
X112466666Y-82252380D02*
X112276190Y-82252380D01*
X112180952Y-82300000D01*
X112133333Y-82347619D01*
X112038095Y-82490476D01*
X111990476Y-82680952D01*
X111990476Y-83061904D01*
X112038095Y-83157142D01*
X112085714Y-83204761D01*
X112180952Y-83252380D01*
X112371428Y-83252380D01*
X112466666Y-83204761D01*
X112514285Y-83157142D01*
X112561904Y-83061904D01*
X112561904Y-82823809D01*
X112514285Y-82728571D01*
X112466666Y-82680952D01*
X112371428Y-82633333D01*
X112180952Y-82633333D01*
X112085714Y-82680952D01*
X112038095Y-82728571D01*
X111990476Y-82823809D01*
X111992380Y-78450000D02*
X112230476Y-78450000D01*
X112135238Y-78688095D02*
X112230476Y-78450000D01*
X112135238Y-78211904D01*
X112420952Y-78592857D02*
X112230476Y-78450000D01*
X112420952Y-78307142D01*
X109941428Y-80900952D02*
X109941428Y-80139047D01*
X110322380Y-80520000D02*
X109560476Y-80520000D01*
D10*
X124933333Y-135957142D02*
X124885714Y-136004761D01*
X124742857Y-136052380D01*
X124647619Y-136052380D01*
X124504761Y-136004761D01*
X124409523Y-135909523D01*
X124361904Y-135814285D01*
X124314285Y-135623809D01*
X124314285Y-135480952D01*
X124361904Y-135290476D01*
X124409523Y-135195238D01*
X124504761Y-135100000D01*
X124647619Y-135052380D01*
X124742857Y-135052380D01*
X124885714Y-135100000D01*
X124933333Y-135147619D01*
X125266666Y-135052380D02*
X125885714Y-135052380D01*
X125552380Y-135433333D01*
X125695238Y-135433333D01*
X125790476Y-135480952D01*
X125838095Y-135528571D01*
X125885714Y-135623809D01*
X125885714Y-135861904D01*
X125838095Y-135957142D01*
X125790476Y-136004761D01*
X125695238Y-136052380D01*
X125409523Y-136052380D01*
X125314285Y-136004761D01*
X125266666Y-135957142D01*
X121833333Y-136157142D02*
X121785714Y-136204761D01*
X121642857Y-136252380D01*
X121547619Y-136252380D01*
X121404761Y-136204761D01*
X121309523Y-136109523D01*
X121261904Y-136014285D01*
X121214285Y-135823809D01*
X121214285Y-135680952D01*
X121261904Y-135490476D01*
X121309523Y-135395238D01*
X121404761Y-135300000D01*
X121547619Y-135252380D01*
X121642857Y-135252380D01*
X121785714Y-135300000D01*
X121833333Y-135347619D01*
X122690476Y-135585714D02*
X122690476Y-136252380D01*
X122452380Y-135204761D02*
X122214285Y-135919047D01*
X122833333Y-135919047D01*
X108533333Y-107057142D02*
X108485714Y-107104761D01*
X108342857Y-107152380D01*
X108247619Y-107152380D01*
X108104761Y-107104761D01*
X108009523Y-107009523D01*
X107961904Y-106914285D01*
X107914285Y-106723809D01*
X107914285Y-106580952D01*
X107961904Y-106390476D01*
X108009523Y-106295238D01*
X108104761Y-106200000D01*
X108247619Y-106152380D01*
X108342857Y-106152380D01*
X108485714Y-106200000D01*
X108533333Y-106247619D01*
X109390476Y-106152380D02*
X109200000Y-106152380D01*
X109104761Y-106200000D01*
X109057142Y-106247619D01*
X108961904Y-106390476D01*
X108914285Y-106580952D01*
X108914285Y-106961904D01*
X108961904Y-107057142D01*
X109009523Y-107104761D01*
X109104761Y-107152380D01*
X109295238Y-107152380D01*
X109390476Y-107104761D01*
X109438095Y-107057142D01*
X109485714Y-106961904D01*
X109485714Y-106723809D01*
X109438095Y-106628571D01*
X109390476Y-106580952D01*
X109295238Y-106533333D01*
X109104761Y-106533333D01*
X109009523Y-106580952D01*
X108961904Y-106628571D01*
X108914285Y-106723809D01*
X108433333Y-115857142D02*
X108385714Y-115904761D01*
X108242857Y-115952380D01*
X108147619Y-115952380D01*
X108004761Y-115904761D01*
X107909523Y-115809523D01*
X107861904Y-115714285D01*
X107814285Y-115523809D01*
X107814285Y-115380952D01*
X107861904Y-115190476D01*
X107909523Y-115095238D01*
X108004761Y-115000000D01*
X108147619Y-114952380D01*
X108242857Y-114952380D01*
X108385714Y-115000000D01*
X108433333Y-115047619D01*
X109004761Y-115380952D02*
X108909523Y-115333333D01*
X108861904Y-115285714D01*
X108814285Y-115190476D01*
X108814285Y-115142857D01*
X108861904Y-115047619D01*
X108909523Y-115000000D01*
X109004761Y-114952380D01*
X109195238Y-114952380D01*
X109290476Y-115000000D01*
X109338095Y-115047619D01*
X109385714Y-115142857D01*
X109385714Y-115190476D01*
X109338095Y-115285714D01*
X109290476Y-115333333D01*
X109195238Y-115380952D01*
X109004761Y-115380952D01*
X108909523Y-115428571D01*
X108861904Y-115476190D01*
X108814285Y-115571428D01*
X108814285Y-115761904D01*
X108861904Y-115857142D01*
X108909523Y-115904761D01*
X109004761Y-115952380D01*
X109195238Y-115952380D01*
X109290476Y-115904761D01*
X109338095Y-115857142D01*
X109385714Y-115761904D01*
X109385714Y-115571428D01*
X109338095Y-115476190D01*
X109290476Y-115428571D01*
X109195238Y-115380952D01*
D12*
X146257142Y-124557142D02*
X146209523Y-124604761D01*
X146066666Y-124652380D01*
X145971428Y-124652380D01*
X145828571Y-124604761D01*
X145733333Y-124509523D01*
X145685714Y-124414285D01*
X145638095Y-124223809D01*
X145638095Y-124080952D01*
X145685714Y-123890476D01*
X145733333Y-123795238D01*
X145828571Y-123700000D01*
X145971428Y-123652380D01*
X146066666Y-123652380D01*
X146209523Y-123700000D01*
X146257142Y-123747619D01*
X147209523Y-124652380D02*
X146638095Y-124652380D01*
X146923809Y-124652380D02*
X146923809Y-123652380D01*
X146828571Y-123795238D01*
X146733333Y-123890476D01*
X146638095Y-123938095D01*
X147828571Y-123652380D02*
X147923809Y-123652380D01*
X148019047Y-123700000D01*
X148066666Y-123747619D01*
X148114285Y-123842857D01*
X148161904Y-124033333D01*
X148161904Y-124271428D01*
X148114285Y-124461904D01*
X148066666Y-124557142D01*
X148019047Y-124604761D01*
X147923809Y-124652380D01*
X147828571Y-124652380D01*
X147733333Y-124604761D01*
X147685714Y-124557142D01*
X147638095Y-124461904D01*
X147590476Y-124271428D01*
X147590476Y-124033333D01*
X147638095Y-123842857D01*
X147685714Y-123747619D01*
X147733333Y-123700000D01*
X147828571Y-123652380D01*
X147157142Y-110357142D02*
X147109523Y-110404761D01*
X146966666Y-110452380D01*
X146871428Y-110452380D01*
X146728571Y-110404761D01*
X146633333Y-110309523D01*
X146585714Y-110214285D01*
X146538095Y-110023809D01*
X146538095Y-109880952D01*
X146585714Y-109690476D01*
X146633333Y-109595238D01*
X146728571Y-109500000D01*
X146871428Y-109452380D01*
X146966666Y-109452380D01*
X147109523Y-109500000D01*
X147157142Y-109547619D01*
X148109523Y-110452380D02*
X147538095Y-110452380D01*
X147823809Y-110452380D02*
X147823809Y-109452380D01*
X147728571Y-109595238D01*
X147633333Y-109690476D01*
X147538095Y-109738095D01*
X149061904Y-110452380D02*
X148490476Y-110452380D01*
X148776190Y-110452380D02*
X148776190Y-109452380D01*
X148680952Y-109595238D01*
X148585714Y-109690476D01*
X148490476Y-109738095D01*
X146857142Y-129457142D02*
X146809523Y-129504761D01*
X146666666Y-129552380D01*
X146571428Y-129552380D01*
X146428571Y-129504761D01*
X146333333Y-129409523D01*
X146285714Y-129314285D01*
X146238095Y-129123809D01*
X146238095Y-128980952D01*
X146285714Y-128790476D01*
X146333333Y-128695238D01*
X146428571Y-128600000D01*
X146571428Y-128552380D01*
X146666666Y-128552380D01*
X146809523Y-128600000D01*
X146857142Y-128647619D01*
X147238095Y-128647619D02*
X147285714Y-128600000D01*
X147380952Y-128552380D01*
X147619047Y-128552380D01*
X147714285Y-128600000D01*
X147761904Y-128647619D01*
X147809523Y-128742857D01*
X147809523Y-128838095D01*
X147761904Y-128980952D01*
X147190476Y-129552380D01*
X147809523Y-129552380D01*
X148142857Y-128552380D02*
X148809523Y-128552380D01*
X148380952Y-129552380D01*
X116257142Y-80757142D02*
X116209523Y-80804761D01*
X116066666Y-80852380D01*
X115971428Y-80852380D01*
X115828571Y-80804761D01*
X115733333Y-80709523D01*
X115685714Y-80614285D01*
X115638095Y-80423809D01*
X115638095Y-80280952D01*
X115685714Y-80090476D01*
X115733333Y-79995238D01*
X115828571Y-79900000D01*
X115971428Y-79852380D01*
X116066666Y-79852380D01*
X116209523Y-79900000D01*
X116257142Y-79947619D01*
X116638095Y-79947619D02*
X116685714Y-79900000D01*
X116780952Y-79852380D01*
X117019047Y-79852380D01*
X117114285Y-79900000D01*
X117161904Y-79947619D01*
X117209523Y-80042857D01*
X117209523Y-80138095D01*
X117161904Y-80280952D01*
X116590476Y-80852380D01*
X117209523Y-80852380D01*
X117780952Y-80280952D02*
X117685714Y-80233333D01*
X117638095Y-80185714D01*
X117590476Y-80090476D01*
X117590476Y-80042857D01*
X117638095Y-79947619D01*
X117685714Y-79900000D01*
X117780952Y-79852380D01*
X117971428Y-79852380D01*
X118066666Y-79900000D01*
X118114285Y-79947619D01*
X118161904Y-80042857D01*
X118161904Y-80090476D01*
X118114285Y-80185714D01*
X118066666Y-80233333D01*
X117971428Y-80280952D01*
X117780952Y-80280952D01*
X117685714Y-80328571D01*
X117638095Y-80376190D01*
X117590476Y-80471428D01*
X117590476Y-80661904D01*
X117638095Y-80757142D01*
X117685714Y-80804761D01*
X117780952Y-80852380D01*
X117971428Y-80852380D01*
X118066666Y-80804761D01*
X118114285Y-80757142D01*
X118161904Y-80661904D01*
X118161904Y-80471428D01*
X118114285Y-80376190D01*
X118066666Y-80328571D01*
X117971428Y-80280952D01*
D10*
X146457142Y-131057142D02*
X146409523Y-131104761D01*
X146266666Y-131152380D01*
X146171428Y-131152380D01*
X146028571Y-131104761D01*
X145933333Y-131009523D01*
X145885714Y-130914285D01*
X145838095Y-130723809D01*
X145838095Y-130580952D01*
X145885714Y-130390476D01*
X145933333Y-130295238D01*
X146028571Y-130200000D01*
X146171428Y-130152380D01*
X146266666Y-130152380D01*
X146409523Y-130200000D01*
X146457142Y-130247619D01*
X146838095Y-130247619D02*
X146885714Y-130200000D01*
X146980952Y-130152380D01*
X147219047Y-130152380D01*
X147314285Y-130200000D01*
X147361904Y-130247619D01*
X147409523Y-130342857D01*
X147409523Y-130438095D01*
X147361904Y-130580952D01*
X146790476Y-131152380D01*
X147409523Y-131152380D01*
X147885714Y-131152380D02*
X148076190Y-131152380D01*
X148171428Y-131104761D01*
X148219047Y-131057142D01*
X148314285Y-130914285D01*
X148361904Y-130723809D01*
X148361904Y-130342857D01*
X148314285Y-130247619D01*
X148266666Y-130200000D01*
X148171428Y-130152380D01*
X147980952Y-130152380D01*
X147885714Y-130200000D01*
X147838095Y-130247619D01*
X147790476Y-130342857D01*
X147790476Y-130580952D01*
X147838095Y-130676190D01*
X147885714Y-130723809D01*
X147980952Y-130771428D01*
X148171428Y-130771428D01*
X148266666Y-130723809D01*
X148314285Y-130676190D01*
X148361904Y-130580952D01*
D12*
X113167142Y-77057142D02*
X113119523Y-77104761D01*
X112976666Y-77152380D01*
X112881428Y-77152380D01*
X112738571Y-77104761D01*
X112643333Y-77009523D01*
X112595714Y-76914285D01*
X112548095Y-76723809D01*
X112548095Y-76580952D01*
X112595714Y-76390476D01*
X112643333Y-76295238D01*
X112738571Y-76200000D01*
X112881428Y-76152380D01*
X112976666Y-76152380D01*
X113119523Y-76200000D01*
X113167142Y-76247619D01*
X113500476Y-76152380D02*
X114119523Y-76152380D01*
X113786190Y-76533333D01*
X113929047Y-76533333D01*
X114024285Y-76580952D01*
X114071904Y-76628571D01*
X114119523Y-76723809D01*
X114119523Y-76961904D01*
X114071904Y-77057142D01*
X114024285Y-77104761D01*
X113929047Y-77152380D01*
X113643333Y-77152380D01*
X113548095Y-77104761D01*
X113500476Y-77057142D01*
X114738571Y-76152380D02*
X114833809Y-76152380D01*
X114929047Y-76200000D01*
X114976666Y-76247619D01*
X115024285Y-76342857D01*
X115071904Y-76533333D01*
X115071904Y-76771428D01*
X115024285Y-76961904D01*
X114976666Y-77057142D01*
X114929047Y-77104761D01*
X114833809Y-77152380D01*
X114738571Y-77152380D01*
X114643333Y-77104761D01*
X114595714Y-77057142D01*
X114548095Y-76961904D01*
X114500476Y-76771428D01*
X114500476Y-76533333D01*
X114548095Y-76342857D01*
X114595714Y-76247619D01*
X114643333Y-76200000D01*
X114738571Y-76152380D01*
D10*
X146357142Y-132557142D02*
X146309523Y-132604761D01*
X146166666Y-132652380D01*
X146071428Y-132652380D01*
X145928571Y-132604761D01*
X145833333Y-132509523D01*
X145785714Y-132414285D01*
X145738095Y-132223809D01*
X145738095Y-132080952D01*
X145785714Y-131890476D01*
X145833333Y-131795238D01*
X145928571Y-131700000D01*
X146071428Y-131652380D01*
X146166666Y-131652380D01*
X146309523Y-131700000D01*
X146357142Y-131747619D01*
X146690476Y-131652380D02*
X147309523Y-131652380D01*
X146976190Y-132033333D01*
X147119047Y-132033333D01*
X147214285Y-132080952D01*
X147261904Y-132128571D01*
X147309523Y-132223809D01*
X147309523Y-132461904D01*
X147261904Y-132557142D01*
X147214285Y-132604761D01*
X147119047Y-132652380D01*
X146833333Y-132652380D01*
X146738095Y-132604761D01*
X146690476Y-132557142D01*
X148261904Y-132652380D02*
X147690476Y-132652380D01*
X147976190Y-132652380D02*
X147976190Y-131652380D01*
X147880952Y-131795238D01*
X147785714Y-131890476D01*
X147690476Y-131938095D01*
D12*
X116257142Y-85657142D02*
X116209523Y-85704761D01*
X116066666Y-85752380D01*
X115971428Y-85752380D01*
X115828571Y-85704761D01*
X115733333Y-85609523D01*
X115685714Y-85514285D01*
X115638095Y-85323809D01*
X115638095Y-85180952D01*
X115685714Y-84990476D01*
X115733333Y-84895238D01*
X115828571Y-84800000D01*
X115971428Y-84752380D01*
X116066666Y-84752380D01*
X116209523Y-84800000D01*
X116257142Y-84847619D01*
X116590476Y-84752380D02*
X117209523Y-84752380D01*
X116876190Y-85133333D01*
X117019047Y-85133333D01*
X117114285Y-85180952D01*
X117161904Y-85228571D01*
X117209523Y-85323809D01*
X117209523Y-85561904D01*
X117161904Y-85657142D01*
X117114285Y-85704761D01*
X117019047Y-85752380D01*
X116733333Y-85752380D01*
X116638095Y-85704761D01*
X116590476Y-85657142D01*
X117590476Y-84847619D02*
X117638095Y-84800000D01*
X117733333Y-84752380D01*
X117971428Y-84752380D01*
X118066666Y-84800000D01*
X118114285Y-84847619D01*
X118161904Y-84942857D01*
X118161904Y-85038095D01*
X118114285Y-85180952D01*
X117542857Y-85752380D01*
X118161904Y-85752380D01*
X113157142Y-89157142D02*
X113109523Y-89204761D01*
X112966666Y-89252380D01*
X112871428Y-89252380D01*
X112728571Y-89204761D01*
X112633333Y-89109523D01*
X112585714Y-89014285D01*
X112538095Y-88823809D01*
X112538095Y-88680952D01*
X112585714Y-88490476D01*
X112633333Y-88395238D01*
X112728571Y-88300000D01*
X112871428Y-88252380D01*
X112966666Y-88252380D01*
X113109523Y-88300000D01*
X113157142Y-88347619D01*
X113490476Y-88252380D02*
X114109523Y-88252380D01*
X113776190Y-88633333D01*
X113919047Y-88633333D01*
X114014285Y-88680952D01*
X114061904Y-88728571D01*
X114109523Y-88823809D01*
X114109523Y-89061904D01*
X114061904Y-89157142D01*
X114014285Y-89204761D01*
X113919047Y-89252380D01*
X113633333Y-89252380D01*
X113538095Y-89204761D01*
X113490476Y-89157142D01*
X114442857Y-88252380D02*
X115061904Y-88252380D01*
X114728571Y-88633333D01*
X114871428Y-88633333D01*
X114966666Y-88680952D01*
X115014285Y-88728571D01*
X115061904Y-88823809D01*
X115061904Y-89061904D01*
X115014285Y-89157142D01*
X114966666Y-89204761D01*
X114871428Y-89252380D01*
X114585714Y-89252380D01*
X114490476Y-89204761D01*
X114442857Y-89157142D01*
D10*
X146457142Y-134557142D02*
X146409523Y-134604761D01*
X146266666Y-134652380D01*
X146171428Y-134652380D01*
X146028571Y-134604761D01*
X145933333Y-134509523D01*
X145885714Y-134414285D01*
X145838095Y-134223809D01*
X145838095Y-134080952D01*
X145885714Y-133890476D01*
X145933333Y-133795238D01*
X146028571Y-133700000D01*
X146171428Y-133652380D01*
X146266666Y-133652380D01*
X146409523Y-133700000D01*
X146457142Y-133747619D01*
X146790476Y-133652380D02*
X147409523Y-133652380D01*
X147076190Y-134033333D01*
X147219047Y-134033333D01*
X147314285Y-134080952D01*
X147361904Y-134128571D01*
X147409523Y-134223809D01*
X147409523Y-134461904D01*
X147361904Y-134557142D01*
X147314285Y-134604761D01*
X147219047Y-134652380D01*
X146933333Y-134652380D01*
X146838095Y-134604761D01*
X146790476Y-134557142D01*
X148266666Y-133985714D02*
X148266666Y-134652380D01*
X148028571Y-133604761D02*
X147790476Y-134319047D01*
X148409523Y-134319047D01*
D12*
X128952380Y-73566666D02*
X128476190Y-73900000D01*
X128952380Y-74138095D02*
X127952380Y-74138095D01*
X127952380Y-73757142D01*
X128000000Y-73661904D01*
X128047619Y-73614285D01*
X128142857Y-73566666D01*
X128285714Y-73566666D01*
X128380952Y-73614285D01*
X128428571Y-73661904D01*
X128476190Y-73757142D01*
X128476190Y-74138095D01*
X128952380Y-72614285D02*
X128952380Y-73185714D01*
X128952380Y-72900000D02*
X127952380Y-72900000D01*
X128095238Y-72995238D01*
X128190476Y-73090476D01*
X128238095Y-73185714D01*
X130752380Y-73666666D02*
X130276190Y-74000000D01*
X130752380Y-74238095D02*
X129752380Y-74238095D01*
X129752380Y-73857142D01*
X129800000Y-73761904D01*
X129847619Y-73714285D01*
X129942857Y-73666666D01*
X130085714Y-73666666D01*
X130180952Y-73714285D01*
X130228571Y-73761904D01*
X130276190Y-73857142D01*
X130276190Y-74238095D01*
X129847619Y-73285714D02*
X129800000Y-73238095D01*
X129752380Y-73142857D01*
X129752380Y-72904761D01*
X129800000Y-72809523D01*
X129847619Y-72761904D01*
X129942857Y-72714285D01*
X130038095Y-72714285D01*
X130180952Y-72761904D01*
X130752380Y-73333333D01*
X130752380Y-72714285D01*
X128956380Y-65066666D02*
X128480190Y-65400000D01*
X128956380Y-65638095D02*
X127956380Y-65638095D01*
X127956380Y-65257142D01*
X128004000Y-65161904D01*
X128051619Y-65114285D01*
X128146857Y-65066666D01*
X128289714Y-65066666D01*
X128384952Y-65114285D01*
X128432571Y-65161904D01*
X128480190Y-65257142D01*
X128480190Y-65638095D01*
X127956380Y-64733333D02*
X127956380Y-64114285D01*
X128337333Y-64447619D01*
X128337333Y-64304761D01*
X128384952Y-64209523D01*
X128432571Y-64161904D01*
X128527809Y-64114285D01*
X128765904Y-64114285D01*
X128861142Y-64161904D01*
X128908761Y-64209523D01*
X128956380Y-64304761D01*
X128956380Y-64590476D01*
X128908761Y-64685714D01*
X128861142Y-64733333D01*
X130742380Y-65066666D02*
X130266190Y-65400000D01*
X130742380Y-65638095D02*
X129742380Y-65638095D01*
X129742380Y-65257142D01*
X129790000Y-65161904D01*
X129837619Y-65114285D01*
X129932857Y-65066666D01*
X130075714Y-65066666D01*
X130170952Y-65114285D01*
X130218571Y-65161904D01*
X130266190Y-65257142D01*
X130266190Y-65638095D01*
X130075714Y-64209523D02*
X130742380Y-64209523D01*
X129694761Y-64447619D02*
X130409047Y-64685714D01*
X130409047Y-64066666D01*
X127190380Y-65066666D02*
X126714190Y-65400000D01*
X127190380Y-65638095D02*
X126190380Y-65638095D01*
X126190380Y-65257142D01*
X126238000Y-65161904D01*
X126285619Y-65114285D01*
X126380857Y-65066666D01*
X126523714Y-65066666D01*
X126618952Y-65114285D01*
X126666571Y-65161904D01*
X126714190Y-65257142D01*
X126714190Y-65638095D01*
X126190380Y-64161904D02*
X126190380Y-64638095D01*
X126666571Y-64685714D01*
X126618952Y-64638095D01*
X126571333Y-64542857D01*
X126571333Y-64304761D01*
X126618952Y-64209523D01*
X126666571Y-64161904D01*
X126761809Y-64114285D01*
X126999904Y-64114285D01*
X127095142Y-64161904D01*
X127142761Y-64209523D01*
X127190380Y-64304761D01*
X127190380Y-64542857D01*
X127142761Y-64638095D01*
X127095142Y-64685714D01*
X134352380Y-73666666D02*
X133876190Y-74000000D01*
X134352380Y-74238095D02*
X133352380Y-74238095D01*
X133352380Y-73857142D01*
X133400000Y-73761904D01*
X133447619Y-73714285D01*
X133542857Y-73666666D01*
X133685714Y-73666666D01*
X133780952Y-73714285D01*
X133828571Y-73761904D01*
X133876190Y-73857142D01*
X133876190Y-74238095D01*
X133352380Y-72809523D02*
X133352380Y-73000000D01*
X133400000Y-73095238D01*
X133447619Y-73142857D01*
X133590476Y-73238095D01*
X133780952Y-73285714D01*
X134161904Y-73285714D01*
X134257142Y-73238095D01*
X134304761Y-73190476D01*
X134352380Y-73095238D01*
X134352380Y-72904761D01*
X134304761Y-72809523D01*
X134257142Y-72761904D01*
X134161904Y-72714285D01*
X133923809Y-72714285D01*
X133828571Y-72761904D01*
X133780952Y-72809523D01*
X133733333Y-72904761D01*
X133733333Y-73095238D01*
X133780952Y-73190476D01*
X133828571Y-73238095D01*
X133923809Y-73285714D01*
X132524380Y-73666666D02*
X132048190Y-74000000D01*
X132524380Y-74238095D02*
X131524380Y-74238095D01*
X131524380Y-73857142D01*
X131572000Y-73761904D01*
X131619619Y-73714285D01*
X131714857Y-73666666D01*
X131857714Y-73666666D01*
X131952952Y-73714285D01*
X132000571Y-73761904D01*
X132048190Y-73857142D01*
X132048190Y-74238095D01*
X131524380Y-73333333D02*
X131524380Y-72666666D01*
X132524380Y-73095238D01*
X134294380Y-65066666D02*
X133818190Y-65400000D01*
X134294380Y-65638095D02*
X133294380Y-65638095D01*
X133294380Y-65257142D01*
X133342000Y-65161904D01*
X133389619Y-65114285D01*
X133484857Y-65066666D01*
X133627714Y-65066666D01*
X133722952Y-65114285D01*
X133770571Y-65161904D01*
X133818190Y-65257142D01*
X133818190Y-65638095D01*
X133722952Y-64495238D02*
X133675333Y-64590476D01*
X133627714Y-64638095D01*
X133532476Y-64685714D01*
X133484857Y-64685714D01*
X133389619Y-64638095D01*
X133342000Y-64590476D01*
X133294380Y-64495238D01*
X133294380Y-64304761D01*
X133342000Y-64209523D01*
X133389619Y-64161904D01*
X133484857Y-64114285D01*
X133532476Y-64114285D01*
X133627714Y-64161904D01*
X133675333Y-64209523D01*
X133722952Y-64304761D01*
X133722952Y-64495238D01*
X133770571Y-64590476D01*
X133818190Y-64638095D01*
X133913428Y-64685714D01*
X134103904Y-64685714D01*
X134199142Y-64638095D01*
X134246761Y-64590476D01*
X134294380Y-64495238D01*
X134294380Y-64304761D01*
X134246761Y-64209523D01*
X134199142Y-64161904D01*
X134103904Y-64114285D01*
X133913428Y-64114285D01*
X133818190Y-64161904D01*
X133770571Y-64209523D01*
X133722952Y-64304761D01*
X132528380Y-65066666D02*
X132052190Y-65400000D01*
X132528380Y-65638095D02*
X131528380Y-65638095D01*
X131528380Y-65257142D01*
X131576000Y-65161904D01*
X131623619Y-65114285D01*
X131718857Y-65066666D01*
X131861714Y-65066666D01*
X131956952Y-65114285D01*
X132004571Y-65161904D01*
X132052190Y-65257142D01*
X132052190Y-65638095D01*
X132528380Y-64590476D02*
X132528380Y-64400000D01*
X132480761Y-64304761D01*
X132433142Y-64257142D01*
X132290285Y-64161904D01*
X132099809Y-64114285D01*
X131718857Y-64114285D01*
X131623619Y-64161904D01*
X131576000Y-64209523D01*
X131528380Y-64304761D01*
X131528380Y-64495238D01*
X131576000Y-64590476D01*
X131623619Y-64638095D01*
X131718857Y-64685714D01*
X131956952Y-64685714D01*
X132052190Y-64638095D01*
X132099809Y-64590476D01*
X132147428Y-64495238D01*
X132147428Y-64304761D01*
X132099809Y-64209523D01*
X132052190Y-64161904D01*
X131956952Y-64114285D01*
D10*
X107857142Y-126552380D02*
X107523809Y-126076190D01*
X107285714Y-126552380D02*
X107285714Y-125552380D01*
X107666666Y-125552380D01*
X107761904Y-125600000D01*
X107809523Y-125647619D01*
X107857142Y-125742857D01*
X107857142Y-125885714D01*
X107809523Y-125980952D01*
X107761904Y-126028571D01*
X107666666Y-126076190D01*
X107285714Y-126076190D01*
X108809523Y-126552380D02*
X108238095Y-126552380D01*
X108523809Y-126552380D02*
X108523809Y-125552380D01*
X108428571Y-125695238D01*
X108333333Y-125790476D01*
X108238095Y-125838095D01*
X109761904Y-126552380D02*
X109190476Y-126552380D01*
X109476190Y-126552380D02*
X109476190Y-125552380D01*
X109380952Y-125695238D01*
X109285714Y-125790476D01*
X109190476Y-125838095D01*
X107757142Y-112414380D02*
X107423809Y-111938190D01*
X107185714Y-112414380D02*
X107185714Y-111414380D01*
X107566666Y-111414380D01*
X107661904Y-111462000D01*
X107709523Y-111509619D01*
X107757142Y-111604857D01*
X107757142Y-111747714D01*
X107709523Y-111842952D01*
X107661904Y-111890571D01*
X107566666Y-111938190D01*
X107185714Y-111938190D01*
X108709523Y-112414380D02*
X108138095Y-112414380D01*
X108423809Y-112414380D02*
X108423809Y-111414380D01*
X108328571Y-111557238D01*
X108233333Y-111652476D01*
X108138095Y-111700095D01*
X109090476Y-111509619D02*
X109138095Y-111462000D01*
X109233333Y-111414380D01*
X109471428Y-111414380D01*
X109566666Y-111462000D01*
X109614285Y-111509619D01*
X109661904Y-111604857D01*
X109661904Y-111700095D01*
X109614285Y-111842952D01*
X109042857Y-112414380D01*
X109661904Y-112414380D01*
X107657142Y-110652380D02*
X107323809Y-110176190D01*
X107085714Y-110652380D02*
X107085714Y-109652380D01*
X107466666Y-109652380D01*
X107561904Y-109700000D01*
X107609523Y-109747619D01*
X107657142Y-109842857D01*
X107657142Y-109985714D01*
X107609523Y-110080952D01*
X107561904Y-110128571D01*
X107466666Y-110176190D01*
X107085714Y-110176190D01*
X108609523Y-110652380D02*
X108038095Y-110652380D01*
X108323809Y-110652380D02*
X108323809Y-109652380D01*
X108228571Y-109795238D01*
X108133333Y-109890476D01*
X108038095Y-109938095D01*
X108942857Y-109652380D02*
X109561904Y-109652380D01*
X109228571Y-110033333D01*
X109371428Y-110033333D01*
X109466666Y-110080952D01*
X109514285Y-110128571D01*
X109561904Y-110223809D01*
X109561904Y-110461904D01*
X109514285Y-110557142D01*
X109466666Y-110604761D01*
X109371428Y-110652380D01*
X109085714Y-110652380D01*
X108990476Y-110604761D01*
X108942857Y-110557142D01*
X107757142Y-114252380D02*
X107423809Y-113776190D01*
X107185714Y-114252380D02*
X107185714Y-113252380D01*
X107566666Y-113252380D01*
X107661904Y-113300000D01*
X107709523Y-113347619D01*
X107757142Y-113442857D01*
X107757142Y-113585714D01*
X107709523Y-113680952D01*
X107661904Y-113728571D01*
X107566666Y-113776190D01*
X107185714Y-113776190D01*
X108709523Y-114252380D02*
X108138095Y-114252380D01*
X108423809Y-114252380D02*
X108423809Y-113252380D01*
X108328571Y-113395238D01*
X108233333Y-113490476D01*
X108138095Y-113538095D01*
X109614285Y-113252380D02*
X109138095Y-113252380D01*
X109090476Y-113728571D01*
X109138095Y-113680952D01*
X109233333Y-113633333D01*
X109471428Y-113633333D01*
X109566666Y-113680952D01*
X109614285Y-113728571D01*
X109661904Y-113823809D01*
X109661904Y-114061904D01*
X109614285Y-114157142D01*
X109566666Y-114204761D01*
X109471428Y-114252380D01*
X109233333Y-114252380D01*
X109138095Y-114204761D01*
X109090476Y-114157142D01*
X135957142Y-124852380D02*
X135623809Y-124376190D01*
X135385714Y-124852380D02*
X135385714Y-123852380D01*
X135766666Y-123852380D01*
X135861904Y-123900000D01*
X135909523Y-123947619D01*
X135957142Y-124042857D01*
X135957142Y-124185714D01*
X135909523Y-124280952D01*
X135861904Y-124328571D01*
X135766666Y-124376190D01*
X135385714Y-124376190D01*
X136909523Y-124852380D02*
X136338095Y-124852380D01*
X136623809Y-124852380D02*
X136623809Y-123852380D01*
X136528571Y-123995238D01*
X136433333Y-124090476D01*
X136338095Y-124138095D01*
X137766666Y-123852380D02*
X137576190Y-123852380D01*
X137480952Y-123900000D01*
X137433333Y-123947619D01*
X137338095Y-124090476D01*
X137290476Y-124280952D01*
X137290476Y-124661904D01*
X137338095Y-124757142D01*
X137385714Y-124804761D01*
X137480952Y-124852380D01*
X137671428Y-124852380D01*
X137766666Y-124804761D01*
X137814285Y-124757142D01*
X137861904Y-124661904D01*
X137861904Y-124423809D01*
X137814285Y-124328571D01*
X137766666Y-124280952D01*
X137671428Y-124233333D01*
X137480952Y-124233333D01*
X137385714Y-124280952D01*
X137338095Y-124328571D01*
X137290476Y-124423809D01*
D12*
X127757142Y-136252380D02*
X127423809Y-135776190D01*
X127185714Y-136252380D02*
X127185714Y-135252380D01*
X127566666Y-135252380D01*
X127661904Y-135300000D01*
X127709523Y-135347619D01*
X127757142Y-135442857D01*
X127757142Y-135585714D01*
X127709523Y-135680952D01*
X127661904Y-135728571D01*
X127566666Y-135776190D01*
X127185714Y-135776190D01*
X128709523Y-136252380D02*
X128138095Y-136252380D01*
X128423809Y-136252380D02*
X128423809Y-135252380D01*
X128328571Y-135395238D01*
X128233333Y-135490476D01*
X128138095Y-135538095D01*
X129042857Y-135252380D02*
X129709523Y-135252380D01*
X129280952Y-136252380D01*
D10*
X130957142Y-133252380D02*
X130623809Y-132776190D01*
X130385714Y-133252380D02*
X130385714Y-132252380D01*
X130766666Y-132252380D01*
X130861904Y-132300000D01*
X130909523Y-132347619D01*
X130957142Y-132442857D01*
X130957142Y-132585714D01*
X130909523Y-132680952D01*
X130861904Y-132728571D01*
X130766666Y-132776190D01*
X130385714Y-132776190D01*
X131909523Y-133252380D02*
X131338095Y-133252380D01*
X131623809Y-133252380D02*
X131623809Y-132252380D01*
X131528571Y-132395238D01*
X131433333Y-132490476D01*
X131338095Y-132538095D01*
X132480952Y-132680952D02*
X132385714Y-132633333D01*
X132338095Y-132585714D01*
X132290476Y-132490476D01*
X132290476Y-132442857D01*
X132338095Y-132347619D01*
X132385714Y-132300000D01*
X132480952Y-132252380D01*
X132671428Y-132252380D01*
X132766666Y-132300000D01*
X132814285Y-132347619D01*
X132861904Y-132442857D01*
X132861904Y-132490476D01*
X132814285Y-132585714D01*
X132766666Y-132633333D01*
X132671428Y-132680952D01*
X132480952Y-132680952D01*
X132385714Y-132728571D01*
X132338095Y-132776190D01*
X132290476Y-132871428D01*
X132290476Y-133061904D01*
X132338095Y-133157142D01*
X132385714Y-133204761D01*
X132480952Y-133252380D01*
X132671428Y-133252380D01*
X132766666Y-133204761D01*
X132814285Y-133157142D01*
X132861904Y-133061904D01*
X132861904Y-132871428D01*
X132814285Y-132776190D01*
X132766666Y-132728571D01*
X132671428Y-132680952D01*
D12*
X125422380Y-65042857D02*
X124946190Y-65376190D01*
X125422380Y-65614285D02*
X124422380Y-65614285D01*
X124422380Y-65233333D01*
X124470000Y-65138095D01*
X124517619Y-65090476D01*
X124612857Y-65042857D01*
X124755714Y-65042857D01*
X124850952Y-65090476D01*
X124898571Y-65138095D01*
X124946190Y-65233333D01*
X124946190Y-65614285D01*
X124517619Y-64661904D02*
X124470000Y-64614285D01*
X124422380Y-64519047D01*
X124422380Y-64280952D01*
X124470000Y-64185714D01*
X124517619Y-64138095D01*
X124612857Y-64090476D01*
X124708095Y-64090476D01*
X124850952Y-64138095D01*
X125422380Y-64709523D01*
X125422380Y-64090476D01*
X125422380Y-63138095D02*
X125422380Y-63709523D01*
X125422380Y-63423809D02*
X124422380Y-63423809D01*
X124565238Y-63519047D01*
X124660476Y-63614285D01*
X124708095Y-63709523D01*
X121757142Y-68552380D02*
X121423809Y-68076190D01*
X121185714Y-68552380D02*
X121185714Y-67552380D01*
X121566666Y-67552380D01*
X121661904Y-67600000D01*
X121709523Y-67647619D01*
X121757142Y-67742857D01*
X121757142Y-67885714D01*
X121709523Y-67980952D01*
X121661904Y-68028571D01*
X121566666Y-68076190D01*
X121185714Y-68076190D01*
X122138095Y-67647619D02*
X122185714Y-67600000D01*
X122280952Y-67552380D01*
X122519047Y-67552380D01*
X122614285Y-67600000D01*
X122661904Y-67647619D01*
X122709523Y-67742857D01*
X122709523Y-67838095D01*
X122661904Y-67980952D01*
X122090476Y-68552380D01*
X122709523Y-68552380D01*
X123090476Y-67647619D02*
X123138095Y-67600000D01*
X123233333Y-67552380D01*
X123471428Y-67552380D01*
X123566666Y-67600000D01*
X123614285Y-67647619D01*
X123661904Y-67742857D01*
X123661904Y-67838095D01*
X123614285Y-67980952D01*
X123042857Y-68552380D01*
X123661904Y-68552380D01*
X138361904Y-117552380D02*
X138361904Y-118361904D01*
X138409523Y-118457142D01*
X138457142Y-118504761D01*
X138552380Y-118552380D01*
X138742857Y-118552380D01*
X138838095Y-118504761D01*
X138885714Y-118457142D01*
X138933333Y-118361904D01*
X138933333Y-117552380D01*
X139933333Y-118552380D02*
X139361904Y-118552380D01*
X139647619Y-118552380D02*
X139647619Y-117552380D01*
X139552380Y-117695238D01*
X139457142Y-117790476D01*
X139361904Y-117838095D01*
X140504761Y-117980952D02*
X140409523Y-117933333D01*
X140361904Y-117885714D01*
X140314285Y-117790476D01*
X140314285Y-117742857D01*
X140361904Y-117647619D01*
X140409523Y-117600000D01*
X140504761Y-117552380D01*
X140695238Y-117552380D01*
X140790476Y-117600000D01*
X140838095Y-117647619D01*
X140885714Y-117742857D01*
X140885714Y-117790476D01*
X140838095Y-117885714D01*
X140790476Y-117933333D01*
X140695238Y-117980952D01*
X140504761Y-117980952D01*
X140409523Y-118028571D01*
X140361904Y-118076190D01*
X140314285Y-118171428D01*
X140314285Y-118361904D01*
X140361904Y-118457142D01*
X140409523Y-118504761D01*
X140504761Y-118552380D01*
X140695238Y-118552380D01*
X140790476Y-118504761D01*
X140838095Y-118457142D01*
X140885714Y-118361904D01*
X140885714Y-118171428D01*
X140838095Y-118076190D01*
X140790476Y-118028571D01*
X140695238Y-117980952D01*
X137600580Y-122387800D02*
X137838676Y-122387800D01*
X137743438Y-122625895D02*
X137838676Y-122387800D01*
X137743438Y-122149704D01*
X138029152Y-122530657D02*
X137838676Y-122387800D01*
X138029152Y-122244942D01*
X137600580Y-122387800D02*
X137838676Y-122387800D01*
X137743438Y-122625895D02*
X137838676Y-122387800D01*
X137743438Y-122149704D01*
X138029152Y-122530657D02*
X137838676Y-122387800D01*
X138029152Y-122244942D01*
D14*
X118988761Y-122221809D02*
X118988761Y-122584666D01*
X118964571Y-122657238D01*
X118916190Y-122705619D01*
X118843619Y-122729809D01*
X118795238Y-122729809D01*
X119496761Y-122729809D02*
X119206476Y-122729809D01*
X119351619Y-122729809D02*
X119351619Y-122221809D01*
X119303238Y-122294380D01*
X119254857Y-122342761D01*
X119206476Y-122366952D01*
X119932190Y-122391142D02*
X119932190Y-122729809D01*
X119811238Y-122197619D02*
X119690285Y-122560476D01*
X120004761Y-122560476D01*
X120688761Y-122321809D02*
X120688761Y-122684666D01*
X120664571Y-122757238D01*
X120616190Y-122805619D01*
X120543619Y-122829809D01*
X120495238Y-122829809D01*
X121196761Y-122829809D02*
X120906476Y-122829809D01*
X121051619Y-122829809D02*
X121051619Y-122321809D01*
X121003238Y-122394380D01*
X120954857Y-122442761D01*
X120906476Y-122466952D01*
X121656380Y-122321809D02*
X121414476Y-122321809D01*
X121390285Y-122563714D01*
X121414476Y-122539523D01*
X121462857Y-122515333D01*
X121583809Y-122515333D01*
X121632190Y-122539523D01*
X121656380Y-122563714D01*
X121680571Y-122612095D01*
X121680571Y-122733047D01*
X121656380Y-122781428D01*
X121632190Y-122805619D01*
X121583809Y-122829809D01*
X121462857Y-122829809D01*
X121414476Y-122805619D01*
X121390285Y-122781428D01*
D12*
X150561904Y-90152380D02*
X150561904Y-89152380D01*
X150800000Y-89152380D01*
X150942857Y-89200000D01*
X151038095Y-89295238D01*
X151085714Y-89390476D01*
X151133333Y-89580952D01*
X151133333Y-89723809D01*
X151085714Y-89914285D01*
X151038095Y-90009523D01*
X150942857Y-90104761D01*
X150800000Y-90152380D01*
X150561904Y-90152380D01*
X151990476Y-89485714D02*
X151990476Y-90152380D01*
X151752380Y-89104761D02*
X151514285Y-89819047D01*
X152133333Y-89819047D01*
X150561904Y-94052380D02*
X150561904Y-93052380D01*
X150800000Y-93052380D01*
X150942857Y-93100000D01*
X151038095Y-93195238D01*
X151085714Y-93290476D01*
X151133333Y-93480952D01*
X151133333Y-93623809D01*
X151085714Y-93814285D01*
X151038095Y-93909523D01*
X150942857Y-94004761D01*
X150800000Y-94052380D01*
X150561904Y-94052380D01*
X152038095Y-93052380D02*
X151561904Y-93052380D01*
X151514285Y-93528571D01*
X151561904Y-93480952D01*
X151657142Y-93433333D01*
X151895238Y-93433333D01*
X151990476Y-93480952D01*
X152038095Y-93528571D01*
X152085714Y-93623809D01*
X152085714Y-93861904D01*
X152038095Y-93957142D01*
X151990476Y-94004761D01*
X151895238Y-94052380D01*
X151657142Y-94052380D01*
X151561904Y-94004761D01*
X151514285Y-93957142D01*
X170804761Y-80752380D02*
X170804761Y-79752380D01*
X171185714Y-79752380D01*
X171280952Y-79800000D01*
X171328571Y-79847619D01*
X171376190Y-79942857D01*
X171376190Y-80085714D01*
X171328571Y-80180952D01*
X171280952Y-80228571D01*
X171185714Y-80276190D01*
X170804761Y-80276190D01*
X171804761Y-80228571D02*
X172138095Y-80228571D01*
X172280952Y-80752380D02*
X171804761Y-80752380D01*
X171804761Y-79752380D01*
X172280952Y-79752380D01*
X173185714Y-80752380D02*
X172709523Y-80752380D01*
X172709523Y-79752380D01*
X174042857Y-80752380D02*
X173471428Y-80752380D01*
X173757142Y-80752380D02*
X173757142Y-79752380D01*
X173661904Y-79895238D01*
X173566666Y-79990476D01*
X173471428Y-80038095D01*
X148161904Y-75652380D02*
X148161904Y-74652380D01*
X148733333Y-75652380D02*
X148304761Y-75080952D01*
X148733333Y-74652380D02*
X148161904Y-75223809D01*
X149685714Y-75652380D02*
X149114285Y-75652380D01*
X149400000Y-75652380D02*
X149400000Y-74652380D01*
X149304761Y-74795238D01*
X149209523Y-74890476D01*
X149114285Y-74938095D01*
X145010000Y-63412380D02*
X145010000Y-63650476D01*
X144771904Y-63555238D02*
X145010000Y-63650476D01*
X145248095Y-63555238D01*
X144867142Y-63840952D02*
X145010000Y-63650476D01*
X145152857Y-63840952D01*
X139304761Y-90547619D02*
X139209523Y-90500000D01*
X139114285Y-90404761D01*
X138971428Y-90261904D01*
X138876190Y-90214285D01*
X138780952Y-90214285D01*
X138828571Y-90452380D02*
X138733333Y-90404761D01*
X138638095Y-90309523D01*
X138590476Y-90119047D01*
X138590476Y-89785714D01*
X138638095Y-89595238D01*
X138733333Y-89500000D01*
X138828571Y-89452380D01*
X139019047Y-89452380D01*
X139114285Y-89500000D01*
X139209523Y-89595238D01*
X139257142Y-89785714D01*
X139257142Y-90119047D01*
X139209523Y-90309523D01*
X139114285Y-90404761D01*
X139019047Y-90452380D01*
X138828571Y-90452380D01*
X139590476Y-89452380D02*
X140257142Y-89452380D01*
X139828571Y-90452380D01*
X139304761Y-94547619D02*
X139209523Y-94500000D01*
X139114285Y-94404761D01*
X138971428Y-94261904D01*
X138876190Y-94214285D01*
X138780952Y-94214285D01*
X138828571Y-94452380D02*
X138733333Y-94404761D01*
X138638095Y-94309523D01*
X138590476Y-94119047D01*
X138590476Y-93785714D01*
X138638095Y-93595238D01*
X138733333Y-93500000D01*
X138828571Y-93452380D01*
X139019047Y-93452380D01*
X139114285Y-93500000D01*
X139209523Y-93595238D01*
X139257142Y-93785714D01*
X139257142Y-94119047D01*
X139209523Y-94309523D01*
X139114285Y-94404761D01*
X139019047Y-94452380D01*
X138828571Y-94452380D01*
X139828571Y-93880952D02*
X139733333Y-93833333D01*
X139685714Y-93785714D01*
X139638095Y-93690476D01*
X139638095Y-93642857D01*
X139685714Y-93547619D01*
X139733333Y-93500000D01*
X139828571Y-93452380D01*
X140019047Y-93452380D01*
X140114285Y-93500000D01*
X140161904Y-93547619D01*
X140209523Y-93642857D01*
X140209523Y-93690476D01*
X140161904Y-93785714D01*
X140114285Y-93833333D01*
X140019047Y-93880952D01*
X139828571Y-93880952D01*
X139733333Y-93928571D01*
X139685714Y-93976190D01*
X139638095Y-94071428D01*
X139638095Y-94261904D01*
X139685714Y-94357142D01*
X139733333Y-94404761D01*
X139828571Y-94452380D01*
X140019047Y-94452380D01*
X140114285Y-94404761D01*
X140161904Y-94357142D01*
X140209523Y-94261904D01*
X140209523Y-94071428D01*
X140161904Y-93976190D01*
X140114285Y-93928571D01*
X140019047Y-93880952D01*
X133957142Y-89052380D02*
X133623809Y-88576190D01*
X133385714Y-89052380D02*
X133385714Y-88052380D01*
X133766666Y-88052380D01*
X133861904Y-88100000D01*
X133909523Y-88147619D01*
X133957142Y-88242857D01*
X133957142Y-88385714D01*
X133909523Y-88480952D01*
X133861904Y-88528571D01*
X133766666Y-88576190D01*
X133385714Y-88576190D01*
X134290476Y-88052380D02*
X134909523Y-88052380D01*
X134576190Y-88433333D01*
X134719047Y-88433333D01*
X134814285Y-88480952D01*
X134861904Y-88528571D01*
X134909523Y-88623809D01*
X134909523Y-88861904D01*
X134861904Y-88957142D01*
X134814285Y-89004761D01*
X134719047Y-89052380D01*
X134433333Y-89052380D01*
X134338095Y-89004761D01*
X134290476Y-88957142D01*
X135861904Y-89052380D02*
X135290476Y-89052380D01*
X135576190Y-89052380D02*
X135576190Y-88052380D01*
X135480952Y-88195238D01*
X135385714Y-88290476D01*
X135290476Y-88338095D01*
X134057142Y-92852380D02*
X133723809Y-92376190D01*
X133485714Y-92852380D02*
X133485714Y-91852380D01*
X133866666Y-91852380D01*
X133961904Y-91900000D01*
X134009523Y-91947619D01*
X134057142Y-92042857D01*
X134057142Y-92185714D01*
X134009523Y-92280952D01*
X133961904Y-92328571D01*
X133866666Y-92376190D01*
X133485714Y-92376190D01*
X134390476Y-91852380D02*
X135009523Y-91852380D01*
X134676190Y-92233333D01*
X134819047Y-92233333D01*
X134914285Y-92280952D01*
X134961904Y-92328571D01*
X135009523Y-92423809D01*
X135009523Y-92661904D01*
X134961904Y-92757142D01*
X134914285Y-92804761D01*
X134819047Y-92852380D01*
X134533333Y-92852380D01*
X134438095Y-92804761D01*
X134390476Y-92757142D01*
X135866666Y-92185714D02*
X135866666Y-92852380D01*
X135628571Y-91804761D02*
X135390476Y-92519047D01*
X136009523Y-92519047D01*
X146138095Y-120392380D02*
X146138095Y-121201904D01*
X146185714Y-121297142D01*
X146233333Y-121344761D01*
X146328571Y-121392380D01*
X146519047Y-121392380D01*
X146614285Y-121344761D01*
X146661904Y-121297142D01*
X146709523Y-121201904D01*
X146709523Y-120392380D01*
X147614285Y-120392380D02*
X147423809Y-120392380D01*
X147328571Y-120440000D01*
X147280952Y-120487619D01*
X147185714Y-120630476D01*
X147138095Y-120820952D01*
X147138095Y-121201904D01*
X147185714Y-121297142D01*
X147233333Y-121344761D01*
X147328571Y-121392380D01*
X147519047Y-121392380D01*
X147614285Y-121344761D01*
X147661904Y-121297142D01*
X147709523Y-121201904D01*
X147709523Y-120963809D01*
X147661904Y-120868571D01*
X147614285Y-120820952D01*
X147519047Y-120773333D01*
X147328571Y-120773333D01*
X147233333Y-120820952D01*
X147185714Y-120868571D01*
X147138095Y-120963809D01*
X143592380Y-120940000D02*
X143830476Y-120940000D01*
X143735238Y-121178095D02*
X143830476Y-120940000D01*
X143735238Y-120701904D01*
X144020952Y-121082857D02*
X143830476Y-120940000D01*
X144020952Y-120797142D01*
X145552380Y-118900000D02*
X145790476Y-118900000D01*
X145695238Y-119138095D02*
X145790476Y-118900000D01*
X145695238Y-118661904D01*
X145980952Y-119042857D02*
X145790476Y-118900000D01*
X145980952Y-118757142D01*
X129971904Y-114992380D02*
X129971904Y-115801904D01*
X130019523Y-115897142D01*
X130067142Y-115944761D01*
X130162380Y-115992380D01*
X130352857Y-115992380D01*
X130448095Y-115944761D01*
X130495714Y-115897142D01*
X130543333Y-115801904D01*
X130543333Y-114992380D01*
X131543333Y-115992380D02*
X130971904Y-115992380D01*
X131257619Y-115992380D02*
X131257619Y-114992380D01*
X131162380Y-115135238D01*
X131067142Y-115230476D01*
X130971904Y-115278095D01*
X132019523Y-115992380D02*
X132210000Y-115992380D01*
X132305238Y-115944761D01*
X132352857Y-115897142D01*
X132448095Y-115754285D01*
X132495714Y-115563809D01*
X132495714Y-115182857D01*
X132448095Y-115087619D01*
X132400476Y-115040000D01*
X132305238Y-114992380D01*
X132114761Y-114992380D01*
X132019523Y-115040000D01*
X131971904Y-115087619D01*
X131924285Y-115182857D01*
X131924285Y-115420952D01*
X131971904Y-115516190D01*
X132019523Y-115563809D01*
X132114761Y-115611428D01*
X132305238Y-115611428D01*
X132400476Y-115563809D01*
X132448095Y-115516190D01*
X132495714Y-115420952D01*
X127900000Y-107922380D02*
X127900000Y-108160476D01*
X127661904Y-108065238D02*
X127900000Y-108160476D01*
X128138095Y-108065238D01*
X127757142Y-108350952D02*
X127900000Y-108160476D01*
X128042857Y-108350952D01*
X127900000Y-107922380D02*
X127900000Y-108160476D01*
X127661904Y-108065238D02*
X127900000Y-108160476D01*
X128138095Y-108065238D01*
X127757142Y-108350952D02*
X127900000Y-108160476D01*
X128042857Y-108350952D01*
X118053904Y-114992380D02*
X118053904Y-115801904D01*
X118101523Y-115897142D01*
X118149142Y-115944761D01*
X118244380Y-115992380D01*
X118434857Y-115992380D01*
X118530095Y-115944761D01*
X118577714Y-115897142D01*
X118625333Y-115801904D01*
X118625333Y-114992380D01*
X119053904Y-115087619D02*
X119101523Y-115040000D01*
X119196761Y-114992380D01*
X119434857Y-114992380D01*
X119530095Y-115040000D01*
X119577714Y-115087619D01*
X119625333Y-115182857D01*
X119625333Y-115278095D01*
X119577714Y-115420952D01*
X119006285Y-115992380D01*
X119625333Y-115992380D01*
X120244380Y-114992380D02*
X120339619Y-114992380D01*
X120434857Y-115040000D01*
X120482476Y-115087619D01*
X120530095Y-115182857D01*
X120577714Y-115373333D01*
X120577714Y-115611428D01*
X120530095Y-115801904D01*
X120482476Y-115897142D01*
X120434857Y-115944761D01*
X120339619Y-115992380D01*
X120244380Y-115992380D01*
X120149142Y-115944761D01*
X120101523Y-115897142D01*
X120053904Y-115801904D01*
X120006285Y-115611428D01*
X120006285Y-115373333D01*
X120053904Y-115182857D01*
X120101523Y-115087619D01*
X120149142Y-115040000D01*
X120244380Y-114992380D01*
X115990000Y-108032380D02*
X115990000Y-108270476D01*
X115751904Y-108175238D02*
X115990000Y-108270476D01*
X116228095Y-108175238D01*
X115847142Y-108460952D02*
X115990000Y-108270476D01*
X116132857Y-108460952D01*
X115990000Y-108032380D02*
X115990000Y-108270476D01*
X115751904Y-108175238D02*
X115990000Y-108270476D01*
X116228095Y-108175238D01*
X115847142Y-108460952D02*
X115990000Y-108270476D01*
X116132857Y-108460952D01*
X134597142Y-132907142D02*
X134549523Y-132954761D01*
X134406666Y-133002380D01*
X134311428Y-133002380D01*
X134168571Y-132954761D01*
X134073333Y-132859523D01*
X134025714Y-132764285D01*
X133978095Y-132573809D01*
X133978095Y-132430952D01*
X134025714Y-132240476D01*
X134073333Y-132145238D01*
X134168571Y-132050000D01*
X134311428Y-132002380D01*
X134406666Y-132002380D01*
X134549523Y-132050000D01*
X134597142Y-132097619D01*
X134930476Y-132002380D02*
X135549523Y-132002380D01*
X135216190Y-132383333D01*
X135359047Y-132383333D01*
X135454285Y-132430952D01*
X135501904Y-132478571D01*
X135549523Y-132573809D01*
X135549523Y-132811904D01*
X135501904Y-132907142D01*
X135454285Y-132954761D01*
X135359047Y-133002380D01*
X135073333Y-133002380D01*
X134978095Y-132954761D01*
X134930476Y-132907142D01*
X136454285Y-132002380D02*
X135978095Y-132002380D01*
X135930476Y-132478571D01*
X135978095Y-132430952D01*
X136073333Y-132383333D01*
X136311428Y-132383333D01*
X136406666Y-132430952D01*
X136454285Y-132478571D01*
X136501904Y-132573809D01*
X136501904Y-132811904D01*
X136454285Y-132907142D01*
X136406666Y-132954761D01*
X136311428Y-133002380D01*
X136073333Y-133002380D01*
X135978095Y-132954761D01*
X135930476Y-132907142D01*
X159801904Y-59892380D02*
X159801904Y-58892380D01*
X160040000Y-58892380D01*
X160182857Y-58940000D01*
X160278095Y-59035238D01*
X160325714Y-59130476D01*
X160373333Y-59320952D01*
X160373333Y-59463809D01*
X160325714Y-59654285D01*
X160278095Y-59749523D01*
X160182857Y-59844761D01*
X160040000Y-59892380D01*
X159801904Y-59892380D01*
X161230476Y-58892380D02*
X161040000Y-58892380D01*
X160944761Y-58940000D01*
X160897142Y-58987619D01*
X160801904Y-59130476D01*
X160754285Y-59320952D01*
X160754285Y-59701904D01*
X160801904Y-59797142D01*
X160849523Y-59844761D01*
X160944761Y-59892380D01*
X161135238Y-59892380D01*
X161230476Y-59844761D01*
X161278095Y-59797142D01*
X161325714Y-59701904D01*
X161325714Y-59463809D01*
X161278095Y-59368571D01*
X161230476Y-59320952D01*
X161135238Y-59273333D01*
X160944761Y-59273333D01*
X160849523Y-59320952D01*
X160801904Y-59368571D01*
X160754285Y-59463809D01*
X167904761Y-52847619D02*
X167809523Y-52800000D01*
X167714285Y-52704761D01*
X167571428Y-52561904D01*
X167476190Y-52514285D01*
X167380952Y-52514285D01*
X167428571Y-52752380D02*
X167333333Y-52704761D01*
X167238095Y-52609523D01*
X167190476Y-52419047D01*
X167190476Y-52085714D01*
X167238095Y-51895238D01*
X167333333Y-51800000D01*
X167428571Y-51752380D01*
X167619047Y-51752380D01*
X167714285Y-51800000D01*
X167809523Y-51895238D01*
X167857142Y-52085714D01*
X167857142Y-52419047D01*
X167809523Y-52609523D01*
X167714285Y-52704761D01*
X167619047Y-52752380D01*
X167428571Y-52752380D01*
X168333333Y-52752380D02*
X168523809Y-52752380D01*
X168619047Y-52704761D01*
X168666666Y-52657142D01*
X168761904Y-52514285D01*
X168809523Y-52323809D01*
X168809523Y-51942857D01*
X168761904Y-51847619D01*
X168714285Y-51800000D01*
X168619047Y-51752380D01*
X168428571Y-51752380D01*
X168333333Y-51800000D01*
X168285714Y-51847619D01*
X168238095Y-51942857D01*
X168238095Y-52180952D01*
X168285714Y-52276190D01*
X168333333Y-52323809D01*
X168428571Y-52371428D01*
X168619047Y-52371428D01*
X168714285Y-52323809D01*
X168761904Y-52276190D01*
X168809523Y-52180952D01*
X166900000Y-54652380D02*
X166900000Y-54890476D01*
X166661904Y-54795238D02*
X166900000Y-54890476D01*
X167138095Y-54795238D01*
X166757142Y-55080952D02*
X166900000Y-54890476D01*
X167042857Y-55080952D01*
X165733333Y-58257142D02*
X165685714Y-58304761D01*
X165542857Y-58352380D01*
X165447619Y-58352380D01*
X165304761Y-58304761D01*
X165209523Y-58209523D01*
X165161904Y-58114285D01*
X165114285Y-57923809D01*
X165114285Y-57780952D01*
X165161904Y-57590476D01*
X165209523Y-57495238D01*
X165304761Y-57400000D01*
X165447619Y-57352380D01*
X165542857Y-57352380D01*
X165685714Y-57400000D01*
X165733333Y-57447619D01*
X166209523Y-58352380D02*
X166400000Y-58352380D01*
X166495238Y-58304761D01*
X166542857Y-58257142D01*
X166638095Y-58114285D01*
X166685714Y-57923809D01*
X166685714Y-57542857D01*
X166638095Y-57447619D01*
X166590476Y-57400000D01*
X166495238Y-57352380D01*
X166304761Y-57352380D01*
X166209523Y-57400000D01*
X166161904Y-57447619D01*
X166114285Y-57542857D01*
X166114285Y-57780952D01*
X166161904Y-57876190D01*
X166209523Y-57923809D01*
X166304761Y-57971428D01*
X166495238Y-57971428D01*
X166590476Y-57923809D01*
X166638095Y-57876190D01*
X166685714Y-57780952D01*
X140357142Y-61357142D02*
X140309523Y-61404761D01*
X140166666Y-61452380D01*
X140071428Y-61452380D01*
X139928571Y-61404761D01*
X139833333Y-61309523D01*
X139785714Y-61214285D01*
X139738095Y-61023809D01*
X139738095Y-60880952D01*
X139785714Y-60690476D01*
X139833333Y-60595238D01*
X139928571Y-60500000D01*
X140071428Y-60452380D01*
X140166666Y-60452380D01*
X140309523Y-60500000D01*
X140357142Y-60547619D01*
X141214285Y-60785714D02*
X141214285Y-61452380D01*
X140976190Y-60404761D02*
X140738095Y-61119047D01*
X141357142Y-61119047D01*
X141642857Y-60452380D02*
X142261904Y-60452380D01*
X141928571Y-60833333D01*
X142071428Y-60833333D01*
X142166666Y-60880952D01*
X142214285Y-60928571D01*
X142261904Y-61023809D01*
X142261904Y-61261904D01*
X142214285Y-61357142D01*
X142166666Y-61404761D01*
X142071428Y-61452380D01*
X141785714Y-61452380D01*
X141690476Y-61404761D01*
X141642857Y-61357142D01*
X136152380Y-74542857D02*
X135676190Y-74876190D01*
X136152380Y-75114285D02*
X135152380Y-75114285D01*
X135152380Y-74733333D01*
X135200000Y-74638095D01*
X135247619Y-74590476D01*
X135342857Y-74542857D01*
X135485714Y-74542857D01*
X135580952Y-74590476D01*
X135628571Y-74638095D01*
X135676190Y-74733333D01*
X135676190Y-75114285D01*
X135152380Y-74209523D02*
X135152380Y-73590476D01*
X135533333Y-73923809D01*
X135533333Y-73780952D01*
X135580952Y-73685714D01*
X135628571Y-73638095D01*
X135723809Y-73590476D01*
X135961904Y-73590476D01*
X136057142Y-73638095D01*
X136104761Y-73685714D01*
X136152380Y-73780952D01*
X136152380Y-74066666D01*
X136104761Y-74161904D01*
X136057142Y-74209523D01*
X135247619Y-73209523D02*
X135200000Y-73161904D01*
X135152380Y-73066666D01*
X135152380Y-72828571D01*
X135200000Y-72733333D01*
X135247619Y-72685714D01*
X135342857Y-72638095D01*
X135438095Y-72638095D01*
X135580952Y-72685714D01*
X136152380Y-73257142D01*
X136152380Y-72638095D01*
X136152380Y-65042857D02*
X135676190Y-65376190D01*
X136152380Y-65614285D02*
X135152380Y-65614285D01*
X135152380Y-65233333D01*
X135200000Y-65138095D01*
X135247619Y-65090476D01*
X135342857Y-65042857D01*
X135485714Y-65042857D01*
X135580952Y-65090476D01*
X135628571Y-65138095D01*
X135676190Y-65233333D01*
X135676190Y-65614285D01*
X135152380Y-64709523D02*
X135152380Y-64090476D01*
X135533333Y-64423809D01*
X135533333Y-64280952D01*
X135580952Y-64185714D01*
X135628571Y-64138095D01*
X135723809Y-64090476D01*
X135961904Y-64090476D01*
X136057142Y-64138095D01*
X136104761Y-64185714D01*
X136152380Y-64280952D01*
X136152380Y-64566666D01*
X136104761Y-64661904D01*
X136057142Y-64709523D01*
X135152380Y-63757142D02*
X135152380Y-63138095D01*
X135533333Y-63471428D01*
X135533333Y-63328571D01*
X135580952Y-63233333D01*
X135628571Y-63185714D01*
X135723809Y-63138095D01*
X135961904Y-63138095D01*
X136057142Y-63185714D01*
X136104761Y-63233333D01*
X136152380Y-63328571D01*
X136152380Y-63614285D01*
X136104761Y-63709523D01*
X136057142Y-63757142D01*
X150803333Y-55952380D02*
X150327142Y-55952380D01*
X150327142Y-54952380D01*
X151041428Y-54952380D02*
X151660476Y-54952380D01*
X151327142Y-55333333D01*
X151470000Y-55333333D01*
X151565238Y-55380952D01*
X151612857Y-55428571D01*
X151660476Y-55523809D01*
X151660476Y-55761904D01*
X151612857Y-55857142D01*
X151565238Y-55904761D01*
X151470000Y-55952380D01*
X151184285Y-55952380D01*
X151089047Y-55904761D01*
X151041428Y-55857142D01*
X115490476Y-54647619D02*
X115966666Y-54647619D01*
X115966666Y-55647619D01*
X114966666Y-55647619D02*
X114776190Y-55647619D01*
X114680952Y-55600000D01*
X114585714Y-55504761D01*
X114538095Y-55314285D01*
X114538095Y-54980952D01*
X114585714Y-54790476D01*
X114680952Y-54695238D01*
X114776190Y-54647619D01*
X114966666Y-54647619D01*
X115061904Y-54695238D01*
X115157142Y-54790476D01*
X115204761Y-54980952D01*
X115204761Y-55314285D01*
X115157142Y-55504761D01*
X115061904Y-55600000D01*
X114966666Y-55647619D01*
X113538095Y-54742857D02*
X113585714Y-54695238D01*
X113728571Y-54647619D01*
X113823809Y-54647619D01*
X113966666Y-54695238D01*
X114061904Y-54790476D01*
X114109523Y-54885714D01*
X114157142Y-55076190D01*
X114157142Y-55219047D01*
X114109523Y-55409523D01*
X114061904Y-55504761D01*
X113966666Y-55600000D01*
X113823809Y-55647619D01*
X113728571Y-55647619D01*
X113585714Y-55600000D01*
X113538095Y-55552380D01*
X113109523Y-54647619D02*
X113109523Y-55647619D01*
X112538095Y-54647619D02*
X112966666Y-55219047D01*
X112538095Y-55647619D02*
X113109523Y-55076190D01*
X111585714Y-54647619D02*
X112157142Y-54647619D01*
X111871428Y-54647619D02*
X111871428Y-55647619D01*
X111966666Y-55504761D01*
X112061904Y-55409523D01*
X112157142Y-55361904D01*
M02*
