%TF.GenerationSoftware,KiCad,Pcbnew,(5.1.6-0-10_14)*%
%TF.CreationDate,2020-09-10T14:26:16+09:00*%
%TF.ProjectId,qPCR-photo_mux_MPC506AU,71504352-2d70-4686-9f74-6f5f6d75785f,rev?*%
%TF.SameCoordinates,Original*%
%TF.FileFunction,Copper,L1,Top*%
%TF.FilePolarity,Positive*%
%FSLAX46Y46*%
G04 Gerber Fmt 4.6, Leading zero omitted, Abs format (unit mm)*
G04 Created by KiCad (PCBNEW (5.1.6-0-10_14)) date 2020-09-10 14:26:16*
%MOMM*%
%LPD*%
G01*
G04 APERTURE LIST*
%TA.AperFunction,SMDPad,CuDef*%
%ADD10R,1.250000X1.500000*%
%TD*%
%TA.AperFunction,ComponentPad*%
%ADD11O,1.700000X1.700000*%
%TD*%
%TA.AperFunction,ComponentPad*%
%ADD12R,1.700000X1.700000*%
%TD*%
%TA.AperFunction,SMDPad,CuDef*%
%ADD13C,0.100000*%
%TD*%
%TA.AperFunction,Conductor*%
%ADD14C,0.100000*%
%TD*%
%TA.AperFunction,SMDPad,CuDef*%
%ADD15R,0.558800X2.311400*%
%TD*%
%TA.AperFunction,SMDPad,CuDef*%
%ADD16R,0.558800X1.473200*%
%TD*%
%TA.AperFunction,ViaPad*%
%ADD17C,0.800000*%
%TD*%
%TA.AperFunction,Conductor*%
%ADD18C,0.250000*%
%TD*%
%TA.AperFunction,Conductor*%
%ADD19C,0.254000*%
%TD*%
G04 APERTURE END LIST*
D10*
%TO.P,C1,2*%
%TO.N,GND*%
X107335000Y-77564600D03*
%TO.P,C1,1*%
%TO.N,+10V*%
X107335000Y-75064600D03*
%TD*%
%TO.P,C2,1*%
%TO.N,-10V*%
X107338000Y-82131500D03*
%TO.P,C2,2*%
%TO.N,GND*%
X107338000Y-79631500D03*
%TD*%
%TO.P,C3,2*%
%TO.N,GND*%
X107302000Y-92581100D03*
%TO.P,C3,1*%
%TO.N,+10V*%
X107302000Y-90081100D03*
%TD*%
%TO.P,C4,1*%
%TO.N,-10V*%
X107320000Y-97137900D03*
%TO.P,C4,2*%
%TO.N,GND*%
X107320000Y-94637900D03*
%TD*%
D11*
%TO.P,J1,5*%
%TO.N,PD_MUX_OUT*%
X103298000Y-110000000D03*
%TO.P,J1,4*%
%TO.N,VCC_LOGIC*%
X100758000Y-110000000D03*
%TO.P,J1,3*%
%TO.N,-10V*%
X98218000Y-110000000D03*
%TO.P,J1,2*%
%TO.N,+10V*%
X95678000Y-110000000D03*
D12*
%TO.P,J1,1*%
%TO.N,GND*%
X93138000Y-110000000D03*
%TD*%
%TO.P,J2,1*%
%TO.N,ADDRESSA3*%
X103298000Y-64440000D03*
D11*
%TO.P,J2,2*%
%TO.N,ADDRESSA2*%
X100758000Y-64440000D03*
%TO.P,J2,3*%
%TO.N,ADDRESSA1*%
X98218000Y-64440000D03*
%TO.P,J2,4*%
%TO.N,ADDRESSA0*%
X95678000Y-64440000D03*
%TO.P,J2,5*%
%TO.N,MUX_SELECT*%
X93138000Y-64440000D03*
%TD*%
%TA.AperFunction,SMDPad,CuDef*%
D13*
%TO.P,JP1,1*%
%TO.N,/PD_MUX_OUT1*%
G36*
X110204000Y-109985000D02*
G01*
X109704000Y-110735000D01*
X108704000Y-110735000D01*
X108704000Y-109235000D01*
X109704000Y-109235000D01*
X110204000Y-109985000D01*
G37*
%TD.AperFunction*%
%TA.AperFunction,Conductor*%
D14*
%TD*%
%TO.N,PD_MUX_OUT*%
%TO.C,JP1*%
G36*
X111904000Y-109985000D02*
G01*
X112404000Y-110735000D01*
X110004000Y-110735000D01*
X110504000Y-109985000D01*
X110004000Y-109235000D01*
X112404000Y-109235000D01*
X111904000Y-109985000D01*
G37*
%TD.AperFunction*%
%TA.AperFunction,SMDPad,CuDef*%
D13*
%TO.P,JP1,3*%
%TO.N,/PD_MUX_OUT2*%
G36*
X112204000Y-109985000D02*
G01*
X112704000Y-109235000D01*
X113704000Y-109235000D01*
X113704000Y-110735000D01*
X112704000Y-110735000D01*
X112204000Y-109985000D01*
G37*
%TD.AperFunction*%
%TD*%
D11*
%TO.P,N_PD1,10*%
%TO.N,N_PD1_OUT1*%
X123160000Y-70460000D03*
%TO.P,N_PD1,9*%
%TO.N,N_PD1_OUT2*%
X123160000Y-73000000D03*
%TO.P,N_PD1,8*%
%TO.N,N_PD1_OUT3*%
X120620000Y-70460000D03*
%TO.P,N_PD1,7*%
%TO.N,N_PD1_OUT4*%
X120620000Y-73000000D03*
%TO.P,N_PD1,6*%
%TO.N,N_PD1_OUT5*%
X118080000Y-70460000D03*
%TO.P,N_PD1,5*%
%TO.N,N_PD1_OUT6*%
X118080000Y-73000000D03*
%TO.P,N_PD1,4*%
%TO.N,N_PD1_OUT7*%
X115540000Y-70460000D03*
%TO.P,N_PD1,3*%
%TO.N,N_PD1_OUT8*%
X115540000Y-73000000D03*
%TO.P,N_PD1,2*%
%TO.N,GND*%
X113000000Y-70460000D03*
D12*
%TO.P,N_PD1,1*%
X113000000Y-73000000D03*
%TD*%
%TO.P,N_PD2,1*%
%TO.N,GND*%
X113000000Y-83000000D03*
D11*
%TO.P,N_PD2,2*%
X113000000Y-80460000D03*
%TO.P,N_PD2,3*%
%TO.N,N_PD1_OUT16*%
X115540000Y-83000000D03*
%TO.P,N_PD2,4*%
%TO.N,N_PD1_OUT15*%
X115540000Y-80460000D03*
%TO.P,N_PD2,5*%
%TO.N,N_PD1_OUT14*%
X118080000Y-83000000D03*
%TO.P,N_PD2,6*%
%TO.N,N_PD1_OUT13*%
X118080000Y-80460000D03*
%TO.P,N_PD2,7*%
%TO.N,N_PD1_OUT12*%
X120620000Y-83000000D03*
%TO.P,N_PD2,8*%
%TO.N,N_PD1_OUT10*%
X120620000Y-80460000D03*
%TO.P,N_PD2,9*%
%TO.N,N_PD1_OUT11*%
X123160000Y-83000000D03*
%TO.P,N_PD2,10*%
%TO.N,N_PD1_OUT9*%
X123160000Y-80460000D03*
%TD*%
D12*
%TO.P,S_PD1,1*%
%TO.N,GND*%
X113000000Y-93000000D03*
D11*
%TO.P,S_PD1,2*%
X113000000Y-90460000D03*
%TO.P,S_PD1,3*%
%TO.N,S_PD1_OUT8*%
X115540000Y-93000000D03*
%TO.P,S_PD1,4*%
%TO.N,S_PD1_OUT7*%
X115540000Y-90460000D03*
%TO.P,S_PD1,5*%
%TO.N,S_PD1_OUT6*%
X118080000Y-93000000D03*
%TO.P,S_PD1,6*%
%TO.N,S_PD1_OUT5*%
X118080000Y-90460000D03*
%TO.P,S_PD1,7*%
%TO.N,S_PD1_OUT4*%
X120620000Y-93000000D03*
%TO.P,S_PD1,8*%
%TO.N,S_PD1_OUT3*%
X120620000Y-90460000D03*
%TO.P,S_PD1,9*%
%TO.N,S_PD1_OUT2*%
X123160000Y-93000000D03*
%TO.P,S_PD1,10*%
%TO.N,S_PD1_OUT1*%
X123160000Y-90460000D03*
%TD*%
%TO.P,S_PD2,10*%
%TO.N,S_PD1_OUT9*%
X123160000Y-100460000D03*
%TO.P,S_PD2,9*%
%TO.N,S_PD1_OUT11*%
X123160000Y-103000000D03*
%TO.P,S_PD2,8*%
%TO.N,S_PD1_OUT10*%
X120620000Y-100460000D03*
%TO.P,S_PD2,7*%
%TO.N,S_PD1_OUT12*%
X120620000Y-103000000D03*
%TO.P,S_PD2,6*%
%TO.N,S_PD1_OUT13*%
X118080000Y-100460000D03*
%TO.P,S_PD2,5*%
%TO.N,S_PD1_OUT14*%
X118080000Y-103000000D03*
%TO.P,S_PD2,4*%
%TO.N,S_PD1_OUT15*%
X115540000Y-100460000D03*
%TO.P,S_PD2,3*%
%TO.N,S_PD1_OUT16*%
X115540000Y-103000000D03*
%TO.P,S_PD2,2*%
%TO.N,GND*%
X113000000Y-100460000D03*
D12*
%TO.P,S_PD2,1*%
X113000000Y-103000000D03*
%TD*%
D15*
%TO.P,U1,1*%
%TO.N,+10V*%
X105255000Y-90478800D03*
%TO.P,U1,2*%
%TO.N,Net-(U1-Pad2)*%
X103985000Y-90478800D03*
%TO.P,U1,3*%
%TO.N,Net-(U1-Pad3)*%
X102715000Y-90478800D03*
%TO.P,U1,4*%
%TO.N,S_PD1_OUT1*%
X101445000Y-90478800D03*
%TO.P,U1,5*%
%TO.N,S_PD1_OUT2*%
X100175000Y-90478800D03*
%TO.P,U1,6*%
%TO.N,S_PD1_OUT3*%
X98905000Y-90478800D03*
%TO.P,U1,7*%
%TO.N,S_PD1_OUT4*%
X97635000Y-90478800D03*
%TO.P,U1,8*%
%TO.N,S_PD1_OUT5*%
X96365000Y-90478800D03*
%TO.P,U1,9*%
%TO.N,S_PD1_OUT6*%
X95095000Y-90478800D03*
%TO.P,U1,10*%
%TO.N,S_PD1_OUT7*%
X93825000Y-90478800D03*
%TO.P,U1,11*%
%TO.N,S_PD1_OUT8*%
X92555000Y-90478800D03*
%TO.P,U1,12*%
%TO.N,GND*%
X91285000Y-90478800D03*
%TO.P,U1,13*%
%TO.N,Net-(U1-Pad13)*%
X90015000Y-90478800D03*
%TO.P,U1,14*%
%TO.N,ADDRESSA3*%
X88745000Y-90478800D03*
%TO.P,U1,15*%
%TO.N,ADDRESSA2*%
X88745000Y-99521200D03*
%TO.P,U1,16*%
%TO.N,ADDRESSA1*%
X90015000Y-99521200D03*
%TO.P,U1,17*%
%TO.N,ADDRESSA0*%
X91285000Y-99521200D03*
%TO.P,U1,18*%
%TO.N,/MUX_SELECT_INV*%
X92555000Y-99521200D03*
%TO.P,U1,19*%
%TO.N,S_PD1_OUT9*%
X93825000Y-99521200D03*
%TO.P,U1,20*%
%TO.N,S_PD1_OUT10*%
X95095000Y-99521200D03*
%TO.P,U1,21*%
%TO.N,S_PD1_OUT11*%
X96365000Y-99521200D03*
%TO.P,U1,22*%
%TO.N,S_PD1_OUT12*%
X97635000Y-99521200D03*
%TO.P,U1,23*%
%TO.N,S_PD1_OUT13*%
X98905000Y-99521200D03*
%TO.P,U1,24*%
%TO.N,S_PD1_OUT14*%
X100175000Y-99521200D03*
%TO.P,U1,25*%
%TO.N,S_PD1_OUT15*%
X101445000Y-99521200D03*
%TO.P,U1,26*%
%TO.N,S_PD1_OUT16*%
X102715000Y-99521200D03*
%TO.P,U1,27*%
%TO.N,-10V*%
X103985000Y-99521200D03*
%TO.P,U1,28*%
%TO.N,/PD_MUX_OUT2*%
X105255000Y-99521200D03*
%TD*%
D16*
%TO.P,U2,5*%
%TO.N,VCC_LOGIC*%
X85818899Y-65575200D03*
%TO.P,U2,4*%
%TO.N,/MUX_SELECT_INV*%
X87718901Y-65575200D03*
%TO.P,U2,3*%
%TO.N,GND*%
X87718901Y-67962800D03*
%TO.P,U2,2*%
%TO.N,MUX_SELECT*%
X86768900Y-67962800D03*
%TO.P,U2,1*%
%TO.N,Net-(U2-Pad1)*%
X85818899Y-67962800D03*
%TD*%
D15*
%TO.P,U3,28*%
%TO.N,/PD_MUX_OUT1*%
X105255000Y-84521200D03*
%TO.P,U3,27*%
%TO.N,-10V*%
X103985000Y-84521200D03*
%TO.P,U3,26*%
%TO.N,N_PD1_OUT16*%
X102715000Y-84521200D03*
%TO.P,U3,25*%
%TO.N,N_PD1_OUT15*%
X101445000Y-84521200D03*
%TO.P,U3,24*%
%TO.N,N_PD1_OUT14*%
X100175000Y-84521200D03*
%TO.P,U3,23*%
%TO.N,N_PD1_OUT13*%
X98905000Y-84521200D03*
%TO.P,U3,22*%
%TO.N,N_PD1_OUT12*%
X97635000Y-84521200D03*
%TO.P,U3,21*%
%TO.N,N_PD1_OUT11*%
X96365000Y-84521200D03*
%TO.P,U3,20*%
%TO.N,N_PD1_OUT10*%
X95095000Y-84521200D03*
%TO.P,U3,19*%
%TO.N,N_PD1_OUT9*%
X93825000Y-84521200D03*
%TO.P,U3,18*%
%TO.N,MUX_SELECT*%
X92555000Y-84521200D03*
%TO.P,U3,17*%
%TO.N,ADDRESSA0*%
X91285000Y-84521200D03*
%TO.P,U3,16*%
%TO.N,ADDRESSA1*%
X90015000Y-84521200D03*
%TO.P,U3,15*%
%TO.N,ADDRESSA2*%
X88745000Y-84521200D03*
%TO.P,U3,14*%
%TO.N,ADDRESSA3*%
X88745000Y-75478800D03*
%TO.P,U3,13*%
%TO.N,Net-(U3-Pad13)*%
X90015000Y-75478800D03*
%TO.P,U3,12*%
%TO.N,GND*%
X91285000Y-75478800D03*
%TO.P,U3,11*%
%TO.N,N_PD1_OUT8*%
X92555000Y-75478800D03*
%TO.P,U3,10*%
%TO.N,N_PD1_OUT7*%
X93825000Y-75478800D03*
%TO.P,U3,9*%
%TO.N,N_PD1_OUT6*%
X95095000Y-75478800D03*
%TO.P,U3,8*%
%TO.N,N_PD1_OUT5*%
X96365000Y-75478800D03*
%TO.P,U3,7*%
%TO.N,N_PD1_OUT4*%
X97635000Y-75478800D03*
%TO.P,U3,6*%
%TO.N,N_PD1_OUT3*%
X98905000Y-75478800D03*
%TO.P,U3,5*%
%TO.N,N_PD1_OUT2*%
X100175000Y-75478800D03*
%TO.P,U3,4*%
%TO.N,N_PD1_OUT1*%
X101445000Y-75478800D03*
%TO.P,U3,3*%
%TO.N,Net-(U3-Pad3)*%
X102715000Y-75478800D03*
%TO.P,U3,2*%
%TO.N,Net-(U3-Pad2)*%
X103985000Y-75478800D03*
%TO.P,U3,1*%
%TO.N,+10V*%
X105255000Y-75478800D03*
%TD*%
D17*
%TO.N,GND*%
X108552100Y-93000000D03*
%TO.N,-10V*%
X104062200Y-82657600D03*
%TO.N,VCC_LOGIC*%
X85500100Y-97864000D03*
%TO.N,MUX_SELECT*%
X92632200Y-82421900D03*
%TO.N,/PD_MUX_OUT1*%
X104195900Y-106550000D03*
X106152400Y-84521200D03*
%TO.N,N_PD1_OUT5*%
X96563500Y-72975900D03*
%TO.N,N_PD1_OUT10*%
X96244100Y-82746900D03*
%TO.N,S_PD1_OUT8*%
X97752500Y-94784700D03*
%TO.N,S_PD1_OUT7*%
X97031600Y-94040100D03*
%TO.N,S_PD1_OUT6*%
X102341800Y-94268300D03*
%TO.N,S_PD1_OUT2*%
X100851400Y-93365400D03*
%TO.N,S_PD1_OUT1*%
X103005900Y-93310600D03*
%TO.N,S_PD1_OUT9*%
X97696900Y-97100900D03*
%TO.N,S_PD1_OUT10*%
X97004900Y-97853000D03*
%TO.N,S_PD1_OUT12*%
X97631500Y-101302600D03*
%TO.N,S_PD1_OUT13*%
X98836700Y-101290000D03*
%TO.N,S_PD1_OUT14*%
X101391600Y-103015600D03*
%TD*%
D18*
%TO.N,GND*%
X113000000Y-70460000D02*
X111824700Y-70460000D01*
X91285100Y-76959900D02*
X91285000Y-76959800D01*
X91285000Y-88997800D02*
X90680300Y-88393100D01*
X90680300Y-88393100D02*
X90680300Y-77564700D01*
X90680300Y-77564700D02*
X91285100Y-76959900D01*
X111824700Y-70460000D02*
X97362800Y-70460000D01*
X97362800Y-70460000D02*
X94490200Y-73332600D01*
X94490200Y-73332600D02*
X94490200Y-76737400D01*
X94490200Y-76737400D02*
X94267700Y-76959900D01*
X94267700Y-76959900D02*
X91285100Y-76959900D01*
X91285000Y-75478800D02*
X91285000Y-73997800D01*
X87718900Y-67962800D02*
X91277800Y-67962800D01*
X91277800Y-67962800D02*
X94408000Y-64832600D01*
X94408000Y-64832600D02*
X94408000Y-63996600D01*
X94408000Y-63996600D02*
X95622000Y-62782600D01*
X95622000Y-62782600D02*
X104565700Y-62782600D01*
X104565700Y-62782600D02*
X104923900Y-63140800D01*
X104923900Y-63140800D02*
X104923900Y-65648000D01*
X104923900Y-65648000D02*
X102835600Y-67736300D01*
X102835600Y-67736300D02*
X97546500Y-67736300D01*
X97546500Y-67736300D02*
X91285000Y-73997800D01*
X91285000Y-76219300D02*
X91285000Y-75478800D01*
X91285000Y-76219300D02*
X91285000Y-76959800D01*
X91285000Y-90478800D02*
X91285000Y-88997800D01*
X107338000Y-79631500D02*
X108288300Y-79631500D01*
X113000000Y-80460000D02*
X109116800Y-80460000D01*
X109116800Y-80460000D02*
X108288300Y-79631500D01*
X113587700Y-80460000D02*
X113000000Y-80460000D01*
X113587700Y-80460000D02*
X114175300Y-80460000D01*
X113000000Y-83000000D02*
X114175300Y-83000000D01*
X114175300Y-80460000D02*
X114175300Y-80092600D01*
X114175300Y-80092600D02*
X114983200Y-79284700D01*
X114983200Y-79284700D02*
X116029000Y-79284700D01*
X116029000Y-79284700D02*
X116715400Y-79971100D01*
X116715400Y-79971100D02*
X116715400Y-80949400D01*
X116715400Y-80949400D02*
X115840100Y-81824700D01*
X115840100Y-81824700D02*
X114983200Y-81824700D01*
X114983200Y-81824700D02*
X114175300Y-82632600D01*
X114175300Y-82632600D02*
X114175300Y-83000000D01*
X108353200Y-94637900D02*
X113000000Y-99284700D01*
X108270300Y-94637900D02*
X108353200Y-94637900D01*
X108353200Y-94637900D02*
X108353200Y-93198900D01*
X108353200Y-93198900D02*
X108552100Y-93000000D01*
X108252300Y-92581100D02*
X108252300Y-92700200D01*
X108252300Y-92700200D02*
X108552100Y-93000000D01*
X107302000Y-92581100D02*
X108252300Y-92581100D01*
X107320000Y-94637900D02*
X108270300Y-94637900D01*
X113000000Y-103000000D02*
X113000000Y-100460000D01*
X113000000Y-100460000D02*
X113000000Y-99284700D01*
X107338000Y-79631500D02*
X107338000Y-78556200D01*
X107338000Y-78556200D02*
X107335000Y-78553200D01*
X107335000Y-78553200D02*
X107335000Y-77564600D01*
X113000000Y-90460000D02*
X113000000Y-93000000D01*
%TO.N,+10V*%
X105255000Y-76959800D02*
X100875600Y-81339200D01*
X100875600Y-81339200D02*
X96335700Y-81339200D01*
X96335700Y-81339200D02*
X94490200Y-83184700D01*
X94490200Y-83184700D02*
X94490200Y-91789200D01*
X94490200Y-91789200D02*
X95786800Y-93085800D01*
X95786800Y-93085800D02*
X97111100Y-93085800D01*
X97111100Y-93085800D02*
X99917200Y-95891900D01*
X99917200Y-95891900D02*
X101744000Y-95891900D01*
X101744000Y-95891900D02*
X104678500Y-92957400D01*
X104678500Y-92957400D02*
X104678500Y-92536300D01*
X104678500Y-92536300D02*
X105255000Y-91959800D01*
X99917200Y-95891900D02*
X99562200Y-96246900D01*
X99562200Y-96246900D02*
X99562200Y-104940500D01*
X99562200Y-104940500D02*
X95678000Y-108824700D01*
X95678000Y-110000000D02*
X95678000Y-108824700D01*
X105255000Y-75478800D02*
X105255000Y-76959800D01*
X105255000Y-90478800D02*
X105255000Y-91959800D01*
X105255000Y-75478800D02*
X105970500Y-75478800D01*
X105970500Y-75478800D02*
X106384700Y-75064600D01*
X107335000Y-75064600D02*
X106384700Y-75064600D01*
X107302000Y-90081100D02*
X106351700Y-90081100D01*
X105255000Y-90478800D02*
X105954000Y-90478800D01*
X105954000Y-90478800D02*
X106351700Y-90081100D01*
%TO.N,-10V*%
X107320000Y-97137900D02*
X106369700Y-97137900D01*
X103985000Y-99521200D02*
X103985000Y-98040200D01*
X103985000Y-98040200D02*
X105467400Y-98040200D01*
X105467400Y-98040200D02*
X106369700Y-97137900D01*
X98218000Y-108824700D02*
X103985000Y-103057700D01*
X103985000Y-103057700D02*
X103985000Y-99521200D01*
X98218000Y-110000000D02*
X98218000Y-108824700D01*
X104062200Y-82657600D02*
X105861600Y-82657600D01*
X105861600Y-82657600D02*
X106387700Y-82131500D01*
X103985000Y-83040200D02*
X104062200Y-82963000D01*
X104062200Y-82963000D02*
X104062200Y-82657600D01*
X107338000Y-82131500D02*
X106387700Y-82131500D01*
X103985000Y-84521200D02*
X103985000Y-83040200D01*
%TO.N,PD_MUX_OUT*%
X103298000Y-110000000D02*
X104473300Y-110000000D01*
X111204000Y-109985000D02*
X111204000Y-111060300D01*
X111204000Y-111060300D02*
X105533600Y-111060300D01*
X105533600Y-111060300D02*
X104473300Y-110000000D01*
%TO.N,VCC_LOGIC*%
X85818900Y-66637100D02*
X85667600Y-66637100D01*
X85667600Y-66637100D02*
X85214200Y-67090500D01*
X85214200Y-67090500D02*
X85214200Y-97578100D01*
X85214200Y-97578100D02*
X85500100Y-97864000D01*
X85818900Y-65575200D02*
X85818900Y-66637100D01*
%TO.N,ADDRESSA3*%
X88745000Y-73997800D02*
X96517900Y-66224900D01*
X96517900Y-66224900D02*
X100705100Y-66224900D01*
X100705100Y-66224900D02*
X102122700Y-64807300D01*
X102122700Y-64807300D02*
X102122700Y-64440000D01*
X103298000Y-64440000D02*
X102122700Y-64440000D01*
X88745000Y-75478800D02*
X88745000Y-73997800D01*
X88745000Y-76219300D02*
X88745000Y-75478800D01*
X88745000Y-76219300D02*
X88745000Y-76959800D01*
X88745000Y-90478800D02*
X88745000Y-88997800D01*
X88745000Y-76959800D02*
X89349700Y-77564500D01*
X89349700Y-77564500D02*
X89349700Y-88393100D01*
X89349700Y-88393100D02*
X88745000Y-88997800D01*
%TO.N,ADDRESSA2*%
X100758000Y-64440000D02*
X99582700Y-64440000D01*
X88745000Y-84521200D02*
X88745000Y-83040200D01*
X88745000Y-83040200D02*
X88140200Y-82435400D01*
X88140200Y-82435400D02*
X88140200Y-73913600D01*
X88140200Y-73913600D02*
X96438500Y-65615300D01*
X96438500Y-65615300D02*
X98774800Y-65615300D01*
X98774800Y-65615300D02*
X99582700Y-64807400D01*
X99582700Y-64807400D02*
X99582700Y-64440000D01*
X88745000Y-85261700D02*
X88745000Y-84521200D01*
X88745000Y-85261700D02*
X88745000Y-86002200D01*
X88745000Y-98040200D02*
X88140300Y-97435500D01*
X88140300Y-97435500D02*
X88140300Y-86606900D01*
X88140300Y-86606900D02*
X88745000Y-86002200D01*
X88745000Y-99521200D02*
X88745000Y-98040200D01*
%TO.N,ADDRESSA1*%
X98218000Y-64440000D02*
X99418000Y-63240000D01*
X99418000Y-63240000D02*
X104318500Y-63240000D01*
X104318500Y-63240000D02*
X104473400Y-63394900D01*
X104473400Y-63394900D02*
X104473400Y-65461600D01*
X104473400Y-65461600D02*
X103023300Y-66911700D01*
X103023300Y-66911700D02*
X96619100Y-66911700D01*
X96619100Y-66911700D02*
X89410200Y-74120600D01*
X89410200Y-74120600D02*
X89410200Y-76988100D01*
X89410200Y-76988100D02*
X90015000Y-77592900D01*
X90015000Y-77592900D02*
X90015000Y-84521200D01*
X90015000Y-99521200D02*
X90015000Y-98040200D01*
X90015000Y-84521200D02*
X90015000Y-88364700D01*
X90015000Y-88364700D02*
X90619700Y-88969400D01*
X90619700Y-88969400D02*
X90619700Y-97435500D01*
X90619700Y-97435500D02*
X90015000Y-98040200D01*
%TO.N,ADDRESSA0*%
X95678000Y-65615300D02*
X87633200Y-73660100D01*
X87633200Y-73660100D02*
X87633200Y-100365400D01*
X87633200Y-100365400D02*
X88270000Y-101002200D01*
X88270000Y-101002200D02*
X91285000Y-101002200D01*
X91285000Y-99521200D02*
X91285000Y-101002200D01*
X95678000Y-64440000D02*
X95678000Y-65615300D01*
X91285000Y-99521200D02*
X91285000Y-98040200D01*
X91285000Y-84521200D02*
X91285000Y-86002200D01*
X91285000Y-86002200D02*
X91889700Y-86606900D01*
X91889700Y-86606900D02*
X91889700Y-97435500D01*
X91889700Y-97435500D02*
X91285000Y-98040200D01*
%TO.N,MUX_SELECT*%
X92555000Y-84521200D02*
X92555000Y-83040200D01*
X92555000Y-83040200D02*
X92632200Y-82963000D01*
X92632200Y-82963000D02*
X92632200Y-82421900D01*
X86768900Y-67962800D02*
X86768900Y-66900900D01*
X93138000Y-64440000D02*
X91962700Y-64440000D01*
X91962700Y-64440000D02*
X89501800Y-66900900D01*
X89501800Y-66900900D02*
X86768900Y-66900900D01*
%TO.N,/PD_MUX_OUT1*%
X105255000Y-84521200D02*
X106152400Y-84521200D01*
X104195900Y-106550000D02*
X105769000Y-106550000D01*
X105769000Y-106550000D02*
X109204000Y-109985000D01*
%TO.N,/PD_MUX_OUT2*%
X105255000Y-99521200D02*
X105255000Y-101002200D01*
X105255000Y-101002200D02*
X113204000Y-108951200D01*
X113204000Y-108951200D02*
X113204000Y-109985000D01*
%TO.N,N_PD1_OUT1*%
X101445000Y-73997800D02*
X101904000Y-73538800D01*
X101904000Y-73538800D02*
X108537500Y-73538800D01*
X108537500Y-73538800D02*
X110978200Y-75979500D01*
X110978200Y-75979500D02*
X121912400Y-75979500D01*
X121912400Y-75979500D02*
X124335300Y-73556600D01*
X124335300Y-73556600D02*
X124335300Y-72443200D01*
X124335300Y-72443200D02*
X123527400Y-71635300D01*
X123527400Y-71635300D02*
X123160000Y-71635300D01*
X123160000Y-70460000D02*
X123160000Y-71635300D01*
X101445000Y-75478800D02*
X101445000Y-73997800D01*
%TO.N,N_PD1_OUT2*%
X100175000Y-73997800D02*
X101089900Y-73082900D01*
X101089900Y-73082900D02*
X108939800Y-73082900D01*
X108939800Y-73082900D02*
X111386100Y-75529200D01*
X111386100Y-75529200D02*
X120630800Y-75529200D01*
X120630800Y-75529200D02*
X123160000Y-73000000D01*
X100175000Y-75478800D02*
X100175000Y-73997800D01*
%TO.N,N_PD1_OUT3*%
X98905000Y-73997800D02*
X100270200Y-72632600D01*
X100270200Y-72632600D02*
X109126500Y-72632600D01*
X109126500Y-72632600D02*
X111572800Y-75078900D01*
X111572800Y-75078900D02*
X120207500Y-75078900D01*
X120207500Y-75078900D02*
X121795300Y-73491100D01*
X121795300Y-73491100D02*
X121795300Y-72443200D01*
X121795300Y-72443200D02*
X120987400Y-71635300D01*
X120987400Y-71635300D02*
X120620000Y-71635300D01*
X120620000Y-70460000D02*
X120620000Y-71635300D01*
X98905000Y-75478800D02*
X98905000Y-73997800D01*
%TO.N,N_PD1_OUT4*%
X97635000Y-73997800D02*
X99450500Y-72182300D01*
X99450500Y-72182300D02*
X109313100Y-72182300D01*
X109313100Y-72182300D02*
X111759400Y-74628600D01*
X111759400Y-74628600D02*
X118183500Y-74628600D01*
X118183500Y-74628600D02*
X119444700Y-73367400D01*
X119444700Y-73367400D02*
X119444700Y-73000000D01*
X120620000Y-73000000D02*
X119444700Y-73000000D01*
X97635000Y-75478800D02*
X97635000Y-73997800D01*
%TO.N,N_PD1_OUT5*%
X96365000Y-75478800D02*
X96365000Y-73997800D01*
X96365000Y-73997800D02*
X96563500Y-73799300D01*
X96563500Y-73799300D02*
X96563500Y-72975900D01*
%TO.N,N_PD1_OUT6*%
X118080000Y-73000000D02*
X116904700Y-73000000D01*
X95095000Y-75478800D02*
X95095000Y-73997800D01*
X95095000Y-73997800D02*
X95095000Y-73396800D01*
X95095000Y-73396800D02*
X96761900Y-71729900D01*
X96761900Y-71729900D02*
X109501200Y-71729900D01*
X109501200Y-71729900D02*
X111949600Y-74178300D01*
X111949600Y-74178300D02*
X116029300Y-74178300D01*
X116029300Y-74178300D02*
X116904700Y-73302900D01*
X116904700Y-73302900D02*
X116904700Y-73000000D01*
%TO.N,N_PD1_OUT7*%
X114364700Y-70460000D02*
X114364700Y-70092600D01*
X114364700Y-70092600D02*
X113556800Y-69284700D01*
X113556800Y-69284700D02*
X97901200Y-69284700D01*
X97901200Y-69284700D02*
X93825000Y-73360900D01*
X93825000Y-73360900D02*
X93825000Y-73997800D01*
X115540000Y-70460000D02*
X114364700Y-70460000D01*
X93825000Y-75478800D02*
X93825000Y-73997800D01*
%TO.N,N_PD1_OUT8*%
X115540000Y-71824700D02*
X115907400Y-71824700D01*
X115907400Y-71824700D02*
X116715300Y-71016800D01*
X116715300Y-71016800D02*
X116715300Y-69921700D01*
X116715300Y-69921700D02*
X115618700Y-68825100D01*
X115618700Y-68825100D02*
X97723900Y-68825100D01*
X97723900Y-68825100D02*
X92555000Y-73994000D01*
X92555000Y-73994000D02*
X92555000Y-73997800D01*
X115540000Y-73000000D02*
X115540000Y-71824700D01*
X92555000Y-75478800D02*
X92555000Y-73997800D01*
%TO.N,N_PD1_OUT16*%
X102715000Y-84521200D02*
X102715000Y-86002200D01*
X102715000Y-86002200D02*
X112537800Y-86002200D01*
X112537800Y-86002200D02*
X115540000Y-83000000D01*
%TO.N,N_PD1_OUT15*%
X101445000Y-84521200D02*
X101445000Y-83040200D01*
X101445000Y-83040200D02*
X103429100Y-81056100D01*
X103429100Y-81056100D02*
X110437600Y-81056100D01*
X110437600Y-81056100D02*
X111034700Y-81653200D01*
X111034700Y-81653200D02*
X114346800Y-81653200D01*
X114346800Y-81653200D02*
X115540000Y-80460000D01*
%TO.N,N_PD1_OUT14*%
X118080000Y-83000000D02*
X116904700Y-83000000D01*
X100175000Y-84521200D02*
X100175000Y-86002200D01*
X100175000Y-86002200D02*
X100627300Y-86454500D01*
X100627300Y-86454500D02*
X113817500Y-86454500D01*
X113817500Y-86454500D02*
X116904700Y-83367300D01*
X116904700Y-83367300D02*
X116904700Y-83000000D01*
%TO.N,N_PD1_OUT13*%
X98905000Y-84521200D02*
X98905000Y-83040200D01*
X98905000Y-83040200D02*
X99826600Y-83040200D01*
X99826600Y-83040200D02*
X106377600Y-76489200D01*
X106377600Y-76489200D02*
X108180800Y-76489200D01*
X108180800Y-76489200D02*
X110453000Y-78761400D01*
X110453000Y-78761400D02*
X116381400Y-78761400D01*
X116381400Y-78761400D02*
X118080000Y-80460000D01*
%TO.N,N_PD1_OUT12*%
X119444700Y-83000000D02*
X119444700Y-83367300D01*
X119444700Y-83367300D02*
X115903800Y-86908200D01*
X115903800Y-86908200D02*
X98541000Y-86908200D01*
X98541000Y-86908200D02*
X97635000Y-86002200D01*
X120620000Y-83000000D02*
X119444700Y-83000000D01*
X97635000Y-84521200D02*
X97635000Y-86002200D01*
%TO.N,N_PD1_OUT10*%
X95095000Y-84521200D02*
X95095000Y-83896000D01*
X95095000Y-83896000D02*
X96244100Y-82746900D01*
%TO.N,N_PD1_OUT11*%
X123160000Y-83000000D02*
X121984700Y-83000000D01*
X96365000Y-84521200D02*
X96365000Y-86002200D01*
X96365000Y-86002200D02*
X97721400Y-87358600D01*
X97721400Y-87358600D02*
X117993400Y-87358600D01*
X117993400Y-87358600D02*
X121984700Y-83367300D01*
X121984700Y-83367300D02*
X121984700Y-83000000D01*
%TO.N,N_PD1_OUT9*%
X93825000Y-83040200D02*
X99905400Y-76959800D01*
X99905400Y-76959800D02*
X101859200Y-76959800D01*
X101859200Y-76959800D02*
X102090500Y-76728500D01*
X102090500Y-76728500D02*
X102090500Y-74160400D01*
X102090500Y-74160400D02*
X102261700Y-73989200D01*
X102261700Y-73989200D02*
X108254200Y-73989200D01*
X108254200Y-73989200D02*
X112459700Y-78194700D01*
X112459700Y-78194700D02*
X120086700Y-78194700D01*
X120086700Y-78194700D02*
X121984700Y-80092700D01*
X121984700Y-80092700D02*
X121984700Y-80460000D01*
X123160000Y-80460000D02*
X121984700Y-80460000D01*
X93825000Y-84521200D02*
X93825000Y-83040200D01*
%TO.N,S_PD1_OUT8*%
X92555000Y-91959800D02*
X95379900Y-94784700D01*
X95379900Y-94784700D02*
X97752500Y-94784700D01*
X92555000Y-90478800D02*
X92555000Y-91959800D01*
%TO.N,S_PD1_OUT7*%
X93825000Y-91959800D02*
X95905300Y-94040100D01*
X95905300Y-94040100D02*
X97031600Y-94040100D01*
X93825000Y-90478800D02*
X93825000Y-91959800D01*
%TO.N,S_PD1_OUT6*%
X95095000Y-90478800D02*
X95095000Y-91117900D01*
X95095000Y-91117900D02*
X96387300Y-92410200D01*
X96387300Y-92410200D02*
X98670700Y-92410200D01*
X98670700Y-92410200D02*
X100528800Y-94268300D01*
X100528800Y-94268300D02*
X102341800Y-94268300D01*
%TO.N,S_PD1_OUT5*%
X118080000Y-90460000D02*
X116904700Y-90460000D01*
X96365000Y-90478800D02*
X96365000Y-88997800D01*
X96365000Y-88997800D02*
X97268200Y-88094600D01*
X97268200Y-88094600D02*
X114906600Y-88094600D01*
X114906600Y-88094600D02*
X116904700Y-90092700D01*
X116904700Y-90092700D02*
X116904700Y-90460000D01*
%TO.N,S_PD1_OUT4*%
X97635000Y-91959800D02*
X99379700Y-91959800D01*
X99379700Y-91959800D02*
X99540000Y-91799500D01*
X99540000Y-91799500D02*
X99540000Y-89172900D01*
X99540000Y-89172900D02*
X99715100Y-88997800D01*
X99715100Y-88997800D02*
X108053800Y-88997800D01*
X108053800Y-88997800D02*
X111763500Y-92707500D01*
X111763500Y-92707500D02*
X111763500Y-93943800D01*
X111763500Y-93943800D02*
X112019200Y-94199500D01*
X112019200Y-94199500D02*
X118612600Y-94199500D01*
X118612600Y-94199500D02*
X119444700Y-93367400D01*
X119444700Y-93367400D02*
X119444700Y-93000000D01*
X120620000Y-93000000D02*
X119444700Y-93000000D01*
X97635000Y-90478800D02*
X97635000Y-91959800D01*
%TO.N,S_PD1_OUT3*%
X120620000Y-90460000D02*
X119444700Y-90460000D01*
X98905000Y-90478800D02*
X98905000Y-88997800D01*
X98905000Y-88997800D02*
X99355300Y-88547500D01*
X99355300Y-88547500D02*
X112764700Y-88547500D01*
X112764700Y-88547500D02*
X114364600Y-90147400D01*
X114364600Y-90147400D02*
X114364600Y-91037700D01*
X114364600Y-91037700D02*
X114962200Y-91635300D01*
X114962200Y-91635300D02*
X118636800Y-91635300D01*
X118636800Y-91635300D02*
X119444700Y-90827400D01*
X119444700Y-90827400D02*
X119444700Y-90460000D01*
%TO.N,S_PD1_OUT2*%
X100175000Y-90478800D02*
X100175000Y-92689000D01*
X100175000Y-92689000D02*
X100851400Y-93365400D01*
%TO.N,S_PD1_OUT1*%
X101445000Y-91959800D02*
X101655100Y-91959800D01*
X101655100Y-91959800D02*
X103005900Y-93310600D01*
X101445000Y-90478800D02*
X101445000Y-91959800D01*
%TO.N,S_PD1_OUT9*%
X93825000Y-98040200D02*
X94764300Y-97100900D01*
X94764300Y-97100900D02*
X97696900Y-97100900D01*
X93825000Y-99521200D02*
X93825000Y-98040200D01*
%TO.N,S_PD1_OUT11*%
X123160000Y-103000000D02*
X121984700Y-103000000D01*
X96365000Y-99521200D02*
X96365000Y-103230700D01*
X96365000Y-103230700D02*
X94481000Y-105114700D01*
X94481000Y-105114700D02*
X94481000Y-110509300D01*
X94481000Y-110509300D02*
X95500500Y-111528800D01*
X95500500Y-111528800D02*
X113823200Y-111528800D01*
X113823200Y-111528800D02*
X121984700Y-103367300D01*
X121984700Y-103367300D02*
X121984700Y-103000000D01*
%TO.N,S_PD1_OUT10*%
X95095000Y-98040200D02*
X96817700Y-98040200D01*
X96817700Y-98040200D02*
X97004900Y-97853000D01*
X95095000Y-99521200D02*
X95095000Y-98040200D01*
%TO.N,S_PD1_OUT12*%
X97635000Y-99521200D02*
X97635000Y-101002200D01*
X97635000Y-101002200D02*
X97631500Y-101005700D01*
X97631500Y-101005700D02*
X97631500Y-101302600D01*
%TO.N,S_PD1_OUT13*%
X98905000Y-101002200D02*
X98905000Y-101221700D01*
X98905000Y-101221700D02*
X98836700Y-101290000D01*
X98905000Y-99521200D02*
X98905000Y-101002200D01*
%TO.N,S_PD1_OUT14*%
X100175000Y-99521200D02*
X100175000Y-101799000D01*
X100175000Y-101799000D02*
X101391600Y-103015600D01*
%TO.N,S_PD1_OUT15*%
X101445000Y-98040200D02*
X105409900Y-94075300D01*
X105409900Y-94075300D02*
X105409900Y-92615100D01*
X105409900Y-92615100D02*
X106519300Y-91505700D01*
X106519300Y-91505700D02*
X108085500Y-91505700D01*
X108085500Y-91505700D02*
X115540000Y-98960200D01*
X115540000Y-98960200D02*
X115540000Y-99284700D01*
X101445000Y-99521200D02*
X101445000Y-98040200D01*
X115540000Y-100460000D02*
X115540000Y-99284700D01*
%TO.N,S_PD1_OUT16*%
X115540000Y-103000000D02*
X114364700Y-103000000D01*
X102715000Y-99521200D02*
X102715000Y-98040200D01*
X102715000Y-98040200D02*
X104692700Y-96062500D01*
X104692700Y-96062500D02*
X108150100Y-96062500D01*
X108150100Y-96062500D02*
X111739300Y-99651700D01*
X111739300Y-99651700D02*
X111739300Y-103941900D01*
X111739300Y-103941900D02*
X111972700Y-104175300D01*
X111972700Y-104175300D02*
X113997500Y-104175300D01*
X113997500Y-104175300D02*
X114364700Y-103808100D01*
X114364700Y-103808100D02*
X114364700Y-103000000D01*
%TO.N,/MUX_SELECT_INV*%
X87718900Y-64513300D02*
X85404700Y-64513300D01*
X85404700Y-64513300D02*
X84761000Y-65157000D01*
X84761000Y-65157000D02*
X84761000Y-98181100D01*
X84761000Y-98181100D02*
X88032400Y-101452500D01*
X88032400Y-101452500D02*
X92104700Y-101452500D01*
X92104700Y-101452500D02*
X92555000Y-101002200D01*
X92555000Y-99521200D02*
X92555000Y-101002200D01*
X87718900Y-65575200D02*
X87718900Y-64513300D01*
%TD*%
D19*
%TO.N,GND*%
G36*
X92191368Y-63286525D02*
G01*
X91984525Y-63493368D01*
X91855204Y-63686911D01*
X91813714Y-63690997D01*
X91670453Y-63734454D01*
X91538423Y-63805026D01*
X91454783Y-63873668D01*
X91422699Y-63899999D01*
X91398901Y-63928997D01*
X89186999Y-66140900D01*
X88636373Y-66140900D01*
X88636373Y-64838600D01*
X88624113Y-64714118D01*
X88587803Y-64594420D01*
X88528838Y-64484106D01*
X88473000Y-64416067D01*
X88467903Y-64364314D01*
X88424446Y-64221053D01*
X88353874Y-64089024D01*
X88258901Y-63973299D01*
X88143176Y-63878326D01*
X88011147Y-63807754D01*
X87867886Y-63764297D01*
X87756233Y-63753300D01*
X87718900Y-63749623D01*
X87681567Y-63753300D01*
X85442022Y-63753300D01*
X85404699Y-63749624D01*
X85367376Y-63753300D01*
X85367367Y-63753300D01*
X85255714Y-63764297D01*
X85112453Y-63807754D01*
X84980424Y-63878326D01*
X84864699Y-63973299D01*
X84840900Y-64002298D01*
X84250002Y-64593197D01*
X84220999Y-64616999D01*
X84165871Y-64684174D01*
X84126026Y-64732724D01*
X84055709Y-64864277D01*
X84055454Y-64864754D01*
X84011997Y-65008015D01*
X84001000Y-65119668D01*
X84001000Y-65119678D01*
X83997324Y-65157000D01*
X84001000Y-65194322D01*
X84001001Y-98143767D01*
X83997324Y-98181100D01*
X84001001Y-98218433D01*
X84011998Y-98330086D01*
X84015993Y-98343256D01*
X84055454Y-98473346D01*
X84126026Y-98605376D01*
X84197201Y-98692102D01*
X84221000Y-98721101D01*
X84249998Y-98744899D01*
X87468601Y-101963503D01*
X87492399Y-101992501D01*
X87608124Y-102087474D01*
X87740153Y-102158046D01*
X87883414Y-102201503D01*
X87995067Y-102212500D01*
X87995076Y-102212500D01*
X88032399Y-102216176D01*
X88069722Y-102212500D01*
X92067378Y-102212500D01*
X92104700Y-102216176D01*
X92142022Y-102212500D01*
X92142033Y-102212500D01*
X92253686Y-102201503D01*
X92396947Y-102158046D01*
X92528976Y-102087474D01*
X92644701Y-101992501D01*
X92668504Y-101963497D01*
X93065997Y-101566004D01*
X93095001Y-101542201D01*
X93189974Y-101426476D01*
X93260546Y-101294447D01*
X93273569Y-101251515D01*
X93301420Y-101266402D01*
X93421118Y-101302712D01*
X93545600Y-101314972D01*
X94104400Y-101314972D01*
X94228882Y-101302712D01*
X94348580Y-101266402D01*
X94458894Y-101207437D01*
X94460000Y-101206529D01*
X94461106Y-101207437D01*
X94571420Y-101266402D01*
X94691118Y-101302712D01*
X94815600Y-101314972D01*
X95374400Y-101314972D01*
X95498882Y-101302712D01*
X95605000Y-101270521D01*
X95605001Y-102915897D01*
X93970003Y-104550896D01*
X93940999Y-104574699D01*
X93885871Y-104641874D01*
X93846026Y-104690424D01*
X93791991Y-104791515D01*
X93775454Y-104822454D01*
X93731997Y-104965715D01*
X93721000Y-105077368D01*
X93721000Y-105077378D01*
X93717324Y-105114700D01*
X93721000Y-105152023D01*
X93721001Y-108513382D01*
X93423750Y-108515000D01*
X93265000Y-108673750D01*
X93265000Y-109873000D01*
X93285000Y-109873000D01*
X93285000Y-110127000D01*
X93265000Y-110127000D01*
X93265000Y-110147000D01*
X93011000Y-110147000D01*
X93011000Y-110127000D01*
X91811750Y-110127000D01*
X91653000Y-110285750D01*
X91649928Y-110850000D01*
X91662188Y-110974482D01*
X91698498Y-111094180D01*
X91757463Y-111204494D01*
X91836815Y-111301185D01*
X91853649Y-111315000D01*
X83685000Y-111315000D01*
X83685000Y-109150000D01*
X91649928Y-109150000D01*
X91653000Y-109714250D01*
X91811750Y-109873000D01*
X93011000Y-109873000D01*
X93011000Y-108673750D01*
X92852250Y-108515000D01*
X92288000Y-108511928D01*
X92163518Y-108524188D01*
X92043820Y-108560498D01*
X91933506Y-108619463D01*
X91836815Y-108698815D01*
X91757463Y-108795506D01*
X91698498Y-108905820D01*
X91662188Y-109025518D01*
X91649928Y-109150000D01*
X83685000Y-109150000D01*
X83685000Y-63125000D01*
X92433107Y-63125000D01*
X92191368Y-63286525D01*
G37*
X92191368Y-63286525D02*
X91984525Y-63493368D01*
X91855204Y-63686911D01*
X91813714Y-63690997D01*
X91670453Y-63734454D01*
X91538423Y-63805026D01*
X91454783Y-63873668D01*
X91422699Y-63899999D01*
X91398901Y-63928997D01*
X89186999Y-66140900D01*
X88636373Y-66140900D01*
X88636373Y-64838600D01*
X88624113Y-64714118D01*
X88587803Y-64594420D01*
X88528838Y-64484106D01*
X88473000Y-64416067D01*
X88467903Y-64364314D01*
X88424446Y-64221053D01*
X88353874Y-64089024D01*
X88258901Y-63973299D01*
X88143176Y-63878326D01*
X88011147Y-63807754D01*
X87867886Y-63764297D01*
X87756233Y-63753300D01*
X87718900Y-63749623D01*
X87681567Y-63753300D01*
X85442022Y-63753300D01*
X85404699Y-63749624D01*
X85367376Y-63753300D01*
X85367367Y-63753300D01*
X85255714Y-63764297D01*
X85112453Y-63807754D01*
X84980424Y-63878326D01*
X84864699Y-63973299D01*
X84840900Y-64002298D01*
X84250002Y-64593197D01*
X84220999Y-64616999D01*
X84165871Y-64684174D01*
X84126026Y-64732724D01*
X84055709Y-64864277D01*
X84055454Y-64864754D01*
X84011997Y-65008015D01*
X84001000Y-65119668D01*
X84001000Y-65119678D01*
X83997324Y-65157000D01*
X84001000Y-65194322D01*
X84001001Y-98143767D01*
X83997324Y-98181100D01*
X84001001Y-98218433D01*
X84011998Y-98330086D01*
X84015993Y-98343256D01*
X84055454Y-98473346D01*
X84126026Y-98605376D01*
X84197201Y-98692102D01*
X84221000Y-98721101D01*
X84249998Y-98744899D01*
X87468601Y-101963503D01*
X87492399Y-101992501D01*
X87608124Y-102087474D01*
X87740153Y-102158046D01*
X87883414Y-102201503D01*
X87995067Y-102212500D01*
X87995076Y-102212500D01*
X88032399Y-102216176D01*
X88069722Y-102212500D01*
X92067378Y-102212500D01*
X92104700Y-102216176D01*
X92142022Y-102212500D01*
X92142033Y-102212500D01*
X92253686Y-102201503D01*
X92396947Y-102158046D01*
X92528976Y-102087474D01*
X92644701Y-101992501D01*
X92668504Y-101963497D01*
X93065997Y-101566004D01*
X93095001Y-101542201D01*
X93189974Y-101426476D01*
X93260546Y-101294447D01*
X93273569Y-101251515D01*
X93301420Y-101266402D01*
X93421118Y-101302712D01*
X93545600Y-101314972D01*
X94104400Y-101314972D01*
X94228882Y-101302712D01*
X94348580Y-101266402D01*
X94458894Y-101207437D01*
X94460000Y-101206529D01*
X94461106Y-101207437D01*
X94571420Y-101266402D01*
X94691118Y-101302712D01*
X94815600Y-101314972D01*
X95374400Y-101314972D01*
X95498882Y-101302712D01*
X95605000Y-101270521D01*
X95605001Y-102915897D01*
X93970003Y-104550896D01*
X93940999Y-104574699D01*
X93885871Y-104641874D01*
X93846026Y-104690424D01*
X93791991Y-104791515D01*
X93775454Y-104822454D01*
X93731997Y-104965715D01*
X93721000Y-105077368D01*
X93721000Y-105077378D01*
X93717324Y-105114700D01*
X93721000Y-105152023D01*
X93721001Y-108513382D01*
X93423750Y-108515000D01*
X93265000Y-108673750D01*
X93265000Y-109873000D01*
X93285000Y-109873000D01*
X93285000Y-110127000D01*
X93265000Y-110127000D01*
X93265000Y-110147000D01*
X93011000Y-110147000D01*
X93011000Y-110127000D01*
X91811750Y-110127000D01*
X91653000Y-110285750D01*
X91649928Y-110850000D01*
X91662188Y-110974482D01*
X91698498Y-111094180D01*
X91757463Y-111204494D01*
X91836815Y-111301185D01*
X91853649Y-111315000D01*
X83685000Y-111315000D01*
X83685000Y-109150000D01*
X91649928Y-109150000D01*
X91653000Y-109714250D01*
X91811750Y-109873000D01*
X93011000Y-109873000D01*
X93011000Y-108673750D01*
X92852250Y-108515000D01*
X92288000Y-108511928D01*
X92163518Y-108524188D01*
X92043820Y-108560498D01*
X91933506Y-108619463D01*
X91836815Y-108698815D01*
X91757463Y-108795506D01*
X91698498Y-108905820D01*
X91662188Y-109025518D01*
X91649928Y-109150000D01*
X83685000Y-109150000D01*
X83685000Y-63125000D01*
X92433107Y-63125000D01*
X92191368Y-63286525D01*
G36*
X107429000Y-92454100D02*
G01*
X107449000Y-92454100D01*
X107449000Y-92708100D01*
X107429000Y-92708100D01*
X107429000Y-93807350D01*
X107447000Y-93825350D01*
X107447000Y-94510900D01*
X108421250Y-94510900D01*
X108580000Y-94352150D01*
X108583072Y-93887900D01*
X108570812Y-93763418D01*
X108534502Y-93643720D01*
X108507211Y-93592662D01*
X108516502Y-93575280D01*
X108552812Y-93455582D01*
X108565072Y-93331100D01*
X108563267Y-93058268D01*
X114724142Y-99219144D01*
X114593368Y-99306525D01*
X114386525Y-99513368D01*
X114264805Y-99695534D01*
X114195178Y-99578645D01*
X114000269Y-99362412D01*
X113766920Y-99188359D01*
X113504099Y-99063175D01*
X113356890Y-99018524D01*
X113127000Y-99139845D01*
X113127000Y-100333000D01*
X113147000Y-100333000D01*
X113147000Y-100587000D01*
X113127000Y-100587000D01*
X113127000Y-102873000D01*
X113147000Y-102873000D01*
X113147000Y-103127000D01*
X113127000Y-103127000D01*
X113127000Y-103147000D01*
X112873000Y-103147000D01*
X112873000Y-103127000D01*
X112853000Y-103127000D01*
X112853000Y-102873000D01*
X112873000Y-102873000D01*
X112873000Y-100587000D01*
X112853000Y-100587000D01*
X112853000Y-100333000D01*
X112873000Y-100333000D01*
X112873000Y-99139845D01*
X112643110Y-99018524D01*
X112495901Y-99063175D01*
X112311543Y-99150986D01*
X112279301Y-99111699D01*
X112250304Y-99087902D01*
X108713904Y-95551503D01*
X108690101Y-95522499D01*
X108578811Y-95431166D01*
X108583072Y-95387900D01*
X108580000Y-94923650D01*
X108421250Y-94764900D01*
X107447000Y-94764900D01*
X107447000Y-94784900D01*
X107193000Y-94784900D01*
X107193000Y-94764900D01*
X106218750Y-94764900D01*
X106060000Y-94923650D01*
X106057493Y-95302500D01*
X105257502Y-95302500D01*
X105920904Y-94639098D01*
X105949901Y-94615301D01*
X106044874Y-94499576D01*
X106101496Y-94393646D01*
X106218750Y-94510900D01*
X107193000Y-94510900D01*
X107193000Y-93411650D01*
X107175000Y-93393650D01*
X107175000Y-92708100D01*
X107155000Y-92708100D01*
X107155000Y-92454100D01*
X107175000Y-92454100D01*
X107175000Y-92434100D01*
X107429000Y-92434100D01*
X107429000Y-92454100D01*
G37*
X107429000Y-92454100D02*
X107449000Y-92454100D01*
X107449000Y-92708100D01*
X107429000Y-92708100D01*
X107429000Y-93807350D01*
X107447000Y-93825350D01*
X107447000Y-94510900D01*
X108421250Y-94510900D01*
X108580000Y-94352150D01*
X108583072Y-93887900D01*
X108570812Y-93763418D01*
X108534502Y-93643720D01*
X108507211Y-93592662D01*
X108516502Y-93575280D01*
X108552812Y-93455582D01*
X108565072Y-93331100D01*
X108563267Y-93058268D01*
X114724142Y-99219144D01*
X114593368Y-99306525D01*
X114386525Y-99513368D01*
X114264805Y-99695534D01*
X114195178Y-99578645D01*
X114000269Y-99362412D01*
X113766920Y-99188359D01*
X113504099Y-99063175D01*
X113356890Y-99018524D01*
X113127000Y-99139845D01*
X113127000Y-100333000D01*
X113147000Y-100333000D01*
X113147000Y-100587000D01*
X113127000Y-100587000D01*
X113127000Y-102873000D01*
X113147000Y-102873000D01*
X113147000Y-103127000D01*
X113127000Y-103127000D01*
X113127000Y-103147000D01*
X112873000Y-103147000D01*
X112873000Y-103127000D01*
X112853000Y-103127000D01*
X112853000Y-102873000D01*
X112873000Y-102873000D01*
X112873000Y-100587000D01*
X112853000Y-100587000D01*
X112853000Y-100333000D01*
X112873000Y-100333000D01*
X112873000Y-99139845D01*
X112643110Y-99018524D01*
X112495901Y-99063175D01*
X112311543Y-99150986D01*
X112279301Y-99111699D01*
X112250304Y-99087902D01*
X108713904Y-95551503D01*
X108690101Y-95522499D01*
X108578811Y-95431166D01*
X108583072Y-95387900D01*
X108580000Y-94923650D01*
X108421250Y-94764900D01*
X107447000Y-94764900D01*
X107447000Y-94784900D01*
X107193000Y-94784900D01*
X107193000Y-94764900D01*
X106218750Y-94764900D01*
X106060000Y-94923650D01*
X106057493Y-95302500D01*
X105257502Y-95302500D01*
X105920904Y-94639098D01*
X105949901Y-94615301D01*
X106044874Y-94499576D01*
X106101496Y-94393646D01*
X106218750Y-94510900D01*
X107193000Y-94510900D01*
X107193000Y-93411650D01*
X107175000Y-93393650D01*
X107175000Y-92708100D01*
X107155000Y-92708100D01*
X107155000Y-92454100D01*
X107175000Y-92454100D01*
X107175000Y-92434100D01*
X107429000Y-92434100D01*
X107429000Y-92454100D01*
G36*
X94524525Y-65386632D02*
G01*
X94678196Y-65540303D01*
X87122203Y-73096296D01*
X87093199Y-73120099D01*
X87056681Y-73164597D01*
X86998226Y-73235824D01*
X86962373Y-73302900D01*
X86927654Y-73367854D01*
X86884197Y-73511115D01*
X86873200Y-73622768D01*
X86873200Y-73622778D01*
X86869524Y-73660100D01*
X86873200Y-73697422D01*
X86873201Y-99218499D01*
X86241256Y-98586555D01*
X86304037Y-98523774D01*
X86417305Y-98354256D01*
X86495326Y-98165898D01*
X86535100Y-97965939D01*
X86535100Y-97762061D01*
X86495326Y-97562102D01*
X86417305Y-97373744D01*
X86304037Y-97204226D01*
X86159874Y-97060063D01*
X85990356Y-96946795D01*
X85974200Y-96940103D01*
X85974200Y-69337472D01*
X86098299Y-69337472D01*
X86222781Y-69325212D01*
X86293900Y-69303638D01*
X86365018Y-69325212D01*
X86489500Y-69337472D01*
X87048300Y-69337472D01*
X87172782Y-69325212D01*
X87243957Y-69303621D01*
X87313135Y-69324834D01*
X87433151Y-69334400D01*
X87591901Y-69175650D01*
X87591901Y-69029453D01*
X87637802Y-68943580D01*
X87674112Y-68823882D01*
X87686372Y-68699400D01*
X87686372Y-68089800D01*
X87845901Y-68089800D01*
X87845901Y-69175650D01*
X88004651Y-69334400D01*
X88124667Y-69324834D01*
X88244255Y-69288164D01*
X88354391Y-69228867D01*
X88450843Y-69149224D01*
X88529904Y-69052294D01*
X88588535Y-68941803D01*
X88624485Y-68821996D01*
X88636370Y-68697478D01*
X88633301Y-68248550D01*
X88474551Y-68089800D01*
X87845901Y-68089800D01*
X87686372Y-68089800D01*
X87686372Y-67815800D01*
X87845901Y-67815800D01*
X87845901Y-67835800D01*
X88474551Y-67835800D01*
X88633301Y-67677050D01*
X88633411Y-67660900D01*
X89464478Y-67660900D01*
X89501800Y-67664576D01*
X89539122Y-67660900D01*
X89539133Y-67660900D01*
X89650786Y-67649903D01*
X89794047Y-67606446D01*
X89926076Y-67535874D01*
X90041801Y-67440901D01*
X90065604Y-67411897D01*
X92037697Y-65439804D01*
X92191368Y-65593475D01*
X92434589Y-65755990D01*
X92704842Y-65867932D01*
X92991740Y-65925000D01*
X93284260Y-65925000D01*
X93571158Y-65867932D01*
X93841411Y-65755990D01*
X94084632Y-65593475D01*
X94291475Y-65386632D01*
X94408000Y-65212240D01*
X94524525Y-65386632D01*
G37*
X94524525Y-65386632D02*
X94678196Y-65540303D01*
X87122203Y-73096296D01*
X87093199Y-73120099D01*
X87056681Y-73164597D01*
X86998226Y-73235824D01*
X86962373Y-73302900D01*
X86927654Y-73367854D01*
X86884197Y-73511115D01*
X86873200Y-73622768D01*
X86873200Y-73622778D01*
X86869524Y-73660100D01*
X86873200Y-73697422D01*
X86873201Y-99218499D01*
X86241256Y-98586555D01*
X86304037Y-98523774D01*
X86417305Y-98354256D01*
X86495326Y-98165898D01*
X86535100Y-97965939D01*
X86535100Y-97762061D01*
X86495326Y-97562102D01*
X86417305Y-97373744D01*
X86304037Y-97204226D01*
X86159874Y-97060063D01*
X85990356Y-96946795D01*
X85974200Y-96940103D01*
X85974200Y-69337472D01*
X86098299Y-69337472D01*
X86222781Y-69325212D01*
X86293900Y-69303638D01*
X86365018Y-69325212D01*
X86489500Y-69337472D01*
X87048300Y-69337472D01*
X87172782Y-69325212D01*
X87243957Y-69303621D01*
X87313135Y-69324834D01*
X87433151Y-69334400D01*
X87591901Y-69175650D01*
X87591901Y-69029453D01*
X87637802Y-68943580D01*
X87674112Y-68823882D01*
X87686372Y-68699400D01*
X87686372Y-68089800D01*
X87845901Y-68089800D01*
X87845901Y-69175650D01*
X88004651Y-69334400D01*
X88124667Y-69324834D01*
X88244255Y-69288164D01*
X88354391Y-69228867D01*
X88450843Y-69149224D01*
X88529904Y-69052294D01*
X88588535Y-68941803D01*
X88624485Y-68821996D01*
X88636370Y-68697478D01*
X88633301Y-68248550D01*
X88474551Y-68089800D01*
X87845901Y-68089800D01*
X87686372Y-68089800D01*
X87686372Y-67815800D01*
X87845901Y-67815800D01*
X87845901Y-67835800D01*
X88474551Y-67835800D01*
X88633301Y-67677050D01*
X88633411Y-67660900D01*
X89464478Y-67660900D01*
X89501800Y-67664576D01*
X89539122Y-67660900D01*
X89539133Y-67660900D01*
X89650786Y-67649903D01*
X89794047Y-67606446D01*
X89926076Y-67535874D01*
X90041801Y-67440901D01*
X90065604Y-67411897D01*
X92037697Y-65439804D01*
X92191368Y-65593475D01*
X92434589Y-65755990D01*
X92704842Y-65867932D01*
X92991740Y-65925000D01*
X93284260Y-65925000D01*
X93571158Y-65867932D01*
X93841411Y-65755990D01*
X94084632Y-65593475D01*
X94291475Y-65386632D01*
X94408000Y-65212240D01*
X94524525Y-65386632D01*
G36*
X111999731Y-89362412D02*
G01*
X111804822Y-89578645D01*
X111655843Y-89828748D01*
X111558519Y-90103109D01*
X111679186Y-90333000D01*
X112873000Y-90333000D01*
X112873000Y-90313000D01*
X113127000Y-90313000D01*
X113127000Y-90333000D01*
X113147000Y-90333000D01*
X113147000Y-90587000D01*
X113127000Y-90587000D01*
X113127000Y-92873000D01*
X113147000Y-92873000D01*
X113147000Y-93127000D01*
X113127000Y-93127000D01*
X113127000Y-93147000D01*
X112873000Y-93147000D01*
X112873000Y-93127000D01*
X112853000Y-93127000D01*
X112853000Y-92873000D01*
X112873000Y-92873000D01*
X112873000Y-90587000D01*
X111679186Y-90587000D01*
X111558519Y-90816891D01*
X111655843Y-91091252D01*
X111804822Y-91341355D01*
X111981626Y-91537502D01*
X111905820Y-91560498D01*
X111795506Y-91619463D01*
X111770657Y-91639856D01*
X109438301Y-89307500D01*
X112073350Y-89307500D01*
X111999731Y-89362412D01*
G37*
X111999731Y-89362412D02*
X111804822Y-89578645D01*
X111655843Y-89828748D01*
X111558519Y-90103109D01*
X111679186Y-90333000D01*
X112873000Y-90333000D01*
X112873000Y-90313000D01*
X113127000Y-90313000D01*
X113127000Y-90333000D01*
X113147000Y-90333000D01*
X113147000Y-90587000D01*
X113127000Y-90587000D01*
X113127000Y-92873000D01*
X113147000Y-92873000D01*
X113147000Y-93127000D01*
X113127000Y-93127000D01*
X113127000Y-93147000D01*
X112873000Y-93147000D01*
X112873000Y-93127000D01*
X112853000Y-93127000D01*
X112853000Y-92873000D01*
X112873000Y-92873000D01*
X112873000Y-90587000D01*
X111679186Y-90587000D01*
X111558519Y-90816891D01*
X111655843Y-91091252D01*
X111804822Y-91341355D01*
X111981626Y-91537502D01*
X111905820Y-91560498D01*
X111795506Y-91619463D01*
X111770657Y-91639856D01*
X109438301Y-89307500D01*
X112073350Y-89307500D01*
X111999731Y-89362412D01*
G36*
X110470900Y-82164202D02*
G01*
X110494699Y-82193201D01*
X110523697Y-82216999D01*
X110610423Y-82288174D01*
X110736758Y-82355702D01*
X110742453Y-82358746D01*
X110885714Y-82402203D01*
X110997367Y-82413200D01*
X110997377Y-82413200D01*
X111034700Y-82416876D01*
X111072023Y-82413200D01*
X111513361Y-82413200D01*
X111515000Y-82714250D01*
X111673750Y-82873000D01*
X112873000Y-82873000D01*
X112873000Y-82853000D01*
X113127000Y-82853000D01*
X113127000Y-82873000D01*
X113147000Y-82873000D01*
X113147000Y-83127000D01*
X113127000Y-83127000D01*
X113127000Y-83147000D01*
X112873000Y-83147000D01*
X112873000Y-83127000D01*
X111673750Y-83127000D01*
X111515000Y-83285750D01*
X111511928Y-83850000D01*
X111524188Y-83974482D01*
X111560498Y-84094180D01*
X111619463Y-84204494D01*
X111698815Y-84301185D01*
X111795506Y-84380537D01*
X111905820Y-84439502D01*
X112025518Y-84475812D01*
X112150000Y-84488072D01*
X112714250Y-84485000D01*
X112872998Y-84326252D01*
X112872998Y-84485000D01*
X112980198Y-84485000D01*
X112222999Y-85242200D01*
X106895111Y-85242200D01*
X106956337Y-85180974D01*
X107069605Y-85011456D01*
X107147626Y-84823098D01*
X107187400Y-84623139D01*
X107187400Y-84419261D01*
X107147626Y-84219302D01*
X107069605Y-84030944D01*
X106956337Y-83861426D01*
X106812174Y-83717263D01*
X106642656Y-83603995D01*
X106454298Y-83525974D01*
X106254339Y-83486200D01*
X106172472Y-83486200D01*
X106172472Y-83365500D01*
X106171320Y-83353806D01*
X106246270Y-83313744D01*
X106261815Y-83332685D01*
X106358506Y-83412037D01*
X106468820Y-83471002D01*
X106588518Y-83507312D01*
X106713000Y-83519572D01*
X107963000Y-83519572D01*
X108087482Y-83507312D01*
X108207180Y-83471002D01*
X108317494Y-83412037D01*
X108414185Y-83332685D01*
X108493537Y-83235994D01*
X108552502Y-83125680D01*
X108588812Y-83005982D01*
X108601072Y-82881500D01*
X108601072Y-81816100D01*
X110122799Y-81816100D01*
X110470900Y-82164202D01*
G37*
X110470900Y-82164202D02*
X110494699Y-82193201D01*
X110523697Y-82216999D01*
X110610423Y-82288174D01*
X110736758Y-82355702D01*
X110742453Y-82358746D01*
X110885714Y-82402203D01*
X110997367Y-82413200D01*
X110997377Y-82413200D01*
X111034700Y-82416876D01*
X111072023Y-82413200D01*
X111513361Y-82413200D01*
X111515000Y-82714250D01*
X111673750Y-82873000D01*
X112873000Y-82873000D01*
X112873000Y-82853000D01*
X113127000Y-82853000D01*
X113127000Y-82873000D01*
X113147000Y-82873000D01*
X113147000Y-83127000D01*
X113127000Y-83127000D01*
X113127000Y-83147000D01*
X112873000Y-83147000D01*
X112873000Y-83127000D01*
X111673750Y-83127000D01*
X111515000Y-83285750D01*
X111511928Y-83850000D01*
X111524188Y-83974482D01*
X111560498Y-84094180D01*
X111619463Y-84204494D01*
X111698815Y-84301185D01*
X111795506Y-84380537D01*
X111905820Y-84439502D01*
X112025518Y-84475812D01*
X112150000Y-84488072D01*
X112714250Y-84485000D01*
X112872998Y-84326252D01*
X112872998Y-84485000D01*
X112980198Y-84485000D01*
X112222999Y-85242200D01*
X106895111Y-85242200D01*
X106956337Y-85180974D01*
X107069605Y-85011456D01*
X107147626Y-84823098D01*
X107187400Y-84623139D01*
X107187400Y-84419261D01*
X107147626Y-84219302D01*
X107069605Y-84030944D01*
X106956337Y-83861426D01*
X106812174Y-83717263D01*
X106642656Y-83603995D01*
X106454298Y-83525974D01*
X106254339Y-83486200D01*
X106172472Y-83486200D01*
X106172472Y-83365500D01*
X106171320Y-83353806D01*
X106246270Y-83313744D01*
X106261815Y-83332685D01*
X106358506Y-83412037D01*
X106468820Y-83471002D01*
X106588518Y-83507312D01*
X106713000Y-83519572D01*
X107963000Y-83519572D01*
X108087482Y-83507312D01*
X108207180Y-83471002D01*
X108317494Y-83412037D01*
X108414185Y-83332685D01*
X108493537Y-83235994D01*
X108552502Y-83125680D01*
X108588812Y-83005982D01*
X108601072Y-82881500D01*
X108601072Y-81816100D01*
X110122799Y-81816100D01*
X110470900Y-82164202D01*
G36*
X124315000Y-69515651D02*
G01*
X124313475Y-69513368D01*
X124106632Y-69306525D01*
X123863411Y-69144010D01*
X123593158Y-69032068D01*
X123306260Y-68975000D01*
X123013740Y-68975000D01*
X122726842Y-69032068D01*
X122456589Y-69144010D01*
X122213368Y-69306525D01*
X122006525Y-69513368D01*
X121890000Y-69687760D01*
X121773475Y-69513368D01*
X121566632Y-69306525D01*
X121323411Y-69144010D01*
X121053158Y-69032068D01*
X120766260Y-68975000D01*
X120473740Y-68975000D01*
X120186842Y-69032068D01*
X119916589Y-69144010D01*
X119673368Y-69306525D01*
X119466525Y-69513368D01*
X119350000Y-69687760D01*
X119233475Y-69513368D01*
X119026632Y-69306525D01*
X118783411Y-69144010D01*
X118513158Y-69032068D01*
X118226260Y-68975000D01*
X117933740Y-68975000D01*
X117646842Y-69032068D01*
X117376589Y-69144010D01*
X117158281Y-69289879D01*
X116182504Y-68314102D01*
X116158701Y-68285099D01*
X116042976Y-68190126D01*
X115910947Y-68119554D01*
X115767686Y-68076097D01*
X115656033Y-68065100D01*
X115656022Y-68065100D01*
X115618700Y-68061424D01*
X115581378Y-68065100D01*
X97761222Y-68065100D01*
X97723899Y-68061424D01*
X97686576Y-68065100D01*
X97686567Y-68065100D01*
X97574914Y-68076097D01*
X97431653Y-68119554D01*
X97299624Y-68190126D01*
X97299622Y-68190127D01*
X97299623Y-68190127D01*
X97212896Y-68261301D01*
X97212892Y-68261305D01*
X97183899Y-68285099D01*
X97160105Y-68314092D01*
X92044003Y-73430196D01*
X92014999Y-73453999D01*
X91968126Y-73511115D01*
X91920026Y-73569724D01*
X91871961Y-73659647D01*
X91849454Y-73701754D01*
X91835460Y-73747887D01*
X91809849Y-73734126D01*
X91690230Y-73697558D01*
X91570750Y-73688100D01*
X91412000Y-73846850D01*
X91412000Y-75351800D01*
X91432000Y-75351800D01*
X91432000Y-75605800D01*
X91412000Y-75605800D01*
X91412000Y-77110750D01*
X91570750Y-77269500D01*
X91690230Y-77260042D01*
X91809849Y-77223474D01*
X91920036Y-77164272D01*
X91920105Y-77164215D01*
X91921106Y-77165037D01*
X92031420Y-77224002D01*
X92151118Y-77260312D01*
X92275600Y-77272572D01*
X92834400Y-77272572D01*
X92958882Y-77260312D01*
X93078580Y-77224002D01*
X93188894Y-77165037D01*
X93190000Y-77164129D01*
X93191106Y-77165037D01*
X93301420Y-77224002D01*
X93421118Y-77260312D01*
X93545600Y-77272572D01*
X94104400Y-77272572D01*
X94228882Y-77260312D01*
X94348580Y-77224002D01*
X94458894Y-77165037D01*
X94460000Y-77164129D01*
X94461106Y-77165037D01*
X94571420Y-77224002D01*
X94691118Y-77260312D01*
X94815600Y-77272572D01*
X95374400Y-77272572D01*
X95498882Y-77260312D01*
X95618580Y-77224002D01*
X95728894Y-77165037D01*
X95730000Y-77164129D01*
X95731106Y-77165037D01*
X95841420Y-77224002D01*
X95961118Y-77260312D01*
X96085600Y-77272572D01*
X96644400Y-77272572D01*
X96768882Y-77260312D01*
X96888580Y-77224002D01*
X96998894Y-77165037D01*
X97000000Y-77164129D01*
X97001106Y-77165037D01*
X97111420Y-77224002D01*
X97231118Y-77260312D01*
X97355600Y-77272572D01*
X97914400Y-77272572D01*
X98038882Y-77260312D01*
X98158580Y-77224002D01*
X98268894Y-77165037D01*
X98270000Y-77164129D01*
X98271106Y-77165037D01*
X98381420Y-77224002D01*
X98501118Y-77260312D01*
X98527489Y-77262909D01*
X93634555Y-82155844D01*
X93627426Y-82120002D01*
X93549405Y-81931644D01*
X93436137Y-81762126D01*
X93291974Y-81617963D01*
X93122456Y-81504695D01*
X92934098Y-81426674D01*
X92734139Y-81386900D01*
X92530261Y-81386900D01*
X92330302Y-81426674D01*
X92141944Y-81504695D01*
X91972426Y-81617963D01*
X91828263Y-81762126D01*
X91714995Y-81931644D01*
X91636974Y-82120002D01*
X91597200Y-82319961D01*
X91597200Y-82523839D01*
X91636974Y-82723798D01*
X91641628Y-82735034D01*
X91564400Y-82727428D01*
X91005600Y-82727428D01*
X90881118Y-82739688D01*
X90775000Y-82771879D01*
X90775000Y-77630222D01*
X90778676Y-77592899D01*
X90775000Y-77555576D01*
X90775000Y-77555567D01*
X90764003Y-77443914D01*
X90720546Y-77300653D01*
X90649974Y-77168624D01*
X90647599Y-77165729D01*
X90648894Y-77165037D01*
X90649895Y-77164215D01*
X90649964Y-77164272D01*
X90760151Y-77223474D01*
X90879770Y-77260042D01*
X90999250Y-77269500D01*
X91158000Y-77110750D01*
X91158000Y-75605800D01*
X91138000Y-75605800D01*
X91138000Y-75351800D01*
X91158000Y-75351800D01*
X91158000Y-73846850D01*
X90999250Y-73688100D01*
X90910474Y-73695128D01*
X96933902Y-67671700D01*
X102985978Y-67671700D01*
X103023300Y-67675376D01*
X103060622Y-67671700D01*
X103060633Y-67671700D01*
X103172286Y-67660703D01*
X103315547Y-67617246D01*
X103447576Y-67546674D01*
X103563301Y-67451701D01*
X103587104Y-67422697D01*
X104984403Y-66025399D01*
X105013401Y-66001601D01*
X105039732Y-65969517D01*
X105108374Y-65885877D01*
X105178946Y-65753847D01*
X105191064Y-65713898D01*
X105222403Y-65610586D01*
X105233400Y-65498933D01*
X105233400Y-65498924D01*
X105237076Y-65461601D01*
X105233400Y-65424278D01*
X105233400Y-63432225D01*
X105237076Y-63394900D01*
X105233400Y-63357575D01*
X105233400Y-63357567D01*
X105222403Y-63245914D01*
X105185725Y-63125000D01*
X124315000Y-63125000D01*
X124315000Y-69515651D01*
G37*
X124315000Y-69515651D02*
X124313475Y-69513368D01*
X124106632Y-69306525D01*
X123863411Y-69144010D01*
X123593158Y-69032068D01*
X123306260Y-68975000D01*
X123013740Y-68975000D01*
X122726842Y-69032068D01*
X122456589Y-69144010D01*
X122213368Y-69306525D01*
X122006525Y-69513368D01*
X121890000Y-69687760D01*
X121773475Y-69513368D01*
X121566632Y-69306525D01*
X121323411Y-69144010D01*
X121053158Y-69032068D01*
X120766260Y-68975000D01*
X120473740Y-68975000D01*
X120186842Y-69032068D01*
X119916589Y-69144010D01*
X119673368Y-69306525D01*
X119466525Y-69513368D01*
X119350000Y-69687760D01*
X119233475Y-69513368D01*
X119026632Y-69306525D01*
X118783411Y-69144010D01*
X118513158Y-69032068D01*
X118226260Y-68975000D01*
X117933740Y-68975000D01*
X117646842Y-69032068D01*
X117376589Y-69144010D01*
X117158281Y-69289879D01*
X116182504Y-68314102D01*
X116158701Y-68285099D01*
X116042976Y-68190126D01*
X115910947Y-68119554D01*
X115767686Y-68076097D01*
X115656033Y-68065100D01*
X115656022Y-68065100D01*
X115618700Y-68061424D01*
X115581378Y-68065100D01*
X97761222Y-68065100D01*
X97723899Y-68061424D01*
X97686576Y-68065100D01*
X97686567Y-68065100D01*
X97574914Y-68076097D01*
X97431653Y-68119554D01*
X97299624Y-68190126D01*
X97299622Y-68190127D01*
X97299623Y-68190127D01*
X97212896Y-68261301D01*
X97212892Y-68261305D01*
X97183899Y-68285099D01*
X97160105Y-68314092D01*
X92044003Y-73430196D01*
X92014999Y-73453999D01*
X91968126Y-73511115D01*
X91920026Y-73569724D01*
X91871961Y-73659647D01*
X91849454Y-73701754D01*
X91835460Y-73747887D01*
X91809849Y-73734126D01*
X91690230Y-73697558D01*
X91570750Y-73688100D01*
X91412000Y-73846850D01*
X91412000Y-75351800D01*
X91432000Y-75351800D01*
X91432000Y-75605800D01*
X91412000Y-75605800D01*
X91412000Y-77110750D01*
X91570750Y-77269500D01*
X91690230Y-77260042D01*
X91809849Y-77223474D01*
X91920036Y-77164272D01*
X91920105Y-77164215D01*
X91921106Y-77165037D01*
X92031420Y-77224002D01*
X92151118Y-77260312D01*
X92275600Y-77272572D01*
X92834400Y-77272572D01*
X92958882Y-77260312D01*
X93078580Y-77224002D01*
X93188894Y-77165037D01*
X93190000Y-77164129D01*
X93191106Y-77165037D01*
X93301420Y-77224002D01*
X93421118Y-77260312D01*
X93545600Y-77272572D01*
X94104400Y-77272572D01*
X94228882Y-77260312D01*
X94348580Y-77224002D01*
X94458894Y-77165037D01*
X94460000Y-77164129D01*
X94461106Y-77165037D01*
X94571420Y-77224002D01*
X94691118Y-77260312D01*
X94815600Y-77272572D01*
X95374400Y-77272572D01*
X95498882Y-77260312D01*
X95618580Y-77224002D01*
X95728894Y-77165037D01*
X95730000Y-77164129D01*
X95731106Y-77165037D01*
X95841420Y-77224002D01*
X95961118Y-77260312D01*
X96085600Y-77272572D01*
X96644400Y-77272572D01*
X96768882Y-77260312D01*
X96888580Y-77224002D01*
X96998894Y-77165037D01*
X97000000Y-77164129D01*
X97001106Y-77165037D01*
X97111420Y-77224002D01*
X97231118Y-77260312D01*
X97355600Y-77272572D01*
X97914400Y-77272572D01*
X98038882Y-77260312D01*
X98158580Y-77224002D01*
X98268894Y-77165037D01*
X98270000Y-77164129D01*
X98271106Y-77165037D01*
X98381420Y-77224002D01*
X98501118Y-77260312D01*
X98527489Y-77262909D01*
X93634555Y-82155844D01*
X93627426Y-82120002D01*
X93549405Y-81931644D01*
X93436137Y-81762126D01*
X93291974Y-81617963D01*
X93122456Y-81504695D01*
X92934098Y-81426674D01*
X92734139Y-81386900D01*
X92530261Y-81386900D01*
X92330302Y-81426674D01*
X92141944Y-81504695D01*
X91972426Y-81617963D01*
X91828263Y-81762126D01*
X91714995Y-81931644D01*
X91636974Y-82120002D01*
X91597200Y-82319961D01*
X91597200Y-82523839D01*
X91636974Y-82723798D01*
X91641628Y-82735034D01*
X91564400Y-82727428D01*
X91005600Y-82727428D01*
X90881118Y-82739688D01*
X90775000Y-82771879D01*
X90775000Y-77630222D01*
X90778676Y-77592899D01*
X90775000Y-77555576D01*
X90775000Y-77555567D01*
X90764003Y-77443914D01*
X90720546Y-77300653D01*
X90649974Y-77168624D01*
X90647599Y-77165729D01*
X90648894Y-77165037D01*
X90649895Y-77164215D01*
X90649964Y-77164272D01*
X90760151Y-77223474D01*
X90879770Y-77260042D01*
X90999250Y-77269500D01*
X91158000Y-77110750D01*
X91158000Y-75605800D01*
X91138000Y-75605800D01*
X91138000Y-75351800D01*
X91158000Y-75351800D01*
X91158000Y-73846850D01*
X90999250Y-73688100D01*
X90910474Y-73695128D01*
X96933902Y-67671700D01*
X102985978Y-67671700D01*
X103023300Y-67675376D01*
X103060622Y-67671700D01*
X103060633Y-67671700D01*
X103172286Y-67660703D01*
X103315547Y-67617246D01*
X103447576Y-67546674D01*
X103563301Y-67451701D01*
X103587104Y-67422697D01*
X104984403Y-66025399D01*
X105013401Y-66001601D01*
X105039732Y-65969517D01*
X105108374Y-65885877D01*
X105178946Y-65753847D01*
X105191064Y-65713898D01*
X105222403Y-65610586D01*
X105233400Y-65498933D01*
X105233400Y-65498924D01*
X105237076Y-65461601D01*
X105233400Y-65424278D01*
X105233400Y-63432225D01*
X105237076Y-63394900D01*
X105233400Y-63357575D01*
X105233400Y-63357567D01*
X105222403Y-63245914D01*
X105185725Y-63125000D01*
X124315000Y-63125000D01*
X124315000Y-69515651D01*
G36*
X107462000Y-77437600D02*
G01*
X107482000Y-77437600D01*
X107482000Y-77691600D01*
X107462000Y-77691600D01*
X107462000Y-78790850D01*
X107465000Y-78793850D01*
X107465000Y-79504500D01*
X108439250Y-79504500D01*
X108598000Y-79345750D01*
X108601072Y-78881500D01*
X108588812Y-78757018D01*
X108552502Y-78637320D01*
X108530011Y-78595244D01*
X108549502Y-78558780D01*
X108585812Y-78439082D01*
X108598072Y-78314600D01*
X108595852Y-77979053D01*
X109889200Y-79272402D01*
X109912999Y-79301401D01*
X109941997Y-79325199D01*
X110028723Y-79396374D01*
X110143504Y-79457726D01*
X110160753Y-79466946D01*
X110304014Y-79510403D01*
X110415667Y-79521400D01*
X110415676Y-79521400D01*
X110452999Y-79525076D01*
X110490322Y-79521400D01*
X111856422Y-79521400D01*
X111804822Y-79578645D01*
X111655843Y-79828748D01*
X111558519Y-80103109D01*
X111679186Y-80333000D01*
X112873000Y-80333000D01*
X112873000Y-80313000D01*
X113127000Y-80313000D01*
X113127000Y-80333000D01*
X113147000Y-80333000D01*
X113147000Y-80587000D01*
X113127000Y-80587000D01*
X113127000Y-80607000D01*
X112873000Y-80607000D01*
X112873000Y-80587000D01*
X111679186Y-80587000D01*
X111558519Y-80816891D01*
X111585588Y-80893200D01*
X111349502Y-80893200D01*
X111001403Y-80545102D01*
X110977601Y-80516099D01*
X110861876Y-80421126D01*
X110729847Y-80350554D01*
X110586586Y-80307097D01*
X110474933Y-80296100D01*
X110474922Y-80296100D01*
X110437600Y-80292424D01*
X110400278Y-80296100D01*
X108600507Y-80296100D01*
X108598000Y-79917250D01*
X108439250Y-79758500D01*
X107465000Y-79758500D01*
X107465000Y-79778500D01*
X107211000Y-79778500D01*
X107211000Y-79758500D01*
X106236750Y-79758500D01*
X106078000Y-79917250D01*
X106075493Y-80296100D01*
X103645502Y-80296100D01*
X106074892Y-77866710D01*
X106071928Y-78314600D01*
X106084188Y-78439082D01*
X106120498Y-78558780D01*
X106142989Y-78600856D01*
X106123498Y-78637320D01*
X106087188Y-78757018D01*
X106074928Y-78881500D01*
X106078000Y-79345750D01*
X106236750Y-79504500D01*
X107211000Y-79504500D01*
X107211000Y-78405250D01*
X107208000Y-78402250D01*
X107208000Y-77691600D01*
X107188000Y-77691600D01*
X107188000Y-77437600D01*
X107208000Y-77437600D01*
X107208000Y-77417600D01*
X107462000Y-77417600D01*
X107462000Y-77437600D01*
G37*
X107462000Y-77437600D02*
X107482000Y-77437600D01*
X107482000Y-77691600D01*
X107462000Y-77691600D01*
X107462000Y-78790850D01*
X107465000Y-78793850D01*
X107465000Y-79504500D01*
X108439250Y-79504500D01*
X108598000Y-79345750D01*
X108601072Y-78881500D01*
X108588812Y-78757018D01*
X108552502Y-78637320D01*
X108530011Y-78595244D01*
X108549502Y-78558780D01*
X108585812Y-78439082D01*
X108598072Y-78314600D01*
X108595852Y-77979053D01*
X109889200Y-79272402D01*
X109912999Y-79301401D01*
X109941997Y-79325199D01*
X110028723Y-79396374D01*
X110143504Y-79457726D01*
X110160753Y-79466946D01*
X110304014Y-79510403D01*
X110415667Y-79521400D01*
X110415676Y-79521400D01*
X110452999Y-79525076D01*
X110490322Y-79521400D01*
X111856422Y-79521400D01*
X111804822Y-79578645D01*
X111655843Y-79828748D01*
X111558519Y-80103109D01*
X111679186Y-80333000D01*
X112873000Y-80333000D01*
X112873000Y-80313000D01*
X113127000Y-80313000D01*
X113127000Y-80333000D01*
X113147000Y-80333000D01*
X113147000Y-80587000D01*
X113127000Y-80587000D01*
X113127000Y-80607000D01*
X112873000Y-80607000D01*
X112873000Y-80587000D01*
X111679186Y-80587000D01*
X111558519Y-80816891D01*
X111585588Y-80893200D01*
X111349502Y-80893200D01*
X111001403Y-80545102D01*
X110977601Y-80516099D01*
X110861876Y-80421126D01*
X110729847Y-80350554D01*
X110586586Y-80307097D01*
X110474933Y-80296100D01*
X110474922Y-80296100D01*
X110437600Y-80292424D01*
X110400278Y-80296100D01*
X108600507Y-80296100D01*
X108598000Y-79917250D01*
X108439250Y-79758500D01*
X107465000Y-79758500D01*
X107465000Y-79778500D01*
X107211000Y-79778500D01*
X107211000Y-79758500D01*
X106236750Y-79758500D01*
X106078000Y-79917250D01*
X106075493Y-80296100D01*
X103645502Y-80296100D01*
X106074892Y-77866710D01*
X106071928Y-78314600D01*
X106084188Y-78439082D01*
X106120498Y-78558780D01*
X106142989Y-78600856D01*
X106123498Y-78637320D01*
X106087188Y-78757018D01*
X106074928Y-78881500D01*
X106078000Y-79345750D01*
X106236750Y-79504500D01*
X107211000Y-79504500D01*
X107211000Y-78405250D01*
X107208000Y-78402250D01*
X107208000Y-77691600D01*
X107188000Y-77691600D01*
X107188000Y-77437600D01*
X107208000Y-77437600D01*
X107208000Y-77417600D01*
X107462000Y-77417600D01*
X107462000Y-77437600D01*
G36*
X111558519Y-70103109D02*
G01*
X111679186Y-70333000D01*
X112873000Y-70333000D01*
X112873000Y-70313000D01*
X113127000Y-70313000D01*
X113127000Y-70333000D01*
X113147000Y-70333000D01*
X113147000Y-70587000D01*
X113127000Y-70587000D01*
X113127000Y-72873000D01*
X113147000Y-72873000D01*
X113147000Y-73127000D01*
X113127000Y-73127000D01*
X113127000Y-73147000D01*
X112873000Y-73147000D01*
X112873000Y-73127000D01*
X112853000Y-73127000D01*
X112853000Y-72873000D01*
X112873000Y-72873000D01*
X112873000Y-70587000D01*
X111679186Y-70587000D01*
X111558519Y-70816891D01*
X111655843Y-71091252D01*
X111804822Y-71341355D01*
X111981626Y-71537502D01*
X111905820Y-71560498D01*
X111795506Y-71619463D01*
X111698815Y-71698815D01*
X111619463Y-71795506D01*
X111560498Y-71905820D01*
X111524188Y-72025518D01*
X111511928Y-72150000D01*
X111514752Y-72668650D01*
X110065004Y-71218903D01*
X110041201Y-71189899D01*
X109925476Y-71094926D01*
X109793447Y-71024354D01*
X109650186Y-70980897D01*
X109538533Y-70969900D01*
X109538522Y-70969900D01*
X109501200Y-70966224D01*
X109463878Y-70969900D01*
X97290802Y-70969900D01*
X98216002Y-70044700D01*
X111579238Y-70044700D01*
X111558519Y-70103109D01*
G37*
X111558519Y-70103109D02*
X111679186Y-70333000D01*
X112873000Y-70333000D01*
X112873000Y-70313000D01*
X113127000Y-70313000D01*
X113127000Y-70333000D01*
X113147000Y-70333000D01*
X113147000Y-70587000D01*
X113127000Y-70587000D01*
X113127000Y-72873000D01*
X113147000Y-72873000D01*
X113147000Y-73127000D01*
X113127000Y-73127000D01*
X113127000Y-73147000D01*
X112873000Y-73147000D01*
X112873000Y-73127000D01*
X112853000Y-73127000D01*
X112853000Y-72873000D01*
X112873000Y-72873000D01*
X112873000Y-70587000D01*
X111679186Y-70587000D01*
X111558519Y-70816891D01*
X111655843Y-71091252D01*
X111804822Y-71341355D01*
X111981626Y-71537502D01*
X111905820Y-71560498D01*
X111795506Y-71619463D01*
X111698815Y-71698815D01*
X111619463Y-71795506D01*
X111560498Y-71905820D01*
X111524188Y-72025518D01*
X111511928Y-72150000D01*
X111514752Y-72668650D01*
X110065004Y-71218903D01*
X110041201Y-71189899D01*
X109925476Y-71094926D01*
X109793447Y-71024354D01*
X109650186Y-70980897D01*
X109538533Y-70969900D01*
X109538522Y-70969900D01*
X109501200Y-70966224D01*
X109463878Y-70969900D01*
X97290802Y-70969900D01*
X98216002Y-70044700D01*
X111579238Y-70044700D01*
X111558519Y-70103109D01*
%TD*%
M02*
