%TF.GenerationSoftware,KiCad,Pcbnew,(5.1.6-0-10_14)*%
%TF.CreationDate,2020-09-10T14:26:16+09:00*%
%TF.ProjectId,qPCR-photo_mux_MPC506AU,71504352-2d70-4686-9f74-6f5f6d75785f,rev?*%
%TF.SameCoordinates,Original*%
%TF.FileFunction,Legend,Top*%
%TF.FilePolarity,Positive*%
%FSLAX46Y46*%
G04 Gerber Fmt 4.6, Leading zero omitted, Abs format (unit mm)*
G04 Created by KiCad (PCBNEW (5.1.6-0-10_14)) date 2020-09-10 14:26:16*
%MOMM*%
%LPD*%
G01*
G04 APERTURE LIST*
%ADD10C,0.300000*%
%ADD11C,0.150000*%
%ADD12C,0.120000*%
%ADD13C,0.152400*%
G04 APERTURE END LIST*
D10*
X107499999Y-64678571D02*
X107499999Y-63178571D01*
X107999999Y-64250000D01*
X108499999Y-63178571D01*
X108499999Y-64678571D01*
X109214285Y-63178571D02*
X109214285Y-64392857D01*
X109285714Y-64535714D01*
X109357142Y-64607142D01*
X109499999Y-64678571D01*
X109785714Y-64678571D01*
X109928571Y-64607142D01*
X109999999Y-64535714D01*
X110071428Y-64392857D01*
X110071428Y-63178571D01*
X110642857Y-63178571D02*
X111642857Y-64678571D01*
X111642857Y-63178571D02*
X110642857Y-64678571D01*
X111857142Y-64821428D02*
X112999999Y-64821428D01*
X113357142Y-64678571D02*
X113357142Y-63178571D01*
X113857142Y-64250000D01*
X114357142Y-63178571D01*
X114357142Y-64678571D01*
X115071428Y-64678571D02*
X115071428Y-63178571D01*
X115642857Y-63178571D01*
X115785714Y-63250000D01*
X115857142Y-63321428D01*
X115928571Y-63464285D01*
X115928571Y-63678571D01*
X115857142Y-63821428D01*
X115785714Y-63892857D01*
X115642857Y-63964285D01*
X115071428Y-63964285D01*
X117428571Y-64535714D02*
X117357142Y-64607142D01*
X117142857Y-64678571D01*
X116999999Y-64678571D01*
X116785714Y-64607142D01*
X116642857Y-64464285D01*
X116571428Y-64321428D01*
X116499999Y-64035714D01*
X116499999Y-63821428D01*
X116571428Y-63535714D01*
X116642857Y-63392857D01*
X116785714Y-63250000D01*
X116999999Y-63178571D01*
X117142857Y-63178571D01*
X117357142Y-63250000D01*
X117428571Y-63321428D01*
X118785714Y-63178571D02*
X118071428Y-63178571D01*
X117999999Y-63892857D01*
X118071428Y-63821428D01*
X118214285Y-63750000D01*
X118571428Y-63750000D01*
X118714285Y-63821428D01*
X118785714Y-63892857D01*
X118857142Y-64035714D01*
X118857142Y-64392857D01*
X118785714Y-64535714D01*
X118714285Y-64607142D01*
X118571428Y-64678571D01*
X118214285Y-64678571D01*
X118071428Y-64607142D01*
X117999999Y-64535714D01*
X119785714Y-63178571D02*
X119928571Y-63178571D01*
X120071428Y-63250000D01*
X120142857Y-63321428D01*
X120214285Y-63464285D01*
X120285714Y-63750000D01*
X120285714Y-64107142D01*
X120214285Y-64392857D01*
X120142857Y-64535714D01*
X120071428Y-64607142D01*
X119928571Y-64678571D01*
X119785714Y-64678571D01*
X119642857Y-64607142D01*
X119571428Y-64535714D01*
X119499999Y-64392857D01*
X119428571Y-64107142D01*
X119428571Y-63750000D01*
X119499999Y-63464285D01*
X119571428Y-63321428D01*
X119642857Y-63250000D01*
X119785714Y-63178571D01*
X121571428Y-63178571D02*
X121285714Y-63178571D01*
X121142857Y-63250000D01*
X121071428Y-63321428D01*
X120928571Y-63535714D01*
X120857142Y-63821428D01*
X120857142Y-64392857D01*
X120928571Y-64535714D01*
X121000000Y-64607142D01*
X121142857Y-64678571D01*
X121428571Y-64678571D01*
X121571428Y-64607142D01*
X121642857Y-64535714D01*
X121714285Y-64392857D01*
X121714285Y-64035714D01*
X121642857Y-63892857D01*
X121571428Y-63821428D01*
X121428571Y-63750000D01*
X121142857Y-63750000D01*
X121000000Y-63821428D01*
X120928571Y-63892857D01*
X120857142Y-64035714D01*
X122285714Y-64250000D02*
X123000000Y-64250000D01*
X122142857Y-64678571D02*
X122642857Y-63178571D01*
X123142857Y-64678571D01*
X123642857Y-63178571D02*
X123642857Y-64392857D01*
X123714285Y-64535714D01*
X123785714Y-64607142D01*
X123928571Y-64678571D01*
X124214285Y-64678571D01*
X124357142Y-64607142D01*
X124428571Y-64535714D01*
X124500000Y-64392857D01*
X124500000Y-63178571D01*
D11*
X114450880Y-111336270D02*
X114450880Y-111145794D01*
X114498500Y-111050556D01*
X114593738Y-110955318D01*
X114784214Y-110907699D01*
X115117547Y-110907699D01*
X115308023Y-110955318D01*
X115403261Y-111050556D01*
X115450880Y-111145794D01*
X115450880Y-111336270D01*
X115403261Y-111431508D01*
X115308023Y-111526746D01*
X115117547Y-111574365D01*
X114784214Y-111574365D01*
X114593738Y-111526746D01*
X114498500Y-111431508D01*
X114450880Y-111336270D01*
X114450880Y-110479127D02*
X115260404Y-110479127D01*
X115355642Y-110431508D01*
X115403261Y-110383889D01*
X115450880Y-110288651D01*
X115450880Y-110098175D01*
X115403261Y-110002937D01*
X115355642Y-109955318D01*
X115260404Y-109907699D01*
X114450880Y-109907699D01*
X114450880Y-109574365D02*
X114450880Y-109002937D01*
X115450880Y-109288651D02*
X114450880Y-109288651D01*
X114546119Y-108717222D02*
X114498500Y-108669603D01*
X114450880Y-108574365D01*
X114450880Y-108336270D01*
X114498500Y-108241032D01*
X114546119Y-108193413D01*
X114641357Y-108145794D01*
X114736595Y-108145794D01*
X114879452Y-108193413D01*
X115450880Y-108764841D01*
X115450880Y-108145794D01*
X106957880Y-111196570D02*
X106957880Y-111006094D01*
X107005500Y-110910856D01*
X107100738Y-110815618D01*
X107291214Y-110767999D01*
X107624547Y-110767999D01*
X107815023Y-110815618D01*
X107910261Y-110910856D01*
X107957880Y-111006094D01*
X107957880Y-111196570D01*
X107910261Y-111291808D01*
X107815023Y-111387046D01*
X107624547Y-111434665D01*
X107291214Y-111434665D01*
X107100738Y-111387046D01*
X107005500Y-111291808D01*
X106957880Y-111196570D01*
X106957880Y-110339427D02*
X107767404Y-110339427D01*
X107862642Y-110291808D01*
X107910261Y-110244189D01*
X107957880Y-110148951D01*
X107957880Y-109958475D01*
X107910261Y-109863237D01*
X107862642Y-109815618D01*
X107767404Y-109767999D01*
X106957880Y-109767999D01*
X106957880Y-109434665D02*
X106957880Y-108863237D01*
X107957880Y-109148951D02*
X106957880Y-109148951D01*
X107957880Y-108006094D02*
X107957880Y-108577522D01*
X107957880Y-108291808D02*
X106957880Y-108291808D01*
X107100738Y-108387046D01*
X107195976Y-108482284D01*
X107243595Y-108577522D01*
D12*
%TO.C,C1*%
X108185000Y-76814600D02*
X108185000Y-75814600D01*
X106485000Y-75814600D02*
X106485000Y-76814600D01*
%TO.C,C2*%
X108188000Y-81381500D02*
X108188000Y-80381500D01*
X106488000Y-80381500D02*
X106488000Y-81381500D01*
%TO.C,C3*%
X108152000Y-91831100D02*
X108152000Y-90831100D01*
X106452000Y-90831100D02*
X106452000Y-91831100D01*
%TO.C,C4*%
X108170000Y-96387900D02*
X108170000Y-95387900D01*
X106470000Y-95387900D02*
X106470000Y-96387900D01*
%TO.C,J1*%
X104628000Y-111330000D02*
X104628000Y-108670000D01*
X94408000Y-111330000D02*
X104628000Y-111330000D01*
X94408000Y-108670000D02*
X104628000Y-108670000D01*
X94408000Y-111330000D02*
X94408000Y-108670000D01*
X93138000Y-111330000D02*
X91808000Y-111330000D01*
X91808000Y-111330000D02*
X91808000Y-110000000D01*
%TO.C,J2*%
X104628000Y-63110000D02*
X104628000Y-64440000D01*
X103298000Y-63110000D02*
X104628000Y-63110000D01*
X102028000Y-63110000D02*
X102028000Y-65770000D01*
X102028000Y-65770000D02*
X91808000Y-65770000D01*
X102028000Y-63110000D02*
X91808000Y-63110000D01*
X91808000Y-63110000D02*
X91808000Y-65770000D01*
%TO.C,JP1*%
X108454000Y-108985000D02*
X113954000Y-108985000D01*
X113954000Y-108985000D02*
X113954000Y-110935000D01*
X113954000Y-110935000D02*
X108454000Y-110935000D01*
X108454000Y-110935000D02*
X108454000Y-108985000D01*
X109804000Y-111185000D02*
X109504000Y-111485000D01*
X109504000Y-111485000D02*
X110104000Y-111485000D01*
X110104000Y-111485000D02*
X109804000Y-111185000D01*
%TO.C,N_PD1*%
X119500000Y-75500000D02*
X119500000Y-74330000D01*
X116500000Y-75500000D02*
X119500000Y-75500000D01*
X116500000Y-74330000D02*
X116500000Y-75500000D01*
X124490000Y-74330000D02*
X124490000Y-69130000D01*
X114270000Y-74330000D02*
X124490000Y-74330000D01*
X111670000Y-69130000D02*
X124490000Y-69130000D01*
X114270000Y-74330000D02*
X114270000Y-71730000D01*
X114270000Y-71730000D02*
X111670000Y-71730000D01*
X111670000Y-71730000D02*
X111670000Y-69130000D01*
X113000000Y-74330000D02*
X111670000Y-74330000D01*
X111670000Y-74330000D02*
X111670000Y-73000000D01*
%TO.C,N_PD2*%
X111670000Y-84330000D02*
X111670000Y-83000000D01*
X113000000Y-84330000D02*
X111670000Y-84330000D01*
X111670000Y-81730000D02*
X111670000Y-79130000D01*
X114270000Y-81730000D02*
X111670000Y-81730000D01*
X114270000Y-84330000D02*
X114270000Y-81730000D01*
X111670000Y-79130000D02*
X124490000Y-79130000D01*
X114270000Y-84330000D02*
X124490000Y-84330000D01*
X124490000Y-84330000D02*
X124490000Y-79130000D01*
X116500000Y-84330000D02*
X116500000Y-85500000D01*
X116500000Y-85500000D02*
X119500000Y-85500000D01*
X119500000Y-85500000D02*
X119500000Y-84330000D01*
%TO.C,S_PD1*%
X111670000Y-94330000D02*
X111670000Y-93000000D01*
X113000000Y-94330000D02*
X111670000Y-94330000D01*
X111670000Y-91730000D02*
X111670000Y-89130000D01*
X114270000Y-91730000D02*
X111670000Y-91730000D01*
X114270000Y-94330000D02*
X114270000Y-91730000D01*
X111670000Y-89130000D02*
X124490000Y-89130000D01*
X114270000Y-94330000D02*
X124490000Y-94330000D01*
X124490000Y-94330000D02*
X124490000Y-89130000D01*
X116500000Y-94330000D02*
X116500000Y-95500000D01*
X116500000Y-95500000D02*
X119500000Y-95500000D01*
X119500000Y-95500000D02*
X119500000Y-94330000D01*
%TO.C,S_PD2*%
X119500000Y-105500000D02*
X119500000Y-104330000D01*
X116500000Y-105500000D02*
X119500000Y-105500000D01*
X116500000Y-104330000D02*
X116500000Y-105500000D01*
X124490000Y-104330000D02*
X124490000Y-99130000D01*
X114270000Y-104330000D02*
X124490000Y-104330000D01*
X111670000Y-99130000D02*
X124490000Y-99130000D01*
X114270000Y-104330000D02*
X114270000Y-101730000D01*
X114270000Y-101730000D02*
X111670000Y-101730000D01*
X111670000Y-101730000D02*
X111670000Y-99130000D01*
X113000000Y-104330000D02*
X111670000Y-104330000D01*
X111670000Y-104330000D02*
X111670000Y-103000000D01*
D13*
%TO.C,U1*%
X106055100Y-94695200D02*
G75*
G03*
X106055100Y-95304800I0J-304800D01*
G01*
X87944900Y-91202700D02*
X87944900Y-98797300D01*
X106055100Y-98797300D02*
X106055100Y-91202700D01*
X94015500Y-88815100D02*
X93634500Y-88815100D01*
X93634500Y-88815100D02*
X93634500Y-89069100D01*
X93634500Y-89069100D02*
X94015500Y-89069100D01*
X94015500Y-89069100D02*
X94015500Y-88815100D01*
X95285500Y-101184900D02*
X94904500Y-101184900D01*
X94904500Y-101184900D02*
X94904500Y-100930900D01*
X94904500Y-100930900D02*
X95285500Y-100930900D01*
X95285500Y-100930900D02*
X95285500Y-101184900D01*
%TO.C,U2*%
X85244900Y-66466484D02*
X85244900Y-67071516D01*
X87106761Y-65892700D02*
X86431039Y-65892700D01*
X88292900Y-67071516D02*
X88292900Y-66466484D01*
X85042416Y-66541177D02*
G75*
G03*
X84940100Y-66769000I202484J-227823D01*
G01*
%TO.C,U3*%
X95285500Y-85930900D02*
X95285500Y-86184900D01*
X94904500Y-85930900D02*
X95285500Y-85930900D01*
X94904500Y-86184900D02*
X94904500Y-85930900D01*
X95285500Y-86184900D02*
X94904500Y-86184900D01*
X94015500Y-74069100D02*
X94015500Y-73815100D01*
X93634500Y-74069100D02*
X94015500Y-74069100D01*
X93634500Y-73815100D02*
X93634500Y-74069100D01*
X94015500Y-73815100D02*
X93634500Y-73815100D01*
X106055100Y-83797300D02*
X106055100Y-76202700D01*
X87944900Y-76202700D02*
X87944900Y-83797300D01*
X106055100Y-79695200D02*
G75*
G03*
X106055100Y-80304800I0J-304800D01*
G01*
%TO.C,C1*%
D11*
X107247393Y-73618362D02*
X107199774Y-73665981D01*
X107056917Y-73713600D01*
X106961679Y-73713600D01*
X106818821Y-73665981D01*
X106723583Y-73570743D01*
X106675964Y-73475505D01*
X106628345Y-73285029D01*
X106628345Y-73142172D01*
X106675964Y-72951696D01*
X106723583Y-72856458D01*
X106818821Y-72761220D01*
X106961679Y-72713600D01*
X107056917Y-72713600D01*
X107199774Y-72761220D01*
X107247393Y-72808839D01*
X108199774Y-73713600D02*
X107628345Y-73713600D01*
X107914060Y-73713600D02*
X107914060Y-72713600D01*
X107818821Y-72856458D01*
X107723583Y-72951696D01*
X107628345Y-72999315D01*
%TO.C,C2*%
X107338833Y-84418442D02*
X107291214Y-84466061D01*
X107148357Y-84513680D01*
X107053119Y-84513680D01*
X106910261Y-84466061D01*
X106815023Y-84370823D01*
X106767404Y-84275585D01*
X106719785Y-84085109D01*
X106719785Y-83942252D01*
X106767404Y-83751776D01*
X106815023Y-83656538D01*
X106910261Y-83561300D01*
X107053119Y-83513680D01*
X107148357Y-83513680D01*
X107291214Y-83561300D01*
X107338833Y-83608919D01*
X107719785Y-83608919D02*
X107767404Y-83561300D01*
X107862642Y-83513680D01*
X108100738Y-83513680D01*
X108195976Y-83561300D01*
X108243595Y-83608919D01*
X108291214Y-83704157D01*
X108291214Y-83799395D01*
X108243595Y-83942252D01*
X107672166Y-84513680D01*
X108291214Y-84513680D01*
%TO.C,C3*%
X107178813Y-88688182D02*
X107131194Y-88735801D01*
X106988337Y-88783420D01*
X106893099Y-88783420D01*
X106750241Y-88735801D01*
X106655003Y-88640563D01*
X106607384Y-88545325D01*
X106559765Y-88354849D01*
X106559765Y-88211992D01*
X106607384Y-88021516D01*
X106655003Y-87926278D01*
X106750241Y-87831040D01*
X106893099Y-87783420D01*
X106988337Y-87783420D01*
X107131194Y-87831040D01*
X107178813Y-87878659D01*
X107512146Y-87783420D02*
X108131194Y-87783420D01*
X107797860Y-88164373D01*
X107940718Y-88164373D01*
X108035956Y-88211992D01*
X108083575Y-88259611D01*
X108131194Y-88354849D01*
X108131194Y-88592944D01*
X108083575Y-88688182D01*
X108035956Y-88735801D01*
X107940718Y-88783420D01*
X107655003Y-88783420D01*
X107559765Y-88735801D01*
X107512146Y-88688182D01*
%TO.C,C4*%
X107275333Y-99259662D02*
X107227714Y-99307281D01*
X107084857Y-99354900D01*
X106989619Y-99354900D01*
X106846761Y-99307281D01*
X106751523Y-99212043D01*
X106703904Y-99116805D01*
X106656285Y-98926329D01*
X106656285Y-98783472D01*
X106703904Y-98592996D01*
X106751523Y-98497758D01*
X106846761Y-98402520D01*
X106989619Y-98354900D01*
X107084857Y-98354900D01*
X107227714Y-98402520D01*
X107275333Y-98450139D01*
X108132476Y-98688234D02*
X108132476Y-99354900D01*
X107894380Y-98307281D02*
X107656285Y-99021567D01*
X108275333Y-99021567D01*
%TO.C,J1*%
X103489166Y-107308400D02*
X103489166Y-108022686D01*
X103441547Y-108165543D01*
X103346309Y-108260781D01*
X103203452Y-108308400D01*
X103108214Y-108308400D01*
X104489166Y-108308400D02*
X103917738Y-108308400D01*
X104203452Y-108308400D02*
X104203452Y-107308400D01*
X104108214Y-107451258D01*
X104012976Y-107546496D01*
X103917738Y-107594115D01*
%TO.C,J2*%
X103666666Y-66452380D02*
X103666666Y-67166666D01*
X103619047Y-67309523D01*
X103523809Y-67404761D01*
X103380952Y-67452380D01*
X103285714Y-67452380D01*
X104095238Y-66547619D02*
X104142857Y-66500000D01*
X104238095Y-66452380D01*
X104476190Y-66452380D01*
X104571428Y-66500000D01*
X104619047Y-66547619D01*
X104666666Y-66642857D01*
X104666666Y-66738095D01*
X104619047Y-66880952D01*
X104047619Y-67452380D01*
X104666666Y-67452380D01*
%TO.C,JP1*%
X110553286Y-107605580D02*
X110553286Y-108319866D01*
X110505667Y-108462723D01*
X110410429Y-108557961D01*
X110267572Y-108605580D01*
X110172334Y-108605580D01*
X111029477Y-108605580D02*
X111029477Y-107605580D01*
X111410429Y-107605580D01*
X111505667Y-107653200D01*
X111553286Y-107700819D01*
X111600905Y-107796057D01*
X111600905Y-107938914D01*
X111553286Y-108034152D01*
X111505667Y-108081771D01*
X111410429Y-108129390D01*
X111029477Y-108129390D01*
X112553286Y-108605580D02*
X111981858Y-108605580D01*
X112267572Y-108605580D02*
X112267572Y-107605580D01*
X112172334Y-107748438D01*
X112077096Y-107843676D01*
X111981858Y-107891295D01*
%TO.C,N_PD1*%
X111657142Y-75952380D02*
X111657142Y-74952380D01*
X112228571Y-75952380D01*
X112228571Y-74952380D01*
X112466666Y-76047619D02*
X113228571Y-76047619D01*
X113466666Y-75952380D02*
X113466666Y-74952380D01*
X113847619Y-74952380D01*
X113942857Y-75000000D01*
X113990476Y-75047619D01*
X114038095Y-75142857D01*
X114038095Y-75285714D01*
X113990476Y-75380952D01*
X113942857Y-75428571D01*
X113847619Y-75476190D01*
X113466666Y-75476190D01*
X114466666Y-75952380D02*
X114466666Y-74952380D01*
X114704761Y-74952380D01*
X114847619Y-75000000D01*
X114942857Y-75095238D01*
X114990476Y-75190476D01*
X115038095Y-75380952D01*
X115038095Y-75523809D01*
X114990476Y-75714285D01*
X114942857Y-75809523D01*
X114847619Y-75904761D01*
X114704761Y-75952380D01*
X114466666Y-75952380D01*
X115990476Y-75952380D02*
X115419047Y-75952380D01*
X115704761Y-75952380D02*
X115704761Y-74952380D01*
X115609523Y-75095238D01*
X115514285Y-75190476D01*
X115419047Y-75238095D01*
%TO.C,N_PD2*%
X111657142Y-85952380D02*
X111657142Y-84952380D01*
X112228571Y-85952380D01*
X112228571Y-84952380D01*
X112466666Y-86047619D02*
X113228571Y-86047619D01*
X113466666Y-85952380D02*
X113466666Y-84952380D01*
X113847619Y-84952380D01*
X113942857Y-85000000D01*
X113990476Y-85047619D01*
X114038095Y-85142857D01*
X114038095Y-85285714D01*
X113990476Y-85380952D01*
X113942857Y-85428571D01*
X113847619Y-85476190D01*
X113466666Y-85476190D01*
X114466666Y-85952380D02*
X114466666Y-84952380D01*
X114704761Y-84952380D01*
X114847619Y-85000000D01*
X114942857Y-85095238D01*
X114990476Y-85190476D01*
X115038095Y-85380952D01*
X115038095Y-85523809D01*
X114990476Y-85714285D01*
X114942857Y-85809523D01*
X114847619Y-85904761D01*
X114704761Y-85952380D01*
X114466666Y-85952380D01*
X115419047Y-85047619D02*
X115466666Y-85000000D01*
X115561904Y-84952380D01*
X115800000Y-84952380D01*
X115895238Y-85000000D01*
X115942857Y-85047619D01*
X115990476Y-85142857D01*
X115990476Y-85238095D01*
X115942857Y-85380952D01*
X115371428Y-85952380D01*
X115990476Y-85952380D01*
%TO.C,S_PD1*%
X111657142Y-95904761D02*
X111800000Y-95952380D01*
X112038095Y-95952380D01*
X112133333Y-95904761D01*
X112180952Y-95857142D01*
X112228571Y-95761904D01*
X112228571Y-95666666D01*
X112180952Y-95571428D01*
X112133333Y-95523809D01*
X112038095Y-95476190D01*
X111847619Y-95428571D01*
X111752380Y-95380952D01*
X111704761Y-95333333D01*
X111657142Y-95238095D01*
X111657142Y-95142857D01*
X111704761Y-95047619D01*
X111752380Y-95000000D01*
X111847619Y-94952380D01*
X112085714Y-94952380D01*
X112228571Y-95000000D01*
X112419047Y-96047619D02*
X113180952Y-96047619D01*
X113419047Y-95952380D02*
X113419047Y-94952380D01*
X113800000Y-94952380D01*
X113895238Y-95000000D01*
X113942857Y-95047619D01*
X113990476Y-95142857D01*
X113990476Y-95285714D01*
X113942857Y-95380952D01*
X113895238Y-95428571D01*
X113800000Y-95476190D01*
X113419047Y-95476190D01*
X114419047Y-95952380D02*
X114419047Y-94952380D01*
X114657142Y-94952380D01*
X114800000Y-95000000D01*
X114895238Y-95095238D01*
X114942857Y-95190476D01*
X114990476Y-95380952D01*
X114990476Y-95523809D01*
X114942857Y-95714285D01*
X114895238Y-95809523D01*
X114800000Y-95904761D01*
X114657142Y-95952380D01*
X114419047Y-95952380D01*
X115942857Y-95952380D02*
X115371428Y-95952380D01*
X115657142Y-95952380D02*
X115657142Y-94952380D01*
X115561904Y-95095238D01*
X115466666Y-95190476D01*
X115371428Y-95238095D01*
%TO.C,S_PD2*%
X111657142Y-105904761D02*
X111800000Y-105952380D01*
X112038095Y-105952380D01*
X112133333Y-105904761D01*
X112180952Y-105857142D01*
X112228571Y-105761904D01*
X112228571Y-105666666D01*
X112180952Y-105571428D01*
X112133333Y-105523809D01*
X112038095Y-105476190D01*
X111847619Y-105428571D01*
X111752380Y-105380952D01*
X111704761Y-105333333D01*
X111657142Y-105238095D01*
X111657142Y-105142857D01*
X111704761Y-105047619D01*
X111752380Y-105000000D01*
X111847619Y-104952380D01*
X112085714Y-104952380D01*
X112228571Y-105000000D01*
X112419047Y-106047619D02*
X113180952Y-106047619D01*
X113419047Y-105952380D02*
X113419047Y-104952380D01*
X113800000Y-104952380D01*
X113895238Y-105000000D01*
X113942857Y-105047619D01*
X113990476Y-105142857D01*
X113990476Y-105285714D01*
X113942857Y-105380952D01*
X113895238Y-105428571D01*
X113800000Y-105476190D01*
X113419047Y-105476190D01*
X114419047Y-105952380D02*
X114419047Y-104952380D01*
X114657142Y-104952380D01*
X114800000Y-105000000D01*
X114895238Y-105095238D01*
X114942857Y-105190476D01*
X114990476Y-105380952D01*
X114990476Y-105523809D01*
X114942857Y-105714285D01*
X114895238Y-105809523D01*
X114800000Y-105904761D01*
X114657142Y-105952380D01*
X114419047Y-105952380D01*
X115371428Y-105047619D02*
X115419047Y-105000000D01*
X115514285Y-104952380D01*
X115752380Y-104952380D01*
X115847619Y-105000000D01*
X115895238Y-105047619D01*
X115942857Y-105142857D01*
X115942857Y-105238095D01*
X115895238Y-105380952D01*
X115323809Y-105952380D01*
X115942857Y-105952380D01*
%TO.C,U1*%
X96238095Y-94452380D02*
X96238095Y-95261904D01*
X96285714Y-95357142D01*
X96333333Y-95404761D01*
X96428571Y-95452380D01*
X96619047Y-95452380D01*
X96714285Y-95404761D01*
X96761904Y-95357142D01*
X96809523Y-95261904D01*
X96809523Y-94452380D01*
X97809523Y-95452380D02*
X97238095Y-95452380D01*
X97523809Y-95452380D02*
X97523809Y-94452380D01*
X97428571Y-94595238D01*
X97333333Y-94690476D01*
X97238095Y-94738095D01*
X106409180Y-90224800D02*
X106647276Y-90224800D01*
X106552038Y-90462895D02*
X106647276Y-90224800D01*
X106552038Y-89986704D01*
X106837752Y-90367657D02*
X106647276Y-90224800D01*
X106837752Y-90081942D01*
X106409180Y-90224800D02*
X106647276Y-90224800D01*
X106552038Y-90462895D02*
X106647276Y-90224800D01*
X106552038Y-89986704D01*
X106837752Y-90367657D02*
X106647276Y-90224800D01*
X106837752Y-90081942D01*
%TO.C,U2*%
X86047675Y-69312540D02*
X86047675Y-70122064D01*
X86095294Y-70217302D01*
X86142913Y-70264921D01*
X86238151Y-70312540D01*
X86428627Y-70312540D01*
X86523865Y-70264921D01*
X86571484Y-70217302D01*
X86619103Y-70122064D01*
X86619103Y-69312540D01*
X87047675Y-69407779D02*
X87095294Y-69360160D01*
X87190532Y-69312540D01*
X87428627Y-69312540D01*
X87523865Y-69360160D01*
X87571484Y-69407779D01*
X87619103Y-69503017D01*
X87619103Y-69598255D01*
X87571484Y-69741112D01*
X87000056Y-70312540D01*
X87619103Y-70312540D01*
X83569480Y-68216800D02*
X83807576Y-68216800D01*
X83712338Y-68454895D02*
X83807576Y-68216800D01*
X83712338Y-67978704D01*
X83998052Y-68359657D02*
X83807576Y-68216800D01*
X83998052Y-68073942D01*
X83569480Y-68216800D02*
X83807576Y-68216800D01*
X83712338Y-68454895D02*
X83807576Y-68216800D01*
X83712338Y-67978704D01*
X83998052Y-68359657D02*
X83807576Y-68216800D01*
X83998052Y-68073942D01*
%TO.C,U3*%
X96238095Y-79452380D02*
X96238095Y-80261904D01*
X96285714Y-80357142D01*
X96333333Y-80404761D01*
X96428571Y-80452380D01*
X96619047Y-80452380D01*
X96714285Y-80404761D01*
X96761904Y-80357142D01*
X96809523Y-80261904D01*
X96809523Y-79452380D01*
X97190476Y-79452380D02*
X97809523Y-79452380D01*
X97476190Y-79833333D01*
X97619047Y-79833333D01*
X97714285Y-79880952D01*
X97761904Y-79928571D01*
X97809523Y-80023809D01*
X97809523Y-80261904D01*
X97761904Y-80357142D01*
X97714285Y-80404761D01*
X97619047Y-80452380D01*
X97333333Y-80452380D01*
X97238095Y-80404761D01*
X97190476Y-80357142D01*
X106409180Y-75224800D02*
X106647276Y-75224800D01*
X106552038Y-75462895D02*
X106647276Y-75224800D01*
X106552038Y-74986704D01*
X106837752Y-75367657D02*
X106647276Y-75224800D01*
X106837752Y-75081942D01*
X106409180Y-75224800D02*
X106647276Y-75224800D01*
X106552038Y-75462895D02*
X106647276Y-75224800D01*
X106552038Y-74986704D01*
X106837752Y-75367657D02*
X106647276Y-75224800D01*
X106837752Y-75081942D01*
%TD*%
M02*
