M48
; DRILL file {KiCad (5.1.6-0-10_14)} date Thursday, September 10, 2020 at 02:25:24 PM
; FORMAT={-:-/ absolute / inch / decimal}
; #@! TF.CreationDate,2020-09-10T14:25:24+09:00
; #@! TF.GenerationSoftware,Kicad,Pcbnew,(5.1.6-0-10_14)
FMAT,2
INCH
T1C0.0157
T2C0.0394
%
G90
G05
T1
X3.4603Y-2.6661
X3.4864Y-3.0898
X3.4889Y-3.4348
X3.5174Y-2.7059
X3.524Y-3.4969
X3.5897Y-3.7179
X3.6149Y-2.8441
X3.6432Y-2.8905
X3.6743Y-3.4909
X3.7187Y-3.4789
X3.7683Y-3.4722
X3.8136Y-3.7724
X3.8242Y-3.4827
X3.8679Y-4.0385
X3.9227Y-3.1801
X3.9751Y-3.2415
X4.0551Y-3.8072
X4.0623Y-2.6624
X4.1176Y-3.3984
X4.1547Y-3.3799
T2
X3.6669Y-4.3307
X3.7669Y-4.3307
X3.8669Y-4.3307
X3.9669Y-4.3307
X4.0669Y-4.3307
X4.0551Y-3.9551
X4.0551Y-4.0551
X4.1551Y-3.9551
X4.1551Y-4.0551
X4.2551Y-3.9551
X4.2551Y-4.0551
X4.3551Y-3.9551
X4.3551Y-4.0551
X4.4551Y-3.9551
X4.4551Y-4.0551
X3.6669Y-2.537
X3.7669Y-2.537
X3.8669Y-2.537
X3.9669Y-2.537
X4.0669Y-2.537
X4.0551Y-2.774
X4.0551Y-2.874
X4.1551Y-2.774
X4.1551Y-2.874
X4.2551Y-2.774
X4.2551Y-2.874
X4.3551Y-2.774
X4.3551Y-2.874
X4.4551Y-2.774
X4.4551Y-2.874
X4.0551Y-3.1677
X4.0551Y-3.2677
X4.1551Y-3.1677
X4.1551Y-3.2677
X4.2551Y-3.1677
X4.2551Y-3.2677
X4.3551Y-3.1677
X4.3551Y-3.2677
X4.4551Y-3.1677
X4.4551Y-3.2677
X4.0551Y-3.5614
X4.0551Y-3.6614
X4.1551Y-3.5614
X4.1551Y-3.6614
X4.2551Y-3.5614
X4.2551Y-3.6614
X4.3551Y-3.5614
X4.3551Y-3.6614
X4.4551Y-3.5614
X4.4551Y-3.6614
T0
M30
