G04 #@! TF.GenerationSoftware,KiCad,Pcbnew,(5.1.6-0-10_14)*
G04 #@! TF.CreationDate,2020-08-11T10:19:13+09:00*
G04 #@! TF.ProjectId,qPCR-photoarray,71504352-2d70-4686-9f74-6f6172726179,rev?*
G04 #@! TF.SameCoordinates,Original*
G04 #@! TF.FileFunction,Legend,Top*
G04 #@! TF.FilePolarity,Positive*
%FSLAX46Y46*%
G04 Gerber Fmt 4.6, Leading zero omitted, Abs format (unit mm)*
G04 Created by KiCad (PCBNEW (5.1.6-0-10_14)) date 2020-08-11 10:19:13*
%MOMM*%
%LPD*%
G01*
G04 APERTURE LIST*
%ADD10C,0.150000*%
%ADD11C,0.120000*%
G04 APERTURE END LIST*
D10*
X111357142Y-101297619D02*
X111404761Y-101250000D01*
X111500000Y-101202380D01*
X111738095Y-101202380D01*
X111833333Y-101250000D01*
X111880952Y-101297619D01*
X111928571Y-101392857D01*
X111928571Y-101488095D01*
X111880952Y-101630952D01*
X111309523Y-102202380D01*
X111928571Y-102202380D01*
X112547619Y-101202380D02*
X112642857Y-101202380D01*
X112738095Y-101250000D01*
X112785714Y-101297619D01*
X112833333Y-101392857D01*
X112880952Y-101583333D01*
X112880952Y-101821428D01*
X112833333Y-102011904D01*
X112785714Y-102107142D01*
X112738095Y-102154761D01*
X112642857Y-102202380D01*
X112547619Y-102202380D01*
X112452380Y-102154761D01*
X112404761Y-102107142D01*
X112357142Y-102011904D01*
X112309523Y-101821428D01*
X112309523Y-101583333D01*
X112357142Y-101392857D01*
X112404761Y-101297619D01*
X112452380Y-101250000D01*
X112547619Y-101202380D01*
X113833333Y-102202380D02*
X113261904Y-102202380D01*
X113547619Y-102202380D02*
X113547619Y-101202380D01*
X113452380Y-101345238D01*
X113357142Y-101440476D01*
X113261904Y-101488095D01*
X114214285Y-101297619D02*
X114261904Y-101250000D01*
X114357142Y-101202380D01*
X114595238Y-101202380D01*
X114690476Y-101250000D01*
X114738095Y-101297619D01*
X114785714Y-101392857D01*
X114785714Y-101488095D01*
X114738095Y-101630952D01*
X114166666Y-102202380D01*
X114785714Y-102202380D01*
X115928571Y-101154761D02*
X115071428Y-102440476D01*
X116452380Y-101202380D02*
X116547619Y-101202380D01*
X116642857Y-101250000D01*
X116690476Y-101297619D01*
X116738095Y-101392857D01*
X116785714Y-101583333D01*
X116785714Y-101821428D01*
X116738095Y-102011904D01*
X116690476Y-102107142D01*
X116642857Y-102154761D01*
X116547619Y-102202380D01*
X116452380Y-102202380D01*
X116357142Y-102154761D01*
X116309523Y-102107142D01*
X116261904Y-102011904D01*
X116214285Y-101821428D01*
X116214285Y-101583333D01*
X116261904Y-101392857D01*
X116309523Y-101297619D01*
X116357142Y-101250000D01*
X116452380Y-101202380D01*
X117357142Y-101630952D02*
X117261904Y-101583333D01*
X117214285Y-101535714D01*
X117166666Y-101440476D01*
X117166666Y-101392857D01*
X117214285Y-101297619D01*
X117261904Y-101250000D01*
X117357142Y-101202380D01*
X117547619Y-101202380D01*
X117642857Y-101250000D01*
X117690476Y-101297619D01*
X117738095Y-101392857D01*
X117738095Y-101440476D01*
X117690476Y-101535714D01*
X117642857Y-101583333D01*
X117547619Y-101630952D01*
X117357142Y-101630952D01*
X117261904Y-101678571D01*
X117214285Y-101726190D01*
X117166666Y-101821428D01*
X117166666Y-102011904D01*
X117214285Y-102107142D01*
X117261904Y-102154761D01*
X117357142Y-102202380D01*
X117547619Y-102202380D01*
X117642857Y-102154761D01*
X117690476Y-102107142D01*
X117738095Y-102011904D01*
X117738095Y-101821428D01*
X117690476Y-101726190D01*
X117642857Y-101678571D01*
X117547619Y-101630952D01*
X118357142Y-101202380D02*
X118452380Y-101202380D01*
X118547619Y-101250000D01*
X118595238Y-101297619D01*
X118642857Y-101392857D01*
X118690476Y-101583333D01*
X118690476Y-101821428D01*
X118642857Y-102011904D01*
X118595238Y-102107142D01*
X118547619Y-102154761D01*
X118452380Y-102202380D01*
X118357142Y-102202380D01*
X118261904Y-102154761D01*
X118214285Y-102107142D01*
X118166666Y-102011904D01*
X118119047Y-101821428D01*
X118119047Y-101583333D01*
X118166666Y-101392857D01*
X118214285Y-101297619D01*
X118261904Y-101250000D01*
X118357142Y-101202380D01*
X119595238Y-101202380D02*
X119119047Y-101202380D01*
X119071428Y-101678571D01*
X119119047Y-101630952D01*
X119214285Y-101583333D01*
X119452380Y-101583333D01*
X119547619Y-101630952D01*
X119595238Y-101678571D01*
X119642857Y-101773809D01*
X119642857Y-102011904D01*
X119595238Y-102107142D01*
X119547619Y-102154761D01*
X119452380Y-102202380D01*
X119214285Y-102202380D01*
X119119047Y-102154761D01*
X119071428Y-102107142D01*
D11*
G04 #@! TO.C,D1*
X117638900Y-106400000D02*
X117638900Y-109000000D01*
X116038900Y-106400000D02*
X116038900Y-109000000D01*
X117638900Y-106400000D02*
X116038900Y-106400000D01*
G04 #@! TO.C,D2*
X118961100Y-106400000D02*
X117361100Y-106400000D01*
X117361100Y-106400000D02*
X117361100Y-109000000D01*
X118961100Y-106400000D02*
X118961100Y-109000000D01*
G04 #@! TO.C,D3*
X126638900Y-106400000D02*
X126638900Y-109000000D01*
X125038900Y-106400000D02*
X125038900Y-109000000D01*
X126638900Y-106400000D02*
X125038900Y-106400000D01*
G04 #@! TO.C,D4*
X127961100Y-106400000D02*
X126361100Y-106400000D01*
X126361100Y-106400000D02*
X126361100Y-109000000D01*
X127961100Y-106400000D02*
X127961100Y-109000000D01*
G04 #@! TO.C,D5*
X135638900Y-106400000D02*
X135638900Y-109000000D01*
X134038900Y-106400000D02*
X134038900Y-109000000D01*
X135638900Y-106400000D02*
X134038900Y-106400000D01*
G04 #@! TO.C,D6*
X136961100Y-106400000D02*
X135361100Y-106400000D01*
X135361100Y-106400000D02*
X135361100Y-109000000D01*
X136961100Y-106400000D02*
X136961100Y-109000000D01*
G04 #@! TO.C,D7*
X144638900Y-106400000D02*
X144638900Y-109000000D01*
X143038900Y-106400000D02*
X143038900Y-109000000D01*
X144638900Y-106400000D02*
X143038900Y-106400000D01*
G04 #@! TO.C,D8*
X145961100Y-106400000D02*
X144361100Y-106400000D01*
X144361100Y-106400000D02*
X144361100Y-109000000D01*
X145961100Y-106400000D02*
X145961100Y-109000000D01*
G04 #@! TO.C,D9*
X153638900Y-106400000D02*
X153638900Y-109000000D01*
X152038900Y-106400000D02*
X152038900Y-109000000D01*
X153638900Y-106400000D02*
X152038900Y-106400000D01*
G04 #@! TO.C,D10*
X154961100Y-106400000D02*
X153361100Y-106400000D01*
X153361100Y-106400000D02*
X153361100Y-109000000D01*
X154961100Y-106400000D02*
X154961100Y-109000000D01*
G04 #@! TO.C,D11*
X162638900Y-106400000D02*
X162638900Y-109000000D01*
X161038900Y-106400000D02*
X161038900Y-109000000D01*
X162638900Y-106400000D02*
X161038900Y-106400000D01*
G04 #@! TO.C,D12*
X163961100Y-106400000D02*
X162361100Y-106400000D01*
X162361100Y-106400000D02*
X162361100Y-109000000D01*
X163961100Y-106400000D02*
X163961100Y-109000000D01*
G04 #@! TO.C,D13*
X171638900Y-106400000D02*
X171638900Y-109000000D01*
X170038900Y-106400000D02*
X170038900Y-109000000D01*
X171638900Y-106400000D02*
X170038900Y-106400000D01*
G04 #@! TO.C,D14*
X172961100Y-106400000D02*
X171361100Y-106400000D01*
X171361100Y-106400000D02*
X171361100Y-109000000D01*
X172961100Y-106400000D02*
X172961100Y-109000000D01*
G04 #@! TO.C,D15*
X180638900Y-106400000D02*
X179038900Y-106400000D01*
X179038900Y-106400000D02*
X179038900Y-109000000D01*
X180638900Y-106400000D02*
X180638900Y-109000000D01*
G04 #@! TO.C,D16*
X181961100Y-106400000D02*
X180361100Y-106400000D01*
X180361100Y-106400000D02*
X180361100Y-109000000D01*
X181961100Y-106400000D02*
X181961100Y-109000000D01*
G04 #@! TO.C,D1*
D10*
X118891280Y-108738095D02*
X117891280Y-108738095D01*
X117891280Y-108500000D01*
X117938900Y-108357142D01*
X118034138Y-108261904D01*
X118129376Y-108214285D01*
X118319852Y-108166666D01*
X118462709Y-108166666D01*
X118653185Y-108214285D01*
X118748423Y-108261904D01*
X118843661Y-108357142D01*
X118891280Y-108500000D01*
X118891280Y-108738095D01*
X118891280Y-107214285D02*
X118891280Y-107785714D01*
X118891280Y-107500000D02*
X117891280Y-107500000D01*
X118034138Y-107595238D01*
X118129376Y-107690476D01*
X118176995Y-107785714D01*
G04 #@! TO.C,D2*
X120213480Y-108738095D02*
X119213480Y-108738095D01*
X119213480Y-108500000D01*
X119261100Y-108357142D01*
X119356338Y-108261904D01*
X119451576Y-108214285D01*
X119642052Y-108166666D01*
X119784909Y-108166666D01*
X119975385Y-108214285D01*
X120070623Y-108261904D01*
X120165861Y-108357142D01*
X120213480Y-108500000D01*
X120213480Y-108738095D01*
X119308719Y-107785714D02*
X119261100Y-107738095D01*
X119213480Y-107642857D01*
X119213480Y-107404761D01*
X119261100Y-107309523D01*
X119308719Y-107261904D01*
X119403957Y-107214285D01*
X119499195Y-107214285D01*
X119642052Y-107261904D01*
X120213480Y-107833333D01*
X120213480Y-107214285D01*
G04 #@! TO.C,D3*
X127891280Y-108738095D02*
X126891280Y-108738095D01*
X126891280Y-108500000D01*
X126938900Y-108357142D01*
X127034138Y-108261904D01*
X127129376Y-108214285D01*
X127319852Y-108166666D01*
X127462709Y-108166666D01*
X127653185Y-108214285D01*
X127748423Y-108261904D01*
X127843661Y-108357142D01*
X127891280Y-108500000D01*
X127891280Y-108738095D01*
X126891280Y-107833333D02*
X126891280Y-107214285D01*
X127272233Y-107547619D01*
X127272233Y-107404761D01*
X127319852Y-107309523D01*
X127367471Y-107261904D01*
X127462709Y-107214285D01*
X127700804Y-107214285D01*
X127796042Y-107261904D01*
X127843661Y-107309523D01*
X127891280Y-107404761D01*
X127891280Y-107690476D01*
X127843661Y-107785714D01*
X127796042Y-107833333D01*
G04 #@! TO.C,D4*
X129213480Y-108738095D02*
X128213480Y-108738095D01*
X128213480Y-108500000D01*
X128261100Y-108357142D01*
X128356338Y-108261904D01*
X128451576Y-108214285D01*
X128642052Y-108166666D01*
X128784909Y-108166666D01*
X128975385Y-108214285D01*
X129070623Y-108261904D01*
X129165861Y-108357142D01*
X129213480Y-108500000D01*
X129213480Y-108738095D01*
X128546814Y-107309523D02*
X129213480Y-107309523D01*
X128165861Y-107547619D02*
X128880147Y-107785714D01*
X128880147Y-107166666D01*
G04 #@! TO.C,D5*
X136891280Y-108738095D02*
X135891280Y-108738095D01*
X135891280Y-108500000D01*
X135938900Y-108357142D01*
X136034138Y-108261904D01*
X136129376Y-108214285D01*
X136319852Y-108166666D01*
X136462709Y-108166666D01*
X136653185Y-108214285D01*
X136748423Y-108261904D01*
X136843661Y-108357142D01*
X136891280Y-108500000D01*
X136891280Y-108738095D01*
X135891280Y-107261904D02*
X135891280Y-107738095D01*
X136367471Y-107785714D01*
X136319852Y-107738095D01*
X136272233Y-107642857D01*
X136272233Y-107404761D01*
X136319852Y-107309523D01*
X136367471Y-107261904D01*
X136462709Y-107214285D01*
X136700804Y-107214285D01*
X136796042Y-107261904D01*
X136843661Y-107309523D01*
X136891280Y-107404761D01*
X136891280Y-107642857D01*
X136843661Y-107738095D01*
X136796042Y-107785714D01*
G04 #@! TO.C,D6*
X138213480Y-108738095D02*
X137213480Y-108738095D01*
X137213480Y-108500000D01*
X137261100Y-108357142D01*
X137356338Y-108261904D01*
X137451576Y-108214285D01*
X137642052Y-108166666D01*
X137784909Y-108166666D01*
X137975385Y-108214285D01*
X138070623Y-108261904D01*
X138165861Y-108357142D01*
X138213480Y-108500000D01*
X138213480Y-108738095D01*
X137213480Y-107309523D02*
X137213480Y-107500000D01*
X137261100Y-107595238D01*
X137308719Y-107642857D01*
X137451576Y-107738095D01*
X137642052Y-107785714D01*
X138023004Y-107785714D01*
X138118242Y-107738095D01*
X138165861Y-107690476D01*
X138213480Y-107595238D01*
X138213480Y-107404761D01*
X138165861Y-107309523D01*
X138118242Y-107261904D01*
X138023004Y-107214285D01*
X137784909Y-107214285D01*
X137689671Y-107261904D01*
X137642052Y-107309523D01*
X137594433Y-107404761D01*
X137594433Y-107595238D01*
X137642052Y-107690476D01*
X137689671Y-107738095D01*
X137784909Y-107785714D01*
G04 #@! TO.C,D7*
X145891280Y-108738095D02*
X144891280Y-108738095D01*
X144891280Y-108500000D01*
X144938900Y-108357142D01*
X145034138Y-108261904D01*
X145129376Y-108214285D01*
X145319852Y-108166666D01*
X145462709Y-108166666D01*
X145653185Y-108214285D01*
X145748423Y-108261904D01*
X145843661Y-108357142D01*
X145891280Y-108500000D01*
X145891280Y-108738095D01*
X144891280Y-107833333D02*
X144891280Y-107166666D01*
X145891280Y-107595238D01*
G04 #@! TO.C,D8*
X147213480Y-108738095D02*
X146213480Y-108738095D01*
X146213480Y-108500000D01*
X146261100Y-108357142D01*
X146356338Y-108261904D01*
X146451576Y-108214285D01*
X146642052Y-108166666D01*
X146784909Y-108166666D01*
X146975385Y-108214285D01*
X147070623Y-108261904D01*
X147165861Y-108357142D01*
X147213480Y-108500000D01*
X147213480Y-108738095D01*
X146642052Y-107595238D02*
X146594433Y-107690476D01*
X146546814Y-107738095D01*
X146451576Y-107785714D01*
X146403957Y-107785714D01*
X146308719Y-107738095D01*
X146261100Y-107690476D01*
X146213480Y-107595238D01*
X146213480Y-107404761D01*
X146261100Y-107309523D01*
X146308719Y-107261904D01*
X146403957Y-107214285D01*
X146451576Y-107214285D01*
X146546814Y-107261904D01*
X146594433Y-107309523D01*
X146642052Y-107404761D01*
X146642052Y-107595238D01*
X146689671Y-107690476D01*
X146737290Y-107738095D01*
X146832528Y-107785714D01*
X147023004Y-107785714D01*
X147118242Y-107738095D01*
X147165861Y-107690476D01*
X147213480Y-107595238D01*
X147213480Y-107404761D01*
X147165861Y-107309523D01*
X147118242Y-107261904D01*
X147023004Y-107214285D01*
X146832528Y-107214285D01*
X146737290Y-107261904D01*
X146689671Y-107309523D01*
X146642052Y-107404761D01*
G04 #@! TO.C,D9*
X154891280Y-108738095D02*
X153891280Y-108738095D01*
X153891280Y-108500000D01*
X153938900Y-108357142D01*
X154034138Y-108261904D01*
X154129376Y-108214285D01*
X154319852Y-108166666D01*
X154462709Y-108166666D01*
X154653185Y-108214285D01*
X154748423Y-108261904D01*
X154843661Y-108357142D01*
X154891280Y-108500000D01*
X154891280Y-108738095D01*
X154891280Y-107690476D02*
X154891280Y-107500000D01*
X154843661Y-107404761D01*
X154796042Y-107357142D01*
X154653185Y-107261904D01*
X154462709Y-107214285D01*
X154081757Y-107214285D01*
X153986519Y-107261904D01*
X153938900Y-107309523D01*
X153891280Y-107404761D01*
X153891280Y-107595238D01*
X153938900Y-107690476D01*
X153986519Y-107738095D01*
X154081757Y-107785714D01*
X154319852Y-107785714D01*
X154415090Y-107738095D01*
X154462709Y-107690476D01*
X154510328Y-107595238D01*
X154510328Y-107404761D01*
X154462709Y-107309523D01*
X154415090Y-107261904D01*
X154319852Y-107214285D01*
G04 #@! TO.C,D10*
X156213480Y-109214285D02*
X155213480Y-109214285D01*
X155213480Y-108976190D01*
X155261100Y-108833333D01*
X155356338Y-108738095D01*
X155451576Y-108690476D01*
X155642052Y-108642857D01*
X155784909Y-108642857D01*
X155975385Y-108690476D01*
X156070623Y-108738095D01*
X156165861Y-108833333D01*
X156213480Y-108976190D01*
X156213480Y-109214285D01*
X156213480Y-107690476D02*
X156213480Y-108261904D01*
X156213480Y-107976190D02*
X155213480Y-107976190D01*
X155356338Y-108071428D01*
X155451576Y-108166666D01*
X155499195Y-108261904D01*
X155213480Y-107071428D02*
X155213480Y-106976190D01*
X155261100Y-106880952D01*
X155308719Y-106833333D01*
X155403957Y-106785714D01*
X155594433Y-106738095D01*
X155832528Y-106738095D01*
X156023004Y-106785714D01*
X156118242Y-106833333D01*
X156165861Y-106880952D01*
X156213480Y-106976190D01*
X156213480Y-107071428D01*
X156165861Y-107166666D01*
X156118242Y-107214285D01*
X156023004Y-107261904D01*
X155832528Y-107309523D01*
X155594433Y-107309523D01*
X155403957Y-107261904D01*
X155308719Y-107214285D01*
X155261100Y-107166666D01*
X155213480Y-107071428D01*
G04 #@! TO.C,D11*
X163891280Y-109214285D02*
X162891280Y-109214285D01*
X162891280Y-108976190D01*
X162938900Y-108833333D01*
X163034138Y-108738095D01*
X163129376Y-108690476D01*
X163319852Y-108642857D01*
X163462709Y-108642857D01*
X163653185Y-108690476D01*
X163748423Y-108738095D01*
X163843661Y-108833333D01*
X163891280Y-108976190D01*
X163891280Y-109214285D01*
X163891280Y-107690476D02*
X163891280Y-108261904D01*
X163891280Y-107976190D02*
X162891280Y-107976190D01*
X163034138Y-108071428D01*
X163129376Y-108166666D01*
X163176995Y-108261904D01*
X163891280Y-106738095D02*
X163891280Y-107309523D01*
X163891280Y-107023809D02*
X162891280Y-107023809D01*
X163034138Y-107119047D01*
X163129376Y-107214285D01*
X163176995Y-107309523D01*
G04 #@! TO.C,D12*
X165213480Y-109214285D02*
X164213480Y-109214285D01*
X164213480Y-108976190D01*
X164261100Y-108833333D01*
X164356338Y-108738095D01*
X164451576Y-108690476D01*
X164642052Y-108642857D01*
X164784909Y-108642857D01*
X164975385Y-108690476D01*
X165070623Y-108738095D01*
X165165861Y-108833333D01*
X165213480Y-108976190D01*
X165213480Y-109214285D01*
X165213480Y-107690476D02*
X165213480Y-108261904D01*
X165213480Y-107976190D02*
X164213480Y-107976190D01*
X164356338Y-108071428D01*
X164451576Y-108166666D01*
X164499195Y-108261904D01*
X164308719Y-107309523D02*
X164261100Y-107261904D01*
X164213480Y-107166666D01*
X164213480Y-106928571D01*
X164261100Y-106833333D01*
X164308719Y-106785714D01*
X164403957Y-106738095D01*
X164499195Y-106738095D01*
X164642052Y-106785714D01*
X165213480Y-107357142D01*
X165213480Y-106738095D01*
G04 #@! TO.C,D13*
X172891280Y-109214285D02*
X171891280Y-109214285D01*
X171891280Y-108976190D01*
X171938900Y-108833333D01*
X172034138Y-108738095D01*
X172129376Y-108690476D01*
X172319852Y-108642857D01*
X172462709Y-108642857D01*
X172653185Y-108690476D01*
X172748423Y-108738095D01*
X172843661Y-108833333D01*
X172891280Y-108976190D01*
X172891280Y-109214285D01*
X172891280Y-107690476D02*
X172891280Y-108261904D01*
X172891280Y-107976190D02*
X171891280Y-107976190D01*
X172034138Y-108071428D01*
X172129376Y-108166666D01*
X172176995Y-108261904D01*
X171891280Y-107357142D02*
X171891280Y-106738095D01*
X172272233Y-107071428D01*
X172272233Y-106928571D01*
X172319852Y-106833333D01*
X172367471Y-106785714D01*
X172462709Y-106738095D01*
X172700804Y-106738095D01*
X172796042Y-106785714D01*
X172843661Y-106833333D01*
X172891280Y-106928571D01*
X172891280Y-107214285D01*
X172843661Y-107309523D01*
X172796042Y-107357142D01*
G04 #@! TO.C,D14*
X174213480Y-109214285D02*
X173213480Y-109214285D01*
X173213480Y-108976190D01*
X173261100Y-108833333D01*
X173356338Y-108738095D01*
X173451576Y-108690476D01*
X173642052Y-108642857D01*
X173784909Y-108642857D01*
X173975385Y-108690476D01*
X174070623Y-108738095D01*
X174165861Y-108833333D01*
X174213480Y-108976190D01*
X174213480Y-109214285D01*
X174213480Y-107690476D02*
X174213480Y-108261904D01*
X174213480Y-107976190D02*
X173213480Y-107976190D01*
X173356338Y-108071428D01*
X173451576Y-108166666D01*
X173499195Y-108261904D01*
X173546814Y-106833333D02*
X174213480Y-106833333D01*
X173165861Y-107071428D02*
X173880147Y-107309523D01*
X173880147Y-106690476D01*
G04 #@! TO.C,D15*
X181891280Y-109214285D02*
X180891280Y-109214285D01*
X180891280Y-108976190D01*
X180938900Y-108833333D01*
X181034138Y-108738095D01*
X181129376Y-108690476D01*
X181319852Y-108642857D01*
X181462709Y-108642857D01*
X181653185Y-108690476D01*
X181748423Y-108738095D01*
X181843661Y-108833333D01*
X181891280Y-108976190D01*
X181891280Y-109214285D01*
X181891280Y-107690476D02*
X181891280Y-108261904D01*
X181891280Y-107976190D02*
X180891280Y-107976190D01*
X181034138Y-108071428D01*
X181129376Y-108166666D01*
X181176995Y-108261904D01*
X180891280Y-106785714D02*
X180891280Y-107261904D01*
X181367471Y-107309523D01*
X181319852Y-107261904D01*
X181272233Y-107166666D01*
X181272233Y-106928571D01*
X181319852Y-106833333D01*
X181367471Y-106785714D01*
X181462709Y-106738095D01*
X181700804Y-106738095D01*
X181796042Y-106785714D01*
X181843661Y-106833333D01*
X181891280Y-106928571D01*
X181891280Y-107166666D01*
X181843661Y-107261904D01*
X181796042Y-107309523D01*
G04 #@! TO.C,D16*
X183213480Y-109214285D02*
X182213480Y-109214285D01*
X182213480Y-108976190D01*
X182261100Y-108833333D01*
X182356338Y-108738095D01*
X182451576Y-108690476D01*
X182642052Y-108642857D01*
X182784909Y-108642857D01*
X182975385Y-108690476D01*
X183070623Y-108738095D01*
X183165861Y-108833333D01*
X183213480Y-108976190D01*
X183213480Y-109214285D01*
X183213480Y-107690476D02*
X183213480Y-108261904D01*
X183213480Y-107976190D02*
X182213480Y-107976190D01*
X182356338Y-108071428D01*
X182451576Y-108166666D01*
X182499195Y-108261904D01*
X182213480Y-106833333D02*
X182213480Y-107023809D01*
X182261100Y-107119047D01*
X182308719Y-107166666D01*
X182451576Y-107261904D01*
X182642052Y-107309523D01*
X183023004Y-107309523D01*
X183118242Y-107261904D01*
X183165861Y-107214285D01*
X183213480Y-107119047D01*
X183213480Y-106928571D01*
X183165861Y-106833333D01*
X183118242Y-106785714D01*
X183023004Y-106738095D01*
X182784909Y-106738095D01*
X182689671Y-106785714D01*
X182642052Y-106833333D01*
X182594433Y-106928571D01*
X182594433Y-107119047D01*
X182642052Y-107214285D01*
X182689671Y-107261904D01*
X182784909Y-107309523D01*
G04 #@! TD*
M02*
