%TF.GenerationSoftware,KiCad,Pcbnew,(5.1.6-0-10_14)*%
%TF.CreationDate,2021-04-14T19:14:16+09:00*%
%TF.ProjectId,qPCR-photosensing,71504352-2d70-4686-9f74-6f73656e7369,rev?*%
%TF.SameCoordinates,Original*%
%TF.FileFunction,Copper,L1,Top*%
%TF.FilePolarity,Positive*%
%FSLAX46Y46*%
G04 Gerber Fmt 4.6, Leading zero omitted, Abs format (unit mm)*
G04 Created by KiCad (PCBNEW (5.1.6-0-10_14)) date 2021-04-14 19:14:16*
%MOMM*%
%LPD*%
G01*
G04 APERTURE LIST*
%TA.AperFunction,SMDPad,CuDef*%
%ADD10R,0.355600X1.473200*%
%TD*%
%TA.AperFunction,SMDPad,CuDef*%
%ADD11R,1.500000X1.250000*%
%TD*%
%TA.AperFunction,SMDPad,CuDef*%
%ADD12R,1.200000X0.750000*%
%TD*%
%TA.AperFunction,SMDPad,CuDef*%
%ADD13R,0.750000X1.200000*%
%TD*%
%TA.AperFunction,SMDPad,CuDef*%
%ADD14R,0.900000X1.200000*%
%TD*%
%TA.AperFunction,SMDPad,CuDef*%
%ADD15R,1.200000X0.900000*%
%TD*%
%TA.AperFunction,ComponentPad*%
%ADD16O,1.700000X1.700000*%
%TD*%
%TA.AperFunction,ComponentPad*%
%ADD17R,1.700000X1.700000*%
%TD*%
%TA.AperFunction,SMDPad,CuDef*%
%ADD18R,1.250000X1.500000*%
%TD*%
%TA.AperFunction,SMDPad,CuDef*%
%ADD19R,1.270000X0.508000*%
%TD*%
%TA.AperFunction,SMDPad,CuDef*%
%ADD20R,0.850001X0.399999*%
%TD*%
%TA.AperFunction,SMDPad,CuDef*%
%ADD21R,1.400000X1.400000*%
%TD*%
%TA.AperFunction,SMDPad,CuDef*%
%ADD22C,0.100000*%
%TD*%
%TA.AperFunction,ViaPad*%
%ADD23C,0.508000*%
%TD*%
%TA.AperFunction,ViaPad*%
%ADD24C,0.800000*%
%TD*%
%TA.AperFunction,Conductor*%
%ADD25C,1.524000*%
%TD*%
%TA.AperFunction,Conductor*%
%ADD26C,0.508000*%
%TD*%
%TA.AperFunction,Conductor*%
%ADD27C,0.250000*%
%TD*%
%TA.AperFunction,Conductor*%
%ADD28C,1.016000*%
%TD*%
%TA.AperFunction,Conductor*%
%ADD29C,0.254000*%
%TD*%
G04 APERTURE END LIST*
D10*
%TO.P,U2,16*%
%TO.N,I2C_SCL*%
X95574999Y-84921000D03*
%TO.P,U2,15*%
%TO.N,I2C_SDA*%
X94924998Y-84921000D03*
%TO.P,U2,14*%
%TO.N,ADC_DRDY*%
X94274999Y-84921000D03*
%TO.P,U2,13*%
%TO.N,VCC_LOGIC*%
X93624998Y-84921000D03*
%TO.P,U2,12*%
X92974999Y-84921000D03*
%TO.P,U2,11*%
%TO.N,THERM_TEST1*%
X92325001Y-84921000D03*
%TO.P,U2,10*%
%TO.N,THERM_WELL*%
X91674999Y-84921000D03*
%TO.P,U2,9*%
%TO.N,VCC_LOGIC*%
X91025001Y-84921000D03*
%TO.P,U2,8*%
%TO.N,GND*%
X91025001Y-79079000D03*
%TO.P,U2,7*%
%TO.N,/PHOTO_OUT_N*%
X91675002Y-79079000D03*
%TO.P,U2,6*%
%TO.N,/PHOTO_OUT_P*%
X92325001Y-79079000D03*
%TO.P,U2,5*%
%TO.N,GND*%
X92975002Y-79079000D03*
%TO.P,U2,4*%
X93625001Y-79079000D03*
%TO.P,U2,3*%
%TO.N,VCC_LOGIC*%
X94274999Y-79079000D03*
%TO.P,U2,2*%
%TO.N,GND*%
X94925001Y-79079000D03*
%TO.P,U2,1*%
X95574999Y-79079000D03*
%TD*%
D11*
%TO.P,C1,2*%
%TO.N,PHOTO_GND*%
X98350000Y-90100000D03*
%TO.P,C1,1*%
%TO.N,Net-(C1-Pad1)*%
X95850000Y-90100000D03*
%TD*%
D12*
%TO.P,C4,1*%
%TO.N,/GAIN_SMALL*%
X113250000Y-108100000D03*
%TO.P,C4,2*%
%TO.N,PD_MUX_OUT*%
X111350000Y-108100000D03*
%TD*%
%TO.P,C5,2*%
%TO.N,GND*%
X86950000Y-105300000D03*
%TO.P,C5,1*%
%TO.N,VCC_LOGIC*%
X88850000Y-105300000D03*
%TD*%
%TO.P,C6,1*%
%TO.N,/GAIN_LARGE*%
X108950000Y-108100000D03*
%TO.P,C6,2*%
%TO.N,PD_MUX_OUT*%
X107050000Y-108100000D03*
%TD*%
D13*
%TO.P,C7,2*%
%TO.N,/AMP_OUT*%
X100500000Y-103950000D03*
%TO.P,C7,1*%
%TO.N,PHOTO_GND*%
X100500000Y-105850000D03*
%TD*%
D14*
%TO.P,R1,2*%
%TO.N,PHOTO_3V3*%
X93300000Y-95100000D03*
%TO.P,R1,1*%
%TO.N,Net-(R1-Pad1)*%
X93300000Y-92900000D03*
%TD*%
D15*
%TO.P,R2,1*%
%TO.N,Net-(C2-Pad1)*%
X95200000Y-100400000D03*
%TO.P,R2,2*%
%TO.N,PHOTO_3V3*%
X97400000Y-100400000D03*
%TD*%
%TO.P,R3,2*%
%TO.N,VCC_LOGIC*%
X106600000Y-90900000D03*
%TO.P,R3,1*%
%TO.N,Net-(R3-Pad1)*%
X104400000Y-90900000D03*
%TD*%
D10*
%TO.P,U1,16*%
%TO.N,XOUT*%
X99374999Y-97919400D03*
%TO.P,U1,15*%
%TO.N,DEMOD_SPI_SCLK*%
X98724998Y-97919400D03*
%TO.P,U1,14*%
%TO.N,DEMOD_SPI_SDIO*%
X98074999Y-97919400D03*
%TO.P,U1,13*%
%TO.N,PD_REF_PWM*%
X97424998Y-97919400D03*
%TO.P,U1,12*%
%TO.N,PHOTO_3V3*%
X96774999Y-97919400D03*
%TO.P,U1,11*%
%TO.N,/PHOTO_OUT_P*%
X96125001Y-97919400D03*
%TO.P,U1,10*%
%TO.N,/PHOTO_OUT_N*%
X95474999Y-97919400D03*
%TO.P,U1,9*%
%TO.N,Net-(C2-Pad1)*%
X94825001Y-97919400D03*
%TO.P,U1,8*%
%TO.N,Net-(C1-Pad1)*%
X94825001Y-92280600D03*
%TO.P,U1,7*%
%TO.N,PHOTO_GND*%
X95475002Y-92280600D03*
%TO.P,U1,6*%
%TO.N,/AMP_OUT*%
X96125001Y-92280600D03*
%TO.P,U1,5*%
%TO.N,PHOTO_GND*%
X96775002Y-92280600D03*
%TO.P,U1,4*%
%TO.N,Net-(R1-Pad1)*%
X97425001Y-92280600D03*
%TO.P,U1,3*%
%TO.N,DEMOD_SPI_CS*%
X98074999Y-92280600D03*
%TO.P,U1,2*%
%TO.N,N/C*%
X98725001Y-92280600D03*
%TO.P,U1,1*%
%TO.N,CLKIN*%
X99374999Y-92280600D03*
%TD*%
D16*
%TO.P,J1,14*%
%TO.N,THERM_WELL*%
X86730000Y-69980000D03*
%TO.P,J1,13*%
%TO.N,I2C_SDA*%
X86730000Y-72520000D03*
%TO.P,J1,12*%
%TO.N,I2C_SCL*%
X86730000Y-75060000D03*
%TO.P,J1,11*%
%TO.N,ADC_DRDY*%
X86730000Y-77600000D03*
%TO.P,J1,10*%
%TO.N,PD_REF_PWM*%
X86730000Y-80140000D03*
%TO.P,J1,9*%
%TO.N,PD_MUX_GPIO1*%
X86730000Y-82680000D03*
%TO.P,J1,8*%
%TO.N,PD_MUX_GPIO2*%
X86730000Y-85220000D03*
%TO.P,J1,7*%
%TO.N,PD_MUX_GPIO3*%
X86730000Y-87760000D03*
%TO.P,J1,6*%
%TO.N,PD_MUX_GPIO4*%
X86730000Y-90300000D03*
%TO.P,J1,5*%
%TO.N,PD_MUX_GPIO5*%
X86730000Y-92840000D03*
%TO.P,J1,4*%
%TO.N,VCC_LOGIC*%
X86730000Y-95380000D03*
%TO.P,J1,3*%
%TO.N,N/C*%
X86730000Y-97920000D03*
%TO.P,J1,2*%
X86730000Y-100460000D03*
D17*
%TO.P,J1,1*%
%TO.N,GND*%
X86730000Y-103000000D03*
%TD*%
%TO.P,R6,1*%
%TO.N,PD_MUX_OUT*%
X110980000Y-110130000D03*
D16*
%TO.P,R6,2*%
%TO.N,/GAIN_SMALL*%
X113520000Y-110130000D03*
%TD*%
%TO.P,JSPI1,4*%
%TO.N,DEMOD_SPI_CS*%
X86360000Y-110000000D03*
%TO.P,JSPI1,3*%
%TO.N,DEMOD_SPI_SDIO*%
X86360000Y-107460000D03*
%TO.P,JSPI1,2*%
%TO.N,DEMOD_SPI_SCLK*%
X88900000Y-110000000D03*
D17*
%TO.P,JSPI1,1*%
%TO.N,GND*%
X88900000Y-107460000D03*
%TD*%
D18*
%TO.P,C2,2*%
%TO.N,PHOTO_GND*%
X101600000Y-93350000D03*
%TO.P,C2,1*%
%TO.N,Net-(C2-Pad1)*%
X101600000Y-90850000D03*
%TD*%
D16*
%TO.P,J2,5*%
%TO.N,/AMP_GAIN_SW*%
X111200000Y-93360000D03*
%TO.P,J2,4*%
%TO.N,-1V*%
X111200000Y-90820000D03*
%TO.P,J2,3*%
%TO.N,PHOTO_3V3*%
X111200000Y-88280000D03*
%TO.P,J2,2*%
%TO.N,PHOTO_GND*%
X111200000Y-85740000D03*
D17*
%TO.P,J2,1*%
%TO.N,THERM_TEST1*%
X111200000Y-83200000D03*
%TD*%
D16*
%TO.P,J3,2*%
%TO.N,XOUT*%
X111200000Y-79040000D03*
D17*
%TO.P,J3,1*%
%TO.N,CLKIN*%
X111200000Y-76500000D03*
%TD*%
D16*
%TO.P,J8,4*%
%TO.N,/GAIN_SMALL*%
X111200000Y-105420000D03*
%TO.P,J8,3*%
%TO.N,PD_MUX_OUT*%
X111200000Y-102880000D03*
%TO.P,J8,2*%
X111200000Y-100340000D03*
D17*
%TO.P,J8,1*%
%TO.N,/GAIN_LARGE*%
X111200000Y-97800000D03*
%TD*%
D16*
%TO.P,J9,5*%
%TO.N,PD_MUX_OUT*%
X103298000Y-110000000D03*
%TO.P,J9,4*%
%TO.N,-1V*%
X100758000Y-110000000D03*
%TO.P,J9,3*%
%TO.N,PHOTO_GND*%
X98218000Y-110000000D03*
%TO.P,J9,2*%
%TO.N,VCC_LOGIC*%
X95678000Y-110000000D03*
D17*
%TO.P,J9,1*%
%TO.N,GND*%
X93138000Y-110000000D03*
%TD*%
%TO.P,J10,1*%
%TO.N,PD_MUX_GPIO5*%
X103298000Y-64440000D03*
D16*
%TO.P,J10,2*%
%TO.N,PD_MUX_GPIO4*%
X100758000Y-64440000D03*
%TO.P,J10,3*%
%TO.N,PD_MUX_GPIO3*%
X98218000Y-64440000D03*
%TO.P,J10,4*%
%TO.N,PD_MUX_GPIO2*%
X95678000Y-64440000D03*
%TO.P,J10,5*%
%TO.N,PD_MUX_GPIO1*%
X93138000Y-64440000D03*
%TD*%
D17*
%TO.P,R4,1*%
%TO.N,PD_MUX_OUT*%
X105900000Y-110130000D03*
D16*
%TO.P,R4,2*%
%TO.N,/GAIN_LARGE*%
X108440000Y-110130000D03*
%TD*%
D19*
%TO.P,U3,5*%
%TO.N,PHOTO_3V3*%
X104719200Y-105249999D03*
%TO.P,U3,4*%
%TO.N,PD_MUX_OUT*%
X104719200Y-107150001D03*
%TO.P,U3,3*%
%TO.N,PHOTO_GND*%
X102280800Y-107150001D03*
%TO.P,U3,2*%
X102280800Y-106200000D03*
%TO.P,U3,1*%
%TO.N,/AMP_OUT*%
X102280800Y-105249999D03*
%TD*%
D20*
%TO.P,U4,1*%
%TO.N,/AMP_GAIN_SW*%
X104475001Y-101449999D03*
%TO.P,U4,2*%
%TO.N,PHOTO_3V3*%
X104475001Y-102100000D03*
%TO.P,U4,3*%
%TO.N,-1V*%
X104475001Y-102749999D03*
%TO.P,U4,4*%
%TO.N,/GAIN_LARGE*%
X106725002Y-102749999D03*
%TO.P,U4,5*%
%TO.N,/AMP_OUT*%
X106725002Y-102100000D03*
%TO.P,U4,6*%
%TO.N,/GAIN_SMALL*%
X106725002Y-101449999D03*
%TD*%
D21*
%TO.P,U5,1*%
%TO.N,Net-(R3-Pad1)*%
X104700000Y-93200000D03*
%TO.P,U5,2*%
%TO.N,GND*%
X104700000Y-95400000D03*
%TO.P,U5,3*%
%TO.N,Net-(JP1-Pad1)*%
X106300000Y-95400000D03*
%TO.P,U5,4*%
%TO.N,VCC_LOGIC*%
X106300000Y-93200000D03*
%TD*%
%TA.AperFunction,SMDPad,CuDef*%
D22*
%TO.P,JP1,2*%
%TO.N,CLKIN*%
G36*
X100550000Y-94850000D02*
G01*
X101700000Y-94850000D01*
X101200000Y-95600000D01*
X101700000Y-96350000D01*
X100550000Y-96350000D01*
X100550000Y-94850000D01*
G37*
%TD.AperFunction*%
%TA.AperFunction,SMDPad,CuDef*%
%TO.P,JP1,1*%
%TO.N,Net-(JP1-Pad1)*%
G36*
X101500000Y-95600000D02*
G01*
X102000000Y-94850000D01*
X103000000Y-94850000D01*
X103000000Y-96350000D01*
X102000000Y-96350000D01*
X101500000Y-95600000D01*
G37*
%TD.AperFunction*%
%TD*%
D14*
%TO.P,R5,2*%
%TO.N,-1V*%
X102100000Y-103000000D03*
%TO.P,R5,1*%
%TO.N,/AMP_GAIN_SW*%
X102100000Y-100800000D03*
%TD*%
D16*
%TO.P,J4,4*%
%TO.N,/AMP_OUT*%
X111200000Y-72620000D03*
%TO.P,J4,3*%
%TO.N,PD_MUX_OUT*%
X111200000Y-70080000D03*
%TO.P,J4,2*%
%TO.N,/PHOTO_OUT_P*%
X111200000Y-67540000D03*
D17*
%TO.P,J4,1*%
%TO.N,/PHOTO_OUT_N*%
X111200000Y-65000000D03*
%TD*%
D23*
%TO.N,GND*%
X90270000Y-63020000D03*
X88890000Y-64370000D03*
X83880000Y-63360000D03*
X86900000Y-63390000D03*
X84000000Y-66340000D03*
X86360000Y-66340000D03*
X85650000Y-64980000D03*
X83950000Y-78880000D03*
X85220000Y-92310000D03*
X83850000Y-90460000D03*
X83690000Y-84990000D03*
X83800000Y-81840000D03*
X83780000Y-87680000D03*
X83920000Y-94390000D03*
X85650000Y-94160000D03*
X85580000Y-96580000D03*
X85530000Y-99120000D03*
X85440000Y-101500000D03*
X85270000Y-104610000D03*
X85440000Y-106080000D03*
X85270000Y-108680000D03*
X85100000Y-111250000D03*
X84050000Y-110050000D03*
X83990000Y-107240000D03*
X84020000Y-103550000D03*
X83990000Y-100730000D03*
X84050000Y-97860000D03*
X90570000Y-111180000D03*
X91070000Y-109930000D03*
X94560000Y-111180000D03*
X96920000Y-111020000D03*
X99490000Y-111060000D03*
X102030000Y-111010000D03*
X94463800Y-77536200D03*
D24*
X103555550Y-94623360D03*
D23*
X88400000Y-67700000D03*
X89200000Y-66900000D03*
X87800000Y-74000000D03*
X87800000Y-71300000D03*
X88300000Y-69400000D03*
X91200000Y-66700000D03*
X90400000Y-69200000D03*
X89200000Y-70500000D03*
X89100000Y-72500000D03*
X89600000Y-74500000D03*
X91600000Y-76000000D03*
X91100000Y-73800000D03*
X91100000Y-71700000D03*
X92400000Y-68200000D03*
X92200000Y-70300000D03*
X92600000Y-72600000D03*
X92900000Y-74500000D03*
X94700000Y-73000000D03*
X94500000Y-70900000D03*
X94200000Y-69000000D03*
X93900000Y-67000000D03*
X96100000Y-66800000D03*
X96500000Y-68400000D03*
X96600000Y-70300000D03*
X98800000Y-69000000D03*
X98800000Y-67400000D03*
X100200000Y-66200000D03*
X101500000Y-66300000D03*
X104900000Y-65200000D03*
X105100000Y-63300000D03*
X106800000Y-64500000D03*
X109000000Y-63400000D03*
X109200000Y-65400000D03*
X112600000Y-63500000D03*
X113200000Y-66200000D03*
X112900000Y-68800000D03*
X113600000Y-70600000D03*
X114300000Y-67300000D03*
X114100000Y-64900000D03*
X114000000Y-72700000D03*
X114100000Y-75500000D03*
X113600000Y-77000000D03*
X114100000Y-79900000D03*
X113500000Y-81500000D03*
X114000000Y-83300000D03*
X113700000Y-85200000D03*
X114200000Y-87000000D03*
X113300000Y-88400000D03*
X114200000Y-89700000D03*
X113400000Y-91100000D03*
X114300000Y-92800000D03*
X113300000Y-94200000D03*
X114100000Y-96000000D03*
X113300000Y-97800000D03*
X114100000Y-99800000D03*
X112200000Y-101500000D03*
X113800000Y-103000000D03*
X113500000Y-104500000D03*
X114000000Y-106400000D03*
X109000000Y-106400000D03*
X107200000Y-106500000D03*
X105800000Y-106500000D03*
X107800000Y-104800000D03*
X108100000Y-105700000D03*
X109100000Y-104600000D03*
X103500000Y-106400000D03*
X101800000Y-108500000D03*
X99800000Y-107200000D03*
X98200000Y-108600000D03*
X96500000Y-107700000D03*
X95100000Y-106400000D03*
X93700000Y-104800000D03*
X95000000Y-103300000D03*
X95900000Y-104700000D03*
X97000000Y-106100000D03*
X96700000Y-102700000D03*
X98400000Y-102300000D03*
X97400000Y-103700000D03*
X98800000Y-105200000D03*
X91100000Y-104000000D03*
X90300000Y-102500000D03*
X90300000Y-101000000D03*
X91400000Y-100100000D03*
X92100000Y-101300000D03*
X93700000Y-101400000D03*
X91900000Y-102500000D03*
X90200000Y-97800000D03*
X91100000Y-96600000D03*
X89400000Y-94800000D03*
X91300000Y-93500000D03*
X89400000Y-93000000D03*
X91200000Y-90900000D03*
X89300000Y-89000000D03*
X89900000Y-88000000D03*
X90100000Y-90900000D03*
X92400000Y-88100000D03*
X93600000Y-88300000D03*
X95900000Y-88000000D03*
X99300000Y-88000000D03*
X101500000Y-88000000D03*
X88100000Y-87100000D03*
X90000000Y-86100000D03*
X87900000Y-84100000D03*
X90000000Y-83300000D03*
X88500000Y-85600000D03*
X87300000Y-81400000D03*
X88600000Y-82000000D03*
X94100000Y-76300000D03*
X95900000Y-74600000D03*
X98200000Y-72300000D03*
X100300000Y-70100000D03*
X103100000Y-67400000D03*
X109500000Y-67500000D03*
X106300000Y-67500000D03*
X102800000Y-69600000D03*
X104100000Y-72200000D03*
X100400000Y-74200000D03*
X101800000Y-72200000D03*
X98100000Y-75600000D03*
X96300000Y-77200000D03*
X99500000Y-78100000D03*
X97100000Y-79600000D03*
X103900000Y-74200000D03*
X101500000Y-76400000D03*
X105900000Y-70000000D03*
X108300000Y-69400000D03*
X108700000Y-71800000D03*
X106700000Y-73500000D03*
X110100000Y-71400000D03*
X111000000Y-74500000D03*
X109600000Y-77200000D03*
X108600000Y-75200000D03*
X105900000Y-76400000D03*
X103500000Y-77900000D03*
X100200000Y-79900000D03*
X97800000Y-81800000D03*
X96800000Y-84400000D03*
X97400000Y-86300000D03*
X100100000Y-84600000D03*
X101800000Y-86200000D03*
X103900000Y-84400000D03*
X105600000Y-86300000D03*
X108100000Y-84400000D03*
X108200000Y-86600000D03*
X108200000Y-82500000D03*
X105000000Y-82600000D03*
X101400000Y-82700000D03*
X103200000Y-80700000D03*
X105900000Y-79500000D03*
X107800000Y-78100000D03*
X107400000Y-80900000D03*
%TO.N,VCC_LOGIC*%
X90100000Y-105300000D03*
D24*
X108036130Y-90236130D03*
X107374857Y-87499837D03*
D23*
%TO.N,/AMP_OUT*%
X96623762Y-94100000D03*
D24*
X99600000Y-94100000D03*
X108500000Y-103700000D03*
%TO.N,PD_REF_PWM*%
X98000000Y-96100000D03*
%TO.N,PD_MUX_GPIO5*%
X91230000Y-64890000D03*
%TO.N,THERM_TEST1*%
X93000000Y-83500000D03*
D23*
%TO.N,DEMOD_SPI_CS*%
X95600000Y-102500000D03*
D24*
X92900000Y-99700000D03*
%TO.N,PHOTO_GND*%
X100152801Y-98192000D03*
X102800000Y-93600000D03*
%TO.N,-1V*%
X100900000Y-102600000D03*
%TO.N,PHOTO_3V3*%
X103300000Y-101800000D03*
X96900000Y-99300000D03*
X92800000Y-98600000D03*
%TO.N,XOUT*%
X93582346Y-89382346D03*
X98605439Y-94954000D03*
%TO.N,CLKIN*%
X101505858Y-89049999D03*
X99800000Y-91100000D03*
D23*
%TO.N,/PHOTO_OUT_P*%
X92300000Y-77400000D03*
D24*
X96800000Y-95900000D03*
D23*
%TO.N,/PHOTO_OUT_N*%
X91300000Y-77400000D03*
D24*
X95700000Y-95900000D03*
%TD*%
D25*
%TO.N,GND*%
X86950000Y-103220000D02*
X86730000Y-103000000D01*
X86950000Y-105300000D02*
X86950000Y-103220000D01*
D26*
X93619600Y-76691999D02*
X94213800Y-77286200D01*
X94213800Y-77286200D02*
X94463800Y-77536200D01*
X93625001Y-79079000D02*
X93625001Y-77834400D01*
X94463800Y-77536200D02*
X94925001Y-77997400D01*
X93625001Y-77834400D02*
X93923201Y-77536200D01*
X93923201Y-77536200D02*
X94463800Y-77536200D01*
X91025001Y-79079000D02*
X91025001Y-79074999D01*
X91025001Y-79074999D02*
X90591999Y-78641997D01*
X90591999Y-78641997D02*
X90591999Y-77060159D01*
X90960159Y-76691999D02*
X93619600Y-76691999D01*
X90591999Y-77060159D02*
X90960159Y-76691999D01*
X94925001Y-77997400D02*
X94925001Y-79079000D01*
X94925001Y-79079000D02*
X95574999Y-79079000D01*
X92975002Y-79079000D02*
X93625001Y-79079000D01*
X104200000Y-95400000D02*
X103500000Y-94700000D01*
X104700000Y-95400000D02*
X104200000Y-95400000D01*
D27*
X94502999Y-111122999D02*
X94560000Y-111180000D01*
X94502999Y-109337791D02*
X94502999Y-111122999D01*
X96140790Y-107700000D02*
X94502999Y-109337791D01*
X96500000Y-107700000D02*
X96140790Y-107700000D01*
%TO.N,Net-(C1-Pad1)*%
X95850000Y-90100000D02*
X95475002Y-90474998D01*
X94825001Y-91124999D02*
X94825001Y-92280600D01*
X95850000Y-90100000D02*
X94825001Y-91124999D01*
%TO.N,Net-(C2-Pad1)*%
X94825001Y-100025001D02*
X95200000Y-100400000D01*
X94825001Y-97919400D02*
X94825001Y-100025001D01*
X94974999Y-100625001D02*
X95200000Y-100400000D01*
X95174999Y-100425001D02*
X95200000Y-100400000D01*
X92551999Y-100425001D02*
X95174999Y-100425001D01*
X91966990Y-92023008D02*
X91966990Y-99839992D01*
X99899999Y-89149999D02*
X94839999Y-89149999D01*
X91966990Y-99839992D02*
X92551999Y-100425001D01*
X94839999Y-89149999D02*
X91966990Y-92023008D01*
X101600000Y-90850000D02*
X99899999Y-89149999D01*
D26*
%TO.N,PD_MUX_OUT*%
X111350000Y-109760000D02*
X110980000Y-110130000D01*
X111350000Y-108100000D02*
X111350000Y-109760000D01*
X105050001Y-107150001D02*
X104719200Y-107150001D01*
X105770000Y-110000000D02*
X105900000Y-110130000D01*
X107879001Y-107270999D02*
X107050000Y-108100000D01*
X110520999Y-107270999D02*
X107879001Y-107270999D01*
X111350000Y-108100000D02*
X110520999Y-107270999D01*
X111200000Y-102880000D02*
X111200000Y-100340000D01*
D25*
X103298000Y-108571201D02*
X104719200Y-107150001D01*
X103298000Y-110000000D02*
X103298000Y-108571201D01*
X103428000Y-110130000D02*
X103298000Y-110000000D01*
X105900000Y-110130000D02*
X103428000Y-110130000D01*
X105669199Y-108100000D02*
X104719200Y-107150001D01*
X107050000Y-108100000D02*
X105669199Y-108100000D01*
X105900000Y-109250000D02*
X107050000Y-108100000D01*
X105900000Y-110130000D02*
X105900000Y-109250000D01*
X105900000Y-110130000D02*
X105730000Y-110130000D01*
X105730000Y-110130000D02*
X104600000Y-109000000D01*
D26*
X112504001Y-99035999D02*
X111200000Y-100340000D01*
X112504001Y-71384001D02*
X112504001Y-99035999D01*
X111200000Y-70080000D02*
X112504001Y-71384001D01*
D25*
%TO.N,VCC_LOGIC*%
X88850000Y-96297919D02*
X88850000Y-105300000D01*
X87932081Y-95380000D02*
X88850000Y-96297919D01*
X86730000Y-95380000D02*
X87932081Y-95380000D01*
X88850000Y-105300000D02*
X90100000Y-105300000D01*
D26*
X93624998Y-84921000D02*
X93033011Y-84921000D01*
X106300000Y-91200000D02*
X106600000Y-90900000D01*
X106300000Y-93200000D02*
X106300000Y-91200000D01*
X92974999Y-87174999D02*
X93000000Y-87200000D01*
X92974999Y-84921000D02*
X92974999Y-87174999D01*
X88300000Y-88300000D02*
X88300000Y-95012081D01*
X88300000Y-95012081D02*
X87932081Y-95380000D01*
X89400000Y-87200000D02*
X88300000Y-88300000D01*
X91025001Y-87025001D02*
X91200000Y-87200000D01*
X91025001Y-84921000D02*
X91025001Y-87025001D01*
X91200000Y-87200000D02*
X89400000Y-87200000D01*
X93000000Y-87200000D02*
X91200000Y-87200000D01*
X93000000Y-87200000D02*
X95700000Y-87200000D01*
X107263870Y-90236130D02*
X106600000Y-90900000D01*
X108036130Y-90236130D02*
X107263870Y-90236130D01*
X107075020Y-87200000D02*
X107374857Y-87499837D01*
D27*
X96077800Y-87122200D02*
X96000000Y-87200000D01*
X94274999Y-79079000D02*
X94274999Y-80274999D01*
X96077800Y-82077800D02*
X96077800Y-87122200D01*
X94274999Y-80274999D02*
X96077800Y-82077800D01*
D26*
X96000000Y-87200000D02*
X107075020Y-87200000D01*
X95700000Y-87200000D02*
X96000000Y-87200000D01*
%TO.N,/AMP_OUT*%
X96125001Y-93601239D02*
X96125001Y-92280600D01*
X96623762Y-94100000D02*
X96125001Y-93601239D01*
D27*
X103165800Y-105249999D02*
X102280800Y-105249999D01*
X105614201Y-105829000D02*
X103744801Y-105829000D01*
X107475004Y-103968197D02*
X105614201Y-105829000D01*
X107285005Y-102100000D02*
X107475004Y-102289999D01*
X103744801Y-105829000D02*
X103165800Y-105249999D01*
X106725002Y-102100000D02*
X107285005Y-102100000D01*
D26*
X100500000Y-103950000D02*
X100500000Y-104000000D01*
X101749999Y-105249999D02*
X102280800Y-105249999D01*
X100500000Y-104000000D02*
X101749999Y-105249999D01*
X107500000Y-103700000D02*
X107475004Y-103724996D01*
X108500000Y-103700000D02*
X107500000Y-103700000D01*
D27*
X107475004Y-103724996D02*
X107475004Y-103968197D01*
X107475004Y-102289999D02*
X107475004Y-103724996D01*
D26*
X100006800Y-102229278D02*
X100006800Y-103456800D01*
X99600000Y-94100000D02*
X100006800Y-94506800D01*
X101195999Y-101040079D02*
X100006800Y-102229278D01*
X101195999Y-97638067D02*
X101195999Y-101040079D01*
X100006800Y-96448868D02*
X101195999Y-97638067D01*
X100006800Y-103456800D02*
X100500000Y-103950000D01*
X100006800Y-94506800D02*
X100006800Y-96448868D01*
D27*
%TO.N,THERM_WELL*%
X85104990Y-77713992D02*
X85104990Y-71605010D01*
X86165999Y-78775001D02*
X85104990Y-77713992D01*
X85104990Y-71605010D02*
X86730000Y-69980000D01*
X87075001Y-78775001D02*
X86165999Y-78775001D01*
X87104003Y-78775001D02*
X87075001Y-78775001D01*
X89817811Y-81490629D02*
X90900000Y-81490630D01*
X91674999Y-82265629D02*
X91674999Y-84921000D01*
X88649971Y-80322791D02*
X89817811Y-81490629D01*
X87475001Y-78775001D02*
X88649970Y-79949970D01*
X88649970Y-79949970D02*
X88649971Y-80322791D01*
X90900000Y-81490630D02*
X91674999Y-82265629D01*
X87075001Y-78775001D02*
X87475001Y-78775001D01*
%TO.N,I2C_SDA*%
X86180000Y-76280000D02*
X85554999Y-75654999D01*
X88980000Y-76280000D02*
X86180000Y-76280000D01*
X89549990Y-76849990D02*
X88980000Y-76280000D01*
X85554999Y-75654999D02*
X85554999Y-73695001D01*
X90190611Y-80590611D02*
X89549990Y-79949990D01*
X94924998Y-84321000D02*
X94924998Y-82197818D01*
X93317791Y-80590611D02*
X90190611Y-80590611D01*
X85554999Y-73695001D02*
X86730000Y-72520000D01*
X89549990Y-79949990D02*
X89549990Y-76849990D01*
X94924998Y-82197818D02*
X93317791Y-80590611D01*
%TO.N,I2C_SCL*%
X86730000Y-75060000D02*
X86830620Y-74959380D01*
X86940030Y-74849970D02*
X86730000Y-75060000D01*
X88860000Y-75060000D02*
X86730000Y-75060000D01*
X90000000Y-76200000D02*
X88860000Y-75060000D01*
X93504191Y-80140601D02*
X90587200Y-80140601D01*
X90000000Y-79553401D02*
X90000000Y-76200000D01*
X90587200Y-80140601D02*
X90000000Y-79553401D01*
X95574999Y-82211409D02*
X93504191Y-80140601D01*
X95574999Y-84321000D02*
X95574999Y-82211409D01*
%TO.N,ADC_DRDY*%
X86730000Y-77764588D02*
X86730000Y-77600000D01*
X86730000Y-77470000D02*
X86730000Y-77600000D01*
X88200000Y-77600000D02*
X86730000Y-77600000D01*
X89099980Y-78499980D02*
X88200000Y-77600000D01*
X89099980Y-80136390D02*
X89099980Y-78499980D01*
X90004210Y-81040620D02*
X89099980Y-80136390D01*
X93131391Y-81040621D02*
X90004210Y-81040620D01*
X94274999Y-82184229D02*
X93131391Y-81040621D01*
X94274999Y-84321000D02*
X94274999Y-82184229D01*
%TO.N,PD_REF_PWM*%
X97424998Y-96675002D02*
X97424998Y-97919400D01*
X98000000Y-96100000D02*
X97424998Y-96675002D01*
%TO.N,PD_MUX_GPIO1*%
X84654981Y-77900393D02*
X85554999Y-78800411D01*
X84654980Y-69943218D02*
X84654981Y-77900393D01*
X90504999Y-68095001D02*
X89800000Y-68800000D01*
X85554999Y-81504999D02*
X86730000Y-82680000D01*
X85554999Y-78800411D02*
X85554999Y-81504999D01*
X89800000Y-68800000D02*
X85798198Y-68800000D01*
X93138000Y-64440000D02*
X92413009Y-63715009D01*
X90504999Y-64485001D02*
X90504999Y-68095001D01*
X85798198Y-68800000D02*
X84654980Y-69943218D01*
X91274991Y-63715009D02*
X90504999Y-64485001D01*
X92413009Y-63715009D02*
X91274991Y-63715009D01*
%TO.N,PD_MUX_GPIO2*%
X85104989Y-78986811D02*
X85104989Y-83594989D01*
X84204972Y-78086792D02*
X85104989Y-78986811D01*
X84204971Y-69756817D02*
X84204972Y-78086792D01*
X89613600Y-68349990D02*
X85611797Y-68349991D01*
X85611797Y-68349991D02*
X84204971Y-69756817D01*
X90054989Y-64298601D02*
X90054989Y-67908601D01*
X85104989Y-83594989D02*
X86730000Y-85220000D01*
X90054989Y-67908601D02*
X89613600Y-68349990D01*
X95678000Y-64440000D02*
X94502999Y-63264999D01*
X91069589Y-63264999D02*
X91069589Y-63284001D01*
X91069589Y-63284001D02*
X90054989Y-64298601D01*
X94502999Y-63264999D02*
X91069589Y-63264999D01*
%TO.N,PD_MUX_GPIO5*%
X91955001Y-65615001D02*
X102122999Y-65615001D01*
X91230000Y-64890000D02*
X91955001Y-65615001D01*
X102122999Y-65615001D02*
X103298000Y-64440000D01*
%TO.N,THERM_TEST1*%
X92325001Y-84174999D02*
X93000000Y-83500000D01*
X92325001Y-84921000D02*
X92325001Y-84174999D01*
%TO.N,/AMP_GAIN_SW*%
X102100000Y-100800000D02*
X103700000Y-100800000D01*
X104349999Y-101449999D02*
X104475001Y-101449999D01*
X103700000Y-100800000D02*
X104349999Y-101449999D01*
X104878591Y-101449999D02*
X104475001Y-101449999D01*
X111200000Y-95128590D02*
X104878591Y-101449999D01*
X111200000Y-93360000D02*
X111200000Y-95128590D01*
%TO.N,DEMOD_SPI_CS*%
X98019400Y-92280600D02*
X98074999Y-92280600D01*
X98100000Y-92305601D02*
X98074999Y-92280600D01*
X98074999Y-94104015D02*
X97049996Y-95129018D01*
X94075001Y-95624999D02*
X94075001Y-99224999D01*
X94570982Y-95129018D02*
X94075001Y-95624999D01*
X97049996Y-95129018D02*
X94570982Y-95129018D01*
X98074999Y-92280600D02*
X98074999Y-94104015D01*
X93600000Y-99700000D02*
X92900000Y-99700000D01*
X94075001Y-99224999D02*
X93600000Y-99700000D01*
X92087029Y-105222547D02*
X94809576Y-102500000D01*
X92087029Y-107830791D02*
X92087029Y-105222547D01*
X90075001Y-109842821D02*
X92087029Y-107830791D01*
X87535001Y-111175001D02*
X89464001Y-111175001D01*
X90075001Y-110564001D02*
X90075001Y-109842821D01*
X89464001Y-111175001D02*
X90075001Y-110564001D01*
X94809576Y-102500000D02*
X95600000Y-102500000D01*
X86360000Y-110000000D02*
X87535001Y-111175001D01*
%TO.N,DEMOD_SPI_SDIO*%
X98950010Y-99678598D02*
X98074999Y-98803587D01*
X94861755Y-101175001D02*
X98260001Y-101175001D01*
X91187010Y-104849746D02*
X94861755Y-101175001D01*
X91187010Y-107457992D02*
X91187010Y-104849746D01*
X98950010Y-100484992D02*
X98950010Y-99678598D01*
X89820003Y-108824999D02*
X91187010Y-107457992D01*
X87724999Y-108824999D02*
X89820003Y-108824999D01*
X98074999Y-98803587D02*
X98074999Y-97919400D01*
X98260001Y-101175001D02*
X98950010Y-100484992D01*
X86360000Y-107460000D02*
X87724999Y-108824999D01*
%TO.N,DEMOD_SPI_SCLK*%
X98724998Y-98817176D02*
X98724998Y-97919400D01*
X99400020Y-99492198D02*
X98724998Y-98817176D01*
X99400020Y-100671392D02*
X99400020Y-99492198D01*
X95048155Y-101625011D02*
X98446402Y-101625010D01*
X91637020Y-105036146D02*
X95048155Y-101625011D01*
X98446402Y-101625010D02*
X99400020Y-100671392D01*
X91637020Y-107644392D02*
X91637020Y-105036146D01*
X89281412Y-110000000D02*
X91637020Y-107644392D01*
X88900000Y-110000000D02*
X89281412Y-110000000D01*
%TO.N,Net-(R1-Pad1)*%
X93300000Y-93100000D02*
X93300000Y-92900000D01*
X94879008Y-94679008D02*
X93300000Y-93100000D01*
X96863596Y-94679008D02*
X94879008Y-94679008D01*
X97425001Y-94117603D02*
X96863596Y-94679008D01*
X97425001Y-92280600D02*
X97425001Y-94117603D01*
D26*
%TO.N,Net-(R3-Pad1)*%
X104400000Y-92900000D02*
X104700000Y-93200000D01*
X104400000Y-90900000D02*
X104400000Y-92900000D01*
%TO.N,PHOTO_GND*%
X101067999Y-107150001D02*
X102280800Y-107150001D01*
X98218000Y-110000000D02*
X101067999Y-107150001D01*
X102280800Y-106200000D02*
X102280800Y-107150001D01*
X100500000Y-106582002D02*
X101067999Y-107150001D01*
X100500000Y-105850000D02*
X100500000Y-106582002D01*
D27*
X95475002Y-91294000D02*
X95719001Y-91050001D01*
X95475002Y-92280600D02*
X95475002Y-91294000D01*
X98200000Y-90100000D02*
X98350000Y-90100000D01*
X97249999Y-91050001D02*
X98200000Y-90100000D01*
X96775002Y-91075004D02*
X96749999Y-91050001D01*
X96775002Y-92280600D02*
X96775002Y-91075004D01*
X96749999Y-91050001D02*
X97249999Y-91050001D01*
X95719001Y-91050001D02*
X96749999Y-91050001D01*
X100649999Y-92399999D02*
X101600000Y-93350000D01*
X100649999Y-90536409D02*
X100649999Y-92399999D01*
X100613590Y-90500000D02*
X100649999Y-90536409D01*
X98350000Y-90100000D02*
X100200000Y-90100000D01*
X100600000Y-90500000D02*
X100613590Y-90500000D01*
X100200000Y-90100000D02*
X100600000Y-90500000D01*
D26*
X103345999Y-90086799D02*
X104050669Y-89382129D01*
X103345999Y-91604001D02*
X103345999Y-90086799D01*
X104050669Y-89382129D02*
X109082129Y-89382129D01*
X109895999Y-87044001D02*
X111200000Y-85740000D01*
X109895999Y-88568259D02*
X109895999Y-87044001D01*
X109082129Y-89382129D02*
X109895999Y-88568259D01*
X100152801Y-101082000D02*
X100152801Y-98192000D01*
X99298790Y-101936011D02*
X100152801Y-101082000D01*
X99298790Y-104648790D02*
X99298790Y-101936011D01*
X100500000Y-105850000D02*
X99298790Y-104648790D01*
X102125000Y-92925000D02*
X102025000Y-92925000D01*
X102025000Y-92925000D02*
X103345999Y-91604001D01*
X101600000Y-93350000D02*
X102025000Y-92925000D01*
X101600000Y-93350000D02*
X101850000Y-93350000D01*
X102100000Y-93600000D02*
X102800000Y-93600000D01*
X101850000Y-93350000D02*
X102100000Y-93600000D01*
X102800000Y-93600000D02*
X102800000Y-92700000D01*
X102450000Y-93050000D02*
X102250000Y-93050000D01*
X102800000Y-92700000D02*
X102450000Y-93050000D01*
X102250000Y-93050000D02*
X102125000Y-92925000D01*
%TO.N,/GAIN_SMALL*%
X113520000Y-108370000D02*
X113250000Y-108100000D01*
X113520000Y-110130000D02*
X113520000Y-108370000D01*
X113250000Y-107470000D02*
X111200000Y-105420000D01*
X113250000Y-108100000D02*
X113250000Y-107470000D01*
D27*
X111200000Y-105364996D02*
X111200000Y-105420000D01*
X107285003Y-101449999D02*
X111200000Y-105364996D01*
X106725002Y-101449999D02*
X107285003Y-101449999D01*
D26*
%TO.N,/GAIN_LARGE*%
X108440000Y-108610000D02*
X108950000Y-108100000D01*
X108440000Y-110130000D02*
X108440000Y-108610000D01*
D27*
X109165000Y-97800000D02*
X111200000Y-97800000D01*
X105850010Y-101114990D02*
X109165000Y-97800000D01*
X105850010Y-102550007D02*
X105850010Y-101114990D01*
X106050002Y-102749999D02*
X105850010Y-102550007D01*
X106725002Y-102749999D02*
X106050002Y-102749999D01*
D26*
%TO.N,-1V*%
X101700000Y-102600000D02*
X102100000Y-103000000D01*
X100900000Y-102600000D02*
X101700000Y-102600000D01*
D27*
X102350001Y-102749999D02*
X102100000Y-103000000D01*
X104475001Y-102749999D02*
X102350001Y-102749999D01*
%TO.N,PHOTO_3V3*%
X105150001Y-102100000D02*
X105400000Y-102349999D01*
X104475001Y-102100000D02*
X105150001Y-102100000D01*
X105400000Y-102349999D02*
X105400000Y-105000000D01*
X105150001Y-105249999D02*
X104719200Y-105249999D01*
X105400000Y-105000000D02*
X105150001Y-105249999D01*
X103600000Y-102100000D02*
X103300000Y-101800000D01*
X104475001Y-102100000D02*
X103600000Y-102100000D01*
D28*
X97400000Y-99800000D02*
X97400000Y-100341991D01*
X96900000Y-99300000D02*
X97400000Y-99800000D01*
X92800000Y-95600000D02*
X93300000Y-95100000D01*
X92800000Y-97900000D02*
X92800000Y-95600000D01*
D27*
X96774999Y-99174999D02*
X96900000Y-99300000D01*
X96774999Y-97919400D02*
X96774999Y-99174999D01*
D28*
X92800000Y-97900000D02*
X92800000Y-98591999D01*
D27*
%TO.N,XOUT*%
X98605439Y-94954000D02*
X99400000Y-95748561D01*
X99400000Y-97894399D02*
X99374999Y-97919400D01*
X99400000Y-95748561D02*
X99400000Y-97894399D01*
X103106167Y-89507789D02*
X103810836Y-88803119D01*
X109300000Y-80940000D02*
X111200000Y-79040000D01*
X102838956Y-89774999D02*
X103106167Y-89507789D01*
X107796881Y-88803119D02*
X109300000Y-87300000D01*
X100086400Y-88699990D02*
X101161409Y-89774999D01*
X103810836Y-88803119D02*
X107796881Y-88803119D01*
X101161409Y-89774999D02*
X102838956Y-89774999D01*
X94264702Y-88699990D02*
X100086400Y-88699990D01*
X109300000Y-87300000D02*
X109300000Y-80940000D01*
X93582346Y-89382346D02*
X94264702Y-88699990D01*
%TO.N,CLKIN*%
X100649999Y-95199999D02*
X100649999Y-94049999D01*
X101050000Y-95600000D02*
X100649999Y-95199999D01*
X99374999Y-92774999D02*
X99374999Y-92280600D01*
X100649999Y-94049999D02*
X99374999Y-92774999D01*
X111200000Y-76500000D02*
X108849990Y-78850010D01*
X108849990Y-87050010D02*
X107650020Y-88249980D01*
X108849990Y-78850010D02*
X108849990Y-87050010D01*
X102305877Y-88249980D02*
X101505858Y-89049999D01*
X107650020Y-88249980D02*
X102305877Y-88249980D01*
X99800000Y-91100000D02*
X99800000Y-91200000D01*
X99374999Y-91625001D02*
X99374999Y-92280600D01*
X99800000Y-91200000D02*
X99374999Y-91625001D01*
%TO.N,/PHOTO_OUT_P*%
X92300000Y-77400000D02*
X92300000Y-79053999D01*
X92300000Y-79053999D02*
X92325001Y-79079000D01*
X96125001Y-96574999D02*
X96800000Y-95900000D01*
X96125001Y-97919400D02*
X96125001Y-96574999D01*
%TO.N,/PHOTO_OUT_N*%
X91300000Y-77400000D02*
X91675002Y-77775002D01*
X91675002Y-77775002D02*
X91675002Y-79079000D01*
X95474999Y-96125001D02*
X95700000Y-95900000D01*
X95474999Y-97919400D02*
X95474999Y-96125001D01*
D26*
%TO.N,Net-(JP1-Pad1)*%
X105763201Y-96554001D02*
X103454001Y-96554001D01*
X103454001Y-96554001D02*
X102500000Y-95600000D01*
X106300000Y-96017202D02*
X105763201Y-96554001D01*
X106300000Y-95400000D02*
X106300000Y-96017202D01*
%TD*%
D29*
%TO.N,GND*%
G36*
X97064525Y-110946632D02*
G01*
X97271368Y-111153475D01*
X97513107Y-111315000D01*
X96382893Y-111315000D01*
X96624632Y-111153475D01*
X96831475Y-110946632D01*
X96948000Y-110772240D01*
X97064525Y-110946632D01*
G37*
X97064525Y-110946632D02*
X97271368Y-111153475D01*
X97513107Y-111315000D01*
X96382893Y-111315000D01*
X96624632Y-111153475D01*
X96831475Y-110946632D01*
X96948000Y-110772240D01*
X97064525Y-110946632D01*
G36*
X94731368Y-111153475D02*
G01*
X94973107Y-111315000D01*
X94422351Y-111315000D01*
X94439185Y-111301185D01*
X94518537Y-111204494D01*
X94577502Y-111094180D01*
X94599513Y-111021620D01*
X94731368Y-111153475D01*
G37*
X94731368Y-111153475D02*
X94973107Y-111315000D01*
X94422351Y-111315000D01*
X94439185Y-111301185D01*
X94518537Y-111204494D01*
X94577502Y-111094180D01*
X94599513Y-111021620D01*
X94731368Y-111153475D01*
G36*
X99604525Y-110946632D02*
G01*
X99811368Y-111153475D01*
X100053107Y-111315000D01*
X98922893Y-111315000D01*
X99164632Y-111153475D01*
X99371475Y-110946632D01*
X99488000Y-110772240D01*
X99604525Y-110946632D01*
G37*
X99604525Y-110946632D02*
X99811368Y-111153475D01*
X100053107Y-111315000D01*
X98922893Y-111315000D01*
X99164632Y-111153475D01*
X99371475Y-110946632D01*
X99488000Y-110772240D01*
X99604525Y-110946632D01*
G36*
X98409791Y-102385080D02*
G01*
X98409790Y-104605130D01*
X98405490Y-104648790D01*
X98409790Y-104692450D01*
X98409790Y-104692456D01*
X98416719Y-104762805D01*
X98422654Y-104823064D01*
X98430748Y-104849746D01*
X98473487Y-104990640D01*
X98556037Y-105145080D01*
X98667131Y-105280449D01*
X98701054Y-105308289D01*
X99486928Y-106094164D01*
X99486928Y-106450000D01*
X99499188Y-106574482D01*
X99535498Y-106694180D01*
X99594463Y-106804494D01*
X99664307Y-106889600D01*
X99674698Y-106923854D01*
X99757248Y-107078293D01*
X99813693Y-107147072D01*
X98432242Y-108528523D01*
X98364260Y-108515000D01*
X98071740Y-108515000D01*
X97784842Y-108572068D01*
X97514589Y-108684010D01*
X97271368Y-108846525D01*
X97064525Y-109053368D01*
X96948000Y-109227760D01*
X96831475Y-109053368D01*
X96624632Y-108846525D01*
X96381411Y-108684010D01*
X96111158Y-108572068D01*
X95824260Y-108515000D01*
X95531740Y-108515000D01*
X95244842Y-108572068D01*
X94974589Y-108684010D01*
X94731368Y-108846525D01*
X94599513Y-108978380D01*
X94577502Y-108905820D01*
X94518537Y-108795506D01*
X94439185Y-108698815D01*
X94342494Y-108619463D01*
X94232180Y-108560498D01*
X94112482Y-108524188D01*
X93988000Y-108511928D01*
X93423750Y-108515000D01*
X93265000Y-108673750D01*
X93265000Y-109873000D01*
X93285000Y-109873000D01*
X93285000Y-110127000D01*
X93265000Y-110127000D01*
X93265000Y-110147000D01*
X93011000Y-110147000D01*
X93011000Y-110127000D01*
X91811750Y-110127000D01*
X91653000Y-110285750D01*
X91649928Y-110850000D01*
X91662188Y-110974482D01*
X91698498Y-111094180D01*
X91757463Y-111204494D01*
X91836815Y-111301185D01*
X91853649Y-111315000D01*
X90398804Y-111315000D01*
X90586010Y-111127795D01*
X90615002Y-111104002D01*
X90638796Y-111075009D01*
X90638800Y-111075005D01*
X90709974Y-110988278D01*
X90709975Y-110988277D01*
X90780547Y-110856248D01*
X90824004Y-110712987D01*
X90835001Y-110601334D01*
X90835001Y-110601325D01*
X90838677Y-110564002D01*
X90835001Y-110526679D01*
X90835001Y-110157623D01*
X91650971Y-109341652D01*
X91653000Y-109714250D01*
X91811750Y-109873000D01*
X93011000Y-109873000D01*
X93011000Y-108673750D01*
X92852250Y-108515000D01*
X92479652Y-108512971D01*
X92598039Y-108394584D01*
X92627030Y-108370792D01*
X92650824Y-108341799D01*
X92650829Y-108341794D01*
X92722003Y-108255067D01*
X92756769Y-108190025D01*
X92792575Y-108123038D01*
X92836032Y-107979777D01*
X92847029Y-107868124D01*
X92847029Y-107868116D01*
X92850705Y-107830791D01*
X92847029Y-107793468D01*
X92847029Y-105537348D01*
X95124378Y-103260000D01*
X95137264Y-103260000D01*
X95178901Y-103287821D01*
X95340688Y-103354836D01*
X95512441Y-103389000D01*
X95687559Y-103389000D01*
X95859312Y-103354836D01*
X96021099Y-103287821D01*
X96166704Y-103190531D01*
X96290531Y-103066704D01*
X96387821Y-102921099D01*
X96454836Y-102759312D01*
X96489000Y-102587559D01*
X96489000Y-102412441D01*
X96483544Y-102385010D01*
X98409070Y-102385009D01*
X98409791Y-102385080D01*
G37*
X98409791Y-102385080D02*
X98409790Y-104605130D01*
X98405490Y-104648790D01*
X98409790Y-104692450D01*
X98409790Y-104692456D01*
X98416719Y-104762805D01*
X98422654Y-104823064D01*
X98430748Y-104849746D01*
X98473487Y-104990640D01*
X98556037Y-105145080D01*
X98667131Y-105280449D01*
X98701054Y-105308289D01*
X99486928Y-106094164D01*
X99486928Y-106450000D01*
X99499188Y-106574482D01*
X99535498Y-106694180D01*
X99594463Y-106804494D01*
X99664307Y-106889600D01*
X99674698Y-106923854D01*
X99757248Y-107078293D01*
X99813693Y-107147072D01*
X98432242Y-108528523D01*
X98364260Y-108515000D01*
X98071740Y-108515000D01*
X97784842Y-108572068D01*
X97514589Y-108684010D01*
X97271368Y-108846525D01*
X97064525Y-109053368D01*
X96948000Y-109227760D01*
X96831475Y-109053368D01*
X96624632Y-108846525D01*
X96381411Y-108684010D01*
X96111158Y-108572068D01*
X95824260Y-108515000D01*
X95531740Y-108515000D01*
X95244842Y-108572068D01*
X94974589Y-108684010D01*
X94731368Y-108846525D01*
X94599513Y-108978380D01*
X94577502Y-108905820D01*
X94518537Y-108795506D01*
X94439185Y-108698815D01*
X94342494Y-108619463D01*
X94232180Y-108560498D01*
X94112482Y-108524188D01*
X93988000Y-108511928D01*
X93423750Y-108515000D01*
X93265000Y-108673750D01*
X93265000Y-109873000D01*
X93285000Y-109873000D01*
X93285000Y-110127000D01*
X93265000Y-110127000D01*
X93265000Y-110147000D01*
X93011000Y-110147000D01*
X93011000Y-110127000D01*
X91811750Y-110127000D01*
X91653000Y-110285750D01*
X91649928Y-110850000D01*
X91662188Y-110974482D01*
X91698498Y-111094180D01*
X91757463Y-111204494D01*
X91836815Y-111301185D01*
X91853649Y-111315000D01*
X90398804Y-111315000D01*
X90586010Y-111127795D01*
X90615002Y-111104002D01*
X90638796Y-111075009D01*
X90638800Y-111075005D01*
X90709974Y-110988278D01*
X90709975Y-110988277D01*
X90780547Y-110856248D01*
X90824004Y-110712987D01*
X90835001Y-110601334D01*
X90835001Y-110601325D01*
X90838677Y-110564002D01*
X90835001Y-110526679D01*
X90835001Y-110157623D01*
X91650971Y-109341652D01*
X91653000Y-109714250D01*
X91811750Y-109873000D01*
X93011000Y-109873000D01*
X93011000Y-108673750D01*
X92852250Y-108515000D01*
X92479652Y-108512971D01*
X92598039Y-108394584D01*
X92627030Y-108370792D01*
X92650824Y-108341799D01*
X92650829Y-108341794D01*
X92722003Y-108255067D01*
X92756769Y-108190025D01*
X92792575Y-108123038D01*
X92836032Y-107979777D01*
X92847029Y-107868124D01*
X92847029Y-107868116D01*
X92850705Y-107830791D01*
X92847029Y-107793468D01*
X92847029Y-105537348D01*
X95124378Y-103260000D01*
X95137264Y-103260000D01*
X95178901Y-103287821D01*
X95340688Y-103354836D01*
X95512441Y-103389000D01*
X95687559Y-103389000D01*
X95859312Y-103354836D01*
X96021099Y-103287821D01*
X96166704Y-103190531D01*
X96290531Y-103066704D01*
X96387821Y-102921099D01*
X96454836Y-102759312D01*
X96489000Y-102587559D01*
X96489000Y-102412441D01*
X96483544Y-102385010D01*
X98409070Y-102385009D01*
X98409791Y-102385080D01*
G36*
X83693964Y-78650586D02*
G01*
X84344989Y-79301613D01*
X84344990Y-83557657D01*
X84341313Y-83594989D01*
X84355987Y-83743974D01*
X84399443Y-83887235D01*
X84470015Y-84019265D01*
X84508801Y-84066525D01*
X84564989Y-84134990D01*
X84593987Y-84158788D01*
X85288791Y-84853592D01*
X85245000Y-85073740D01*
X85245000Y-85366260D01*
X85302068Y-85653158D01*
X85414010Y-85923411D01*
X85576525Y-86166632D01*
X85783368Y-86373475D01*
X85957760Y-86490000D01*
X85783368Y-86606525D01*
X85576525Y-86813368D01*
X85414010Y-87056589D01*
X85302068Y-87326842D01*
X85245000Y-87613740D01*
X85245000Y-87906260D01*
X85302068Y-88193158D01*
X85414010Y-88463411D01*
X85576525Y-88706632D01*
X85783368Y-88913475D01*
X85957760Y-89030000D01*
X85783368Y-89146525D01*
X85576525Y-89353368D01*
X85414010Y-89596589D01*
X85302068Y-89866842D01*
X85245000Y-90153740D01*
X85245000Y-90446260D01*
X85302068Y-90733158D01*
X85414010Y-91003411D01*
X85576525Y-91246632D01*
X85783368Y-91453475D01*
X85957760Y-91570000D01*
X85783368Y-91686525D01*
X85576525Y-91893368D01*
X85414010Y-92136589D01*
X85302068Y-92406842D01*
X85245000Y-92693740D01*
X85245000Y-92986260D01*
X85302068Y-93273158D01*
X85414010Y-93543411D01*
X85576525Y-93786632D01*
X85783368Y-93993475D01*
X85957760Y-94110000D01*
X85783368Y-94226525D01*
X85576525Y-94433368D01*
X85414010Y-94676589D01*
X85302068Y-94946842D01*
X85245000Y-95233740D01*
X85245000Y-95526260D01*
X85302068Y-95813158D01*
X85414010Y-96083411D01*
X85576525Y-96326632D01*
X85783368Y-96533475D01*
X85957760Y-96650000D01*
X85783368Y-96766525D01*
X85576525Y-96973368D01*
X85414010Y-97216589D01*
X85302068Y-97486842D01*
X85245000Y-97773740D01*
X85245000Y-98066260D01*
X85302068Y-98353158D01*
X85414010Y-98623411D01*
X85576525Y-98866632D01*
X85783368Y-99073475D01*
X85957760Y-99190000D01*
X85783368Y-99306525D01*
X85576525Y-99513368D01*
X85414010Y-99756589D01*
X85302068Y-100026842D01*
X85245000Y-100313740D01*
X85245000Y-100606260D01*
X85302068Y-100893158D01*
X85414010Y-101163411D01*
X85576525Y-101406632D01*
X85708380Y-101538487D01*
X85635820Y-101560498D01*
X85525506Y-101619463D01*
X85428815Y-101698815D01*
X85349463Y-101795506D01*
X85290498Y-101905820D01*
X85254188Y-102025518D01*
X85241928Y-102150000D01*
X85245000Y-102714250D01*
X85403750Y-102873000D01*
X86603000Y-102873000D01*
X86603000Y-102853000D01*
X86857000Y-102853000D01*
X86857000Y-102873000D01*
X86877000Y-102873000D01*
X86877000Y-103127000D01*
X86857000Y-103127000D01*
X86857000Y-103147000D01*
X86603000Y-103147000D01*
X86603000Y-103127000D01*
X85403750Y-103127000D01*
X85245000Y-103285750D01*
X85241928Y-103850000D01*
X85254188Y-103974482D01*
X85290498Y-104094180D01*
X85349463Y-104204494D01*
X85428815Y-104301185D01*
X85525506Y-104380537D01*
X85635820Y-104439502D01*
X85755518Y-104475812D01*
X85880000Y-104488072D01*
X85887147Y-104488033D01*
X85819463Y-104570506D01*
X85760498Y-104680820D01*
X85724188Y-104800518D01*
X85711928Y-104925000D01*
X85715000Y-105014250D01*
X85873750Y-105173000D01*
X86823000Y-105173000D01*
X86823000Y-105153000D01*
X87077000Y-105153000D01*
X87077000Y-105173000D01*
X87097000Y-105173000D01*
X87097000Y-105427000D01*
X87077000Y-105427000D01*
X87077000Y-105447000D01*
X86823000Y-105447000D01*
X86823000Y-105427000D01*
X85873750Y-105427000D01*
X85715000Y-105585750D01*
X85711928Y-105675000D01*
X85724188Y-105799482D01*
X85760498Y-105919180D01*
X85819463Y-106029494D01*
X85848281Y-106064609D01*
X85656589Y-106144010D01*
X85413368Y-106306525D01*
X85206525Y-106513368D01*
X85044010Y-106756589D01*
X84932068Y-107026842D01*
X84875000Y-107313740D01*
X84875000Y-107606260D01*
X84932068Y-107893158D01*
X85044010Y-108163411D01*
X85206525Y-108406632D01*
X85413368Y-108613475D01*
X85587760Y-108730000D01*
X85413368Y-108846525D01*
X85206525Y-109053368D01*
X85044010Y-109296589D01*
X84932068Y-109566842D01*
X84875000Y-109853740D01*
X84875000Y-110146260D01*
X84932068Y-110433158D01*
X85044010Y-110703411D01*
X85206525Y-110946632D01*
X85413368Y-111153475D01*
X85655107Y-111315000D01*
X83685000Y-111315000D01*
X83685000Y-78643230D01*
X83693964Y-78650586D01*
G37*
X83693964Y-78650586D02*
X84344989Y-79301613D01*
X84344990Y-83557657D01*
X84341313Y-83594989D01*
X84355987Y-83743974D01*
X84399443Y-83887235D01*
X84470015Y-84019265D01*
X84508801Y-84066525D01*
X84564989Y-84134990D01*
X84593987Y-84158788D01*
X85288791Y-84853592D01*
X85245000Y-85073740D01*
X85245000Y-85366260D01*
X85302068Y-85653158D01*
X85414010Y-85923411D01*
X85576525Y-86166632D01*
X85783368Y-86373475D01*
X85957760Y-86490000D01*
X85783368Y-86606525D01*
X85576525Y-86813368D01*
X85414010Y-87056589D01*
X85302068Y-87326842D01*
X85245000Y-87613740D01*
X85245000Y-87906260D01*
X85302068Y-88193158D01*
X85414010Y-88463411D01*
X85576525Y-88706632D01*
X85783368Y-88913475D01*
X85957760Y-89030000D01*
X85783368Y-89146525D01*
X85576525Y-89353368D01*
X85414010Y-89596589D01*
X85302068Y-89866842D01*
X85245000Y-90153740D01*
X85245000Y-90446260D01*
X85302068Y-90733158D01*
X85414010Y-91003411D01*
X85576525Y-91246632D01*
X85783368Y-91453475D01*
X85957760Y-91570000D01*
X85783368Y-91686525D01*
X85576525Y-91893368D01*
X85414010Y-92136589D01*
X85302068Y-92406842D01*
X85245000Y-92693740D01*
X85245000Y-92986260D01*
X85302068Y-93273158D01*
X85414010Y-93543411D01*
X85576525Y-93786632D01*
X85783368Y-93993475D01*
X85957760Y-94110000D01*
X85783368Y-94226525D01*
X85576525Y-94433368D01*
X85414010Y-94676589D01*
X85302068Y-94946842D01*
X85245000Y-95233740D01*
X85245000Y-95526260D01*
X85302068Y-95813158D01*
X85414010Y-96083411D01*
X85576525Y-96326632D01*
X85783368Y-96533475D01*
X85957760Y-96650000D01*
X85783368Y-96766525D01*
X85576525Y-96973368D01*
X85414010Y-97216589D01*
X85302068Y-97486842D01*
X85245000Y-97773740D01*
X85245000Y-98066260D01*
X85302068Y-98353158D01*
X85414010Y-98623411D01*
X85576525Y-98866632D01*
X85783368Y-99073475D01*
X85957760Y-99190000D01*
X85783368Y-99306525D01*
X85576525Y-99513368D01*
X85414010Y-99756589D01*
X85302068Y-100026842D01*
X85245000Y-100313740D01*
X85245000Y-100606260D01*
X85302068Y-100893158D01*
X85414010Y-101163411D01*
X85576525Y-101406632D01*
X85708380Y-101538487D01*
X85635820Y-101560498D01*
X85525506Y-101619463D01*
X85428815Y-101698815D01*
X85349463Y-101795506D01*
X85290498Y-101905820D01*
X85254188Y-102025518D01*
X85241928Y-102150000D01*
X85245000Y-102714250D01*
X85403750Y-102873000D01*
X86603000Y-102873000D01*
X86603000Y-102853000D01*
X86857000Y-102853000D01*
X86857000Y-102873000D01*
X86877000Y-102873000D01*
X86877000Y-103127000D01*
X86857000Y-103127000D01*
X86857000Y-103147000D01*
X86603000Y-103147000D01*
X86603000Y-103127000D01*
X85403750Y-103127000D01*
X85245000Y-103285750D01*
X85241928Y-103850000D01*
X85254188Y-103974482D01*
X85290498Y-104094180D01*
X85349463Y-104204494D01*
X85428815Y-104301185D01*
X85525506Y-104380537D01*
X85635820Y-104439502D01*
X85755518Y-104475812D01*
X85880000Y-104488072D01*
X85887147Y-104488033D01*
X85819463Y-104570506D01*
X85760498Y-104680820D01*
X85724188Y-104800518D01*
X85711928Y-104925000D01*
X85715000Y-105014250D01*
X85873750Y-105173000D01*
X86823000Y-105173000D01*
X86823000Y-105153000D01*
X87077000Y-105153000D01*
X87077000Y-105173000D01*
X87097000Y-105173000D01*
X87097000Y-105427000D01*
X87077000Y-105427000D01*
X87077000Y-105447000D01*
X86823000Y-105447000D01*
X86823000Y-105427000D01*
X85873750Y-105427000D01*
X85715000Y-105585750D01*
X85711928Y-105675000D01*
X85724188Y-105799482D01*
X85760498Y-105919180D01*
X85819463Y-106029494D01*
X85848281Y-106064609D01*
X85656589Y-106144010D01*
X85413368Y-106306525D01*
X85206525Y-106513368D01*
X85044010Y-106756589D01*
X84932068Y-107026842D01*
X84875000Y-107313740D01*
X84875000Y-107606260D01*
X84932068Y-107893158D01*
X85044010Y-108163411D01*
X85206525Y-108406632D01*
X85413368Y-108613475D01*
X85587760Y-108730000D01*
X85413368Y-108846525D01*
X85206525Y-109053368D01*
X85044010Y-109296589D01*
X84932068Y-109566842D01*
X84875000Y-109853740D01*
X84875000Y-110146260D01*
X84932068Y-110433158D01*
X85044010Y-110703411D01*
X85206525Y-110946632D01*
X85413368Y-111153475D01*
X85655107Y-111315000D01*
X83685000Y-111315000D01*
X83685000Y-78643230D01*
X83693964Y-78650586D01*
G36*
X102144525Y-110946632D02*
G01*
X102351368Y-111153475D01*
X102593107Y-111315000D01*
X101462893Y-111315000D01*
X101704632Y-111153475D01*
X101911475Y-110946632D01*
X102028000Y-110772240D01*
X102144525Y-110946632D01*
G37*
X102144525Y-110946632D02*
X102351368Y-111153475D01*
X102593107Y-111315000D01*
X101462893Y-111315000D01*
X101704632Y-111153475D01*
X101911475Y-110946632D01*
X102028000Y-110772240D01*
X102144525Y-110946632D01*
G36*
X101645800Y-108042073D02*
G01*
X101998650Y-108042073D01*
X101921214Y-108297341D01*
X101911032Y-108400722D01*
X101894241Y-108571201D01*
X101901000Y-108639826D01*
X101901000Y-109042893D01*
X101704632Y-108846525D01*
X101461411Y-108684010D01*
X101191158Y-108572068D01*
X100950948Y-108524287D01*
X101436234Y-108039001D01*
X101614608Y-108039001D01*
X101645800Y-108042073D01*
G37*
X101645800Y-108042073D02*
X101998650Y-108042073D01*
X101921214Y-108297341D01*
X101911032Y-108400722D01*
X101894241Y-108571201D01*
X101901000Y-108639826D01*
X101901000Y-109042893D01*
X101704632Y-108846525D01*
X101461411Y-108684010D01*
X101191158Y-108572068D01*
X100950948Y-108524287D01*
X101436234Y-108039001D01*
X101614608Y-108039001D01*
X101645800Y-108042073D01*
G36*
X89027000Y-107333000D02*
G01*
X89047000Y-107333000D01*
X89047000Y-107587000D01*
X89027000Y-107587000D01*
X89027000Y-107607000D01*
X88773000Y-107607000D01*
X88773000Y-107587000D01*
X88753000Y-107587000D01*
X88753000Y-107333000D01*
X88773000Y-107333000D01*
X88773000Y-107313000D01*
X89027000Y-107313000D01*
X89027000Y-107333000D01*
G37*
X89027000Y-107333000D02*
X89047000Y-107333000D01*
X89047000Y-107587000D01*
X89027000Y-107587000D01*
X89027000Y-107607000D01*
X88773000Y-107607000D01*
X88773000Y-107587000D01*
X88753000Y-107587000D01*
X88753000Y-107333000D01*
X88773000Y-107333000D01*
X88773000Y-107313000D01*
X89027000Y-107313000D01*
X89027000Y-107333000D01*
G36*
X114315001Y-107290650D02*
G01*
X114301185Y-107273815D01*
X114204494Y-107194463D01*
X114094180Y-107135498D01*
X114075845Y-107129936D01*
X114075303Y-107128149D01*
X113992753Y-106973709D01*
X113929144Y-106896201D01*
X113909495Y-106872259D01*
X113909494Y-106872258D01*
X113881659Y-106838341D01*
X113847742Y-106810506D01*
X112671477Y-105634242D01*
X112685000Y-105566260D01*
X112685000Y-105273740D01*
X112627932Y-104986842D01*
X112515990Y-104716589D01*
X112353475Y-104473368D01*
X112146632Y-104266525D01*
X111972240Y-104150000D01*
X112146632Y-104033475D01*
X112353475Y-103826632D01*
X112515990Y-103583411D01*
X112627932Y-103313158D01*
X112685000Y-103026260D01*
X112685000Y-102733740D01*
X112627932Y-102446842D01*
X112515990Y-102176589D01*
X112353475Y-101933368D01*
X112146632Y-101726525D01*
X112089000Y-101688017D01*
X112089000Y-101531983D01*
X112146632Y-101493475D01*
X112353475Y-101286632D01*
X112515990Y-101043411D01*
X112627932Y-100773158D01*
X112685000Y-100486260D01*
X112685000Y-100193740D01*
X112671477Y-100125758D01*
X113101742Y-99695493D01*
X113135660Y-99667658D01*
X113246754Y-99532290D01*
X113329304Y-99377850D01*
X113366775Y-99254322D01*
X113380137Y-99210274D01*
X113383611Y-99174999D01*
X113393001Y-99079666D01*
X113393001Y-99079659D01*
X113397301Y-99035999D01*
X113393001Y-98992339D01*
X113393001Y-71427661D01*
X113397301Y-71384001D01*
X113393001Y-71340341D01*
X113393001Y-71340334D01*
X113380137Y-71209727D01*
X113374781Y-71192068D01*
X113357007Y-71133475D01*
X113329304Y-71042150D01*
X113246754Y-70887710D01*
X113135660Y-70752342D01*
X113101744Y-70724508D01*
X112671477Y-70294242D01*
X112685000Y-70226260D01*
X112685000Y-69933740D01*
X112627932Y-69646842D01*
X112515990Y-69376589D01*
X112353475Y-69133368D01*
X112146632Y-68926525D01*
X111972240Y-68810000D01*
X112146632Y-68693475D01*
X112353475Y-68486632D01*
X112515990Y-68243411D01*
X112627932Y-67973158D01*
X112685000Y-67686260D01*
X112685000Y-67393740D01*
X112627932Y-67106842D01*
X112515990Y-66836589D01*
X112353475Y-66593368D01*
X112221620Y-66461513D01*
X112294180Y-66439502D01*
X112404494Y-66380537D01*
X112501185Y-66301185D01*
X112580537Y-66204494D01*
X112639502Y-66094180D01*
X112675812Y-65974482D01*
X112688072Y-65850000D01*
X112688072Y-64150000D01*
X112675812Y-64025518D01*
X112639502Y-63905820D01*
X112580537Y-63795506D01*
X112501185Y-63698815D01*
X112404494Y-63619463D01*
X112294180Y-63560498D01*
X112174482Y-63524188D01*
X112050000Y-63511928D01*
X110350000Y-63511928D01*
X110225518Y-63524188D01*
X110105820Y-63560498D01*
X109995506Y-63619463D01*
X109898815Y-63698815D01*
X109819463Y-63795506D01*
X109760498Y-63905820D01*
X109724188Y-64025518D01*
X109711928Y-64150000D01*
X109711928Y-65850000D01*
X109724188Y-65974482D01*
X109760498Y-66094180D01*
X109819463Y-66204494D01*
X109898815Y-66301185D01*
X109995506Y-66380537D01*
X110105820Y-66439502D01*
X110178380Y-66461513D01*
X110046525Y-66593368D01*
X109884010Y-66836589D01*
X109772068Y-67106842D01*
X109715000Y-67393740D01*
X109715000Y-67686260D01*
X109772068Y-67973158D01*
X109884010Y-68243411D01*
X110046525Y-68486632D01*
X110253368Y-68693475D01*
X110427760Y-68810000D01*
X110253368Y-68926525D01*
X110046525Y-69133368D01*
X109884010Y-69376589D01*
X109772068Y-69646842D01*
X109715000Y-69933740D01*
X109715000Y-70226260D01*
X109772068Y-70513158D01*
X109884010Y-70783411D01*
X110046525Y-71026632D01*
X110253368Y-71233475D01*
X110427760Y-71350000D01*
X110253368Y-71466525D01*
X110046525Y-71673368D01*
X109884010Y-71916589D01*
X109772068Y-72186842D01*
X109715000Y-72473740D01*
X109715000Y-72766260D01*
X109772068Y-73053158D01*
X109884010Y-73323411D01*
X110046525Y-73566632D01*
X110253368Y-73773475D01*
X110496589Y-73935990D01*
X110766842Y-74047932D01*
X111053740Y-74105000D01*
X111346260Y-74105000D01*
X111615001Y-74051544D01*
X111615001Y-75011928D01*
X110350000Y-75011928D01*
X110225518Y-75024188D01*
X110105820Y-75060498D01*
X109995506Y-75119463D01*
X109898815Y-75198815D01*
X109819463Y-75295506D01*
X109760498Y-75405820D01*
X109724188Y-75525518D01*
X109711928Y-75650000D01*
X109711928Y-76913270D01*
X108338993Y-78286206D01*
X108309989Y-78310009D01*
X108276575Y-78350725D01*
X108215016Y-78425734D01*
X108169404Y-78511067D01*
X108144444Y-78557764D01*
X108100987Y-78701025D01*
X108089990Y-78812678D01*
X108089990Y-78812688D01*
X108086314Y-78850010D01*
X108089990Y-78887332D01*
X108089991Y-86735207D01*
X108081965Y-86743234D01*
X108034631Y-86695900D01*
X107865113Y-86582632D01*
X107676755Y-86504611D01*
X107613754Y-86492079D01*
X107571311Y-86457247D01*
X107416871Y-86374697D01*
X107249294Y-86323864D01*
X107118687Y-86311000D01*
X107118680Y-86311000D01*
X107075020Y-86306700D01*
X107031360Y-86311000D01*
X96837800Y-86311000D01*
X96837800Y-82115133D01*
X96841477Y-82077800D01*
X96826803Y-81928814D01*
X96783346Y-81785553D01*
X96712774Y-81653524D01*
X96648310Y-81574974D01*
X96617801Y-81537799D01*
X96588804Y-81514002D01*
X95445425Y-80370624D01*
X95524199Y-80291850D01*
X95524199Y-80290852D01*
X95560729Y-80259940D01*
X95625799Y-80178170D01*
X95625799Y-80291850D01*
X95784549Y-80450600D01*
X95886690Y-80439466D01*
X96005828Y-80401358D01*
X96115242Y-80340739D01*
X96210727Y-80259940D01*
X96288614Y-80162064D01*
X96345911Y-80050875D01*
X96380414Y-79930644D01*
X96390799Y-79805992D01*
X96387799Y-79364750D01*
X96229049Y-79206000D01*
X95625799Y-79206000D01*
X95625799Y-79252748D01*
X95579051Y-79206000D01*
X95427999Y-79206000D01*
X95427999Y-78952000D01*
X95579051Y-78952000D01*
X95625799Y-78905252D01*
X95625799Y-78952000D01*
X96229049Y-78952000D01*
X96387799Y-78793250D01*
X96390799Y-78352008D01*
X96380414Y-78227356D01*
X96345911Y-78107125D01*
X96288614Y-77995936D01*
X96210727Y-77898060D01*
X96115242Y-77817261D01*
X96005828Y-77756642D01*
X95886690Y-77718534D01*
X95784549Y-77707400D01*
X95625799Y-77866150D01*
X95625799Y-77979830D01*
X95560729Y-77898060D01*
X95524199Y-77867148D01*
X95524199Y-77866150D01*
X95365449Y-77707400D01*
X95263308Y-77718534D01*
X95250000Y-77722791D01*
X95236692Y-77718534D01*
X95134551Y-77707400D01*
X94975801Y-77866150D01*
X94975801Y-77867148D01*
X94939271Y-77898060D01*
X94924665Y-77916415D01*
X94903984Y-77891215D01*
X94874201Y-77866773D01*
X94874201Y-77866150D01*
X94715451Y-77707400D01*
X94613310Y-77718534D01*
X94598895Y-77723145D01*
X94577281Y-77716588D01*
X94452799Y-77704328D01*
X94097199Y-77704328D01*
X93972717Y-77716588D01*
X93951105Y-77723144D01*
X93936692Y-77718534D01*
X93834551Y-77707400D01*
X93675801Y-77866150D01*
X93675801Y-77866770D01*
X93646014Y-77891215D01*
X93625335Y-77916413D01*
X93610730Y-77898060D01*
X93574201Y-77867149D01*
X93574201Y-77866150D01*
X93415451Y-77707400D01*
X93313310Y-77718534D01*
X93300002Y-77722791D01*
X93286693Y-77718534D01*
X93184552Y-77707400D01*
X93102004Y-77789948D01*
X93102004Y-77786858D01*
X93154836Y-77659312D01*
X93189000Y-77487559D01*
X93189000Y-77312441D01*
X93154836Y-77140688D01*
X93087821Y-76978901D01*
X92990531Y-76833296D01*
X92866704Y-76709469D01*
X92721099Y-76612179D01*
X92559312Y-76545164D01*
X92387559Y-76511000D01*
X92212441Y-76511000D01*
X92040688Y-76545164D01*
X91878901Y-76612179D01*
X91800000Y-76664899D01*
X91721099Y-76612179D01*
X91559312Y-76545164D01*
X91387559Y-76511000D01*
X91212441Y-76511000D01*
X91040688Y-76545164D01*
X90878901Y-76612179D01*
X90760000Y-76691626D01*
X90760000Y-76237322D01*
X90763676Y-76199999D01*
X90760000Y-76162676D01*
X90760000Y-76162667D01*
X90749003Y-76051014D01*
X90705546Y-75907753D01*
X90634974Y-75775724D01*
X90605655Y-75739999D01*
X90563799Y-75688996D01*
X90563795Y-75688992D01*
X90540001Y-75659999D01*
X90511008Y-75636205D01*
X89423803Y-74549002D01*
X89400001Y-74519999D01*
X89284276Y-74425026D01*
X89152247Y-74354454D01*
X89008986Y-74310997D01*
X88897333Y-74300000D01*
X88897322Y-74300000D01*
X88860000Y-74296324D01*
X88822678Y-74300000D01*
X88008178Y-74300000D01*
X87883475Y-74113368D01*
X87676632Y-73906525D01*
X87502240Y-73790000D01*
X87676632Y-73673475D01*
X87883475Y-73466632D01*
X88045990Y-73223411D01*
X88157932Y-72953158D01*
X88215000Y-72666260D01*
X88215000Y-72373740D01*
X88157932Y-72086842D01*
X88045990Y-71816589D01*
X87883475Y-71573368D01*
X87676632Y-71366525D01*
X87502240Y-71250000D01*
X87676632Y-71133475D01*
X87883475Y-70926632D01*
X88045990Y-70683411D01*
X88157932Y-70413158D01*
X88215000Y-70126260D01*
X88215000Y-69833740D01*
X88160549Y-69560000D01*
X89762678Y-69560000D01*
X89800000Y-69563676D01*
X89837322Y-69560000D01*
X89837333Y-69560000D01*
X89948986Y-69549003D01*
X90092247Y-69505546D01*
X90224276Y-69434974D01*
X90340001Y-69340001D01*
X90363803Y-69310998D01*
X91016001Y-68658800D01*
X91045000Y-68635002D01*
X91077829Y-68595000D01*
X91139973Y-68519278D01*
X91210545Y-68387248D01*
X91221846Y-68349992D01*
X91254002Y-68243987D01*
X91264999Y-68132334D01*
X91264999Y-68132325D01*
X91268675Y-68095002D01*
X91264999Y-68057679D01*
X91264999Y-65999801D01*
X91391202Y-66126003D01*
X91415000Y-66155002D01*
X91530725Y-66249975D01*
X91662754Y-66320547D01*
X91806015Y-66364004D01*
X91917668Y-66375001D01*
X91917677Y-66375001D01*
X91955000Y-66378677D01*
X91992323Y-66375001D01*
X102085677Y-66375001D01*
X102122999Y-66378677D01*
X102160321Y-66375001D01*
X102160332Y-66375001D01*
X102271985Y-66364004D01*
X102415246Y-66320547D01*
X102547275Y-66249975D01*
X102663000Y-66155002D01*
X102686803Y-66125998D01*
X102884729Y-65928072D01*
X104148000Y-65928072D01*
X104272482Y-65915812D01*
X104392180Y-65879502D01*
X104502494Y-65820537D01*
X104599185Y-65741185D01*
X104678537Y-65644494D01*
X104737502Y-65534180D01*
X104773812Y-65414482D01*
X104786072Y-65290000D01*
X104786072Y-63590000D01*
X104773812Y-63465518D01*
X104737502Y-63345820D01*
X104678537Y-63235506D01*
X104599185Y-63138815D01*
X104582351Y-63125000D01*
X114315000Y-63125000D01*
X114315001Y-107290650D01*
G37*
X114315001Y-107290650D02*
X114301185Y-107273815D01*
X114204494Y-107194463D01*
X114094180Y-107135498D01*
X114075845Y-107129936D01*
X114075303Y-107128149D01*
X113992753Y-106973709D01*
X113929144Y-106896201D01*
X113909495Y-106872259D01*
X113909494Y-106872258D01*
X113881659Y-106838341D01*
X113847742Y-106810506D01*
X112671477Y-105634242D01*
X112685000Y-105566260D01*
X112685000Y-105273740D01*
X112627932Y-104986842D01*
X112515990Y-104716589D01*
X112353475Y-104473368D01*
X112146632Y-104266525D01*
X111972240Y-104150000D01*
X112146632Y-104033475D01*
X112353475Y-103826632D01*
X112515990Y-103583411D01*
X112627932Y-103313158D01*
X112685000Y-103026260D01*
X112685000Y-102733740D01*
X112627932Y-102446842D01*
X112515990Y-102176589D01*
X112353475Y-101933368D01*
X112146632Y-101726525D01*
X112089000Y-101688017D01*
X112089000Y-101531983D01*
X112146632Y-101493475D01*
X112353475Y-101286632D01*
X112515990Y-101043411D01*
X112627932Y-100773158D01*
X112685000Y-100486260D01*
X112685000Y-100193740D01*
X112671477Y-100125758D01*
X113101742Y-99695493D01*
X113135660Y-99667658D01*
X113246754Y-99532290D01*
X113329304Y-99377850D01*
X113366775Y-99254322D01*
X113380137Y-99210274D01*
X113383611Y-99174999D01*
X113393001Y-99079666D01*
X113393001Y-99079659D01*
X113397301Y-99035999D01*
X113393001Y-98992339D01*
X113393001Y-71427661D01*
X113397301Y-71384001D01*
X113393001Y-71340341D01*
X113393001Y-71340334D01*
X113380137Y-71209727D01*
X113374781Y-71192068D01*
X113357007Y-71133475D01*
X113329304Y-71042150D01*
X113246754Y-70887710D01*
X113135660Y-70752342D01*
X113101744Y-70724508D01*
X112671477Y-70294242D01*
X112685000Y-70226260D01*
X112685000Y-69933740D01*
X112627932Y-69646842D01*
X112515990Y-69376589D01*
X112353475Y-69133368D01*
X112146632Y-68926525D01*
X111972240Y-68810000D01*
X112146632Y-68693475D01*
X112353475Y-68486632D01*
X112515990Y-68243411D01*
X112627932Y-67973158D01*
X112685000Y-67686260D01*
X112685000Y-67393740D01*
X112627932Y-67106842D01*
X112515990Y-66836589D01*
X112353475Y-66593368D01*
X112221620Y-66461513D01*
X112294180Y-66439502D01*
X112404494Y-66380537D01*
X112501185Y-66301185D01*
X112580537Y-66204494D01*
X112639502Y-66094180D01*
X112675812Y-65974482D01*
X112688072Y-65850000D01*
X112688072Y-64150000D01*
X112675812Y-64025518D01*
X112639502Y-63905820D01*
X112580537Y-63795506D01*
X112501185Y-63698815D01*
X112404494Y-63619463D01*
X112294180Y-63560498D01*
X112174482Y-63524188D01*
X112050000Y-63511928D01*
X110350000Y-63511928D01*
X110225518Y-63524188D01*
X110105820Y-63560498D01*
X109995506Y-63619463D01*
X109898815Y-63698815D01*
X109819463Y-63795506D01*
X109760498Y-63905820D01*
X109724188Y-64025518D01*
X109711928Y-64150000D01*
X109711928Y-65850000D01*
X109724188Y-65974482D01*
X109760498Y-66094180D01*
X109819463Y-66204494D01*
X109898815Y-66301185D01*
X109995506Y-66380537D01*
X110105820Y-66439502D01*
X110178380Y-66461513D01*
X110046525Y-66593368D01*
X109884010Y-66836589D01*
X109772068Y-67106842D01*
X109715000Y-67393740D01*
X109715000Y-67686260D01*
X109772068Y-67973158D01*
X109884010Y-68243411D01*
X110046525Y-68486632D01*
X110253368Y-68693475D01*
X110427760Y-68810000D01*
X110253368Y-68926525D01*
X110046525Y-69133368D01*
X109884010Y-69376589D01*
X109772068Y-69646842D01*
X109715000Y-69933740D01*
X109715000Y-70226260D01*
X109772068Y-70513158D01*
X109884010Y-70783411D01*
X110046525Y-71026632D01*
X110253368Y-71233475D01*
X110427760Y-71350000D01*
X110253368Y-71466525D01*
X110046525Y-71673368D01*
X109884010Y-71916589D01*
X109772068Y-72186842D01*
X109715000Y-72473740D01*
X109715000Y-72766260D01*
X109772068Y-73053158D01*
X109884010Y-73323411D01*
X110046525Y-73566632D01*
X110253368Y-73773475D01*
X110496589Y-73935990D01*
X110766842Y-74047932D01*
X111053740Y-74105000D01*
X111346260Y-74105000D01*
X111615001Y-74051544D01*
X111615001Y-75011928D01*
X110350000Y-75011928D01*
X110225518Y-75024188D01*
X110105820Y-75060498D01*
X109995506Y-75119463D01*
X109898815Y-75198815D01*
X109819463Y-75295506D01*
X109760498Y-75405820D01*
X109724188Y-75525518D01*
X109711928Y-75650000D01*
X109711928Y-76913270D01*
X108338993Y-78286206D01*
X108309989Y-78310009D01*
X108276575Y-78350725D01*
X108215016Y-78425734D01*
X108169404Y-78511067D01*
X108144444Y-78557764D01*
X108100987Y-78701025D01*
X108089990Y-78812678D01*
X108089990Y-78812688D01*
X108086314Y-78850010D01*
X108089990Y-78887332D01*
X108089991Y-86735207D01*
X108081965Y-86743234D01*
X108034631Y-86695900D01*
X107865113Y-86582632D01*
X107676755Y-86504611D01*
X107613754Y-86492079D01*
X107571311Y-86457247D01*
X107416871Y-86374697D01*
X107249294Y-86323864D01*
X107118687Y-86311000D01*
X107118680Y-86311000D01*
X107075020Y-86306700D01*
X107031360Y-86311000D01*
X96837800Y-86311000D01*
X96837800Y-82115133D01*
X96841477Y-82077800D01*
X96826803Y-81928814D01*
X96783346Y-81785553D01*
X96712774Y-81653524D01*
X96648310Y-81574974D01*
X96617801Y-81537799D01*
X96588804Y-81514002D01*
X95445425Y-80370624D01*
X95524199Y-80291850D01*
X95524199Y-80290852D01*
X95560729Y-80259940D01*
X95625799Y-80178170D01*
X95625799Y-80291850D01*
X95784549Y-80450600D01*
X95886690Y-80439466D01*
X96005828Y-80401358D01*
X96115242Y-80340739D01*
X96210727Y-80259940D01*
X96288614Y-80162064D01*
X96345911Y-80050875D01*
X96380414Y-79930644D01*
X96390799Y-79805992D01*
X96387799Y-79364750D01*
X96229049Y-79206000D01*
X95625799Y-79206000D01*
X95625799Y-79252748D01*
X95579051Y-79206000D01*
X95427999Y-79206000D01*
X95427999Y-78952000D01*
X95579051Y-78952000D01*
X95625799Y-78905252D01*
X95625799Y-78952000D01*
X96229049Y-78952000D01*
X96387799Y-78793250D01*
X96390799Y-78352008D01*
X96380414Y-78227356D01*
X96345911Y-78107125D01*
X96288614Y-77995936D01*
X96210727Y-77898060D01*
X96115242Y-77817261D01*
X96005828Y-77756642D01*
X95886690Y-77718534D01*
X95784549Y-77707400D01*
X95625799Y-77866150D01*
X95625799Y-77979830D01*
X95560729Y-77898060D01*
X95524199Y-77867148D01*
X95524199Y-77866150D01*
X95365449Y-77707400D01*
X95263308Y-77718534D01*
X95250000Y-77722791D01*
X95236692Y-77718534D01*
X95134551Y-77707400D01*
X94975801Y-77866150D01*
X94975801Y-77867148D01*
X94939271Y-77898060D01*
X94924665Y-77916415D01*
X94903984Y-77891215D01*
X94874201Y-77866773D01*
X94874201Y-77866150D01*
X94715451Y-77707400D01*
X94613310Y-77718534D01*
X94598895Y-77723145D01*
X94577281Y-77716588D01*
X94452799Y-77704328D01*
X94097199Y-77704328D01*
X93972717Y-77716588D01*
X93951105Y-77723144D01*
X93936692Y-77718534D01*
X93834551Y-77707400D01*
X93675801Y-77866150D01*
X93675801Y-77866770D01*
X93646014Y-77891215D01*
X93625335Y-77916413D01*
X93610730Y-77898060D01*
X93574201Y-77867149D01*
X93574201Y-77866150D01*
X93415451Y-77707400D01*
X93313310Y-77718534D01*
X93300002Y-77722791D01*
X93286693Y-77718534D01*
X93184552Y-77707400D01*
X93102004Y-77789948D01*
X93102004Y-77786858D01*
X93154836Y-77659312D01*
X93189000Y-77487559D01*
X93189000Y-77312441D01*
X93154836Y-77140688D01*
X93087821Y-76978901D01*
X92990531Y-76833296D01*
X92866704Y-76709469D01*
X92721099Y-76612179D01*
X92559312Y-76545164D01*
X92387559Y-76511000D01*
X92212441Y-76511000D01*
X92040688Y-76545164D01*
X91878901Y-76612179D01*
X91800000Y-76664899D01*
X91721099Y-76612179D01*
X91559312Y-76545164D01*
X91387559Y-76511000D01*
X91212441Y-76511000D01*
X91040688Y-76545164D01*
X90878901Y-76612179D01*
X90760000Y-76691626D01*
X90760000Y-76237322D01*
X90763676Y-76199999D01*
X90760000Y-76162676D01*
X90760000Y-76162667D01*
X90749003Y-76051014D01*
X90705546Y-75907753D01*
X90634974Y-75775724D01*
X90605655Y-75739999D01*
X90563799Y-75688996D01*
X90563795Y-75688992D01*
X90540001Y-75659999D01*
X90511008Y-75636205D01*
X89423803Y-74549002D01*
X89400001Y-74519999D01*
X89284276Y-74425026D01*
X89152247Y-74354454D01*
X89008986Y-74310997D01*
X88897333Y-74300000D01*
X88897322Y-74300000D01*
X88860000Y-74296324D01*
X88822678Y-74300000D01*
X88008178Y-74300000D01*
X87883475Y-74113368D01*
X87676632Y-73906525D01*
X87502240Y-73790000D01*
X87676632Y-73673475D01*
X87883475Y-73466632D01*
X88045990Y-73223411D01*
X88157932Y-72953158D01*
X88215000Y-72666260D01*
X88215000Y-72373740D01*
X88157932Y-72086842D01*
X88045990Y-71816589D01*
X87883475Y-71573368D01*
X87676632Y-71366525D01*
X87502240Y-71250000D01*
X87676632Y-71133475D01*
X87883475Y-70926632D01*
X88045990Y-70683411D01*
X88157932Y-70413158D01*
X88215000Y-70126260D01*
X88215000Y-69833740D01*
X88160549Y-69560000D01*
X89762678Y-69560000D01*
X89800000Y-69563676D01*
X89837322Y-69560000D01*
X89837333Y-69560000D01*
X89948986Y-69549003D01*
X90092247Y-69505546D01*
X90224276Y-69434974D01*
X90340001Y-69340001D01*
X90363803Y-69310998D01*
X91016001Y-68658800D01*
X91045000Y-68635002D01*
X91077829Y-68595000D01*
X91139973Y-68519278D01*
X91210545Y-68387248D01*
X91221846Y-68349992D01*
X91254002Y-68243987D01*
X91264999Y-68132334D01*
X91264999Y-68132325D01*
X91268675Y-68095002D01*
X91264999Y-68057679D01*
X91264999Y-65999801D01*
X91391202Y-66126003D01*
X91415000Y-66155002D01*
X91530725Y-66249975D01*
X91662754Y-66320547D01*
X91806015Y-66364004D01*
X91917668Y-66375001D01*
X91917677Y-66375001D01*
X91955000Y-66378677D01*
X91992323Y-66375001D01*
X102085677Y-66375001D01*
X102122999Y-66378677D01*
X102160321Y-66375001D01*
X102160332Y-66375001D01*
X102271985Y-66364004D01*
X102415246Y-66320547D01*
X102547275Y-66249975D01*
X102663000Y-66155002D01*
X102686803Y-66125998D01*
X102884729Y-65928072D01*
X104148000Y-65928072D01*
X104272482Y-65915812D01*
X104392180Y-65879502D01*
X104502494Y-65820537D01*
X104599185Y-65741185D01*
X104678537Y-65644494D01*
X104737502Y-65534180D01*
X104773812Y-65414482D01*
X104786072Y-65290000D01*
X104786072Y-63590000D01*
X104773812Y-63465518D01*
X104737502Y-63345820D01*
X104678537Y-63235506D01*
X104599185Y-63138815D01*
X104582351Y-63125000D01*
X114315000Y-63125000D01*
X114315001Y-107290650D01*
G36*
X109767916Y-105007714D02*
G01*
X109715000Y-105273740D01*
X109715000Y-105566260D01*
X109772068Y-105853158D01*
X109884010Y-106123411D01*
X110046525Y-106366632D01*
X110061892Y-106381999D01*
X107922660Y-106381999D01*
X107879000Y-106377699D01*
X107835340Y-106381999D01*
X107835334Y-106381999D01*
X107737925Y-106391593D01*
X107704725Y-106394863D01*
X107603059Y-106425703D01*
X107537150Y-106445696D01*
X107382710Y-106528246D01*
X107247342Y-106639340D01*
X107219506Y-106673258D01*
X107183386Y-106709378D01*
X107118625Y-106703000D01*
X107050000Y-106696241D01*
X106981375Y-106703000D01*
X106247855Y-106703000D01*
X106019156Y-106474301D01*
X106038477Y-106463974D01*
X106154202Y-106369001D01*
X106178005Y-106339997D01*
X107929003Y-104589000D01*
X107967532Y-104589000D01*
X108009744Y-104617205D01*
X108198102Y-104695226D01*
X108398061Y-104735000D01*
X108601939Y-104735000D01*
X108801898Y-104695226D01*
X108990256Y-104617205D01*
X109159774Y-104503937D01*
X109211957Y-104451754D01*
X109767916Y-105007714D01*
G37*
X109767916Y-105007714D02*
X109715000Y-105273740D01*
X109715000Y-105566260D01*
X109772068Y-105853158D01*
X109884010Y-106123411D01*
X110046525Y-106366632D01*
X110061892Y-106381999D01*
X107922660Y-106381999D01*
X107879000Y-106377699D01*
X107835340Y-106381999D01*
X107835334Y-106381999D01*
X107737925Y-106391593D01*
X107704725Y-106394863D01*
X107603059Y-106425703D01*
X107537150Y-106445696D01*
X107382710Y-106528246D01*
X107247342Y-106639340D01*
X107219506Y-106673258D01*
X107183386Y-106709378D01*
X107118625Y-106703000D01*
X107050000Y-106696241D01*
X106981375Y-106703000D01*
X106247855Y-106703000D01*
X106019156Y-106474301D01*
X106038477Y-106463974D01*
X106154202Y-106369001D01*
X106178005Y-106339997D01*
X107929003Y-104589000D01*
X107967532Y-104589000D01*
X108009744Y-104617205D01*
X108198102Y-104695226D01*
X108398061Y-104735000D01*
X108601939Y-104735000D01*
X108801898Y-104695226D01*
X108990256Y-104617205D01*
X109159774Y-104503937D01*
X109211957Y-104451754D01*
X109767916Y-105007714D01*
G36*
X91200000Y-88093300D02*
G01*
X91243660Y-88089000D01*
X92956340Y-88089000D01*
X93000000Y-88093300D01*
X93043660Y-88089000D01*
X93811201Y-88089000D01*
X93766449Y-88125727D01*
X93724701Y-88159989D01*
X93700903Y-88188988D01*
X93542544Y-88347346D01*
X93480407Y-88347346D01*
X93280448Y-88387120D01*
X93092090Y-88465141D01*
X92922572Y-88578409D01*
X92778409Y-88722572D01*
X92665141Y-88892090D01*
X92587120Y-89080448D01*
X92547346Y-89280407D01*
X92547346Y-89484285D01*
X92587120Y-89684244D01*
X92665141Y-89872602D01*
X92778409Y-90042120D01*
X92825743Y-90089454D01*
X91455993Y-91459204D01*
X91426989Y-91483007D01*
X91378697Y-91541852D01*
X91332016Y-91598732D01*
X91280852Y-91694453D01*
X91261444Y-91730762D01*
X91217987Y-91874023D01*
X91206990Y-91985676D01*
X91206990Y-91985686D01*
X91203314Y-92023008D01*
X91206990Y-92060330D01*
X91206991Y-99802660D01*
X91203314Y-99839992D01*
X91206991Y-99877325D01*
X91217988Y-99988978D01*
X91221907Y-100001898D01*
X91261444Y-100132238D01*
X91332016Y-100264268D01*
X91403191Y-100350994D01*
X91426990Y-100379993D01*
X91455988Y-100403791D01*
X91988199Y-100936003D01*
X92011998Y-100965002D01*
X92127723Y-101059975D01*
X92259752Y-101130547D01*
X92403013Y-101174004D01*
X92514666Y-101185001D01*
X92514674Y-101185001D01*
X92551999Y-101188677D01*
X92589324Y-101185001D01*
X93776953Y-101185001D01*
X90846815Y-104115140D01*
X90637195Y-104003096D01*
X90373860Y-103923214D01*
X90247000Y-103910719D01*
X90247000Y-96366543D01*
X90253759Y-96297918D01*
X90226786Y-96024059D01*
X90208469Y-95963676D01*
X90146904Y-95760724D01*
X90017183Y-95518032D01*
X89842607Y-95305311D01*
X89789301Y-95261564D01*
X89189000Y-94661264D01*
X89189000Y-88668235D01*
X89768236Y-88089000D01*
X91156340Y-88089000D01*
X91200000Y-88093300D01*
G37*
X91200000Y-88093300D02*
X91243660Y-88089000D01*
X92956340Y-88089000D01*
X93000000Y-88093300D01*
X93043660Y-88089000D01*
X93811201Y-88089000D01*
X93766449Y-88125727D01*
X93724701Y-88159989D01*
X93700903Y-88188988D01*
X93542544Y-88347346D01*
X93480407Y-88347346D01*
X93280448Y-88387120D01*
X93092090Y-88465141D01*
X92922572Y-88578409D01*
X92778409Y-88722572D01*
X92665141Y-88892090D01*
X92587120Y-89080448D01*
X92547346Y-89280407D01*
X92547346Y-89484285D01*
X92587120Y-89684244D01*
X92665141Y-89872602D01*
X92778409Y-90042120D01*
X92825743Y-90089454D01*
X91455993Y-91459204D01*
X91426989Y-91483007D01*
X91378697Y-91541852D01*
X91332016Y-91598732D01*
X91280852Y-91694453D01*
X91261444Y-91730762D01*
X91217987Y-91874023D01*
X91206990Y-91985676D01*
X91206990Y-91985686D01*
X91203314Y-92023008D01*
X91206990Y-92060330D01*
X91206991Y-99802660D01*
X91203314Y-99839992D01*
X91206991Y-99877325D01*
X91217988Y-99988978D01*
X91221907Y-100001898D01*
X91261444Y-100132238D01*
X91332016Y-100264268D01*
X91403191Y-100350994D01*
X91426990Y-100379993D01*
X91455988Y-100403791D01*
X91988199Y-100936003D01*
X92011998Y-100965002D01*
X92127723Y-101059975D01*
X92259752Y-101130547D01*
X92403013Y-101174004D01*
X92514666Y-101185001D01*
X92514674Y-101185001D01*
X92551999Y-101188677D01*
X92589324Y-101185001D01*
X93776953Y-101185001D01*
X90846815Y-104115140D01*
X90637195Y-104003096D01*
X90373860Y-103923214D01*
X90247000Y-103910719D01*
X90247000Y-96366543D01*
X90253759Y-96297918D01*
X90226786Y-96024059D01*
X90208469Y-95963676D01*
X90146904Y-95760724D01*
X90017183Y-95518032D01*
X89842607Y-95305311D01*
X89789301Y-95261564D01*
X89189000Y-94661264D01*
X89189000Y-88668235D01*
X89768236Y-88089000D01*
X91156340Y-88089000D01*
X91200000Y-88093300D01*
G36*
X104827000Y-95273000D02*
G01*
X104847000Y-95273000D01*
X104847000Y-95527000D01*
X104827000Y-95527000D01*
X104827000Y-95547000D01*
X104573000Y-95547000D01*
X104573000Y-95527000D01*
X104553000Y-95527000D01*
X104553000Y-95273000D01*
X104573000Y-95273000D01*
X104573000Y-95253000D01*
X104827000Y-95253000D01*
X104827000Y-95273000D01*
G37*
X104827000Y-95273000D02*
X104847000Y-95273000D01*
X104847000Y-95527000D01*
X104827000Y-95527000D01*
X104827000Y-95547000D01*
X104573000Y-95547000D01*
X104573000Y-95527000D01*
X104553000Y-95527000D01*
X104553000Y-95273000D01*
X104573000Y-95273000D01*
X104573000Y-95253000D01*
X104827000Y-95253000D01*
X104827000Y-95273000D01*
G36*
X88086172Y-80833794D02*
G01*
X88086178Y-80833800D01*
X88109972Y-80862793D01*
X88138965Y-80886587D01*
X89254021Y-82001642D01*
X89277810Y-82030629D01*
X89306797Y-82054418D01*
X89306808Y-82054429D01*
X89393535Y-82125603D01*
X89525565Y-82196175D01*
X89668825Y-82239632D01*
X89817811Y-82254305D01*
X89855142Y-82250628D01*
X90585198Y-82250629D01*
X90914999Y-82580431D01*
X90914999Y-83546328D01*
X90847201Y-83546328D01*
X90722719Y-83558588D01*
X90603021Y-83594898D01*
X90492707Y-83653863D01*
X90396016Y-83733215D01*
X90316664Y-83829906D01*
X90257699Y-83940220D01*
X90221389Y-84059918D01*
X90209129Y-84184400D01*
X90209129Y-84561506D01*
X90199698Y-84579150D01*
X90148865Y-84746727D01*
X90136001Y-84877334D01*
X90136002Y-86311000D01*
X89443660Y-86311000D01*
X89400000Y-86306700D01*
X89356340Y-86311000D01*
X89356333Y-86311000D01*
X89242325Y-86322229D01*
X89225725Y-86323864D01*
X89157816Y-86344464D01*
X89058149Y-86374697D01*
X88903709Y-86457247D01*
X88768341Y-86568341D01*
X88740505Y-86602259D01*
X88116339Y-87226426D01*
X88045990Y-87056589D01*
X87883475Y-86813368D01*
X87676632Y-86606525D01*
X87502240Y-86490000D01*
X87676632Y-86373475D01*
X87883475Y-86166632D01*
X88045990Y-85923411D01*
X88157932Y-85653158D01*
X88215000Y-85366260D01*
X88215000Y-85073740D01*
X88157932Y-84786842D01*
X88045990Y-84516589D01*
X87883475Y-84273368D01*
X87676632Y-84066525D01*
X87502240Y-83950000D01*
X87676632Y-83833475D01*
X87883475Y-83626632D01*
X88045990Y-83383411D01*
X88157932Y-83113158D01*
X88215000Y-82826260D01*
X88215000Y-82533740D01*
X88157932Y-82246842D01*
X88045990Y-81976589D01*
X87883475Y-81733368D01*
X87676632Y-81526525D01*
X87502240Y-81410000D01*
X87676632Y-81293475D01*
X87883475Y-81086632D01*
X88045990Y-80843411D01*
X88062115Y-80804481D01*
X88086172Y-80833794D01*
G37*
X88086172Y-80833794D02*
X88086178Y-80833800D01*
X88109972Y-80862793D01*
X88138965Y-80886587D01*
X89254021Y-82001642D01*
X89277810Y-82030629D01*
X89306797Y-82054418D01*
X89306808Y-82054429D01*
X89393535Y-82125603D01*
X89525565Y-82196175D01*
X89668825Y-82239632D01*
X89817811Y-82254305D01*
X89855142Y-82250628D01*
X90585198Y-82250629D01*
X90914999Y-82580431D01*
X90914999Y-83546328D01*
X90847201Y-83546328D01*
X90722719Y-83558588D01*
X90603021Y-83594898D01*
X90492707Y-83653863D01*
X90396016Y-83733215D01*
X90316664Y-83829906D01*
X90257699Y-83940220D01*
X90221389Y-84059918D01*
X90209129Y-84184400D01*
X90209129Y-84561506D01*
X90199698Y-84579150D01*
X90148865Y-84746727D01*
X90136001Y-84877334D01*
X90136002Y-86311000D01*
X89443660Y-86311000D01*
X89400000Y-86306700D01*
X89356340Y-86311000D01*
X89356333Y-86311000D01*
X89242325Y-86322229D01*
X89225725Y-86323864D01*
X89157816Y-86344464D01*
X89058149Y-86374697D01*
X88903709Y-86457247D01*
X88768341Y-86568341D01*
X88740505Y-86602259D01*
X88116339Y-87226426D01*
X88045990Y-87056589D01*
X87883475Y-86813368D01*
X87676632Y-86606525D01*
X87502240Y-86490000D01*
X87676632Y-86373475D01*
X87883475Y-86166632D01*
X88045990Y-85923411D01*
X88157932Y-85653158D01*
X88215000Y-85366260D01*
X88215000Y-85073740D01*
X88157932Y-84786842D01*
X88045990Y-84516589D01*
X87883475Y-84273368D01*
X87676632Y-84066525D01*
X87502240Y-83950000D01*
X87676632Y-83833475D01*
X87883475Y-83626632D01*
X88045990Y-83383411D01*
X88157932Y-83113158D01*
X88215000Y-82826260D01*
X88215000Y-82533740D01*
X88157932Y-82246842D01*
X88045990Y-81976589D01*
X87883475Y-81733368D01*
X87676632Y-81526525D01*
X87502240Y-81410000D01*
X87676632Y-81293475D01*
X87883475Y-81086632D01*
X88045990Y-80843411D01*
X88062115Y-80804481D01*
X88086172Y-80833794D01*
G36*
X89543991Y-63734797D02*
G01*
X89514988Y-63758600D01*
X89476909Y-63805000D01*
X89420015Y-63874325D01*
X89396149Y-63918975D01*
X89349443Y-64006355D01*
X89305986Y-64149616D01*
X89294989Y-64261269D01*
X89294989Y-64261279D01*
X89291313Y-64298601D01*
X89294989Y-64335924D01*
X89294990Y-67589990D01*
X85649128Y-67589992D01*
X85611796Y-67586315D01*
X85462810Y-67600989D01*
X85319550Y-67644446D01*
X85187520Y-67715018D01*
X85100793Y-67786192D01*
X85100783Y-67786202D01*
X85071796Y-67809991D01*
X85048007Y-67838978D01*
X83693968Y-69193019D01*
X83685000Y-69200379D01*
X83685000Y-63125000D01*
X90153788Y-63125000D01*
X89543991Y-63734797D01*
G37*
X89543991Y-63734797D02*
X89514988Y-63758600D01*
X89476909Y-63805000D01*
X89420015Y-63874325D01*
X89396149Y-63918975D01*
X89349443Y-64006355D01*
X89305986Y-64149616D01*
X89294989Y-64261269D01*
X89294989Y-64261279D01*
X89291313Y-64298601D01*
X89294989Y-64335924D01*
X89294990Y-67589990D01*
X85649128Y-67589992D01*
X85611796Y-67586315D01*
X85462810Y-67600989D01*
X85319550Y-67644446D01*
X85187520Y-67715018D01*
X85100793Y-67786192D01*
X85100783Y-67786202D01*
X85071796Y-67809991D01*
X85048007Y-67838978D01*
X83693968Y-69193019D01*
X83685000Y-69200379D01*
X83685000Y-63125000D01*
X90153788Y-63125000D01*
X89543991Y-63734797D01*
%TD*%
M02*
