G04 #@! TF.GenerationSoftware,KiCad,Pcbnew,(5.1.6-0-10_14)*
G04 #@! TF.CreationDate,2021-06-29T11:03:14+09:00*
G04 #@! TF.ProjectId,qPCR-panel_led_20210629,71504352-2d70-4616-9e65-6c5f6c65645f,rev?*
G04 #@! TF.SameCoordinates,Original*
G04 #@! TF.FileFunction,Legend,Top*
G04 #@! TF.FilePolarity,Positive*
%FSLAX46Y46*%
G04 Gerber Fmt 4.6, Leading zero omitted, Abs format (unit mm)*
G04 Created by KiCad (PCBNEW (5.1.6-0-10_14)) date 2021-06-29 11:03:14*
%MOMM*%
%LPD*%
G01*
G04 APERTURE LIST*
%ADD10C,0.300000*%
%ADD11C,0.120000*%
%ADD12C,0.150000*%
G04 APERTURE END LIST*
D10*
X88249999Y-67678571D02*
X88249999Y-66178571D01*
X89107142Y-67678571D01*
X89107142Y-66178571D01*
X89821428Y-67678571D02*
X89821428Y-66678571D01*
X89821428Y-66178571D02*
X89749999Y-66250000D01*
X89821428Y-66321428D01*
X89892857Y-66250000D01*
X89821428Y-66178571D01*
X89821428Y-66321428D01*
X90535714Y-66678571D02*
X90535714Y-67678571D01*
X90535714Y-66821428D02*
X90607142Y-66750000D01*
X90749999Y-66678571D01*
X90964285Y-66678571D01*
X91107142Y-66750000D01*
X91178571Y-66892857D01*
X91178571Y-67678571D01*
X91892857Y-66678571D02*
X91892857Y-67964285D01*
X91821428Y-68107142D01*
X91678571Y-68178571D01*
X91607142Y-68178571D01*
X91892857Y-66178571D02*
X91821428Y-66250000D01*
X91892857Y-66321428D01*
X91964285Y-66250000D01*
X91892857Y-66178571D01*
X91892857Y-66321428D01*
X93249999Y-67678571D02*
X93249999Y-66892857D01*
X93178571Y-66750000D01*
X93035714Y-66678571D01*
X92749999Y-66678571D01*
X92607142Y-66750000D01*
X93249999Y-67607142D02*
X93107142Y-67678571D01*
X92749999Y-67678571D01*
X92607142Y-67607142D01*
X92535714Y-67464285D01*
X92535714Y-67321428D01*
X92607142Y-67178571D01*
X92749999Y-67107142D01*
X93107142Y-67107142D01*
X93249999Y-67035714D01*
X95107142Y-67678571D02*
X95107142Y-66178571D01*
X95107142Y-66750000D02*
X95249999Y-66678571D01*
X95535714Y-66678571D01*
X95678571Y-66750000D01*
X95749999Y-66821428D01*
X95821428Y-66964285D01*
X95821428Y-67392857D01*
X95749999Y-67535714D01*
X95678571Y-67607142D01*
X95535714Y-67678571D01*
X95249999Y-67678571D01*
X95107142Y-67607142D01*
X97107142Y-67678571D02*
X97107142Y-66892857D01*
X97035714Y-66750000D01*
X96892857Y-66678571D01*
X96607142Y-66678571D01*
X96464285Y-66750000D01*
X97107142Y-67607142D02*
X96964285Y-67678571D01*
X96607142Y-67678571D01*
X96464285Y-67607142D01*
X96392857Y-67464285D01*
X96392857Y-67321428D01*
X96464285Y-67178571D01*
X96607142Y-67107142D01*
X96964285Y-67107142D01*
X97107142Y-67035714D01*
X97607142Y-66678571D02*
X98178571Y-66678571D01*
X97821428Y-66178571D02*
X97821428Y-67464285D01*
X97892857Y-67607142D01*
X98035714Y-67678571D01*
X98178571Y-67678571D01*
X99321428Y-67607142D02*
X99178571Y-67678571D01*
X98892857Y-67678571D01*
X98749999Y-67607142D01*
X98678571Y-67535714D01*
X98607142Y-67392857D01*
X98607142Y-66964285D01*
X98678571Y-66821428D01*
X98749999Y-66750000D01*
X98892857Y-66678571D01*
X99178571Y-66678571D01*
X99321428Y-66750000D01*
X99964285Y-67678571D02*
X99964285Y-66178571D01*
X100607142Y-67678571D02*
X100607142Y-66892857D01*
X100535714Y-66750000D01*
X100392857Y-66678571D01*
X100178571Y-66678571D01*
X100035714Y-66750000D01*
X99964285Y-66821428D01*
X101535714Y-66821428D02*
X101392857Y-66750000D01*
X101321428Y-66678571D01*
X101249999Y-66535714D01*
X101249999Y-66464285D01*
X101321428Y-66321428D01*
X101392857Y-66250000D01*
X101535714Y-66178571D01*
X101821428Y-66178571D01*
X101964285Y-66250000D01*
X102035714Y-66321428D01*
X102107142Y-66464285D01*
X102107142Y-66535714D01*
X102035714Y-66678571D01*
X101964285Y-66750000D01*
X101821428Y-66821428D01*
X101535714Y-66821428D01*
X101392857Y-66892857D01*
X101321428Y-66964285D01*
X101249999Y-67107142D01*
X101249999Y-67392857D01*
X101321428Y-67535714D01*
X101392857Y-67607142D01*
X101535714Y-67678571D01*
X101821428Y-67678571D01*
X101964285Y-67607142D01*
X102035714Y-67535714D01*
X102107142Y-67392857D01*
X102107142Y-67107142D01*
X102035714Y-66964285D01*
X101964285Y-66892857D01*
X101821428Y-66821428D01*
X103821428Y-66107142D02*
X102535714Y-68035714D01*
X104535714Y-67678571D02*
X104392857Y-67607142D01*
X104321428Y-67464285D01*
X104321428Y-66178571D01*
X105678571Y-67607142D02*
X105535714Y-67678571D01*
X105249999Y-67678571D01*
X105107142Y-67607142D01*
X105035714Y-67464285D01*
X105035714Y-66892857D01*
X105107142Y-66750000D01*
X105249999Y-66678571D01*
X105535714Y-66678571D01*
X105678571Y-66750000D01*
X105749999Y-66892857D01*
X105749999Y-67035714D01*
X105035714Y-67178571D01*
X107035714Y-67678571D02*
X107035714Y-66178571D01*
X107035714Y-67607142D02*
X106892857Y-67678571D01*
X106607142Y-67678571D01*
X106464285Y-67607142D01*
X106392857Y-67535714D01*
X106321428Y-67392857D01*
X106321428Y-66964285D01*
X106392857Y-66821428D01*
X106464285Y-66750000D01*
X106607142Y-66678571D01*
X106892857Y-66678571D01*
X107035714Y-66750000D01*
X107750000Y-67107142D02*
X108892857Y-67107142D01*
X109607142Y-66678571D02*
X109607142Y-67678571D01*
X109607142Y-66821428D02*
X109678571Y-66750000D01*
X109821428Y-66678571D01*
X110035714Y-66678571D01*
X110178571Y-66750000D01*
X110250000Y-66892857D01*
X110250000Y-67678571D01*
X111178571Y-67678571D02*
X111035714Y-67607142D01*
X110964285Y-67535714D01*
X110892857Y-67392857D01*
X110892857Y-66964285D01*
X110964285Y-66821428D01*
X111035714Y-66750000D01*
X111178571Y-66678571D01*
X111392857Y-66678571D01*
X111535714Y-66750000D01*
X111607142Y-66821428D01*
X111678571Y-66964285D01*
X111678571Y-67392857D01*
X111607142Y-67535714D01*
X111535714Y-67607142D01*
X111392857Y-67678571D01*
X111178571Y-67678571D01*
X112321428Y-67678571D02*
X112321428Y-66678571D01*
X112321428Y-66964285D02*
X112392857Y-66821428D01*
X112464285Y-66750000D01*
X112607142Y-66678571D01*
X112750000Y-66678571D01*
X113035714Y-66678571D02*
X113607142Y-66678571D01*
X113250000Y-66178571D02*
X113250000Y-67464285D01*
X113321428Y-67607142D01*
X113464285Y-67678571D01*
X113607142Y-67678571D01*
X114107142Y-67678571D02*
X114107142Y-66178571D01*
X114750000Y-67678571D02*
X114750000Y-66892857D01*
X114678571Y-66750000D01*
X114535714Y-66678571D01*
X114321428Y-66678571D01*
X114178571Y-66750000D01*
X114107142Y-66821428D01*
X166035714Y-48778571D02*
X166035714Y-47278571D01*
X166035714Y-47850000D02*
X166178571Y-47778571D01*
X166464285Y-47778571D01*
X166607142Y-47850000D01*
X166678571Y-47921428D01*
X166750000Y-48064285D01*
X166750000Y-48492857D01*
X166678571Y-48635714D01*
X166607142Y-48707142D01*
X166464285Y-48778571D01*
X166178571Y-48778571D01*
X166035714Y-48707142D01*
X168035714Y-48778571D02*
X168035714Y-47992857D01*
X167964285Y-47850000D01*
X167821428Y-47778571D01*
X167535714Y-47778571D01*
X167392857Y-47850000D01*
X168035714Y-48707142D02*
X167892857Y-48778571D01*
X167535714Y-48778571D01*
X167392857Y-48707142D01*
X167321428Y-48564285D01*
X167321428Y-48421428D01*
X167392857Y-48278571D01*
X167535714Y-48207142D01*
X167892857Y-48207142D01*
X168035714Y-48135714D01*
X168535714Y-47778571D02*
X169107142Y-47778571D01*
X168750000Y-47278571D02*
X168750000Y-48564285D01*
X168821428Y-48707142D01*
X168964285Y-48778571D01*
X169107142Y-48778571D01*
X170250000Y-48707142D02*
X170107142Y-48778571D01*
X169821428Y-48778571D01*
X169678571Y-48707142D01*
X169607142Y-48635714D01*
X169535714Y-48492857D01*
X169535714Y-48064285D01*
X169607142Y-47921428D01*
X169678571Y-47850000D01*
X169821428Y-47778571D01*
X170107142Y-47778571D01*
X170250000Y-47850000D01*
X170892857Y-48778571D02*
X170892857Y-47278571D01*
X171535714Y-48778571D02*
X171535714Y-47992857D01*
X171464285Y-47850000D01*
X171321428Y-47778571D01*
X171107142Y-47778571D01*
X170964285Y-47850000D01*
X170892857Y-47921428D01*
X172464285Y-47921428D02*
X172321428Y-47850000D01*
X172250000Y-47778571D01*
X172178571Y-47635714D01*
X172178571Y-47564285D01*
X172250000Y-47421428D01*
X172321428Y-47350000D01*
X172464285Y-47278571D01*
X172750000Y-47278571D01*
X172892857Y-47350000D01*
X172964285Y-47421428D01*
X173035714Y-47564285D01*
X173035714Y-47635714D01*
X172964285Y-47778571D01*
X172892857Y-47850000D01*
X172750000Y-47921428D01*
X172464285Y-47921428D01*
X172321428Y-47992857D01*
X172250000Y-48064285D01*
X172178571Y-48207142D01*
X172178571Y-48492857D01*
X172250000Y-48635714D01*
X172321428Y-48707142D01*
X172464285Y-48778571D01*
X172750000Y-48778571D01*
X172892857Y-48707142D01*
X172964285Y-48635714D01*
X173035714Y-48492857D01*
X173035714Y-48207142D01*
X172964285Y-48064285D01*
X172892857Y-47992857D01*
X172750000Y-47921428D01*
X174750000Y-47207142D02*
X173464285Y-49135714D01*
X175464285Y-48778571D02*
X175321428Y-48707142D01*
X175250000Y-48564285D01*
X175250000Y-47278571D01*
X176607142Y-48707142D02*
X176464285Y-48778571D01*
X176178571Y-48778571D01*
X176035714Y-48707142D01*
X175964285Y-48564285D01*
X175964285Y-47992857D01*
X176035714Y-47850000D01*
X176178571Y-47778571D01*
X176464285Y-47778571D01*
X176607142Y-47850000D01*
X176678571Y-47992857D01*
X176678571Y-48135714D01*
X175964285Y-48278571D01*
X177964285Y-48778571D02*
X177964285Y-47278571D01*
X177964285Y-48707142D02*
X177821428Y-48778571D01*
X177535714Y-48778571D01*
X177392857Y-48707142D01*
X177321428Y-48635714D01*
X177250000Y-48492857D01*
X177250000Y-48064285D01*
X177321428Y-47921428D01*
X177392857Y-47850000D01*
X177535714Y-47778571D01*
X177821428Y-47778571D01*
X177964285Y-47850000D01*
X178678571Y-48207142D02*
X179821428Y-48207142D01*
X180464285Y-48707142D02*
X180607142Y-48778571D01*
X180892857Y-48778571D01*
X181035714Y-48707142D01*
X181107142Y-48564285D01*
X181107142Y-48492857D01*
X181035714Y-48350000D01*
X180892857Y-48278571D01*
X180678571Y-48278571D01*
X180535714Y-48207142D01*
X180464285Y-48064285D01*
X180464285Y-47992857D01*
X180535714Y-47850000D01*
X180678571Y-47778571D01*
X180892857Y-47778571D01*
X181035714Y-47850000D01*
X181964285Y-48778571D02*
X181821428Y-48707142D01*
X181750000Y-48635714D01*
X181678571Y-48492857D01*
X181678571Y-48064285D01*
X181750000Y-47921428D01*
X181821428Y-47850000D01*
X181964285Y-47778571D01*
X182178571Y-47778571D01*
X182321428Y-47850000D01*
X182392857Y-47921428D01*
X182464285Y-48064285D01*
X182464285Y-48492857D01*
X182392857Y-48635714D01*
X182321428Y-48707142D01*
X182178571Y-48778571D01*
X181964285Y-48778571D01*
X183750000Y-47778571D02*
X183750000Y-48778571D01*
X183107142Y-47778571D02*
X183107142Y-48564285D01*
X183178571Y-48707142D01*
X183321428Y-48778571D01*
X183535714Y-48778571D01*
X183678571Y-48707142D01*
X183750000Y-48635714D01*
X184250000Y-47778571D02*
X184821428Y-47778571D01*
X184464285Y-47278571D02*
X184464285Y-48564285D01*
X184535714Y-48707142D01*
X184678571Y-48778571D01*
X184821428Y-48778571D01*
X185321428Y-48778571D02*
X185321428Y-47278571D01*
X185964285Y-48778571D02*
X185964285Y-47992857D01*
X185892857Y-47850000D01*
X185750000Y-47778571D01*
X185535714Y-47778571D01*
X185392857Y-47850000D01*
X185321428Y-47921428D01*
D11*
X180940000Y-69577000D02*
X180940000Y-72667000D01*
X186000000Y-71122000D02*
G75*
G03*
X186000000Y-71122000I-2500000J0D01*
G01*
X186490000Y-71122462D02*
G75*
G03*
X180940000Y-69577170I-2990000J462D01*
G01*
X186490000Y-71121538D02*
G75*
G02*
X180940000Y-72666830I-2990000J-462D01*
G01*
X177000000Y-71122000D02*
G75*
G03*
X177000000Y-71122000I-2500000J0D01*
G01*
X171940000Y-69577000D02*
X171940000Y-72667000D01*
X177490000Y-71121538D02*
G75*
G02*
X171940000Y-72666830I-2990000J-462D01*
G01*
X177490000Y-71122462D02*
G75*
G03*
X171940000Y-69577170I-2990000J462D01*
G01*
X162940000Y-69577000D02*
X162940000Y-72667000D01*
X168000000Y-71122000D02*
G75*
G03*
X168000000Y-71122000I-2500000J0D01*
G01*
X168490000Y-71122462D02*
G75*
G03*
X162940000Y-69577170I-2990000J462D01*
G01*
X168490000Y-71121538D02*
G75*
G02*
X162940000Y-72666830I-2990000J-462D01*
G01*
X159000000Y-71122000D02*
G75*
G03*
X159000000Y-71122000I-2500000J0D01*
G01*
X153940000Y-69577000D02*
X153940000Y-72667000D01*
X159490000Y-71121538D02*
G75*
G02*
X153940000Y-72666830I-2990000J-462D01*
G01*
X159490000Y-71122462D02*
G75*
G03*
X153940000Y-69577170I-2990000J462D01*
G01*
X144940000Y-69577000D02*
X144940000Y-72667000D01*
X150000000Y-71122000D02*
G75*
G03*
X150000000Y-71122000I-2500000J0D01*
G01*
X150490000Y-71122462D02*
G75*
G03*
X144940000Y-69577170I-2990000J462D01*
G01*
X150490000Y-71121538D02*
G75*
G02*
X144940000Y-72666830I-2990000J-462D01*
G01*
X141770000Y-71122000D02*
G75*
G03*
X141770000Y-71122000I-2500000J0D01*
G01*
X136710000Y-69577000D02*
X136710000Y-72667000D01*
X142260000Y-71121538D02*
G75*
G02*
X136710000Y-72666830I-2990000J-462D01*
G01*
X142260000Y-71122462D02*
G75*
G03*
X136710000Y-69577170I-2990000J462D01*
G01*
X126940000Y-69577000D02*
X126940000Y-72667000D01*
X132000000Y-71122000D02*
G75*
G03*
X132000000Y-71122000I-2500000J0D01*
G01*
X132490000Y-71122462D02*
G75*
G03*
X126940000Y-69577170I-2990000J462D01*
G01*
X132490000Y-71121538D02*
G75*
G02*
X126940000Y-72666830I-2990000J-462D01*
G01*
X123000000Y-71122000D02*
G75*
G03*
X123000000Y-71122000I-2500000J0D01*
G01*
X117940000Y-69577000D02*
X117940000Y-72667000D01*
X123490000Y-71121538D02*
G75*
G02*
X117940000Y-72666830I-2990000J-462D01*
G01*
X123490000Y-71122462D02*
G75*
G03*
X117940000Y-69577170I-2990000J462D01*
G01*
X81304254Y-72582000D02*
X83904254Y-72582000D01*
X83904254Y-72582000D02*
X83904254Y-81212000D01*
X83904254Y-81212000D02*
X81304254Y-81212000D01*
X81304254Y-81212000D02*
X81304254Y-72582000D01*
X82254254Y-72152000D02*
X82254254Y-72582000D01*
X83014254Y-72152000D02*
X83014254Y-72582000D01*
X81484254Y-72582000D02*
X81484254Y-81212000D01*
X81604254Y-72582000D02*
X81604254Y-81212000D01*
X81724254Y-72582000D02*
X81724254Y-81212000D01*
X81844254Y-72582000D02*
X81844254Y-81212000D01*
X81964254Y-72582000D02*
X81964254Y-81212000D01*
X82084254Y-72582000D02*
X82084254Y-81212000D01*
X82204254Y-72582000D02*
X82204254Y-81212000D01*
X82324254Y-72582000D02*
X82324254Y-81212000D01*
X82444254Y-72582000D02*
X82444254Y-81212000D01*
X82564254Y-72582000D02*
X82564254Y-81212000D01*
X82684254Y-72582000D02*
X82684254Y-81212000D01*
X82804254Y-72582000D02*
X82804254Y-81212000D01*
X82924254Y-72582000D02*
X82924254Y-81212000D01*
X83044254Y-72582000D02*
X83044254Y-81212000D01*
X83164254Y-72582000D02*
X83164254Y-81212000D01*
X83284254Y-72582000D02*
X83284254Y-81212000D01*
X83404254Y-72582000D02*
X83404254Y-81212000D01*
X83524254Y-72582000D02*
X83524254Y-81212000D01*
X83644254Y-72582000D02*
X83644254Y-81212000D01*
X83764254Y-72582000D02*
X83764254Y-81212000D01*
X83884254Y-72582000D02*
X83884254Y-81212000D01*
X84004254Y-72582000D02*
X84004254Y-81212000D01*
X83904254Y-72582000D02*
X86444254Y-72582000D01*
X86444254Y-72582000D02*
X86444254Y-81212000D01*
X86444254Y-81212000D02*
X83904254Y-81212000D01*
X83904254Y-81212000D02*
X83904254Y-72582000D01*
X84794254Y-72152000D02*
X84794254Y-72582000D01*
X85554254Y-72152000D02*
X85554254Y-72582000D01*
X86444254Y-72582000D02*
X88984254Y-72582000D01*
X88984254Y-72582000D02*
X88984254Y-81212000D01*
X88984254Y-81212000D02*
X86444254Y-81212000D01*
X86444254Y-81212000D02*
X86444254Y-72582000D01*
X87334254Y-72152000D02*
X87334254Y-72582000D01*
X88094254Y-72152000D02*
X88094254Y-72582000D01*
X88984254Y-72582000D02*
X91524254Y-72582000D01*
X91524254Y-72582000D02*
X91524254Y-81212000D01*
X91524254Y-81212000D02*
X88984254Y-81212000D01*
X88984254Y-81212000D02*
X88984254Y-72582000D01*
X89874254Y-72152000D02*
X89874254Y-72582000D01*
X90634254Y-72152000D02*
X90634254Y-72582000D01*
X91524254Y-72582000D02*
X94064254Y-72582000D01*
X94064254Y-72582000D02*
X94064254Y-81212000D01*
X94064254Y-81212000D02*
X91524254Y-81212000D01*
X91524254Y-81212000D02*
X91524254Y-72582000D01*
X92414254Y-72152000D02*
X92414254Y-72582000D01*
X93174254Y-72152000D02*
X93174254Y-72582000D01*
X94064254Y-72582000D02*
X96604254Y-72582000D01*
X96604254Y-72582000D02*
X96604254Y-81212000D01*
X96604254Y-81212000D02*
X94064254Y-81212000D01*
X94064254Y-81212000D02*
X94064254Y-72582000D01*
X94954254Y-72152000D02*
X94954254Y-72582000D01*
X95714254Y-72152000D02*
X95714254Y-72582000D01*
X96604254Y-72582000D02*
X99144254Y-72582000D01*
X99144254Y-72582000D02*
X99144254Y-81212000D01*
X99144254Y-81212000D02*
X96604254Y-81212000D01*
X96604254Y-81212000D02*
X96604254Y-72582000D01*
X97494254Y-72152000D02*
X97494254Y-72582000D01*
X98254254Y-72152000D02*
X98254254Y-72582000D01*
X99144254Y-72582000D02*
X101684254Y-72582000D01*
X101684254Y-72582000D02*
X101684254Y-81212000D01*
X101684254Y-81212000D02*
X99144254Y-81212000D01*
X99144254Y-81212000D02*
X99144254Y-72582000D01*
X100034254Y-72152000D02*
X100034254Y-72582000D01*
X100794254Y-72152000D02*
X100794254Y-72582000D01*
X101684254Y-72582000D02*
X104224254Y-72582000D01*
X104224254Y-72582000D02*
X104224254Y-81212000D01*
X104224254Y-81212000D02*
X101684254Y-81212000D01*
X101684254Y-81212000D02*
X101684254Y-72582000D01*
X102574254Y-72152000D02*
X102574254Y-72582000D01*
X103334254Y-72152000D02*
X103334254Y-72582000D01*
X104224254Y-72582000D02*
X106824254Y-72582000D01*
X106824254Y-72582000D02*
X106824254Y-81212000D01*
X106824254Y-81212000D02*
X104224254Y-81212000D01*
X104224254Y-81212000D02*
X104224254Y-72582000D01*
X105114254Y-72152000D02*
X105114254Y-72582000D01*
X105874254Y-72152000D02*
X105874254Y-72582000D01*
X81364254Y-71122000D02*
X81364254Y-69852000D01*
X81364254Y-69852000D02*
X82634254Y-69852000D01*
X83580000Y-66792000D02*
X84280000Y-66792000D01*
X84280000Y-67992000D02*
X83580000Y-67992000D01*
X192920000Y-49592000D02*
X192220000Y-49592000D01*
X192220000Y-48392000D02*
X192920000Y-48392000D01*
X95560000Y-54267000D02*
X95560000Y-51177000D01*
X95500000Y-52722000D02*
G75*
G03*
X95500000Y-52722000I-2500000J0D01*
G01*
X90010000Y-52721538D02*
G75*
G03*
X95560000Y-54266830I2990000J-462D01*
G01*
X90010000Y-52722462D02*
G75*
G02*
X95560000Y-51177170I2990000J462D01*
G01*
X104500000Y-52722000D02*
G75*
G03*
X104500000Y-52722000I-2500000J0D01*
G01*
X104560000Y-54267000D02*
X104560000Y-51177000D01*
X99010000Y-52722462D02*
G75*
G02*
X104560000Y-51177170I2990000J462D01*
G01*
X99010000Y-52721538D02*
G75*
G03*
X104560000Y-54266830I2990000J-462D01*
G01*
X113560000Y-54267000D02*
X113560000Y-51177000D01*
X113500000Y-52722000D02*
G75*
G03*
X113500000Y-52722000I-2500000J0D01*
G01*
X108010000Y-52721538D02*
G75*
G03*
X113560000Y-54266830I2990000J-462D01*
G01*
X108010000Y-52722462D02*
G75*
G02*
X113560000Y-51177170I2990000J462D01*
G01*
X122500000Y-52722000D02*
G75*
G03*
X122500000Y-52722000I-2500000J0D01*
G01*
X122560000Y-54267000D02*
X122560000Y-51177000D01*
X117010000Y-52722462D02*
G75*
G02*
X122560000Y-51177170I2990000J462D01*
G01*
X117010000Y-52721538D02*
G75*
G03*
X122560000Y-54266830I2990000J-462D01*
G01*
X131560000Y-54267000D02*
X131560000Y-51177000D01*
X131500000Y-52722000D02*
G75*
G03*
X131500000Y-52722000I-2500000J0D01*
G01*
X126010000Y-52721538D02*
G75*
G03*
X131560000Y-54266830I2990000J-462D01*
G01*
X126010000Y-52722462D02*
G75*
G02*
X131560000Y-51177170I2990000J462D01*
G01*
X139730000Y-52722000D02*
G75*
G03*
X139730000Y-52722000I-2500000J0D01*
G01*
X139790000Y-54267000D02*
X139790000Y-51177000D01*
X134240000Y-52722462D02*
G75*
G02*
X139790000Y-51177170I2990000J462D01*
G01*
X134240000Y-52721538D02*
G75*
G03*
X139790000Y-54266830I2990000J-462D01*
G01*
X149560000Y-54267000D02*
X149560000Y-51177000D01*
X149500000Y-52722000D02*
G75*
G03*
X149500000Y-52722000I-2500000J0D01*
G01*
X144010000Y-52721538D02*
G75*
G03*
X149560000Y-54266830I2990000J-462D01*
G01*
X144010000Y-52722462D02*
G75*
G02*
X149560000Y-51177170I2990000J462D01*
G01*
X158500000Y-52722000D02*
G75*
G03*
X158500000Y-52722000I-2500000J0D01*
G01*
X158560000Y-54267000D02*
X158560000Y-51177000D01*
X153010000Y-52722462D02*
G75*
G02*
X158560000Y-51177170I2990000J462D01*
G01*
X153010000Y-52721538D02*
G75*
G03*
X158560000Y-54266830I2990000J-462D01*
G01*
X169675746Y-54182000D02*
X172275746Y-54182000D01*
X172275746Y-54182000D02*
X172275746Y-62812000D01*
X172275746Y-62812000D02*
X169675746Y-62812000D01*
X169675746Y-62812000D02*
X169675746Y-54182000D01*
X170625746Y-53752000D02*
X170625746Y-54182000D01*
X171385746Y-53752000D02*
X171385746Y-54182000D01*
X169855746Y-54182000D02*
X169855746Y-62812000D01*
X169975746Y-54182000D02*
X169975746Y-62812000D01*
X170095746Y-54182000D02*
X170095746Y-62812000D01*
X170215746Y-54182000D02*
X170215746Y-62812000D01*
X170335746Y-54182000D02*
X170335746Y-62812000D01*
X170455746Y-54182000D02*
X170455746Y-62812000D01*
X170575746Y-54182000D02*
X170575746Y-62812000D01*
X170695746Y-54182000D02*
X170695746Y-62812000D01*
X170815746Y-54182000D02*
X170815746Y-62812000D01*
X170935746Y-54182000D02*
X170935746Y-62812000D01*
X171055746Y-54182000D02*
X171055746Y-62812000D01*
X171175746Y-54182000D02*
X171175746Y-62812000D01*
X171295746Y-54182000D02*
X171295746Y-62812000D01*
X171415746Y-54182000D02*
X171415746Y-62812000D01*
X171535746Y-54182000D02*
X171535746Y-62812000D01*
X171655746Y-54182000D02*
X171655746Y-62812000D01*
X171775746Y-54182000D02*
X171775746Y-62812000D01*
X171895746Y-54182000D02*
X171895746Y-62812000D01*
X172015746Y-54182000D02*
X172015746Y-62812000D01*
X172135746Y-54182000D02*
X172135746Y-62812000D01*
X172255746Y-54182000D02*
X172255746Y-62812000D01*
X172375746Y-54182000D02*
X172375746Y-62812000D01*
X172275746Y-54182000D02*
X174815746Y-54182000D01*
X174815746Y-54182000D02*
X174815746Y-62812000D01*
X174815746Y-62812000D02*
X172275746Y-62812000D01*
X172275746Y-62812000D02*
X172275746Y-54182000D01*
X173165746Y-53752000D02*
X173165746Y-54182000D01*
X173925746Y-53752000D02*
X173925746Y-54182000D01*
X174815746Y-54182000D02*
X177355746Y-54182000D01*
X177355746Y-54182000D02*
X177355746Y-62812000D01*
X177355746Y-62812000D02*
X174815746Y-62812000D01*
X174815746Y-62812000D02*
X174815746Y-54182000D01*
X175705746Y-53752000D02*
X175705746Y-54182000D01*
X176465746Y-53752000D02*
X176465746Y-54182000D01*
X177355746Y-54182000D02*
X179895746Y-54182000D01*
X179895746Y-54182000D02*
X179895746Y-62812000D01*
X179895746Y-62812000D02*
X177355746Y-62812000D01*
X177355746Y-62812000D02*
X177355746Y-54182000D01*
X178245746Y-53752000D02*
X178245746Y-54182000D01*
X179005746Y-53752000D02*
X179005746Y-54182000D01*
X179895746Y-54182000D02*
X182435746Y-54182000D01*
X182435746Y-54182000D02*
X182435746Y-62812000D01*
X182435746Y-62812000D02*
X179895746Y-62812000D01*
X179895746Y-62812000D02*
X179895746Y-54182000D01*
X180785746Y-53752000D02*
X180785746Y-54182000D01*
X181545746Y-53752000D02*
X181545746Y-54182000D01*
X182435746Y-54182000D02*
X184975746Y-54182000D01*
X184975746Y-54182000D02*
X184975746Y-62812000D01*
X184975746Y-62812000D02*
X182435746Y-62812000D01*
X182435746Y-62812000D02*
X182435746Y-54182000D01*
X183325746Y-53752000D02*
X183325746Y-54182000D01*
X184085746Y-53752000D02*
X184085746Y-54182000D01*
X184975746Y-54182000D02*
X187515746Y-54182000D01*
X187515746Y-54182000D02*
X187515746Y-62812000D01*
X187515746Y-62812000D02*
X184975746Y-62812000D01*
X184975746Y-62812000D02*
X184975746Y-54182000D01*
X185865746Y-53752000D02*
X185865746Y-54182000D01*
X186625746Y-53752000D02*
X186625746Y-54182000D01*
X187515746Y-54182000D02*
X190055746Y-54182000D01*
X190055746Y-54182000D02*
X190055746Y-62812000D01*
X190055746Y-62812000D02*
X187515746Y-62812000D01*
X187515746Y-62812000D02*
X187515746Y-54182000D01*
X188405746Y-53752000D02*
X188405746Y-54182000D01*
X189165746Y-53752000D02*
X189165746Y-54182000D01*
X190055746Y-54182000D02*
X192595746Y-54182000D01*
X192595746Y-54182000D02*
X192595746Y-62812000D01*
X192595746Y-62812000D02*
X190055746Y-62812000D01*
X190055746Y-62812000D02*
X190055746Y-54182000D01*
X190945746Y-53752000D02*
X190945746Y-54182000D01*
X191705746Y-53752000D02*
X191705746Y-54182000D01*
X192595746Y-54182000D02*
X195195746Y-54182000D01*
X195195746Y-54182000D02*
X195195746Y-62812000D01*
X195195746Y-62812000D02*
X192595746Y-62812000D01*
X192595746Y-62812000D02*
X192595746Y-54182000D01*
X193485746Y-53752000D02*
X193485746Y-54182000D01*
X194245746Y-53752000D02*
X194245746Y-54182000D01*
X169735746Y-52722000D02*
X169735746Y-51452000D01*
X169735746Y-51452000D02*
X171005746Y-51452000D01*
D12*
X182761904Y-67614380D02*
X182761904Y-66614380D01*
X183000000Y-66614380D01*
X183142857Y-66662000D01*
X183238095Y-66757238D01*
X183285714Y-66852476D01*
X183333333Y-67042952D01*
X183333333Y-67185809D01*
X183285714Y-67376285D01*
X183238095Y-67471523D01*
X183142857Y-67566761D01*
X183000000Y-67614380D01*
X182761904Y-67614380D01*
X184285714Y-67614380D02*
X183714285Y-67614380D01*
X184000000Y-67614380D02*
X184000000Y-66614380D01*
X183904761Y-66757238D01*
X183809523Y-66852476D01*
X183714285Y-66900095D01*
X173761904Y-67614380D02*
X173761904Y-66614380D01*
X174000000Y-66614380D01*
X174142857Y-66662000D01*
X174238095Y-66757238D01*
X174285714Y-66852476D01*
X174333333Y-67042952D01*
X174333333Y-67185809D01*
X174285714Y-67376285D01*
X174238095Y-67471523D01*
X174142857Y-67566761D01*
X174000000Y-67614380D01*
X173761904Y-67614380D01*
X174714285Y-66709619D02*
X174761904Y-66662000D01*
X174857142Y-66614380D01*
X175095238Y-66614380D01*
X175190476Y-66662000D01*
X175238095Y-66709619D01*
X175285714Y-66804857D01*
X175285714Y-66900095D01*
X175238095Y-67042952D01*
X174666666Y-67614380D01*
X175285714Y-67614380D01*
X164761904Y-67614380D02*
X164761904Y-66614380D01*
X165000000Y-66614380D01*
X165142857Y-66662000D01*
X165238095Y-66757238D01*
X165285714Y-66852476D01*
X165333333Y-67042952D01*
X165333333Y-67185809D01*
X165285714Y-67376285D01*
X165238095Y-67471523D01*
X165142857Y-67566761D01*
X165000000Y-67614380D01*
X164761904Y-67614380D01*
X165666666Y-66614380D02*
X166285714Y-66614380D01*
X165952380Y-66995333D01*
X166095238Y-66995333D01*
X166190476Y-67042952D01*
X166238095Y-67090571D01*
X166285714Y-67185809D01*
X166285714Y-67423904D01*
X166238095Y-67519142D01*
X166190476Y-67566761D01*
X166095238Y-67614380D01*
X165809523Y-67614380D01*
X165714285Y-67566761D01*
X165666666Y-67519142D01*
X155761904Y-67614380D02*
X155761904Y-66614380D01*
X156000000Y-66614380D01*
X156142857Y-66662000D01*
X156238095Y-66757238D01*
X156285714Y-66852476D01*
X156333333Y-67042952D01*
X156333333Y-67185809D01*
X156285714Y-67376285D01*
X156238095Y-67471523D01*
X156142857Y-67566761D01*
X156000000Y-67614380D01*
X155761904Y-67614380D01*
X157190476Y-66947714D02*
X157190476Y-67614380D01*
X156952380Y-66566761D02*
X156714285Y-67281047D01*
X157333333Y-67281047D01*
X146761904Y-67614380D02*
X146761904Y-66614380D01*
X147000000Y-66614380D01*
X147142857Y-66662000D01*
X147238095Y-66757238D01*
X147285714Y-66852476D01*
X147333333Y-67042952D01*
X147333333Y-67185809D01*
X147285714Y-67376285D01*
X147238095Y-67471523D01*
X147142857Y-67566761D01*
X147000000Y-67614380D01*
X146761904Y-67614380D01*
X148238095Y-66614380D02*
X147761904Y-66614380D01*
X147714285Y-67090571D01*
X147761904Y-67042952D01*
X147857142Y-66995333D01*
X148095238Y-66995333D01*
X148190476Y-67042952D01*
X148238095Y-67090571D01*
X148285714Y-67185809D01*
X148285714Y-67423904D01*
X148238095Y-67519142D01*
X148190476Y-67566761D01*
X148095238Y-67614380D01*
X147857142Y-67614380D01*
X147761904Y-67566761D01*
X147714285Y-67519142D01*
X138531904Y-67614380D02*
X138531904Y-66614380D01*
X138770000Y-66614380D01*
X138912857Y-66662000D01*
X139008095Y-66757238D01*
X139055714Y-66852476D01*
X139103333Y-67042952D01*
X139103333Y-67185809D01*
X139055714Y-67376285D01*
X139008095Y-67471523D01*
X138912857Y-67566761D01*
X138770000Y-67614380D01*
X138531904Y-67614380D01*
X139960476Y-66614380D02*
X139770000Y-66614380D01*
X139674761Y-66662000D01*
X139627142Y-66709619D01*
X139531904Y-66852476D01*
X139484285Y-67042952D01*
X139484285Y-67423904D01*
X139531904Y-67519142D01*
X139579523Y-67566761D01*
X139674761Y-67614380D01*
X139865238Y-67614380D01*
X139960476Y-67566761D01*
X140008095Y-67519142D01*
X140055714Y-67423904D01*
X140055714Y-67185809D01*
X140008095Y-67090571D01*
X139960476Y-67042952D01*
X139865238Y-66995333D01*
X139674761Y-66995333D01*
X139579523Y-67042952D01*
X139531904Y-67090571D01*
X139484285Y-67185809D01*
X128761904Y-67614380D02*
X128761904Y-66614380D01*
X129000000Y-66614380D01*
X129142857Y-66662000D01*
X129238095Y-66757238D01*
X129285714Y-66852476D01*
X129333333Y-67042952D01*
X129333333Y-67185809D01*
X129285714Y-67376285D01*
X129238095Y-67471523D01*
X129142857Y-67566761D01*
X129000000Y-67614380D01*
X128761904Y-67614380D01*
X129666666Y-66614380D02*
X130333333Y-66614380D01*
X129904761Y-67614380D01*
X119761904Y-67614380D02*
X119761904Y-66614380D01*
X120000000Y-66614380D01*
X120142857Y-66662000D01*
X120238095Y-66757238D01*
X120285714Y-66852476D01*
X120333333Y-67042952D01*
X120333333Y-67185809D01*
X120285714Y-67376285D01*
X120238095Y-67471523D01*
X120142857Y-67566761D01*
X120000000Y-67614380D01*
X119761904Y-67614380D01*
X120904761Y-67042952D02*
X120809523Y-66995333D01*
X120761904Y-66947714D01*
X120714285Y-66852476D01*
X120714285Y-66804857D01*
X120761904Y-66709619D01*
X120809523Y-66662000D01*
X120904761Y-66614380D01*
X121095238Y-66614380D01*
X121190476Y-66662000D01*
X121238095Y-66709619D01*
X121285714Y-66804857D01*
X121285714Y-66852476D01*
X121238095Y-66947714D01*
X121190476Y-66995333D01*
X121095238Y-67042952D01*
X120904761Y-67042952D01*
X120809523Y-67090571D01*
X120761904Y-67138190D01*
X120714285Y-67233428D01*
X120714285Y-67423904D01*
X120761904Y-67519142D01*
X120809523Y-67566761D01*
X120904761Y-67614380D01*
X121095238Y-67614380D01*
X121190476Y-67566761D01*
X121238095Y-67519142D01*
X121285714Y-67423904D01*
X121285714Y-67233428D01*
X121238095Y-67138190D01*
X121190476Y-67090571D01*
X121095238Y-67042952D01*
X81438095Y-68474380D02*
X81438095Y-69283904D01*
X81485714Y-69379142D01*
X81533333Y-69426761D01*
X81628571Y-69474380D01*
X81819047Y-69474380D01*
X81914285Y-69426761D01*
X81961904Y-69379142D01*
X82009523Y-69283904D01*
X82009523Y-68474380D01*
X83009523Y-69474380D02*
X82438095Y-69474380D01*
X82723809Y-69474380D02*
X82723809Y-68474380D01*
X82628571Y-68617238D01*
X82533333Y-68712476D01*
X82438095Y-68760095D01*
X83833333Y-66357142D02*
X83785714Y-66404761D01*
X83642857Y-66452380D01*
X83547619Y-66452380D01*
X83404761Y-66404761D01*
X83309523Y-66309523D01*
X83261904Y-66214285D01*
X83214285Y-66023809D01*
X83214285Y-65880952D01*
X83261904Y-65690476D01*
X83309523Y-65595238D01*
X83404761Y-65500000D01*
X83547619Y-65452380D01*
X83642857Y-65452380D01*
X83785714Y-65500000D01*
X83833333Y-65547619D01*
X84785714Y-66452380D02*
X84214285Y-66452380D01*
X84500000Y-66452380D02*
X84500000Y-65452380D01*
X84404761Y-65595238D01*
X84309523Y-65690476D01*
X84214285Y-65738095D01*
X192333333Y-47957142D02*
X192285714Y-48004761D01*
X192142857Y-48052380D01*
X192047619Y-48052380D01*
X191904761Y-48004761D01*
X191809523Y-47909523D01*
X191761904Y-47814285D01*
X191714285Y-47623809D01*
X191714285Y-47480952D01*
X191761904Y-47290476D01*
X191809523Y-47195238D01*
X191904761Y-47100000D01*
X192047619Y-47052380D01*
X192142857Y-47052380D01*
X192285714Y-47100000D01*
X192333333Y-47147619D01*
X193285714Y-48052380D02*
X192714285Y-48052380D01*
X193000000Y-48052380D02*
X193000000Y-47052380D01*
X192904761Y-47195238D01*
X192809523Y-47290476D01*
X192714285Y-47338095D01*
X92261904Y-57134380D02*
X92261904Y-56134380D01*
X92500000Y-56134380D01*
X92642857Y-56182000D01*
X92738095Y-56277238D01*
X92785714Y-56372476D01*
X92833333Y-56562952D01*
X92833333Y-56705809D01*
X92785714Y-56896285D01*
X92738095Y-56991523D01*
X92642857Y-57086761D01*
X92500000Y-57134380D01*
X92261904Y-57134380D01*
X93309523Y-57134380D02*
X93500000Y-57134380D01*
X93595238Y-57086761D01*
X93642857Y-57039142D01*
X93738095Y-56896285D01*
X93785714Y-56705809D01*
X93785714Y-56324857D01*
X93738095Y-56229619D01*
X93690476Y-56182000D01*
X93595238Y-56134380D01*
X93404761Y-56134380D01*
X93309523Y-56182000D01*
X93261904Y-56229619D01*
X93214285Y-56324857D01*
X93214285Y-56562952D01*
X93261904Y-56658190D01*
X93309523Y-56705809D01*
X93404761Y-56753428D01*
X93595238Y-56753428D01*
X93690476Y-56705809D01*
X93738095Y-56658190D01*
X93785714Y-56562952D01*
X100785714Y-57134380D02*
X100785714Y-56134380D01*
X101023809Y-56134380D01*
X101166666Y-56182000D01*
X101261904Y-56277238D01*
X101309523Y-56372476D01*
X101357142Y-56562952D01*
X101357142Y-56705809D01*
X101309523Y-56896285D01*
X101261904Y-56991523D01*
X101166666Y-57086761D01*
X101023809Y-57134380D01*
X100785714Y-57134380D01*
X102309523Y-57134380D02*
X101738095Y-57134380D01*
X102023809Y-57134380D02*
X102023809Y-56134380D01*
X101928571Y-56277238D01*
X101833333Y-56372476D01*
X101738095Y-56420095D01*
X102928571Y-56134380D02*
X103023809Y-56134380D01*
X103119047Y-56182000D01*
X103166666Y-56229619D01*
X103214285Y-56324857D01*
X103261904Y-56515333D01*
X103261904Y-56753428D01*
X103214285Y-56943904D01*
X103166666Y-57039142D01*
X103119047Y-57086761D01*
X103023809Y-57134380D01*
X102928571Y-57134380D01*
X102833333Y-57086761D01*
X102785714Y-57039142D01*
X102738095Y-56943904D01*
X102690476Y-56753428D01*
X102690476Y-56515333D01*
X102738095Y-56324857D01*
X102785714Y-56229619D01*
X102833333Y-56182000D01*
X102928571Y-56134380D01*
X109785714Y-57134380D02*
X109785714Y-56134380D01*
X110023809Y-56134380D01*
X110166666Y-56182000D01*
X110261904Y-56277238D01*
X110309523Y-56372476D01*
X110357142Y-56562952D01*
X110357142Y-56705809D01*
X110309523Y-56896285D01*
X110261904Y-56991523D01*
X110166666Y-57086761D01*
X110023809Y-57134380D01*
X109785714Y-57134380D01*
X111309523Y-57134380D02*
X110738095Y-57134380D01*
X111023809Y-57134380D02*
X111023809Y-56134380D01*
X110928571Y-56277238D01*
X110833333Y-56372476D01*
X110738095Y-56420095D01*
X112261904Y-57134380D02*
X111690476Y-57134380D01*
X111976190Y-57134380D02*
X111976190Y-56134380D01*
X111880952Y-56277238D01*
X111785714Y-56372476D01*
X111690476Y-56420095D01*
X118785714Y-57134380D02*
X118785714Y-56134380D01*
X119023809Y-56134380D01*
X119166666Y-56182000D01*
X119261904Y-56277238D01*
X119309523Y-56372476D01*
X119357142Y-56562952D01*
X119357142Y-56705809D01*
X119309523Y-56896285D01*
X119261904Y-56991523D01*
X119166666Y-57086761D01*
X119023809Y-57134380D01*
X118785714Y-57134380D01*
X120309523Y-57134380D02*
X119738095Y-57134380D01*
X120023809Y-57134380D02*
X120023809Y-56134380D01*
X119928571Y-56277238D01*
X119833333Y-56372476D01*
X119738095Y-56420095D01*
X120690476Y-56229619D02*
X120738095Y-56182000D01*
X120833333Y-56134380D01*
X121071428Y-56134380D01*
X121166666Y-56182000D01*
X121214285Y-56229619D01*
X121261904Y-56324857D01*
X121261904Y-56420095D01*
X121214285Y-56562952D01*
X120642857Y-57134380D01*
X121261904Y-57134380D01*
X127785714Y-57134380D02*
X127785714Y-56134380D01*
X128023809Y-56134380D01*
X128166666Y-56182000D01*
X128261904Y-56277238D01*
X128309523Y-56372476D01*
X128357142Y-56562952D01*
X128357142Y-56705809D01*
X128309523Y-56896285D01*
X128261904Y-56991523D01*
X128166666Y-57086761D01*
X128023809Y-57134380D01*
X127785714Y-57134380D01*
X129309523Y-57134380D02*
X128738095Y-57134380D01*
X129023809Y-57134380D02*
X129023809Y-56134380D01*
X128928571Y-56277238D01*
X128833333Y-56372476D01*
X128738095Y-56420095D01*
X129642857Y-56134380D02*
X130261904Y-56134380D01*
X129928571Y-56515333D01*
X130071428Y-56515333D01*
X130166666Y-56562952D01*
X130214285Y-56610571D01*
X130261904Y-56705809D01*
X130261904Y-56943904D01*
X130214285Y-57039142D01*
X130166666Y-57086761D01*
X130071428Y-57134380D01*
X129785714Y-57134380D01*
X129690476Y-57086761D01*
X129642857Y-57039142D01*
X136015714Y-57134380D02*
X136015714Y-56134380D01*
X136253809Y-56134380D01*
X136396666Y-56182000D01*
X136491904Y-56277238D01*
X136539523Y-56372476D01*
X136587142Y-56562952D01*
X136587142Y-56705809D01*
X136539523Y-56896285D01*
X136491904Y-56991523D01*
X136396666Y-57086761D01*
X136253809Y-57134380D01*
X136015714Y-57134380D01*
X137539523Y-57134380D02*
X136968095Y-57134380D01*
X137253809Y-57134380D02*
X137253809Y-56134380D01*
X137158571Y-56277238D01*
X137063333Y-56372476D01*
X136968095Y-56420095D01*
X138396666Y-56467714D02*
X138396666Y-57134380D01*
X138158571Y-56086761D02*
X137920476Y-56801047D01*
X138539523Y-56801047D01*
X145785714Y-57134380D02*
X145785714Y-56134380D01*
X146023809Y-56134380D01*
X146166666Y-56182000D01*
X146261904Y-56277238D01*
X146309523Y-56372476D01*
X146357142Y-56562952D01*
X146357142Y-56705809D01*
X146309523Y-56896285D01*
X146261904Y-56991523D01*
X146166666Y-57086761D01*
X146023809Y-57134380D01*
X145785714Y-57134380D01*
X147309523Y-57134380D02*
X146738095Y-57134380D01*
X147023809Y-57134380D02*
X147023809Y-56134380D01*
X146928571Y-56277238D01*
X146833333Y-56372476D01*
X146738095Y-56420095D01*
X148214285Y-56134380D02*
X147738095Y-56134380D01*
X147690476Y-56610571D01*
X147738095Y-56562952D01*
X147833333Y-56515333D01*
X148071428Y-56515333D01*
X148166666Y-56562952D01*
X148214285Y-56610571D01*
X148261904Y-56705809D01*
X148261904Y-56943904D01*
X148214285Y-57039142D01*
X148166666Y-57086761D01*
X148071428Y-57134380D01*
X147833333Y-57134380D01*
X147738095Y-57086761D01*
X147690476Y-57039142D01*
X154785714Y-57134380D02*
X154785714Y-56134380D01*
X155023809Y-56134380D01*
X155166666Y-56182000D01*
X155261904Y-56277238D01*
X155309523Y-56372476D01*
X155357142Y-56562952D01*
X155357142Y-56705809D01*
X155309523Y-56896285D01*
X155261904Y-56991523D01*
X155166666Y-57086761D01*
X155023809Y-57134380D01*
X154785714Y-57134380D01*
X156309523Y-57134380D02*
X155738095Y-57134380D01*
X156023809Y-57134380D02*
X156023809Y-56134380D01*
X155928571Y-56277238D01*
X155833333Y-56372476D01*
X155738095Y-56420095D01*
X157166666Y-56134380D02*
X156976190Y-56134380D01*
X156880952Y-56182000D01*
X156833333Y-56229619D01*
X156738095Y-56372476D01*
X156690476Y-56562952D01*
X156690476Y-56943904D01*
X156738095Y-57039142D01*
X156785714Y-57086761D01*
X156880952Y-57134380D01*
X157071428Y-57134380D01*
X157166666Y-57086761D01*
X157214285Y-57039142D01*
X157261904Y-56943904D01*
X157261904Y-56705809D01*
X157214285Y-56610571D01*
X157166666Y-56562952D01*
X157071428Y-56515333D01*
X156880952Y-56515333D01*
X156785714Y-56562952D01*
X156738095Y-56610571D01*
X156690476Y-56705809D01*
X193738095Y-50074380D02*
X193738095Y-50883904D01*
X193785714Y-50979142D01*
X193833333Y-51026761D01*
X193928571Y-51074380D01*
X194119047Y-51074380D01*
X194214285Y-51026761D01*
X194261904Y-50979142D01*
X194309523Y-50883904D01*
X194309523Y-50074380D01*
X195309523Y-51074380D02*
X194738095Y-51074380D01*
X195023809Y-51074380D02*
X195023809Y-50074380D01*
X194928571Y-50217238D01*
X194833333Y-50312476D01*
X194738095Y-50360095D01*
M02*
