G04 #@! TF.GenerationSoftware,KiCad,Pcbnew,(5.1.6-0-10_14)*
G04 #@! TF.CreationDate,2021-06-30T10:39:40+09:00*
G04 #@! TF.ProjectId,qPCR-photodiode,71504352-2d70-4686-9f74-6f64696f6465,rev?*
G04 #@! TF.SameCoordinates,Original*
G04 #@! TF.FileFunction,Profile,NP*
%FSLAX46Y46*%
G04 Gerber Fmt 4.6, Leading zero omitted, Abs format (unit mm)*
G04 Created by KiCad (PCBNEW (5.1.6-0-10_14)) date 2021-06-30 10:39:40*
%MOMM*%
%LPD*%
G01*
G04 APERTURE LIST*
G04 #@! TA.AperFunction,Profile*
%ADD10C,0.100000*%
G04 #@! TD*
G04 APERTURE END LIST*
D10*
X173975000Y-75500000D02*
G75*
G03*
X173975000Y-75500000I-475000J0D01*
G01*
X101975000Y-74000000D02*
G75*
G03*
X101975000Y-74000000I-475000J0D01*
G01*
X101975000Y-126000000D02*
G75*
G03*
X101975000Y-126000000I-475000J0D01*
G01*
X174975000Y-127000000D02*
G75*
G03*
X174975000Y-127000000I-475000J0D01*
G01*
X92000000Y-103500000D02*
X92000000Y-106000000D01*
X92000000Y-106000000D02*
G75*
G02*
X91500000Y-106500000I-500000J0D01*
G01*
X85500000Y-106500000D02*
G75*
G02*
X85000000Y-106000000I0J500000D01*
G01*
X85000000Y-103500000D02*
G75*
G02*
X85500000Y-103000000I500000J0D01*
G01*
X85000000Y-103500000D02*
X85000000Y-106000000D01*
X85500000Y-106500000D02*
X91500000Y-106500000D01*
X85500000Y-103000000D02*
X91500000Y-103000000D01*
X91500000Y-103000000D02*
G75*
G02*
X92000000Y-103500000I0J-500000D01*
G01*
X85500000Y-101000000D02*
X91500000Y-101000000D01*
X85500000Y-101000000D02*
G75*
G02*
X85000000Y-100500000I0J500000D01*
G01*
X92000000Y-100500000D02*
G75*
G02*
X91500000Y-101000000I-500000J0D01*
G01*
X92000000Y-98000000D02*
X92000000Y-100500000D01*
X85000000Y-98000000D02*
X85000000Y-100500000D01*
X85000000Y-98000000D02*
G75*
G02*
X85500000Y-97500000I500000J0D01*
G01*
X91500000Y-97500000D02*
G75*
G02*
X92000000Y-98000000I0J-500000D01*
G01*
X85500000Y-97500000D02*
X91500000Y-97500000D01*
X140600000Y-112500000D02*
X140600000Y-118500000D01*
X135600000Y-112500000D02*
X135600000Y-118500000D01*
X140100000Y-119000000D02*
X136100000Y-119000000D01*
X136100000Y-119000000D02*
G75*
G02*
X135600000Y-118500000I0J500000D01*
G01*
X140600000Y-118500000D02*
G75*
G02*
X140100000Y-119000000I-500000J0D01*
G01*
X136100000Y-112000000D02*
X140100000Y-112000000D01*
X140100000Y-112000000D02*
G75*
G02*
X140600000Y-112500000I0J-500000D01*
G01*
X135600000Y-112500000D02*
G75*
G02*
X136100000Y-112000000I500000J0D01*
G01*
X135600000Y-81500000D02*
X135600000Y-87500000D01*
X140600000Y-81500000D02*
X140600000Y-87500000D01*
X136100000Y-81000000D02*
X140100000Y-81000000D01*
X140100000Y-81000000D02*
G75*
G02*
X140600000Y-81500000I0J-500000D01*
G01*
X135600000Y-81500000D02*
G75*
G02*
X136100000Y-81000000I500000J0D01*
G01*
X136100000Y-88000000D02*
G75*
G02*
X135600000Y-87500000I0J500000D01*
G01*
X140600000Y-87500000D02*
G75*
G02*
X140100000Y-88000000I-500000J0D01*
G01*
X140100000Y-88000000D02*
X136100000Y-88000000D01*
X121600950Y-80001749D02*
X111600950Y-80001749D01*
X111600950Y-86101749D02*
X121600950Y-86101749D01*
X83000000Y-77500000D02*
G75*
G02*
X83500000Y-77000000I500000J0D01*
G01*
X154600950Y-86101749D02*
X164600950Y-86101749D01*
X154600950Y-86101750D02*
G75*
G02*
X154247396Y-85248195I0J500001D01*
G01*
X154600950Y-84894642D02*
X154247396Y-85248195D01*
X154600950Y-81208855D02*
X154600950Y-84894642D01*
X154247396Y-80855302D02*
X154600950Y-81208855D01*
X154247397Y-80855302D02*
G75*
G02*
X154600950Y-80001749I353553J353553D01*
G01*
X135585950Y-72501750D02*
G75*
G02*
X136439503Y-72148195I500000J1D01*
G01*
X136793056Y-72501749D02*
X136439503Y-72148195D01*
X167585950Y-74101750D02*
G75*
G02*
X166732396Y-74455302I-500000J1D01*
G01*
X166732397Y-72148196D02*
G75*
G02*
X167585950Y-72501749I353553J-353553D01*
G01*
X166732396Y-72148195D02*
X166378843Y-72501749D01*
X166378843Y-74101749D02*
X166732396Y-74455302D01*
X126732397Y-72148196D02*
G75*
G02*
X127585950Y-72501749I353553J-353553D01*
G01*
X127585950Y-74101749D02*
X127585950Y-72501749D01*
X166378843Y-72501749D02*
X163793056Y-72501749D01*
X112378843Y-74101749D02*
X112732396Y-74455302D01*
X109793056Y-74101749D02*
X112378843Y-74101749D01*
X109439503Y-74455302D02*
X109793056Y-74101749D01*
X162585950Y-72501750D02*
G75*
G02*
X163439503Y-72148195I500000J1D01*
G01*
X163793056Y-72501749D02*
X163439503Y-72148195D01*
X167585950Y-74101749D02*
X167585950Y-72501749D01*
X112732397Y-72148196D02*
G75*
G02*
X113585950Y-72501749I353553J-353553D01*
G01*
X113585950Y-74101749D02*
X113585950Y-72501749D01*
X113585950Y-74101750D02*
G75*
G02*
X112732396Y-74455302I-500000J1D01*
G01*
X126378843Y-72501749D02*
X122793056Y-72501749D01*
X126732396Y-72148195D02*
X126378843Y-72501749D01*
X164600950Y-80001750D02*
G75*
G02*
X164954503Y-80855302I0J-499999D01*
G01*
X164600950Y-81208855D02*
X164954503Y-80855302D01*
X122793056Y-74101749D02*
X126378843Y-74101749D01*
X122439503Y-74455302D02*
X122793056Y-74101749D01*
X109793056Y-72501749D02*
X109439503Y-72148195D01*
X112378843Y-72501749D02*
X109793056Y-72501749D01*
X112732396Y-72148195D02*
X112378843Y-72501749D01*
X121954503Y-85248195D02*
X121600950Y-84894642D01*
X121954503Y-85248196D02*
G75*
G02*
X121600950Y-86101749I-353553J-353553D01*
G01*
X149439503Y-74455302D02*
G75*
G02*
X148585950Y-74101749I-353553J353553D01*
G01*
X108585950Y-72501750D02*
G75*
G02*
X109439503Y-72148195I500000J1D01*
G01*
X164600950Y-84894642D02*
X164600950Y-81208855D01*
X164954503Y-85248195D02*
X164600950Y-84894642D01*
X164954503Y-85248196D02*
G75*
G02*
X164600950Y-86101749I-353553J-353553D01*
G01*
X163439503Y-74455302D02*
G75*
G02*
X162585950Y-74101749I-353553J353553D01*
G01*
X121600950Y-80001750D02*
G75*
G02*
X121954503Y-80855302I0J-499999D01*
G01*
X121600950Y-81208855D02*
X121954503Y-80855302D01*
X121600950Y-84894642D02*
X121600950Y-81208855D01*
X162585950Y-72501749D02*
X162585950Y-74101749D01*
X109439503Y-74455302D02*
G75*
G02*
X108585950Y-74101749I-353553J353553D01*
G01*
X108585950Y-72501749D02*
X108585950Y-74101749D01*
X153732397Y-72148196D02*
G75*
G02*
X154585950Y-72501749I353553J-353553D01*
G01*
X154585950Y-74101750D02*
G75*
G02*
X153732396Y-74455302I-500000J1D01*
G01*
X153732396Y-72148195D02*
X153378843Y-72501749D01*
X163439503Y-74455302D02*
X163793056Y-74101749D01*
X140585950Y-74101750D02*
G75*
G02*
X139732396Y-74455302I-500000J1D01*
G01*
X139378843Y-74101749D02*
X139732396Y-74455302D01*
X136793056Y-74101749D02*
X139378843Y-74101749D01*
X136439503Y-74455302D02*
X136793056Y-74101749D01*
X122439503Y-74455302D02*
G75*
G02*
X121585950Y-74101749I-353553J353553D01*
G01*
X121585950Y-72501749D02*
X121585950Y-74101749D01*
X148585950Y-72501749D02*
X148585950Y-74101749D01*
X139378843Y-72501749D02*
X136793056Y-72501749D01*
X139732396Y-72148195D02*
X139378843Y-72501749D01*
X121585950Y-72501750D02*
G75*
G02*
X122439503Y-72148195I500000J1D01*
G01*
X122793056Y-72501749D02*
X122439503Y-72148195D01*
X136439503Y-74455302D02*
G75*
G02*
X135585950Y-74101749I-353553J353553D01*
G01*
X135585950Y-72501749D02*
X135585950Y-74101749D01*
X163793056Y-74101749D02*
X166378843Y-74101749D01*
X149439503Y-74455302D02*
X149793056Y-74101749D01*
X153378843Y-74101749D02*
X153732396Y-74455302D01*
X153378843Y-72501749D02*
X149793056Y-72501749D01*
X149793056Y-74101749D02*
X153378843Y-74101749D01*
X154585950Y-74101749D02*
X154585950Y-72501749D01*
X127585950Y-74101750D02*
G75*
G02*
X126732396Y-74455302I-500000J1D01*
G01*
X126378843Y-74101749D02*
X126732396Y-74455302D01*
X149793056Y-72501749D02*
X149439503Y-72148195D01*
X111247396Y-80855302D02*
X111600950Y-81208855D01*
X111247397Y-80855302D02*
G75*
G02*
X111600950Y-80001749I353553J353553D01*
G01*
X139732397Y-72148196D02*
G75*
G02*
X140585950Y-72501749I353553J-353553D01*
G01*
X140585950Y-74101749D02*
X140585950Y-72501749D01*
X148585950Y-72501750D02*
G75*
G02*
X149439503Y-72148195I500000J1D01*
G01*
X164600950Y-80001749D02*
X154600950Y-80001749D01*
X111600950Y-86101750D02*
G75*
G02*
X111247396Y-85248195I0J500001D01*
G01*
X111600950Y-84894642D02*
X111247396Y-85248195D01*
X111600950Y-81208855D02*
X111600950Y-84894642D01*
X154600950Y-113898251D02*
X164600950Y-113898251D01*
X154600950Y-113898250D02*
G75*
G03*
X154247396Y-114751805I0J-500001D01*
G01*
X154600950Y-115105358D02*
X154247396Y-114751805D01*
X154600950Y-118791145D02*
X154600950Y-115105358D01*
X154247396Y-119144698D02*
X154600950Y-118791145D01*
X154247397Y-119144698D02*
G75*
G03*
X154600950Y-119998251I353553J-353553D01*
G01*
X135585950Y-127498250D02*
G75*
G03*
X136439503Y-127851805I500000J-1D01*
G01*
X136793056Y-127498251D02*
X136439503Y-127851805D01*
X167585950Y-125898250D02*
G75*
G03*
X166732396Y-125544698I-500000J-1D01*
G01*
X166732397Y-127851804D02*
G75*
G03*
X167585950Y-127498251I353553J353553D01*
G01*
X166732396Y-127851805D02*
X166378843Y-127498251D01*
X166378843Y-125898251D02*
X166732396Y-125544698D01*
X126732397Y-127851804D02*
G75*
G03*
X127585950Y-127498251I353553J353553D01*
G01*
X127585950Y-125898251D02*
X127585950Y-127498251D01*
X166378843Y-127498251D02*
X163793056Y-127498251D01*
X112378843Y-125898251D02*
X112732396Y-125544698D01*
X109793056Y-125898251D02*
X112378843Y-125898251D01*
X109439503Y-125544698D02*
X109793056Y-125898251D01*
X162585950Y-127498250D02*
G75*
G03*
X163439503Y-127851805I500000J-1D01*
G01*
X163793056Y-127498251D02*
X163439503Y-127851805D01*
X167585950Y-125898251D02*
X167585950Y-127498251D01*
X112732397Y-127851804D02*
G75*
G03*
X113585950Y-127498251I353553J353553D01*
G01*
X113585950Y-125898251D02*
X113585950Y-127498251D01*
X113585950Y-125898250D02*
G75*
G03*
X112732396Y-125544698I-500000J-1D01*
G01*
X126378843Y-127498251D02*
X122793056Y-127498251D01*
X126732396Y-127851805D02*
X126378843Y-127498251D01*
X164600950Y-119998250D02*
G75*
G03*
X164954503Y-119144698I0J499999D01*
G01*
X164600950Y-118791145D02*
X164954503Y-119144698D01*
X122793056Y-125898251D02*
X126378843Y-125898251D01*
X122439503Y-125544698D02*
X122793056Y-125898251D01*
X109793056Y-127498251D02*
X109439503Y-127851805D01*
X112378843Y-127498251D02*
X109793056Y-127498251D01*
X112732396Y-127851805D02*
X112378843Y-127498251D01*
X121954503Y-114751805D02*
X121600950Y-115105358D01*
X121954503Y-114751804D02*
G75*
G03*
X121600950Y-113898251I-353553J353553D01*
G01*
X111600950Y-113898251D02*
X121600950Y-113898251D01*
X149439503Y-125544698D02*
G75*
G03*
X148585950Y-125898251I-353553J-353553D01*
G01*
X108585950Y-127498250D02*
G75*
G03*
X109439503Y-127851805I500000J-1D01*
G01*
X164600950Y-115105358D02*
X164600950Y-118791145D01*
X164954503Y-114751805D02*
X164600950Y-115105358D01*
X164954503Y-114751804D02*
G75*
G03*
X164600950Y-113898251I-353553J353553D01*
G01*
X163439503Y-125544698D02*
G75*
G03*
X162585950Y-125898251I-353553J-353553D01*
G01*
X121600950Y-119998250D02*
G75*
G03*
X121954503Y-119144698I0J499999D01*
G01*
X121600950Y-118791145D02*
X121954503Y-119144698D01*
X121600950Y-115105358D02*
X121600950Y-118791145D01*
X162585950Y-127498251D02*
X162585950Y-125898251D01*
X109439503Y-125544698D02*
G75*
G03*
X108585950Y-125898251I-353553J-353553D01*
G01*
X108585950Y-127498251D02*
X108585950Y-125898251D01*
X153732397Y-127851804D02*
G75*
G03*
X154585950Y-127498251I353553J353553D01*
G01*
X154585950Y-125898250D02*
G75*
G03*
X153732396Y-125544698I-500000J-1D01*
G01*
X153732396Y-127851805D02*
X153378843Y-127498251D01*
X163439503Y-125544698D02*
X163793056Y-125898251D01*
X140585950Y-125898250D02*
G75*
G03*
X139732396Y-125544698I-500000J-1D01*
G01*
X139378843Y-125898251D02*
X139732396Y-125544698D01*
X136793056Y-125898251D02*
X139378843Y-125898251D01*
X136439503Y-125544698D02*
X136793056Y-125898251D01*
X122439503Y-125544698D02*
G75*
G03*
X121585950Y-125898251I-353553J-353553D01*
G01*
X121585950Y-127498251D02*
X121585950Y-125898251D01*
X148585950Y-127498251D02*
X148585950Y-125898251D01*
X139378843Y-127498251D02*
X136793056Y-127498251D01*
X139732396Y-127851805D02*
X139378843Y-127498251D01*
X121585950Y-127498250D02*
G75*
G03*
X122439503Y-127851805I500000J-1D01*
G01*
X122793056Y-127498251D02*
X122439503Y-127851805D01*
X136439503Y-125544698D02*
G75*
G03*
X135585950Y-125898251I-353553J-353553D01*
G01*
X135585950Y-127498251D02*
X135585950Y-125898251D01*
X163793056Y-125898251D02*
X166378843Y-125898251D01*
X149439503Y-125544698D02*
X149793056Y-125898251D01*
X153378843Y-125898251D02*
X153732396Y-125544698D01*
X153378843Y-127498251D02*
X149793056Y-127498251D01*
X149793056Y-125898251D02*
X153378843Y-125898251D01*
X154585950Y-125898251D02*
X154585950Y-127498251D01*
X127585950Y-125898250D02*
G75*
G03*
X126732396Y-125544698I-500000J-1D01*
G01*
X126378843Y-125898251D02*
X126732396Y-125544698D01*
X149793056Y-127498251D02*
X149439503Y-127851805D01*
X111247396Y-119144698D02*
X111600950Y-118791145D01*
X111247397Y-119144698D02*
G75*
G03*
X111600950Y-119998251I353553J-353553D01*
G01*
X121600950Y-119998251D02*
X111600950Y-119998251D01*
X139732397Y-127851804D02*
G75*
G03*
X140585950Y-127498251I353553J353553D01*
G01*
X140585950Y-125898251D02*
X140585950Y-127498251D01*
X148585950Y-127498250D02*
G75*
G03*
X149439503Y-127851805I500000J-1D01*
G01*
X164600950Y-119998251D02*
X154600950Y-119998251D01*
X111600950Y-113898250D02*
G75*
G03*
X111247396Y-114751805I0J-500001D01*
G01*
X111600950Y-115105358D02*
X111247396Y-114751805D01*
X111600950Y-118791145D02*
X111600950Y-115105358D01*
X181700000Y-109500000D02*
G75*
G02*
X178200000Y-113000000I-3500000J0D01*
G01*
X176200000Y-113000000D02*
X178200000Y-113000000D01*
X176200000Y-113000000D02*
G75*
G02*
X172700000Y-109500000I0J3500000D01*
G01*
X100000000Y-113000000D02*
G75*
G03*
X103500000Y-109500000I0J3500000D01*
G01*
X94500000Y-109500000D02*
G75*
G03*
X98000000Y-113000000I3500000J0D01*
G01*
X172700000Y-106000000D02*
X103500000Y-106000000D01*
X100000000Y-113000000D02*
X98000000Y-113000000D01*
X172700000Y-109500000D02*
X172700000Y-106000000D01*
X103500000Y-106000000D02*
X103500000Y-109500000D01*
X100000000Y-87000000D02*
G75*
G02*
X103500000Y-90500000I0J-3500000D01*
G01*
X181700000Y-109500000D02*
X181700000Y-90500000D01*
X172700000Y-90500000D02*
G75*
G02*
X176200000Y-87000000I3500000J0D01*
G01*
X176200000Y-87000000D02*
X178200000Y-87000000D01*
X178200000Y-87000000D02*
G75*
G02*
X181700000Y-90500000I0J-3500000D01*
G01*
X94500000Y-90500000D02*
G75*
G02*
X98000000Y-87000000I3500000J0D01*
G01*
X172700000Y-94000000D02*
X103500000Y-94000000D01*
X94500000Y-90500000D02*
X94500000Y-109500000D01*
X100000000Y-87000000D02*
X98000000Y-87000000D01*
X172700000Y-90500000D02*
X172700000Y-94000000D01*
X103500000Y-94000000D02*
X103500000Y-90500000D01*
X181300000Y-82000000D02*
G75*
G03*
X181300000Y-82000000I-1600000J0D01*
G01*
X98100000Y-82000000D02*
G75*
G03*
X98100000Y-82000000I-1600000J0D01*
G01*
X98100000Y-118000000D02*
G75*
G03*
X98100000Y-118000000I-1600000J0D01*
G01*
X181300000Y-118000000D02*
G75*
G03*
X181300000Y-118000000I-1600000J0D01*
G01*
X99500000Y-76500000D02*
G75*
G02*
X99000000Y-77000000I-500000J0D01*
G01*
X99500000Y-71500000D02*
G75*
G02*
X100000000Y-71000000I500000J0D01*
G01*
X182500000Y-71000000D02*
G75*
G02*
X183000000Y-71500000I0J-500000D01*
G01*
X183000000Y-128500000D02*
G75*
G02*
X182500000Y-129000000I-500000J0D01*
G01*
X100000000Y-129000000D02*
G75*
G02*
X99500000Y-128500000I0J500000D01*
G01*
X99000000Y-123000000D02*
G75*
G02*
X99500000Y-123500000I0J-500000D01*
G01*
X83500000Y-123000000D02*
G75*
G02*
X83000000Y-122500000I0J500000D01*
G01*
X99500000Y-123500000D02*
X99500000Y-128500000D01*
X83500000Y-123000000D02*
X99000000Y-123000000D01*
X100000000Y-129000000D02*
X182500000Y-129000000D01*
X99500000Y-76500000D02*
X99500000Y-71500000D01*
X83500000Y-77000000D02*
X99000000Y-77000000D01*
X83000000Y-77500000D02*
X83000000Y-122500000D01*
X183000000Y-71500000D02*
X183000000Y-128500000D01*
X100000000Y-71000000D02*
X182500000Y-71000000D01*
M02*
