M48
; DRILL file {KiCad (5.1.6-0-10_14)} date Thursday, January 07, 2021 at 07:03:07 PM
; FORMAT={-:-/ absolute / inch / decimal}
; #@! TF.CreationDate,2021-01-07T19:03:07+09:00
; #@! TF.GenerationSoftware,Kicad,Pcbnew,(5.1.6-0-10_14)
FMAT,2
INCH
T1C0.0157
T2C0.0394
%
G90
G05
T1
X3.2913Y-3.0043
X3.2917Y-2.8701
X3.2949Y-3.3461
X3.2984Y-3.452
X3.2992Y-3.222
X3.3012Y-3.5614
X3.3024Y-2.4945
X3.3039Y-3.7161
X3.3051Y-3.1055
X3.3067Y-3.9657
X3.3067Y-4.222
X3.3071Y-2.6118
X3.3079Y-4.0768
X3.3087Y-2.7327
X3.3091Y-3.8528
X3.3091Y-4.3327
X3.3504Y-4.3799
X3.3551Y-3.6343
X3.3571Y-4.1185
X3.3571Y-4.2787
X3.3638Y-3.9961
X3.3638Y-4.1764
X3.3673Y-3.9024
X3.3693Y-3.8024
X3.372Y-2.5583
X3.372Y-3.7071
X3.4Y-2.6118
X3.4213Y-2.4957
X3.4362Y-2.7024
X3.4768Y-2.8106
X3.4768Y-2.8965
X3.4827Y-2.963
X3.4846Y-3.428
X3.4862Y-3.361
X3.4874Y-3.6768
X3.4913Y-3.5457
X3.4996Y-2.5343
X3.513Y-2.6291
X3.5339Y-3.0665
X3.5358Y-3.4866
X3.5378Y-3.3811
X3.539Y-3.7075
X3.5406Y-3.6031
X3.5472Y-4.1457
X3.5539Y-2.4811
X3.5657Y-4.3772
X3.5854Y-4.328
X3.5917Y-2.5547
X3.5945Y-3.1063
X3.6008Y-4.0457
X3.6031Y-3.9421
X3.6055Y-3.8072
X3.607Y-3.4685
X3.6079Y-3.8437
X3.6094Y-3.7035
X3.6114Y-3.2315
X3.6114Y-3.5193
X3.6122Y-2.826
X3.6161Y-2.9894
X3.626Y-3.6189
X3.6339Y-3.1063
X3.6339Y-3.825
X3.6524Y-4.2055
X3.6535Y-4.0949
X3.6626Y-2.6878
X3.6728Y-3.9028
X3.6728Y-4.0118
X3.6807Y-3.2689
X3.7055Y-3.6366
X3.715Y-4.2654
X3.719Y-3.1117
X3.7228Y-4.3772
X3.7339Y-3.5685
X3.7346Y-4.0941
X3.7366Y-3.9673
X3.737Y-3.8449
X3.7378Y-3.7024
X3.7453Y-3.2575
X3.7598Y-4.1972
X3.7717Y-3.0047
X3.7874Y-3.4921
X3.7945Y-3.1409
X3.8067Y-2.8354
X3.8122Y-3.3598
X3.8157Y-4.3709
X3.8185Y-3.5646
X3.8193Y-3.7055
X3.8201Y-3.9244
X3.8205Y-3.8449
X3.8323Y-2.6118
X3.8346Y-4.0551
X3.8362Y-3.2531
X3.8638Y-3.6173
X3.8776Y-4.2606
X3.8815Y-3.3264
X3.8878Y-3.8638
X3.8921Y-3.1461
X3.9Y-2.9854
X3.9134Y-4.0433
X3.9169Y-4.3724
X3.9349Y-3.7895
X3.9602Y-2.6799
X3.9622Y-4.139
X3.9655Y-3.4528
X3.9764Y-3.2437
X3.9799Y-3.8409
X3.9913Y-3.1232
X3.9929Y-4.1067
X4.0118Y-3.5551
X4.0169Y-4.3705
X4.0209Y-4.2768
X4.0382Y-4.1673
X4.0386Y-3.828
X4.0433Y-3.8807
X4.0457Y-2.8299
X4.0465Y-2.5906
X4.0488Y-4.2232
X4.05Y-3.4319
X4.0866Y-3.874
X4.0874Y-3.4894
X4.0906Y-3.2992
X4.1197Y-3.5453
X4.1248Y-4.3697
X4.126Y-3.7571
X4.128Y-3.8772
X4.1287Y-2.5854
X4.1291Y-3.6803
X4.1311Y-3.8287
X4.1315Y-3.2681
X4.1323Y-2.4988
X4.1583Y-4.2539
X4.1626Y-2.9913
X4.174Y-3.8283
X4.178Y-3.7165
X4.1984Y-2.6878
X4.2165Y-3.4606
X4.2421Y-3.298
X4.2453Y-4.2713
X4.2492Y-4.3717
X4.2559Y-3.8299
X4.263Y-3.7516
X4.2642Y-3.6902
X4.289Y-3.1311
X4.2984Y-2.5878
X4.302Y-2.4996
X4.3102Y-3.989
X4.3106Y-4.1429
X4.3142Y-2.826
X4.3232Y-3.915
X4.3449Y-4.2323
X4.3457Y-4.0756
X4.3484Y-3.6988
X4.3512Y-3.8264
X4.3528Y-3.3035
X4.3965Y-2.6681
X4.4055Y-2.9894
X4.422Y-4.1772
X4.4276Y-3.9535
X4.4496Y-3.7433
X4.461Y-3.4461
X4.4614Y-4.3677
X4.4634Y-3.3516
X4.4669Y-3.6469
X4.4677Y-3.5421
X4.4772Y-2.8453
X4.4862Y-3.2469
X4.4874Y-2.5921
X4.4886Y-2.4965
X4.4929Y-3.8488
X4.4969Y-4.048
X4.4976Y-4.2579
T2
X4.2492Y-4.1087
X4.2492Y-4.2087
X3.4Y-4.2307
X3.4Y-4.3307
X3.5Y-4.2307
X3.5Y-4.3307
X3.4146Y-2.7551
X3.4146Y-2.8551
X3.4146Y-2.9551
X3.4146Y-3.0551
X3.4146Y-3.1551
X3.4146Y-3.2551
X3.4146Y-3.3551
X3.4146Y-3.4551
X3.4146Y-3.5551
X3.4146Y-3.6551
X3.4146Y-3.7551
X3.4146Y-3.8551
X3.4146Y-3.9551
X3.4146Y-4.0551
X4.2929Y-4.3307
X4.3929Y-4.3307
X3.6669Y-4.3307
X3.7669Y-4.3307
X3.8669Y-4.3307
X3.9669Y-4.3307
X4.0669Y-4.3307
X4.1929Y-4.3307
X4.4134Y-3.5953
X4.4134Y-3.6953
X3.6669Y-2.537
X3.7669Y-2.537
X3.8669Y-2.537
X3.9669Y-2.537
X4.0669Y-2.537
X4.4134Y-3.2953
X4.4134Y-3.3953
X4.4134Y-3.4953
X4.2492Y-3.9087
X4.2492Y-4.0087
T0
M30
