M48
; DRILL file {KiCad (5.1.6-0-10_14)} date Friday, August 07, 2020 at 03:51:31 PM
; FORMAT={-:-/ absolute / inch / decimal}
; #@! TF.CreationDate,2020-08-07T15:51:31+09:00
; #@! TF.GenerationSoftware,Kicad,Pcbnew,(5.1.6-0-10_14)
FMAT,2
INCH
T1C0.0157
T2C0.0354
T3C0.0394
%
G90
G05
T1
X4.3701Y-3.8386
X4.3701Y-3.9764
X4.3701Y-4.0945
X4.4488Y-3.8976
X4.4488Y-4.0551
X4.5276Y-3.8386
X4.5276Y-3.9764
X4.5276Y-4.0945
X4.5472Y-4.3701
X4.5866Y-4.0551
X4.626Y-4.3701
X4.6654Y-4.0787
X4.7047Y-4.0945
X4.7244Y-3.9764
X4.7244Y-4.3701
X4.8031Y-4.1732
X4.8031Y-4.2717
X4.8819Y-4.3701
X4.9016Y-4.0945
X4.9803Y-4.3701
X5.0197Y-4.0984
X5.0591Y-4.1142
X5.0787Y-4.3701
X5.1575Y-4.1732
X5.1575Y-4.2717
X5.2362Y-4.3701
X5.2559Y-4.1142
X5.3346Y-4.3701
X5.374Y-4.1142
X5.4134Y-4.1339
X5.4331Y-4.3701
X5.5118Y-4.1732
X5.5118Y-4.2717
X5.5906Y-4.3701
X5.6102Y-4.1339
X5.689Y-4.3701
X5.7283Y-4.1319
X5.7677Y-4.1339
X5.7874Y-4.3701
X5.8661Y-4.1929
X5.8661Y-4.2717
X5.9449Y-4.3701
X5.9843Y-4.1339
X6.0433Y-4.3701
X6.0827Y-4.1496
X6.122Y-4.1535
X6.1417Y-4.3701
X6.2205Y-4.1929
X6.2205Y-4.2717
X6.2992Y-4.3701
X6.3189Y-4.1535
X6.3976Y-4.3701
X6.4961Y-4.3701
X6.5079Y-4.1929
X6.5748Y-4.1732
X6.5748Y-4.2717
X6.6535Y-4.1732
X6.6535Y-4.3701
X6.752Y-4.3701
X6.8504Y-4.2323
X6.8504Y-4.3701
X6.878Y-4.1929
X6.9291Y-4.2717
X7.0079Y-4.1929
X7.0079Y-4.3701
X7.1063Y-4.3701
X7.1378Y-4.1024
X7.185Y-4.122
X7.185Y-4.3701
X7.2047Y-3.8583
X7.2244Y-3.7598
X7.3031Y-3.7992
X7.3425Y-3.7205
X7.3425Y-3.8583
X7.4213Y-3.7795
X7.4606Y-3.8583
X7.4803Y-3.6811
X7.4803Y-4.0748
X7.5197Y-3.7795
X7.5591Y-3.8583
X7.5984Y-3.7598
X7.6496Y-4.0906
X7.6575Y-3.8189
X7.6614Y-3.6614
X7.6929Y-3.8543
X7.7362Y-3.7008
X7.7953Y-3.8386
X7.8031Y-3.7598
X7.874Y-3.7402
X7.9331Y-3.8386
X7.937Y-3.6929
T2
X5.639Y-4.252
X5.739Y-4.252
X6.702Y-4.252
X6.802Y-4.252
X6.3476Y-4.252
X6.4476Y-4.252
X5.2846Y-4.252
X5.3846Y-4.252
X7.0563Y-4.252
X7.1563Y-4.252
X4.9303Y-4.252
X5.0303Y-4.252
X5.9933Y-4.252
X6.0933Y-4.252
X4.576Y-4.252
X4.676Y-4.252
T3
X7.2022Y-3.9157
X7.2022Y-4.0157
X7.3022Y-3.9157
X7.3022Y-4.0157
X7.4022Y-3.9157
X7.4022Y-4.0157
X7.5022Y-3.9157
X7.5022Y-4.0157
X7.6022Y-3.9157
X7.6022Y-4.0157
X7.2022Y-3.522
X7.2022Y-3.622
X7.3022Y-3.522
X7.3022Y-3.622
X7.4022Y-3.522
X7.4022Y-3.622
X7.5022Y-3.522
X7.5022Y-3.622
X7.6022Y-3.522
X7.6022Y-3.622
T0
M30
