G04 #@! TF.GenerationSoftware,KiCad,Pcbnew,(5.1.6-0-10_14)*
G04 #@! TF.CreationDate,2021-12-08T11:10:56+09:00*
G04 #@! TF.ProjectId,qPCR-holder,71504352-2d68-46f6-9c64-65722e6b6963,rev?*
G04 #@! TF.SameCoordinates,Original*
G04 #@! TF.FileFunction,Legend,Bot*
G04 #@! TF.FilePolarity,Positive*
%FSLAX46Y46*%
G04 Gerber Fmt 4.6, Leading zero omitted, Abs format (unit mm)*
G04 Created by KiCad (PCBNEW (5.1.6-0-10_14)) date 2021-12-08 11:10:56*
%MOMM*%
%LPD*%
G01*
G04 APERTURE LIST*
%ADD10C,0.150000*%
%ADD11C,0.120000*%
G04 APERTURE END LIST*
D10*
X212166666Y-122152380D02*
X212166666Y-121152380D01*
X212166666Y-121533333D02*
X212071428Y-121485714D01*
X211880952Y-121485714D01*
X211785714Y-121533333D01*
X211738095Y-121580952D01*
X211690476Y-121676190D01*
X211690476Y-121961904D01*
X211738095Y-122057142D01*
X211785714Y-122104761D01*
X211880952Y-122152380D01*
X212071428Y-122152380D01*
X212166666Y-122104761D01*
X210833333Y-122152380D02*
X210833333Y-121628571D01*
X210880952Y-121533333D01*
X210976190Y-121485714D01*
X211166666Y-121485714D01*
X211261904Y-121533333D01*
X210833333Y-122104761D02*
X210928571Y-122152380D01*
X211166666Y-122152380D01*
X211261904Y-122104761D01*
X211309523Y-122009523D01*
X211309523Y-121914285D01*
X211261904Y-121819047D01*
X211166666Y-121771428D01*
X210928571Y-121771428D01*
X210833333Y-121723809D01*
X210500000Y-121485714D02*
X210119047Y-121485714D01*
X210357142Y-121152380D02*
X210357142Y-122009523D01*
X210309523Y-122104761D01*
X210214285Y-122152380D01*
X210119047Y-122152380D01*
X209357142Y-122104761D02*
X209452380Y-122152380D01*
X209642857Y-122152380D01*
X209738095Y-122104761D01*
X209785714Y-122057142D01*
X209833333Y-121961904D01*
X209833333Y-121676190D01*
X209785714Y-121580952D01*
X209738095Y-121533333D01*
X209642857Y-121485714D01*
X209452380Y-121485714D01*
X209357142Y-121533333D01*
X208928571Y-122152380D02*
X208928571Y-121152380D01*
X208500000Y-122152380D02*
X208500000Y-121628571D01*
X208547619Y-121533333D01*
X208642857Y-121485714D01*
X208785714Y-121485714D01*
X208880952Y-121533333D01*
X208928571Y-121580952D01*
X207500000Y-122152380D02*
X208071428Y-122152380D01*
X207785714Y-122152380D02*
X207785714Y-121152380D01*
X207880952Y-121295238D01*
X207976190Y-121390476D01*
X208071428Y-121438095D01*
X206642857Y-121152380D02*
X206833333Y-121152380D01*
X206928571Y-121200000D01*
X206976190Y-121247619D01*
X207071428Y-121390476D01*
X207119047Y-121580952D01*
X207119047Y-121961904D01*
X207071428Y-122057142D01*
X207023809Y-122104761D01*
X206928571Y-122152380D01*
X206738095Y-122152380D01*
X206642857Y-122104761D01*
X206595238Y-122057142D01*
X206547619Y-121961904D01*
X206547619Y-121723809D01*
X206595238Y-121628571D01*
X206642857Y-121580952D01*
X206738095Y-121533333D01*
X206928571Y-121533333D01*
X207023809Y-121580952D01*
X207071428Y-121628571D01*
X207119047Y-121723809D01*
X205404761Y-121104761D02*
X206261904Y-122390476D01*
X205071428Y-122152380D02*
X205071428Y-121152380D01*
X204642857Y-122152380D02*
X204642857Y-121628571D01*
X204690476Y-121533333D01*
X204785714Y-121485714D01*
X204928571Y-121485714D01*
X205023809Y-121533333D01*
X205071428Y-121580952D01*
X204023809Y-122152380D02*
X204119047Y-122104761D01*
X204166666Y-122057142D01*
X204214285Y-121961904D01*
X204214285Y-121676190D01*
X204166666Y-121580952D01*
X204119047Y-121533333D01*
X204023809Y-121485714D01*
X203880952Y-121485714D01*
X203785714Y-121533333D01*
X203738095Y-121580952D01*
X203690476Y-121676190D01*
X203690476Y-121961904D01*
X203738095Y-122057142D01*
X203785714Y-122104761D01*
X203880952Y-122152380D01*
X204023809Y-122152380D01*
X203119047Y-122152380D02*
X203214285Y-122104761D01*
X203261904Y-122009523D01*
X203261904Y-121152380D01*
X202309523Y-122152380D02*
X202309523Y-121152380D01*
X202309523Y-122104761D02*
X202404761Y-122152380D01*
X202595238Y-122152380D01*
X202690476Y-122104761D01*
X202738095Y-122057142D01*
X202785714Y-121961904D01*
X202785714Y-121676190D01*
X202738095Y-121580952D01*
X202690476Y-121533333D01*
X202595238Y-121485714D01*
X202404761Y-121485714D01*
X202309523Y-121533333D01*
X201452380Y-122104761D02*
X201547619Y-122152380D01*
X201738095Y-122152380D01*
X201833333Y-122104761D01*
X201880952Y-122009523D01*
X201880952Y-121628571D01*
X201833333Y-121533333D01*
X201738095Y-121485714D01*
X201547619Y-121485714D01*
X201452380Y-121533333D01*
X201404761Y-121628571D01*
X201404761Y-121723809D01*
X201880952Y-121819047D01*
X200976190Y-122152380D02*
X200976190Y-121485714D01*
X200976190Y-121676190D02*
X200928571Y-121580952D01*
X200880952Y-121533333D01*
X200785714Y-121485714D01*
X200690476Y-121485714D01*
D11*
G04 #@! TO.C,JP1*
X205100000Y-123500000D02*
X205100000Y-125500000D01*
X207900000Y-123500000D02*
X205100000Y-123500000D01*
X207900000Y-125500000D02*
X207900000Y-123500000D01*
X205100000Y-125500000D02*
X207900000Y-125500000D01*
G04 #@! TD*
M02*
