G04 #@! TF.GenerationSoftware,KiCad,Pcbnew,(5.1.6-0-10_14)*
G04 #@! TF.CreationDate,2021-12-08T11:10:56+09:00*
G04 #@! TF.ProjectId,qPCR-holder,71504352-2d68-46f6-9c64-65722e6b6963,rev?*
G04 #@! TF.SameCoordinates,Original*
G04 #@! TF.FileFunction,Profile,NP*
%FSLAX46Y46*%
G04 Gerber Fmt 4.6, Leading zero omitted, Abs format (unit mm)*
G04 Created by KiCad (PCBNEW (5.1.6-0-10_14)) date 2021-12-08 11:10:56*
%MOMM*%
%LPD*%
G01*
G04 APERTURE LIST*
G04 #@! TA.AperFunction,Profile*
%ADD10C,0.100000*%
G04 #@! TD*
G04 APERTURE END LIST*
D10*
X117000000Y-93000000D02*
G75*
G02*
X117000000Y-87000000I0J3000000D01*
G01*
X117000000Y-112000000D02*
G75*
G02*
X117000000Y-106000000I0J3000000D01*
G01*
X120000000Y-86500000D02*
G75*
G02*
X119500000Y-87000000I-500000J0D01*
G01*
X119500000Y-112000000D02*
G75*
G02*
X120000000Y-112500000I0J-500000D01*
G01*
X117000000Y-112000000D02*
X119500000Y-112000000D01*
X120000000Y-128000000D02*
X120000000Y-112500000D01*
X117000000Y-87000000D02*
X119500000Y-87000000D01*
X120000000Y-71000000D02*
X120000000Y-86500000D01*
X214000000Y-115000000D02*
X214000000Y-128000000D01*
X213500000Y-114500000D02*
G75*
G02*
X214000000Y-115000000I0J-500000D01*
G01*
X208000000Y-114500000D02*
X213500000Y-114500000D01*
X208000000Y-114500000D02*
G75*
G02*
X207500000Y-114000000I0J500000D01*
G01*
X207500000Y-114000000D02*
X207500000Y-103000000D01*
X214000000Y-84000000D02*
G75*
G02*
X213500000Y-84500000I-500000J0D01*
G01*
X208000000Y-84500000D02*
X213500000Y-84500000D01*
X207500000Y-85000000D02*
G75*
G02*
X208000000Y-84500000I500000J0D01*
G01*
X207500000Y-96000000D02*
X207500000Y-85000000D01*
X207500000Y-103000000D02*
G75*
G02*
X208000000Y-102500000I500000J0D01*
G01*
X208000000Y-96500000D02*
G75*
G02*
X207500000Y-96000000I0J500000D01*
G01*
X208000000Y-102500000D02*
X211000000Y-102500000D01*
X208000000Y-96500000D02*
X211000000Y-96500000D01*
X211000000Y-96500000D02*
G75*
G02*
X211000000Y-102500000I0J-3000000D01*
G01*
X117000000Y-106000000D02*
X123500000Y-106000000D01*
X124000000Y-93500000D02*
X124000000Y-105500000D01*
X117000000Y-93000000D02*
X123500000Y-93000000D01*
X123500000Y-93000000D02*
G75*
G02*
X124000000Y-93500000I0J-500000D01*
G01*
X124000000Y-105500000D02*
G75*
G02*
X123500000Y-106000000I-500000J0D01*
G01*
X118600000Y-90000000D02*
G75*
G03*
X118600000Y-90000000I-1600000J0D01*
G01*
X212600000Y-99500000D02*
G75*
G03*
X212600000Y-99500000I-1600000J0D01*
G01*
X118600000Y-109000000D02*
G75*
G03*
X118600000Y-109000000I-1600000J0D01*
G01*
X214000000Y-128000000D02*
G75*
G02*
X213500000Y-128500000I-500000J0D01*
G01*
X120500000Y-128500000D02*
G75*
G02*
X120000000Y-128000000I0J500000D01*
G01*
X120000000Y-71000000D02*
G75*
G02*
X120500000Y-70500000I500000J0D01*
G01*
X213500000Y-70500000D02*
G75*
G02*
X214000000Y-71000000I0J-500000D01*
G01*
X176150000Y-125398483D02*
X176150000Y-126998483D01*
X177003553Y-125044930D02*
G75*
G03*
X176150000Y-125398483I-353553J-353553D01*
G01*
X177357106Y-125398483D02*
X177003553Y-125044929D01*
X180942893Y-125398483D02*
X177357106Y-125398483D01*
X181296446Y-125044929D02*
X180942893Y-125398483D01*
X182150001Y-125398483D02*
G75*
G03*
X181296446Y-125044929I-500001J0D01*
G01*
X182150000Y-126998483D02*
X182150000Y-125398483D01*
X181296447Y-127352036D02*
G75*
G03*
X182150000Y-126998483I353553J353553D01*
G01*
X180942893Y-126998483D02*
X181296446Y-127352036D01*
X177357106Y-126998483D02*
X180942893Y-126998483D01*
X177003553Y-127352036D02*
X177357106Y-126998483D01*
X176150001Y-126998483D02*
G75*
G03*
X177003553Y-127352036I499999J0D01*
G01*
X166942893Y-126998483D02*
X164357106Y-126998483D01*
X167296446Y-127352036D02*
X166942893Y-126998483D01*
X167296447Y-127352036D02*
G75*
G03*
X168150000Y-126998483I353553J353553D01*
G01*
X168150000Y-125398483D02*
X168150000Y-126998483D01*
X168150001Y-125398483D02*
G75*
G03*
X167296446Y-125044929I-500001J0D01*
G01*
X166942893Y-125398483D02*
X167296446Y-125044929D01*
X164357106Y-125398483D02*
X166942893Y-125398483D01*
X164003553Y-125044929D02*
X164357106Y-125398483D01*
X164003553Y-125044930D02*
G75*
G03*
X163150000Y-125398483I-353553J-353553D01*
G01*
X163150000Y-126998483D02*
X163150000Y-125398483D01*
X163150001Y-126998483D02*
G75*
G03*
X164003553Y-127352036I499999J0D01*
G01*
X164357106Y-126998483D02*
X164003553Y-127352036D01*
X125664141Y-117499167D02*
G75*
G03*
X125664141Y-117499167I-1600000J0D01*
G01*
X208836141Y-117499167D02*
G75*
G03*
X208836141Y-117499167I-1600000J0D01*
G01*
X137357106Y-125398483D02*
X139942893Y-125398483D01*
X137003553Y-125044929D02*
X137357106Y-125398483D01*
X137003553Y-125044930D02*
G75*
G03*
X136150000Y-125398483I-353553J-353553D01*
G01*
X136150000Y-126998483D02*
X136150000Y-125398483D01*
X136150001Y-126998483D02*
G75*
G03*
X137003553Y-127352036I499999J0D01*
G01*
X137357106Y-126998483D02*
X137003553Y-127352036D01*
X139942893Y-126998483D02*
X137357106Y-126998483D01*
X140296446Y-127352036D02*
X139942893Y-126998483D01*
X140296447Y-127352036D02*
G75*
G03*
X141150000Y-126998483I353553J353553D01*
G01*
X141150000Y-125398483D02*
X141150000Y-126998483D01*
X141150001Y-125398483D02*
G75*
G03*
X140296446Y-125044929I-500001J0D01*
G01*
X139942893Y-125398483D02*
X140296446Y-125044929D01*
X149150000Y-125398483D02*
X149150000Y-126998483D01*
X150003553Y-125044930D02*
G75*
G03*
X149150000Y-125398483I-353553J-353553D01*
G01*
X150357106Y-125398483D02*
X150003553Y-125044929D01*
X153942893Y-125398483D02*
X150357106Y-125398483D01*
X154296446Y-125044929D02*
X153942893Y-125398483D01*
X155150001Y-125398483D02*
G75*
G03*
X154296446Y-125044929I-500001J0D01*
G01*
X155150000Y-126998483D02*
X155150000Y-125398483D01*
X154296447Y-127352036D02*
G75*
G03*
X155150000Y-126998483I353553J353553D01*
G01*
X153942893Y-126998483D02*
X154296446Y-127352036D01*
X150357106Y-126998483D02*
X153942893Y-126998483D01*
X150003553Y-127352036D02*
X150357106Y-126998483D01*
X149150001Y-126998483D02*
G75*
G03*
X150003553Y-127352036I499999J0D01*
G01*
X193942893Y-126998483D02*
X191357106Y-126998483D01*
X194296446Y-127352036D02*
X193942893Y-126998483D01*
X194296447Y-127352036D02*
G75*
G03*
X195150000Y-126998483I353553J353553D01*
G01*
X195150000Y-125398483D02*
X195150000Y-126998483D01*
X195150001Y-125398483D02*
G75*
G03*
X194296446Y-125044929I-500001J0D01*
G01*
X193942893Y-125398483D02*
X194296446Y-125044929D01*
X191357106Y-125398483D02*
X193942893Y-125398483D01*
X191003553Y-125044929D02*
X191357106Y-125398483D01*
X191003553Y-125044930D02*
G75*
G03*
X190150000Y-125398483I-353553J-353553D01*
G01*
X190150000Y-126998483D02*
X190150000Y-125398483D01*
X190150001Y-126998483D02*
G75*
G03*
X191003553Y-127352036I499999J0D01*
G01*
X191357106Y-126998483D02*
X191003553Y-127352036D01*
X192446053Y-118644929D02*
X192799606Y-118291376D01*
X192446053Y-118644930D02*
G75*
G03*
X192799606Y-119498483I353553J-353553D01*
G01*
X202800000Y-119498483D02*
X192799606Y-119498483D01*
X202800001Y-119498483D02*
G75*
G03*
X203153553Y-118644929I-1J500000D01*
G01*
X202800000Y-118291376D02*
X203153553Y-118644929D01*
X202800000Y-114605589D02*
X202800000Y-118291376D01*
X203153553Y-114252036D02*
X202800000Y-114605589D01*
X192799606Y-113398483D02*
X138499606Y-113398483D01*
X192799606Y-118291376D02*
X192799606Y-113398483D01*
X201300000Y-105501319D02*
G75*
G03*
X200300000Y-104501319I-1000000J0D01*
G01*
X131000000Y-104501319D02*
X200300000Y-104501319D01*
X131000000Y-104501319D02*
G75*
G03*
X130000000Y-105501319I0J-1000000D01*
G01*
X130000000Y-113398483D02*
X130000000Y-105501319D01*
X128500000Y-113398483D02*
X130000000Y-113398483D01*
X128500001Y-113398483D02*
G75*
G03*
X128146446Y-114252036I-1J-500000D01*
G01*
X128500000Y-114605589D02*
X128146446Y-114252036D01*
X128500000Y-118291376D02*
X128500000Y-114605589D01*
X128146446Y-118644929D02*
X128500000Y-118291376D01*
X128146447Y-118644930D02*
G75*
G03*
X128500000Y-119498483I353553J-353553D01*
G01*
X138499606Y-119498483D02*
X128500000Y-119498483D01*
X138499607Y-119498483D02*
G75*
G03*
X138853159Y-118644929I-1J500000D01*
G01*
X138499606Y-118291376D02*
X138853159Y-118644929D01*
X138499606Y-113398483D02*
X138499606Y-118291376D01*
X120500000Y-128500000D02*
X213500000Y-128500000D01*
X203153553Y-114252036D02*
G75*
G03*
X202800000Y-113398483I-353553J353553D01*
G01*
X201300000Y-113398483D02*
X202800000Y-113398483D01*
X201300000Y-105501319D02*
X201300000Y-113398483D01*
X176150000Y-73601517D02*
X176150000Y-72001517D01*
X177003553Y-73955070D02*
G75*
G02*
X176150000Y-73601517I-353553J353553D01*
G01*
X177357106Y-73601517D02*
X177003553Y-73955071D01*
X180942893Y-73601517D02*
X177357106Y-73601517D01*
X181296446Y-73955071D02*
X180942893Y-73601517D01*
X182150001Y-73601517D02*
G75*
G02*
X181296446Y-73955071I-500001J0D01*
G01*
X182150000Y-72001517D02*
X182150000Y-73601517D01*
X181296447Y-71647964D02*
G75*
G02*
X182150000Y-72001517I353553J-353553D01*
G01*
X180942893Y-72001517D02*
X181296446Y-71647964D01*
X177357106Y-72001517D02*
X180942893Y-72001517D01*
X177003553Y-71647964D02*
X177357106Y-72001517D01*
X176150001Y-72001517D02*
G75*
G02*
X177003553Y-71647964I499999J0D01*
G01*
X166942893Y-72001517D02*
X164357106Y-72001517D01*
X167296446Y-71647964D02*
X166942893Y-72001517D01*
X167296447Y-71647964D02*
G75*
G02*
X168150000Y-72001517I353553J-353553D01*
G01*
X168150000Y-73601517D02*
X168150000Y-72001517D01*
X168150001Y-73601517D02*
G75*
G02*
X167296446Y-73955071I-500001J0D01*
G01*
X166942893Y-73601517D02*
X167296446Y-73955071D01*
X164357106Y-73601517D02*
X166942893Y-73601517D01*
X164003553Y-73955071D02*
X164357106Y-73601517D01*
X164003553Y-73955070D02*
G75*
G02*
X163150000Y-73601517I-353553J353553D01*
G01*
X163150000Y-72001517D02*
X163150000Y-73601517D01*
X163150001Y-72001517D02*
G75*
G02*
X164003553Y-71647964I499999J0D01*
G01*
X164357106Y-72001517D02*
X164003553Y-71647964D01*
X125664141Y-81500833D02*
G75*
G03*
X125664141Y-81500833I-1600000J0D01*
G01*
X208836141Y-81500833D02*
G75*
G03*
X208836141Y-81500833I-1600000J0D01*
G01*
X137357106Y-73601517D02*
X139942893Y-73601517D01*
X137003553Y-73955071D02*
X137357106Y-73601517D01*
X137003553Y-73955070D02*
G75*
G02*
X136150000Y-73601517I-353553J353553D01*
G01*
X136150000Y-72001517D02*
X136150000Y-73601517D01*
X136150001Y-72001517D02*
G75*
G02*
X137003553Y-71647964I499999J0D01*
G01*
X137357106Y-72001517D02*
X137003553Y-71647964D01*
X139942893Y-72001517D02*
X137357106Y-72001517D01*
X140296446Y-71647964D02*
X139942893Y-72001517D01*
X140296447Y-71647964D02*
G75*
G02*
X141150000Y-72001517I353553J-353553D01*
G01*
X141150000Y-73601517D02*
X141150000Y-72001517D01*
X141150001Y-73601517D02*
G75*
G02*
X140296446Y-73955071I-500001J0D01*
G01*
X139942893Y-73601517D02*
X140296446Y-73955071D01*
X149150000Y-73601517D02*
X149150000Y-72001517D01*
X150003553Y-73955070D02*
G75*
G02*
X149150000Y-73601517I-353553J353553D01*
G01*
X150357106Y-73601517D02*
X150003553Y-73955071D01*
X153942893Y-73601517D02*
X150357106Y-73601517D01*
X154296446Y-73955071D02*
X153942893Y-73601517D01*
X155150001Y-73601517D02*
G75*
G02*
X154296446Y-73955071I-500001J0D01*
G01*
X155150000Y-72001517D02*
X155150000Y-73601517D01*
X154296447Y-71647964D02*
G75*
G02*
X155150000Y-72001517I353553J-353553D01*
G01*
X153942893Y-72001517D02*
X154296446Y-71647964D01*
X150357106Y-72001517D02*
X153942893Y-72001517D01*
X150003553Y-71647964D02*
X150357106Y-72001517D01*
X149150001Y-72001517D02*
G75*
G02*
X150003553Y-71647964I499999J0D01*
G01*
X193942893Y-72001517D02*
X191357106Y-72001517D01*
X194296446Y-71647964D02*
X193942893Y-72001517D01*
X194296447Y-71647964D02*
G75*
G02*
X195150000Y-72001517I353553J-353553D01*
G01*
X195150000Y-73601517D02*
X195150000Y-72001517D01*
X195150001Y-73601517D02*
G75*
G02*
X194296446Y-73955071I-500001J0D01*
G01*
X193942893Y-73601517D02*
X194296446Y-73955071D01*
X191357106Y-73601517D02*
X193942893Y-73601517D01*
X191003553Y-73955071D02*
X191357106Y-73601517D01*
X191003553Y-73955070D02*
G75*
G02*
X190150000Y-73601517I-353553J353553D01*
G01*
X190150000Y-72001517D02*
X190150000Y-73601517D01*
X190150001Y-72001517D02*
G75*
G02*
X191003553Y-71647964I499999J0D01*
G01*
X191357106Y-72001517D02*
X191003553Y-71647964D01*
X192446053Y-80355071D02*
X192799606Y-80708624D01*
X192446053Y-80355070D02*
G75*
G02*
X192799606Y-79501517I353553J353553D01*
G01*
X202800000Y-79501517D02*
X192799606Y-79501517D01*
X202800001Y-79501517D02*
G75*
G02*
X203153553Y-80355071I-1J-500000D01*
G01*
X202800000Y-80708624D02*
X203153553Y-80355071D01*
X202800000Y-84394411D02*
X202800000Y-80708624D01*
X203153553Y-84747964D02*
X202800000Y-84394411D01*
X192799606Y-85601517D02*
X138499606Y-85601517D01*
X192799606Y-80708624D02*
X192799606Y-85601517D01*
X201300000Y-93498681D02*
G75*
G02*
X200300000Y-94498681I-1000000J0D01*
G01*
X131000000Y-94498681D02*
X200300000Y-94498681D01*
X131000000Y-94498681D02*
G75*
G02*
X130000000Y-93498681I0J1000000D01*
G01*
X130000000Y-85601517D02*
X130000000Y-93498681D01*
X128500000Y-85601517D02*
X130000000Y-85601517D01*
X128500001Y-85601517D02*
G75*
G02*
X128146446Y-84747964I-1J500000D01*
G01*
X128500000Y-84394411D02*
X128146446Y-84747964D01*
X128500000Y-80708624D02*
X128500000Y-84394411D01*
X128146446Y-80355071D02*
X128500000Y-80708624D01*
X128146447Y-80355070D02*
G75*
G02*
X128500000Y-79501517I353553J353553D01*
G01*
X138499606Y-79501517D02*
X128500000Y-79501517D01*
X138499607Y-79501517D02*
G75*
G02*
X138853159Y-80355071I-1J-500000D01*
G01*
X138499606Y-80708624D02*
X138853159Y-80355071D01*
X138499606Y-85601517D02*
X138499606Y-80708624D01*
X214000000Y-71000000D02*
X214000000Y-84000000D01*
X120500000Y-70500000D02*
X213500000Y-70500000D01*
X203153553Y-84747964D02*
G75*
G02*
X202800000Y-85601517I-353553J-353553D01*
G01*
X201300000Y-85601517D02*
X202800000Y-85601517D01*
X201300000Y-93498681D02*
X201300000Y-85601517D01*
M02*
