M48
INCH,TZ
T1C0.0157
T2C0.0276
T3C0.0394
%
G90
G05
T1
X26774Y-51181
X26790Y-31850
X26809Y-29283
X26869Y-48441
X26884Y-45748
X26900Y-34642
X28117Y-49906
X28120Y-30594
X28435Y-34051
X29266Y-45748
X29266Y-48409
X29365Y-51130
X29581Y-29283
X29597Y-34642
X29617Y-31980
X30817Y-44972
X31140Y-46882
X31215Y-49740
X31428Y-30890
X31428Y-33571
X31952Y-36418
X31952Y-43898
X32333Y-29209
X32396Y-51118
X32951Y-48276
X33061Y-45244
X33239Y-32110
X33491Y-44303
X33498Y-36008
X33554Y-30406
X33699Y-35087
X33735Y-49886
X34215Y-43516
X34270Y-36705
X35495Y-36418
X35495Y-43898
X36199Y-48382
X36239Y-29260
X36246Y-31894
X36262Y-50610
X37010Y-44280
X37022Y-35996
X37546Y-49059
X37569Y-45272
X37585Y-35024
X37774Y-43583
X37809Y-36728
X38479Y-32240
X38534Y-47697
X39038Y-36418
X39038Y-43898
X39061Y-30417
X39120Y-49854
X39857Y-45539
X39963Y-34811
X40557Y-36020
X40605Y-44276
X40707Y-29185
X41030Y-33350
X41109Y-47697
X41321Y-43638
X41365Y-36606
X41896Y-49035
X41912Y-50591
X42187Y-34563
X42298Y-45689
X42447Y-32146
X42582Y-36418
X42582Y-43898
X44034Y-35772
X44113Y-44512
X44298Y-30366
X44557Y-43591
X44585Y-36764
X44727Y-48728
X44951Y-31587
X45731Y-29252
X45829Y-47626
X45841Y-45374
X45857Y-32571
X45857Y-34976
X46125Y-36418
X46125Y-43898
X46833Y-49858
X47223Y-33780
X47369Y-35902
X47384Y-44433
X47884Y-51004
X47947Y-46488
X48069Y-36803
X48109Y-30079
X48160Y-43579
X49113Y-33677
X49538Y-49126
X49668Y-36418
X49668Y-43898
X50148Y-31228
X50176Y-45409
X50199Y-47602
X50231Y-32512
X50443Y-35024
X50869Y-44390
X50888Y-35906
X51306Y-29197
X51609Y-43563
X51624Y-36783
X51857Y-45299
X52506Y-49705
X53212Y-36418
X53212Y-43898
X53431Y-51197
X53609Y-29976
X54431Y-44413
X54455Y-35953
X54945Y-49673
X55148Y-43535
X55160Y-36799
X55386Y-34693
X55480Y-32469
X55665Y-31236
X56000Y-48441
X56091Y-46339
X56353Y-51283
X56479Y-29043
X56661Y-35350
X56755Y-36418
X56755Y-43898
X57606Y-32469
X57760Y-47492
X57890Y-34157
X57937Y-49709
X58035Y-31197
X58063Y-35972
X58598Y-45933
X58913Y-34846
X59209Y-35638
X59480Y-32701
X59764Y-29449
X59929Y-34035
X60071Y-48122
X60232Y-51283
X60244Y-44343
X60465Y-36760
X60618Y-35689
X60965Y-46220
X61028Y-45157
X61091Y-35812
X61106Y-45551
X61173Y-44790
X61276Y-34654
X61333Y-44429
X61335Y-37945
X61370Y-35533
X61386Y-33933
X61406Y-37248
X61429Y-44046
X61453Y-30693
X61461Y-49882
X61555Y-42193
X61566Y-43676
X61718Y-34384
X61746Y-35412
X61757Y-43330
X61894Y-42960
X61957Y-29201
X62006Y-34113
X62108Y-35256
X62173Y-45071
X62217Y-38268
X62366Y-33952
X62406Y-35799
X62503Y-35324
X62725Y-33788
X62814Y-35801
X62839Y-46433
X62846Y-48126
X62894Y-51264
X63083Y-33622
X63214Y-35812
X63398Y-36776
X63433Y-43843
X63443Y-33460
X63469Y-32583
X63651Y-44770
X63775Y-37031
X63802Y-33296
X63949Y-46000
X64035Y-44910
X64037Y-45575
X64054Y-37310
X64114Y-50453
X64162Y-33133
X64186Y-44545
X64197Y-47047
X64234Y-43987
X64327Y-37596
X64430Y-44855
X64595Y-45843
X64595Y-46237
X64612Y-37868
X64651Y-43449
X64790Y-44692
X64889Y-46579
X64891Y-38148
X64917Y-42354
X65000Y-29220
X65125Y-47140
X65149Y-38447
X65152Y-45901
X65168Y-46300
X65295Y-49449
X65327Y-30843
X65400Y-46857
X65511Y-38603
X65563Y-46299
X65701Y-51177
X65905Y-38574
X66283Y-45878
X66661Y-32205
X66685Y-46756
X66799Y-30185
X67008Y-45866
X67008Y-49717
X67012Y-45471
X67126Y-42109
X67307Y-40736
X67346Y-43909
X67551Y-47858
X68276Y-31213
X68374Y-51213
X68406Y-29370
X68429Y-34224
X68506Y-42339
X68512Y-47760
X68518Y-36598
X68546Y-39307
X68561Y-45559
T2
X62654Y-30389
X62654Y-30889
X62654Y-49426
X62654Y-49926
X63154Y-30389
X63154Y-30889
X63154Y-49426
X63154Y-49926
X63654Y-30389
X63654Y-30889
X63654Y-49426
X63654Y-49926
X64154Y-30389
X64154Y-30889
X64154Y-49426
X64154Y-49926
X64654Y-30389
X64654Y-30889
X64654Y-49426
X64654Y-49926
T3
X58600Y-37150
X59600Y-37150
T0
M30
