M48
INCH,TZ
T1C0.0157
T2C0.0394
%
G90
G05
T1
X45669Y-34646
X45669Y-36614
X45669Y-38583
X46654Y-35630
X47244Y-34646
X47835Y-36024
X47880Y-38341
X48425Y-35039
X48841Y-37400
X48917Y-35531
X49409Y-38583
X49803Y-34646
X50000Y-37992
X50689Y-35531
X50984Y-38583
X51378Y-34646
X51969Y-35039
X52307Y-35882
X52416Y-36798
X52559Y-38386
X53150Y-35039
X53988Y-37220
X54331Y-38583
X54528Y-34843
X55403Y-35542
X55512Y-36417
X56299Y-34646
X56299Y-35630
X56299Y-38583
T2
X54953Y-37677
X55953Y-37677
X45953Y-37677
X46953Y-37677
X47953Y-37677
T0
M30
