G04 #@! TF.GenerationSoftware,KiCad,Pcbnew,(5.1.6-0-10_14)*
G04 #@! TF.CreationDate,2021-04-27T10:54:01+09:00*
G04 #@! TF.ProjectId,qPCR-negative_voltage,71504352-2d6e-4656-9761-746976655f76,rev?*
G04 #@! TF.SameCoordinates,Original*
G04 #@! TF.FileFunction,Copper,L1,Top*
G04 #@! TF.FilePolarity,Positive*
%FSLAX46Y46*%
G04 Gerber Fmt 4.6, Leading zero omitted, Abs format (unit mm)*
G04 Created by KiCad (PCBNEW (5.1.6-0-10_14)) date 2021-04-27 10:54:01*
%MOMM*%
%LPD*%
G01*
G04 APERTURE LIST*
G04 #@! TA.AperFunction,SMDPad,CuDef*
%ADD10R,1.250000X1.500000*%
G04 #@! TD*
G04 #@! TA.AperFunction,SMDPad,CuDef*
%ADD11R,1.200000X0.750000*%
G04 #@! TD*
G04 #@! TA.AperFunction,SMDPad,CuDef*
%ADD12R,2.000000X1.600000*%
G04 #@! TD*
G04 #@! TA.AperFunction,SMDPad,CuDef*
%ADD13R,1.600000X2.000000*%
G04 #@! TD*
G04 #@! TA.AperFunction,SMDPad,CuDef*
%ADD14R,1.200000X0.900000*%
G04 #@! TD*
G04 #@! TA.AperFunction,ComponentPad*
%ADD15R,1.700000X1.700000*%
G04 #@! TD*
G04 #@! TA.AperFunction,ComponentPad*
%ADD16O,1.700000X1.700000*%
G04 #@! TD*
G04 #@! TA.AperFunction,SMDPad,CuDef*
%ADD17R,1.470000X0.480000*%
G04 #@! TD*
G04 #@! TA.AperFunction,ViaPad*
%ADD18C,0.800000*%
G04 #@! TD*
G04 #@! TA.AperFunction,Conductor*
%ADD19C,1.270000*%
G04 #@! TD*
G04 #@! TA.AperFunction,Conductor*
%ADD20C,0.250000*%
G04 #@! TD*
G04 #@! TA.AperFunction,Conductor*
%ADD21C,0.762000*%
G04 #@! TD*
G04 #@! TA.AperFunction,Conductor*
%ADD22C,0.381000*%
G04 #@! TD*
G04 #@! TA.AperFunction,Conductor*
%ADD23C,0.254000*%
G04 #@! TD*
G04 APERTURE END LIST*
D10*
X138800000Y-92750000D03*
X138800000Y-90250000D03*
X136900000Y-90250000D03*
X136900000Y-92750000D03*
D11*
X133750000Y-95900000D03*
X131850000Y-95900000D03*
D12*
X135600000Y-97700000D03*
X131600000Y-97700000D03*
D11*
X126750000Y-94500000D03*
X128650000Y-94500000D03*
D12*
X125000000Y-96400000D03*
X129000000Y-96400000D03*
D13*
X124400000Y-92500000D03*
X124400000Y-88500000D03*
D10*
X126400000Y-92750000D03*
X126400000Y-90250000D03*
D13*
X128500000Y-88500000D03*
X128500000Y-92500000D03*
D14*
X122400000Y-93100000D03*
X120200000Y-93100000D03*
D15*
X121800000Y-95700000D03*
D16*
X119260000Y-95700000D03*
X116720000Y-95700000D03*
D17*
X130650000Y-94375000D03*
X130650000Y-93725000D03*
X130650000Y-93075000D03*
X130650000Y-92425000D03*
X134950000Y-92425000D03*
X134950000Y-93075000D03*
X134950000Y-93725000D03*
X134950000Y-94375000D03*
D16*
X142120000Y-95700000D03*
D15*
X139580000Y-95700000D03*
D18*
X116000000Y-88000000D03*
X116000000Y-93000000D03*
X123000000Y-89000000D03*
X118500000Y-90500000D03*
X120000000Y-88000000D03*
X116000000Y-98000000D03*
X125500000Y-98000000D03*
X129500000Y-98000000D03*
X127000000Y-96500000D03*
X133500000Y-97500000D03*
X121500000Y-91500000D03*
X126500000Y-88000000D03*
X130500000Y-88000000D03*
X135000000Y-89000000D03*
X132000000Y-89000000D03*
X143000000Y-88000000D03*
X138500000Y-88500000D03*
X143000000Y-90500000D03*
X143000000Y-98000000D03*
X138000000Y-98000000D03*
X141000000Y-92500000D03*
X140722500Y-90277500D03*
X132860000Y-91140000D03*
X133136999Y-93466999D03*
X128750000Y-90250000D03*
X124250000Y-90250000D03*
X121614999Y-97385001D03*
X137130000Y-94540000D03*
X124055000Y-94995000D03*
D19*
X140695000Y-90250000D02*
X138800000Y-90250000D01*
X142120000Y-91675000D02*
X140722500Y-90277500D01*
X142120000Y-95700000D02*
X142120000Y-91675000D01*
X138800000Y-90250000D02*
X136900000Y-90250000D01*
X116720000Y-94026998D02*
X116720000Y-95700000D01*
X120496998Y-90250000D02*
X116720000Y-94026998D01*
X118405001Y-97385001D02*
X116720000Y-95700000D01*
X124014999Y-97385001D02*
X121614999Y-97385001D01*
X125000000Y-96400000D02*
X124014999Y-97385001D01*
X124400000Y-88500000D02*
X124400000Y-90200000D01*
X124350000Y-90250000D02*
X124250000Y-90250000D01*
X124400000Y-90200000D02*
X124350000Y-90250000D01*
X126400000Y-90250000D02*
X124350000Y-90250000D01*
X128500000Y-89900000D02*
X128850000Y-90250000D01*
X128850000Y-90250000D02*
X128750000Y-90250000D01*
X128500000Y-88500000D02*
X128500000Y-89900000D01*
X125000000Y-96400000D02*
X125000000Y-96250000D01*
X128850000Y-90250000D02*
X130650000Y-90250000D01*
X130650000Y-90250000D02*
X130650000Y-91999999D01*
X132860000Y-90250000D02*
X132860000Y-91140000D01*
X136900000Y-90250000D02*
X132860000Y-90250000D01*
X132860000Y-90250000D02*
X128850000Y-90250000D01*
D20*
X133105000Y-93075000D02*
X132860000Y-92830000D01*
X134950000Y-93075000D02*
X133105000Y-93075000D01*
X133755000Y-93725000D02*
X132860000Y-92830000D01*
X134950000Y-93725000D02*
X133755000Y-93725000D01*
D19*
X133136999Y-93466999D02*
X133136999Y-93466999D01*
X132860000Y-93190000D02*
X133136999Y-93466999D01*
X132860000Y-92830000D02*
X132860000Y-93190000D01*
X140722500Y-90277500D02*
X140695000Y-90250000D01*
X132860000Y-91140000D02*
X132860000Y-92830000D01*
X133136999Y-93466999D02*
X133379999Y-93466999D01*
X128750000Y-90250000D02*
X126400000Y-90250000D01*
X124250000Y-90250000D02*
X120496998Y-90250000D01*
X121614999Y-97385001D02*
X118405001Y-97385001D01*
D21*
X133136999Y-93466999D02*
X135576999Y-93466999D01*
D22*
X136075501Y-93965501D02*
X135576999Y-93466999D01*
X138000000Y-96370000D02*
X136075501Y-94445501D01*
X136075501Y-94445501D02*
X136075501Y-93965501D01*
X138000000Y-98000000D02*
X138000000Y-96370000D01*
D19*
X124629998Y-98000000D02*
X124014999Y-97385001D01*
X125500000Y-98000000D02*
X124629998Y-98000000D01*
X124014999Y-97385001D02*
X124014999Y-95034999D01*
X124014999Y-95034999D02*
X124054998Y-94995000D01*
X126255000Y-94995000D02*
X126750000Y-94500000D01*
X124054998Y-94995000D02*
X124055000Y-94995000D01*
X125000000Y-96250000D02*
X126255000Y-94995000D01*
X126255000Y-96125000D02*
X126760000Y-96630000D01*
X126255000Y-94995000D02*
X126255000Y-96125000D01*
X126760000Y-96740000D02*
X125500000Y-98000000D01*
X126760000Y-96630000D02*
X126760000Y-96740000D01*
X125500000Y-96900000D02*
X125000000Y-96400000D01*
X125500000Y-98000000D02*
X125500000Y-96900000D01*
X124055000Y-94995000D02*
X126255000Y-94995000D01*
X135600000Y-95450001D02*
X134950000Y-94800001D01*
X135600000Y-97700000D02*
X135600000Y-95450001D01*
X135150001Y-95900000D02*
X135600000Y-95450001D01*
X133750000Y-95900000D02*
X135150001Y-95900000D01*
X130880001Y-94800001D02*
X130650000Y-94800001D01*
X131600000Y-95520000D02*
X130880001Y-94800001D01*
X131600000Y-97700000D02*
X131600000Y-95520000D01*
X129000000Y-94850000D02*
X128650000Y-94500000D01*
X129000000Y-96400000D02*
X129000000Y-94850000D01*
X129030000Y-94500000D02*
X129079999Y-94450001D01*
X128650000Y-94500000D02*
X129030000Y-94500000D01*
X129079999Y-94450001D02*
X129079999Y-94335001D01*
D22*
X130630501Y-93705501D02*
X130650000Y-93725000D01*
X129709499Y-93705501D02*
X130630501Y-93705501D01*
X128915000Y-94500000D02*
X129709499Y-93705501D01*
X128650000Y-94500000D02*
X128915000Y-94500000D01*
D19*
X121800000Y-93700000D02*
X122400000Y-93100000D01*
X121800000Y-95700000D02*
X121800000Y-93700000D01*
X123000000Y-92500000D02*
X128500000Y-92500000D01*
X122400000Y-93100000D02*
X123000000Y-92500000D01*
X128780000Y-92500000D02*
X129079999Y-92799999D01*
X128500000Y-92500000D02*
X128780000Y-92500000D01*
D22*
X129075000Y-93075000D02*
X128500000Y-92500000D01*
X130650000Y-93075000D02*
X129075000Y-93075000D01*
D19*
X119260000Y-94040000D02*
X119260000Y-95700000D01*
X120200000Y-93100000D02*
X119260000Y-94040000D01*
X139580000Y-93530000D02*
X138800000Y-92750000D01*
X139580000Y-95700000D02*
X139580000Y-93530000D01*
X138800000Y-92750000D02*
X136900000Y-92750000D01*
X136900000Y-92546998D02*
X136353001Y-91999999D01*
X136353001Y-91999999D02*
X134950000Y-91999999D01*
X136900000Y-92750000D02*
X136900000Y-92546998D01*
D23*
G36*
X133261641Y-97079003D02*
G01*
X133501037Y-97151623D01*
X133687620Y-97170000D01*
X133961928Y-97170000D01*
X133961928Y-98315000D01*
X133238072Y-98315000D01*
X133238072Y-97066405D01*
X133261641Y-97079003D01*
G37*
X133261641Y-97079003D02*
X133501037Y-97151623D01*
X133687620Y-97170000D01*
X133961928Y-97170000D01*
X133961928Y-98315000D01*
X133238072Y-98315000D01*
X133238072Y-97066405D01*
X133261641Y-97079003D01*
G36*
X122965000Y-88214250D02*
G01*
X123123750Y-88373000D01*
X124273000Y-88373000D01*
X124273000Y-88353000D01*
X124527000Y-88353000D01*
X124527000Y-88373000D01*
X125676250Y-88373000D01*
X125835000Y-88214250D01*
X125837276Y-87685000D01*
X127062724Y-87685000D01*
X127065000Y-88214250D01*
X127223750Y-88373000D01*
X128373000Y-88373000D01*
X128373000Y-88353000D01*
X128627000Y-88353000D01*
X128627000Y-88373000D01*
X129776250Y-88373000D01*
X129935000Y-88214250D01*
X129937276Y-87685000D01*
X143315001Y-87685000D01*
X143315000Y-94818448D01*
X143120269Y-94602412D01*
X142886920Y-94428359D01*
X142624099Y-94303175D01*
X142476890Y-94258524D01*
X142247000Y-94379845D01*
X142247000Y-95573000D01*
X142267000Y-95573000D01*
X142267000Y-95827000D01*
X142247000Y-95827000D01*
X142247000Y-97020155D01*
X142476890Y-97141476D01*
X142624099Y-97096825D01*
X142886920Y-96971641D01*
X143120269Y-96797588D01*
X143315000Y-96581552D01*
X143315000Y-98315000D01*
X137238072Y-98315000D01*
X137238072Y-96900000D01*
X137225812Y-96775518D01*
X137189502Y-96655820D01*
X137130537Y-96545506D01*
X137051185Y-96448815D01*
X136954494Y-96369463D01*
X136870000Y-96324299D01*
X136870000Y-95512381D01*
X136876144Y-95450001D01*
X136851623Y-95201038D01*
X136779003Y-94961642D01*
X136768702Y-94942370D01*
X136661075Y-94741013D01*
X136502370Y-94547631D01*
X136453914Y-94507864D01*
X136323072Y-94377022D01*
X136323072Y-94138072D01*
X137525000Y-94138072D01*
X137649482Y-94125812D01*
X137769180Y-94089502D01*
X137850000Y-94046302D01*
X137930820Y-94089502D01*
X138050518Y-94125812D01*
X138175000Y-94138072D01*
X138310001Y-94138072D01*
X138310001Y-94373222D01*
X138278815Y-94398815D01*
X138199463Y-94495506D01*
X138140498Y-94605820D01*
X138104188Y-94725518D01*
X138091928Y-94850000D01*
X138091928Y-96550000D01*
X138104188Y-96674482D01*
X138140498Y-96794180D01*
X138199463Y-96904494D01*
X138278815Y-97001185D01*
X138375506Y-97080537D01*
X138485820Y-97139502D01*
X138605518Y-97175812D01*
X138730000Y-97188072D01*
X140430000Y-97188072D01*
X140554482Y-97175812D01*
X140674180Y-97139502D01*
X140784494Y-97080537D01*
X140881185Y-97001185D01*
X140960537Y-96904494D01*
X141019502Y-96794180D01*
X141043966Y-96713534D01*
X141119731Y-96797588D01*
X141353080Y-96971641D01*
X141615901Y-97096825D01*
X141763110Y-97141476D01*
X141993000Y-97020155D01*
X141993000Y-95827000D01*
X141973000Y-95827000D01*
X141973000Y-95573000D01*
X141993000Y-95573000D01*
X141993000Y-94379845D01*
X141763110Y-94258524D01*
X141615901Y-94303175D01*
X141353080Y-94428359D01*
X141119731Y-94602412D01*
X141043966Y-94686466D01*
X141019502Y-94605820D01*
X140960537Y-94495506D01*
X140881185Y-94398815D01*
X140850000Y-94373222D01*
X140850000Y-93592380D01*
X140856144Y-93530000D01*
X140831623Y-93281037D01*
X140759003Y-93041641D01*
X140715815Y-92960842D01*
X140641075Y-92821012D01*
X140482370Y-92627630D01*
X140433909Y-92587859D01*
X140063072Y-92217022D01*
X140063072Y-92000000D01*
X140050812Y-91875518D01*
X140014502Y-91755820D01*
X139955537Y-91645506D01*
X139876185Y-91548815D01*
X139816704Y-91500000D01*
X139876185Y-91451185D01*
X139955537Y-91354494D01*
X140014502Y-91244180D01*
X140050812Y-91124482D01*
X140063072Y-91000000D01*
X140060000Y-90535750D01*
X139901250Y-90377000D01*
X138927000Y-90377000D01*
X138927000Y-90397000D01*
X138673000Y-90397000D01*
X138673000Y-90377000D01*
X137027000Y-90377000D01*
X137027000Y-90397000D01*
X136773000Y-90397000D01*
X136773000Y-90377000D01*
X135798750Y-90377000D01*
X135640000Y-90535750D01*
X135638715Y-90729999D01*
X134887620Y-90729999D01*
X134701037Y-90748376D01*
X134461641Y-90820996D01*
X134241012Y-90938924D01*
X134047630Y-91097629D01*
X133888925Y-91291011D01*
X133770997Y-91511640D01*
X133698377Y-91751036D01*
X133691380Y-91822078D01*
X133684463Y-91830506D01*
X133625498Y-91940820D01*
X133589188Y-92060518D01*
X133576928Y-92185000D01*
X133576928Y-92665000D01*
X133585540Y-92752437D01*
X133580000Y-92803250D01*
X133599184Y-92822434D01*
X133625498Y-92909180D01*
X133684463Y-93019494D01*
X133730059Y-93075053D01*
X133689869Y-93122545D01*
X133629248Y-93231958D01*
X133598419Y-93328331D01*
X133580000Y-93346750D01*
X133585805Y-93400000D01*
X133580000Y-93453250D01*
X133598419Y-93471669D01*
X133629248Y-93568042D01*
X133689869Y-93677455D01*
X133730059Y-93724947D01*
X133684463Y-93780506D01*
X133625498Y-93890820D01*
X133599184Y-93977566D01*
X133580000Y-93996750D01*
X133585540Y-94047563D01*
X133576928Y-94135000D01*
X133576928Y-94615000D01*
X133579455Y-94640653D01*
X133501037Y-94648377D01*
X133261641Y-94720997D01*
X133041012Y-94838925D01*
X132933610Y-94927068D01*
X132905820Y-94935498D01*
X132800000Y-94992061D01*
X132740987Y-94960517D01*
X132661075Y-94811012D01*
X132502370Y-94617630D01*
X132453909Y-94577859D01*
X132023072Y-94147022D01*
X132023072Y-94135000D01*
X132014701Y-94050000D01*
X132023072Y-93965000D01*
X132023072Y-93485000D01*
X132014701Y-93400000D01*
X132023072Y-93315000D01*
X132023072Y-92835000D01*
X132014460Y-92747563D01*
X132020000Y-92696750D01*
X132000816Y-92677566D01*
X131974502Y-92590820D01*
X131915537Y-92480506D01*
X131836185Y-92383815D01*
X131748678Y-92312000D01*
X131861250Y-92312000D01*
X132020000Y-92153250D01*
X132008863Y-92051094D01*
X131970752Y-91931958D01*
X131910131Y-91822545D01*
X131829329Y-91727062D01*
X131731452Y-91649177D01*
X131620261Y-91591883D01*
X131500029Y-91557382D01*
X131375377Y-91547001D01*
X130935750Y-91550000D01*
X130777000Y-91708750D01*
X130777000Y-92196928D01*
X130523000Y-92196928D01*
X130523000Y-91708750D01*
X130364250Y-91550000D01*
X129938072Y-91547093D01*
X129938072Y-91500000D01*
X129925812Y-91375518D01*
X129889502Y-91255820D01*
X129830537Y-91145506D01*
X129751185Y-91048815D01*
X129654494Y-90969463D01*
X129544180Y-90910498D01*
X129424482Y-90874188D01*
X129300000Y-90861928D01*
X127700000Y-90861928D01*
X127662183Y-90865653D01*
X127660000Y-90535750D01*
X127501250Y-90377000D01*
X126527000Y-90377000D01*
X126527000Y-90397000D01*
X126273000Y-90397000D01*
X126273000Y-90377000D01*
X125298750Y-90377000D01*
X125140000Y-90535750D01*
X125137842Y-90861928D01*
X123600000Y-90861928D01*
X123475518Y-90874188D01*
X123355820Y-90910498D01*
X123245506Y-90969463D01*
X123148815Y-91048815D01*
X123069463Y-91145506D01*
X123026203Y-91226438D01*
X122999999Y-91223857D01*
X122937626Y-91230000D01*
X122937620Y-91230000D01*
X122776755Y-91245844D01*
X122751036Y-91248377D01*
X122678416Y-91270406D01*
X122511641Y-91320997D01*
X122291012Y-91438925D01*
X122097630Y-91597630D01*
X122057859Y-91646091D01*
X121680226Y-92023724D01*
X121675518Y-92024188D01*
X121555820Y-92060498D01*
X121445506Y-92119463D01*
X121348815Y-92198815D01*
X121300000Y-92258296D01*
X121251185Y-92198815D01*
X121154494Y-92119463D01*
X121044180Y-92060498D01*
X120924482Y-92024188D01*
X120871686Y-92018988D01*
X120688359Y-91920997D01*
X120448963Y-91848377D01*
X120200000Y-91823856D01*
X119951037Y-91848377D01*
X119711641Y-91920997D01*
X119528313Y-92018988D01*
X119475518Y-92024188D01*
X119355820Y-92060498D01*
X119245506Y-92119463D01*
X119148815Y-92198815D01*
X119069463Y-92295506D01*
X119010498Y-92405820D01*
X118974188Y-92525518D01*
X118973724Y-92530224D01*
X118406090Y-93097860D01*
X118357630Y-93137630D01*
X118198925Y-93331013D01*
X118080997Y-93551642D01*
X118034324Y-93705501D01*
X118008377Y-93791037D01*
X118005844Y-93816756D01*
X117990000Y-93977621D01*
X117990000Y-93977627D01*
X117983857Y-94040000D01*
X117990000Y-94102373D01*
X117990000Y-94927760D01*
X117984805Y-94935534D01*
X117915178Y-94818645D01*
X117720269Y-94602412D01*
X117486920Y-94428359D01*
X117224099Y-94303175D01*
X117076890Y-94258524D01*
X116847000Y-94379845D01*
X116847000Y-95573000D01*
X116867000Y-95573000D01*
X116867000Y-95827000D01*
X116847000Y-95827000D01*
X116847000Y-97020155D01*
X117076890Y-97141476D01*
X117224099Y-97096825D01*
X117486920Y-96971641D01*
X117720269Y-96797588D01*
X117915178Y-96581355D01*
X117984805Y-96464466D01*
X118106525Y-96646632D01*
X118313368Y-96853475D01*
X118556589Y-97015990D01*
X118826842Y-97127932D01*
X119113740Y-97185000D01*
X119406260Y-97185000D01*
X119693158Y-97127932D01*
X119963411Y-97015990D01*
X120206632Y-96853475D01*
X120338487Y-96721620D01*
X120360498Y-96794180D01*
X120419463Y-96904494D01*
X120498815Y-97001185D01*
X120595506Y-97080537D01*
X120705820Y-97139502D01*
X120825518Y-97175812D01*
X120950000Y-97188072D01*
X122650000Y-97188072D01*
X122774482Y-97175812D01*
X122894180Y-97139502D01*
X123004494Y-97080537D01*
X123101185Y-97001185D01*
X123180537Y-96904494D01*
X123239502Y-96794180D01*
X123275812Y-96674482D01*
X123288072Y-96550000D01*
X123288072Y-95600000D01*
X123361928Y-95600000D01*
X123365000Y-96114250D01*
X123523750Y-96273000D01*
X124873000Y-96273000D01*
X124873000Y-95123750D01*
X125127000Y-95123750D01*
X125127000Y-96273000D01*
X126476250Y-96273000D01*
X126635000Y-96114250D01*
X126638072Y-95600000D01*
X126625812Y-95475518D01*
X126596235Y-95378015D01*
X126623000Y-95351250D01*
X126623000Y-94627000D01*
X125673750Y-94627000D01*
X125515000Y-94785750D01*
X125511928Y-94875000D01*
X125520692Y-94963990D01*
X125285750Y-94965000D01*
X125127000Y-95123750D01*
X124873000Y-95123750D01*
X124714250Y-94965000D01*
X124000000Y-94961928D01*
X123875518Y-94974188D01*
X123755820Y-95010498D01*
X123645506Y-95069463D01*
X123548815Y-95148815D01*
X123469463Y-95245506D01*
X123410498Y-95355820D01*
X123374188Y-95475518D01*
X123361928Y-95600000D01*
X123288072Y-95600000D01*
X123288072Y-94850000D01*
X123275812Y-94725518D01*
X123239502Y-94605820D01*
X123180537Y-94495506D01*
X123101185Y-94398815D01*
X123070000Y-94373222D01*
X123070000Y-94226050D01*
X123119774Y-94176276D01*
X123124482Y-94175812D01*
X123244180Y-94139502D01*
X123346771Y-94084665D01*
X123355820Y-94089502D01*
X123475518Y-94125812D01*
X123600000Y-94138072D01*
X125200000Y-94138072D01*
X125324482Y-94125812D01*
X125444180Y-94089502D01*
X125487500Y-94066347D01*
X125516194Y-94081684D01*
X125511928Y-94125000D01*
X125515000Y-94214250D01*
X125673750Y-94373000D01*
X126623000Y-94373000D01*
X126623000Y-94353000D01*
X126877000Y-94353000D01*
X126877000Y-94373000D01*
X126897000Y-94373000D01*
X126897000Y-94627000D01*
X126877000Y-94627000D01*
X126877000Y-95351250D01*
X127035750Y-95510000D01*
X127350000Y-95513072D01*
X127370690Y-95511034D01*
X127361928Y-95600000D01*
X127361928Y-97200000D01*
X127374188Y-97324482D01*
X127410498Y-97444180D01*
X127469463Y-97554494D01*
X127548815Y-97651185D01*
X127645506Y-97730537D01*
X127755820Y-97789502D01*
X127875518Y-97825812D01*
X128000000Y-97838072D01*
X129961928Y-97838072D01*
X129961928Y-98315000D01*
X115685000Y-98315000D01*
X115685000Y-97200000D01*
X123361928Y-97200000D01*
X123374188Y-97324482D01*
X123410498Y-97444180D01*
X123469463Y-97554494D01*
X123548815Y-97651185D01*
X123645506Y-97730537D01*
X123755820Y-97789502D01*
X123875518Y-97825812D01*
X124000000Y-97838072D01*
X124714250Y-97835000D01*
X124873000Y-97676250D01*
X124873000Y-96527000D01*
X125127000Y-96527000D01*
X125127000Y-97676250D01*
X125285750Y-97835000D01*
X126000000Y-97838072D01*
X126124482Y-97825812D01*
X126244180Y-97789502D01*
X126354494Y-97730537D01*
X126451185Y-97651185D01*
X126530537Y-97554494D01*
X126589502Y-97444180D01*
X126625812Y-97324482D01*
X126638072Y-97200000D01*
X126635000Y-96685750D01*
X126476250Y-96527000D01*
X125127000Y-96527000D01*
X124873000Y-96527000D01*
X123523750Y-96527000D01*
X123365000Y-96685750D01*
X123361928Y-97200000D01*
X115685000Y-97200000D01*
X115685000Y-96759057D01*
X115719731Y-96797588D01*
X115953080Y-96971641D01*
X116215901Y-97096825D01*
X116363110Y-97141476D01*
X116593000Y-97020155D01*
X116593000Y-95827000D01*
X116573000Y-95827000D01*
X116573000Y-95573000D01*
X116593000Y-95573000D01*
X116593000Y-94379845D01*
X116363110Y-94258524D01*
X116215901Y-94303175D01*
X115953080Y-94428359D01*
X115719731Y-94602412D01*
X115685000Y-94640943D01*
X115685000Y-89500000D01*
X122961928Y-89500000D01*
X122974188Y-89624482D01*
X123010498Y-89744180D01*
X123069463Y-89854494D01*
X123148815Y-89951185D01*
X123245506Y-90030537D01*
X123355820Y-90089502D01*
X123475518Y-90125812D01*
X123600000Y-90138072D01*
X124114250Y-90135000D01*
X124273000Y-89976250D01*
X124273000Y-88627000D01*
X124527000Y-88627000D01*
X124527000Y-89976250D01*
X124685750Y-90135000D01*
X125200000Y-90138072D01*
X125324482Y-90125812D01*
X125333752Y-90123000D01*
X126273000Y-90123000D01*
X126273000Y-89023750D01*
X126527000Y-89023750D01*
X126527000Y-90123000D01*
X127501250Y-90123000D01*
X127516378Y-90107872D01*
X127575518Y-90125812D01*
X127700000Y-90138072D01*
X128214250Y-90135000D01*
X128373000Y-89976250D01*
X128373000Y-88627000D01*
X128627000Y-88627000D01*
X128627000Y-89976250D01*
X128785750Y-90135000D01*
X129300000Y-90138072D01*
X129424482Y-90125812D01*
X129544180Y-90089502D01*
X129654494Y-90030537D01*
X129751185Y-89951185D01*
X129830537Y-89854494D01*
X129889502Y-89744180D01*
X129925812Y-89624482D01*
X129938072Y-89500000D01*
X135636928Y-89500000D01*
X135640000Y-89964250D01*
X135798750Y-90123000D01*
X136773000Y-90123000D01*
X136773000Y-89023750D01*
X137027000Y-89023750D01*
X137027000Y-90123000D01*
X138673000Y-90123000D01*
X138673000Y-89023750D01*
X138927000Y-89023750D01*
X138927000Y-90123000D01*
X139901250Y-90123000D01*
X140060000Y-89964250D01*
X140063072Y-89500000D01*
X140050812Y-89375518D01*
X140014502Y-89255820D01*
X139955537Y-89145506D01*
X139876185Y-89048815D01*
X139779494Y-88969463D01*
X139669180Y-88910498D01*
X139549482Y-88874188D01*
X139425000Y-88861928D01*
X139085750Y-88865000D01*
X138927000Y-89023750D01*
X138673000Y-89023750D01*
X138514250Y-88865000D01*
X138175000Y-88861928D01*
X138050518Y-88874188D01*
X137930820Y-88910498D01*
X137850000Y-88953698D01*
X137769180Y-88910498D01*
X137649482Y-88874188D01*
X137525000Y-88861928D01*
X137185750Y-88865000D01*
X137027000Y-89023750D01*
X136773000Y-89023750D01*
X136614250Y-88865000D01*
X136275000Y-88861928D01*
X136150518Y-88874188D01*
X136030820Y-88910498D01*
X135920506Y-88969463D01*
X135823815Y-89048815D01*
X135744463Y-89145506D01*
X135685498Y-89255820D01*
X135649188Y-89375518D01*
X135636928Y-89500000D01*
X129938072Y-89500000D01*
X129935000Y-88785750D01*
X129776250Y-88627000D01*
X128627000Y-88627000D01*
X128373000Y-88627000D01*
X127223750Y-88627000D01*
X127065000Y-88785750D01*
X127064656Y-88865834D01*
X127025000Y-88861928D01*
X126685750Y-88865000D01*
X126527000Y-89023750D01*
X126273000Y-89023750D01*
X126114250Y-88865000D01*
X125835330Y-88862474D01*
X125835000Y-88785750D01*
X125676250Y-88627000D01*
X124527000Y-88627000D01*
X124273000Y-88627000D01*
X123123750Y-88627000D01*
X122965000Y-88785750D01*
X122961928Y-89500000D01*
X115685000Y-89500000D01*
X115685000Y-87685000D01*
X122962724Y-87685000D01*
X122965000Y-88214250D01*
G37*
X122965000Y-88214250D02*
X123123750Y-88373000D01*
X124273000Y-88373000D01*
X124273000Y-88353000D01*
X124527000Y-88353000D01*
X124527000Y-88373000D01*
X125676250Y-88373000D01*
X125835000Y-88214250D01*
X125837276Y-87685000D01*
X127062724Y-87685000D01*
X127065000Y-88214250D01*
X127223750Y-88373000D01*
X128373000Y-88373000D01*
X128373000Y-88353000D01*
X128627000Y-88353000D01*
X128627000Y-88373000D01*
X129776250Y-88373000D01*
X129935000Y-88214250D01*
X129937276Y-87685000D01*
X143315001Y-87685000D01*
X143315000Y-94818448D01*
X143120269Y-94602412D01*
X142886920Y-94428359D01*
X142624099Y-94303175D01*
X142476890Y-94258524D01*
X142247000Y-94379845D01*
X142247000Y-95573000D01*
X142267000Y-95573000D01*
X142267000Y-95827000D01*
X142247000Y-95827000D01*
X142247000Y-97020155D01*
X142476890Y-97141476D01*
X142624099Y-97096825D01*
X142886920Y-96971641D01*
X143120269Y-96797588D01*
X143315000Y-96581552D01*
X143315000Y-98315000D01*
X137238072Y-98315000D01*
X137238072Y-96900000D01*
X137225812Y-96775518D01*
X137189502Y-96655820D01*
X137130537Y-96545506D01*
X137051185Y-96448815D01*
X136954494Y-96369463D01*
X136870000Y-96324299D01*
X136870000Y-95512381D01*
X136876144Y-95450001D01*
X136851623Y-95201038D01*
X136779003Y-94961642D01*
X136768702Y-94942370D01*
X136661075Y-94741013D01*
X136502370Y-94547631D01*
X136453914Y-94507864D01*
X136323072Y-94377022D01*
X136323072Y-94138072D01*
X137525000Y-94138072D01*
X137649482Y-94125812D01*
X137769180Y-94089502D01*
X137850000Y-94046302D01*
X137930820Y-94089502D01*
X138050518Y-94125812D01*
X138175000Y-94138072D01*
X138310001Y-94138072D01*
X138310001Y-94373222D01*
X138278815Y-94398815D01*
X138199463Y-94495506D01*
X138140498Y-94605820D01*
X138104188Y-94725518D01*
X138091928Y-94850000D01*
X138091928Y-96550000D01*
X138104188Y-96674482D01*
X138140498Y-96794180D01*
X138199463Y-96904494D01*
X138278815Y-97001185D01*
X138375506Y-97080537D01*
X138485820Y-97139502D01*
X138605518Y-97175812D01*
X138730000Y-97188072D01*
X140430000Y-97188072D01*
X140554482Y-97175812D01*
X140674180Y-97139502D01*
X140784494Y-97080537D01*
X140881185Y-97001185D01*
X140960537Y-96904494D01*
X141019502Y-96794180D01*
X141043966Y-96713534D01*
X141119731Y-96797588D01*
X141353080Y-96971641D01*
X141615901Y-97096825D01*
X141763110Y-97141476D01*
X141993000Y-97020155D01*
X141993000Y-95827000D01*
X141973000Y-95827000D01*
X141973000Y-95573000D01*
X141993000Y-95573000D01*
X141993000Y-94379845D01*
X141763110Y-94258524D01*
X141615901Y-94303175D01*
X141353080Y-94428359D01*
X141119731Y-94602412D01*
X141043966Y-94686466D01*
X141019502Y-94605820D01*
X140960537Y-94495506D01*
X140881185Y-94398815D01*
X140850000Y-94373222D01*
X140850000Y-93592380D01*
X140856144Y-93530000D01*
X140831623Y-93281037D01*
X140759003Y-93041641D01*
X140715815Y-92960842D01*
X140641075Y-92821012D01*
X140482370Y-92627630D01*
X140433909Y-92587859D01*
X140063072Y-92217022D01*
X140063072Y-92000000D01*
X140050812Y-91875518D01*
X140014502Y-91755820D01*
X139955537Y-91645506D01*
X139876185Y-91548815D01*
X139816704Y-91500000D01*
X139876185Y-91451185D01*
X139955537Y-91354494D01*
X140014502Y-91244180D01*
X140050812Y-91124482D01*
X140063072Y-91000000D01*
X140060000Y-90535750D01*
X139901250Y-90377000D01*
X138927000Y-90377000D01*
X138927000Y-90397000D01*
X138673000Y-90397000D01*
X138673000Y-90377000D01*
X137027000Y-90377000D01*
X137027000Y-90397000D01*
X136773000Y-90397000D01*
X136773000Y-90377000D01*
X135798750Y-90377000D01*
X135640000Y-90535750D01*
X135638715Y-90729999D01*
X134887620Y-90729999D01*
X134701037Y-90748376D01*
X134461641Y-90820996D01*
X134241012Y-90938924D01*
X134047630Y-91097629D01*
X133888925Y-91291011D01*
X133770997Y-91511640D01*
X133698377Y-91751036D01*
X133691380Y-91822078D01*
X133684463Y-91830506D01*
X133625498Y-91940820D01*
X133589188Y-92060518D01*
X133576928Y-92185000D01*
X133576928Y-92665000D01*
X133585540Y-92752437D01*
X133580000Y-92803250D01*
X133599184Y-92822434D01*
X133625498Y-92909180D01*
X133684463Y-93019494D01*
X133730059Y-93075053D01*
X133689869Y-93122545D01*
X133629248Y-93231958D01*
X133598419Y-93328331D01*
X133580000Y-93346750D01*
X133585805Y-93400000D01*
X133580000Y-93453250D01*
X133598419Y-93471669D01*
X133629248Y-93568042D01*
X133689869Y-93677455D01*
X133730059Y-93724947D01*
X133684463Y-93780506D01*
X133625498Y-93890820D01*
X133599184Y-93977566D01*
X133580000Y-93996750D01*
X133585540Y-94047563D01*
X133576928Y-94135000D01*
X133576928Y-94615000D01*
X133579455Y-94640653D01*
X133501037Y-94648377D01*
X133261641Y-94720997D01*
X133041012Y-94838925D01*
X132933610Y-94927068D01*
X132905820Y-94935498D01*
X132800000Y-94992061D01*
X132740987Y-94960517D01*
X132661075Y-94811012D01*
X132502370Y-94617630D01*
X132453909Y-94577859D01*
X132023072Y-94147022D01*
X132023072Y-94135000D01*
X132014701Y-94050000D01*
X132023072Y-93965000D01*
X132023072Y-93485000D01*
X132014701Y-93400000D01*
X132023072Y-93315000D01*
X132023072Y-92835000D01*
X132014460Y-92747563D01*
X132020000Y-92696750D01*
X132000816Y-92677566D01*
X131974502Y-92590820D01*
X131915537Y-92480506D01*
X131836185Y-92383815D01*
X131748678Y-92312000D01*
X131861250Y-92312000D01*
X132020000Y-92153250D01*
X132008863Y-92051094D01*
X131970752Y-91931958D01*
X131910131Y-91822545D01*
X131829329Y-91727062D01*
X131731452Y-91649177D01*
X131620261Y-91591883D01*
X131500029Y-91557382D01*
X131375377Y-91547001D01*
X130935750Y-91550000D01*
X130777000Y-91708750D01*
X130777000Y-92196928D01*
X130523000Y-92196928D01*
X130523000Y-91708750D01*
X130364250Y-91550000D01*
X129938072Y-91547093D01*
X129938072Y-91500000D01*
X129925812Y-91375518D01*
X129889502Y-91255820D01*
X129830537Y-91145506D01*
X129751185Y-91048815D01*
X129654494Y-90969463D01*
X129544180Y-90910498D01*
X129424482Y-90874188D01*
X129300000Y-90861928D01*
X127700000Y-90861928D01*
X127662183Y-90865653D01*
X127660000Y-90535750D01*
X127501250Y-90377000D01*
X126527000Y-90377000D01*
X126527000Y-90397000D01*
X126273000Y-90397000D01*
X126273000Y-90377000D01*
X125298750Y-90377000D01*
X125140000Y-90535750D01*
X125137842Y-90861928D01*
X123600000Y-90861928D01*
X123475518Y-90874188D01*
X123355820Y-90910498D01*
X123245506Y-90969463D01*
X123148815Y-91048815D01*
X123069463Y-91145506D01*
X123026203Y-91226438D01*
X122999999Y-91223857D01*
X122937626Y-91230000D01*
X122937620Y-91230000D01*
X122776755Y-91245844D01*
X122751036Y-91248377D01*
X122678416Y-91270406D01*
X122511641Y-91320997D01*
X122291012Y-91438925D01*
X122097630Y-91597630D01*
X122057859Y-91646091D01*
X121680226Y-92023724D01*
X121675518Y-92024188D01*
X121555820Y-92060498D01*
X121445506Y-92119463D01*
X121348815Y-92198815D01*
X121300000Y-92258296D01*
X121251185Y-92198815D01*
X121154494Y-92119463D01*
X121044180Y-92060498D01*
X120924482Y-92024188D01*
X120871686Y-92018988D01*
X120688359Y-91920997D01*
X120448963Y-91848377D01*
X120200000Y-91823856D01*
X119951037Y-91848377D01*
X119711641Y-91920997D01*
X119528313Y-92018988D01*
X119475518Y-92024188D01*
X119355820Y-92060498D01*
X119245506Y-92119463D01*
X119148815Y-92198815D01*
X119069463Y-92295506D01*
X119010498Y-92405820D01*
X118974188Y-92525518D01*
X118973724Y-92530224D01*
X118406090Y-93097860D01*
X118357630Y-93137630D01*
X118198925Y-93331013D01*
X118080997Y-93551642D01*
X118034324Y-93705501D01*
X118008377Y-93791037D01*
X118005844Y-93816756D01*
X117990000Y-93977621D01*
X117990000Y-93977627D01*
X117983857Y-94040000D01*
X117990000Y-94102373D01*
X117990000Y-94927760D01*
X117984805Y-94935534D01*
X117915178Y-94818645D01*
X117720269Y-94602412D01*
X117486920Y-94428359D01*
X117224099Y-94303175D01*
X117076890Y-94258524D01*
X116847000Y-94379845D01*
X116847000Y-95573000D01*
X116867000Y-95573000D01*
X116867000Y-95827000D01*
X116847000Y-95827000D01*
X116847000Y-97020155D01*
X117076890Y-97141476D01*
X117224099Y-97096825D01*
X117486920Y-96971641D01*
X117720269Y-96797588D01*
X117915178Y-96581355D01*
X117984805Y-96464466D01*
X118106525Y-96646632D01*
X118313368Y-96853475D01*
X118556589Y-97015990D01*
X118826842Y-97127932D01*
X119113740Y-97185000D01*
X119406260Y-97185000D01*
X119693158Y-97127932D01*
X119963411Y-97015990D01*
X120206632Y-96853475D01*
X120338487Y-96721620D01*
X120360498Y-96794180D01*
X120419463Y-96904494D01*
X120498815Y-97001185D01*
X120595506Y-97080537D01*
X120705820Y-97139502D01*
X120825518Y-97175812D01*
X120950000Y-97188072D01*
X122650000Y-97188072D01*
X122774482Y-97175812D01*
X122894180Y-97139502D01*
X123004494Y-97080537D01*
X123101185Y-97001185D01*
X123180537Y-96904494D01*
X123239502Y-96794180D01*
X123275812Y-96674482D01*
X123288072Y-96550000D01*
X123288072Y-95600000D01*
X123361928Y-95600000D01*
X123365000Y-96114250D01*
X123523750Y-96273000D01*
X124873000Y-96273000D01*
X124873000Y-95123750D01*
X125127000Y-95123750D01*
X125127000Y-96273000D01*
X126476250Y-96273000D01*
X126635000Y-96114250D01*
X126638072Y-95600000D01*
X126625812Y-95475518D01*
X126596235Y-95378015D01*
X126623000Y-95351250D01*
X126623000Y-94627000D01*
X125673750Y-94627000D01*
X125515000Y-94785750D01*
X125511928Y-94875000D01*
X125520692Y-94963990D01*
X125285750Y-94965000D01*
X125127000Y-95123750D01*
X124873000Y-95123750D01*
X124714250Y-94965000D01*
X124000000Y-94961928D01*
X123875518Y-94974188D01*
X123755820Y-95010498D01*
X123645506Y-95069463D01*
X123548815Y-95148815D01*
X123469463Y-95245506D01*
X123410498Y-95355820D01*
X123374188Y-95475518D01*
X123361928Y-95600000D01*
X123288072Y-95600000D01*
X123288072Y-94850000D01*
X123275812Y-94725518D01*
X123239502Y-94605820D01*
X123180537Y-94495506D01*
X123101185Y-94398815D01*
X123070000Y-94373222D01*
X123070000Y-94226050D01*
X123119774Y-94176276D01*
X123124482Y-94175812D01*
X123244180Y-94139502D01*
X123346771Y-94084665D01*
X123355820Y-94089502D01*
X123475518Y-94125812D01*
X123600000Y-94138072D01*
X125200000Y-94138072D01*
X125324482Y-94125812D01*
X125444180Y-94089502D01*
X125487500Y-94066347D01*
X125516194Y-94081684D01*
X125511928Y-94125000D01*
X125515000Y-94214250D01*
X125673750Y-94373000D01*
X126623000Y-94373000D01*
X126623000Y-94353000D01*
X126877000Y-94353000D01*
X126877000Y-94373000D01*
X126897000Y-94373000D01*
X126897000Y-94627000D01*
X126877000Y-94627000D01*
X126877000Y-95351250D01*
X127035750Y-95510000D01*
X127350000Y-95513072D01*
X127370690Y-95511034D01*
X127361928Y-95600000D01*
X127361928Y-97200000D01*
X127374188Y-97324482D01*
X127410498Y-97444180D01*
X127469463Y-97554494D01*
X127548815Y-97651185D01*
X127645506Y-97730537D01*
X127755820Y-97789502D01*
X127875518Y-97825812D01*
X128000000Y-97838072D01*
X129961928Y-97838072D01*
X129961928Y-98315000D01*
X115685000Y-98315000D01*
X115685000Y-97200000D01*
X123361928Y-97200000D01*
X123374188Y-97324482D01*
X123410498Y-97444180D01*
X123469463Y-97554494D01*
X123548815Y-97651185D01*
X123645506Y-97730537D01*
X123755820Y-97789502D01*
X123875518Y-97825812D01*
X124000000Y-97838072D01*
X124714250Y-97835000D01*
X124873000Y-97676250D01*
X124873000Y-96527000D01*
X125127000Y-96527000D01*
X125127000Y-97676250D01*
X125285750Y-97835000D01*
X126000000Y-97838072D01*
X126124482Y-97825812D01*
X126244180Y-97789502D01*
X126354494Y-97730537D01*
X126451185Y-97651185D01*
X126530537Y-97554494D01*
X126589502Y-97444180D01*
X126625812Y-97324482D01*
X126638072Y-97200000D01*
X126635000Y-96685750D01*
X126476250Y-96527000D01*
X125127000Y-96527000D01*
X124873000Y-96527000D01*
X123523750Y-96527000D01*
X123365000Y-96685750D01*
X123361928Y-97200000D01*
X115685000Y-97200000D01*
X115685000Y-96759057D01*
X115719731Y-96797588D01*
X115953080Y-96971641D01*
X116215901Y-97096825D01*
X116363110Y-97141476D01*
X116593000Y-97020155D01*
X116593000Y-95827000D01*
X116573000Y-95827000D01*
X116573000Y-95573000D01*
X116593000Y-95573000D01*
X116593000Y-94379845D01*
X116363110Y-94258524D01*
X116215901Y-94303175D01*
X115953080Y-94428359D01*
X115719731Y-94602412D01*
X115685000Y-94640943D01*
X115685000Y-89500000D01*
X122961928Y-89500000D01*
X122974188Y-89624482D01*
X123010498Y-89744180D01*
X123069463Y-89854494D01*
X123148815Y-89951185D01*
X123245506Y-90030537D01*
X123355820Y-90089502D01*
X123475518Y-90125812D01*
X123600000Y-90138072D01*
X124114250Y-90135000D01*
X124273000Y-89976250D01*
X124273000Y-88627000D01*
X124527000Y-88627000D01*
X124527000Y-89976250D01*
X124685750Y-90135000D01*
X125200000Y-90138072D01*
X125324482Y-90125812D01*
X125333752Y-90123000D01*
X126273000Y-90123000D01*
X126273000Y-89023750D01*
X126527000Y-89023750D01*
X126527000Y-90123000D01*
X127501250Y-90123000D01*
X127516378Y-90107872D01*
X127575518Y-90125812D01*
X127700000Y-90138072D01*
X128214250Y-90135000D01*
X128373000Y-89976250D01*
X128373000Y-88627000D01*
X128627000Y-88627000D01*
X128627000Y-89976250D01*
X128785750Y-90135000D01*
X129300000Y-90138072D01*
X129424482Y-90125812D01*
X129544180Y-90089502D01*
X129654494Y-90030537D01*
X129751185Y-89951185D01*
X129830537Y-89854494D01*
X129889502Y-89744180D01*
X129925812Y-89624482D01*
X129938072Y-89500000D01*
X135636928Y-89500000D01*
X135640000Y-89964250D01*
X135798750Y-90123000D01*
X136773000Y-90123000D01*
X136773000Y-89023750D01*
X137027000Y-89023750D01*
X137027000Y-90123000D01*
X138673000Y-90123000D01*
X138673000Y-89023750D01*
X138927000Y-89023750D01*
X138927000Y-90123000D01*
X139901250Y-90123000D01*
X140060000Y-89964250D01*
X140063072Y-89500000D01*
X140050812Y-89375518D01*
X140014502Y-89255820D01*
X139955537Y-89145506D01*
X139876185Y-89048815D01*
X139779494Y-88969463D01*
X139669180Y-88910498D01*
X139549482Y-88874188D01*
X139425000Y-88861928D01*
X139085750Y-88865000D01*
X138927000Y-89023750D01*
X138673000Y-89023750D01*
X138514250Y-88865000D01*
X138175000Y-88861928D01*
X138050518Y-88874188D01*
X137930820Y-88910498D01*
X137850000Y-88953698D01*
X137769180Y-88910498D01*
X137649482Y-88874188D01*
X137525000Y-88861928D01*
X137185750Y-88865000D01*
X137027000Y-89023750D01*
X136773000Y-89023750D01*
X136614250Y-88865000D01*
X136275000Y-88861928D01*
X136150518Y-88874188D01*
X136030820Y-88910498D01*
X135920506Y-88969463D01*
X135823815Y-89048815D01*
X135744463Y-89145506D01*
X135685498Y-89255820D01*
X135649188Y-89375518D01*
X135636928Y-89500000D01*
X129938072Y-89500000D01*
X129935000Y-88785750D01*
X129776250Y-88627000D01*
X128627000Y-88627000D01*
X128373000Y-88627000D01*
X127223750Y-88627000D01*
X127065000Y-88785750D01*
X127064656Y-88865834D01*
X127025000Y-88861928D01*
X126685750Y-88865000D01*
X126527000Y-89023750D01*
X126273000Y-89023750D01*
X126114250Y-88865000D01*
X125835330Y-88862474D01*
X125835000Y-88785750D01*
X125676250Y-88627000D01*
X124527000Y-88627000D01*
X124273000Y-88627000D01*
X123123750Y-88627000D01*
X122965000Y-88785750D01*
X122961928Y-89500000D01*
X115685000Y-89500000D01*
X115685000Y-87685000D01*
X122962724Y-87685000D01*
X122965000Y-88214250D01*
M02*
