<?xml version="1.0" encoding="UTF-8" standalone="no"?>
<svg
   xmlns:dc="http://purl.org/dc/elements/1.1/"
   xmlns:cc="http://creativecommons.org/ns#"
   xmlns:rdf="http://www.w3.org/1999/02/22-rdf-syntax-ns#"
   xmlns:svg="http://www.w3.org/2000/svg"
   xmlns="http://www.w3.org/2000/svg"
   xmlns:sodipodi="http://sodipodi.sourceforge.net/DTD/sodipodi-0.dtd"
   xmlns:inkscape="http://www.inkscape.org/namespaces/inkscape"
   width="450mm"
   height="300mm"
   viewBox="0 0 450 300"
   version="1.1"
   id="svg8"
   inkscape:version="1.1-dev (bc69992, 2020-04-15)"
   sodipodi:docname="drawing2.svg">
  <defs
     id="defs2">
    <marker
       style="overflow:visible"
       refY="0.0"
       refX="0.0"
       orient="auto"
       id="DistanceX">
      <path
         id="path46"
         style="stroke:#000000; stroke-width:0.5"
         d="M 3,-3 L -3,3 M 0,-5 L  0,5" />
    </marker>
    <pattern
       y="0"
       x="0"
       height="8"
       width="8"
       patternUnits="userSpaceOnUse"
       id="Hatch">
      <path
         id="path49"
         linecap="square"
         stroke-width="0.25"
         stroke="#000000"
         d="M8 4 l-4,4" />
      <path
         id="path51"
         linecap="square"
         stroke-width="0.25"
         stroke="#000000"
         d="M6 2 l-4,4" />
      <path
         id="path53"
         linecap="square"
         stroke-width="0.25"
         stroke="#000000"
         d="M4 0 l-4,4" />
    </pattern>
    <symbol
       id="*MODEL_SPACE" />
    <symbol
       id="*PAPER_SPACE" />
    <marker
       style="overflow:visible"
       refY="0.0"
       refX="0.0"
       orient="auto"
       id="DistanceX-2">
      <path
         id="path85"
         style="stroke:#000000; stroke-width:0.5"
         d="M 3,-3 L -3,3 M 0,-5 L  0,5" />
    </marker>
    <pattern
       y="0"
       x="0"
       height="8"
       width="8"
       patternUnits="userSpaceOnUse"
       id="Hatch-2">
      <path
         id="path88"
         linecap="square"
         stroke-width="0.25"
         stroke="#000000"
         d="M8 4 l-4,4" />
      <path
         id="path90"
         linecap="square"
         stroke-width="0.25"
         stroke="#000000"
         d="M6 2 l-4,4" />
      <path
         id="path92"
         linecap="square"
         stroke-width="0.25"
         stroke="#000000"
         d="M4 0 l-4,4" />
    </pattern>
    <symbol
       id="*MODEL_SPACE-7" />
    <symbol
       id="*PAPER_SPACE-3" />
    <marker
       style="overflow:visible"
       refY="0.0"
       refX="0.0"
       orient="auto"
       id="DistanceX-7">
      <path
         id="path253"
         style="stroke:#000000; stroke-width:0.5"
         d="M 3,-3 L -3,3 M 0,-5 L  0,5" />
    </marker>
    <pattern
       y="0"
       x="0"
       height="8"
       width="8"
       patternUnits="userSpaceOnUse"
       id="Hatch-9">
      <path
         id="path256"
         linecap="square"
         stroke-width="0.25"
         stroke="#000000"
         d="M8 4 l-4,4" />
      <path
         id="path258"
         linecap="square"
         stroke-width="0.25"
         stroke="#000000"
         d="M6 2 l-4,4" />
      <path
         id="path260"
         linecap="square"
         stroke-width="0.25"
         stroke="#000000"
         d="M4 0 l-4,4" />
    </pattern>
    <symbol
       id="*MODEL_SPACE-0" />
    <symbol
       id="*PAPER_SPACE-2" />
    <marker
       style="overflow:visible"
       refY="0.0"
       refX="0.0"
       orient="auto"
       id="DistanceX-3">
      <path
         id="path289"
         style="stroke:#000000; stroke-width:0.5"
         d="M 3,-3 L -3,3 M 0,-5 L  0,5" />
    </marker>
    <pattern
       y="0"
       x="0"
       height="8"
       width="8"
       patternUnits="userSpaceOnUse"
       id="Hatch-99">
      <path
         id="path292"
         linecap="square"
         stroke-width="0.25"
         stroke="#000000"
         d="M8 4 l-4,4" />
      <path
         id="path294"
         linecap="square"
         stroke-width="0.25"
         stroke="#000000"
         d="M6 2 l-4,4" />
      <path
         id="path296"
         linecap="square"
         stroke-width="0.25"
         stroke="#000000"
         d="M4 0 l-4,4" />
    </pattern>
    <symbol
       id="*MODEL_SPACE-70" />
    <symbol
       id="*PAPER_SPACE-39" />
    <marker
       style="overflow:visible"
       refY="0.0"
       refX="0.0"
       orient="auto"
       id="DistanceX-8">
      <path
         id="path349"
         style="stroke:#000000; stroke-width:0.5"
         d="M 3,-3 L -3,3 M 0,-5 L  0,5" />
    </marker>
    <pattern
       y="0"
       x="0"
       height="8"
       width="8"
       patternUnits="userSpaceOnUse"
       id="Hatch-6">
      <path
         id="path352"
         linecap="square"
         stroke-width="0.25"
         stroke="#000000"
         d="M8 4 l-4,4" />
      <path
         id="path354"
         linecap="square"
         stroke-width="0.25"
         stroke="#000000"
         d="M6 2 l-4,4" />
      <path
         id="path356"
         linecap="square"
         stroke-width="0.25"
         stroke="#000000"
         d="M4 0 l-4,4" />
    </pattern>
    <symbol
       id="*MODEL_SPACE-5" />
    <symbol
       id="*PAPER_SPACE-7" />
    <marker
       style="overflow:visible"
       refY="0.0"
       refX="0.0"
       orient="auto"
       id="DistanceX-6">
      <path
         id="path400"
         style="stroke:#000000; stroke-width:0.5"
         d="M 3,-3 L -3,3 M 0,-5 L  0,5" />
    </marker>
    <pattern
       y="0"
       x="0"
       height="8"
       width="8"
       patternUnits="userSpaceOnUse"
       id="Hatch-27">
      <path
         id="path403"
         linecap="square"
         stroke-width="0.25"
         stroke="#000000"
         d="M8 4 l-4,4" />
      <path
         id="path405"
         linecap="square"
         stroke-width="0.25"
         stroke="#000000"
         d="M6 2 l-4,4" />
      <path
         id="path407"
         linecap="square"
         stroke-width="0.25"
         stroke="#000000"
         d="M4 0 l-4,4" />
    </pattern>
    <symbol
       id="*MODEL_SPACE-03" />
    <symbol
       id="*PAPER_SPACE-9" />
    <marker
       style="overflow:visible"
       refY="0.0"
       refX="0.0"
       orient="auto"
       id="DistanceX-9">
      <path
         id="path436"
         style="stroke:#000000; stroke-width:0.5"
         d="M 3,-3 L -3,3 M 0,-5 L  0,5" />
    </marker>
    <pattern
       y="0"
       x="0"
       height="8"
       width="8"
       patternUnits="userSpaceOnUse"
       id="Hatch-91">
      <path
         id="path439"
         linecap="square"
         stroke-width="0.25"
         stroke="#000000"
         d="M8 4 l-4,4" />
      <path
         id="path441"
         linecap="square"
         stroke-width="0.25"
         stroke="#000000"
         d="M6 2 l-4,4" />
      <path
         id="path443"
         linecap="square"
         stroke-width="0.25"
         stroke="#000000"
         d="M4 0 l-4,4" />
    </pattern>
    <symbol
       id="*MODEL_SPACE-72" />
    <symbol
       id="*PAPER_SPACE-36" />
    <marker
       style="overflow:visible"
       refY="0.0"
       refX="0.0"
       orient="auto"
       id="DistanceX-5">
      <path
         id="path502"
         style="stroke:#000000; stroke-width:0.5"
         d="M 3,-3 L -3,3 M 0,-5 L  0,5" />
    </marker>
    <pattern
       y="0"
       x="0"
       height="8"
       width="8"
       patternUnits="userSpaceOnUse"
       id="Hatch-5">
      <path
         id="path505"
         linecap="square"
         stroke-width="0.25"
         stroke="#000000"
         d="M8 4 l-4,4" />
      <path
         id="path507"
         linecap="square"
         stroke-width="0.25"
         stroke="#000000"
         d="M6 2 l-4,4" />
      <path
         id="path509"
         linecap="square"
         stroke-width="0.25"
         stroke="#000000"
         d="M4 0 l-4,4" />
    </pattern>
    <symbol
       id="*MODEL_SPACE-8" />
    <symbol
       id="*PAPER_SPACE-1" />
    <marker
       style="overflow:visible"
       refY="0.0"
       refX="0.0"
       orient="auto"
       id="DistanceX-4">
      <path
         id="path541"
         style="stroke:#000000; stroke-width:0.5"
         d="M 3,-3 L -3,3 M 0,-5 L  0,5" />
    </marker>
    <pattern
       y="0"
       x="0"
       height="8"
       width="8"
       patternUnits="userSpaceOnUse"
       id="Hatch-7">
      <path
         id="path544"
         linecap="square"
         stroke-width="0.25"
         stroke="#000000"
         d="M8 4 l-4,4" />
      <path
         id="path546"
         linecap="square"
         stroke-width="0.25"
         stroke="#000000"
         d="M6 2 l-4,4" />
      <path
         id="path548"
         linecap="square"
         stroke-width="0.25"
         stroke="#000000"
         d="M4 0 l-4,4" />
    </pattern>
    <symbol
       id="*MODEL_SPACE-1" />
    <symbol
       id="*PAPER_SPACE-38" />
    <marker
       style="overflow:visible"
       refY="0.0"
       refX="0.0"
       orient="auto"
       id="DistanceX-48">
      <path
         id="path583"
         style="stroke:#000000; stroke-width:0.5"
         d="M 3,-3 L -3,3 M 0,-5 L  0,5" />
    </marker>
    <pattern
       y="0"
       x="0"
       height="8"
       width="8"
       patternUnits="userSpaceOnUse"
       id="Hatch-0">
      <path
         id="path586"
         linecap="square"
         stroke-width="0.25"
         stroke="#000000"
         d="M8 4 l-4,4" />
      <path
         id="path588"
         linecap="square"
         stroke-width="0.25"
         stroke="#000000"
         d="M6 2 l-4,4" />
      <path
         id="path590"
         linecap="square"
         stroke-width="0.25"
         stroke="#000000"
         d="M4 0 l-4,4" />
    </pattern>
    <symbol
       id="*MODEL_SPACE-4" />
    <symbol
       id="*PAPER_SPACE-6" />
    <marker
       style="overflow:visible"
       refY="0.0"
       refX="0.0"
       orient="auto"
       id="DistanceX-0">
      <path
         id="path676"
         style="stroke:#000000; stroke-width:0.5"
         d="M 3,-3 L -3,3 M 0,-5 L  0,5" />
    </marker>
    <pattern
       y="0"
       x="0"
       height="8"
       width="8"
       patternUnits="userSpaceOnUse"
       id="Hatch-3">
      <path
         id="path679"
         linecap="square"
         stroke-width="0.25"
         stroke="#000000"
         d="M8 4 l-4,4" />
      <path
         id="path681"
         linecap="square"
         stroke-width="0.25"
         stroke="#000000"
         d="M6 2 l-4,4" />
      <path
         id="path683"
         linecap="square"
         stroke-width="0.25"
         stroke="#000000"
         d="M4 0 l-4,4" />
    </pattern>
    <symbol
       id="*MODEL_SPACE-2" />
    <symbol
       id="*PAPER_SPACE-69" />
    <marker
       style="overflow:visible"
       refY="0.0"
       refX="0.0"
       orient="auto"
       id="DistanceX-41">
      <path
         id="path733"
         style="stroke:#000000; stroke-width:0.5"
         d="M 3,-3 L -3,3 M 0,-5 L  0,5" />
    </marker>
    <pattern
       y="0"
       x="0"
       height="8"
       width="8"
       patternUnits="userSpaceOnUse"
       id="Hatch-37">
      <path
         id="path736"
         linecap="square"
         stroke-width="0.25"
         stroke="#000000"
         d="M8 4 l-4,4" />
      <path
         id="path738"
         linecap="square"
         stroke-width="0.25"
         stroke="#000000"
         d="M6 2 l-4,4" />
      <path
         id="path740"
         linecap="square"
         stroke-width="0.25"
         stroke="#000000"
         d="M4 0 l-4,4" />
    </pattern>
    <symbol
       id="*MODEL_SPACE-88" />
    <symbol
       id="*PAPER_SPACE-381" />
    <marker
       style="overflow:visible"
       refY="0.0"
       refX="0.0"
       orient="auto"
       id="DistanceX-53">
      <path
         id="path781"
         style="stroke:#000000; stroke-width:0.5"
         d="M 3,-3 L -3,3 M 0,-5 L  0,5" />
    </marker>
    <pattern
       y="0"
       x="0"
       height="8"
       width="8"
       patternUnits="userSpaceOnUse"
       id="Hatch-54">
      <path
         id="path784"
         linecap="square"
         stroke-width="0.25"
         stroke="#000000"
         d="M8 4 l-4,4" />
      <path
         id="path786"
         linecap="square"
         stroke-width="0.25"
         stroke="#000000"
         d="M6 2 l-4,4" />
      <path
         id="path788"
         linecap="square"
         stroke-width="0.25"
         stroke="#000000"
         d="M4 0 l-4,4" />
    </pattern>
    <symbol
       id="*MODEL_SPACE-3" />
    <symbol
       id="*PAPER_SPACE-65" />
    <marker
       style="overflow:visible"
       refY="0.0"
       refX="0.0"
       orient="auto"
       id="DistanceX-95">
      <path
         id="path820"
         style="stroke:#000000; stroke-width:0.5"
         d="M 3,-3 L -3,3 M 0,-5 L  0,5" />
    </marker>
    <pattern
       y="0"
       x="0"
       height="8"
       width="8"
       patternUnits="userSpaceOnUse"
       id="Hatch-4">
      <path
         id="path823"
         linecap="square"
         stroke-width="0.25"
         stroke="#000000"
         d="M8 4 l-4,4" />
      <path
         id="path825"
         linecap="square"
         stroke-width="0.25"
         stroke="#000000"
         d="M6 2 l-4,4" />
      <path
         id="path827"
         linecap="square"
         stroke-width="0.25"
         stroke="#000000"
         d="M4 0 l-4,4" />
    </pattern>
    <symbol
       id="*MODEL_SPACE-9" />
    <symbol
       id="*PAPER_SPACE-17" />
  </defs>
  <sodipodi:namedview
     id="base"
     pagecolor="#ffffff"
     bordercolor="#666666"
     borderopacity="1.0"
     inkscape:pageopacity="0.0"
     inkscape:pageshadow="2"
     inkscape:zoom="0.22949272"
     inkscape:cx="220.31495"
     inkscape:cy="393.84833"
     inkscape:document-units="mm"
     inkscape:current-layer="layer1"
     showgrid="false"
     width="400mm"
     inkscape:window-width="1252"
     inkscape:window-height="847"
     inkscape:window-x="0"
     inkscape:window-y="25"
     inkscape:window-maximized="0" />
  <metadata
     id="metadata5">
    <rdf:RDF>
      <cc:Work
         rdf:about="">
        <dc:format>image/svg+xml</dc:format>
        <dc:type
           rdf:resource="http://purl.org/dc/dcmitype/StillImage" />
        <dc:title />
      </cc:Work>
    </rdf:RDF>
  </metadata>
  <g
     inkscape:label="Layer 1"
     inkscape:groupmode="layer"
     id="layer1">
    <g
       id="g64"
       inkscape:label="0"
       transform="matrix(0,0.26458333,-0.26458333,0,376.24854,23.121793)">
      <path
         id="path60"
         style="fill:none;stroke:#000000"
         d="m 498.32073,1169.726 h 67.20724 a 75.590551,75.590551 0 0 0 74.99768,-66.1417 37.795276,37.795276 0 0 1 75.29411,4.7244 v 70.8661 h 32.37592 v 47.2441 h -9.44882 v 75.5906 h 9.44882 v 47.244 H 611.70656 v 9.4489 H 498.32073 v -9.4489 H 233.7538 v 9.4489 H 120.36798 v -9.4489 H -18.897177 v -47.244 h 9.448819 v -75.5906 h -9.448819 v -47.2441 H 120.36798 v -9.4488 H 233.7538 v 9.4488 h 264.56693 z" />
      <path
         id="path62"
         style="fill:none;stroke:#000000"
         d="m 697.50372,1108.3087 a 19.47924,19.47924 0 1 0 -38.95848,0 19.47924,19.47924 0 1 0 38.95848,0 z" />
    </g>
    <path
       d="m 288.86235,84.097832 v 2.5 h 15.00002 v -2.5 h 15 v 2.5 h 15 v -2.5 h 7.49998 v 36.847198 h 2.50002 v 30 h -2.50002 v 70 h 2.50002 v 30 h -2.50002 v 36.11275 h -7.49998 v -2.5 h -15 v 2.5 h -15 v -2.5 h -15.00002 v 2.5 h -7.49998 v -36.11275 h -2.5 v -30 h 2.5 v -70 h -2.5 v -30 h 2.5 V 84.097832 Z"
       style="fill:none;stroke:#000000;stroke-width:0.264583"
       id="path267" />
    <g
       id="g321"
       inkscape:label="0"
       transform="matrix(-0.26458333,0,0,-0.26458333,305.0625,611.27791)">
      <path
         id="path303"
         style="fill:none;stroke:#000000"
         d="m 182.90637,1365.4794 a 18.897638,18.897638 0 0 1 -18.89764,-18.8976 v -60.466 a 18.897638,18.897638 0 0 1 18.89764,-18.8976 h 400.62992 a 18.897638,18.897638 0 0 1 18.89764,18.8976 v 60.466 a 18.897638,18.897638 0 0 1 -18.89764,18.8976 z" />
      <path
         id="path305"
         style="fill:none;stroke:#000000"
         d="m 595.81976,1286.1158 a 12.283465,12.283465 0 1 0 -24.56693,0 12.283465,12.283465 0 1 0 24.56693,0 z" />
      <path
         id="path307"
         style="fill:none;stroke:#000000"
         d="m 595.81976,1346.5818 a 12.283465,12.283465 0 1 0 -24.56693,0 12.283465,12.283465 0 1 0 24.56693,0 z" />
      <path
         id="path309"
         style="fill:none;stroke:#000000"
         d="m 195.18984,1286.1158 a 12.283465,12.283465 0 1 0 -24.56693,0 12.283465,12.283465 0 1 0 24.56693,0 z" />
      <path
         id="path311"
         style="fill:none;stroke:#000000"
         d="m 195.18984,1346.5818 a 12.283465,12.283465 0 1 0 -24.56693,0 12.283465,12.283465 0 1 0 24.56693,0 z" />
      <path
         id="path313"
         style="fill:none;stroke:#000000"
         d="m 559.34732,1280.4465 a 6.047245,6.047245 0 1 0 -12.09449,0 6.047245,6.047245 0 1 0 12.09449,0 z" />
      <path
         id="path315"
         style="fill:none;stroke:#000000"
         d="m 219.18984,1280.4465 a 6.047245,6.047245 0 1 0 -12.09449,0 6.047245,6.047245 0 1 0 12.09449,0 z" />
      <path
         id="path317"
         style="fill:none;stroke:#000000"
         d="m 559.34732,1352.2511 a 6.047245,6.047245 0 1 0 -12.09449,0 6.047245,6.047245 0 1 0 12.09449,0 z" />
      <path
         id="path319"
         style="fill:none;stroke:#000000"
         d="m 219.18984,1352.2511 a 6.047245,6.047245 0 1 0 -12.09449,0 6.047245,6.047245 0 1 0 12.09449,0 z" />
    </g>
    <g
       id="g375"
       inkscape:label="0"
       transform="matrix(0,0.26458333,-0.26458333,0,531.16939,122.43894)">
      <path
         id="path363"
         style="fill:none;stroke:#000000"
         d="m 406.75276,1160.2772 h 37.79527 v -9.4489 h -37.79527 z" />
      <path
         id="path365"
         style="fill:none;stroke:#000000"
         d="m -26.475591,1150.8283 v 9.4489 H 1.870866 v -9.4489 z" />
      <path
         id="path367"
         style="fill:none;stroke:#000000"
         d="m 9.411024,1203.3638 h -34.015748 a 3.779528,3.779528 0 0 0 -3.779528,3.7795 v 41.5748 a 3.779528,3.779528 0 0 0 3.779528,3.7795 H 9.411024 a 3.779528,3.779528 0 0 0 3.779527,-3.7795 v -41.5748 a 3.779528,3.779528 0 0 0 -3.779527,-3.7795 z" />
      <path
         id="path369"
         style="fill:none;stroke:#000000"
         d="m -48.017475,1179.1748 v -56.6929 H 55.640932 v -9.4488 H 169.02676 v 9.4488 h 94.48819 v -9.4488 h 113.38582 v 9.4488 h 88.96252 v 28.3464 h 9.44882 v 56.693 h -9.44882 v 56.6929 h 9.44882 v 56.6929 h -9.44882 v 28.3464 h -88.96252 v 9.4489 H 263.51495 v -9.4489 h -94.48819 v 9.4489 H 55.640932 v -9.4489 H -133.33545 v 9.4489 h -113.38582 v -9.4489 h -103.93701 v -47.244 h -9.44882 v -75.5906 h 9.44882 v -47.2441 h 103.93701 v -9.4488 h 113.38582 v 9.4488 z" />
      <path
         id="path371"
         style="fill:none;stroke:#000000"
         d="m 131.23148,1167.3449 v -9.4488 H 93.436208 v 9.4488 z" />
      <path
         id="path373"
         style="fill:none;stroke:#000000"
         d="m 339.1055,1167.3449 v -9.4488 h -37.79528 v 9.4488 z" />
    </g>
    <path
       d="m 250.57525,116.6606 v -2.5 h 3.74999 v 18 h 2.5 v 30 h -2.5 v 30 h 2.5 v 30 h -2.5 v 18 h -4.37532 v -2.5 h -5.00001 v 2.5 h -3.12468 v -18 h -2.49999 v -30 h 2.49999 v -30 h -2.49999 v -30 h 2.49999 v -18 h 3.75002 v 2.5 z"
       style="fill:none;stroke:#000000;stroke-width:0.264583"
       id="path414" />
    <g
       id="g472"
       inkscape:label="0"
       transform="matrix(0.26458333,0,0,0.26458333,185.46864,-91.866863)">
      <path
         id="path450"
         style="fill:none;stroke:#000000"
         d="m -568.04023,1393.8259 a 6.047245,6.047245 0 1 0 -12.09449,0 6.047245,6.047245 0 1 0 12.09449,0 z" />
      <path
         id="path452"
         style="fill:none;stroke:#000000"
         d="m -186.30795,1393.8259 a 6.047245,6.047245 0 1 0 -12.09449,0 6.047245,6.047245 0 1 0 12.09449,0 z" />
      <path
         id="path454"
         style="fill:none;stroke:#000000"
         d="m -568.04023,1238.8717 a 6.047245,6.047245 0 1 0 -12.09449,0 6.047245,6.047245 0 1 0 12.09449,0 z" />
      <path
         id="path456"
         style="fill:none;stroke:#000000"
         d="m -186.30795,1238.8717 a 6.047245,6.047245 0 1 0 -12.09449,0 6.047245,6.047245 0 1 0 12.09449,0 z" />
      <path
         id="path458"
         style="fill:none;stroke:#000000"
         d="m -164.00873,1346.5818 v -60.466 a 18.897638,18.897638 0 0 0 -18.89764,-18.8976 h -400.62992 a 18.897638,18.897638 0 0 0 -18.89764,18.8976 v 60.466 a 18.897638,18.897638 0 0 0 18.89764,18.8976 h 400.62992 a 18.897638,18.897638 0 0 0 18.89764,-18.8976 z" />
      <path
         id="path460"
         style="fill:none;stroke:#000000"
         d="m -154.55992,1225.6439 v 181.4098 h 9.44882 v -5.6656 h 18.89764 v 20.7842 a 18.897638,18.897638 0 0 1 -18.89764,18.8976 h -476.22047 a 18.897638,18.897638 0 0 1 -18.89764,-18.8976 v -211.6471 a 18.897638,18.897638 0 0 1 18.89764,-18.8976 h 476.22047 a 18.897638,18.897638 0 0 1 18.89764,18.8976 v 20.7842 h -18.89764 v -5.6655 z" />
      <path
         id="path462"
         style="fill:none;stroke:#000000"
         d="m -553.30007,1412.7235 v 9.4488 h 113.38582 v -9.4488 z" />
      <path
         id="path464"
         style="fill:none;stroke:#000000"
         d="m -326.52842,1412.7235 v 9.4488 h 113.38583 v -9.4488 z" />
      <path
         id="path466"
         style="fill:none;stroke:#000000"
         d="m -439.91425,1219.9741 v -9.4489 h -113.38582 v 9.4489 z" />
      <path
         id="path468"
         style="fill:none;stroke:#000000"
         d="m -213.14259,1219.9741 v -9.4489 h -113.38583 v 9.4489 z" />
      <path
         id="path470"
         style="fill:none;stroke:#000000"
         d="m -621.33157,1344.6952 h 9.44882 v -56.6929 h -9.44882 z" />
    </g>
    <g
       id="g637"
       inkscape:label="0"
       transform="matrix(0,-0.26458333,0.26458333,0,-217.77277,203.41314)">
      <path
         id="path597"
         style="fill:none;stroke:#000000"
         d="m 580.13472,1393.8259 a 6.047245,6.047245 0 1 0 -12.09449,0 6.047245,6.047245 0 1 0 12.09449,0 z" />
      <path
         id="path599"
         style="fill:none;stroke:#000000"
         d="m 198.40244,1393.8259 a 6.047245,6.047245 0 1 0 -12.09449,0 6.047245,6.047245 0 1 0 12.09449,0 z" />
      <path
         id="path601"
         style="fill:none;stroke:#000000"
         d="m 580.13472,1238.8717 a 6.047245,6.047245 0 1 0 -12.09449,0 6.047245,6.047245 0 1 0 12.09449,0 z" />
      <path
         id="path603"
         style="fill:none;stroke:#000000"
         d="m 198.40244,1238.8717 a 6.047245,6.047245 0 1 0 -12.09449,0 6.047245,6.047245 0 1 0 12.09449,0 z" />
      <path
         id="path605"
         style="fill:none;stroke:#000000"
         d="m 226.37094,1352.2511 a 13.228347,13.228347 0 1 0 -26.45669,0 13.228346,13.228346 0 1 0 26.45669,0 z" />
      <path
         id="path607"
         style="fill:none;stroke:#000000"
         d="m 566.52842,1352.2511 a 13.228346,13.228346 0 1 0 -26.45669,0 13.228347,13.228347 0 1 0 26.45669,0 z" />
      <path
         id="path609"
         style="fill:none;stroke:#000000"
         d="m 226.37094,1280.4465 a 13.228347,13.228347 0 1 0 -26.45669,0 13.228346,13.228346 0 1 0 26.45669,0 z" />
      <path
         id="path611"
         style="fill:none;stroke:#000000"
         d="m 566.52842,1280.4465 a 13.228346,13.228346 0 1 0 -26.45669,0 13.228347,13.228347 0 1 0 26.45669,0 z" />
      <path
         id="path613"
         style="fill:none;stroke:#000000"
         d="m 394.55992,1316.3488 a 11.338585,11.338585 0 1 0 -22.67717,0 11.338585,11.338585 0 1 0 22.67717,0 z" />
      <path
         id="path615"
         style="fill:none;stroke:#000000"
         d="m 69.520546,1189.7134 a 18.897638,18.897638 0 0 1 18.897638,-18.8976 h 65.461666 a 18.897638,18.897638 0 0 1 14.63115,6.9372 37.795276,37.795276 0 0 0 29.2623,13.8746 h 395.03562 a 18.897638,18.897638 0 0 0 16.95163,-10.5452 18.897638,18.897638 0 0 1 16.95164,-10.5452 h 32.41465 v -9.1703 a 18.89764,18.89764 0 0 1 37.79528,0 v 321.2599 a 18.89764,18.89764 0 0 1 -37.79528,0 v -9.4488 h -28.95299 a 18.897638,18.897638 0 0 1 -18.68247,-16.054 18.897638,18.897638 0 0 0 -18.68246,-16.0541 H 88.418184 a 18.897638,18.897638 0 0 1 -18.897638,-18.8976 z" />
      <path
         id="path617"
         style="fill:none;stroke:#000000"
         d="m 189.14259,1346.5818 a 6.2362205,6.2362205 0 1 0 -12.47244,0 6.2362205,6.2362205 0 1 0 12.47244,0 z" />
      <path
         id="path619"
         style="fill:none;stroke:#000000"
         d="m 589.58354,1346.5818 a 6.047245,6.047245 0 1 0 -12.09449,0 6.047245,6.047245 0 1 0 12.09449,0 z" />
      <path
         id="path621"
         style="fill:none;stroke:#000000"
         d="m 589.58354,1286.1158 a 6.047245,6.047245 0 1 0 -12.09449,0 6.047245,6.047245 0 1 0 12.09449,0 z" />
      <path
         id="path623"
         style="fill:none;stroke:#000000"
         d="m 188.95362,1286.1158 a 6.047245,6.047245 0 1 0 -12.09449,0 6.047245,6.047245 0 1 0 12.09449,0 z" />
      <path
         id="path625"
         style="fill:none;stroke:#000000"
         d="m 611.88275,1344.6952 h 9.44882 v -56.6929 h -9.44882 z" />
      <path
         id="path627"
         style="fill:none;stroke:#000000"
         d="m 145.1111,1344.6952 h 9.44882 v -56.6929 h -9.44882 z" />
      <path
         id="path629"
         style="fill:none;stroke:#000000"
         d="m 326.52842,1219.9741 v -9.4489 H 213.14259 v 9.4489 z" />
      <path
         id="path631"
         style="fill:none;stroke:#000000"
         d="m 553.30007,1219.9741 v -9.4489 H 439.91425 v 9.4489 z" />
      <path
         id="path633"
         style="fill:none;stroke:#000000"
         d="m 439.91425,1412.7235 v 9.4488 h 113.38582 v -9.4488 z" />
      <path
         id="path635"
         style="fill:none;stroke:#000000"
         d="m 213.14259,1412.7235 v 9.4488 h 113.38583 v -9.4488 z" />
    </g>
    <g
       id="g706"
       inkscape:label="0"
       transform="matrix(0,-0.26458333,0.26458333,0,-265.93866,201.41741)">
      <path
         id="path690"
         style="fill:none;stroke:#000000"
         d="m 209.65997,1261.8725 a 18.897638,18.897638 0 0 1 3.48262,-0.3236 h 340.15748 a 18.897638,18.897638 0 0 1 3.58642,0.3434 l 30.02851,5.6304 a 18.897638,18.897638 0 0 1 15.51893,18.5931 l -3e-5,60.466 a 18.897607,18.897607 0 0 1 -15.41499,18.5739 l -30.23622,5.6693 a 18.897638,18.897638 0 0 1 -3.48262,0.3237 H 213.14259 a 18.897638,18.897638 0 0 1 -3.58641,-0.3434 l -30.02852,-5.6304 a 18.897638,18.897638 0 0 1 -15.51893,-18.5931 l 4e-5,-60.466 a 18.897607,18.897607 0 0 1 15.41499,-18.5739 z" />
      <path
         id="path692"
         style="fill:none;stroke:#000000"
         d="m 589.77251,1286.1158 a 6.2362205,6.2362205 0 1 0 -12.47244,0 6.2362205,6.2362205 0 1 0 12.47244,0 z" />
      <path
         id="path694"
         style="fill:none;stroke:#000000"
         d="m 188.95362,1286.1158 a 6.047245,6.047245 0 1 0 -12.09449,0 6.047245,6.047245 0 1 0 12.09449,0 z" />
      <path
         id="path696"
         style="fill:none;stroke:#000000"
         d="m 564.67021,1287.2074 a 13.228346,13.228346 0 0 1 -0.0316,0.053 v -1.1443 a 18.897638,18.897638 0 0 0 0.0316,1.0916 z" />
      <path
         id="path698"
         style="fill:none;stroke:#000000"
         d="m 201.77246,1345.4902 a 13.228346,13.228346 0 0 1 0.0316,-0.053 v 1.1444 a 18.897638,18.897638 0 0 0 -0.0316,-1.0916 z" />
      <path
         id="path700"
         style="fill:none;stroke:#000000"
         d="m 189.14259,1346.5818 a 6.2362205,6.2362205 0 1 0 -12.47244,0 6.2362205,6.2362205 0 1 0 12.47244,0 z" />
      <path
         id="path702"
         style="fill:none;stroke:#000000"
         d="m 589.58354,1346.5818 a 6.047245,6.047245 0 1 0 -12.09449,0 6.047245,6.047245 0 1 0 12.09449,0 z" />
      <path
         id="path704"
         style="fill:none;stroke:#000000"
         d="m 364.3237,1327.2593 18.89763,10.9106 18.89763,-10.9106 v -21.8211 l -18.89763,-10.9105 -18.89763,10.9105 z" />
    </g>
    <g
       id="g757"
       inkscape:label="0"
       transform="matrix(-0.26458333,0,0,-0.26458333,317.4869,370.00895)">
      <path
         id="path747"
         style="fill:none;stroke:#000000"
         d="m -444.54803,1160.2772 h 37.79527 v -9.4489 h -37.79527 z" />
      <path
         id="path749"
         style="fill:none;stroke:#000000"
         d="m 26.475591,1160.2772 v -9.4489 H -1.870866 v 9.4489 z" />
      <path
         id="path751"
         style="fill:none;stroke:#000000"
         d="m -131.23148,1157.8961 v 9.4488 h 37.795272 v -9.4488 z" />
      <path
         id="path753"
         style="fill:none;stroke:#000000"
         d="m -301.31022,1167.3449 v -9.4488 h -37.79528 v 9.4488 z" />
      <path
         id="path755"
         style="fill:none;stroke:#000000"
         d="m 48.017475,1122.4819 v 56.6929 h 85.317975 v -9.4488 h 113.38582 v 9.4488 h 103.93701 v 47.2441 h 9.44882 v 75.5906 h -9.44882 v 47.244 H 246.72127 v 9.4489 H 133.33545 v -9.4489 H -55.640932 v 9.4489 H -169.02676 v -9.4489 h -94.48819 v 9.4489 h -113.38582 v -9.4489 h -88.96252 v -28.3464 h -9.44882 v -56.6929 h 9.44882 v -56.6929 h -9.44882 v -56.693 h 9.44882 v -28.3464 h 88.96252 v -9.4488 h 113.38582 v 9.4488 h 94.48819 v -9.4488 h 113.385828 v 9.4488 z" />
    </g>
    <g
       id="g799"
       inkscape:label="0"
       transform="matrix(0,-0.26458333,0.26458333,0,-34.185959,261.76074)">
      <path
         id="path795"
         style="fill:none;stroke:#000000"
         d="m 498.83087,1113.0331 h 139.88734 a 75.590551,75.590551 0 0 0 1.80744,-9.4488 37.795276,37.795276 0 0 1 75.29411,4.7244 v 14.1732 h 22.9271 v 47.2441 h -127.0403 v 9.4488 H 498.83087 v -9.4488 H 233.7538 v 9.4488 H 120.36798 v -9.4488 H -9.448358 v -47.2441 H 120.36798 v -9.4488 H 233.7538 v 9.4488 h 265.07707 z" />
      <path
         id="path797"
         style="fill:none;stroke:#000000"
         d="m 697.50372,1108.3087 a 19.47924,19.47924 0 1 0 -38.95848,0 19.47924,19.47924 0 1 0 38.95848,0 z" />
    </g>
    <g
       id="g870"
       inkscape:label="0"
       transform="matrix(0,-0.26458333,0.26458333,0,45.659405,280.27904)">
      <path
         id="path834"
         style="fill:none;stroke:#000000"
         d="m 126.11148,1346.5886 a 6.047245,6.047245 0 1 0 -12.09449,0 6.047245,6.047245 0 1 0 12.09449,0 z" />
      <path
         id="path836"
         style="fill:none;stroke:#000000"
         d="m 126.11076,1286.1114 a 6.047245,6.047245 0 1 0 -12.09449,0 6.047245,6.047245 0 1 0 12.09449,0 z" />
      <path
         id="path838"
         style="fill:none;stroke:#000000"
         d="m 670.46543,1227.5331 a 11.338585,11.338585 0 1 0 -22.67717,0 11.338585,11.338585 0 1 0 22.67717,0 z" />
      <path
         id="path840"
         style="fill:none;stroke:#000000"
         d="m 611.88275,1238.8717 a 18.897638,18.897638 0 1 0 -37.79527,0 18.897638,18.897638 0 1 0 37.79527,0 z" />
      <path
         id="path842"
         style="fill:none;stroke:#000000"
         d="m 192.35519,1393.8259 a 18.897638,18.897638 0 1 0 -37.79527,0 18.897638,18.897638 0 1 0 37.79527,0 z" />
      <path
         id="path844"
         style="fill:none;stroke:#000000"
         d="m 611.88275,1393.8259 a 18.897638,18.897638 0 1 0 -37.79527,0 18.897638,18.897638 0 1 0 37.79527,0 z" />
      <path
         id="path846"
         style="fill:none;stroke:#000000"
         d="m 192.35519,1238.8717 a 18.897638,18.897638 0 1 0 -37.79527,0 18.897638,18.897638 0 1 0 37.79527,0 z" />
      <path
         id="path848"
         style="fill:none;stroke:#000000"
         d="m 498.32073,1482.6268 h 217.49903 v -9.4488 H 498.32073 Z" />
      <path
         id="path850"
         style="fill:none;stroke:#000000"
         d="M 233.7538,1161.3669 H 120.36798 v 9.4489 H 233.7538 Z" />
      <path
         id="path852"
         style="fill:none;stroke:#000000"
         d="m 498.83087,1161.0883 v 9.4489 h 112.87569 v -9.4489 z" />
      <path
         id="path854"
         style="fill:none;stroke:#000000"
         d="m 725.89646,1454.2803 a 6.047245,6.047245 0 1 0 -12.09449,0 6.047245,6.047245 0 1 0 12.09449,0 z" />
      <path
         id="path856"
         style="fill:none;stroke:#000000"
         d="m 233.7538,1482.6268 v -9.4488 H 120.36798 v 9.4488 z" />
      <path
         id="path858"
         style="fill:none;stroke:#000000"
         d="m -18.897177,1255.8551 v 113.3859 h 9.448819 v -113.3859 z" />
      <path
         id="path860"
         style="fill:none;stroke:#000000"
         d="m 15.496523,1454.2803 a 6.047244,6.047244 0 1 0 -12.094488,0 6.047244,6.047244 0 1 0 12.094488,0 z" />
      <path
         id="path862"
         style="fill:none;stroke:#000000"
         d="m 738.74686,1255.8551 v 113.3859 h 9.44882 v -113.3859 z" />
      <path
         id="path864"
         style="fill:none;stroke:#000000"
         d="m 242.26818,1139.5276 a 6.047245,6.047245 0 1 0 -12.09449,0 6.047245,6.047245 0 1 0 12.09449,0 z" />
      <path
         id="path866"
         style="fill:none;stroke:#000000"
         d="M 523.63183,1255.8598 H 240.16726 a 1.889764,1.889764 0 0 0 -1.88976,1.8898 v 117.1654 a 1.889764,1.889764 0 0 0 1.88976,1.8897 h 283.46457 a 1.889764,1.889764 0 0 0 1.88976,-1.8897 v -117.1654 a 1.889764,1.889764 0 0 0 -1.88976,-1.8898 z" />
      <path
         id="path868"
         style="fill:none;stroke:#000000"
         d="m 289.91007,1150.5789 a 18.897638,18.897638 0 0 1 15.51574,-8.1096 h 414.42341 a 18.897638,18.897638 0 0 1 18.89764,18.8976 v 9.1703 h 9.44882 a 18.897638,18.897638 0 0 1 18.89763,18.8976 v 293.192 a 18.897638,18.897638 0 0 1 -18.89763,18.8976 H -18.897177 a 18.897638,18.897638 0 0 1 -18.897638,-18.8976 v -293.192 a 18.897638,18.897638 0 0 1 18.897638,-18.8976 h 9.448819 v -9.1703 A 18.897638,18.897638 0 0 1 9.449279,1142.4693 H 201.95882 a 18.897638,18.897638 0 0 0 17.13106,-10.9197 18.897638,18.897638 0 0 1 36.02728,8.2085 18.897638,18.897638 0 0 0 18.79983,19.1279 19.35874,19.35874 0 0 0 15.99308,-8.3071 z" />
    </g>
  </g>
</svg>
