<?xml version="1.0" encoding="UTF-8" standalone="no"?>
<svg
   xmlns:dc="http://purl.org/dc/elements/1.1/"
   xmlns:cc="http://creativecommons.org/ns#"
   xmlns:rdf="http://www.w3.org/1999/02/22-rdf-syntax-ns#"
   xmlns:svg="http://www.w3.org/2000/svg"
   xmlns="http://www.w3.org/2000/svg"
   xmlns:sodipodi="http://sodipodi.sourceforge.net/DTD/sodipodi-0.dtd"
   xmlns:inkscape="http://www.inkscape.org/namespaces/inkscape"
   sodipodi:docname="drawing.svg"
   inkscape:version="1.1-dev (bc69992, 2020-04-15)"
   id="svg8"
   version="1.1"
   viewBox="0 0 450 300"
   height="300mm"
   width="450mm">
  <defs
     id="defs2">
    <marker
       id="DistanceX"
       orient="auto"
       refX="0.0"
       refY="0.0"
       style="overflow:visible">
      <path
         d="M 3,-3 L -3,3 M 0,-5 L  0,5"
         style="stroke:#000000; stroke-width:0.5"
         id="path46" />
    </marker>
    <pattern
       id="Hatch"
       patternUnits="userSpaceOnUse"
       width="8"
       height="8"
       x="0"
       y="0">
      <path
         d="M8 4 l-4,4"
         stroke="#000000"
         stroke-width="0.25"
         linecap="square"
         id="path49" />
      <path
         d="M6 2 l-4,4"
         stroke="#000000"
         stroke-width="0.25"
         linecap="square"
         id="path51" />
      <path
         d="M4 0 l-4,4"
         stroke="#000000"
         stroke-width="0.25"
         linecap="square"
         id="path53" />
    </pattern>
    <symbol
       id="*MODEL_SPACE" />
    <symbol
       id="*PAPER_SPACE" />
    <marker
       id="DistanceX-2"
       orient="auto"
       refX="0.0"
       refY="0.0"
       style="overflow:visible">
      <path
         d="M 3,-3 L -3,3 M 0,-5 L  0,5"
         style="stroke:#000000; stroke-width:0.5"
         id="path85" />
    </marker>
    <pattern
       id="Hatch-2"
       patternUnits="userSpaceOnUse"
       width="8"
       height="8"
       x="0"
       y="0">
      <path
         d="M8 4 l-4,4"
         stroke="#000000"
         stroke-width="0.25"
         linecap="square"
         id="path88" />
      <path
         d="M6 2 l-4,4"
         stroke="#000000"
         stroke-width="0.25"
         linecap="square"
         id="path90" />
      <path
         d="M4 0 l-4,4"
         stroke="#000000"
         stroke-width="0.25"
         linecap="square"
         id="path92" />
    </pattern>
    <symbol
       id="*MODEL_SPACE-7" />
    <symbol
       id="*PAPER_SPACE-3" />
    <marker
       id="DistanceX-7"
       orient="auto"
       refX="0.0"
       refY="0.0"
       style="overflow:visible">
      <path
         d="M 3,-3 L -3,3 M 0,-5 L  0,5"
         style="stroke:#000000; stroke-width:0.5"
         id="path253" />
    </marker>
    <pattern
       id="Hatch-9"
       patternUnits="userSpaceOnUse"
       width="8"
       height="8"
       x="0"
       y="0">
      <path
         d="M8 4 l-4,4"
         stroke="#000000"
         stroke-width="0.25"
         linecap="square"
         id="path256" />
      <path
         d="M6 2 l-4,4"
         stroke="#000000"
         stroke-width="0.25"
         linecap="square"
         id="path258" />
      <path
         d="M4 0 l-4,4"
         stroke="#000000"
         stroke-width="0.25"
         linecap="square"
         id="path260" />
    </pattern>
    <symbol
       id="*MODEL_SPACE-0" />
    <symbol
       id="*PAPER_SPACE-2" />
    <marker
       id="DistanceX-3"
       orient="auto"
       refX="0.0"
       refY="0.0"
       style="overflow:visible">
      <path
         d="M 3,-3 L -3,3 M 0,-5 L  0,5"
         style="stroke:#000000; stroke-width:0.5"
         id="path289" />
    </marker>
    <pattern
       id="Hatch-99"
       patternUnits="userSpaceOnUse"
       width="8"
       height="8"
       x="0"
       y="0">
      <path
         d="M8 4 l-4,4"
         stroke="#000000"
         stroke-width="0.25"
         linecap="square"
         id="path292" />
      <path
         d="M6 2 l-4,4"
         stroke="#000000"
         stroke-width="0.25"
         linecap="square"
         id="path294" />
      <path
         d="M4 0 l-4,4"
         stroke="#000000"
         stroke-width="0.25"
         linecap="square"
         id="path296" />
    </pattern>
    <symbol
       id="*MODEL_SPACE-70" />
    <symbol
       id="*PAPER_SPACE-39" />
    <marker
       id="DistanceX-8"
       orient="auto"
       refX="0.0"
       refY="0.0"
       style="overflow:visible">
      <path
         d="M 3,-3 L -3,3 M 0,-5 L  0,5"
         style="stroke:#000000; stroke-width:0.5"
         id="path349" />
    </marker>
    <pattern
       id="Hatch-6"
       patternUnits="userSpaceOnUse"
       width="8"
       height="8"
       x="0"
       y="0">
      <path
         d="M8 4 l-4,4"
         stroke="#000000"
         stroke-width="0.25"
         linecap="square"
         id="path352" />
      <path
         d="M6 2 l-4,4"
         stroke="#000000"
         stroke-width="0.25"
         linecap="square"
         id="path354" />
      <path
         d="M4 0 l-4,4"
         stroke="#000000"
         stroke-width="0.25"
         linecap="square"
         id="path356" />
    </pattern>
    <symbol
       id="*MODEL_SPACE-5" />
    <symbol
       id="*PAPER_SPACE-7" />
    <marker
       id="DistanceX-6"
       orient="auto"
       refX="0.0"
       refY="0.0"
       style="overflow:visible">
      <path
         d="M 3,-3 L -3,3 M 0,-5 L  0,5"
         style="stroke:#000000; stroke-width:0.5"
         id="path400" />
    </marker>
    <pattern
       id="Hatch-27"
       patternUnits="userSpaceOnUse"
       width="8"
       height="8"
       x="0"
       y="0">
      <path
         d="M8 4 l-4,4"
         stroke="#000000"
         stroke-width="0.25"
         linecap="square"
         id="path403" />
      <path
         d="M6 2 l-4,4"
         stroke="#000000"
         stroke-width="0.25"
         linecap="square"
         id="path405" />
      <path
         d="M4 0 l-4,4"
         stroke="#000000"
         stroke-width="0.25"
         linecap="square"
         id="path407" />
    </pattern>
    <symbol
       id="*MODEL_SPACE-03" />
    <symbol
       id="*PAPER_SPACE-9" />
    <marker
       id="DistanceX-9"
       orient="auto"
       refX="0.0"
       refY="0.0"
       style="overflow:visible">
      <path
         d="M 3,-3 L -3,3 M 0,-5 L  0,5"
         style="stroke:#000000; stroke-width:0.5"
         id="path436" />
    </marker>
    <pattern
       id="Hatch-91"
       patternUnits="userSpaceOnUse"
       width="8"
       height="8"
       x="0"
       y="0">
      <path
         d="M8 4 l-4,4"
         stroke="#000000"
         stroke-width="0.25"
         linecap="square"
         id="path439" />
      <path
         d="M6 2 l-4,4"
         stroke="#000000"
         stroke-width="0.25"
         linecap="square"
         id="path441" />
      <path
         d="M4 0 l-4,4"
         stroke="#000000"
         stroke-width="0.25"
         linecap="square"
         id="path443" />
    </pattern>
    <symbol
       id="*MODEL_SPACE-72" />
    <symbol
       id="*PAPER_SPACE-36" />
    <marker
       id="DistanceX-5"
       orient="auto"
       refX="0.0"
       refY="0.0"
       style="overflow:visible">
      <path
         d="M 3,-3 L -3,3 M 0,-5 L  0,5"
         style="stroke:#000000; stroke-width:0.5"
         id="path502" />
    </marker>
    <pattern
       id="Hatch-5"
       patternUnits="userSpaceOnUse"
       width="8"
       height="8"
       x="0"
       y="0">
      <path
         d="M8 4 l-4,4"
         stroke="#000000"
         stroke-width="0.25"
         linecap="square"
         id="path505" />
      <path
         d="M6 2 l-4,4"
         stroke="#000000"
         stroke-width="0.25"
         linecap="square"
         id="path507" />
      <path
         d="M4 0 l-4,4"
         stroke="#000000"
         stroke-width="0.25"
         linecap="square"
         id="path509" />
    </pattern>
    <symbol
       id="*MODEL_SPACE-8" />
    <symbol
       id="*PAPER_SPACE-1" />
    <marker
       id="DistanceX-4"
       orient="auto"
       refX="0.0"
       refY="0.0"
       style="overflow:visible">
      <path
         d="M 3,-3 L -3,3 M 0,-5 L  0,5"
         style="stroke:#000000; stroke-width:0.5"
         id="path541" />
    </marker>
    <pattern
       id="Hatch-7"
       patternUnits="userSpaceOnUse"
       width="8"
       height="8"
       x="0"
       y="0">
      <path
         d="M8 4 l-4,4"
         stroke="#000000"
         stroke-width="0.25"
         linecap="square"
         id="path544" />
      <path
         d="M6 2 l-4,4"
         stroke="#000000"
         stroke-width="0.25"
         linecap="square"
         id="path546" />
      <path
         d="M4 0 l-4,4"
         stroke="#000000"
         stroke-width="0.25"
         linecap="square"
         id="path548" />
    </pattern>
    <symbol
       id="*MODEL_SPACE-1" />
    <symbol
       id="*PAPER_SPACE-38" />
    <marker
       id="DistanceX-48"
       orient="auto"
       refX="0.0"
       refY="0.0"
       style="overflow:visible">
      <path
         d="M 3,-3 L -3,3 M 0,-5 L  0,5"
         style="stroke:#000000; stroke-width:0.5"
         id="path583" />
    </marker>
    <pattern
       id="Hatch-0"
       patternUnits="userSpaceOnUse"
       width="8"
       height="8"
       x="0"
       y="0">
      <path
         d="M8 4 l-4,4"
         stroke="#000000"
         stroke-width="0.25"
         linecap="square"
         id="path586" />
      <path
         d="M6 2 l-4,4"
         stroke="#000000"
         stroke-width="0.25"
         linecap="square"
         id="path588" />
      <path
         d="M4 0 l-4,4"
         stroke="#000000"
         stroke-width="0.25"
         linecap="square"
         id="path590" />
    </pattern>
    <symbol
       id="*MODEL_SPACE-4" />
    <symbol
       id="*PAPER_SPACE-6" />
    <marker
       id="DistanceX-0"
       orient="auto"
       refX="0.0"
       refY="0.0"
       style="overflow:visible">
      <path
         d="M 3,-3 L -3,3 M 0,-5 L  0,5"
         style="stroke:#000000; stroke-width:0.5"
         id="path676" />
    </marker>
    <pattern
       id="Hatch-3"
       patternUnits="userSpaceOnUse"
       width="8"
       height="8"
       x="0"
       y="0">
      <path
         d="M8 4 l-4,4"
         stroke="#000000"
         stroke-width="0.25"
         linecap="square"
         id="path679" />
      <path
         d="M6 2 l-4,4"
         stroke="#000000"
         stroke-width="0.25"
         linecap="square"
         id="path681" />
      <path
         d="M4 0 l-4,4"
         stroke="#000000"
         stroke-width="0.25"
         linecap="square"
         id="path683" />
    </pattern>
    <symbol
       id="*MODEL_SPACE-2" />
    <symbol
       id="*PAPER_SPACE-69" />
    <marker
       id="DistanceX-41"
       orient="auto"
       refX="0.0"
       refY="0.0"
       style="overflow:visible">
      <path
         d="M 3,-3 L -3,3 M 0,-5 L  0,5"
         style="stroke:#000000; stroke-width:0.5"
         id="path733" />
    </marker>
    <pattern
       id="Hatch-37"
       patternUnits="userSpaceOnUse"
       width="8"
       height="8"
       x="0"
       y="0">
      <path
         d="M8 4 l-4,4"
         stroke="#000000"
         stroke-width="0.25"
         linecap="square"
         id="path736" />
      <path
         d="M6 2 l-4,4"
         stroke="#000000"
         stroke-width="0.25"
         linecap="square"
         id="path738" />
      <path
         d="M4 0 l-4,4"
         stroke="#000000"
         stroke-width="0.25"
         linecap="square"
         id="path740" />
    </pattern>
    <symbol
       id="*MODEL_SPACE-88" />
    <symbol
       id="*PAPER_SPACE-381" />
    <marker
       id="DistanceX-53"
       orient="auto"
       refX="0.0"
       refY="0.0"
       style="overflow:visible">
      <path
         d="M 3,-3 L -3,3 M 0,-5 L  0,5"
         style="stroke:#000000; stroke-width:0.5"
         id="path781" />
    </marker>
    <pattern
       id="Hatch-54"
       patternUnits="userSpaceOnUse"
       width="8"
       height="8"
       x="0"
       y="0">
      <path
         d="M8 4 l-4,4"
         stroke="#000000"
         stroke-width="0.25"
         linecap="square"
         id="path784" />
      <path
         d="M6 2 l-4,4"
         stroke="#000000"
         stroke-width="0.25"
         linecap="square"
         id="path786" />
      <path
         d="M4 0 l-4,4"
         stroke="#000000"
         stroke-width="0.25"
         linecap="square"
         id="path788" />
    </pattern>
    <symbol
       id="*MODEL_SPACE-3" />
    <symbol
       id="*PAPER_SPACE-65" />
    <marker
       id="DistanceX-95"
       orient="auto"
       refX="0.0"
       refY="0.0"
       style="overflow:visible">
      <path
         d="M 3,-3 L -3,3 M 0,-5 L  0,5"
         style="stroke:#000000; stroke-width:0.5"
         id="path820" />
    </marker>
    <pattern
       id="Hatch-4"
       patternUnits="userSpaceOnUse"
       width="8"
       height="8"
       x="0"
       y="0">
      <path
         d="M8 4 l-4,4"
         stroke="#000000"
         stroke-width="0.25"
         linecap="square"
         id="path823" />
      <path
         d="M6 2 l-4,4"
         stroke="#000000"
         stroke-width="0.25"
         linecap="square"
         id="path825" />
      <path
         d="M4 0 l-4,4"
         stroke="#000000"
         stroke-width="0.25"
         linecap="square"
         id="path827" />
    </pattern>
    <symbol
       id="*MODEL_SPACE-9" />
    <symbol
       id="*PAPER_SPACE-17" />
  </defs>
  <sodipodi:namedview
     inkscape:window-maximized="0"
     inkscape:window-y="25"
     inkscape:window-x="0"
     inkscape:window-height="847"
     inkscape:window-width="1252"
     width="400mm"
     showgrid="false"
     inkscape:current-layer="layer1"
     inkscape:document-units="mm"
     inkscape:cy="393.84833"
     inkscape:cx="220.31495"
     inkscape:zoom="0.22949272"
     inkscape:pageshadow="2"
     inkscape:pageopacity="0.0"
     borderopacity="1.0"
     bordercolor="#666666"
     pagecolor="#ffffff"
     id="base" />
  <metadata
     id="metadata5">
    <rdf:RDF>
      <cc:Work
         rdf:about="">
        <dc:format>image/svg+xml</dc:format>
        <dc:type
           rdf:resource="http://purl.org/dc/dcmitype/StillImage" />
        <dc:title></dc:title>
      </cc:Work>
    </rdf:RDF>
  </metadata>
  <g
     id="layer1"
     inkscape:groupmode="layer"
     inkscape:label="Layer 1">
    <g
       transform="matrix(0.26458333,0,0,0.26458333,213.52632,-152.25621)"
       inkscape:label="0"
       id="g189">
      <path
         d="m -676.0067,675.55337 a 6.047245,6.047245 0 1 0 -12.09449,0 6.047245,6.047245 0 1 0 12.09449,0 z"
         style="fill:none;stroke:#000000"
         id="path99" />
      <path
         d="m -41.197311,675.55337 a 6.047244,6.047244 0 1 0 -12.094488,0 6.047244,6.047244 0 1 0 12.094488,0 z"
         style="fill:none;stroke:#000000"
         id="path101" />
      <path
         d="m -554.3811,1350.7691 a 7.559055,7.559055 0 0 1 5.03811,-7.1263 7.559055,7.559055 0 0 0 5.03811,-7.1263 v -61.0771 a 7.559055,7.559055 0 0 0 -7.55906,-7.5591 h -41.87716 a 7.559055,7.559055 0 0 0 -7.55906,7.5591 v 68.6362 h 5.9e-4 v 72.0839 a 7.559055,7.559055 0 0 0 7.55906,7.5591 h 31.80035 a 7.559055,7.559055 0 0 0 7.55906,-7.5591 v -14.1878 a 22.677165,22.677165 0 0 0 -3.27588,-11.7407 11.338583,11.338583 0 0 1 0,-11.7407 22.677165,22.677165 0 0 0 3.27588,-11.7407 z"
         style="fill:none;stroke:#000000"
         id="path103" />
      <path
         d="m -646.94173,1224.7559 h 45.65669 a 7.559055,7.559055 0 0 0 7.55906,-7.559 v -45.6567 a 7.559055,7.559055 0 0 0 -7.55906,-7.5591 h -45.65669 a 7.559055,7.559055 0 0 0 -7.55906,7.5591 v 45.6567 a 7.559055,7.559055 0 0 0 7.55906,7.559 z"
         style="fill:none;stroke:#000000"
         id="path105" />
      <path
         d="m -230.17369,1139.5276 a 6.047245,6.047245 0 1 0 -12.09449,0 6.047245,6.047245 0 1 0 12.09449,0 z"
         style="fill:none;stroke:#000000"
         id="path107" />
      <path
         d="m -474.83636,1212.4069 a 6.047244,6.047244 0 1 0 -12.09448,0 6.047244,6.047244 0 1 0 12.09448,0 z"
         style="fill:none;stroke:#000000"
         id="path109" />
      <path
         d="m -370.21903,1420.2809 a 6.047245,6.047245 0 1 0 -12.09449,0 6.047245,6.047245 0 1 0 12.09449,0 z"
         style="fill:none;stroke:#000000"
         id="path111" />
      <path
         d="m -266.96234,1212.4069 a 6.047245,6.047245 0 1 0 -12.09449,0 6.047245,6.047245 0 1 0 12.09449,0 z"
         style="fill:none;stroke:#000000"
         id="path113" />
      <path
         d="m -396.67572,1420.2809 a 6.047245,6.047245 0 1 0 -12.09449,0 6.047245,6.047245 0 1 0 12.09449,0 z"
         style="fill:none;stroke:#000000"
         id="path115" />
      <path
         d="m -357.671,1212.4069 a 6.047245,6.047245 0 1 0 -12.09449,0 6.047245,6.047245 0 1 0 12.09449,0 z"
         style="fill:none;stroke:#000000"
         id="path117" />
      <path
         d="m -487.38439,1420.2809 a 6.047245,6.047245 0 1 0 -12.09449,0 6.047245,6.047245 0 1 0 12.09449,0 z"
         style="fill:none;stroke:#000000"
         id="path119" />
      <path
         d="m -279.51037,1420.2809 a 6.047245,6.047245 0 1 0 -12.09449,0 6.047245,6.047245 0 1 0 12.09449,0 z"
         style="fill:none;stroke:#000000"
         id="path121" />
      <path
         d="m -367.4503,1282.1315 a 54.80315,54.80315 0 0 1 -2.2183,-5.1034 6.047244,6.047244 0 0 1 -2.94368,-11.4887 54.80315,54.80315 0 1 1 97.06074,26.4342 54.80315,54.80315 0 0 1 2.2183,5.1034 6.047244,6.047244 0 0 1 2.94368,11.4887 54.80315,54.80315 0 0 1 -11.436,41.9905 54.80315,54.80315 0 0 1 2.2183,5.1034 6.047244,6.047244 0 0 1 2.94368,11.4888 54.80315,54.80315 0 1 1 -97.06074,-26.4342 54.80315,54.80315 0 0 1 -2.2183,-5.1034 6.047244,6.047244 0 0 1 -2.94368,-11.4888 54.80315,54.80315 0 0 1 11.436,-41.9905 z"
         style="fill:none;stroke:#000000"
         id="path123" />
      <path
         d="m -387.55491,1308.5657 a 54.80315,54.80315 0 0 1 -11.436,41.9905 54.80315,54.80315 0 0 1 2.2183,5.1034 6.047244,6.047244 0 0 1 2.94368,11.4888 54.80315,54.80315 0 1 1 -97.06074,-26.4342 54.80315,54.80315 0 0 1 -2.2183,-5.1034 6.047244,6.047244 0 0 1 -2.94368,-11.4888 54.80315,54.80315 0 0 1 11.436,-41.9905 54.80315,54.80315 0 0 1 -2.2183,-5.1034 6.047244,6.047244 0 0 1 -2.94369,-11.4887 54.80315,54.80315 0 1 1 97.06074,26.4342 54.80315,54.80315 0 0 1 2.2183,5.1034 6.047244,6.047244 0 0 1 2.94369,11.4887 z"
         style="fill:none;stroke:#000000"
         id="path125" />
      <path
         d="m -384.12769,1212.4069 a 6.047245,6.047245 0 1 0 -12.09449,0 6.047245,6.047245 0 1 0 12.09449,0 z"
         style="fill:none;stroke:#000000"
         id="path127" />
      <path
         d="m -267.9685,1139.5276 a 6.047245,6.047245 0 1 0 -12.09449,0 6.047245,6.047245 0 1 0 12.09449,0 z"
         style="fill:none;stroke:#000000"
         id="path129" />
      <path
         d="m -3.402035,1454.2803 a 6.047244,6.047244 0 1 0 -12.094488,0 6.047244,6.047244 0 1 0 12.094488,0 z"
         style="fill:none;stroke:#000000"
         id="path131" />
      <path
         d="m -713.80197,1454.2803 a 6.047245,6.047245 0 1 0 -12.09449,0 6.047245,6.047245 0 1 0 12.09449,0 z"
         style="fill:none;stroke:#000000"
         id="path133" />
      <path
         d="m 37.794815,1482.6268 a 18.897638,18.897638 0 0 1 -18.897638,18.8976 H -748.19568 a 18.897638,18.897638 0 0 1 -18.89763,-18.8976 V 647.20691 a 18.897638,18.897638 0 0 1 18.89763,-18.89763 H 18.897177 a 18.897638,18.897638 0 0 1 18.897638,18.89763 z"
         style="fill:none;stroke:#000000"
         id="path135" />
      <path
         d="m -748.19568,859.00474 h 9.44882 V 745.61891 h -9.44882 z"
         style="fill:none;stroke:#000000"
         id="path137" />
      <path
         d="m 9.448358,953.49293 v 113.38587 h 9.448819 V 953.49293 Z"
         style="fill:none;stroke:#000000"
         id="path139" />
      <path
         d="m -498.32073,1482.6268 v -9.4488 h -113.38583 v 9.4488 z"
         style="fill:none;stroke:#000000"
         id="path141" />
      <path
         d="m 9.448358,745.61891 v 113.38583 h 9.448819 V 745.61891 Z"
         style="fill:none;stroke:#000000"
         id="path143" />
      <path
         d="m -748.19568,1066.8788 h 9.44882 V 953.49293 h -9.44882 z"
         style="fill:none;stroke:#000000"
         id="path145" />
      <path
         d="m -611.70656,656.65573 h 113.38583 v -9.44882 h -113.38583 z"
         style="fill:none;stroke:#000000"
         id="path147" />
      <path
         d="m 9.448358,1255.8551 v 113.3859 h 9.448819 v -113.3859 z"
         style="fill:none;stroke:#000000"
         id="path149" />
      <path
         d="m -120.36798,1482.6268 v -9.4488 H -233.7538 v 9.4488 z"
         style="fill:none;stroke:#000000"
         id="path151" />
      <path
         d="m -233.7538,656.65573 h 113.38582 v -9.44882 H -233.7538 Z"
         style="fill:none;stroke:#000000"
         id="path153" />
      <path
         d="m -748.19568,1255.8551 v 113.3859 h 9.44882 v -113.3859 z"
         style="fill:none;stroke:#000000"
         id="path155" />
      <path
         d="m -521.12169,1280.4236 a 6.047245,6.047245 0 1 0 -12.09449,0 6.047245,6.047245 0 1 0 12.09449,0 z"
         style="fill:none;stroke:#000000"
         id="path157" />
      <path
         d="m -233.22649,1280.4342 a 6.047245,6.047245 0 1 0 -12.09449,0 6.047245,6.047245 0 1 0 12.09449,0 z"
         style="fill:none;stroke:#000000"
         id="path159" />
      <path
         d="m -213.80787,968.73071 a 6.047245,6.047245 0 1 0 -12.09449,0 6.047245,6.047245 0 1 0 12.09449,0 z"
         style="fill:none;stroke:#000000"
         id="path161" />
      <path
         d="m -319.63465,1068.8882 a 6.047244,6.047244 0 1 0 -12.09448,0 6.047244,6.047244 0 1 0 12.09448,0 z"
         style="fill:none;stroke:#000000"
         id="path163" />
      <path
         d="m -233.22649,1352.2452 a 6.047245,6.047245 0 1 0 -12.09449,0 6.047245,6.047245 0 1 0 12.09449,0 z"
         style="fill:none;stroke:#000000"
         id="path165" />
      <path
         d="m -521.12169,1352.2346 a 6.047245,6.047245 0 1 0 -12.09449,0 6.047245,6.047245 0 1 0 12.09449,0 z"
         style="fill:none;stroke:#000000"
         id="path167" />
      <path
         d="m -544.17681,1243.577 a 6.047244,6.047244 0 1 0 0,9.4413"
         style="fill:none;stroke:#000000"
         id="path169" />
      <path
         d="m -544.17681,1253.0183 a 6.047244,6.047244 0 1 0 0,-9.4413"
         style="fill:none;stroke:#000000"
         id="path171" />
      <path
         d="m -222.26689,1253.0183 a 6.047244,6.047244 0 1 0 0,-9.4413"
         style="fill:none;stroke:#000000"
         id="path173" />
      <path
         d="m -222.26689,1243.577 a 6.047244,6.047244 0 1 0 0,9.4413"
         style="fill:none;stroke:#000000"
         id="path175" />
      <path
         d="m -457.5874,968.73071 a 6.047245,6.047245 0 1 0 -12.09449,0 6.047245,6.047245 0 1 0 12.09449,0 z"
         style="fill:none;stroke:#000000"
         id="path177" />
      <path
         d="m -410.34331,1089.6756 a 6.047244,6.047244 0 1 0 -12.09448,0 6.047244,6.047244 0 1 0 12.09448,0 z"
         style="fill:none;stroke:#000000"
         id="path179" />
      <path
         d="m -222.26689,1389.0813 a 6.047244,6.047244 0 1 0 0,-9.4413"
         style="fill:none;stroke:#000000"
         id="path181" />
      <path
         d="m -222.26689,1379.64 a 6.047244,6.047244 0 1 0 0,9.4413"
         style="fill:none;stroke:#000000"
         id="path183" />
      <path
         d="m -544.17681,1379.64 a 6.047244,6.047244 0 1 0 0,9.4413"
         style="fill:none;stroke:#000000"
         id="path185" />
      <path
         d="m -544.17681,1389.0813 a 6.047244,6.047244 0 1 0 0,-9.4413"
         style="fill:none;stroke:#000000"
         id="path187" />
    </g>
    <g
       transform="matrix(0,-0.26458333,0.26458333,0,-204.10339,144.73618)"
       inkscape:label="0"
       id="g520">
      <path
         d="m -133.35989,1146.1039 a 11.338585,11.338585 0 1 0 -22.67717,0 11.338585,11.338585 0 1 0 22.67717,0 z"
         style="fill:none;stroke:#000000"
         id="path516" />
      <path
         d="m -290.20381,1113.0331 h 68.02826 v -9.4488 h 56.69291 v 9.4488 h 68.028261 v 14.1732 h 9.448819 v 18.8976 h -9.448819 v 14.1733 h -68.028261 v 9.4488 h -56.69291 v -9.4488 h -68.02826 v -11.8098 h -9.44882 v -18.8977 h 9.44882 z"
         style="fill:none;stroke:#000000"
         id="path518" />
    </g>
    <g
       transform="matrix(0,0.26458333,-0.26458333,0,429.11166,143.90948)"
       inkscape:label="0"
       id="g561">
      <path
         d="m 133.73473,1145.5107 a 6.047245,6.047245 0 1 0 -12.09449,0 6.047245,6.047245 0 1 0 12.09449,0 z"
         style="fill:none;stroke:#000000"
         id="path555" />
      <path
         d="m 266.01866,1145.5108 a 6.047244,6.047244 0 1 0 -12.09448,0 6.047244,6.047244 0 1 0 12.09448,0 z"
         style="fill:none;stroke:#000000"
         id="path557" />
      <path
         d="M 290.20381,1160.2772 H 284.534 v 9.4488 H 103.12421 v -9.4488 h -5.669831 v -16.5367 H 88.00556 v -18.8976 h 9.448819 v -11.8098 h 68.028261 v -9.4488 h 56.69291 v 9.4488 h 68.02826 v 14.1732 h 9.44882 v 18.8976 h -9.44882 z"
         style="fill:none;stroke:#000000"
         id="path559" />
    </g>
  </g>
</svg>
