<?xml version="1.0" encoding="UTF-8" standalone="no"?>
<svg
   xmlns:dc="http://purl.org/dc/elements/1.1/"
   xmlns:cc="http://creativecommons.org/ns#"
   xmlns:rdf="http://www.w3.org/1999/02/22-rdf-syntax-ns#"
   xmlns:svg="http://www.w3.org/2000/svg"
   xmlns="http://www.w3.org/2000/svg"
   xmlns:sodipodi="http://sodipodi.sourceforge.net/DTD/sodipodi-0.dtd"
   xmlns:inkscape="http://www.inkscape.org/namespaces/inkscape"
   sodipodi:docname="raspi.svg"
   inkscape:version="1.1-dev (bc69992, 2020-04-15)"
   id="svg8"
   version="1.1"
   viewBox="0 0 450 300"
   height="300mm"
   width="450mm">
  <defs
     id="defs2">
    <marker
       id="DistanceX"
       orient="auto"
       refX="0.0"
       refY="0.0"
       style="overflow:visible">
      <path
         d="M 3,-3 L -3,3 M 0,-5 L  0,5"
         style="stroke:#000000; stroke-width:0.5"
         id="path46" />
    </marker>
    <pattern
       id="Hatch"
       patternUnits="userSpaceOnUse"
       width="8"
       height="8"
       x="0"
       y="0">
      <path
         d="M8 4 l-4,4"
         stroke="#000000"
         stroke-width="0.25"
         linecap="square"
         id="path49" />
      <path
         d="M6 2 l-4,4"
         stroke="#000000"
         stroke-width="0.25"
         linecap="square"
         id="path51" />
      <path
         d="M4 0 l-4,4"
         stroke="#000000"
         stroke-width="0.25"
         linecap="square"
         id="path53" />
    </pattern>
    <symbol
       id="*MODEL_SPACE" />
    <symbol
       id="*PAPER_SPACE" />
    <marker
       id="DistanceX-3"
       orient="auto"
       refX="0.0"
       refY="0.0"
       style="overflow:visible">
      <path
         d="M 3,-3 L -3,3 M 0,-5 L  0,5"
         style="stroke:#000000; stroke-width:0.5"
         id="path115" />
    </marker>
    <pattern
       id="Hatch-9"
       patternUnits="userSpaceOnUse"
       width="8"
       height="8"
       x="0"
       y="0">
      <path
         d="M8 4 l-4,4"
         stroke="#000000"
         stroke-width="0.25"
         linecap="square"
         id="path118" />
      <path
         d="M6 2 l-4,4"
         stroke="#000000"
         stroke-width="0.25"
         linecap="square"
         id="path120" />
      <path
         d="M4 0 l-4,4"
         stroke="#000000"
         stroke-width="0.25"
         linecap="square"
         id="path122" />
    </pattern>
    <symbol
       id="*MODEL_SPACE-0" />
    <symbol
       id="*PAPER_SPACE-5" />
    <marker
       id="DistanceX-2"
       orient="auto"
       refX="0.0"
       refY="0.0"
       style="overflow:visible">
      <path
         d="M 3,-3 L -3,3 M 0,-5 L  0,5"
         style="stroke:#000000; stroke-width:0.5"
         id="path184" />
    </marker>
    <pattern
       id="Hatch-2"
       patternUnits="userSpaceOnUse"
       width="8"
       height="8"
       x="0"
       y="0">
      <path
         d="M8 4 l-4,4"
         stroke="#000000"
         stroke-width="0.25"
         linecap="square"
         id="path187" />
      <path
         d="M6 2 l-4,4"
         stroke="#000000"
         stroke-width="0.25"
         linecap="square"
         id="path189" />
      <path
         d="M4 0 l-4,4"
         stroke="#000000"
         stroke-width="0.25"
         linecap="square"
         id="path191" />
    </pattern>
    <symbol
       id="*MODEL_SPACE-7" />
    <symbol
       id="*PAPER_SPACE-3" />
    <marker
       id="DistanceX-7"
       orient="auto"
       refX="0.0"
       refY="0.0"
       style="overflow:visible">
      <path
         d="M 3,-3 L -3,3 M 0,-5 L  0,5"
         style="stroke:#000000; stroke-width:0.5"
         id="path220" />
    </marker>
    <pattern
       id="Hatch-90"
       patternUnits="userSpaceOnUse"
       width="8"
       height="8"
       x="0"
       y="0">
      <path
         d="M8 4 l-4,4"
         stroke="#000000"
         stroke-width="0.25"
         linecap="square"
         id="path223" />
      <path
         d="M6 2 l-4,4"
         stroke="#000000"
         stroke-width="0.25"
         linecap="square"
         id="path225" />
      <path
         d="M4 0 l-4,4"
         stroke="#000000"
         stroke-width="0.25"
         linecap="square"
         id="path227" />
    </pattern>
    <symbol
       id="*MODEL_SPACE-2" />
    <symbol
       id="*PAPER_SPACE-39" />
    <marker
       id="DistanceX-9"
       orient="auto"
       refX="0.0"
       refY="0.0"
       style="overflow:visible">
      <path
         d="M 3,-3 L -3,3 M 0,-5 L  0,5"
         style="stroke:#000000; stroke-width:0.5"
         id="path268" />
    </marker>
    <pattern
       id="Hatch-7"
       patternUnits="userSpaceOnUse"
       width="8"
       height="8"
       x="0"
       y="0">
      <path
         d="M8 4 l-4,4"
         stroke="#000000"
         stroke-width="0.25"
         linecap="square"
         id="path271" />
      <path
         d="M6 2 l-4,4"
         stroke="#000000"
         stroke-width="0.25"
         linecap="square"
         id="path273" />
      <path
         d="M4 0 l-4,4"
         stroke="#000000"
         stroke-width="0.25"
         linecap="square"
         id="path275" />
    </pattern>
    <symbol
       id="*MODEL_SPACE-03" />
    <symbol
       id="*PAPER_SPACE-9" />
    <marker
       id="DistanceX-8"
       orient="auto"
       refX="0.0"
       refY="0.0"
       style="overflow:visible">
      <path
         d="M 3,-3 L -3,3 M 0,-5 L  0,5"
         style="stroke:#000000; stroke-width:0.5"
         id="path307" />
    </marker>
    <pattern
       id="Hatch-6"
       patternUnits="userSpaceOnUse"
       width="8"
       height="8"
       x="0"
       y="0">
      <path
         d="M8 4 l-4,4"
         stroke="#000000"
         stroke-width="0.25"
         linecap="square"
         id="path310" />
      <path
         d="M6 2 l-4,4"
         stroke="#000000"
         stroke-width="0.25"
         linecap="square"
         id="path312" />
      <path
         d="M4 0 l-4,4"
         stroke="#000000"
         stroke-width="0.25"
         linecap="square"
         id="path314" />
    </pattern>
    <symbol
       id="*MODEL_SPACE-5" />
    <symbol
       id="*PAPER_SPACE-7" />
    <marker
       id="DistanceX-27"
       orient="auto"
       refX="0.0"
       refY="0.0"
       style="overflow:visible">
      <path
         d="M 3,-3 L -3,3 M 0,-5 L  0,5"
         style="stroke:#000000; stroke-width:0.5"
         id="path376" />
    </marker>
    <pattern
       id="Hatch-0"
       patternUnits="userSpaceOnUse"
       width="8"
       height="8"
       x="0"
       y="0">
      <path
         d="M8 4 l-4,4"
         stroke="#000000"
         stroke-width="0.25"
         linecap="square"
         id="path379" />
      <path
         d="M6 2 l-4,4"
         stroke="#000000"
         stroke-width="0.25"
         linecap="square"
         id="path381" />
      <path
         d="M4 0 l-4,4"
         stroke="#000000"
         stroke-width="0.25"
         linecap="square"
         id="path383" />
    </pattern>
    <symbol
       id="*MODEL_SPACE-3" />
    <symbol
       id="*PAPER_SPACE-99" />
    <marker
       id="DistanceX-1"
       orient="auto"
       refX="0.0"
       refY="0.0"
       style="overflow:visible">
      <path
         d="M 3,-3 L -3,3 M 0,-5 L  0,5"
         style="stroke:#000000; stroke-width:0.5"
         id="path464" />
    </marker>
    <pattern
       id="Hatch-76"
       patternUnits="userSpaceOnUse"
       width="8"
       height="8"
       x="0"
       y="0">
      <path
         d="M8 4 l-4,4"
         stroke="#000000"
         stroke-width="0.25"
         linecap="square"
         id="path467" />
      <path
         d="M6 2 l-4,4"
         stroke="#000000"
         stroke-width="0.25"
         linecap="square"
         id="path469" />
      <path
         d="M4 0 l-4,4"
         stroke="#000000"
         stroke-width="0.25"
         linecap="square"
         id="path471" />
    </pattern>
    <symbol
       id="*MODEL_SPACE-50" />
    <symbol
       id="*PAPER_SPACE-4" />
    <marker
       id="DistanceX-5"
       orient="auto"
       refX="0.0"
       refY="0.0"
       style="overflow:visible">
      <path
         d="M 3,-3 L -3,3 M 0,-5 L  0,5"
         style="stroke:#000000; stroke-width:0.5"
         id="path500" />
    </marker>
    <pattern
       id="Hatch-1"
       patternUnits="userSpaceOnUse"
       width="8"
       height="8"
       x="0"
       y="0">
      <path
         d="M8 4 l-4,4"
         stroke="#000000"
         stroke-width="0.25"
         linecap="square"
         id="path503" />
      <path
         d="M6 2 l-4,4"
         stroke="#000000"
         stroke-width="0.25"
         linecap="square"
         id="path505" />
      <path
         d="M4 0 l-4,4"
         stroke="#000000"
         stroke-width="0.25"
         linecap="square"
         id="path507" />
    </pattern>
    <symbol
       id="*MODEL_SPACE-23" />
    <symbol
       id="*PAPER_SPACE-72" />
    <marker
       id="DistanceX-4"
       orient="auto"
       refX="0.0"
       refY="0.0"
       style="overflow:visible">
      <path
         d="M 3,-3 L -3,3 M 0,-5 L  0,5"
         style="stroke:#000000; stroke-width:0.5"
         id="path539" />
    </marker>
    <pattern
       id="Hatch-18"
       patternUnits="userSpaceOnUse"
       width="8"
       height="8"
       x="0"
       y="0">
      <path
         d="M8 4 l-4,4"
         stroke="#000000"
         stroke-width="0.25"
         linecap="square"
         id="path542" />
      <path
         d="M6 2 l-4,4"
         stroke="#000000"
         stroke-width="0.25"
         linecap="square"
         id="path544" />
      <path
         d="M4 0 l-4,4"
         stroke="#000000"
         stroke-width="0.25"
         linecap="square"
         id="path546" />
    </pattern>
    <symbol
       id="*MODEL_SPACE-26" />
    <symbol
       id="*PAPER_SPACE-0" />
    <marker
       id="DistanceX-39"
       orient="auto"
       refX="0.0"
       refY="0.0"
       style="overflow:visible">
      <path
         d="M 3,-3 L -3,3 M 0,-5 L  0,5"
         style="stroke:#000000; stroke-width:0.5"
         id="path587" />
    </marker>
    <pattern
       id="Hatch-4"
       patternUnits="userSpaceOnUse"
       width="8"
       height="8"
       x="0"
       y="0">
      <path
         d="M8 4 l-4,4"
         stroke="#000000"
         stroke-width="0.25"
         linecap="square"
         id="path590" />
      <path
         d="M6 2 l-4,4"
         stroke="#000000"
         stroke-width="0.25"
         linecap="square"
         id="path592" />
      <path
         d="M4 0 l-4,4"
         stroke="#000000"
         stroke-width="0.25"
         linecap="square"
         id="path594" />
    </pattern>
    <symbol
       id="*MODEL_SPACE-9" />
    <symbol
       id="*PAPER_SPACE-6" />
    <marker
       id="DistanceX-51"
       orient="auto"
       refX="0.0"
       refY="0.0"
       style="overflow:visible">
      <path
         d="M 3,-3 L -3,3 M 0,-5 L  0,5"
         style="stroke:#000000; stroke-width:0.5"
         id="path656" />
    </marker>
    <pattern
       id="Hatch-3"
       patternUnits="userSpaceOnUse"
       width="8"
       height="8"
       x="0"
       y="0">
      <path
         d="M8 4 l-4,4"
         stroke="#000000"
         stroke-width="0.25"
         linecap="square"
         id="path659" />
      <path
         d="M6 2 l-4,4"
         stroke="#000000"
         stroke-width="0.25"
         linecap="square"
         id="path661" />
      <path
         d="M4 0 l-4,4"
         stroke="#000000"
         stroke-width="0.25"
         linecap="square"
         id="path663" />
    </pattern>
    <symbol
       id="*MODEL_SPACE-269" />
    <symbol
       id="*PAPER_SPACE-00" />
    <marker
       id="DistanceX-395"
       orient="auto"
       refX="0.0"
       refY="0.0"
       style="overflow:visible">
      <path
         d="M 3,-3 L -3,3 M 0,-5 L  0,5"
         style="stroke:#000000; stroke-width:0.5"
         id="path725" />
    </marker>
    <pattern
       id="Hatch-31"
       patternUnits="userSpaceOnUse"
       width="8"
       height="8"
       x="0"
       y="0">
      <path
         d="M8 4 l-4,4"
         stroke="#000000"
         stroke-width="0.25"
         linecap="square"
         id="path728" />
      <path
         d="M6 2 l-4,4"
         stroke="#000000"
         stroke-width="0.25"
         linecap="square"
         id="path730" />
      <path
         d="M4 0 l-4,4"
         stroke="#000000"
         stroke-width="0.25"
         linecap="square"
         id="path732" />
    </pattern>
    <symbol
       id="*MODEL_SPACE-1" />
    <symbol
       id="*PAPER_SPACE-2" />
    <marker
       id="DistanceX-6"
       orient="auto"
       refX="0.0"
       refY="0.0"
       style="overflow:visible">
      <path
         d="M 3,-3 L -3,3 M 0,-5 L  0,5"
         style="stroke:#000000; stroke-width:0.5"
         id="path785" />
    </marker>
    <pattern
       id="Hatch-91"
       patternUnits="userSpaceOnUse"
       width="8"
       height="8"
       x="0"
       y="0">
      <path
         d="M8 4 l-4,4"
         stroke="#000000"
         stroke-width="0.25"
         linecap="square"
         id="path788" />
      <path
         d="M6 2 l-4,4"
         stroke="#000000"
         stroke-width="0.25"
         linecap="square"
         id="path790" />
      <path
         d="M4 0 l-4,4"
         stroke="#000000"
         stroke-width="0.25"
         linecap="square"
         id="path792" />
    </pattern>
    <symbol
       id="*MODEL_SPACE-90" />
    <symbol
       id="*PAPER_SPACE-61" />
  </defs>
  <sodipodi:namedview
     inkscape:window-maximized="0"
     inkscape:window-y="25"
     inkscape:window-x="0"
     inkscape:window-height="847"
     inkscape:window-width="1252"
     width="450mm"
     showgrid="false"
     inkscape:current-layer="layer1"
     inkscape:document-units="mm"
     inkscape:cy="562.15834"
     inkscape:cx="469.29406"
     inkscape:zoom="0.78302932"
     inkscape:pageshadow="2"
     inkscape:pageopacity="0.0"
     borderopacity="1.0"
     bordercolor="#666666"
     pagecolor="#ffffff"
     id="base" />
  <metadata
     id="metadata5">
    <rdf:RDF>
      <cc:Work
         rdf:about="">
        <dc:format>image/svg+xml</dc:format>
        <dc:type
           rdf:resource="http://purl.org/dc/dcmitype/StillImage" />
        <dc:title></dc:title>
      </cc:Work>
    </rdf:RDF>
  </metadata>
  <g
     id="layer1"
     inkscape:groupmode="layer"
     inkscape:label="Layer 1">
    <path
       id="path478"
       style="fill:none;stroke:#000000;stroke-width:0.264583"
       d="m 209.26153,158.25523 v 80 h -36.84724 v 2.5 h -30 v -2.5 H 72.414247 v 2.5 h -30 v -2.5 H 6.301492 v -80 h 36.112755 v -2.49999 h 30 v 2.49999 h 70.000043 v -2.49999 h 30 v 2.49999 z" />
    <g
       transform="matrix(0.26458333,0,0,0.26458333,215.76915,-121.70069)"
       inkscape:label="0"
       id="g518">
      <path
         d="m 738.74686,1358.7024 v 66.1417 h -127.0403 v 9.4488 H 498.32073 v -9.4488 H 233.7538 v 9.4488 H 120.36798 v -9.4488 H -9.448358 v -66.1417 h -9.448819 v -113.3859 h 9.448819 v -66.1417 H 120.36798 v -9.4488 H 233.7538 v 9.4488 h 264.56693 v -9.4488 h 67.20724 a 75.590551,75.590551 0 0 0 74.99768,-66.1417 37.795276,37.795276 0 0 1 75.29411,4.7244 v 70.8661 h 22.9271 v 66.1417 h 9.44882 v 113.3859 z"
         style="fill:none;stroke:#000000"
         id="path514" />
      <path
         d="m 697.50372,1108.3087 a 19.47924,19.47924 0 1 0 -38.95848,0 19.47924,19.47924 0 1 0 38.95848,0 z"
         style="fill:none;stroke:#000000"
         id="path516" />
    </g>
    <g
       transform="matrix(-0.26458333,0,0,-0.26458333,321.22679,384.82819)"
       inkscape:label="0"
       id="g563">
      <path
         d="m -310.25513,1163.9433 v -9.4488 h -37.79528 v 9.4488 z"
         style="fill:none;stroke:#000000"
         id="path553" />
      <path
         d="m 382.78426,1245.3165 h -9.44881 v 113.3859 h 9.44881 v 66.1417 H 246.72127 v 9.4488 H 133.33545 v -9.4488 H -55.640932 v 9.4488 H -169.02676 v -9.4488 h -94.48819 v 9.4488 h -113.38582 v -9.4488 h -88.96252 v -37.7953 h -9.44882 v -75.5905 h 9.44882 v -75.5906 h -9.44882 v -75.5905 h 9.44882 v -37.7953 h 88.96252 v -9.4488 h 113.38582 v 9.4488 h 94.48819 v -9.4488 h 113.385828 v 9.4488 H 48.017475 v 56.6929 h 85.317975 v -9.4488 h 113.38582 v 9.4488 h 136.06299 z"
         style="fill:none;stroke:#000000"
         id="path555" />
      <path
         d="m -100.99526,1154.4945 v 9.4488 h 37.795273 v -9.4488 z"
         style="fill:none;stroke:#000000"
         id="path557" />
      <path
         d="m 26.475591,1160.2772 v -9.4489 H -1.870866 v 9.4489 z"
         style="fill:none;stroke:#000000"
         id="path559" />
      <path
         d="m -444.54803,1160.2772 h 37.79527 v -9.4489 h -37.79527 z"
         style="fill:none;stroke:#000000"
         id="path561" />
    </g>
    <g
       transform="matrix(-0.26458333,0,0,-0.26458333,345.09272,470.44595)"
       inkscape:label="0"
       id="g613">
      <path
         d="m 348.05041,1163.9433 v -9.4488 h -37.79528 v 9.4488 z"
         style="fill:none;stroke:#000000"
         id="path601" />
      <path
         d="m 9.411024,1203.3638 h -34.015748 a 3.779528,3.779528 0 0 0 -3.779528,3.7795 v 41.5748 a 3.779528,3.779528 0 0 0 3.779528,3.7795 H 9.411024 a 3.779528,3.779528 0 0 0 3.779527,-3.7795 v -41.5748 a 3.779528,3.779528 0 0 0 -3.779527,-3.7795 z"
         style="fill:none;stroke:#000000"
         id="path603" />
      <path
         d="m -373.33545,1245.3165 h -9.44881 v -66.1417 h 136.06299 v -9.4488 h 113.38582 v 9.4488 h 85.317975 v -56.6929 H 55.640932 v -9.4488 H 169.02676 v 9.4488 h 94.48819 v -9.4488 h 113.38582 v 9.4488 h 88.96252 v 37.7953 h 9.44882 v 75.5905 h -9.44882 v 75.5906 h 9.44882 v 75.5905 h -9.44882 v 37.7953 h -88.96252 v 9.4488 H 263.51495 v -9.4488 h -94.48819 v 9.4488 H 55.640932 v -9.4488 H -133.33545 v 9.4488 h -113.38582 v -9.4488 h -136.06299 v -66.1417 h 9.44881 z"
         style="fill:none;stroke:#000000"
         id="path605" />
      <path
         d="m 100.99526,1163.9433 v -9.4488 H 63.199987 v 9.4488 z"
         style="fill:none;stroke:#000000"
         id="path607" />
      <path
         d="m 1.870866,1160.2772 v -9.4489 h -28.346457 v 9.4489 z"
         style="fill:none;stroke:#000000"
         id="path609" />
      <path
         d="m 444.54803,1150.8283 h -37.79527 v 9.4489 h 37.79527 z"
         style="fill:none;stroke:#000000"
         id="path611" />
    </g>
    <g
       transform="matrix(0.26458333,0,0,0.26458333,15.400839,-160.75612)"
       inkscape:label="0"
       id="g694">
      <path
         d="m 34.393701,1135.748 a 6.047244,6.047244 0 1 0 -12.094488,0 6.047244,6.047244 0 1 0 12.094488,0 z"
         style="fill:none;stroke:#000000"
         id="path670" />
      <path
         d="m 688.10119,675.55337 a 6.047245,6.047245 0 1 0 -12.09449,0 6.047245,6.047245 0 1 0 12.09449,0 z"
         style="fill:none;stroke:#000000"
         id="path672" />
      <path
         d="m 53.291799,675.55337 a 6.047244,6.047244 0 1 0 -12.094488,0 6.047244,6.047244 0 1 0 12.094488,0 z"
         style="fill:none;stroke:#000000"
         id="path674" />
      <path
         d="m 655.34732,1161.0883 a 22.677165,22.677165 0 0 1 45.35433,0 h 15.11811 v 9.4489 h -15.11811 v 19.1749 h 47.49403 a 18.897638,18.897638 0 0 0 18.89763,-18.8976 V 647.20691 A 18.897638,18.897638 0 0 0 748.19568,628.30928 H -18.897177 a 18.897638,18.897638 0 0 0 -18.897638,18.89763 v 523.60759 a 18.897638,18.897638 0 0 0 18.897638,18.8976 H 655.34732 v -19.1749 H 498.83087 v -9.4489 z"
         style="fill:none;stroke:#000000"
         id="path676" />
      <path
         d="M 73.474016,1098.2929 H 655.82362 a 18.897638,18.897638 0 0 0 18.89764,-18.8976 V 754.65827 A 18.897638,18.897638 0 0 0 655.82362,735.76063 H 73.474016 a 18.897638,18.897638 0 0 0 -18.897638,18.89764 v 324.73703 a 18.897638,18.897638 0 0 0 18.897638,18.8976 z"
         style="fill:none;stroke:#000000"
         id="path678" />
      <path
         d="m 233.7538,1170.8158 v -9.4489 H 120.36798 v 9.4489 z"
         style="fill:none;stroke:#000000"
         id="path680" />
      <path
         d="m -18.897177,953.49293 v 113.38587 h 9.448819 V 953.49293 Z"
         style="fill:none;stroke:#000000"
         id="path682" />
      <path
         d="m -18.897177,745.61891 v 113.38583 h 9.448819 V 745.61891 Z"
         style="fill:none;stroke:#000000"
         id="path684" />
      <path
         d="M 611.70656,647.20691 H 498.32073 v 9.44882 h 113.38583 z"
         style="fill:none;stroke:#000000"
         id="path686" />
      <path
         d="M 233.7538,647.20691 H 120.36798 v 9.44882 H 233.7538 Z"
         style="fill:none;stroke:#000000"
         id="path688" />
      <path
         d="m 748.19568,953.49293 h -9.44882 v 113.38587 h 9.44882 z"
         style="fill:none;stroke:#000000"
         id="path690" />
      <path
         d="m 748.19568,745.61891 h -9.44882 v 113.38583 h 9.44882 z"
         style="fill:none;stroke:#000000"
         id="path692" />
    </g>
    <g
       transform="matrix(0.26458333,0,0,0.26458333,204.82097,39.451893)"
       inkscape:label="0"
       id="g745">
      <path
         d="m -114.48189,792.83153 a 6.047245,6.047245 0 1 0 -12.09449,0 6.047245,6.047245 0 1 0 12.09449,0 z"
         style="fill:none;stroke:#000000"
         id="path739" />
      <path
         d="m -591.45827,792.83153 a 6.047245,6.047245 0 1 0 -12.09449,0 6.047245,6.047245 0 1 0 12.09449,0 z"
         style="fill:none;stroke:#000000"
         id="path741" />
      <path
         d="m -598.21825,821.7134 h -140.5286 v -9.44881 h -9.44882 v -37.79528 h 9.44882 v -9.44755 H 9.448359 v 9.44755 h 9.448819 v 37.79528 H 9.448359 v 9.44881 H -119.8164 a 37.795276,37.795276 0 0 1 -31.97122,-17.63779 18.897638,18.897638 0 0 0 -15.98561,-8.8189 h -382.48819 a 18.897638,18.897638 0 0 0 -15.98561,8.8189 37.795276,37.795276 0 0 1 -31.97122,17.63779 z"
         style="fill:none;stroke:#000000"
         id="path743" />
    </g>
    <g
       transform="matrix(0.26458333,0,0,0.26458333,203.40955,56.089387)"
       inkscape:label="0"
       id="g805">
      <path
         d="m -114.48189,792.83153 a 6.047245,6.047245 0 1 0 -12.09449,0 6.047245,6.047245 0 1 0 12.09449,0 z"
         style="fill:none;stroke:#000000"
         id="path799" />
      <path
         d="m -591.45827,792.83153 a 6.047245,6.047245 0 1 0 -12.09449,0 6.047245,6.047245 0 1 0 12.09449,0 z"
         style="fill:none;stroke:#000000"
         id="path801" />
      <path
         d="m -598.21825,821.7134 h -140.5286 v -9.44881 h -9.44882 v -37.79528 h 9.44882 v -9.44755 H 9.448359 v 9.44755 h 9.448819 v 37.79528 H 9.448359 v 9.44881 H -119.8164 a 37.795276,37.795276 0 0 1 -31.97122,-17.63779 18.897638,18.897638 0 0 0 -15.98561,-8.8189 h -382.48819 a 18.897638,18.897638 0 0 0 -15.98561,8.8189 37.795276,37.795276 0 0 1 -31.97122,17.63779 z"
         style="fill:none;stroke:#000000"
         id="path803" />
    </g>
  </g>
</svg>
