G04 #@! TF.GenerationSoftware,KiCad,Pcbnew,(5.1.6-0-10_14)*
G04 #@! TF.CreationDate,2021-08-31T13:45:45+09:00*
G04 #@! TF.ProjectId,qPCR-panel_v_20210831,71504352-2d70-4616-9e65-6c5f765f3230,rev?*
G04 #@! TF.SameCoordinates,Original*
G04 #@! TF.FileFunction,Profile,NP*
%FSLAX46Y46*%
G04 Gerber Fmt 4.6, Leading zero omitted, Abs format (unit mm)*
G04 Created by KiCad (PCBNEW (5.1.6-0-10_14)) date 2021-08-31 13:45:45*
%MOMM*%
%LPD*%
G01*
G04 APERTURE LIST*
G04 #@! TA.AperFunction,Profile*
%ADD10C,0.100000*%
G04 #@! TD*
G04 #@! TA.AperFunction,Profile*
%ADD11C,0.200000*%
G04 #@! TD*
G04 APERTURE END LIST*
D10*
X110475000Y-57900000D02*
G75*
G03*
X110475000Y-57900000I-475000J0D01*
G01*
X130800000Y-88100000D02*
X167700000Y-88100000D01*
X127200000Y-60400000D02*
X122905000Y-60400000D01*
X130800000Y-62000000D02*
X167700000Y-62000000D01*
D11*
X128275000Y-62000000D02*
G75*
G03*
X128275000Y-62000000I-275000J0D01*
G01*
X127725000Y-61725000D02*
X128275000Y-62275000D01*
X127725000Y-62275000D02*
X128275000Y-61725000D01*
X130975000Y-62000000D02*
G75*
G03*
X130975000Y-62000000I-275000J0D01*
G01*
X130425000Y-61725000D02*
X130975000Y-62275000D01*
X130425000Y-62275000D02*
X130975000Y-61725000D01*
X129175000Y-62000000D02*
G75*
G03*
X129175000Y-62000000I-275000J0D01*
G01*
X128625000Y-61725000D02*
X129175000Y-62275000D01*
X128625000Y-62275000D02*
X129175000Y-61725000D01*
X127375000Y-62000000D02*
G75*
G03*
X127375000Y-62000000I-275000J0D01*
G01*
X126825000Y-61725000D02*
X127375000Y-62275000D01*
X126825000Y-62275000D02*
X127375000Y-61725000D01*
X130075000Y-62000000D02*
G75*
G03*
X130075000Y-62000000I-275000J0D01*
G01*
X129525000Y-61725000D02*
X130075000Y-62275000D01*
X129525000Y-62275000D02*
X130075000Y-61725000D01*
D10*
X127200000Y-60400000D02*
G75*
G02*
X127200000Y-62000000I0J-800000D01*
G01*
X130800000Y-62000000D02*
G75*
G02*
X130800000Y-60400000I0J800000D01*
G01*
D11*
X130275000Y-86500000D02*
G75*
G03*
X130275000Y-86500000I-275000J0D01*
G01*
X129725000Y-86225000D02*
X130275000Y-86775000D01*
X129725000Y-86775000D02*
X130275000Y-86225000D01*
X129375000Y-86500000D02*
G75*
G03*
X129375000Y-86500000I-275000J0D01*
G01*
X128825000Y-86225000D02*
X129375000Y-86775000D01*
X128825000Y-86775000D02*
X129375000Y-86225000D01*
X127575000Y-86500000D02*
G75*
G03*
X127575000Y-86500000I-275000J0D01*
G01*
X127025000Y-86225000D02*
X127575000Y-86775000D01*
X127025000Y-86775000D02*
X127575000Y-86225000D01*
X128475000Y-86500000D02*
G75*
G03*
X128475000Y-86500000I-275000J0D01*
G01*
X127925000Y-86225000D02*
X128475000Y-86775000D01*
X127925000Y-86775000D02*
X128475000Y-86225000D01*
X131175000Y-86500000D02*
G75*
G03*
X131175000Y-86500000I-275000J0D01*
G01*
X130625000Y-86225000D02*
X131175000Y-86775000D01*
X130625000Y-86775000D02*
X131175000Y-86225000D01*
D10*
X130800000Y-88100000D02*
G75*
G02*
X130800000Y-86500000I0J800000D01*
G01*
X127200000Y-86500000D02*
G75*
G02*
X127200000Y-88100000I0J-800000D01*
G01*
X113700000Y-86500000D02*
X107500000Y-86500000D01*
X171300000Y-62000000D02*
X177500000Y-62000000D01*
X171300000Y-86500000D02*
X177500000Y-86500000D01*
X117300000Y-66450000D02*
X122105000Y-66450000D01*
X117300000Y-86500000D02*
X122105000Y-86500000D01*
X122105000Y-61200000D02*
G75*
G02*
X122905000Y-60400000I800000J0D01*
G01*
X122105000Y-61200000D02*
X122105000Y-64850000D01*
X117300000Y-64850000D02*
X122105000Y-64850000D01*
X113700000Y-64850000D02*
G75*
G02*
X113700000Y-66450000I0J-800000D01*
G01*
X117300000Y-66450000D02*
G75*
G02*
X117300000Y-64850000I0J800000D01*
G01*
D11*
X113875000Y-66450000D02*
G75*
G03*
X113875000Y-66450000I-275000J0D01*
G01*
X113325000Y-66175000D02*
X113875000Y-66725000D01*
X113325000Y-66725000D02*
X113875000Y-66175000D01*
D10*
X107500000Y-55400000D02*
X107500000Y-64850000D01*
D11*
X114775000Y-66450000D02*
G75*
G03*
X114775000Y-66450000I-275000J0D01*
G01*
X114225000Y-66175000D02*
X114775000Y-66725000D01*
X114225000Y-66725000D02*
X114775000Y-66175000D01*
D10*
X107500000Y-64850000D02*
X113700000Y-64850000D01*
D11*
X115675000Y-66450000D02*
G75*
G03*
X115675000Y-66450000I-275000J0D01*
G01*
X115125000Y-66175000D02*
X115675000Y-66725000D01*
X115125000Y-66725000D02*
X115675000Y-66175000D01*
X116575000Y-66450000D02*
G75*
G03*
X116575000Y-66450000I-275000J0D01*
G01*
X116025000Y-66175000D02*
X116575000Y-66725000D01*
X116025000Y-66725000D02*
X116575000Y-66175000D01*
X117475000Y-66450000D02*
G75*
G03*
X117475000Y-66450000I-275000J0D01*
G01*
X116925000Y-66175000D02*
X117475000Y-66725000D01*
X116925000Y-66725000D02*
X117475000Y-66175000D01*
D10*
X167700000Y-60400000D02*
X130800000Y-60400000D01*
X171300000Y-62000000D02*
G75*
G02*
X171300000Y-60400000I0J800000D01*
G01*
X177500000Y-60400000D02*
X171300000Y-60400000D01*
X175475000Y-57900000D02*
G75*
G03*
X175475000Y-57900000I-475000J0D01*
G01*
X167700000Y-60400000D02*
G75*
G02*
X167700000Y-62000000I0J-800000D01*
G01*
X177500000Y-60400000D02*
X177500000Y-55400000D01*
D11*
X170575000Y-62000000D02*
G75*
G03*
X170575000Y-62000000I-275000J0D01*
G01*
X170025000Y-61725000D02*
X170575000Y-62275000D01*
X170025000Y-62275000D02*
X170575000Y-61725000D01*
D10*
X177500000Y-55400000D02*
X107500000Y-55400000D01*
D11*
X167875000Y-62000000D02*
G75*
G03*
X167875000Y-62000000I-275000J0D01*
G01*
X167325000Y-61725000D02*
X167875000Y-62275000D01*
X167325000Y-62275000D02*
X167875000Y-61725000D01*
X169675000Y-62000000D02*
G75*
G03*
X169675000Y-62000000I-275000J0D01*
G01*
X169125000Y-61725000D02*
X169675000Y-62275000D01*
X169125000Y-62275000D02*
X169675000Y-61725000D01*
X171475000Y-62000000D02*
G75*
G03*
X171475000Y-62000000I-275000J0D01*
G01*
X170925000Y-61725000D02*
X171475000Y-62275000D01*
X170925000Y-62275000D02*
X171475000Y-61725000D01*
X168775000Y-62000000D02*
G75*
G03*
X168775000Y-62000000I-275000J0D01*
G01*
X168225000Y-61725000D02*
X168775000Y-62275000D01*
X168225000Y-62275000D02*
X168775000Y-61725000D01*
D10*
X123500000Y-86500000D02*
X127200000Y-86500000D01*
X123500000Y-62000000D02*
X127200000Y-62000000D01*
X107500000Y-66450000D02*
X113700000Y-66450000D01*
X110475000Y-90600000D02*
G75*
G03*
X110475000Y-90600000I-475000J0D01*
G01*
X107500000Y-93100000D02*
X177500000Y-93100000D01*
X107500000Y-88100000D02*
X107500000Y-93100000D01*
X117300000Y-88100000D02*
X127200000Y-88100000D01*
X107500000Y-88100000D02*
X113700000Y-88100000D01*
D11*
X116775000Y-86500000D02*
G75*
G03*
X116775000Y-86500000I-275000J0D01*
G01*
X116225000Y-86225000D02*
X116775000Y-86775000D01*
X116225000Y-86775000D02*
X116775000Y-86225000D01*
X115875000Y-86500000D02*
G75*
G03*
X115875000Y-86500000I-275000J0D01*
G01*
X115325000Y-86225000D02*
X115875000Y-86775000D01*
X115325000Y-86775000D02*
X115875000Y-86225000D01*
X114075000Y-86500000D02*
G75*
G03*
X114075000Y-86500000I-275000J0D01*
G01*
X113525000Y-86225000D02*
X114075000Y-86775000D01*
X113525000Y-86775000D02*
X114075000Y-86225000D01*
X114975000Y-86500000D02*
G75*
G03*
X114975000Y-86500000I-275000J0D01*
G01*
X114425000Y-86225000D02*
X114975000Y-86775000D01*
X114425000Y-86775000D02*
X114975000Y-86225000D01*
X117675000Y-86500000D02*
G75*
G03*
X117675000Y-86500000I-275000J0D01*
G01*
X117125000Y-86225000D02*
X117675000Y-86775000D01*
X117125000Y-86775000D02*
X117675000Y-86225000D01*
D10*
X117300000Y-88100000D02*
G75*
G02*
X117300000Y-86500000I0J800000D01*
G01*
X113700000Y-86500000D02*
G75*
G02*
X113700000Y-88100000I0J-800000D01*
G01*
X167700000Y-86500000D02*
G75*
G02*
X167700000Y-88100000I0J-800000D01*
G01*
X171300000Y-88100000D02*
G75*
G02*
X171300000Y-86500000I0J800000D01*
G01*
D11*
X171675000Y-86500000D02*
G75*
G03*
X171675000Y-86500000I-275000J0D01*
G01*
X171125000Y-86225000D02*
X171675000Y-86775000D01*
X171125000Y-86775000D02*
X171675000Y-86225000D01*
X168975000Y-86500000D02*
G75*
G03*
X168975000Y-86500000I-275000J0D01*
G01*
X168425000Y-86225000D02*
X168975000Y-86775000D01*
X168425000Y-86775000D02*
X168975000Y-86225000D01*
X168075000Y-86500000D02*
G75*
G03*
X168075000Y-86500000I-275000J0D01*
G01*
X167525000Y-86225000D02*
X168075000Y-86775000D01*
X167525000Y-86775000D02*
X168075000Y-86225000D01*
X169875000Y-86500000D02*
G75*
G03*
X169875000Y-86500000I-275000J0D01*
G01*
X169325000Y-86225000D02*
X169875000Y-86775000D01*
X169325000Y-86775000D02*
X169875000Y-86225000D01*
D10*
X177500000Y-93100000D02*
X177500000Y-88100000D01*
X177500000Y-88100000D02*
X171300000Y-88100000D01*
D11*
X170775000Y-86500000D02*
G75*
G03*
X170775000Y-86500000I-275000J0D01*
G01*
X170225000Y-86225000D02*
X170775000Y-86775000D01*
X170225000Y-86775000D02*
X170775000Y-86225000D01*
D10*
X175475000Y-90600000D02*
G75*
G03*
X175475000Y-90600000I-475000J0D01*
G01*
X130800000Y-86500000D02*
X167700000Y-86500000D01*
X177500000Y-62000000D02*
X177500000Y-86500000D01*
X123500000Y-86500000D02*
X123500000Y-62000000D01*
X122105000Y-66450000D02*
X122105000Y-86500000D01*
X107500000Y-86500000D02*
X107500000Y-66450000D01*
M02*
