G04 #@! TF.GenerationSoftware,KiCad,Pcbnew,(5.1.6-0-10_14)*
G04 #@! TF.CreationDate,2020-08-07T14:57:57+09:00*
G04 #@! TF.ProjectId,qPCR-ledarray_1x8,71504352-2d6c-4656-9461-727261795f31,rev?*
G04 #@! TF.SameCoordinates,Original*
G04 #@! TF.FileFunction,Copper,L1,Top*
G04 #@! TF.FilePolarity,Positive*
%FSLAX46Y46*%
G04 Gerber Fmt 4.6, Leading zero omitted, Abs format (unit mm)*
G04 Created by KiCad (PCBNEW (5.1.6-0-10_14)) date 2020-08-07 14:57:57*
%MOMM*%
%LPD*%
G01*
G04 APERTURE LIST*
G04 #@! TA.AperFunction,ComponentPad*
%ADD10R,1.800000X1.800000*%
G04 #@! TD*
G04 #@! TA.AperFunction,ComponentPad*
%ADD11C,1.800000*%
G04 #@! TD*
G04 #@! TA.AperFunction,SMDPad,CuDef*
%ADD12R,1.200000X0.750000*%
G04 #@! TD*
G04 #@! TA.AperFunction,ComponentPad*
%ADD13O,1.700000X1.700000*%
G04 #@! TD*
G04 #@! TA.AperFunction,ComponentPad*
%ADD14R,1.700000X1.700000*%
G04 #@! TD*
G04 #@! TA.AperFunction,ViaPad*
%ADD15C,0.800000*%
G04 #@! TD*
G04 #@! TA.AperFunction,Conductor*
%ADD16C,0.250000*%
G04 #@! TD*
G04 #@! TA.AperFunction,Conductor*
%ADD17C,0.254000*%
G04 #@! TD*
G04 APERTURE END LIST*
D10*
G04 #@! TO.P,D1,1*
G04 #@! TO.N,OUT1*
X164730000Y-113500000D03*
D11*
G04 #@! TO.P,D1,2*
G04 #@! TO.N,VCC*
X167270000Y-113500000D03*
G04 #@! TD*
G04 #@! TO.P,D2,2*
G04 #@! TO.N,VCC*
X158270000Y-113500000D03*
D10*
G04 #@! TO.P,D2,1*
G04 #@! TO.N,OUT2*
X155730000Y-113500000D03*
G04 #@! TD*
G04 #@! TO.P,D3,1*
G04 #@! TO.N,OUT3*
X146730000Y-113500000D03*
D11*
G04 #@! TO.P,D3,2*
G04 #@! TO.N,VCC*
X149270000Y-113500000D03*
G04 #@! TD*
G04 #@! TO.P,D4,2*
G04 #@! TO.N,VCC*
X140270000Y-113500000D03*
D10*
G04 #@! TO.P,D4,1*
G04 #@! TO.N,OUT4*
X137730000Y-113500000D03*
G04 #@! TD*
G04 #@! TO.P,D5,1*
G04 #@! TO.N,OUT5*
X128730000Y-113500000D03*
D11*
G04 #@! TO.P,D5,2*
G04 #@! TO.N,VCC*
X131270000Y-113500000D03*
G04 #@! TD*
G04 #@! TO.P,D6,2*
G04 #@! TO.N,VCC*
X122270000Y-113500000D03*
D10*
G04 #@! TO.P,D6,1*
G04 #@! TO.N,OUT6*
X119730000Y-113500000D03*
G04 #@! TD*
G04 #@! TO.P,D7,1*
G04 #@! TO.N,OUT7*
X110730000Y-113500000D03*
D11*
G04 #@! TO.P,D7,2*
G04 #@! TO.N,VCC*
X113270000Y-113500000D03*
G04 #@! TD*
G04 #@! TO.P,D8,2*
G04 #@! TO.N,VCC*
X104270000Y-113500000D03*
D10*
G04 #@! TO.P,D8,1*
G04 #@! TO.N,OUT8*
X101730000Y-113500000D03*
G04 #@! TD*
D12*
G04 #@! TO.P,C1,1*
G04 #@! TO.N,VCC*
X82303200Y-119905400D03*
G04 #@! TO.P,C1,2*
G04 #@! TO.N,GND*
X84203200Y-119905400D03*
G04 #@! TD*
D13*
G04 #@! TO.P,U1,10*
G04 #@! TO.N,OUT2*
X75564401Y-112270000D03*
G04 #@! TO.P,U1,9*
G04 #@! TO.N,OUT1*
X78104401Y-112270000D03*
G04 #@! TO.P,U1,8*
G04 #@! TO.N,OUT4*
X75564401Y-114810000D03*
G04 #@! TO.P,U1,7*
G04 #@! TO.N,OUT3*
X78104401Y-114810000D03*
G04 #@! TO.P,U1,6*
G04 #@! TO.N,OUT7*
X75564401Y-117350000D03*
G04 #@! TO.P,U1,5*
G04 #@! TO.N,OUT8*
X78104401Y-117350000D03*
G04 #@! TO.P,U1,4*
G04 #@! TO.N,OUT6*
X75564401Y-119890000D03*
G04 #@! TO.P,U1,3*
G04 #@! TO.N,VCC*
X78104401Y-119890000D03*
G04 #@! TO.P,U1,2*
G04 #@! TO.N,GND*
X75564401Y-122430000D03*
D14*
G04 #@! TO.P,U1,1*
G04 #@! TO.N,OUT5*
X78104401Y-122430000D03*
G04 #@! TD*
D15*
G04 #@! TO.N,GND*
X83862800Y-118127400D03*
X81043400Y-114749200D03*
X83659600Y-112641000D03*
X89908000Y-113250600D03*
X93743400Y-117924200D03*
X90238200Y-121378600D03*
X83304000Y-121531000D03*
X87571200Y-119549800D03*
X88460200Y-114901600D03*
X88282400Y-111802800D03*
X91660600Y-111777400D03*
X91559000Y-114825400D03*
X84447000Y-113885600D03*
X79621000Y-111625000D03*
X90695400Y-118914800D03*
X88612600Y-117822600D03*
X86961600Y-121480200D03*
X80179800Y-117467000D03*
G04 #@! TO.N,VCC*
X81043400Y-118787800D03*
G04 #@! TO.N,OUT6*
X116476400Y-114673000D03*
G04 #@! TD*
D16*
G04 #@! TO.N,GND*
X76739402Y-121254999D02*
X75564401Y-122430000D01*
X83862800Y-118127400D02*
X83862800Y-119001200D01*
X83202400Y-117467000D02*
X83862800Y-118127400D01*
X80179800Y-117467000D02*
X83202400Y-117467000D01*
X81043400Y-116603400D02*
X81043400Y-114749200D01*
X80179800Y-117467000D02*
X81043400Y-116603400D01*
X83659600Y-113098200D02*
X84447000Y-113885600D01*
X83659600Y-112641000D02*
X83659600Y-113098200D01*
X83354800Y-121480200D02*
X83304000Y-121531000D01*
X86961600Y-121480200D02*
X83354800Y-121480200D01*
X86961600Y-120159400D02*
X87571200Y-119549800D01*
X86961600Y-121480200D02*
X86961600Y-120159400D01*
X90238200Y-119372000D02*
X90695400Y-118914800D01*
X90238200Y-121378600D02*
X90238200Y-119372000D01*
X91686000Y-117924200D02*
X90695400Y-118914800D01*
X93743400Y-117924200D02*
X91686000Y-117924200D01*
X89603200Y-117822600D02*
X90695400Y-118914800D01*
X88612600Y-117822600D02*
X89603200Y-117822600D01*
X87571200Y-118864000D02*
X88612600Y-117822600D01*
X87571200Y-119549800D02*
X87571200Y-118864000D01*
X88460200Y-111802800D02*
X89908000Y-113250600D01*
X88282400Y-111802800D02*
X88460200Y-111802800D01*
X89908000Y-113453800D02*
X88460200Y-114901600D01*
X89908000Y-113250600D02*
X89908000Y-113453800D01*
X91482800Y-114825400D02*
X89908000Y-113250600D01*
X91559000Y-114825400D02*
X91482800Y-114825400D01*
X90187400Y-113250600D02*
X91660600Y-111777400D01*
X89908000Y-113250600D02*
X90187400Y-113250600D01*
X84729423Y-111571177D02*
X83659600Y-112641000D01*
X88050777Y-111571177D02*
X84729423Y-111571177D01*
X88282400Y-111802800D02*
X88050777Y-111571177D01*
X84203200Y-119905400D02*
X84015200Y-119905400D01*
X83862800Y-119753000D02*
X83862800Y-119001200D01*
X84015200Y-119905400D02*
X83862800Y-119753000D01*
X83863202Y-119905400D02*
X84203200Y-119905400D01*
X76739402Y-121254999D02*
X82513603Y-121254999D01*
X83304000Y-121531000D02*
X82770801Y-120997801D01*
X82770801Y-120997801D02*
X83863202Y-119905400D01*
X82513603Y-121254999D02*
X82770801Y-120997801D01*
G04 #@! TO.N,VCC*
X81058600Y-118803000D02*
X81043400Y-118787800D01*
X82287800Y-119890000D02*
X82303200Y-119905400D01*
X78104401Y-119890000D02*
X82287800Y-119890000D01*
X81043400Y-118787800D02*
X82072100Y-118787800D01*
X82303200Y-119018900D02*
X82303200Y-119905400D01*
X82072100Y-118787800D02*
X82303200Y-119018900D01*
G04 #@! TO.N,OUT1*
X164730000Y-111847200D02*
X164730000Y-113500000D01*
X164257810Y-111375010D02*
X164730000Y-111847200D01*
X98895590Y-111375010D02*
X164257810Y-111375010D01*
X94641223Y-115629377D02*
X98895590Y-111375010D01*
X85250977Y-115629377D02*
X94641223Y-115629377D01*
X81891600Y-112270000D02*
X85250977Y-115629377D01*
X78104401Y-112270000D02*
X81891600Y-112270000D01*
G04 #@! TO.N,OUT3*
X145109000Y-111879000D02*
X146730000Y-113500000D01*
X99102800Y-111879000D02*
X145109000Y-111879000D01*
X94835600Y-116146200D02*
X99102800Y-111879000D01*
X79364190Y-112720010D02*
X81630410Y-112720010D01*
X85056600Y-116146200D02*
X94835600Y-116146200D01*
X79167603Y-112945800D02*
X79167603Y-112916597D01*
X78104401Y-114009002D02*
X79167603Y-112945800D01*
X81630410Y-112720010D02*
X85056600Y-116146200D01*
X79167603Y-112916597D02*
X79364190Y-112720010D01*
X78104401Y-114810000D02*
X78104401Y-114009002D01*
G04 #@! TO.N,OUT5*
X126744200Y-115485800D02*
X128730000Y-113500000D01*
X97629600Y-115485800D02*
X126744200Y-115485800D01*
X90685400Y-122430000D02*
X97629600Y-115485800D01*
X78104401Y-122430000D02*
X90685400Y-122430000D01*
X184494129Y-115624990D02*
X184524890Y-115594229D01*
X97844666Y-115624990D02*
X184494129Y-115624990D01*
X91039656Y-122430000D02*
X97844666Y-115624990D01*
X78104401Y-122430000D02*
X91039656Y-122430000D01*
G04 #@! TO.N,OUT6*
X118557000Y-114673000D02*
X119730000Y-113500000D01*
X116476400Y-114673000D02*
X118557000Y-114673000D01*
G04 #@! TO.N,OUT7*
X78550801Y-118714999D02*
X76929400Y-118714999D01*
X76929400Y-118714999D02*
X75564401Y-117350000D01*
X79279402Y-117986398D02*
X78550801Y-118714999D01*
X109252200Y-114977800D02*
X97426400Y-114977800D01*
X97426400Y-114977800D02*
X95242000Y-117162200D01*
X110730000Y-113500000D02*
X109252200Y-114977800D01*
X79279402Y-116811409D02*
X80020210Y-116070601D01*
X79279402Y-117986398D02*
X79279402Y-116811409D01*
X80020210Y-113867390D02*
X80267570Y-113620030D01*
X80020210Y-116070601D02*
X80020210Y-113867390D01*
X80267570Y-113620030D02*
X81257610Y-113620030D01*
X81257610Y-113620030D02*
X84799780Y-117162200D01*
X84799780Y-117162200D02*
X95242000Y-117162200D01*
G04 #@! TO.N,OUT8*
X98193000Y-113500000D02*
X95038800Y-116654200D01*
X101730000Y-113500000D02*
X98193000Y-113500000D01*
X78104401Y-117350000D02*
X79570200Y-115884201D01*
X79570200Y-113657000D02*
X80057180Y-113170020D01*
X79570200Y-115884201D02*
X79570200Y-113657000D01*
X84928190Y-116654200D02*
X95038800Y-116654200D01*
X81444010Y-113170020D02*
X84928190Y-116654200D01*
X80057180Y-113170020D02*
X81444010Y-113170020D01*
G04 #@! TD*
D17*
G04 #@! TO.N,GND*
G36*
X75691401Y-122303000D02*
G01*
X75711401Y-122303000D01*
X75711401Y-122557000D01*
X75691401Y-122557000D01*
X75691401Y-122577000D01*
X75437401Y-122577000D01*
X75437401Y-122557000D01*
X75417401Y-122557000D01*
X75417401Y-122303000D01*
X75437401Y-122303000D01*
X75437401Y-122283000D01*
X75691401Y-122283000D01*
X75691401Y-122303000D01*
G37*
X75691401Y-122303000D02*
X75711401Y-122303000D01*
X75711401Y-122557000D01*
X75691401Y-122557000D01*
X75691401Y-122577000D01*
X75437401Y-122577000D01*
X75437401Y-122557000D01*
X75417401Y-122557000D01*
X75417401Y-122303000D01*
X75437401Y-122303000D01*
X75437401Y-122283000D01*
X75691401Y-122283000D01*
X75691401Y-122303000D01*
G36*
X84235981Y-117673203D02*
G01*
X84259779Y-117702201D01*
X84375504Y-117797174D01*
X84507533Y-117867746D01*
X84650794Y-117911203D01*
X84762447Y-117922200D01*
X84762457Y-117922200D01*
X84799780Y-117925876D01*
X84837103Y-117922200D01*
X94118398Y-117922200D01*
X90370599Y-121670000D01*
X79592473Y-121670000D01*
X79592473Y-121580000D01*
X79580213Y-121455518D01*
X79543903Y-121335820D01*
X79484938Y-121225506D01*
X79405586Y-121128815D01*
X79308895Y-121049463D01*
X79198581Y-120990498D01*
X79126021Y-120968487D01*
X79257876Y-120836632D01*
X79382579Y-120650000D01*
X81185060Y-120650000D01*
X81252015Y-120731585D01*
X81348706Y-120810937D01*
X81459020Y-120869902D01*
X81578718Y-120906212D01*
X81703200Y-120918472D01*
X82903200Y-120918472D01*
X83027682Y-120906212D01*
X83147380Y-120869902D01*
X83253200Y-120813339D01*
X83359020Y-120869902D01*
X83478718Y-120906212D01*
X83603200Y-120918472D01*
X83917450Y-120915400D01*
X84076200Y-120756650D01*
X84076200Y-120032400D01*
X84330200Y-120032400D01*
X84330200Y-120756650D01*
X84488950Y-120915400D01*
X84803200Y-120918472D01*
X84927682Y-120906212D01*
X85047380Y-120869902D01*
X85157694Y-120810937D01*
X85254385Y-120731585D01*
X85333737Y-120634894D01*
X85392702Y-120524580D01*
X85429012Y-120404882D01*
X85441272Y-120280400D01*
X85438200Y-120191150D01*
X85279450Y-120032400D01*
X84330200Y-120032400D01*
X84076200Y-120032400D01*
X84056200Y-120032400D01*
X84056200Y-119778400D01*
X84076200Y-119778400D01*
X84076200Y-119054150D01*
X84330200Y-119054150D01*
X84330200Y-119778400D01*
X85279450Y-119778400D01*
X85438200Y-119619650D01*
X85441272Y-119530400D01*
X85429012Y-119405918D01*
X85392702Y-119286220D01*
X85333737Y-119175906D01*
X85254385Y-119079215D01*
X85157694Y-118999863D01*
X85047380Y-118940898D01*
X84927682Y-118904588D01*
X84803200Y-118892328D01*
X84488950Y-118895400D01*
X84330200Y-119054150D01*
X84076200Y-119054150D01*
X83917450Y-118895400D01*
X83603200Y-118892328D01*
X83478718Y-118904588D01*
X83359020Y-118940898D01*
X83253200Y-118997461D01*
X83147380Y-118940898D01*
X83056478Y-118913323D01*
X83052203Y-118869914D01*
X83008746Y-118726653D01*
X82938174Y-118594624D01*
X82843201Y-118478899D01*
X82814198Y-118455097D01*
X82635904Y-118276803D01*
X82612101Y-118247799D01*
X82496376Y-118152826D01*
X82364347Y-118082254D01*
X82221086Y-118038797D01*
X82109433Y-118027800D01*
X82109422Y-118027800D01*
X82072100Y-118024124D01*
X82034778Y-118027800D01*
X81747111Y-118027800D01*
X81703174Y-117983863D01*
X81533656Y-117870595D01*
X81345298Y-117792574D01*
X81145339Y-117752800D01*
X80941461Y-117752800D01*
X80741502Y-117792574D01*
X80553144Y-117870595D01*
X80383626Y-117983863D01*
X80239463Y-118128026D01*
X80126195Y-118297544D01*
X80048174Y-118485902D01*
X80008400Y-118685861D01*
X80008400Y-118889739D01*
X80048174Y-119089698D01*
X80064868Y-119130000D01*
X79382579Y-119130000D01*
X79313695Y-119026907D01*
X79790411Y-118550192D01*
X79819403Y-118526399D01*
X79843197Y-118497406D01*
X79843201Y-118497402D01*
X79901213Y-118426713D01*
X79914376Y-118410674D01*
X79984948Y-118278645D01*
X80028405Y-118135384D01*
X80039402Y-118023731D01*
X80039402Y-118023722D01*
X80043078Y-117986399D01*
X80039402Y-117949076D01*
X80039402Y-117126210D01*
X80531214Y-116634399D01*
X80560211Y-116610602D01*
X80655184Y-116494877D01*
X80725756Y-116362848D01*
X80769213Y-116219587D01*
X80780210Y-116107934D01*
X80780210Y-116107926D01*
X80783886Y-116070601D01*
X80780210Y-116033276D01*
X80780210Y-114380030D01*
X80942809Y-114380030D01*
X84235981Y-117673203D01*
G37*
X84235981Y-117673203D02*
X84259779Y-117702201D01*
X84375504Y-117797174D01*
X84507533Y-117867746D01*
X84650794Y-117911203D01*
X84762447Y-117922200D01*
X84762457Y-117922200D01*
X84799780Y-117925876D01*
X84837103Y-117922200D01*
X94118398Y-117922200D01*
X90370599Y-121670000D01*
X79592473Y-121670000D01*
X79592473Y-121580000D01*
X79580213Y-121455518D01*
X79543903Y-121335820D01*
X79484938Y-121225506D01*
X79405586Y-121128815D01*
X79308895Y-121049463D01*
X79198581Y-120990498D01*
X79126021Y-120968487D01*
X79257876Y-120836632D01*
X79382579Y-120650000D01*
X81185060Y-120650000D01*
X81252015Y-120731585D01*
X81348706Y-120810937D01*
X81459020Y-120869902D01*
X81578718Y-120906212D01*
X81703200Y-120918472D01*
X82903200Y-120918472D01*
X83027682Y-120906212D01*
X83147380Y-120869902D01*
X83253200Y-120813339D01*
X83359020Y-120869902D01*
X83478718Y-120906212D01*
X83603200Y-120918472D01*
X83917450Y-120915400D01*
X84076200Y-120756650D01*
X84076200Y-120032400D01*
X84330200Y-120032400D01*
X84330200Y-120756650D01*
X84488950Y-120915400D01*
X84803200Y-120918472D01*
X84927682Y-120906212D01*
X85047380Y-120869902D01*
X85157694Y-120810937D01*
X85254385Y-120731585D01*
X85333737Y-120634894D01*
X85392702Y-120524580D01*
X85429012Y-120404882D01*
X85441272Y-120280400D01*
X85438200Y-120191150D01*
X85279450Y-120032400D01*
X84330200Y-120032400D01*
X84076200Y-120032400D01*
X84056200Y-120032400D01*
X84056200Y-119778400D01*
X84076200Y-119778400D01*
X84076200Y-119054150D01*
X84330200Y-119054150D01*
X84330200Y-119778400D01*
X85279450Y-119778400D01*
X85438200Y-119619650D01*
X85441272Y-119530400D01*
X85429012Y-119405918D01*
X85392702Y-119286220D01*
X85333737Y-119175906D01*
X85254385Y-119079215D01*
X85157694Y-118999863D01*
X85047380Y-118940898D01*
X84927682Y-118904588D01*
X84803200Y-118892328D01*
X84488950Y-118895400D01*
X84330200Y-119054150D01*
X84076200Y-119054150D01*
X83917450Y-118895400D01*
X83603200Y-118892328D01*
X83478718Y-118904588D01*
X83359020Y-118940898D01*
X83253200Y-118997461D01*
X83147380Y-118940898D01*
X83056478Y-118913323D01*
X83052203Y-118869914D01*
X83008746Y-118726653D01*
X82938174Y-118594624D01*
X82843201Y-118478899D01*
X82814198Y-118455097D01*
X82635904Y-118276803D01*
X82612101Y-118247799D01*
X82496376Y-118152826D01*
X82364347Y-118082254D01*
X82221086Y-118038797D01*
X82109433Y-118027800D01*
X82109422Y-118027800D01*
X82072100Y-118024124D01*
X82034778Y-118027800D01*
X81747111Y-118027800D01*
X81703174Y-117983863D01*
X81533656Y-117870595D01*
X81345298Y-117792574D01*
X81145339Y-117752800D01*
X80941461Y-117752800D01*
X80741502Y-117792574D01*
X80553144Y-117870595D01*
X80383626Y-117983863D01*
X80239463Y-118128026D01*
X80126195Y-118297544D01*
X80048174Y-118485902D01*
X80008400Y-118685861D01*
X80008400Y-118889739D01*
X80048174Y-119089698D01*
X80064868Y-119130000D01*
X79382579Y-119130000D01*
X79313695Y-119026907D01*
X79790411Y-118550192D01*
X79819403Y-118526399D01*
X79843197Y-118497406D01*
X79843201Y-118497402D01*
X79901213Y-118426713D01*
X79914376Y-118410674D01*
X79984948Y-118278645D01*
X80028405Y-118135384D01*
X80039402Y-118023731D01*
X80039402Y-118023722D01*
X80043078Y-117986399D01*
X80039402Y-117949076D01*
X80039402Y-117126210D01*
X80531214Y-116634399D01*
X80560211Y-116610602D01*
X80655184Y-116494877D01*
X80725756Y-116362848D01*
X80769213Y-116219587D01*
X80780210Y-116107934D01*
X80780210Y-116107926D01*
X80783886Y-116070601D01*
X80780210Y-116033276D01*
X80780210Y-114380030D01*
X80942809Y-114380030D01*
X84235981Y-117673203D01*
G36*
X76950926Y-120836632D02*
G01*
X77082781Y-120968487D01*
X77010221Y-120990498D01*
X76899907Y-121049463D01*
X76803216Y-121128815D01*
X76723864Y-121225506D01*
X76664899Y-121335820D01*
X76641903Y-121411626D01*
X76445756Y-121234822D01*
X76328867Y-121165195D01*
X76511033Y-121043475D01*
X76717876Y-120836632D01*
X76834401Y-120662240D01*
X76950926Y-120836632D01*
G37*
X76950926Y-120836632D02*
X77082781Y-120968487D01*
X77010221Y-120990498D01*
X76899907Y-121049463D01*
X76803216Y-121128815D01*
X76723864Y-121225506D01*
X76664899Y-121335820D01*
X76641903Y-121411626D01*
X76445756Y-121234822D01*
X76328867Y-121165195D01*
X76511033Y-121043475D01*
X76717876Y-120836632D01*
X76834401Y-120662240D01*
X76950926Y-120836632D01*
G36*
X91602259Y-111942564D02*
G01*
X91334883Y-112342721D01*
X91150711Y-112787351D01*
X91056821Y-113259368D01*
X91056821Y-113740632D01*
X91150711Y-114212649D01*
X91334883Y-114657279D01*
X91476602Y-114869377D01*
X88284018Y-114869377D01*
X88488732Y-114563000D01*
X88657900Y-114154592D01*
X88744142Y-113721029D01*
X88744142Y-113278971D01*
X88657900Y-112845408D01*
X88488732Y-112437000D01*
X88243139Y-112069443D01*
X87930557Y-111756861D01*
X87823009Y-111685000D01*
X91859823Y-111685000D01*
X91602259Y-111942564D01*
G37*
X91602259Y-111942564D02*
X91334883Y-112342721D01*
X91150711Y-112787351D01*
X91056821Y-113259368D01*
X91056821Y-113740632D01*
X91150711Y-114212649D01*
X91334883Y-114657279D01*
X91476602Y-114869377D01*
X88284018Y-114869377D01*
X88488732Y-114563000D01*
X88657900Y-114154592D01*
X88744142Y-113721029D01*
X88744142Y-113278971D01*
X88657900Y-112845408D01*
X88488732Y-112437000D01*
X88243139Y-112069443D01*
X87930557Y-111756861D01*
X87823009Y-111685000D01*
X91859823Y-111685000D01*
X91602259Y-111942564D01*
G36*
X85069443Y-111756861D02*
G01*
X84756861Y-112069443D01*
X84511268Y-112437000D01*
X84342100Y-112845408D01*
X84255858Y-113278971D01*
X84255858Y-113559456D01*
X82455404Y-111759003D01*
X82431601Y-111729999D01*
X82376770Y-111685000D01*
X85176991Y-111685000D01*
X85069443Y-111756861D01*
G37*
X85069443Y-111756861D02*
X84756861Y-112069443D01*
X84511268Y-112437000D01*
X84342100Y-112845408D01*
X84255858Y-113278971D01*
X84255858Y-113559456D01*
X82455404Y-111759003D01*
X82431601Y-111729999D01*
X82376770Y-111685000D01*
X85176991Y-111685000D01*
X85069443Y-111756861D01*
G04 #@! TD*
M02*
