G04 #@! TF.GenerationSoftware,KiCad,Pcbnew,(5.1.6-0-10_14)*
G04 #@! TF.CreationDate,2020-08-11T10:19:13+09:00*
G04 #@! TF.ProjectId,qPCR-photoarray,71504352-2d70-4686-9f74-6f6172726179,rev?*
G04 #@! TF.SameCoordinates,Original*
G04 #@! TF.FileFunction,Copper,L2,Bot*
G04 #@! TF.FilePolarity,Positive*
%FSLAX46Y46*%
G04 Gerber Fmt 4.6, Leading zero omitted, Abs format (unit mm)*
G04 Created by KiCad (PCBNEW (5.1.6-0-10_14)) date 2020-08-11 10:19:13*
%MOMM*%
%LPD*%
G01*
G04 APERTURE LIST*
G04 #@! TA.AperFunction,ComponentPad*
%ADD10R,1.700000X1.700000*%
G04 #@! TD*
G04 #@! TA.AperFunction,ComponentPad*
%ADD11O,1.700000X1.700000*%
G04 #@! TD*
G04 #@! TA.AperFunction,ViaPad*
%ADD12C,0.800000*%
G04 #@! TD*
G04 #@! TA.AperFunction,Conductor*
%ADD13C,0.250000*%
G04 #@! TD*
G04 #@! TA.AperFunction,Conductor*
%ADD14C,0.254000*%
G04 #@! TD*
G04 APERTURE END LIST*
D10*
G04 #@! TO.P,U2,1*
G04 #@! TO.N,GND*
X193095000Y-102000000D03*
D11*
G04 #@! TO.P,U2,2*
X193095000Y-99460000D03*
G04 #@! TO.P,U2,3*
G04 #@! TO.N,OUT16*
X190555000Y-102000000D03*
G04 #@! TO.P,U2,4*
G04 #@! TO.N,OUT15*
X190555000Y-99460000D03*
G04 #@! TO.P,U2,5*
G04 #@! TO.N,OUT14*
X188015000Y-102000000D03*
G04 #@! TO.P,U2,6*
G04 #@! TO.N,OUT13*
X188015000Y-99460000D03*
G04 #@! TO.P,U2,7*
G04 #@! TO.N,OUT12*
X185475000Y-102000000D03*
G04 #@! TO.P,U2,8*
G04 #@! TO.N,OUT10*
X185475000Y-99460000D03*
G04 #@! TO.P,U2,9*
G04 #@! TO.N,OUT11*
X182935000Y-102000000D03*
G04 #@! TO.P,U2,10*
G04 #@! TO.N,OUT9*
X182935000Y-99460000D03*
G04 #@! TD*
G04 #@! TO.P,U1,10*
G04 #@! TO.N,OUT1*
X182935000Y-89460000D03*
G04 #@! TO.P,U1,9*
G04 #@! TO.N,OUT2*
X182935000Y-92000000D03*
G04 #@! TO.P,U1,8*
G04 #@! TO.N,OUT3*
X185475000Y-89460000D03*
G04 #@! TO.P,U1,7*
G04 #@! TO.N,OUT4*
X185475000Y-92000000D03*
G04 #@! TO.P,U1,6*
G04 #@! TO.N,OUT5*
X188015000Y-89460000D03*
G04 #@! TO.P,U1,5*
G04 #@! TO.N,OUT6*
X188015000Y-92000000D03*
G04 #@! TO.P,U1,4*
G04 #@! TO.N,OUT7*
X190555000Y-89460000D03*
G04 #@! TO.P,U1,3*
G04 #@! TO.N,OUT8*
X190555000Y-92000000D03*
G04 #@! TO.P,U1,2*
G04 #@! TO.N,GND*
X193095000Y-89460000D03*
D10*
G04 #@! TO.P,U1,1*
X193095000Y-92000000D03*
G04 #@! TD*
D12*
G04 #@! TO.N,GND*
X111300000Y-97900000D03*
X194500000Y-97000000D03*
X189500000Y-98000000D03*
X195800000Y-97400000D03*
X194600000Y-93000000D03*
X201100000Y-94000000D03*
X198200000Y-95500000D03*
X196500000Y-94000000D03*
X200000000Y-95000000D03*
X114700000Y-97900000D03*
X111400000Y-100900000D03*
X111400000Y-103800000D03*
X119700000Y-101100000D03*
X115000000Y-101000000D03*
X115000000Y-104000000D03*
X119500000Y-104000000D03*
X124500000Y-104000000D03*
X122000000Y-108500000D03*
X117500000Y-110800000D03*
X126500000Y-110800000D03*
X135500000Y-110800000D03*
X144500000Y-110700000D03*
X153500000Y-110800000D03*
X162500000Y-110800000D03*
X171500000Y-110700000D03*
X180500000Y-110800000D03*
X182300000Y-110800000D03*
X178300000Y-110800000D03*
X173800000Y-110700000D03*
X169300000Y-110700000D03*
X164800000Y-110800000D03*
X160300000Y-110800000D03*
X155800000Y-110800000D03*
X151200000Y-110800000D03*
X146800000Y-110800000D03*
X142200000Y-110800000D03*
X137800000Y-110800000D03*
X133200000Y-110800000D03*
X128800000Y-110800000D03*
X124200000Y-110800000D03*
X119800000Y-110800000D03*
X115700000Y-110800000D03*
X122000000Y-106000000D03*
X131000000Y-106000000D03*
X131000000Y-108500000D03*
X128500000Y-104500000D03*
X133500000Y-104500000D03*
X140000000Y-108500000D03*
X140000000Y-106000000D03*
X142500000Y-105000000D03*
X137500000Y-105000000D03*
X149000000Y-108500000D03*
X149000000Y-106500000D03*
X146600000Y-105300000D03*
X151600000Y-105200000D03*
X158000000Y-108500000D03*
X158000000Y-106500000D03*
X155700000Y-105900000D03*
X160200000Y-105800000D03*
X176000000Y-108500000D03*
X174000000Y-107500000D03*
X177800000Y-107000000D03*
X190000000Y-103500000D03*
X183800000Y-95600000D03*
X183000000Y-98000000D03*
X186500000Y-98000000D03*
X192000000Y-98000000D03*
X186200000Y-94800000D03*
X190100000Y-93900000D03*
X185500000Y-96500000D03*
X188500000Y-96000000D03*
X191000000Y-96000000D03*
X193000000Y-95500000D03*
X201000000Y-97400000D03*
X198000000Y-97500000D03*
X113000000Y-103000000D03*
X113000000Y-99000000D03*
X116200000Y-102800000D03*
X167000000Y-108500000D03*
X169000000Y-106400000D03*
X166700000Y-106400000D03*
X194000000Y-103700000D03*
X182300000Y-104900000D03*
G04 #@! TO.N,OUT2*
X118500000Y-103600010D03*
G04 #@! TO.N,OUT4*
X127500000Y-104100000D03*
G04 #@! TO.N,OUT6*
X136500000Y-104500028D03*
G04 #@! TO.N,OUT8*
X145500000Y-104950038D03*
G04 #@! TO.N,OUT10*
X154500000Y-105400046D03*
G04 #@! TO.N,OUT12*
X165300000Y-106500000D03*
G04 #@! TO.N,OUT14*
X174700000Y-106500000D03*
G04 #@! TO.N,OUT16*
X181500000Y-105800000D03*
G04 #@! TD*
D13*
G04 #@! TO.N,GND*
X119500000Y-104000000D02*
X118500000Y-105000000D01*
X118500000Y-105000000D02*
X117500000Y-104000000D01*
X116500000Y-103000000D02*
X116500000Y-104000000D01*
X116500000Y-104000000D02*
X115000000Y-104000000D01*
X117500000Y-104000000D02*
X116500000Y-104000000D01*
G04 #@! TO.N,OUT2*
X119000010Y-103100000D02*
X118500000Y-103600010D01*
X177500000Y-103100000D02*
X119000010Y-103100000D01*
X182935000Y-93365000D02*
X182935000Y-92000000D01*
X177500000Y-103100000D02*
X180100000Y-100500000D01*
X180100000Y-100500000D02*
X180100000Y-97800000D01*
X180100000Y-97800000D02*
X181600000Y-96300000D01*
X181600000Y-94700000D02*
X182935000Y-93365000D01*
X181600000Y-96300000D02*
X181600000Y-94700000D01*
G04 #@! TO.N,OUT4*
X185475000Y-92635358D02*
X185475000Y-92000000D01*
X128049990Y-103550010D02*
X177686401Y-103550009D01*
X127500000Y-104100000D02*
X128049990Y-103550010D01*
X177686401Y-103550009D02*
X180550010Y-100686400D01*
X180550010Y-100686400D02*
X180550010Y-97986400D01*
X180550010Y-97986400D02*
X182050010Y-96486400D01*
X182050010Y-96486400D02*
X182050010Y-94886400D01*
X184936410Y-92000000D02*
X185475000Y-92000000D01*
X182050010Y-94886400D02*
X184936410Y-92000000D01*
G04 #@! TO.N,OUT6*
X184036410Y-93536410D02*
X185963590Y-93536410D01*
X185963590Y-93536410D02*
X187500000Y-92000000D01*
X136500000Y-104500028D02*
X137000010Y-104000018D01*
X187500000Y-92000000D02*
X188015000Y-92000000D01*
X137000010Y-104000018D02*
X177872802Y-104000018D01*
X182500020Y-96672800D02*
X182500020Y-95072800D01*
X182500020Y-95072800D02*
X184036410Y-93536410D01*
X181000020Y-98172800D02*
X182500020Y-96672800D01*
X181000020Y-100872800D02*
X181000020Y-98172800D01*
X177872802Y-104000018D02*
X181000020Y-100872800D01*
G04 #@! TO.N,OUT8*
X190536410Y-92000000D02*
X190555000Y-92000000D01*
X184222810Y-93986420D02*
X188568580Y-93986420D01*
X145500000Y-104950038D02*
X146000010Y-104450028D01*
X188568580Y-93986420D02*
X190555000Y-92000000D01*
X146000010Y-104450028D02*
X178059203Y-104450027D01*
X178059203Y-104450027D02*
X181450030Y-101059200D01*
X181450030Y-98359200D02*
X182950030Y-96859200D01*
X181450030Y-101059200D02*
X181450030Y-98359200D01*
X182950030Y-95259200D02*
X184222810Y-93986420D01*
X182950030Y-96859200D02*
X182950030Y-95259200D01*
G04 #@! TO.N,OUT10*
X184135000Y-100800000D02*
X185475000Y-99460000D01*
X182345640Y-100800000D02*
X184135000Y-100800000D01*
X178245604Y-104900036D02*
X182345640Y-100800000D01*
X155000010Y-104900036D02*
X178245604Y-104900036D01*
X154500000Y-105400046D02*
X155000010Y-104900036D01*
G04 #@! TO.N,OUT12*
X185475000Y-102547820D02*
X185475000Y-102000000D01*
X185100000Y-102000000D02*
X185475000Y-102000000D01*
X180607049Y-103175001D02*
X184299999Y-103175001D01*
X178432005Y-105350045D02*
X180607049Y-103175001D01*
X184299999Y-103175001D02*
X185475000Y-102000000D01*
X166449954Y-105350046D02*
X178432005Y-105350045D01*
X165300000Y-106500000D02*
X166449954Y-105350046D01*
G04 #@! TO.N,OUT14*
X187500000Y-102000000D02*
X188015000Y-102000000D01*
X180793449Y-103625011D02*
X186389989Y-103625011D01*
X186389989Y-103625011D02*
X188015000Y-102000000D01*
X178618406Y-105800054D02*
X180793449Y-103625011D01*
X175399946Y-105800054D02*
X178618406Y-105800054D01*
X174700000Y-106500000D02*
X175399946Y-105800054D01*
G04 #@! TO.N,OUT16*
X190390412Y-102000000D02*
X190555000Y-102000000D01*
X190200000Y-102000000D02*
X190555000Y-102000000D01*
X189800000Y-102000000D02*
X190555000Y-102000000D01*
X188624999Y-103175001D02*
X189800000Y-102000000D01*
X187476409Y-103175001D02*
X188624999Y-103175001D01*
X186576390Y-104075020D02*
X187476409Y-103175001D01*
X182051977Y-104075021D02*
X186576390Y-104075020D01*
X181500000Y-104626998D02*
X182051977Y-104075021D01*
X181500000Y-105800000D02*
X181500000Y-104626998D01*
G04 #@! TD*
D14*
G04 #@! TO.N,GND*
G36*
X114815000Y-100033646D02*
G01*
X114817852Y-100062600D01*
X114817831Y-100065573D01*
X114818764Y-100075092D01*
X114823824Y-100123233D01*
X114824912Y-100134282D01*
X114825024Y-100134650D01*
X114828964Y-100172140D01*
X114841455Y-100232990D01*
X114853082Y-100293942D01*
X114855845Y-100303096D01*
X114855847Y-100303102D01*
X114884702Y-100396317D01*
X114908754Y-100453533D01*
X114932020Y-100511119D01*
X114936510Y-100519564D01*
X114982923Y-100605401D01*
X115017638Y-100656867D01*
X115051636Y-100708821D01*
X115057680Y-100716232D01*
X115119882Y-100791421D01*
X115163930Y-100835162D01*
X115207369Y-100879522D01*
X115214739Y-100885618D01*
X115214744Y-100885623D01*
X115214750Y-100885627D01*
X115290360Y-100947294D01*
X115342041Y-100981632D01*
X115393306Y-101016733D01*
X115401719Y-101021282D01*
X115487880Y-101067094D01*
X115545296Y-101090758D01*
X115602339Y-101115208D01*
X115611475Y-101118036D01*
X115704893Y-101146241D01*
X115765813Y-101158303D01*
X115826530Y-101171209D01*
X115836042Y-101172209D01*
X115933159Y-101181731D01*
X115933163Y-101181731D01*
X115966353Y-101185000D01*
X119815000Y-101185000D01*
X119815001Y-102033647D01*
X119817852Y-102062591D01*
X119817831Y-102065573D01*
X119818764Y-102075092D01*
X119823838Y-102123369D01*
X119824913Y-102134283D01*
X119825023Y-102134647D01*
X119828964Y-102172140D01*
X119841455Y-102232990D01*
X119853082Y-102293942D01*
X119855845Y-102303096D01*
X119855847Y-102303102D01*
X119867269Y-102340000D01*
X119037333Y-102340000D01*
X119000010Y-102336324D01*
X118962687Y-102340000D01*
X118962677Y-102340000D01*
X118851024Y-102350997D01*
X118727309Y-102388525D01*
X118707763Y-102394454D01*
X118575733Y-102465026D01*
X118547656Y-102488069D01*
X118460009Y-102559999D01*
X118455897Y-102565010D01*
X118398061Y-102565010D01*
X118198102Y-102604784D01*
X118009744Y-102682805D01*
X117840226Y-102796073D01*
X117696063Y-102940236D01*
X117582795Y-103109754D01*
X117504774Y-103298112D01*
X117465000Y-103498071D01*
X117465000Y-103701949D01*
X117504774Y-103901908D01*
X117582795Y-104090266D01*
X117696063Y-104259784D01*
X117840226Y-104403947D01*
X118009744Y-104517215D01*
X118198102Y-104595236D01*
X118398061Y-104635010D01*
X118601939Y-104635010D01*
X118801898Y-104595236D01*
X118990256Y-104517215D01*
X119159774Y-104403947D01*
X119303937Y-104259784D01*
X119417205Y-104090266D01*
X119495226Y-103901908D01*
X119503562Y-103860000D01*
X126492462Y-103860000D01*
X126465000Y-103998061D01*
X126465000Y-104201939D01*
X126504774Y-104401898D01*
X126582795Y-104590256D01*
X126696063Y-104759774D01*
X126840226Y-104903937D01*
X127009744Y-105017205D01*
X127198102Y-105095226D01*
X127398061Y-105135000D01*
X127601939Y-105135000D01*
X127801898Y-105095226D01*
X127990256Y-105017205D01*
X128159774Y-104903937D01*
X128303937Y-104759774D01*
X128417205Y-104590256D01*
X128495226Y-104401898D01*
X128513504Y-104310010D01*
X135482520Y-104310010D01*
X135465000Y-104398089D01*
X135465000Y-104601967D01*
X135504774Y-104801926D01*
X135582795Y-104990284D01*
X135696063Y-105159802D01*
X135840226Y-105303965D01*
X136009744Y-105417233D01*
X136198102Y-105495254D01*
X136398061Y-105535028D01*
X136601939Y-105535028D01*
X136801898Y-105495254D01*
X136990256Y-105417233D01*
X137159774Y-105303965D01*
X137303937Y-105159802D01*
X137417205Y-104990284D01*
X137495226Y-104801926D01*
X137503562Y-104760018D01*
X144482520Y-104760018D01*
X144465000Y-104848099D01*
X144465000Y-105051977D01*
X144504774Y-105251936D01*
X144582795Y-105440294D01*
X144696063Y-105609812D01*
X144840226Y-105753975D01*
X145009744Y-105867243D01*
X145198102Y-105945264D01*
X145398061Y-105985038D01*
X145601939Y-105985038D01*
X145801898Y-105945264D01*
X145990256Y-105867243D01*
X146159774Y-105753975D01*
X146303937Y-105609812D01*
X146417205Y-105440294D01*
X146495226Y-105251936D01*
X146503562Y-105210028D01*
X153482520Y-105210028D01*
X153465000Y-105298107D01*
X153465000Y-105501985D01*
X153504774Y-105701944D01*
X153582795Y-105890302D01*
X153696063Y-106059820D01*
X153840226Y-106203983D01*
X154009744Y-106317251D01*
X154198102Y-106395272D01*
X154398061Y-106435046D01*
X154601939Y-106435046D01*
X154801898Y-106395272D01*
X154990256Y-106317251D01*
X155159774Y-106203983D01*
X155303937Y-106059820D01*
X155417205Y-105890302D01*
X155495226Y-105701944D01*
X155503562Y-105660036D01*
X164694144Y-105660036D01*
X164640226Y-105696063D01*
X164496063Y-105840226D01*
X164382795Y-106009744D01*
X164304774Y-106198102D01*
X164265000Y-106398061D01*
X164265000Y-106601939D01*
X164304774Y-106801898D01*
X164382795Y-106990256D01*
X164496063Y-107159774D01*
X164640226Y-107303937D01*
X164809744Y-107417205D01*
X164998102Y-107495226D01*
X165198061Y-107535000D01*
X165401939Y-107535000D01*
X165601898Y-107495226D01*
X165790256Y-107417205D01*
X165959774Y-107303937D01*
X166103937Y-107159774D01*
X166217205Y-106990256D01*
X166295226Y-106801898D01*
X166335000Y-106601939D01*
X166335000Y-106539801D01*
X166764756Y-106110046D01*
X173741249Y-106110045D01*
X173704774Y-106198102D01*
X173665000Y-106398061D01*
X173665000Y-106601939D01*
X173704774Y-106801898D01*
X173782795Y-106990256D01*
X173896063Y-107159774D01*
X174040226Y-107303937D01*
X174209744Y-107417205D01*
X174398102Y-107495226D01*
X174598061Y-107535000D01*
X174801939Y-107535000D01*
X175001898Y-107495226D01*
X175190256Y-107417205D01*
X175359774Y-107303937D01*
X175503937Y-107159774D01*
X175617205Y-106990256D01*
X175695226Y-106801898D01*
X175735000Y-106601939D01*
X175735000Y-106560054D01*
X178581084Y-106560054D01*
X178618406Y-106563730D01*
X178655728Y-106560054D01*
X178655739Y-106560054D01*
X178767392Y-106549057D01*
X178910653Y-106505600D01*
X179042682Y-106435028D01*
X179158407Y-106340055D01*
X179182210Y-106311051D01*
X180740001Y-104753261D01*
X180740001Y-105096288D01*
X180696063Y-105140226D01*
X180582795Y-105309744D01*
X180504774Y-105498102D01*
X180465000Y-105698061D01*
X180465000Y-105901939D01*
X180504774Y-106101898D01*
X180582795Y-106290256D01*
X180696063Y-106459774D01*
X180840226Y-106603937D01*
X181009744Y-106717205D01*
X181198102Y-106795226D01*
X181398061Y-106835000D01*
X181601939Y-106835000D01*
X181801898Y-106795226D01*
X181990256Y-106717205D01*
X182159774Y-106603937D01*
X182303937Y-106459774D01*
X182315001Y-106443216D01*
X182315000Y-110815000D01*
X178185000Y-110815000D01*
X178185000Y-109966353D01*
X178182148Y-109937399D01*
X178182169Y-109934427D01*
X178181236Y-109924909D01*
X178176179Y-109876790D01*
X178175088Y-109865717D01*
X178174976Y-109865348D01*
X178171036Y-109827860D01*
X178158547Y-109767017D01*
X178146918Y-109706058D01*
X178144154Y-109696902D01*
X178115298Y-109603683D01*
X178091232Y-109546434D01*
X178067979Y-109488881D01*
X178063489Y-109480436D01*
X178017077Y-109394598D01*
X177982350Y-109343115D01*
X177948364Y-109291179D01*
X177942320Y-109283767D01*
X177880118Y-109208579D01*
X177836051Y-109164818D01*
X177792630Y-109120478D01*
X177785261Y-109114381D01*
X177709640Y-109052706D01*
X177657959Y-109018368D01*
X177606694Y-108983267D01*
X177598281Y-108978718D01*
X177512120Y-108932906D01*
X177454704Y-108909242D01*
X177397661Y-108884792D01*
X177388525Y-108881964D01*
X177295107Y-108853759D01*
X177234195Y-108841698D01*
X177173471Y-108828791D01*
X177163959Y-108827791D01*
X177066841Y-108818269D01*
X177066837Y-108818269D01*
X177033647Y-108815000D01*
X174966353Y-108815000D01*
X174937399Y-108817852D01*
X174934427Y-108817831D01*
X174924909Y-108818764D01*
X174876790Y-108823821D01*
X174865717Y-108824912D01*
X174865348Y-108825024D01*
X174827860Y-108828964D01*
X174767017Y-108841453D01*
X174706058Y-108853082D01*
X174696902Y-108855846D01*
X174603683Y-108884702D01*
X174546434Y-108908768D01*
X174488881Y-108932021D01*
X174480436Y-108936511D01*
X174394598Y-108982923D01*
X174343115Y-109017650D01*
X174291179Y-109051636D01*
X174283767Y-109057680D01*
X174208579Y-109119882D01*
X174164818Y-109163949D01*
X174120478Y-109207370D01*
X174114381Y-109214739D01*
X174052706Y-109290360D01*
X174018368Y-109342041D01*
X173983267Y-109393306D01*
X173978718Y-109401719D01*
X173932906Y-109487880D01*
X173909242Y-109545296D01*
X173884792Y-109602339D01*
X173881964Y-109611475D01*
X173853759Y-109704893D01*
X173841698Y-109765805D01*
X173828791Y-109826529D01*
X173827791Y-109836041D01*
X173818269Y-109933159D01*
X173818269Y-109933173D01*
X173815001Y-109966353D01*
X173815000Y-110815000D01*
X169185000Y-110815000D01*
X169185000Y-109966353D01*
X169182148Y-109937399D01*
X169182169Y-109934427D01*
X169181236Y-109924909D01*
X169176179Y-109876790D01*
X169175088Y-109865717D01*
X169174976Y-109865348D01*
X169171036Y-109827860D01*
X169158547Y-109767017D01*
X169146918Y-109706058D01*
X169144154Y-109696902D01*
X169115298Y-109603683D01*
X169091232Y-109546434D01*
X169067979Y-109488881D01*
X169063489Y-109480436D01*
X169017077Y-109394598D01*
X168982350Y-109343115D01*
X168948364Y-109291179D01*
X168942320Y-109283767D01*
X168880118Y-109208579D01*
X168836051Y-109164818D01*
X168792630Y-109120478D01*
X168785261Y-109114381D01*
X168709640Y-109052706D01*
X168657959Y-109018368D01*
X168606694Y-108983267D01*
X168598281Y-108978718D01*
X168512120Y-108932906D01*
X168454704Y-108909242D01*
X168397661Y-108884792D01*
X168388525Y-108881964D01*
X168295107Y-108853759D01*
X168234195Y-108841698D01*
X168173471Y-108828791D01*
X168163959Y-108827791D01*
X168066841Y-108818269D01*
X168066837Y-108818269D01*
X168033647Y-108815000D01*
X165966353Y-108815000D01*
X165937399Y-108817852D01*
X165934427Y-108817831D01*
X165924909Y-108818764D01*
X165876790Y-108823821D01*
X165865717Y-108824912D01*
X165865348Y-108825024D01*
X165827860Y-108828964D01*
X165767017Y-108841453D01*
X165706058Y-108853082D01*
X165696902Y-108855846D01*
X165603683Y-108884702D01*
X165546434Y-108908768D01*
X165488881Y-108932021D01*
X165480436Y-108936511D01*
X165394598Y-108982923D01*
X165343115Y-109017650D01*
X165291179Y-109051636D01*
X165283767Y-109057680D01*
X165208579Y-109119882D01*
X165164818Y-109163949D01*
X165120478Y-109207370D01*
X165114381Y-109214739D01*
X165052706Y-109290360D01*
X165018368Y-109342041D01*
X164983267Y-109393306D01*
X164978718Y-109401719D01*
X164932906Y-109487880D01*
X164909242Y-109545296D01*
X164884792Y-109602339D01*
X164881964Y-109611475D01*
X164853759Y-109704893D01*
X164841698Y-109765805D01*
X164828791Y-109826529D01*
X164827791Y-109836041D01*
X164818269Y-109933159D01*
X164818269Y-109933173D01*
X164815001Y-109966353D01*
X164815000Y-110815000D01*
X160185000Y-110815000D01*
X160185000Y-109966353D01*
X160182148Y-109937399D01*
X160182169Y-109934427D01*
X160181236Y-109924909D01*
X160176179Y-109876790D01*
X160175088Y-109865717D01*
X160174976Y-109865348D01*
X160171036Y-109827860D01*
X160158547Y-109767017D01*
X160146918Y-109706058D01*
X160144154Y-109696902D01*
X160115298Y-109603683D01*
X160091232Y-109546434D01*
X160067979Y-109488881D01*
X160063489Y-109480436D01*
X160017077Y-109394598D01*
X159982350Y-109343115D01*
X159948364Y-109291179D01*
X159942320Y-109283767D01*
X159880118Y-109208579D01*
X159836051Y-109164818D01*
X159792630Y-109120478D01*
X159785261Y-109114381D01*
X159709640Y-109052706D01*
X159657959Y-109018368D01*
X159606694Y-108983267D01*
X159598281Y-108978718D01*
X159512120Y-108932906D01*
X159454704Y-108909242D01*
X159397661Y-108884792D01*
X159388525Y-108881964D01*
X159295107Y-108853759D01*
X159234195Y-108841698D01*
X159173471Y-108828791D01*
X159163959Y-108827791D01*
X159066841Y-108818269D01*
X159066837Y-108818269D01*
X159033647Y-108815000D01*
X156966353Y-108815000D01*
X156937399Y-108817852D01*
X156934427Y-108817831D01*
X156924909Y-108818764D01*
X156876790Y-108823821D01*
X156865717Y-108824912D01*
X156865348Y-108825024D01*
X156827860Y-108828964D01*
X156767017Y-108841453D01*
X156706058Y-108853082D01*
X156696902Y-108855846D01*
X156603683Y-108884702D01*
X156546434Y-108908768D01*
X156488881Y-108932021D01*
X156480436Y-108936511D01*
X156394598Y-108982923D01*
X156343115Y-109017650D01*
X156291179Y-109051636D01*
X156283767Y-109057680D01*
X156208579Y-109119882D01*
X156164818Y-109163949D01*
X156120478Y-109207370D01*
X156114381Y-109214739D01*
X156052706Y-109290360D01*
X156018368Y-109342041D01*
X155983267Y-109393306D01*
X155978718Y-109401719D01*
X155932906Y-109487880D01*
X155909242Y-109545296D01*
X155884792Y-109602339D01*
X155881964Y-109611475D01*
X155853759Y-109704893D01*
X155841698Y-109765805D01*
X155828791Y-109826529D01*
X155827791Y-109836041D01*
X155818269Y-109933159D01*
X155818269Y-109933173D01*
X155815001Y-109966353D01*
X155815000Y-110815000D01*
X151185000Y-110815000D01*
X151185000Y-109966353D01*
X151182148Y-109937399D01*
X151182169Y-109934427D01*
X151181236Y-109924909D01*
X151176179Y-109876790D01*
X151175088Y-109865717D01*
X151174976Y-109865348D01*
X151171036Y-109827860D01*
X151158547Y-109767017D01*
X151146918Y-109706058D01*
X151144154Y-109696902D01*
X151115298Y-109603683D01*
X151091232Y-109546434D01*
X151067979Y-109488881D01*
X151063489Y-109480436D01*
X151017077Y-109394598D01*
X150982350Y-109343115D01*
X150948364Y-109291179D01*
X150942320Y-109283767D01*
X150880118Y-109208579D01*
X150836051Y-109164818D01*
X150792630Y-109120478D01*
X150785261Y-109114381D01*
X150709640Y-109052706D01*
X150657959Y-109018368D01*
X150606694Y-108983267D01*
X150598281Y-108978718D01*
X150512120Y-108932906D01*
X150454704Y-108909242D01*
X150397661Y-108884792D01*
X150388525Y-108881964D01*
X150295107Y-108853759D01*
X150234195Y-108841698D01*
X150173471Y-108828791D01*
X150163959Y-108827791D01*
X150066841Y-108818269D01*
X150066837Y-108818269D01*
X150033647Y-108815000D01*
X147966353Y-108815000D01*
X147937399Y-108817852D01*
X147934427Y-108817831D01*
X147924909Y-108818764D01*
X147876790Y-108823821D01*
X147865717Y-108824912D01*
X147865348Y-108825024D01*
X147827860Y-108828964D01*
X147767017Y-108841453D01*
X147706058Y-108853082D01*
X147696902Y-108855846D01*
X147603683Y-108884702D01*
X147546434Y-108908768D01*
X147488881Y-108932021D01*
X147480436Y-108936511D01*
X147394598Y-108982923D01*
X147343115Y-109017650D01*
X147291179Y-109051636D01*
X147283767Y-109057680D01*
X147208579Y-109119882D01*
X147164818Y-109163949D01*
X147120478Y-109207370D01*
X147114381Y-109214739D01*
X147052706Y-109290360D01*
X147018368Y-109342041D01*
X146983267Y-109393306D01*
X146978718Y-109401719D01*
X146932906Y-109487880D01*
X146909242Y-109545296D01*
X146884792Y-109602339D01*
X146881964Y-109611475D01*
X146853759Y-109704893D01*
X146841698Y-109765805D01*
X146828791Y-109826529D01*
X146827791Y-109836041D01*
X146818269Y-109933159D01*
X146818269Y-109933173D01*
X146815001Y-109966353D01*
X146815000Y-110815000D01*
X142185000Y-110815000D01*
X142185000Y-109966353D01*
X142182148Y-109937399D01*
X142182169Y-109934427D01*
X142181236Y-109924909D01*
X142176179Y-109876790D01*
X142175088Y-109865717D01*
X142174976Y-109865348D01*
X142171036Y-109827860D01*
X142158547Y-109767017D01*
X142146918Y-109706058D01*
X142144154Y-109696902D01*
X142115298Y-109603683D01*
X142091232Y-109546434D01*
X142067979Y-109488881D01*
X142063489Y-109480436D01*
X142017077Y-109394598D01*
X141982350Y-109343115D01*
X141948364Y-109291179D01*
X141942320Y-109283767D01*
X141880118Y-109208579D01*
X141836051Y-109164818D01*
X141792630Y-109120478D01*
X141785261Y-109114381D01*
X141709640Y-109052706D01*
X141657959Y-109018368D01*
X141606694Y-108983267D01*
X141598281Y-108978718D01*
X141512120Y-108932906D01*
X141454704Y-108909242D01*
X141397661Y-108884792D01*
X141388525Y-108881964D01*
X141295107Y-108853759D01*
X141234195Y-108841698D01*
X141173471Y-108828791D01*
X141163959Y-108827791D01*
X141066841Y-108818269D01*
X141066837Y-108818269D01*
X141033647Y-108815000D01*
X138966353Y-108815000D01*
X138937399Y-108817852D01*
X138934427Y-108817831D01*
X138924909Y-108818764D01*
X138876790Y-108823821D01*
X138865717Y-108824912D01*
X138865348Y-108825024D01*
X138827860Y-108828964D01*
X138767017Y-108841453D01*
X138706058Y-108853082D01*
X138696902Y-108855846D01*
X138603683Y-108884702D01*
X138546434Y-108908768D01*
X138488881Y-108932021D01*
X138480436Y-108936511D01*
X138394598Y-108982923D01*
X138343115Y-109017650D01*
X138291179Y-109051636D01*
X138283767Y-109057680D01*
X138208579Y-109119882D01*
X138164818Y-109163949D01*
X138120478Y-109207370D01*
X138114381Y-109214739D01*
X138052706Y-109290360D01*
X138018368Y-109342041D01*
X137983267Y-109393306D01*
X137978718Y-109401719D01*
X137932906Y-109487880D01*
X137909242Y-109545296D01*
X137884792Y-109602339D01*
X137881964Y-109611475D01*
X137853759Y-109704893D01*
X137841698Y-109765805D01*
X137828791Y-109826529D01*
X137827791Y-109836041D01*
X137818269Y-109933159D01*
X137818269Y-109933173D01*
X137815001Y-109966353D01*
X137815000Y-110815000D01*
X133185000Y-110815000D01*
X133185000Y-109966353D01*
X133182148Y-109937399D01*
X133182169Y-109934427D01*
X133181236Y-109924909D01*
X133176179Y-109876790D01*
X133175088Y-109865717D01*
X133174976Y-109865348D01*
X133171036Y-109827860D01*
X133158547Y-109767017D01*
X133146918Y-109706058D01*
X133144154Y-109696902D01*
X133115298Y-109603683D01*
X133091232Y-109546434D01*
X133067979Y-109488881D01*
X133063489Y-109480436D01*
X133017077Y-109394598D01*
X132982350Y-109343115D01*
X132948364Y-109291179D01*
X132942320Y-109283767D01*
X132880118Y-109208579D01*
X132836051Y-109164818D01*
X132792630Y-109120478D01*
X132785261Y-109114381D01*
X132709640Y-109052706D01*
X132657959Y-109018368D01*
X132606694Y-108983267D01*
X132598281Y-108978718D01*
X132512120Y-108932906D01*
X132454704Y-108909242D01*
X132397661Y-108884792D01*
X132388525Y-108881964D01*
X132295107Y-108853759D01*
X132234195Y-108841698D01*
X132173471Y-108828791D01*
X132163959Y-108827791D01*
X132066841Y-108818269D01*
X132066837Y-108818269D01*
X132033647Y-108815000D01*
X129966353Y-108815000D01*
X129937399Y-108817852D01*
X129934427Y-108817831D01*
X129924909Y-108818764D01*
X129876790Y-108823821D01*
X129865717Y-108824912D01*
X129865348Y-108825024D01*
X129827860Y-108828964D01*
X129767017Y-108841453D01*
X129706058Y-108853082D01*
X129696902Y-108855846D01*
X129603683Y-108884702D01*
X129546434Y-108908768D01*
X129488881Y-108932021D01*
X129480436Y-108936511D01*
X129394598Y-108982923D01*
X129343115Y-109017650D01*
X129291179Y-109051636D01*
X129283767Y-109057680D01*
X129208579Y-109119882D01*
X129164818Y-109163949D01*
X129120478Y-109207370D01*
X129114381Y-109214739D01*
X129052706Y-109290360D01*
X129018368Y-109342041D01*
X128983267Y-109393306D01*
X128978718Y-109401719D01*
X128932906Y-109487880D01*
X128909242Y-109545296D01*
X128884792Y-109602339D01*
X128881964Y-109611475D01*
X128853759Y-109704893D01*
X128841698Y-109765805D01*
X128828791Y-109826529D01*
X128827791Y-109836041D01*
X128818269Y-109933159D01*
X128818269Y-109933173D01*
X128815001Y-109966353D01*
X128815000Y-110815000D01*
X124185000Y-110815000D01*
X124185000Y-109966353D01*
X124182148Y-109937399D01*
X124182169Y-109934427D01*
X124181236Y-109924909D01*
X124176179Y-109876790D01*
X124175088Y-109865717D01*
X124174976Y-109865348D01*
X124171036Y-109827860D01*
X124158547Y-109767017D01*
X124146918Y-109706058D01*
X124144154Y-109696902D01*
X124115298Y-109603683D01*
X124091232Y-109546434D01*
X124067979Y-109488881D01*
X124063489Y-109480436D01*
X124017077Y-109394598D01*
X123982350Y-109343115D01*
X123948364Y-109291179D01*
X123942320Y-109283767D01*
X123880118Y-109208579D01*
X123836051Y-109164818D01*
X123792630Y-109120478D01*
X123785261Y-109114381D01*
X123709640Y-109052706D01*
X123657959Y-109018368D01*
X123606694Y-108983267D01*
X123598281Y-108978718D01*
X123512120Y-108932906D01*
X123454704Y-108909242D01*
X123397661Y-108884792D01*
X123388525Y-108881964D01*
X123295107Y-108853759D01*
X123234195Y-108841698D01*
X123173471Y-108828791D01*
X123163959Y-108827791D01*
X123066841Y-108818269D01*
X123066837Y-108818269D01*
X123033647Y-108815000D01*
X120966353Y-108815000D01*
X120937399Y-108817852D01*
X120934427Y-108817831D01*
X120924909Y-108818764D01*
X120876790Y-108823821D01*
X120865717Y-108824912D01*
X120865348Y-108825024D01*
X120827860Y-108828964D01*
X120767017Y-108841453D01*
X120706058Y-108853082D01*
X120696902Y-108855846D01*
X120603683Y-108884702D01*
X120546434Y-108908768D01*
X120488881Y-108932021D01*
X120480436Y-108936511D01*
X120394598Y-108982923D01*
X120343115Y-109017650D01*
X120291179Y-109051636D01*
X120283767Y-109057680D01*
X120208579Y-109119882D01*
X120164818Y-109163949D01*
X120120478Y-109207370D01*
X120114381Y-109214739D01*
X120052706Y-109290360D01*
X120018368Y-109342041D01*
X119983267Y-109393306D01*
X119978718Y-109401719D01*
X119932906Y-109487880D01*
X119909242Y-109545296D01*
X119884792Y-109602339D01*
X119881964Y-109611475D01*
X119853759Y-109704893D01*
X119841698Y-109765805D01*
X119828791Y-109826529D01*
X119827791Y-109836041D01*
X119818269Y-109933159D01*
X119818269Y-109933173D01*
X119815001Y-109966353D01*
X119815000Y-110815000D01*
X115685000Y-110815000D01*
X115685000Y-104966353D01*
X115682148Y-104937399D01*
X115682169Y-104934427D01*
X115681236Y-104924909D01*
X115676179Y-104876790D01*
X115675088Y-104865717D01*
X115674976Y-104865348D01*
X115671036Y-104827860D01*
X115658547Y-104767017D01*
X115646918Y-104706058D01*
X115644154Y-104696902D01*
X115615298Y-104603683D01*
X115591226Y-104546419D01*
X115567979Y-104488881D01*
X115563489Y-104480436D01*
X115517077Y-104394598D01*
X115482350Y-104343115D01*
X115448364Y-104291179D01*
X115442320Y-104283767D01*
X115380118Y-104208579D01*
X115336051Y-104164818D01*
X115292630Y-104120478D01*
X115285261Y-104114381D01*
X115209640Y-104052706D01*
X115157959Y-104018368D01*
X115106694Y-103983267D01*
X115098281Y-103978718D01*
X115012120Y-103932906D01*
X114954704Y-103909242D01*
X114897661Y-103884792D01*
X114888525Y-103881964D01*
X114795107Y-103853759D01*
X114734195Y-103841698D01*
X114673471Y-103828791D01*
X114663959Y-103827791D01*
X114566841Y-103818269D01*
X114566837Y-103818269D01*
X114533647Y-103815000D01*
X111185000Y-103815000D01*
X111185000Y-97370177D01*
X111442564Y-97627741D01*
X111842721Y-97895117D01*
X112287351Y-98079289D01*
X112759368Y-98173179D01*
X113240632Y-98173179D01*
X113712649Y-98079289D01*
X114157279Y-97895117D01*
X114557436Y-97627741D01*
X114815000Y-97370177D01*
X114815000Y-100033646D01*
G37*
X114815000Y-100033646D02*
X114817852Y-100062600D01*
X114817831Y-100065573D01*
X114818764Y-100075092D01*
X114823824Y-100123233D01*
X114824912Y-100134282D01*
X114825024Y-100134650D01*
X114828964Y-100172140D01*
X114841455Y-100232990D01*
X114853082Y-100293942D01*
X114855845Y-100303096D01*
X114855847Y-100303102D01*
X114884702Y-100396317D01*
X114908754Y-100453533D01*
X114932020Y-100511119D01*
X114936510Y-100519564D01*
X114982923Y-100605401D01*
X115017638Y-100656867D01*
X115051636Y-100708821D01*
X115057680Y-100716232D01*
X115119882Y-100791421D01*
X115163930Y-100835162D01*
X115207369Y-100879522D01*
X115214739Y-100885618D01*
X115214744Y-100885623D01*
X115214750Y-100885627D01*
X115290360Y-100947294D01*
X115342041Y-100981632D01*
X115393306Y-101016733D01*
X115401719Y-101021282D01*
X115487880Y-101067094D01*
X115545296Y-101090758D01*
X115602339Y-101115208D01*
X115611475Y-101118036D01*
X115704893Y-101146241D01*
X115765813Y-101158303D01*
X115826530Y-101171209D01*
X115836042Y-101172209D01*
X115933159Y-101181731D01*
X115933163Y-101181731D01*
X115966353Y-101185000D01*
X119815000Y-101185000D01*
X119815001Y-102033647D01*
X119817852Y-102062591D01*
X119817831Y-102065573D01*
X119818764Y-102075092D01*
X119823838Y-102123369D01*
X119824913Y-102134283D01*
X119825023Y-102134647D01*
X119828964Y-102172140D01*
X119841455Y-102232990D01*
X119853082Y-102293942D01*
X119855845Y-102303096D01*
X119855847Y-102303102D01*
X119867269Y-102340000D01*
X119037333Y-102340000D01*
X119000010Y-102336324D01*
X118962687Y-102340000D01*
X118962677Y-102340000D01*
X118851024Y-102350997D01*
X118727309Y-102388525D01*
X118707763Y-102394454D01*
X118575733Y-102465026D01*
X118547656Y-102488069D01*
X118460009Y-102559999D01*
X118455897Y-102565010D01*
X118398061Y-102565010D01*
X118198102Y-102604784D01*
X118009744Y-102682805D01*
X117840226Y-102796073D01*
X117696063Y-102940236D01*
X117582795Y-103109754D01*
X117504774Y-103298112D01*
X117465000Y-103498071D01*
X117465000Y-103701949D01*
X117504774Y-103901908D01*
X117582795Y-104090266D01*
X117696063Y-104259784D01*
X117840226Y-104403947D01*
X118009744Y-104517215D01*
X118198102Y-104595236D01*
X118398061Y-104635010D01*
X118601939Y-104635010D01*
X118801898Y-104595236D01*
X118990256Y-104517215D01*
X119159774Y-104403947D01*
X119303937Y-104259784D01*
X119417205Y-104090266D01*
X119495226Y-103901908D01*
X119503562Y-103860000D01*
X126492462Y-103860000D01*
X126465000Y-103998061D01*
X126465000Y-104201939D01*
X126504774Y-104401898D01*
X126582795Y-104590256D01*
X126696063Y-104759774D01*
X126840226Y-104903937D01*
X127009744Y-105017205D01*
X127198102Y-105095226D01*
X127398061Y-105135000D01*
X127601939Y-105135000D01*
X127801898Y-105095226D01*
X127990256Y-105017205D01*
X128159774Y-104903937D01*
X128303937Y-104759774D01*
X128417205Y-104590256D01*
X128495226Y-104401898D01*
X128513504Y-104310010D01*
X135482520Y-104310010D01*
X135465000Y-104398089D01*
X135465000Y-104601967D01*
X135504774Y-104801926D01*
X135582795Y-104990284D01*
X135696063Y-105159802D01*
X135840226Y-105303965D01*
X136009744Y-105417233D01*
X136198102Y-105495254D01*
X136398061Y-105535028D01*
X136601939Y-105535028D01*
X136801898Y-105495254D01*
X136990256Y-105417233D01*
X137159774Y-105303965D01*
X137303937Y-105159802D01*
X137417205Y-104990284D01*
X137495226Y-104801926D01*
X137503562Y-104760018D01*
X144482520Y-104760018D01*
X144465000Y-104848099D01*
X144465000Y-105051977D01*
X144504774Y-105251936D01*
X144582795Y-105440294D01*
X144696063Y-105609812D01*
X144840226Y-105753975D01*
X145009744Y-105867243D01*
X145198102Y-105945264D01*
X145398061Y-105985038D01*
X145601939Y-105985038D01*
X145801898Y-105945264D01*
X145990256Y-105867243D01*
X146159774Y-105753975D01*
X146303937Y-105609812D01*
X146417205Y-105440294D01*
X146495226Y-105251936D01*
X146503562Y-105210028D01*
X153482520Y-105210028D01*
X153465000Y-105298107D01*
X153465000Y-105501985D01*
X153504774Y-105701944D01*
X153582795Y-105890302D01*
X153696063Y-106059820D01*
X153840226Y-106203983D01*
X154009744Y-106317251D01*
X154198102Y-106395272D01*
X154398061Y-106435046D01*
X154601939Y-106435046D01*
X154801898Y-106395272D01*
X154990256Y-106317251D01*
X155159774Y-106203983D01*
X155303937Y-106059820D01*
X155417205Y-105890302D01*
X155495226Y-105701944D01*
X155503562Y-105660036D01*
X164694144Y-105660036D01*
X164640226Y-105696063D01*
X164496063Y-105840226D01*
X164382795Y-106009744D01*
X164304774Y-106198102D01*
X164265000Y-106398061D01*
X164265000Y-106601939D01*
X164304774Y-106801898D01*
X164382795Y-106990256D01*
X164496063Y-107159774D01*
X164640226Y-107303937D01*
X164809744Y-107417205D01*
X164998102Y-107495226D01*
X165198061Y-107535000D01*
X165401939Y-107535000D01*
X165601898Y-107495226D01*
X165790256Y-107417205D01*
X165959774Y-107303937D01*
X166103937Y-107159774D01*
X166217205Y-106990256D01*
X166295226Y-106801898D01*
X166335000Y-106601939D01*
X166335000Y-106539801D01*
X166764756Y-106110046D01*
X173741249Y-106110045D01*
X173704774Y-106198102D01*
X173665000Y-106398061D01*
X173665000Y-106601939D01*
X173704774Y-106801898D01*
X173782795Y-106990256D01*
X173896063Y-107159774D01*
X174040226Y-107303937D01*
X174209744Y-107417205D01*
X174398102Y-107495226D01*
X174598061Y-107535000D01*
X174801939Y-107535000D01*
X175001898Y-107495226D01*
X175190256Y-107417205D01*
X175359774Y-107303937D01*
X175503937Y-107159774D01*
X175617205Y-106990256D01*
X175695226Y-106801898D01*
X175735000Y-106601939D01*
X175735000Y-106560054D01*
X178581084Y-106560054D01*
X178618406Y-106563730D01*
X178655728Y-106560054D01*
X178655739Y-106560054D01*
X178767392Y-106549057D01*
X178910653Y-106505600D01*
X179042682Y-106435028D01*
X179158407Y-106340055D01*
X179182210Y-106311051D01*
X180740001Y-104753261D01*
X180740001Y-105096288D01*
X180696063Y-105140226D01*
X180582795Y-105309744D01*
X180504774Y-105498102D01*
X180465000Y-105698061D01*
X180465000Y-105901939D01*
X180504774Y-106101898D01*
X180582795Y-106290256D01*
X180696063Y-106459774D01*
X180840226Y-106603937D01*
X181009744Y-106717205D01*
X181198102Y-106795226D01*
X181398061Y-106835000D01*
X181601939Y-106835000D01*
X181801898Y-106795226D01*
X181990256Y-106717205D01*
X182159774Y-106603937D01*
X182303937Y-106459774D01*
X182315001Y-106443216D01*
X182315000Y-110815000D01*
X178185000Y-110815000D01*
X178185000Y-109966353D01*
X178182148Y-109937399D01*
X178182169Y-109934427D01*
X178181236Y-109924909D01*
X178176179Y-109876790D01*
X178175088Y-109865717D01*
X178174976Y-109865348D01*
X178171036Y-109827860D01*
X178158547Y-109767017D01*
X178146918Y-109706058D01*
X178144154Y-109696902D01*
X178115298Y-109603683D01*
X178091232Y-109546434D01*
X178067979Y-109488881D01*
X178063489Y-109480436D01*
X178017077Y-109394598D01*
X177982350Y-109343115D01*
X177948364Y-109291179D01*
X177942320Y-109283767D01*
X177880118Y-109208579D01*
X177836051Y-109164818D01*
X177792630Y-109120478D01*
X177785261Y-109114381D01*
X177709640Y-109052706D01*
X177657959Y-109018368D01*
X177606694Y-108983267D01*
X177598281Y-108978718D01*
X177512120Y-108932906D01*
X177454704Y-108909242D01*
X177397661Y-108884792D01*
X177388525Y-108881964D01*
X177295107Y-108853759D01*
X177234195Y-108841698D01*
X177173471Y-108828791D01*
X177163959Y-108827791D01*
X177066841Y-108818269D01*
X177066837Y-108818269D01*
X177033647Y-108815000D01*
X174966353Y-108815000D01*
X174937399Y-108817852D01*
X174934427Y-108817831D01*
X174924909Y-108818764D01*
X174876790Y-108823821D01*
X174865717Y-108824912D01*
X174865348Y-108825024D01*
X174827860Y-108828964D01*
X174767017Y-108841453D01*
X174706058Y-108853082D01*
X174696902Y-108855846D01*
X174603683Y-108884702D01*
X174546434Y-108908768D01*
X174488881Y-108932021D01*
X174480436Y-108936511D01*
X174394598Y-108982923D01*
X174343115Y-109017650D01*
X174291179Y-109051636D01*
X174283767Y-109057680D01*
X174208579Y-109119882D01*
X174164818Y-109163949D01*
X174120478Y-109207370D01*
X174114381Y-109214739D01*
X174052706Y-109290360D01*
X174018368Y-109342041D01*
X173983267Y-109393306D01*
X173978718Y-109401719D01*
X173932906Y-109487880D01*
X173909242Y-109545296D01*
X173884792Y-109602339D01*
X173881964Y-109611475D01*
X173853759Y-109704893D01*
X173841698Y-109765805D01*
X173828791Y-109826529D01*
X173827791Y-109836041D01*
X173818269Y-109933159D01*
X173818269Y-109933173D01*
X173815001Y-109966353D01*
X173815000Y-110815000D01*
X169185000Y-110815000D01*
X169185000Y-109966353D01*
X169182148Y-109937399D01*
X169182169Y-109934427D01*
X169181236Y-109924909D01*
X169176179Y-109876790D01*
X169175088Y-109865717D01*
X169174976Y-109865348D01*
X169171036Y-109827860D01*
X169158547Y-109767017D01*
X169146918Y-109706058D01*
X169144154Y-109696902D01*
X169115298Y-109603683D01*
X169091232Y-109546434D01*
X169067979Y-109488881D01*
X169063489Y-109480436D01*
X169017077Y-109394598D01*
X168982350Y-109343115D01*
X168948364Y-109291179D01*
X168942320Y-109283767D01*
X168880118Y-109208579D01*
X168836051Y-109164818D01*
X168792630Y-109120478D01*
X168785261Y-109114381D01*
X168709640Y-109052706D01*
X168657959Y-109018368D01*
X168606694Y-108983267D01*
X168598281Y-108978718D01*
X168512120Y-108932906D01*
X168454704Y-108909242D01*
X168397661Y-108884792D01*
X168388525Y-108881964D01*
X168295107Y-108853759D01*
X168234195Y-108841698D01*
X168173471Y-108828791D01*
X168163959Y-108827791D01*
X168066841Y-108818269D01*
X168066837Y-108818269D01*
X168033647Y-108815000D01*
X165966353Y-108815000D01*
X165937399Y-108817852D01*
X165934427Y-108817831D01*
X165924909Y-108818764D01*
X165876790Y-108823821D01*
X165865717Y-108824912D01*
X165865348Y-108825024D01*
X165827860Y-108828964D01*
X165767017Y-108841453D01*
X165706058Y-108853082D01*
X165696902Y-108855846D01*
X165603683Y-108884702D01*
X165546434Y-108908768D01*
X165488881Y-108932021D01*
X165480436Y-108936511D01*
X165394598Y-108982923D01*
X165343115Y-109017650D01*
X165291179Y-109051636D01*
X165283767Y-109057680D01*
X165208579Y-109119882D01*
X165164818Y-109163949D01*
X165120478Y-109207370D01*
X165114381Y-109214739D01*
X165052706Y-109290360D01*
X165018368Y-109342041D01*
X164983267Y-109393306D01*
X164978718Y-109401719D01*
X164932906Y-109487880D01*
X164909242Y-109545296D01*
X164884792Y-109602339D01*
X164881964Y-109611475D01*
X164853759Y-109704893D01*
X164841698Y-109765805D01*
X164828791Y-109826529D01*
X164827791Y-109836041D01*
X164818269Y-109933159D01*
X164818269Y-109933173D01*
X164815001Y-109966353D01*
X164815000Y-110815000D01*
X160185000Y-110815000D01*
X160185000Y-109966353D01*
X160182148Y-109937399D01*
X160182169Y-109934427D01*
X160181236Y-109924909D01*
X160176179Y-109876790D01*
X160175088Y-109865717D01*
X160174976Y-109865348D01*
X160171036Y-109827860D01*
X160158547Y-109767017D01*
X160146918Y-109706058D01*
X160144154Y-109696902D01*
X160115298Y-109603683D01*
X160091232Y-109546434D01*
X160067979Y-109488881D01*
X160063489Y-109480436D01*
X160017077Y-109394598D01*
X159982350Y-109343115D01*
X159948364Y-109291179D01*
X159942320Y-109283767D01*
X159880118Y-109208579D01*
X159836051Y-109164818D01*
X159792630Y-109120478D01*
X159785261Y-109114381D01*
X159709640Y-109052706D01*
X159657959Y-109018368D01*
X159606694Y-108983267D01*
X159598281Y-108978718D01*
X159512120Y-108932906D01*
X159454704Y-108909242D01*
X159397661Y-108884792D01*
X159388525Y-108881964D01*
X159295107Y-108853759D01*
X159234195Y-108841698D01*
X159173471Y-108828791D01*
X159163959Y-108827791D01*
X159066841Y-108818269D01*
X159066837Y-108818269D01*
X159033647Y-108815000D01*
X156966353Y-108815000D01*
X156937399Y-108817852D01*
X156934427Y-108817831D01*
X156924909Y-108818764D01*
X156876790Y-108823821D01*
X156865717Y-108824912D01*
X156865348Y-108825024D01*
X156827860Y-108828964D01*
X156767017Y-108841453D01*
X156706058Y-108853082D01*
X156696902Y-108855846D01*
X156603683Y-108884702D01*
X156546434Y-108908768D01*
X156488881Y-108932021D01*
X156480436Y-108936511D01*
X156394598Y-108982923D01*
X156343115Y-109017650D01*
X156291179Y-109051636D01*
X156283767Y-109057680D01*
X156208579Y-109119882D01*
X156164818Y-109163949D01*
X156120478Y-109207370D01*
X156114381Y-109214739D01*
X156052706Y-109290360D01*
X156018368Y-109342041D01*
X155983267Y-109393306D01*
X155978718Y-109401719D01*
X155932906Y-109487880D01*
X155909242Y-109545296D01*
X155884792Y-109602339D01*
X155881964Y-109611475D01*
X155853759Y-109704893D01*
X155841698Y-109765805D01*
X155828791Y-109826529D01*
X155827791Y-109836041D01*
X155818269Y-109933159D01*
X155818269Y-109933173D01*
X155815001Y-109966353D01*
X155815000Y-110815000D01*
X151185000Y-110815000D01*
X151185000Y-109966353D01*
X151182148Y-109937399D01*
X151182169Y-109934427D01*
X151181236Y-109924909D01*
X151176179Y-109876790D01*
X151175088Y-109865717D01*
X151174976Y-109865348D01*
X151171036Y-109827860D01*
X151158547Y-109767017D01*
X151146918Y-109706058D01*
X151144154Y-109696902D01*
X151115298Y-109603683D01*
X151091232Y-109546434D01*
X151067979Y-109488881D01*
X151063489Y-109480436D01*
X151017077Y-109394598D01*
X150982350Y-109343115D01*
X150948364Y-109291179D01*
X150942320Y-109283767D01*
X150880118Y-109208579D01*
X150836051Y-109164818D01*
X150792630Y-109120478D01*
X150785261Y-109114381D01*
X150709640Y-109052706D01*
X150657959Y-109018368D01*
X150606694Y-108983267D01*
X150598281Y-108978718D01*
X150512120Y-108932906D01*
X150454704Y-108909242D01*
X150397661Y-108884792D01*
X150388525Y-108881964D01*
X150295107Y-108853759D01*
X150234195Y-108841698D01*
X150173471Y-108828791D01*
X150163959Y-108827791D01*
X150066841Y-108818269D01*
X150066837Y-108818269D01*
X150033647Y-108815000D01*
X147966353Y-108815000D01*
X147937399Y-108817852D01*
X147934427Y-108817831D01*
X147924909Y-108818764D01*
X147876790Y-108823821D01*
X147865717Y-108824912D01*
X147865348Y-108825024D01*
X147827860Y-108828964D01*
X147767017Y-108841453D01*
X147706058Y-108853082D01*
X147696902Y-108855846D01*
X147603683Y-108884702D01*
X147546434Y-108908768D01*
X147488881Y-108932021D01*
X147480436Y-108936511D01*
X147394598Y-108982923D01*
X147343115Y-109017650D01*
X147291179Y-109051636D01*
X147283767Y-109057680D01*
X147208579Y-109119882D01*
X147164818Y-109163949D01*
X147120478Y-109207370D01*
X147114381Y-109214739D01*
X147052706Y-109290360D01*
X147018368Y-109342041D01*
X146983267Y-109393306D01*
X146978718Y-109401719D01*
X146932906Y-109487880D01*
X146909242Y-109545296D01*
X146884792Y-109602339D01*
X146881964Y-109611475D01*
X146853759Y-109704893D01*
X146841698Y-109765805D01*
X146828791Y-109826529D01*
X146827791Y-109836041D01*
X146818269Y-109933159D01*
X146818269Y-109933173D01*
X146815001Y-109966353D01*
X146815000Y-110815000D01*
X142185000Y-110815000D01*
X142185000Y-109966353D01*
X142182148Y-109937399D01*
X142182169Y-109934427D01*
X142181236Y-109924909D01*
X142176179Y-109876790D01*
X142175088Y-109865717D01*
X142174976Y-109865348D01*
X142171036Y-109827860D01*
X142158547Y-109767017D01*
X142146918Y-109706058D01*
X142144154Y-109696902D01*
X142115298Y-109603683D01*
X142091232Y-109546434D01*
X142067979Y-109488881D01*
X142063489Y-109480436D01*
X142017077Y-109394598D01*
X141982350Y-109343115D01*
X141948364Y-109291179D01*
X141942320Y-109283767D01*
X141880118Y-109208579D01*
X141836051Y-109164818D01*
X141792630Y-109120478D01*
X141785261Y-109114381D01*
X141709640Y-109052706D01*
X141657959Y-109018368D01*
X141606694Y-108983267D01*
X141598281Y-108978718D01*
X141512120Y-108932906D01*
X141454704Y-108909242D01*
X141397661Y-108884792D01*
X141388525Y-108881964D01*
X141295107Y-108853759D01*
X141234195Y-108841698D01*
X141173471Y-108828791D01*
X141163959Y-108827791D01*
X141066841Y-108818269D01*
X141066837Y-108818269D01*
X141033647Y-108815000D01*
X138966353Y-108815000D01*
X138937399Y-108817852D01*
X138934427Y-108817831D01*
X138924909Y-108818764D01*
X138876790Y-108823821D01*
X138865717Y-108824912D01*
X138865348Y-108825024D01*
X138827860Y-108828964D01*
X138767017Y-108841453D01*
X138706058Y-108853082D01*
X138696902Y-108855846D01*
X138603683Y-108884702D01*
X138546434Y-108908768D01*
X138488881Y-108932021D01*
X138480436Y-108936511D01*
X138394598Y-108982923D01*
X138343115Y-109017650D01*
X138291179Y-109051636D01*
X138283767Y-109057680D01*
X138208579Y-109119882D01*
X138164818Y-109163949D01*
X138120478Y-109207370D01*
X138114381Y-109214739D01*
X138052706Y-109290360D01*
X138018368Y-109342041D01*
X137983267Y-109393306D01*
X137978718Y-109401719D01*
X137932906Y-109487880D01*
X137909242Y-109545296D01*
X137884792Y-109602339D01*
X137881964Y-109611475D01*
X137853759Y-109704893D01*
X137841698Y-109765805D01*
X137828791Y-109826529D01*
X137827791Y-109836041D01*
X137818269Y-109933159D01*
X137818269Y-109933173D01*
X137815001Y-109966353D01*
X137815000Y-110815000D01*
X133185000Y-110815000D01*
X133185000Y-109966353D01*
X133182148Y-109937399D01*
X133182169Y-109934427D01*
X133181236Y-109924909D01*
X133176179Y-109876790D01*
X133175088Y-109865717D01*
X133174976Y-109865348D01*
X133171036Y-109827860D01*
X133158547Y-109767017D01*
X133146918Y-109706058D01*
X133144154Y-109696902D01*
X133115298Y-109603683D01*
X133091232Y-109546434D01*
X133067979Y-109488881D01*
X133063489Y-109480436D01*
X133017077Y-109394598D01*
X132982350Y-109343115D01*
X132948364Y-109291179D01*
X132942320Y-109283767D01*
X132880118Y-109208579D01*
X132836051Y-109164818D01*
X132792630Y-109120478D01*
X132785261Y-109114381D01*
X132709640Y-109052706D01*
X132657959Y-109018368D01*
X132606694Y-108983267D01*
X132598281Y-108978718D01*
X132512120Y-108932906D01*
X132454704Y-108909242D01*
X132397661Y-108884792D01*
X132388525Y-108881964D01*
X132295107Y-108853759D01*
X132234195Y-108841698D01*
X132173471Y-108828791D01*
X132163959Y-108827791D01*
X132066841Y-108818269D01*
X132066837Y-108818269D01*
X132033647Y-108815000D01*
X129966353Y-108815000D01*
X129937399Y-108817852D01*
X129934427Y-108817831D01*
X129924909Y-108818764D01*
X129876790Y-108823821D01*
X129865717Y-108824912D01*
X129865348Y-108825024D01*
X129827860Y-108828964D01*
X129767017Y-108841453D01*
X129706058Y-108853082D01*
X129696902Y-108855846D01*
X129603683Y-108884702D01*
X129546434Y-108908768D01*
X129488881Y-108932021D01*
X129480436Y-108936511D01*
X129394598Y-108982923D01*
X129343115Y-109017650D01*
X129291179Y-109051636D01*
X129283767Y-109057680D01*
X129208579Y-109119882D01*
X129164818Y-109163949D01*
X129120478Y-109207370D01*
X129114381Y-109214739D01*
X129052706Y-109290360D01*
X129018368Y-109342041D01*
X128983267Y-109393306D01*
X128978718Y-109401719D01*
X128932906Y-109487880D01*
X128909242Y-109545296D01*
X128884792Y-109602339D01*
X128881964Y-109611475D01*
X128853759Y-109704893D01*
X128841698Y-109765805D01*
X128828791Y-109826529D01*
X128827791Y-109836041D01*
X128818269Y-109933159D01*
X128818269Y-109933173D01*
X128815001Y-109966353D01*
X128815000Y-110815000D01*
X124185000Y-110815000D01*
X124185000Y-109966353D01*
X124182148Y-109937399D01*
X124182169Y-109934427D01*
X124181236Y-109924909D01*
X124176179Y-109876790D01*
X124175088Y-109865717D01*
X124174976Y-109865348D01*
X124171036Y-109827860D01*
X124158547Y-109767017D01*
X124146918Y-109706058D01*
X124144154Y-109696902D01*
X124115298Y-109603683D01*
X124091232Y-109546434D01*
X124067979Y-109488881D01*
X124063489Y-109480436D01*
X124017077Y-109394598D01*
X123982350Y-109343115D01*
X123948364Y-109291179D01*
X123942320Y-109283767D01*
X123880118Y-109208579D01*
X123836051Y-109164818D01*
X123792630Y-109120478D01*
X123785261Y-109114381D01*
X123709640Y-109052706D01*
X123657959Y-109018368D01*
X123606694Y-108983267D01*
X123598281Y-108978718D01*
X123512120Y-108932906D01*
X123454704Y-108909242D01*
X123397661Y-108884792D01*
X123388525Y-108881964D01*
X123295107Y-108853759D01*
X123234195Y-108841698D01*
X123173471Y-108828791D01*
X123163959Y-108827791D01*
X123066841Y-108818269D01*
X123066837Y-108818269D01*
X123033647Y-108815000D01*
X120966353Y-108815000D01*
X120937399Y-108817852D01*
X120934427Y-108817831D01*
X120924909Y-108818764D01*
X120876790Y-108823821D01*
X120865717Y-108824912D01*
X120865348Y-108825024D01*
X120827860Y-108828964D01*
X120767017Y-108841453D01*
X120706058Y-108853082D01*
X120696902Y-108855846D01*
X120603683Y-108884702D01*
X120546434Y-108908768D01*
X120488881Y-108932021D01*
X120480436Y-108936511D01*
X120394598Y-108982923D01*
X120343115Y-109017650D01*
X120291179Y-109051636D01*
X120283767Y-109057680D01*
X120208579Y-109119882D01*
X120164818Y-109163949D01*
X120120478Y-109207370D01*
X120114381Y-109214739D01*
X120052706Y-109290360D01*
X120018368Y-109342041D01*
X119983267Y-109393306D01*
X119978718Y-109401719D01*
X119932906Y-109487880D01*
X119909242Y-109545296D01*
X119884792Y-109602339D01*
X119881964Y-109611475D01*
X119853759Y-109704893D01*
X119841698Y-109765805D01*
X119828791Y-109826529D01*
X119827791Y-109836041D01*
X119818269Y-109933159D01*
X119818269Y-109933173D01*
X119815001Y-109966353D01*
X119815000Y-110815000D01*
X115685000Y-110815000D01*
X115685000Y-104966353D01*
X115682148Y-104937399D01*
X115682169Y-104934427D01*
X115681236Y-104924909D01*
X115676179Y-104876790D01*
X115675088Y-104865717D01*
X115674976Y-104865348D01*
X115671036Y-104827860D01*
X115658547Y-104767017D01*
X115646918Y-104706058D01*
X115644154Y-104696902D01*
X115615298Y-104603683D01*
X115591226Y-104546419D01*
X115567979Y-104488881D01*
X115563489Y-104480436D01*
X115517077Y-104394598D01*
X115482350Y-104343115D01*
X115448364Y-104291179D01*
X115442320Y-104283767D01*
X115380118Y-104208579D01*
X115336051Y-104164818D01*
X115292630Y-104120478D01*
X115285261Y-104114381D01*
X115209640Y-104052706D01*
X115157959Y-104018368D01*
X115106694Y-103983267D01*
X115098281Y-103978718D01*
X115012120Y-103932906D01*
X114954704Y-103909242D01*
X114897661Y-103884792D01*
X114888525Y-103881964D01*
X114795107Y-103853759D01*
X114734195Y-103841698D01*
X114673471Y-103828791D01*
X114663959Y-103827791D01*
X114566841Y-103818269D01*
X114566837Y-103818269D01*
X114533647Y-103815000D01*
X111185000Y-103815000D01*
X111185000Y-97370177D01*
X111442564Y-97627741D01*
X111842721Y-97895117D01*
X112287351Y-98079289D01*
X112759368Y-98173179D01*
X113240632Y-98173179D01*
X113712649Y-98079289D01*
X114157279Y-97895117D01*
X114557436Y-97627741D01*
X114815000Y-97370177D01*
X114815000Y-100033646D01*
G36*
X182318269Y-104933159D02*
G01*
X182318269Y-104933173D01*
X182315001Y-104966353D01*
X182315001Y-105156784D01*
X182303937Y-105140226D01*
X182260000Y-105096289D01*
X182260000Y-104941799D01*
X182323664Y-104878136D01*
X182318269Y-104933159D01*
G37*
X182318269Y-104933159D02*
X182318269Y-104933173D01*
X182315001Y-104966353D01*
X182315001Y-105156784D01*
X182303937Y-105140226D01*
X182260000Y-105096289D01*
X182260000Y-104941799D01*
X182323664Y-104878136D01*
X182318269Y-104933159D01*
G36*
X193222000Y-89333000D02*
G01*
X193242000Y-89333000D01*
X193242000Y-89587000D01*
X193222000Y-89587000D01*
X193222000Y-91873000D01*
X193242000Y-91873000D01*
X193242000Y-92127000D01*
X193222000Y-92127000D01*
X193222000Y-93326250D01*
X193380750Y-93485000D01*
X193945000Y-93488072D01*
X194069482Y-93475812D01*
X194189180Y-93439502D01*
X194299494Y-93380537D01*
X194396185Y-93301185D01*
X194475537Y-93204494D01*
X194534502Y-93094180D01*
X194542641Y-93067350D01*
X194568402Y-93114994D01*
X194603122Y-93166468D01*
X194637117Y-93218418D01*
X194643161Y-93225829D01*
X194767565Y-93376207D01*
X194811638Y-93419973D01*
X194855057Y-93464311D01*
X194862426Y-93470408D01*
X195013668Y-93593758D01*
X195065397Y-93628126D01*
X195116608Y-93663191D01*
X195125016Y-93667737D01*
X195125020Y-93667740D01*
X195125024Y-93667742D01*
X195297343Y-93759366D01*
X195354739Y-93783022D01*
X195411807Y-93807482D01*
X195420944Y-93810310D01*
X195607780Y-93866719D01*
X195668690Y-93878780D01*
X195729409Y-93891686D01*
X195738921Y-93892686D01*
X195933155Y-93911731D01*
X195933163Y-93911731D01*
X195966353Y-93915000D01*
X201359823Y-93915000D01*
X201102259Y-94172564D01*
X200834883Y-94572721D01*
X200650711Y-95017351D01*
X200556821Y-95489368D01*
X200556821Y-95970632D01*
X200650711Y-96442649D01*
X200834883Y-96887279D01*
X201102259Y-97287436D01*
X201359823Y-97545000D01*
X195966353Y-97545000D01*
X195937045Y-97547887D01*
X195930933Y-97547844D01*
X195921415Y-97548777D01*
X195727318Y-97569178D01*
X195666504Y-97581661D01*
X195605519Y-97593295D01*
X195596363Y-97596059D01*
X195409925Y-97653771D01*
X195352692Y-97677830D01*
X195295127Y-97701087D01*
X195286682Y-97705577D01*
X195115006Y-97798402D01*
X195063532Y-97833122D01*
X195011582Y-97867117D01*
X195004170Y-97873162D01*
X194853793Y-97997565D01*
X194810027Y-98041638D01*
X194765689Y-98085057D01*
X194759592Y-98092426D01*
X194636242Y-98243668D01*
X194601881Y-98295386D01*
X194566809Y-98346607D01*
X194562260Y-98355020D01*
X194470635Y-98527343D01*
X194446978Y-98584739D01*
X194422519Y-98641807D01*
X194419690Y-98650943D01*
X194390613Y-98747253D01*
X194290178Y-98578645D01*
X194095269Y-98362412D01*
X193861920Y-98188359D01*
X193599099Y-98063175D01*
X193451890Y-98018524D01*
X193222000Y-98139845D01*
X193222000Y-99333000D01*
X193242000Y-99333000D01*
X193242000Y-99587000D01*
X193222000Y-99587000D01*
X193222000Y-101873000D01*
X193242000Y-101873000D01*
X193242000Y-102127000D01*
X193222000Y-102127000D01*
X193222000Y-103326250D01*
X193380750Y-103485000D01*
X193945000Y-103488072D01*
X194069482Y-103475812D01*
X194189180Y-103439502D01*
X194299494Y-103380537D01*
X194315000Y-103367812D01*
X194315000Y-103466495D01*
X194305778Y-103560546D01*
X194288194Y-103618787D01*
X194259635Y-103672500D01*
X194221183Y-103719646D01*
X194174310Y-103758423D01*
X194120796Y-103787358D01*
X194062677Y-103805349D01*
X193970855Y-103815000D01*
X189039874Y-103815000D01*
X189049275Y-103809975D01*
X189165000Y-103715002D01*
X189188803Y-103685998D01*
X189676082Y-103198720D01*
X189851589Y-103315990D01*
X190121842Y-103427932D01*
X190408740Y-103485000D01*
X190701260Y-103485000D01*
X190988158Y-103427932D01*
X191258411Y-103315990D01*
X191501632Y-103153475D01*
X191633487Y-103021620D01*
X191655498Y-103094180D01*
X191714463Y-103204494D01*
X191793815Y-103301185D01*
X191890506Y-103380537D01*
X192000820Y-103439502D01*
X192120518Y-103475812D01*
X192245000Y-103488072D01*
X192809250Y-103485000D01*
X192968000Y-103326250D01*
X192968000Y-102127000D01*
X192948000Y-102127000D01*
X192948000Y-101873000D01*
X192968000Y-101873000D01*
X192968000Y-99587000D01*
X192948000Y-99587000D01*
X192948000Y-99333000D01*
X192968000Y-99333000D01*
X192968000Y-98139845D01*
X192738110Y-98018524D01*
X192590901Y-98063175D01*
X192328080Y-98188359D01*
X192094731Y-98362412D01*
X191899822Y-98578645D01*
X191830195Y-98695534D01*
X191708475Y-98513368D01*
X191501632Y-98306525D01*
X191258411Y-98144010D01*
X190988158Y-98032068D01*
X190701260Y-97975000D01*
X190408740Y-97975000D01*
X190121842Y-98032068D01*
X189851589Y-98144010D01*
X189608368Y-98306525D01*
X189401525Y-98513368D01*
X189285000Y-98687760D01*
X189168475Y-98513368D01*
X188961632Y-98306525D01*
X188718411Y-98144010D01*
X188448158Y-98032068D01*
X188161260Y-97975000D01*
X187868740Y-97975000D01*
X187581842Y-98032068D01*
X187311589Y-98144010D01*
X187068368Y-98306525D01*
X186861525Y-98513368D01*
X186745000Y-98687760D01*
X186628475Y-98513368D01*
X186421632Y-98306525D01*
X186178411Y-98144010D01*
X185908158Y-98032068D01*
X185621260Y-97975000D01*
X185328740Y-97975000D01*
X185041842Y-98032068D01*
X184771589Y-98144010D01*
X184528368Y-98306525D01*
X184321525Y-98513368D01*
X184205000Y-98687760D01*
X184088475Y-98513368D01*
X183881632Y-98306525D01*
X183638411Y-98144010D01*
X183368158Y-98032068D01*
X183081260Y-97975000D01*
X182909032Y-97975000D01*
X183461034Y-97422998D01*
X183490031Y-97399201D01*
X183585004Y-97283476D01*
X183655576Y-97151447D01*
X183699033Y-97008186D01*
X183710030Y-96896533D01*
X183710030Y-96896524D01*
X183713706Y-96859201D01*
X183710030Y-96821878D01*
X183710030Y-95574001D01*
X184537612Y-94746420D01*
X188531258Y-94746420D01*
X188568580Y-94750096D01*
X188605902Y-94746420D01*
X188605913Y-94746420D01*
X188717566Y-94735423D01*
X188860827Y-94691966D01*
X188992856Y-94621394D01*
X189108581Y-94526421D01*
X189132384Y-94497417D01*
X190188592Y-93441210D01*
X190408740Y-93485000D01*
X190701260Y-93485000D01*
X190988158Y-93427932D01*
X191258411Y-93315990D01*
X191501632Y-93153475D01*
X191633487Y-93021620D01*
X191655498Y-93094180D01*
X191714463Y-93204494D01*
X191793815Y-93301185D01*
X191890506Y-93380537D01*
X192000820Y-93439502D01*
X192120518Y-93475812D01*
X192245000Y-93488072D01*
X192809250Y-93485000D01*
X192968000Y-93326250D01*
X192968000Y-92127000D01*
X192948000Y-92127000D01*
X192948000Y-91873000D01*
X192968000Y-91873000D01*
X192968000Y-89587000D01*
X192948000Y-89587000D01*
X192948000Y-89333000D01*
X192968000Y-89333000D01*
X192968000Y-89313000D01*
X193222000Y-89313000D01*
X193222000Y-89333000D01*
G37*
X193222000Y-89333000D02*
X193242000Y-89333000D01*
X193242000Y-89587000D01*
X193222000Y-89587000D01*
X193222000Y-91873000D01*
X193242000Y-91873000D01*
X193242000Y-92127000D01*
X193222000Y-92127000D01*
X193222000Y-93326250D01*
X193380750Y-93485000D01*
X193945000Y-93488072D01*
X194069482Y-93475812D01*
X194189180Y-93439502D01*
X194299494Y-93380537D01*
X194396185Y-93301185D01*
X194475537Y-93204494D01*
X194534502Y-93094180D01*
X194542641Y-93067350D01*
X194568402Y-93114994D01*
X194603122Y-93166468D01*
X194637117Y-93218418D01*
X194643161Y-93225829D01*
X194767565Y-93376207D01*
X194811638Y-93419973D01*
X194855057Y-93464311D01*
X194862426Y-93470408D01*
X195013668Y-93593758D01*
X195065397Y-93628126D01*
X195116608Y-93663191D01*
X195125016Y-93667737D01*
X195125020Y-93667740D01*
X195125024Y-93667742D01*
X195297343Y-93759366D01*
X195354739Y-93783022D01*
X195411807Y-93807482D01*
X195420944Y-93810310D01*
X195607780Y-93866719D01*
X195668690Y-93878780D01*
X195729409Y-93891686D01*
X195738921Y-93892686D01*
X195933155Y-93911731D01*
X195933163Y-93911731D01*
X195966353Y-93915000D01*
X201359823Y-93915000D01*
X201102259Y-94172564D01*
X200834883Y-94572721D01*
X200650711Y-95017351D01*
X200556821Y-95489368D01*
X200556821Y-95970632D01*
X200650711Y-96442649D01*
X200834883Y-96887279D01*
X201102259Y-97287436D01*
X201359823Y-97545000D01*
X195966353Y-97545000D01*
X195937045Y-97547887D01*
X195930933Y-97547844D01*
X195921415Y-97548777D01*
X195727318Y-97569178D01*
X195666504Y-97581661D01*
X195605519Y-97593295D01*
X195596363Y-97596059D01*
X195409925Y-97653771D01*
X195352692Y-97677830D01*
X195295127Y-97701087D01*
X195286682Y-97705577D01*
X195115006Y-97798402D01*
X195063532Y-97833122D01*
X195011582Y-97867117D01*
X195004170Y-97873162D01*
X194853793Y-97997565D01*
X194810027Y-98041638D01*
X194765689Y-98085057D01*
X194759592Y-98092426D01*
X194636242Y-98243668D01*
X194601881Y-98295386D01*
X194566809Y-98346607D01*
X194562260Y-98355020D01*
X194470635Y-98527343D01*
X194446978Y-98584739D01*
X194422519Y-98641807D01*
X194419690Y-98650943D01*
X194390613Y-98747253D01*
X194290178Y-98578645D01*
X194095269Y-98362412D01*
X193861920Y-98188359D01*
X193599099Y-98063175D01*
X193451890Y-98018524D01*
X193222000Y-98139845D01*
X193222000Y-99333000D01*
X193242000Y-99333000D01*
X193242000Y-99587000D01*
X193222000Y-99587000D01*
X193222000Y-101873000D01*
X193242000Y-101873000D01*
X193242000Y-102127000D01*
X193222000Y-102127000D01*
X193222000Y-103326250D01*
X193380750Y-103485000D01*
X193945000Y-103488072D01*
X194069482Y-103475812D01*
X194189180Y-103439502D01*
X194299494Y-103380537D01*
X194315000Y-103367812D01*
X194315000Y-103466495D01*
X194305778Y-103560546D01*
X194288194Y-103618787D01*
X194259635Y-103672500D01*
X194221183Y-103719646D01*
X194174310Y-103758423D01*
X194120796Y-103787358D01*
X194062677Y-103805349D01*
X193970855Y-103815000D01*
X189039874Y-103815000D01*
X189049275Y-103809975D01*
X189165000Y-103715002D01*
X189188803Y-103685998D01*
X189676082Y-103198720D01*
X189851589Y-103315990D01*
X190121842Y-103427932D01*
X190408740Y-103485000D01*
X190701260Y-103485000D01*
X190988158Y-103427932D01*
X191258411Y-103315990D01*
X191501632Y-103153475D01*
X191633487Y-103021620D01*
X191655498Y-103094180D01*
X191714463Y-103204494D01*
X191793815Y-103301185D01*
X191890506Y-103380537D01*
X192000820Y-103439502D01*
X192120518Y-103475812D01*
X192245000Y-103488072D01*
X192809250Y-103485000D01*
X192968000Y-103326250D01*
X192968000Y-102127000D01*
X192948000Y-102127000D01*
X192948000Y-101873000D01*
X192968000Y-101873000D01*
X192968000Y-99587000D01*
X192948000Y-99587000D01*
X192948000Y-99333000D01*
X192968000Y-99333000D01*
X192968000Y-98139845D01*
X192738110Y-98018524D01*
X192590901Y-98063175D01*
X192328080Y-98188359D01*
X192094731Y-98362412D01*
X191899822Y-98578645D01*
X191830195Y-98695534D01*
X191708475Y-98513368D01*
X191501632Y-98306525D01*
X191258411Y-98144010D01*
X190988158Y-98032068D01*
X190701260Y-97975000D01*
X190408740Y-97975000D01*
X190121842Y-98032068D01*
X189851589Y-98144010D01*
X189608368Y-98306525D01*
X189401525Y-98513368D01*
X189285000Y-98687760D01*
X189168475Y-98513368D01*
X188961632Y-98306525D01*
X188718411Y-98144010D01*
X188448158Y-98032068D01*
X188161260Y-97975000D01*
X187868740Y-97975000D01*
X187581842Y-98032068D01*
X187311589Y-98144010D01*
X187068368Y-98306525D01*
X186861525Y-98513368D01*
X186745000Y-98687760D01*
X186628475Y-98513368D01*
X186421632Y-98306525D01*
X186178411Y-98144010D01*
X185908158Y-98032068D01*
X185621260Y-97975000D01*
X185328740Y-97975000D01*
X185041842Y-98032068D01*
X184771589Y-98144010D01*
X184528368Y-98306525D01*
X184321525Y-98513368D01*
X184205000Y-98687760D01*
X184088475Y-98513368D01*
X183881632Y-98306525D01*
X183638411Y-98144010D01*
X183368158Y-98032068D01*
X183081260Y-97975000D01*
X182909032Y-97975000D01*
X183461034Y-97422998D01*
X183490031Y-97399201D01*
X183585004Y-97283476D01*
X183655576Y-97151447D01*
X183699033Y-97008186D01*
X183710030Y-96896533D01*
X183710030Y-96896524D01*
X183713706Y-96859201D01*
X183710030Y-96821878D01*
X183710030Y-95574001D01*
X184537612Y-94746420D01*
X188531258Y-94746420D01*
X188568580Y-94750096D01*
X188605902Y-94746420D01*
X188605913Y-94746420D01*
X188717566Y-94735423D01*
X188860827Y-94691966D01*
X188992856Y-94621394D01*
X189108581Y-94526421D01*
X189132384Y-94497417D01*
X190188592Y-93441210D01*
X190408740Y-93485000D01*
X190701260Y-93485000D01*
X190988158Y-93427932D01*
X191258411Y-93315990D01*
X191501632Y-93153475D01*
X191633487Y-93021620D01*
X191655498Y-93094180D01*
X191714463Y-93204494D01*
X191793815Y-93301185D01*
X191890506Y-93380537D01*
X192000820Y-93439502D01*
X192120518Y-93475812D01*
X192245000Y-93488072D01*
X192809250Y-93485000D01*
X192968000Y-93326250D01*
X192968000Y-92127000D01*
X192948000Y-92127000D01*
X192948000Y-91873000D01*
X192968000Y-91873000D01*
X192968000Y-89587000D01*
X192948000Y-89587000D01*
X192948000Y-89333000D01*
X192968000Y-89333000D01*
X192968000Y-89313000D01*
X193222000Y-89313000D01*
X193222000Y-89333000D01*
G04 #@! TD*
M02*
