M48
; DRILL file {KiCad (5.1.6-0-10_14)} date Monday, September 14, 2020 at 01:46:39 PM
; FORMAT={-:-/ absolute / inch / decimal}
; #@! TF.CreationDate,2020-09-14T13:46:39+09:00
; #@! TF.GenerationSoftware,Kicad,Pcbnew,(5.1.6-0-10_14)
FMAT,2
INCH
T1C0.0157
T2C0.0315
T3C0.0394
%
G90
G05
T1
X3.3031Y-2.685
X3.3071Y-2.4961
X3.311Y-3.4409
X3.311Y-4.3819
X3.315Y-2.8386
X3.315Y-3.0354
X3.315Y-3.6299
X3.3228Y-3.2283
X3.3228Y-3.8425
X3.3228Y-4.2283
X3.3268Y-4.0354
X3.4213Y-4.3268
X3.4331Y-2.5866
X3.4409Y-2.5
X3.4904Y-3.4003
X3.4961Y-2.689
X3.5748Y-4.3504
X3.5787Y-2.4961
X3.5984Y-2.6024
X3.6214Y-2.9274
X3.651Y-2.8975
X3.6512Y-2.735
X3.6614Y-3.174
X3.7283Y-2.6339
X3.7283Y-3.6378
X3.7362Y-2.9843
X3.7568Y-2.8704
X3.7639Y-3.9135
X3.8031Y-3.7441
X3.811Y-4.1142
X3.8307Y-2.6496
X3.8663Y-3.9353
X3.8898Y-4.2323
X3.9094Y-4.1457
X3.9134Y-2.6339
X3.9621Y-3.9874
X3.9882Y-4.1575
X4.0039Y-4.2559
X4.0669Y-3.0512
X4.0709Y-4.2244
X4.0787Y-2.9488
X4.0906Y-4.1575
X4.0984Y-3.1457
X4.1023Y-3.8484
X4.1063Y-3.311
X4.126Y-2.5866
X4.1457Y-4.2717
X4.1535Y-2.4921
X4.1692Y-3.8222
X4.1693Y-2.9094
X4.1693Y-4.378
X4.1772Y-2.7008
X4.1811Y-4.1811
X4.2008Y-3.0394
X4.2087Y-3.374
X4.2441Y-3.4724
X4.252Y-2.5906
X4.2559Y-4.1535
X4.2638Y-2.7992
X4.2638Y-4.2795
X4.2992Y-3.1378
X4.3031Y-2.9449
X4.3071Y-2.4961
X4.3583Y-4.3661
X4.3661Y-2.8898
X4.3661Y-3.563
X4.378Y-3.0591
X4.378Y-3.3701
X4.3819Y-4.1693
X4.3858Y-2.7047
X4.3858Y-3.2047
X4.3937Y-4.2677
X4.4134Y-3.689
X4.4173Y-2.5866
X4.4213Y-2.9567
X4.4803Y-2.4921
X4.4882Y-3.1299
X4.4882Y-3.4646
X4.4882Y-4.063
X4.4882Y-4.374
X4.4921Y-2.8071
X4.4921Y-4.2441
X4.4961Y-3.2953
X4.5Y-3.7323
T2
X3.595Y-4.119
X3.595Y-4.2174
T3
X3.4146Y-2.8339
X3.4146Y-2.9339
X3.4146Y-3.0339
X3.4146Y-3.1339
X3.4146Y-3.2339
X3.4146Y-3.3339
X3.4146Y-3.4339
X3.4146Y-3.5339
X3.4146Y-3.6339
X3.4146Y-3.7339
X3.4146Y-3.8339
X3.4146Y-3.9339
X3.4146Y-4.0339
X3.4146Y-4.1339
X3.6669Y-4.3307
X3.7669Y-4.3307
X3.8669Y-4.3307
X3.9669Y-4.3307
X4.0669Y-4.3307
X3.6669Y-2.537
X3.7669Y-2.537
X3.8669Y-2.537
X3.9669Y-2.537
X4.0669Y-2.537
X4.0835Y-2.7559
X4.0835Y-2.8559
T0
M30
