G04 #@! TF.GenerationSoftware,KiCad,Pcbnew,(5.1.6-0-10_14)*
G04 #@! TF.CreationDate,2021-10-07T11:44:50+09:00*
G04 #@! TF.ProjectId,peltier,70656c74-6965-4722-9e6b-696361645f70,rev?*
G04 #@! TF.SameCoordinates,Original*
G04 #@! TF.FileFunction,Copper,L1,Top*
G04 #@! TF.FilePolarity,Positive*
%FSLAX46Y46*%
G04 Gerber Fmt 4.6, Leading zero omitted, Abs format (unit mm)*
G04 Created by KiCad (PCBNEW (5.1.6-0-10_14)) date 2021-10-07 11:44:50*
%MOMM*%
%LPD*%
G01*
G04 APERTURE LIST*
G04 #@! TA.AperFunction,NonConductor*
%ADD10C,0.100000*%
G04 #@! TD*
G04 #@! TA.AperFunction,EtchedComponent*
%ADD11C,0.100000*%
G04 #@! TD*
G04 #@! TA.AperFunction,SMDPad,CuDef*
%ADD12R,0.250000X0.450000*%
G04 #@! TD*
G04 #@! TA.AperFunction,SMDPad,CuDef*
%ADD13R,0.450000X0.250000*%
G04 #@! TD*
G04 #@! TA.AperFunction,ComponentPad*
%ADD14O,1.700000X1.700000*%
G04 #@! TD*
G04 #@! TA.AperFunction,ComponentPad*
%ADD15R,1.700000X1.700000*%
G04 #@! TD*
G04 #@! TA.AperFunction,SMDPad,CuDef*
%ADD16R,0.450000X1.450000*%
G04 #@! TD*
G04 #@! TA.AperFunction,SMDPad,CuDef*
%ADD17R,0.400000X1.450000*%
G04 #@! TD*
G04 #@! TA.AperFunction,ComponentPad*
%ADD18R,3.500000X3.500000*%
G04 #@! TD*
G04 #@! TA.AperFunction,ComponentPad*
%ADD19C,2.000000*%
G04 #@! TD*
G04 #@! TA.AperFunction,SMDPad,CuDef*
%ADD20R,4.100000X4.100000*%
G04 #@! TD*
G04 #@! TA.AperFunction,SMDPad,CuDef*
%ADD21R,1.270000X0.609600*%
G04 #@! TD*
G04 #@! TA.AperFunction,SMDPad,CuDef*
%ADD22R,0.450000X0.450000*%
G04 #@! TD*
G04 #@! TA.AperFunction,SMDPad,CuDef*
%ADD23R,2.450000X1.036000*%
G04 #@! TD*
G04 #@! TA.AperFunction,SMDPad,CuDef*
%ADD24R,2.450000X0.562000*%
G04 #@! TD*
G04 #@! TA.AperFunction,SMDPad,CuDef*
%ADD25C,0.100000*%
G04 #@! TD*
G04 #@! TA.AperFunction,ViaPad*
%ADD26C,0.800000*%
G04 #@! TD*
G04 #@! TA.AperFunction,Conductor*
%ADD27C,0.250000*%
G04 #@! TD*
G04 #@! TA.AperFunction,Conductor*
%ADD28C,0.500000*%
G04 #@! TD*
G04 #@! TA.AperFunction,Conductor*
%ADD29C,1.000000*%
G04 #@! TD*
G04 #@! TA.AperFunction,Conductor*
%ADD30C,0.750000*%
G04 #@! TD*
G04 #@! TA.AperFunction,Conductor*
%ADD31C,0.254000*%
G04 #@! TD*
G04 APERTURE END LIST*
D10*
G36*
X173875000Y-56050000D02*
G01*
X171550000Y-56050000D01*
X171550000Y-57675000D01*
X166800000Y-57675000D01*
X166800000Y-55600000D01*
X173875000Y-55600000D01*
X173875000Y-56050000D01*
G37*
X173875000Y-56050000D02*
X171550000Y-56050000D01*
X171550000Y-57675000D01*
X166800000Y-57675000D01*
X166800000Y-55600000D01*
X173875000Y-55600000D01*
X173875000Y-56050000D01*
G36*
X180000000Y-52500000D02*
G01*
X178750000Y-52500000D01*
X178750000Y-50250000D01*
X180000000Y-50250000D01*
X180000000Y-52500000D01*
G37*
X180000000Y-52500000D02*
X178750000Y-52500000D01*
X178750000Y-50250000D01*
X180000000Y-50250000D01*
X180000000Y-52500000D01*
G36*
X172000000Y-53750000D02*
G01*
X171000000Y-53750000D01*
X171000000Y-52750000D01*
X172000000Y-52750000D01*
X172000000Y-53750000D01*
G37*
X172000000Y-53750000D02*
X171000000Y-53750000D01*
X171000000Y-52750000D01*
X172000000Y-52750000D01*
X172000000Y-53750000D01*
D11*
G36*
X171780000Y-55340000D02*
G01*
X171780000Y-54390000D01*
X174880000Y-54390000D01*
X174880000Y-55340000D01*
X171780000Y-55340000D01*
G37*
G36*
X171780000Y-54000000D02*
G01*
X171780000Y-52660000D01*
X174880000Y-52660000D01*
X174880000Y-54000000D01*
X171780000Y-54000000D01*
G37*
G36*
X152090800Y-64439800D02*
G01*
X151532000Y-64439800D01*
X151532000Y-63830200D01*
X152090800Y-63830200D01*
X152090800Y-63792100D01*
X148280800Y-63792100D01*
X148280800Y-65443100D01*
X151532000Y-65443100D01*
X151532000Y-65100200D01*
X152090800Y-65100200D01*
X152090800Y-64439800D01*
G37*
X152090800Y-64439800D02*
X151532000Y-64439800D01*
X151532000Y-63830200D01*
X152090800Y-63830200D01*
X152090800Y-63792100D01*
X148280800Y-63792100D01*
X148280800Y-65443100D01*
X151532000Y-65443100D01*
X151532000Y-65100200D01*
X152090800Y-65100200D01*
X152090800Y-64439800D01*
G36*
X152090800Y-62560200D02*
G01*
X151532000Y-62560200D01*
X151532000Y-63169800D01*
X152090800Y-63169800D01*
X152090800Y-63207900D01*
X148280800Y-63207900D01*
X148280800Y-61556900D01*
X151532000Y-61556900D01*
X151532000Y-61899800D01*
X152090800Y-61899800D01*
X152090800Y-62560200D01*
G37*
X152090800Y-62560200D02*
X151532000Y-62560200D01*
X151532000Y-63169800D01*
X152090800Y-63169800D01*
X152090800Y-63207900D01*
X148280800Y-63207900D01*
X148280800Y-61556900D01*
X151532000Y-61556900D01*
X151532000Y-61899800D01*
X152090800Y-61899800D01*
X152090800Y-62560200D01*
G36*
X138090800Y-62060200D02*
G01*
X137532000Y-62060200D01*
X137532000Y-62669800D01*
X138090800Y-62669800D01*
X138090800Y-62707900D01*
X134280800Y-62707900D01*
X134280800Y-61056900D01*
X137532000Y-61056900D01*
X137532000Y-61399800D01*
X138090800Y-61399800D01*
X138090800Y-62060200D01*
G37*
X138090800Y-62060200D02*
X137532000Y-62060200D01*
X137532000Y-62669800D01*
X138090800Y-62669800D01*
X138090800Y-62707900D01*
X134280800Y-62707900D01*
X134280800Y-61056900D01*
X137532000Y-61056900D01*
X137532000Y-61399800D01*
X138090800Y-61399800D01*
X138090800Y-62060200D01*
G36*
X138090800Y-63939800D02*
G01*
X137532000Y-63939800D01*
X137532000Y-63330200D01*
X138090800Y-63330200D01*
X138090800Y-63292100D01*
X134280800Y-63292100D01*
X134280800Y-64943100D01*
X137532000Y-64943100D01*
X137532000Y-64600200D01*
X138090800Y-64600200D01*
X138090800Y-63939800D01*
G37*
X138090800Y-63939800D02*
X137532000Y-63939800D01*
X137532000Y-63330200D01*
X138090800Y-63330200D01*
X138090800Y-63292100D01*
X134280800Y-63292100D01*
X134280800Y-64943100D01*
X137532000Y-64943100D01*
X137532000Y-64600200D01*
X138090800Y-64600200D01*
X138090800Y-63939800D01*
G36*
X152090800Y-52439800D02*
G01*
X151532000Y-52439800D01*
X151532000Y-51830200D01*
X152090800Y-51830200D01*
X152090800Y-51792100D01*
X148280800Y-51792100D01*
X148280800Y-53443100D01*
X151532000Y-53443100D01*
X151532000Y-53100200D01*
X152090800Y-53100200D01*
X152090800Y-52439800D01*
G37*
X152090800Y-52439800D02*
X151532000Y-52439800D01*
X151532000Y-51830200D01*
X152090800Y-51830200D01*
X152090800Y-51792100D01*
X148280800Y-51792100D01*
X148280800Y-53443100D01*
X151532000Y-53443100D01*
X151532000Y-53100200D01*
X152090800Y-53100200D01*
X152090800Y-52439800D01*
G36*
X152090800Y-50560200D02*
G01*
X151532000Y-50560200D01*
X151532000Y-51169800D01*
X152090800Y-51169800D01*
X152090800Y-51207900D01*
X148280800Y-51207900D01*
X148280800Y-49556900D01*
X151532000Y-49556900D01*
X151532000Y-49899800D01*
X152090800Y-49899800D01*
X152090800Y-50560200D01*
G37*
X152090800Y-50560200D02*
X151532000Y-50560200D01*
X151532000Y-51169800D01*
X152090800Y-51169800D01*
X152090800Y-51207900D01*
X148280800Y-51207900D01*
X148280800Y-49556900D01*
X151532000Y-49556900D01*
X151532000Y-49899800D01*
X152090800Y-49899800D01*
X152090800Y-50560200D01*
G36*
X152090800Y-39060200D02*
G01*
X151532000Y-39060200D01*
X151532000Y-39669800D01*
X152090800Y-39669800D01*
X152090800Y-39707900D01*
X148280800Y-39707900D01*
X148280800Y-38056900D01*
X151532000Y-38056900D01*
X151532000Y-38399800D01*
X152090800Y-38399800D01*
X152090800Y-39060200D01*
G37*
X152090800Y-39060200D02*
X151532000Y-39060200D01*
X151532000Y-39669800D01*
X152090800Y-39669800D01*
X152090800Y-39707900D01*
X148280800Y-39707900D01*
X148280800Y-38056900D01*
X151532000Y-38056900D01*
X151532000Y-38399800D01*
X152090800Y-38399800D01*
X152090800Y-39060200D01*
G36*
X152090800Y-40939800D02*
G01*
X151532000Y-40939800D01*
X151532000Y-40330200D01*
X152090800Y-40330200D01*
X152090800Y-40292100D01*
X148280800Y-40292100D01*
X148280800Y-41943100D01*
X151532000Y-41943100D01*
X151532000Y-41600200D01*
X152090800Y-41600200D01*
X152090800Y-40939800D01*
G37*
X152090800Y-40939800D02*
X151532000Y-40939800D01*
X151532000Y-40330200D01*
X152090800Y-40330200D01*
X152090800Y-40292100D01*
X148280800Y-40292100D01*
X148280800Y-41943100D01*
X151532000Y-41943100D01*
X151532000Y-41600200D01*
X152090800Y-41600200D01*
X152090800Y-40939800D01*
G36*
X169925051Y-26475954D02*
G01*
X168227995Y-28173010D01*
X166530939Y-26475954D01*
X168227995Y-24778898D01*
X169925051Y-26475954D01*
G37*
G36*
X138090800Y-40939800D02*
G01*
X137532000Y-40939800D01*
X137532000Y-40330200D01*
X138090800Y-40330200D01*
X138090800Y-40292100D01*
X134280800Y-40292100D01*
X134280800Y-41943100D01*
X137532000Y-41943100D01*
X137532000Y-41600200D01*
X138090800Y-41600200D01*
X138090800Y-40939800D01*
G37*
X138090800Y-40939800D02*
X137532000Y-40939800D01*
X137532000Y-40330200D01*
X138090800Y-40330200D01*
X138090800Y-40292100D01*
X134280800Y-40292100D01*
X134280800Y-41943100D01*
X137532000Y-41943100D01*
X137532000Y-41600200D01*
X138090800Y-41600200D01*
X138090800Y-40939800D01*
G36*
X138090800Y-39060200D02*
G01*
X137532000Y-39060200D01*
X137532000Y-39669800D01*
X138090800Y-39669800D01*
X138090800Y-39707900D01*
X134280800Y-39707900D01*
X134280800Y-38056900D01*
X137532000Y-38056900D01*
X137532000Y-38399800D01*
X138090800Y-38399800D01*
X138090800Y-39060200D01*
G37*
X138090800Y-39060200D02*
X137532000Y-39060200D01*
X137532000Y-39669800D01*
X138090800Y-39669800D01*
X138090800Y-39707900D01*
X134280800Y-39707900D01*
X134280800Y-38056900D01*
X137532000Y-38056900D01*
X137532000Y-38399800D01*
X138090800Y-38399800D01*
X138090800Y-39060200D01*
G36*
X138090800Y-50560200D02*
G01*
X137532000Y-50560200D01*
X137532000Y-51169800D01*
X138090800Y-51169800D01*
X138090800Y-51207900D01*
X134280800Y-51207900D01*
X134280800Y-49556900D01*
X137532000Y-49556900D01*
X137532000Y-49899800D01*
X138090800Y-49899800D01*
X138090800Y-50560200D01*
G37*
X138090800Y-50560200D02*
X137532000Y-50560200D01*
X137532000Y-51169800D01*
X138090800Y-51169800D01*
X138090800Y-51207900D01*
X134280800Y-51207900D01*
X134280800Y-49556900D01*
X137532000Y-49556900D01*
X137532000Y-49899800D01*
X138090800Y-49899800D01*
X138090800Y-50560200D01*
G36*
X138090800Y-52439800D02*
G01*
X137532000Y-52439800D01*
X137532000Y-51830200D01*
X138090800Y-51830200D01*
X138090800Y-51792100D01*
X134280800Y-51792100D01*
X134280800Y-53443100D01*
X137532000Y-53443100D01*
X137532000Y-53100200D01*
X138090800Y-53100200D01*
X138090800Y-52439800D01*
G37*
X138090800Y-52439800D02*
X137532000Y-52439800D01*
X137532000Y-51830200D01*
X138090800Y-51830200D01*
X138090800Y-51792100D01*
X134280800Y-51792100D01*
X134280800Y-53443100D01*
X137532000Y-53443100D01*
X137532000Y-53100200D01*
X138090800Y-53100200D01*
X138090800Y-52439800D01*
D12*
X174750000Y-52180000D03*
X174250000Y-52180000D03*
X173750000Y-52180000D03*
X173250000Y-52180000D03*
X172750000Y-52180000D03*
X172250000Y-52180000D03*
D13*
X171680000Y-52750000D03*
X171680000Y-53250000D03*
X171680000Y-53750000D03*
X171680000Y-54750000D03*
X171680000Y-55250000D03*
D12*
X172250000Y-55820000D03*
X172750000Y-55820000D03*
X173250000Y-55820000D03*
X173750000Y-55820000D03*
X174250000Y-55820000D03*
X174750000Y-55820000D03*
D13*
X175320000Y-55250000D03*
X175320000Y-54750000D03*
X175320000Y-54250000D03*
X175320000Y-53750000D03*
X175320000Y-53250000D03*
X175320000Y-52750000D03*
G04 #@! TA.AperFunction,SMDPad,CuDef*
G36*
G01*
X177475000Y-53625000D02*
X176525000Y-53625000D01*
G75*
G02*
X176275000Y-53375000I0J250000D01*
G01*
X176275000Y-52700000D01*
G75*
G02*
X176525000Y-52450000I250000J0D01*
G01*
X177475000Y-52450000D01*
G75*
G02*
X177725000Y-52700000I0J-250000D01*
G01*
X177725000Y-53375000D01*
G75*
G02*
X177475000Y-53625000I-250000J0D01*
G01*
G37*
G04 #@! TD.AperFunction*
G04 #@! TA.AperFunction,SMDPad,CuDef*
G36*
G01*
X177475000Y-51550000D02*
X176525000Y-51550000D01*
G75*
G02*
X176275000Y-51300000I0J250000D01*
G01*
X176275000Y-50625000D01*
G75*
G02*
X176525000Y-50375000I250000J0D01*
G01*
X177475000Y-50375000D01*
G75*
G02*
X177725000Y-50625000I0J-250000D01*
G01*
X177725000Y-51300000D01*
G75*
G02*
X177475000Y-51550000I-250000J0D01*
G01*
G37*
G04 #@! TD.AperFunction*
G04 #@! TA.AperFunction,SMDPad,CuDef*
G36*
G01*
X175475000Y-51125000D02*
X174525000Y-51125000D01*
G75*
G02*
X174275000Y-50875000I0J250000D01*
G01*
X174275000Y-50200000D01*
G75*
G02*
X174525000Y-49950000I250000J0D01*
G01*
X175475000Y-49950000D01*
G75*
G02*
X175725000Y-50200000I0J-250000D01*
G01*
X175725000Y-50875000D01*
G75*
G02*
X175475000Y-51125000I-250000J0D01*
G01*
G37*
G04 #@! TD.AperFunction*
G04 #@! TA.AperFunction,SMDPad,CuDef*
G36*
G01*
X175475000Y-49050000D02*
X174525000Y-49050000D01*
G75*
G02*
X174275000Y-48800000I0J250000D01*
G01*
X174275000Y-48125000D01*
G75*
G02*
X174525000Y-47875000I250000J0D01*
G01*
X175475000Y-47875000D01*
G75*
G02*
X175725000Y-48125000I0J-250000D01*
G01*
X175725000Y-48800000D01*
G75*
G02*
X175475000Y-49050000I-250000J0D01*
G01*
G37*
G04 #@! TD.AperFunction*
G04 #@! TA.AperFunction,SMDPad,CuDef*
G36*
G01*
X177475000Y-55412500D02*
X177475000Y-55887500D01*
G75*
G02*
X177237500Y-56125000I-237500J0D01*
G01*
X176637500Y-56125000D01*
G75*
G02*
X176400000Y-55887500I0J237500D01*
G01*
X176400000Y-55412500D01*
G75*
G02*
X176637500Y-55175000I237500J0D01*
G01*
X177237500Y-55175000D01*
G75*
G02*
X177475000Y-55412500I0J-237500D01*
G01*
G37*
G04 #@! TD.AperFunction*
G04 #@! TA.AperFunction,SMDPad,CuDef*
G36*
G01*
X179200000Y-55412500D02*
X179200000Y-55887500D01*
G75*
G02*
X178962500Y-56125000I-237500J0D01*
G01*
X178362500Y-56125000D01*
G75*
G02*
X178125000Y-55887500I0J237500D01*
G01*
X178125000Y-55412500D01*
G75*
G02*
X178362500Y-55175000I237500J0D01*
G01*
X178962500Y-55175000D01*
G75*
G02*
X179200000Y-55412500I0J-237500D01*
G01*
G37*
G04 #@! TD.AperFunction*
G04 #@! TA.AperFunction,SMDPad,CuDef*
G36*
G01*
X169762500Y-52800000D02*
X170237500Y-52800000D01*
G75*
G02*
X170475000Y-53037500I0J-237500D01*
G01*
X170475000Y-53637500D01*
G75*
G02*
X170237500Y-53875000I-237500J0D01*
G01*
X169762500Y-53875000D01*
G75*
G02*
X169525000Y-53637500I0J237500D01*
G01*
X169525000Y-53037500D01*
G75*
G02*
X169762500Y-52800000I237500J0D01*
G01*
G37*
G04 #@! TD.AperFunction*
G04 #@! TA.AperFunction,SMDPad,CuDef*
G36*
G01*
X169762500Y-54525000D02*
X170237500Y-54525000D01*
G75*
G02*
X170475000Y-54762500I0J-237500D01*
G01*
X170475000Y-55362500D01*
G75*
G02*
X170237500Y-55600000I-237500J0D01*
G01*
X169762500Y-55600000D01*
G75*
G02*
X169525000Y-55362500I0J237500D01*
G01*
X169525000Y-54762500D01*
G75*
G02*
X169762500Y-54525000I237500J0D01*
G01*
G37*
G04 #@! TD.AperFunction*
D14*
X165135000Y-36950000D03*
D15*
X167675000Y-36950000D03*
D14*
X168800000Y-41420000D03*
X168800000Y-43960000D03*
D15*
X168800000Y-46500000D03*
X165150000Y-41450000D03*
D14*
X165150000Y-43990000D03*
X165150000Y-46530000D03*
X171870000Y-36950000D03*
X174410000Y-36950000D03*
D15*
X176950000Y-36950000D03*
G04 #@! TA.AperFunction,SMDPad,CuDef*
G36*
G01*
X170187500Y-52100000D02*
X169712500Y-52100000D01*
G75*
G02*
X169475000Y-51862500I0J237500D01*
G01*
X169475000Y-51362500D01*
G75*
G02*
X169712500Y-51125000I237500J0D01*
G01*
X170187500Y-51125000D01*
G75*
G02*
X170425000Y-51362500I0J-237500D01*
G01*
X170425000Y-51862500D01*
G75*
G02*
X170187500Y-52100000I-237500J0D01*
G01*
G37*
G04 #@! TD.AperFunction*
G04 #@! TA.AperFunction,SMDPad,CuDef*
G36*
G01*
X170187500Y-50275000D02*
X169712500Y-50275000D01*
G75*
G02*
X169475000Y-50037500I0J237500D01*
G01*
X169475000Y-49537500D01*
G75*
G02*
X169712500Y-49300000I237500J0D01*
G01*
X170187500Y-49300000D01*
G75*
G02*
X170425000Y-49537500I0J-237500D01*
G01*
X170425000Y-50037500D01*
G75*
G02*
X170187500Y-50275000I-237500J0D01*
G01*
G37*
G04 #@! TD.AperFunction*
G04 #@! TA.AperFunction,SMDPad,CuDef*
G36*
G01*
X173387500Y-49275000D02*
X172912500Y-49275000D01*
G75*
G02*
X172675000Y-49037500I0J237500D01*
G01*
X172675000Y-48537500D01*
G75*
G02*
X172912500Y-48300000I237500J0D01*
G01*
X173387500Y-48300000D01*
G75*
G02*
X173625000Y-48537500I0J-237500D01*
G01*
X173625000Y-49037500D01*
G75*
G02*
X173387500Y-49275000I-237500J0D01*
G01*
G37*
G04 #@! TD.AperFunction*
G04 #@! TA.AperFunction,SMDPad,CuDef*
G36*
G01*
X173387500Y-51100000D02*
X172912500Y-51100000D01*
G75*
G02*
X172675000Y-50862500I0J237500D01*
G01*
X172675000Y-50362500D01*
G75*
G02*
X172912500Y-50125000I237500J0D01*
G01*
X173387500Y-50125000D01*
G75*
G02*
X173625000Y-50362500I0J-237500D01*
G01*
X173625000Y-50862500D01*
G75*
G02*
X173387500Y-51100000I-237500J0D01*
G01*
G37*
G04 #@! TD.AperFunction*
D16*
X175000000Y-45500000D03*
D17*
X174325000Y-45500000D03*
X173675000Y-45500000D03*
D16*
X173000000Y-45500000D03*
X173000000Y-41100000D03*
D17*
X173675000Y-41100000D03*
X174325000Y-41100000D03*
D16*
X175000000Y-41100000D03*
D18*
X161940000Y-58620000D03*
G04 #@! TA.AperFunction,ComponentPad*
G36*
G01*
X162940000Y-66120000D02*
X160940000Y-66120000D01*
G75*
G02*
X160190000Y-65370000I0J750000D01*
G01*
X160190000Y-63870000D01*
G75*
G02*
X160940000Y-63120000I750000J0D01*
G01*
X162940000Y-63120000D01*
G75*
G02*
X163690000Y-63870000I0J-750000D01*
G01*
X163690000Y-65370000D01*
G75*
G02*
X162940000Y-66120000I-750000J0D01*
G01*
G37*
G04 #@! TD.AperFunction*
G04 #@! TA.AperFunction,ComponentPad*
G36*
G01*
X167515000Y-63370000D02*
X165765000Y-63370000D01*
G75*
G02*
X164890000Y-62495000I0J875000D01*
G01*
X164890000Y-60745000D01*
G75*
G02*
X165765000Y-59870000I875000J0D01*
G01*
X167515000Y-59870000D01*
G75*
G02*
X168390000Y-60745000I0J-875000D01*
G01*
X168390000Y-62495000D01*
G75*
G02*
X167515000Y-63370000I-875000J0D01*
G01*
G37*
G04 #@! TD.AperFunction*
G04 #@! TA.AperFunction,SMDPad,CuDef*
G36*
G01*
X166049999Y-51225000D02*
X168250001Y-51225000D01*
G75*
G02*
X168500000Y-51474999I0J-249999D01*
G01*
X168500000Y-52300001D01*
G75*
G02*
X168250001Y-52550000I-249999J0D01*
G01*
X166049999Y-52550000D01*
G75*
G02*
X165800000Y-52300001I0J249999D01*
G01*
X165800000Y-51474999D01*
G75*
G02*
X166049999Y-51225000I249999J0D01*
G01*
G37*
G04 #@! TD.AperFunction*
G04 #@! TA.AperFunction,SMDPad,CuDef*
G36*
G01*
X166049999Y-54350000D02*
X168250001Y-54350000D01*
G75*
G02*
X168500000Y-54599999I0J-249999D01*
G01*
X168500000Y-55425001D01*
G75*
G02*
X168250001Y-55675000I-249999J0D01*
G01*
X166049999Y-55675000D01*
G75*
G02*
X165800000Y-55425001I0J249999D01*
G01*
X165800000Y-54599999D01*
G75*
G02*
X166049999Y-54350000I249999J0D01*
G01*
G37*
G04 #@! TD.AperFunction*
G04 #@! TA.AperFunction,SMDPad,CuDef*
G36*
G01*
X183225000Y-52149999D02*
X183225000Y-54350001D01*
G75*
G02*
X182975001Y-54600000I-249999J0D01*
G01*
X182149999Y-54600000D01*
G75*
G02*
X181900000Y-54350001I0J249999D01*
G01*
X181900000Y-52149999D01*
G75*
G02*
X182149999Y-51900000I249999J0D01*
G01*
X182975001Y-51900000D01*
G75*
G02*
X183225000Y-52149999I0J-249999D01*
G01*
G37*
G04 #@! TD.AperFunction*
G04 #@! TA.AperFunction,SMDPad,CuDef*
G36*
G01*
X180100000Y-52149999D02*
X180100000Y-54350001D01*
G75*
G02*
X179850001Y-54600000I-249999J0D01*
G01*
X179024999Y-54600000D01*
G75*
G02*
X178775000Y-54350001I0J249999D01*
G01*
X178775000Y-52149999D01*
G75*
G02*
X179024999Y-51900000I249999J0D01*
G01*
X179850001Y-51900000D01*
G75*
G02*
X180100000Y-52149999I0J-249999D01*
G01*
G37*
G04 #@! TD.AperFunction*
G04 #@! TA.AperFunction,SMDPad,CuDef*
G36*
G01*
X180084999Y-48774998D02*
X180084999Y-50975000D01*
G75*
G02*
X179835000Y-51224999I-249999J0D01*
G01*
X179009998Y-51224999D01*
G75*
G02*
X178759999Y-50975000I0J249999D01*
G01*
X178759999Y-48774998D01*
G75*
G02*
X179009998Y-48524999I249999J0D01*
G01*
X179835000Y-48524999D01*
G75*
G02*
X180084999Y-48774998I0J-249999D01*
G01*
G37*
G04 #@! TD.AperFunction*
G04 #@! TA.AperFunction,SMDPad,CuDef*
G36*
G01*
X183209999Y-48774998D02*
X183209999Y-50975000D01*
G75*
G02*
X182960000Y-51224999I-249999J0D01*
G01*
X182134998Y-51224999D01*
G75*
G02*
X181884999Y-50975000I0J249999D01*
G01*
X181884999Y-48774998D01*
G75*
G02*
X182134998Y-48524999I249999J0D01*
G01*
X182960000Y-48524999D01*
G75*
G02*
X183209999Y-48774998I0J-249999D01*
G01*
G37*
G04 #@! TD.AperFunction*
D19*
X180150000Y-45100000D03*
X180150000Y-41600000D03*
D20*
X171710000Y-62370000D03*
X181210000Y-62370000D03*
D21*
X152167000Y-61595000D03*
X152167000Y-62865000D03*
X152167000Y-64135000D03*
X152167000Y-65405000D03*
X146833000Y-65405000D03*
X146833000Y-64135000D03*
X146833000Y-62865000D03*
X146833000Y-61595000D03*
D22*
X139675000Y-26826000D03*
X140325000Y-26826000D03*
X140975000Y-26826000D03*
X141625000Y-26826000D03*
X141625000Y-24054000D03*
X140975000Y-24054000D03*
X140325000Y-24054000D03*
X139675000Y-24054000D03*
D23*
X140650000Y-25006000D03*
D24*
X140650000Y-26111000D03*
D21*
X132833000Y-61095000D03*
X132833000Y-62365000D03*
X132833000Y-63635000D03*
X132833000Y-64905000D03*
X138167000Y-64905000D03*
X138167000Y-63635000D03*
X138167000Y-62365000D03*
X138167000Y-61095000D03*
X152167000Y-49595000D03*
X152167000Y-50865000D03*
X152167000Y-52135000D03*
X152167000Y-53405000D03*
X146833000Y-53405000D03*
X146833000Y-52135000D03*
X146833000Y-50865000D03*
X146833000Y-49595000D03*
X146833000Y-38095000D03*
X146833000Y-39365000D03*
X146833000Y-40635000D03*
X146833000Y-41905000D03*
X152167000Y-41905000D03*
X152167000Y-40635000D03*
X152167000Y-39365000D03*
X152167000Y-38095000D03*
G04 #@! TA.AperFunction,SMDPad,CuDef*
D25*
G36*
X166135595Y-26323289D02*
G01*
X165632701Y-25820395D01*
X165776385Y-25676711D01*
X166279279Y-26179605D01*
X166135595Y-26323289D01*
G37*
G04 #@! TD.AperFunction*
G04 #@! TA.AperFunction,SMDPad,CuDef*
G36*
X166494805Y-25964079D02*
G01*
X165991911Y-25461185D01*
X166135595Y-25317501D01*
X166638489Y-25820395D01*
X166494805Y-25964079D01*
G37*
G04 #@! TD.AperFunction*
G04 #@! TA.AperFunction,SMDPad,CuDef*
G36*
X166854016Y-25604869D02*
G01*
X166351122Y-25101975D01*
X166494806Y-24958291D01*
X166997700Y-25461185D01*
X166854016Y-25604869D01*
G37*
G04 #@! TD.AperFunction*
G04 #@! TA.AperFunction,SMDPad,CuDef*
G36*
X167213226Y-25245659D02*
G01*
X166710332Y-24742765D01*
X166854016Y-24599081D01*
X167356910Y-25101975D01*
X167213226Y-25245659D01*
G37*
G04 #@! TD.AperFunction*
G04 #@! TA.AperFunction,SMDPad,CuDef*
G36*
X167572436Y-24886448D02*
G01*
X167069542Y-24383554D01*
X167213226Y-24239870D01*
X167716120Y-24742764D01*
X167572436Y-24886448D01*
G37*
G04 #@! TD.AperFunction*
G04 #@! TA.AperFunction,SMDPad,CuDef*
G36*
X167931646Y-24527238D02*
G01*
X167428752Y-24024344D01*
X167572436Y-23880660D01*
X168075330Y-24383554D01*
X167931646Y-24527238D01*
G37*
G04 #@! TD.AperFunction*
G04 #@! TA.AperFunction,SMDPad,CuDef*
G36*
X169027238Y-24024344D02*
G01*
X168524344Y-24527238D01*
X168380660Y-24383554D01*
X168883554Y-23880660D01*
X169027238Y-24024344D01*
G37*
G04 #@! TD.AperFunction*
G04 #@! TA.AperFunction,SMDPad,CuDef*
G36*
X169386448Y-24383554D02*
G01*
X168883554Y-24886448D01*
X168739870Y-24742764D01*
X169242764Y-24239870D01*
X169386448Y-24383554D01*
G37*
G04 #@! TD.AperFunction*
G04 #@! TA.AperFunction,SMDPad,CuDef*
G36*
X169745658Y-24742765D02*
G01*
X169242764Y-25245659D01*
X169099080Y-25101975D01*
X169601974Y-24599081D01*
X169745658Y-24742765D01*
G37*
G04 #@! TD.AperFunction*
G04 #@! TA.AperFunction,SMDPad,CuDef*
G36*
X170104868Y-25101975D02*
G01*
X169601974Y-25604869D01*
X169458290Y-25461185D01*
X169961184Y-24958291D01*
X170104868Y-25101975D01*
G37*
G04 #@! TD.AperFunction*
G04 #@! TA.AperFunction,SMDPad,CuDef*
G36*
X170464079Y-25461185D02*
G01*
X169961185Y-25964079D01*
X169817501Y-25820395D01*
X170320395Y-25317501D01*
X170464079Y-25461185D01*
G37*
G04 #@! TD.AperFunction*
G04 #@! TA.AperFunction,SMDPad,CuDef*
G36*
X170823289Y-25820395D02*
G01*
X170320395Y-26323289D01*
X170176711Y-26179605D01*
X170679605Y-25676711D01*
X170823289Y-25820395D01*
G37*
G04 #@! TD.AperFunction*
G04 #@! TA.AperFunction,SMDPad,CuDef*
G36*
X170679605Y-27275197D02*
G01*
X170176711Y-26772303D01*
X170320395Y-26628619D01*
X170823289Y-27131513D01*
X170679605Y-27275197D01*
G37*
G04 #@! TD.AperFunction*
G04 #@! TA.AperFunction,SMDPad,CuDef*
G36*
X170320395Y-27634407D02*
G01*
X169817501Y-27131513D01*
X169961185Y-26987829D01*
X170464079Y-27490723D01*
X170320395Y-27634407D01*
G37*
G04 #@! TD.AperFunction*
G04 #@! TA.AperFunction,SMDPad,CuDef*
G36*
X169961184Y-27993617D02*
G01*
X169458290Y-27490723D01*
X169601974Y-27347039D01*
X170104868Y-27849933D01*
X169961184Y-27993617D01*
G37*
G04 #@! TD.AperFunction*
G04 #@! TA.AperFunction,SMDPad,CuDef*
G36*
X169601974Y-28352827D02*
G01*
X169099080Y-27849933D01*
X169242764Y-27706249D01*
X169745658Y-28209143D01*
X169601974Y-28352827D01*
G37*
G04 #@! TD.AperFunction*
G04 #@! TA.AperFunction,SMDPad,CuDef*
G36*
X169242764Y-28712038D02*
G01*
X168739870Y-28209144D01*
X168883554Y-28065460D01*
X169386448Y-28568354D01*
X169242764Y-28712038D01*
G37*
G04 #@! TD.AperFunction*
G04 #@! TA.AperFunction,SMDPad,CuDef*
G36*
X168883554Y-29071248D02*
G01*
X168380660Y-28568354D01*
X168524344Y-28424670D01*
X169027238Y-28927564D01*
X168883554Y-29071248D01*
G37*
G04 #@! TD.AperFunction*
G04 #@! TA.AperFunction,SMDPad,CuDef*
G36*
X168075330Y-28568354D02*
G01*
X167572436Y-29071248D01*
X167428752Y-28927564D01*
X167931646Y-28424670D01*
X168075330Y-28568354D01*
G37*
G04 #@! TD.AperFunction*
G04 #@! TA.AperFunction,SMDPad,CuDef*
G36*
X167716120Y-28209144D02*
G01*
X167213226Y-28712038D01*
X167069542Y-28568354D01*
X167572436Y-28065460D01*
X167716120Y-28209144D01*
G37*
G04 #@! TD.AperFunction*
G04 #@! TA.AperFunction,SMDPad,CuDef*
G36*
X167356910Y-27849933D02*
G01*
X166854016Y-28352827D01*
X166710332Y-28209143D01*
X167213226Y-27706249D01*
X167356910Y-27849933D01*
G37*
G04 #@! TD.AperFunction*
G04 #@! TA.AperFunction,SMDPad,CuDef*
G36*
X166997700Y-27490723D02*
G01*
X166494806Y-27993617D01*
X166351122Y-27849933D01*
X166854016Y-27347039D01*
X166997700Y-27490723D01*
G37*
G04 #@! TD.AperFunction*
G04 #@! TA.AperFunction,SMDPad,CuDef*
G36*
X166638489Y-27131513D02*
G01*
X166135595Y-27634407D01*
X165991911Y-27490723D01*
X166494805Y-26987829D01*
X166638489Y-27131513D01*
G37*
G04 #@! TD.AperFunction*
G04 #@! TA.AperFunction,SMDPad,CuDef*
G36*
X166279279Y-26772303D02*
G01*
X165776385Y-27275197D01*
X165632701Y-27131513D01*
X166135595Y-26628619D01*
X166279279Y-26772303D01*
G37*
G04 #@! TD.AperFunction*
G04 #@! TA.AperFunction,SMDPad,CuDef*
G36*
X168227995Y-26829507D02*
G01*
X167874442Y-26475954D01*
X168227995Y-26122401D01*
X168581548Y-26475954D01*
X168227995Y-26829507D01*
G37*
G04 #@! TD.AperFunction*
D15*
X144500000Y-59500000D03*
D14*
X144500000Y-62040000D03*
X144500000Y-64580000D03*
X144500000Y-67120000D03*
X130500000Y-67120000D03*
X130500000Y-64580000D03*
X130500000Y-62040000D03*
D15*
X130500000Y-59500000D03*
D14*
X154500000Y-67120000D03*
X154500000Y-64580000D03*
X154500000Y-62040000D03*
D15*
X154500000Y-59500000D03*
X140500000Y-59500000D03*
D14*
X140500000Y-62040000D03*
X140500000Y-64580000D03*
X140500000Y-67120000D03*
D15*
X144500000Y-48000000D03*
D14*
X144500000Y-50540000D03*
X144500000Y-53080000D03*
X144500000Y-55620000D03*
X144500000Y-44120000D03*
X144500000Y-41580000D03*
X144500000Y-39040000D03*
D15*
X144500000Y-36500000D03*
D14*
X154500000Y-55620000D03*
X154500000Y-53080000D03*
X154500000Y-50540000D03*
D15*
X154500000Y-48000000D03*
X154500000Y-36500000D03*
D14*
X154500000Y-39040000D03*
X154500000Y-41580000D03*
X154500000Y-44120000D03*
X139500000Y-20500000D03*
X142040000Y-20500000D03*
X144580000Y-20500000D03*
X147120000Y-20500000D03*
D15*
X149660000Y-20500000D03*
X154500000Y-32500000D03*
D14*
X157040000Y-32500000D03*
X159580000Y-32500000D03*
X162120000Y-32500000D03*
X164660000Y-32500000D03*
X167200000Y-32500000D03*
X169740000Y-32500000D03*
X172280000Y-32500000D03*
X174820000Y-32500000D03*
X177360000Y-32500000D03*
X179900000Y-32500000D03*
X182440000Y-32500000D03*
X182440000Y-20500000D03*
X179900000Y-20500000D03*
X177360000Y-20500000D03*
X174820000Y-20500000D03*
X172280000Y-20500000D03*
X169740000Y-20500000D03*
X167200000Y-20500000D03*
X164660000Y-20500000D03*
X162120000Y-20500000D03*
X159580000Y-20500000D03*
X157040000Y-20500000D03*
D15*
X154500000Y-20500000D03*
X130500000Y-37000000D03*
D14*
X130500000Y-39540000D03*
X130500000Y-42080000D03*
X130500000Y-44620000D03*
X140500000Y-44120000D03*
X140500000Y-41580000D03*
X140500000Y-39040000D03*
D15*
X140500000Y-36500000D03*
X130500000Y-48500000D03*
D14*
X130500000Y-51040000D03*
X130500000Y-53580000D03*
X130500000Y-56120000D03*
X140500000Y-55620000D03*
X140500000Y-53080000D03*
X140500000Y-50540000D03*
D15*
X140500000Y-48000000D03*
D21*
X138167000Y-38095000D03*
X138167000Y-39365000D03*
X138167000Y-40635000D03*
X138167000Y-41905000D03*
X132833000Y-41905000D03*
X132833000Y-40635000D03*
X132833000Y-39365000D03*
X132833000Y-38095000D03*
X132833000Y-49595000D03*
X132833000Y-50865000D03*
X132833000Y-52135000D03*
X132833000Y-53405000D03*
X138167000Y-53405000D03*
X138167000Y-52135000D03*
X138167000Y-50865000D03*
X138167000Y-49595000D03*
D14*
X149660000Y-32500000D03*
X147120000Y-32500000D03*
X144580000Y-32500000D03*
X142040000Y-32500000D03*
D15*
X139500000Y-32500000D03*
D22*
X148785000Y-26144000D03*
X148135000Y-26144000D03*
X147485000Y-26144000D03*
X146835000Y-26144000D03*
X146835000Y-28916000D03*
X147485000Y-28916000D03*
X148135000Y-28916000D03*
X148785000Y-28916000D03*
D23*
X147810000Y-27964000D03*
D24*
X147810000Y-26859000D03*
D26*
X175900000Y-39450000D03*
X172175000Y-39625000D03*
X176850000Y-48575000D03*
X178775000Y-47050000D03*
X172500000Y-48000000D03*
X171250000Y-41500000D03*
X171250000Y-43250000D03*
X171250000Y-43250000D03*
X181750000Y-40000000D03*
X180250000Y-38000000D03*
X181750000Y-36500000D03*
X179400000Y-47980000D03*
X179400000Y-51640000D03*
X176000000Y-43000000D03*
X169440000Y-39120000D03*
X166520000Y-39080000D03*
X162810000Y-36490000D03*
X158160000Y-36250000D03*
X160660000Y-39070000D03*
X158080000Y-41500000D03*
X162610000Y-41460000D03*
X160460000Y-44280000D03*
X158120000Y-46490000D03*
X163220000Y-46740000D03*
X158310000Y-61720000D03*
X158370000Y-67830000D03*
X163640000Y-61930000D03*
X164330000Y-67740000D03*
X167210000Y-64980000D03*
X181970000Y-68240000D03*
X181510000Y-65750000D03*
X175080000Y-68170000D03*
X165260000Y-56080000D03*
X167950000Y-57250000D03*
X170580000Y-57050000D03*
X167910000Y-59120000D03*
D27*
X176287500Y-53750000D02*
X175320000Y-53750000D01*
X177000000Y-53037500D02*
X176287500Y-53750000D01*
D28*
X178175010Y-47708012D02*
X177150000Y-46683002D01*
D29*
X177674999Y-37674999D02*
X177674999Y-44775001D01*
X176950000Y-36950000D02*
X177674999Y-37674999D01*
X176950000Y-45500000D02*
X175225001Y-45500000D01*
X177674999Y-44775001D02*
X176950000Y-45500000D01*
D30*
X177150000Y-45700000D02*
X176950000Y-45500000D01*
X177150000Y-46683002D02*
X177150000Y-45700000D01*
D28*
X178175010Y-51862490D02*
X177000000Y-53037500D01*
X178175010Y-47708012D02*
X178175010Y-51862490D01*
D27*
X172750000Y-55820000D02*
X172250000Y-55820000D01*
X172250000Y-55820000D02*
X170757500Y-55820000D01*
D29*
X169950000Y-55012500D02*
X170000000Y-55062500D01*
X167150000Y-55012500D02*
X169950000Y-55012500D01*
X170000000Y-55062500D02*
X170757500Y-55820000D01*
D27*
X174675000Y-48787500D02*
X175000000Y-48462500D01*
D28*
X179422499Y-53234999D02*
X179437500Y-53250000D01*
X179422499Y-49874999D02*
X179422499Y-53234999D01*
X177000000Y-50462500D02*
X175000000Y-48462500D01*
X177000000Y-50962500D02*
X177000000Y-50462500D01*
D27*
X175000000Y-40350000D02*
X175900000Y-39450000D01*
X175000000Y-41100000D02*
X175000000Y-40350000D01*
X172175000Y-39625000D02*
X172625000Y-39625000D01*
X173000000Y-40000000D02*
X173000000Y-41100000D01*
X172625000Y-39625000D02*
X173000000Y-40000000D01*
X177000000Y-48725000D02*
X176850000Y-48575000D01*
X177000000Y-50962500D02*
X177000000Y-48725000D01*
X179422499Y-47697499D02*
X178775000Y-47050000D01*
X179422499Y-49874999D02*
X179422499Y-47697499D01*
D30*
X166640000Y-55522500D02*
X167150000Y-55012500D01*
X166640000Y-61620000D02*
X166640000Y-55522500D01*
X170000000Y-55062500D02*
X169837500Y-55062500D01*
X167150000Y-55012500D02*
X170617500Y-55012500D01*
X170000000Y-55062500D02*
X169307500Y-55062500D01*
X169307500Y-55062500D02*
X168590000Y-55780000D01*
X168590000Y-55780000D02*
X166350000Y-55780000D01*
X166350000Y-55780000D02*
X166230000Y-55900000D01*
X166230000Y-57550000D02*
X166490000Y-57550000D01*
X166230000Y-55900000D02*
X166230000Y-57550000D01*
X166230000Y-57550000D02*
X166230000Y-57930000D01*
X167110000Y-57880000D02*
X166965000Y-58025000D01*
X166490000Y-57550000D02*
X166965000Y-58025000D01*
X168340000Y-57880000D02*
X167600000Y-57880000D01*
X167600000Y-57880000D02*
X168170000Y-57880000D01*
X167600000Y-57880000D02*
X167110000Y-57880000D01*
D27*
X175320000Y-50857500D02*
X175320000Y-52750000D01*
X175000000Y-50537500D02*
X175320000Y-50857500D01*
X174750000Y-55820000D02*
X175320000Y-55250000D01*
X175720000Y-55650000D02*
X175320000Y-55250000D01*
X176937500Y-55650000D02*
X175720000Y-55650000D01*
X173615002Y-54750000D02*
X171680000Y-54750000D01*
X174250000Y-55384998D02*
X173615002Y-54750000D01*
X171680000Y-55250000D02*
X171680000Y-54750000D01*
D30*
X171710000Y-62370000D02*
X171710000Y-62290000D01*
X176937500Y-57062500D02*
X176937500Y-55650000D01*
X171710000Y-62290000D02*
X176937500Y-57062500D01*
X174500000Y-55400000D02*
X174750000Y-55650000D01*
X174584998Y-55400000D02*
X174500000Y-55400000D01*
X175000000Y-55450001D02*
X174634999Y-55450001D01*
X174634999Y-55450001D02*
X174584998Y-55400000D01*
X174750000Y-55650000D02*
X174750000Y-55820000D01*
X174630001Y-55820000D02*
X175000000Y-55450001D01*
X174520000Y-55820000D02*
X174630001Y-55820000D01*
X175119999Y-55450001D02*
X176149999Y-55450001D01*
X174920000Y-55650000D02*
X175119999Y-55450001D01*
X174750000Y-55650000D02*
X174920000Y-55650000D01*
D27*
X175320000Y-54250000D02*
X177262500Y-54250000D01*
X178662500Y-55650000D02*
X177262500Y-54250000D01*
X170587500Y-52750000D02*
X170000000Y-53337500D01*
X171680000Y-52750000D02*
X170587500Y-52750000D01*
X170412500Y-53750000D02*
X170000000Y-53337500D01*
X171680000Y-53750000D02*
X170412500Y-53750000D01*
X169950000Y-53287500D02*
X170000000Y-53337500D01*
X169950000Y-51612500D02*
X169950000Y-53287500D01*
X174845000Y-53250000D02*
X171680000Y-53250000D01*
X175320000Y-53250000D02*
X174845000Y-53250000D01*
D30*
X167150000Y-51887500D02*
X163112500Y-51887500D01*
X161940000Y-53060000D02*
X161940000Y-58620000D01*
X163112500Y-51887500D02*
X161940000Y-53060000D01*
X171012500Y-53337500D02*
X171100000Y-53250000D01*
X170000000Y-53337500D02*
X171012500Y-53337500D01*
D27*
X171680000Y-53250000D02*
X171100000Y-53250000D01*
D30*
X171100000Y-53250000D02*
X171100000Y-53210000D01*
X171100000Y-53210000D02*
X170370000Y-52480000D01*
D29*
X182547499Y-47497499D02*
X182547499Y-49874999D01*
X180150000Y-45100000D02*
X182547499Y-47497499D01*
X182547499Y-49874999D02*
X182547499Y-53234999D01*
X180575000Y-58150000D02*
X180575000Y-59800000D01*
D27*
X165135000Y-41435000D02*
X165150000Y-41450000D01*
X165135000Y-36950000D02*
X165135000Y-41435000D01*
X167675000Y-40295000D02*
X167675000Y-36950000D01*
X168800000Y-41420000D02*
X167675000Y-40295000D01*
X168800000Y-46500000D02*
X171500000Y-46500000D01*
X172500000Y-45500000D02*
X173000000Y-45500000D01*
X171500000Y-46500000D02*
X172500000Y-45500000D01*
X172750000Y-51012500D02*
X172750000Y-52180000D01*
X173150000Y-50612500D02*
X172750000Y-51012500D01*
X171375000Y-50175000D02*
X171812500Y-50612500D01*
X171812500Y-50612500D02*
X173150000Y-50612500D01*
X171375000Y-49500000D02*
X171375000Y-50175000D01*
X163974999Y-45165001D02*
X163974999Y-47094001D01*
X170125000Y-48250000D02*
X171375000Y-49500000D01*
X165150000Y-43990000D02*
X163974999Y-45165001D01*
X165130998Y-48250000D02*
X163974999Y-47094001D01*
X170125000Y-48250000D02*
X165130998Y-48250000D01*
X173675000Y-46360002D02*
X173675000Y-45500000D01*
X172917501Y-47117501D02*
X173675000Y-46360002D01*
X170607499Y-47117501D02*
X172917501Y-47117501D01*
X166295001Y-47675001D02*
X170049999Y-47675001D01*
X170049999Y-47675001D02*
X170607499Y-47117501D01*
X165150000Y-46530000D02*
X166295001Y-47675001D01*
X172325000Y-36950000D02*
X171870000Y-36950000D01*
X173675000Y-38300000D02*
X172325000Y-36950000D01*
X173675000Y-41100000D02*
X173675000Y-38300000D01*
X174325000Y-37035000D02*
X174410000Y-36950000D01*
X174325000Y-41100000D02*
X174325000Y-37035000D01*
X169950000Y-49787500D02*
X170950000Y-50787500D01*
X170950000Y-50787500D02*
X170950000Y-51650000D01*
X171480000Y-52180000D02*
X172250000Y-52180000D01*
X170950000Y-51650000D02*
X171480000Y-52180000D01*
D28*
X144738000Y-59500000D02*
X146833000Y-61595000D01*
X144500000Y-59500000D02*
X144738000Y-59500000D01*
X145325000Y-62865000D02*
X146833000Y-62865000D01*
X144500000Y-62040000D02*
X145325000Y-62865000D01*
X146388000Y-64580000D02*
X146833000Y-64135000D01*
X144500000Y-64580000D02*
X146388000Y-64580000D01*
X145118000Y-67120000D02*
X146833000Y-65405000D01*
X144500000Y-67120000D02*
X145118000Y-67120000D01*
X130500000Y-67120000D02*
X132150000Y-65470000D01*
X132268000Y-65470000D02*
X132833000Y-64905000D01*
X132150000Y-65470000D02*
X132268000Y-65470000D01*
X131445000Y-63635000D02*
X132833000Y-63635000D01*
X130500000Y-64580000D02*
X131445000Y-63635000D01*
X132508000Y-62040000D02*
X132833000Y-62365000D01*
X130500000Y-62040000D02*
X132508000Y-62040000D01*
X131238000Y-59500000D02*
X132833000Y-61095000D01*
X130500000Y-59500000D02*
X131238000Y-59500000D01*
X152785000Y-65405000D02*
X154500000Y-67120000D01*
X152167000Y-65405000D02*
X152785000Y-65405000D01*
X154055000Y-64135000D02*
X154500000Y-64580000D01*
X152167000Y-64135000D02*
X154055000Y-64135000D01*
X153675000Y-62865000D02*
X152167000Y-62865000D01*
X154500000Y-62040000D02*
X153675000Y-62865000D01*
X154262000Y-59500000D02*
X152167000Y-61595000D01*
X154500000Y-59500000D02*
X154262000Y-59500000D01*
X139762000Y-59500000D02*
X138167000Y-61095000D01*
X140500000Y-59500000D02*
X139762000Y-59500000D01*
X138492000Y-62040000D02*
X138167000Y-62365000D01*
X140500000Y-62040000D02*
X138492000Y-62040000D01*
X139555000Y-63635000D02*
X138167000Y-63635000D01*
X140500000Y-64580000D02*
X139555000Y-63635000D01*
X140382000Y-67120000D02*
X138167000Y-64905000D01*
X140500000Y-67120000D02*
X140382000Y-67120000D01*
X145238000Y-48000000D02*
X146833000Y-49595000D01*
X144500000Y-48000000D02*
X145238000Y-48000000D01*
X146508000Y-50540000D02*
X146833000Y-50865000D01*
X144500000Y-50540000D02*
X146508000Y-50540000D01*
X145445000Y-52135000D02*
X146833000Y-52135000D01*
X144500000Y-53080000D02*
X145445000Y-52135000D01*
X144618000Y-55620000D02*
X146833000Y-53405000D01*
X144500000Y-55620000D02*
X144618000Y-55620000D01*
X146715000Y-41905000D02*
X144500000Y-44120000D01*
X146833000Y-41905000D02*
X146715000Y-41905000D01*
X145445000Y-40635000D02*
X144500000Y-41580000D01*
X146833000Y-40635000D02*
X145445000Y-40635000D01*
X144825000Y-39365000D02*
X144500000Y-39040000D01*
X146833000Y-39365000D02*
X144825000Y-39365000D01*
X146095000Y-38095000D02*
X144500000Y-36500000D01*
X146833000Y-38095000D02*
X146095000Y-38095000D01*
X154382000Y-55620000D02*
X152167000Y-53405000D01*
X154500000Y-55620000D02*
X154382000Y-55620000D01*
X153555000Y-52135000D02*
X152167000Y-52135000D01*
X154500000Y-53080000D02*
X153555000Y-52135000D01*
X152492000Y-50540000D02*
X152167000Y-50865000D01*
X154500000Y-50540000D02*
X152492000Y-50540000D01*
X153762000Y-48000000D02*
X152167000Y-49595000D01*
X154500000Y-48000000D02*
X153762000Y-48000000D01*
X153762000Y-36500000D02*
X152167000Y-38095000D01*
X154500000Y-36500000D02*
X153762000Y-36500000D01*
X152492000Y-39040000D02*
X152167000Y-39365000D01*
X154500000Y-39040000D02*
X152492000Y-39040000D01*
X153555000Y-40635000D02*
X152167000Y-40635000D01*
X154500000Y-41580000D02*
X153555000Y-40635000D01*
X154382000Y-44120000D02*
X152167000Y-41905000D01*
X154500000Y-44120000D02*
X154382000Y-44120000D01*
X140650000Y-25006000D02*
X139026000Y-25006000D01*
X139026000Y-25006000D02*
X138690000Y-24670000D01*
X138690000Y-21310000D02*
X139500000Y-20500000D01*
X138690000Y-24670000D02*
X138690000Y-21310000D01*
X142040000Y-20500000D02*
X140892999Y-21647001D01*
X139649999Y-22274003D02*
X139649999Y-24037999D01*
X140277001Y-21647001D02*
X139649999Y-22274003D01*
X140892999Y-21647001D02*
X140277001Y-21647001D01*
X144580000Y-20500000D02*
X142810000Y-22270000D01*
X142810000Y-22270000D02*
X141270000Y-22270000D01*
X140975000Y-22565000D02*
X140975000Y-24037999D01*
X141270000Y-22270000D02*
X140975000Y-22565000D01*
D27*
X140325000Y-24054000D02*
X141625000Y-24054000D01*
D28*
X140975000Y-26436000D02*
X140650000Y-26111000D01*
X140975000Y-26826000D02*
X140975000Y-26436000D01*
X142711081Y-26111000D02*
X140650000Y-26111000D01*
X147120000Y-21702081D02*
X142711081Y-26111000D01*
X147120000Y-20500000D02*
X147120000Y-21702081D01*
X140910000Y-26111000D02*
X141625000Y-26826000D01*
X140650000Y-26111000D02*
X140910000Y-26111000D01*
X141625000Y-26826000D02*
X140350009Y-26826000D01*
X149660000Y-20500000D02*
X142160000Y-28000000D01*
X142160000Y-28000000D02*
X140120000Y-28000000D01*
X139649999Y-27529999D02*
X139649999Y-26842001D01*
X140120000Y-28000000D02*
X139649999Y-27529999D01*
D27*
X154500000Y-32500000D02*
X157080000Y-29920000D01*
X162987898Y-29920000D02*
X165955990Y-26951908D01*
X157080000Y-29920000D02*
X162987898Y-29920000D01*
X166315200Y-27311118D02*
X163046318Y-30580000D01*
X158960000Y-30580000D02*
X157040000Y-32500000D01*
X163046318Y-30580000D02*
X158960000Y-30580000D01*
X166674411Y-27670328D02*
X163174739Y-31170000D01*
X160910000Y-31170000D02*
X159580000Y-32500000D01*
X163174739Y-31170000D02*
X160910000Y-31170000D01*
X162563159Y-32500000D02*
X162120000Y-32500000D01*
X167033621Y-28029538D02*
X162563159Y-32500000D01*
X164660000Y-31121580D02*
X164660000Y-32500000D01*
X167392831Y-28388749D02*
X164660000Y-31121580D01*
X167200000Y-29300000D02*
X167752041Y-28747959D01*
X167200000Y-32500000D02*
X167200000Y-29300000D01*
X169740000Y-29784010D02*
X168703949Y-28747959D01*
X169740000Y-32500000D02*
X169740000Y-29784010D01*
X172280000Y-31605590D02*
X169063159Y-28388749D01*
X172280000Y-32500000D02*
X172280000Y-31605590D01*
X172717830Y-31324999D02*
X169422369Y-28029538D01*
X173644999Y-31324999D02*
X172717830Y-31324999D01*
X174820000Y-32500000D02*
X173644999Y-31324999D01*
X177360000Y-32500000D02*
X175360000Y-30500000D01*
X172611251Y-30500000D02*
X169781579Y-27670328D01*
X175360000Y-30500000D02*
X172611251Y-30500000D01*
X179900000Y-32500000D02*
X177190000Y-29790000D01*
X172619672Y-29790000D02*
X170140790Y-27311118D01*
X177190000Y-29790000D02*
X172619672Y-29790000D01*
X182440000Y-32500000D02*
X178940000Y-29000000D01*
X172548092Y-29000000D02*
X170500000Y-26951908D01*
X178940000Y-29000000D02*
X172548092Y-29000000D01*
X172100000Y-24400000D02*
X170500000Y-26000000D01*
X178540000Y-24400000D02*
X172100000Y-24400000D01*
X182440000Y-20500000D02*
X178540000Y-24400000D01*
X170140790Y-25640790D02*
X172171580Y-23610000D01*
X176790000Y-23610000D02*
X179900000Y-20500000D01*
X172171580Y-23610000D02*
X176790000Y-23610000D01*
X169781579Y-25281580D02*
X172323159Y-22740000D01*
X175120000Y-22740000D02*
X177360000Y-20500000D01*
X172323159Y-22740000D02*
X175120000Y-22740000D01*
X169422369Y-24922370D02*
X172164739Y-22180000D01*
X173140000Y-22180000D02*
X174820000Y-20500000D01*
X172164739Y-22180000D02*
X173140000Y-22180000D01*
X172280000Y-21346318D02*
X172280000Y-20500000D01*
X169063159Y-24563159D02*
X172280000Y-21346318D01*
X169740000Y-23167898D02*
X168703949Y-24203949D01*
X169740000Y-20500000D02*
X169740000Y-23167898D01*
X167752041Y-24203949D02*
X166878092Y-23330000D01*
X166878092Y-20821908D02*
X167200000Y-20500000D01*
X166878092Y-23330000D02*
X166878092Y-20821908D01*
X164660000Y-21830328D02*
X164660000Y-20500000D01*
X167392831Y-24563159D02*
X164660000Y-21830328D01*
X162611251Y-20500000D02*
X162120000Y-20500000D01*
X167033621Y-24922370D02*
X162611251Y-20500000D01*
X166674411Y-25281580D02*
X164132831Y-22740000D01*
X161820000Y-22740000D02*
X159580000Y-20500000D01*
X164132831Y-22740000D02*
X161820000Y-22740000D01*
X166315200Y-25640790D02*
X164434410Y-23760000D01*
X160300000Y-23760000D02*
X157040000Y-20500000D01*
X164434410Y-23760000D02*
X160300000Y-23760000D01*
X165955990Y-26000000D02*
X164730000Y-24774010D01*
X158774010Y-24774010D02*
X154500000Y-20500000D01*
X164730000Y-24774010D02*
X158774010Y-24774010D01*
D28*
X131595000Y-38095000D02*
X130500000Y-37000000D01*
X132833000Y-38095000D02*
X131595000Y-38095000D01*
X130675000Y-39365000D02*
X130500000Y-39540000D01*
X132833000Y-39365000D02*
X130675000Y-39365000D01*
X131945000Y-40635000D02*
X130500000Y-42080000D01*
X132833000Y-40635000D02*
X131945000Y-40635000D01*
X132833000Y-42287000D02*
X130500000Y-44620000D01*
X132833000Y-41905000D02*
X132833000Y-42287000D01*
X140382000Y-44120000D02*
X138167000Y-41905000D01*
X140500000Y-44120000D02*
X140382000Y-44120000D01*
X139555000Y-40635000D02*
X138167000Y-40635000D01*
X140500000Y-41580000D02*
X139555000Y-40635000D01*
X138492000Y-39040000D02*
X138167000Y-39365000D01*
X140500000Y-39040000D02*
X138492000Y-39040000D01*
X139762000Y-36500000D02*
X138167000Y-38095000D01*
X140500000Y-36500000D02*
X139762000Y-36500000D01*
X131738000Y-48500000D02*
X132833000Y-49595000D01*
X130500000Y-48500000D02*
X131738000Y-48500000D01*
X132658000Y-51040000D02*
X132833000Y-50865000D01*
X130500000Y-51040000D02*
X132658000Y-51040000D01*
X131945000Y-52135000D02*
X132833000Y-52135000D01*
X130500000Y-53580000D02*
X131945000Y-52135000D01*
X130500000Y-55738000D02*
X132833000Y-53405000D01*
X130500000Y-56120000D02*
X130500000Y-55738000D01*
X140382000Y-55620000D02*
X138167000Y-53405000D01*
X140500000Y-55620000D02*
X140382000Y-55620000D01*
X139555000Y-52135000D02*
X138167000Y-52135000D01*
X140500000Y-53080000D02*
X139555000Y-52135000D01*
X138492000Y-50540000D02*
X138167000Y-50865000D01*
X140500000Y-50540000D02*
X138492000Y-50540000D01*
X139762000Y-48000000D02*
X138167000Y-49595000D01*
X140500000Y-48000000D02*
X139762000Y-48000000D01*
X149660000Y-32500000D02*
X149660000Y-28330000D01*
X149294000Y-27964000D02*
X147810000Y-27964000D01*
X149660000Y-28330000D02*
X149294000Y-27964000D01*
X148810001Y-30809999D02*
X148810001Y-28932001D01*
X147120000Y-32500000D02*
X148810001Y-30809999D01*
X147485000Y-29595000D02*
X147485000Y-28932001D01*
X144580000Y-32500000D02*
X147485000Y-29595000D01*
D27*
X148135000Y-28916000D02*
X146835000Y-28916000D01*
D28*
X147485000Y-26534000D02*
X147810000Y-26859000D01*
X147485000Y-26144000D02*
X147485000Y-26534000D01*
X142040000Y-32500000D02*
X143340001Y-31199999D01*
X143340001Y-31199999D02*
X144890039Y-31199999D01*
X144890039Y-31199999D02*
X145720000Y-30370038D01*
X145720000Y-30370038D02*
X145720000Y-27250000D01*
X146111000Y-26859000D02*
X147810000Y-26859000D01*
X145720000Y-27250000D02*
X146111000Y-26859000D01*
X146835000Y-26144000D02*
X148109991Y-26144000D01*
X139500000Y-32500000D02*
X141560000Y-30440000D01*
X144450000Y-30440000D02*
X145019990Y-29870010D01*
X141560000Y-30440000D02*
X144450000Y-30440000D01*
X145019990Y-26699008D02*
X146708998Y-25010000D01*
X145019990Y-29870010D02*
X145019990Y-26699008D01*
X146708998Y-25010000D02*
X148510000Y-25010000D01*
X148810001Y-25310001D02*
X148810001Y-26127999D01*
X148510000Y-25010000D02*
X148810001Y-25310001D01*
D31*
G36*
X177373000Y-55435302D02*
G01*
X177373000Y-64873000D01*
X169627000Y-64873000D01*
X169627000Y-58360000D01*
X171550000Y-58360000D01*
X171614145Y-58353710D01*
X171678356Y-58347867D01*
X171680662Y-58347188D01*
X171683051Y-58346954D01*
X171744723Y-58328334D01*
X171806606Y-58310121D01*
X171808736Y-58309008D01*
X171811033Y-58308314D01*
X171867886Y-58278084D01*
X171925081Y-58248184D01*
X171926955Y-58246677D01*
X171929073Y-58245551D01*
X171978986Y-58204843D01*
X172029269Y-58164414D01*
X172030813Y-58162573D01*
X172032674Y-58161056D01*
X172073766Y-58111384D01*
X172115203Y-58062002D01*
X172116360Y-58059898D01*
X172117891Y-58058047D01*
X172148541Y-58001361D01*
X172179608Y-57944850D01*
X172180335Y-57942558D01*
X172181476Y-57940448D01*
X172200524Y-57878916D01*
X172220031Y-57817420D01*
X172220299Y-57815032D01*
X172221009Y-57812738D01*
X172227746Y-57748634D01*
X172234933Y-57684564D01*
X172234965Y-57679950D01*
X172234983Y-57679782D01*
X172234968Y-57679614D01*
X172235000Y-57675000D01*
X172235000Y-56735000D01*
X173875000Y-56735000D01*
X173939145Y-56728710D01*
X174003356Y-56722867D01*
X174005662Y-56722188D01*
X174008051Y-56721954D01*
X174069723Y-56703334D01*
X174131606Y-56685121D01*
X174133736Y-56684008D01*
X174136033Y-56683314D01*
X174192886Y-56653084D01*
X174250081Y-56623184D01*
X174251955Y-56621677D01*
X174254073Y-56620551D01*
X174303986Y-56579843D01*
X174354269Y-56539414D01*
X174355813Y-56537573D01*
X174357674Y-56536056D01*
X174398766Y-56486384D01*
X174440203Y-56437002D01*
X174441360Y-56434898D01*
X174442891Y-56433047D01*
X174473541Y-56376361D01*
X174504608Y-56319850D01*
X174505335Y-56317558D01*
X174506476Y-56315448D01*
X174525524Y-56253916D01*
X174545031Y-56192420D01*
X174545299Y-56190032D01*
X174546009Y-56187738D01*
X174552746Y-56123634D01*
X174559933Y-56059564D01*
X174559965Y-56054950D01*
X174559983Y-56054782D01*
X174559968Y-56054614D01*
X174560000Y-56050000D01*
X174560000Y-55975000D01*
X174880000Y-55975000D01*
X174939505Y-55969166D01*
X174998987Y-55963752D01*
X175001118Y-55963125D01*
X175003339Y-55962907D01*
X175060621Y-55945612D01*
X175117875Y-55928762D01*
X175119847Y-55927731D01*
X175121980Y-55927087D01*
X175174781Y-55899012D01*
X175227703Y-55871345D01*
X175229437Y-55869951D01*
X175231404Y-55868905D01*
X175277737Y-55831117D01*
X175324286Y-55793690D01*
X175325717Y-55791985D01*
X175327443Y-55790577D01*
X175365539Y-55744527D01*
X175403947Y-55698754D01*
X175405020Y-55696802D01*
X175406439Y-55695087D01*
X175434851Y-55642539D01*
X175463651Y-55590153D01*
X175464325Y-55588029D01*
X175465383Y-55586072D01*
X175483034Y-55529050D01*
X175488103Y-55513072D01*
X175545000Y-55513072D01*
X175669482Y-55500812D01*
X175789180Y-55464502D01*
X175899494Y-55405537D01*
X175996185Y-55326185D01*
X176075537Y-55229494D01*
X176134502Y-55119180D01*
X176167621Y-55010000D01*
X176947699Y-55010000D01*
X177373000Y-55435302D01*
G37*
X177373000Y-55435302D02*
X177373000Y-64873000D01*
X169627000Y-64873000D01*
X169627000Y-58360000D01*
X171550000Y-58360000D01*
X171614145Y-58353710D01*
X171678356Y-58347867D01*
X171680662Y-58347188D01*
X171683051Y-58346954D01*
X171744723Y-58328334D01*
X171806606Y-58310121D01*
X171808736Y-58309008D01*
X171811033Y-58308314D01*
X171867886Y-58278084D01*
X171925081Y-58248184D01*
X171926955Y-58246677D01*
X171929073Y-58245551D01*
X171978986Y-58204843D01*
X172029269Y-58164414D01*
X172030813Y-58162573D01*
X172032674Y-58161056D01*
X172073766Y-58111384D01*
X172115203Y-58062002D01*
X172116360Y-58059898D01*
X172117891Y-58058047D01*
X172148541Y-58001361D01*
X172179608Y-57944850D01*
X172180335Y-57942558D01*
X172181476Y-57940448D01*
X172200524Y-57878916D01*
X172220031Y-57817420D01*
X172220299Y-57815032D01*
X172221009Y-57812738D01*
X172227746Y-57748634D01*
X172234933Y-57684564D01*
X172234965Y-57679950D01*
X172234983Y-57679782D01*
X172234968Y-57679614D01*
X172235000Y-57675000D01*
X172235000Y-56735000D01*
X173875000Y-56735000D01*
X173939145Y-56728710D01*
X174003356Y-56722867D01*
X174005662Y-56722188D01*
X174008051Y-56721954D01*
X174069723Y-56703334D01*
X174131606Y-56685121D01*
X174133736Y-56684008D01*
X174136033Y-56683314D01*
X174192886Y-56653084D01*
X174250081Y-56623184D01*
X174251955Y-56621677D01*
X174254073Y-56620551D01*
X174303986Y-56579843D01*
X174354269Y-56539414D01*
X174355813Y-56537573D01*
X174357674Y-56536056D01*
X174398766Y-56486384D01*
X174440203Y-56437002D01*
X174441360Y-56434898D01*
X174442891Y-56433047D01*
X174473541Y-56376361D01*
X174504608Y-56319850D01*
X174505335Y-56317558D01*
X174506476Y-56315448D01*
X174525524Y-56253916D01*
X174545031Y-56192420D01*
X174545299Y-56190032D01*
X174546009Y-56187738D01*
X174552746Y-56123634D01*
X174559933Y-56059564D01*
X174559965Y-56054950D01*
X174559983Y-56054782D01*
X174559968Y-56054614D01*
X174560000Y-56050000D01*
X174560000Y-55975000D01*
X174880000Y-55975000D01*
X174939505Y-55969166D01*
X174998987Y-55963752D01*
X175001118Y-55963125D01*
X175003339Y-55962907D01*
X175060621Y-55945612D01*
X175117875Y-55928762D01*
X175119847Y-55927731D01*
X175121980Y-55927087D01*
X175174781Y-55899012D01*
X175227703Y-55871345D01*
X175229437Y-55869951D01*
X175231404Y-55868905D01*
X175277737Y-55831117D01*
X175324286Y-55793690D01*
X175325717Y-55791985D01*
X175327443Y-55790577D01*
X175365539Y-55744527D01*
X175403947Y-55698754D01*
X175405020Y-55696802D01*
X175406439Y-55695087D01*
X175434851Y-55642539D01*
X175463651Y-55590153D01*
X175464325Y-55588029D01*
X175465383Y-55586072D01*
X175483034Y-55529050D01*
X175488103Y-55513072D01*
X175545000Y-55513072D01*
X175669482Y-55500812D01*
X175789180Y-55464502D01*
X175899494Y-55405537D01*
X175996185Y-55326185D01*
X176075537Y-55229494D01*
X176134502Y-55119180D01*
X176167621Y-55010000D01*
X176947699Y-55010000D01*
X177373000Y-55435302D01*
G36*
X183315001Y-60433647D02*
G01*
X183318366Y-60467812D01*
X183318366Y-60480806D01*
X183319366Y-60490318D01*
X183341121Y-60684268D01*
X183354025Y-60744976D01*
X183366089Y-60805901D01*
X183368917Y-60815038D01*
X183427930Y-61001068D01*
X183452377Y-61058105D01*
X183476046Y-61115531D01*
X183480595Y-61123944D01*
X183574617Y-61294969D01*
X183609692Y-61346194D01*
X183644050Y-61397906D01*
X183650146Y-61405276D01*
X183775596Y-61554782D01*
X183819974Y-61598240D01*
X183863703Y-61642275D01*
X183871109Y-61648315D01*
X183871113Y-61648319D01*
X183871115Y-61648320D01*
X183873000Y-61649836D01*
X183873000Y-62751676D01*
X183853793Y-62767565D01*
X183810027Y-62811638D01*
X183765689Y-62855057D01*
X183759592Y-62862426D01*
X183636242Y-63013668D01*
X183601881Y-63065386D01*
X183566809Y-63116607D01*
X183562260Y-63125020D01*
X183470635Y-63297343D01*
X183446978Y-63354739D01*
X183422519Y-63411807D01*
X183419690Y-63420943D01*
X183363281Y-63607780D01*
X183351219Y-63668698D01*
X183338314Y-63729410D01*
X183337314Y-63738922D01*
X183318269Y-63933155D01*
X183318269Y-63933173D01*
X183315001Y-63966353D01*
X183315001Y-64873000D01*
X182060427Y-64873000D01*
X182000256Y-64832795D01*
X181811898Y-64754774D01*
X181611939Y-64715000D01*
X181408061Y-64715000D01*
X181208102Y-64754774D01*
X181019744Y-64832795D01*
X180959573Y-64873000D01*
X178625514Y-64873000D01*
X178530103Y-56763072D01*
X178962500Y-56763072D01*
X179133316Y-56746248D01*
X179297567Y-56696423D01*
X179448942Y-56615512D01*
X179581623Y-56506623D01*
X179690512Y-56373942D01*
X179771423Y-56222567D01*
X179821248Y-56058316D01*
X179838072Y-55887500D01*
X179838072Y-55412500D01*
X179821248Y-55241684D01*
X179820152Y-55238072D01*
X179850001Y-55238072D01*
X180023255Y-55221008D01*
X180189851Y-55170472D01*
X180343387Y-55088405D01*
X180477962Y-54977962D01*
X180588405Y-54843387D01*
X180670472Y-54689851D01*
X180721008Y-54523255D01*
X180738072Y-54350001D01*
X180738072Y-52149999D01*
X180721008Y-51976745D01*
X180685000Y-51858042D01*
X180685000Y-51217505D01*
X180706007Y-51148254D01*
X180723071Y-50975000D01*
X180723071Y-48774998D01*
X180706007Y-48601744D01*
X180655471Y-48435148D01*
X180573404Y-48281612D01*
X180462961Y-48147037D01*
X180427792Y-48118175D01*
X180435000Y-48081939D01*
X180435000Y-47878061D01*
X180395226Y-47678102D01*
X180317205Y-47489744D01*
X180203937Y-47320226D01*
X180059774Y-47176063D01*
X179890256Y-47062795D01*
X179843039Y-47043237D01*
X179810000Y-47010198D01*
X179810000Y-46948061D01*
X179770226Y-46748102D01*
X179692205Y-46559744D01*
X179578937Y-46390226D01*
X179434774Y-46246063D01*
X179265256Y-46132795D01*
X179076898Y-46054774D01*
X178876939Y-46015000D01*
X178673061Y-46015000D01*
X178473102Y-46054774D01*
X178404458Y-46083207D01*
X178399429Y-45655702D01*
X178438134Y-45616997D01*
X178481448Y-45581450D01*
X178623283Y-45408624D01*
X178728675Y-45211448D01*
X178793576Y-44997500D01*
X178809999Y-44830753D01*
X178809999Y-44830744D01*
X178815489Y-44775002D01*
X178809999Y-44719260D01*
X178809999Y-43877000D01*
X183315000Y-43877000D01*
X183315001Y-60433647D01*
G37*
X183315001Y-60433647D02*
X183318366Y-60467812D01*
X183318366Y-60480806D01*
X183319366Y-60490318D01*
X183341121Y-60684268D01*
X183354025Y-60744976D01*
X183366089Y-60805901D01*
X183368917Y-60815038D01*
X183427930Y-61001068D01*
X183452377Y-61058105D01*
X183476046Y-61115531D01*
X183480595Y-61123944D01*
X183574617Y-61294969D01*
X183609692Y-61346194D01*
X183644050Y-61397906D01*
X183650146Y-61405276D01*
X183775596Y-61554782D01*
X183819974Y-61598240D01*
X183863703Y-61642275D01*
X183871109Y-61648315D01*
X183871113Y-61648319D01*
X183871115Y-61648320D01*
X183873000Y-61649836D01*
X183873000Y-62751676D01*
X183853793Y-62767565D01*
X183810027Y-62811638D01*
X183765689Y-62855057D01*
X183759592Y-62862426D01*
X183636242Y-63013668D01*
X183601881Y-63065386D01*
X183566809Y-63116607D01*
X183562260Y-63125020D01*
X183470635Y-63297343D01*
X183446978Y-63354739D01*
X183422519Y-63411807D01*
X183419690Y-63420943D01*
X183363281Y-63607780D01*
X183351219Y-63668698D01*
X183338314Y-63729410D01*
X183337314Y-63738922D01*
X183318269Y-63933155D01*
X183318269Y-63933173D01*
X183315001Y-63966353D01*
X183315001Y-64873000D01*
X182060427Y-64873000D01*
X182000256Y-64832795D01*
X181811898Y-64754774D01*
X181611939Y-64715000D01*
X181408061Y-64715000D01*
X181208102Y-64754774D01*
X181019744Y-64832795D01*
X180959573Y-64873000D01*
X178625514Y-64873000D01*
X178530103Y-56763072D01*
X178962500Y-56763072D01*
X179133316Y-56746248D01*
X179297567Y-56696423D01*
X179448942Y-56615512D01*
X179581623Y-56506623D01*
X179690512Y-56373942D01*
X179771423Y-56222567D01*
X179821248Y-56058316D01*
X179838072Y-55887500D01*
X179838072Y-55412500D01*
X179821248Y-55241684D01*
X179820152Y-55238072D01*
X179850001Y-55238072D01*
X180023255Y-55221008D01*
X180189851Y-55170472D01*
X180343387Y-55088405D01*
X180477962Y-54977962D01*
X180588405Y-54843387D01*
X180670472Y-54689851D01*
X180721008Y-54523255D01*
X180738072Y-54350001D01*
X180738072Y-52149999D01*
X180721008Y-51976745D01*
X180685000Y-51858042D01*
X180685000Y-51217505D01*
X180706007Y-51148254D01*
X180723071Y-50975000D01*
X180723071Y-48774998D01*
X180706007Y-48601744D01*
X180655471Y-48435148D01*
X180573404Y-48281612D01*
X180462961Y-48147037D01*
X180427792Y-48118175D01*
X180435000Y-48081939D01*
X180435000Y-47878061D01*
X180395226Y-47678102D01*
X180317205Y-47489744D01*
X180203937Y-47320226D01*
X180059774Y-47176063D01*
X179890256Y-47062795D01*
X179843039Y-47043237D01*
X179810000Y-47010198D01*
X179810000Y-46948061D01*
X179770226Y-46748102D01*
X179692205Y-46559744D01*
X179578937Y-46390226D01*
X179434774Y-46246063D01*
X179265256Y-46132795D01*
X179076898Y-46054774D01*
X178876939Y-46015000D01*
X178673061Y-46015000D01*
X178473102Y-46054774D01*
X178404458Y-46083207D01*
X178399429Y-45655702D01*
X178438134Y-45616997D01*
X178481448Y-45581450D01*
X178623283Y-45408624D01*
X178728675Y-45211448D01*
X178793576Y-44997500D01*
X178809999Y-44830753D01*
X178809999Y-44830744D01*
X178815489Y-44775002D01*
X178809999Y-44719260D01*
X178809999Y-43877000D01*
X183315000Y-43877000D01*
X183315001Y-60433647D01*
G36*
X170816928Y-54875000D02*
G01*
X170820868Y-54915000D01*
X166800000Y-54915000D01*
X166735855Y-54921290D01*
X166671644Y-54927133D01*
X166669338Y-54927812D01*
X166666949Y-54928046D01*
X166605277Y-54946666D01*
X166543394Y-54964879D01*
X166541264Y-54965992D01*
X166538967Y-54966686D01*
X166482114Y-54996916D01*
X166424919Y-55026816D01*
X166423045Y-55028323D01*
X166420927Y-55029449D01*
X166371014Y-55070157D01*
X166320731Y-55110586D01*
X166319187Y-55112427D01*
X166317326Y-55113944D01*
X166276234Y-55163616D01*
X166234797Y-55212998D01*
X166233640Y-55215102D01*
X166232109Y-55216953D01*
X166201459Y-55273639D01*
X166170392Y-55330150D01*
X166169665Y-55332442D01*
X166168524Y-55334552D01*
X166149476Y-55396084D01*
X166129969Y-55457580D01*
X166129701Y-55459968D01*
X166128991Y-55462262D01*
X166122254Y-55526366D01*
X166115067Y-55590436D01*
X166115035Y-55595050D01*
X166115017Y-55595218D01*
X166115032Y-55595386D01*
X166115000Y-55600000D01*
X166115000Y-57675000D01*
X166121290Y-57739145D01*
X166127133Y-57803356D01*
X166127812Y-57805662D01*
X166128046Y-57808051D01*
X166146666Y-57869723D01*
X166164879Y-57931606D01*
X166165992Y-57933736D01*
X166166686Y-57936033D01*
X166196916Y-57992886D01*
X166226816Y-58050081D01*
X166228323Y-58051955D01*
X166229449Y-58054073D01*
X166270157Y-58103986D01*
X166310586Y-58154269D01*
X166312427Y-58155813D01*
X166313944Y-58157674D01*
X166363616Y-58198766D01*
X166412998Y-58240203D01*
X166415102Y-58241360D01*
X166416953Y-58242891D01*
X166473639Y-58273541D01*
X166530150Y-58304608D01*
X166532442Y-58305335D01*
X166534552Y-58306476D01*
X166596084Y-58325524D01*
X166657580Y-58345031D01*
X166659968Y-58345299D01*
X166662262Y-58346009D01*
X166726366Y-58352746D01*
X166790436Y-58359933D01*
X166795050Y-58359965D01*
X166795218Y-58359983D01*
X166795386Y-58359968D01*
X166800000Y-58360000D01*
X168865000Y-58360000D01*
X168865000Y-65000000D01*
X168877201Y-65123882D01*
X168913336Y-65243004D01*
X168972017Y-65352787D01*
X169050987Y-65449013D01*
X169147213Y-65527983D01*
X169256996Y-65586664D01*
X169376118Y-65622799D01*
X169500000Y-65635000D01*
X177500000Y-65635000D01*
X177623882Y-65622799D01*
X177743004Y-65586664D01*
X177852787Y-65527983D01*
X177949013Y-65449013D01*
X178000000Y-65386885D01*
X178050987Y-65449013D01*
X178147213Y-65527983D01*
X178256996Y-65586664D01*
X178376118Y-65622799D01*
X178500000Y-65635000D01*
X183315001Y-65635000D01*
X183315000Y-68315000D01*
X157127000Y-68315000D01*
X157127000Y-61135000D01*
X164000000Y-61135000D01*
X164123882Y-61122799D01*
X164243004Y-61086664D01*
X164352787Y-61027983D01*
X164449013Y-60949013D01*
X164527983Y-60852787D01*
X164586664Y-60743004D01*
X164622799Y-60623882D01*
X164635000Y-60500000D01*
X164635000Y-54635000D01*
X170816928Y-54635000D01*
X170816928Y-54875000D01*
G37*
X170816928Y-54875000D02*
X170820868Y-54915000D01*
X166800000Y-54915000D01*
X166735855Y-54921290D01*
X166671644Y-54927133D01*
X166669338Y-54927812D01*
X166666949Y-54928046D01*
X166605277Y-54946666D01*
X166543394Y-54964879D01*
X166541264Y-54965992D01*
X166538967Y-54966686D01*
X166482114Y-54996916D01*
X166424919Y-55026816D01*
X166423045Y-55028323D01*
X166420927Y-55029449D01*
X166371014Y-55070157D01*
X166320731Y-55110586D01*
X166319187Y-55112427D01*
X166317326Y-55113944D01*
X166276234Y-55163616D01*
X166234797Y-55212998D01*
X166233640Y-55215102D01*
X166232109Y-55216953D01*
X166201459Y-55273639D01*
X166170392Y-55330150D01*
X166169665Y-55332442D01*
X166168524Y-55334552D01*
X166149476Y-55396084D01*
X166129969Y-55457580D01*
X166129701Y-55459968D01*
X166128991Y-55462262D01*
X166122254Y-55526366D01*
X166115067Y-55590436D01*
X166115035Y-55595050D01*
X166115017Y-55595218D01*
X166115032Y-55595386D01*
X166115000Y-55600000D01*
X166115000Y-57675000D01*
X166121290Y-57739145D01*
X166127133Y-57803356D01*
X166127812Y-57805662D01*
X166128046Y-57808051D01*
X166146666Y-57869723D01*
X166164879Y-57931606D01*
X166165992Y-57933736D01*
X166166686Y-57936033D01*
X166196916Y-57992886D01*
X166226816Y-58050081D01*
X166228323Y-58051955D01*
X166229449Y-58054073D01*
X166270157Y-58103986D01*
X166310586Y-58154269D01*
X166312427Y-58155813D01*
X166313944Y-58157674D01*
X166363616Y-58198766D01*
X166412998Y-58240203D01*
X166415102Y-58241360D01*
X166416953Y-58242891D01*
X166473639Y-58273541D01*
X166530150Y-58304608D01*
X166532442Y-58305335D01*
X166534552Y-58306476D01*
X166596084Y-58325524D01*
X166657580Y-58345031D01*
X166659968Y-58345299D01*
X166662262Y-58346009D01*
X166726366Y-58352746D01*
X166790436Y-58359933D01*
X166795050Y-58359965D01*
X166795218Y-58359983D01*
X166795386Y-58359968D01*
X166800000Y-58360000D01*
X168865000Y-58360000D01*
X168865000Y-65000000D01*
X168877201Y-65123882D01*
X168913336Y-65243004D01*
X168972017Y-65352787D01*
X169050987Y-65449013D01*
X169147213Y-65527983D01*
X169256996Y-65586664D01*
X169376118Y-65622799D01*
X169500000Y-65635000D01*
X177500000Y-65635000D01*
X177623882Y-65622799D01*
X177743004Y-65586664D01*
X177852787Y-65527983D01*
X177949013Y-65449013D01*
X178000000Y-65386885D01*
X178050987Y-65449013D01*
X178147213Y-65527983D01*
X178256996Y-65586664D01*
X178376118Y-65622799D01*
X178500000Y-65635000D01*
X183315001Y-65635000D01*
X183315000Y-68315000D01*
X157127000Y-68315000D01*
X157127000Y-61135000D01*
X164000000Y-61135000D01*
X164123882Y-61122799D01*
X164243004Y-61086664D01*
X164352787Y-61027983D01*
X164449013Y-60949013D01*
X164527983Y-60852787D01*
X164586664Y-60743004D01*
X164622799Y-60623882D01*
X164635000Y-60500000D01*
X164635000Y-54635000D01*
X170816928Y-54635000D01*
X170816928Y-54875000D01*
G36*
X176140000Y-46732609D02*
G01*
X176154615Y-46880995D01*
X176212368Y-47071381D01*
X176306153Y-47246842D01*
X176432367Y-47400635D01*
X176586160Y-47526849D01*
X176761620Y-47620634D01*
X176868465Y-47653045D01*
X177290010Y-48074591D01*
X177290011Y-51495910D01*
X176973993Y-51811928D01*
X176525000Y-51811928D01*
X176351746Y-51828992D01*
X176185150Y-51879528D01*
X176080000Y-51935732D01*
X176080000Y-51521806D01*
X176102962Y-51502962D01*
X176213405Y-51368386D01*
X176295472Y-51214850D01*
X176346008Y-51048254D01*
X176363072Y-50875000D01*
X176363072Y-50200000D01*
X176346008Y-50026746D01*
X176295472Y-49860150D01*
X176213405Y-49706614D01*
X176102962Y-49572038D01*
X175968386Y-49461595D01*
X175814850Y-49379528D01*
X175648254Y-49328992D01*
X175475000Y-49311928D01*
X174525000Y-49311928D01*
X174351746Y-49328992D01*
X174185150Y-49379528D01*
X174031614Y-49461595D01*
X173897038Y-49572038D01*
X173854372Y-49624027D01*
X173722567Y-49553577D01*
X173558316Y-49503752D01*
X173387500Y-49486928D01*
X172912500Y-49486928D01*
X172741684Y-49503752D01*
X172577433Y-49553577D01*
X172426058Y-49634488D01*
X172293377Y-49743377D01*
X172203822Y-49852500D01*
X172135000Y-49852500D01*
X172135000Y-49537323D01*
X172138676Y-49500000D01*
X172135000Y-49462677D01*
X172135000Y-48500000D01*
X172122799Y-48376118D01*
X172086664Y-48256996D01*
X172027983Y-48147213D01*
X171949013Y-48050987D01*
X171852787Y-47972017D01*
X171743004Y-47913336D01*
X171624871Y-47877501D01*
X172880179Y-47877501D01*
X172917501Y-47881177D01*
X172954823Y-47877501D01*
X172954834Y-47877501D01*
X173066487Y-47866504D01*
X173209748Y-47823047D01*
X173341777Y-47752475D01*
X173457502Y-47657502D01*
X173481304Y-47628499D01*
X174186004Y-46923800D01*
X174215001Y-46900003D01*
X174245309Y-46863072D01*
X174525000Y-46863072D01*
X174649482Y-46850812D01*
X174650000Y-46850655D01*
X174650518Y-46850812D01*
X174775000Y-46863072D01*
X175225000Y-46863072D01*
X175349482Y-46850812D01*
X175469180Y-46814502D01*
X175579494Y-46755537D01*
X175676185Y-46676185D01*
X175709985Y-46635000D01*
X176140000Y-46635000D01*
X176140000Y-46732609D01*
G37*
X176140000Y-46732609D02*
X176154615Y-46880995D01*
X176212368Y-47071381D01*
X176306153Y-47246842D01*
X176432367Y-47400635D01*
X176586160Y-47526849D01*
X176761620Y-47620634D01*
X176868465Y-47653045D01*
X177290010Y-48074591D01*
X177290011Y-51495910D01*
X176973993Y-51811928D01*
X176525000Y-51811928D01*
X176351746Y-51828992D01*
X176185150Y-51879528D01*
X176080000Y-51935732D01*
X176080000Y-51521806D01*
X176102962Y-51502962D01*
X176213405Y-51368386D01*
X176295472Y-51214850D01*
X176346008Y-51048254D01*
X176363072Y-50875000D01*
X176363072Y-50200000D01*
X176346008Y-50026746D01*
X176295472Y-49860150D01*
X176213405Y-49706614D01*
X176102962Y-49572038D01*
X175968386Y-49461595D01*
X175814850Y-49379528D01*
X175648254Y-49328992D01*
X175475000Y-49311928D01*
X174525000Y-49311928D01*
X174351746Y-49328992D01*
X174185150Y-49379528D01*
X174031614Y-49461595D01*
X173897038Y-49572038D01*
X173854372Y-49624027D01*
X173722567Y-49553577D01*
X173558316Y-49503752D01*
X173387500Y-49486928D01*
X172912500Y-49486928D01*
X172741684Y-49503752D01*
X172577433Y-49553577D01*
X172426058Y-49634488D01*
X172293377Y-49743377D01*
X172203822Y-49852500D01*
X172135000Y-49852500D01*
X172135000Y-49537323D01*
X172138676Y-49500000D01*
X172135000Y-49462677D01*
X172135000Y-48500000D01*
X172122799Y-48376118D01*
X172086664Y-48256996D01*
X172027983Y-48147213D01*
X171949013Y-48050987D01*
X171852787Y-47972017D01*
X171743004Y-47913336D01*
X171624871Y-47877501D01*
X172880179Y-47877501D01*
X172917501Y-47881177D01*
X172954823Y-47877501D01*
X172954834Y-47877501D01*
X173066487Y-47866504D01*
X173209748Y-47823047D01*
X173341777Y-47752475D01*
X173457502Y-47657502D01*
X173481304Y-47628499D01*
X174186004Y-46923800D01*
X174215001Y-46900003D01*
X174245309Y-46863072D01*
X174525000Y-46863072D01*
X174649482Y-46850812D01*
X174650000Y-46850655D01*
X174650518Y-46850812D01*
X174775000Y-46863072D01*
X175225000Y-46863072D01*
X175349482Y-46850812D01*
X175469180Y-46814502D01*
X175579494Y-46755537D01*
X175676185Y-46676185D01*
X175709985Y-46635000D01*
X176140000Y-46635000D01*
X176140000Y-46732609D01*
G36*
X183315000Y-43115000D02*
G01*
X178809999Y-43115000D01*
X178809999Y-37730740D01*
X178815489Y-37674998D01*
X178809999Y-37619256D01*
X178809999Y-37619247D01*
X178793576Y-37452500D01*
X178728675Y-37238552D01*
X178623283Y-37041376D01*
X178481448Y-36868550D01*
X178438134Y-36833003D01*
X178438072Y-36832941D01*
X178438072Y-36100000D01*
X178425812Y-35975518D01*
X178389502Y-35855820D01*
X178330537Y-35745506D01*
X178251185Y-35648815D01*
X178154494Y-35569463D01*
X178044180Y-35510498D01*
X177924482Y-35474188D01*
X177800000Y-35461928D01*
X176100000Y-35461928D01*
X175975518Y-35474188D01*
X175855820Y-35510498D01*
X175745506Y-35569463D01*
X175648815Y-35648815D01*
X175569463Y-35745506D01*
X175510498Y-35855820D01*
X175488487Y-35928380D01*
X175356632Y-35796525D01*
X175113411Y-35634010D01*
X174843158Y-35522068D01*
X174556260Y-35465000D01*
X174263740Y-35465000D01*
X173976842Y-35522068D01*
X173706589Y-35634010D01*
X173463368Y-35796525D01*
X173256525Y-36003368D01*
X173140000Y-36177760D01*
X173023475Y-36003368D01*
X172816632Y-35796525D01*
X172573411Y-35634010D01*
X172303158Y-35522068D01*
X172016260Y-35465000D01*
X171723740Y-35465000D01*
X171436842Y-35522068D01*
X171166589Y-35634010D01*
X170923368Y-35796525D01*
X170716525Y-36003368D01*
X170554010Y-36246589D01*
X170442068Y-36516842D01*
X170385000Y-36803740D01*
X170385000Y-37096260D01*
X170442068Y-37383158D01*
X170554010Y-37653411D01*
X170716525Y-37896632D01*
X170923368Y-38103475D01*
X171166589Y-38265990D01*
X171436842Y-38377932D01*
X171723740Y-38435000D01*
X172016260Y-38435000D01*
X172303158Y-38377932D01*
X172568304Y-38268105D01*
X172915001Y-38614803D01*
X172915000Y-40075626D01*
X172885498Y-40130820D01*
X172849188Y-40250518D01*
X172836928Y-40375000D01*
X172836928Y-41825000D01*
X172849188Y-41949482D01*
X172885498Y-42069180D01*
X172944463Y-42179494D01*
X173023815Y-42276185D01*
X173120506Y-42355537D01*
X173230820Y-42414502D01*
X173350518Y-42450812D01*
X173475000Y-42463072D01*
X173875000Y-42463072D01*
X173999482Y-42450812D01*
X174000000Y-42450655D01*
X174000518Y-42450812D01*
X174125000Y-42463072D01*
X174525000Y-42463072D01*
X174649482Y-42450812D01*
X174769180Y-42414502D01*
X174879494Y-42355537D01*
X174976185Y-42276185D01*
X175055537Y-42179494D01*
X175114502Y-42069180D01*
X175150812Y-41949482D01*
X175163072Y-41825000D01*
X175163072Y-40375000D01*
X175150812Y-40250518D01*
X175114502Y-40130820D01*
X175085000Y-40075627D01*
X175085000Y-38277758D01*
X175113411Y-38265990D01*
X175356632Y-38103475D01*
X175488487Y-37971620D01*
X175510498Y-38044180D01*
X175569463Y-38154494D01*
X175648815Y-38251185D01*
X175745506Y-38330537D01*
X175855820Y-38389502D01*
X175975518Y-38425812D01*
X176100000Y-38438072D01*
X176539999Y-38438072D01*
X176540000Y-44304869D01*
X176479869Y-44365000D01*
X175709985Y-44365000D01*
X175676185Y-44323815D01*
X175579494Y-44244463D01*
X175469180Y-44185498D01*
X175349482Y-44149188D01*
X175225000Y-44136928D01*
X174775000Y-44136928D01*
X174650518Y-44149188D01*
X174650000Y-44149345D01*
X174649482Y-44149188D01*
X174525000Y-44136928D01*
X174125000Y-44136928D01*
X174000518Y-44149188D01*
X174000000Y-44149345D01*
X173999482Y-44149188D01*
X173875000Y-44136928D01*
X173475000Y-44136928D01*
X173350518Y-44149188D01*
X173350000Y-44149345D01*
X173349482Y-44149188D01*
X173225000Y-44136928D01*
X172775000Y-44136928D01*
X172650518Y-44149188D01*
X172530820Y-44185498D01*
X172420506Y-44244463D01*
X172323815Y-44323815D01*
X172244463Y-44420506D01*
X172185498Y-44530820D01*
X172149188Y-44650518D01*
X172136928Y-44775000D01*
X172136928Y-44832311D01*
X172075724Y-44865026D01*
X171959999Y-44959999D01*
X171936201Y-44988997D01*
X171185199Y-45740000D01*
X170288072Y-45740000D01*
X170288072Y-45650000D01*
X170275812Y-45525518D01*
X170239502Y-45405820D01*
X170180537Y-45295506D01*
X170101185Y-45198815D01*
X170004494Y-45119463D01*
X169894180Y-45060498D01*
X169821620Y-45038487D01*
X169953475Y-44906632D01*
X170115990Y-44663411D01*
X170227932Y-44393158D01*
X170285000Y-44106260D01*
X170285000Y-43813740D01*
X170227932Y-43526842D01*
X170115990Y-43256589D01*
X169953475Y-43013368D01*
X169746632Y-42806525D01*
X169572240Y-42690000D01*
X169746632Y-42573475D01*
X169953475Y-42366632D01*
X170115990Y-42123411D01*
X170227932Y-41853158D01*
X170285000Y-41566260D01*
X170285000Y-41273740D01*
X170227932Y-40986842D01*
X170115990Y-40716589D01*
X169953475Y-40473368D01*
X169746632Y-40266525D01*
X169503411Y-40104010D01*
X169233158Y-39992068D01*
X168946260Y-39935000D01*
X168653740Y-39935000D01*
X168435000Y-39978510D01*
X168435000Y-38438072D01*
X168525000Y-38438072D01*
X168649482Y-38425812D01*
X168769180Y-38389502D01*
X168879494Y-38330537D01*
X168976185Y-38251185D01*
X169055537Y-38154494D01*
X169114502Y-38044180D01*
X169150812Y-37924482D01*
X169163072Y-37800000D01*
X169163072Y-36100000D01*
X169150812Y-35975518D01*
X169114502Y-35855820D01*
X169055537Y-35745506D01*
X168976185Y-35648815D01*
X168879494Y-35569463D01*
X168769180Y-35510498D01*
X168649482Y-35474188D01*
X168525000Y-35461928D01*
X166825000Y-35461928D01*
X166700518Y-35474188D01*
X166580820Y-35510498D01*
X166470506Y-35569463D01*
X166373815Y-35648815D01*
X166294463Y-35745506D01*
X166235498Y-35855820D01*
X166213487Y-35928380D01*
X166081632Y-35796525D01*
X165838411Y-35634010D01*
X165568158Y-35522068D01*
X165281260Y-35465000D01*
X164988740Y-35465000D01*
X164701842Y-35522068D01*
X164431589Y-35634010D01*
X164188368Y-35796525D01*
X163981525Y-36003368D01*
X163819010Y-36246589D01*
X163707068Y-36516842D01*
X163650000Y-36803740D01*
X163650000Y-37096260D01*
X163707068Y-37383158D01*
X163819010Y-37653411D01*
X163981525Y-37896632D01*
X164188368Y-38103475D01*
X164375000Y-38228179D01*
X164375001Y-39961928D01*
X164300000Y-39961928D01*
X164175518Y-39974188D01*
X164055820Y-40010498D01*
X163945506Y-40069463D01*
X163848815Y-40148815D01*
X163769463Y-40245506D01*
X163710498Y-40355820D01*
X163674188Y-40475518D01*
X163661928Y-40600000D01*
X163661928Y-42300000D01*
X163674188Y-42424482D01*
X163710498Y-42544180D01*
X163769463Y-42654494D01*
X163848815Y-42751185D01*
X163945506Y-42830537D01*
X164055820Y-42889502D01*
X164128380Y-42911513D01*
X163996525Y-43043368D01*
X163834010Y-43286589D01*
X163722068Y-43556842D01*
X163665000Y-43843740D01*
X163665000Y-44136260D01*
X163708791Y-44356408D01*
X163464002Y-44601197D01*
X163434998Y-44625000D01*
X163403358Y-44663554D01*
X163340025Y-44740725D01*
X163311306Y-44794454D01*
X163269453Y-44872755D01*
X163225996Y-45016016D01*
X163214999Y-45127669D01*
X163214999Y-45127679D01*
X163211323Y-45165001D01*
X163214999Y-45202324D01*
X163215000Y-47056669D01*
X163211323Y-47094001D01*
X163215000Y-47131334D01*
X163225997Y-47242987D01*
X163239179Y-47286443D01*
X163269453Y-47386247D01*
X163340025Y-47518277D01*
X163402318Y-47594180D01*
X163434999Y-47634002D01*
X163463997Y-47657800D01*
X163671197Y-47865000D01*
X157127000Y-47865000D01*
X157127000Y-35127000D01*
X183315000Y-35127000D01*
X183315000Y-43115000D01*
G37*
X183315000Y-43115000D02*
X178809999Y-43115000D01*
X178809999Y-37730740D01*
X178815489Y-37674998D01*
X178809999Y-37619256D01*
X178809999Y-37619247D01*
X178793576Y-37452500D01*
X178728675Y-37238552D01*
X178623283Y-37041376D01*
X178481448Y-36868550D01*
X178438134Y-36833003D01*
X178438072Y-36832941D01*
X178438072Y-36100000D01*
X178425812Y-35975518D01*
X178389502Y-35855820D01*
X178330537Y-35745506D01*
X178251185Y-35648815D01*
X178154494Y-35569463D01*
X178044180Y-35510498D01*
X177924482Y-35474188D01*
X177800000Y-35461928D01*
X176100000Y-35461928D01*
X175975518Y-35474188D01*
X175855820Y-35510498D01*
X175745506Y-35569463D01*
X175648815Y-35648815D01*
X175569463Y-35745506D01*
X175510498Y-35855820D01*
X175488487Y-35928380D01*
X175356632Y-35796525D01*
X175113411Y-35634010D01*
X174843158Y-35522068D01*
X174556260Y-35465000D01*
X174263740Y-35465000D01*
X173976842Y-35522068D01*
X173706589Y-35634010D01*
X173463368Y-35796525D01*
X173256525Y-36003368D01*
X173140000Y-36177760D01*
X173023475Y-36003368D01*
X172816632Y-35796525D01*
X172573411Y-35634010D01*
X172303158Y-35522068D01*
X172016260Y-35465000D01*
X171723740Y-35465000D01*
X171436842Y-35522068D01*
X171166589Y-35634010D01*
X170923368Y-35796525D01*
X170716525Y-36003368D01*
X170554010Y-36246589D01*
X170442068Y-36516842D01*
X170385000Y-36803740D01*
X170385000Y-37096260D01*
X170442068Y-37383158D01*
X170554010Y-37653411D01*
X170716525Y-37896632D01*
X170923368Y-38103475D01*
X171166589Y-38265990D01*
X171436842Y-38377932D01*
X171723740Y-38435000D01*
X172016260Y-38435000D01*
X172303158Y-38377932D01*
X172568304Y-38268105D01*
X172915001Y-38614803D01*
X172915000Y-40075626D01*
X172885498Y-40130820D01*
X172849188Y-40250518D01*
X172836928Y-40375000D01*
X172836928Y-41825000D01*
X172849188Y-41949482D01*
X172885498Y-42069180D01*
X172944463Y-42179494D01*
X173023815Y-42276185D01*
X173120506Y-42355537D01*
X173230820Y-42414502D01*
X173350518Y-42450812D01*
X173475000Y-42463072D01*
X173875000Y-42463072D01*
X173999482Y-42450812D01*
X174000000Y-42450655D01*
X174000518Y-42450812D01*
X174125000Y-42463072D01*
X174525000Y-42463072D01*
X174649482Y-42450812D01*
X174769180Y-42414502D01*
X174879494Y-42355537D01*
X174976185Y-42276185D01*
X175055537Y-42179494D01*
X175114502Y-42069180D01*
X175150812Y-41949482D01*
X175163072Y-41825000D01*
X175163072Y-40375000D01*
X175150812Y-40250518D01*
X175114502Y-40130820D01*
X175085000Y-40075627D01*
X175085000Y-38277758D01*
X175113411Y-38265990D01*
X175356632Y-38103475D01*
X175488487Y-37971620D01*
X175510498Y-38044180D01*
X175569463Y-38154494D01*
X175648815Y-38251185D01*
X175745506Y-38330537D01*
X175855820Y-38389502D01*
X175975518Y-38425812D01*
X176100000Y-38438072D01*
X176539999Y-38438072D01*
X176540000Y-44304869D01*
X176479869Y-44365000D01*
X175709985Y-44365000D01*
X175676185Y-44323815D01*
X175579494Y-44244463D01*
X175469180Y-44185498D01*
X175349482Y-44149188D01*
X175225000Y-44136928D01*
X174775000Y-44136928D01*
X174650518Y-44149188D01*
X174650000Y-44149345D01*
X174649482Y-44149188D01*
X174525000Y-44136928D01*
X174125000Y-44136928D01*
X174000518Y-44149188D01*
X174000000Y-44149345D01*
X173999482Y-44149188D01*
X173875000Y-44136928D01*
X173475000Y-44136928D01*
X173350518Y-44149188D01*
X173350000Y-44149345D01*
X173349482Y-44149188D01*
X173225000Y-44136928D01*
X172775000Y-44136928D01*
X172650518Y-44149188D01*
X172530820Y-44185498D01*
X172420506Y-44244463D01*
X172323815Y-44323815D01*
X172244463Y-44420506D01*
X172185498Y-44530820D01*
X172149188Y-44650518D01*
X172136928Y-44775000D01*
X172136928Y-44832311D01*
X172075724Y-44865026D01*
X171959999Y-44959999D01*
X171936201Y-44988997D01*
X171185199Y-45740000D01*
X170288072Y-45740000D01*
X170288072Y-45650000D01*
X170275812Y-45525518D01*
X170239502Y-45405820D01*
X170180537Y-45295506D01*
X170101185Y-45198815D01*
X170004494Y-45119463D01*
X169894180Y-45060498D01*
X169821620Y-45038487D01*
X169953475Y-44906632D01*
X170115990Y-44663411D01*
X170227932Y-44393158D01*
X170285000Y-44106260D01*
X170285000Y-43813740D01*
X170227932Y-43526842D01*
X170115990Y-43256589D01*
X169953475Y-43013368D01*
X169746632Y-42806525D01*
X169572240Y-42690000D01*
X169746632Y-42573475D01*
X169953475Y-42366632D01*
X170115990Y-42123411D01*
X170227932Y-41853158D01*
X170285000Y-41566260D01*
X170285000Y-41273740D01*
X170227932Y-40986842D01*
X170115990Y-40716589D01*
X169953475Y-40473368D01*
X169746632Y-40266525D01*
X169503411Y-40104010D01*
X169233158Y-39992068D01*
X168946260Y-39935000D01*
X168653740Y-39935000D01*
X168435000Y-39978510D01*
X168435000Y-38438072D01*
X168525000Y-38438072D01*
X168649482Y-38425812D01*
X168769180Y-38389502D01*
X168879494Y-38330537D01*
X168976185Y-38251185D01*
X169055537Y-38154494D01*
X169114502Y-38044180D01*
X169150812Y-37924482D01*
X169163072Y-37800000D01*
X169163072Y-36100000D01*
X169150812Y-35975518D01*
X169114502Y-35855820D01*
X169055537Y-35745506D01*
X168976185Y-35648815D01*
X168879494Y-35569463D01*
X168769180Y-35510498D01*
X168649482Y-35474188D01*
X168525000Y-35461928D01*
X166825000Y-35461928D01*
X166700518Y-35474188D01*
X166580820Y-35510498D01*
X166470506Y-35569463D01*
X166373815Y-35648815D01*
X166294463Y-35745506D01*
X166235498Y-35855820D01*
X166213487Y-35928380D01*
X166081632Y-35796525D01*
X165838411Y-35634010D01*
X165568158Y-35522068D01*
X165281260Y-35465000D01*
X164988740Y-35465000D01*
X164701842Y-35522068D01*
X164431589Y-35634010D01*
X164188368Y-35796525D01*
X163981525Y-36003368D01*
X163819010Y-36246589D01*
X163707068Y-36516842D01*
X163650000Y-36803740D01*
X163650000Y-37096260D01*
X163707068Y-37383158D01*
X163819010Y-37653411D01*
X163981525Y-37896632D01*
X164188368Y-38103475D01*
X164375000Y-38228179D01*
X164375001Y-39961928D01*
X164300000Y-39961928D01*
X164175518Y-39974188D01*
X164055820Y-40010498D01*
X163945506Y-40069463D01*
X163848815Y-40148815D01*
X163769463Y-40245506D01*
X163710498Y-40355820D01*
X163674188Y-40475518D01*
X163661928Y-40600000D01*
X163661928Y-42300000D01*
X163674188Y-42424482D01*
X163710498Y-42544180D01*
X163769463Y-42654494D01*
X163848815Y-42751185D01*
X163945506Y-42830537D01*
X164055820Y-42889502D01*
X164128380Y-42911513D01*
X163996525Y-43043368D01*
X163834010Y-43286589D01*
X163722068Y-43556842D01*
X163665000Y-43843740D01*
X163665000Y-44136260D01*
X163708791Y-44356408D01*
X163464002Y-44601197D01*
X163434998Y-44625000D01*
X163403358Y-44663554D01*
X163340025Y-44740725D01*
X163311306Y-44794454D01*
X163269453Y-44872755D01*
X163225996Y-45016016D01*
X163214999Y-45127669D01*
X163214999Y-45127679D01*
X163211323Y-45165001D01*
X163214999Y-45202324D01*
X163215000Y-47056669D01*
X163211323Y-47094001D01*
X163215000Y-47131334D01*
X163225997Y-47242987D01*
X163239179Y-47286443D01*
X163269453Y-47386247D01*
X163340025Y-47518277D01*
X163402318Y-47594180D01*
X163434999Y-47634002D01*
X163463997Y-47657800D01*
X163671197Y-47865000D01*
X157127000Y-47865000D01*
X157127000Y-35127000D01*
X183315000Y-35127000D01*
X183315000Y-43115000D01*
G36*
X166235498Y-38044180D02*
G01*
X166294463Y-38154494D01*
X166373815Y-38251185D01*
X166470506Y-38330537D01*
X166580820Y-38389502D01*
X166700518Y-38425812D01*
X166825000Y-38438072D01*
X166915001Y-38438072D01*
X166915000Y-40257677D01*
X166911324Y-40295000D01*
X166915000Y-40332322D01*
X166915000Y-40332332D01*
X166925997Y-40443985D01*
X166969454Y-40587246D01*
X167040026Y-40719276D01*
X167079871Y-40767826D01*
X167134999Y-40835001D01*
X167164002Y-40858804D01*
X167358791Y-41053592D01*
X167315000Y-41273740D01*
X167315000Y-41566260D01*
X167372068Y-41853158D01*
X167484010Y-42123411D01*
X167646525Y-42366632D01*
X167853368Y-42573475D01*
X168027760Y-42690000D01*
X167853368Y-42806525D01*
X167646525Y-43013368D01*
X167484010Y-43256589D01*
X167372068Y-43526842D01*
X167315000Y-43813740D01*
X167315000Y-44106260D01*
X167372068Y-44393158D01*
X167484010Y-44663411D01*
X167646525Y-44906632D01*
X167778380Y-45038487D01*
X167705820Y-45060498D01*
X167595506Y-45119463D01*
X167498815Y-45198815D01*
X167419463Y-45295506D01*
X167360498Y-45405820D01*
X167324188Y-45525518D01*
X167311928Y-45650000D01*
X167311928Y-46915001D01*
X166609803Y-46915001D01*
X166591210Y-46896408D01*
X166635000Y-46676260D01*
X166635000Y-46383740D01*
X166577932Y-46096842D01*
X166465990Y-45826589D01*
X166303475Y-45583368D01*
X166096632Y-45376525D01*
X165922240Y-45260000D01*
X166096632Y-45143475D01*
X166303475Y-44936632D01*
X166465990Y-44693411D01*
X166577932Y-44423158D01*
X166635000Y-44136260D01*
X166635000Y-43843740D01*
X166577932Y-43556842D01*
X166465990Y-43286589D01*
X166303475Y-43043368D01*
X166171620Y-42911513D01*
X166244180Y-42889502D01*
X166354494Y-42830537D01*
X166451185Y-42751185D01*
X166530537Y-42654494D01*
X166589502Y-42544180D01*
X166625812Y-42424482D01*
X166638072Y-42300000D01*
X166638072Y-40600000D01*
X166625812Y-40475518D01*
X166589502Y-40355820D01*
X166530537Y-40245506D01*
X166451185Y-40148815D01*
X166354494Y-40069463D01*
X166244180Y-40010498D01*
X166124482Y-39974188D01*
X166000000Y-39961928D01*
X165895000Y-39961928D01*
X165895000Y-38228178D01*
X166081632Y-38103475D01*
X166213487Y-37971620D01*
X166235498Y-38044180D01*
G37*
X166235498Y-38044180D02*
X166294463Y-38154494D01*
X166373815Y-38251185D01*
X166470506Y-38330537D01*
X166580820Y-38389502D01*
X166700518Y-38425812D01*
X166825000Y-38438072D01*
X166915001Y-38438072D01*
X166915000Y-40257677D01*
X166911324Y-40295000D01*
X166915000Y-40332322D01*
X166915000Y-40332332D01*
X166925997Y-40443985D01*
X166969454Y-40587246D01*
X167040026Y-40719276D01*
X167079871Y-40767826D01*
X167134999Y-40835001D01*
X167164002Y-40858804D01*
X167358791Y-41053592D01*
X167315000Y-41273740D01*
X167315000Y-41566260D01*
X167372068Y-41853158D01*
X167484010Y-42123411D01*
X167646525Y-42366632D01*
X167853368Y-42573475D01*
X168027760Y-42690000D01*
X167853368Y-42806525D01*
X167646525Y-43013368D01*
X167484010Y-43256589D01*
X167372068Y-43526842D01*
X167315000Y-43813740D01*
X167315000Y-44106260D01*
X167372068Y-44393158D01*
X167484010Y-44663411D01*
X167646525Y-44906632D01*
X167778380Y-45038487D01*
X167705820Y-45060498D01*
X167595506Y-45119463D01*
X167498815Y-45198815D01*
X167419463Y-45295506D01*
X167360498Y-45405820D01*
X167324188Y-45525518D01*
X167311928Y-45650000D01*
X167311928Y-46915001D01*
X166609803Y-46915001D01*
X166591210Y-46896408D01*
X166635000Y-46676260D01*
X166635000Y-46383740D01*
X166577932Y-46096842D01*
X166465990Y-45826589D01*
X166303475Y-45583368D01*
X166096632Y-45376525D01*
X165922240Y-45260000D01*
X166096632Y-45143475D01*
X166303475Y-44936632D01*
X166465990Y-44693411D01*
X166577932Y-44423158D01*
X166635000Y-44136260D01*
X166635000Y-43843740D01*
X166577932Y-43556842D01*
X166465990Y-43286589D01*
X166303475Y-43043368D01*
X166171620Y-42911513D01*
X166244180Y-42889502D01*
X166354494Y-42830537D01*
X166451185Y-42751185D01*
X166530537Y-42654494D01*
X166589502Y-42544180D01*
X166625812Y-42424482D01*
X166638072Y-42300000D01*
X166638072Y-40600000D01*
X166625812Y-40475518D01*
X166589502Y-40355820D01*
X166530537Y-40245506D01*
X166451185Y-40148815D01*
X166354494Y-40069463D01*
X166244180Y-40010498D01*
X166124482Y-39974188D01*
X166000000Y-39961928D01*
X165895000Y-39961928D01*
X165895000Y-38228178D01*
X166081632Y-38103475D01*
X166213487Y-37971620D01*
X166235498Y-38044180D01*
G36*
X164567203Y-48761008D02*
G01*
X164590997Y-48790001D01*
X164619990Y-48813795D01*
X164619994Y-48813799D01*
X164682415Y-48865026D01*
X164706722Y-48884974D01*
X164838751Y-48955546D01*
X164982012Y-48999003D01*
X165093665Y-49010000D01*
X165093674Y-49010000D01*
X165130997Y-49013676D01*
X165168320Y-49010000D01*
X169018184Y-49010000D01*
X168984488Y-49051058D01*
X168903577Y-49202433D01*
X168853752Y-49366684D01*
X168836928Y-49537500D01*
X168836928Y-50037500D01*
X168853752Y-50208316D01*
X168903577Y-50372567D01*
X168984488Y-50523942D01*
X169093377Y-50656623D01*
X169226058Y-50765512D01*
X169377433Y-50846423D01*
X169541684Y-50896248D01*
X169712500Y-50913072D01*
X170000770Y-50913072D01*
X170190000Y-51102302D01*
X170190000Y-51612678D01*
X170186324Y-51650000D01*
X170190000Y-51687322D01*
X170190000Y-51687333D01*
X170192314Y-51710820D01*
X170200998Y-51798985D01*
X170244454Y-51942246D01*
X170315026Y-52074276D01*
X170365726Y-52136053D01*
X170410000Y-52190001D01*
X170438998Y-52213799D01*
X170504566Y-52279368D01*
X170476234Y-52313616D01*
X170434797Y-52362998D01*
X170433640Y-52365102D01*
X170432109Y-52366953D01*
X170401459Y-52423639D01*
X170370392Y-52480150D01*
X170369665Y-52482442D01*
X170368524Y-52484552D01*
X170349476Y-52546084D01*
X170329969Y-52607580D01*
X170329701Y-52609968D01*
X170328991Y-52612262D01*
X170322254Y-52676366D01*
X170315067Y-52740436D01*
X170315035Y-52745050D01*
X170315017Y-52745218D01*
X170315032Y-52745386D01*
X170315000Y-52750000D01*
X170315000Y-53750000D01*
X170321290Y-53814145D01*
X170326646Y-53873000D01*
X169960062Y-53873000D01*
X169950000Y-53872009D01*
X169939938Y-53873000D01*
X168757284Y-53873000D01*
X168743387Y-53861595D01*
X168589851Y-53779528D01*
X168423255Y-53728992D01*
X168250001Y-53711928D01*
X166049999Y-53711928D01*
X165876745Y-53728992D01*
X165710149Y-53779528D01*
X165556613Y-53861595D01*
X165542716Y-53873000D01*
X164000000Y-53873000D01*
X163975224Y-53875440D01*
X163951399Y-53882667D01*
X163929443Y-53894403D01*
X163910197Y-53910197D01*
X163894403Y-53929443D01*
X163882667Y-53951399D01*
X163875440Y-53975224D01*
X163873000Y-54000000D01*
X163873000Y-60373000D01*
X157127000Y-60373000D01*
X157127000Y-48627000D01*
X164433195Y-48627000D01*
X164567203Y-48761008D01*
G37*
X164567203Y-48761008D02*
X164590997Y-48790001D01*
X164619990Y-48813795D01*
X164619994Y-48813799D01*
X164682415Y-48865026D01*
X164706722Y-48884974D01*
X164838751Y-48955546D01*
X164982012Y-48999003D01*
X165093665Y-49010000D01*
X165093674Y-49010000D01*
X165130997Y-49013676D01*
X165168320Y-49010000D01*
X169018184Y-49010000D01*
X168984488Y-49051058D01*
X168903577Y-49202433D01*
X168853752Y-49366684D01*
X168836928Y-49537500D01*
X168836928Y-50037500D01*
X168853752Y-50208316D01*
X168903577Y-50372567D01*
X168984488Y-50523942D01*
X169093377Y-50656623D01*
X169226058Y-50765512D01*
X169377433Y-50846423D01*
X169541684Y-50896248D01*
X169712500Y-50913072D01*
X170000770Y-50913072D01*
X170190000Y-51102302D01*
X170190000Y-51612678D01*
X170186324Y-51650000D01*
X170190000Y-51687322D01*
X170190000Y-51687333D01*
X170192314Y-51710820D01*
X170200998Y-51798985D01*
X170244454Y-51942246D01*
X170315026Y-52074276D01*
X170365726Y-52136053D01*
X170410000Y-52190001D01*
X170438998Y-52213799D01*
X170504566Y-52279368D01*
X170476234Y-52313616D01*
X170434797Y-52362998D01*
X170433640Y-52365102D01*
X170432109Y-52366953D01*
X170401459Y-52423639D01*
X170370392Y-52480150D01*
X170369665Y-52482442D01*
X170368524Y-52484552D01*
X170349476Y-52546084D01*
X170329969Y-52607580D01*
X170329701Y-52609968D01*
X170328991Y-52612262D01*
X170322254Y-52676366D01*
X170315067Y-52740436D01*
X170315035Y-52745050D01*
X170315017Y-52745218D01*
X170315032Y-52745386D01*
X170315000Y-52750000D01*
X170315000Y-53750000D01*
X170321290Y-53814145D01*
X170326646Y-53873000D01*
X169960062Y-53873000D01*
X169950000Y-53872009D01*
X169939938Y-53873000D01*
X168757284Y-53873000D01*
X168743387Y-53861595D01*
X168589851Y-53779528D01*
X168423255Y-53728992D01*
X168250001Y-53711928D01*
X166049999Y-53711928D01*
X165876745Y-53728992D01*
X165710149Y-53779528D01*
X165556613Y-53861595D01*
X165542716Y-53873000D01*
X164000000Y-53873000D01*
X163975224Y-53875440D01*
X163951399Y-53882667D01*
X163929443Y-53894403D01*
X163910197Y-53910197D01*
X163894403Y-53929443D01*
X163882667Y-53951399D01*
X163875440Y-53975224D01*
X163873000Y-54000000D01*
X163873000Y-60373000D01*
X157127000Y-60373000D01*
X157127000Y-48627000D01*
X164433195Y-48627000D01*
X164567203Y-48761008D01*
M02*
