G04 #@! TF.GenerationSoftware,KiCad,Pcbnew,(5.1.6-0-10_14)*
G04 #@! TF.CreationDate,2021-10-07T11:44:50+09:00*
G04 #@! TF.ProjectId,peltier,70656c74-6965-4722-9e6b-696361645f70,rev?*
G04 #@! TF.SameCoordinates,Original*
G04 #@! TF.FileFunction,Paste,Top*
G04 #@! TF.FilePolarity,Positive*
%FSLAX46Y46*%
G04 Gerber Fmt 4.6, Leading zero omitted, Abs format (unit mm)*
G04 Created by KiCad (PCBNEW (5.1.6-0-10_14)) date 2021-10-07 11:44:50*
%MOMM*%
%LPD*%
G01*
G04 APERTURE LIST*
%ADD10C,0.475000*%
%ADD11C,0.100000*%
%ADD12R,0.250000X0.450000*%
%ADD13R,0.450000X0.250000*%
%ADD14R,0.450000X1.450000*%
%ADD15R,0.400000X1.450000*%
%ADD16R,4.100000X4.100000*%
%ADD17R,1.270000X0.609600*%
%ADD18R,0.450000X0.450000*%
G04 APERTURE END LIST*
D10*
X188737500Y-66500000D02*
G75*
G03*
X188737500Y-66500000I-237500J0D01*
G01*
X188737500Y-21500000D02*
G75*
G03*
X188737500Y-21500000I-237500J0D01*
G01*
X124737500Y-21500000D02*
G75*
G03*
X124737500Y-21500000I-237500J0D01*
G01*
X124737500Y-66500000D02*
G75*
G03*
X124737500Y-66500000I-237500J0D01*
G01*
D11*
G36*
X174400000Y-53200000D02*
G01*
X174400000Y-52900000D01*
X174600000Y-52900000D01*
X174600000Y-53200000D01*
X174400000Y-53200000D01*
G37*
G36*
X174400000Y-53200000D02*
G01*
X174400000Y-52900000D01*
X174600000Y-52900000D01*
X174600000Y-53200000D01*
X174400000Y-53200000D01*
G37*
G36*
X174400000Y-53700000D02*
G01*
X174400000Y-53400000D01*
X174600000Y-53400000D01*
X174600000Y-53700000D01*
X174400000Y-53700000D01*
G37*
G36*
X174100000Y-53200000D02*
G01*
X174100000Y-52900000D01*
X174300000Y-52900000D01*
X174300000Y-53200000D01*
X174100000Y-53200000D01*
G37*
G36*
X174100000Y-53200000D02*
G01*
X174100000Y-52900000D01*
X174300000Y-52900000D01*
X174300000Y-53200000D01*
X174100000Y-53200000D01*
G37*
G36*
X174100000Y-53700000D02*
G01*
X174100000Y-53400000D01*
X174300000Y-53400000D01*
X174300000Y-53700000D01*
X174100000Y-53700000D01*
G37*
G36*
X173800000Y-53200000D02*
G01*
X173800000Y-52900000D01*
X174000000Y-52900000D01*
X174000000Y-53200000D01*
X173800000Y-53200000D01*
G37*
G36*
X173500000Y-53700000D02*
G01*
X173500000Y-53400000D01*
X173700000Y-53400000D01*
X173700000Y-53700000D01*
X173500000Y-53700000D01*
G37*
G36*
X173800000Y-53200000D02*
G01*
X173800000Y-52900000D01*
X174000000Y-52900000D01*
X174000000Y-53200000D01*
X173800000Y-53200000D01*
G37*
G36*
X173500000Y-53200000D02*
G01*
X173500000Y-52900000D01*
X173700000Y-52900000D01*
X173700000Y-53200000D01*
X173500000Y-53200000D01*
G37*
G36*
X173500000Y-53200000D02*
G01*
X173500000Y-52900000D01*
X173700000Y-52900000D01*
X173700000Y-53200000D01*
X173500000Y-53200000D01*
G37*
G36*
X173800000Y-53700000D02*
G01*
X173800000Y-53400000D01*
X174000000Y-53400000D01*
X174000000Y-53700000D01*
X173800000Y-53700000D01*
G37*
G36*
X173200000Y-53200000D02*
G01*
X173200000Y-52900000D01*
X173400000Y-52900000D01*
X173400000Y-53200000D01*
X173200000Y-53200000D01*
G37*
G36*
X172300000Y-53200000D02*
G01*
X172300000Y-52900000D01*
X172500000Y-52900000D01*
X172500000Y-53200000D01*
X172300000Y-53200000D01*
G37*
G36*
X172300000Y-53700000D02*
G01*
X172300000Y-53400000D01*
X172500000Y-53400000D01*
X172500000Y-53700000D01*
X172300000Y-53700000D01*
G37*
G36*
X172300000Y-53200000D02*
G01*
X172300000Y-52900000D01*
X172500000Y-52900000D01*
X172500000Y-53200000D01*
X172300000Y-53200000D01*
G37*
G36*
X172600000Y-53200000D02*
G01*
X172600000Y-52900000D01*
X172800000Y-52900000D01*
X172800000Y-53200000D01*
X172600000Y-53200000D01*
G37*
G36*
X172600000Y-53700000D02*
G01*
X172600000Y-53400000D01*
X172800000Y-53400000D01*
X172800000Y-53700000D01*
X172600000Y-53700000D01*
G37*
G36*
X172600000Y-53200000D02*
G01*
X172600000Y-52900000D01*
X172800000Y-52900000D01*
X172800000Y-53200000D01*
X172600000Y-53200000D01*
G37*
G36*
X172900000Y-53700000D02*
G01*
X172900000Y-53400000D01*
X173100000Y-53400000D01*
X173100000Y-53700000D01*
X172900000Y-53700000D01*
G37*
G36*
X173200000Y-53200000D02*
G01*
X173200000Y-52900000D01*
X173400000Y-52900000D01*
X173400000Y-53200000D01*
X173200000Y-53200000D01*
G37*
G36*
X172900000Y-53200000D02*
G01*
X172900000Y-52900000D01*
X173100000Y-52900000D01*
X173100000Y-53200000D01*
X172900000Y-53200000D01*
G37*
G36*
X172900000Y-53200000D02*
G01*
X172900000Y-52900000D01*
X173100000Y-52900000D01*
X173100000Y-53200000D01*
X172900000Y-53200000D01*
G37*
G36*
X173200000Y-53700000D02*
G01*
X173200000Y-53400000D01*
X173400000Y-53400000D01*
X173400000Y-53700000D01*
X173200000Y-53700000D01*
G37*
G36*
X174400000Y-54750000D02*
G01*
X174400000Y-54450000D01*
X174600000Y-54450000D01*
X174600000Y-54750000D01*
X174400000Y-54750000D01*
G37*
G36*
X174400000Y-55250000D02*
G01*
X174400000Y-54950000D01*
X174600000Y-54950000D01*
X174600000Y-55250000D01*
X174400000Y-55250000D01*
G37*
G36*
X174400000Y-54750000D02*
G01*
X174400000Y-54450000D01*
X174600000Y-54450000D01*
X174600000Y-54750000D01*
X174400000Y-54750000D01*
G37*
G36*
X172600000Y-54750000D02*
G01*
X172600000Y-54450000D01*
X172800000Y-54450000D01*
X172800000Y-54750000D01*
X172600000Y-54750000D01*
G37*
G36*
X172600000Y-55250000D02*
G01*
X172600000Y-54950000D01*
X172800000Y-54950000D01*
X172800000Y-55250000D01*
X172600000Y-55250000D01*
G37*
G36*
X172600000Y-54750000D02*
G01*
X172600000Y-54450000D01*
X172800000Y-54450000D01*
X172800000Y-54750000D01*
X172600000Y-54750000D01*
G37*
G36*
X172900000Y-55250000D02*
G01*
X172900000Y-54950000D01*
X173100000Y-54950000D01*
X173100000Y-55250000D01*
X172900000Y-55250000D01*
G37*
G36*
X173200000Y-54750000D02*
G01*
X173200000Y-54450000D01*
X173400000Y-54450000D01*
X173400000Y-54750000D01*
X173200000Y-54750000D01*
G37*
G36*
X172900000Y-54750000D02*
G01*
X172900000Y-54450000D01*
X173100000Y-54450000D01*
X173100000Y-54750000D01*
X172900000Y-54750000D01*
G37*
G36*
X172900000Y-54750000D02*
G01*
X172900000Y-54450000D01*
X173100000Y-54450000D01*
X173100000Y-54750000D01*
X172900000Y-54750000D01*
G37*
G36*
X173200000Y-55250000D02*
G01*
X173200000Y-54950000D01*
X173400000Y-54950000D01*
X173400000Y-55250000D01*
X173200000Y-55250000D01*
G37*
G36*
X174100000Y-54750000D02*
G01*
X174100000Y-54450000D01*
X174300000Y-54450000D01*
X174300000Y-54750000D01*
X174100000Y-54750000D01*
G37*
G36*
X174100000Y-54750000D02*
G01*
X174100000Y-54450000D01*
X174300000Y-54450000D01*
X174300000Y-54750000D01*
X174100000Y-54750000D01*
G37*
G36*
X174100000Y-55250000D02*
G01*
X174100000Y-54950000D01*
X174300000Y-54950000D01*
X174300000Y-55250000D01*
X174100000Y-55250000D01*
G37*
G36*
X173800000Y-54750000D02*
G01*
X173800000Y-54450000D01*
X174000000Y-54450000D01*
X174000000Y-54750000D01*
X173800000Y-54750000D01*
G37*
G36*
X173500000Y-55250000D02*
G01*
X173500000Y-54950000D01*
X173700000Y-54950000D01*
X173700000Y-55250000D01*
X173500000Y-55250000D01*
G37*
G36*
X173800000Y-54750000D02*
G01*
X173800000Y-54450000D01*
X174000000Y-54450000D01*
X174000000Y-54750000D01*
X173800000Y-54750000D01*
G37*
G36*
X173500000Y-54750000D02*
G01*
X173500000Y-54450000D01*
X173700000Y-54450000D01*
X173700000Y-54750000D01*
X173500000Y-54750000D01*
G37*
G36*
X173500000Y-54750000D02*
G01*
X173500000Y-54450000D01*
X173700000Y-54450000D01*
X173700000Y-54750000D01*
X173500000Y-54750000D01*
G37*
G36*
X173800000Y-55250000D02*
G01*
X173800000Y-54950000D01*
X174000000Y-54950000D01*
X174000000Y-55250000D01*
X173800000Y-55250000D01*
G37*
G36*
X173200000Y-54750000D02*
G01*
X173200000Y-54450000D01*
X173400000Y-54450000D01*
X173400000Y-54750000D01*
X173200000Y-54750000D01*
G37*
G36*
X172300000Y-54750000D02*
G01*
X172300000Y-54450000D01*
X172500000Y-54450000D01*
X172500000Y-54750000D01*
X172300000Y-54750000D01*
G37*
G36*
X172300000Y-55250000D02*
G01*
X172300000Y-54950000D01*
X172500000Y-54950000D01*
X172500000Y-55250000D01*
X172300000Y-55250000D01*
G37*
G36*
X172300000Y-54750000D02*
G01*
X172300000Y-54450000D01*
X172500000Y-54450000D01*
X172500000Y-54750000D01*
X172300000Y-54750000D01*
G37*
G36*
X151000000Y-65000000D02*
G01*
X148800000Y-65000000D01*
X148800000Y-64100000D01*
X151000000Y-64100000D01*
X151000000Y-65000000D01*
G37*
G36*
X151000000Y-62800000D02*
G01*
X148800000Y-62800000D01*
X148800000Y-61900000D01*
X151000000Y-61900000D01*
X151000000Y-62800000D01*
G37*
G36*
X141650000Y-26240000D02*
G01*
X139650000Y-26240000D01*
X139650000Y-26040000D01*
X141650000Y-26040000D01*
X141650000Y-26240000D01*
G37*
G36*
X141650000Y-25240000D02*
G01*
X140950000Y-25240000D01*
X140950000Y-24740000D01*
X141650000Y-24740000D01*
X141650000Y-25240000D01*
G37*
G36*
X140350000Y-25240000D02*
G01*
X139650000Y-25240000D01*
X139650000Y-24740000D01*
X140350000Y-24740000D01*
X140350000Y-25240000D01*
G37*
G36*
X137000000Y-62300000D02*
G01*
X134800000Y-62300000D01*
X134800000Y-61400000D01*
X137000000Y-61400000D01*
X137000000Y-62300000D01*
G37*
G36*
X137000000Y-64500000D02*
G01*
X134800000Y-64500000D01*
X134800000Y-63600000D01*
X137000000Y-63600000D01*
X137000000Y-64500000D01*
G37*
G36*
X151000000Y-53000000D02*
G01*
X148800000Y-53000000D01*
X148800000Y-52100000D01*
X151000000Y-52100000D01*
X151000000Y-53000000D01*
G37*
G36*
X151000000Y-50800000D02*
G01*
X148800000Y-50800000D01*
X148800000Y-49900000D01*
X151000000Y-49900000D01*
X151000000Y-50800000D01*
G37*
G36*
X151000000Y-39300000D02*
G01*
X148800000Y-39300000D01*
X148800000Y-38400000D01*
X151000000Y-38400000D01*
X151000000Y-39300000D01*
G37*
G36*
X151000000Y-41500000D02*
G01*
X148800000Y-41500000D01*
X148800000Y-40600000D01*
X151000000Y-40600000D01*
X151000000Y-41500000D01*
G37*
G36*
X167803731Y-26475954D02*
G01*
X167379467Y-26900218D01*
X166955203Y-26475954D01*
X167379467Y-26051690D01*
X167803731Y-26475954D01*
G37*
G36*
X168652259Y-25627426D02*
G01*
X168227995Y-26051690D01*
X167803731Y-25627426D01*
X168227995Y-25203162D01*
X168652259Y-25627426D01*
G37*
G36*
X169500787Y-26475954D02*
G01*
X169076523Y-26900218D01*
X168652259Y-26475954D01*
X169076523Y-26051690D01*
X169500787Y-26475954D01*
G37*
G36*
X168652259Y-27324482D02*
G01*
X168227995Y-27748746D01*
X167803731Y-27324482D01*
X168227995Y-26900218D01*
X168652259Y-27324482D01*
G37*
G36*
X137000000Y-41500000D02*
G01*
X134800000Y-41500000D01*
X134800000Y-40600000D01*
X137000000Y-40600000D01*
X137000000Y-41500000D01*
G37*
G36*
X137000000Y-39300000D02*
G01*
X134800000Y-39300000D01*
X134800000Y-38400000D01*
X137000000Y-38400000D01*
X137000000Y-39300000D01*
G37*
G36*
X137000000Y-50800000D02*
G01*
X134800000Y-50800000D01*
X134800000Y-49900000D01*
X137000000Y-49900000D01*
X137000000Y-50800000D01*
G37*
G36*
X137000000Y-53000000D02*
G01*
X134800000Y-53000000D01*
X134800000Y-52100000D01*
X137000000Y-52100000D01*
X137000000Y-53000000D01*
G37*
G36*
X146810000Y-26730000D02*
G01*
X148810000Y-26730000D01*
X148810000Y-26930000D01*
X146810000Y-26930000D01*
X146810000Y-26730000D01*
G37*
G36*
X146810000Y-27730000D02*
G01*
X147510000Y-27730000D01*
X147510000Y-28230000D01*
X146810000Y-28230000D01*
X146810000Y-27730000D01*
G37*
G36*
X148110000Y-27730000D02*
G01*
X148810000Y-27730000D01*
X148810000Y-28230000D01*
X148110000Y-28230000D01*
X148110000Y-27730000D01*
G37*
D12*
X174750000Y-52180000D03*
X174250000Y-52180000D03*
X173750000Y-52180000D03*
X173250000Y-52180000D03*
X172750000Y-52180000D03*
X172250000Y-52180000D03*
D13*
X171680000Y-52750000D03*
X171680000Y-53250000D03*
X171680000Y-53750000D03*
X171680000Y-54750000D03*
X171680000Y-55250000D03*
D12*
X172250000Y-55820000D03*
X172750000Y-55820000D03*
X173250000Y-55820000D03*
X173750000Y-55820000D03*
X174250000Y-55820000D03*
X174750000Y-55820000D03*
D13*
X175320000Y-55250000D03*
X175320000Y-54750000D03*
X175320000Y-54250000D03*
X175320000Y-53750000D03*
X175320000Y-53250000D03*
X175320000Y-52750000D03*
G36*
G01*
X177475000Y-53625000D02*
X176525000Y-53625000D01*
G75*
G02*
X176275000Y-53375000I0J250000D01*
G01*
X176275000Y-52700000D01*
G75*
G02*
X176525000Y-52450000I250000J0D01*
G01*
X177475000Y-52450000D01*
G75*
G02*
X177725000Y-52700000I0J-250000D01*
G01*
X177725000Y-53375000D01*
G75*
G02*
X177475000Y-53625000I-250000J0D01*
G01*
G37*
G36*
G01*
X177475000Y-51550000D02*
X176525000Y-51550000D01*
G75*
G02*
X176275000Y-51300000I0J250000D01*
G01*
X176275000Y-50625000D01*
G75*
G02*
X176525000Y-50375000I250000J0D01*
G01*
X177475000Y-50375000D01*
G75*
G02*
X177725000Y-50625000I0J-250000D01*
G01*
X177725000Y-51300000D01*
G75*
G02*
X177475000Y-51550000I-250000J0D01*
G01*
G37*
G36*
G01*
X175475000Y-51125000D02*
X174525000Y-51125000D01*
G75*
G02*
X174275000Y-50875000I0J250000D01*
G01*
X174275000Y-50200000D01*
G75*
G02*
X174525000Y-49950000I250000J0D01*
G01*
X175475000Y-49950000D01*
G75*
G02*
X175725000Y-50200000I0J-250000D01*
G01*
X175725000Y-50875000D01*
G75*
G02*
X175475000Y-51125000I-250000J0D01*
G01*
G37*
G36*
G01*
X175475000Y-49050000D02*
X174525000Y-49050000D01*
G75*
G02*
X174275000Y-48800000I0J250000D01*
G01*
X174275000Y-48125000D01*
G75*
G02*
X174525000Y-47875000I250000J0D01*
G01*
X175475000Y-47875000D01*
G75*
G02*
X175725000Y-48125000I0J-250000D01*
G01*
X175725000Y-48800000D01*
G75*
G02*
X175475000Y-49050000I-250000J0D01*
G01*
G37*
G36*
G01*
X177475000Y-55412500D02*
X177475000Y-55887500D01*
G75*
G02*
X177237500Y-56125000I-237500J0D01*
G01*
X176637500Y-56125000D01*
G75*
G02*
X176400000Y-55887500I0J237500D01*
G01*
X176400000Y-55412500D01*
G75*
G02*
X176637500Y-55175000I237500J0D01*
G01*
X177237500Y-55175000D01*
G75*
G02*
X177475000Y-55412500I0J-237500D01*
G01*
G37*
G36*
G01*
X179200000Y-55412500D02*
X179200000Y-55887500D01*
G75*
G02*
X178962500Y-56125000I-237500J0D01*
G01*
X178362500Y-56125000D01*
G75*
G02*
X178125000Y-55887500I0J237500D01*
G01*
X178125000Y-55412500D01*
G75*
G02*
X178362500Y-55175000I237500J0D01*
G01*
X178962500Y-55175000D01*
G75*
G02*
X179200000Y-55412500I0J-237500D01*
G01*
G37*
G36*
G01*
X169762500Y-52800000D02*
X170237500Y-52800000D01*
G75*
G02*
X170475000Y-53037500I0J-237500D01*
G01*
X170475000Y-53637500D01*
G75*
G02*
X170237500Y-53875000I-237500J0D01*
G01*
X169762500Y-53875000D01*
G75*
G02*
X169525000Y-53637500I0J237500D01*
G01*
X169525000Y-53037500D01*
G75*
G02*
X169762500Y-52800000I237500J0D01*
G01*
G37*
G36*
G01*
X169762500Y-54525000D02*
X170237500Y-54525000D01*
G75*
G02*
X170475000Y-54762500I0J-237500D01*
G01*
X170475000Y-55362500D01*
G75*
G02*
X170237500Y-55600000I-237500J0D01*
G01*
X169762500Y-55600000D01*
G75*
G02*
X169525000Y-55362500I0J237500D01*
G01*
X169525000Y-54762500D01*
G75*
G02*
X169762500Y-54525000I237500J0D01*
G01*
G37*
G36*
G01*
X170187500Y-52100000D02*
X169712500Y-52100000D01*
G75*
G02*
X169475000Y-51862500I0J237500D01*
G01*
X169475000Y-51362500D01*
G75*
G02*
X169712500Y-51125000I237500J0D01*
G01*
X170187500Y-51125000D01*
G75*
G02*
X170425000Y-51362500I0J-237500D01*
G01*
X170425000Y-51862500D01*
G75*
G02*
X170187500Y-52100000I-237500J0D01*
G01*
G37*
G36*
G01*
X170187500Y-50275000D02*
X169712500Y-50275000D01*
G75*
G02*
X169475000Y-50037500I0J237500D01*
G01*
X169475000Y-49537500D01*
G75*
G02*
X169712500Y-49300000I237500J0D01*
G01*
X170187500Y-49300000D01*
G75*
G02*
X170425000Y-49537500I0J-237500D01*
G01*
X170425000Y-50037500D01*
G75*
G02*
X170187500Y-50275000I-237500J0D01*
G01*
G37*
G36*
G01*
X173387500Y-49275000D02*
X172912500Y-49275000D01*
G75*
G02*
X172675000Y-49037500I0J237500D01*
G01*
X172675000Y-48537500D01*
G75*
G02*
X172912500Y-48300000I237500J0D01*
G01*
X173387500Y-48300000D01*
G75*
G02*
X173625000Y-48537500I0J-237500D01*
G01*
X173625000Y-49037500D01*
G75*
G02*
X173387500Y-49275000I-237500J0D01*
G01*
G37*
G36*
G01*
X173387500Y-51100000D02*
X172912500Y-51100000D01*
G75*
G02*
X172675000Y-50862500I0J237500D01*
G01*
X172675000Y-50362500D01*
G75*
G02*
X172912500Y-50125000I237500J0D01*
G01*
X173387500Y-50125000D01*
G75*
G02*
X173625000Y-50362500I0J-237500D01*
G01*
X173625000Y-50862500D01*
G75*
G02*
X173387500Y-51100000I-237500J0D01*
G01*
G37*
D14*
X175000000Y-45500000D03*
D15*
X174325000Y-45500000D03*
X173675000Y-45500000D03*
D14*
X173000000Y-45500000D03*
X173000000Y-41100000D03*
D15*
X173675000Y-41100000D03*
X174325000Y-41100000D03*
D14*
X175000000Y-41100000D03*
G36*
G01*
X166049999Y-51225000D02*
X168250001Y-51225000D01*
G75*
G02*
X168500000Y-51474999I0J-249999D01*
G01*
X168500000Y-52300001D01*
G75*
G02*
X168250001Y-52550000I-249999J0D01*
G01*
X166049999Y-52550000D01*
G75*
G02*
X165800000Y-52300001I0J249999D01*
G01*
X165800000Y-51474999D01*
G75*
G02*
X166049999Y-51225000I249999J0D01*
G01*
G37*
G36*
G01*
X166049999Y-54350000D02*
X168250001Y-54350000D01*
G75*
G02*
X168500000Y-54599999I0J-249999D01*
G01*
X168500000Y-55425001D01*
G75*
G02*
X168250001Y-55675000I-249999J0D01*
G01*
X166049999Y-55675000D01*
G75*
G02*
X165800000Y-55425001I0J249999D01*
G01*
X165800000Y-54599999D01*
G75*
G02*
X166049999Y-54350000I249999J0D01*
G01*
G37*
G36*
G01*
X183225000Y-52149999D02*
X183225000Y-54350001D01*
G75*
G02*
X182975001Y-54600000I-249999J0D01*
G01*
X182149999Y-54600000D01*
G75*
G02*
X181900000Y-54350001I0J249999D01*
G01*
X181900000Y-52149999D01*
G75*
G02*
X182149999Y-51900000I249999J0D01*
G01*
X182975001Y-51900000D01*
G75*
G02*
X183225000Y-52149999I0J-249999D01*
G01*
G37*
G36*
G01*
X180100000Y-52149999D02*
X180100000Y-54350001D01*
G75*
G02*
X179850001Y-54600000I-249999J0D01*
G01*
X179024999Y-54600000D01*
G75*
G02*
X178775000Y-54350001I0J249999D01*
G01*
X178775000Y-52149999D01*
G75*
G02*
X179024999Y-51900000I249999J0D01*
G01*
X179850001Y-51900000D01*
G75*
G02*
X180100000Y-52149999I0J-249999D01*
G01*
G37*
G36*
G01*
X180084999Y-48774998D02*
X180084999Y-50975000D01*
G75*
G02*
X179835000Y-51224999I-249999J0D01*
G01*
X179009998Y-51224999D01*
G75*
G02*
X178759999Y-50975000I0J249999D01*
G01*
X178759999Y-48774998D01*
G75*
G02*
X179009998Y-48524999I249999J0D01*
G01*
X179835000Y-48524999D01*
G75*
G02*
X180084999Y-48774998I0J-249999D01*
G01*
G37*
G36*
G01*
X183209999Y-48774998D02*
X183209999Y-50975000D01*
G75*
G02*
X182960000Y-51224999I-249999J0D01*
G01*
X182134998Y-51224999D01*
G75*
G02*
X181884999Y-50975000I0J249999D01*
G01*
X181884999Y-48774998D01*
G75*
G02*
X182134998Y-48524999I249999J0D01*
G01*
X182960000Y-48524999D01*
G75*
G02*
X183209999Y-48774998I0J-249999D01*
G01*
G37*
D16*
X171710000Y-62370000D03*
X181210000Y-62370000D03*
D17*
X152167000Y-61595000D03*
X152167000Y-62865000D03*
X152167000Y-64135000D03*
X152167000Y-65405000D03*
X146833000Y-65405000D03*
X146833000Y-64135000D03*
X146833000Y-62865000D03*
X146833000Y-61595000D03*
D18*
X139675000Y-26826000D03*
X140325000Y-26826000D03*
X140975000Y-26826000D03*
X141625000Y-26826000D03*
X141625000Y-24054000D03*
X140975000Y-24054000D03*
X140325000Y-24054000D03*
X139675000Y-24054000D03*
D17*
X132833000Y-61095000D03*
X132833000Y-62365000D03*
X132833000Y-63635000D03*
X132833000Y-64905000D03*
X138167000Y-64905000D03*
X138167000Y-63635000D03*
X138167000Y-62365000D03*
X138167000Y-61095000D03*
X152167000Y-49595000D03*
X152167000Y-50865000D03*
X152167000Y-52135000D03*
X152167000Y-53405000D03*
X146833000Y-53405000D03*
X146833000Y-52135000D03*
X146833000Y-50865000D03*
X146833000Y-49595000D03*
X146833000Y-38095000D03*
X146833000Y-39365000D03*
X146833000Y-40635000D03*
X146833000Y-41905000D03*
X152167000Y-41905000D03*
X152167000Y-40635000D03*
X152167000Y-39365000D03*
X152167000Y-38095000D03*
D11*
G36*
X166135595Y-26323289D02*
G01*
X165632701Y-25820395D01*
X165776385Y-25676711D01*
X166279279Y-26179605D01*
X166135595Y-26323289D01*
G37*
G36*
X166494805Y-25964079D02*
G01*
X165991911Y-25461185D01*
X166135595Y-25317501D01*
X166638489Y-25820395D01*
X166494805Y-25964079D01*
G37*
G36*
X166854016Y-25604869D02*
G01*
X166351122Y-25101975D01*
X166494806Y-24958291D01*
X166997700Y-25461185D01*
X166854016Y-25604869D01*
G37*
G36*
X167213226Y-25245659D02*
G01*
X166710332Y-24742765D01*
X166854016Y-24599081D01*
X167356910Y-25101975D01*
X167213226Y-25245659D01*
G37*
G36*
X167572436Y-24886448D02*
G01*
X167069542Y-24383554D01*
X167213226Y-24239870D01*
X167716120Y-24742764D01*
X167572436Y-24886448D01*
G37*
G36*
X167931646Y-24527238D02*
G01*
X167428752Y-24024344D01*
X167572436Y-23880660D01*
X168075330Y-24383554D01*
X167931646Y-24527238D01*
G37*
G36*
X169027238Y-24024344D02*
G01*
X168524344Y-24527238D01*
X168380660Y-24383554D01*
X168883554Y-23880660D01*
X169027238Y-24024344D01*
G37*
G36*
X169386448Y-24383554D02*
G01*
X168883554Y-24886448D01*
X168739870Y-24742764D01*
X169242764Y-24239870D01*
X169386448Y-24383554D01*
G37*
G36*
X169745658Y-24742765D02*
G01*
X169242764Y-25245659D01*
X169099080Y-25101975D01*
X169601974Y-24599081D01*
X169745658Y-24742765D01*
G37*
G36*
X170104868Y-25101975D02*
G01*
X169601974Y-25604869D01*
X169458290Y-25461185D01*
X169961184Y-24958291D01*
X170104868Y-25101975D01*
G37*
G36*
X170464079Y-25461185D02*
G01*
X169961185Y-25964079D01*
X169817501Y-25820395D01*
X170320395Y-25317501D01*
X170464079Y-25461185D01*
G37*
G36*
X170823289Y-25820395D02*
G01*
X170320395Y-26323289D01*
X170176711Y-26179605D01*
X170679605Y-25676711D01*
X170823289Y-25820395D01*
G37*
G36*
X170679605Y-27275197D02*
G01*
X170176711Y-26772303D01*
X170320395Y-26628619D01*
X170823289Y-27131513D01*
X170679605Y-27275197D01*
G37*
G36*
X170320395Y-27634407D02*
G01*
X169817501Y-27131513D01*
X169961185Y-26987829D01*
X170464079Y-27490723D01*
X170320395Y-27634407D01*
G37*
G36*
X169961184Y-27993617D02*
G01*
X169458290Y-27490723D01*
X169601974Y-27347039D01*
X170104868Y-27849933D01*
X169961184Y-27993617D01*
G37*
G36*
X169601974Y-28352827D02*
G01*
X169099080Y-27849933D01*
X169242764Y-27706249D01*
X169745658Y-28209143D01*
X169601974Y-28352827D01*
G37*
G36*
X169242764Y-28712038D02*
G01*
X168739870Y-28209144D01*
X168883554Y-28065460D01*
X169386448Y-28568354D01*
X169242764Y-28712038D01*
G37*
G36*
X168883554Y-29071248D02*
G01*
X168380660Y-28568354D01*
X168524344Y-28424670D01*
X169027238Y-28927564D01*
X168883554Y-29071248D01*
G37*
G36*
X168075330Y-28568354D02*
G01*
X167572436Y-29071248D01*
X167428752Y-28927564D01*
X167931646Y-28424670D01*
X168075330Y-28568354D01*
G37*
G36*
X167716120Y-28209144D02*
G01*
X167213226Y-28712038D01*
X167069542Y-28568354D01*
X167572436Y-28065460D01*
X167716120Y-28209144D01*
G37*
G36*
X167356910Y-27849933D02*
G01*
X166854016Y-28352827D01*
X166710332Y-28209143D01*
X167213226Y-27706249D01*
X167356910Y-27849933D01*
G37*
G36*
X166997700Y-27490723D02*
G01*
X166494806Y-27993617D01*
X166351122Y-27849933D01*
X166854016Y-27347039D01*
X166997700Y-27490723D01*
G37*
G36*
X166638489Y-27131513D02*
G01*
X166135595Y-27634407D01*
X165991911Y-27490723D01*
X166494805Y-26987829D01*
X166638489Y-27131513D01*
G37*
G36*
X166279279Y-26772303D02*
G01*
X165776385Y-27275197D01*
X165632701Y-27131513D01*
X166135595Y-26628619D01*
X166279279Y-26772303D01*
G37*
G36*
X168227995Y-26829507D02*
G01*
X167874442Y-26475954D01*
X168227995Y-26122401D01*
X168581548Y-26475954D01*
X168227995Y-26829507D01*
G37*
D17*
X138167000Y-38095000D03*
X138167000Y-39365000D03*
X138167000Y-40635000D03*
X138167000Y-41905000D03*
X132833000Y-41905000D03*
X132833000Y-40635000D03*
X132833000Y-39365000D03*
X132833000Y-38095000D03*
X132833000Y-49595000D03*
X132833000Y-50865000D03*
X132833000Y-52135000D03*
X132833000Y-53405000D03*
X138167000Y-53405000D03*
X138167000Y-52135000D03*
X138167000Y-50865000D03*
X138167000Y-49595000D03*
D18*
X148785000Y-26144000D03*
X148135000Y-26144000D03*
X147485000Y-26144000D03*
X146835000Y-26144000D03*
X146835000Y-28916000D03*
X147485000Y-28916000D03*
X148135000Y-28916000D03*
X148785000Y-28916000D03*
M02*
