G04 #@! TF.GenerationSoftware,KiCad,Pcbnew,(5.1.6-0-10_14)*
G04 #@! TF.CreationDate,2021-10-07T11:44:50+09:00*
G04 #@! TF.ProjectId,peltier,70656c74-6965-4722-9e6b-696361645f70,rev?*
G04 #@! TF.SameCoordinates,Original*
G04 #@! TF.FileFunction,Profile,NP*
%FSLAX46Y46*%
G04 Gerber Fmt 4.6, Leading zero omitted, Abs format (unit mm)*
G04 Created by KiCad (PCBNEW (5.1.6-0-10_14)) date 2021-10-07 11:44:50*
%MOMM*%
%LPD*%
G01*
G04 APERTURE LIST*
G04 #@! TA.AperFunction,Profile*
%ADD10C,0.100000*%
G04 #@! TD*
G04 #@! TA.AperFunction,Profile*
%ADD11C,0.200000*%
G04 #@! TD*
G04 APERTURE END LIST*
D10*
X184000000Y-69000000D02*
X184000000Y-64000000D01*
X129000000Y-69000000D02*
X129000000Y-64000000D01*
X129000000Y-19000000D02*
X129000000Y-24000000D01*
X184000000Y-19000000D02*
X184000000Y-24000000D01*
X188975000Y-66500000D02*
G75*
G03*
X188975000Y-66500000I-475000J0D01*
G01*
X191000000Y-19000000D02*
X186000000Y-19000000D01*
D11*
X184275000Y-25700000D02*
G75*
G03*
X184275000Y-25700000I-275000J0D01*
G01*
X183725000Y-25425000D02*
X184275000Y-25975000D01*
X183725000Y-25975000D02*
X184275000Y-25425000D01*
D10*
X184000000Y-64000000D02*
G75*
G02*
X186000000Y-64000000I1000000J0D01*
G01*
X186000000Y-60400000D02*
G75*
G02*
X184000000Y-60400000I-1000000J0D01*
G01*
X186000000Y-69000000D02*
X191000000Y-69000000D01*
D11*
X184275000Y-24800000D02*
G75*
G03*
X184275000Y-24800000I-275000J0D01*
G01*
X183725000Y-24525000D02*
X184275000Y-25075000D01*
X183725000Y-25075000D02*
X184275000Y-24525000D01*
X184275000Y-27500000D02*
G75*
G03*
X184275000Y-27500000I-275000J0D01*
G01*
X183725000Y-27225000D02*
X184275000Y-27775000D01*
X183725000Y-27775000D02*
X184275000Y-27225000D01*
X184275000Y-23900000D02*
G75*
G03*
X184275000Y-23900000I-275000J0D01*
G01*
X183725000Y-23625000D02*
X184275000Y-24175000D01*
X183725000Y-24175000D02*
X184275000Y-23625000D01*
X184275000Y-61200000D02*
G75*
G03*
X184275000Y-61200000I-275000J0D01*
G01*
X183725000Y-60925000D02*
X184275000Y-61475000D01*
X183725000Y-61475000D02*
X184275000Y-60925000D01*
X184275000Y-26600000D02*
G75*
G03*
X184275000Y-26600000I-275000J0D01*
G01*
X183725000Y-26325000D02*
X184275000Y-26875000D01*
X183725000Y-26875000D02*
X184275000Y-26325000D01*
D10*
X186000000Y-19000000D02*
X186000000Y-24000000D01*
X186000000Y-69000000D02*
X186000000Y-64000000D01*
X186000000Y-24000000D02*
G75*
G02*
X184000000Y-24000000I-1000000J0D01*
G01*
X191000000Y-19000000D02*
X191000000Y-69000000D01*
X186000000Y-27600000D02*
X186000000Y-60400000D01*
D11*
X184275000Y-60300000D02*
G75*
G03*
X184275000Y-60300000I-275000J0D01*
G01*
X183725000Y-60025000D02*
X184275000Y-60575000D01*
X183725000Y-60575000D02*
X184275000Y-60025000D01*
X184275000Y-62100000D02*
G75*
G03*
X184275000Y-62100000I-275000J0D01*
G01*
X183725000Y-61825000D02*
X184275000Y-62375000D01*
X183725000Y-62375000D02*
X184275000Y-61825000D01*
D10*
X188975000Y-21500000D02*
G75*
G03*
X188975000Y-21500000I-475000J0D01*
G01*
D11*
X184275000Y-63000000D02*
G75*
G03*
X184275000Y-63000000I-275000J0D01*
G01*
X183725000Y-62725000D02*
X184275000Y-63275000D01*
X183725000Y-63275000D02*
X184275000Y-62725000D01*
X184275000Y-63900000D02*
G75*
G03*
X184275000Y-63900000I-275000J0D01*
G01*
X183725000Y-63625000D02*
X184275000Y-64175000D01*
X183725000Y-64175000D02*
X184275000Y-63625000D01*
D10*
X184000000Y-27600000D02*
G75*
G02*
X186000000Y-27600000I1000000J0D01*
G01*
X124975000Y-66500000D02*
G75*
G03*
X124975000Y-66500000I-475000J0D01*
G01*
D11*
X129275000Y-25900000D02*
G75*
G03*
X129275000Y-25900000I-275000J0D01*
G01*
X128725000Y-25625000D02*
X129275000Y-26175000D01*
X128725000Y-26175000D02*
X129275000Y-25625000D01*
X129275000Y-26800000D02*
G75*
G03*
X129275000Y-26800000I-275000J0D01*
G01*
X128725000Y-26525000D02*
X129275000Y-27075000D01*
X128725000Y-27075000D02*
X129275000Y-26525000D01*
D10*
X127000000Y-27600000D02*
G75*
G02*
X129000000Y-27600000I1000000J0D01*
G01*
D11*
X129275000Y-27700000D02*
G75*
G03*
X129275000Y-27700000I-275000J0D01*
G01*
X128725000Y-27425000D02*
X129275000Y-27975000D01*
X128725000Y-27975000D02*
X129275000Y-27425000D01*
X129275000Y-25000000D02*
G75*
G03*
X129275000Y-25000000I-275000J0D01*
G01*
X128725000Y-24725000D02*
X129275000Y-25275000D01*
X128725000Y-25275000D02*
X129275000Y-24725000D01*
X129275000Y-24100000D02*
G75*
G03*
X129275000Y-24100000I-275000J0D01*
G01*
X128725000Y-23825000D02*
X129275000Y-24375000D01*
X128725000Y-24375000D02*
X129275000Y-23825000D01*
X129275000Y-63200000D02*
G75*
G03*
X129275000Y-63200000I-275000J0D01*
G01*
X128725000Y-62925000D02*
X129275000Y-63475000D01*
X128725000Y-63475000D02*
X129275000Y-62925000D01*
X129275000Y-64100000D02*
G75*
G03*
X129275000Y-64100000I-275000J0D01*
G01*
X128725000Y-63825000D02*
X129275000Y-64375000D01*
X128725000Y-64375000D02*
X129275000Y-63825000D01*
D10*
X127000000Y-69000000D02*
X127000000Y-64000000D01*
X122000000Y-69000000D02*
X127000000Y-69000000D01*
X129000000Y-24000000D02*
G75*
G02*
X127000000Y-24000000I-1000000J0D01*
G01*
X127000000Y-19000000D02*
X127000000Y-24000000D01*
X127000000Y-19000000D02*
X122000000Y-19000000D01*
D11*
X129275000Y-61400000D02*
G75*
G03*
X129275000Y-61400000I-275000J0D01*
G01*
X128725000Y-61125000D02*
X129275000Y-61675000D01*
X128725000Y-61675000D02*
X129275000Y-61125000D01*
D10*
X127000000Y-27600000D02*
X127000000Y-60400000D01*
X124975000Y-21500000D02*
G75*
G03*
X124975000Y-21500000I-475000J0D01*
G01*
X122000000Y-19000000D02*
X122000000Y-69000000D01*
D11*
X129275000Y-62300000D02*
G75*
G03*
X129275000Y-62300000I-275000J0D01*
G01*
X128725000Y-62025000D02*
X129275000Y-62575000D01*
X128725000Y-62575000D02*
X129275000Y-62025000D01*
D10*
X127000000Y-64000000D02*
G75*
G02*
X129000000Y-64000000I1000000J0D01*
G01*
X129000000Y-60400000D02*
G75*
G02*
X127000000Y-60400000I-1000000J0D01*
G01*
D11*
X129275000Y-60500000D02*
G75*
G03*
X129275000Y-60500000I-275000J0D01*
G01*
X128725000Y-60225000D02*
X129275000Y-60775000D01*
X128725000Y-60775000D02*
X129275000Y-60225000D01*
D10*
X129000000Y-60400000D02*
X129000000Y-27600000D01*
X184000000Y-69000000D02*
X129000000Y-69000000D01*
X184000000Y-27600000D02*
X184000000Y-60400000D01*
X129000000Y-19000000D02*
X184000000Y-19000000D01*
M02*
