G04 #@! TF.GenerationSoftware,KiCad,Pcbnew,(5.1.6-0-10_14)*
G04 #@! TF.CreationDate,2021-06-29T12:22:49+09:00*
G04 #@! TF.ProjectId,qPCR-root,71504352-2d72-46f6-9f74-2e6b69636164,rev?*
G04 #@! TF.SameCoordinates,Original*
G04 #@! TF.FileFunction,Profile,NP*
%FSLAX46Y46*%
G04 Gerber Fmt 4.6, Leading zero omitted, Abs format (unit mm)*
G04 Created by KiCad (PCBNEW (5.1.6-0-10_14)) date 2021-06-29 12:22:49*
%MOMM*%
%LPD*%
G01*
G04 APERTURE LIST*
G04 #@! TA.AperFunction,Profile*
%ADD10C,0.100000*%
G04 #@! TD*
G04 #@! TA.AperFunction,Profile*
%ADD11C,0.200000*%
G04 #@! TD*
G04 APERTURE END LIST*
D10*
X170500000Y-43000000D02*
X165300000Y-43000000D01*
X67300000Y-43000000D02*
X161700000Y-43000000D01*
X67300000Y-75000000D02*
X112700000Y-75000000D01*
X123500000Y-75000000D02*
X116300000Y-75000000D01*
X195000000Y-95000000D02*
X189800000Y-95000000D01*
X134300000Y-96600000D02*
X186200000Y-96600000D01*
X134300000Y-95000000D02*
X186200000Y-95000000D01*
X125500000Y-95000000D02*
X130700000Y-95000000D01*
D11*
X133775000Y-95000000D02*
G75*
G03*
X133775000Y-95000000I-275000J0D01*
G01*
X133225000Y-94725000D02*
X133775000Y-95275000D01*
X133225000Y-95275000D02*
X133775000Y-94725000D01*
X131975000Y-95000000D02*
G75*
G03*
X131975000Y-95000000I-275000J0D01*
G01*
X131425000Y-94725000D02*
X131975000Y-95275000D01*
X131425000Y-95275000D02*
X131975000Y-94725000D01*
X127475000Y-99100000D02*
G75*
G03*
X127475000Y-99100000I-475000J0D01*
G01*
X126525000Y-98625000D02*
X127475000Y-99575000D01*
X126525000Y-99575000D02*
X127475000Y-98625000D01*
X131075000Y-95000000D02*
G75*
G03*
X131075000Y-95000000I-275000J0D01*
G01*
X130525000Y-94725000D02*
X131075000Y-95275000D01*
X130525000Y-95275000D02*
X131075000Y-94725000D01*
X132875000Y-95000000D02*
G75*
G03*
X132875000Y-95000000I-275000J0D01*
G01*
X132325000Y-94725000D02*
X132875000Y-95275000D01*
X132325000Y-95275000D02*
X132875000Y-94725000D01*
D10*
X134300000Y-96600000D02*
G75*
G02*
X134300000Y-95000000I0J800000D01*
G01*
X124500000Y-96600000D02*
X130700000Y-96600000D01*
X130700000Y-95000000D02*
G75*
G02*
X130700000Y-96600000I0J-800000D01*
G01*
X124500000Y-101600000D02*
X196000000Y-101600000D01*
X124500000Y-96600000D02*
X124500000Y-101600000D01*
D11*
X134675000Y-95000000D02*
G75*
G03*
X134675000Y-95000000I-275000J0D01*
G01*
X134125000Y-94725000D02*
X134675000Y-95275000D01*
X134125000Y-95275000D02*
X134675000Y-94725000D01*
D10*
X189800000Y-95000000D02*
G75*
G03*
X189800000Y-96600000I0J-800000D01*
G01*
X196000000Y-96600000D02*
X196000000Y-101600000D01*
D11*
X187275000Y-95000000D02*
G75*
G03*
X187275000Y-95000000I-275000J0D01*
G01*
X186725000Y-94725000D02*
X187275000Y-95275000D01*
X186725000Y-95275000D02*
X187275000Y-94725000D01*
D10*
X186200000Y-96600000D02*
G75*
G03*
X186200000Y-95000000I0J800000D01*
G01*
X196000000Y-96600000D02*
X189800000Y-96600000D01*
D11*
X186375000Y-95000000D02*
G75*
G03*
X186375000Y-95000000I-275000J0D01*
G01*
X185825000Y-94725000D02*
X186375000Y-95275000D01*
X185825000Y-95275000D02*
X186375000Y-94725000D01*
X189975000Y-95000000D02*
G75*
G03*
X189975000Y-95000000I-275000J0D01*
G01*
X189425000Y-94725000D02*
X189975000Y-95275000D01*
X189425000Y-95275000D02*
X189975000Y-94725000D01*
X188175000Y-95000000D02*
G75*
G03*
X188175000Y-95000000I-275000J0D01*
G01*
X187625000Y-94725000D02*
X188175000Y-95275000D01*
X187625000Y-95275000D02*
X188175000Y-94725000D01*
X193975000Y-99100000D02*
G75*
G03*
X193975000Y-99100000I-475000J0D01*
G01*
X193025000Y-98625000D02*
X193975000Y-99575000D01*
X193025000Y-99575000D02*
X193975000Y-98625000D01*
X189075000Y-95000000D02*
G75*
G03*
X189075000Y-95000000I-275000J0D01*
G01*
X188525000Y-94725000D02*
X189075000Y-95275000D01*
X188525000Y-95275000D02*
X189075000Y-94725000D01*
X112875000Y-75000000D02*
G75*
G03*
X112875000Y-75000000I-275000J0D01*
G01*
X112325000Y-74725000D02*
X112875000Y-75275000D01*
X112325000Y-75275000D02*
X112875000Y-74725000D01*
X113775000Y-75000000D02*
G75*
G03*
X113775000Y-75000000I-275000J0D01*
G01*
X113225000Y-74725000D02*
X113775000Y-75275000D01*
X113225000Y-75275000D02*
X113775000Y-74725000D01*
D10*
X112700000Y-76600000D02*
G75*
G03*
X112700000Y-75000000I0J800000D01*
G01*
X122500000Y-76600000D02*
X116300000Y-76600000D01*
D11*
X116475000Y-75000000D02*
G75*
G03*
X116475000Y-75000000I-275000J0D01*
G01*
X115925000Y-74725000D02*
X116475000Y-75275000D01*
X115925000Y-75275000D02*
X116475000Y-74725000D01*
X120475000Y-79100000D02*
G75*
G03*
X120475000Y-79100000I-475000J0D01*
G01*
X119525000Y-78625000D02*
X120475000Y-79575000D01*
X119525000Y-79575000D02*
X120475000Y-78625000D01*
D10*
X122500000Y-76600000D02*
X122500000Y-81600000D01*
X116300000Y-75000000D02*
G75*
G03*
X116300000Y-76600000I0J-800000D01*
G01*
D11*
X115575000Y-75000000D02*
G75*
G03*
X115575000Y-75000000I-275000J0D01*
G01*
X115025000Y-74725000D02*
X115575000Y-75275000D01*
X115025000Y-75275000D02*
X115575000Y-74725000D01*
X114675000Y-75000000D02*
G75*
G03*
X114675000Y-75000000I-275000J0D01*
G01*
X114125000Y-74725000D02*
X114675000Y-75275000D01*
X114125000Y-75275000D02*
X114675000Y-74725000D01*
D10*
X57500000Y-76600000D02*
X57500000Y-81600000D01*
X63700000Y-75000000D02*
G75*
G02*
X63700000Y-76600000I0J-800000D01*
G01*
X67300000Y-76600000D02*
G75*
G02*
X67300000Y-75000000I0J800000D01*
G01*
D11*
X66775000Y-75000000D02*
G75*
G03*
X66775000Y-75000000I-275000J0D01*
G01*
X66225000Y-74725000D02*
X66775000Y-75275000D01*
X66225000Y-75275000D02*
X66775000Y-74725000D01*
X60475000Y-79100000D02*
G75*
G03*
X60475000Y-79100000I-475000J0D01*
G01*
X59525000Y-78625000D02*
X60475000Y-79575000D01*
X59525000Y-79575000D02*
X60475000Y-78625000D01*
X67675000Y-75000000D02*
G75*
G03*
X67675000Y-75000000I-275000J0D01*
G01*
X67125000Y-74725000D02*
X67675000Y-75275000D01*
X67125000Y-75275000D02*
X67675000Y-74725000D01*
D10*
X67300000Y-76600000D02*
X112700000Y-76600000D01*
X57500000Y-76600000D02*
X63700000Y-76600000D01*
D11*
X64075000Y-75000000D02*
G75*
G03*
X64075000Y-75000000I-275000J0D01*
G01*
X63525000Y-74725000D02*
X64075000Y-75275000D01*
X63525000Y-75275000D02*
X64075000Y-74725000D01*
D10*
X57500000Y-81600000D02*
X122500000Y-81600000D01*
D11*
X65875000Y-75000000D02*
G75*
G03*
X65875000Y-75000000I-275000J0D01*
G01*
X65325000Y-74725000D02*
X65875000Y-75275000D01*
X65325000Y-75275000D02*
X65875000Y-74725000D01*
X64975000Y-75000000D02*
G75*
G03*
X64975000Y-75000000I-275000J0D01*
G01*
X64425000Y-74725000D02*
X64975000Y-75275000D01*
X64425000Y-75275000D02*
X64975000Y-74725000D01*
D10*
X57500000Y-41400000D02*
X63700000Y-41400000D01*
X67300000Y-41400000D02*
X161700000Y-41400000D01*
X67300000Y-41400000D02*
G75*
G03*
X67300000Y-43000000I0J-800000D01*
G01*
X57500000Y-36400000D02*
X171500000Y-36400000D01*
X63700000Y-43000000D02*
G75*
G03*
X63700000Y-41400000I0J800000D01*
G01*
X57500000Y-41400000D02*
X57500000Y-36400000D01*
D11*
X66775000Y-43000000D02*
G75*
G03*
X66775000Y-43000000I-275000J0D01*
G01*
X66225000Y-42725000D02*
X66775000Y-43275000D01*
X66225000Y-43275000D02*
X66775000Y-42725000D01*
X67675000Y-43000000D02*
G75*
G03*
X67675000Y-43000000I-275000J0D01*
G01*
X67125000Y-42725000D02*
X67675000Y-43275000D01*
X67125000Y-43275000D02*
X67675000Y-42725000D01*
X60475000Y-38900000D02*
G75*
G03*
X60475000Y-38900000I-475000J0D01*
G01*
X59525000Y-38425000D02*
X60475000Y-39375000D01*
X59525000Y-39375000D02*
X60475000Y-38425000D01*
X65875000Y-43000000D02*
G75*
G03*
X65875000Y-43000000I-275000J0D01*
G01*
X65325000Y-42725000D02*
X65875000Y-43275000D01*
X65325000Y-43275000D02*
X65875000Y-42725000D01*
X64075000Y-43000000D02*
G75*
G03*
X64075000Y-43000000I-275000J0D01*
G01*
X63525000Y-42725000D02*
X64075000Y-43275000D01*
X63525000Y-43275000D02*
X64075000Y-42725000D01*
X64975000Y-43000000D02*
G75*
G03*
X64975000Y-43000000I-275000J0D01*
G01*
X64425000Y-42725000D02*
X64975000Y-43275000D01*
X64425000Y-43275000D02*
X64975000Y-42725000D01*
D10*
X171500000Y-41400000D02*
X165300000Y-41400000D01*
X161700000Y-41400000D02*
G75*
G02*
X161700000Y-43000000I0J-800000D01*
G01*
D11*
X169475000Y-38900000D02*
G75*
G03*
X169475000Y-38900000I-475000J0D01*
G01*
X168525000Y-38425000D02*
X169475000Y-39375000D01*
X168525000Y-39375000D02*
X169475000Y-38425000D01*
D10*
X165300000Y-43000000D02*
G75*
G02*
X165300000Y-41400000I0J800000D01*
G01*
D11*
X165475000Y-43000000D02*
G75*
G03*
X165475000Y-43000000I-275000J0D01*
G01*
X164925000Y-42725000D02*
X165475000Y-43275000D01*
X164925000Y-43275000D02*
X165475000Y-42725000D01*
X161875000Y-43000000D02*
G75*
G03*
X161875000Y-43000000I-275000J0D01*
G01*
X161325000Y-42725000D02*
X161875000Y-43275000D01*
X161325000Y-43275000D02*
X161875000Y-42725000D01*
D10*
X171500000Y-41400000D02*
X171500000Y-36400000D01*
D11*
X164575000Y-43000000D02*
G75*
G03*
X164575000Y-43000000I-275000J0D01*
G01*
X164025000Y-42725000D02*
X164575000Y-43275000D01*
X164025000Y-43275000D02*
X164575000Y-42725000D01*
X163675000Y-43000000D02*
G75*
G03*
X163675000Y-43000000I-275000J0D01*
G01*
X163125000Y-42725000D02*
X163675000Y-43275000D01*
X163125000Y-43275000D02*
X163675000Y-42725000D01*
X162775000Y-43000000D02*
G75*
G03*
X162775000Y-43000000I-275000J0D01*
G01*
X162225000Y-42725000D02*
X162775000Y-43275000D01*
X162225000Y-43275000D02*
X162775000Y-42725000D01*
D10*
X130380000Y-49230000D02*
G75*
G03*
X130380000Y-49230000I-500000J0D01*
G01*
X195000000Y-66000000D02*
G75*
G02*
X196000000Y-67000000I0J-1000000D01*
G01*
X172500000Y-66000000D02*
X195000000Y-66000000D01*
X172500000Y-66000000D02*
G75*
G02*
X171500000Y-65000000I0J1000000D01*
G01*
X171500000Y-44000000D02*
X171500000Y-65000000D01*
X141600000Y-60000000D02*
G75*
G03*
X141600000Y-60000000I-1600000J0D01*
G01*
X123500000Y-75000000D02*
G75*
G02*
X124500000Y-76000000I0J-1000000D01*
G01*
X125500000Y-95000000D02*
G75*
G02*
X124500000Y-94000000I0J1000000D01*
G01*
X196000000Y-94000000D02*
G75*
G02*
X195000000Y-95000000I-1000000J0D01*
G01*
X170500000Y-43000000D02*
G75*
G02*
X171500000Y-44000000I0J-1000000D01*
G01*
X57500000Y-44000000D02*
G75*
G02*
X58500000Y-43000000I1000000J0D01*
G01*
X58500000Y-75000000D02*
G75*
G02*
X57500000Y-74000000I0J1000000D01*
G01*
X196000000Y-67000000D02*
X196000000Y-94000000D01*
X129100000Y-92000000D02*
G75*
G03*
X129100000Y-92000000I-1600000J0D01*
G01*
X165600000Y-65500000D02*
G75*
G03*
X165600000Y-65500000I-1600000J0D01*
G01*
X193600000Y-92000000D02*
G75*
G03*
X193600000Y-92000000I-1600000J0D01*
G01*
X124500000Y-76000000D02*
X124500000Y-94000000D01*
X57500000Y-44000000D02*
X57500000Y-74000000D01*
X58500000Y-43000000D02*
X63700000Y-43000000D01*
X63700000Y-75000000D02*
X58500000Y-75000000D01*
M02*
