%TF.GenerationSoftware,KiCad,Pcbnew,(5.1.6-0-10_14)*%
%TF.CreationDate,2020-09-09T09:44:54+09:00*%
%TF.ProjectId,qPCR-spi_switcher,71504352-2d73-4706-995f-737769746368,rev?*%
%TF.SameCoordinates,Original*%
%TF.FileFunction,Legend,Top*%
%TF.FilePolarity,Positive*%
%FSLAX46Y46*%
G04 Gerber Fmt 4.6, Leading zero omitted, Abs format (unit mm)*
G04 Created by KiCad (PCBNEW (5.1.6-0-10_14)) date 2020-09-09 09:44:54*
%MOMM*%
%LPD*%
G01*
G04 APERTURE LIST*
%ADD10C,0.150000*%
%ADD11C,0.120000*%
%ADD12C,0.200000*%
%ADD13C,0.127000*%
%ADD14C,0.015000*%
G04 APERTURE END LIST*
D10*
X103336885Y-76757161D02*
X103479742Y-76804780D01*
X103717838Y-76804780D01*
X103813076Y-76757161D01*
X103860695Y-76709542D01*
X103908314Y-76614304D01*
X103908314Y-76519066D01*
X103860695Y-76423828D01*
X103813076Y-76376209D01*
X103717838Y-76328590D01*
X103527361Y-76280971D01*
X103432123Y-76233352D01*
X103384504Y-76185733D01*
X103336885Y-76090495D01*
X103336885Y-75995257D01*
X103384504Y-75900019D01*
X103432123Y-75852400D01*
X103527361Y-75804780D01*
X103765457Y-75804780D01*
X103908314Y-75852400D01*
X104908314Y-76709542D02*
X104860695Y-76757161D01*
X104717838Y-76804780D01*
X104622600Y-76804780D01*
X104479742Y-76757161D01*
X104384504Y-76661923D01*
X104336885Y-76566685D01*
X104289266Y-76376209D01*
X104289266Y-76233352D01*
X104336885Y-76042876D01*
X104384504Y-75947638D01*
X104479742Y-75852400D01*
X104622600Y-75804780D01*
X104717838Y-75804780D01*
X104860695Y-75852400D01*
X104908314Y-75900019D01*
X105336885Y-76804780D02*
X105336885Y-75804780D01*
X105908314Y-76804780D02*
X105479742Y-76233352D01*
X105908314Y-75804780D02*
X105336885Y-76376209D01*
X103657495Y-63127000D02*
X103562257Y-63079380D01*
X103419400Y-63079380D01*
X103276542Y-63127000D01*
X103181304Y-63222238D01*
X103133685Y-63317476D01*
X103086066Y-63507952D01*
X103086066Y-63650809D01*
X103133685Y-63841285D01*
X103181304Y-63936523D01*
X103276542Y-64031761D01*
X103419400Y-64079380D01*
X103514638Y-64079380D01*
X103657495Y-64031761D01*
X103705114Y-63984142D01*
X103705114Y-63650809D01*
X103514638Y-63650809D01*
X104133685Y-64079380D02*
X104133685Y-63079380D01*
X104705114Y-64079380D01*
X104705114Y-63079380D01*
X105181304Y-64079380D02*
X105181304Y-63079380D01*
X105419400Y-63079380D01*
X105562257Y-63127000D01*
X105657495Y-63222238D01*
X105705114Y-63317476D01*
X105752733Y-63507952D01*
X105752733Y-63650809D01*
X105705114Y-63841285D01*
X105657495Y-63936523D01*
X105562257Y-64031761D01*
X105419400Y-64079380D01*
X105181304Y-64079380D01*
D11*
%TO.C,J1*%
X100270000Y-62170000D02*
X101600000Y-62170000D01*
X100270000Y-63500000D02*
X100270000Y-62170000D01*
X100270000Y-64770000D02*
X102930000Y-64770000D01*
X102930000Y-64770000D02*
X102930000Y-77530000D01*
X100270000Y-64770000D02*
X100270000Y-77530000D01*
X100270000Y-77530000D02*
X102930000Y-77530000D01*
%TO.C,J2*%
X110430000Y-77530000D02*
X113090000Y-77530000D01*
X110430000Y-64770000D02*
X110430000Y-77530000D01*
X113090000Y-64770000D02*
X113090000Y-77530000D01*
X110430000Y-64770000D02*
X113090000Y-64770000D01*
X110430000Y-63500000D02*
X110430000Y-62170000D01*
X110430000Y-62170000D02*
X111760000Y-62170000D01*
D12*
%TO.C,U1*%
X105730000Y-74800000D02*
G75*
G03*
X105730000Y-74800000I-100000J0D01*
G01*
D13*
X105230000Y-72720000D02*
X105230000Y-72060000D01*
X106345000Y-71590000D02*
X107015000Y-71590000D01*
X108130000Y-72060000D02*
X108130000Y-72720000D01*
D12*
%TO.C,U2*%
X104255000Y-66560000D02*
G75*
G03*
X104255000Y-66560000I-100000J0D01*
G01*
D13*
X105530000Y-66105000D02*
X107830000Y-66105000D01*
X105530000Y-68515000D02*
X107830000Y-68515000D01*
%TO.C,J1*%
D10*
X101266666Y-60622380D02*
X101266666Y-61336666D01*
X101219047Y-61479523D01*
X101123809Y-61574761D01*
X100980952Y-61622380D01*
X100885714Y-61622380D01*
X102266666Y-61622380D02*
X101695238Y-61622380D01*
X101980952Y-61622380D02*
X101980952Y-60622380D01*
X101885714Y-60765238D01*
X101790476Y-60860476D01*
X101695238Y-60908095D01*
%TO.C,J2*%
X111426666Y-60622380D02*
X111426666Y-61336666D01*
X111379047Y-61479523D01*
X111283809Y-61574761D01*
X111140952Y-61622380D01*
X111045714Y-61622380D01*
X111855238Y-60717619D02*
X111902857Y-60670000D01*
X111998095Y-60622380D01*
X112236190Y-60622380D01*
X112331428Y-60670000D01*
X112379047Y-60717619D01*
X112426666Y-60812857D01*
X112426666Y-60908095D01*
X112379047Y-61050952D01*
X111807619Y-61622380D01*
X112426666Y-61622380D01*
%TO.C,U1*%
D14*
X106070476Y-74618904D02*
X106070476Y-75266523D01*
X106108571Y-75342714D01*
X106146666Y-75380809D01*
X106222857Y-75418904D01*
X106375238Y-75418904D01*
X106451428Y-75380809D01*
X106489523Y-75342714D01*
X106527619Y-75266523D01*
X106527619Y-74618904D01*
X107327619Y-75418904D02*
X106870476Y-75418904D01*
X107099047Y-75418904D02*
X107099047Y-74618904D01*
X107022857Y-74733190D01*
X106946666Y-74809380D01*
X106870476Y-74847476D01*
%TO.C,U2*%
X105918095Y-64679580D02*
X105918095Y-65489104D01*
X105965714Y-65584342D01*
X106013333Y-65631961D01*
X106108571Y-65679580D01*
X106299047Y-65679580D01*
X106394285Y-65631961D01*
X106441904Y-65584342D01*
X106489523Y-65489104D01*
X106489523Y-64679580D01*
X106918095Y-64774819D02*
X106965714Y-64727200D01*
X107060952Y-64679580D01*
X107299047Y-64679580D01*
X107394285Y-64727200D01*
X107441904Y-64774819D01*
X107489523Y-64870057D01*
X107489523Y-64965295D01*
X107441904Y-65108152D01*
X106870476Y-65679580D01*
X107489523Y-65679580D01*
%TD*%
M02*
