G04 #@! TF.GenerationSoftware,KiCad,Pcbnew,(5.1.6-0-10_14)*
G04 #@! TF.CreationDate,2021-08-31T11:09:41+09:00*
G04 #@! TF.ProjectId,qPCR-panel_led_20210831,71504352-2d70-4616-9e65-6c5f6c65645f,rev?*
G04 #@! TF.SameCoordinates,Original*
G04 #@! TF.FileFunction,Profile,NP*
%FSLAX46Y46*%
G04 Gerber Fmt 4.6, Leading zero omitted, Abs format (unit mm)*
G04 Created by KiCad (PCBNEW (5.1.6-0-10_14)) date 2021-08-31 11:09:41*
%MOMM*%
%LPD*%
G01*
G04 APERTURE LIST*
G04 #@! TA.AperFunction,Profile*
%ADD10C,0.100000*%
G04 #@! TD*
G04 #@! TA.AperFunction,Profile*
%ADD11C,0.200000*%
G04 #@! TD*
G04 APERTURE END LIST*
D10*
X64000000Y-62500000D02*
X64000000Y-57300000D01*
X64000000Y-75500000D02*
X64000000Y-72300000D01*
X187135000Y-80300000D02*
X187135000Y-75100000D01*
X187135000Y-57700000D02*
X187135000Y-54100000D01*
X193735000Y-47000000D02*
X188735000Y-47000000D01*
X188735000Y-81800000D02*
X193735000Y-81800000D01*
X193735000Y-81800000D02*
X193735000Y-47000000D01*
X57400000Y-81800000D02*
X62400000Y-81800000D01*
X57400000Y-47000000D02*
X57400000Y-81800000D01*
X62400000Y-47000000D02*
X57400000Y-47000000D01*
X188735000Y-47000000D02*
X188735000Y-50500000D01*
X188735000Y-75100000D02*
X188735000Y-81800000D01*
X188735000Y-54100000D02*
X188735000Y-71500000D01*
X62400000Y-57300000D02*
X62400000Y-68700000D01*
X62400000Y-72300000D02*
X62400000Y-81800000D01*
X62400000Y-47000000D02*
X62400000Y-53700000D01*
X188735000Y-50500000D02*
G75*
G02*
X187135000Y-50500000I-800000J0D01*
G01*
X187135000Y-54100000D02*
G75*
G02*
X188735000Y-54100000I800000J0D01*
G01*
D11*
X64275000Y-56500000D02*
G75*
G03*
X64275000Y-56500000I-275000J0D01*
G01*
X63725000Y-56225000D02*
X64275000Y-56775000D01*
X63725000Y-56775000D02*
X64275000Y-56225000D01*
X64275000Y-55600000D02*
G75*
G03*
X64275000Y-55600000I-275000J0D01*
G01*
X63725000Y-55325000D02*
X64275000Y-55875000D01*
X63725000Y-55875000D02*
X64275000Y-55325000D01*
X64275000Y-53800000D02*
G75*
G03*
X64275000Y-53800000I-275000J0D01*
G01*
X63725000Y-53525000D02*
X64275000Y-54075000D01*
X63725000Y-54075000D02*
X64275000Y-53525000D01*
X64275000Y-54700000D02*
G75*
G03*
X64275000Y-54700000I-275000J0D01*
G01*
X63725000Y-54425000D02*
X64275000Y-54975000D01*
X63725000Y-54975000D02*
X64275000Y-54425000D01*
X64275000Y-57400000D02*
G75*
G03*
X64275000Y-57400000I-275000J0D01*
G01*
X63725000Y-57125000D02*
X64275000Y-57675000D01*
X63725000Y-57675000D02*
X64275000Y-57125000D01*
X187410000Y-75100000D02*
G75*
G03*
X187410000Y-75100000I-275000J0D01*
G01*
X186860000Y-74825000D02*
X187410000Y-75375000D01*
X186860000Y-75375000D02*
X187410000Y-74825000D01*
X187410000Y-73300000D02*
G75*
G03*
X187410000Y-73300000I-275000J0D01*
G01*
X186860000Y-73025000D02*
X187410000Y-73575000D01*
X186860000Y-73575000D02*
X187410000Y-73025000D01*
X187410000Y-74200000D02*
G75*
G03*
X187410000Y-74200000I-275000J0D01*
G01*
X186860000Y-73925000D02*
X187410000Y-74475000D01*
X186860000Y-74475000D02*
X187410000Y-73925000D01*
X187410000Y-72400000D02*
G75*
G03*
X187410000Y-72400000I-275000J0D01*
G01*
X186860000Y-72125000D02*
X187410000Y-72675000D01*
X186860000Y-72675000D02*
X187410000Y-72125000D01*
X187410000Y-71500000D02*
G75*
G03*
X187410000Y-71500000I-275000J0D01*
G01*
X186860000Y-71225000D02*
X187410000Y-71775000D01*
X186860000Y-71775000D02*
X187410000Y-71225000D01*
D10*
X187135000Y-75100000D02*
G75*
G02*
X188735000Y-75100000I800000J0D01*
G01*
X188735000Y-71500000D02*
G75*
G02*
X187135000Y-71500000I-800000J0D01*
G01*
D11*
X64275000Y-70500000D02*
G75*
G03*
X64275000Y-70500000I-275000J0D01*
G01*
X63725000Y-70225000D02*
X64275000Y-70775000D01*
X63725000Y-70775000D02*
X64275000Y-70225000D01*
X64275000Y-69600000D02*
G75*
G03*
X64275000Y-69600000I-275000J0D01*
G01*
X63725000Y-69325000D02*
X64275000Y-69875000D01*
X63725000Y-69875000D02*
X64275000Y-69325000D01*
X64275000Y-71400000D02*
G75*
G03*
X64275000Y-71400000I-275000J0D01*
G01*
X63725000Y-71125000D02*
X64275000Y-71675000D01*
X63725000Y-71675000D02*
X64275000Y-71125000D01*
X64275000Y-72300000D02*
G75*
G03*
X64275000Y-72300000I-275000J0D01*
G01*
X63725000Y-72025000D02*
X64275000Y-72575000D01*
X63725000Y-72575000D02*
X64275000Y-72025000D01*
X64275000Y-68700000D02*
G75*
G03*
X64275000Y-68700000I-275000J0D01*
G01*
X63725000Y-68425000D02*
X64275000Y-68975000D01*
X63725000Y-68975000D02*
X64275000Y-68425000D01*
D10*
X64000000Y-68700000D02*
G75*
G02*
X62400000Y-68700000I-800000J0D01*
G01*
X62400000Y-72300000D02*
G75*
G02*
X64000000Y-72300000I800000J0D01*
G01*
X62400000Y-57300000D02*
G75*
G02*
X64000000Y-57300000I800000J0D01*
G01*
X64000000Y-53700000D02*
G75*
G02*
X62400000Y-53700000I-800000J0D01*
G01*
D11*
X187410000Y-54200000D02*
G75*
G03*
X187410000Y-54200000I-275000J0D01*
G01*
X186860000Y-53925000D02*
X187410000Y-54475000D01*
X186860000Y-54475000D02*
X187410000Y-53925000D01*
X187410000Y-50600000D02*
G75*
G03*
X187410000Y-50600000I-275000J0D01*
G01*
X186860000Y-50325000D02*
X187410000Y-50875000D01*
X186860000Y-50875000D02*
X187410000Y-50325000D01*
X187410000Y-51500000D02*
G75*
G03*
X187410000Y-51500000I-275000J0D01*
G01*
X186860000Y-51225000D02*
X187410000Y-51775000D01*
X186860000Y-51775000D02*
X187410000Y-51225000D01*
X187410000Y-53300000D02*
G75*
G03*
X187410000Y-53300000I-275000J0D01*
G01*
X186860000Y-53025000D02*
X187410000Y-53575000D01*
X186860000Y-53575000D02*
X187410000Y-53025000D01*
X187410000Y-52400000D02*
G75*
G03*
X187410000Y-52400000I-275000J0D01*
G01*
X186860000Y-52125000D02*
X187410000Y-52675000D01*
X186860000Y-52675000D02*
X187410000Y-52125000D01*
D10*
X92500000Y-76000000D02*
G75*
G02*
X93000000Y-76500000I0J-500000D01*
G01*
X93000000Y-76500000D02*
X93000000Y-80300000D01*
X92500000Y-76000000D02*
X64500000Y-76000000D01*
X93500000Y-80800000D02*
G75*
G02*
X93000000Y-80300000I0J500000D01*
G01*
X92500000Y-65699640D02*
X92500000Y-66299280D01*
X92000000Y-65199640D02*
X64500000Y-65199640D01*
X92000000Y-65199640D02*
G75*
G02*
X92500000Y-65699640I0J-500000D01*
G01*
X93000000Y-66799280D02*
G75*
G02*
X92500000Y-66299280I0J500000D01*
G01*
X64000000Y-75500000D02*
G75*
G03*
X64500000Y-76000000I500000J0D01*
G01*
X102100000Y-73321640D02*
G75*
G03*
X102100000Y-73321640I-1600000J0D01*
G01*
X184100000Y-73321640D02*
G75*
G03*
X184100000Y-73321640I-1600000J0D01*
G01*
X64000000Y-68700000D02*
X64000000Y-65699640D01*
X110500000Y-80800000D02*
X93500000Y-80800000D01*
X111000000Y-80300000D02*
G75*
G02*
X110500000Y-80800000I-500000J0D01*
G01*
X111000000Y-79800000D02*
X111000000Y-80300000D01*
X111000000Y-79800000D02*
G75*
G02*
X112000000Y-79800000I500000J0D01*
G01*
X112000000Y-81099640D02*
X112000000Y-79800000D01*
X112500000Y-81599640D02*
G75*
G02*
X112000000Y-81099640I0J500000D01*
G01*
X116500000Y-81599640D02*
X112500000Y-81599640D01*
X117000000Y-81099640D02*
G75*
G02*
X116500000Y-81599640I-500000J0D01*
G01*
X117000000Y-79800000D02*
X117000000Y-81099640D01*
X117000000Y-79800000D02*
G75*
G02*
X118000000Y-79800000I500000J0D01*
G01*
X118000000Y-80300000D02*
X118000000Y-79800000D01*
X118500000Y-80800000D02*
G75*
G02*
X118000000Y-80300000I0J500000D01*
G01*
X123500000Y-80800000D02*
X118500000Y-80800000D01*
X124000000Y-80300000D02*
G75*
G02*
X123500000Y-80800000I-500000J0D01*
G01*
X124000000Y-79800000D02*
X124000000Y-80300000D01*
X124000000Y-79800000D02*
G75*
G02*
X125000000Y-79800000I500000J0D01*
G01*
X125000000Y-81099999D02*
X125000000Y-79800000D01*
X125500000Y-81599999D02*
G75*
G02*
X125000000Y-81099999I0J500000D01*
G01*
X130500000Y-81599999D02*
X125500000Y-81599999D01*
X131000000Y-81099999D02*
G75*
G02*
X130500000Y-81599999I-500000J0D01*
G01*
X131000000Y-79800000D02*
X131000000Y-81099999D01*
X131000000Y-79800000D02*
G75*
G02*
X132000000Y-79800000I500000J0D01*
G01*
X132000000Y-80300000D02*
X132000000Y-79800000D01*
X132500000Y-80800000D02*
G75*
G02*
X132000000Y-80300000I0J500000D01*
G01*
X137500000Y-80800000D02*
X132500000Y-80800000D01*
X138000000Y-80300000D02*
G75*
G02*
X137500000Y-80800000I-500000J0D01*
G01*
X138000000Y-79800000D02*
X138000000Y-80300000D01*
X138000000Y-79800000D02*
G75*
G02*
X139000000Y-79800000I500000J0D01*
G01*
X139000000Y-81099640D02*
X139000000Y-79800000D01*
X139500000Y-81599640D02*
G75*
G02*
X139000000Y-81099640I0J500000D01*
G01*
X143500000Y-81599640D02*
X139500000Y-81599640D01*
X144000000Y-81099640D02*
G75*
G02*
X143500000Y-81599640I-500000J0D01*
G01*
X144000000Y-79800000D02*
X144000000Y-81099640D01*
X144000000Y-79800000D02*
G75*
G02*
X145000000Y-79800000I500000J0D01*
G01*
X145000000Y-80300000D02*
X145000000Y-79800000D01*
X145500000Y-80800000D02*
G75*
G02*
X145000000Y-80300000I0J500000D01*
G01*
X150500000Y-80800000D02*
X145500000Y-80800000D01*
X151000000Y-80300000D02*
G75*
G02*
X150500000Y-80800000I-500000J0D01*
G01*
X151000000Y-79800000D02*
X151000000Y-80300000D01*
X151000000Y-79800002D02*
G75*
G02*
X152000000Y-79800000I500000J1D01*
G01*
X152000000Y-81100004D02*
X152000000Y-79800000D01*
X152500000Y-81600004D02*
G75*
G02*
X152000000Y-81100004I0J500000D01*
G01*
X157500000Y-81600004D02*
X152500000Y-81600004D01*
X158000000Y-81100004D02*
G75*
G02*
X157500000Y-81600004I-500000J0D01*
G01*
X158000000Y-79800000D02*
X158000000Y-81100004D01*
X158000000Y-79800000D02*
G75*
G02*
X159000000Y-79800000I500000J0D01*
G01*
X159000000Y-80300000D02*
X159000000Y-79800000D01*
X159500000Y-80800000D02*
G75*
G02*
X159000000Y-80300000I0J500000D01*
G01*
X164500000Y-80800000D02*
X159500000Y-80800000D01*
X165000000Y-80300000D02*
G75*
G02*
X164500000Y-80800000I-500000J0D01*
G01*
X165000000Y-79800000D02*
X165000000Y-80300000D01*
X165000000Y-79800000D02*
G75*
G02*
X166000000Y-79800000I500000J0D01*
G01*
X166000000Y-81099640D02*
X166000000Y-79800000D01*
X166500000Y-81599640D02*
G75*
G02*
X166000000Y-81099640I0J500000D01*
G01*
X170500000Y-81599640D02*
X166500000Y-81599640D01*
X171000000Y-81099640D02*
G75*
G02*
X170500000Y-81599640I-500000J0D01*
G01*
X171000000Y-79800000D02*
X171000000Y-81099640D01*
X171000000Y-79800000D02*
G75*
G02*
X172000000Y-79800000I500000J0D01*
G01*
X172000000Y-80300000D02*
X172000000Y-79800000D01*
X172500000Y-80800000D02*
G75*
G02*
X172000000Y-80300000I0J500000D01*
G01*
X186635000Y-80800000D02*
X172500000Y-80800000D01*
X187135000Y-80300000D02*
G75*
G02*
X186635000Y-80800000I-500000J0D01*
G01*
X187135000Y-67299280D02*
X187135000Y-71500000D01*
X186635000Y-66799280D02*
G75*
G02*
X187135000Y-67299280I0J-500000D01*
G01*
X172454253Y-66799280D02*
X186635000Y-66799280D01*
X171977126Y-67149780D02*
G75*
G02*
X172454253Y-66799280I477127J-149500D01*
G01*
X171977127Y-67149780D02*
G75*
G02*
X171000000Y-67000280I-477127J149500D01*
G01*
X171000000Y-65699640D02*
X171000000Y-67000280D01*
X170500000Y-65199640D02*
G75*
G02*
X171000000Y-65699640I0J-500000D01*
G01*
X166500000Y-65199640D02*
X170500000Y-65199640D01*
X166000000Y-65699640D02*
G75*
G02*
X166500000Y-65199640I500000J0D01*
G01*
X166000000Y-67000280D02*
X166000000Y-65699640D01*
X166000000Y-67000280D02*
G75*
G02*
X165022873Y-67149780I-500000J0D01*
G01*
X164545746Y-66799280D02*
G75*
G02*
X165022873Y-67149780I0J-500000D01*
G01*
X159454253Y-66799280D02*
X164545746Y-66799280D01*
X158977126Y-67149780D02*
G75*
G02*
X159454253Y-66799280I477127J-149500D01*
G01*
X158977127Y-67149780D02*
G75*
G02*
X158000000Y-67000280I-477127J149500D01*
G01*
X158000000Y-65699640D02*
X158000000Y-67000280D01*
X157500000Y-65199640D02*
G75*
G02*
X158000000Y-65699640I0J-500000D01*
G01*
X152500000Y-65199640D02*
X157500000Y-65199640D01*
X152000000Y-65699640D02*
G75*
G02*
X152500000Y-65199640I500000J0D01*
G01*
X152000000Y-67000280D02*
X152000000Y-65699640D01*
X152000000Y-67000280D02*
G75*
G02*
X151022873Y-67149780I-500000J0D01*
G01*
X150545746Y-66799280D02*
G75*
G02*
X151022873Y-67149780I0J-500000D01*
G01*
X145454253Y-66799280D02*
X150545746Y-66799280D01*
X144977126Y-67149780D02*
G75*
G02*
X145454253Y-66799280I477127J-149500D01*
G01*
X144977127Y-67149780D02*
G75*
G02*
X144000000Y-67000280I-477127J149500D01*
G01*
X144000000Y-65699640D02*
X144000000Y-67000280D01*
X143500000Y-65199640D02*
G75*
G02*
X144000000Y-65699640I0J-500000D01*
G01*
X139500000Y-65199640D02*
X143500000Y-65199640D01*
X139000000Y-65699640D02*
G75*
G02*
X139500000Y-65199640I500000J0D01*
G01*
X139000000Y-67000280D02*
X139000000Y-65699640D01*
X139000000Y-67000280D02*
G75*
G02*
X138022873Y-67149780I-500000J0D01*
G01*
X137545746Y-66799280D02*
G75*
G02*
X138022873Y-67149780I0J-500000D01*
G01*
X132454253Y-66799280D02*
X137545746Y-66799280D01*
X131977126Y-67149780D02*
G75*
G02*
X132454253Y-66799280I477127J-149500D01*
G01*
X131977127Y-67149780D02*
G75*
G02*
X131000000Y-67000280I-477127J149500D01*
G01*
X131000000Y-65699640D02*
X131000000Y-67000280D01*
X130500000Y-65199640D02*
G75*
G02*
X131000000Y-65699640I0J-500000D01*
G01*
X125500000Y-65199640D02*
X130500000Y-65199640D01*
X125000000Y-65699640D02*
G75*
G02*
X125500000Y-65199640I500000J0D01*
G01*
X125000000Y-67000280D02*
X125000000Y-65699640D01*
X125000000Y-67000280D02*
G75*
G02*
X124022873Y-67149780I-500000J0D01*
G01*
X123545746Y-66799280D02*
G75*
G02*
X124022873Y-67149780I0J-500000D01*
G01*
X118454253Y-66799280D02*
X123545746Y-66799280D01*
X117977126Y-67149780D02*
G75*
G02*
X118454253Y-66799280I477127J-149500D01*
G01*
X117977127Y-67149780D02*
G75*
G02*
X117000000Y-67000280I-477127J149500D01*
G01*
X117000000Y-65699640D02*
X117000000Y-67000280D01*
X116500000Y-65199640D02*
G75*
G02*
X117000000Y-65699640I0J-500000D01*
G01*
X112500000Y-65199640D02*
X116500000Y-65199640D01*
X112000000Y-65699640D02*
G75*
G02*
X112500000Y-65199640I500000J0D01*
G01*
X112000000Y-67000280D02*
X112000000Y-65699640D01*
X112000000Y-67000280D02*
G75*
G02*
X111022873Y-67149780I-500000J0D01*
G01*
X110545746Y-66799280D02*
G75*
G02*
X111022873Y-67149780I0J-500000D01*
G01*
X93000000Y-66799280D02*
X110545746Y-66799280D01*
X64000000Y-65699640D02*
G75*
G02*
X64500000Y-65199640I500000J0D01*
G01*
X158635000Y-58200000D02*
X186635000Y-58200000D01*
X158635000Y-58200000D02*
G75*
G03*
X158135000Y-58700000I0J-500000D01*
G01*
X158135000Y-58700000D02*
X158135000Y-62500000D01*
X157635000Y-63000000D02*
G75*
G03*
X158135000Y-62500000I0J500000D01*
G01*
X158635000Y-47899640D02*
X158635000Y-48499280D01*
X159135000Y-47399640D02*
X186635000Y-47399640D01*
X159135000Y-47399640D02*
G75*
G03*
X158635000Y-47899640I0J-500000D01*
G01*
X158135000Y-48999280D02*
G75*
G03*
X158635000Y-48499280I0J500000D01*
G01*
X187135000Y-57700000D02*
G75*
G02*
X186635000Y-58200000I-500000J0D01*
G01*
X152235000Y-55521640D02*
G75*
G03*
X152235000Y-55521640I-1600000J0D01*
G01*
X70235000Y-55521640D02*
G75*
G03*
X70235000Y-55521640I-1600000J0D01*
G01*
X187135000Y-50500000D02*
X187135000Y-47899640D01*
X140635000Y-63000000D02*
X157635000Y-63000000D01*
X140135000Y-62500000D02*
G75*
G03*
X140635000Y-63000000I500000J0D01*
G01*
X140135000Y-62000000D02*
X140135000Y-62500000D01*
X140135000Y-62000000D02*
G75*
G03*
X139135000Y-62000000I-500000J0D01*
G01*
X139135000Y-63299640D02*
X139135000Y-62000000D01*
X138635000Y-63799640D02*
G75*
G03*
X139135000Y-63299640I0J500000D01*
G01*
X134635000Y-63799640D02*
X138635000Y-63799640D01*
X134135000Y-63299640D02*
G75*
G03*
X134635000Y-63799640I500000J0D01*
G01*
X134135000Y-62000000D02*
X134135000Y-63299640D01*
X134135000Y-62000000D02*
G75*
G03*
X133135000Y-62000000I-500000J0D01*
G01*
X133135000Y-62500000D02*
X133135000Y-62000000D01*
X132635000Y-63000000D02*
G75*
G03*
X133135000Y-62500000I0J500000D01*
G01*
X127635000Y-63000000D02*
X132635000Y-63000000D01*
X127135000Y-62500000D02*
G75*
G03*
X127635000Y-63000000I500000J0D01*
G01*
X127135000Y-62000000D02*
X127135000Y-62500000D01*
X127135000Y-62000000D02*
G75*
G03*
X126135000Y-62000000I-500000J0D01*
G01*
X126135000Y-63299999D02*
X126135000Y-62000000D01*
X125635000Y-63799999D02*
G75*
G03*
X126135000Y-63299999I0J500000D01*
G01*
X120635000Y-63799999D02*
X125635000Y-63799999D01*
X120135000Y-63299999D02*
G75*
G03*
X120635000Y-63799999I500000J0D01*
G01*
X120135000Y-62000000D02*
X120135000Y-63299999D01*
X120135000Y-62000000D02*
G75*
G03*
X119135000Y-62000000I-500000J0D01*
G01*
X119135000Y-62500000D02*
X119135000Y-62000000D01*
X118635000Y-63000000D02*
G75*
G03*
X119135000Y-62500000I0J500000D01*
G01*
X113635000Y-63000000D02*
X118635000Y-63000000D01*
X113135000Y-62500000D02*
G75*
G03*
X113635000Y-63000000I500000J0D01*
G01*
X113135000Y-62000000D02*
X113135000Y-62500000D01*
X113135000Y-62000000D02*
G75*
G03*
X112135000Y-62000000I-500000J0D01*
G01*
X112135000Y-63299640D02*
X112135000Y-62000000D01*
X111635000Y-63799640D02*
G75*
G03*
X112135000Y-63299640I0J500000D01*
G01*
X107635000Y-63799640D02*
X111635000Y-63799640D01*
X107135000Y-63299640D02*
G75*
G03*
X107635000Y-63799640I500000J0D01*
G01*
X107135000Y-62000000D02*
X107135000Y-63299640D01*
X107135000Y-62000000D02*
G75*
G03*
X106135000Y-62000000I-500000J0D01*
G01*
X106135000Y-62500000D02*
X106135000Y-62000000D01*
X105635000Y-63000000D02*
G75*
G03*
X106135000Y-62500000I0J500000D01*
G01*
X100635000Y-63000000D02*
X105635000Y-63000000D01*
X100135000Y-62500000D02*
G75*
G03*
X100635000Y-63000000I500000J0D01*
G01*
X100135000Y-62000000D02*
X100135000Y-62500000D01*
X100135000Y-62000002D02*
G75*
G03*
X99135000Y-62000000I-500000J1D01*
G01*
X99135000Y-63300004D02*
X99135000Y-62000000D01*
X98635000Y-63800004D02*
G75*
G03*
X99135000Y-63300004I0J500000D01*
G01*
X93635000Y-63800004D02*
X98635000Y-63800004D01*
X93135000Y-63300004D02*
G75*
G03*
X93635000Y-63800004I500000J0D01*
G01*
X93135000Y-62000000D02*
X93135000Y-63300004D01*
X93135000Y-62000000D02*
G75*
G03*
X92135000Y-62000000I-500000J0D01*
G01*
X92135000Y-62500000D02*
X92135000Y-62000000D01*
X91635000Y-63000000D02*
G75*
G03*
X92135000Y-62500000I0J500000D01*
G01*
X86635000Y-63000000D02*
X91635000Y-63000000D01*
X86135000Y-62500000D02*
G75*
G03*
X86635000Y-63000000I500000J0D01*
G01*
X86135000Y-62000000D02*
X86135000Y-62500000D01*
X86135000Y-62000000D02*
G75*
G03*
X85135000Y-62000000I-500000J0D01*
G01*
X85135000Y-63299640D02*
X85135000Y-62000000D01*
X84635000Y-63799640D02*
G75*
G03*
X85135000Y-63299640I0J500000D01*
G01*
X80635000Y-63799640D02*
X84635000Y-63799640D01*
X80135000Y-63299640D02*
G75*
G03*
X80635000Y-63799640I500000J0D01*
G01*
X80135000Y-62000000D02*
X80135000Y-63299640D01*
X80135000Y-62000000D02*
G75*
G03*
X79135000Y-62000000I-500000J0D01*
G01*
X79135000Y-62500000D02*
X79135000Y-62000000D01*
X78635000Y-63000000D02*
G75*
G03*
X79135000Y-62500000I0J500000D01*
G01*
X64500000Y-63000000D02*
X78635000Y-63000000D01*
X64000000Y-62500000D02*
G75*
G03*
X64500000Y-63000000I500000J0D01*
G01*
X64000000Y-49499280D02*
X64000000Y-53700000D01*
X64500000Y-48999280D02*
G75*
G03*
X64000000Y-49499280I0J-500000D01*
G01*
X78680747Y-48999280D02*
X64500000Y-48999280D01*
X79157874Y-49349780D02*
G75*
G03*
X78680747Y-48999280I-477127J-149500D01*
G01*
X79157873Y-49349780D02*
G75*
G03*
X80135000Y-49200280I477127J149500D01*
G01*
X80135000Y-47899640D02*
X80135000Y-49200280D01*
X80635000Y-47399640D02*
G75*
G03*
X80135000Y-47899640I0J-500000D01*
G01*
X84635000Y-47399640D02*
X80635000Y-47399640D01*
X85135000Y-47899640D02*
G75*
G03*
X84635000Y-47399640I-500000J0D01*
G01*
X85135000Y-49200280D02*
X85135000Y-47899640D01*
X85135000Y-49200280D02*
G75*
G03*
X86112127Y-49349780I500000J0D01*
G01*
X86589254Y-48999280D02*
G75*
G03*
X86112127Y-49349780I0J-500000D01*
G01*
X91680747Y-48999280D02*
X86589254Y-48999280D01*
X92157874Y-49349780D02*
G75*
G03*
X91680747Y-48999280I-477127J-149500D01*
G01*
X92157873Y-49349780D02*
G75*
G03*
X93135000Y-49200280I477127J149500D01*
G01*
X93135000Y-47899640D02*
X93135000Y-49200280D01*
X93635000Y-47399640D02*
G75*
G03*
X93135000Y-47899640I0J-500000D01*
G01*
X98635000Y-47399640D02*
X93635000Y-47399640D01*
X99135000Y-47899640D02*
G75*
G03*
X98635000Y-47399640I-500000J0D01*
G01*
X99135000Y-49200280D02*
X99135000Y-47899640D01*
X99135000Y-49200280D02*
G75*
G03*
X100112127Y-49349780I500000J0D01*
G01*
X100589254Y-48999280D02*
G75*
G03*
X100112127Y-49349780I0J-500000D01*
G01*
X105680747Y-48999280D02*
X100589254Y-48999280D01*
X106157874Y-49349780D02*
G75*
G03*
X105680747Y-48999280I-477127J-149500D01*
G01*
X106157873Y-49349780D02*
G75*
G03*
X107135000Y-49200280I477127J149500D01*
G01*
X107135000Y-47899640D02*
X107135000Y-49200280D01*
X107635000Y-47399640D02*
G75*
G03*
X107135000Y-47899640I0J-500000D01*
G01*
X111635000Y-47399640D02*
X107635000Y-47399640D01*
X112135000Y-47899640D02*
G75*
G03*
X111635000Y-47399640I-500000J0D01*
G01*
X112135000Y-49200280D02*
X112135000Y-47899640D01*
X112135000Y-49200280D02*
G75*
G03*
X113112127Y-49349780I500000J0D01*
G01*
X113589254Y-48999280D02*
G75*
G03*
X113112127Y-49349780I0J-500000D01*
G01*
X118680747Y-48999280D02*
X113589254Y-48999280D01*
X119157874Y-49349780D02*
G75*
G03*
X118680747Y-48999280I-477127J-149500D01*
G01*
X119157873Y-49349780D02*
G75*
G03*
X120135000Y-49200280I477127J149500D01*
G01*
X120135000Y-47899640D02*
X120135000Y-49200280D01*
X120635000Y-47399640D02*
G75*
G03*
X120135000Y-47899640I0J-500000D01*
G01*
X125635000Y-47399640D02*
X120635000Y-47399640D01*
X126135000Y-47899640D02*
G75*
G03*
X125635000Y-47399640I-500000J0D01*
G01*
X126135000Y-49200280D02*
X126135000Y-47899640D01*
X126135000Y-49200280D02*
G75*
G03*
X127112127Y-49349780I500000J0D01*
G01*
X127589254Y-48999280D02*
G75*
G03*
X127112127Y-49349780I0J-500000D01*
G01*
X132680747Y-48999280D02*
X127589254Y-48999280D01*
X133157874Y-49349780D02*
G75*
G03*
X132680747Y-48999280I-477127J-149500D01*
G01*
X133157873Y-49349780D02*
G75*
G03*
X134135000Y-49200280I477127J149500D01*
G01*
X134135000Y-47899640D02*
X134135000Y-49200280D01*
X134635000Y-47399640D02*
G75*
G03*
X134135000Y-47899640I0J-500000D01*
G01*
X138635000Y-47399640D02*
X134635000Y-47399640D01*
X139135000Y-47899640D02*
G75*
G03*
X138635000Y-47399640I-500000J0D01*
G01*
X139135000Y-49200280D02*
X139135000Y-47899640D01*
X139135000Y-49200280D02*
G75*
G03*
X140112127Y-49349780I500000J0D01*
G01*
X140589254Y-48999280D02*
G75*
G03*
X140112127Y-49349780I0J-500000D01*
G01*
X158135000Y-48999280D02*
X140589254Y-48999280D01*
X187135000Y-47899640D02*
G75*
G03*
X186635000Y-47399640I-500000J0D01*
G01*
M02*
