G04 #@! TF.GenerationSoftware,KiCad,Pcbnew,(5.1.6-0-10_14)*
G04 #@! TF.CreationDate,2021-06-29T11:57:39+09:00*
G04 #@! TF.ProjectId,qPCR-photosensing,71504352-2d70-4686-9f74-6f73656e7369,rev?*
G04 #@! TF.SameCoordinates,Original*
G04 #@! TF.FileFunction,Soldermask,Top*
G04 #@! TF.FilePolarity,Negative*
%FSLAX46Y46*%
G04 Gerber Fmt 4.6, Leading zero omitted, Abs format (unit mm)*
G04 Created by KiCad (PCBNEW (5.1.6-0-10_14)) date 2021-06-29 11:57:39*
%MOMM*%
%LPD*%
G01*
G04 APERTURE LIST*
%ADD10C,0.100000*%
%ADD11O,1.700000X1.700000*%
%ADD12R,1.700000X1.700000*%
%ADD13R,1.676400X0.355600*%
%ADD14R,0.410000X1.570000*%
%ADD15R,0.750000X1.200000*%
%ADD16R,1.350000X0.600000*%
%ADD17R,1.350000X0.400000*%
%ADD18R,0.900000X1.200000*%
%ADD19R,1.400000X1.400000*%
%ADD20R,1.200000X0.750000*%
%ADD21R,1.250000X1.500000*%
%ADD22R,1.500000X1.250000*%
%ADD23R,2.000000X1.600000*%
%ADD24R,1.600000X2.000000*%
%ADD25R,1.500000X1.500000*%
%ADD26R,1.200000X0.900000*%
%ADD27R,1.473200X0.355600*%
%ADD28R,0.480000X1.900000*%
%ADD29R,1.470000X0.400000*%
%ADD30R,1.524000X0.457200*%
%ADD31R,0.650000X1.060000*%
%ADD32R,0.355600X1.168400*%
%ADD33R,1.168400X0.355600*%
%ADD34R,0.400000X1.060000*%
%ADD35R,1.060000X0.400000*%
%ADD36O,1.000000X1.000000*%
%ADD37R,1.000000X1.000000*%
G04 APERTURE END LIST*
D10*
G36*
X84550000Y-111130000D02*
G01*
X84550000Y-110530000D01*
X85050000Y-110530000D01*
X85050000Y-111130000D01*
X84550000Y-111130000D01*
G37*
X84550000Y-111130000D02*
X84550000Y-110530000D01*
X85050000Y-110530000D01*
X85050000Y-111130000D01*
X84550000Y-111130000D01*
G36*
X83850000Y-111130000D02*
G01*
X83850000Y-110530000D01*
X84350000Y-110530000D01*
X84350000Y-111130000D01*
X83850000Y-111130000D01*
G37*
X83850000Y-111130000D02*
X83850000Y-110530000D01*
X84350000Y-110530000D01*
X84350000Y-111130000D01*
X83850000Y-111130000D01*
G36*
X85250000Y-111130000D02*
G01*
X85250000Y-110530000D01*
X85750000Y-110530000D01*
X85750000Y-111130000D01*
X85250000Y-111130000D01*
G37*
X85250000Y-111130000D02*
X85250000Y-110530000D01*
X85750000Y-110530000D01*
X85750000Y-111130000D01*
X85250000Y-111130000D01*
G36*
X83850000Y-111950000D02*
G01*
X83850000Y-111350000D01*
X84350000Y-111350000D01*
X84350000Y-111950000D01*
X83850000Y-111950000D01*
G37*
X83850000Y-111950000D02*
X83850000Y-111350000D01*
X84350000Y-111350000D01*
X84350000Y-111950000D01*
X83850000Y-111950000D01*
G36*
X85250000Y-111950000D02*
G01*
X85250000Y-111350000D01*
X85750000Y-111350000D01*
X85750000Y-111950000D01*
X85250000Y-111950000D01*
G37*
X85250000Y-111950000D02*
X85250000Y-111350000D01*
X85750000Y-111350000D01*
X85750000Y-111950000D01*
X85250000Y-111950000D01*
G36*
X84550000Y-111950000D02*
G01*
X84550000Y-111350000D01*
X85050000Y-111350000D01*
X85050000Y-111950000D01*
X84550000Y-111950000D01*
G37*
X84550000Y-111950000D02*
X84550000Y-111350000D01*
X85050000Y-111350000D01*
X85050000Y-111950000D01*
X84550000Y-111950000D01*
G36*
X84550000Y-113590000D02*
G01*
X84550000Y-112990000D01*
X85050000Y-112990000D01*
X85050000Y-113590000D01*
X84550000Y-113590000D01*
G37*
X84550000Y-113590000D02*
X84550000Y-112990000D01*
X85050000Y-112990000D01*
X85050000Y-113590000D01*
X84550000Y-113590000D01*
G36*
X83850000Y-113590000D02*
G01*
X83850000Y-112990000D01*
X84350000Y-112990000D01*
X84350000Y-113590000D01*
X83850000Y-113590000D01*
G37*
X83850000Y-113590000D02*
X83850000Y-112990000D01*
X84350000Y-112990000D01*
X84350000Y-113590000D01*
X83850000Y-113590000D01*
G36*
X85250000Y-113590000D02*
G01*
X85250000Y-112990000D01*
X85750000Y-112990000D01*
X85750000Y-113590000D01*
X85250000Y-113590000D01*
G37*
X85250000Y-113590000D02*
X85250000Y-112990000D01*
X85750000Y-112990000D01*
X85750000Y-113590000D01*
X85250000Y-113590000D01*
G36*
X83850000Y-112770000D02*
G01*
X83850000Y-112170000D01*
X84350000Y-112170000D01*
X84350000Y-112770000D01*
X83850000Y-112770000D01*
G37*
X83850000Y-112770000D02*
X83850000Y-112170000D01*
X84350000Y-112170000D01*
X84350000Y-112770000D01*
X83850000Y-112770000D01*
G36*
X85250000Y-112770000D02*
G01*
X85250000Y-112170000D01*
X85750000Y-112170000D01*
X85750000Y-112770000D01*
X85250000Y-112770000D01*
G37*
X85250000Y-112770000D02*
X85250000Y-112170000D01*
X85750000Y-112170000D01*
X85750000Y-112770000D01*
X85250000Y-112770000D01*
G36*
X84550000Y-112770000D02*
G01*
X84550000Y-112170000D01*
X85050000Y-112170000D01*
X85050000Y-112770000D01*
X84550000Y-112770000D01*
G37*
X84550000Y-112770000D02*
X84550000Y-112170000D01*
X85050000Y-112170000D01*
X85050000Y-112770000D01*
X84550000Y-112770000D01*
D11*
X115160000Y-100849500D03*
X112620000Y-100849500D03*
X110080000Y-100849500D03*
X107540000Y-100849500D03*
X105000000Y-100849500D03*
X102460000Y-100849500D03*
X99920000Y-100849500D03*
X97380000Y-100849500D03*
X94840000Y-100849500D03*
D12*
X92300000Y-100849500D03*
D13*
X111719400Y-114225001D03*
X111719400Y-114875002D03*
X111719400Y-115525001D03*
X111719400Y-116175002D03*
X111719400Y-116825001D03*
X111719400Y-117474999D03*
X111719400Y-118125001D03*
X111719400Y-118774999D03*
X106080600Y-118774999D03*
X106080600Y-118124998D03*
X106080600Y-117474999D03*
X106080600Y-116824998D03*
X106080600Y-116174999D03*
X106080600Y-115525001D03*
X106080600Y-114874999D03*
X106080600Y-114225001D03*
D14*
X93275000Y-87450000D03*
X92625000Y-87450000D03*
X91975000Y-87450000D03*
X91325000Y-87450000D03*
X90675000Y-87450000D03*
X90025000Y-87450000D03*
X89375000Y-87450000D03*
X88725000Y-87450000D03*
X88725000Y-93190000D03*
X89375000Y-93190000D03*
X90025000Y-93190000D03*
X90675000Y-93190000D03*
X91325000Y-93190000D03*
X91975000Y-93190000D03*
X92625000Y-93190000D03*
X93275000Y-93190000D03*
D12*
X152800000Y-108870000D03*
D11*
X150260000Y-108870000D03*
D15*
X86800000Y-92620000D03*
X86800000Y-94520000D03*
D16*
X87850000Y-107725000D03*
X81750000Y-107725000D03*
D17*
X87850000Y-108475000D03*
X81750000Y-108475000D03*
X87850000Y-109125000D03*
X81750000Y-109125000D03*
X87850000Y-109775000D03*
X81750000Y-109775000D03*
X87850000Y-110425000D03*
X81750000Y-110425000D03*
X87850000Y-111075000D03*
X81750000Y-111075000D03*
X87850000Y-111725000D03*
X81750000Y-111725000D03*
X87850000Y-112375000D03*
X81750000Y-112375000D03*
X87850000Y-113025000D03*
X81750000Y-113025000D03*
X87850000Y-113675000D03*
X81750000Y-113675000D03*
X87850000Y-114325000D03*
X81750000Y-114325000D03*
X87850000Y-114975000D03*
X81750000Y-114975000D03*
X87850000Y-115625000D03*
X81750000Y-115625000D03*
D16*
X87850000Y-116375000D03*
X81750000Y-116375000D03*
D10*
G36*
X81875000Y-81270000D02*
G01*
X81375000Y-82020000D01*
X80375000Y-82020000D01*
X80375000Y-80520000D01*
X81375000Y-80520000D01*
X81875000Y-81270000D01*
G37*
G36*
X82825000Y-82020000D02*
G01*
X81675000Y-82020000D01*
X82175000Y-81270000D01*
X81675000Y-80520000D01*
X82825000Y-80520000D01*
X82825000Y-82020000D01*
G37*
D18*
X87000000Y-79250000D03*
X87000000Y-77050000D03*
D19*
X84570000Y-77360000D03*
X82370000Y-77360000D03*
X82370000Y-78960000D03*
X84570000Y-78960000D03*
D20*
X84950000Y-75500000D03*
X86850000Y-75500000D03*
D21*
X88600000Y-74450000D03*
X88600000Y-71950000D03*
D22*
X93650000Y-74850000D03*
X96150000Y-74850000D03*
D15*
X107696000Y-78930000D03*
X107696000Y-80830000D03*
X107696000Y-77150000D03*
X107696000Y-75250000D03*
D20*
X99450000Y-79500000D03*
X101350000Y-79500000D03*
D15*
X83320000Y-70660000D03*
X83320000Y-72560000D03*
D22*
X84450000Y-68650000D03*
X81950000Y-68650000D03*
D23*
X82000000Y-60200000D03*
X86000000Y-60200000D03*
X92750000Y-62550000D03*
X88750000Y-62550000D03*
D21*
X88500000Y-66500000D03*
X88500000Y-69000000D03*
D24*
X90450000Y-64750000D03*
X90450000Y-68750000D03*
D18*
X92200000Y-68750000D03*
X92200000Y-66550000D03*
D12*
X92300000Y-51150500D03*
D11*
X94840000Y-51150500D03*
X97380000Y-51150500D03*
X99920000Y-51150500D03*
X102460000Y-51150500D03*
X105000000Y-51150500D03*
X107540000Y-51150500D03*
X110080000Y-51150500D03*
X112620000Y-51150500D03*
X115160000Y-51150500D03*
D10*
G36*
X94200000Y-67600000D02*
G01*
X94950000Y-68100000D01*
X94950000Y-69100000D01*
X93450000Y-69100000D01*
X93450000Y-68100000D01*
X94200000Y-67600000D01*
G37*
G36*
X94200000Y-65600000D02*
G01*
X93450000Y-65100000D01*
X93450000Y-64100000D01*
X94950000Y-64100000D01*
X94950000Y-65100000D01*
X94200000Y-65600000D01*
G37*
D25*
X94200000Y-65400000D03*
X94200000Y-67800000D03*
X87750000Y-121500000D03*
X85350000Y-121500000D03*
D10*
G36*
X85550000Y-121500000D02*
G01*
X85050000Y-122250000D01*
X84050000Y-122250000D01*
X84050000Y-120750000D01*
X85050000Y-120750000D01*
X85550000Y-121500000D01*
G37*
G36*
X87550000Y-121500000D02*
G01*
X88050000Y-120750000D01*
X89050000Y-120750000D01*
X89050000Y-122250000D01*
X88050000Y-122250000D01*
X87550000Y-121500000D01*
G37*
G36*
X101710000Y-114480000D02*
G01*
X100560000Y-114480000D01*
X101060000Y-113730000D01*
X100560000Y-112980000D01*
X101710000Y-112980000D01*
X101710000Y-114480000D01*
G37*
G36*
X100760000Y-113730000D02*
G01*
X100260000Y-114480000D01*
X99260000Y-114480000D01*
X99260000Y-112980000D01*
X100260000Y-112980000D01*
X100760000Y-113730000D01*
G37*
D18*
X90300000Y-74700000D03*
X90300000Y-72500000D03*
X98100000Y-81900000D03*
X98100000Y-79700000D03*
D26*
X105830000Y-74340000D03*
X103630000Y-74340000D03*
D18*
X91400000Y-107900000D03*
X91400000Y-110100000D03*
D27*
X90480600Y-80774999D03*
X90480600Y-80124998D03*
X90480600Y-79474999D03*
X90480600Y-78824998D03*
X90480600Y-78174999D03*
X90480600Y-77525001D03*
X90480600Y-76874999D03*
X90480600Y-76225001D03*
X96119400Y-76225001D03*
X96119400Y-76875002D03*
X96119400Y-77525001D03*
X96119400Y-78175002D03*
X96119400Y-78825001D03*
X96119400Y-79474999D03*
X96119400Y-80125001D03*
X96119400Y-80774999D03*
D28*
X104675000Y-86495000D03*
X104025000Y-86495000D03*
X103375000Y-86495000D03*
X102725000Y-86495000D03*
X102075000Y-86495000D03*
X101425000Y-86495000D03*
X100775000Y-86495000D03*
X100125000Y-86495000D03*
X99475000Y-86495000D03*
X98825000Y-86495000D03*
X98175000Y-86495000D03*
X97525000Y-86495000D03*
X97525000Y-93505000D03*
X98175000Y-93505000D03*
X98825000Y-93505000D03*
X99475000Y-93505000D03*
X100125000Y-93505000D03*
X100775000Y-93505000D03*
X101425000Y-93505000D03*
X102075000Y-93505000D03*
X102725000Y-93505000D03*
X103375000Y-93505000D03*
X104025000Y-93505000D03*
X104675000Y-93505000D03*
D29*
X86270001Y-63100001D03*
X86270001Y-63750001D03*
X86270001Y-64400001D03*
X86270001Y-65050001D03*
X81970001Y-65050001D03*
X81970001Y-64400001D03*
X81970001Y-63750001D03*
X81970001Y-63100001D03*
D30*
X80536400Y-105114999D03*
X80536400Y-104465001D03*
X80536400Y-103814999D03*
X80536400Y-103165001D03*
X84623600Y-103165001D03*
X84623600Y-103814999D03*
X84623600Y-104465001D03*
X84623600Y-105114999D03*
D28*
X97525000Y-62395000D03*
X98175000Y-62395000D03*
X98825000Y-62395000D03*
X99475000Y-62395000D03*
X100125000Y-62395000D03*
X100775000Y-62395000D03*
X101425000Y-62395000D03*
X102075000Y-62395000D03*
X102725000Y-62395000D03*
X103375000Y-62395000D03*
X104025000Y-62395000D03*
X104675000Y-62395000D03*
X104675000Y-69405000D03*
X104025000Y-69405000D03*
X103375000Y-69405000D03*
X102725000Y-69405000D03*
X102075000Y-69405000D03*
X101425000Y-69405000D03*
X100775000Y-69405000D03*
X100125000Y-69405000D03*
X99475000Y-69405000D03*
X98825000Y-69405000D03*
X98175000Y-69405000D03*
X97525000Y-69405000D03*
D12*
X104040000Y-109070000D03*
D11*
X104040000Y-106530000D03*
X106580000Y-106530000D03*
D12*
X106580000Y-109070000D03*
X109120000Y-109070000D03*
D11*
X109120000Y-106530000D03*
X111660000Y-106530000D03*
D12*
X111660000Y-109070000D03*
D11*
X156380000Y-108870000D03*
D12*
X158920000Y-108870000D03*
X83020000Y-84460000D03*
D11*
X83020000Y-87000000D03*
X83020000Y-89540000D03*
X83020000Y-92080000D03*
X112776000Y-74930000D03*
X112776000Y-77470000D03*
X112776000Y-80010000D03*
D12*
X112776000Y-82550000D03*
D20*
X81800000Y-67100000D03*
X83700000Y-67100000D03*
D22*
X82750000Y-58000000D03*
X85250000Y-58000000D03*
D15*
X86950000Y-66850000D03*
X86950000Y-68750000D03*
D22*
X91024999Y-60554999D03*
X88524999Y-60554999D03*
D20*
X91450000Y-122200000D03*
X93350000Y-122200000D03*
D15*
X76000000Y-118050000D03*
X76000000Y-119950000D03*
D20*
X90600000Y-84870000D03*
X92500000Y-84870000D03*
D31*
X99450000Y-75300000D03*
X101350000Y-75300000D03*
X101350000Y-77500000D03*
X100400000Y-77500000D03*
X99450000Y-77500000D03*
D32*
X95899999Y-90891400D03*
X94600001Y-90891400D03*
X94600001Y-88808600D03*
X95250000Y-88808600D03*
X95899999Y-88808600D03*
D33*
X89538600Y-118130001D03*
X89538600Y-118780000D03*
X89538600Y-119429999D03*
X91621400Y-119429999D03*
X91621400Y-118130001D03*
D34*
X103610000Y-78760000D03*
X104260000Y-78760000D03*
X104920000Y-78760000D03*
X105570000Y-78760000D03*
X105570000Y-76560000D03*
X104920000Y-76560000D03*
X104260000Y-76560000D03*
X103610000Y-76560000D03*
D35*
X101700000Y-115820000D03*
X101700000Y-116470000D03*
X101700000Y-117130000D03*
X101700000Y-117780000D03*
X99500000Y-117780000D03*
X99500000Y-117130000D03*
X99500000Y-116470000D03*
X99500000Y-115820000D03*
D11*
X110236000Y-80010000D03*
D12*
X110236000Y-82550000D03*
X110236000Y-74930000D03*
D11*
X110236000Y-77470000D03*
X99200000Y-109540000D03*
D12*
X99200000Y-107000000D03*
X96660000Y-107000000D03*
D11*
X96660000Y-109540000D03*
D36*
X146770000Y-126470000D03*
X146770000Y-125200000D03*
X148040000Y-126470000D03*
X148040000Y-125200000D03*
X149310000Y-126470000D03*
X149310000Y-125200000D03*
X150580000Y-126470000D03*
X150580000Y-125200000D03*
X151850000Y-126470000D03*
X151850000Y-125200000D03*
X153120000Y-126470000D03*
X153120000Y-125200000D03*
X154390000Y-126470000D03*
X154390000Y-125200000D03*
X155660000Y-126470000D03*
X155660000Y-125200000D03*
X156930000Y-126470000D03*
X156930000Y-125200000D03*
X158200000Y-126470000D03*
D37*
X158200000Y-125200000D03*
D10*
G36*
X127680602Y-109640000D02*
G01*
X127680602Y-109615466D01*
X127685412Y-109566635D01*
X127694984Y-109518510D01*
X127709228Y-109471555D01*
X127728005Y-109426222D01*
X127751136Y-109382949D01*
X127778396Y-109342150D01*
X127809524Y-109304221D01*
X127844221Y-109269524D01*
X127882150Y-109238396D01*
X127922949Y-109211136D01*
X127966222Y-109188005D01*
X128011555Y-109169228D01*
X128058510Y-109154984D01*
X128106635Y-109145412D01*
X128155466Y-109140602D01*
X128180000Y-109140602D01*
X128180000Y-109140000D01*
X128680000Y-109140000D01*
X128680000Y-109140602D01*
X128704534Y-109140602D01*
X128753365Y-109145412D01*
X128801490Y-109154984D01*
X128848445Y-109169228D01*
X128893778Y-109188005D01*
X128937051Y-109211136D01*
X128977850Y-109238396D01*
X129015779Y-109269524D01*
X129050476Y-109304221D01*
X129081604Y-109342150D01*
X129108864Y-109382949D01*
X129131995Y-109426222D01*
X129150772Y-109471555D01*
X129165016Y-109518510D01*
X129174588Y-109566635D01*
X129179398Y-109615466D01*
X129179398Y-109640000D01*
X129180000Y-109640000D01*
X129180000Y-110140000D01*
X127680000Y-110140000D01*
X127680000Y-109640000D01*
X127680602Y-109640000D01*
G37*
G36*
X129180000Y-110440000D02*
G01*
X129180000Y-110940000D01*
X129179398Y-110940000D01*
X129179398Y-110964534D01*
X129174588Y-111013365D01*
X129165016Y-111061490D01*
X129150772Y-111108445D01*
X129131995Y-111153778D01*
X129108864Y-111197051D01*
X129081604Y-111237850D01*
X129050476Y-111275779D01*
X129015779Y-111310476D01*
X128977850Y-111341604D01*
X128937051Y-111368864D01*
X128893778Y-111391995D01*
X128848445Y-111410772D01*
X128801490Y-111425016D01*
X128753365Y-111434588D01*
X128704534Y-111439398D01*
X128680000Y-111439398D01*
X128680000Y-111440000D01*
X128180000Y-111440000D01*
X128180000Y-111439398D01*
X128155466Y-111439398D01*
X128106635Y-111434588D01*
X128058510Y-111425016D01*
X128011555Y-111410772D01*
X127966222Y-111391995D01*
X127922949Y-111368864D01*
X127882150Y-111341604D01*
X127844221Y-111310476D01*
X127809524Y-111275779D01*
X127778396Y-111237850D01*
X127751136Y-111197051D01*
X127728005Y-111153778D01*
X127709228Y-111108445D01*
X127694984Y-111061490D01*
X127685412Y-111013365D01*
X127680602Y-110964534D01*
X127680602Y-110940000D01*
X127680000Y-110940000D01*
X127680000Y-110440000D01*
X129180000Y-110440000D01*
G37*
D11*
X114110000Y-57460000D03*
X114110000Y-54920000D03*
X111570000Y-57460000D03*
D12*
X111570000Y-54920000D03*
D37*
X109340000Y-89405000D03*
D36*
X109340000Y-88135000D03*
X110610000Y-89405000D03*
X110610000Y-88135000D03*
X111880000Y-89405000D03*
X111880000Y-88135000D03*
X113150000Y-89405000D03*
X113150000Y-88135000D03*
X114420000Y-89405000D03*
X114420000Y-88135000D03*
X114490000Y-93469000D03*
X114490000Y-94739000D03*
X113220000Y-93469000D03*
X113220000Y-94739000D03*
X111950000Y-93469000D03*
X111950000Y-94739000D03*
X110680000Y-93469000D03*
X110680000Y-94739000D03*
X109410000Y-93469000D03*
D37*
X109410000Y-94739000D03*
X109340000Y-63865000D03*
D36*
X109340000Y-62595000D03*
X110610000Y-63865000D03*
X110610000Y-62595000D03*
X111880000Y-63865000D03*
X111880000Y-62595000D03*
X113150000Y-63865000D03*
X113150000Y-62595000D03*
X114420000Y-63865000D03*
X114420000Y-62595000D03*
X114420000Y-67929000D03*
X114420000Y-69199000D03*
X113150000Y-67929000D03*
X113150000Y-69199000D03*
X111880000Y-67929000D03*
X111880000Y-69199000D03*
X110610000Y-67929000D03*
X110610000Y-69199000D03*
X109340000Y-67929000D03*
D37*
X109340000Y-69199000D03*
D18*
X123000000Y-107900000D03*
X123000000Y-110100000D03*
X125000000Y-107900000D03*
X125000000Y-110100000D03*
M02*
