G04 #@! TF.GenerationSoftware,KiCad,Pcbnew,(6.0.5-0)*
G04 #@! TF.CreationDate,2023-01-18T02:57:05+09:00*
G04 #@! TF.ProjectId,qPCR-main,71504352-2d6d-4616-996e-2e6b69636164,rev?*
G04 #@! TF.SameCoordinates,Original*
G04 #@! TF.FileFunction,Soldermask,Top*
G04 #@! TF.FilePolarity,Negative*
%FSLAX46Y46*%
G04 Gerber Fmt 4.6, Leading zero omitted, Abs format (unit mm)*
G04 Created by KiCad (PCBNEW (6.0.5-0)) date 2023-01-18 02:57:05*
%MOMM*%
%LPD*%
G01*
G04 APERTURE LIST*
G04 Aperture macros list*
%AMRoundRect*
0 Rectangle with rounded corners*
0 $1 Rounding radius*
0 $2 $3 $4 $5 $6 $7 $8 $9 X,Y pos of 4 corners*
0 Add a 4 corners polygon primitive as box body*
4,1,4,$2,$3,$4,$5,$6,$7,$8,$9,$2,$3,0*
0 Add four circle primitives for the rounded corners*
1,1,$1+$1,$2,$3*
1,1,$1+$1,$4,$5*
1,1,$1+$1,$6,$7*
1,1,$1+$1,$8,$9*
0 Add four rect primitives between the rounded corners*
20,1,$1+$1,$2,$3,$4,$5,0*
20,1,$1+$1,$4,$5,$6,$7,0*
20,1,$1+$1,$6,$7,$8,$9,0*
20,1,$1+$1,$8,$9,$2,$3,0*%
%AMHorizOval*
0 Thick line with rounded ends*
0 $1 width*
0 $2 $3 position (X,Y) of the first rounded end (center of the circle)*
0 $4 $5 position (X,Y) of the second rounded end (center of the circle)*
0 Add line between two ends*
20,1,$1,$2,$3,$4,$5,0*
0 Add two circle primitives to create the rounded ends*
1,1,$1,$2,$3*
1,1,$1,$4,$5*%
%AMRotRect*
0 Rectangle, with rotation*
0 The origin of the aperture is its center*
0 $1 length*
0 $2 width*
0 $3 Rotation angle, in degrees counterclockwise*
0 Add horizontal line*
21,1,$1,$2,0,0,$3*%
%AMFreePoly0*
4,1,22,0.500000,-0.750000,0.000000,-0.750000,0.000000,-0.745033,-0.079941,-0.743568,-0.215256,-0.701293,-0.333266,-0.622738,-0.424486,-0.514219,-0.481581,-0.384460,-0.499164,-0.250000,-0.500000,-0.250000,-0.500000,0.250000,-0.499164,0.250000,-0.499963,0.256109,-0.478152,0.396186,-0.417904,0.524511,-0.324060,0.630769,-0.204165,0.706417,-0.067858,0.745374,0.000000,0.744959,0.000000,0.750000,
0.500000,0.750000,0.500000,-0.750000,0.500000,-0.750000,$1*%
%AMFreePoly1*
4,1,20,0.000000,0.744959,0.073905,0.744508,0.209726,0.703889,0.328688,0.626782,0.421226,0.519385,0.479903,0.390333,0.500000,0.250000,0.500000,-0.250000,0.499851,-0.262216,0.476331,-0.402017,0.414519,-0.529596,0.319384,-0.634700,0.198574,-0.708877,0.061801,-0.746166,0.000000,-0.745033,0.000000,-0.750000,-0.500000,-0.750000,-0.500000,0.750000,0.000000,0.750000,0.000000,0.744959,
0.000000,0.744959,$1*%
G04 Aperture macros list end*
%ADD10C,0.475000*%
%ADD11C,0.100000*%
%ADD12R,1.700000X1.700000*%
%ADD13O,1.700000X1.700000*%
%ADD14C,2.000000*%
%ADD15FreePoly0,180.000000*%
%ADD16FreePoly1,180.000000*%
%ADD17RoundRect,0.150000X-0.150000X0.587500X-0.150000X-0.587500X0.150000X-0.587500X0.150000X0.587500X0*%
%ADD18R,2.400000X2.400000*%
%ADD19C,2.400000*%
%ADD20RoundRect,0.250000X-0.250000X-0.475000X0.250000X-0.475000X0.250000X0.475000X-0.250000X0.475000X0*%
%ADD21R,2.300000X2.500000*%
%ADD22RoundRect,0.250000X-1.425000X0.362500X-1.425000X-0.362500X1.425000X-0.362500X1.425000X0.362500X0*%
%ADD23R,3.200000X1.000000*%
%ADD24R,1.900000X5.100000*%
%ADD25R,2.100000X5.100000*%
%ADD26RoundRect,0.225000X0.225000X0.250000X-0.225000X0.250000X-0.225000X-0.250000X0.225000X-0.250000X0*%
%ADD27RoundRect,0.225000X-0.225000X-0.250000X0.225000X-0.250000X0.225000X0.250000X-0.225000X0.250000X0*%
%ADD28R,1.800000X2.500000*%
%ADD29RoundRect,0.200000X-0.275000X0.200000X-0.275000X-0.200000X0.275000X-0.200000X0.275000X0.200000X0*%
%ADD30RoundRect,0.200000X0.275000X-0.200000X0.275000X0.200000X-0.275000X0.200000X-0.275000X-0.200000X0*%
%ADD31RoundRect,0.069795X-0.765205X-0.109794X0.765205X-0.109794X0.765205X0.109794X-0.765205X0.109794X0*%
%ADD32RoundRect,0.150000X-0.150000X0.825000X-0.150000X-0.825000X0.150000X-0.825000X0.150000X0.825000X0*%
%ADD33RoundRect,0.225000X0.250000X-0.225000X0.250000X0.225000X-0.250000X0.225000X-0.250000X-0.225000X0*%
%ADD34RoundRect,0.225000X-0.250000X0.225000X-0.250000X-0.225000X0.250000X-0.225000X0.250000X0.225000X0*%
%ADD35RoundRect,0.250000X0.325000X1.100000X-0.325000X1.100000X-0.325000X-1.100000X0.325000X-1.100000X0*%
%ADD36RoundRect,0.109795X-0.552705X-0.109795X0.552705X-0.109795X0.552705X0.109795X-0.552705X0.109795X0*%
%ADD37RoundRect,0.150000X0.150000X-0.512500X0.150000X0.512500X-0.150000X0.512500X-0.150000X-0.512500X0*%
%ADD38R,2.400000X4.680000*%
%ADD39RoundRect,0.100000X0.687500X0.100000X-0.687500X0.100000X-0.687500X-0.100000X0.687500X-0.100000X0*%
%ADD40RoundRect,0.200000X0.200000X0.275000X-0.200000X0.275000X-0.200000X-0.275000X0.200000X-0.275000X0*%
%ADD41R,1.600000X1.600000*%
%ADD42O,1.600000X1.600000*%
%ADD43R,1.473200X0.558800*%
%ADD44RoundRect,0.200000X-0.200000X-0.275000X0.200000X-0.275000X0.200000X0.275000X-0.200000X0.275000X0*%
%ADD45RoundRect,0.072295X0.072295X0.552705X-0.072295X0.552705X-0.072295X-0.552705X0.072295X-0.552705X0*%
%ADD46RoundRect,0.600000X0.600000X0.899999X-0.600000X0.899999X-0.600000X-0.899999X0.600000X-0.899999X0*%
%ADD47RoundRect,0.139700X-0.139700X0.590550X-0.139700X-0.590550X0.139700X-0.590550X0.139700X0.590550X0*%
%ADD48R,3.708400X2.717800*%
%ADD49C,2.108200*%
%ADD50C,1.498600*%
%ADD51C,1.701800*%
%ADD52C,2.006600*%
%ADD53C,2.700000*%
%ADD54C,1.700000*%
%ADD55R,1.320800X0.558800*%
%ADD56R,1.397000X0.889000*%
%ADD57R,0.863600X0.762000*%
%ADD58R,3.500000X3.500000*%
%ADD59RoundRect,0.750000X0.750000X1.000000X-0.750000X1.000000X-0.750000X-1.000000X0.750000X-1.000000X0*%
%ADD60RoundRect,0.875000X0.875000X0.875000X-0.875000X0.875000X-0.875000X-0.875000X0.875000X-0.875000X0*%
%ADD61R,1.500000X2.000000*%
%ADD62R,3.800000X2.000000*%
%ADD63R,0.889000X1.397000*%
%ADD64R,0.762000X0.863600*%
%ADD65RoundRect,0.114300X0.643700X0.114300X-0.643700X0.114300X-0.643700X-0.114300X0.643700X-0.114300X0*%
%ADD66RoundRect,0.114300X1.929700X2.090000X-1.929700X2.090000X-1.929700X-2.090000X1.929700X-2.090000X0*%
%ADD67RoundRect,0.250000X1.100000X-0.325000X1.100000X0.325000X-1.100000X0.325000X-1.100000X-0.325000X0*%
%ADD68RoundRect,0.812500X0.812500X1.687500X-0.812500X1.687500X-0.812500X-1.687500X0.812500X-1.687500X0*%
%ADD69R,1.000000X1.000000*%
%ADD70O,1.000000X1.000000*%
%ADD71O,2.400000X2.400000*%
%ADD72C,6.000000*%
%ADD73RotRect,1.700000X1.700000X150.000000*%
%ADD74HorizOval,1.700000X0.000000X0.000000X0.000000X0.000000X0*%
%ADD75R,0.558800X1.320800*%
%ADD76RoundRect,0.375000X1.275000X-0.375000X1.275000X0.375000X-1.275000X0.375000X-1.275000X-0.375000X0*%
%ADD77RoundRect,0.375000X0.375000X1.375000X-0.375000X1.375000X-0.375000X-1.375000X0.375000X-1.375000X0*%
%ADD78RoundRect,0.375000X-1.375000X0.375000X-1.375000X-0.375000X1.375000X-0.375000X1.375000X0.375000X0*%
%ADD79R,1.219200X3.098800*%
%ADD80RoundRect,0.150000X0.512500X0.150000X-0.512500X0.150000X-0.512500X-0.150000X0.512500X-0.150000X0*%
%ADD81RoundRect,0.250000X0.250000X0.475000X-0.250000X0.475000X-0.250000X-0.475000X0.250000X-0.475000X0*%
%ADD82RoundRect,0.250000X-0.325000X-1.100000X0.325000X-1.100000X0.325000X1.100000X-0.325000X1.100000X0*%
%ADD83R,3.500000X2.000000*%
%ADD84R,7.000000X7.000000*%
%ADD85RotRect,1.800000X1.800000X240.000000*%
%ADD86C,1.800000*%
%ADD87O,2.201600X4.301600*%
G04 APERTURE END LIST*
D10*
X100225003Y-35109990D02*
G75*
G03*
X100225003Y-35109990I-400000J0D01*
G01*
X88300000Y-147500000D02*
G75*
G03*
X88300000Y-147500000I-400000J0D01*
G01*
X136536010Y-85589999D02*
G75*
G03*
X136536010Y-85589999I-400000J0D01*
G01*
X178724993Y-40299996D02*
G75*
G03*
X178724993Y-40299996I-400000J0D01*
G01*
X160705010Y-87409999D02*
G75*
G03*
X160705010Y-87409999I-400000J0D01*
G01*
X160140000Y-100510000D02*
G75*
G03*
X160140000Y-100510000I-400000J0D01*
G01*
X159540000Y-137010000D02*
G75*
G03*
X159540000Y-137010000I-400000J0D01*
G01*
G36*
X159761606Y-69458992D02*
G01*
X155773806Y-69458992D01*
X155773806Y-65140992D01*
X159761606Y-65140992D01*
X159761606Y-69458992D01*
G37*
D11*
X159761606Y-69458992D02*
X155773806Y-69458992D01*
X155773806Y-65140992D01*
X159761606Y-65140992D01*
X159761606Y-69458992D01*
D12*
X105370000Y-148000000D03*
D13*
X107910000Y-148000000D03*
X110450000Y-148000000D03*
X112990000Y-148000000D03*
X115530000Y-148000000D03*
D14*
X129000000Y-39100000D03*
X125500000Y-39100000D03*
D12*
X104399994Y-103105001D03*
D13*
X104399994Y-100565001D03*
D12*
X84095000Y-81985000D03*
D13*
X84095000Y-79445000D03*
X84095000Y-76905000D03*
X84095000Y-74365000D03*
X84095000Y-71825000D03*
X84095000Y-69285000D03*
X84095000Y-66745000D03*
X84095000Y-64205000D03*
D15*
X147140000Y-130800000D03*
D16*
X145840000Y-130800000D03*
D17*
X97560000Y-79732500D03*
X95660000Y-79732500D03*
X96610000Y-81607500D03*
X95870000Y-92062500D03*
X93970000Y-92062500D03*
X94920000Y-93937500D03*
X92926000Y-104512500D03*
X91026000Y-104512500D03*
X91976000Y-106387500D03*
X92926000Y-117512500D03*
X91026000Y-117512500D03*
X91976000Y-119387500D03*
X92926000Y-130512500D03*
X91026000Y-130512500D03*
X91976000Y-132387500D03*
D18*
X85546006Y-101319990D03*
D19*
X85546006Y-96319990D03*
D18*
X85546006Y-114319990D03*
D19*
X85546006Y-109319990D03*
D18*
X85546006Y-127319989D03*
D19*
X85546006Y-122319989D03*
D18*
X85546006Y-140319989D03*
D19*
X85546006Y-135319989D03*
D20*
X138902505Y-123797500D03*
X140802505Y-123797500D03*
D21*
X93220007Y-69619995D03*
X93220007Y-65319995D03*
X93220007Y-72799990D03*
X93220007Y-77099990D03*
D22*
X98430000Y-83457500D03*
X98430000Y-89382500D03*
X93936000Y-95857500D03*
X93936000Y-101782500D03*
X93936000Y-108857500D03*
X93936000Y-114782500D03*
X93936000Y-121857500D03*
X93936000Y-127782500D03*
X93936000Y-134857500D03*
X93936000Y-140782500D03*
D23*
X93220007Y-60900011D03*
X93220007Y-54700011D03*
D24*
X101395000Y-73880000D03*
D25*
X97195000Y-73880000D03*
D26*
X107004988Y-63677800D03*
X105454988Y-63677800D03*
D27*
X105454988Y-75107800D03*
X107004988Y-75107800D03*
D18*
X90030000Y-88090000D03*
D19*
X90030000Y-83090000D03*
D14*
X137500000Y-39100000D03*
X134000000Y-39100000D03*
X120500000Y-39100000D03*
X117000000Y-39100000D03*
D28*
X134590000Y-48790000D03*
X134590000Y-44790000D03*
X138400000Y-48790000D03*
X138400000Y-44790000D03*
D17*
X135540000Y-51452500D03*
X133640000Y-51452500D03*
X134590000Y-53327500D03*
X139350000Y-51452500D03*
X137450000Y-51452500D03*
X138400000Y-53327500D03*
D29*
X123725991Y-58779021D03*
X123725991Y-60429021D03*
D30*
X125503991Y-60429021D03*
X125503991Y-58779021D03*
D31*
X110245846Y-108425983D03*
X110245846Y-109075981D03*
X110245846Y-109725982D03*
X110245846Y-110375982D03*
X110245846Y-111025982D03*
X110245846Y-111675982D03*
X110245846Y-112325982D03*
X110245846Y-112975982D03*
X110245846Y-113625982D03*
X110245846Y-114275982D03*
X110245846Y-114925983D03*
X110245846Y-115575981D03*
X117445846Y-115575981D03*
X117445846Y-114925983D03*
X117445846Y-114275982D03*
X117445846Y-113625982D03*
X117445846Y-112975982D03*
X117445846Y-112325982D03*
X117445846Y-111675982D03*
X117445846Y-111025982D03*
X117445846Y-110375982D03*
X117445846Y-109725982D03*
X117445846Y-109075981D03*
X117445846Y-108425983D03*
D32*
X135865000Y-118745000D03*
X134595000Y-118745000D03*
X133325000Y-118745000D03*
X132055000Y-118745000D03*
X130785000Y-118745000D03*
X129515000Y-118745000D03*
X128245000Y-118745000D03*
X126975000Y-118745000D03*
X126975000Y-123695000D03*
X128245000Y-123695000D03*
X129515000Y-123695000D03*
X130785000Y-123695000D03*
X132055000Y-123695000D03*
X133325000Y-123695000D03*
X134595000Y-123695000D03*
X135865000Y-123695000D03*
D31*
X121135855Y-108425983D03*
X121135855Y-109075981D03*
X121135855Y-109725982D03*
X121135855Y-110375982D03*
X121135855Y-111025982D03*
X121135855Y-111675982D03*
X121135855Y-112325982D03*
X121135855Y-112975982D03*
X121135855Y-113625982D03*
X121135855Y-114275982D03*
X121135855Y-114925983D03*
X121135855Y-115575981D03*
X128335855Y-115575981D03*
X128335855Y-114925983D03*
X128335855Y-114275982D03*
X128335855Y-113625982D03*
X128335855Y-112975982D03*
X128335855Y-112325982D03*
X128335855Y-111675982D03*
X128335855Y-111025982D03*
X128335855Y-110375982D03*
X128335855Y-109725982D03*
X128335855Y-109075981D03*
X128335855Y-108425983D03*
D33*
X104069998Y-112284988D03*
X104069998Y-110734988D03*
D34*
X143430000Y-104765000D03*
X143430000Y-106315000D03*
X105885005Y-106405000D03*
X105885005Y-107955000D03*
D27*
X117164998Y-124822407D03*
X118714998Y-124822407D03*
D35*
X119414998Y-118369994D03*
X116464998Y-118369994D03*
D36*
X121562500Y-121075000D03*
X121562500Y-121725000D03*
X121562500Y-122375000D03*
X121562500Y-123025000D03*
X123837500Y-123025000D03*
X123837500Y-122375000D03*
X123837500Y-121725000D03*
X123837500Y-121075000D03*
D37*
X105887505Y-112127500D03*
X106837505Y-112127500D03*
X107787505Y-112127500D03*
X107787505Y-109852500D03*
X105887505Y-109852500D03*
D38*
X136804400Y-112471200D03*
D39*
X139666900Y-116046200D03*
X139666900Y-115396200D03*
X139666900Y-114746200D03*
X139666900Y-114096200D03*
X139666900Y-113446200D03*
X139666900Y-112796200D03*
X139666900Y-112146200D03*
X139666900Y-111496200D03*
X139666900Y-110846200D03*
X139666900Y-110196200D03*
X139666900Y-109546200D03*
X139666900Y-108896200D03*
X133941900Y-108896200D03*
X133941900Y-109546200D03*
X133941900Y-110196200D03*
X133941900Y-110846200D03*
X133941900Y-111496200D03*
X133941900Y-112146200D03*
X133941900Y-112796200D03*
X133941900Y-113446200D03*
X133941900Y-114096200D03*
X133941900Y-114746200D03*
X133941900Y-115396200D03*
X133941900Y-116046200D03*
D40*
X118764998Y-122765007D03*
X117114998Y-122765007D03*
D32*
X114255000Y-119395620D03*
X112985000Y-119395620D03*
X111715000Y-119395620D03*
X110445000Y-119395620D03*
X109175000Y-119395620D03*
X107905000Y-119395620D03*
X106635000Y-119395620D03*
X105365000Y-119395620D03*
X105365000Y-124345620D03*
X106635000Y-124345620D03*
X107905000Y-124345620D03*
X109175000Y-124345620D03*
X110445000Y-124345620D03*
X111715000Y-124345620D03*
X112985000Y-124345620D03*
X114255000Y-124345620D03*
D41*
X106585004Y-135149996D03*
D42*
X109125004Y-135149996D03*
X111665004Y-135149996D03*
X114205004Y-135149996D03*
X116745004Y-135149996D03*
X119285004Y-135149996D03*
X121825004Y-135149996D03*
X124365004Y-135149996D03*
X124365004Y-127529996D03*
X121825004Y-127529996D03*
X119285004Y-127529996D03*
X116745004Y-127529996D03*
X114205004Y-127529996D03*
X111665004Y-127529996D03*
X109125004Y-127529996D03*
X106585004Y-127529996D03*
D43*
X121416191Y-117419993D03*
X121416191Y-118369994D03*
X121416191Y-119319995D03*
X123803791Y-119319995D03*
X123803791Y-117419993D03*
D44*
X117114998Y-120860007D03*
X118764998Y-120860007D03*
X105965007Y-117320009D03*
X107615007Y-117320009D03*
D40*
X121975000Y-124690000D03*
X120325000Y-124690000D03*
D44*
X123085000Y-124640000D03*
X124735000Y-124640000D03*
D45*
X139019991Y-104340000D03*
X138519991Y-104340000D03*
X138019991Y-104340000D03*
X137519991Y-104340000D03*
X137019991Y-104340000D03*
X136519991Y-104340000D03*
X136019992Y-104340000D03*
X135519990Y-104340000D03*
X135019991Y-104340000D03*
X134519990Y-104340000D03*
X134019991Y-104340000D03*
X133519992Y-104340000D03*
X133019990Y-104340000D03*
X132519991Y-104340000D03*
X132019990Y-104340000D03*
X131519991Y-104340000D03*
X131019992Y-104340000D03*
X130519990Y-104340000D03*
X130019991Y-104340000D03*
X129519992Y-104340000D03*
X129019991Y-104340000D03*
X128519992Y-104340000D03*
X128019990Y-104340000D03*
X127519991Y-104340000D03*
X127019992Y-104340000D03*
X126519991Y-104340000D03*
X126019992Y-104340000D03*
X125519990Y-104340000D03*
X125019991Y-104340000D03*
X124519992Y-104340000D03*
X124019991Y-104340000D03*
X123519992Y-104340000D03*
X123019990Y-104340000D03*
X122519991Y-104340000D03*
X122019992Y-104340000D03*
X121519990Y-104340000D03*
X121019991Y-104340000D03*
X120519990Y-104340000D03*
X120019991Y-104340000D03*
X119519992Y-104340000D03*
X119019990Y-104340000D03*
X118519991Y-104340000D03*
X118019990Y-104340000D03*
X117519991Y-104340000D03*
X117019992Y-104340000D03*
X116519990Y-104340000D03*
X116019991Y-104340000D03*
X115519990Y-104340000D03*
X115019991Y-104340000D03*
X114519992Y-104340000D03*
X114019990Y-104340000D03*
X113519991Y-104340000D03*
X113019992Y-104340000D03*
X112519993Y-104340000D03*
X112019994Y-104340000D03*
X111519995Y-104340000D03*
X111019996Y-104340000D03*
X110519997Y-104340000D03*
X110019998Y-104340000D03*
X109519999Y-104340000D03*
D46*
X140819991Y-102015000D03*
X107720003Y-102015000D03*
D47*
X103715000Y-63925850D03*
X102445000Y-63925850D03*
X101175000Y-63925850D03*
X99905000Y-63925850D03*
X99905000Y-69374150D03*
X101175000Y-69374150D03*
X102445000Y-69374150D03*
X103715000Y-69374150D03*
D48*
X101810000Y-66650000D03*
D14*
X163669312Y-61854869D03*
X163669312Y-58354869D03*
D49*
X172059312Y-44714869D03*
D50*
X170109312Y-42064869D03*
D51*
X166709312Y-42064869D03*
D52*
X162759312Y-42864869D03*
D49*
X163359312Y-47364869D03*
X161359312Y-51514869D03*
D50*
X163309312Y-54164869D03*
D51*
X166709312Y-54164869D03*
D52*
X171259312Y-53364869D03*
D49*
X170659312Y-48864869D03*
D53*
X146249312Y-39724869D03*
D54*
X142999312Y-41824869D03*
X142999312Y-46324869D03*
D14*
X145349312Y-49824869D03*
X154849312Y-49824869D03*
D54*
X153899312Y-53324869D03*
X153899312Y-57824869D03*
D53*
X150649312Y-59924869D03*
D34*
X102089991Y-88135008D03*
X102089991Y-89685008D03*
D55*
X123942805Y-43760212D03*
X123942805Y-45639812D03*
X126127205Y-44700012D03*
X129107794Y-43760212D03*
X129107794Y-45639812D03*
X131292194Y-44700012D03*
X118777791Y-43760212D03*
X118777791Y-45639812D03*
X120962191Y-44700012D03*
X113612803Y-43760212D03*
X113612803Y-45639812D03*
X115797203Y-44700012D03*
D56*
X93969307Y-62770004D03*
D57*
X92204007Y-62770004D03*
D58*
X171828993Y-67310000D03*
D59*
X177828993Y-67310000D03*
D60*
X174828993Y-62610000D03*
D61*
X109769991Y-87400009D03*
X107469991Y-87400009D03*
X105169991Y-87400009D03*
D62*
X107469991Y-93700009D03*
D26*
X107004988Y-65582800D03*
X105454988Y-65582800D03*
D44*
X105404988Y-67487800D03*
X107054988Y-67487800D03*
D63*
X159900000Y-73499300D03*
D64*
X159900000Y-71734000D03*
D65*
X161510206Y-69204992D03*
X161510206Y-67934992D03*
X161510206Y-66664992D03*
X161510206Y-65394992D03*
D66*
X157773206Y-67304292D03*
D65*
X155168206Y-67934992D03*
X155168206Y-66664992D03*
X155168206Y-65394992D03*
X155168206Y-69204992D03*
D67*
X163230000Y-73745000D03*
X163230000Y-70795000D03*
D35*
X157065000Y-73030000D03*
X154115000Y-73030000D03*
D68*
X152285006Y-68409998D03*
X141035006Y-68409998D03*
D14*
X112000000Y-39100000D03*
X108500000Y-39100000D03*
D12*
X122292008Y-53920949D03*
D13*
X122292008Y-51380949D03*
D12*
X126483008Y-53920949D03*
D13*
X126483008Y-51380949D03*
D69*
X105210000Y-45300000D03*
D70*
X103940000Y-45300000D03*
D69*
X105210000Y-42760000D03*
D70*
X103940000Y-42760000D03*
D69*
X105210000Y-40220000D03*
D70*
X103940000Y-40220000D03*
D12*
X117974999Y-53920949D03*
D13*
X117974999Y-51380949D03*
D12*
X113530000Y-53920945D03*
D13*
X113530000Y-51380945D03*
D29*
X130838000Y-65095000D03*
X130838000Y-66745000D03*
D30*
X120169991Y-66745010D03*
X120169991Y-65095010D03*
X127281991Y-66745010D03*
X127281991Y-65095010D03*
X129060000Y-66745000D03*
X129060000Y-65095000D03*
X121947991Y-66745010D03*
X121947991Y-65095010D03*
X123725991Y-66745010D03*
X123725991Y-65095010D03*
X125504000Y-66745000D03*
X125504000Y-65095000D03*
D29*
X130838000Y-69125000D03*
X130838000Y-70775000D03*
D30*
X127281991Y-60429021D03*
X127281991Y-58779021D03*
D29*
X127282000Y-69125000D03*
X127282000Y-70775000D03*
X129060000Y-69125000D03*
X129060000Y-70775000D03*
X125504000Y-69125000D03*
X125504000Y-70775000D03*
X123725991Y-69125000D03*
X123725991Y-70775000D03*
D30*
X131010000Y-115845000D03*
X131010000Y-114195000D03*
D19*
X88000000Y-77725000D03*
D71*
X88000000Y-57405000D03*
D72*
X158499995Y-120269995D03*
X100499995Y-94269995D03*
X158499995Y-143269995D03*
X158499995Y-94269995D03*
X100499995Y-120269995D03*
X100499995Y-143269995D03*
D12*
X105369995Y-141999995D03*
D13*
X105369995Y-144539995D03*
X107909995Y-141999995D03*
X107909995Y-144539995D03*
X110449995Y-141999995D03*
X110449995Y-144539995D03*
X112989995Y-141999995D03*
X112989995Y-144539995D03*
X115529995Y-141999995D03*
X115529995Y-144539995D03*
X118069995Y-141999995D03*
X118069995Y-144539995D03*
X120609995Y-141999995D03*
X120609995Y-144539995D03*
X123149995Y-141999995D03*
X123149995Y-144539995D03*
X125689995Y-141999995D03*
X125689995Y-144539995D03*
X128229995Y-141999995D03*
X128229995Y-144539995D03*
X130769995Y-141999995D03*
X130769995Y-144539995D03*
X133309995Y-141999995D03*
X133309995Y-144539995D03*
X135849995Y-141999995D03*
X135849995Y-144539995D03*
X138389995Y-141999995D03*
X138389995Y-144539995D03*
X140929995Y-141999995D03*
X140929995Y-144539995D03*
X143469995Y-141999995D03*
X143469995Y-144539995D03*
X146009995Y-141999995D03*
X146009995Y-144539995D03*
X148549995Y-141999995D03*
X148549995Y-144539995D03*
X151089995Y-141999995D03*
X151089995Y-144539995D03*
X153629995Y-141999995D03*
X153629995Y-144539995D03*
D73*
X95524183Y-49888397D03*
D74*
X93324478Y-48618397D03*
X96794183Y-47688692D03*
X94594478Y-46418692D03*
X98064183Y-45488988D03*
X95864478Y-44218988D03*
X99334183Y-43289283D03*
X97134478Y-42019283D03*
D44*
X105404988Y-73202800D03*
X107054988Y-73202800D03*
X105404988Y-51816000D03*
X107054988Y-51816000D03*
X105404988Y-50038000D03*
X107054988Y-50038000D03*
D75*
X102310200Y-50572200D03*
X104189800Y-50572200D03*
X103250000Y-48387800D03*
D67*
X102089991Y-81314998D03*
X102089991Y-78364998D03*
X102089991Y-86394998D03*
X102089991Y-83444998D03*
D14*
X176250008Y-77975988D03*
X176250008Y-82975988D03*
D76*
X169100008Y-83225988D03*
X169100008Y-77725988D03*
X172850008Y-82975988D03*
X172850008Y-77975988D03*
D77*
X178250008Y-80475988D03*
D78*
X168150008Y-88175988D03*
X176650008Y-88175988D03*
X168150008Y-72775988D03*
X176650008Y-72775988D03*
D35*
X106885000Y-59105800D03*
X103935000Y-59105800D03*
D26*
X107004988Y-61772800D03*
X105454988Y-61772800D03*
D79*
X98940010Y-57602704D03*
X98940010Y-52497304D03*
D80*
X140990005Y-121890000D03*
X140990005Y-120940000D03*
X140990005Y-119990000D03*
X138715005Y-119990000D03*
X138715005Y-121890000D03*
D26*
X144367502Y-119987500D03*
X142817502Y-119987500D03*
D30*
X107790005Y-108005000D03*
X107790005Y-106355000D03*
D40*
X107054988Y-71297800D03*
X105404988Y-71297800D03*
D44*
X109035004Y-117320009D03*
X110685004Y-117320009D03*
D81*
X144542502Y-123797500D03*
X142642502Y-123797500D03*
D82*
X104765000Y-114800000D03*
X107715000Y-114800000D03*
D83*
X106605000Y-79830000D03*
X106605000Y-84410000D03*
D84*
X114005000Y-82130000D03*
D26*
X107004988Y-77012800D03*
X105454988Y-77012800D03*
D44*
X105404988Y-69392800D03*
X107054988Y-69392800D03*
D26*
X144367502Y-121892500D03*
X142817502Y-121892500D03*
D82*
X98690000Y-61210000D03*
X101640000Y-61210000D03*
D12*
X103850000Y-53985000D03*
D13*
X106390000Y-53985000D03*
D85*
X84130000Y-59719988D03*
D86*
X82860000Y-61919693D03*
D69*
X104510000Y-117200000D03*
D87*
X140490004Y-88250007D03*
X144690004Y-88250007D03*
X148890004Y-88250007D03*
X153090004Y-88250007D03*
X140490004Y-82750007D03*
X144690004Y-82750007D03*
X148890004Y-82750007D03*
X153090004Y-82750007D03*
D69*
X104069998Y-107890005D03*
D70*
X104069998Y-109160005D03*
D69*
X104069998Y-105350005D03*
D70*
X104069998Y-106620005D03*
M02*
