G04 #@! TF.GenerationSoftware,KiCad,Pcbnew,(6.0.5-0)*
G04 #@! TF.CreationDate,2023-01-18T02:45:55+09:00*
G04 #@! TF.ProjectId,photo-single,70686f74-6f2d-4736-996e-676c652e6b69,rev?*
G04 #@! TF.SameCoordinates,Original*
G04 #@! TF.FileFunction,Paste,Top*
G04 #@! TF.FilePolarity,Positive*
%FSLAX46Y46*%
G04 Gerber Fmt 4.6, Leading zero omitted, Abs format (unit mm)*
G04 Created by KiCad (PCBNEW (6.0.5-0)) date 2023-01-18 02:45:55*
%MOMM*%
%LPD*%
G01*
G04 APERTURE LIST*
G04 Aperture macros list*
%AMRoundRect*
0 Rectangle with rounded corners*
0 $1 Rounding radius*
0 $2 $3 $4 $5 $6 $7 $8 $9 X,Y pos of 4 corners*
0 Add a 4 corners polygon primitive as box body*
4,1,4,$2,$3,$4,$5,$6,$7,$8,$9,$2,$3,0*
0 Add four circle primitives for the rounded corners*
1,1,$1+$1,$2,$3*
1,1,$1+$1,$4,$5*
1,1,$1+$1,$6,$7*
1,1,$1+$1,$8,$9*
0 Add four rect primitives between the rounded corners*
20,1,$1+$1,$2,$3,$4,$5,0*
20,1,$1+$1,$4,$5,$6,$7,0*
20,1,$1+$1,$6,$7,$8,$9,0*
20,1,$1+$1,$8,$9,$2,$3,0*%
G04 Aperture macros list end*
%ADD10C,0.475000*%
%ADD11C,0.120000*%
%ADD12RoundRect,0.072295X0.552705X-0.072295X0.552705X0.072295X-0.552705X0.072295X-0.552705X-0.072295X0*%
%ADD13RoundRect,0.600000X0.899999X-0.600000X0.899999X0.600000X-0.899999X0.600000X-0.899999X-0.600000X0*%
%ADD14R,1.200000X0.900000*%
G04 APERTURE END LIST*
D10*
X149473500Y-76000000D02*
G75*
G03*
X149473500Y-76000000I-237500J0D01*
G01*
X76473500Y-75000000D02*
G75*
G03*
X76473500Y-75000000I-237500J0D01*
G01*
X77473500Y-126500000D02*
G75*
G03*
X77473500Y-126500000I-237500J0D01*
G01*
X149473500Y-128000000D02*
G75*
G03*
X149473500Y-128000000I-237500J0D01*
G01*
G36*
X132802219Y-92302066D02*
G01*
X132202219Y-92302066D01*
X132202219Y-91302066D01*
X132802219Y-91302066D01*
X132802219Y-92302066D01*
G37*
D11*
X132802219Y-92302066D02*
X132202219Y-92302066D01*
X132202219Y-91302066D01*
X132802219Y-91302066D01*
X132802219Y-92302066D01*
G36*
X137332219Y-93652066D02*
G01*
X136732219Y-93652066D01*
X136732219Y-92652066D01*
X137332219Y-92652066D01*
X137332219Y-93652066D01*
G37*
X137332219Y-93652066D02*
X136732219Y-93652066D01*
X136732219Y-92652066D01*
X137332219Y-92652066D01*
X137332219Y-93652066D01*
G36*
X137332219Y-92352066D02*
G01*
X136732219Y-92352066D01*
X136732219Y-91352066D01*
X137332219Y-91352066D01*
X137332219Y-92352066D01*
G37*
X137332219Y-92352066D02*
X136732219Y-92352066D01*
X136732219Y-91352066D01*
X137332219Y-91352066D01*
X137332219Y-92352066D01*
G36*
X132802219Y-93702066D02*
G01*
X132202219Y-93702066D01*
X132202219Y-92702066D01*
X132802219Y-92702066D01*
X132802219Y-93702066D01*
G37*
X132802219Y-93702066D02*
X132202219Y-93702066D01*
X132202219Y-92702066D01*
X132802219Y-92702066D01*
X132802219Y-93702066D01*
G36*
X128332219Y-93652066D02*
G01*
X127732219Y-93652066D01*
X127732219Y-92652066D01*
X128332219Y-92652066D01*
X128332219Y-93652066D01*
G37*
X128332219Y-93652066D02*
X127732219Y-93652066D01*
X127732219Y-92652066D01*
X128332219Y-92652066D01*
X128332219Y-93652066D01*
G36*
X128332219Y-92352066D02*
G01*
X127732219Y-92352066D01*
X127732219Y-91352066D01*
X128332219Y-91352066D01*
X128332219Y-92352066D01*
G37*
X128332219Y-92352066D02*
X127732219Y-92352066D01*
X127732219Y-91352066D01*
X128332219Y-91352066D01*
X128332219Y-92352066D01*
G36*
X123802219Y-93702066D02*
G01*
X123202219Y-93702066D01*
X123202219Y-92702066D01*
X123802219Y-92702066D01*
X123802219Y-93702066D01*
G37*
X123802219Y-93702066D02*
X123202219Y-93702066D01*
X123202219Y-92702066D01*
X123802219Y-92702066D01*
X123802219Y-93702066D01*
G36*
X123802219Y-92302066D02*
G01*
X123202219Y-92302066D01*
X123202219Y-91302066D01*
X123802219Y-91302066D01*
X123802219Y-92302066D01*
G37*
X123802219Y-92302066D02*
X123202219Y-92302066D01*
X123202219Y-91302066D01*
X123802219Y-91302066D01*
X123802219Y-92302066D01*
G36*
X114802219Y-93702066D02*
G01*
X114202219Y-93702066D01*
X114202219Y-92702066D01*
X114802219Y-92702066D01*
X114802219Y-93702066D01*
G37*
X114802219Y-93702066D02*
X114202219Y-93702066D01*
X114202219Y-92702066D01*
X114802219Y-92702066D01*
X114802219Y-93702066D01*
G36*
X114802219Y-92302066D02*
G01*
X114202219Y-92302066D01*
X114202219Y-91302066D01*
X114802219Y-91302066D01*
X114802219Y-92302066D01*
G37*
X114802219Y-92302066D02*
X114202219Y-92302066D01*
X114202219Y-91302066D01*
X114802219Y-91302066D01*
X114802219Y-92302066D01*
G36*
X119332219Y-92352066D02*
G01*
X118732219Y-92352066D01*
X118732219Y-91352066D01*
X119332219Y-91352066D01*
X119332219Y-92352066D01*
G37*
X119332219Y-92352066D02*
X118732219Y-92352066D01*
X118732219Y-91352066D01*
X119332219Y-91352066D01*
X119332219Y-92352066D01*
G36*
X119332219Y-93652066D02*
G01*
X118732219Y-93652066D01*
X118732219Y-92652066D01*
X119332219Y-92652066D01*
X119332219Y-93652066D01*
G37*
X119332219Y-93652066D02*
X118732219Y-93652066D01*
X118732219Y-92652066D01*
X119332219Y-92652066D01*
X119332219Y-93652066D01*
G36*
X106582211Y-93652066D02*
G01*
X105982211Y-93652066D01*
X105982211Y-92652066D01*
X106582211Y-92652066D01*
X106582211Y-93652066D01*
G37*
X106582211Y-93652066D02*
X105982211Y-93652066D01*
X105982211Y-92652066D01*
X106582211Y-92652066D01*
X106582211Y-93652066D01*
G36*
X111112211Y-92302066D02*
G01*
X110512211Y-92302066D01*
X110512211Y-91302066D01*
X111112211Y-91302066D01*
X111112211Y-92302066D01*
G37*
X111112211Y-92302066D02*
X110512211Y-92302066D01*
X110512211Y-91302066D01*
X111112211Y-91302066D01*
X111112211Y-92302066D01*
G36*
X106582211Y-92352066D02*
G01*
X105982211Y-92352066D01*
X105982211Y-91352066D01*
X106582211Y-91352066D01*
X106582211Y-92352066D01*
G37*
X106582211Y-92352066D02*
X105982211Y-92352066D01*
X105982211Y-91352066D01*
X106582211Y-91352066D01*
X106582211Y-92352066D01*
G36*
X111112211Y-93702066D02*
G01*
X110512211Y-93702066D01*
X110512211Y-92702066D01*
X111112211Y-92702066D01*
X111112211Y-93702066D01*
G37*
X111112211Y-93702066D02*
X110512211Y-93702066D01*
X110512211Y-92702066D01*
X111112211Y-92702066D01*
X111112211Y-93702066D01*
G36*
X102112211Y-92302066D02*
G01*
X101512211Y-92302066D01*
X101512211Y-91302066D01*
X102112211Y-91302066D01*
X102112211Y-92302066D01*
G37*
X102112211Y-92302066D02*
X101512211Y-92302066D01*
X101512211Y-91302066D01*
X102112211Y-91302066D01*
X102112211Y-92302066D01*
G36*
X102112211Y-93702066D02*
G01*
X101512211Y-93702066D01*
X101512211Y-92702066D01*
X102112211Y-92702066D01*
X102112211Y-93702066D01*
G37*
X102112211Y-93702066D02*
X101512211Y-93702066D01*
X101512211Y-92702066D01*
X102112211Y-92702066D01*
X102112211Y-93702066D01*
G36*
X97582211Y-92352066D02*
G01*
X96982211Y-92352066D01*
X96982211Y-91352066D01*
X97582211Y-91352066D01*
X97582211Y-92352066D01*
G37*
X97582211Y-92352066D02*
X96982211Y-92352066D01*
X96982211Y-91352066D01*
X97582211Y-91352066D01*
X97582211Y-92352066D01*
G36*
X97582211Y-93652066D02*
G01*
X96982211Y-93652066D01*
X96982211Y-92652066D01*
X97582211Y-92652066D01*
X97582211Y-93652066D01*
G37*
X97582211Y-93652066D02*
X96982211Y-93652066D01*
X96982211Y-92652066D01*
X97582211Y-92652066D01*
X97582211Y-93652066D01*
G36*
X88582211Y-93652066D02*
G01*
X87982211Y-93652066D01*
X87982211Y-92652066D01*
X88582211Y-92652066D01*
X88582211Y-93652066D01*
G37*
X88582211Y-93652066D02*
X87982211Y-93652066D01*
X87982211Y-92652066D01*
X88582211Y-92652066D01*
X88582211Y-93652066D01*
G36*
X93112211Y-92302066D02*
G01*
X92512211Y-92302066D01*
X92512211Y-91302066D01*
X93112211Y-91302066D01*
X93112211Y-92302066D01*
G37*
X93112211Y-92302066D02*
X92512211Y-92302066D01*
X92512211Y-91302066D01*
X93112211Y-91302066D01*
X93112211Y-92302066D01*
G36*
X93112211Y-93702066D02*
G01*
X92512211Y-93702066D01*
X92512211Y-92702066D01*
X93112211Y-92702066D01*
X93112211Y-93702066D01*
G37*
X93112211Y-93702066D02*
X92512211Y-93702066D01*
X92512211Y-92702066D01*
X93112211Y-92702066D01*
X93112211Y-93702066D01*
G36*
X88582211Y-92352066D02*
G01*
X87982211Y-92352066D01*
X87982211Y-91352066D01*
X88582211Y-91352066D01*
X88582211Y-92352066D01*
G37*
X88582211Y-92352066D02*
X87982211Y-92352066D01*
X87982211Y-91352066D01*
X88582211Y-91352066D01*
X88582211Y-92352066D01*
G36*
X84112211Y-93702066D02*
G01*
X83512211Y-93702066D01*
X83512211Y-92702066D01*
X84112211Y-92702066D01*
X84112211Y-93702066D01*
G37*
X84112211Y-93702066D02*
X83512211Y-93702066D01*
X83512211Y-92702066D01*
X84112211Y-92702066D01*
X84112211Y-93702066D01*
G36*
X84112211Y-92302066D02*
G01*
X83512211Y-92302066D01*
X83512211Y-91302066D01*
X84112211Y-91302066D01*
X84112211Y-92302066D01*
G37*
X84112211Y-92302066D02*
X83512211Y-92302066D01*
X83512211Y-91302066D01*
X84112211Y-91302066D01*
X84112211Y-92302066D01*
G36*
X79582211Y-93652066D02*
G01*
X78982211Y-93652066D01*
X78982211Y-92652066D01*
X79582211Y-92652066D01*
X79582211Y-93652066D01*
G37*
X79582211Y-93652066D02*
X78982211Y-93652066D01*
X78982211Y-92652066D01*
X79582211Y-92652066D01*
X79582211Y-93652066D01*
G36*
X79582211Y-92352066D02*
G01*
X78982211Y-92352066D01*
X78982211Y-91352066D01*
X79582211Y-91352066D01*
X79582211Y-92352066D01*
G37*
X79582211Y-92352066D02*
X78982211Y-92352066D01*
X78982211Y-91352066D01*
X79582211Y-91352066D01*
X79582211Y-92352066D01*
G36*
X97582211Y-112651633D02*
G01*
X96982211Y-112651633D01*
X96982211Y-111651633D01*
X97582211Y-111651633D01*
X97582211Y-112651633D01*
G37*
X97582211Y-112651633D02*
X96982211Y-112651633D01*
X96982211Y-111651633D01*
X97582211Y-111651633D01*
X97582211Y-112651633D01*
G36*
X102112211Y-111301633D02*
G01*
X101512211Y-111301633D01*
X101512211Y-110301633D01*
X102112211Y-110301633D01*
X102112211Y-111301633D01*
G37*
X102112211Y-111301633D02*
X101512211Y-111301633D01*
X101512211Y-110301633D01*
X102112211Y-110301633D01*
X102112211Y-111301633D01*
G36*
X102112211Y-112701633D02*
G01*
X101512211Y-112701633D01*
X101512211Y-111701633D01*
X102112211Y-111701633D01*
X102112211Y-112701633D01*
G37*
X102112211Y-112701633D02*
X101512211Y-112701633D01*
X101512211Y-111701633D01*
X102112211Y-111701633D01*
X102112211Y-112701633D01*
G36*
X97582211Y-111351633D02*
G01*
X96982211Y-111351633D01*
X96982211Y-110351633D01*
X97582211Y-110351633D01*
X97582211Y-111351633D01*
G37*
X97582211Y-111351633D02*
X96982211Y-111351633D01*
X96982211Y-110351633D01*
X97582211Y-110351633D01*
X97582211Y-111351633D01*
G36*
X88582211Y-112651633D02*
G01*
X87982211Y-112651633D01*
X87982211Y-111651633D01*
X88582211Y-111651633D01*
X88582211Y-112651633D01*
G37*
X88582211Y-112651633D02*
X87982211Y-112651633D01*
X87982211Y-111651633D01*
X88582211Y-111651633D01*
X88582211Y-112651633D01*
G36*
X93112211Y-112701633D02*
G01*
X92512211Y-112701633D01*
X92512211Y-111701633D01*
X93112211Y-111701633D01*
X93112211Y-112701633D01*
G37*
X93112211Y-112701633D02*
X92512211Y-112701633D01*
X92512211Y-111701633D01*
X93112211Y-111701633D01*
X93112211Y-112701633D01*
G36*
X88582211Y-111351633D02*
G01*
X87982211Y-111351633D01*
X87982211Y-110351633D01*
X88582211Y-110351633D01*
X88582211Y-111351633D01*
G37*
X88582211Y-111351633D02*
X87982211Y-111351633D01*
X87982211Y-110351633D01*
X88582211Y-110351633D01*
X88582211Y-111351633D01*
G36*
X93112211Y-111301633D02*
G01*
X92512211Y-111301633D01*
X92512211Y-110301633D01*
X93112211Y-110301633D01*
X93112211Y-111301633D01*
G37*
X93112211Y-111301633D02*
X92512211Y-111301633D01*
X92512211Y-110301633D01*
X93112211Y-110301633D01*
X93112211Y-111301633D01*
G36*
X79582211Y-112651633D02*
G01*
X78982211Y-112651633D01*
X78982211Y-111651633D01*
X79582211Y-111651633D01*
X79582211Y-112651633D01*
G37*
X79582211Y-112651633D02*
X78982211Y-112651633D01*
X78982211Y-111651633D01*
X79582211Y-111651633D01*
X79582211Y-112651633D01*
G36*
X84112211Y-112701633D02*
G01*
X83512211Y-112701633D01*
X83512211Y-111701633D01*
X84112211Y-111701633D01*
X84112211Y-112701633D01*
G37*
X84112211Y-112701633D02*
X83512211Y-112701633D01*
X83512211Y-111701633D01*
X84112211Y-111701633D01*
X84112211Y-112701633D01*
G36*
X79582211Y-111351633D02*
G01*
X78982211Y-111351633D01*
X78982211Y-110351633D01*
X79582211Y-110351633D01*
X79582211Y-111351633D01*
G37*
X79582211Y-111351633D02*
X78982211Y-111351633D01*
X78982211Y-110351633D01*
X79582211Y-110351633D01*
X79582211Y-111351633D01*
G36*
X84112211Y-111301633D02*
G01*
X83512211Y-111301633D01*
X83512211Y-110301633D01*
X84112211Y-110301633D01*
X84112211Y-111301633D01*
G37*
X84112211Y-111301633D02*
X83512211Y-111301633D01*
X83512211Y-110301633D01*
X84112211Y-110301633D01*
X84112211Y-111301633D01*
G36*
X111112211Y-111301633D02*
G01*
X110512211Y-111301633D01*
X110512211Y-110301633D01*
X111112211Y-110301633D01*
X111112211Y-111301633D01*
G37*
X111112211Y-111301633D02*
X110512211Y-111301633D01*
X110512211Y-110301633D01*
X111112211Y-110301633D01*
X111112211Y-111301633D01*
G36*
X106582211Y-112651633D02*
G01*
X105982211Y-112651633D01*
X105982211Y-111651633D01*
X106582211Y-111651633D01*
X106582211Y-112651633D01*
G37*
X106582211Y-112651633D02*
X105982211Y-112651633D01*
X105982211Y-111651633D01*
X106582211Y-111651633D01*
X106582211Y-112651633D01*
G36*
X111112211Y-112701633D02*
G01*
X110512211Y-112701633D01*
X110512211Y-111701633D01*
X111112211Y-111701633D01*
X111112211Y-112701633D01*
G37*
X111112211Y-112701633D02*
X110512211Y-112701633D01*
X110512211Y-111701633D01*
X111112211Y-111701633D01*
X111112211Y-112701633D01*
G36*
X106582211Y-111351633D02*
G01*
X105982211Y-111351633D01*
X105982211Y-110351633D01*
X106582211Y-110351633D01*
X106582211Y-111351633D01*
G37*
X106582211Y-111351633D02*
X105982211Y-111351633D01*
X105982211Y-110351633D01*
X106582211Y-110351633D01*
X106582211Y-111351633D01*
G36*
X119332219Y-112651635D02*
G01*
X118732219Y-112651635D01*
X118732219Y-111651635D01*
X119332219Y-111651635D01*
X119332219Y-112651635D01*
G37*
X119332219Y-112651635D02*
X118732219Y-112651635D01*
X118732219Y-111651635D01*
X119332219Y-111651635D01*
X119332219Y-112651635D01*
G36*
X119332219Y-111351635D02*
G01*
X118732219Y-111351635D01*
X118732219Y-110351635D01*
X119332219Y-110351635D01*
X119332219Y-111351635D01*
G37*
X119332219Y-111351635D02*
X118732219Y-111351635D01*
X118732219Y-110351635D01*
X119332219Y-110351635D01*
X119332219Y-111351635D01*
G36*
X114802219Y-112701635D02*
G01*
X114202219Y-112701635D01*
X114202219Y-111701635D01*
X114802219Y-111701635D01*
X114802219Y-112701635D01*
G37*
X114802219Y-112701635D02*
X114202219Y-112701635D01*
X114202219Y-111701635D01*
X114802219Y-111701635D01*
X114802219Y-112701635D01*
G36*
X114802219Y-111301635D02*
G01*
X114202219Y-111301635D01*
X114202219Y-110301635D01*
X114802219Y-110301635D01*
X114802219Y-111301635D01*
G37*
X114802219Y-111301635D02*
X114202219Y-111301635D01*
X114202219Y-110301635D01*
X114802219Y-110301635D01*
X114802219Y-111301635D01*
G36*
X128332219Y-111351633D02*
G01*
X127732219Y-111351633D01*
X127732219Y-110351633D01*
X128332219Y-110351633D01*
X128332219Y-111351633D01*
G37*
X128332219Y-111351633D02*
X127732219Y-111351633D01*
X127732219Y-110351633D01*
X128332219Y-110351633D01*
X128332219Y-111351633D01*
G36*
X123802219Y-112701633D02*
G01*
X123202219Y-112701633D01*
X123202219Y-111701633D01*
X123802219Y-111701633D01*
X123802219Y-112701633D01*
G37*
X123802219Y-112701633D02*
X123202219Y-112701633D01*
X123202219Y-111701633D01*
X123802219Y-111701633D01*
X123802219Y-112701633D01*
G36*
X128332219Y-112651633D02*
G01*
X127732219Y-112651633D01*
X127732219Y-111651633D01*
X128332219Y-111651633D01*
X128332219Y-112651633D01*
G37*
X128332219Y-112651633D02*
X127732219Y-112651633D01*
X127732219Y-111651633D01*
X128332219Y-111651633D01*
X128332219Y-112651633D01*
G36*
X123802219Y-111301633D02*
G01*
X123202219Y-111301633D01*
X123202219Y-110301633D01*
X123802219Y-110301633D01*
X123802219Y-111301633D01*
G37*
X123802219Y-111301633D02*
X123202219Y-111301633D01*
X123202219Y-110301633D01*
X123802219Y-110301633D01*
X123802219Y-111301633D01*
G36*
X132802219Y-111301633D02*
G01*
X132202219Y-111301633D01*
X132202219Y-110301633D01*
X132802219Y-110301633D01*
X132802219Y-111301633D01*
G37*
X132802219Y-111301633D02*
X132202219Y-111301633D01*
X132202219Y-110301633D01*
X132802219Y-110301633D01*
X132802219Y-111301633D01*
G36*
X137332219Y-112651633D02*
G01*
X136732219Y-112651633D01*
X136732219Y-111651633D01*
X137332219Y-111651633D01*
X137332219Y-112651633D01*
G37*
X137332219Y-112651633D02*
X136732219Y-112651633D01*
X136732219Y-111651633D01*
X137332219Y-111651633D01*
X137332219Y-112651633D01*
G36*
X137332219Y-111351633D02*
G01*
X136732219Y-111351633D01*
X136732219Y-110351633D01*
X137332219Y-110351633D01*
X137332219Y-111351633D01*
G37*
X137332219Y-111351633D02*
X136732219Y-111351633D01*
X136732219Y-110351633D01*
X137332219Y-110351633D01*
X137332219Y-111351633D01*
G36*
X132802219Y-112701633D02*
G01*
X132202219Y-112701633D01*
X132202219Y-111701633D01*
X132802219Y-111701633D01*
X132802219Y-112701633D01*
G37*
X132802219Y-112701633D02*
X132202219Y-112701633D01*
X132202219Y-111701633D01*
X132802219Y-111701633D01*
X132802219Y-112701633D01*
G36*
X146332219Y-93652054D02*
G01*
X145732219Y-93652054D01*
X145732219Y-92652054D01*
X146332219Y-92652054D01*
X146332219Y-93652054D01*
G37*
X146332219Y-93652054D02*
X145732219Y-93652054D01*
X145732219Y-92652054D01*
X146332219Y-92652054D01*
X146332219Y-93652054D01*
G36*
X141802219Y-92302054D02*
G01*
X141202219Y-92302054D01*
X141202219Y-91302054D01*
X141802219Y-91302054D01*
X141802219Y-92302054D01*
G37*
X141802219Y-92302054D02*
X141202219Y-92302054D01*
X141202219Y-91302054D01*
X141802219Y-91302054D01*
X141802219Y-92302054D01*
G36*
X146332219Y-92352054D02*
G01*
X145732219Y-92352054D01*
X145732219Y-91352054D01*
X146332219Y-91352054D01*
X146332219Y-92352054D01*
G37*
X146332219Y-92352054D02*
X145732219Y-92352054D01*
X145732219Y-91352054D01*
X146332219Y-91352054D01*
X146332219Y-92352054D01*
G36*
X141802219Y-93702054D02*
G01*
X141202219Y-93702054D01*
X141202219Y-92702054D01*
X141802219Y-92702054D01*
X141802219Y-93702054D01*
G37*
X141802219Y-93702054D02*
X141202219Y-93702054D01*
X141202219Y-92702054D01*
X141802219Y-92702054D01*
X141802219Y-93702054D01*
G36*
X146332219Y-112651633D02*
G01*
X145732219Y-112651633D01*
X145732219Y-111651633D01*
X146332219Y-111651633D01*
X146332219Y-112651633D01*
G37*
X146332219Y-112651633D02*
X145732219Y-112651633D01*
X145732219Y-111651633D01*
X146332219Y-111651633D01*
X146332219Y-112651633D01*
G36*
X141802219Y-111301633D02*
G01*
X141202219Y-111301633D01*
X141202219Y-110301633D01*
X141802219Y-110301633D01*
X141802219Y-111301633D01*
G37*
X141802219Y-111301633D02*
X141202219Y-111301633D01*
X141202219Y-110301633D01*
X141802219Y-110301633D01*
X141802219Y-111301633D01*
G36*
X146332219Y-111351633D02*
G01*
X145732219Y-111351633D01*
X145732219Y-110351633D01*
X146332219Y-110351633D01*
X146332219Y-111351633D01*
G37*
X146332219Y-111351633D02*
X145732219Y-111351633D01*
X145732219Y-110351633D01*
X146332219Y-110351633D01*
X146332219Y-111351633D01*
G36*
X141802219Y-112701633D02*
G01*
X141202219Y-112701633D01*
X141202219Y-111701633D01*
X141802219Y-111701633D01*
X141802219Y-112701633D01*
G37*
X141802219Y-112701633D02*
X141202219Y-112701633D01*
X141202219Y-111701633D01*
X141802219Y-111701633D01*
X141802219Y-112701633D01*
D12*
X169309993Y-116750000D03*
X169309993Y-116250000D03*
X169309993Y-115750000D03*
X169309993Y-115250000D03*
X169309993Y-114750000D03*
X169309993Y-114250000D03*
X169309993Y-113750001D03*
X169309993Y-113249999D03*
X169309993Y-112750000D03*
X169309993Y-112249999D03*
X169309993Y-111750000D03*
X169309993Y-111250001D03*
X169309993Y-110749999D03*
X169309993Y-110250000D03*
X169309993Y-109749999D03*
X169309993Y-109250000D03*
X169309993Y-108750001D03*
X169309993Y-108249999D03*
X169309993Y-107750000D03*
X169309993Y-107250001D03*
X169309993Y-106750000D03*
X169309993Y-106250001D03*
X169309993Y-105749999D03*
X169309993Y-105250000D03*
X169309993Y-104750001D03*
X169309993Y-104250000D03*
X169309993Y-103750001D03*
X169309993Y-103249999D03*
X169309993Y-102750000D03*
X169309993Y-102250001D03*
X169309993Y-101750000D03*
X169309993Y-101250001D03*
X169309993Y-100749999D03*
X169309993Y-100250000D03*
X169309993Y-99750001D03*
X169309993Y-99249999D03*
X169309993Y-98750000D03*
X169309993Y-98249999D03*
X169309993Y-97750000D03*
X169309993Y-97250001D03*
X169309993Y-96749999D03*
X169309993Y-96250000D03*
X169309993Y-95749999D03*
X169309993Y-95250000D03*
X169309993Y-94750001D03*
X169309993Y-94249999D03*
X169309993Y-93750000D03*
X169309993Y-93249999D03*
X169309993Y-92750000D03*
X169309993Y-92250001D03*
X169309993Y-91749999D03*
X169309993Y-91250000D03*
X169309993Y-90750001D03*
X169309993Y-90250002D03*
X169309993Y-89750003D03*
X169309993Y-89250004D03*
X169309993Y-88750005D03*
X169309993Y-88250006D03*
X169309993Y-87750007D03*
X169309993Y-87250008D03*
D13*
X171634993Y-118550000D03*
X171634993Y-85450012D03*
D14*
X151430000Y-91670000D03*
X149230000Y-91670000D03*
M02*
