G04 #@! TF.GenerationSoftware,KiCad,Pcbnew,(5.1.6-0-10_14)*
G04 #@! TF.CreationDate,2021-09-30T12:26:16+09:00*
G04 #@! TF.ProjectId,qPCR-main,71504352-2d6d-4616-996e-2e6b69636164,rev?*
G04 #@! TF.SameCoordinates,Original*
G04 #@! TF.FileFunction,Soldermask,Bot*
G04 #@! TF.FilePolarity,Negative*
%FSLAX46Y46*%
G04 Gerber Fmt 4.6, Leading zero omitted, Abs format (unit mm)*
G04 Created by KiCad (PCBNEW (5.1.6-0-10_14)) date 2021-09-30 12:26:16*
%MOMM*%
%LPD*%
G01*
G04 APERTURE LIST*
%ADD10C,6.000000*%
%ADD11O,1.700000X1.700000*%
%ADD12R,1.700000X1.700000*%
%ADD13C,2.000000*%
%ADD14R,3.500000X3.500000*%
%ADD15O,2.000000X2.600000*%
%ADD16R,2.000000X2.600000*%
%ADD17C,0.499999*%
%ADD18R,2.400000X2.400000*%
%ADD19C,2.400000*%
%ADD20O,2.400000X2.400000*%
G04 APERTURE END LIST*
D10*
X158500000Y-143270000D03*
X100500000Y-94270000D03*
X158500000Y-94270000D03*
X100500000Y-143270000D03*
D11*
X153630000Y-144540000D03*
X153630000Y-142000000D03*
X135850000Y-144540000D03*
X135850000Y-142000000D03*
X130770000Y-144540000D03*
X130770000Y-142000000D03*
X140930000Y-144540000D03*
X140930000Y-142000000D03*
X112990000Y-144540000D03*
X112990000Y-142000000D03*
X143470000Y-144540000D03*
X143470000Y-142000000D03*
X125690000Y-144540000D03*
X125690000Y-142000000D03*
X148550000Y-144540000D03*
X148550000Y-142000000D03*
X146010000Y-144540000D03*
X146010000Y-142000000D03*
X151090000Y-144540000D03*
X151090000Y-142000000D03*
X128230000Y-144540000D03*
X128230000Y-142000000D03*
X115530000Y-144540000D03*
X115530000Y-142000000D03*
X120610000Y-144540000D03*
X120610000Y-142000000D03*
X138390000Y-144540000D03*
X138390000Y-142000000D03*
X118070000Y-144540000D03*
X118070000Y-142000000D03*
X133310000Y-144540000D03*
X133310000Y-142000000D03*
D12*
X105370000Y-142000000D03*
D11*
X105370000Y-144540000D03*
X110450000Y-142000000D03*
X107910000Y-144540000D03*
X123150000Y-144540000D03*
X123150000Y-142000000D03*
X107910000Y-142000000D03*
X110450000Y-144540000D03*
D10*
X100500000Y-120270000D03*
X158500000Y-120270000D03*
D12*
X117670000Y-118400000D03*
X105700000Y-87440000D03*
D11*
X105700000Y-84900000D03*
D13*
X166590000Y-55500000D03*
X170090000Y-55500000D03*
X144500000Y-55500000D03*
X141000000Y-55500000D03*
X136000000Y-55500000D03*
X132500000Y-55500000D03*
X158000000Y-55500000D03*
X161500000Y-55500000D03*
X153000000Y-55500000D03*
X149500000Y-55500000D03*
G36*
G01*
X176579000Y-60675000D02*
X176579000Y-62425000D01*
G75*
G02*
X175704000Y-63300000I-875000J0D01*
G01*
X173954000Y-63300000D01*
G75*
G02*
X173079000Y-62425000I0J875000D01*
G01*
X173079000Y-60675000D01*
G75*
G02*
X173954000Y-59800000I875000J0D01*
G01*
X175704000Y-59800000D01*
G75*
G02*
X176579000Y-60675000I0J-875000D01*
G01*
G37*
G36*
G01*
X179329000Y-65250000D02*
X179329000Y-67250000D01*
G75*
G02*
X178579000Y-68000000I-750000J0D01*
G01*
X177079000Y-68000000D01*
G75*
G02*
X176329000Y-67250000I0J750000D01*
G01*
X176329000Y-65250000D01*
G75*
G02*
X177079000Y-64500000I750000J0D01*
G01*
X178579000Y-64500000D01*
G75*
G02*
X179329000Y-65250000I0J-750000D01*
G01*
G37*
D14*
X171829000Y-66250000D03*
D12*
X123150000Y-148000000D03*
X125690000Y-148000000D03*
X128230000Y-148000000D03*
X130770000Y-148000000D03*
X133310000Y-148000000D03*
X146010000Y-148000000D03*
X143470000Y-148000000D03*
X148550000Y-148000000D03*
D15*
X177130000Y-55500000D03*
D16*
X174590000Y-55500000D03*
D11*
X103465500Y-56770000D03*
D12*
X103465500Y-54230000D03*
X119465500Y-54230000D03*
D11*
X119465500Y-56770000D03*
D12*
X115465500Y-54230000D03*
D11*
X115465500Y-56770000D03*
X111465500Y-56770000D03*
D12*
X111465500Y-54230000D03*
D11*
X107465500Y-56770000D03*
D12*
X107465500Y-54230000D03*
X127465500Y-54230000D03*
D11*
X127465500Y-56770000D03*
D12*
X123465500Y-54230000D03*
D11*
X123465500Y-56770000D03*
D12*
X105370000Y-148000000D03*
D11*
X107910000Y-148000000D03*
X110450000Y-148000000D03*
X112990000Y-148000000D03*
X115530000Y-148000000D03*
D17*
X111790000Y-113229999D03*
X112790001Y-112730000D03*
X111790000Y-112230001D03*
X110789999Y-112730000D03*
D12*
X131560000Y-113504000D03*
X131560000Y-116044000D03*
X125760000Y-110210000D03*
D18*
X85546000Y-88320000D03*
D19*
X85546000Y-83320000D03*
X85546000Y-96320000D03*
D18*
X85546000Y-101320000D03*
X85546000Y-114320000D03*
D19*
X85546000Y-109320000D03*
D18*
X85546000Y-127320000D03*
D19*
X85546000Y-122320000D03*
X85546000Y-135320000D03*
D18*
X85546000Y-140320000D03*
D12*
X151090000Y-148000000D03*
X153630000Y-148000000D03*
D19*
X100950000Y-88510000D03*
D20*
X100950000Y-68190000D03*
D12*
X127930000Y-126126000D03*
X127930000Y-123586000D03*
M02*
