G04 #@! TF.GenerationSoftware,KiCad,Pcbnew,(5.1.6-0-10_14)*
G04 #@! TF.CreationDate,2021-12-06T16:22:22+09:00*
G04 #@! TF.ProjectId,qPCR-main,71504352-2d6d-4616-996e-2e6b69636164,rev?*
G04 #@! TF.SameCoordinates,Original*
G04 #@! TF.FileFunction,Legend,Bot*
G04 #@! TF.FilePolarity,Positive*
%FSLAX46Y46*%
G04 Gerber Fmt 4.6, Leading zero omitted, Abs format (unit mm)*
G04 Created by KiCad (PCBNEW (5.1.6-0-10_14)) date 2021-12-06 16:22:22*
%MOMM*%
%LPD*%
G01*
G04 APERTURE LIST*
%ADD10C,0.375000*%
%ADD11C,0.120000*%
%ADD12C,0.254000*%
%ADD13C,0.150000*%
G04 APERTURE END LIST*
D10*
X173401428Y-37390000D02*
X172687142Y-37390000D01*
X173544285Y-37818571D02*
X173044285Y-36318571D01*
X172544285Y-37818571D01*
X172258571Y-36318571D02*
X171401428Y-36318571D01*
X171830000Y-37818571D02*
X171830000Y-36318571D01*
X171044285Y-36318571D02*
X170044285Y-37818571D01*
X170044285Y-36318571D02*
X171044285Y-37818571D01*
X169544285Y-36461428D02*
X169472857Y-36390000D01*
X169330000Y-36318571D01*
X168972857Y-36318571D01*
X168830000Y-36390000D01*
X168758571Y-36461428D01*
X168687142Y-36604285D01*
X168687142Y-36747142D01*
X168758571Y-36961428D01*
X169615714Y-37818571D01*
X168687142Y-37818571D01*
X167401428Y-36818571D02*
X167401428Y-37818571D01*
X167758571Y-36247142D02*
X168115714Y-37318571D01*
X167187142Y-37318571D01*
X160321428Y-86328571D02*
X160321428Y-87185714D01*
X160321428Y-86757142D02*
X161821428Y-86757142D01*
X161607142Y-86900000D01*
X161464285Y-87042857D01*
X161392857Y-87185714D01*
X161678571Y-85757142D02*
X161750000Y-85685714D01*
X161821428Y-85542857D01*
X161821428Y-85185714D01*
X161750000Y-85042857D01*
X161678571Y-84971428D01*
X161535714Y-84900000D01*
X161392857Y-84900000D01*
X161178571Y-84971428D01*
X160321428Y-85828571D01*
X160321428Y-84900000D01*
X161821428Y-84471428D02*
X160321428Y-83971428D01*
X161821428Y-83471428D01*
X91442857Y-74850000D02*
X91585714Y-74778571D01*
X91800000Y-74778571D01*
X92014285Y-74850000D01*
X92157142Y-74992857D01*
X92228571Y-75135714D01*
X92300000Y-75421428D01*
X92300000Y-75635714D01*
X92228571Y-75921428D01*
X92157142Y-76064285D01*
X92014285Y-76207142D01*
X91800000Y-76278571D01*
X91657142Y-76278571D01*
X91442857Y-76207142D01*
X91371428Y-76135714D01*
X91371428Y-75635714D01*
X91657142Y-75635714D01*
X90728571Y-76278571D02*
X90728571Y-74778571D01*
X89871428Y-76278571D01*
X89871428Y-74778571D01*
X89157142Y-76278571D02*
X89157142Y-74778571D01*
X88800000Y-74778571D01*
X88585714Y-74850000D01*
X88442857Y-74992857D01*
X88371428Y-75135714D01*
X88300000Y-75421428D01*
X88300000Y-75635714D01*
X88371428Y-75921428D01*
X88442857Y-76064285D01*
X88585714Y-76207142D01*
X88800000Y-76278571D01*
X89157142Y-76278571D01*
X91250000Y-73678571D02*
X92107142Y-73678571D01*
X91678571Y-73678571D02*
X91678571Y-72178571D01*
X91821428Y-72392857D01*
X91964285Y-72535714D01*
X92107142Y-72607142D01*
X90678571Y-72321428D02*
X90607142Y-72250000D01*
X90464285Y-72178571D01*
X90107142Y-72178571D01*
X89964285Y-72250000D01*
X89892857Y-72321428D01*
X89821428Y-72464285D01*
X89821428Y-72607142D01*
X89892857Y-72821428D01*
X90750000Y-73678571D01*
X89821428Y-73678571D01*
X89392857Y-72178571D02*
X88892857Y-73678571D01*
X88392857Y-72178571D01*
X88250000Y-73821428D02*
X87107142Y-73821428D01*
X86750000Y-72178571D02*
X86750000Y-73392857D01*
X86678571Y-73535714D01*
X86607142Y-73607142D01*
X86464285Y-73678571D01*
X86178571Y-73678571D01*
X86035714Y-73607142D01*
X85964285Y-73535714D01*
X85892857Y-73392857D01*
X85892857Y-72178571D01*
X85178571Y-73678571D02*
X85178571Y-72178571D01*
X84607142Y-72178571D01*
X84464285Y-72250000D01*
X84392857Y-72321428D01*
X84321428Y-72464285D01*
X84321428Y-72678571D01*
X84392857Y-72821428D01*
X84464285Y-72892857D01*
X84607142Y-72964285D01*
X85178571Y-72964285D01*
X83750000Y-73607142D02*
X83535714Y-73678571D01*
X83178571Y-73678571D01*
X83035714Y-73607142D01*
X82964285Y-73535714D01*
X82892857Y-73392857D01*
X82892857Y-73250000D01*
X82964285Y-73107142D01*
X83035714Y-73035714D01*
X83178571Y-72964285D01*
X83464285Y-72892857D01*
X83607142Y-72821428D01*
X83678571Y-72750000D01*
X83750000Y-72607142D01*
X83750000Y-72464285D01*
X83678571Y-72321428D01*
X83607142Y-72250000D01*
X83464285Y-72178571D01*
X83107142Y-72178571D01*
X82892857Y-72250000D01*
X157521428Y-86278571D02*
X158235714Y-86778571D01*
X157521428Y-87135714D02*
X159021428Y-87135714D01*
X159021428Y-86564285D01*
X158950000Y-86421428D01*
X158878571Y-86350000D01*
X158735714Y-86278571D01*
X158521428Y-86278571D01*
X158378571Y-86350000D01*
X158307142Y-86421428D01*
X158235714Y-86564285D01*
X158235714Y-87135714D01*
X158307142Y-85635714D02*
X158307142Y-85135714D01*
X157521428Y-84921428D02*
X157521428Y-85635714D01*
X159021428Y-85635714D01*
X159021428Y-84921428D01*
X158950000Y-83492857D02*
X159021428Y-83635714D01*
X159021428Y-83850000D01*
X158950000Y-84064285D01*
X158807142Y-84207142D01*
X158664285Y-84278571D01*
X158378571Y-84350000D01*
X158164285Y-84350000D01*
X157878571Y-84278571D01*
X157735714Y-84207142D01*
X157592857Y-84064285D01*
X157521428Y-83850000D01*
X157521428Y-83707142D01*
X157592857Y-83492857D01*
X157664285Y-83421428D01*
X158164285Y-83421428D01*
X158164285Y-83707142D01*
X157378571Y-83135714D02*
X157378571Y-81992857D01*
X159021428Y-81350000D02*
X159021428Y-81064285D01*
X158950000Y-80921428D01*
X158807142Y-80778571D01*
X158521428Y-80707142D01*
X158021428Y-80707142D01*
X157735714Y-80778571D01*
X157592857Y-80921428D01*
X157521428Y-81064285D01*
X157521428Y-81350000D01*
X157592857Y-81492857D01*
X157735714Y-81635714D01*
X158021428Y-81707142D01*
X158521428Y-81707142D01*
X158807142Y-81635714D01*
X158950000Y-81492857D01*
X159021428Y-81350000D01*
X159021428Y-80064285D02*
X157807142Y-80064285D01*
X157664285Y-79992857D01*
X157592857Y-79921428D01*
X157521428Y-79778571D01*
X157521428Y-79492857D01*
X157592857Y-79350000D01*
X157664285Y-79278571D01*
X157807142Y-79207142D01*
X159021428Y-79207142D01*
X159021428Y-78707142D02*
X159021428Y-77850000D01*
X157521428Y-78278571D02*
X159021428Y-78278571D01*
D11*
X162230000Y-90430000D02*
X162230000Y-89100000D01*
X160900000Y-90430000D02*
X162230000Y-90430000D01*
X159630000Y-90430000D02*
X159630000Y-87770000D01*
X159630000Y-87770000D02*
X157030000Y-87770000D01*
X159630000Y-90430000D02*
X157030000Y-90430000D01*
X157030000Y-90430000D02*
X157030000Y-87770000D01*
X175571000Y-68850501D02*
G75*
G03*
X175571000Y-68850501I-381000J0D01*
G01*
X147141501Y-62110000D02*
G75*
G03*
X147141501Y-62110000I-381000J0D01*
G01*
D12*
X174180000Y-38696400D02*
X122780000Y-38696400D01*
X122780000Y-38696400D02*
X122780000Y-48296400D01*
X122780000Y-48296400D02*
X174180000Y-48296400D01*
X174180000Y-48296400D02*
X174180000Y-38696400D01*
X150180000Y-37396400D02*
X146780000Y-37396400D01*
X150180000Y-37396400D02*
X150180000Y-38896400D01*
X146780000Y-37396400D02*
X146780000Y-38896400D01*
D13*
X164509523Y-88352380D02*
X164509523Y-89066666D01*
X164557142Y-89209523D01*
X164652380Y-89304761D01*
X164795238Y-89352380D01*
X164890476Y-89352380D01*
X163509523Y-89352380D02*
X164080952Y-89352380D01*
X163795238Y-89352380D02*
X163795238Y-88352380D01*
X163890476Y-88495238D01*
X163985714Y-88590476D01*
X164080952Y-88638095D01*
X162890476Y-88352380D02*
X162795238Y-88352380D01*
X162700000Y-88400000D01*
X162652380Y-88447619D01*
X162604761Y-88542857D01*
X162557142Y-88733333D01*
X162557142Y-88971428D01*
X162604761Y-89161904D01*
X162652380Y-89257142D01*
X162700000Y-89304761D01*
X162795238Y-89352380D01*
X162890476Y-89352380D01*
X162985714Y-89304761D01*
X163033333Y-89257142D01*
X163080952Y-89161904D01*
X163128571Y-88971428D01*
X163128571Y-88733333D01*
X163080952Y-88542857D01*
X163033333Y-88447619D01*
X162985714Y-88400000D01*
X162890476Y-88352380D01*
X94389523Y-70142380D02*
X94389523Y-70856666D01*
X94437142Y-70999523D01*
X94532380Y-71094761D01*
X94675238Y-71142380D01*
X94770476Y-71142380D01*
X93389523Y-71142380D02*
X93960952Y-71142380D01*
X93675238Y-71142380D02*
X93675238Y-70142380D01*
X93770476Y-70285238D01*
X93865714Y-70380476D01*
X93960952Y-70428095D01*
X93056190Y-70142380D02*
X92389523Y-70142380D01*
X92818095Y-71142380D01*
M02*
