G04 #@! TF.GenerationSoftware,KiCad,Pcbnew,(5.1.6-0-10_14)*
G04 #@! TF.CreationDate,2021-04-28T04:34:32+09:00*
G04 #@! TF.ProjectId,qPCR-panel_20210427,71504352-2d70-4616-9e65-6c5f32303231,rev?*
G04 #@! TF.SameCoordinates,Original*
G04 #@! TF.FileFunction,Legend,Top*
G04 #@! TF.FilePolarity,Positive*
%FSLAX46Y46*%
G04 Gerber Fmt 4.6, Leading zero omitted, Abs format (unit mm)*
G04 Created by KiCad (PCBNEW (5.1.6-0-10_14)) date 2021-04-28 04:34:32*
%MOMM*%
%LPD*%
G01*
G04 APERTURE LIST*
%ADD10C,0.158750*%
%ADD11C,0.125000*%
%ADD12C,0.200000*%
%ADD13C,0.127000*%
%ADD14C,0.120000*%
%ADD15C,0.152400*%
%ADD16C,0.150000*%
G04 APERTURE END LIST*
D10*
X101788666Y-68513500D02*
X102466000Y-68513500D01*
X103058666Y-67963166D02*
X103143333Y-67963166D01*
X103228000Y-68005500D01*
X103270333Y-68047833D01*
X103312666Y-68132500D01*
X103355000Y-68301833D01*
X103355000Y-68513500D01*
X103312666Y-68682833D01*
X103270333Y-68767500D01*
X103228000Y-68809833D01*
X103143333Y-68852166D01*
X103058666Y-68852166D01*
X102974000Y-68809833D01*
X102931666Y-68767500D01*
X102889333Y-68682833D01*
X102847000Y-68513500D01*
X102847000Y-68301833D01*
X102889333Y-68132500D01*
X102931666Y-68047833D01*
X102974000Y-68005500D01*
X103058666Y-67963166D01*
X103736000Y-68767500D02*
X103778333Y-68809833D01*
X103736000Y-68852166D01*
X103693666Y-68809833D01*
X103736000Y-68767500D01*
X103736000Y-68852166D01*
X104117000Y-68047833D02*
X104159333Y-68005500D01*
X104244000Y-67963166D01*
X104455666Y-67963166D01*
X104540333Y-68005500D01*
X104582666Y-68047833D01*
X104625000Y-68132500D01*
X104625000Y-68217166D01*
X104582666Y-68344166D01*
X104074666Y-68852166D01*
X104625000Y-68852166D01*
X104921333Y-67963166D02*
X105471666Y-67963166D01*
X105175333Y-68301833D01*
X105302333Y-68301833D01*
X105387000Y-68344166D01*
X105429333Y-68386500D01*
X105471666Y-68471166D01*
X105471666Y-68682833D01*
X105429333Y-68767500D01*
X105387000Y-68809833D01*
X105302333Y-68852166D01*
X105048333Y-68852166D01*
X104963666Y-68809833D01*
X104921333Y-68767500D01*
X105725666Y-67963166D02*
X106022000Y-68852166D01*
X106318333Y-67963166D01*
X103418500Y-66909500D02*
X103757166Y-66909500D01*
X103545500Y-66613166D02*
X103545500Y-67375166D01*
X103587833Y-67459833D01*
X103672500Y-67502166D01*
X103757166Y-67502166D01*
X104180500Y-67502166D02*
X104095833Y-67459833D01*
X104053500Y-67417500D01*
X104011166Y-67332833D01*
X104011166Y-67078833D01*
X104053500Y-66994166D01*
X104095833Y-66951833D01*
X104180500Y-66909500D01*
X104307500Y-66909500D01*
X104392166Y-66951833D01*
X104434500Y-66994166D01*
X104476833Y-67078833D01*
X104476833Y-67332833D01*
X104434500Y-67417500D01*
X104392166Y-67459833D01*
X104307500Y-67502166D01*
X104180500Y-67502166D01*
X102889333Y-65373166D02*
X103439666Y-65373166D01*
X103143333Y-65711833D01*
X103270333Y-65711833D01*
X103355000Y-65754166D01*
X103397333Y-65796500D01*
X103439666Y-65881166D01*
X103439666Y-66092833D01*
X103397333Y-66177500D01*
X103355000Y-66219833D01*
X103270333Y-66262166D01*
X103016333Y-66262166D01*
X102931666Y-66219833D01*
X102889333Y-66177500D01*
X103693666Y-65373166D02*
X103990000Y-66262166D01*
X104286333Y-65373166D01*
X104498000Y-65373166D02*
X105048333Y-65373166D01*
X104752000Y-65711833D01*
X104879000Y-65711833D01*
X104963666Y-65754166D01*
X105006000Y-65796500D01*
X105048333Y-65881166D01*
X105048333Y-66092833D01*
X105006000Y-66177500D01*
X104963666Y-66219833D01*
X104879000Y-66262166D01*
X104625000Y-66262166D01*
X104540333Y-66219833D01*
X104498000Y-66177500D01*
X117353833Y-69192166D02*
X116930500Y-69192166D01*
X116930500Y-68303166D01*
X117650166Y-69192166D02*
X117650166Y-68303166D01*
X117946500Y-68938166D01*
X118242833Y-68303166D01*
X118242833Y-69192166D01*
X118581500Y-68303166D02*
X119174166Y-68303166D01*
X118793166Y-69192166D01*
X119428166Y-68303166D02*
X120020833Y-68303166D01*
X119639833Y-69192166D01*
X120528833Y-68303166D02*
X120613500Y-68303166D01*
X120698166Y-68345500D01*
X120740500Y-68387833D01*
X120782833Y-68472500D01*
X120825166Y-68641833D01*
X120825166Y-68853500D01*
X120782833Y-69022833D01*
X120740500Y-69107500D01*
X120698166Y-69149833D01*
X120613500Y-69192166D01*
X120528833Y-69192166D01*
X120444166Y-69149833D01*
X120401833Y-69107500D01*
X120359500Y-69022833D01*
X120317166Y-68853500D01*
X120317166Y-68641833D01*
X120359500Y-68472500D01*
X120401833Y-68387833D01*
X120444166Y-68345500D01*
X120528833Y-68303166D01*
X121629500Y-68303166D02*
X121206166Y-68303166D01*
X121163833Y-68726500D01*
X121206166Y-68684166D01*
X121290833Y-68641833D01*
X121502500Y-68641833D01*
X121587166Y-68684166D01*
X121629500Y-68726500D01*
X121671833Y-68811166D01*
X121671833Y-69022833D01*
X121629500Y-69107500D01*
X121587166Y-69149833D01*
X121502500Y-69192166D01*
X121290833Y-69192166D01*
X121206166Y-69149833D01*
X121163833Y-69107500D01*
X106793666Y-75613166D02*
X107090000Y-76502166D01*
X107386333Y-75613166D01*
X107852000Y-75613166D02*
X108021333Y-75613166D01*
X108106000Y-75655500D01*
X108190666Y-75740166D01*
X108233000Y-75909500D01*
X108233000Y-76205833D01*
X108190666Y-76375166D01*
X108106000Y-76459833D01*
X108021333Y-76502166D01*
X107852000Y-76502166D01*
X107767333Y-76459833D01*
X107682666Y-76375166D01*
X107640333Y-76205833D01*
X107640333Y-75909500D01*
X107682666Y-75740166D01*
X107767333Y-75655500D01*
X107852000Y-75613166D01*
X108614000Y-75613166D02*
X108614000Y-76332833D01*
X108656333Y-76417500D01*
X108698666Y-76459833D01*
X108783333Y-76502166D01*
X108952666Y-76502166D01*
X109037333Y-76459833D01*
X109079666Y-76417500D01*
X109122000Y-76332833D01*
X109122000Y-75613166D01*
X109418333Y-75613166D02*
X109926333Y-75613166D01*
X109672333Y-76502166D02*
X109672333Y-75613166D01*
X105975166Y-76502166D02*
X105678833Y-76078833D01*
X105467166Y-76502166D02*
X105467166Y-75613166D01*
X105805833Y-75613166D01*
X105890500Y-75655500D01*
X105932833Y-75697833D01*
X105975166Y-75782500D01*
X105975166Y-75909500D01*
X105932833Y-75994166D01*
X105890500Y-76036500D01*
X105805833Y-76078833D01*
X105467166Y-76078833D01*
X102462666Y-75655500D02*
X102378000Y-75613166D01*
X102251000Y-75613166D01*
X102124000Y-75655500D01*
X102039333Y-75740166D01*
X101997000Y-75824833D01*
X101954666Y-75994166D01*
X101954666Y-76121166D01*
X101997000Y-76290500D01*
X102039333Y-76375166D01*
X102124000Y-76459833D01*
X102251000Y-76502166D01*
X102335666Y-76502166D01*
X102462666Y-76459833D01*
X102505000Y-76417500D01*
X102505000Y-76121166D01*
X102335666Y-76121166D01*
X102886000Y-76502166D02*
X102886000Y-75613166D01*
X103394000Y-76502166D01*
X103394000Y-75613166D01*
X103817333Y-76502166D02*
X103817333Y-75613166D01*
X104029000Y-75613166D01*
X104156000Y-75655500D01*
X104240666Y-75740166D01*
X104283000Y-75824833D01*
X104325333Y-75994166D01*
X104325333Y-76121166D01*
X104283000Y-76290500D01*
X104240666Y-76375166D01*
X104156000Y-76459833D01*
X104029000Y-76502166D01*
X103817333Y-76502166D01*
X125006333Y-75613166D02*
X125302666Y-76502166D01*
X125599000Y-75613166D01*
X125895333Y-76502166D02*
X125895333Y-75613166D01*
X126318666Y-76502166D02*
X126318666Y-75613166D01*
X126826666Y-76502166D01*
X126826666Y-75613166D01*
X128162666Y-75655500D02*
X128078000Y-75613166D01*
X127951000Y-75613166D01*
X127824000Y-75655500D01*
X127739333Y-75740166D01*
X127697000Y-75824833D01*
X127654666Y-75994166D01*
X127654666Y-76121166D01*
X127697000Y-76290500D01*
X127739333Y-76375166D01*
X127824000Y-76459833D01*
X127951000Y-76502166D01*
X128035666Y-76502166D01*
X128162666Y-76459833D01*
X128205000Y-76417500D01*
X128205000Y-76121166D01*
X128035666Y-76121166D01*
X128586000Y-76502166D02*
X128586000Y-75613166D01*
X129094000Y-76502166D01*
X129094000Y-75613166D01*
X129517333Y-76502166D02*
X129517333Y-75613166D01*
X129729000Y-75613166D01*
X129856000Y-75655500D01*
X129940666Y-75740166D01*
X129983000Y-75824833D01*
X130025333Y-75994166D01*
X130025333Y-76121166D01*
X129983000Y-76290500D01*
X129940666Y-76375166D01*
X129856000Y-76459833D01*
X129729000Y-76502166D01*
X129517333Y-76502166D01*
D11*
X110970714Y-120039285D02*
X110970714Y-119289285D01*
X111256428Y-119289285D01*
X111327857Y-119325000D01*
X111363571Y-119360714D01*
X111399285Y-119432142D01*
X111399285Y-119539285D01*
X111363571Y-119610714D01*
X111327857Y-119646428D01*
X111256428Y-119682142D01*
X110970714Y-119682142D01*
X112113571Y-119325000D02*
X112042142Y-119289285D01*
X111935000Y-119289285D01*
X111827857Y-119325000D01*
X111756428Y-119396428D01*
X111720714Y-119467857D01*
X111685000Y-119610714D01*
X111685000Y-119717857D01*
X111720714Y-119860714D01*
X111756428Y-119932142D01*
X111827857Y-120003571D01*
X111935000Y-120039285D01*
X112006428Y-120039285D01*
X112113571Y-120003571D01*
X112149285Y-119967857D01*
X112149285Y-119717857D01*
X112006428Y-119717857D01*
X112470714Y-120039285D02*
X112470714Y-119289285D01*
X112899285Y-120039285D01*
X112899285Y-119289285D01*
X113256428Y-120039285D02*
X113256428Y-119289285D01*
X113435000Y-119289285D01*
X113542142Y-119325000D01*
X113613571Y-119396428D01*
X113649285Y-119467857D01*
X113685000Y-119610714D01*
X113685000Y-119717857D01*
X113649285Y-119860714D01*
X113613571Y-119932142D01*
X113542142Y-120003571D01*
X113435000Y-120039285D01*
X113256428Y-120039285D01*
X111645714Y-124283571D02*
X112217142Y-124283571D01*
X112967142Y-124569285D02*
X112538571Y-124569285D01*
X112752857Y-124569285D02*
X112752857Y-123819285D01*
X112681428Y-123926428D01*
X112610000Y-123997857D01*
X112538571Y-124033571D01*
X113181428Y-123819285D02*
X113431428Y-124569285D01*
X113681428Y-123819285D01*
X124807142Y-121285000D02*
X124735714Y-121249285D01*
X124628571Y-121249285D01*
X124521428Y-121285000D01*
X124450000Y-121356428D01*
X124414285Y-121427857D01*
X124378571Y-121570714D01*
X124378571Y-121677857D01*
X124414285Y-121820714D01*
X124450000Y-121892142D01*
X124521428Y-121963571D01*
X124628571Y-121999285D01*
X124700000Y-121999285D01*
X124807142Y-121963571D01*
X124842857Y-121927857D01*
X124842857Y-121677857D01*
X124700000Y-121677857D01*
X125128571Y-121963571D02*
X125235714Y-121999285D01*
X125414285Y-121999285D01*
X125485714Y-121963571D01*
X125521428Y-121927857D01*
X125557142Y-121856428D01*
X125557142Y-121785000D01*
X125521428Y-121713571D01*
X125485714Y-121677857D01*
X125414285Y-121642142D01*
X125271428Y-121606428D01*
X125200000Y-121570714D01*
X125164285Y-121535000D01*
X125128571Y-121463571D01*
X125128571Y-121392142D01*
X125164285Y-121320714D01*
X125200000Y-121285000D01*
X125271428Y-121249285D01*
X125450000Y-121249285D01*
X125557142Y-121285000D01*
X125878571Y-121999285D02*
X125878571Y-121249285D01*
X126128571Y-121785000D01*
X126378571Y-121249285D01*
X126378571Y-121999285D01*
X127092857Y-121999285D02*
X126735714Y-121999285D01*
X126735714Y-121249285D01*
X126739285Y-120517142D02*
X125989285Y-120517142D01*
X125989285Y-120231428D01*
X126025000Y-120160000D01*
X126060714Y-120124285D01*
X126132142Y-120088571D01*
X126239285Y-120088571D01*
X126310714Y-120124285D01*
X126346428Y-120160000D01*
X126382142Y-120231428D01*
X126382142Y-120517142D01*
X126739285Y-119767142D02*
X125989285Y-119767142D01*
X125989285Y-119588571D01*
X126025000Y-119481428D01*
X126096428Y-119410000D01*
X126167857Y-119374285D01*
X126310714Y-119338571D01*
X126417857Y-119338571D01*
X126560714Y-119374285D01*
X126632142Y-119410000D01*
X126703571Y-119481428D01*
X126739285Y-119588571D01*
X126739285Y-119767142D01*
X126810714Y-119195714D02*
X126810714Y-118624285D01*
X126739285Y-118445714D02*
X125989285Y-118445714D01*
X126525000Y-118195714D01*
X125989285Y-117945714D01*
X126739285Y-117945714D01*
X125989285Y-117445714D02*
X125989285Y-117302857D01*
X126025000Y-117231428D01*
X126096428Y-117160000D01*
X126239285Y-117124285D01*
X126489285Y-117124285D01*
X126632142Y-117160000D01*
X126703571Y-117231428D01*
X126739285Y-117302857D01*
X126739285Y-117445714D01*
X126703571Y-117517142D01*
X126632142Y-117588571D01*
X126489285Y-117624285D01*
X126239285Y-117624285D01*
X126096428Y-117588571D01*
X126025000Y-117517142D01*
X125989285Y-117445714D01*
X125989285Y-116802857D02*
X126596428Y-116802857D01*
X126667857Y-116767142D01*
X126703571Y-116731428D01*
X126739285Y-116660000D01*
X126739285Y-116517142D01*
X126703571Y-116445714D01*
X126667857Y-116410000D01*
X126596428Y-116374285D01*
X125989285Y-116374285D01*
X125989285Y-116124285D02*
X125989285Y-115695714D01*
X126739285Y-115910000D02*
X125989285Y-115910000D01*
X124342857Y-114085000D02*
X124271428Y-114049285D01*
X124164285Y-114049285D01*
X124057142Y-114085000D01*
X123985714Y-114156428D01*
X123950000Y-114227857D01*
X123914285Y-114370714D01*
X123914285Y-114477857D01*
X123950000Y-114620714D01*
X123985714Y-114692142D01*
X124057142Y-114763571D01*
X124164285Y-114799285D01*
X124235714Y-114799285D01*
X124342857Y-114763571D01*
X124378571Y-114727857D01*
X124378571Y-114477857D01*
X124235714Y-114477857D01*
X125057142Y-114799285D02*
X124700000Y-114799285D01*
X124700000Y-114049285D01*
X125735714Y-114799285D02*
X125485714Y-114442142D01*
X125307142Y-114799285D02*
X125307142Y-114049285D01*
X125592857Y-114049285D01*
X125664285Y-114085000D01*
X125700000Y-114120714D01*
X125735714Y-114192142D01*
X125735714Y-114299285D01*
X125700000Y-114370714D01*
X125664285Y-114406428D01*
X125592857Y-114442142D01*
X125307142Y-114442142D01*
X126450000Y-114085000D02*
X126378571Y-114049285D01*
X126271428Y-114049285D01*
X126164285Y-114085000D01*
X126092857Y-114156428D01*
X126057142Y-114227857D01*
X126021428Y-114370714D01*
X126021428Y-114477857D01*
X126057142Y-114620714D01*
X126092857Y-114692142D01*
X126164285Y-114763571D01*
X126271428Y-114799285D01*
X126342857Y-114799285D01*
X126450000Y-114763571D01*
X126485714Y-114727857D01*
X126485714Y-114477857D01*
X126342857Y-114477857D01*
X124260714Y-110185000D02*
X124617857Y-110185000D01*
X124189285Y-110399285D02*
X124439285Y-109649285D01*
X124689285Y-110399285D01*
X125332142Y-109685000D02*
X125260714Y-109649285D01*
X125153571Y-109649285D01*
X125046428Y-109685000D01*
X124975000Y-109756428D01*
X124939285Y-109827857D01*
X124903571Y-109970714D01*
X124903571Y-110077857D01*
X124939285Y-110220714D01*
X124975000Y-110292142D01*
X125046428Y-110363571D01*
X125153571Y-110399285D01*
X125225000Y-110399285D01*
X125332142Y-110363571D01*
X125367857Y-110327857D01*
X125367857Y-110077857D01*
X125225000Y-110077857D01*
X125653571Y-110363571D02*
X125760714Y-110399285D01*
X125939285Y-110399285D01*
X126010714Y-110363571D01*
X126046428Y-110327857D01*
X126082142Y-110256428D01*
X126082142Y-110185000D01*
X126046428Y-110113571D01*
X126010714Y-110077857D01*
X125939285Y-110042142D01*
X125796428Y-110006428D01*
X125725000Y-109970714D01*
X125689285Y-109935000D01*
X125653571Y-109863571D01*
X125653571Y-109792142D01*
X125689285Y-109720714D01*
X125725000Y-109685000D01*
X125796428Y-109649285D01*
X125975000Y-109649285D01*
X126082142Y-109685000D01*
X126332142Y-109649285D02*
X126510714Y-110399285D01*
X126653571Y-109863571D01*
X126796428Y-110399285D01*
X126975000Y-109649285D01*
X124935714Y-107413571D02*
X125507142Y-107413571D01*
X126257142Y-107699285D02*
X125828571Y-107699285D01*
X126042857Y-107699285D02*
X126042857Y-106949285D01*
X125971428Y-107056428D01*
X125900000Y-107127857D01*
X125828571Y-107163571D01*
X126471428Y-106949285D02*
X126721428Y-107699285D01*
X126971428Y-106949285D01*
X120617857Y-105199285D02*
X120617857Y-104449285D01*
X120903571Y-104449285D01*
X120975000Y-104485000D01*
X121010714Y-104520714D01*
X121046428Y-104592142D01*
X121046428Y-104699285D01*
X121010714Y-104770714D01*
X120975000Y-104806428D01*
X120903571Y-104842142D01*
X120617857Y-104842142D01*
X121367857Y-105199285D02*
X121367857Y-104449285D01*
X121367857Y-104806428D02*
X121796428Y-104806428D01*
X121796428Y-105199285D02*
X121796428Y-104449285D01*
X122296428Y-104449285D02*
X122439285Y-104449285D01*
X122510714Y-104485000D01*
X122582142Y-104556428D01*
X122617857Y-104699285D01*
X122617857Y-104949285D01*
X122582142Y-105092142D01*
X122510714Y-105163571D01*
X122439285Y-105199285D01*
X122296428Y-105199285D01*
X122225000Y-105163571D01*
X122153571Y-105092142D01*
X122117857Y-104949285D01*
X122117857Y-104699285D01*
X122153571Y-104556428D01*
X122225000Y-104485000D01*
X122296428Y-104449285D01*
X122832142Y-104449285D02*
X123260714Y-104449285D01*
X123046428Y-105199285D02*
X123046428Y-104449285D01*
X123653571Y-104449285D02*
X123796428Y-104449285D01*
X123867857Y-104485000D01*
X123939285Y-104556428D01*
X123975000Y-104699285D01*
X123975000Y-104949285D01*
X123939285Y-105092142D01*
X123867857Y-105163571D01*
X123796428Y-105199285D01*
X123653571Y-105199285D01*
X123582142Y-105163571D01*
X123510714Y-105092142D01*
X123475000Y-104949285D01*
X123475000Y-104699285D01*
X123510714Y-104556428D01*
X123582142Y-104485000D01*
X123653571Y-104449285D01*
X124117857Y-105270714D02*
X124689285Y-105270714D01*
X124796428Y-104449285D02*
X125260714Y-104449285D01*
X125010714Y-104735000D01*
X125117857Y-104735000D01*
X125189285Y-104770714D01*
X125225000Y-104806428D01*
X125260714Y-104877857D01*
X125260714Y-105056428D01*
X125225000Y-105127857D01*
X125189285Y-105163571D01*
X125117857Y-105199285D01*
X124903571Y-105199285D01*
X124832142Y-105163571D01*
X124796428Y-105127857D01*
X125475000Y-104449285D02*
X125725000Y-105199285D01*
X125975000Y-104449285D01*
X126153571Y-104449285D02*
X126617857Y-104449285D01*
X126367857Y-104735000D01*
X126475000Y-104735000D01*
X126546428Y-104770714D01*
X126582142Y-104806428D01*
X126617857Y-104877857D01*
X126617857Y-105056428D01*
X126582142Y-105127857D01*
X126546428Y-105163571D01*
X126475000Y-105199285D01*
X126260714Y-105199285D01*
X126189285Y-105163571D01*
X126153571Y-105127857D01*
X120510714Y-102599285D02*
X120510714Y-101849285D01*
X120796428Y-101849285D01*
X120867857Y-101885000D01*
X120903571Y-101920714D01*
X120939285Y-101992142D01*
X120939285Y-102099285D01*
X120903571Y-102170714D01*
X120867857Y-102206428D01*
X120796428Y-102242142D01*
X120510714Y-102242142D01*
X121260714Y-102599285D02*
X121260714Y-101849285D01*
X121260714Y-102206428D02*
X121689285Y-102206428D01*
X121689285Y-102599285D02*
X121689285Y-101849285D01*
X122189285Y-101849285D02*
X122332142Y-101849285D01*
X122403571Y-101885000D01*
X122475000Y-101956428D01*
X122510714Y-102099285D01*
X122510714Y-102349285D01*
X122475000Y-102492142D01*
X122403571Y-102563571D01*
X122332142Y-102599285D01*
X122189285Y-102599285D01*
X122117857Y-102563571D01*
X122046428Y-102492142D01*
X122010714Y-102349285D01*
X122010714Y-102099285D01*
X122046428Y-101956428D01*
X122117857Y-101885000D01*
X122189285Y-101849285D01*
X122725000Y-101849285D02*
X123153571Y-101849285D01*
X122939285Y-102599285D02*
X122939285Y-101849285D01*
X123546428Y-101849285D02*
X123689285Y-101849285D01*
X123760714Y-101885000D01*
X123832142Y-101956428D01*
X123867857Y-102099285D01*
X123867857Y-102349285D01*
X123832142Y-102492142D01*
X123760714Y-102563571D01*
X123689285Y-102599285D01*
X123546428Y-102599285D01*
X123475000Y-102563571D01*
X123403571Y-102492142D01*
X123367857Y-102349285D01*
X123367857Y-102099285D01*
X123403571Y-101956428D01*
X123475000Y-101885000D01*
X123546428Y-101849285D01*
X124010714Y-102670714D02*
X124582142Y-102670714D01*
X125153571Y-101885000D02*
X125082142Y-101849285D01*
X124975000Y-101849285D01*
X124867857Y-101885000D01*
X124796428Y-101956428D01*
X124760714Y-102027857D01*
X124725000Y-102170714D01*
X124725000Y-102277857D01*
X124760714Y-102420714D01*
X124796428Y-102492142D01*
X124867857Y-102563571D01*
X124975000Y-102599285D01*
X125046428Y-102599285D01*
X125153571Y-102563571D01*
X125189285Y-102527857D01*
X125189285Y-102277857D01*
X125046428Y-102277857D01*
X125510714Y-102599285D02*
X125510714Y-101849285D01*
X125939285Y-102599285D01*
X125939285Y-101849285D01*
X126296428Y-102599285D02*
X126296428Y-101849285D01*
X126475000Y-101849285D01*
X126582142Y-101885000D01*
X126653571Y-101956428D01*
X126689285Y-102027857D01*
X126725000Y-102170714D01*
X126725000Y-102277857D01*
X126689285Y-102420714D01*
X126653571Y-102492142D01*
X126582142Y-102563571D01*
X126475000Y-102599285D01*
X126296428Y-102599285D01*
X119539285Y-99349285D02*
X119967857Y-99349285D01*
X119753571Y-100099285D02*
X119753571Y-99349285D01*
X120217857Y-100099285D02*
X120217857Y-99349285D01*
X120217857Y-99706428D02*
X120646428Y-99706428D01*
X120646428Y-100099285D02*
X120646428Y-99349285D01*
X121003571Y-99706428D02*
X121253571Y-99706428D01*
X121360714Y-100099285D02*
X121003571Y-100099285D01*
X121003571Y-99349285D01*
X121360714Y-99349285D01*
X122110714Y-100099285D02*
X121860714Y-99742142D01*
X121682142Y-100099285D02*
X121682142Y-99349285D01*
X121967857Y-99349285D01*
X122039285Y-99385000D01*
X122075000Y-99420714D01*
X122110714Y-99492142D01*
X122110714Y-99599285D01*
X122075000Y-99670714D01*
X122039285Y-99706428D01*
X121967857Y-99742142D01*
X121682142Y-99742142D01*
X122432142Y-100099285D02*
X122432142Y-99349285D01*
X122682142Y-99885000D01*
X122932142Y-99349285D01*
X122932142Y-100099285D01*
X123110714Y-100170714D02*
X123682142Y-100170714D01*
X123753571Y-99349285D02*
X124182142Y-99349285D01*
X123967857Y-100099285D02*
X123967857Y-99349285D01*
X124432142Y-99706428D02*
X124682142Y-99706428D01*
X124789285Y-100099285D02*
X124432142Y-100099285D01*
X124432142Y-99349285D01*
X124789285Y-99349285D01*
X125075000Y-100063571D02*
X125182142Y-100099285D01*
X125360714Y-100099285D01*
X125432142Y-100063571D01*
X125467857Y-100027857D01*
X125503571Y-99956428D01*
X125503571Y-99885000D01*
X125467857Y-99813571D01*
X125432142Y-99777857D01*
X125360714Y-99742142D01*
X125217857Y-99706428D01*
X125146428Y-99670714D01*
X125110714Y-99635000D01*
X125075000Y-99563571D01*
X125075000Y-99492142D01*
X125110714Y-99420714D01*
X125146428Y-99385000D01*
X125217857Y-99349285D01*
X125396428Y-99349285D01*
X125503571Y-99385000D01*
X125717857Y-99349285D02*
X126146428Y-99349285D01*
X125932142Y-100099285D02*
X125932142Y-99349285D01*
X126789285Y-100099285D02*
X126360714Y-100099285D01*
X126575000Y-100099285D02*
X126575000Y-99349285D01*
X126503571Y-99456428D01*
X126432142Y-99527857D01*
X126360714Y-99563571D01*
X123878571Y-95249285D02*
X124378571Y-95999285D01*
X124378571Y-95249285D02*
X123878571Y-95999285D01*
X124807142Y-95249285D02*
X124950000Y-95249285D01*
X125021428Y-95285000D01*
X125092857Y-95356428D01*
X125128571Y-95499285D01*
X125128571Y-95749285D01*
X125092857Y-95892142D01*
X125021428Y-95963571D01*
X124950000Y-95999285D01*
X124807142Y-95999285D01*
X124735714Y-95963571D01*
X124664285Y-95892142D01*
X124628571Y-95749285D01*
X124628571Y-95499285D01*
X124664285Y-95356428D01*
X124735714Y-95285000D01*
X124807142Y-95249285D01*
X125450000Y-95249285D02*
X125450000Y-95856428D01*
X125485714Y-95927857D01*
X125521428Y-95963571D01*
X125592857Y-95999285D01*
X125735714Y-95999285D01*
X125807142Y-95963571D01*
X125842857Y-95927857D01*
X125878571Y-95856428D01*
X125878571Y-95249285D01*
X126128571Y-95249285D02*
X126557142Y-95249285D01*
X126342857Y-95999285D02*
X126342857Y-95249285D01*
X123982142Y-93327857D02*
X123946428Y-93363571D01*
X123839285Y-93399285D01*
X123767857Y-93399285D01*
X123660714Y-93363571D01*
X123589285Y-93292142D01*
X123553571Y-93220714D01*
X123517857Y-93077857D01*
X123517857Y-92970714D01*
X123553571Y-92827857D01*
X123589285Y-92756428D01*
X123660714Y-92685000D01*
X123767857Y-92649285D01*
X123839285Y-92649285D01*
X123946428Y-92685000D01*
X123982142Y-92720714D01*
X124660714Y-93399285D02*
X124303571Y-93399285D01*
X124303571Y-92649285D01*
X124910714Y-93399285D02*
X124910714Y-92649285D01*
X125339285Y-93399285D02*
X125017857Y-92970714D01*
X125339285Y-92649285D02*
X124910714Y-93077857D01*
X125660714Y-93399285D02*
X125660714Y-92649285D01*
X126017857Y-93399285D02*
X126017857Y-92649285D01*
X126446428Y-93399285D01*
X126446428Y-92649285D01*
X122160714Y-89385000D02*
X122517857Y-89385000D01*
X122089285Y-89599285D02*
X122339285Y-88849285D01*
X122589285Y-89599285D01*
X122839285Y-89599285D02*
X122839285Y-88849285D01*
X123089285Y-89385000D01*
X123339285Y-88849285D01*
X123339285Y-89599285D01*
X123696428Y-89599285D02*
X123696428Y-88849285D01*
X123982142Y-88849285D01*
X124053571Y-88885000D01*
X124089285Y-88920714D01*
X124125000Y-88992142D01*
X124125000Y-89099285D01*
X124089285Y-89170714D01*
X124053571Y-89206428D01*
X123982142Y-89242142D01*
X123696428Y-89242142D01*
X124267857Y-89670714D02*
X124839285Y-89670714D01*
X125160714Y-88849285D02*
X125303571Y-88849285D01*
X125375000Y-88885000D01*
X125446428Y-88956428D01*
X125482142Y-89099285D01*
X125482142Y-89349285D01*
X125446428Y-89492142D01*
X125375000Y-89563571D01*
X125303571Y-89599285D01*
X125160714Y-89599285D01*
X125089285Y-89563571D01*
X125017857Y-89492142D01*
X124982142Y-89349285D01*
X124982142Y-89099285D01*
X125017857Y-88956428D01*
X125089285Y-88885000D01*
X125160714Y-88849285D01*
X125803571Y-88849285D02*
X125803571Y-89456428D01*
X125839285Y-89527857D01*
X125875000Y-89563571D01*
X125946428Y-89599285D01*
X126089285Y-89599285D01*
X126160714Y-89563571D01*
X126196428Y-89527857D01*
X126232142Y-89456428D01*
X126232142Y-88849285D01*
X126482142Y-88849285D02*
X126910714Y-88849285D01*
X126696428Y-89599285D02*
X126696428Y-88849285D01*
X120007142Y-86999285D02*
X120007142Y-86249285D01*
X120292857Y-86249285D01*
X120364285Y-86285000D01*
X120400000Y-86320714D01*
X120435714Y-86392142D01*
X120435714Y-86499285D01*
X120400000Y-86570714D01*
X120364285Y-86606428D01*
X120292857Y-86642142D01*
X120007142Y-86642142D01*
X120757142Y-86999285D02*
X120757142Y-86249285D01*
X120935714Y-86249285D01*
X121042857Y-86285000D01*
X121114285Y-86356428D01*
X121150000Y-86427857D01*
X121185714Y-86570714D01*
X121185714Y-86677857D01*
X121150000Y-86820714D01*
X121114285Y-86892142D01*
X121042857Y-86963571D01*
X120935714Y-86999285D01*
X120757142Y-86999285D01*
X121328571Y-87070714D02*
X121900000Y-87070714D01*
X122078571Y-86999285D02*
X122078571Y-86249285D01*
X122328571Y-86785000D01*
X122578571Y-86249285D01*
X122578571Y-86999285D01*
X122935714Y-86249285D02*
X122935714Y-86856428D01*
X122971428Y-86927857D01*
X123007142Y-86963571D01*
X123078571Y-86999285D01*
X123221428Y-86999285D01*
X123292857Y-86963571D01*
X123328571Y-86927857D01*
X123364285Y-86856428D01*
X123364285Y-86249285D01*
X123650000Y-86249285D02*
X124150000Y-86999285D01*
X124150000Y-86249285D02*
X123650000Y-86999285D01*
X124257142Y-87070714D02*
X124828571Y-87070714D01*
X125150000Y-86249285D02*
X125292857Y-86249285D01*
X125364285Y-86285000D01*
X125435714Y-86356428D01*
X125471428Y-86499285D01*
X125471428Y-86749285D01*
X125435714Y-86892142D01*
X125364285Y-86963571D01*
X125292857Y-86999285D01*
X125150000Y-86999285D01*
X125078571Y-86963571D01*
X125007142Y-86892142D01*
X124971428Y-86749285D01*
X124971428Y-86499285D01*
X125007142Y-86356428D01*
X125078571Y-86285000D01*
X125150000Y-86249285D01*
X125792857Y-86249285D02*
X125792857Y-86856428D01*
X125828571Y-86927857D01*
X125864285Y-86963571D01*
X125935714Y-86999285D01*
X126078571Y-86999285D01*
X126150000Y-86963571D01*
X126185714Y-86927857D01*
X126221428Y-86856428D01*
X126221428Y-86249285D01*
X126471428Y-86249285D02*
X126900000Y-86249285D01*
X126685714Y-86999285D02*
X126685714Y-86249285D01*
X121978571Y-84499285D02*
X121978571Y-83749285D01*
X122264285Y-83749285D01*
X122335714Y-83785000D01*
X122371428Y-83820714D01*
X122407142Y-83892142D01*
X122407142Y-83999285D01*
X122371428Y-84070714D01*
X122335714Y-84106428D01*
X122264285Y-84142142D01*
X121978571Y-84142142D01*
X122728571Y-84499285D02*
X122728571Y-83749285D01*
X122728571Y-84106428D02*
X123157142Y-84106428D01*
X123157142Y-84499285D02*
X123157142Y-83749285D01*
X123657142Y-83749285D02*
X123800000Y-83749285D01*
X123871428Y-83785000D01*
X123942857Y-83856428D01*
X123978571Y-83999285D01*
X123978571Y-84249285D01*
X123942857Y-84392142D01*
X123871428Y-84463571D01*
X123800000Y-84499285D01*
X123657142Y-84499285D01*
X123585714Y-84463571D01*
X123514285Y-84392142D01*
X123478571Y-84249285D01*
X123478571Y-83999285D01*
X123514285Y-83856428D01*
X123585714Y-83785000D01*
X123657142Y-83749285D01*
X124192857Y-83749285D02*
X124621428Y-83749285D01*
X124407142Y-84499285D02*
X124407142Y-83749285D01*
X125014285Y-83749285D02*
X125157142Y-83749285D01*
X125228571Y-83785000D01*
X125300000Y-83856428D01*
X125335714Y-83999285D01*
X125335714Y-84249285D01*
X125300000Y-84392142D01*
X125228571Y-84463571D01*
X125157142Y-84499285D01*
X125014285Y-84499285D01*
X124942857Y-84463571D01*
X124871428Y-84392142D01*
X124835714Y-84249285D01*
X124835714Y-83999285D01*
X124871428Y-83856428D01*
X124942857Y-83785000D01*
X125014285Y-83749285D01*
X125478571Y-84570714D02*
X126050000Y-84570714D01*
X126228571Y-84499285D02*
X126228571Y-83749285D01*
X126514285Y-83749285D01*
X126585714Y-83785000D01*
X126621428Y-83820714D01*
X126657142Y-83892142D01*
X126657142Y-83999285D01*
X126621428Y-84070714D01*
X126585714Y-84106428D01*
X126514285Y-84142142D01*
X126228571Y-84142142D01*
X121960714Y-81899285D02*
X121960714Y-81149285D01*
X122246428Y-81149285D01*
X122317857Y-81185000D01*
X122353571Y-81220714D01*
X122389285Y-81292142D01*
X122389285Y-81399285D01*
X122353571Y-81470714D01*
X122317857Y-81506428D01*
X122246428Y-81542142D01*
X121960714Y-81542142D01*
X122710714Y-81899285D02*
X122710714Y-81149285D01*
X122710714Y-81506428D02*
X123139285Y-81506428D01*
X123139285Y-81899285D02*
X123139285Y-81149285D01*
X123639285Y-81149285D02*
X123782142Y-81149285D01*
X123853571Y-81185000D01*
X123925000Y-81256428D01*
X123960714Y-81399285D01*
X123960714Y-81649285D01*
X123925000Y-81792142D01*
X123853571Y-81863571D01*
X123782142Y-81899285D01*
X123639285Y-81899285D01*
X123567857Y-81863571D01*
X123496428Y-81792142D01*
X123460714Y-81649285D01*
X123460714Y-81399285D01*
X123496428Y-81256428D01*
X123567857Y-81185000D01*
X123639285Y-81149285D01*
X124175000Y-81149285D02*
X124603571Y-81149285D01*
X124389285Y-81899285D02*
X124389285Y-81149285D01*
X124996428Y-81149285D02*
X125139285Y-81149285D01*
X125210714Y-81185000D01*
X125282142Y-81256428D01*
X125317857Y-81399285D01*
X125317857Y-81649285D01*
X125282142Y-81792142D01*
X125210714Y-81863571D01*
X125139285Y-81899285D01*
X124996428Y-81899285D01*
X124925000Y-81863571D01*
X124853571Y-81792142D01*
X124817857Y-81649285D01*
X124817857Y-81399285D01*
X124853571Y-81256428D01*
X124925000Y-81185000D01*
X124996428Y-81149285D01*
X125460714Y-81970714D02*
X126032142Y-81970714D01*
X126210714Y-81899285D02*
X126210714Y-81149285D01*
X126639285Y-81899285D01*
X126639285Y-81149285D01*
X100628571Y-121175000D02*
X100557142Y-121139285D01*
X100450000Y-121139285D01*
X100342857Y-121175000D01*
X100271428Y-121246428D01*
X100235714Y-121317857D01*
X100200000Y-121460714D01*
X100200000Y-121567857D01*
X100235714Y-121710714D01*
X100271428Y-121782142D01*
X100342857Y-121853571D01*
X100450000Y-121889285D01*
X100521428Y-121889285D01*
X100628571Y-121853571D01*
X100664285Y-121817857D01*
X100664285Y-121567857D01*
X100521428Y-121567857D01*
X100985714Y-121889285D02*
X100985714Y-121139285D01*
X101414285Y-121889285D01*
X101414285Y-121139285D01*
X101771428Y-121889285D02*
X101771428Y-121139285D01*
X101950000Y-121139285D01*
X102057142Y-121175000D01*
X102128571Y-121246428D01*
X102164285Y-121317857D01*
X102200000Y-121460714D01*
X102200000Y-121567857D01*
X102164285Y-121710714D01*
X102128571Y-121782142D01*
X102057142Y-121853571D01*
X101950000Y-121889285D01*
X101771428Y-121889285D01*
X106582142Y-125793571D02*
X106689285Y-125829285D01*
X106867857Y-125829285D01*
X106939285Y-125793571D01*
X106975000Y-125757857D01*
X107010714Y-125686428D01*
X107010714Y-125615000D01*
X106975000Y-125543571D01*
X106939285Y-125507857D01*
X106867857Y-125472142D01*
X106725000Y-125436428D01*
X106653571Y-125400714D01*
X106617857Y-125365000D01*
X106582142Y-125293571D01*
X106582142Y-125222142D01*
X106617857Y-125150714D01*
X106653571Y-125115000D01*
X106725000Y-125079285D01*
X106903571Y-125079285D01*
X107010714Y-125115000D01*
X107760714Y-125757857D02*
X107725000Y-125793571D01*
X107617857Y-125829285D01*
X107546428Y-125829285D01*
X107439285Y-125793571D01*
X107367857Y-125722142D01*
X107332142Y-125650714D01*
X107296428Y-125507857D01*
X107296428Y-125400714D01*
X107332142Y-125257857D01*
X107367857Y-125186428D01*
X107439285Y-125115000D01*
X107546428Y-125079285D01*
X107617857Y-125079285D01*
X107725000Y-125115000D01*
X107760714Y-125150714D01*
X108439285Y-125829285D02*
X108082142Y-125829285D01*
X108082142Y-125079285D01*
X108689285Y-125829285D02*
X108689285Y-125079285D01*
X109117857Y-125829285D02*
X108796428Y-125400714D01*
X109117857Y-125079285D02*
X108689285Y-125507857D01*
X101365000Y-126867857D02*
X101329285Y-126903571D01*
X101222142Y-126939285D01*
X101150714Y-126939285D01*
X101043571Y-126903571D01*
X100972142Y-126832142D01*
X100936428Y-126760714D01*
X100900714Y-126617857D01*
X100900714Y-126510714D01*
X100936428Y-126367857D01*
X100972142Y-126296428D01*
X101043571Y-126225000D01*
X101150714Y-126189285D01*
X101222142Y-126189285D01*
X101329285Y-126225000D01*
X101365000Y-126260714D01*
X101650714Y-126903571D02*
X101757857Y-126939285D01*
X101936428Y-126939285D01*
X102007857Y-126903571D01*
X102043571Y-126867857D01*
X102079285Y-126796428D01*
X102079285Y-126725000D01*
X102043571Y-126653571D01*
X102007857Y-126617857D01*
X101936428Y-126582142D01*
X101793571Y-126546428D01*
X101722142Y-126510714D01*
X101686428Y-126475000D01*
X101650714Y-126403571D01*
X101650714Y-126332142D01*
X101686428Y-126260714D01*
X101722142Y-126225000D01*
X101793571Y-126189285D01*
X101972142Y-126189285D01*
X102079285Y-126225000D01*
X100319285Y-123323571D02*
X100426428Y-123359285D01*
X100605000Y-123359285D01*
X100676428Y-123323571D01*
X100712142Y-123287857D01*
X100747857Y-123216428D01*
X100747857Y-123145000D01*
X100712142Y-123073571D01*
X100676428Y-123037857D01*
X100605000Y-123002142D01*
X100462142Y-122966428D01*
X100390714Y-122930714D01*
X100355000Y-122895000D01*
X100319285Y-122823571D01*
X100319285Y-122752142D01*
X100355000Y-122680714D01*
X100390714Y-122645000D01*
X100462142Y-122609285D01*
X100640714Y-122609285D01*
X100747857Y-122645000D01*
X101069285Y-123359285D02*
X101069285Y-122609285D01*
X101247857Y-122609285D01*
X101355000Y-122645000D01*
X101426428Y-122716428D01*
X101462142Y-122787857D01*
X101497857Y-122930714D01*
X101497857Y-123037857D01*
X101462142Y-123180714D01*
X101426428Y-123252142D01*
X101355000Y-123323571D01*
X101247857Y-123359285D01*
X101069285Y-123359285D01*
X101819285Y-123359285D02*
X101819285Y-122609285D01*
X102319285Y-122609285D02*
X102462142Y-122609285D01*
X102533571Y-122645000D01*
X102605000Y-122716428D01*
X102640714Y-122859285D01*
X102640714Y-123109285D01*
X102605000Y-123252142D01*
X102533571Y-123323571D01*
X102462142Y-123359285D01*
X102319285Y-123359285D01*
X102247857Y-123323571D01*
X102176428Y-123252142D01*
X102140714Y-123109285D01*
X102140714Y-122859285D01*
X102176428Y-122716428D01*
X102247857Y-122645000D01*
X102319285Y-122609285D01*
X107848571Y-122575000D02*
X107777142Y-122539285D01*
X107670000Y-122539285D01*
X107562857Y-122575000D01*
X107491428Y-122646428D01*
X107455714Y-122717857D01*
X107420000Y-122860714D01*
X107420000Y-122967857D01*
X107455714Y-123110714D01*
X107491428Y-123182142D01*
X107562857Y-123253571D01*
X107670000Y-123289285D01*
X107741428Y-123289285D01*
X107848571Y-123253571D01*
X107884285Y-123217857D01*
X107884285Y-122967857D01*
X107741428Y-122967857D01*
X108205714Y-123289285D02*
X108205714Y-122539285D01*
X108634285Y-123289285D01*
X108634285Y-122539285D01*
X108991428Y-123289285D02*
X108991428Y-122539285D01*
X109170000Y-122539285D01*
X109277142Y-122575000D01*
X109348571Y-122646428D01*
X109384285Y-122717857D01*
X109420000Y-122860714D01*
X109420000Y-122967857D01*
X109384285Y-123110714D01*
X109348571Y-123182142D01*
X109277142Y-123253571D01*
X109170000Y-123289285D01*
X108991428Y-123289285D01*
D12*
X122920000Y-72655000D02*
G75*
G03*
X122920000Y-72655000I-100000J0D01*
G01*
D13*
X120800000Y-72935000D02*
X117800000Y-72935000D01*
X120800000Y-69865000D02*
X117800000Y-69865000D01*
D14*
X126150000Y-70000000D02*
X126150000Y-69000000D01*
X124450000Y-69000000D02*
X124450000Y-70000000D01*
X122550000Y-69000000D02*
X122550000Y-70000000D01*
X124250000Y-70000000D02*
X124250000Y-69000000D01*
X118950000Y-73300000D02*
X119650000Y-73300000D01*
X119650000Y-74500000D02*
X118950000Y-74500000D01*
X121100000Y-74680000D02*
X119100000Y-74680000D01*
X119100000Y-76720000D02*
X121100000Y-76720000D01*
X114550000Y-73100000D02*
X113850000Y-73100000D01*
X113850000Y-71900000D02*
X114550000Y-71900000D01*
X112500000Y-75420000D02*
X114500000Y-75420000D01*
X114500000Y-73380000D02*
X112500000Y-73380000D01*
X111920000Y-69500000D02*
X111920000Y-67500000D01*
X109880000Y-67500000D02*
X109880000Y-69500000D01*
X113750000Y-70000000D02*
X113750000Y-69000000D01*
X112050000Y-69000000D02*
X112050000Y-70000000D01*
X113980000Y-67500000D02*
X113980000Y-69500000D01*
X116020000Y-69500000D02*
X116020000Y-67500000D01*
X108300000Y-71780000D02*
X107300000Y-71780000D01*
X107300000Y-70420000D02*
X108300000Y-70420000D01*
X109630000Y-72370000D02*
X109630000Y-73700000D01*
X108300000Y-72370000D02*
X109630000Y-72370000D01*
X107030000Y-72370000D02*
X107030000Y-75030000D01*
X107030000Y-75030000D02*
X101890000Y-75030000D01*
X107030000Y-72370000D02*
X101890000Y-72370000D01*
X101890000Y-72370000D02*
X101890000Y-75030000D01*
X129950000Y-75030000D02*
X129950000Y-72370000D01*
X127350000Y-75030000D02*
X129950000Y-75030000D01*
X127350000Y-72370000D02*
X129950000Y-72370000D01*
X127350000Y-75030000D02*
X127350000Y-72370000D01*
X126080000Y-75030000D02*
X124750000Y-75030000D01*
X124750000Y-75030000D02*
X124750000Y-73700000D01*
D15*
X107620300Y-96618976D02*
X107620300Y-100501024D01*
X112979700Y-100501024D02*
X112979700Y-96618976D01*
X108865499Y-102725600D02*
X108484499Y-102725600D01*
X108484499Y-102725600D02*
X108484499Y-102471600D01*
X108484499Y-102471600D02*
X108865499Y-102471600D01*
X108865499Y-102471600D02*
X108865499Y-102725600D01*
D14*
X113600000Y-107510000D02*
X114600000Y-107510000D01*
X114600000Y-105810000D02*
X113600000Y-105810000D01*
X129650000Y-125260000D02*
X128950000Y-125260000D01*
X128950000Y-124060000D02*
X129650000Y-124060000D01*
X104550000Y-121260000D02*
X105250000Y-121260000D01*
X105250000Y-122460000D02*
X104550000Y-122460000D01*
X125350000Y-125260000D02*
X124650000Y-125260000D01*
X124650000Y-124060000D02*
X125350000Y-124060000D01*
X118100000Y-121110000D02*
X118100000Y-121810000D01*
X116900000Y-121810000D02*
X116900000Y-121110000D01*
X110980000Y-110060000D02*
X110980000Y-111060000D01*
X109620000Y-111060000D02*
X109620000Y-110060000D01*
X113800000Y-117640000D02*
X112800000Y-117640000D01*
X112800000Y-116280000D02*
X113800000Y-116280000D01*
X122000000Y-106780000D02*
X123000000Y-106780000D01*
X123000000Y-108140000D02*
X122000000Y-108140000D01*
D15*
X111420300Y-109820576D02*
X111420300Y-113499424D01*
X116779700Y-113499424D02*
X116779700Y-109820576D01*
X112665499Y-115724000D02*
X112284499Y-115724000D01*
X112284499Y-115724000D02*
X112284499Y-115470000D01*
X112284499Y-115470000D02*
X112665499Y-115470000D01*
X112665499Y-115470000D02*
X112665499Y-115724000D01*
D14*
X105000000Y-120830000D02*
X103730000Y-120830000D01*
X105000000Y-119560000D02*
X105000000Y-120830000D01*
X102687071Y-86160000D02*
X102290000Y-86160000D01*
X102687071Y-86920000D02*
X102290000Y-86920000D01*
X93630000Y-86160000D02*
X99630000Y-86160000D01*
X93630000Y-86920000D02*
X93630000Y-86160000D01*
X99630000Y-86920000D02*
X93630000Y-86920000D01*
X102290000Y-87810000D02*
X99630000Y-87810000D01*
X102687071Y-88700000D02*
X102290000Y-88700000D01*
X102687071Y-89460000D02*
X102290000Y-89460000D01*
X93630000Y-88700000D02*
X99630000Y-88700000D01*
X93630000Y-89460000D02*
X93630000Y-88700000D01*
X99630000Y-89460000D02*
X93630000Y-89460000D01*
X102290000Y-90350000D02*
X99630000Y-90350000D01*
X102687071Y-91240000D02*
X102290000Y-91240000D01*
X102687071Y-92000000D02*
X102290000Y-92000000D01*
X93630000Y-91240000D02*
X99630000Y-91240000D01*
X93630000Y-92000000D02*
X93630000Y-91240000D01*
X99630000Y-92000000D02*
X93630000Y-92000000D01*
X102290000Y-92890000D02*
X99630000Y-92890000D01*
X102687071Y-93780000D02*
X102290000Y-93780000D01*
X102687071Y-94540000D02*
X102290000Y-94540000D01*
X93630000Y-93780000D02*
X99630000Y-93780000D01*
X93630000Y-94540000D02*
X93630000Y-93780000D01*
X99630000Y-94540000D02*
X93630000Y-94540000D01*
X102290000Y-95430000D02*
X99630000Y-95430000D01*
X102687071Y-96320000D02*
X102290000Y-96320000D01*
X102687071Y-97080000D02*
X102290000Y-97080000D01*
X93630000Y-96320000D02*
X99630000Y-96320000D01*
X93630000Y-97080000D02*
X93630000Y-96320000D01*
X99630000Y-97080000D02*
X93630000Y-97080000D01*
X102290000Y-97970000D02*
X99630000Y-97970000D01*
X102687071Y-98860000D02*
X102290000Y-98860000D01*
X102687071Y-99620000D02*
X102290000Y-99620000D01*
X93630000Y-98860000D02*
X99630000Y-98860000D01*
X93630000Y-99620000D02*
X93630000Y-98860000D01*
X99630000Y-99620000D02*
X93630000Y-99620000D01*
X102290000Y-100510000D02*
X99630000Y-100510000D01*
X102687071Y-101400000D02*
X102290000Y-101400000D01*
X102687071Y-102160000D02*
X102290000Y-102160000D01*
X93630000Y-101400000D02*
X99630000Y-101400000D01*
X93630000Y-102160000D02*
X93630000Y-101400000D01*
X99630000Y-102160000D02*
X93630000Y-102160000D01*
X102290000Y-103050000D02*
X99630000Y-103050000D01*
X102687071Y-103940000D02*
X102290000Y-103940000D01*
X102687071Y-104700000D02*
X102290000Y-104700000D01*
X93630000Y-103940000D02*
X99630000Y-103940000D01*
X93630000Y-104700000D02*
X93630000Y-103940000D01*
X99630000Y-104700000D02*
X93630000Y-104700000D01*
X102290000Y-105590000D02*
X99630000Y-105590000D01*
X102687071Y-106480000D02*
X102290000Y-106480000D01*
X102687071Y-107240000D02*
X102290000Y-107240000D01*
X93630000Y-106480000D02*
X99630000Y-106480000D01*
X93630000Y-107240000D02*
X93630000Y-106480000D01*
X99630000Y-107240000D02*
X93630000Y-107240000D01*
X102290000Y-108130000D02*
X99630000Y-108130000D01*
X102687071Y-109020000D02*
X102290000Y-109020000D01*
X102687071Y-109780000D02*
X102290000Y-109780000D01*
X93630000Y-109020000D02*
X99630000Y-109020000D01*
X93630000Y-109780000D02*
X93630000Y-109020000D01*
X99630000Y-109780000D02*
X93630000Y-109780000D01*
X102290000Y-110670000D02*
X99630000Y-110670000D01*
X102687071Y-111560000D02*
X102290000Y-111560000D01*
X102687071Y-112320000D02*
X102290000Y-112320000D01*
X93630000Y-111560000D02*
X99630000Y-111560000D01*
X93630000Y-112320000D02*
X93630000Y-111560000D01*
X99630000Y-112320000D02*
X93630000Y-112320000D01*
X102290000Y-113210000D02*
X99630000Y-113210000D01*
X102687071Y-114100000D02*
X102290000Y-114100000D01*
X102687071Y-114860000D02*
X102290000Y-114860000D01*
X93630000Y-114100000D02*
X99630000Y-114100000D01*
X93630000Y-114860000D02*
X93630000Y-114100000D01*
X99630000Y-114860000D02*
X93630000Y-114860000D01*
X102290000Y-115750000D02*
X99630000Y-115750000D01*
X102687071Y-116640000D02*
X102290000Y-116640000D01*
X102687071Y-117400000D02*
X102290000Y-117400000D01*
X93630000Y-116640000D02*
X99630000Y-116640000D01*
X93630000Y-117400000D02*
X93630000Y-116640000D01*
X99630000Y-117400000D02*
X93630000Y-117400000D01*
X102290000Y-118290000D02*
X99630000Y-118290000D01*
X102620000Y-119180000D02*
X102290000Y-119180000D01*
X102620000Y-119940000D02*
X102290000Y-119940000D01*
X99630000Y-119280000D02*
X93630000Y-119280000D01*
X99630000Y-119400000D02*
X93630000Y-119400000D01*
X99630000Y-119520000D02*
X93630000Y-119520000D01*
X99630000Y-119640000D02*
X93630000Y-119640000D01*
X99630000Y-119760000D02*
X93630000Y-119760000D01*
X99630000Y-119880000D02*
X93630000Y-119880000D01*
X93630000Y-119180000D02*
X99630000Y-119180000D01*
X93630000Y-119940000D02*
X93630000Y-119180000D01*
X99630000Y-119940000D02*
X93630000Y-119940000D01*
X99630000Y-120890000D02*
X102290000Y-120890000D01*
X99630000Y-85210000D02*
X99630000Y-120890000D01*
X102290000Y-85210000D02*
X99630000Y-85210000D01*
X102290000Y-120890000D02*
X102290000Y-85210000D01*
X126650000Y-128150000D02*
X129250000Y-128150000D01*
X129250000Y-128150000D02*
X129250000Y-136780000D01*
X129250000Y-136780000D02*
X126650000Y-136780000D01*
X126650000Y-136780000D02*
X126650000Y-128150000D01*
X127600000Y-127720000D02*
X127600000Y-128150000D01*
X128360000Y-127720000D02*
X128360000Y-128150000D01*
X126830000Y-128150000D02*
X126830000Y-136780000D01*
X126950000Y-128150000D02*
X126950000Y-136780000D01*
X127070000Y-128150000D02*
X127070000Y-136780000D01*
X127190000Y-128150000D02*
X127190000Y-136780000D01*
X127310000Y-128150000D02*
X127310000Y-136780000D01*
X127430000Y-128150000D02*
X127430000Y-136780000D01*
X127550000Y-128150000D02*
X127550000Y-136780000D01*
X127670000Y-128150000D02*
X127670000Y-136780000D01*
X127790000Y-128150000D02*
X127790000Y-136780000D01*
X127910000Y-128150000D02*
X127910000Y-136780000D01*
X128030000Y-128150000D02*
X128030000Y-136780000D01*
X128150000Y-128150000D02*
X128150000Y-136780000D01*
X128270000Y-128150000D02*
X128270000Y-136780000D01*
X128390000Y-128150000D02*
X128390000Y-136780000D01*
X128510000Y-128150000D02*
X128510000Y-136780000D01*
X128630000Y-128150000D02*
X128630000Y-136780000D01*
X128750000Y-128150000D02*
X128750000Y-136780000D01*
X128870000Y-128150000D02*
X128870000Y-136780000D01*
X128990000Y-128150000D02*
X128990000Y-136780000D01*
X129110000Y-128150000D02*
X129110000Y-136780000D01*
X129230000Y-128150000D02*
X129230000Y-136780000D01*
X129350000Y-128150000D02*
X129350000Y-136780000D01*
X129250000Y-128150000D02*
X131850000Y-128150000D01*
X131850000Y-128150000D02*
X131850000Y-136780000D01*
X131850000Y-136780000D02*
X129250000Y-136780000D01*
X129250000Y-136780000D02*
X129250000Y-128150000D01*
X130140000Y-127720000D02*
X130140000Y-128150000D01*
X130900000Y-127720000D02*
X130900000Y-128150000D01*
X126710000Y-126690000D02*
X126710000Y-125420000D01*
X126710000Y-125420000D02*
X127980000Y-125420000D01*
X107170000Y-122750000D02*
X107170000Y-124020000D01*
X105900000Y-122750000D02*
X107170000Y-122750000D01*
X102980000Y-125062929D02*
X102980000Y-125517071D01*
X103740000Y-125062929D02*
X103740000Y-125517071D01*
X102980000Y-127602929D02*
X102980000Y-128000000D01*
X103740000Y-127602929D02*
X103740000Y-128000000D01*
X102980000Y-136660000D02*
X102980000Y-130660000D01*
X103740000Y-136660000D02*
X102980000Y-136660000D01*
X103740000Y-130660000D02*
X103740000Y-136660000D01*
X104630000Y-128000000D02*
X104630000Y-130660000D01*
X105520000Y-125130000D02*
X105520000Y-125517071D01*
X106280000Y-125130000D02*
X106280000Y-125517071D01*
X105520000Y-127602929D02*
X105520000Y-128000000D01*
X106280000Y-127602929D02*
X106280000Y-128000000D01*
X105620000Y-130660000D02*
X105620000Y-136660000D01*
X105740000Y-130660000D02*
X105740000Y-136660000D01*
X105860000Y-130660000D02*
X105860000Y-136660000D01*
X105980000Y-130660000D02*
X105980000Y-136660000D01*
X106100000Y-130660000D02*
X106100000Y-136660000D01*
X106220000Y-130660000D02*
X106220000Y-136660000D01*
X105520000Y-136660000D02*
X105520000Y-130660000D01*
X106280000Y-136660000D02*
X105520000Y-136660000D01*
X106280000Y-130660000D02*
X106280000Y-136660000D01*
X107230000Y-130660000D02*
X107230000Y-128000000D01*
X102030000Y-130660000D02*
X107230000Y-130660000D01*
X102030000Y-128000000D02*
X102030000Y-130660000D01*
X107230000Y-128000000D02*
X102030000Y-128000000D01*
X117750000Y-108160000D02*
X117750000Y-109160000D01*
X119450000Y-109160000D02*
X119450000Y-108160000D01*
X126930000Y-98490000D02*
X128200000Y-98490000D01*
X126930000Y-99760000D02*
X126930000Y-98490000D01*
X129242929Y-110300000D02*
X129640000Y-110300000D01*
X129242929Y-109540000D02*
X129640000Y-109540000D01*
X138300000Y-110300000D02*
X132300000Y-110300000D01*
X138300000Y-109540000D02*
X138300000Y-110300000D01*
X132300000Y-109540000D02*
X138300000Y-109540000D01*
X129640000Y-108650000D02*
X132300000Y-108650000D01*
X129242929Y-107760000D02*
X129640000Y-107760000D01*
X129242929Y-107000000D02*
X129640000Y-107000000D01*
X138300000Y-107760000D02*
X132300000Y-107760000D01*
X138300000Y-107000000D02*
X138300000Y-107760000D01*
X132300000Y-107000000D02*
X138300000Y-107000000D01*
X129640000Y-106110000D02*
X132300000Y-106110000D01*
X129242929Y-105220000D02*
X129640000Y-105220000D01*
X129242929Y-104460000D02*
X129640000Y-104460000D01*
X138300000Y-105220000D02*
X132300000Y-105220000D01*
X138300000Y-104460000D02*
X138300000Y-105220000D01*
X132300000Y-104460000D02*
X138300000Y-104460000D01*
X129640000Y-103570000D02*
X132300000Y-103570000D01*
X129242929Y-102680000D02*
X129640000Y-102680000D01*
X129242929Y-101920000D02*
X129640000Y-101920000D01*
X138300000Y-102680000D02*
X132300000Y-102680000D01*
X138300000Y-101920000D02*
X138300000Y-102680000D01*
X132300000Y-101920000D02*
X138300000Y-101920000D01*
X129640000Y-101030000D02*
X132300000Y-101030000D01*
X129310000Y-100140000D02*
X129640000Y-100140000D01*
X129310000Y-99380000D02*
X129640000Y-99380000D01*
X132300000Y-100040000D02*
X138300000Y-100040000D01*
X132300000Y-99920000D02*
X138300000Y-99920000D01*
X132300000Y-99800000D02*
X138300000Y-99800000D01*
X132300000Y-99680000D02*
X138300000Y-99680000D01*
X132300000Y-99560000D02*
X138300000Y-99560000D01*
X132300000Y-99440000D02*
X138300000Y-99440000D01*
X138300000Y-100140000D02*
X132300000Y-100140000D01*
X138300000Y-99380000D02*
X138300000Y-100140000D01*
X132300000Y-99380000D02*
X138300000Y-99380000D01*
X132300000Y-98430000D02*
X129640000Y-98430000D01*
X132300000Y-111250000D02*
X132300000Y-98430000D01*
X129640000Y-111250000D02*
X132300000Y-111250000D01*
X129640000Y-98430000D02*
X129640000Y-111250000D01*
X126930000Y-91790000D02*
X128200000Y-91790000D01*
X126930000Y-93060000D02*
X126930000Y-91790000D01*
X129242929Y-95980000D02*
X129640000Y-95980000D01*
X129242929Y-95220000D02*
X129640000Y-95220000D01*
X138300000Y-95980000D02*
X132300000Y-95980000D01*
X138300000Y-95220000D02*
X138300000Y-95980000D01*
X132300000Y-95220000D02*
X138300000Y-95220000D01*
X129640000Y-94330000D02*
X132300000Y-94330000D01*
X129310000Y-93440000D02*
X129640000Y-93440000D01*
X129310000Y-92680000D02*
X129640000Y-92680000D01*
X132300000Y-93340000D02*
X138300000Y-93340000D01*
X132300000Y-93220000D02*
X138300000Y-93220000D01*
X132300000Y-93100000D02*
X138300000Y-93100000D01*
X132300000Y-92980000D02*
X138300000Y-92980000D01*
X132300000Y-92860000D02*
X138300000Y-92860000D01*
X132300000Y-92740000D02*
X138300000Y-92740000D01*
X138300000Y-93440000D02*
X132300000Y-93440000D01*
X138300000Y-92680000D02*
X138300000Y-93440000D01*
X132300000Y-92680000D02*
X138300000Y-92680000D01*
X132300000Y-91730000D02*
X129640000Y-91730000D01*
X132300000Y-96930000D02*
X132300000Y-91730000D01*
X129640000Y-96930000D02*
X132300000Y-96930000D01*
X129640000Y-91730000D02*
X129640000Y-96930000D01*
X126930000Y-113090000D02*
X128200000Y-113090000D01*
X126930000Y-114360000D02*
X126930000Y-113090000D01*
X129242929Y-122360000D02*
X129640000Y-122360000D01*
X129242929Y-121600000D02*
X129640000Y-121600000D01*
X138300000Y-122360000D02*
X132300000Y-122360000D01*
X138300000Y-121600000D02*
X138300000Y-122360000D01*
X132300000Y-121600000D02*
X138300000Y-121600000D01*
X129640000Y-120710000D02*
X132300000Y-120710000D01*
X129242929Y-119820000D02*
X129640000Y-119820000D01*
X129242929Y-119060000D02*
X129640000Y-119060000D01*
X138300000Y-119820000D02*
X132300000Y-119820000D01*
X138300000Y-119060000D02*
X138300000Y-119820000D01*
X132300000Y-119060000D02*
X138300000Y-119060000D01*
X129640000Y-118170000D02*
X132300000Y-118170000D01*
X129242929Y-117280000D02*
X129640000Y-117280000D01*
X129242929Y-116520000D02*
X129640000Y-116520000D01*
X138300000Y-117280000D02*
X132300000Y-117280000D01*
X138300000Y-116520000D02*
X138300000Y-117280000D01*
X132300000Y-116520000D02*
X138300000Y-116520000D01*
X129640000Y-115630000D02*
X132300000Y-115630000D01*
X129310000Y-114740000D02*
X129640000Y-114740000D01*
X129310000Y-113980000D02*
X129640000Y-113980000D01*
X132300000Y-114640000D02*
X138300000Y-114640000D01*
X132300000Y-114520000D02*
X138300000Y-114520000D01*
X132300000Y-114400000D02*
X138300000Y-114400000D01*
X132300000Y-114280000D02*
X138300000Y-114280000D01*
X132300000Y-114160000D02*
X138300000Y-114160000D01*
X132300000Y-114040000D02*
X138300000Y-114040000D01*
X138300000Y-114740000D02*
X132300000Y-114740000D01*
X138300000Y-113980000D02*
X138300000Y-114740000D01*
X132300000Y-113980000D02*
X138300000Y-113980000D01*
X132300000Y-113030000D02*
X129640000Y-113030000D01*
X132300000Y-123310000D02*
X132300000Y-113030000D01*
X129640000Y-123310000D02*
X132300000Y-123310000D01*
X129640000Y-113030000D02*
X129640000Y-123310000D01*
X108808000Y-127890000D02*
X108808000Y-126560000D01*
X110138000Y-127890000D02*
X108808000Y-127890000D01*
X111408000Y-127890000D02*
X111408000Y-125230000D01*
X111408000Y-125230000D02*
X121628000Y-125230000D01*
X111408000Y-127890000D02*
X121628000Y-127890000D01*
X121628000Y-127890000D02*
X121628000Y-125230000D01*
X108808000Y-79670000D02*
X108808000Y-82330000D01*
X119028000Y-79670000D02*
X108808000Y-79670000D01*
X119028000Y-82330000D02*
X108808000Y-82330000D01*
X119028000Y-79670000D02*
X119028000Y-82330000D01*
X120298000Y-79670000D02*
X121628000Y-79670000D01*
X121628000Y-79670000D02*
X121628000Y-81000000D01*
X121570000Y-128150000D02*
X124170000Y-128150000D01*
X124170000Y-128150000D02*
X124170000Y-136780000D01*
X124170000Y-136780000D02*
X121570000Y-136780000D01*
X121570000Y-136780000D02*
X121570000Y-128150000D01*
X122520000Y-127720000D02*
X122520000Y-128150000D01*
X123280000Y-127720000D02*
X123280000Y-128150000D01*
X121750000Y-128150000D02*
X121750000Y-136780000D01*
X121870000Y-128150000D02*
X121870000Y-136780000D01*
X121990000Y-128150000D02*
X121990000Y-136780000D01*
X122110000Y-128150000D02*
X122110000Y-136780000D01*
X122230000Y-128150000D02*
X122230000Y-136780000D01*
X122350000Y-128150000D02*
X122350000Y-136780000D01*
X122470000Y-128150000D02*
X122470000Y-136780000D01*
X122590000Y-128150000D02*
X122590000Y-136780000D01*
X122710000Y-128150000D02*
X122710000Y-136780000D01*
X122830000Y-128150000D02*
X122830000Y-136780000D01*
X122950000Y-128150000D02*
X122950000Y-136780000D01*
X123070000Y-128150000D02*
X123070000Y-136780000D01*
X123190000Y-128150000D02*
X123190000Y-136780000D01*
X123310000Y-128150000D02*
X123310000Y-136780000D01*
X123430000Y-128150000D02*
X123430000Y-136780000D01*
X123550000Y-128150000D02*
X123550000Y-136780000D01*
X123670000Y-128150000D02*
X123670000Y-136780000D01*
X123790000Y-128150000D02*
X123790000Y-136780000D01*
X123910000Y-128150000D02*
X123910000Y-136780000D01*
X124030000Y-128150000D02*
X124030000Y-136780000D01*
X124150000Y-128150000D02*
X124150000Y-136780000D01*
X124270000Y-128150000D02*
X124270000Y-136780000D01*
X124170000Y-128150000D02*
X126770000Y-128150000D01*
X126770000Y-128150000D02*
X126770000Y-136780000D01*
X126770000Y-136780000D02*
X124170000Y-136780000D01*
X124170000Y-136780000D02*
X124170000Y-128150000D01*
X125060000Y-127720000D02*
X125060000Y-128150000D01*
X125820000Y-127720000D02*
X125820000Y-128150000D01*
X121630000Y-126690000D02*
X121630000Y-125420000D01*
X121630000Y-125420000D02*
X122900000Y-125420000D01*
D15*
X119522100Y-124385600D02*
X121477900Y-124385600D01*
X121477900Y-123123261D02*
X121477900Y-122396739D01*
X121477900Y-121134400D02*
X119522100Y-121134400D01*
X122084000Y-117567800D02*
X123100000Y-117567800D01*
X122092000Y-119752200D02*
X123108000Y-119752200D01*
D14*
X123750000Y-109260000D02*
X123750000Y-112460000D01*
X123750000Y-112460000D02*
X121250000Y-112460000D01*
X121250000Y-112460000D02*
X121250000Y-109260000D01*
X121250000Y-109260000D02*
X123800000Y-109260000D01*
X120175000Y-111160000D02*
X120175000Y-113160000D01*
X117375000Y-111160000D02*
X120175000Y-111160000D01*
X117375000Y-113160000D02*
X117375000Y-111160000D01*
X120175000Y-113160000D02*
X117375000Y-113160000D01*
X119780000Y-117960000D02*
X119780000Y-118960000D01*
X118420000Y-118960000D02*
X118420000Y-117960000D01*
X126930000Y-80290000D02*
X128200000Y-80290000D01*
X126930000Y-81560000D02*
X126930000Y-80290000D01*
X129242929Y-89560000D02*
X129640000Y-89560000D01*
X129242929Y-88800000D02*
X129640000Y-88800000D01*
X138300000Y-89560000D02*
X132300000Y-89560000D01*
X138300000Y-88800000D02*
X138300000Y-89560000D01*
X132300000Y-88800000D02*
X138300000Y-88800000D01*
X129640000Y-87910000D02*
X132300000Y-87910000D01*
X129242929Y-87020000D02*
X129640000Y-87020000D01*
X129242929Y-86260000D02*
X129640000Y-86260000D01*
X138300000Y-87020000D02*
X132300000Y-87020000D01*
X138300000Y-86260000D02*
X138300000Y-87020000D01*
X132300000Y-86260000D02*
X138300000Y-86260000D01*
X129640000Y-85370000D02*
X132300000Y-85370000D01*
X129242929Y-84480000D02*
X129640000Y-84480000D01*
X129242929Y-83720000D02*
X129640000Y-83720000D01*
X138300000Y-84480000D02*
X132300000Y-84480000D01*
X138300000Y-83720000D02*
X138300000Y-84480000D01*
X132300000Y-83720000D02*
X138300000Y-83720000D01*
X129640000Y-82830000D02*
X132300000Y-82830000D01*
X129310000Y-81940000D02*
X129640000Y-81940000D01*
X129310000Y-81180000D02*
X129640000Y-81180000D01*
X132300000Y-81840000D02*
X138300000Y-81840000D01*
X132300000Y-81720000D02*
X138300000Y-81720000D01*
X132300000Y-81600000D02*
X138300000Y-81600000D01*
X132300000Y-81480000D02*
X138300000Y-81480000D01*
X132300000Y-81360000D02*
X138300000Y-81360000D01*
X132300000Y-81240000D02*
X138300000Y-81240000D01*
X138300000Y-81940000D02*
X132300000Y-81940000D01*
X138300000Y-81180000D02*
X138300000Y-81940000D01*
X132300000Y-81180000D02*
X138300000Y-81180000D01*
X132300000Y-80230000D02*
X129640000Y-80230000D01*
X132300000Y-90510000D02*
X132300000Y-80230000D01*
X129640000Y-90510000D02*
X132300000Y-90510000D01*
X129640000Y-80230000D02*
X129640000Y-90510000D01*
X116450000Y-123040000D02*
X116150000Y-123340000D01*
X116450000Y-123640000D02*
X116450000Y-123040000D01*
X116150000Y-123340000D02*
X116450000Y-123640000D01*
X115900000Y-124690000D02*
X113950000Y-124690000D01*
X115900000Y-119190000D02*
X115900000Y-124690000D01*
X113950000Y-119190000D02*
X115900000Y-119190000D01*
X113950000Y-124690000D02*
X113950000Y-119190000D01*
D16*
X118812380Y-71049523D02*
X118812380Y-71567619D01*
X118842857Y-71628571D01*
X118873333Y-71659047D01*
X118934285Y-71689523D01*
X119056190Y-71689523D01*
X119117142Y-71659047D01*
X119147619Y-71628571D01*
X119178095Y-71567619D01*
X119178095Y-71049523D01*
X119452380Y-71110476D02*
X119482857Y-71080000D01*
X119543809Y-71049523D01*
X119696190Y-71049523D01*
X119757142Y-71080000D01*
X119787619Y-71110476D01*
X119818095Y-71171428D01*
X119818095Y-71232380D01*
X119787619Y-71323809D01*
X119421904Y-71689523D01*
X119818095Y-71689523D01*
X125576785Y-66255833D02*
X125607023Y-66286071D01*
X125637261Y-66376785D01*
X125637261Y-66437261D01*
X125607023Y-66527976D01*
X125546547Y-66588452D01*
X125486071Y-66618690D01*
X125365119Y-66648928D01*
X125274404Y-66648928D01*
X125153452Y-66618690D01*
X125092976Y-66588452D01*
X125032500Y-66527976D01*
X125002261Y-66437261D01*
X125002261Y-66376785D01*
X125032500Y-66286071D01*
X125062738Y-66255833D01*
X125637261Y-65953452D02*
X125637261Y-65832500D01*
X125607023Y-65772023D01*
X125576785Y-65741785D01*
X125486071Y-65681309D01*
X125365119Y-65651071D01*
X125123214Y-65651071D01*
X125062738Y-65681309D01*
X125032500Y-65711547D01*
X125002261Y-65772023D01*
X125002261Y-65892976D01*
X125032500Y-65953452D01*
X125062738Y-65983690D01*
X125123214Y-66013928D01*
X125274404Y-66013928D01*
X125334880Y-65983690D01*
X125365119Y-65953452D01*
X125395357Y-65892976D01*
X125395357Y-65772023D01*
X125365119Y-65711547D01*
X125334880Y-65681309D01*
X125274404Y-65651071D01*
X123726785Y-66558214D02*
X123757023Y-66588452D01*
X123787261Y-66679166D01*
X123787261Y-66739642D01*
X123757023Y-66830357D01*
X123696547Y-66890833D01*
X123636071Y-66921071D01*
X123515119Y-66951309D01*
X123424404Y-66951309D01*
X123303452Y-66921071D01*
X123242976Y-66890833D01*
X123182500Y-66830357D01*
X123152261Y-66739642D01*
X123152261Y-66679166D01*
X123182500Y-66588452D01*
X123212738Y-66558214D01*
X123787261Y-65953452D02*
X123787261Y-66316309D01*
X123787261Y-66134880D02*
X123152261Y-66134880D01*
X123242976Y-66195357D01*
X123303452Y-66255833D01*
X123333690Y-66316309D01*
X123152261Y-65560357D02*
X123152261Y-65499880D01*
X123182500Y-65439404D01*
X123212738Y-65409166D01*
X123273214Y-65378928D01*
X123394166Y-65348690D01*
X123545357Y-65348690D01*
X123666309Y-65378928D01*
X123726785Y-65409166D01*
X123757023Y-65439404D01*
X123787261Y-65499880D01*
X123787261Y-65560357D01*
X123757023Y-65620833D01*
X123726785Y-65651071D01*
X123666309Y-65681309D01*
X123545357Y-65711547D01*
X123394166Y-65711547D01*
X123273214Y-65681309D01*
X123212738Y-65651071D01*
X123182500Y-65620833D01*
X123152261Y-65560357D01*
X121821785Y-74146785D02*
X121791547Y-74177023D01*
X121700833Y-74207261D01*
X121640357Y-74207261D01*
X121549642Y-74177023D01*
X121489166Y-74116547D01*
X121458928Y-74056071D01*
X121428690Y-73935119D01*
X121428690Y-73844404D01*
X121458928Y-73723452D01*
X121489166Y-73662976D01*
X121549642Y-73602500D01*
X121640357Y-73572261D01*
X121700833Y-73572261D01*
X121791547Y-73602500D01*
X121821785Y-73632738D01*
X122426547Y-74207261D02*
X122063690Y-74207261D01*
X122245119Y-74207261D02*
X122245119Y-73572261D01*
X122184642Y-73662976D01*
X122124166Y-73723452D01*
X122063690Y-73753690D01*
X123031309Y-74207261D02*
X122668452Y-74207261D01*
X122849880Y-74207261D02*
X122849880Y-73572261D01*
X122789404Y-73662976D01*
X122728928Y-73723452D01*
X122668452Y-73753690D01*
X115601785Y-76576785D02*
X115571547Y-76607023D01*
X115480833Y-76637261D01*
X115420357Y-76637261D01*
X115329642Y-76607023D01*
X115269166Y-76546547D01*
X115238928Y-76486071D01*
X115208690Y-76365119D01*
X115208690Y-76274404D01*
X115238928Y-76153452D01*
X115269166Y-76092976D01*
X115329642Y-76032500D01*
X115420357Y-76002261D01*
X115480833Y-76002261D01*
X115571547Y-76032500D01*
X115601785Y-76062738D01*
X116206547Y-76637261D02*
X115843690Y-76637261D01*
X116025119Y-76637261D02*
X116025119Y-76002261D01*
X115964642Y-76092976D01*
X115904166Y-76153452D01*
X115843690Y-76183690D01*
X116448452Y-76062738D02*
X116478690Y-76032500D01*
X116539166Y-76002261D01*
X116690357Y-76002261D01*
X116750833Y-76032500D01*
X116781071Y-76062738D01*
X116811309Y-76123214D01*
X116811309Y-76183690D01*
X116781071Y-76274404D01*
X116418214Y-76637261D01*
X116811309Y-76637261D01*
X110961785Y-72836785D02*
X110931547Y-72867023D01*
X110840833Y-72897261D01*
X110780357Y-72897261D01*
X110689642Y-72867023D01*
X110629166Y-72806547D01*
X110598928Y-72746071D01*
X110568690Y-72625119D01*
X110568690Y-72534404D01*
X110598928Y-72413452D01*
X110629166Y-72352976D01*
X110689642Y-72292500D01*
X110780357Y-72262261D01*
X110840833Y-72262261D01*
X110931547Y-72292500D01*
X110961785Y-72322738D01*
X111566547Y-72897261D02*
X111203690Y-72897261D01*
X111385119Y-72897261D02*
X111385119Y-72262261D01*
X111324642Y-72352976D01*
X111264166Y-72413452D01*
X111203690Y-72443690D01*
X111778214Y-72262261D02*
X112171309Y-72262261D01*
X111959642Y-72504166D01*
X112050357Y-72504166D01*
X112110833Y-72534404D01*
X112141071Y-72564642D01*
X112171309Y-72625119D01*
X112171309Y-72776309D01*
X112141071Y-72836785D01*
X112110833Y-72867023D01*
X112050357Y-72897261D01*
X111868928Y-72897261D01*
X111808452Y-72867023D01*
X111778214Y-72836785D01*
X113001785Y-76306785D02*
X112971547Y-76337023D01*
X112880833Y-76367261D01*
X112820357Y-76367261D01*
X112729642Y-76337023D01*
X112669166Y-76276547D01*
X112638928Y-76216071D01*
X112608690Y-76095119D01*
X112608690Y-76004404D01*
X112638928Y-75883452D01*
X112669166Y-75822976D01*
X112729642Y-75762500D01*
X112820357Y-75732261D01*
X112880833Y-75732261D01*
X112971547Y-75762500D01*
X113001785Y-75792738D01*
X113606547Y-76367261D02*
X113243690Y-76367261D01*
X113425119Y-76367261D02*
X113425119Y-75732261D01*
X113364642Y-75822976D01*
X113304166Y-75883452D01*
X113243690Y-75913690D01*
X114150833Y-75943928D02*
X114150833Y-76367261D01*
X113999642Y-75702023D02*
X113848452Y-76155595D01*
X114241547Y-76155595D01*
X109546785Y-66658214D02*
X109577023Y-66688452D01*
X109607261Y-66779166D01*
X109607261Y-66839642D01*
X109577023Y-66930357D01*
X109516547Y-66990833D01*
X109456071Y-67021071D01*
X109335119Y-67051309D01*
X109244404Y-67051309D01*
X109123452Y-67021071D01*
X109062976Y-66990833D01*
X109002500Y-66930357D01*
X108972261Y-66839642D01*
X108972261Y-66779166D01*
X109002500Y-66688452D01*
X109032738Y-66658214D01*
X109607261Y-66053452D02*
X109607261Y-66416309D01*
X109607261Y-66234880D02*
X108972261Y-66234880D01*
X109062976Y-66295357D01*
X109123452Y-66355833D01*
X109153690Y-66416309D01*
X108972261Y-65478928D02*
X108972261Y-65781309D01*
X109274642Y-65811547D01*
X109244404Y-65781309D01*
X109214166Y-65720833D01*
X109214166Y-65569642D01*
X109244404Y-65509166D01*
X109274642Y-65478928D01*
X109335119Y-65448690D01*
X109486309Y-65448690D01*
X109546785Y-65478928D01*
X109577023Y-65509166D01*
X109607261Y-65569642D01*
X109607261Y-65720833D01*
X109577023Y-65781309D01*
X109546785Y-65811547D01*
X113186785Y-66598214D02*
X113217023Y-66628452D01*
X113247261Y-66719166D01*
X113247261Y-66779642D01*
X113217023Y-66870357D01*
X113156547Y-66930833D01*
X113096071Y-66961071D01*
X112975119Y-66991309D01*
X112884404Y-66991309D01*
X112763452Y-66961071D01*
X112702976Y-66930833D01*
X112642500Y-66870357D01*
X112612261Y-66779642D01*
X112612261Y-66719166D01*
X112642500Y-66628452D01*
X112672738Y-66598214D01*
X113247261Y-65993452D02*
X113247261Y-66356309D01*
X113247261Y-66174880D02*
X112612261Y-66174880D01*
X112702976Y-66235357D01*
X112763452Y-66295833D01*
X112793690Y-66356309D01*
X112612261Y-65449166D02*
X112612261Y-65570119D01*
X112642500Y-65630595D01*
X112672738Y-65660833D01*
X112763452Y-65721309D01*
X112884404Y-65751547D01*
X113126309Y-65751547D01*
X113186785Y-65721309D01*
X113217023Y-65691071D01*
X113247261Y-65630595D01*
X113247261Y-65509642D01*
X113217023Y-65449166D01*
X113186785Y-65418928D01*
X113126309Y-65388690D01*
X112975119Y-65388690D01*
X112914642Y-65418928D01*
X112884404Y-65449166D01*
X112854166Y-65509642D01*
X112854166Y-65630595D01*
X112884404Y-65691071D01*
X112914642Y-65721309D01*
X112975119Y-65751547D01*
X116896785Y-66688214D02*
X116927023Y-66718452D01*
X116957261Y-66809166D01*
X116957261Y-66869642D01*
X116927023Y-66960357D01*
X116866547Y-67020833D01*
X116806071Y-67051071D01*
X116685119Y-67081309D01*
X116594404Y-67081309D01*
X116473452Y-67051071D01*
X116412976Y-67020833D01*
X116352500Y-66960357D01*
X116322261Y-66869642D01*
X116322261Y-66809166D01*
X116352500Y-66718452D01*
X116382738Y-66688214D01*
X116957261Y-66083452D02*
X116957261Y-66446309D01*
X116957261Y-66264880D02*
X116322261Y-66264880D01*
X116412976Y-66325357D01*
X116473452Y-66385833D01*
X116503690Y-66446309D01*
X116322261Y-65871785D02*
X116322261Y-65448452D01*
X116957261Y-65720595D01*
X107270833Y-69604642D02*
X107059166Y-69604642D01*
X107059166Y-69937261D02*
X107059166Y-69302261D01*
X107361547Y-69302261D01*
X107815119Y-69604642D02*
X107905833Y-69634880D01*
X107936071Y-69665119D01*
X107966309Y-69725595D01*
X107966309Y-69816309D01*
X107936071Y-69876785D01*
X107905833Y-69907023D01*
X107845357Y-69937261D01*
X107603452Y-69937261D01*
X107603452Y-69302261D01*
X107815119Y-69302261D01*
X107875595Y-69332500D01*
X107905833Y-69362738D01*
X107936071Y-69423214D01*
X107936071Y-69483690D01*
X107905833Y-69544166D01*
X107875595Y-69574404D01*
X107815119Y-69604642D01*
X107603452Y-69604642D01*
X108208214Y-69362738D02*
X108238452Y-69332500D01*
X108298928Y-69302261D01*
X108450119Y-69302261D01*
X108510595Y-69332500D01*
X108540833Y-69362738D01*
X108571071Y-69423214D01*
X108571071Y-69483690D01*
X108540833Y-69574404D01*
X108177976Y-69937261D01*
X108571071Y-69937261D01*
X102246666Y-70702380D02*
X102246666Y-71416666D01*
X102199047Y-71559523D01*
X102103809Y-71654761D01*
X101960952Y-71702380D01*
X101865714Y-71702380D01*
X102722857Y-71702380D02*
X102722857Y-70702380D01*
X103103809Y-70702380D01*
X103199047Y-70750000D01*
X103246666Y-70797619D01*
X103294285Y-70892857D01*
X103294285Y-71035714D01*
X103246666Y-71130952D01*
X103199047Y-71178571D01*
X103103809Y-71226190D01*
X102722857Y-71226190D01*
X103675238Y-70797619D02*
X103722857Y-70750000D01*
X103818095Y-70702380D01*
X104056190Y-70702380D01*
X104151428Y-70750000D01*
X104199047Y-70797619D01*
X104246666Y-70892857D01*
X104246666Y-70988095D01*
X104199047Y-71130952D01*
X103627619Y-71702380D01*
X104246666Y-71702380D01*
X128196666Y-70702380D02*
X128196666Y-71416666D01*
X128149047Y-71559523D01*
X128053809Y-71654761D01*
X127910952Y-71702380D01*
X127815714Y-71702380D01*
X128672857Y-71702380D02*
X128672857Y-70702380D01*
X129053809Y-70702380D01*
X129149047Y-70750000D01*
X129196666Y-70797619D01*
X129244285Y-70892857D01*
X129244285Y-71035714D01*
X129196666Y-71130952D01*
X129149047Y-71178571D01*
X129053809Y-71226190D01*
X128672857Y-71226190D01*
X129577619Y-70702380D02*
X130196666Y-70702380D01*
X129863333Y-71083333D01*
X130006190Y-71083333D01*
X130101428Y-71130952D01*
X130149047Y-71178571D01*
X130196666Y-71273809D01*
X130196666Y-71511904D01*
X130149047Y-71607142D01*
X130101428Y-71654761D01*
X130006190Y-71702380D01*
X129720476Y-71702380D01*
X129625238Y-71654761D01*
X129577619Y-71607142D01*
X109588095Y-98082380D02*
X109588095Y-98891904D01*
X109635714Y-98987142D01*
X109683333Y-99034761D01*
X109778571Y-99082380D01*
X109969047Y-99082380D01*
X110064285Y-99034761D01*
X110111904Y-98987142D01*
X110159523Y-98891904D01*
X110159523Y-98082380D01*
X110588095Y-98177619D02*
X110635714Y-98130000D01*
X110730952Y-98082380D01*
X110969047Y-98082380D01*
X111064285Y-98130000D01*
X111111904Y-98177619D01*
X111159523Y-98272857D01*
X111159523Y-98368095D01*
X111111904Y-98510952D01*
X110540476Y-99082380D01*
X111159523Y-99082380D01*
X113525981Y-95385000D02*
X113764077Y-95385000D01*
X113668839Y-95623095D02*
X113764077Y-95385000D01*
X113668839Y-95146904D01*
X113954553Y-95527857D02*
X113764077Y-95385000D01*
X113954553Y-95242142D01*
X113525981Y-95385000D02*
X113764077Y-95385000D01*
X113668839Y-95623095D02*
X113764077Y-95385000D01*
X113668839Y-95146904D01*
X113954553Y-95527857D02*
X113764077Y-95385000D01*
X113954553Y-95242142D01*
X113933333Y-105267142D02*
X113885714Y-105314761D01*
X113742857Y-105362380D01*
X113647619Y-105362380D01*
X113504761Y-105314761D01*
X113409523Y-105219523D01*
X113361904Y-105124285D01*
X113314285Y-104933809D01*
X113314285Y-104790952D01*
X113361904Y-104600476D01*
X113409523Y-104505238D01*
X113504761Y-104410000D01*
X113647619Y-104362380D01*
X113742857Y-104362380D01*
X113885714Y-104410000D01*
X113933333Y-104457619D01*
X114885714Y-105362380D02*
X114314285Y-105362380D01*
X114600000Y-105362380D02*
X114600000Y-104362380D01*
X114504761Y-104505238D01*
X114409523Y-104600476D01*
X114314285Y-104648095D01*
X128666666Y-123745714D02*
X128628571Y-123783809D01*
X128514285Y-123821904D01*
X128438095Y-123821904D01*
X128323809Y-123783809D01*
X128247619Y-123707619D01*
X128209523Y-123631428D01*
X128171428Y-123479047D01*
X128171428Y-123364761D01*
X128209523Y-123212380D01*
X128247619Y-123136190D01*
X128323809Y-123060000D01*
X128438095Y-123021904D01*
X128514285Y-123021904D01*
X128628571Y-123060000D01*
X128666666Y-123098095D01*
X129352380Y-123288571D02*
X129352380Y-123821904D01*
X129161904Y-122983809D02*
X128971428Y-123555238D01*
X129466666Y-123555238D01*
X107566666Y-121745714D02*
X107528571Y-121783809D01*
X107414285Y-121821904D01*
X107338095Y-121821904D01*
X107223809Y-121783809D01*
X107147619Y-121707619D01*
X107109523Y-121631428D01*
X107071428Y-121479047D01*
X107071428Y-121364761D01*
X107109523Y-121212380D01*
X107147619Y-121136190D01*
X107223809Y-121060000D01*
X107338095Y-121021904D01*
X107414285Y-121021904D01*
X107528571Y-121060000D01*
X107566666Y-121098095D01*
X108290476Y-121021904D02*
X107909523Y-121021904D01*
X107871428Y-121402857D01*
X107909523Y-121364761D01*
X107985714Y-121326666D01*
X108176190Y-121326666D01*
X108252380Y-121364761D01*
X108290476Y-121402857D01*
X108328571Y-121479047D01*
X108328571Y-121669523D01*
X108290476Y-121745714D01*
X108252380Y-121783809D01*
X108176190Y-121821904D01*
X107985714Y-121821904D01*
X107909523Y-121783809D01*
X107871428Y-121745714D01*
X125233333Y-123717142D02*
X125185714Y-123764761D01*
X125042857Y-123812380D01*
X124947619Y-123812380D01*
X124804761Y-123764761D01*
X124709523Y-123669523D01*
X124661904Y-123574285D01*
X124614285Y-123383809D01*
X124614285Y-123240952D01*
X124661904Y-123050476D01*
X124709523Y-122955238D01*
X124804761Y-122860000D01*
X124947619Y-122812380D01*
X125042857Y-122812380D01*
X125185714Y-122860000D01*
X125233333Y-122907619D01*
X126090476Y-122812380D02*
X125900000Y-122812380D01*
X125804761Y-122860000D01*
X125757142Y-122907619D01*
X125661904Y-123050476D01*
X125614285Y-123240952D01*
X125614285Y-123621904D01*
X125661904Y-123717142D01*
X125709523Y-123764761D01*
X125804761Y-123812380D01*
X125995238Y-123812380D01*
X126090476Y-123764761D01*
X126138095Y-123717142D01*
X126185714Y-123621904D01*
X126185714Y-123383809D01*
X126138095Y-123288571D01*
X126090476Y-123240952D01*
X125995238Y-123193333D01*
X125804761Y-123193333D01*
X125709523Y-123240952D01*
X125661904Y-123288571D01*
X125614285Y-123383809D01*
X117363333Y-124307142D02*
X117315714Y-124354761D01*
X117172857Y-124402380D01*
X117077619Y-124402380D01*
X116934761Y-124354761D01*
X116839523Y-124259523D01*
X116791904Y-124164285D01*
X116744285Y-123973809D01*
X116744285Y-123830952D01*
X116791904Y-123640476D01*
X116839523Y-123545238D01*
X116934761Y-123450000D01*
X117077619Y-123402380D01*
X117172857Y-123402380D01*
X117315714Y-123450000D01*
X117363333Y-123497619D01*
X117696666Y-123402380D02*
X118363333Y-123402380D01*
X117934761Y-124402380D01*
X110103333Y-113562380D02*
X109770000Y-113086190D01*
X109531904Y-113562380D02*
X109531904Y-112562380D01*
X109912857Y-112562380D01*
X110008095Y-112610000D01*
X110055714Y-112657619D01*
X110103333Y-112752857D01*
X110103333Y-112895714D01*
X110055714Y-112990952D01*
X110008095Y-113038571D01*
X109912857Y-113086190D01*
X109531904Y-113086190D01*
X111055714Y-113562380D02*
X110484285Y-113562380D01*
X110770000Y-113562380D02*
X110770000Y-112562380D01*
X110674761Y-112705238D01*
X110579523Y-112800476D01*
X110484285Y-112848095D01*
X111413333Y-118732380D02*
X111080000Y-118256190D01*
X110841904Y-118732380D02*
X110841904Y-117732380D01*
X111222857Y-117732380D01*
X111318095Y-117780000D01*
X111365714Y-117827619D01*
X111413333Y-117922857D01*
X111413333Y-118065714D01*
X111365714Y-118160952D01*
X111318095Y-118208571D01*
X111222857Y-118256190D01*
X110841904Y-118256190D01*
X111794285Y-117827619D02*
X111841904Y-117780000D01*
X111937142Y-117732380D01*
X112175238Y-117732380D01*
X112270476Y-117780000D01*
X112318095Y-117827619D01*
X112365714Y-117922857D01*
X112365714Y-118018095D01*
X112318095Y-118160952D01*
X111746666Y-118732380D01*
X112365714Y-118732380D01*
X120733333Y-106812380D02*
X120400000Y-106336190D01*
X120161904Y-106812380D02*
X120161904Y-105812380D01*
X120542857Y-105812380D01*
X120638095Y-105860000D01*
X120685714Y-105907619D01*
X120733333Y-106002857D01*
X120733333Y-106145714D01*
X120685714Y-106240952D01*
X120638095Y-106288571D01*
X120542857Y-106336190D01*
X120161904Y-106336190D01*
X121066666Y-105812380D02*
X121685714Y-105812380D01*
X121352380Y-106193333D01*
X121495238Y-106193333D01*
X121590476Y-106240952D01*
X121638095Y-106288571D01*
X121685714Y-106383809D01*
X121685714Y-106621904D01*
X121638095Y-106717142D01*
X121590476Y-106764761D01*
X121495238Y-106812380D01*
X121209523Y-106812380D01*
X121114285Y-106764761D01*
X121066666Y-106717142D01*
X113338095Y-111132380D02*
X113338095Y-111941904D01*
X113385714Y-112037142D01*
X113433333Y-112084761D01*
X113528571Y-112132380D01*
X113719047Y-112132380D01*
X113814285Y-112084761D01*
X113861904Y-112037142D01*
X113909523Y-111941904D01*
X113909523Y-111132380D01*
X114909523Y-112132380D02*
X114338095Y-112132380D01*
X114623809Y-112132380D02*
X114623809Y-111132380D01*
X114528571Y-111275238D01*
X114433333Y-111370476D01*
X114338095Y-111418095D01*
X117325981Y-108586600D02*
X117564077Y-108586600D01*
X117468839Y-108824695D02*
X117564077Y-108586600D01*
X117468839Y-108348504D01*
X117754553Y-108729457D02*
X117564077Y-108586600D01*
X117754553Y-108443742D01*
X117325981Y-108586600D02*
X117564077Y-108586600D01*
X117468839Y-108824695D02*
X117564077Y-108586600D01*
X117468839Y-108348504D01*
X117754553Y-108729457D02*
X117564077Y-108586600D01*
X117754553Y-108443742D01*
X105866666Y-119112380D02*
X105866666Y-119826666D01*
X105819047Y-119969523D01*
X105723809Y-120064761D01*
X105580952Y-120112380D01*
X105485714Y-120112380D01*
X106866666Y-120112380D02*
X106295238Y-120112380D01*
X106580952Y-120112380D02*
X106580952Y-119112380D01*
X106485714Y-119255238D01*
X106390476Y-119350476D01*
X106295238Y-119398095D01*
X130456666Y-124231904D02*
X130190000Y-123850952D01*
X129999523Y-124231904D02*
X129999523Y-123431904D01*
X130304285Y-123431904D01*
X130380476Y-123470000D01*
X130418571Y-123508095D01*
X130456666Y-123584285D01*
X130456666Y-123698571D01*
X130418571Y-123774761D01*
X130380476Y-123812857D01*
X130304285Y-123850952D01*
X129999523Y-123850952D01*
X131142380Y-123431904D02*
X130990000Y-123431904D01*
X130913809Y-123470000D01*
X130875714Y-123508095D01*
X130799523Y-123622380D01*
X130761428Y-123774761D01*
X130761428Y-124079523D01*
X130799523Y-124155714D01*
X130837619Y-124193809D01*
X130913809Y-124231904D01*
X131066190Y-124231904D01*
X131142380Y-124193809D01*
X131180476Y-124155714D01*
X131218571Y-124079523D01*
X131218571Y-123889047D01*
X131180476Y-123812857D01*
X131142380Y-123774761D01*
X131066190Y-123736666D01*
X130913809Y-123736666D01*
X130837619Y-123774761D01*
X130799523Y-123812857D01*
X130761428Y-123889047D01*
X117633333Y-106317142D02*
X117585714Y-106364761D01*
X117442857Y-106412380D01*
X117347619Y-106412380D01*
X117204761Y-106364761D01*
X117109523Y-106269523D01*
X117061904Y-106174285D01*
X117014285Y-105983809D01*
X117014285Y-105840952D01*
X117061904Y-105650476D01*
X117109523Y-105555238D01*
X117204761Y-105460000D01*
X117347619Y-105412380D01*
X117442857Y-105412380D01*
X117585714Y-105460000D01*
X117633333Y-105507619D01*
X118014285Y-105507619D02*
X118061904Y-105460000D01*
X118157142Y-105412380D01*
X118395238Y-105412380D01*
X118490476Y-105460000D01*
X118538095Y-105507619D01*
X118585714Y-105602857D01*
X118585714Y-105698095D01*
X118538095Y-105840952D01*
X117966666Y-106412380D01*
X118585714Y-106412380D01*
X127966666Y-97212380D02*
X127966666Y-97926666D01*
X127919047Y-98069523D01*
X127823809Y-98164761D01*
X127680952Y-98212380D01*
X127585714Y-98212380D01*
X128395238Y-97307619D02*
X128442857Y-97260000D01*
X128538095Y-97212380D01*
X128776190Y-97212380D01*
X128871428Y-97260000D01*
X128919047Y-97307619D01*
X128966666Y-97402857D01*
X128966666Y-97498095D01*
X128919047Y-97640952D01*
X128347619Y-98212380D01*
X128966666Y-98212380D01*
X127866666Y-90512380D02*
X127866666Y-91226666D01*
X127819047Y-91369523D01*
X127723809Y-91464761D01*
X127580952Y-91512380D01*
X127485714Y-91512380D01*
X128247619Y-90512380D02*
X128866666Y-90512380D01*
X128533333Y-90893333D01*
X128676190Y-90893333D01*
X128771428Y-90940952D01*
X128819047Y-90988571D01*
X128866666Y-91083809D01*
X128866666Y-91321904D01*
X128819047Y-91417142D01*
X128771428Y-91464761D01*
X128676190Y-91512380D01*
X128390476Y-91512380D01*
X128295238Y-91464761D01*
X128247619Y-91417142D01*
X127866666Y-111812380D02*
X127866666Y-112526666D01*
X127819047Y-112669523D01*
X127723809Y-112764761D01*
X127580952Y-112812380D01*
X127485714Y-112812380D01*
X128485714Y-112240952D02*
X128390476Y-112193333D01*
X128342857Y-112145714D01*
X128295238Y-112050476D01*
X128295238Y-112002857D01*
X128342857Y-111907619D01*
X128390476Y-111860000D01*
X128485714Y-111812380D01*
X128676190Y-111812380D01*
X128771428Y-111860000D01*
X128819047Y-111907619D01*
X128866666Y-112002857D01*
X128866666Y-112050476D01*
X128819047Y-112145714D01*
X128771428Y-112193333D01*
X128676190Y-112240952D01*
X128485714Y-112240952D01*
X128390476Y-112288571D01*
X128342857Y-112336190D01*
X128295238Y-112431428D01*
X128295238Y-112621904D01*
X128342857Y-112717142D01*
X128390476Y-112764761D01*
X128485714Y-112812380D01*
X128676190Y-112812380D01*
X128771428Y-112764761D01*
X128819047Y-112717142D01*
X128866666Y-112621904D01*
X128866666Y-112431428D01*
X128819047Y-112336190D01*
X128771428Y-112288571D01*
X128676190Y-112240952D01*
X107260380Y-126893333D02*
X107974666Y-126893333D01*
X108117523Y-126940952D01*
X108212761Y-127036190D01*
X108260380Y-127179047D01*
X108260380Y-127274285D01*
X108260380Y-126369523D02*
X108260380Y-126179047D01*
X108212761Y-126083809D01*
X108165142Y-126036190D01*
X108022285Y-125940952D01*
X107831809Y-125893333D01*
X107450857Y-125893333D01*
X107355619Y-125940952D01*
X107308000Y-125988571D01*
X107260380Y-126083809D01*
X107260380Y-126274285D01*
X107308000Y-126369523D01*
X107355619Y-126417142D01*
X107450857Y-126464761D01*
X107688952Y-126464761D01*
X107784190Y-126417142D01*
X107831809Y-126369523D01*
X107879428Y-126274285D01*
X107879428Y-126083809D01*
X107831809Y-125988571D01*
X107784190Y-125940952D01*
X107688952Y-125893333D01*
X118990476Y-82712380D02*
X118990476Y-83426666D01*
X118942857Y-83569523D01*
X118847619Y-83664761D01*
X118704761Y-83712380D01*
X118609523Y-83712380D01*
X119990476Y-83712380D02*
X119419047Y-83712380D01*
X119704761Y-83712380D02*
X119704761Y-82712380D01*
X119609523Y-82855238D01*
X119514285Y-82950476D01*
X119419047Y-82998095D01*
X120609523Y-82712380D02*
X120704761Y-82712380D01*
X120800000Y-82760000D01*
X120847619Y-82807619D01*
X120895238Y-82902857D01*
X120942857Y-83093333D01*
X120942857Y-83331428D01*
X120895238Y-83521904D01*
X120847619Y-83617142D01*
X120800000Y-83664761D01*
X120704761Y-83712380D01*
X120609523Y-83712380D01*
X120514285Y-83664761D01*
X120466666Y-83617142D01*
X120419047Y-83521904D01*
X120371428Y-83331428D01*
X120371428Y-83093333D01*
X120419047Y-82902857D01*
X120466666Y-82807619D01*
X120514285Y-82760000D01*
X120609523Y-82712380D01*
X122366666Y-125121904D02*
X122100000Y-124740952D01*
X121909523Y-125121904D02*
X121909523Y-124321904D01*
X122214285Y-124321904D01*
X122290476Y-124360000D01*
X122328571Y-124398095D01*
X122366666Y-124474285D01*
X122366666Y-124588571D01*
X122328571Y-124664761D01*
X122290476Y-124702857D01*
X122214285Y-124740952D01*
X121909523Y-124740952D01*
X123052380Y-124588571D02*
X123052380Y-125121904D01*
X122861904Y-124283809D02*
X122671428Y-124855238D01*
X123166666Y-124855238D01*
X122538095Y-121912380D02*
X122538095Y-122721904D01*
X122585714Y-122817142D01*
X122633333Y-122864761D01*
X122728571Y-122912380D01*
X122919047Y-122912380D01*
X123014285Y-122864761D01*
X123061904Y-122817142D01*
X123109523Y-122721904D01*
X123109523Y-121912380D01*
X123490476Y-121912380D02*
X124109523Y-121912380D01*
X123776190Y-122293333D01*
X123919047Y-122293333D01*
X124014285Y-122340952D01*
X124061904Y-122388571D01*
X124109523Y-122483809D01*
X124109523Y-122721904D01*
X124061904Y-122817142D01*
X124014285Y-122864761D01*
X123919047Y-122912380D01*
X123633333Y-122912380D01*
X123538095Y-122864761D01*
X123490476Y-122817142D01*
X119200000Y-120312380D02*
X119200000Y-120550476D01*
X118961904Y-120455238D02*
X119200000Y-120550476D01*
X119438095Y-120455238D01*
X119057142Y-120740952D02*
X119200000Y-120550476D01*
X119342857Y-120740952D01*
X119200000Y-120312380D02*
X119200000Y-120550476D01*
X118961904Y-120455238D02*
X119200000Y-120550476D01*
X119438095Y-120455238D01*
X119057142Y-120740952D02*
X119200000Y-120550476D01*
X119342857Y-120740952D01*
X122238095Y-116212380D02*
X122238095Y-117021904D01*
X122285714Y-117117142D01*
X122333333Y-117164761D01*
X122428571Y-117212380D01*
X122619047Y-117212380D01*
X122714285Y-117164761D01*
X122761904Y-117117142D01*
X122809523Y-117021904D01*
X122809523Y-116212380D01*
X123714285Y-116545714D02*
X123714285Y-117212380D01*
X123476190Y-116164761D02*
X123238095Y-116879047D01*
X123857142Y-116879047D01*
X121600000Y-117112380D02*
X121600000Y-117350476D01*
X121361904Y-117255238D02*
X121600000Y-117350476D01*
X121838095Y-117255238D01*
X121457142Y-117540952D02*
X121600000Y-117350476D01*
X121742857Y-117540952D01*
X124338095Y-111812380D02*
X124338095Y-112621904D01*
X124385714Y-112717142D01*
X124433333Y-112764761D01*
X124528571Y-112812380D01*
X124719047Y-112812380D01*
X124814285Y-112764761D01*
X124861904Y-112717142D01*
X124909523Y-112621904D01*
X124909523Y-111812380D01*
X125861904Y-111812380D02*
X125385714Y-111812380D01*
X125338095Y-112288571D01*
X125385714Y-112240952D01*
X125480952Y-112193333D01*
X125719047Y-112193333D01*
X125814285Y-112240952D01*
X125861904Y-112288571D01*
X125909523Y-112383809D01*
X125909523Y-112621904D01*
X125861904Y-112717142D01*
X125814285Y-112764761D01*
X125719047Y-112812380D01*
X125480952Y-112812380D01*
X125385714Y-112764761D01*
X125338095Y-112717142D01*
X120352380Y-108660000D02*
X120590476Y-108660000D01*
X120495238Y-108898095D02*
X120590476Y-108660000D01*
X120495238Y-108421904D01*
X120780952Y-108802857D02*
X120590476Y-108660000D01*
X120780952Y-108517142D01*
X117941666Y-113412380D02*
X117941666Y-114126666D01*
X117894047Y-114269523D01*
X117798809Y-114364761D01*
X117655952Y-114412380D01*
X117560714Y-114412380D01*
X118417857Y-114412380D02*
X118417857Y-113412380D01*
X118798809Y-113412380D01*
X118894047Y-113460000D01*
X118941666Y-113507619D01*
X118989285Y-113602857D01*
X118989285Y-113745714D01*
X118941666Y-113840952D01*
X118894047Y-113888571D01*
X118798809Y-113936190D01*
X118417857Y-113936190D01*
X119941666Y-114412380D02*
X119370238Y-114412380D01*
X119655952Y-114412380D02*
X119655952Y-113412380D01*
X119560714Y-113555238D01*
X119465476Y-113650476D01*
X119370238Y-113698095D01*
X117433333Y-117612380D02*
X117100000Y-117136190D01*
X116861904Y-117612380D02*
X116861904Y-116612380D01*
X117242857Y-116612380D01*
X117338095Y-116660000D01*
X117385714Y-116707619D01*
X117433333Y-116802857D01*
X117433333Y-116945714D01*
X117385714Y-117040952D01*
X117338095Y-117088571D01*
X117242857Y-117136190D01*
X116861904Y-117136190D01*
X118338095Y-116612380D02*
X117861904Y-116612380D01*
X117814285Y-117088571D01*
X117861904Y-117040952D01*
X117957142Y-116993333D01*
X118195238Y-116993333D01*
X118290476Y-117040952D01*
X118338095Y-117088571D01*
X118385714Y-117183809D01*
X118385714Y-117421904D01*
X118338095Y-117517142D01*
X118290476Y-117564761D01*
X118195238Y-117612380D01*
X117957142Y-117612380D01*
X117861904Y-117564761D01*
X117814285Y-117517142D01*
X128066666Y-79212380D02*
X128066666Y-79926666D01*
X128019047Y-80069523D01*
X127923809Y-80164761D01*
X127780952Y-80212380D01*
X127685714Y-80212380D01*
X128971428Y-79545714D02*
X128971428Y-80212380D01*
X128733333Y-79164761D02*
X128495238Y-79879047D01*
X129114285Y-79879047D01*
X112627380Y-122683333D02*
X113341666Y-122683333D01*
X113484523Y-122730952D01*
X113579761Y-122826190D01*
X113627380Y-122969047D01*
X113627380Y-123064285D01*
X113627380Y-122207142D02*
X112627380Y-122207142D01*
X112627380Y-121826190D01*
X112675000Y-121730952D01*
X112722619Y-121683333D01*
X112817857Y-121635714D01*
X112960714Y-121635714D01*
X113055952Y-121683333D01*
X113103571Y-121730952D01*
X113151190Y-121826190D01*
X113151190Y-122207142D01*
X112722619Y-121254761D02*
X112675000Y-121207142D01*
X112627380Y-121111904D01*
X112627380Y-120873809D01*
X112675000Y-120778571D01*
X112722619Y-120730952D01*
X112817857Y-120683333D01*
X112913095Y-120683333D01*
X113055952Y-120730952D01*
X113627380Y-121302380D01*
X113627380Y-120683333D01*
M02*
