M48
; DRILL file {KiCad (5.1.6-0-10_14)} date Thursday, January 14, 2021 at 10:31:34 PM
; FORMAT={-:-/ absolute / inch / decimal}
; #@! TF.CreationDate,2021-01-14T22:31:34+09:00
; #@! TF.GenerationSoftware,Kicad,Pcbnew,(5.1.6-0-10_14)
FMAT,2
INCH
T1C0.0157
T2C0.0394
%
G90
G05
T1
X4.378Y-3.8465
X4.378Y-4.0866
X4.3858Y-3.9803
X4.4488Y-3.8976
X4.4488Y-4.0551
X4.5197Y-3.8465
X4.5276Y-3.9764
X4.5276Y-4.0945
X4.5551Y-4.3622
X4.5787Y-4.0433
X4.626Y-4.3622
X4.7047Y-4.0945
X4.7126Y-3.9882
X4.7165Y-4.3622
X4.8031Y-4.1732
X4.8031Y-4.2717
X4.8898Y-4.3622
X4.9016Y-4.0945
X5.0591Y-4.1142
X5.0709Y-4.3622
X5.1575Y-4.1732
X5.1575Y-4.2717
X5.2441Y-4.3622
X5.2559Y-4.1142
X5.3346Y-4.3622
X5.4134Y-4.1339
X5.4252Y-4.3661
X5.5118Y-4.1732
X5.5118Y-4.2717
X5.5984Y-4.3622
X5.6102Y-4.1339
X5.689Y-4.3622
X5.7795Y-4.3622
X5.8071Y-4.1724
X5.8661Y-4.1929
X5.8661Y-4.2717
X5.9157Y-4.1669
X5.9528Y-4.3661
X6.0433Y-4.3661
X6.1339Y-4.3622
X6.1587Y-4.1783
X6.2205Y-4.1929
X6.2205Y-4.2717
X6.2913Y-4.1732
X6.3071Y-4.3622
X6.3976Y-4.3622
X6.4882Y-4.3622
X6.5748Y-4.2717
X6.5787Y-4.189
X6.6378Y-4.1929
X6.6614Y-4.3622
X6.752Y-4.3622
X6.8425Y-4.3622
X6.8504Y-4.2323
X6.9291Y-4.2717
X6.9961Y-4.2008
X7.0157Y-4.3622
X7.1063Y-4.3622
X7.176Y-4.1421
X7.1768Y-4.0748
X7.1772Y-4.3622
X7.239Y-3.9094
X7.2465Y-4.0079
X7.2898Y-4.065
X7.3016Y-3.8272
X7.3248Y-3.9559
X7.3295Y-3.7618
X7.3906Y-4.0252
X7.3984Y-3.8512
X7.4157Y-3.9331
X7.4362Y-3.7429
X7.4689Y-3.8114
X7.4803Y-4.0748
X7.5197Y-3.7795
X7.5256Y-3.7008
X7.5331Y-3.9299
X7.5402Y-4.0252
X7.5591Y-3.8583
X7.5984Y-3.7598
X7.6303Y-3.9713
X7.6378Y-4.0827
X7.6575Y-3.8189
X7.6614Y-3.6614
X7.7087Y-3.8346
X7.7362Y-3.7008
X7.7953Y-3.8386
X7.8031Y-3.7598
X7.874Y-3.7402
X7.9094Y-3.8425
X7.9173Y-3.7008
T2
X7.2022Y-3.522
X7.2022Y-3.622
X7.3022Y-3.522
X7.3022Y-3.622
X7.4022Y-3.522
X7.4022Y-3.622
X7.5022Y-3.522
X7.5022Y-3.622
X7.6022Y-3.522
X7.6022Y-3.622
T0
M30
