M48
INCH,TZ
T1C0.0157
T2C0.0394
%
G90
G05
T1
X39642Y-39980
X39677Y-41039
X39685Y-38740
X39705Y-42134
X39717Y-31465
X39732Y-43681
X39744Y-37575
X39760Y-46177
X39760Y-48740
X39764Y-32638
X39772Y-47287
X39783Y-45047
X39783Y-49846
X40197Y-50319
X40244Y-42862
X40264Y-47705
X40264Y-49307
X40331Y-46480
X40331Y-48283
X40354Y-25984
X40354Y-27953
X40354Y-29921
X40366Y-45543
X40386Y-44543
X40413Y-32102
X40413Y-43591
X40693Y-32638
X40906Y-31476
X41063Y-38567
X41260Y-34591
X41260Y-35654
X41299Y-39630
X41339Y-26969
X41378Y-40811
X41457Y-33843
X41496Y-33173
X41535Y-40220
X41575Y-38803
X41689Y-31862
X41772Y-35063
X41811Y-32858
X41811Y-34276
X41850Y-41559
X41890Y-43134
X41890Y-43843
X41929Y-25984
X41969Y-35850
X42087Y-41165
X42126Y-39315
X42126Y-40417
X42165Y-42307
X42165Y-47976
X42205Y-45024
X42232Y-31331
X42244Y-46283
X42244Y-46874
X42283Y-33764
X42350Y-50291
X42520Y-27362
X42547Y-49799
X42559Y-34748
X42559Y-35575
X42559Y-44551
X42559Y-47465
X42565Y-29679
X42598Y-32780
X42598Y-42307
X42610Y-32067
X42638Y-36992
X42638Y-43331
X42677Y-45929
X42756Y-36441
X42874Y-46874
X42953Y-46402
X42992Y-34197
X43031Y-36992
X43071Y-33370
X43071Y-41205
X43110Y-26378
X43150Y-35102
X43228Y-45339
X43268Y-35850
X43268Y-45772
X43307Y-39394
X43526Y-28738
X43536Y-41710
X43543Y-41283
X43583Y-46441
X43583Y-47780
X43602Y-26870
X43661Y-32898
X43740Y-36559
X43780Y-33685
X43883Y-37046
X43898Y-34433
X43921Y-50291
X43976Y-35260
X44094Y-29921
X44094Y-47189
X44134Y-48409
X44331Y-46874
X44370Y-44276
X44449Y-35890
X44449Y-41165
X44449Y-47740
X44488Y-25984
X44528Y-32819
X44606Y-36913
X44685Y-29331
X44685Y-33449
X44685Y-48921
X44693Y-48585
X44724Y-34197
X44734Y-43567
X44764Y-46953
X44803Y-39748
X44803Y-44276
X44843Y-45614
X44850Y-50228
X44921Y-37858
X45039Y-40496
X45197Y-38724
X45276Y-44354
X45315Y-36283
X45354Y-34984
X45354Y-49276
X45374Y-26870
X45433Y-46795
X45514Y-43903
X45591Y-33055
X45591Y-33685
X45669Y-29921
X45787Y-41165
X45858Y-48335
X45862Y-50244
X45866Y-37268
X45906Y-43567
X45984Y-42386
X46063Y-25984
X46102Y-39827
X46123Y-45178
X46142Y-32583
X46142Y-37976
X46181Y-34118
X46220Y-35732
X46417Y-46913
X46614Y-39079
X46654Y-26378
X46654Y-32622
X46654Y-36598
X46654Y-41165
X46656Y-41579
X46772Y-34945
X46772Y-40457
X46772Y-49236
X46862Y-50224
X46992Y-27220
X47101Y-28137
X47165Y-33921
X47165Y-43370
X47244Y-29724
X47283Y-33055
X47323Y-38291
X47362Y-46598
X47422Y-48446
X47441Y-37189
X47463Y-43773
X47598Y-35732
X47598Y-39748
X47677Y-34945
X47835Y-26378
X47992Y-32189
X48031Y-39039
X48071Y-31441
X48268Y-40496
X48346Y-48449
X48386Y-34079
X48386Y-36598
X48386Y-37819
X48543Y-33094
X48673Y-28559
X48701Y-35457
X48740Y-31913
X48898Y-48449
X48966Y-40968
X48976Y-38370
X49016Y-29921
X49134Y-37268
X49134Y-47780
X49213Y-26181
X49227Y-42046
X49252Y-39748
X49252Y-48134
X49291Y-39000
X49291Y-40614
X49331Y-33843
X49409Y-47346
X49449Y-36126
X49488Y-34787
X49606Y-31480
X49606Y-48409
X49646Y-47701
X49685Y-32268
X49803Y-33094
X49843Y-36913
X50039Y-34630
X50088Y-26881
X50197Y-27756
X50394Y-35850
X50866Y-46480
X50984Y-25984
X50984Y-26969
X50984Y-29921
X51024Y-31520
X51142Y-33606
X51260Y-32583
X51299Y-41323
X51299Y-43606
X51299Y-45024
X51339Y-42386
X51378Y-38606
X51378Y-47661
X51417Y-34315
X51417Y-36835
X51457Y-40063
X51496Y-47071
X51575Y-35142
X51575Y-39315
X51575Y-48409
X51614Y-32071
X51614Y-36244
X51614Y-37976
X51614Y-44315
X51614Y-45811
X51654Y-40772
X51654Y-41835
X51693Y-33016
X51693Y-43055
T2
X50472Y-45024
X50472Y-46024
X50472Y-47024
X50472Y-48024
X49638Y-29016
X50638Y-29016
X43361Y-49827
X44361Y-49827
X45361Y-49827
X46361Y-49827
X47361Y-49827
X48386Y-49878
X49386Y-49878
X50472Y-36638
X50472Y-37638
X50472Y-39276
X50472Y-40276
X50472Y-41276
X50472Y-42276
X50472Y-43276
X43361Y-31890
X44361Y-31890
X45361Y-31890
X46361Y-31890
X47361Y-31890
X40693Y-48827
X40693Y-49827
X41693Y-48827
X41693Y-49827
X40638Y-29016
X41638Y-29016
X42638Y-29016
X50472Y-32110
X50472Y-33110
X50472Y-34110
X50472Y-35110
X40839Y-34071
X40839Y-35071
X40839Y-36071
X40839Y-37071
X40839Y-38071
X40839Y-39071
X40839Y-40071
X40839Y-41071
X40839Y-42071
X40839Y-43071
X40839Y-44071
X40839Y-45071
X40839Y-46071
X40839Y-47071
X50386Y-49878
X51386Y-49878
T0
M30
