M48
; DRILL file {KiCad (5.1.6-0-10_14)} date Saturday, September 19, 2020 at 09:16:06 AM
; FORMAT={-:-/ absolute / inch / decimal}
; #@! TF.CreationDate,2020-09-19T09:16:06+09:00
; #@! TF.GenerationSoftware,Kicad,Pcbnew,(5.1.6-0-10_14)
FMAT,2
INCH
T1C0.0157
T2C0.0315
T3C0.0394
T4C0.0551
T5C0.0787
T6C0.1083
%
G90
G05
T1
X2.1987Y-1.9101
X2.2031Y-4.7286
X2.2036Y-1.6882
X2.2081Y-3.3258
X2.2121Y-4.9194
X2.2124Y-4.2206
X2.2139Y-4.5385
X2.214Y-2.216
X2.2164Y-3.979
X2.2214Y-2.7991
X2.2214Y-3.0278
X2.222Y-3.7094
X2.2299Y-2.5469
X2.2391Y-1.8022
X2.2391Y-2.0209
X2.272Y-3.5121
X2.2748Y-3.8623
X2.2803Y-4.4027
X2.283Y-2.1349
X2.2831Y-4.0958
X2.3137Y-2.386
X2.3175Y-3.1325
X2.3197Y-2.6495
X2.3261Y-2.9038
X2.3624Y-2.073
X2.3636Y-1.6883
X2.3694Y-2.2147
X2.3702Y-1.8947
X2.3852Y-4.2515
X2.3993Y-4.7952
X2.4022Y-4.5833
X2.454Y-2.0391
X2.4574Y-2.2185
X2.4586Y-2.5535
X2.4618Y-2.3855
X2.4643Y-1.9164
X2.4644Y-2.164
X2.4695Y-4.3686
X2.5037Y-4.9158
X2.5067Y-3.4966
X2.5099Y-3.3758
X2.5217Y-3.2485
X2.5224Y-3.7182
X2.5237Y-3.8787
X2.5237Y-4.0364
X2.5251Y-1.7278
X2.5257Y-2.1652
X2.5285Y-3.1318
X2.529Y-2.3386
X2.5299Y-2.2731
X2.5318Y-4.1728
X2.5332Y-3.5644
X2.534Y-2.5849
X2.5349Y-2.7241
X2.5352Y-2.8011
X2.5428Y-2.4705
X2.5451Y-4.275
X2.5723Y-2.0502
X2.5847Y-2.2041
X2.6031Y-2.5522
X2.6063Y-4.5414
X2.6083Y-2.8852
X2.6106Y-2.3901
X2.6209Y-1.9179
X2.6261Y-4.8096
X2.6316Y-2.7196
X2.6603Y-4.3668
X2.6722Y-4.27
X2.6784Y-2.3938
X2.6806Y-2.0487
X2.6844Y-2.22
X2.6885Y-2.561
X2.6915Y-2.1551
X2.7065Y-2.8651
X2.711Y-2.7321
X2.7431Y-4.9158
X2.7684Y-1.781
X2.7929Y-4.6566
X2.8187Y-4.7448
X2.8253Y-4.4714
X2.8306Y-2.0322
X2.8475Y-1.9392
X2.8845Y-4.0367
X2.9034Y-4.6159
X2.9114Y-1.7302
X2.9698Y-4.6762
X3.0063Y-4.5274
X3.0161Y-4.8461
X3.0582Y-4.9233
X3.119Y-3.149
X3.1196Y-3.7494
X3.1216Y-2.5398
X3.1367Y-3.0483
X3.1367Y-3.6494
X3.1367Y-2.8226
X3.145Y-2.4459
X3.1452Y-2.1626
X3.153Y-4.211
X3.1545Y-2.8613
X3.1584Y-2.6819
X3.1625Y-1.973
X3.1722Y-3.549
X3.1722Y-2.8972
X3.1732Y-3.9508
X3.1767Y-1.9034
X3.1872Y-2.2927
X3.2014Y-4.7829
X3.2029Y-3.7742
X3.2056Y-4.6552
X3.2075Y-3.637
X3.2076Y-3.4495
X3.2266Y-4.194
X3.2293Y-2.7616
X3.2389Y-1.9914
X3.2414Y-2.1515
X3.2433Y-3.3878
X3.2438Y-3.2572
X3.2503Y-3.7001
X3.2544Y-2.2887
X3.2603Y-3.3052
X3.264Y-4.1175
X3.2662Y-3.992
X3.267Y-3.4975
X3.2869Y-3.5742
X3.3086Y-4.2177
X3.3157Y-3.9769
X3.3215Y-4.1437
X3.3222Y-4.9107
X3.3232Y-3.6673
X3.3246Y-3.7579
X3.3254Y-3.8999
X3.326Y-3.0934
X3.3415Y-3.4914
X3.3445Y-2.098
X3.3571Y-3.2274
X3.3588Y-2.6238
X3.3711Y-2.4831
X3.373Y-2.2287
X3.3741Y-2.5834
X3.3808Y-1.9908
X3.3849Y-4.1008
X3.3853Y-2.4423
X3.3869Y-3.3787
X3.3869Y-3.9993
X3.3878Y-3.7087
X3.3903Y-3.0134
X3.3938Y-3.5727
X3.3966Y-4.7941
X3.4069Y-2.1503
X3.4202Y-2.8917
X3.4281Y-2.7105
X3.4281Y-2.7498
X3.4387Y-4.9107
X3.4412Y-3.6602
X3.4483Y-4.1379
X3.4502Y-3.2727
X3.4609Y-3.4927
X3.4678Y-3.9925
X3.4742Y-2.1205
X3.4998Y-3.1645
X3.5008Y-2.6898
X3.5186Y-4.1671
X3.52Y-3.9957
X3.52Y-4.0457
X3.52Y-4.1
X3.5207Y-3.5728
X3.5214Y-3.3826
X3.5381Y-3.0178
X3.5679Y-3.2701
X3.57Y-3.9957
X3.57Y-4.0457
X3.57Y-4.1
X3.5777Y-4.1661
X3.5883Y-3.4933
X3.595Y-2.6137
X3.62Y-3.9957
X3.62Y-4.0457
X3.62Y-4.0957
X3.623Y-4.422
X3.6305Y-3.6511
X3.6441Y-3.5742
X3.6494Y-3.38
X3.655Y-1.9908
X3.658Y-3.1129
X3.6581Y-2.7344
X3.663Y-4.38
X3.6632Y-2.5182
X3.664Y-3.688
X3.6715Y-3.8692
X3.69Y-2.2043
X3.7108Y-3.4924
X3.723Y-4.318
X3.7325Y-2.5687
X3.738Y-1.9822
X3.7399Y-3.2752
X3.7516Y-3.0243
X3.7518Y-3.6584
X3.771Y-4.399
X3.7757Y-3.5735
X3.7805Y-2.8599
X3.79Y-2.098
X3.7912Y-3.9957
X3.7912Y-4.0457
X3.7912Y-4.0957
X3.7922Y-3.3998
X3.8007Y-4.4837
X3.802Y-2.6424
X3.8319Y-3.1783
X3.8349Y-3.8991
X3.8412Y-3.9957
X3.8412Y-4.0457
X3.8412Y-4.0957
X3.842Y-4.404
X3.8455Y-3.4924
X3.8556Y-1.983
X3.863Y-4.458
X3.8643Y-4.1457
X3.8651Y-3.6561
X3.8669Y-2.105
X3.8701Y-2.5378
X3.8848Y-3.292
X3.8912Y-3.9957
X3.8912Y-4.0457
X3.8912Y-4.0957
X3.8999Y-3.8864
X3.9093Y-3.5757
X3.915Y-4.403
X3.9238Y-3.6801
X3.9253Y-2.1156
X3.9256Y-3.0594
X3.9258Y-2.6798
X3.934Y-3.9689
X3.9345Y-4.1628
X3.9369Y-3.4201
X3.9451Y-4.0347
X3.9467Y-4.0926
X3.9767Y-4.6044
X3.9869Y-3.3347
X3.99Y-2.1335
X3.9965Y-3.8909
X3.997Y-3.6134
X4.0022Y-3.5153
X4.0037Y-4.1076
X4.0047Y-3.7433
X4.0047Y-4.047
X4.0106Y-3.2135
X4.0117Y-3.9669
X4.0284Y-1.9663
X4.0407Y-4.1693
X4.0472Y-2.9937
X4.0503Y-3.8138
X4.0505Y-4.747
X4.0525Y-4.5406
X4.0531Y-3.6737
X4.0539Y-2.5276
X4.0578Y-4.0755
X4.0593Y-4.0264
X4.0673Y-3.3238
X4.0732Y-3.426
X4.0748Y-4.1267
X4.0775Y-3.629
X4.0787Y-2.6975
X4.0875Y-4.5985
X4.0911Y-3.9669
X4.1054Y-3.2806
X4.1115Y-3.135
X4.1178Y-1.991
X4.1202Y-4.6733
X4.1274Y-4.1877
X4.135Y-3.617
X4.1406Y-3.9336
X4.1471Y-4.113
X4.1502Y-4.4498
X4.1547Y-3.9971
X4.1605Y-4.7453
X4.1826Y-3.2121
X4.1914Y-3.0309
X4.1957Y-4.1081
X4.1975Y-4.6795
X4.2041Y-2.7541
X4.2208Y-4.3911
X4.2219Y-2.53
X4.2381Y-1.9868
X4.239Y-3.677
X4.2569Y-4.2848
X4.2604Y-4.0547
X4.2621Y-3.1577
X4.2621Y-3.2798
X4.2844Y-2.6106
X4.3018Y-2.8269
X4.318Y-2.976
X4.3404Y-3.7009
X4.3455Y-3.6618
X4.3496Y-4.2032
X4.359Y-2.7248
X4.36Y-2.531
X4.3626Y-3.9334
X4.368Y-3.89
X4.3778Y-2.9379
X4.378Y-3.42
X4.4165Y-4.4261
X4.4219Y-3.9938
X4.4227Y-4.1201
X4.46Y-3.757
X4.4622Y-3.556
X4.4657Y-3.9272
X4.4673Y-3.425
X4.472Y-3.038
X4.5115Y-2.9741
X4.5192Y-4.0394
X4.5411Y-3.1125
X4.5449Y-3.7961
X4.5452Y-3.4096
X4.5472Y-3.5267
X4.5565Y-3.2957
X4.5572Y-3.6243
X4.5748Y-4.6175
X4.5851Y-4.3704
X4.5898Y-3.0404
X4.6116Y-3.9031
X4.6165Y-3.1757
X4.6419Y-3.4554
X4.6473Y-3.3694
X4.6488Y-3.1092
X4.651Y-4.504
X4.6612Y-4.4361
X4.6615Y-4.5669
X4.6711Y-3.9976
X4.6729Y-4.3678
X4.6765Y-4.3055
X4.6819Y-3.7989
X4.687Y-3.2819
X4.692Y-3.649
X4.6952Y-2.1002
X4.7346Y-3.5346
X4.7373Y-3.1952
X4.7775Y-3.3969
X4.778Y-1.8243
X4.7887Y-3.8891
X4.7894Y-2.1957
X4.7977Y-1.9352
X4.8001Y-4.0691
X4.8122Y-3.257
X4.8142Y-3.6852
X4.8214Y-2.1177
X4.8219Y-4.4388
X4.8359Y-3.5443
X4.8515Y-3.3354
X4.8865Y-2.2888
X4.8953Y-3.4435
X4.8961Y-3.9709
X4.9135Y-3.7711
X4.9211Y-3.6162
X4.9316Y-2.4265
X4.9329Y-2.2308
X4.9366Y-2.0479
X4.9373Y-3.2643
X4.9386Y-2.5659
X4.9487Y-3.3511
X4.955Y-4.4275
X4.987Y-3.549
X4.993Y-2.677
X5.0003Y-2.2
X5.0003Y-2.8053
X5.0047Y-3.9434
X5.007Y-3.449
X5.0074Y-4.4505
X5.0076Y-3.6697
X5.0088Y-2.1299
X5.0128Y-4.4084
X5.0434Y-4.0557
X5.0544Y-4.2222
X5.058Y-2.1
X5.0581Y-3.8437
X5.0641Y-2.0312
X5.0679Y-1.8223
X5.1067Y-3.3483
X5.1199Y-3.9048
X5.1359Y-2.536
X5.1379Y-3.755
X5.1391Y-4.1394
X5.1425Y-3.6056
X5.1441Y-2.2585
X5.1473Y-2.3833
X5.1642Y-3.8218
X5.1688Y-4.4312
X5.1719Y-2.7407
X5.1791Y-2.6182
X5.1801Y-4.3771
X5.1924Y-4.4644
X5.1967Y-1.9597
X5.2034Y-4.0476
X5.2057Y-4.2443
X5.2113Y-2.3464
X5.2325Y-3.6842
X5.2394Y-2.2683
X5.2429Y-3.2879
X5.246Y-3.9176
X5.2724Y-1.8203
X5.2811Y-3.2701
X5.2874Y-3.8205
X5.2957Y-2.4092
X5.3113Y-3.497
X5.3187Y-3.2524
X5.3203Y-3.5988
X5.3549Y-3.8576
X5.3575Y-3.2347
X5.37Y-3.7585
X5.3977Y-3.6705
X5.4006Y-2.5094
X5.401Y-3.217
X5.4222Y-3.5802
X5.4226Y-3.4813
X5.4279Y-2.2715
X5.4294Y-4.9223
X5.4317Y-2.3595
X5.4396Y-3.1993
X5.4406Y-3.8238
X5.4485Y-2.1496
X5.453Y-4.821
X5.454Y-4.223
X5.4542Y-4.6245
X5.4548Y-2.0452
X5.4552Y-4.4234
X5.4559Y-4.0227
X5.492Y-1.9393
X5.4926Y-2.9216
X5.5263Y-1.8052
X5.5287Y-2.8889
X5.5345Y-2.294
X5.579Y-4.227
X5.58Y-3.827
X5.58Y-4.028
X5.5811Y-2.2436
X5.5813Y-2.0436
X5.582Y-4.427
X5.582Y-4.828
X5.5829Y-2.1449
X5.584Y-4.629
X5.5998Y-1.7276
X5.63Y-3.22
X5.6423Y-2.8002
X5.6469Y-2.9058
X5.6485Y-3.29
X5.6663Y-3.36
X5.6673Y-4.9312
X5.6815Y-1.8154
X5.684Y-3.43
X5.6855Y-1.9379
X5.7017Y-3.5
X5.7194Y-3.57
X5.735Y-2.698
X5.7371Y-3.64
X5.7565Y-1.7396
X5.757Y-2.4925
X5.76Y-2.434
X5.7729Y-3.3219
X5.7754Y-2.2276
X5.7758Y-3.6016
X5.7864Y-3.1422
X5.7867Y-2.0686
X5.7893Y-3.518
X5.8037Y-3.4183
X5.8221Y-3.6467
X5.8254Y-3.2176
X5.841Y-3.9208
X5.8509Y-1.8011
X5.8545Y-2.3269
X5.8876Y-1.695
X5.8938Y-1.9256
X5.9399Y-3.9171
X5.9431Y-3.4149
X5.9439Y-3.711
X5.9639Y-4.9211
X5.9682Y-4.6267
X5.9687Y-3.2176
X5.9735Y-3.5222
X5.9782Y-3.1015
X5.9795Y-1.7603
X5.9873Y-2.3957
X5.9924Y-2.9236
X5.9942Y-2.6004
X5.996Y-2.7297
X6.002Y-2.2327
X6.0044Y-2.4884
X6.0047Y-4.0648
X6.0102Y-4.3889
X6.0108Y-4.1991
X6.0239Y-3.7921
X6.0429Y-1.9946
X6.0439Y-3.6475
X6.0609Y-2.1185
X6.0615Y-2.3347
X6.0676Y-2.5525
X6.0681Y-4.5657
X6.0682Y-4.8099
X6.0694Y-3.1786
X6.0726Y-3.954
X6.0732Y-4.1511
X6.0734Y-1.695
X6.0734Y-1.8399
X6.0749Y-4.2995
X6.0772Y-3.3097
X6.0775Y-2.6794
X6.0778Y-2.8258
X6.0778Y-3.0232
X6.0792Y-2.4493
T2
X3.388Y-3.832
X3.5849Y-3.832
T3
X3.17Y-2.35
X5.792Y-3.77
X5.792Y-3.87
X5.792Y-3.97
X5.792Y-4.07
X5.792Y-4.17
X5.892Y-3.77
X5.892Y-3.87
X5.892Y-3.97
X5.892Y-4.07
X5.892Y-4.17
X3.66Y-4.88
X3.76Y-4.88
X5.7Y-2.0
X5.7Y-2.1
X5.7Y-2.2
X3.17Y-3.85
X5.9Y-2.0
X5.9Y-2.1
X5.9Y-2.2
X5.268Y-2.0
X5.268Y-2.1
X5.268Y-2.2
X5.368Y-2.0
X5.368Y-2.1
X5.368Y-2.2
X2.4123Y-1.8096
X2.4123Y-1.9868
X2.6682Y-1.8096
X2.6682Y-1.9868
X3.29Y-1.89
X3.39Y-1.89
X3.49Y-1.89
X3.59Y-1.89
X3.69Y-1.89
X3.79Y-1.89
X3.89Y-1.89
X3.99Y-1.89
X4.09Y-1.89
X4.19Y-1.89
X4.29Y-1.89
X4.39Y-1.89
X4.49Y-1.89
X4.59Y-1.89
X5.892Y-3.369
X5.892Y-3.469
X5.892Y-3.569
X2.9442Y-2.0494
X2.9442Y-2.1494
X2.9442Y-2.2494
X2.9442Y-2.3494
X2.9442Y-2.4494
X2.9442Y-2.5494
X2.9442Y-2.6494
X2.9442Y-2.7494
X2.9442Y-2.8494
X2.9442Y-2.9494
X2.9442Y-3.0494
X2.9442Y-3.1494
X2.9442Y-3.2494
X2.9442Y-3.3494
X2.9442Y-3.4494
X2.9442Y-3.5494
X2.9442Y-3.6494
X2.9442Y-3.7494
X2.9442Y-3.8494
X2.9442Y-3.9494
X3.0442Y-2.0494
X3.0442Y-2.1494
X3.0442Y-2.2494
X3.0442Y-2.3494
X3.0442Y-2.4494
X3.0442Y-2.5494
X3.0442Y-2.6494
X3.0442Y-2.7494
X3.0442Y-2.8494
X3.0442Y-2.9494
X3.0442Y-3.0494
X3.0442Y-3.1494
X3.0442Y-3.2494
X3.0442Y-3.3494
X3.0442Y-3.4494
X3.0442Y-3.5494
X3.0442Y-3.6494
X3.0442Y-3.7494
X3.0442Y-3.8494
X3.0442Y-3.9494
X5.8Y-2.649
X5.8Y-2.749
X5.8Y-2.849
X5.8Y-2.949
X5.8Y-3.049
X5.9Y-2.649
X5.9Y-2.749
X5.9Y-2.849
X5.9Y-2.949
X5.9Y-3.049
X5.268Y-3.349
X5.268Y-3.449
X5.268Y-3.549
X5.368Y-3.349
X5.368Y-3.449
X5.368Y-3.549
X5.268Y-2.577
X5.268Y-2.677
X5.268Y-2.777
X5.368Y-2.577
X5.368Y-2.677
X5.368Y-2.777
X5.792Y-4.419
X5.792Y-4.519
X5.792Y-4.619
X5.792Y-4.719
X5.792Y-4.819
X5.892Y-4.419
X5.892Y-4.519
X5.892Y-4.619
X5.892Y-4.719
X5.892Y-4.819
T4
X2.4235Y-2.305
X2.4235Y-2.4704
X2.4235Y-2.6357
X2.4235Y-2.8011
X2.4235Y-2.9664
X2.4235Y-3.1318
X2.4235Y-3.2971
X2.4235Y-3.4625
X2.4235Y-3.6278
X2.4235Y-3.7932
X2.4235Y-3.9585
X2.4235Y-4.1239
X2.64Y-2.305
X2.64Y-2.4704
X2.64Y-2.6357
X2.64Y-2.8011
X2.64Y-2.9664
X2.64Y-3.1318
X2.64Y-3.2971
X2.64Y-3.4625
X2.64Y-3.6278
X2.64Y-3.7932
X2.64Y-3.9585
X2.64Y-4.1239
T5
X3.1016Y-4.8143
X3.2984Y-4.8143
T6
X2.9942Y-1.8577
X2.9942Y-4.1412
X4.9234Y-1.8577
X4.9234Y-4.1412
T2
G00X2.8969Y-4.5368
M15
G01X2.8969Y-4.4541
M16
G05
G00X2.8969Y-4.8714
M15
G01X2.8969Y-4.7887
M16
G05
G00X3.0917Y-4.4915
M15
G01X3.0917Y-4.5742
M16
G05
G00X3.1016Y-4.6391
M15
G01X3.1016Y-4.7218
M16
G05
G00X3.1587Y-4.8931
M15
G01X3.2413Y-4.8931
M16
G05
G00X3.2984Y-4.6391
M15
G01X3.2984Y-4.7218
M16
G05
G00X3.3083Y-4.4915
M15
G01X3.3083Y-4.5742
M16
G05
G00X3.5031Y-4.5368
M15
G01X3.5031Y-4.4541
M16
G05
G00X3.5031Y-4.8714
M15
G01X3.5031Y-4.7887
M16
G05
T3
G00X2.4818Y-4.4386
M15
G01X2.4818Y-4.5174
M16
G05
G00X2.5605Y-4.663
M15
G01X2.6393Y-4.663
M16
G05
G00X2.718Y-4.4386
M15
G01X2.718Y-4.5174
M16
G05
T0
M30
