M48
INCH,TZ
T1C0.0157
T2C0.0354
T3C0.0394
%
G90
G05
T1
X32087Y-18543
X32087Y-23071
X32087Y-25787
X32087Y-26969
X32087Y-28740
X32087Y-30315
X32874Y-19528
X32874Y-22087
X33071Y-29528
X33661Y-18543
X33661Y-23071
X33858Y-21102
X34055Y-25787
X34055Y-26969
X34055Y-28740
X34055Y-30315
X34449Y-20118
X34449Y-22087
X35039Y-26378
X35039Y-29528
X35236Y-18543
X35236Y-21102
X35236Y-23071
X35433Y-28937
X36024Y-19528
X36024Y-22087
X36024Y-25787
X36024Y-26969
X36024Y-30315
X36614Y-18543
X36614Y-23071
X37008Y-26378
X37008Y-29528
X37795Y-18150
X37795Y-20709
X37795Y-23661
X37992Y-25787
X37992Y-26969
X37992Y-30315
X38386Y-22480
X38394Y-19409
X38780Y-21299
X38976Y-18150
X38976Y-23661
X38976Y-26378
X38976Y-29921
X39961Y-18740
X39961Y-25787
X39961Y-26772
X39961Y-30315
X40157Y-21496
X40157Y-22677
X40945Y-26575
X40945Y-29921
X40984Y-19268
X41339Y-20709
X41732Y-22677
X41929Y-18740
X41929Y-25787
X41929Y-30315
X42126Y-20906
X42913Y-18150
X42913Y-23661
X43701Y-22480
X44488Y-18150
X44488Y-23661
X45079Y-20709
X45276Y-30315
X45472Y-18740
X45472Y-25787
X45669Y-22677
X46063Y-20709
X46457Y-26575
X46457Y-29724
X47244Y-18740
X47244Y-22677
X47244Y-25787
X47441Y-30315
X48425Y-18150
X48425Y-23661
X48622Y-20709
X48622Y-25394
X48622Y-30906
X49016Y-22480
X49043Y-19228
X49213Y-26575
X49213Y-29724
X49409Y-20709
X49606Y-18150
X49606Y-23661
X49803Y-25394
X49803Y-30906
X50591Y-18740
X50787Y-22677
X50787Y-25984
X50984Y-29921
X52165Y-20709
X52165Y-28150
X52362Y-22677
X52559Y-18740
X52559Y-29921
X52756Y-20906
X52756Y-25984
X53543Y-18150
X53543Y-23661
X53543Y-27953
X53740Y-25394
X53740Y-30906
X54126Y-26701
X54331Y-29724
X54528Y-22480
X54732Y-19457
X55118Y-18150
X55118Y-23661
X55315Y-20709
X55315Y-25394
X55315Y-30906
X56102Y-18740
X56102Y-28150
X56299Y-22677
X56299Y-25984
X56496Y-29921
X56693Y-20906
X56693Y-27953
X57874Y-22677
X58071Y-18740
X58071Y-29921
X58268Y-25984
X59055Y-18150
X59055Y-23661
X59252Y-25394
X59252Y-30906
X59449Y-27953
X59646Y-19331
X59646Y-22480
X59815Y-26472
X59843Y-29724
X60236Y-18150
X60236Y-23661
X60236Y-27953
X60433Y-25394
X60433Y-30906
X61417Y-23071
X61614Y-18543
X61614Y-25984
X61614Y-29921
X62402Y-19331
X62402Y-22480
X62795Y-27953
X63189Y-29921
X63386Y-18543
X63386Y-25984
X63583Y-23071
X63780Y-27953
X64370Y-25394
X64370Y-30906
X65157Y-29724
X65945Y-25394
X65945Y-30906
X66732Y-28150
X66929Y-18543
X66929Y-23071
X66929Y-25984
X67126Y-29921
X67520Y-27953
X67874Y-26512
X67913Y-19331
X67913Y-22677
X68701Y-28740
X68701Y-29921
X68898Y-18543
X68898Y-19528
X68898Y-23071
X68898Y-25984
X69882Y-19134
X69882Y-22677
X69882Y-25394
X69882Y-30906
X70079Y-28543
X70465Y-26654
X70472Y-29724
X70866Y-18543
X70866Y-19724
X70866Y-23071
X71063Y-25394
X71063Y-27953
X71063Y-30906
X71850Y-19134
X71850Y-22283
X72244Y-25787
X72244Y-30315
X72835Y-18543
X72835Y-19724
X72835Y-23071
X72835Y-26772
X72835Y-29331
X73425Y-21693
X73622Y-25787
X73622Y-28346
X73622Y-30315
X73819Y-19134
X73819Y-22283
X74409Y-27362
X74409Y-29331
X74803Y-18543
X74803Y-19724
X74803Y-21496
X74803Y-23071
X75000Y-28346
X75197Y-25787
X75197Y-30315
X75787Y-22283
X75984Y-26772
X75984Y-29331
X76772Y-18543
X76772Y-19724
X76772Y-21496
X76772Y-23071
X76772Y-25787
X76772Y-30315
T2
X68201Y-28001
X69201Y-28001
X43201Y-20757
X44201Y-20757
X50287Y-20757
X51287Y-20757
X71744Y-28001
X72744Y-28001
X50484Y-28001
X51484Y-28001
X64657Y-28001
X65657Y-28001
X60917Y-20757
X61917Y-20757
X46744Y-20757
X47744Y-20757
X39657Y-20757
X40657Y-20757
X36114Y-20757
X37114Y-20757
X46941Y-28001
X47941Y-28001
X57571Y-28001
X58571Y-28001
X53528Y-20757
X54528Y-20757
X54331Y-28001
X55331Y-28001
X57374Y-20757
X58374Y-20757
X61114Y-28001
X62114Y-28001
T3
X32533Y-28001
X33533Y-28001
X34533Y-28001
X35533Y-28001
X36533Y-28001
X37533Y-28001
X38533Y-28001
X39533Y-28001
X40533Y-28001
X41533Y-28001
X67325Y-20757
X68325Y-20757
X69325Y-20757
X70325Y-20757
X71325Y-20757
X72325Y-20757
X73325Y-20757
X74325Y-20757
X75325Y-20757
X76325Y-20757
T0
M30
