%TF.GenerationSoftware,KiCad,Pcbnew,(5.1.6-0-10_14)*%
%TF.CreationDate,2020-09-10T16:31:07+09:00*%
%TF.ProjectId,qPCR-ledcontrol,71504352-2d6c-4656-9463-6f6e74726f6c,rev?*%
%TF.SameCoordinates,Original*%
%TF.FileFunction,Copper,L1,Top*%
%TF.FilePolarity,Positive*%
%FSLAX46Y46*%
G04 Gerber Fmt 4.6, Leading zero omitted, Abs format (unit mm)*
G04 Created by KiCad (PCBNEW (5.1.6-0-10_14)) date 2020-09-10 16:31:07*
%MOMM*%
%LPD*%
G01*
G04 APERTURE LIST*
%TA.AperFunction,SMDPad,CuDef*%
%ADD10C,0.100000*%
%TD*%
%TA.AperFunction,Conductor*%
%ADD11C,0.100000*%
%TD*%
%TA.AperFunction,ComponentPad*%
%ADD12O,1.700000X1.700000*%
%TD*%
%TA.AperFunction,ComponentPad*%
%ADD13R,1.700000X1.700000*%
%TD*%
%TA.AperFunction,SMDPad,CuDef*%
%ADD14R,1.473200X0.558800*%
%TD*%
%TA.AperFunction,SMDPad,CuDef*%
%ADD15R,0.457200X1.524000*%
%TD*%
%TA.AperFunction,SMDPad,CuDef*%
%ADD16R,0.355600X1.600200*%
%TD*%
%TA.AperFunction,SMDPad,CuDef*%
%ADD17R,1.250000X1.500000*%
%TD*%
%TA.AperFunction,ViaPad*%
%ADD18C,0.800000*%
%TD*%
%TA.AperFunction,Conductor*%
%ADD19C,0.250000*%
%TD*%
%TA.AperFunction,Conductor*%
%ADD20C,0.254000*%
%TD*%
G04 APERTURE END LIST*
%TA.AperFunction,SMDPad,CuDef*%
D10*
%TO.P,JP1,1*%
%TO.N,LED_PWM*%
G36*
X104245000Y-85730100D02*
G01*
X104745000Y-84980100D01*
X105745000Y-84980100D01*
X105745000Y-86480100D01*
X104745000Y-86480100D01*
X104245000Y-85730100D01*
G37*
%TD.AperFunction*%
%TA.AperFunction,Conductor*%
D11*
%TD*%
%TO.N,LED_BLANK*%
%TO.C,JP1*%
G36*
X102545000Y-85730100D02*
G01*
X102045000Y-84980100D01*
X104445000Y-84980100D01*
X103945000Y-85730100D01*
X104445000Y-86480100D01*
X102045000Y-86480100D01*
X102545000Y-85730100D01*
G37*
%TD.AperFunction*%
%TA.AperFunction,SMDPad,CuDef*%
D10*
%TO.P,JP1,3*%
%TO.N,Net-(JP1-Pad3)*%
G36*
X102245000Y-85730100D02*
G01*
X101745000Y-86480100D01*
X100745000Y-86480100D01*
X100745000Y-84980100D01*
X101745000Y-84980100D01*
X102245000Y-85730100D01*
G37*
%TD.AperFunction*%
%TD*%
D12*
%TO.P,N_CONN1,10*%
%TO.N,N_LED_OUT2*%
X120160000Y-72460000D03*
%TO.P,N_CONN1,9*%
%TO.N,N_LED_OUT1*%
X120160000Y-75000000D03*
%TO.P,N_CONN1,8*%
%TO.N,N_LED_OUT4*%
X117620000Y-72460000D03*
%TO.P,N_CONN1,7*%
%TO.N,N_LED_OUT3*%
X117620000Y-75000000D03*
%TO.P,N_CONN1,6*%
%TO.N,N_LED_OUT7*%
X115080000Y-72460000D03*
%TO.P,N_CONN1,5*%
%TO.N,N_LED_OUT8*%
X115080000Y-75000000D03*
%TO.P,N_CONN1,4*%
%TO.N,N_LED_OUT6*%
X112540000Y-72460000D03*
%TO.P,N_CONN1,3*%
%TO.N,VCC_LED*%
X112540000Y-75000000D03*
%TO.P,N_CONN1,2*%
%TO.N,GND*%
X110000000Y-72460000D03*
D13*
%TO.P,N_CONN1,1*%
%TO.N,N_LED_OUT5*%
X110000000Y-75000000D03*
%TD*%
%TO.P,S_CONN1,1*%
%TO.N,S_LED_OUT5*%
X110000000Y-90000000D03*
D12*
%TO.P,S_CONN1,2*%
%TO.N,GND*%
X110000000Y-87460000D03*
%TO.P,S_CONN1,3*%
%TO.N,VCC_LED*%
X112540000Y-90000000D03*
%TO.P,S_CONN1,4*%
%TO.N,S_LED_OUT6*%
X112540000Y-87460000D03*
%TO.P,S_CONN1,5*%
%TO.N,S_LED_OUT8*%
X115080000Y-90000000D03*
%TO.P,S_CONN1,6*%
%TO.N,S_LED_OUT7*%
X115080000Y-87460000D03*
%TO.P,S_CONN1,7*%
%TO.N,S_LED_OUT3*%
X117620000Y-90000000D03*
%TO.P,S_CONN1,8*%
%TO.N,S_LED_OUT4*%
X117620000Y-87460000D03*
%TO.P,S_CONN1,9*%
%TO.N,S_LED_OUT1*%
X120160000Y-90000000D03*
%TO.P,S_CONN1,10*%
%TO.N,S_LED_OUT2*%
X120160000Y-87460000D03*
%TD*%
%TO.P,U1,10*%
%TO.N,I2C_SDA*%
X89575600Y-87580000D03*
%TO.P,U1,9*%
%TO.N,I2C_SCL*%
X87035600Y-87580000D03*
%TO.P,U1,8*%
%TO.N,LED_SPI_MISO*%
X89575600Y-85040000D03*
%TO.P,U1,7*%
%TO.N,LED_SPI_MOSI*%
X87035600Y-85040000D03*
%TO.P,U1,6*%
%TO.N,LED_SPI_SCLK*%
X89575600Y-82500000D03*
%TO.P,U1,5*%
%TO.N,LED_LAT*%
X87035600Y-82500000D03*
%TO.P,U1,4*%
%TO.N,LED_PWM*%
X89575600Y-79960000D03*
%TO.P,U1,3*%
%TO.N,GND*%
X87035600Y-79960000D03*
%TO.P,U1,2*%
%TO.N,VCC_LOGIC*%
X89575600Y-77420000D03*
D13*
%TO.P,U1,1*%
%TO.N,VCC_LED*%
X87035600Y-77420000D03*
%TD*%
D14*
%TO.P,U2,5*%
%TO.N,VCC_LOGIC*%
X102051200Y-89761101D03*
%TO.P,U2,4*%
%TO.N,Net-(JP1-Pad3)*%
X102051200Y-87861099D03*
%TO.P,U2,3*%
%TO.N,GND*%
X104438800Y-87861099D03*
%TO.P,U2,2*%
%TO.N,LED_PWM*%
X104438800Y-88811100D03*
%TO.P,U2,1*%
%TO.N,Net-(U2-Pad1)*%
X104438800Y-89761101D03*
%TD*%
D15*
%TO.P,U3,8*%
%TO.N,VCC_LOGIC*%
X94120101Y-82761900D03*
%TO.P,U3,7*%
%TO.N,GND*%
X94770099Y-82761900D03*
%TO.P,U3,6*%
%TO.N,/LED_IREF*%
X95420101Y-82761900D03*
%TO.P,U3,5*%
%TO.N,VCC_LOGIC*%
X96070099Y-82761900D03*
%TO.P,U3,4*%
%TO.N,GND*%
X96070099Y-86849100D03*
%TO.P,U3,3*%
%TO.N,I2C_SDA*%
X95420101Y-86849100D03*
%TO.P,U3,2*%
%TO.N,I2C_SCL*%
X94770099Y-86849100D03*
%TO.P,U3,1*%
%TO.N,VCC_LOGIC*%
X94120101Y-86849100D03*
%TD*%
D16*
%TO.P,U4,24*%
%TO.N,VCC_LOGIC*%
X105834500Y-79573100D03*
%TO.P,U4,23*%
%TO.N,/LED_IREF*%
X105199500Y-79573100D03*
%TO.P,U4,22*%
%TO.N,LED_SPI_MISO*%
X104564500Y-79573100D03*
%TO.P,U4,21*%
%TO.N,LED_BLANK*%
X103929500Y-79573100D03*
%TO.P,U4,20*%
%TO.N,S_LED_OUT8*%
X103294500Y-79573100D03*
%TO.P,U4,19*%
%TO.N,S_LED_OUT7*%
X102659500Y-79573100D03*
%TO.P,U4,18*%
%TO.N,S_LED_OUT6*%
X102024500Y-79573100D03*
%TO.P,U4,17*%
%TO.N,S_LED_OUT5*%
X101389500Y-79573100D03*
%TO.P,U4,16*%
%TO.N,S_LED_OUT4*%
X100754500Y-79573100D03*
%TO.P,U4,15*%
%TO.N,S_LED_OUT3*%
X100119500Y-79573100D03*
%TO.P,U4,14*%
%TO.N,S_LED_OUT2*%
X99484500Y-79573100D03*
%TO.P,U4,13*%
%TO.N,S_LED_OUT1*%
X98849500Y-79573100D03*
%TO.P,U4,12*%
%TO.N,N_LED_OUT8*%
X98849500Y-74264500D03*
%TO.P,U4,11*%
%TO.N,N_LED_OUT7*%
X99484500Y-74264500D03*
%TO.P,U4,10*%
%TO.N,N_LED_OUT6*%
X100119500Y-74264500D03*
%TO.P,U4,9*%
%TO.N,N_LED_OUT5*%
X100754500Y-74264500D03*
%TO.P,U4,8*%
%TO.N,N_LED_OUT4*%
X101389500Y-74264500D03*
%TO.P,U4,7*%
%TO.N,N_LED_OUT3*%
X102024500Y-74264500D03*
%TO.P,U4,6*%
%TO.N,N_LED_OUT2*%
X102659500Y-74264500D03*
%TO.P,U4,5*%
%TO.N,N_LED_OUT1*%
X103294500Y-74264500D03*
%TO.P,U4,4*%
%TO.N,LED_LAT*%
X103929500Y-74264500D03*
%TO.P,U4,3*%
%TO.N,LED_SPI_SCLK*%
X104564500Y-74264500D03*
%TO.P,U4,2*%
%TO.N,LED_SPI_MOSI*%
X105199500Y-74264500D03*
%TO.P,U4,1*%
%TO.N,GND*%
X105834500Y-74264500D03*
%TD*%
D17*
%TO.P,C1,2*%
%TO.N,GND*%
X94510900Y-77219200D03*
%TO.P,C1,1*%
%TO.N,VCC_LOGIC*%
X94510900Y-74719200D03*
%TD*%
%TO.P,C2,1*%
%TO.N,VCC_LED*%
X92628700Y-74719200D03*
%TO.P,C2,2*%
%TO.N,GND*%
X92628700Y-77219200D03*
%TD*%
D18*
%TO.N,N_LED_OUT8*%
X101439400Y-70575000D03*
%TO.N,N_LED_OUT5*%
X101420600Y-72796800D03*
%TO.N,S_LED_OUT5*%
X101409400Y-81022100D03*
%TO.N,S_LED_OUT6*%
X102409800Y-80996700D03*
%TO.N,S_LED_OUT3*%
X100409000Y-80991600D03*
%TO.N,LED_SPI_MOSI*%
X106494100Y-75440000D03*
%TO.N,LED_SPI_SCLK*%
X104784700Y-72846100D03*
%TO.N,LED_LAT*%
X103340900Y-72851600D03*
%TD*%
D19*
%TO.N,LED_PWM*%
X89575600Y-79960000D02*
X90750900Y-79960000D01*
X103376900Y-88811100D02*
X103376900Y-89940900D01*
X103376900Y-89940900D02*
X102928700Y-90389100D01*
X102928700Y-90389100D02*
X101094100Y-90389100D01*
X101094100Y-90389100D02*
X95498100Y-84793100D01*
X95498100Y-84793100D02*
X94408700Y-84793100D01*
X94408700Y-84793100D02*
X90750900Y-81135300D01*
X90750900Y-81135300D02*
X90750900Y-79960000D01*
X103489500Y-88811100D02*
X103376900Y-88811100D01*
X103376900Y-88811100D02*
X103376900Y-87384200D01*
X103376900Y-87384200D02*
X103504800Y-87256300D01*
X103504800Y-87256300D02*
X104244600Y-87256300D01*
X104244600Y-87256300D02*
X105245000Y-86255900D01*
X105245000Y-86255900D02*
X105245000Y-85730100D01*
X104438800Y-88811100D02*
X103489500Y-88811100D01*
%TO.N,LED_BLANK*%
X103929500Y-79573100D02*
X103929500Y-78447700D01*
X103245000Y-85730100D02*
X103245000Y-84654800D01*
X103245000Y-84654800D02*
X106344800Y-81555000D01*
X106344800Y-81555000D02*
X106344800Y-78640600D01*
X106344800Y-78640600D02*
X106151900Y-78447700D01*
X106151900Y-78447700D02*
X103929500Y-78447700D01*
%TO.N,Net-(JP1-Pad3)*%
X102051200Y-87861100D02*
X100989300Y-87861100D01*
X100989300Y-87861100D02*
X100989300Y-85985800D01*
X100989300Y-85985800D02*
X101245000Y-85730100D01*
%TO.N,N_LED_OUT2*%
X120160000Y-72460000D02*
X118984700Y-72460000D01*
X102659500Y-74264500D02*
X102593400Y-74198400D01*
X102593400Y-74198400D02*
X102593400Y-72538800D01*
X102593400Y-72538800D02*
X103852000Y-71280200D01*
X103852000Y-71280200D02*
X110486600Y-71280200D01*
X110486600Y-71280200D02*
X111270000Y-72063600D01*
X111270000Y-72063600D02*
X111270000Y-72947800D01*
X111270000Y-72947800D02*
X111957500Y-73635300D01*
X111957500Y-73635300D02*
X118176800Y-73635300D01*
X118176800Y-73635300D02*
X118984700Y-72827400D01*
X118984700Y-72827400D02*
X118984700Y-72460000D01*
%TO.N,N_LED_OUT1*%
X103294500Y-74264500D02*
X103294500Y-75389900D01*
X103294500Y-75389900D02*
X104080000Y-76175400D01*
X104080000Y-76175400D02*
X118984600Y-76175400D01*
X118984600Y-76175400D02*
X120160000Y-75000000D01*
%TO.N,N_LED_OUT4*%
X117620000Y-72460000D02*
X116444700Y-72460000D01*
X101389500Y-74264500D02*
X101389500Y-75389900D01*
X101389500Y-75389900D02*
X98475400Y-75389900D01*
X98475400Y-75389900D02*
X98309100Y-75223600D01*
X98309100Y-75223600D02*
X98309100Y-72618700D01*
X98309100Y-72618700D02*
X101104300Y-69823500D01*
X101104300Y-69823500D02*
X114175500Y-69823500D01*
X114175500Y-69823500D02*
X116444700Y-72092700D01*
X116444700Y-72092700D02*
X116444700Y-72460000D01*
%TO.N,N_LED_OUT3*%
X117620000Y-75000000D02*
X118795300Y-75000000D01*
X102024500Y-74264500D02*
X102024500Y-75430400D01*
X102024500Y-75430400D02*
X101606400Y-75848500D01*
X101606400Y-75848500D02*
X98277400Y-75848500D01*
X98277400Y-75848500D02*
X97853200Y-75424300D01*
X97853200Y-75424300D02*
X97853200Y-72385600D01*
X97853200Y-72385600D02*
X100903400Y-69335400D01*
X100903400Y-69335400D02*
X118723500Y-69335400D01*
X118723500Y-69335400D02*
X121338700Y-71950600D01*
X121338700Y-71950600D02*
X121338700Y-73032100D01*
X121338700Y-73032100D02*
X120546100Y-73824700D01*
X120546100Y-73824700D02*
X119603200Y-73824700D01*
X119603200Y-73824700D02*
X118795300Y-74632600D01*
X118795300Y-74632600D02*
X118795300Y-75000000D01*
%TO.N,N_LED_OUT7*%
X99484500Y-74264500D02*
X99484500Y-73070000D01*
X99484500Y-73070000D02*
X101254200Y-71300300D01*
X101254200Y-71300300D02*
X101739900Y-71300300D01*
X101739900Y-71300300D02*
X102716400Y-70323800D01*
X102716400Y-70323800D02*
X112135800Y-70323800D01*
X112135800Y-70323800D02*
X113904700Y-72092700D01*
X113904700Y-72092700D02*
X113904700Y-72460000D01*
X115080000Y-72460000D02*
X113904700Y-72460000D01*
%TO.N,N_LED_OUT8*%
X98849500Y-74264500D02*
X98849500Y-72988600D01*
X98849500Y-72988600D02*
X101263100Y-70575000D01*
X101263100Y-70575000D02*
X101439400Y-70575000D01*
%TO.N,N_LED_OUT6*%
X100119500Y-73139100D02*
X100119500Y-73072000D01*
X100119500Y-73072000D02*
X101440900Y-71750600D01*
X101440900Y-71750600D02*
X101926500Y-71750600D01*
X101926500Y-71750600D02*
X102899500Y-70777600D01*
X102899500Y-70777600D02*
X110857600Y-70777600D01*
X110857600Y-70777600D02*
X112540000Y-72460000D01*
X100119500Y-74264500D02*
X100119500Y-73139100D01*
%TO.N,VCC_LED*%
X87035600Y-77420000D02*
X88210900Y-77420000D01*
X92628700Y-74719200D02*
X90544400Y-74719200D01*
X90544400Y-74719200D02*
X88210900Y-77052700D01*
X88210900Y-77052700D02*
X88210900Y-77420000D01*
%TO.N,GND*%
X105553300Y-87861100D02*
X104438800Y-87861100D01*
X108824700Y-87460000D02*
X108423600Y-87861100D01*
X108423600Y-87861100D02*
X105553300Y-87861100D01*
X105553300Y-87861100D02*
X105553300Y-90171100D01*
X105553300Y-90171100D02*
X104874300Y-90850100D01*
X104874300Y-90850100D02*
X98983800Y-90850100D01*
X98983800Y-90850100D02*
X96070100Y-87936400D01*
X96070100Y-86849100D02*
X96070100Y-87936400D01*
X87035600Y-78784700D02*
X86227500Y-78784700D01*
X86227500Y-78784700D02*
X85860300Y-78417500D01*
X85860300Y-78417500D02*
X85860300Y-76434900D01*
X85860300Y-76434900D02*
X88695800Y-73599400D01*
X88695800Y-73599400D02*
X95290800Y-73599400D01*
X95290800Y-73599400D02*
X95461200Y-73769800D01*
X95461200Y-73769800D02*
X95461200Y-77219200D01*
X94770100Y-82761900D02*
X94770100Y-81674600D01*
X94759700Y-77219200D02*
X94759700Y-81664200D01*
X94759700Y-81664200D02*
X94770100Y-81674600D01*
X94759700Y-77219200D02*
X95461200Y-77219200D01*
X94510900Y-77219200D02*
X94759700Y-77219200D01*
X94510900Y-77219200D02*
X92628700Y-77219200D01*
X87035600Y-79960000D02*
X87035600Y-78784700D01*
X105834500Y-74264500D02*
X105834500Y-73139100D01*
X110000000Y-72460000D02*
X108824700Y-72460000D01*
X108824700Y-72460000D02*
X108145600Y-73139100D01*
X108145600Y-73139100D02*
X105834500Y-73139100D01*
X110000000Y-87460000D02*
X108824700Y-87460000D01*
%TO.N,N_LED_OUT5*%
X100754500Y-74264500D02*
X100754500Y-73139100D01*
X100754500Y-73139100D02*
X101078300Y-73139100D01*
X101078300Y-73139100D02*
X101420600Y-72796800D01*
%TO.N,S_LED_OUT5*%
X101389500Y-79573100D02*
X101389500Y-81002200D01*
X101389500Y-81002200D02*
X101409400Y-81022100D01*
%TO.N,S_LED_OUT6*%
X102409800Y-80996700D02*
X102024500Y-80611400D01*
X102024500Y-80611400D02*
X102024500Y-79573100D01*
%TO.N,S_LED_OUT8*%
X115080000Y-90000000D02*
X113904700Y-90000000D01*
X103294500Y-79573100D02*
X103294500Y-81179300D01*
X103294500Y-81179300D02*
X102698100Y-81775700D01*
X102698100Y-81775700D02*
X99606400Y-81775700D01*
X99606400Y-81775700D02*
X97402800Y-79572100D01*
X97402800Y-79572100D02*
X97402800Y-74310000D01*
X97402800Y-74310000D02*
X95791400Y-72698600D01*
X95791400Y-72698600D02*
X88306700Y-72698600D01*
X88306700Y-72698600D02*
X84909900Y-76095400D01*
X84909900Y-76095400D02*
X84909900Y-87152100D01*
X84909900Y-87152100D02*
X89058300Y-91300500D01*
X89058300Y-91300500D02*
X112971500Y-91300500D01*
X112971500Y-91300500D02*
X113904700Y-90367300D01*
X113904700Y-90367300D02*
X113904700Y-90000000D01*
%TO.N,S_LED_OUT7*%
X102659500Y-79573100D02*
X102659500Y-78447700D01*
X102659500Y-78447700D02*
X103109800Y-77997400D01*
X103109800Y-77997400D02*
X106341100Y-77997400D01*
X106341100Y-77997400D02*
X115080000Y-86736300D01*
X115080000Y-86736300D02*
X115080000Y-87460000D01*
%TO.N,S_LED_OUT3*%
X100119500Y-79573100D02*
X100119500Y-80702100D01*
X100119500Y-80702100D02*
X100409000Y-80991600D01*
%TO.N,S_LED_OUT4*%
X116444700Y-87460000D02*
X116444700Y-87155100D01*
X116444700Y-87155100D02*
X106836700Y-77547100D01*
X106836700Y-77547100D02*
X101655100Y-77547100D01*
X101655100Y-77547100D02*
X100754500Y-78447700D01*
X117620000Y-87460000D02*
X116444700Y-87460000D01*
X100754500Y-79573100D02*
X100754500Y-78447700D01*
%TO.N,S_LED_OUT1*%
X120160000Y-90000000D02*
X120160000Y-88824700D01*
X98849500Y-79573100D02*
X98849500Y-78447700D01*
X98849500Y-78447700D02*
X100659200Y-76638000D01*
X100659200Y-76638000D02*
X111038100Y-76638000D01*
X111038100Y-76638000D02*
X121335300Y-86935200D01*
X121335300Y-86935200D02*
X121335300Y-88016800D01*
X121335300Y-88016800D02*
X120527400Y-88824700D01*
X120527400Y-88824700D02*
X120160000Y-88824700D01*
%TO.N,S_LED_OUT2*%
X99484500Y-79573100D02*
X99484500Y-78756700D01*
X99484500Y-78756700D02*
X101152800Y-77088400D01*
X101152800Y-77088400D02*
X108919300Y-77088400D01*
X108919300Y-77088400D02*
X118984700Y-87153800D01*
X118984700Y-87153800D02*
X118984700Y-87460000D01*
X120160000Y-87460000D02*
X118984700Y-87460000D01*
%TO.N,I2C_SDA*%
X95420100Y-86849100D02*
X95420100Y-87936400D01*
X89575600Y-87580000D02*
X90750900Y-87580000D01*
X90750900Y-87580000D02*
X91561500Y-88390600D01*
X91561500Y-88390600D02*
X94965900Y-88390600D01*
X94965900Y-88390600D02*
X95420100Y-87936400D01*
%TO.N,I2C_SCL*%
X87035600Y-87580000D02*
X88210900Y-87580000D01*
X94770100Y-86849100D02*
X94770100Y-87936400D01*
X94770100Y-87936400D02*
X93412100Y-87936400D01*
X93412100Y-87936400D02*
X91880400Y-86404700D01*
X91880400Y-86404700D02*
X89018800Y-86404700D01*
X89018800Y-86404700D02*
X88210900Y-87212600D01*
X88210900Y-87212600D02*
X88210900Y-87580000D01*
%TO.N,LED_SPI_MISO*%
X89575600Y-83864700D02*
X89208200Y-83864700D01*
X89208200Y-83864700D02*
X88400300Y-83056800D01*
X88400300Y-83056800D02*
X88400300Y-82172800D01*
X88400300Y-82172800D02*
X87475400Y-81247900D01*
X87475400Y-81247900D02*
X86648000Y-81247900D01*
X86648000Y-81247900D02*
X85376100Y-79976000D01*
X85376100Y-79976000D02*
X85376100Y-76272100D01*
X85376100Y-76272100D02*
X88499200Y-73149000D01*
X88499200Y-73149000D02*
X95544400Y-73149000D01*
X95544400Y-73149000D02*
X96772100Y-74376700D01*
X96772100Y-74376700D02*
X96772100Y-79657900D01*
X96772100Y-79657900D02*
X99340200Y-82226000D01*
X99340200Y-82226000D02*
X103037000Y-82226000D01*
X103037000Y-82226000D02*
X104564500Y-80698500D01*
X89575600Y-85040000D02*
X89575600Y-83864700D01*
X104564500Y-79573100D02*
X104564500Y-80698500D01*
%TO.N,LED_SPI_MOSI*%
X105199500Y-75389900D02*
X106444000Y-75389900D01*
X106444000Y-75389900D02*
X106494100Y-75440000D01*
X105199500Y-74264500D02*
X105199500Y-75389900D01*
%TO.N,LED_SPI_SCLK*%
X104564500Y-73139100D02*
X104784700Y-72918900D01*
X104784700Y-72918900D02*
X104784700Y-72846100D01*
X104564500Y-74264500D02*
X104564500Y-73139100D01*
%TO.N,LED_LAT*%
X103929500Y-73139100D02*
X103642000Y-72851600D01*
X103642000Y-72851600D02*
X103340900Y-72851600D01*
X103929500Y-74264500D02*
X103929500Y-73139100D01*
%TO.N,VCC_LOGIC*%
X100375400Y-84001300D02*
X102661200Y-84001300D01*
X102661200Y-84001300D02*
X105834500Y-80828000D01*
X105834500Y-80828000D02*
X105834500Y-80698500D01*
X105834500Y-79573100D02*
X105834500Y-80698500D01*
X96070100Y-83849200D02*
X96222200Y-84001300D01*
X96222200Y-84001300D02*
X100375400Y-84001300D01*
X100375400Y-84001300D02*
X100375400Y-88085300D01*
X100375400Y-88085300D02*
X102051200Y-89761100D01*
X96070100Y-82761900D02*
X96070100Y-83849200D01*
X94120100Y-82761900D02*
X94120100Y-83849200D01*
X94120100Y-83849200D02*
X96070100Y-83849200D01*
X94120100Y-82218200D02*
X94120100Y-82761900D01*
X94120100Y-82218200D02*
X94120100Y-81674600D01*
X90163300Y-77420000D02*
X88400200Y-79183100D01*
X88400200Y-79183100D02*
X88400200Y-80485600D01*
X88400200Y-80485600D02*
X89144600Y-81230000D01*
X89144600Y-81230000D02*
X90075700Y-81230000D01*
X90075700Y-81230000D02*
X94120100Y-85274400D01*
X94120100Y-85274400D02*
X94120100Y-86849100D01*
X90163300Y-77420000D02*
X90750900Y-77420000D01*
X89575600Y-77420000D02*
X90163300Y-77420000D01*
X94120100Y-81674600D02*
X90750900Y-78305400D01*
X90750900Y-78305400D02*
X90750900Y-77420000D01*
X90750900Y-77420000D02*
X90750900Y-77199600D01*
X90750900Y-77199600D02*
X91833500Y-76117000D01*
X91833500Y-76117000D02*
X93113100Y-76117000D01*
X93113100Y-76117000D02*
X94510900Y-74719200D01*
%TO.N,/LED_IREF*%
X95420100Y-81674600D02*
X98151900Y-81674600D01*
X98151900Y-81674600D02*
X99153600Y-82676300D01*
X99153600Y-82676300D02*
X103274800Y-82676300D01*
X103274800Y-82676300D02*
X105199500Y-80751600D01*
X105199500Y-80751600D02*
X105199500Y-79573100D01*
X95420100Y-82761900D02*
X95420100Y-81674600D01*
%TD*%
D20*
%TO.N,GND*%
G36*
X113868743Y-86599845D02*
G01*
X113810000Y-86687760D01*
X113693475Y-86513368D01*
X113486632Y-86306525D01*
X113243411Y-86144010D01*
X112973158Y-86032068D01*
X112686260Y-85975000D01*
X112393740Y-85975000D01*
X112106842Y-86032068D01*
X111836589Y-86144010D01*
X111593368Y-86306525D01*
X111386525Y-86513368D01*
X111264805Y-86695534D01*
X111195178Y-86578645D01*
X111000269Y-86362412D01*
X110766920Y-86188359D01*
X110504099Y-86063175D01*
X110356890Y-86018524D01*
X110127000Y-86139845D01*
X110127000Y-87333000D01*
X110147000Y-87333000D01*
X110147000Y-87587000D01*
X110127000Y-87587000D01*
X110127000Y-87607000D01*
X109873000Y-87607000D01*
X109873000Y-87587000D01*
X108679186Y-87587000D01*
X108558519Y-87816891D01*
X108655843Y-88091252D01*
X108804822Y-88341355D01*
X108981626Y-88537502D01*
X108905820Y-88560498D01*
X108795506Y-88619463D01*
X108698815Y-88698815D01*
X108619463Y-88795506D01*
X108560498Y-88905820D01*
X108524188Y-89025518D01*
X108511928Y-89150000D01*
X108511928Y-90540500D01*
X105567105Y-90540500D01*
X105626585Y-90491686D01*
X105705937Y-90394995D01*
X105764902Y-90284681D01*
X105801212Y-90164983D01*
X105813472Y-90040501D01*
X105813472Y-89481701D01*
X105801212Y-89357219D01*
X105779638Y-89286101D01*
X105801212Y-89214982D01*
X105813472Y-89090500D01*
X105813472Y-88531700D01*
X105801212Y-88407218D01*
X105779621Y-88336043D01*
X105800834Y-88266865D01*
X105810400Y-88146849D01*
X105651650Y-87988099D01*
X105505453Y-87988099D01*
X105419580Y-87942198D01*
X105299882Y-87905888D01*
X105175400Y-87893628D01*
X104664472Y-87893628D01*
X104668876Y-87891274D01*
X104784601Y-87796301D01*
X104808404Y-87767298D01*
X104841602Y-87734099D01*
X105651650Y-87734099D01*
X105810400Y-87575349D01*
X105800834Y-87455333D01*
X105764164Y-87335745D01*
X105704867Y-87225609D01*
X105625224Y-87129157D01*
X105611756Y-87118172D01*
X105745000Y-87118172D01*
X105869482Y-87105912D01*
X105878722Y-87103109D01*
X108558519Y-87103109D01*
X108679186Y-87333000D01*
X109873000Y-87333000D01*
X109873000Y-86139845D01*
X109643110Y-86018524D01*
X109495901Y-86063175D01*
X109233080Y-86188359D01*
X108999731Y-86362412D01*
X108804822Y-86578645D01*
X108655843Y-86828748D01*
X108558519Y-87103109D01*
X105878722Y-87103109D01*
X105989180Y-87069602D01*
X106099494Y-87010637D01*
X106196185Y-86931285D01*
X106275537Y-86834594D01*
X106334502Y-86724280D01*
X106370812Y-86604582D01*
X106383072Y-86480100D01*
X106383072Y-84980100D01*
X106370812Y-84855618D01*
X106334502Y-84735920D01*
X106275537Y-84625606D01*
X106196185Y-84528915D01*
X106099494Y-84449563D01*
X105989180Y-84390598D01*
X105869482Y-84354288D01*
X105745000Y-84342028D01*
X104745000Y-84342028D01*
X104620217Y-84354384D01*
X106855804Y-82118798D01*
X106884801Y-82095001D01*
X106979774Y-81979276D01*
X107050346Y-81847247D01*
X107093803Y-81703986D01*
X107104800Y-81592333D01*
X107104800Y-81592324D01*
X107108476Y-81555001D01*
X107104800Y-81517678D01*
X107104800Y-79835901D01*
X113868743Y-86599845D01*
G37*
X113868743Y-86599845D02*
X113810000Y-86687760D01*
X113693475Y-86513368D01*
X113486632Y-86306525D01*
X113243411Y-86144010D01*
X112973158Y-86032068D01*
X112686260Y-85975000D01*
X112393740Y-85975000D01*
X112106842Y-86032068D01*
X111836589Y-86144010D01*
X111593368Y-86306525D01*
X111386525Y-86513368D01*
X111264805Y-86695534D01*
X111195178Y-86578645D01*
X111000269Y-86362412D01*
X110766920Y-86188359D01*
X110504099Y-86063175D01*
X110356890Y-86018524D01*
X110127000Y-86139845D01*
X110127000Y-87333000D01*
X110147000Y-87333000D01*
X110147000Y-87587000D01*
X110127000Y-87587000D01*
X110127000Y-87607000D01*
X109873000Y-87607000D01*
X109873000Y-87587000D01*
X108679186Y-87587000D01*
X108558519Y-87816891D01*
X108655843Y-88091252D01*
X108804822Y-88341355D01*
X108981626Y-88537502D01*
X108905820Y-88560498D01*
X108795506Y-88619463D01*
X108698815Y-88698815D01*
X108619463Y-88795506D01*
X108560498Y-88905820D01*
X108524188Y-89025518D01*
X108511928Y-89150000D01*
X108511928Y-90540500D01*
X105567105Y-90540500D01*
X105626585Y-90491686D01*
X105705937Y-90394995D01*
X105764902Y-90284681D01*
X105801212Y-90164983D01*
X105813472Y-90040501D01*
X105813472Y-89481701D01*
X105801212Y-89357219D01*
X105779638Y-89286101D01*
X105801212Y-89214982D01*
X105813472Y-89090500D01*
X105813472Y-88531700D01*
X105801212Y-88407218D01*
X105779621Y-88336043D01*
X105800834Y-88266865D01*
X105810400Y-88146849D01*
X105651650Y-87988099D01*
X105505453Y-87988099D01*
X105419580Y-87942198D01*
X105299882Y-87905888D01*
X105175400Y-87893628D01*
X104664472Y-87893628D01*
X104668876Y-87891274D01*
X104784601Y-87796301D01*
X104808404Y-87767298D01*
X104841602Y-87734099D01*
X105651650Y-87734099D01*
X105810400Y-87575349D01*
X105800834Y-87455333D01*
X105764164Y-87335745D01*
X105704867Y-87225609D01*
X105625224Y-87129157D01*
X105611756Y-87118172D01*
X105745000Y-87118172D01*
X105869482Y-87105912D01*
X105878722Y-87103109D01*
X108558519Y-87103109D01*
X108679186Y-87333000D01*
X109873000Y-87333000D01*
X109873000Y-86139845D01*
X109643110Y-86018524D01*
X109495901Y-86063175D01*
X109233080Y-86188359D01*
X108999731Y-86362412D01*
X108804822Y-86578645D01*
X108655843Y-86828748D01*
X108558519Y-87103109D01*
X105878722Y-87103109D01*
X105989180Y-87069602D01*
X106099494Y-87010637D01*
X106196185Y-86931285D01*
X106275537Y-86834594D01*
X106334502Y-86724280D01*
X106370812Y-86604582D01*
X106383072Y-86480100D01*
X106383072Y-84980100D01*
X106370812Y-84855618D01*
X106334502Y-84735920D01*
X106275537Y-84625606D01*
X106196185Y-84528915D01*
X106099494Y-84449563D01*
X105989180Y-84390598D01*
X105869482Y-84354288D01*
X105745000Y-84342028D01*
X104745000Y-84342028D01*
X104620217Y-84354384D01*
X106855804Y-82118798D01*
X106884801Y-82095001D01*
X106979774Y-81979276D01*
X107050346Y-81847247D01*
X107093803Y-81703986D01*
X107104800Y-81592333D01*
X107104800Y-81592324D01*
X107108476Y-81555001D01*
X107104800Y-81517678D01*
X107104800Y-79835901D01*
X113868743Y-86599845D01*
G36*
X96012100Y-74691502D02*
G01*
X96012101Y-79620568D01*
X96008424Y-79657900D01*
X96012101Y-79695233D01*
X96023098Y-79806886D01*
X96035486Y-79847724D01*
X96066554Y-79950146D01*
X96137126Y-80082176D01*
X96202718Y-80162099D01*
X96232100Y-80197901D01*
X96261098Y-80221699D01*
X96953999Y-80914600D01*
X95457433Y-80914600D01*
X95420100Y-80910923D01*
X95382767Y-80914600D01*
X95271114Y-80925597D01*
X95127853Y-80969054D01*
X94995824Y-81039626D01*
X94880099Y-81134599D01*
X94785126Y-81250324D01*
X94770100Y-81278435D01*
X94755074Y-81250324D01*
X94660101Y-81134599D01*
X94631103Y-81110801D01*
X92126462Y-78606160D01*
X92342950Y-78604200D01*
X92501700Y-78445450D01*
X92501700Y-77346200D01*
X92755700Y-77346200D01*
X92755700Y-78445450D01*
X92914450Y-78604200D01*
X93253700Y-78607272D01*
X93378182Y-78595012D01*
X93497880Y-78558702D01*
X93569800Y-78520259D01*
X93641720Y-78558702D01*
X93761418Y-78595012D01*
X93885900Y-78607272D01*
X94225150Y-78604200D01*
X94383900Y-78445450D01*
X94383900Y-77346200D01*
X94637900Y-77346200D01*
X94637900Y-78445450D01*
X94796650Y-78604200D01*
X95135900Y-78607272D01*
X95260382Y-78595012D01*
X95380080Y-78558702D01*
X95490394Y-78499737D01*
X95587085Y-78420385D01*
X95666437Y-78323694D01*
X95725402Y-78213380D01*
X95761712Y-78093682D01*
X95773972Y-77969200D01*
X95770900Y-77504950D01*
X95612150Y-77346200D01*
X94637900Y-77346200D01*
X94383900Y-77346200D01*
X92755700Y-77346200D01*
X92501700Y-77346200D01*
X92481700Y-77346200D01*
X92481700Y-77092200D01*
X92501700Y-77092200D01*
X92501700Y-77072200D01*
X92755700Y-77072200D01*
X92755700Y-77092200D01*
X94383900Y-77092200D01*
X94383900Y-77072200D01*
X94637900Y-77072200D01*
X94637900Y-77092200D01*
X95612150Y-77092200D01*
X95770900Y-76933450D01*
X95773972Y-76469200D01*
X95761712Y-76344718D01*
X95725402Y-76225020D01*
X95666437Y-76114706D01*
X95587085Y-76018015D01*
X95527604Y-75969200D01*
X95587085Y-75920385D01*
X95666437Y-75823694D01*
X95725402Y-75713380D01*
X95761712Y-75593682D01*
X95773972Y-75469200D01*
X95773972Y-74453374D01*
X96012100Y-74691502D01*
G37*
X96012100Y-74691502D02*
X96012101Y-79620568D01*
X96008424Y-79657900D01*
X96012101Y-79695233D01*
X96023098Y-79806886D01*
X96035486Y-79847724D01*
X96066554Y-79950146D01*
X96137126Y-80082176D01*
X96202718Y-80162099D01*
X96232100Y-80197901D01*
X96261098Y-80221699D01*
X96953999Y-80914600D01*
X95457433Y-80914600D01*
X95420100Y-80910923D01*
X95382767Y-80914600D01*
X95271114Y-80925597D01*
X95127853Y-80969054D01*
X94995824Y-81039626D01*
X94880099Y-81134599D01*
X94785126Y-81250324D01*
X94770100Y-81278435D01*
X94755074Y-81250324D01*
X94660101Y-81134599D01*
X94631103Y-81110801D01*
X92126462Y-78606160D01*
X92342950Y-78604200D01*
X92501700Y-78445450D01*
X92501700Y-77346200D01*
X92755700Y-77346200D01*
X92755700Y-78445450D01*
X92914450Y-78604200D01*
X93253700Y-78607272D01*
X93378182Y-78595012D01*
X93497880Y-78558702D01*
X93569800Y-78520259D01*
X93641720Y-78558702D01*
X93761418Y-78595012D01*
X93885900Y-78607272D01*
X94225150Y-78604200D01*
X94383900Y-78445450D01*
X94383900Y-77346200D01*
X94637900Y-77346200D01*
X94637900Y-78445450D01*
X94796650Y-78604200D01*
X95135900Y-78607272D01*
X95260382Y-78595012D01*
X95380080Y-78558702D01*
X95490394Y-78499737D01*
X95587085Y-78420385D01*
X95666437Y-78323694D01*
X95725402Y-78213380D01*
X95761712Y-78093682D01*
X95773972Y-77969200D01*
X95770900Y-77504950D01*
X95612150Y-77346200D01*
X94637900Y-77346200D01*
X94383900Y-77346200D01*
X92755700Y-77346200D01*
X92501700Y-77346200D01*
X92481700Y-77346200D01*
X92481700Y-77092200D01*
X92501700Y-77092200D01*
X92501700Y-77072200D01*
X92755700Y-77072200D01*
X92755700Y-77092200D01*
X94383900Y-77092200D01*
X94383900Y-77072200D01*
X94637900Y-77072200D01*
X94637900Y-77092200D01*
X95612150Y-77092200D01*
X95770900Y-76933450D01*
X95773972Y-76469200D01*
X95761712Y-76344718D01*
X95725402Y-76225020D01*
X95666437Y-76114706D01*
X95587085Y-76018015D01*
X95527604Y-75969200D01*
X95587085Y-75920385D01*
X95666437Y-75823694D01*
X95725402Y-75713380D01*
X95761712Y-75593682D01*
X95773972Y-75469200D01*
X95773972Y-74453374D01*
X96012100Y-74691502D01*
G36*
X87162600Y-79833000D02*
G01*
X87182600Y-79833000D01*
X87182600Y-80087000D01*
X87162600Y-80087000D01*
X87162600Y-80107000D01*
X86908600Y-80107000D01*
X86908600Y-80087000D01*
X86888600Y-80087000D01*
X86888600Y-79833000D01*
X86908600Y-79833000D01*
X86908600Y-79813000D01*
X87162600Y-79813000D01*
X87162600Y-79833000D01*
G37*
X87162600Y-79833000D02*
X87182600Y-79833000D01*
X87182600Y-80087000D01*
X87162600Y-80087000D01*
X87162600Y-80107000D01*
X86908600Y-80107000D01*
X86908600Y-80087000D01*
X86888600Y-80087000D01*
X86888600Y-79833000D01*
X86908600Y-79833000D01*
X86908600Y-79813000D01*
X87162600Y-79813000D01*
X87162600Y-79833000D01*
G36*
X108558519Y-72103109D02*
G01*
X108679186Y-72333000D01*
X109873000Y-72333000D01*
X109873000Y-72313000D01*
X110127000Y-72313000D01*
X110127000Y-72333000D01*
X110147000Y-72333000D01*
X110147000Y-72587000D01*
X110127000Y-72587000D01*
X110127000Y-72607000D01*
X109873000Y-72607000D01*
X109873000Y-72587000D01*
X108679186Y-72587000D01*
X108558519Y-72816891D01*
X108655843Y-73091252D01*
X108804822Y-73341355D01*
X108981626Y-73537502D01*
X108905820Y-73560498D01*
X108795506Y-73619463D01*
X108698815Y-73698815D01*
X108619463Y-73795506D01*
X108560498Y-73905820D01*
X108524188Y-74025518D01*
X108511928Y-74150000D01*
X108511928Y-75415400D01*
X107529100Y-75415400D01*
X107529100Y-75338061D01*
X107489326Y-75138102D01*
X107411305Y-74949744D01*
X107298037Y-74780226D01*
X107153874Y-74636063D01*
X106984356Y-74522795D01*
X106795998Y-74444774D01*
X106596039Y-74405000D01*
X106502050Y-74405000D01*
X106488550Y-74391500D01*
X106015372Y-74391500D01*
X106015372Y-74137500D01*
X106488550Y-74137500D01*
X106647300Y-73978750D01*
X106650308Y-73473463D01*
X106639817Y-73348819D01*
X106605210Y-73228618D01*
X106547819Y-73117477D01*
X106469848Y-73019669D01*
X106374293Y-72938951D01*
X106264828Y-72878426D01*
X106145658Y-72840420D01*
X106044050Y-72829400D01*
X105885300Y-72988150D01*
X105885300Y-73082444D01*
X105828485Y-73013215D01*
X105809788Y-72997871D01*
X105819700Y-72948039D01*
X105819700Y-72744161D01*
X105779926Y-72544202D01*
X105701905Y-72355844D01*
X105588637Y-72186326D01*
X105444474Y-72042163D01*
X105441536Y-72040200D01*
X108580835Y-72040200D01*
X108558519Y-72103109D01*
G37*
X108558519Y-72103109D02*
X108679186Y-72333000D01*
X109873000Y-72333000D01*
X109873000Y-72313000D01*
X110127000Y-72313000D01*
X110127000Y-72333000D01*
X110147000Y-72333000D01*
X110147000Y-72587000D01*
X110127000Y-72587000D01*
X110127000Y-72607000D01*
X109873000Y-72607000D01*
X109873000Y-72587000D01*
X108679186Y-72587000D01*
X108558519Y-72816891D01*
X108655843Y-73091252D01*
X108804822Y-73341355D01*
X108981626Y-73537502D01*
X108905820Y-73560498D01*
X108795506Y-73619463D01*
X108698815Y-73698815D01*
X108619463Y-73795506D01*
X108560498Y-73905820D01*
X108524188Y-74025518D01*
X108511928Y-74150000D01*
X108511928Y-75415400D01*
X107529100Y-75415400D01*
X107529100Y-75338061D01*
X107489326Y-75138102D01*
X107411305Y-74949744D01*
X107298037Y-74780226D01*
X107153874Y-74636063D01*
X106984356Y-74522795D01*
X106795998Y-74444774D01*
X106596039Y-74405000D01*
X106502050Y-74405000D01*
X106488550Y-74391500D01*
X106015372Y-74391500D01*
X106015372Y-74137500D01*
X106488550Y-74137500D01*
X106647300Y-73978750D01*
X106650308Y-73473463D01*
X106639817Y-73348819D01*
X106605210Y-73228618D01*
X106547819Y-73117477D01*
X106469848Y-73019669D01*
X106374293Y-72938951D01*
X106264828Y-72878426D01*
X106145658Y-72840420D01*
X106044050Y-72829400D01*
X105885300Y-72988150D01*
X105885300Y-73082444D01*
X105828485Y-73013215D01*
X105809788Y-72997871D01*
X105819700Y-72948039D01*
X105819700Y-72744161D01*
X105779926Y-72544202D01*
X105701905Y-72355844D01*
X105588637Y-72186326D01*
X105444474Y-72042163D01*
X105441536Y-72040200D01*
X108580835Y-72040200D01*
X108558519Y-72103109D01*
%TD*%
M02*
