M48
INCH,TZ
T1C0.0118
T2C0.0157
T3C0.0256
T4C0.0315
T5C0.0354
T6C0.0390
T7C0.0394
T8C0.0433
T9C0.0470
T10C0.0472
T11C0.0551
T12C0.0590
T13C0.0591
T14C0.0630
T15C0.0748
T16C0.0787
T17C0.1083
%
G90
G05
T1
X53348Y-43000
X53348Y-43512
X53348Y-44024
X53348Y-44536
X53348Y-45048
X53348Y-45560
X53860Y-43000
X53860Y-43512
X53860Y-44024
X53860Y-44536
X53860Y-45048
X53860Y-45560
X54372Y-43000
X54372Y-43512
X54372Y-44024
X54372Y-44536
X54372Y-45048
X54372Y-45560
T2
X31854Y-34941
X31862Y-36732
X31878Y-44343
X31906Y-25236
X31925Y-42008
X31925Y-51744
X31941Y-47146
X31945Y-49732
X31965Y-39461
X32083Y-56878
X32110Y-55024
X32272Y-26390
X32689Y-35846
X32854Y-50709
X33157Y-45925
X33220Y-29177
X33236Y-40744
X33287Y-33469
X33500Y-22465
X33539Y-23437
X33583Y-27335
X33740Y-25602
X33776Y-58555
X33799Y-43874
X33799Y-52492
X33898Y-37071
X33906Y-56374
X34016Y-49118
X34039Y-38929
X34075Y-42268
X34130Y-47409
X34157Y-21488
X34240Y-54315
X34535Y-28228
X34823Y-52004
X35051Y-31933
X35165Y-46925
X35169Y-29528
X35264Y-41748
X35311Y-44024
X35390Y-24949
X35390Y-57445
X35634Y-33787
X35756Y-38949
X35815Y-23862
X35949Y-25835
X36067Y-19961
X36130Y-37063
X36701Y-22035
X36709Y-23115
X36756Y-54303
X36776Y-44075
X36783Y-26630
X36799Y-49299
X36917Y-31996
X36949Y-56240
X36984Y-38957
X37098Y-18626
X37256Y-20913
X37449Y-29276
X37512Y-27886
X37736Y-58555
X37764Y-47386
X37839Y-24825
X37909Y-25913
X37937Y-33732
X37961Y-19620
X38111Y-19240
X38138Y-20299
X38209Y-17846
X38293Y-19858
X38493Y-19138
X38496Y-13724
X38535Y-35992
X38575Y-15602
X38610Y-43299
X38630Y-41547
X38650Y-52559
X38654Y-55228
X38656Y-30375
X38701Y-48547
X38809Y-18901
X38831Y-25252
X38929Y-22823
X38988Y-21665
X39067Y-45657
X39083Y-27827
X39094Y-29012
X39130Y-38583
X39142Y-18623
X39394Y-30248
X39441Y-19862
X39504Y-20870
X39531Y-16406
X39555Y-17346
X39638Y-53980
X39705Y-15378
X39736Y-50252
X39760Y-40035
X39803Y-35409
X39850Y-44051
X40197Y-33575
X40326Y-19831
X40543Y-17354
X40543Y-40024
X40563Y-41138
X40571Y-45315
X40587Y-16378
X40614Y-33268
X40614Y-43591
X40630Y-57449
X40646Y-49110
X40713Y-29886
X40724Y-31697
X40732Y-55272
X40752Y-28839
X40760Y-51520
X40778Y-28163
X40780Y-53811
X40787Y-39071
X40909Y-35303
X40933Y-36362
X40949Y-37921
X40949Y-52732
X41024Y-24283
X41035Y-31039
X41039Y-20528
X41039Y-50165
X41075Y-13760
X41323Y-48063
X41393Y-42868
X41464Y-49535
X41555Y-17167
X41567Y-15441
X41661Y-44643
X41669Y-32138
X41693Y-39677
X41697Y-35118
X41720Y-37898
X41746Y-47006
X41788Y-29951
X41791Y-28425
X41827Y-24701
X41828Y-47816
X41835Y-26945
X41858Y-30705
X41898Y-45390
X41950Y-17167
X41996Y-32598
X42055Y-43362
X42071Y-43757
X42092Y-17878
X42130Y-52386
X42150Y-39047
X42198Y-47994
X42344Y-17167
X42358Y-13756
X42437Y-20854
X42470Y-18050
X42476Y-55146
X42496Y-20157
X42521Y-41520
X42571Y-47831
X42650Y-23142
X42665Y-36142
X42669Y-41067
X42693Y-23854
X42736Y-16591
X42748Y-43629
X42795Y-18276
X42822Y-44017
X42842Y-43246
X42882Y-53933
X42964Y-47424
X42984Y-41705
X43031Y-27760
X43055Y-29811
X43110Y-31441
X43185Y-14752
X43189Y-25874
X43217Y-40559
X43240Y-39319
X43354Y-50811
X43397Y-47790
X43583Y-45827
X43591Y-41960
X43591Y-42355
X43594Y-35091
X43609Y-40516
X43654Y-52626
X43740Y-31272
X43777Y-47511
X43791Y-33409
X43835Y-32343
X43886Y-38063
X44028Y-26776
X44035Y-24567
X44079Y-54693
X44091Y-40504
X44240Y-45563
X44343Y-44685
X44366Y-13661
X44630Y-19339
X44630Y-47681
X44705Y-30323
X44772Y-28681
X44811Y-46197
X44843Y-31299
X44883Y-32336
X44921Y-33386
X44941Y-53961
X44981Y-18204
X45012Y-34276
X45067Y-51016
X45094Y-21902
X45105Y-44596
X45169Y-36898
X45244Y-44965
X45260Y-39429
X45346Y-48838
X45375Y-45338
X45480Y-21024
X45539Y-20307
X45726Y-49331
X45783Y-32323
X45783Y-54898
X45866Y-33327
X45878Y-31228
X45898Y-18520
X45939Y-42374
X46050Y-47957
X46176Y-42047
X46213Y-23169
X46374Y-19350
X46421Y-35232
X46437Y-52409
X46445Y-47961
X46472Y-53740
X46583Y-58008
X46610Y-40531
X46634Y-46618
X46734Y-42061
X46770Y-43205
X46842Y-43593
X46890Y-32335
X46929Y-30787
X46940Y-41724
X46957Y-38071
X46961Y-25240
X46969Y-18173
X47006Y-49331
X47043Y-24264
X47086Y-44034
X47130Y-48207
X47315Y-20949
X47323Y-26610
X47343Y-51055
X47361Y-47887
X47394Y-54630
X47463Y-48605
X47547Y-34114
X47598Y-22154
X47759Y-42014
X47765Y-42408
X47770Y-49086
X47776Y-39370
X47878Y-47362
X47909Y-23500
X47933Y-18441
X47976Y-54810
X47984Y-26650
X48047Y-36500
X48055Y-24492
X48072Y-32990
X48136Y-32276
X48173Y-19409
X48287Y-27520
X48390Y-58402
X48457Y-44780
X48465Y-52709
X48508Y-51366
X48536Y-32665
X48713Y-23396
X48720Y-26650
X48740Y-45663
X48838Y-44617
X48858Y-40539
X48870Y-35150
X48988Y-53831
X49024Y-20693
X49030Y-31220
X49049Y-54986
X49059Y-44272
X49071Y-18256
X49105Y-33005
X49110Y-24693
X49185Y-38142
X49198Y-47885
X49213Y-21362
X49225Y-33381
X49232Y-48278
X49255Y-45898
X49287Y-28484
X49298Y-45506
X49309Y-31499
X49346Y-19697
X49406Y-46760
X49409Y-26618
X49410Y-55149
X49413Y-23396
X49587Y-31172
X49630Y-22197
X49645Y-45064
X49776Y-45437
X49817Y-45994
X49874Y-39339
X49923Y-55427
X49934Y-54533
X50000Y-47409
X50012Y-49326
X50028Y-31710
X50067Y-18587
X50078Y-32268
X50092Y-24186
X50118Y-26618
X50133Y-48131
X50209Y-36571
X50227Y-30740
X50227Y-42026
X50227Y-42421
X50232Y-30134
X50340Y-31118
X50369Y-31512
X50469Y-20646
X50547Y-40602
X50555Y-28835
X50811Y-26606
X50815Y-20063
X50880Y-47705
X50927Y-31548
X51046Y-43206
X51162Y-55189
X51181Y-31013
X51233Y-18413
X51299Y-49307
X51322Y-47359
X51402Y-32441
X51418Y-47922
X51453Y-49996
X51464Y-21524
X51464Y-21918
X51464Y-26579
X51465Y-38126
X51476Y-44343
X51480Y-31711
X51480Y-51583
X51571Y-55171
X51587Y-39122
X51642Y-58193
X51797Y-32431
X51840Y-31873
X51909Y-53882
X51910Y-45864
X51994Y-45455
X52114Y-44812
X52116Y-32156
X52179Y-55002
X52412Y-18625
X52476Y-32957
X52504Y-58146
X52737Y-55008
X52783Y-50831
X52807Y-42366
X52894Y-40331
X52906Y-52606
X53107Y-57410
X53760Y-17634
X53803Y-49661
X54047Y-48240
X54079Y-57571
X54154Y-53815
X54224Y-40650
X54272Y-33429
X54705Y-40217
X54744Y-47626
X55028Y-51299
X55169Y-58661
X55504Y-47030
X55571Y-45658
X55874Y-52646
X55882Y-44563
X55913Y-49378
X55988Y-45495
X56031Y-41264
X56383Y-45495
X56394Y-45101
X56445Y-44020
X56559Y-57638
X56610Y-39382
X56760Y-26937
X56803Y-40791
X56854Y-42291
X56992Y-50587
X57098Y-53787
X57518Y-45658
X57522Y-41854
X58122Y-24236
X58161Y-49165
X58213Y-26488
X58524Y-58661
X58945Y-25232
X59811Y-21713
X60268Y-57654
X61047Y-22193
X61370Y-45965
X61398Y-42642
X61433Y-35756
X61465Y-38303
X61496Y-51161
X61496Y-53114
X61516Y-48606
X61543Y-40783
X61543Y-55146
X61795Y-33988
X61980Y-58614
X62524Y-44217
X62535Y-54457
X62567Y-49882
X63429Y-35870
X63516Y-53185
X63520Y-40862
X63559Y-55256
X63579Y-38146
X63614Y-45992
X63622Y-51161
X63630Y-48500
X63650Y-42661
X63654Y-57437
X63799Y-22409
X63854Y-34311
X66346Y-33874
X68476Y-13941
X69528Y-29748
X69594Y-33583
X70126Y-23102
X70248Y-24996
X70295Y-27850
X70315Y-33965
X70480Y-15386
X70492Y-30579
X70575Y-17839
X70575Y-20331
T3
X40972Y-41476
X40972Y-41976
X40972Y-42476
X40972Y-42976
X41146Y-46142
T4
X41963Y-50209
X41963Y-53209
X42963Y-50209
X42963Y-53209
X43963Y-50209
X43963Y-53209
X44963Y-50209
X44963Y-53209
X45963Y-50209
X45963Y-53209
X46963Y-50209
X46963Y-53209
X47963Y-50209
X47963Y-53209
X48963Y-50209
X48963Y-53209
T5
X32476Y-24791
X32976Y-23925
T6
X64295Y-21325
X66972Y-16561
T7
X32276Y-27191
X32276Y-28191
X32276Y-29191
X32276Y-30191
X32276Y-31191
X32276Y-32191
X32276Y-33191
X32276Y-34191
X34769Y-21069
X35269Y-20203
X35769Y-19337
X36269Y-18471
X36769Y-17605
X37269Y-16739
X37769Y-15873
X38269Y-15007
X39031Y-16888
X39031Y-17888
X40031Y-16888
X40031Y-17888
X40886Y-21254
X41031Y-16888
X41031Y-17888
X41102Y-39593
X41102Y-40593
X41484Y-55906
X41484Y-56906
X41484Y-58268
X41886Y-21254
X42484Y-55906
X42484Y-56906
X42484Y-58268
X43484Y-55906
X43484Y-56906
X43484Y-58268
X44484Y-55906
X44484Y-56906
X44484Y-58268
X44697Y-20229
X44697Y-21229
X45484Y-55906
X45484Y-56906
X45484Y-58268
X46447Y-20229
X46447Y-21229
X46484Y-55906
X46484Y-56906
X47484Y-55906
X47484Y-56906
X48146Y-20229
X48146Y-21229
X48484Y-55906
X48484Y-56906
X49484Y-55906
X49484Y-56906
X49796Y-20229
X49796Y-21229
X50484Y-55906
X50484Y-56906
X51484Y-55906
X51484Y-56906
X52484Y-55906
X52484Y-56906
X53484Y-55906
X53484Y-56906
X54484Y-55906
X54484Y-56906
X55484Y-55906
X55484Y-56906
X56484Y-55906
X56484Y-56906
X57484Y-55906
X57484Y-56906
X58484Y-55906
X58484Y-56906
X59484Y-55906
X59484Y-56906
X60484Y-55906
X60484Y-56906
T8
X56299Y-16466
X56299Y-18238
X60590Y-20994
X60590Y-22766
T9
X65634Y-16561
X65634Y-21325
T10
X33680Y-37921
X33680Y-39890
X33680Y-43039
X33680Y-45008
X33680Y-48157
X33680Y-50126
X33680Y-53276
X33680Y-55244
X34646Y-22600
X34646Y-30600
X35445Y-32713
X35445Y-34681
X42717Y-15394
X44094Y-15394
X46063Y-15394
X47441Y-15394
X49409Y-15394
X50787Y-15394
X52756Y-15394
X54134Y-15394
X64437Y-22974
X64437Y-24352
T11
X55311Y-32579
X55311Y-34744
X56965Y-32579
X56965Y-34744
X58618Y-32579
X58618Y-34744
X60272Y-32579
X60272Y-34744
T12
X64078Y-16876
X67425Y-21010
T13
X57224Y-19616
X60964Y-19616
T14
X63527Y-20281
X64315Y-18648
X67189Y-19238
X67740Y-17604
T15
X57578Y-15640
X59311Y-23592
T16
X69390Y-30699
X69390Y-32668
T17
X39567Y-37114
X39567Y-47350
X39567Y-56406
X62402Y-37114
X62402Y-47350
X62402Y-56406
T4
G00X66614Y-28652
M15
G01X65787Y-28652
M16
G05
G00X66614Y-34715
M15
G01X65787Y-34715
M16
G05
G00X66161Y-30601
M15
G01X66988Y-30601
M16
G05
G00X66161Y-32766
M15
G01X66988Y-32766
M16
G05
G00X67638Y-30699
M15
G01X68465Y-30699
M16
G05
G00X67638Y-32668
M15
G01X68465Y-32668
M16
G05
G00X69961Y-28652
M15
G01X69134Y-28652
M16
G05
G00X69961Y-34715
M15
G01X69134Y-34715
M16
G05
G00X70177Y-32097
M15
G01X70177Y-31270
M16
G05
T7
G00X67649Y-26894
M15
G01X67649Y-26106
M16
G05
G00X69224Y-24650
M15
G01X68437Y-24650
M16
G05
G00X70011Y-26894
M15
G01X70011Y-26106
M16
G05
T0
M30
