G04 #@! TF.GenerationSoftware,KiCad,Pcbnew,(5.1.6-0-10_14)*
G04 #@! TF.CreationDate,2021-12-06T16:22:22+09:00*
G04 #@! TF.ProjectId,qPCR-main,71504352-2d6d-4616-996e-2e6b69636164,rev?*
G04 #@! TF.SameCoordinates,Original*
G04 #@! TF.FileFunction,Soldermask,Top*
G04 #@! TF.FilePolarity,Negative*
%FSLAX46Y46*%
G04 Gerber Fmt 4.6, Leading zero omitted, Abs format (unit mm)*
G04 Created by KiCad (PCBNEW (5.1.6-0-10_14)) date 2021-12-06 16:22:22*
%MOMM*%
%LPD*%
G01*
G04 APERTURE LIST*
%ADD10C,0.475000*%
%ADD11C,0.100000*%
%ADD12R,1.000000X1.250000*%
%ADD13O,1.700000X1.700000*%
%ADD14R,1.700000X1.700000*%
%ADD15R,0.800000X0.750000*%
%ADD16C,2.400000*%
%ADD17O,2.400000X2.400000*%
%ADD18C,2.108200*%
%ADD19C,1.498600*%
%ADD20C,1.701800*%
%ADD21C,2.006600*%
%ADD22R,1.397000X0.889000*%
%ADD23R,0.863600X0.762000*%
%ADD24R,1.320800X0.558800*%
%ADD25R,1.676400X0.355600*%
%ADD26R,1.350000X0.600000*%
%ADD27R,1.350000X0.400000*%
%ADD28R,3.200000X1.000000*%
%ADD29R,0.800000X0.900000*%
%ADD30R,0.750000X0.800000*%
%ADD31R,1.000000X2.500000*%
%ADD32R,1.250000X1.000000*%
%ADD33R,2.300000X2.500000*%
%ADD34R,0.711200X0.678200*%
%ADD35R,0.200000X0.457200*%
%ADD36R,0.499999X0.249999*%
%ADD37R,1.500000X2.500000*%
%ADD38C,0.600000*%
%ADD39R,0.900000X0.500000*%
%ADD40R,0.500000X0.900000*%
%ADD41R,2.400000X2.400000*%
%ADD42R,5.100000X2.100000*%
%ADD43R,5.100000X1.900000*%
%ADD44R,1.570000X0.410000*%
%ADD45R,1.473200X0.355600*%
%ADD46R,1.000000X0.900000*%
%ADD47C,2.000000*%
%ADD48R,3.500000X3.500000*%
%ADD49R,1.060000X0.650000*%
%ADD50R,1.060000X0.400000*%
%ADD51R,1.500000X2.000000*%
%ADD52R,3.800000X2.000000*%
%ADD53R,2.400000X3.000000*%
%ADD54R,0.300000X1.250000*%
%ADD55R,0.508000X0.825500*%
%ADD56R,1.219200X3.098800*%
%ADD57R,0.558800X1.473200*%
%ADD58R,2.500000X1.800000*%
%ADD59C,1.700000*%
%ADD60C,2.700000*%
%ADD61R,0.900000X0.800000*%
%ADD62R,2.400000X1.500000*%
%ADD63R,0.350000X0.650000*%
%ADD64R,1.879600X0.558800*%
%ADD65O,2.201600X4.301600*%
%ADD66R,1.516000X0.457200*%
%ADD67R,3.250000X5.000000*%
%ADD68C,6.000000*%
G04 APERTURE END LIST*
D10*
X159540000Y-137010000D02*
G75*
G03*
X159540000Y-137010000I-400000J0D01*
G01*
X160140000Y-100510000D02*
G75*
G03*
X160140000Y-100510000I-400000J0D01*
G01*
X179240000Y-88610000D02*
G75*
G03*
X179240000Y-88610000I-400000J0D01*
G01*
X178540000Y-40410000D02*
G75*
G03*
X178540000Y-40410000I-400000J0D01*
G01*
X128610000Y-36610000D02*
G75*
G03*
X128610000Y-36610000I-400000J0D01*
G01*
X88300000Y-147500000D02*
G75*
G03*
X88300000Y-147500000I-400000J0D01*
G01*
X92990000Y-45230000D02*
G75*
G03*
X92990000Y-45230000I-400000J0D01*
G01*
D11*
G36*
X137153532Y-114660000D02*
G01*
X137153532Y-115260000D01*
X136653532Y-115260000D01*
X136653532Y-114660000D01*
X137153532Y-114660000D01*
G37*
G36*
X137853532Y-114660000D02*
G01*
X137853532Y-115260000D01*
X137353532Y-115260000D01*
X137353532Y-114660000D01*
X137853532Y-114660000D01*
G37*
G36*
X136453532Y-114660000D02*
G01*
X136453532Y-115260000D01*
X135953532Y-115260000D01*
X135953532Y-114660000D01*
X136453532Y-114660000D01*
G37*
G36*
X137853532Y-113840000D02*
G01*
X137853532Y-114440000D01*
X137353532Y-114440000D01*
X137353532Y-113840000D01*
X137853532Y-113840000D01*
G37*
G36*
X136453532Y-113840000D02*
G01*
X136453532Y-114440000D01*
X135953532Y-114440000D01*
X135953532Y-113840000D01*
X136453532Y-113840000D01*
G37*
G36*
X137153532Y-113840000D02*
G01*
X137153532Y-114440000D01*
X136653532Y-114440000D01*
X136653532Y-113840000D01*
X137153532Y-113840000D01*
G37*
G36*
X137153532Y-112200000D02*
G01*
X137153532Y-112800000D01*
X136653532Y-112800000D01*
X136653532Y-112200000D01*
X137153532Y-112200000D01*
G37*
G36*
X137853532Y-112200000D02*
G01*
X137853532Y-112800000D01*
X137353532Y-112800000D01*
X137353532Y-112200000D01*
X137853532Y-112200000D01*
G37*
G36*
X136453532Y-112200000D02*
G01*
X136453532Y-112800000D01*
X135953532Y-112800000D01*
X135953532Y-112200000D01*
X136453532Y-112200000D01*
G37*
G36*
X137853532Y-113020000D02*
G01*
X137853532Y-113620000D01*
X137353532Y-113620000D01*
X137353532Y-113020000D01*
X137853532Y-113020000D01*
G37*
G36*
X136453532Y-113020000D02*
G01*
X136453532Y-113620000D01*
X135953532Y-113620000D01*
X135953532Y-113020000D01*
X136453532Y-113020000D01*
G37*
G36*
X137153532Y-113020000D02*
G01*
X137153532Y-113620000D01*
X136653532Y-113620000D01*
X136653532Y-113020000D01*
X137153532Y-113020000D01*
G37*
G36*
X160114600Y-54429000D02*
G01*
X164102400Y-54429000D01*
X164102400Y-50111000D01*
X160114600Y-50111000D01*
X160114600Y-54429000D01*
G37*
X160114600Y-54429000D02*
X164102400Y-54429000D01*
X164102400Y-50111000D01*
X160114600Y-50111000D01*
X160114600Y-54429000D01*
D12*
X116880000Y-86140000D03*
X114880000Y-86140000D03*
D11*
G36*
X144280000Y-134119398D02*
G01*
X144255466Y-134119398D01*
X144206635Y-134114588D01*
X144158510Y-134105016D01*
X144111555Y-134090772D01*
X144066222Y-134071995D01*
X144022949Y-134048864D01*
X143982150Y-134021604D01*
X143944221Y-133990476D01*
X143909524Y-133955779D01*
X143878396Y-133917850D01*
X143851136Y-133877051D01*
X143828005Y-133833778D01*
X143809228Y-133788445D01*
X143794984Y-133741490D01*
X143785412Y-133693365D01*
X143780602Y-133644534D01*
X143780602Y-133620000D01*
X143780000Y-133620000D01*
X143780000Y-133120000D01*
X143780602Y-133120000D01*
X143780602Y-133095466D01*
X143785412Y-133046635D01*
X143794984Y-132998510D01*
X143809228Y-132951555D01*
X143828005Y-132906222D01*
X143851136Y-132862949D01*
X143878396Y-132822150D01*
X143909524Y-132784221D01*
X143944221Y-132749524D01*
X143982150Y-132718396D01*
X144022949Y-132691136D01*
X144066222Y-132668005D01*
X144111555Y-132649228D01*
X144158510Y-132634984D01*
X144206635Y-132625412D01*
X144255466Y-132620602D01*
X144280000Y-132620602D01*
X144280000Y-132620000D01*
X144780000Y-132620000D01*
X144780000Y-134120000D01*
X144280000Y-134120000D01*
X144280000Y-134119398D01*
G37*
G36*
X145080000Y-132620000D02*
G01*
X145580000Y-132620000D01*
X145580000Y-132620602D01*
X145604534Y-132620602D01*
X145653365Y-132625412D01*
X145701490Y-132634984D01*
X145748445Y-132649228D01*
X145793778Y-132668005D01*
X145837051Y-132691136D01*
X145877850Y-132718396D01*
X145915779Y-132749524D01*
X145950476Y-132784221D01*
X145981604Y-132822150D01*
X146008864Y-132862949D01*
X146031995Y-132906222D01*
X146050772Y-132951555D01*
X146065016Y-132998510D01*
X146074588Y-133046635D01*
X146079398Y-133095466D01*
X146079398Y-133120000D01*
X146080000Y-133120000D01*
X146080000Y-133620000D01*
X146079398Y-133620000D01*
X146079398Y-133644534D01*
X146074588Y-133693365D01*
X146065016Y-133741490D01*
X146050772Y-133788445D01*
X146031995Y-133833778D01*
X146008864Y-133877051D01*
X145981604Y-133917850D01*
X145950476Y-133955779D01*
X145915779Y-133990476D01*
X145877850Y-134021604D01*
X145837051Y-134048864D01*
X145793778Y-134071995D01*
X145748445Y-134090772D01*
X145701490Y-134105016D01*
X145653365Y-134114588D01*
X145604534Y-134119398D01*
X145580000Y-134119398D01*
X145580000Y-134120000D01*
X145080000Y-134120000D01*
X145080000Y-132620000D01*
G37*
D13*
X158360000Y-89100000D03*
D14*
X160900000Y-89100000D03*
D15*
X104650000Y-75200000D03*
X106150000Y-75200000D03*
D16*
X88800000Y-78200000D03*
D17*
X88800000Y-57880000D03*
D18*
X173290000Y-68850000D03*
D19*
X171340000Y-66200000D03*
D20*
X167940000Y-66200000D03*
D21*
X163990000Y-67000000D03*
D18*
X164590000Y-71500000D03*
X162590000Y-75650000D03*
D19*
X164540000Y-78300000D03*
D20*
X167940000Y-78300000D03*
D21*
X172490000Y-77500000D03*
D18*
X171890000Y-73000000D03*
D22*
X84449300Y-62800000D03*
D23*
X82684000Y-62800000D03*
D24*
X116852200Y-58500000D03*
X114667800Y-59439800D03*
X114667800Y-57560200D03*
X122017200Y-58500000D03*
X119832800Y-59439800D03*
X119832800Y-57560200D03*
X130162800Y-57560200D03*
X130162800Y-59439800D03*
X132347200Y-58500000D03*
X124997800Y-57560200D03*
X124997800Y-59439800D03*
X127182200Y-58500000D03*
D25*
X135219400Y-127295001D03*
X135219400Y-127945002D03*
X135219400Y-128595001D03*
X135219400Y-129245002D03*
X135219400Y-129895001D03*
X135219400Y-130544999D03*
X135219400Y-131195001D03*
X135219400Y-131844999D03*
X129580600Y-131844999D03*
X129580600Y-131194998D03*
X129580600Y-130544999D03*
X129580600Y-129894998D03*
X129580600Y-129244999D03*
X129580600Y-128595001D03*
X129580600Y-127944999D03*
X129580600Y-127295001D03*
D15*
X106790000Y-109680000D03*
X105290000Y-109680000D03*
D26*
X139953532Y-109415000D03*
X133853532Y-109415000D03*
D27*
X139953532Y-110165000D03*
X133853532Y-110165000D03*
X139953532Y-110815000D03*
X133853532Y-110815000D03*
X139953532Y-111465000D03*
X133853532Y-111465000D03*
X139953532Y-112115000D03*
X133853532Y-112115000D03*
X139953532Y-112765000D03*
X133853532Y-112765000D03*
X139953532Y-113415000D03*
X133853532Y-113415000D03*
X139953532Y-114065000D03*
X133853532Y-114065000D03*
X139953532Y-114715000D03*
X133853532Y-114715000D03*
X139953532Y-115365000D03*
X133853532Y-115365000D03*
X139953532Y-116015000D03*
X133853532Y-116015000D03*
X139953532Y-116665000D03*
X133853532Y-116665000D03*
X139953532Y-117315000D03*
X133853532Y-117315000D03*
D26*
X139953532Y-118065000D03*
X133853532Y-118065000D03*
D28*
X93936000Y-82720000D03*
X93936000Y-88920000D03*
D29*
X92926000Y-91450000D03*
X91026000Y-91450000D03*
X91976000Y-93450000D03*
D15*
X111150000Y-85010000D03*
X109650000Y-85010000D03*
D30*
X114290000Y-79890000D03*
X114290000Y-81390000D03*
D31*
X107700000Y-84400000D03*
X104700000Y-84400000D03*
D32*
X116770000Y-84380000D03*
X116770000Y-82380000D03*
D30*
X112670000Y-81220000D03*
X112670000Y-79720000D03*
D31*
X104700000Y-87700000D03*
X107700000Y-87700000D03*
D33*
X83500000Y-65650000D03*
X83500000Y-69950000D03*
X83500000Y-73550000D03*
X83500000Y-77850000D03*
D34*
X101158000Y-79500000D03*
D35*
X99910001Y-78725000D03*
X100310000Y-78725000D03*
X100710000Y-78725000D03*
X101109999Y-78725000D03*
X101109999Y-80275000D03*
X100710000Y-80275000D03*
X100310000Y-80275000D03*
X99910001Y-80275000D03*
D36*
X112380000Y-82220000D03*
X112380000Y-82719999D03*
X112380000Y-83220000D03*
X112380000Y-83720000D03*
X112380000Y-84220001D03*
X112380000Y-84720000D03*
X115280000Y-84720000D03*
X115280000Y-84220001D03*
X115280000Y-83720000D03*
X115280000Y-83220000D03*
X115280000Y-82719999D03*
X115280000Y-82220000D03*
D37*
X113830000Y-83470000D03*
D38*
X113830000Y-82469999D03*
X114430000Y-83470000D03*
X113830000Y-84470001D03*
X113330001Y-83470000D03*
D15*
X99660000Y-81570000D03*
X101160000Y-81570000D03*
D32*
X97690000Y-83520000D03*
X97690000Y-81520000D03*
D31*
X95510000Y-144040000D03*
X92510000Y-144040000D03*
D30*
X102560000Y-80340000D03*
X102560000Y-78840000D03*
D14*
X105370000Y-148000000D03*
D13*
X107910000Y-148000000D03*
X110450000Y-148000000D03*
X112990000Y-148000000D03*
X115530000Y-148000000D03*
D29*
X91976000Y-106450000D03*
X91026000Y-104450000D03*
X92926000Y-104450000D03*
X93936000Y-80450000D03*
X92986000Y-78450000D03*
X94886000Y-78450000D03*
X91976000Y-132450000D03*
X91026000Y-130450000D03*
X92926000Y-130450000D03*
X92926000Y-117450000D03*
X91026000Y-117450000D03*
X91976000Y-119450000D03*
D31*
X104700000Y-81100000D03*
X107700000Y-81100000D03*
D28*
X93936000Y-101920000D03*
X93936000Y-95720000D03*
D39*
X101320000Y-77580000D03*
X101320000Y-76080000D03*
X102870000Y-76070000D03*
X102870000Y-77570000D03*
D40*
X111150000Y-81980000D03*
X109650000Y-81980000D03*
D28*
X93936000Y-134720000D03*
X93936000Y-140920000D03*
X93936000Y-127920000D03*
X93936000Y-121720000D03*
X93936000Y-108720000D03*
X93936000Y-114920000D03*
D40*
X109250000Y-83540000D03*
X110750000Y-83540000D03*
D28*
X93620000Y-70460000D03*
X93620000Y-64260000D03*
D11*
G36*
X92760000Y-61925000D02*
G01*
X92010000Y-61425000D01*
X92010000Y-60425000D01*
X93510000Y-60425000D01*
X93510000Y-61425000D01*
X92760000Y-61925000D01*
G37*
G36*
X92010000Y-62875000D02*
G01*
X92010000Y-61725000D01*
X92760000Y-62225000D01*
X93510000Y-61725000D01*
X93510000Y-62875000D01*
X92010000Y-62875000D01*
G37*
G36*
X94300000Y-62875000D02*
G01*
X94300000Y-61725000D01*
X95050000Y-62225000D01*
X95800000Y-61725000D01*
X95800000Y-62875000D01*
X94300000Y-62875000D01*
G37*
G36*
X95050000Y-61925000D02*
G01*
X94300000Y-61425000D01*
X94300000Y-60425000D01*
X95800000Y-60425000D01*
X95800000Y-61425000D01*
X95050000Y-61925000D01*
G37*
D14*
X109476000Y-126380000D03*
X93600000Y-72900000D03*
D13*
X93600000Y-75440000D03*
D40*
X105290000Y-135468000D03*
X106790000Y-135468000D03*
D12*
X114152000Y-135468000D03*
X112152000Y-135468000D03*
D13*
X96625490Y-40870000D03*
D14*
X96625490Y-43410000D03*
X112625490Y-43410000D03*
D13*
X112625490Y-40870000D03*
D14*
X108625490Y-43410000D03*
D13*
X108625490Y-40870000D03*
X104625490Y-40870000D03*
D14*
X104625490Y-43410000D03*
D13*
X100625490Y-40870000D03*
D14*
X100625490Y-43410000D03*
D41*
X85546000Y-88320000D03*
D16*
X85546000Y-83320000D03*
X85546000Y-96320000D03*
D41*
X85546000Y-101320000D03*
X85546000Y-114320000D03*
D16*
X85546000Y-109320000D03*
D41*
X85546000Y-127320000D03*
D16*
X85546000Y-122320000D03*
X85546000Y-135320000D03*
D41*
X85546000Y-140320000D03*
D42*
X100500000Y-85300000D03*
D43*
X100500000Y-89500000D03*
D12*
X110596000Y-135468000D03*
X108596000Y-135468000D03*
D15*
X98450000Y-70500000D03*
X99950000Y-70500000D03*
D12*
X100200000Y-72200000D03*
X98200000Y-72200000D03*
D30*
X99870000Y-75930000D03*
X99870000Y-77430000D03*
D31*
X92530000Y-147530000D03*
X95530000Y-147530000D03*
D12*
X100200000Y-74200000D03*
X98200000Y-74200000D03*
D44*
X122730000Y-128425000D03*
X122730000Y-129075000D03*
X122730000Y-129725000D03*
X122730000Y-130375000D03*
X122730000Y-131025000D03*
X122730000Y-131675000D03*
X122730000Y-132325000D03*
X122730000Y-132975000D03*
X116990000Y-132975000D03*
X116990000Y-132325000D03*
X116990000Y-131675000D03*
X116990000Y-131025000D03*
X116990000Y-130375000D03*
X116990000Y-129725000D03*
X116990000Y-129075000D03*
X116990000Y-128425000D03*
D45*
X114399400Y-128425001D03*
X114399400Y-129075002D03*
X114399400Y-129725001D03*
X114399400Y-130375002D03*
X114399400Y-131025001D03*
X114399400Y-131674999D03*
X114399400Y-132325001D03*
X114399400Y-132974999D03*
X108760600Y-132974999D03*
X108760600Y-132324998D03*
X108760600Y-131674999D03*
X108760600Y-131024998D03*
X108760600Y-130374999D03*
X108760600Y-129725001D03*
X108760600Y-129074999D03*
X108760600Y-128425001D03*
D40*
X105290000Y-133436000D03*
X106790000Y-133436000D03*
D15*
X105290000Y-129118000D03*
X106790000Y-129118000D03*
D46*
X105227500Y-131822500D03*
X106852500Y-131822500D03*
X106852500Y-130597500D03*
X105227500Y-130597500D03*
D47*
X120400000Y-52930000D03*
X123900000Y-52930000D03*
X140900000Y-52930000D03*
X137400000Y-52930000D03*
X128900000Y-52930000D03*
X132400000Y-52930000D03*
G36*
G01*
X176579000Y-48976200D02*
X176579000Y-50726200D01*
G75*
G02*
X175704000Y-51601200I-875000J0D01*
G01*
X173954000Y-51601200D01*
G75*
G02*
X173079000Y-50726200I0J875000D01*
G01*
X173079000Y-48976200D01*
G75*
G02*
X173954000Y-48101200I875000J0D01*
G01*
X175704000Y-48101200D01*
G75*
G02*
X176579000Y-48976200I0J-875000D01*
G01*
G37*
G36*
G01*
X179329000Y-53551200D02*
X179329000Y-55551200D01*
G75*
G02*
X178579000Y-56301200I-750000J0D01*
G01*
X177079000Y-56301200D01*
G75*
G02*
X176329000Y-55551200I0J750000D01*
G01*
X176329000Y-53551200D01*
G75*
G02*
X177079000Y-52801200I750000J0D01*
G01*
X178579000Y-52801200D01*
G75*
G02*
X179329000Y-53551200I0J-750000D01*
G01*
G37*
D48*
X171829000Y-54551200D03*
D14*
X123150000Y-148000000D03*
X125690000Y-148000000D03*
X128230000Y-148000000D03*
X130770000Y-148000000D03*
X133310000Y-148000000D03*
X135850000Y-148000000D03*
X138390000Y-148000000D03*
X120625490Y-43410000D03*
D13*
X120625490Y-40870000D03*
D14*
X116625490Y-43410000D03*
D13*
X116625490Y-40870000D03*
D49*
X104940000Y-125160000D03*
X104940000Y-123260000D03*
X107140000Y-123260000D03*
X107140000Y-124210000D03*
X107140000Y-125160000D03*
D50*
X104940000Y-119180000D03*
X104940000Y-119830000D03*
X104940000Y-120490000D03*
X104940000Y-121140000D03*
X107140000Y-121140000D03*
X107140000Y-120490000D03*
X107140000Y-119830000D03*
X107140000Y-119180000D03*
X124700000Y-131680000D03*
X124700000Y-131030000D03*
X124700000Y-130370000D03*
X124700000Y-129720000D03*
X126900000Y-129720000D03*
X126900000Y-130370000D03*
X126900000Y-131030000D03*
X126900000Y-131680000D03*
D51*
X105400000Y-64250000D03*
X100800000Y-64250000D03*
X103100000Y-64250000D03*
D52*
X103100000Y-70550000D03*
D53*
X107720000Y-102015000D03*
X140820000Y-102015000D03*
D54*
X109520000Y-104340000D03*
X110020000Y-104340000D03*
X110520000Y-104340000D03*
X111020000Y-104340000D03*
X111520000Y-104340000D03*
X112020000Y-104340000D03*
X112520000Y-104340000D03*
X113020000Y-104340000D03*
X113520000Y-104340000D03*
X114020000Y-104340000D03*
X114520000Y-104340000D03*
X115020000Y-104340000D03*
X115520000Y-104340000D03*
X116020000Y-104340000D03*
X116520000Y-104340000D03*
X117020000Y-104340000D03*
X117520000Y-104340000D03*
X118020000Y-104340000D03*
X118520000Y-104340000D03*
X119020000Y-104340000D03*
X119520000Y-104340000D03*
X120020000Y-104340000D03*
X120520000Y-104340000D03*
X121020000Y-104340000D03*
X121520000Y-104340000D03*
X122020000Y-104340000D03*
X122520000Y-104340000D03*
X123020000Y-104340000D03*
X123520000Y-104340000D03*
X124020000Y-104340000D03*
X124520000Y-104340000D03*
X125020000Y-104340000D03*
X125520000Y-104340000D03*
X126020000Y-104340000D03*
X126520000Y-104340000D03*
X127020000Y-104340000D03*
X127520000Y-104340000D03*
X128020000Y-104340000D03*
X128520000Y-104340000D03*
X129020000Y-104340000D03*
X129520000Y-104340000D03*
X130020000Y-104340000D03*
X130520000Y-104340000D03*
X131020000Y-104340000D03*
X131520000Y-104340000D03*
X132020000Y-104340000D03*
X132520000Y-104340000D03*
X133020000Y-104340000D03*
X133520000Y-104340000D03*
X134020000Y-104340000D03*
X134520000Y-104340000D03*
X135020000Y-104340000D03*
X135520000Y-104340000D03*
X136020000Y-104340000D03*
X136520000Y-104340000D03*
X137020000Y-104340000D03*
X137520000Y-104340000D03*
X138020000Y-104340000D03*
X138520000Y-104340000D03*
X139020000Y-104340000D03*
D14*
X104810000Y-105910000D03*
X104810000Y-103370000D03*
X104810000Y-100830000D03*
D55*
X133957500Y-132976350D03*
X135862500Y-132976350D03*
X135849800Y-135503650D03*
X134910000Y-135503650D03*
X133970200Y-135503650D03*
D56*
X103700000Y-53647300D03*
X103700000Y-58752700D03*
D15*
X120820000Y-135440000D03*
X119320000Y-135440000D03*
X117700000Y-135480000D03*
X116200000Y-135480000D03*
X105290000Y-107902000D03*
X106790000Y-107902000D03*
X106790000Y-116792000D03*
X105290000Y-116792000D03*
X138100000Y-125410000D03*
X139600000Y-125410000D03*
X140480000Y-106720000D03*
X138980000Y-106720000D03*
D12*
X138060000Y-130360000D03*
X140060000Y-130360000D03*
D31*
X98700000Y-61400000D03*
X101700000Y-61400000D03*
D15*
X138310000Y-131884000D03*
X139810000Y-131884000D03*
X103650000Y-61700000D03*
X105150000Y-61700000D03*
X138310000Y-133408000D03*
X139810000Y-133408000D03*
D31*
X107700000Y-77800000D03*
X104700000Y-77800000D03*
D15*
X138310000Y-135440000D03*
X139810000Y-135440000D03*
D39*
X128516000Y-71880000D03*
X128516000Y-70380000D03*
X130294000Y-70380000D03*
X130294000Y-71880000D03*
X128516000Y-67850000D03*
X128516000Y-66350000D03*
X130294000Y-66350000D03*
X130294000Y-67850000D03*
X126738000Y-66350000D03*
X126738000Y-67850000D03*
X133850000Y-70380000D03*
X133850000Y-71880000D03*
X132072000Y-70380000D03*
X132072000Y-71880000D03*
X133850000Y-66350000D03*
X133850000Y-67850000D03*
X132072000Y-66350000D03*
X132072000Y-67850000D03*
D40*
X105290000Y-127340000D03*
X106790000Y-127340000D03*
X106790000Y-113236000D03*
X105290000Y-113236000D03*
X105290000Y-111458000D03*
X106790000Y-111458000D03*
X106790000Y-115014000D03*
X105290000Y-115014000D03*
X135060000Y-125410000D03*
X133560000Y-125410000D03*
X122720000Y-135440000D03*
X124220000Y-135440000D03*
X125880000Y-135440000D03*
X127380000Y-135440000D03*
D39*
X124960000Y-66350000D03*
X124960000Y-67850000D03*
D40*
X122040000Y-67100000D03*
X123540000Y-67100000D03*
D57*
X133569999Y-121016200D03*
X135470001Y-121016200D03*
X135470001Y-123403800D03*
X134520000Y-123403800D03*
X133569999Y-123403800D03*
D14*
X112016000Y-126380000D03*
X114556000Y-126380000D03*
D58*
X152510000Y-88646000D03*
X148510000Y-88646000D03*
X148510000Y-92456000D03*
X152510000Y-92456000D03*
D47*
X172050000Y-86890000D03*
X172050000Y-83390000D03*
X155360000Y-74610000D03*
D59*
X154410000Y-78110000D03*
X154410000Y-82610000D03*
D60*
X151160000Y-84710000D03*
D47*
X145860000Y-74610000D03*
D59*
X143510000Y-71110000D03*
X143510000Y-66610000D03*
D60*
X146760000Y-64510000D03*
D61*
X145910000Y-89596000D03*
X145910000Y-87696000D03*
X143910000Y-88646000D03*
X143910000Y-92456000D03*
X145910000Y-91506000D03*
X145910000Y-93406000D03*
D40*
X140550000Y-88646000D03*
X142050000Y-88646000D03*
X140550000Y-92456000D03*
X142050000Y-92456000D03*
D62*
X139060000Y-122210000D03*
D63*
X140035000Y-123760000D03*
X139385000Y-123760000D03*
X138734999Y-123760000D03*
X138085001Y-123760000D03*
X138085001Y-120660000D03*
X138734999Y-120660000D03*
X139385000Y-120660000D03*
X140035000Y-120660000D03*
D64*
X121392900Y-109825000D03*
X121392900Y-111095000D03*
X121392900Y-112365000D03*
X121392900Y-113635000D03*
X121392900Y-114905000D03*
X121392900Y-116175000D03*
X121392900Y-117445000D03*
X121392900Y-118715000D03*
X121392900Y-119985000D03*
X121392900Y-121255000D03*
X121392900Y-122525000D03*
X121392900Y-123795000D03*
X130867100Y-123795000D03*
X130867100Y-122525000D03*
X130867100Y-121255000D03*
X130867100Y-119985000D03*
X130867100Y-118715000D03*
X130867100Y-117445000D03*
X130867100Y-116175000D03*
X130867100Y-114905000D03*
X130867100Y-113635000D03*
X130867100Y-112365000D03*
X130867100Y-111095000D03*
X130867100Y-109825000D03*
X109474900Y-109825000D03*
X109474900Y-111095000D03*
X109474900Y-112365000D03*
X109474900Y-113635000D03*
X109474900Y-114905000D03*
X109474900Y-116175000D03*
X109474900Y-117445000D03*
X109474900Y-118715000D03*
X109474900Y-119985000D03*
X109474900Y-121255000D03*
X109474900Y-122525000D03*
X109474900Y-123795000D03*
X118949100Y-123795000D03*
X118949100Y-122525000D03*
X118949100Y-121255000D03*
X118949100Y-119985000D03*
X118949100Y-118715000D03*
X118949100Y-117445000D03*
X118949100Y-116175000D03*
X118949100Y-114905000D03*
X118949100Y-113635000D03*
X118949100Y-112365000D03*
X118949100Y-111095000D03*
X118949100Y-109825000D03*
D12*
X131160000Y-135320000D03*
X129160000Y-135320000D03*
D65*
X171580000Y-40746400D03*
X167380000Y-40746400D03*
X171580000Y-46246400D03*
X163180000Y-40746400D03*
X158980000Y-40746400D03*
X154780000Y-40746400D03*
X150580000Y-40746400D03*
X146380000Y-40746400D03*
X142180000Y-40746400D03*
X137980000Y-40746400D03*
X133780000Y-40746400D03*
X129580000Y-40746400D03*
X125380000Y-40746400D03*
X167380000Y-46246400D03*
X163180000Y-46246400D03*
X158980000Y-46246400D03*
X154780000Y-46246400D03*
X150580000Y-46246400D03*
X146380000Y-46246400D03*
X142180000Y-46246400D03*
X137980000Y-46246400D03*
X133780000Y-46246400D03*
X129580000Y-46246400D03*
X125380000Y-46246400D03*
D23*
X159674000Y-57840000D03*
D22*
X161439300Y-57840000D03*
D66*
X159509000Y-54175000D03*
X159509000Y-52905000D03*
X159509000Y-51635000D03*
X159509000Y-50365000D03*
X165851000Y-50365000D03*
X165851000Y-51635000D03*
X165851000Y-52905000D03*
X165851000Y-54175000D03*
D31*
X164490000Y-57840000D03*
X167490000Y-57840000D03*
X141910000Y-58530000D03*
X138910000Y-58530000D03*
D39*
X135628000Y-70380000D03*
X135628000Y-71880000D03*
X135628000Y-67850000D03*
X135628000Y-66350000D03*
D67*
X156595000Y-55830000D03*
X145345000Y-55830000D03*
D47*
X115400000Y-52930000D03*
X111900000Y-52930000D03*
D68*
X158500000Y-143270000D03*
X100500000Y-94270000D03*
X158500000Y-94270000D03*
X100500000Y-143270000D03*
D13*
X153630000Y-144540000D03*
X153630000Y-142000000D03*
X135850000Y-144540000D03*
X135850000Y-142000000D03*
X130770000Y-144540000D03*
X130770000Y-142000000D03*
X140930000Y-144540000D03*
X140930000Y-142000000D03*
X112990000Y-144540000D03*
X112990000Y-142000000D03*
X143470000Y-144540000D03*
X143470000Y-142000000D03*
X125690000Y-144540000D03*
X125690000Y-142000000D03*
X148550000Y-144540000D03*
X148550000Y-142000000D03*
X146010000Y-144540000D03*
X146010000Y-142000000D03*
X151090000Y-144540000D03*
X151090000Y-142000000D03*
X128230000Y-144540000D03*
X128230000Y-142000000D03*
X115530000Y-144540000D03*
X115530000Y-142000000D03*
X120610000Y-144540000D03*
X120610000Y-142000000D03*
X138390000Y-144540000D03*
X138390000Y-142000000D03*
X118070000Y-144540000D03*
X118070000Y-142000000D03*
X133310000Y-144540000D03*
X133310000Y-142000000D03*
D14*
X105370000Y-142000000D03*
D13*
X105370000Y-144540000D03*
X110450000Y-142000000D03*
X107910000Y-144540000D03*
X123150000Y-144540000D03*
X123150000Y-142000000D03*
X107910000Y-142000000D03*
X110450000Y-144540000D03*
D68*
X100500000Y-120270000D03*
X158500000Y-120270000D03*
M02*
