M48
; DRILL file {KiCad (5.1.6-0-10_14)} date Tuesday, August 11, 2020 at 10:06:10 AM
; FORMAT={-:-/ absolute / inch / decimal}
; #@! TF.CreationDate,2020-08-11T10:06:10+09:00
; #@! TF.GenerationSoftware,Kicad,Pcbnew,(5.1.6-0-10_14)
FMAT,2
INCH
T1C0.0157
T2C0.0394
%
G90
G05
T1
X4.378Y-3.8465
X4.378Y-4.0866
X4.3858Y-3.9803
X4.4488Y-3.8976
X4.4488Y-4.0551
X4.5197Y-3.8465
X4.5276Y-3.9764
X4.5276Y-4.0945
X4.5551Y-4.3622
X4.5787Y-4.0433
X4.626Y-4.3622
X4.6654Y-4.0787
X4.7047Y-4.0945
X4.7126Y-3.9882
X4.7165Y-4.3622
X4.8031Y-4.1732
X4.8031Y-4.2717
X4.8898Y-4.3622
X4.9016Y-4.0945
X5.0197Y-4.0984
X5.0591Y-4.1142
X5.0709Y-4.3622
X5.1575Y-4.1732
X5.1575Y-4.2717
X5.2441Y-4.3622
X5.2559Y-4.1142
X5.3346Y-4.3622
X5.374Y-4.1142
X5.4134Y-4.1339
X5.4252Y-4.3661
X5.5118Y-4.1732
X5.5118Y-4.2717
X5.5984Y-4.3622
X5.6102Y-4.1339
X5.689Y-4.3622
X5.7283Y-4.1319
X5.7795Y-4.3622
X5.7874Y-4.1496
X5.8661Y-4.1929
X5.8661Y-4.2717
X5.9449Y-4.1457
X5.9528Y-4.3661
X6.0433Y-4.3661
X6.0827Y-4.1496
X6.1339Y-4.3622
X6.1417Y-4.1614
X6.2205Y-4.1929
X6.2205Y-4.2717
X6.2913Y-4.1732
X6.3071Y-4.3622
X6.3976Y-4.3622
X6.4882Y-4.3622
X6.5079Y-4.1929
X6.5748Y-4.2717
X6.5787Y-4.189
X6.6378Y-4.1929
X6.6614Y-4.3622
X6.752Y-4.3622
X6.8425Y-4.3622
X6.8504Y-4.2323
X6.878Y-4.1929
X6.9291Y-4.2717
X6.9961Y-4.2008
X7.0157Y-4.3622
X7.1063Y-4.3622
X7.126Y-4.1299
X7.1772Y-4.1299
X7.1772Y-4.3622
X7.2047Y-3.8583
X7.2402Y-3.7598
X7.3031Y-3.7992
X7.3425Y-3.8583
X7.3465Y-3.7362
X7.4213Y-3.7795
X7.4606Y-3.8583
X7.4803Y-4.0748
X7.4921Y-3.6929
X7.5197Y-3.7795
X7.5591Y-3.8583
X7.5984Y-3.7598
X7.6378Y-4.0827
X7.6575Y-3.8189
X7.6614Y-3.6614
X7.7087Y-3.8346
X7.7362Y-3.7008
X7.7953Y-3.8386
X7.8031Y-3.7598
X7.874Y-3.7402
X7.9094Y-3.8425
X7.9173Y-3.7008
T2
X7.2022Y-3.522
X7.2022Y-3.622
X7.3022Y-3.522
X7.3022Y-3.622
X7.4022Y-3.522
X7.4022Y-3.622
X7.5022Y-3.522
X7.5022Y-3.622
X7.6022Y-3.522
X7.6022Y-3.622
X7.2022Y-3.9157
X7.2022Y-4.0157
X7.3022Y-3.9157
X7.3022Y-4.0157
X7.4022Y-3.9157
X7.4022Y-4.0157
X7.5022Y-3.9157
X7.5022Y-4.0157
X7.6022Y-3.9157
X7.6022Y-4.0157
T0
M30
