G04 #@! TF.GenerationSoftware,KiCad,Pcbnew,(5.1.6-0-10_14)*
G04 #@! TF.CreationDate,2020-08-07T14:48:58+09:00*
G04 #@! TF.ProjectId,con_lid_1x8,636f6e5f-6c69-4645-9f31-78382e6b6963,rev?*
G04 #@! TF.SameCoordinates,Original*
G04 #@! TF.FileFunction,Copper,L2,Bot*
G04 #@! TF.FilePolarity,Positive*
%FSLAX46Y46*%
G04 Gerber Fmt 4.6, Leading zero omitted, Abs format (unit mm)*
G04 Created by KiCad (PCBNEW (5.1.6-0-10_14)) date 2020-08-07 14:48:58*
%MOMM*%
%LPD*%
G01*
G04 APERTURE LIST*
G04 #@! TA.AperFunction,ComponentPad*
%ADD10R,1.700000X1.700000*%
G04 #@! TD*
G04 #@! TA.AperFunction,ComponentPad*
%ADD11O,1.700000X1.700000*%
G04 #@! TD*
G04 #@! TA.AperFunction,ComponentPad*
%ADD12C,2.000000*%
G04 #@! TD*
G04 #@! TA.AperFunction,Conductor*
%ADD13C,0.250000*%
G04 #@! TD*
G04 APERTURE END LIST*
D10*
G04 #@! TO.P,T1,1*
G04 #@! TO.N,THERM1*
X113730000Y-77820000D03*
D11*
G04 #@! TO.P,T1,2*
G04 #@! TO.N,THERM_GND*
X113730000Y-75280000D03*
G04 #@! TD*
G04 #@! TO.P,T2,2*
G04 #@! TO.N,THERM_GND*
X113730000Y-81630000D03*
D10*
G04 #@! TO.P,T2,1*
G04 #@! TO.N,THERM2*
X113730000Y-84170000D03*
G04 #@! TD*
G04 #@! TO.P,T3,1*
G04 #@! TO.N,THERM3*
X113730000Y-104790000D03*
D11*
G04 #@! TO.P,T3,2*
G04 #@! TO.N,THERM_GND*
X113730000Y-102250000D03*
G04 #@! TD*
G04 #@! TO.P,T4,2*
G04 #@! TO.N,THERM_GND*
X113730000Y-109870000D03*
D10*
G04 #@! TO.P,T4,1*
G04 #@! TO.N,THERM4*
X113730000Y-112410000D03*
G04 #@! TD*
D11*
G04 #@! TO.P,U1,10*
G04 #@! TO.N,HEATER2B*
X139780000Y-98080000D03*
G04 #@! TO.P,U1,9*
G04 #@! TO.N,HEATER2A*
X137240000Y-98080000D03*
G04 #@! TO.P,U1,8*
G04 #@! TO.N,THERM4*
X139780000Y-95540000D03*
G04 #@! TO.P,U1,7*
G04 #@! TO.N,THERM3*
X137240000Y-95540000D03*
G04 #@! TO.P,U1,6*
G04 #@! TO.N,THERM_GND*
X139780000Y-93000000D03*
G04 #@! TO.P,U1,5*
G04 #@! TO.N,THERM2*
X137240000Y-93000000D03*
G04 #@! TO.P,U1,4*
G04 #@! TO.N,THERM1*
X139780000Y-90460000D03*
G04 #@! TO.P,U1,3*
G04 #@! TO.N,AIR*
X137240000Y-90460000D03*
G04 #@! TO.P,U1,2*
G04 #@! TO.N,HEATER1B*
X139780000Y-87920000D03*
D10*
G04 #@! TO.P,U1,1*
G04 #@! TO.N,HEATER1A*
X137240000Y-87920000D03*
G04 #@! TD*
D12*
G04 #@! TO.P,H1,1*
G04 #@! TO.N,HEATER1A*
X128000000Y-82000000D03*
G04 #@! TO.P,H1,2*
G04 #@! TO.N,HEATER1B*
X128000000Y-85500000D03*
G04 #@! TD*
G04 #@! TO.P,H2,2*
G04 #@! TO.N,HEATER2B*
X128000000Y-104000000D03*
G04 #@! TO.P,H2,1*
G04 #@! TO.N,HEATER2A*
X128000000Y-100500000D03*
G04 #@! TD*
D11*
G04 #@! TO.P,TAIR1,2*
G04 #@! TO.N,THERM_GND*
X132000000Y-91460000D03*
D10*
G04 #@! TO.P,TAIR1,1*
G04 #@! TO.N,AIR*
X132000000Y-94000000D03*
G04 #@! TD*
D13*
G04 #@! TO.N,THERM_GND*
X113730000Y-75534998D02*
X113730000Y-75280000D01*
G04 #@! TO.N,AIR*
X135540000Y-90460000D02*
X132000000Y-94000000D01*
X137240000Y-90460000D02*
X135540000Y-90460000D01*
G04 #@! TO.N,THERM1*
X124094999Y-89284999D02*
X138604999Y-89284999D01*
X138604999Y-89284999D02*
X139780000Y-90460000D01*
X113730000Y-78920000D02*
X124094999Y-89284999D01*
X113730000Y-77820000D02*
X113730000Y-78920000D01*
G04 #@! TO.N,THERM2*
X113730000Y-84170000D02*
X118343590Y-84170000D01*
X135064999Y-95175001D02*
X129348591Y-95175001D01*
X137240000Y-93000000D02*
X135064999Y-95175001D01*
X129348591Y-95175001D02*
X118343590Y-84170000D01*
G04 #@! TO.N,THERM3*
X137240000Y-95540000D02*
X137154989Y-95625011D01*
X137154989Y-95625011D02*
X126874989Y-95625011D01*
X117710000Y-104790000D02*
X113730000Y-104790000D01*
X126874989Y-95625011D02*
X117710000Y-104790000D01*
G04 #@! TO.N,THERM4*
X116636410Y-106500000D02*
X116636410Y-109503590D01*
X127061389Y-96075021D02*
X116636410Y-106500000D01*
X116636410Y-109503590D02*
X113730000Y-112410000D01*
X135075021Y-96075021D02*
X127061389Y-96075021D01*
X138604999Y-96715001D02*
X135715001Y-96715001D01*
X135715001Y-96715001D02*
X135075021Y-96075021D01*
X139780000Y-95540000D02*
X138604999Y-96715001D01*
G04 #@! TD*
M02*
