M48
INCH,TZ
T1C0.0157
T2C0.0390
T3C0.0394
T4C0.0433
T5C0.0470
T6C0.0472
T7C0.0590
T8C0.0591
T9C0.0630
T10C0.0748
%
G90
G05
T1
X64418Y-48556
X64725Y-28959
X64741Y-30924
X64757Y-26892
X64816Y-36920
X64839Y-39325
X65662Y-30054
X65741Y-28002
X66509Y-28943
X66587Y-26987
X66749Y-31022
X66914Y-37002
X67186Y-39290
X67524Y-35664
X67552Y-34699
X68048Y-28006
X68320Y-38203
X68595Y-35896
X68611Y-35160
X69099Y-39372
X69198Y-28022
X69646Y-35081
X69910Y-28959
X69910Y-29648
X69910Y-29648
X70274Y-28221
X70339Y-48520
X70402Y-31518
X71060Y-38620
X71418Y-39459
X71741Y-28152
X71780Y-29550
X72115Y-31744
X72202Y-49131
X72863Y-38876
X72873Y-31144
X73119Y-31510
X73119Y-32951
X73454Y-27581
X73950Y-38506
X74044Y-26991
X74044Y-28369
X74131Y-39487
T2
X37835Y-49178
X40513Y-44414
T3
X57694Y-45300
X57694Y-46300
X57694Y-47300
X57694Y-48300
X57694Y-49300
X57694Y-50300
X49300Y-27400
X49300Y-28400
X49300Y-29400
X49300Y-30400
X49300Y-31400
X49300Y-32400
X49300Y-33400
X49300Y-34400
X49300Y-35400
X49300Y-36400
X74556Y-46297
X74556Y-47297
X74556Y-48297
X74556Y-49297
X74556Y-50297
X67503Y-27168
X68503Y-27168
X49694Y-43300
X49694Y-44300
X49694Y-45300
X49694Y-46300
X49694Y-47300
X49694Y-48300
X49694Y-49300
X49694Y-50300
X57300Y-27400
X57300Y-28400
X57300Y-29400
X57300Y-30400
X57300Y-31400
X57300Y-32400
X57300Y-33400
X57300Y-34400
X57300Y-35400
X57300Y-36400
X57300Y-37400
X57300Y-38400
X67509Y-28939
X67509Y-29939
X67509Y-30939
X40300Y-35400
X41300Y-35400
X42300Y-35400
X43300Y-35400
X37194Y-43300
X38194Y-43300
X39194Y-43300
X40194Y-43300
X41194Y-43300
X62300Y-27400
X62300Y-28400
X62300Y-29400
X62300Y-30400
X62300Y-31400
X62300Y-32400
X62300Y-33400
X62300Y-34400
X62300Y-35400
X62300Y-36400
X62300Y-37400
X62300Y-38400
X44694Y-43300
X44694Y-44300
X44694Y-45300
X44694Y-46300
X44694Y-47300
X44694Y-48300
X44694Y-49300
X44694Y-50300
X37194Y-50300
X38194Y-50300
X39194Y-50300
X40194Y-50300
X41194Y-50300
X70154Y-27168
X71154Y-27168
X72154Y-27168
X66694Y-45300
X66694Y-46300
X66694Y-47300
X66694Y-48300
X66694Y-49300
X66694Y-50300
X68946Y-28928
X68946Y-29928
X68946Y-30928
X52694Y-45300
X52694Y-46300
X52694Y-47300
X52694Y-48300
X52694Y-49300
X52694Y-50300
X60694Y-45300
X60694Y-46300
X60694Y-47300
X60694Y-48300
X60694Y-49300
X60694Y-50300
X40300Y-27400
X41300Y-27400
X42300Y-27400
X43300Y-27400
X54300Y-27400
X54300Y-28400
X54300Y-29400
X54300Y-30400
X54300Y-31400
X54300Y-32400
X54300Y-33400
X54300Y-34400
X54300Y-35400
X54300Y-36400
T4
X38867Y-33467
X40639Y-33467
X43394Y-29176
X45166Y-29176
T5
X39174Y-44414
X39174Y-49178
T6
X73414Y-28998
X73414Y-30376
T7
X37619Y-44729
X40965Y-48863
T8
X42017Y-28802
X42017Y-32542
T9
X37068Y-48135
X37855Y-46501
X40729Y-47091
X41280Y-45457
T10
X38040Y-32187
X45993Y-30455
T3
G00X65851Y-35699
M15
G01X66639Y-35699
M16
G05
G00X65851Y-38061
M15
G01X66639Y-38061
M16
G05
G00X68095Y-37274
M15
G01X68095Y-36487
M16
G05
T0
M30
