G04 #@! TF.GenerationSoftware,KiCad,Pcbnew,(5.1.6-0-10_14)*
G04 #@! TF.CreationDate,2021-08-31T11:45:36+09:00*
G04 #@! TF.ProjectId,qPCR-panel_v_20210831,71504352-2d70-4616-9e65-6c5f765f3230,rev?*
G04 #@! TF.SameCoordinates,Original*
G04 #@! TF.FileFunction,Soldermask,Bot*
G04 #@! TF.FilePolarity,Negative*
%FSLAX46Y46*%
G04 Gerber Fmt 4.6, Leading zero omitted, Abs format (unit mm)*
G04 Created by KiCad (PCBNEW (5.1.6-0-10_14)) date 2021-08-31 11:45:36*
%MOMM*%
%LPD*%
G01*
G04 APERTURE LIST*
%ADD10O,1.700000X1.700000*%
%ADD11R,1.700000X1.700000*%
%ADD12R,3.500000X3.500000*%
%ADD13C,0.499999*%
G04 APERTURE END LIST*
D10*
X118710000Y-141440000D03*
X121250000Y-141440000D03*
X118710000Y-138900000D03*
X121250000Y-138900000D03*
X118710000Y-136360000D03*
X121250000Y-136360000D03*
X118710000Y-133820000D03*
X121250000Y-133820000D03*
X118710000Y-131280000D03*
X121250000Y-131280000D03*
X118710000Y-128740000D03*
X121250000Y-128740000D03*
X118710000Y-126200000D03*
X121250000Y-126200000D03*
X118710000Y-123660000D03*
X121250000Y-123660000D03*
X118710000Y-121120000D03*
X121250000Y-121120000D03*
X118710000Y-118580000D03*
X121250000Y-118580000D03*
X118710000Y-116040000D03*
X121250000Y-116040000D03*
X118710000Y-113500000D03*
X121250000Y-113500000D03*
X118710000Y-110960000D03*
X121250000Y-110960000D03*
X118710000Y-108420000D03*
X121250000Y-108420000D03*
X118710000Y-105880000D03*
X121250000Y-105880000D03*
X118710000Y-103340000D03*
X121250000Y-103340000D03*
X118710000Y-100800000D03*
X121250000Y-100800000D03*
X118710000Y-98260000D03*
X121250000Y-98260000D03*
X118710000Y-95720000D03*
X121250000Y-95720000D03*
X118710000Y-93180000D03*
D11*
X121250000Y-93180000D03*
G36*
G01*
X105750000Y-125075000D02*
X105750000Y-123325000D01*
G75*
G02*
X106625000Y-122450000I875000J0D01*
G01*
X108375000Y-122450000D01*
G75*
G02*
X109250000Y-123325000I0J-875000D01*
G01*
X109250000Y-125075000D01*
G75*
G02*
X108375000Y-125950000I-875000J0D01*
G01*
X106625000Y-125950000D01*
G75*
G02*
X105750000Y-125075000I0J875000D01*
G01*
G37*
G36*
G01*
X103000000Y-120500000D02*
X103000000Y-118500000D01*
G75*
G02*
X103750000Y-117750000I750000J0D01*
G01*
X105250000Y-117750000D01*
G75*
G02*
X106000000Y-118500000I0J-750000D01*
G01*
X106000000Y-120500000D01*
G75*
G02*
X105250000Y-121250000I-750000J0D01*
G01*
X103750000Y-121250000D01*
G75*
G02*
X103000000Y-120500000I0J750000D01*
G01*
G37*
D12*
X110500000Y-119500000D03*
D11*
X111000000Y-131500000D03*
D10*
X111000000Y-128960000D03*
D11*
X103280000Y-94670000D03*
D10*
X103280000Y-92130000D03*
D11*
X110900000Y-94670000D03*
D10*
X110900000Y-92130000D03*
X102690000Y-78555000D03*
X102690000Y-81095000D03*
D11*
X102690000Y-83635000D03*
D13*
X109910000Y-83314999D03*
X110910001Y-82815000D03*
X109910000Y-82315001D03*
X108909999Y-82815000D03*
M02*
