G04 #@! TF.GenerationSoftware,KiCad,Pcbnew,(5.1.6-0-10_14)*
G04 #@! TF.CreationDate,2021-08-31T13:45:45+09:00*
G04 #@! TF.ProjectId,qPCR-panel_v_20210831,71504352-2d70-4616-9e65-6c5f765f3230,rev?*
G04 #@! TF.SameCoordinates,Original*
G04 #@! TF.FileFunction,Soldermask,Bot*
G04 #@! TF.FilePolarity,Negative*
%FSLAX46Y46*%
G04 Gerber Fmt 4.6, Leading zero omitted, Abs format (unit mm)*
G04 Created by KiCad (PCBNEW (5.1.6-0-10_14)) date 2021-08-31 13:45:45*
%MOMM*%
%LPD*%
G01*
G04 APERTURE LIST*
%ADD10O,1.700000X1.700000*%
%ADD11R,1.700000X1.700000*%
%ADD12R,3.500000X3.500000*%
%ADD13C,0.499999*%
G04 APERTURE END LIST*
D10*
G04 #@! TO.C,J8*
X174940000Y-67790000D03*
X174940000Y-65250000D03*
X172400000Y-67790000D03*
X172400000Y-65250000D03*
X169860000Y-67790000D03*
X169860000Y-65250000D03*
X167320000Y-67790000D03*
X167320000Y-65250000D03*
X164780000Y-67790000D03*
X164780000Y-65250000D03*
X162240000Y-67790000D03*
X162240000Y-65250000D03*
X159700000Y-67790000D03*
X159700000Y-65250000D03*
X157160000Y-67790000D03*
X157160000Y-65250000D03*
X154620000Y-67790000D03*
X154620000Y-65250000D03*
X152080000Y-67790000D03*
X152080000Y-65250000D03*
X149540000Y-67790000D03*
X149540000Y-65250000D03*
X147000000Y-67790000D03*
X147000000Y-65250000D03*
X144460000Y-67790000D03*
X144460000Y-65250000D03*
X141920000Y-67790000D03*
X141920000Y-65250000D03*
X139380000Y-67790000D03*
X139380000Y-65250000D03*
X136840000Y-67790000D03*
X136840000Y-65250000D03*
X134300000Y-67790000D03*
X134300000Y-65250000D03*
X131760000Y-67790000D03*
X131760000Y-65250000D03*
X129220000Y-67790000D03*
X129220000Y-65250000D03*
X126680000Y-67790000D03*
D11*
X126680000Y-65250000D03*
G04 #@! TD*
G04 #@! TO.C,J1*
G36*
G01*
X158575000Y-80750000D02*
X156825000Y-80750000D01*
G75*
G02*
X155950000Y-79875000I0J875000D01*
G01*
X155950000Y-78125000D01*
G75*
G02*
X156825000Y-77250000I875000J0D01*
G01*
X158575000Y-77250000D01*
G75*
G02*
X159450000Y-78125000I0J-875000D01*
G01*
X159450000Y-79875000D01*
G75*
G02*
X158575000Y-80750000I-875000J0D01*
G01*
G37*
G36*
G01*
X154000000Y-83500000D02*
X152000000Y-83500000D01*
G75*
G02*
X151250000Y-82750000I0J750000D01*
G01*
X151250000Y-81250000D01*
G75*
G02*
X152000000Y-80500000I750000J0D01*
G01*
X154000000Y-80500000D01*
G75*
G02*
X154750000Y-81250000I0J-750000D01*
G01*
X154750000Y-82750000D01*
G75*
G02*
X154000000Y-83500000I-750000J0D01*
G01*
G37*
D12*
X153000000Y-76000000D03*
G04 #@! TD*
D11*
G04 #@! TO.C,J2*
X165000000Y-75500000D03*
D10*
X162460000Y-75500000D03*
G04 #@! TD*
D11*
G04 #@! TO.C,J4*
X128170000Y-83220000D03*
D10*
X125630000Y-83220000D03*
G04 #@! TD*
D11*
G04 #@! TO.C,J5*
X128170000Y-75600000D03*
D10*
X125630000Y-75600000D03*
G04 #@! TD*
G04 #@! TO.C,J1*
X112055000Y-83810000D03*
X114595000Y-83810000D03*
D11*
X117135000Y-83810000D03*
G04 #@! TD*
D13*
G04 #@! TO.C,U1*
X116814999Y-76590000D03*
X116315000Y-75589999D03*
X115815001Y-76590000D03*
X116315000Y-77590001D03*
G04 #@! TD*
M02*
