G04 #@! TF.GenerationSoftware,KiCad,Pcbnew,(5.1.6-0-10_14)*
G04 #@! TF.CreationDate,2021-01-14T22:31:30+09:00*
G04 #@! TF.ProjectId,qPCR-photoarray-series,71504352-2d70-4686-9f74-6f6172726179,rev?*
G04 #@! TF.SameCoordinates,Original*
G04 #@! TF.FileFunction,Copper,L1,Top*
G04 #@! TF.FilePolarity,Positive*
%FSLAX46Y46*%
G04 Gerber Fmt 4.6, Leading zero omitted, Abs format (unit mm)*
G04 Created by KiCad (PCBNEW (5.1.6-0-10_14)) date 2021-01-14 22:31:30*
%MOMM*%
%LPD*%
G01*
G04 APERTURE LIST*
G04 #@! TA.AperFunction,ComponentPad*
%ADD10O,1.700000X1.700000*%
G04 #@! TD*
G04 #@! TA.AperFunction,ComponentPad*
%ADD11R,1.700000X1.700000*%
G04 #@! TD*
G04 #@! TA.AperFunction,SMDPad,CuDef*
%ADD12R,1.600000X1.000000*%
G04 #@! TD*
G04 #@! TA.AperFunction,ViaPad*
%ADD13C,0.800000*%
G04 #@! TD*
G04 #@! TA.AperFunction,Conductor*
%ADD14C,0.250000*%
G04 #@! TD*
G04 #@! TA.AperFunction,Conductor*
%ADD15C,0.254000*%
G04 #@! TD*
G04 APERTURE END LIST*
D10*
G04 #@! TO.P,U1,10*
G04 #@! TO.N,OUT1*
X182935000Y-89460000D03*
G04 #@! TO.P,U1,9*
G04 #@! TO.N,OUT2*
X182935000Y-92000000D03*
G04 #@! TO.P,U1,8*
G04 #@! TO.N,OUT3*
X185475000Y-89460000D03*
G04 #@! TO.P,U1,7*
G04 #@! TO.N,OUT4*
X185475000Y-92000000D03*
G04 #@! TO.P,U1,6*
G04 #@! TO.N,OUT5*
X188015000Y-89460000D03*
G04 #@! TO.P,U1,5*
G04 #@! TO.N,OUT6*
X188015000Y-92000000D03*
G04 #@! TO.P,U1,4*
G04 #@! TO.N,OUT7*
X190555000Y-89460000D03*
G04 #@! TO.P,U1,3*
G04 #@! TO.N,OUT8*
X190555000Y-92000000D03*
G04 #@! TO.P,U1,2*
G04 #@! TO.N,GND*
X193095000Y-89460000D03*
D11*
G04 #@! TO.P,U1,1*
X193095000Y-92000000D03*
G04 #@! TD*
D12*
G04 #@! TO.P,D10,1*
G04 #@! TO.N,OUT5*
X154500000Y-106500000D03*
G04 #@! TO.P,D10,2*
G04 #@! TO.N,Net-(D10-Pad2)*
X154500000Y-109500000D03*
G04 #@! TD*
G04 #@! TO.P,D4,1*
G04 #@! TO.N,OUT2*
X127500000Y-106500000D03*
G04 #@! TO.P,D4,2*
G04 #@! TO.N,Net-(D3-Pad1)*
X127500000Y-109500000D03*
G04 #@! TD*
G04 #@! TO.P,D2,1*
G04 #@! TO.N,OUT1*
X118500000Y-106500000D03*
G04 #@! TO.P,D2,2*
G04 #@! TO.N,Net-(D1-Pad1)*
X118500000Y-109500000D03*
G04 #@! TD*
G04 #@! TO.P,D1,1*
G04 #@! TO.N,Net-(D1-Pad1)*
X116500000Y-106500000D03*
G04 #@! TO.P,D1,2*
G04 #@! TO.N,GND*
X116500000Y-109500000D03*
G04 #@! TD*
G04 #@! TO.P,D3,1*
G04 #@! TO.N,Net-(D3-Pad1)*
X125500000Y-106500000D03*
G04 #@! TO.P,D3,2*
G04 #@! TO.N,GND*
X125500000Y-109500000D03*
G04 #@! TD*
G04 #@! TO.P,D5,1*
G04 #@! TO.N,Net-(D5-Pad1)*
X134500000Y-106500000D03*
G04 #@! TO.P,D5,2*
G04 #@! TO.N,GND*
X134500000Y-109500000D03*
G04 #@! TD*
G04 #@! TO.P,D6,1*
G04 #@! TO.N,OUT3*
X136500000Y-106500000D03*
G04 #@! TO.P,D6,2*
G04 #@! TO.N,Net-(D5-Pad1)*
X136500000Y-109500000D03*
G04 #@! TD*
G04 #@! TO.P,D7,1*
G04 #@! TO.N,Net-(D7-Pad1)*
X143500000Y-106500000D03*
G04 #@! TO.P,D7,2*
G04 #@! TO.N,GND*
X143500000Y-109500000D03*
G04 #@! TD*
G04 #@! TO.P,D8,1*
G04 #@! TO.N,OUT4*
X145500000Y-106500000D03*
G04 #@! TO.P,D8,2*
G04 #@! TO.N,Net-(D7-Pad1)*
X145500000Y-109500000D03*
G04 #@! TD*
G04 #@! TO.P,D9,1*
G04 #@! TO.N,Net-(D10-Pad2)*
X152500000Y-106500000D03*
G04 #@! TO.P,D9,2*
G04 #@! TO.N,GND*
X152500000Y-109500000D03*
G04 #@! TD*
G04 #@! TO.P,D11,1*
G04 #@! TO.N,Net-(D11-Pad1)*
X161500000Y-106500000D03*
G04 #@! TO.P,D11,2*
G04 #@! TO.N,GND*
X161500000Y-109500000D03*
G04 #@! TD*
G04 #@! TO.P,D12,1*
G04 #@! TO.N,OUT6*
X163500000Y-106500000D03*
G04 #@! TO.P,D12,2*
G04 #@! TO.N,Net-(D11-Pad1)*
X163500000Y-109500000D03*
G04 #@! TD*
G04 #@! TO.P,D13,1*
G04 #@! TO.N,Net-(D13-Pad1)*
X170500000Y-106500000D03*
G04 #@! TO.P,D13,2*
G04 #@! TO.N,GND*
X170500000Y-109500000D03*
G04 #@! TD*
G04 #@! TO.P,D14,1*
G04 #@! TO.N,OUT7*
X172500000Y-106500000D03*
G04 #@! TO.P,D14,2*
G04 #@! TO.N,Net-(D13-Pad1)*
X172500000Y-109500000D03*
G04 #@! TD*
G04 #@! TO.P,D15,1*
G04 #@! TO.N,Net-(D15-Pad1)*
X179500000Y-106500000D03*
G04 #@! TO.P,D15,2*
G04 #@! TO.N,GND*
X179500000Y-109500000D03*
G04 #@! TD*
G04 #@! TO.P,D16,1*
G04 #@! TO.N,OUT8*
X181500000Y-106500000D03*
G04 #@! TO.P,D16,2*
G04 #@! TO.N,Net-(D15-Pad1)*
X181500000Y-109500000D03*
G04 #@! TD*
D13*
G04 #@! TO.N,GND*
X111200000Y-97700000D03*
X194500000Y-97000000D03*
X195800000Y-97400000D03*
X194600000Y-93000000D03*
X201100000Y-94000000D03*
X198200000Y-95500000D03*
X196500000Y-94000000D03*
X200000000Y-95000000D03*
X114800000Y-97700000D03*
X111400000Y-101100000D03*
X111200000Y-103800000D03*
X119700000Y-101300000D03*
X115000000Y-101000000D03*
X115000000Y-104000000D03*
X119500000Y-104000000D03*
X124500000Y-104000000D03*
X122000000Y-108500000D03*
X117500000Y-110800000D03*
X135500000Y-110800000D03*
X144500000Y-110800000D03*
X153500000Y-110900000D03*
X162500000Y-110800000D03*
X171500000Y-110800000D03*
X180500000Y-110800000D03*
X182300000Y-110800000D03*
X178200000Y-110800000D03*
X173800000Y-110800000D03*
X169200000Y-110800000D03*
X164800000Y-110800000D03*
X160200000Y-110800000D03*
X155800000Y-110800000D03*
X151200000Y-110900000D03*
X146800000Y-110800000D03*
X142200000Y-110800000D03*
X137800000Y-110900000D03*
X133200000Y-110800000D03*
X128800000Y-110800000D03*
X124200000Y-110800000D03*
X119800000Y-110800000D03*
X115700000Y-110800000D03*
X122000000Y-106000000D03*
X131000000Y-106000000D03*
X131000000Y-108500000D03*
X128500000Y-104500000D03*
X133500000Y-104500000D03*
X140000000Y-108500000D03*
X140000000Y-106000000D03*
X142500000Y-105000000D03*
X137500000Y-105000000D03*
X149000000Y-108500000D03*
X149000000Y-106500000D03*
X147500000Y-105980000D03*
X150260000Y-105840000D03*
X158000000Y-108500000D03*
X158000000Y-106500000D03*
X156430000Y-106130000D03*
X159800000Y-106000000D03*
X176000000Y-108500000D03*
X174000000Y-107500000D03*
X177700000Y-106700000D03*
X190000000Y-103500000D03*
X192000000Y-98000000D03*
X191000000Y-96000000D03*
X193000000Y-95500000D03*
X200900000Y-97600000D03*
X198000000Y-97500000D03*
X113000000Y-103000000D03*
X113000000Y-99000000D03*
X116300000Y-102700000D03*
X167000000Y-108500000D03*
X168600000Y-106500000D03*
X167100000Y-106400000D03*
X194000000Y-103700000D03*
X182270000Y-105210000D03*
X186170000Y-95550000D03*
X183870000Y-99300000D03*
X185460000Y-97210000D03*
X182290000Y-103500000D03*
X184060000Y-101800000D03*
X185160000Y-103250000D03*
X186050000Y-100480000D03*
X187920000Y-97820000D03*
X188880000Y-95070000D03*
X191150000Y-94000000D03*
X189710000Y-96810000D03*
X188360000Y-99900000D03*
X187720000Y-102240000D03*
X191340000Y-99820000D03*
X191520000Y-102240000D03*
X193810000Y-100870000D03*
G04 #@! TD*
D14*
G04 #@! TO.N,GND*
X193095000Y-99460000D02*
X193095000Y-102000000D01*
X194500000Y-98055000D02*
X194500000Y-97000000D01*
X193095000Y-99460000D02*
X194500000Y-98055000D01*
X194500000Y-96000000D02*
X192500000Y-94000000D01*
X194500000Y-97000000D02*
X194500000Y-96000000D01*
X192500000Y-92595000D02*
X193095000Y-92000000D01*
X192500000Y-94000000D02*
X192500000Y-92595000D01*
X193095000Y-89460000D02*
X193095000Y-92000000D01*
X196100000Y-94500000D02*
X196500000Y-94500000D01*
X199500000Y-94500000D02*
X200000000Y-95000000D01*
X201200000Y-93800000D02*
X200000000Y-95000000D01*
X201600000Y-93800000D02*
X201200000Y-93800000D01*
X200000000Y-96000000D02*
X200000000Y-95000000D01*
X198200000Y-94500000D02*
X199500000Y-94500000D01*
X198200000Y-96300000D02*
X198200000Y-94500000D01*
X196500000Y-94500000D02*
X198200000Y-94500000D01*
X195400000Y-94400000D02*
X195700000Y-94100000D01*
X195700000Y-94100000D02*
X196100000Y-94500000D01*
X194600000Y-93000000D02*
X195700000Y-94100000D01*
X194500000Y-97000000D02*
X195400000Y-97000000D01*
X195400000Y-97000000D02*
X195400000Y-94400000D01*
X195400000Y-97900000D02*
X195400000Y-97000000D01*
X119800000Y-109500000D02*
X120192144Y-109107856D01*
X124200000Y-109500000D02*
X125500000Y-109500000D01*
X123807856Y-109107856D02*
X124200000Y-109500000D01*
X132900000Y-109500000D02*
X134500000Y-109500000D01*
X132507856Y-109107856D02*
X132900000Y-109500000D01*
X138200000Y-109500000D02*
X138575754Y-109124246D01*
X141900000Y-109500000D02*
X143500000Y-109500000D01*
X141524246Y-109124246D02*
X141900000Y-109500000D01*
X150900000Y-109500000D02*
X152500000Y-109500000D01*
X147261496Y-109500000D02*
X147637250Y-109124246D01*
X150524246Y-109124246D02*
X150900000Y-109500000D01*
X156492144Y-109107856D02*
X159407856Y-109107856D01*
X156100000Y-109500000D02*
X156492144Y-109107856D01*
X159800000Y-109500000D02*
X161500000Y-109500000D01*
X159407856Y-109107856D02*
X159800000Y-109500000D01*
X165200000Y-109500000D02*
X165592144Y-109107856D01*
X168900000Y-109500000D02*
X170500000Y-109500000D01*
X168507856Y-109107856D02*
X168900000Y-109500000D01*
X174100000Y-109500000D02*
X174492144Y-109107856D01*
X177800000Y-109500000D02*
X179500000Y-109500000D01*
X177407856Y-109107856D02*
X177800000Y-109500000D01*
X112500000Y-99000000D02*
X113000000Y-99000000D01*
X111000000Y-97500000D02*
X112500000Y-99000000D01*
X113500000Y-99000000D02*
X113000000Y-99000000D01*
X115000000Y-97500000D02*
X113500000Y-99000000D01*
X111000000Y-101000000D02*
X113000000Y-99000000D01*
X115000000Y-101000000D02*
X113000000Y-99000000D01*
X113000000Y-103000000D02*
X115000000Y-101000000D01*
X115000000Y-101500000D02*
X115000000Y-101000000D01*
X116500000Y-103000000D02*
X115000000Y-101500000D01*
X118500000Y-101000000D02*
X116500000Y-103000000D01*
X120000000Y-101000000D02*
X118500000Y-101000000D01*
X118500000Y-111000000D02*
X120000000Y-111000000D01*
X117500000Y-111000000D02*
X118500000Y-111000000D01*
X122000000Y-109000000D02*
X121892144Y-109107856D01*
X122000000Y-108500000D02*
X122000000Y-109000000D01*
X121892144Y-109107856D02*
X123807856Y-109107856D01*
X120192144Y-109107856D02*
X121892144Y-109107856D01*
X122000000Y-106000000D02*
X122000000Y-108500000D01*
X121500000Y-106000000D02*
X122000000Y-106000000D01*
X119500000Y-104000000D02*
X121500000Y-106000000D01*
X122500000Y-106000000D02*
X122000000Y-106000000D01*
X124500000Y-104000000D02*
X122500000Y-106000000D01*
X131000000Y-109000000D02*
X130892144Y-109107856D01*
X130892144Y-109107856D02*
X132507856Y-109107856D01*
X131000000Y-108500000D02*
X131000000Y-109000000D01*
X124000000Y-111000000D02*
X126500000Y-111000000D01*
X127500000Y-111000000D02*
X129000000Y-111000000D01*
X126500000Y-111000000D02*
X127500000Y-111000000D01*
X131000000Y-106000000D02*
X131000000Y-108500000D01*
X129500000Y-104500000D02*
X131000000Y-106000000D01*
X128500000Y-104500000D02*
X129500000Y-104500000D01*
X132500000Y-104500000D02*
X131000000Y-106000000D01*
X133500000Y-104500000D02*
X132500000Y-104500000D01*
X133000000Y-111000000D02*
X135500000Y-111000000D01*
X136500000Y-111000000D02*
X138000000Y-111000000D01*
X135500000Y-111000000D02*
X136500000Y-111000000D01*
X139000000Y-105000000D02*
X140000000Y-106000000D01*
X137500000Y-105000000D02*
X139000000Y-105000000D01*
X141000000Y-105000000D02*
X140000000Y-106000000D01*
X142500000Y-105000000D02*
X141000000Y-105000000D01*
X140000000Y-106000000D02*
X140000000Y-108500000D01*
X140000000Y-109000000D02*
X140124246Y-109124246D01*
X140000000Y-108500000D02*
X140000000Y-109000000D01*
X140124246Y-109124246D02*
X141524246Y-109124246D01*
X138575754Y-109124246D02*
X140124246Y-109124246D01*
X142000000Y-111000000D02*
X144500000Y-111000000D01*
X145500000Y-111000000D02*
X147000000Y-111000000D01*
X144500000Y-111000000D02*
X145500000Y-111000000D01*
X149000000Y-106500000D02*
X149000000Y-108500000D01*
X149000000Y-109000000D02*
X149124246Y-109124246D01*
X149000000Y-108500000D02*
X149000000Y-109000000D01*
X149124246Y-109124246D02*
X150524246Y-109124246D01*
X147637250Y-109124246D02*
X149124246Y-109124246D01*
X151000000Y-111000000D02*
X153500000Y-111000000D01*
X154500000Y-111000000D02*
X156000000Y-111000000D01*
X153500000Y-111000000D02*
X154500000Y-111000000D01*
X158000000Y-106500000D02*
X158000000Y-108500000D01*
X158000000Y-108500000D02*
X158000000Y-109000000D01*
X160000000Y-111000000D02*
X162500000Y-111000000D01*
X163500000Y-111000000D02*
X165000000Y-111000000D01*
X162500000Y-111000000D02*
X163500000Y-111000000D01*
X167000000Y-109000000D02*
X167107856Y-109107856D01*
X167000000Y-108500000D02*
X167000000Y-109000000D01*
X167107856Y-109107856D02*
X168507856Y-109107856D01*
X165592144Y-109107856D02*
X167107856Y-109107856D01*
X169000000Y-111000000D02*
X171500000Y-111000000D01*
X172500000Y-111000000D02*
X174000000Y-111000000D01*
X171500000Y-111000000D02*
X172500000Y-111000000D01*
X175000000Y-107500000D02*
X176000000Y-108500000D01*
X174000000Y-107500000D02*
X175000000Y-107500000D01*
X178000000Y-106500000D02*
X176000000Y-108500000D01*
X176000000Y-108500000D02*
X176000000Y-109000000D01*
X176000000Y-109000000D02*
X175892144Y-109107856D01*
X175892144Y-109107856D02*
X177407856Y-109107856D01*
X174492144Y-109107856D02*
X175892144Y-109107856D01*
X178000000Y-111000000D02*
X180500000Y-111000000D01*
X181500000Y-111000000D02*
X182500000Y-111000000D01*
X180500000Y-111000000D02*
X181500000Y-111000000D01*
X192000000Y-98365000D02*
X193095000Y-99460000D01*
X192000000Y-98000000D02*
X192000000Y-98365000D01*
X190000000Y-95000000D02*
X191000000Y-96000000D01*
X190000000Y-93500000D02*
X190000000Y-95000000D01*
X191500000Y-95500000D02*
X191000000Y-96000000D01*
X193000000Y-95500000D02*
X191500000Y-95500000D01*
X198000000Y-96500000D02*
X198200000Y-96300000D01*
X198000000Y-97500000D02*
X198000000Y-96500000D01*
X201500000Y-97500000D02*
X200000000Y-96000000D01*
X193095000Y-103100000D02*
X192070010Y-104124990D01*
X193095000Y-102000000D02*
X193095000Y-103100000D01*
X190000000Y-104049980D02*
X189924990Y-104124990D01*
X190000000Y-103500000D02*
X190000000Y-104049980D01*
X192070010Y-104124990D02*
X189924990Y-104124990D01*
X193500000Y-103100000D02*
X193095000Y-103100000D01*
X194300000Y-103900000D02*
X193500000Y-103100000D01*
X112000000Y-104000000D02*
X113000000Y-103000000D01*
X111000000Y-104000000D02*
X112000000Y-104000000D01*
X201000000Y-97500000D02*
X200900000Y-97600000D01*
X201500000Y-97500000D02*
X201000000Y-97500000D01*
X116500000Y-110950000D02*
X116550000Y-111000000D01*
X116500000Y-109500000D02*
X116500000Y-110950000D01*
X116550000Y-111000000D02*
X117500000Y-111000000D01*
X115500000Y-111000000D02*
X116550000Y-111000000D01*
X119800000Y-109500000D02*
X119800000Y-110800000D01*
X128800000Y-109800000D02*
X128800000Y-110800000D01*
X129492144Y-109107856D02*
X128800000Y-109800000D01*
X130892144Y-109107856D02*
X129492144Y-109107856D01*
X182410000Y-104851496D02*
X182410000Y-105370000D01*
X183136506Y-104124990D02*
X182410000Y-104851496D01*
X189924990Y-104124990D02*
X183136506Y-104124990D01*
G04 #@! TO.N,OUT1*
X182040000Y-89460000D02*
X182935000Y-89460000D01*
X181375010Y-90124990D02*
X182040000Y-89460000D01*
X181375010Y-94524990D02*
X181375010Y-90124990D01*
X181375010Y-94655334D02*
X181375010Y-94524990D01*
X179875010Y-97655334D02*
X181375010Y-96155334D01*
X177225009Y-102875009D02*
X177225010Y-102875011D01*
X177225010Y-102875011D02*
X177386674Y-102875010D01*
X181375010Y-96155334D02*
X181375010Y-94524990D01*
X179875010Y-100386674D02*
X179875010Y-97655334D01*
X177386674Y-102875010D02*
X179875010Y-100386674D01*
X177224268Y-102875753D02*
X177225010Y-102875011D01*
X119074247Y-102875753D02*
X177224268Y-102875753D01*
X118500000Y-103450000D02*
X119074247Y-102875753D01*
X118500000Y-106500000D02*
X118500000Y-103450000D01*
G04 #@! TO.N,OUT2*
X127500000Y-106500000D02*
X127500000Y-103745763D01*
X127500000Y-103745763D02*
X127920000Y-103325763D01*
X177572330Y-103325763D02*
X177573075Y-103325019D01*
X127920000Y-103325763D02*
X177572330Y-103325763D01*
X177573075Y-103325019D02*
X180325020Y-100573074D01*
X180325020Y-97841734D02*
X181825020Y-96341734D01*
X180325020Y-100573074D02*
X180325020Y-97841734D01*
X181825020Y-93109980D02*
X182935000Y-92000000D01*
X181825020Y-96341734D02*
X181825020Y-93109980D01*
G04 #@! TO.N,OUT3*
X184200000Y-90735000D02*
X185475000Y-89460000D01*
X184200000Y-92466754D02*
X184200000Y-90735000D01*
X136500000Y-106500000D02*
X136500000Y-104175773D01*
X136500000Y-104175773D02*
X136900000Y-103775773D01*
X177758730Y-103775773D02*
X180775030Y-100759474D01*
X136900000Y-103775773D02*
X177758730Y-103775773D01*
X180775030Y-100759474D02*
X180775030Y-98028134D01*
X180775030Y-98028134D02*
X182275030Y-96528134D01*
X182275030Y-93914970D02*
X183000000Y-93190000D01*
X182275030Y-96528134D02*
X182275030Y-93914970D01*
X183476754Y-93190000D02*
X184200000Y-92466754D01*
X183000000Y-93190000D02*
X183476754Y-93190000D01*
G04 #@! TO.N,OUT4*
X183663155Y-93640009D02*
X185303164Y-92000000D01*
X183186400Y-93640010D02*
X183663155Y-93640009D01*
X185303164Y-92000000D02*
X185475000Y-92000000D01*
X182725039Y-94101371D02*
X183186400Y-93640010D01*
X182725039Y-96714535D02*
X182725039Y-94101371D01*
X181225040Y-100945874D02*
X181225040Y-98214534D01*
X177945131Y-104225782D02*
X181225040Y-100945874D01*
X145970000Y-104225783D02*
X177945131Y-104225782D01*
X145500000Y-104695783D02*
X145970000Y-104225783D01*
X181225040Y-98214534D02*
X182725039Y-96714535D01*
X145500000Y-106500000D02*
X145500000Y-104695783D01*
G04 #@! TO.N,OUT5*
X186800000Y-92414002D02*
X186800000Y-90675000D01*
X185914002Y-93300000D02*
X186800000Y-92414002D01*
X154500000Y-106500000D02*
X154780000Y-106500000D01*
X186800000Y-90675000D02*
X188015000Y-89460000D01*
X154500000Y-106500000D02*
X154500000Y-105065792D01*
X154500000Y-105065792D02*
X154890000Y-104675791D01*
X178131532Y-104675791D02*
X181675050Y-101132274D01*
X154890000Y-104675791D02*
X178131532Y-104675791D01*
X181675050Y-98400934D02*
X183175049Y-96900935D01*
X181675050Y-101132274D02*
X181675050Y-98400934D01*
X183175049Y-96900935D02*
X183175049Y-94287771D01*
X183175049Y-94287771D02*
X183372801Y-94090019D01*
X184639572Y-93300000D02*
X185914002Y-93300000D01*
X183849554Y-94090018D02*
X184639572Y-93300000D01*
X183372801Y-94090019D02*
X183849554Y-94090018D01*
G04 #@! TO.N,OUT6*
X184825972Y-93750010D02*
X186100403Y-93750009D01*
X183625059Y-97087335D02*
X183625059Y-94950923D01*
X182125060Y-98587334D02*
X183625059Y-97087335D01*
X186100403Y-93750009D02*
X187850412Y-92000000D01*
X163850000Y-105125801D02*
X178317933Y-105125800D01*
X182125060Y-101318674D02*
X182125060Y-98587334D01*
X163500000Y-105475801D02*
X163850000Y-105125801D01*
X178317933Y-105125800D02*
X182125060Y-101318674D01*
X187850412Y-92000000D02*
X188015000Y-92000000D01*
X183625059Y-94950923D02*
X184825972Y-93750010D01*
X163500000Y-106500000D02*
X163500000Y-105475801D01*
G04 #@! TO.N,OUT7*
X172500000Y-106500000D02*
X172500000Y-107400000D01*
X172500000Y-107400000D02*
X172800000Y-107700000D01*
X189300000Y-90715000D02*
X190555000Y-89460000D01*
X189300000Y-92644000D02*
X189300000Y-90715000D01*
X185012373Y-94200019D02*
X186286802Y-94200018D01*
X186286802Y-94200018D02*
X186706820Y-93780000D01*
X184075069Y-95137323D02*
X185012373Y-94200019D01*
X184075069Y-97273735D02*
X184075069Y-95137323D01*
X186706820Y-93780000D02*
X188164000Y-93780000D01*
X178504334Y-105575809D02*
X182575070Y-101505074D01*
X182575070Y-98773734D02*
X184075069Y-97273735D01*
X172500000Y-105850000D02*
X172774191Y-105575809D01*
X172774191Y-105575809D02*
X178504334Y-105575809D01*
X182575070Y-101505074D02*
X182575070Y-98773734D01*
X188164000Y-93780000D02*
X189300000Y-92644000D01*
X172500000Y-106500000D02*
X172500000Y-105850000D01*
G04 #@! TO.N,OUT8*
X186473203Y-94650027D02*
X186893220Y-94230010D01*
X184525079Y-95934921D02*
X185809973Y-94650027D01*
X186893220Y-94230010D02*
X188350401Y-94230009D01*
X185809973Y-94650027D02*
X186473203Y-94650027D01*
X183025080Y-98960134D02*
X184525079Y-97460135D01*
X181500000Y-106500000D02*
X181500000Y-103216553D01*
X184525079Y-97460135D02*
X184525079Y-95934921D01*
X190555000Y-92025410D02*
X190555000Y-92000000D01*
X183025080Y-101691474D02*
X183025080Y-98960134D01*
X188350401Y-94230009D02*
X190555000Y-92025410D01*
X181500000Y-103216553D02*
X183025080Y-101691474D01*
G04 #@! TO.N,Net-(D15-Pad1)*
X179500000Y-106500000D02*
X179200000Y-106500000D01*
G04 #@! TO.N,Net-(D1-Pad1)*
X118500000Y-109500000D02*
X118500000Y-108285001D01*
X116714999Y-106500000D02*
X116500000Y-106500000D01*
X118500000Y-108285001D02*
X116714999Y-106500000D01*
G04 #@! TO.N,Net-(D3-Pad1)*
X127500000Y-109500000D02*
X127500000Y-108280000D01*
X125720000Y-106500000D02*
X125500000Y-106500000D01*
X127500000Y-108280000D02*
X125720000Y-106500000D01*
G04 #@! TO.N,Net-(D5-Pad1)*
X136500000Y-109500000D02*
X136500000Y-108270000D01*
X134730000Y-106500000D02*
X134500000Y-106500000D01*
X136500000Y-108270000D02*
X134730000Y-106500000D01*
G04 #@! TO.N,Net-(D7-Pad1)*
X145500000Y-108310000D02*
X143690000Y-106500000D01*
X143690000Y-106500000D02*
X143500000Y-106500000D01*
X145500000Y-109500000D02*
X145500000Y-108310000D01*
G04 #@! TO.N,Net-(D10-Pad2)*
X154500000Y-109500000D02*
X154500000Y-108280000D01*
X152720000Y-106500000D02*
X152500000Y-106500000D01*
X154500000Y-108280000D02*
X152720000Y-106500000D01*
G04 #@! TO.N,Net-(D11-Pad1)*
X163500000Y-109500000D02*
X163500000Y-108260000D01*
X161740000Y-106500000D02*
X161500000Y-106500000D01*
X163500000Y-108260000D02*
X161740000Y-106500000D01*
G04 #@! TO.N,Net-(D13-Pad1)*
X172500000Y-109500000D02*
X172500000Y-108275001D01*
X170724999Y-106500000D02*
X170500000Y-106500000D01*
X172500000Y-108275001D02*
X170724999Y-106500000D01*
G04 #@! TO.N,Net-(D15-Pad1)*
X181500000Y-109500000D02*
X181500000Y-108270000D01*
X179730000Y-106500000D02*
X179500000Y-106500000D01*
X181500000Y-108270000D02*
X179730000Y-106500000D01*
G04 #@! TD*
D15*
G04 #@! TO.N,GND*
G36*
X178061928Y-107000000D02*
G01*
X178074188Y-107124482D01*
X178110498Y-107244180D01*
X178169463Y-107354494D01*
X178248815Y-107451185D01*
X178345506Y-107530537D01*
X178455820Y-107589502D01*
X178575518Y-107625812D01*
X178700000Y-107638072D01*
X179793271Y-107638072D01*
X180540123Y-108384925D01*
X180500000Y-108397096D01*
X180424482Y-108374188D01*
X180300000Y-108361928D01*
X179785750Y-108365000D01*
X179627000Y-108523750D01*
X179627000Y-109373000D01*
X179647000Y-109373000D01*
X179647000Y-109627000D01*
X179627000Y-109627000D01*
X179627000Y-110476250D01*
X179785750Y-110635000D01*
X180300000Y-110638072D01*
X180424482Y-110625812D01*
X180500000Y-110602904D01*
X180575518Y-110625812D01*
X180700000Y-110638072D01*
X182300000Y-110638072D01*
X182315000Y-110636595D01*
X182315000Y-110815000D01*
X178185000Y-110815000D01*
X178185000Y-110373426D01*
X178248815Y-110451185D01*
X178345506Y-110530537D01*
X178455820Y-110589502D01*
X178575518Y-110625812D01*
X178700000Y-110638072D01*
X179214250Y-110635000D01*
X179373000Y-110476250D01*
X179373000Y-109627000D01*
X179353000Y-109627000D01*
X179353000Y-109373000D01*
X179373000Y-109373000D01*
X179373000Y-108523750D01*
X179214250Y-108365000D01*
X178700000Y-108361928D01*
X178575518Y-108374188D01*
X178455820Y-108410498D01*
X178345506Y-108469463D01*
X178248815Y-108548815D01*
X178169463Y-108645506D01*
X178110498Y-108755820D01*
X178074188Y-108875518D01*
X178061928Y-109000000D01*
X178065000Y-109214250D01*
X178223748Y-109372998D01*
X178065000Y-109372998D01*
X178065000Y-109483278D01*
X178063489Y-109480436D01*
X178017077Y-109394598D01*
X177982350Y-109343115D01*
X177948364Y-109291179D01*
X177942320Y-109283767D01*
X177880118Y-109208579D01*
X177836051Y-109164818D01*
X177792630Y-109120478D01*
X177785261Y-109114381D01*
X177709640Y-109052706D01*
X177657959Y-109018368D01*
X177606694Y-108983267D01*
X177598281Y-108978718D01*
X177512120Y-108932906D01*
X177454704Y-108909242D01*
X177397661Y-108884792D01*
X177388525Y-108881964D01*
X177295107Y-108853759D01*
X177234195Y-108841698D01*
X177173471Y-108828791D01*
X177163959Y-108827791D01*
X177066841Y-108818269D01*
X177066837Y-108818269D01*
X177033647Y-108815000D01*
X174966353Y-108815000D01*
X174937399Y-108817852D01*
X174934427Y-108817831D01*
X174924909Y-108818764D01*
X174876790Y-108823821D01*
X174865717Y-108824912D01*
X174865348Y-108825024D01*
X174827860Y-108828964D01*
X174767017Y-108841453D01*
X174706058Y-108853082D01*
X174696902Y-108855846D01*
X174603683Y-108884702D01*
X174546434Y-108908768D01*
X174488881Y-108932021D01*
X174480436Y-108936511D01*
X174394598Y-108982923D01*
X174343115Y-109017650D01*
X174291179Y-109051636D01*
X174283767Y-109057680D01*
X174208579Y-109119882D01*
X174164818Y-109163949D01*
X174120478Y-109207370D01*
X174114381Y-109214739D01*
X174052706Y-109290360D01*
X174018368Y-109342041D01*
X173983267Y-109393306D01*
X173978718Y-109401719D01*
X173938072Y-109478164D01*
X173938072Y-109000000D01*
X173925812Y-108875518D01*
X173889502Y-108755820D01*
X173830537Y-108645506D01*
X173751185Y-108548815D01*
X173654494Y-108469463D01*
X173544180Y-108410498D01*
X173424482Y-108374188D01*
X173300000Y-108361928D01*
X173260000Y-108361928D01*
X173260000Y-108312323D01*
X173260714Y-108305070D01*
X173340001Y-108240001D01*
X173434974Y-108124276D01*
X173505546Y-107992246D01*
X173549002Y-107848985D01*
X173563676Y-107699999D01*
X173552362Y-107585128D01*
X173654494Y-107530537D01*
X173751185Y-107451185D01*
X173830537Y-107354494D01*
X173889502Y-107244180D01*
X173925812Y-107124482D01*
X173938072Y-107000000D01*
X173938072Y-106335809D01*
X178061928Y-106335809D01*
X178061928Y-107000000D01*
G37*
X178061928Y-107000000D02*
X178074188Y-107124482D01*
X178110498Y-107244180D01*
X178169463Y-107354494D01*
X178248815Y-107451185D01*
X178345506Y-107530537D01*
X178455820Y-107589502D01*
X178575518Y-107625812D01*
X178700000Y-107638072D01*
X179793271Y-107638072D01*
X180540123Y-108384925D01*
X180500000Y-108397096D01*
X180424482Y-108374188D01*
X180300000Y-108361928D01*
X179785750Y-108365000D01*
X179627000Y-108523750D01*
X179627000Y-109373000D01*
X179647000Y-109373000D01*
X179647000Y-109627000D01*
X179627000Y-109627000D01*
X179627000Y-110476250D01*
X179785750Y-110635000D01*
X180300000Y-110638072D01*
X180424482Y-110625812D01*
X180500000Y-110602904D01*
X180575518Y-110625812D01*
X180700000Y-110638072D01*
X182300000Y-110638072D01*
X182315000Y-110636595D01*
X182315000Y-110815000D01*
X178185000Y-110815000D01*
X178185000Y-110373426D01*
X178248815Y-110451185D01*
X178345506Y-110530537D01*
X178455820Y-110589502D01*
X178575518Y-110625812D01*
X178700000Y-110638072D01*
X179214250Y-110635000D01*
X179373000Y-110476250D01*
X179373000Y-109627000D01*
X179353000Y-109627000D01*
X179353000Y-109373000D01*
X179373000Y-109373000D01*
X179373000Y-108523750D01*
X179214250Y-108365000D01*
X178700000Y-108361928D01*
X178575518Y-108374188D01*
X178455820Y-108410498D01*
X178345506Y-108469463D01*
X178248815Y-108548815D01*
X178169463Y-108645506D01*
X178110498Y-108755820D01*
X178074188Y-108875518D01*
X178061928Y-109000000D01*
X178065000Y-109214250D01*
X178223748Y-109372998D01*
X178065000Y-109372998D01*
X178065000Y-109483278D01*
X178063489Y-109480436D01*
X178017077Y-109394598D01*
X177982350Y-109343115D01*
X177948364Y-109291179D01*
X177942320Y-109283767D01*
X177880118Y-109208579D01*
X177836051Y-109164818D01*
X177792630Y-109120478D01*
X177785261Y-109114381D01*
X177709640Y-109052706D01*
X177657959Y-109018368D01*
X177606694Y-108983267D01*
X177598281Y-108978718D01*
X177512120Y-108932906D01*
X177454704Y-108909242D01*
X177397661Y-108884792D01*
X177388525Y-108881964D01*
X177295107Y-108853759D01*
X177234195Y-108841698D01*
X177173471Y-108828791D01*
X177163959Y-108827791D01*
X177066841Y-108818269D01*
X177066837Y-108818269D01*
X177033647Y-108815000D01*
X174966353Y-108815000D01*
X174937399Y-108817852D01*
X174934427Y-108817831D01*
X174924909Y-108818764D01*
X174876790Y-108823821D01*
X174865717Y-108824912D01*
X174865348Y-108825024D01*
X174827860Y-108828964D01*
X174767017Y-108841453D01*
X174706058Y-108853082D01*
X174696902Y-108855846D01*
X174603683Y-108884702D01*
X174546434Y-108908768D01*
X174488881Y-108932021D01*
X174480436Y-108936511D01*
X174394598Y-108982923D01*
X174343115Y-109017650D01*
X174291179Y-109051636D01*
X174283767Y-109057680D01*
X174208579Y-109119882D01*
X174164818Y-109163949D01*
X174120478Y-109207370D01*
X174114381Y-109214739D01*
X174052706Y-109290360D01*
X174018368Y-109342041D01*
X173983267Y-109393306D01*
X173978718Y-109401719D01*
X173938072Y-109478164D01*
X173938072Y-109000000D01*
X173925812Y-108875518D01*
X173889502Y-108755820D01*
X173830537Y-108645506D01*
X173751185Y-108548815D01*
X173654494Y-108469463D01*
X173544180Y-108410498D01*
X173424482Y-108374188D01*
X173300000Y-108361928D01*
X173260000Y-108361928D01*
X173260000Y-108312323D01*
X173260714Y-108305070D01*
X173340001Y-108240001D01*
X173434974Y-108124276D01*
X173505546Y-107992246D01*
X173549002Y-107848985D01*
X173563676Y-107699999D01*
X173552362Y-107585128D01*
X173654494Y-107530537D01*
X173751185Y-107451185D01*
X173830537Y-107354494D01*
X173889502Y-107244180D01*
X173925812Y-107124482D01*
X173938072Y-107000000D01*
X173938072Y-106335809D01*
X178061928Y-106335809D01*
X178061928Y-107000000D01*
G36*
X144750998Y-104546797D02*
G01*
X144740827Y-104650060D01*
X144736324Y-104695783D01*
X144740001Y-104733115D01*
X144740001Y-105361928D01*
X144700000Y-105361928D01*
X144575518Y-105374188D01*
X144500000Y-105397096D01*
X144424482Y-105374188D01*
X144300000Y-105361928D01*
X142700000Y-105361928D01*
X142575518Y-105374188D01*
X142455820Y-105410498D01*
X142345506Y-105469463D01*
X142248815Y-105548815D01*
X142169463Y-105645506D01*
X142110498Y-105755820D01*
X142074188Y-105875518D01*
X142061928Y-106000000D01*
X142061928Y-107000000D01*
X142074188Y-107124482D01*
X142110498Y-107244180D01*
X142169463Y-107354494D01*
X142248815Y-107451185D01*
X142345506Y-107530537D01*
X142455820Y-107589502D01*
X142575518Y-107625812D01*
X142700000Y-107638072D01*
X143753271Y-107638072D01*
X144509433Y-108394235D01*
X144500000Y-108397096D01*
X144424482Y-108374188D01*
X144300000Y-108361928D01*
X143785750Y-108365000D01*
X143627000Y-108523750D01*
X143627000Y-109373000D01*
X143647000Y-109373000D01*
X143647000Y-109627000D01*
X143627000Y-109627000D01*
X143627000Y-110476250D01*
X143785750Y-110635000D01*
X144300000Y-110638072D01*
X144424482Y-110625812D01*
X144500000Y-110602904D01*
X144575518Y-110625812D01*
X144700000Y-110638072D01*
X146300000Y-110638072D01*
X146424482Y-110625812D01*
X146544180Y-110589502D01*
X146654494Y-110530537D01*
X146751185Y-110451185D01*
X146815001Y-110373425D01*
X146815000Y-110815000D01*
X142185000Y-110815000D01*
X142185000Y-110373426D01*
X142248815Y-110451185D01*
X142345506Y-110530537D01*
X142455820Y-110589502D01*
X142575518Y-110625812D01*
X142700000Y-110638072D01*
X143214250Y-110635000D01*
X143373000Y-110476250D01*
X143373000Y-109627000D01*
X143353000Y-109627000D01*
X143353000Y-109373000D01*
X143373000Y-109373000D01*
X143373000Y-108523750D01*
X143214250Y-108365000D01*
X142700000Y-108361928D01*
X142575518Y-108374188D01*
X142455820Y-108410498D01*
X142345506Y-108469463D01*
X142248815Y-108548815D01*
X142169463Y-108645506D01*
X142110498Y-108755820D01*
X142074188Y-108875518D01*
X142061928Y-109000000D01*
X142065000Y-109214250D01*
X142223748Y-109372998D01*
X142065000Y-109372998D01*
X142065000Y-109483278D01*
X142063489Y-109480436D01*
X142017077Y-109394598D01*
X141982350Y-109343115D01*
X141948364Y-109291179D01*
X141942320Y-109283767D01*
X141880118Y-109208579D01*
X141836051Y-109164818D01*
X141792630Y-109120478D01*
X141785261Y-109114381D01*
X141709640Y-109052706D01*
X141657959Y-109018368D01*
X141606694Y-108983267D01*
X141598281Y-108978718D01*
X141512120Y-108932906D01*
X141454704Y-108909242D01*
X141397661Y-108884792D01*
X141388525Y-108881964D01*
X141295107Y-108853759D01*
X141234195Y-108841698D01*
X141173471Y-108828791D01*
X141163959Y-108827791D01*
X141066841Y-108818269D01*
X141066837Y-108818269D01*
X141033647Y-108815000D01*
X138966353Y-108815000D01*
X138937399Y-108817852D01*
X138934427Y-108817831D01*
X138924909Y-108818764D01*
X138876790Y-108823821D01*
X138865717Y-108824912D01*
X138865348Y-108825024D01*
X138827860Y-108828964D01*
X138767017Y-108841453D01*
X138706058Y-108853082D01*
X138696902Y-108855846D01*
X138603683Y-108884702D01*
X138546434Y-108908768D01*
X138488881Y-108932021D01*
X138480436Y-108936511D01*
X138394598Y-108982923D01*
X138343115Y-109017650D01*
X138291179Y-109051636D01*
X138283767Y-109057680D01*
X138208579Y-109119882D01*
X138164818Y-109163949D01*
X138120478Y-109207370D01*
X138114381Y-109214739D01*
X138052706Y-109290360D01*
X138018368Y-109342041D01*
X137983267Y-109393306D01*
X137978718Y-109401719D01*
X137938072Y-109478164D01*
X137938072Y-109000000D01*
X137925812Y-108875518D01*
X137889502Y-108755820D01*
X137830537Y-108645506D01*
X137751185Y-108548815D01*
X137654494Y-108469463D01*
X137544180Y-108410498D01*
X137424482Y-108374188D01*
X137300000Y-108361928D01*
X137260000Y-108361928D01*
X137260000Y-108307322D01*
X137263676Y-108269999D01*
X137260000Y-108232677D01*
X137260000Y-108232667D01*
X137249003Y-108121014D01*
X137205546Y-107977753D01*
X137185367Y-107940001D01*
X137134974Y-107845723D01*
X137063799Y-107758997D01*
X137040001Y-107729999D01*
X137011003Y-107706201D01*
X136942874Y-107638072D01*
X137300000Y-107638072D01*
X137424482Y-107625812D01*
X137544180Y-107589502D01*
X137654494Y-107530537D01*
X137751185Y-107451185D01*
X137830537Y-107354494D01*
X137889502Y-107244180D01*
X137925812Y-107124482D01*
X137938072Y-107000000D01*
X137938072Y-106000000D01*
X137925812Y-105875518D01*
X137889502Y-105755820D01*
X137830537Y-105645506D01*
X137751185Y-105548815D01*
X137654494Y-105469463D01*
X137544180Y-105410498D01*
X137424482Y-105374188D01*
X137300000Y-105361928D01*
X137260000Y-105361928D01*
X137260000Y-104535773D01*
X144754342Y-104535773D01*
X144750998Y-104546797D01*
G37*
X144750998Y-104546797D02*
X144740827Y-104650060D01*
X144736324Y-104695783D01*
X144740001Y-104733115D01*
X144740001Y-105361928D01*
X144700000Y-105361928D01*
X144575518Y-105374188D01*
X144500000Y-105397096D01*
X144424482Y-105374188D01*
X144300000Y-105361928D01*
X142700000Y-105361928D01*
X142575518Y-105374188D01*
X142455820Y-105410498D01*
X142345506Y-105469463D01*
X142248815Y-105548815D01*
X142169463Y-105645506D01*
X142110498Y-105755820D01*
X142074188Y-105875518D01*
X142061928Y-106000000D01*
X142061928Y-107000000D01*
X142074188Y-107124482D01*
X142110498Y-107244180D01*
X142169463Y-107354494D01*
X142248815Y-107451185D01*
X142345506Y-107530537D01*
X142455820Y-107589502D01*
X142575518Y-107625812D01*
X142700000Y-107638072D01*
X143753271Y-107638072D01*
X144509433Y-108394235D01*
X144500000Y-108397096D01*
X144424482Y-108374188D01*
X144300000Y-108361928D01*
X143785750Y-108365000D01*
X143627000Y-108523750D01*
X143627000Y-109373000D01*
X143647000Y-109373000D01*
X143647000Y-109627000D01*
X143627000Y-109627000D01*
X143627000Y-110476250D01*
X143785750Y-110635000D01*
X144300000Y-110638072D01*
X144424482Y-110625812D01*
X144500000Y-110602904D01*
X144575518Y-110625812D01*
X144700000Y-110638072D01*
X146300000Y-110638072D01*
X146424482Y-110625812D01*
X146544180Y-110589502D01*
X146654494Y-110530537D01*
X146751185Y-110451185D01*
X146815001Y-110373425D01*
X146815000Y-110815000D01*
X142185000Y-110815000D01*
X142185000Y-110373426D01*
X142248815Y-110451185D01*
X142345506Y-110530537D01*
X142455820Y-110589502D01*
X142575518Y-110625812D01*
X142700000Y-110638072D01*
X143214250Y-110635000D01*
X143373000Y-110476250D01*
X143373000Y-109627000D01*
X143353000Y-109627000D01*
X143353000Y-109373000D01*
X143373000Y-109373000D01*
X143373000Y-108523750D01*
X143214250Y-108365000D01*
X142700000Y-108361928D01*
X142575518Y-108374188D01*
X142455820Y-108410498D01*
X142345506Y-108469463D01*
X142248815Y-108548815D01*
X142169463Y-108645506D01*
X142110498Y-108755820D01*
X142074188Y-108875518D01*
X142061928Y-109000000D01*
X142065000Y-109214250D01*
X142223748Y-109372998D01*
X142065000Y-109372998D01*
X142065000Y-109483278D01*
X142063489Y-109480436D01*
X142017077Y-109394598D01*
X141982350Y-109343115D01*
X141948364Y-109291179D01*
X141942320Y-109283767D01*
X141880118Y-109208579D01*
X141836051Y-109164818D01*
X141792630Y-109120478D01*
X141785261Y-109114381D01*
X141709640Y-109052706D01*
X141657959Y-109018368D01*
X141606694Y-108983267D01*
X141598281Y-108978718D01*
X141512120Y-108932906D01*
X141454704Y-108909242D01*
X141397661Y-108884792D01*
X141388525Y-108881964D01*
X141295107Y-108853759D01*
X141234195Y-108841698D01*
X141173471Y-108828791D01*
X141163959Y-108827791D01*
X141066841Y-108818269D01*
X141066837Y-108818269D01*
X141033647Y-108815000D01*
X138966353Y-108815000D01*
X138937399Y-108817852D01*
X138934427Y-108817831D01*
X138924909Y-108818764D01*
X138876790Y-108823821D01*
X138865717Y-108824912D01*
X138865348Y-108825024D01*
X138827860Y-108828964D01*
X138767017Y-108841453D01*
X138706058Y-108853082D01*
X138696902Y-108855846D01*
X138603683Y-108884702D01*
X138546434Y-108908768D01*
X138488881Y-108932021D01*
X138480436Y-108936511D01*
X138394598Y-108982923D01*
X138343115Y-109017650D01*
X138291179Y-109051636D01*
X138283767Y-109057680D01*
X138208579Y-109119882D01*
X138164818Y-109163949D01*
X138120478Y-109207370D01*
X138114381Y-109214739D01*
X138052706Y-109290360D01*
X138018368Y-109342041D01*
X137983267Y-109393306D01*
X137978718Y-109401719D01*
X137938072Y-109478164D01*
X137938072Y-109000000D01*
X137925812Y-108875518D01*
X137889502Y-108755820D01*
X137830537Y-108645506D01*
X137751185Y-108548815D01*
X137654494Y-108469463D01*
X137544180Y-108410498D01*
X137424482Y-108374188D01*
X137300000Y-108361928D01*
X137260000Y-108361928D01*
X137260000Y-108307322D01*
X137263676Y-108269999D01*
X137260000Y-108232677D01*
X137260000Y-108232667D01*
X137249003Y-108121014D01*
X137205546Y-107977753D01*
X137185367Y-107940001D01*
X137134974Y-107845723D01*
X137063799Y-107758997D01*
X137040001Y-107729999D01*
X137011003Y-107706201D01*
X136942874Y-107638072D01*
X137300000Y-107638072D01*
X137424482Y-107625812D01*
X137544180Y-107589502D01*
X137654494Y-107530537D01*
X137751185Y-107451185D01*
X137830537Y-107354494D01*
X137889502Y-107244180D01*
X137925812Y-107124482D01*
X137938072Y-107000000D01*
X137938072Y-106000000D01*
X137925812Y-105875518D01*
X137889502Y-105755820D01*
X137830537Y-105645506D01*
X137751185Y-105548815D01*
X137654494Y-105469463D01*
X137544180Y-105410498D01*
X137424482Y-105374188D01*
X137300000Y-105361928D01*
X137260000Y-105361928D01*
X137260000Y-104535773D01*
X144754342Y-104535773D01*
X144750998Y-104546797D01*
G36*
X126742497Y-103683084D02*
G01*
X126736324Y-103745763D01*
X126740001Y-103783095D01*
X126740000Y-105361928D01*
X126700000Y-105361928D01*
X126575518Y-105374188D01*
X126500000Y-105397096D01*
X126424482Y-105374188D01*
X126300000Y-105361928D01*
X124700000Y-105361928D01*
X124575518Y-105374188D01*
X124455820Y-105410498D01*
X124345506Y-105469463D01*
X124248815Y-105548815D01*
X124169463Y-105645506D01*
X124110498Y-105755820D01*
X124074188Y-105875518D01*
X124061928Y-106000000D01*
X124061928Y-107000000D01*
X124074188Y-107124482D01*
X124110498Y-107244180D01*
X124169463Y-107354494D01*
X124248815Y-107451185D01*
X124345506Y-107530537D01*
X124455820Y-107589502D01*
X124575518Y-107625812D01*
X124700000Y-107638072D01*
X125783271Y-107638072D01*
X126532451Y-108387252D01*
X126500000Y-108397096D01*
X126424482Y-108374188D01*
X126300000Y-108361928D01*
X125785750Y-108365000D01*
X125627000Y-108523750D01*
X125627000Y-109373000D01*
X125647000Y-109373000D01*
X125647000Y-109627000D01*
X125627000Y-109627000D01*
X125627000Y-110476250D01*
X125785750Y-110635000D01*
X126300000Y-110638072D01*
X126424482Y-110625812D01*
X126500000Y-110602904D01*
X126575518Y-110625812D01*
X126700000Y-110638072D01*
X128300000Y-110638072D01*
X128424482Y-110625812D01*
X128544180Y-110589502D01*
X128654494Y-110530537D01*
X128751185Y-110451185D01*
X128815001Y-110373425D01*
X128815000Y-110815000D01*
X124185000Y-110815000D01*
X124185000Y-110373426D01*
X124248815Y-110451185D01*
X124345506Y-110530537D01*
X124455820Y-110589502D01*
X124575518Y-110625812D01*
X124700000Y-110638072D01*
X125214250Y-110635000D01*
X125373000Y-110476250D01*
X125373000Y-109627000D01*
X125353000Y-109627000D01*
X125353000Y-109373000D01*
X125373000Y-109373000D01*
X125373000Y-108523750D01*
X125214250Y-108365000D01*
X124700000Y-108361928D01*
X124575518Y-108374188D01*
X124455820Y-108410498D01*
X124345506Y-108469463D01*
X124248815Y-108548815D01*
X124169463Y-108645506D01*
X124110498Y-108755820D01*
X124074188Y-108875518D01*
X124061928Y-109000000D01*
X124065000Y-109214250D01*
X124223748Y-109372998D01*
X124065000Y-109372998D01*
X124065000Y-109483278D01*
X124063489Y-109480436D01*
X124017077Y-109394598D01*
X123982350Y-109343115D01*
X123948364Y-109291179D01*
X123942320Y-109283767D01*
X123880118Y-109208579D01*
X123836051Y-109164818D01*
X123792630Y-109120478D01*
X123785261Y-109114381D01*
X123709640Y-109052706D01*
X123657959Y-109018368D01*
X123606694Y-108983267D01*
X123598281Y-108978718D01*
X123512120Y-108932906D01*
X123454704Y-108909242D01*
X123397661Y-108884792D01*
X123388525Y-108881964D01*
X123295107Y-108853759D01*
X123234195Y-108841698D01*
X123173471Y-108828791D01*
X123163959Y-108827791D01*
X123066841Y-108818269D01*
X123066837Y-108818269D01*
X123033647Y-108815000D01*
X120966353Y-108815000D01*
X120937399Y-108817852D01*
X120934427Y-108817831D01*
X120924909Y-108818764D01*
X120876790Y-108823821D01*
X120865717Y-108824912D01*
X120865348Y-108825024D01*
X120827860Y-108828964D01*
X120767017Y-108841453D01*
X120706058Y-108853082D01*
X120696902Y-108855846D01*
X120603683Y-108884702D01*
X120546434Y-108908768D01*
X120488881Y-108932021D01*
X120480436Y-108936511D01*
X120394598Y-108982923D01*
X120343115Y-109017650D01*
X120291179Y-109051636D01*
X120283767Y-109057680D01*
X120208579Y-109119882D01*
X120164818Y-109163949D01*
X120120478Y-109207370D01*
X120114381Y-109214739D01*
X120052706Y-109290360D01*
X120018368Y-109342041D01*
X119983267Y-109393306D01*
X119978718Y-109401719D01*
X119938072Y-109478164D01*
X119938072Y-109000000D01*
X119925812Y-108875518D01*
X119889502Y-108755820D01*
X119830537Y-108645506D01*
X119751185Y-108548815D01*
X119654494Y-108469463D01*
X119544180Y-108410498D01*
X119424482Y-108374188D01*
X119300000Y-108361928D01*
X119260000Y-108361928D01*
X119260000Y-108322334D01*
X119263677Y-108285001D01*
X119258523Y-108232667D01*
X119249003Y-108136015D01*
X119205546Y-107992754D01*
X119134974Y-107860725D01*
X119040001Y-107745000D01*
X119011003Y-107721202D01*
X118927873Y-107638072D01*
X119300000Y-107638072D01*
X119424482Y-107625812D01*
X119544180Y-107589502D01*
X119654494Y-107530537D01*
X119751185Y-107451185D01*
X119830537Y-107354494D01*
X119889502Y-107244180D01*
X119925812Y-107124482D01*
X119938072Y-107000000D01*
X119938072Y-106000000D01*
X119925812Y-105875518D01*
X119889502Y-105755820D01*
X119830537Y-105645506D01*
X119751185Y-105548815D01*
X119654494Y-105469463D01*
X119544180Y-105410498D01*
X119424482Y-105374188D01*
X119300000Y-105361928D01*
X119260000Y-105361928D01*
X119260000Y-103764801D01*
X119389049Y-103635753D01*
X126747159Y-103635753D01*
X126742497Y-103683084D01*
G37*
X126742497Y-103683084D02*
X126736324Y-103745763D01*
X126740001Y-103783095D01*
X126740000Y-105361928D01*
X126700000Y-105361928D01*
X126575518Y-105374188D01*
X126500000Y-105397096D01*
X126424482Y-105374188D01*
X126300000Y-105361928D01*
X124700000Y-105361928D01*
X124575518Y-105374188D01*
X124455820Y-105410498D01*
X124345506Y-105469463D01*
X124248815Y-105548815D01*
X124169463Y-105645506D01*
X124110498Y-105755820D01*
X124074188Y-105875518D01*
X124061928Y-106000000D01*
X124061928Y-107000000D01*
X124074188Y-107124482D01*
X124110498Y-107244180D01*
X124169463Y-107354494D01*
X124248815Y-107451185D01*
X124345506Y-107530537D01*
X124455820Y-107589502D01*
X124575518Y-107625812D01*
X124700000Y-107638072D01*
X125783271Y-107638072D01*
X126532451Y-108387252D01*
X126500000Y-108397096D01*
X126424482Y-108374188D01*
X126300000Y-108361928D01*
X125785750Y-108365000D01*
X125627000Y-108523750D01*
X125627000Y-109373000D01*
X125647000Y-109373000D01*
X125647000Y-109627000D01*
X125627000Y-109627000D01*
X125627000Y-110476250D01*
X125785750Y-110635000D01*
X126300000Y-110638072D01*
X126424482Y-110625812D01*
X126500000Y-110602904D01*
X126575518Y-110625812D01*
X126700000Y-110638072D01*
X128300000Y-110638072D01*
X128424482Y-110625812D01*
X128544180Y-110589502D01*
X128654494Y-110530537D01*
X128751185Y-110451185D01*
X128815001Y-110373425D01*
X128815000Y-110815000D01*
X124185000Y-110815000D01*
X124185000Y-110373426D01*
X124248815Y-110451185D01*
X124345506Y-110530537D01*
X124455820Y-110589502D01*
X124575518Y-110625812D01*
X124700000Y-110638072D01*
X125214250Y-110635000D01*
X125373000Y-110476250D01*
X125373000Y-109627000D01*
X125353000Y-109627000D01*
X125353000Y-109373000D01*
X125373000Y-109373000D01*
X125373000Y-108523750D01*
X125214250Y-108365000D01*
X124700000Y-108361928D01*
X124575518Y-108374188D01*
X124455820Y-108410498D01*
X124345506Y-108469463D01*
X124248815Y-108548815D01*
X124169463Y-108645506D01*
X124110498Y-108755820D01*
X124074188Y-108875518D01*
X124061928Y-109000000D01*
X124065000Y-109214250D01*
X124223748Y-109372998D01*
X124065000Y-109372998D01*
X124065000Y-109483278D01*
X124063489Y-109480436D01*
X124017077Y-109394598D01*
X123982350Y-109343115D01*
X123948364Y-109291179D01*
X123942320Y-109283767D01*
X123880118Y-109208579D01*
X123836051Y-109164818D01*
X123792630Y-109120478D01*
X123785261Y-109114381D01*
X123709640Y-109052706D01*
X123657959Y-109018368D01*
X123606694Y-108983267D01*
X123598281Y-108978718D01*
X123512120Y-108932906D01*
X123454704Y-108909242D01*
X123397661Y-108884792D01*
X123388525Y-108881964D01*
X123295107Y-108853759D01*
X123234195Y-108841698D01*
X123173471Y-108828791D01*
X123163959Y-108827791D01*
X123066841Y-108818269D01*
X123066837Y-108818269D01*
X123033647Y-108815000D01*
X120966353Y-108815000D01*
X120937399Y-108817852D01*
X120934427Y-108817831D01*
X120924909Y-108818764D01*
X120876790Y-108823821D01*
X120865717Y-108824912D01*
X120865348Y-108825024D01*
X120827860Y-108828964D01*
X120767017Y-108841453D01*
X120706058Y-108853082D01*
X120696902Y-108855846D01*
X120603683Y-108884702D01*
X120546434Y-108908768D01*
X120488881Y-108932021D01*
X120480436Y-108936511D01*
X120394598Y-108982923D01*
X120343115Y-109017650D01*
X120291179Y-109051636D01*
X120283767Y-109057680D01*
X120208579Y-109119882D01*
X120164818Y-109163949D01*
X120120478Y-109207370D01*
X120114381Y-109214739D01*
X120052706Y-109290360D01*
X120018368Y-109342041D01*
X119983267Y-109393306D01*
X119978718Y-109401719D01*
X119938072Y-109478164D01*
X119938072Y-109000000D01*
X119925812Y-108875518D01*
X119889502Y-108755820D01*
X119830537Y-108645506D01*
X119751185Y-108548815D01*
X119654494Y-108469463D01*
X119544180Y-108410498D01*
X119424482Y-108374188D01*
X119300000Y-108361928D01*
X119260000Y-108361928D01*
X119260000Y-108322334D01*
X119263677Y-108285001D01*
X119258523Y-108232667D01*
X119249003Y-108136015D01*
X119205546Y-107992754D01*
X119134974Y-107860725D01*
X119040001Y-107745000D01*
X119011003Y-107721202D01*
X118927873Y-107638072D01*
X119300000Y-107638072D01*
X119424482Y-107625812D01*
X119544180Y-107589502D01*
X119654494Y-107530537D01*
X119751185Y-107451185D01*
X119830537Y-107354494D01*
X119889502Y-107244180D01*
X119925812Y-107124482D01*
X119938072Y-107000000D01*
X119938072Y-106000000D01*
X119925812Y-105875518D01*
X119889502Y-105755820D01*
X119830537Y-105645506D01*
X119751185Y-105548815D01*
X119654494Y-105469463D01*
X119544180Y-105410498D01*
X119424482Y-105374188D01*
X119300000Y-105361928D01*
X119260000Y-105361928D01*
X119260000Y-103764801D01*
X119389049Y-103635753D01*
X126747159Y-103635753D01*
X126742497Y-103683084D01*
G36*
X169061928Y-106000000D02*
G01*
X169061928Y-107000000D01*
X169074188Y-107124482D01*
X169110498Y-107244180D01*
X169169463Y-107354494D01*
X169248815Y-107451185D01*
X169345506Y-107530537D01*
X169455820Y-107589502D01*
X169575518Y-107625812D01*
X169700000Y-107638072D01*
X170788269Y-107638072D01*
X171536286Y-108386089D01*
X171500000Y-108397096D01*
X171424482Y-108374188D01*
X171300000Y-108361928D01*
X170785750Y-108365000D01*
X170627000Y-108523750D01*
X170627000Y-109373000D01*
X170647000Y-109373000D01*
X170647000Y-109627000D01*
X170627000Y-109627000D01*
X170627000Y-110476250D01*
X170785750Y-110635000D01*
X171300000Y-110638072D01*
X171424482Y-110625812D01*
X171500000Y-110602904D01*
X171575518Y-110625812D01*
X171700000Y-110638072D01*
X173300000Y-110638072D01*
X173424482Y-110625812D01*
X173544180Y-110589502D01*
X173654494Y-110530537D01*
X173751185Y-110451185D01*
X173815001Y-110373425D01*
X173815000Y-110815000D01*
X169185000Y-110815000D01*
X169185000Y-110373426D01*
X169248815Y-110451185D01*
X169345506Y-110530537D01*
X169455820Y-110589502D01*
X169575518Y-110625812D01*
X169700000Y-110638072D01*
X170214250Y-110635000D01*
X170373000Y-110476250D01*
X170373000Y-109627000D01*
X170353000Y-109627000D01*
X170353000Y-109373000D01*
X170373000Y-109373000D01*
X170373000Y-108523750D01*
X170214250Y-108365000D01*
X169700000Y-108361928D01*
X169575518Y-108374188D01*
X169455820Y-108410498D01*
X169345506Y-108469463D01*
X169248815Y-108548815D01*
X169169463Y-108645506D01*
X169110498Y-108755820D01*
X169074188Y-108875518D01*
X169061928Y-109000000D01*
X169065000Y-109214250D01*
X169223748Y-109372998D01*
X169065000Y-109372998D01*
X169065000Y-109483278D01*
X169063489Y-109480436D01*
X169017077Y-109394598D01*
X168982350Y-109343115D01*
X168948364Y-109291179D01*
X168942320Y-109283767D01*
X168880118Y-109208579D01*
X168836051Y-109164818D01*
X168792630Y-109120478D01*
X168785261Y-109114381D01*
X168709640Y-109052706D01*
X168657959Y-109018368D01*
X168606694Y-108983267D01*
X168598281Y-108978718D01*
X168512120Y-108932906D01*
X168454704Y-108909242D01*
X168397661Y-108884792D01*
X168388525Y-108881964D01*
X168295107Y-108853759D01*
X168234195Y-108841698D01*
X168173471Y-108828791D01*
X168163959Y-108827791D01*
X168066841Y-108818269D01*
X168066837Y-108818269D01*
X168033647Y-108815000D01*
X165966353Y-108815000D01*
X165937399Y-108817852D01*
X165934427Y-108817831D01*
X165924909Y-108818764D01*
X165876790Y-108823821D01*
X165865717Y-108824912D01*
X165865348Y-108825024D01*
X165827860Y-108828964D01*
X165767017Y-108841453D01*
X165706058Y-108853082D01*
X165696902Y-108855846D01*
X165603683Y-108884702D01*
X165546434Y-108908768D01*
X165488881Y-108932021D01*
X165480436Y-108936511D01*
X165394598Y-108982923D01*
X165343115Y-109017650D01*
X165291179Y-109051636D01*
X165283767Y-109057680D01*
X165208579Y-109119882D01*
X165164818Y-109163949D01*
X165120478Y-109207370D01*
X165114381Y-109214739D01*
X165052706Y-109290360D01*
X165018368Y-109342041D01*
X164983267Y-109393306D01*
X164978718Y-109401719D01*
X164938072Y-109478164D01*
X164938072Y-109000000D01*
X164925812Y-108875518D01*
X164889502Y-108755820D01*
X164830537Y-108645506D01*
X164751185Y-108548815D01*
X164654494Y-108469463D01*
X164544180Y-108410498D01*
X164424482Y-108374188D01*
X164300000Y-108361928D01*
X164260000Y-108361928D01*
X164260000Y-108297323D01*
X164263676Y-108260000D01*
X164260000Y-108222677D01*
X164260000Y-108222667D01*
X164249003Y-108111014D01*
X164205546Y-107967753D01*
X164134974Y-107835724D01*
X164040001Y-107719999D01*
X164011003Y-107696201D01*
X163952874Y-107638072D01*
X164300000Y-107638072D01*
X164424482Y-107625812D01*
X164544180Y-107589502D01*
X164654494Y-107530537D01*
X164751185Y-107451185D01*
X164830537Y-107354494D01*
X164889502Y-107244180D01*
X164925812Y-107124482D01*
X164938072Y-107000000D01*
X164938072Y-106000000D01*
X164926825Y-105885801D01*
X169073175Y-105885800D01*
X169061928Y-106000000D01*
G37*
X169061928Y-106000000D02*
X169061928Y-107000000D01*
X169074188Y-107124482D01*
X169110498Y-107244180D01*
X169169463Y-107354494D01*
X169248815Y-107451185D01*
X169345506Y-107530537D01*
X169455820Y-107589502D01*
X169575518Y-107625812D01*
X169700000Y-107638072D01*
X170788269Y-107638072D01*
X171536286Y-108386089D01*
X171500000Y-108397096D01*
X171424482Y-108374188D01*
X171300000Y-108361928D01*
X170785750Y-108365000D01*
X170627000Y-108523750D01*
X170627000Y-109373000D01*
X170647000Y-109373000D01*
X170647000Y-109627000D01*
X170627000Y-109627000D01*
X170627000Y-110476250D01*
X170785750Y-110635000D01*
X171300000Y-110638072D01*
X171424482Y-110625812D01*
X171500000Y-110602904D01*
X171575518Y-110625812D01*
X171700000Y-110638072D01*
X173300000Y-110638072D01*
X173424482Y-110625812D01*
X173544180Y-110589502D01*
X173654494Y-110530537D01*
X173751185Y-110451185D01*
X173815001Y-110373425D01*
X173815000Y-110815000D01*
X169185000Y-110815000D01*
X169185000Y-110373426D01*
X169248815Y-110451185D01*
X169345506Y-110530537D01*
X169455820Y-110589502D01*
X169575518Y-110625812D01*
X169700000Y-110638072D01*
X170214250Y-110635000D01*
X170373000Y-110476250D01*
X170373000Y-109627000D01*
X170353000Y-109627000D01*
X170353000Y-109373000D01*
X170373000Y-109373000D01*
X170373000Y-108523750D01*
X170214250Y-108365000D01*
X169700000Y-108361928D01*
X169575518Y-108374188D01*
X169455820Y-108410498D01*
X169345506Y-108469463D01*
X169248815Y-108548815D01*
X169169463Y-108645506D01*
X169110498Y-108755820D01*
X169074188Y-108875518D01*
X169061928Y-109000000D01*
X169065000Y-109214250D01*
X169223748Y-109372998D01*
X169065000Y-109372998D01*
X169065000Y-109483278D01*
X169063489Y-109480436D01*
X169017077Y-109394598D01*
X168982350Y-109343115D01*
X168948364Y-109291179D01*
X168942320Y-109283767D01*
X168880118Y-109208579D01*
X168836051Y-109164818D01*
X168792630Y-109120478D01*
X168785261Y-109114381D01*
X168709640Y-109052706D01*
X168657959Y-109018368D01*
X168606694Y-108983267D01*
X168598281Y-108978718D01*
X168512120Y-108932906D01*
X168454704Y-108909242D01*
X168397661Y-108884792D01*
X168388525Y-108881964D01*
X168295107Y-108853759D01*
X168234195Y-108841698D01*
X168173471Y-108828791D01*
X168163959Y-108827791D01*
X168066841Y-108818269D01*
X168066837Y-108818269D01*
X168033647Y-108815000D01*
X165966353Y-108815000D01*
X165937399Y-108817852D01*
X165934427Y-108817831D01*
X165924909Y-108818764D01*
X165876790Y-108823821D01*
X165865717Y-108824912D01*
X165865348Y-108825024D01*
X165827860Y-108828964D01*
X165767017Y-108841453D01*
X165706058Y-108853082D01*
X165696902Y-108855846D01*
X165603683Y-108884702D01*
X165546434Y-108908768D01*
X165488881Y-108932021D01*
X165480436Y-108936511D01*
X165394598Y-108982923D01*
X165343115Y-109017650D01*
X165291179Y-109051636D01*
X165283767Y-109057680D01*
X165208579Y-109119882D01*
X165164818Y-109163949D01*
X165120478Y-109207370D01*
X165114381Y-109214739D01*
X165052706Y-109290360D01*
X165018368Y-109342041D01*
X164983267Y-109393306D01*
X164978718Y-109401719D01*
X164938072Y-109478164D01*
X164938072Y-109000000D01*
X164925812Y-108875518D01*
X164889502Y-108755820D01*
X164830537Y-108645506D01*
X164751185Y-108548815D01*
X164654494Y-108469463D01*
X164544180Y-108410498D01*
X164424482Y-108374188D01*
X164300000Y-108361928D01*
X164260000Y-108361928D01*
X164260000Y-108297323D01*
X164263676Y-108260000D01*
X164260000Y-108222677D01*
X164260000Y-108222667D01*
X164249003Y-108111014D01*
X164205546Y-107967753D01*
X164134974Y-107835724D01*
X164040001Y-107719999D01*
X164011003Y-107696201D01*
X163952874Y-107638072D01*
X164300000Y-107638072D01*
X164424482Y-107625812D01*
X164544180Y-107589502D01*
X164654494Y-107530537D01*
X164751185Y-107451185D01*
X164830537Y-107354494D01*
X164889502Y-107244180D01*
X164925812Y-107124482D01*
X164938072Y-107000000D01*
X164938072Y-106000000D01*
X164926825Y-105885801D01*
X169073175Y-105885800D01*
X169061928Y-106000000D01*
G36*
X135741529Y-104122927D02*
G01*
X135736324Y-104175773D01*
X135740001Y-104213105D01*
X135740000Y-105361928D01*
X135700000Y-105361928D01*
X135575518Y-105374188D01*
X135500000Y-105397096D01*
X135424482Y-105374188D01*
X135300000Y-105361928D01*
X133700000Y-105361928D01*
X133575518Y-105374188D01*
X133455820Y-105410498D01*
X133345506Y-105469463D01*
X133248815Y-105548815D01*
X133169463Y-105645506D01*
X133110498Y-105755820D01*
X133074188Y-105875518D01*
X133061928Y-106000000D01*
X133061928Y-107000000D01*
X133074188Y-107124482D01*
X133110498Y-107244180D01*
X133169463Y-107354494D01*
X133248815Y-107451185D01*
X133345506Y-107530537D01*
X133455820Y-107589502D01*
X133575518Y-107625812D01*
X133700000Y-107638072D01*
X134793271Y-107638072D01*
X135540123Y-108384925D01*
X135500000Y-108397096D01*
X135424482Y-108374188D01*
X135300000Y-108361928D01*
X134785750Y-108365000D01*
X134627000Y-108523750D01*
X134627000Y-109373000D01*
X134647000Y-109373000D01*
X134647000Y-109627000D01*
X134627000Y-109627000D01*
X134627000Y-110476250D01*
X134785750Y-110635000D01*
X135300000Y-110638072D01*
X135424482Y-110625812D01*
X135500000Y-110602904D01*
X135575518Y-110625812D01*
X135700000Y-110638072D01*
X137300000Y-110638072D01*
X137424482Y-110625812D01*
X137544180Y-110589502D01*
X137654494Y-110530537D01*
X137751185Y-110451185D01*
X137815001Y-110373425D01*
X137815000Y-110815000D01*
X133185000Y-110815000D01*
X133185000Y-110373426D01*
X133248815Y-110451185D01*
X133345506Y-110530537D01*
X133455820Y-110589502D01*
X133575518Y-110625812D01*
X133700000Y-110638072D01*
X134214250Y-110635000D01*
X134373000Y-110476250D01*
X134373000Y-109627000D01*
X134353000Y-109627000D01*
X134353000Y-109373000D01*
X134373000Y-109373000D01*
X134373000Y-108523750D01*
X134214250Y-108365000D01*
X133700000Y-108361928D01*
X133575518Y-108374188D01*
X133455820Y-108410498D01*
X133345506Y-108469463D01*
X133248815Y-108548815D01*
X133169463Y-108645506D01*
X133110498Y-108755820D01*
X133074188Y-108875518D01*
X133061928Y-109000000D01*
X133065000Y-109214250D01*
X133223748Y-109372998D01*
X133065000Y-109372998D01*
X133065000Y-109483278D01*
X133063489Y-109480436D01*
X133017077Y-109394598D01*
X132982350Y-109343115D01*
X132948364Y-109291179D01*
X132942320Y-109283767D01*
X132880118Y-109208579D01*
X132836051Y-109164818D01*
X132792630Y-109120478D01*
X132785261Y-109114381D01*
X132709640Y-109052706D01*
X132657959Y-109018368D01*
X132606694Y-108983267D01*
X132598281Y-108978718D01*
X132512120Y-108932906D01*
X132454704Y-108909242D01*
X132397661Y-108884792D01*
X132388525Y-108881964D01*
X132295107Y-108853759D01*
X132234195Y-108841698D01*
X132173471Y-108828791D01*
X132163959Y-108827791D01*
X132066841Y-108818269D01*
X132066837Y-108818269D01*
X132033647Y-108815000D01*
X129966353Y-108815000D01*
X129937399Y-108817852D01*
X129934427Y-108817831D01*
X129924909Y-108818764D01*
X129876790Y-108823821D01*
X129865717Y-108824912D01*
X129865348Y-108825024D01*
X129827860Y-108828964D01*
X129767017Y-108841453D01*
X129706058Y-108853082D01*
X129696902Y-108855846D01*
X129603683Y-108884702D01*
X129546434Y-108908768D01*
X129488881Y-108932021D01*
X129480436Y-108936511D01*
X129394598Y-108982923D01*
X129343115Y-109017650D01*
X129291179Y-109051636D01*
X129283767Y-109057680D01*
X129208579Y-109119882D01*
X129164818Y-109163949D01*
X129120478Y-109207370D01*
X129114381Y-109214739D01*
X129052706Y-109290360D01*
X129018368Y-109342041D01*
X128983267Y-109393306D01*
X128978718Y-109401719D01*
X128938072Y-109478164D01*
X128938072Y-109000000D01*
X128925812Y-108875518D01*
X128889502Y-108755820D01*
X128830537Y-108645506D01*
X128751185Y-108548815D01*
X128654494Y-108469463D01*
X128544180Y-108410498D01*
X128424482Y-108374188D01*
X128300000Y-108361928D01*
X128260000Y-108361928D01*
X128260000Y-108317322D01*
X128263676Y-108279999D01*
X128260000Y-108242676D01*
X128260000Y-108242667D01*
X128249003Y-108131014D01*
X128205546Y-107987753D01*
X128151010Y-107885724D01*
X128134974Y-107855723D01*
X128063799Y-107768997D01*
X128040001Y-107739999D01*
X128011003Y-107716201D01*
X127932874Y-107638072D01*
X128300000Y-107638072D01*
X128424482Y-107625812D01*
X128544180Y-107589502D01*
X128654494Y-107530537D01*
X128751185Y-107451185D01*
X128830537Y-107354494D01*
X128889502Y-107244180D01*
X128925812Y-107124482D01*
X128938072Y-107000000D01*
X128938072Y-106000000D01*
X128925812Y-105875518D01*
X128889502Y-105755820D01*
X128830537Y-105645506D01*
X128751185Y-105548815D01*
X128654494Y-105469463D01*
X128544180Y-105410498D01*
X128424482Y-105374188D01*
X128300000Y-105361928D01*
X128260000Y-105361928D01*
X128260000Y-104085763D01*
X135745189Y-104085763D01*
X135741529Y-104122927D01*
G37*
X135741529Y-104122927D02*
X135736324Y-104175773D01*
X135740001Y-104213105D01*
X135740000Y-105361928D01*
X135700000Y-105361928D01*
X135575518Y-105374188D01*
X135500000Y-105397096D01*
X135424482Y-105374188D01*
X135300000Y-105361928D01*
X133700000Y-105361928D01*
X133575518Y-105374188D01*
X133455820Y-105410498D01*
X133345506Y-105469463D01*
X133248815Y-105548815D01*
X133169463Y-105645506D01*
X133110498Y-105755820D01*
X133074188Y-105875518D01*
X133061928Y-106000000D01*
X133061928Y-107000000D01*
X133074188Y-107124482D01*
X133110498Y-107244180D01*
X133169463Y-107354494D01*
X133248815Y-107451185D01*
X133345506Y-107530537D01*
X133455820Y-107589502D01*
X133575518Y-107625812D01*
X133700000Y-107638072D01*
X134793271Y-107638072D01*
X135540123Y-108384925D01*
X135500000Y-108397096D01*
X135424482Y-108374188D01*
X135300000Y-108361928D01*
X134785750Y-108365000D01*
X134627000Y-108523750D01*
X134627000Y-109373000D01*
X134647000Y-109373000D01*
X134647000Y-109627000D01*
X134627000Y-109627000D01*
X134627000Y-110476250D01*
X134785750Y-110635000D01*
X135300000Y-110638072D01*
X135424482Y-110625812D01*
X135500000Y-110602904D01*
X135575518Y-110625812D01*
X135700000Y-110638072D01*
X137300000Y-110638072D01*
X137424482Y-110625812D01*
X137544180Y-110589502D01*
X137654494Y-110530537D01*
X137751185Y-110451185D01*
X137815001Y-110373425D01*
X137815000Y-110815000D01*
X133185000Y-110815000D01*
X133185000Y-110373426D01*
X133248815Y-110451185D01*
X133345506Y-110530537D01*
X133455820Y-110589502D01*
X133575518Y-110625812D01*
X133700000Y-110638072D01*
X134214250Y-110635000D01*
X134373000Y-110476250D01*
X134373000Y-109627000D01*
X134353000Y-109627000D01*
X134353000Y-109373000D01*
X134373000Y-109373000D01*
X134373000Y-108523750D01*
X134214250Y-108365000D01*
X133700000Y-108361928D01*
X133575518Y-108374188D01*
X133455820Y-108410498D01*
X133345506Y-108469463D01*
X133248815Y-108548815D01*
X133169463Y-108645506D01*
X133110498Y-108755820D01*
X133074188Y-108875518D01*
X133061928Y-109000000D01*
X133065000Y-109214250D01*
X133223748Y-109372998D01*
X133065000Y-109372998D01*
X133065000Y-109483278D01*
X133063489Y-109480436D01*
X133017077Y-109394598D01*
X132982350Y-109343115D01*
X132948364Y-109291179D01*
X132942320Y-109283767D01*
X132880118Y-109208579D01*
X132836051Y-109164818D01*
X132792630Y-109120478D01*
X132785261Y-109114381D01*
X132709640Y-109052706D01*
X132657959Y-109018368D01*
X132606694Y-108983267D01*
X132598281Y-108978718D01*
X132512120Y-108932906D01*
X132454704Y-108909242D01*
X132397661Y-108884792D01*
X132388525Y-108881964D01*
X132295107Y-108853759D01*
X132234195Y-108841698D01*
X132173471Y-108828791D01*
X132163959Y-108827791D01*
X132066841Y-108818269D01*
X132066837Y-108818269D01*
X132033647Y-108815000D01*
X129966353Y-108815000D01*
X129937399Y-108817852D01*
X129934427Y-108817831D01*
X129924909Y-108818764D01*
X129876790Y-108823821D01*
X129865717Y-108824912D01*
X129865348Y-108825024D01*
X129827860Y-108828964D01*
X129767017Y-108841453D01*
X129706058Y-108853082D01*
X129696902Y-108855846D01*
X129603683Y-108884702D01*
X129546434Y-108908768D01*
X129488881Y-108932021D01*
X129480436Y-108936511D01*
X129394598Y-108982923D01*
X129343115Y-109017650D01*
X129291179Y-109051636D01*
X129283767Y-109057680D01*
X129208579Y-109119882D01*
X129164818Y-109163949D01*
X129120478Y-109207370D01*
X129114381Y-109214739D01*
X129052706Y-109290360D01*
X129018368Y-109342041D01*
X128983267Y-109393306D01*
X128978718Y-109401719D01*
X128938072Y-109478164D01*
X128938072Y-109000000D01*
X128925812Y-108875518D01*
X128889502Y-108755820D01*
X128830537Y-108645506D01*
X128751185Y-108548815D01*
X128654494Y-108469463D01*
X128544180Y-108410498D01*
X128424482Y-108374188D01*
X128300000Y-108361928D01*
X128260000Y-108361928D01*
X128260000Y-108317322D01*
X128263676Y-108279999D01*
X128260000Y-108242676D01*
X128260000Y-108242667D01*
X128249003Y-108131014D01*
X128205546Y-107987753D01*
X128151010Y-107885724D01*
X128134974Y-107855723D01*
X128063799Y-107768997D01*
X128040001Y-107739999D01*
X128011003Y-107716201D01*
X127932874Y-107638072D01*
X128300000Y-107638072D01*
X128424482Y-107625812D01*
X128544180Y-107589502D01*
X128654494Y-107530537D01*
X128751185Y-107451185D01*
X128830537Y-107354494D01*
X128889502Y-107244180D01*
X128925812Y-107124482D01*
X128938072Y-107000000D01*
X128938072Y-106000000D01*
X128925812Y-105875518D01*
X128889502Y-105755820D01*
X128830537Y-105645506D01*
X128751185Y-105548815D01*
X128654494Y-105469463D01*
X128544180Y-105410498D01*
X128424482Y-105374188D01*
X128300000Y-105361928D01*
X128260000Y-105361928D01*
X128260000Y-104085763D01*
X135745189Y-104085763D01*
X135741529Y-104122927D01*
G36*
X115700000Y-107638072D02*
G01*
X116778270Y-107638072D01*
X117528614Y-108388416D01*
X117500000Y-108397096D01*
X117424482Y-108374188D01*
X117300000Y-108361928D01*
X116785750Y-108365000D01*
X116627000Y-108523750D01*
X116627000Y-109373000D01*
X116647000Y-109373000D01*
X116647000Y-109627000D01*
X116627000Y-109627000D01*
X116627000Y-110476250D01*
X116785750Y-110635000D01*
X117300000Y-110638072D01*
X117424482Y-110625812D01*
X117500000Y-110602904D01*
X117575518Y-110625812D01*
X117700000Y-110638072D01*
X119300000Y-110638072D01*
X119424482Y-110625812D01*
X119544180Y-110589502D01*
X119654494Y-110530537D01*
X119751185Y-110451185D01*
X119815001Y-110373425D01*
X119815000Y-110815000D01*
X115685000Y-110815000D01*
X115685000Y-110636595D01*
X115700000Y-110638072D01*
X116214250Y-110635000D01*
X116373000Y-110476250D01*
X116373000Y-109627000D01*
X116353000Y-109627000D01*
X116353000Y-109373000D01*
X116373000Y-109373000D01*
X116373000Y-108523750D01*
X116214250Y-108365000D01*
X115700000Y-108361928D01*
X115685000Y-108363405D01*
X115685000Y-107636595D01*
X115700000Y-107638072D01*
G37*
X115700000Y-107638072D02*
X116778270Y-107638072D01*
X117528614Y-108388416D01*
X117500000Y-108397096D01*
X117424482Y-108374188D01*
X117300000Y-108361928D01*
X116785750Y-108365000D01*
X116627000Y-108523750D01*
X116627000Y-109373000D01*
X116647000Y-109373000D01*
X116647000Y-109627000D01*
X116627000Y-109627000D01*
X116627000Y-110476250D01*
X116785750Y-110635000D01*
X117300000Y-110638072D01*
X117424482Y-110625812D01*
X117500000Y-110602904D01*
X117575518Y-110625812D01*
X117700000Y-110638072D01*
X119300000Y-110638072D01*
X119424482Y-110625812D01*
X119544180Y-110589502D01*
X119654494Y-110530537D01*
X119751185Y-110451185D01*
X119815001Y-110373425D01*
X119815000Y-110815000D01*
X115685000Y-110815000D01*
X115685000Y-110636595D01*
X115700000Y-110638072D01*
X116214250Y-110635000D01*
X116373000Y-110476250D01*
X116373000Y-109627000D01*
X116353000Y-109627000D01*
X116353000Y-109373000D01*
X116373000Y-109373000D01*
X116373000Y-108523750D01*
X116214250Y-108365000D01*
X115700000Y-108361928D01*
X115685000Y-108363405D01*
X115685000Y-107636595D01*
X115700000Y-107638072D01*
G36*
X153736324Y-105065792D02*
G01*
X153740001Y-105103124D01*
X153740001Y-105361928D01*
X153700000Y-105361928D01*
X153575518Y-105374188D01*
X153500000Y-105397096D01*
X153424482Y-105374188D01*
X153300000Y-105361928D01*
X151700000Y-105361928D01*
X151575518Y-105374188D01*
X151455820Y-105410498D01*
X151345506Y-105469463D01*
X151248815Y-105548815D01*
X151169463Y-105645506D01*
X151110498Y-105755820D01*
X151074188Y-105875518D01*
X151061928Y-106000000D01*
X151061928Y-107000000D01*
X151074188Y-107124482D01*
X151110498Y-107244180D01*
X151169463Y-107354494D01*
X151248815Y-107451185D01*
X151345506Y-107530537D01*
X151455820Y-107589502D01*
X151575518Y-107625812D01*
X151700000Y-107638072D01*
X152783271Y-107638072D01*
X153532451Y-108387252D01*
X153500000Y-108397096D01*
X153424482Y-108374188D01*
X153300000Y-108361928D01*
X152785750Y-108365000D01*
X152627000Y-108523750D01*
X152627000Y-109373000D01*
X152647000Y-109373000D01*
X152647000Y-109627000D01*
X152627000Y-109627000D01*
X152627000Y-110476250D01*
X152785750Y-110635000D01*
X153300000Y-110638072D01*
X153424482Y-110625812D01*
X153500000Y-110602904D01*
X153575518Y-110625812D01*
X153700000Y-110638072D01*
X155300000Y-110638072D01*
X155424482Y-110625812D01*
X155544180Y-110589502D01*
X155654494Y-110530537D01*
X155751185Y-110451185D01*
X155815001Y-110373425D01*
X155815000Y-110815000D01*
X151185000Y-110815000D01*
X151185000Y-110373426D01*
X151248815Y-110451185D01*
X151345506Y-110530537D01*
X151455820Y-110589502D01*
X151575518Y-110625812D01*
X151700000Y-110638072D01*
X152214250Y-110635000D01*
X152373000Y-110476250D01*
X152373000Y-109627000D01*
X152353000Y-109627000D01*
X152353000Y-109373000D01*
X152373000Y-109373000D01*
X152373000Y-108523750D01*
X152214250Y-108365000D01*
X151700000Y-108361928D01*
X151575518Y-108374188D01*
X151455820Y-108410498D01*
X151345506Y-108469463D01*
X151248815Y-108548815D01*
X151169463Y-108645506D01*
X151110498Y-108755820D01*
X151074188Y-108875518D01*
X151061928Y-109000000D01*
X151065000Y-109214250D01*
X151223748Y-109372998D01*
X151065000Y-109372998D01*
X151065000Y-109483278D01*
X151063489Y-109480436D01*
X151017077Y-109394598D01*
X150982350Y-109343115D01*
X150948364Y-109291179D01*
X150942320Y-109283767D01*
X150880118Y-109208579D01*
X150836051Y-109164818D01*
X150792630Y-109120478D01*
X150785261Y-109114381D01*
X150709640Y-109052706D01*
X150657959Y-109018368D01*
X150606694Y-108983267D01*
X150598281Y-108978718D01*
X150512120Y-108932906D01*
X150454704Y-108909242D01*
X150397661Y-108884792D01*
X150388525Y-108881964D01*
X150295107Y-108853759D01*
X150234195Y-108841698D01*
X150173471Y-108828791D01*
X150163959Y-108827791D01*
X150066841Y-108818269D01*
X150066837Y-108818269D01*
X150033647Y-108815000D01*
X147966353Y-108815000D01*
X147937399Y-108817852D01*
X147934427Y-108817831D01*
X147924909Y-108818764D01*
X147876790Y-108823821D01*
X147865717Y-108824912D01*
X147865348Y-108825024D01*
X147827860Y-108828964D01*
X147767017Y-108841453D01*
X147706058Y-108853082D01*
X147696902Y-108855846D01*
X147603683Y-108884702D01*
X147546434Y-108908768D01*
X147488881Y-108932021D01*
X147480436Y-108936511D01*
X147394598Y-108982923D01*
X147343115Y-109017650D01*
X147291179Y-109051636D01*
X147283767Y-109057680D01*
X147208579Y-109119882D01*
X147164818Y-109163949D01*
X147120478Y-109207370D01*
X147114381Y-109214739D01*
X147052706Y-109290360D01*
X147018368Y-109342041D01*
X146983267Y-109393306D01*
X146978718Y-109401719D01*
X146938072Y-109478164D01*
X146938072Y-109000000D01*
X146925812Y-108875518D01*
X146889502Y-108755820D01*
X146830537Y-108645506D01*
X146751185Y-108548815D01*
X146654494Y-108469463D01*
X146544180Y-108410498D01*
X146424482Y-108374188D01*
X146300000Y-108361928D01*
X146260000Y-108361928D01*
X146260000Y-108347333D01*
X146263677Y-108310000D01*
X146249003Y-108161014D01*
X146205546Y-108017753D01*
X146134974Y-107885724D01*
X146063799Y-107798997D01*
X146040001Y-107769999D01*
X146011003Y-107746201D01*
X145902874Y-107638072D01*
X146300000Y-107638072D01*
X146424482Y-107625812D01*
X146544180Y-107589502D01*
X146654494Y-107530537D01*
X146751185Y-107451185D01*
X146830537Y-107354494D01*
X146889502Y-107244180D01*
X146925812Y-107124482D01*
X146938072Y-107000000D01*
X146938072Y-106000000D01*
X146925812Y-105875518D01*
X146889502Y-105755820D01*
X146830537Y-105645506D01*
X146751185Y-105548815D01*
X146654494Y-105469463D01*
X146544180Y-105410498D01*
X146424482Y-105374188D01*
X146300000Y-105361928D01*
X146260000Y-105361928D01*
X146260000Y-105010584D01*
X146284802Y-104985783D01*
X153744204Y-104985783D01*
X153736324Y-105065792D01*
G37*
X153736324Y-105065792D02*
X153740001Y-105103124D01*
X153740001Y-105361928D01*
X153700000Y-105361928D01*
X153575518Y-105374188D01*
X153500000Y-105397096D01*
X153424482Y-105374188D01*
X153300000Y-105361928D01*
X151700000Y-105361928D01*
X151575518Y-105374188D01*
X151455820Y-105410498D01*
X151345506Y-105469463D01*
X151248815Y-105548815D01*
X151169463Y-105645506D01*
X151110498Y-105755820D01*
X151074188Y-105875518D01*
X151061928Y-106000000D01*
X151061928Y-107000000D01*
X151074188Y-107124482D01*
X151110498Y-107244180D01*
X151169463Y-107354494D01*
X151248815Y-107451185D01*
X151345506Y-107530537D01*
X151455820Y-107589502D01*
X151575518Y-107625812D01*
X151700000Y-107638072D01*
X152783271Y-107638072D01*
X153532451Y-108387252D01*
X153500000Y-108397096D01*
X153424482Y-108374188D01*
X153300000Y-108361928D01*
X152785750Y-108365000D01*
X152627000Y-108523750D01*
X152627000Y-109373000D01*
X152647000Y-109373000D01*
X152647000Y-109627000D01*
X152627000Y-109627000D01*
X152627000Y-110476250D01*
X152785750Y-110635000D01*
X153300000Y-110638072D01*
X153424482Y-110625812D01*
X153500000Y-110602904D01*
X153575518Y-110625812D01*
X153700000Y-110638072D01*
X155300000Y-110638072D01*
X155424482Y-110625812D01*
X155544180Y-110589502D01*
X155654494Y-110530537D01*
X155751185Y-110451185D01*
X155815001Y-110373425D01*
X155815000Y-110815000D01*
X151185000Y-110815000D01*
X151185000Y-110373426D01*
X151248815Y-110451185D01*
X151345506Y-110530537D01*
X151455820Y-110589502D01*
X151575518Y-110625812D01*
X151700000Y-110638072D01*
X152214250Y-110635000D01*
X152373000Y-110476250D01*
X152373000Y-109627000D01*
X152353000Y-109627000D01*
X152353000Y-109373000D01*
X152373000Y-109373000D01*
X152373000Y-108523750D01*
X152214250Y-108365000D01*
X151700000Y-108361928D01*
X151575518Y-108374188D01*
X151455820Y-108410498D01*
X151345506Y-108469463D01*
X151248815Y-108548815D01*
X151169463Y-108645506D01*
X151110498Y-108755820D01*
X151074188Y-108875518D01*
X151061928Y-109000000D01*
X151065000Y-109214250D01*
X151223748Y-109372998D01*
X151065000Y-109372998D01*
X151065000Y-109483278D01*
X151063489Y-109480436D01*
X151017077Y-109394598D01*
X150982350Y-109343115D01*
X150948364Y-109291179D01*
X150942320Y-109283767D01*
X150880118Y-109208579D01*
X150836051Y-109164818D01*
X150792630Y-109120478D01*
X150785261Y-109114381D01*
X150709640Y-109052706D01*
X150657959Y-109018368D01*
X150606694Y-108983267D01*
X150598281Y-108978718D01*
X150512120Y-108932906D01*
X150454704Y-108909242D01*
X150397661Y-108884792D01*
X150388525Y-108881964D01*
X150295107Y-108853759D01*
X150234195Y-108841698D01*
X150173471Y-108828791D01*
X150163959Y-108827791D01*
X150066841Y-108818269D01*
X150066837Y-108818269D01*
X150033647Y-108815000D01*
X147966353Y-108815000D01*
X147937399Y-108817852D01*
X147934427Y-108817831D01*
X147924909Y-108818764D01*
X147876790Y-108823821D01*
X147865717Y-108824912D01*
X147865348Y-108825024D01*
X147827860Y-108828964D01*
X147767017Y-108841453D01*
X147706058Y-108853082D01*
X147696902Y-108855846D01*
X147603683Y-108884702D01*
X147546434Y-108908768D01*
X147488881Y-108932021D01*
X147480436Y-108936511D01*
X147394598Y-108982923D01*
X147343115Y-109017650D01*
X147291179Y-109051636D01*
X147283767Y-109057680D01*
X147208579Y-109119882D01*
X147164818Y-109163949D01*
X147120478Y-109207370D01*
X147114381Y-109214739D01*
X147052706Y-109290360D01*
X147018368Y-109342041D01*
X146983267Y-109393306D01*
X146978718Y-109401719D01*
X146938072Y-109478164D01*
X146938072Y-109000000D01*
X146925812Y-108875518D01*
X146889502Y-108755820D01*
X146830537Y-108645506D01*
X146751185Y-108548815D01*
X146654494Y-108469463D01*
X146544180Y-108410498D01*
X146424482Y-108374188D01*
X146300000Y-108361928D01*
X146260000Y-108361928D01*
X146260000Y-108347333D01*
X146263677Y-108310000D01*
X146249003Y-108161014D01*
X146205546Y-108017753D01*
X146134974Y-107885724D01*
X146063799Y-107798997D01*
X146040001Y-107769999D01*
X146011003Y-107746201D01*
X145902874Y-107638072D01*
X146300000Y-107638072D01*
X146424482Y-107625812D01*
X146544180Y-107589502D01*
X146654494Y-107530537D01*
X146751185Y-107451185D01*
X146830537Y-107354494D01*
X146889502Y-107244180D01*
X146925812Y-107124482D01*
X146938072Y-107000000D01*
X146938072Y-106000000D01*
X146925812Y-105875518D01*
X146889502Y-105755820D01*
X146830537Y-105645506D01*
X146751185Y-105548815D01*
X146654494Y-105469463D01*
X146544180Y-105410498D01*
X146424482Y-105374188D01*
X146300000Y-105361928D01*
X146260000Y-105361928D01*
X146260000Y-105010584D01*
X146284802Y-104985783D01*
X153744204Y-104985783D01*
X153736324Y-105065792D01*
G36*
X160345506Y-105469463D02*
G01*
X160248815Y-105548815D01*
X160169463Y-105645506D01*
X160110498Y-105755820D01*
X160074188Y-105875518D01*
X160061928Y-106000000D01*
X160061928Y-107000000D01*
X160074188Y-107124482D01*
X160110498Y-107244180D01*
X160169463Y-107354494D01*
X160248815Y-107451185D01*
X160345506Y-107530537D01*
X160455820Y-107589502D01*
X160575518Y-107625812D01*
X160700000Y-107638072D01*
X161803271Y-107638072D01*
X162547796Y-108382597D01*
X162500000Y-108397096D01*
X162424482Y-108374188D01*
X162300000Y-108361928D01*
X161785750Y-108365000D01*
X161627000Y-108523750D01*
X161627000Y-109373000D01*
X161647000Y-109373000D01*
X161647000Y-109627000D01*
X161627000Y-109627000D01*
X161627000Y-110476250D01*
X161785750Y-110635000D01*
X162300000Y-110638072D01*
X162424482Y-110625812D01*
X162500000Y-110602904D01*
X162575518Y-110625812D01*
X162700000Y-110638072D01*
X164300000Y-110638072D01*
X164424482Y-110625812D01*
X164544180Y-110589502D01*
X164654494Y-110530537D01*
X164751185Y-110451185D01*
X164815001Y-110373425D01*
X164815000Y-110815000D01*
X160185000Y-110815000D01*
X160185000Y-110373426D01*
X160248815Y-110451185D01*
X160345506Y-110530537D01*
X160455820Y-110589502D01*
X160575518Y-110625812D01*
X160700000Y-110638072D01*
X161214250Y-110635000D01*
X161373000Y-110476250D01*
X161373000Y-109627000D01*
X161353000Y-109627000D01*
X161353000Y-109373000D01*
X161373000Y-109373000D01*
X161373000Y-108523750D01*
X161214250Y-108365000D01*
X160700000Y-108361928D01*
X160575518Y-108374188D01*
X160455820Y-108410498D01*
X160345506Y-108469463D01*
X160248815Y-108548815D01*
X160169463Y-108645506D01*
X160110498Y-108755820D01*
X160074188Y-108875518D01*
X160061928Y-109000000D01*
X160065000Y-109214250D01*
X160223748Y-109372998D01*
X160065000Y-109372998D01*
X160065000Y-109483278D01*
X160063489Y-109480436D01*
X160017077Y-109394598D01*
X159982350Y-109343115D01*
X159948364Y-109291179D01*
X159942320Y-109283767D01*
X159880118Y-109208579D01*
X159836051Y-109164818D01*
X159792630Y-109120478D01*
X159785261Y-109114381D01*
X159709640Y-109052706D01*
X159657959Y-109018368D01*
X159606694Y-108983267D01*
X159598281Y-108978718D01*
X159512120Y-108932906D01*
X159454704Y-108909242D01*
X159397661Y-108884792D01*
X159388525Y-108881964D01*
X159295107Y-108853759D01*
X159234195Y-108841698D01*
X159173471Y-108828791D01*
X159163959Y-108827791D01*
X159066841Y-108818269D01*
X159066837Y-108818269D01*
X159033647Y-108815000D01*
X156966353Y-108815000D01*
X156937399Y-108817852D01*
X156934427Y-108817831D01*
X156924909Y-108818764D01*
X156876790Y-108823821D01*
X156865717Y-108824912D01*
X156865348Y-108825024D01*
X156827860Y-108828964D01*
X156767017Y-108841453D01*
X156706058Y-108853082D01*
X156696902Y-108855846D01*
X156603683Y-108884702D01*
X156546434Y-108908768D01*
X156488881Y-108932021D01*
X156480436Y-108936511D01*
X156394598Y-108982923D01*
X156343115Y-109017650D01*
X156291179Y-109051636D01*
X156283767Y-109057680D01*
X156208579Y-109119882D01*
X156164818Y-109163949D01*
X156120478Y-109207370D01*
X156114381Y-109214739D01*
X156052706Y-109290360D01*
X156018368Y-109342041D01*
X155983267Y-109393306D01*
X155978718Y-109401719D01*
X155938072Y-109478164D01*
X155938072Y-109000000D01*
X155925812Y-108875518D01*
X155889502Y-108755820D01*
X155830537Y-108645506D01*
X155751185Y-108548815D01*
X155654494Y-108469463D01*
X155544180Y-108410498D01*
X155424482Y-108374188D01*
X155300000Y-108361928D01*
X155260000Y-108361928D01*
X155260000Y-108317322D01*
X155263676Y-108279999D01*
X155260000Y-108242676D01*
X155260000Y-108242667D01*
X155249003Y-108131014D01*
X155205546Y-107987753D01*
X155151010Y-107885724D01*
X155134974Y-107855723D01*
X155063799Y-107768997D01*
X155040001Y-107739999D01*
X155011003Y-107716201D01*
X154932874Y-107638072D01*
X155300000Y-107638072D01*
X155424482Y-107625812D01*
X155544180Y-107589502D01*
X155654494Y-107530537D01*
X155751185Y-107451185D01*
X155830537Y-107354494D01*
X155889502Y-107244180D01*
X155925812Y-107124482D01*
X155938072Y-107000000D01*
X155938072Y-106000000D01*
X155925812Y-105875518D01*
X155889502Y-105755820D01*
X155830537Y-105645506D01*
X155751185Y-105548815D01*
X155654494Y-105469463D01*
X155591499Y-105435791D01*
X160408501Y-105435791D01*
X160345506Y-105469463D01*
G37*
X160345506Y-105469463D02*
X160248815Y-105548815D01*
X160169463Y-105645506D01*
X160110498Y-105755820D01*
X160074188Y-105875518D01*
X160061928Y-106000000D01*
X160061928Y-107000000D01*
X160074188Y-107124482D01*
X160110498Y-107244180D01*
X160169463Y-107354494D01*
X160248815Y-107451185D01*
X160345506Y-107530537D01*
X160455820Y-107589502D01*
X160575518Y-107625812D01*
X160700000Y-107638072D01*
X161803271Y-107638072D01*
X162547796Y-108382597D01*
X162500000Y-108397096D01*
X162424482Y-108374188D01*
X162300000Y-108361928D01*
X161785750Y-108365000D01*
X161627000Y-108523750D01*
X161627000Y-109373000D01*
X161647000Y-109373000D01*
X161647000Y-109627000D01*
X161627000Y-109627000D01*
X161627000Y-110476250D01*
X161785750Y-110635000D01*
X162300000Y-110638072D01*
X162424482Y-110625812D01*
X162500000Y-110602904D01*
X162575518Y-110625812D01*
X162700000Y-110638072D01*
X164300000Y-110638072D01*
X164424482Y-110625812D01*
X164544180Y-110589502D01*
X164654494Y-110530537D01*
X164751185Y-110451185D01*
X164815001Y-110373425D01*
X164815000Y-110815000D01*
X160185000Y-110815000D01*
X160185000Y-110373426D01*
X160248815Y-110451185D01*
X160345506Y-110530537D01*
X160455820Y-110589502D01*
X160575518Y-110625812D01*
X160700000Y-110638072D01*
X161214250Y-110635000D01*
X161373000Y-110476250D01*
X161373000Y-109627000D01*
X161353000Y-109627000D01*
X161353000Y-109373000D01*
X161373000Y-109373000D01*
X161373000Y-108523750D01*
X161214250Y-108365000D01*
X160700000Y-108361928D01*
X160575518Y-108374188D01*
X160455820Y-108410498D01*
X160345506Y-108469463D01*
X160248815Y-108548815D01*
X160169463Y-108645506D01*
X160110498Y-108755820D01*
X160074188Y-108875518D01*
X160061928Y-109000000D01*
X160065000Y-109214250D01*
X160223748Y-109372998D01*
X160065000Y-109372998D01*
X160065000Y-109483278D01*
X160063489Y-109480436D01*
X160017077Y-109394598D01*
X159982350Y-109343115D01*
X159948364Y-109291179D01*
X159942320Y-109283767D01*
X159880118Y-109208579D01*
X159836051Y-109164818D01*
X159792630Y-109120478D01*
X159785261Y-109114381D01*
X159709640Y-109052706D01*
X159657959Y-109018368D01*
X159606694Y-108983267D01*
X159598281Y-108978718D01*
X159512120Y-108932906D01*
X159454704Y-108909242D01*
X159397661Y-108884792D01*
X159388525Y-108881964D01*
X159295107Y-108853759D01*
X159234195Y-108841698D01*
X159173471Y-108828791D01*
X159163959Y-108827791D01*
X159066841Y-108818269D01*
X159066837Y-108818269D01*
X159033647Y-108815000D01*
X156966353Y-108815000D01*
X156937399Y-108817852D01*
X156934427Y-108817831D01*
X156924909Y-108818764D01*
X156876790Y-108823821D01*
X156865717Y-108824912D01*
X156865348Y-108825024D01*
X156827860Y-108828964D01*
X156767017Y-108841453D01*
X156706058Y-108853082D01*
X156696902Y-108855846D01*
X156603683Y-108884702D01*
X156546434Y-108908768D01*
X156488881Y-108932021D01*
X156480436Y-108936511D01*
X156394598Y-108982923D01*
X156343115Y-109017650D01*
X156291179Y-109051636D01*
X156283767Y-109057680D01*
X156208579Y-109119882D01*
X156164818Y-109163949D01*
X156120478Y-109207370D01*
X156114381Y-109214739D01*
X156052706Y-109290360D01*
X156018368Y-109342041D01*
X155983267Y-109393306D01*
X155978718Y-109401719D01*
X155938072Y-109478164D01*
X155938072Y-109000000D01*
X155925812Y-108875518D01*
X155889502Y-108755820D01*
X155830537Y-108645506D01*
X155751185Y-108548815D01*
X155654494Y-108469463D01*
X155544180Y-108410498D01*
X155424482Y-108374188D01*
X155300000Y-108361928D01*
X155260000Y-108361928D01*
X155260000Y-108317322D01*
X155263676Y-108279999D01*
X155260000Y-108242676D01*
X155260000Y-108242667D01*
X155249003Y-108131014D01*
X155205546Y-107987753D01*
X155151010Y-107885724D01*
X155134974Y-107855723D01*
X155063799Y-107768997D01*
X155040001Y-107739999D01*
X155011003Y-107716201D01*
X154932874Y-107638072D01*
X155300000Y-107638072D01*
X155424482Y-107625812D01*
X155544180Y-107589502D01*
X155654494Y-107530537D01*
X155751185Y-107451185D01*
X155830537Y-107354494D01*
X155889502Y-107244180D01*
X155925812Y-107124482D01*
X155938072Y-107000000D01*
X155938072Y-106000000D01*
X155925812Y-105875518D01*
X155889502Y-105755820D01*
X155830537Y-105645506D01*
X155751185Y-105548815D01*
X155654494Y-105469463D01*
X155591499Y-105435791D01*
X160408501Y-105435791D01*
X160345506Y-105469463D01*
G36*
X114815000Y-100033646D02*
G01*
X114817852Y-100062600D01*
X114817831Y-100065573D01*
X114818764Y-100075092D01*
X114823824Y-100123233D01*
X114824912Y-100134282D01*
X114825024Y-100134650D01*
X114828964Y-100172140D01*
X114841455Y-100232990D01*
X114853082Y-100293942D01*
X114855845Y-100303096D01*
X114855847Y-100303102D01*
X114884702Y-100396317D01*
X114908754Y-100453533D01*
X114932020Y-100511119D01*
X114936510Y-100519564D01*
X114982923Y-100605401D01*
X115017638Y-100656867D01*
X115051636Y-100708821D01*
X115057680Y-100716232D01*
X115119882Y-100791421D01*
X115163930Y-100835162D01*
X115207369Y-100879522D01*
X115214739Y-100885618D01*
X115214744Y-100885623D01*
X115214750Y-100885627D01*
X115290360Y-100947294D01*
X115342041Y-100981632D01*
X115393306Y-101016733D01*
X115401719Y-101021282D01*
X115487880Y-101067094D01*
X115545296Y-101090758D01*
X115602339Y-101115208D01*
X115611475Y-101118036D01*
X115704893Y-101146241D01*
X115765813Y-101158303D01*
X115826530Y-101171209D01*
X115836042Y-101172209D01*
X115933159Y-101181731D01*
X115933163Y-101181731D01*
X115966353Y-101185000D01*
X119815000Y-101185000D01*
X119815001Y-102033647D01*
X119817852Y-102062591D01*
X119817831Y-102065573D01*
X119818764Y-102075092D01*
X119823038Y-102115753D01*
X119111570Y-102115753D01*
X119074247Y-102112077D01*
X119036924Y-102115753D01*
X119036914Y-102115753D01*
X118925261Y-102126750D01*
X118782000Y-102170207D01*
X118649970Y-102240779D01*
X118580142Y-102298086D01*
X118534246Y-102335752D01*
X118510447Y-102364751D01*
X117988998Y-102886201D01*
X117960000Y-102909999D01*
X117936202Y-102938997D01*
X117936201Y-102938998D01*
X117865026Y-103025724D01*
X117794454Y-103157754D01*
X117770788Y-103235773D01*
X117750998Y-103301014D01*
X117744643Y-103365538D01*
X117736324Y-103450000D01*
X117740001Y-103487332D01*
X117740000Y-105361928D01*
X117700000Y-105361928D01*
X117575518Y-105374188D01*
X117500000Y-105397096D01*
X117424482Y-105374188D01*
X117300000Y-105361928D01*
X115700000Y-105361928D01*
X115685000Y-105363405D01*
X115685000Y-104966353D01*
X115682148Y-104937399D01*
X115682169Y-104934427D01*
X115681236Y-104924909D01*
X115676179Y-104876790D01*
X115675088Y-104865717D01*
X115674976Y-104865348D01*
X115671036Y-104827860D01*
X115658547Y-104767017D01*
X115646918Y-104706058D01*
X115644154Y-104696902D01*
X115615298Y-104603683D01*
X115591226Y-104546419D01*
X115567979Y-104488881D01*
X115563489Y-104480436D01*
X115517077Y-104394598D01*
X115482350Y-104343115D01*
X115448364Y-104291179D01*
X115442320Y-104283767D01*
X115380118Y-104208579D01*
X115336051Y-104164818D01*
X115292630Y-104120478D01*
X115285261Y-104114381D01*
X115209640Y-104052706D01*
X115157959Y-104018368D01*
X115106694Y-103983267D01*
X115098281Y-103978718D01*
X115012120Y-103932906D01*
X114954704Y-103909242D01*
X114897661Y-103884792D01*
X114888525Y-103881964D01*
X114795107Y-103853759D01*
X114734195Y-103841698D01*
X114673471Y-103828791D01*
X114663959Y-103827791D01*
X114566841Y-103818269D01*
X114566837Y-103818269D01*
X114533647Y-103815000D01*
X111185000Y-103815000D01*
X111185000Y-97370177D01*
X111442564Y-97627741D01*
X111842721Y-97895117D01*
X112287351Y-98079289D01*
X112759368Y-98173179D01*
X113240632Y-98173179D01*
X113712649Y-98079289D01*
X114157279Y-97895117D01*
X114557436Y-97627741D01*
X114815000Y-97370177D01*
X114815000Y-100033646D01*
G37*
X114815000Y-100033646D02*
X114817852Y-100062600D01*
X114817831Y-100065573D01*
X114818764Y-100075092D01*
X114823824Y-100123233D01*
X114824912Y-100134282D01*
X114825024Y-100134650D01*
X114828964Y-100172140D01*
X114841455Y-100232990D01*
X114853082Y-100293942D01*
X114855845Y-100303096D01*
X114855847Y-100303102D01*
X114884702Y-100396317D01*
X114908754Y-100453533D01*
X114932020Y-100511119D01*
X114936510Y-100519564D01*
X114982923Y-100605401D01*
X115017638Y-100656867D01*
X115051636Y-100708821D01*
X115057680Y-100716232D01*
X115119882Y-100791421D01*
X115163930Y-100835162D01*
X115207369Y-100879522D01*
X115214739Y-100885618D01*
X115214744Y-100885623D01*
X115214750Y-100885627D01*
X115290360Y-100947294D01*
X115342041Y-100981632D01*
X115393306Y-101016733D01*
X115401719Y-101021282D01*
X115487880Y-101067094D01*
X115545296Y-101090758D01*
X115602339Y-101115208D01*
X115611475Y-101118036D01*
X115704893Y-101146241D01*
X115765813Y-101158303D01*
X115826530Y-101171209D01*
X115836042Y-101172209D01*
X115933159Y-101181731D01*
X115933163Y-101181731D01*
X115966353Y-101185000D01*
X119815000Y-101185000D01*
X119815001Y-102033647D01*
X119817852Y-102062591D01*
X119817831Y-102065573D01*
X119818764Y-102075092D01*
X119823038Y-102115753D01*
X119111570Y-102115753D01*
X119074247Y-102112077D01*
X119036924Y-102115753D01*
X119036914Y-102115753D01*
X118925261Y-102126750D01*
X118782000Y-102170207D01*
X118649970Y-102240779D01*
X118580142Y-102298086D01*
X118534246Y-102335752D01*
X118510447Y-102364751D01*
X117988998Y-102886201D01*
X117960000Y-102909999D01*
X117936202Y-102938997D01*
X117936201Y-102938998D01*
X117865026Y-103025724D01*
X117794454Y-103157754D01*
X117770788Y-103235773D01*
X117750998Y-103301014D01*
X117744643Y-103365538D01*
X117736324Y-103450000D01*
X117740001Y-103487332D01*
X117740000Y-105361928D01*
X117700000Y-105361928D01*
X117575518Y-105374188D01*
X117500000Y-105397096D01*
X117424482Y-105374188D01*
X117300000Y-105361928D01*
X115700000Y-105361928D01*
X115685000Y-105363405D01*
X115685000Y-104966353D01*
X115682148Y-104937399D01*
X115682169Y-104934427D01*
X115681236Y-104924909D01*
X115676179Y-104876790D01*
X115675088Y-104865717D01*
X115674976Y-104865348D01*
X115671036Y-104827860D01*
X115658547Y-104767017D01*
X115646918Y-104706058D01*
X115644154Y-104696902D01*
X115615298Y-104603683D01*
X115591226Y-104546419D01*
X115567979Y-104488881D01*
X115563489Y-104480436D01*
X115517077Y-104394598D01*
X115482350Y-104343115D01*
X115448364Y-104291179D01*
X115442320Y-104283767D01*
X115380118Y-104208579D01*
X115336051Y-104164818D01*
X115292630Y-104120478D01*
X115285261Y-104114381D01*
X115209640Y-104052706D01*
X115157959Y-104018368D01*
X115106694Y-103983267D01*
X115098281Y-103978718D01*
X115012120Y-103932906D01*
X114954704Y-103909242D01*
X114897661Y-103884792D01*
X114888525Y-103881964D01*
X114795107Y-103853759D01*
X114734195Y-103841698D01*
X114673471Y-103828791D01*
X114663959Y-103827791D01*
X114566841Y-103818269D01*
X114566837Y-103818269D01*
X114533647Y-103815000D01*
X111185000Y-103815000D01*
X111185000Y-97370177D01*
X111442564Y-97627741D01*
X111842721Y-97895117D01*
X112287351Y-98079289D01*
X112759368Y-98173179D01*
X113240632Y-98173179D01*
X113712649Y-98079289D01*
X114157279Y-97895117D01*
X114557436Y-97627741D01*
X114815000Y-97370177D01*
X114815000Y-100033646D01*
G36*
X193222000Y-89333000D02*
G01*
X193242000Y-89333000D01*
X193242000Y-89587000D01*
X193222000Y-89587000D01*
X193222000Y-91873000D01*
X193242000Y-91873000D01*
X193242000Y-92127000D01*
X193222000Y-92127000D01*
X193222000Y-93326250D01*
X193380750Y-93485000D01*
X193945000Y-93488072D01*
X194069482Y-93475812D01*
X194189180Y-93439502D01*
X194299494Y-93380537D01*
X194396185Y-93301185D01*
X194475537Y-93204494D01*
X194534502Y-93094180D01*
X194542641Y-93067350D01*
X194568402Y-93114994D01*
X194603122Y-93166468D01*
X194637117Y-93218418D01*
X194643161Y-93225829D01*
X194767565Y-93376207D01*
X194811638Y-93419973D01*
X194855057Y-93464311D01*
X194862426Y-93470408D01*
X195013668Y-93593758D01*
X195065397Y-93628126D01*
X195116608Y-93663191D01*
X195125016Y-93667737D01*
X195125020Y-93667740D01*
X195125024Y-93667742D01*
X195297343Y-93759366D01*
X195354739Y-93783022D01*
X195411807Y-93807482D01*
X195420944Y-93810310D01*
X195607780Y-93866719D01*
X195668690Y-93878780D01*
X195729409Y-93891686D01*
X195738921Y-93892686D01*
X195933155Y-93911731D01*
X195933163Y-93911731D01*
X195966353Y-93915000D01*
X201359823Y-93915000D01*
X201102259Y-94172564D01*
X200834883Y-94572721D01*
X200650711Y-95017351D01*
X200556821Y-95489368D01*
X200556821Y-95970632D01*
X200650711Y-96442649D01*
X200834883Y-96887279D01*
X201102259Y-97287436D01*
X201359823Y-97545000D01*
X195966353Y-97545000D01*
X195937045Y-97547887D01*
X195930933Y-97547844D01*
X195921415Y-97548777D01*
X195727318Y-97569178D01*
X195666504Y-97581661D01*
X195605519Y-97593295D01*
X195596363Y-97596059D01*
X195409925Y-97653771D01*
X195352692Y-97677830D01*
X195295127Y-97701087D01*
X195286682Y-97705577D01*
X195115006Y-97798402D01*
X195063532Y-97833122D01*
X195011582Y-97867117D01*
X195004170Y-97873162D01*
X194853793Y-97997565D01*
X194810027Y-98041638D01*
X194765689Y-98085057D01*
X194759592Y-98092426D01*
X194636242Y-98243668D01*
X194601881Y-98295386D01*
X194566809Y-98346607D01*
X194562260Y-98355020D01*
X194470635Y-98527343D01*
X194446978Y-98584739D01*
X194422519Y-98641807D01*
X194419690Y-98650943D01*
X194363281Y-98837780D01*
X194351219Y-98898698D01*
X194338314Y-98959410D01*
X194337314Y-98968922D01*
X194318269Y-99163155D01*
X194318269Y-99163173D01*
X194315001Y-99196353D01*
X194315000Y-103466495D01*
X194305778Y-103560546D01*
X194288194Y-103618787D01*
X194259635Y-103672500D01*
X194221183Y-103719646D01*
X194174310Y-103758423D01*
X194120796Y-103787358D01*
X194062677Y-103805349D01*
X193970855Y-103815000D01*
X183466353Y-103815000D01*
X183437399Y-103817852D01*
X183434427Y-103817831D01*
X183424909Y-103818764D01*
X183376790Y-103823821D01*
X183365717Y-103824912D01*
X183365348Y-103825024D01*
X183327860Y-103828964D01*
X183267017Y-103841453D01*
X183206058Y-103853082D01*
X183196902Y-103855846D01*
X183103683Y-103884702D01*
X183046434Y-103908768D01*
X182988881Y-103932021D01*
X182980436Y-103936511D01*
X182894598Y-103982923D01*
X182843115Y-104017650D01*
X182791179Y-104051636D01*
X182783767Y-104057680D01*
X182708579Y-104119882D01*
X182664818Y-104163949D01*
X182620478Y-104207370D01*
X182614381Y-104214739D01*
X182552706Y-104290360D01*
X182518368Y-104342041D01*
X182483267Y-104393306D01*
X182478718Y-104401719D01*
X182432906Y-104487880D01*
X182409242Y-104545296D01*
X182384792Y-104602339D01*
X182381964Y-104611475D01*
X182353759Y-104704893D01*
X182341698Y-104765805D01*
X182328791Y-104826529D01*
X182327791Y-104836041D01*
X182318269Y-104933159D01*
X182318269Y-104933173D01*
X182315001Y-104966353D01*
X182315001Y-105363405D01*
X182300000Y-105361928D01*
X182260000Y-105361928D01*
X182260000Y-103531354D01*
X183536089Y-102255268D01*
X183565081Y-102231475D01*
X183588875Y-102202482D01*
X183588879Y-102202478D01*
X183651026Y-102126751D01*
X183660054Y-102115750D01*
X183730626Y-101983721D01*
X183774083Y-101840460D01*
X183785080Y-101728807D01*
X183785080Y-101728798D01*
X183788756Y-101691475D01*
X183785080Y-101654152D01*
X183785080Y-99274935D01*
X185036083Y-98023933D01*
X185065080Y-98000136D01*
X185103044Y-97953877D01*
X185160053Y-97884412D01*
X185230625Y-97752382D01*
X185235629Y-97735887D01*
X185274082Y-97609121D01*
X185285079Y-97497468D01*
X185285079Y-97497458D01*
X185288755Y-97460135D01*
X185285079Y-97422812D01*
X185285079Y-96249722D01*
X186124775Y-95410027D01*
X186435881Y-95410027D01*
X186473203Y-95413703D01*
X186510525Y-95410027D01*
X186510536Y-95410027D01*
X186622189Y-95399030D01*
X186765450Y-95355573D01*
X186897479Y-95285001D01*
X187013204Y-95190028D01*
X187037007Y-95161024D01*
X187208021Y-94990010D01*
X188313069Y-94990008D01*
X188350401Y-94993685D01*
X188387734Y-94990008D01*
X188499387Y-94979011D01*
X188549881Y-94963694D01*
X188642647Y-94935555D01*
X188774677Y-94864983D01*
X188861403Y-94793808D01*
X188861404Y-94793807D01*
X188890402Y-94770009D01*
X188914200Y-94741011D01*
X190209786Y-93445425D01*
X190408740Y-93485000D01*
X190701260Y-93485000D01*
X190988158Y-93427932D01*
X191258411Y-93315990D01*
X191501632Y-93153475D01*
X191633487Y-93021620D01*
X191655498Y-93094180D01*
X191714463Y-93204494D01*
X191793815Y-93301185D01*
X191890506Y-93380537D01*
X192000820Y-93439502D01*
X192120518Y-93475812D01*
X192245000Y-93488072D01*
X192809250Y-93485000D01*
X192968000Y-93326250D01*
X192968000Y-92127000D01*
X192948000Y-92127000D01*
X192948000Y-91873000D01*
X192968000Y-91873000D01*
X192968000Y-89587000D01*
X192948000Y-89587000D01*
X192948000Y-89333000D01*
X192968000Y-89333000D01*
X192968000Y-89313000D01*
X193222000Y-89313000D01*
X193222000Y-89333000D01*
G37*
X193222000Y-89333000D02*
X193242000Y-89333000D01*
X193242000Y-89587000D01*
X193222000Y-89587000D01*
X193222000Y-91873000D01*
X193242000Y-91873000D01*
X193242000Y-92127000D01*
X193222000Y-92127000D01*
X193222000Y-93326250D01*
X193380750Y-93485000D01*
X193945000Y-93488072D01*
X194069482Y-93475812D01*
X194189180Y-93439502D01*
X194299494Y-93380537D01*
X194396185Y-93301185D01*
X194475537Y-93204494D01*
X194534502Y-93094180D01*
X194542641Y-93067350D01*
X194568402Y-93114994D01*
X194603122Y-93166468D01*
X194637117Y-93218418D01*
X194643161Y-93225829D01*
X194767565Y-93376207D01*
X194811638Y-93419973D01*
X194855057Y-93464311D01*
X194862426Y-93470408D01*
X195013668Y-93593758D01*
X195065397Y-93628126D01*
X195116608Y-93663191D01*
X195125016Y-93667737D01*
X195125020Y-93667740D01*
X195125024Y-93667742D01*
X195297343Y-93759366D01*
X195354739Y-93783022D01*
X195411807Y-93807482D01*
X195420944Y-93810310D01*
X195607780Y-93866719D01*
X195668690Y-93878780D01*
X195729409Y-93891686D01*
X195738921Y-93892686D01*
X195933155Y-93911731D01*
X195933163Y-93911731D01*
X195966353Y-93915000D01*
X201359823Y-93915000D01*
X201102259Y-94172564D01*
X200834883Y-94572721D01*
X200650711Y-95017351D01*
X200556821Y-95489368D01*
X200556821Y-95970632D01*
X200650711Y-96442649D01*
X200834883Y-96887279D01*
X201102259Y-97287436D01*
X201359823Y-97545000D01*
X195966353Y-97545000D01*
X195937045Y-97547887D01*
X195930933Y-97547844D01*
X195921415Y-97548777D01*
X195727318Y-97569178D01*
X195666504Y-97581661D01*
X195605519Y-97593295D01*
X195596363Y-97596059D01*
X195409925Y-97653771D01*
X195352692Y-97677830D01*
X195295127Y-97701087D01*
X195286682Y-97705577D01*
X195115006Y-97798402D01*
X195063532Y-97833122D01*
X195011582Y-97867117D01*
X195004170Y-97873162D01*
X194853793Y-97997565D01*
X194810027Y-98041638D01*
X194765689Y-98085057D01*
X194759592Y-98092426D01*
X194636242Y-98243668D01*
X194601881Y-98295386D01*
X194566809Y-98346607D01*
X194562260Y-98355020D01*
X194470635Y-98527343D01*
X194446978Y-98584739D01*
X194422519Y-98641807D01*
X194419690Y-98650943D01*
X194363281Y-98837780D01*
X194351219Y-98898698D01*
X194338314Y-98959410D01*
X194337314Y-98968922D01*
X194318269Y-99163155D01*
X194318269Y-99163173D01*
X194315001Y-99196353D01*
X194315000Y-103466495D01*
X194305778Y-103560546D01*
X194288194Y-103618787D01*
X194259635Y-103672500D01*
X194221183Y-103719646D01*
X194174310Y-103758423D01*
X194120796Y-103787358D01*
X194062677Y-103805349D01*
X193970855Y-103815000D01*
X183466353Y-103815000D01*
X183437399Y-103817852D01*
X183434427Y-103817831D01*
X183424909Y-103818764D01*
X183376790Y-103823821D01*
X183365717Y-103824912D01*
X183365348Y-103825024D01*
X183327860Y-103828964D01*
X183267017Y-103841453D01*
X183206058Y-103853082D01*
X183196902Y-103855846D01*
X183103683Y-103884702D01*
X183046434Y-103908768D01*
X182988881Y-103932021D01*
X182980436Y-103936511D01*
X182894598Y-103982923D01*
X182843115Y-104017650D01*
X182791179Y-104051636D01*
X182783767Y-104057680D01*
X182708579Y-104119882D01*
X182664818Y-104163949D01*
X182620478Y-104207370D01*
X182614381Y-104214739D01*
X182552706Y-104290360D01*
X182518368Y-104342041D01*
X182483267Y-104393306D01*
X182478718Y-104401719D01*
X182432906Y-104487880D01*
X182409242Y-104545296D01*
X182384792Y-104602339D01*
X182381964Y-104611475D01*
X182353759Y-104704893D01*
X182341698Y-104765805D01*
X182328791Y-104826529D01*
X182327791Y-104836041D01*
X182318269Y-104933159D01*
X182318269Y-104933173D01*
X182315001Y-104966353D01*
X182315001Y-105363405D01*
X182300000Y-105361928D01*
X182260000Y-105361928D01*
X182260000Y-103531354D01*
X183536089Y-102255268D01*
X183565081Y-102231475D01*
X183588875Y-102202482D01*
X183588879Y-102202478D01*
X183651026Y-102126751D01*
X183660054Y-102115750D01*
X183730626Y-101983721D01*
X183774083Y-101840460D01*
X183785080Y-101728807D01*
X183785080Y-101728798D01*
X183788756Y-101691475D01*
X183785080Y-101654152D01*
X183785080Y-99274935D01*
X185036083Y-98023933D01*
X185065080Y-98000136D01*
X185103044Y-97953877D01*
X185160053Y-97884412D01*
X185230625Y-97752382D01*
X185235629Y-97735887D01*
X185274082Y-97609121D01*
X185285079Y-97497468D01*
X185285079Y-97497458D01*
X185288755Y-97460135D01*
X185285079Y-97422812D01*
X185285079Y-96249722D01*
X186124775Y-95410027D01*
X186435881Y-95410027D01*
X186473203Y-95413703D01*
X186510525Y-95410027D01*
X186510536Y-95410027D01*
X186622189Y-95399030D01*
X186765450Y-95355573D01*
X186897479Y-95285001D01*
X187013204Y-95190028D01*
X187037007Y-95161024D01*
X187208021Y-94990010D01*
X188313069Y-94990008D01*
X188350401Y-94993685D01*
X188387734Y-94990008D01*
X188499387Y-94979011D01*
X188549881Y-94963694D01*
X188642647Y-94935555D01*
X188774677Y-94864983D01*
X188861403Y-94793808D01*
X188861404Y-94793807D01*
X188890402Y-94770009D01*
X188914200Y-94741011D01*
X190209786Y-93445425D01*
X190408740Y-93485000D01*
X190701260Y-93485000D01*
X190988158Y-93427932D01*
X191258411Y-93315990D01*
X191501632Y-93153475D01*
X191633487Y-93021620D01*
X191655498Y-93094180D01*
X191714463Y-93204494D01*
X191793815Y-93301185D01*
X191890506Y-93380537D01*
X192000820Y-93439502D01*
X192120518Y-93475812D01*
X192245000Y-93488072D01*
X192809250Y-93485000D01*
X192968000Y-93326250D01*
X192968000Y-92127000D01*
X192948000Y-92127000D01*
X192948000Y-91873000D01*
X192968000Y-91873000D01*
X192968000Y-89587000D01*
X192948000Y-89587000D01*
X192948000Y-89333000D01*
X192968000Y-89333000D01*
X192968000Y-89313000D01*
X193222000Y-89313000D01*
X193222000Y-89333000D01*
G04 #@! TD*
M02*
