G04 #@! TF.GenerationSoftware,KiCad,Pcbnew,(5.1.6-0-10_14)*
G04 #@! TF.CreationDate,2021-01-14T22:31:30+09:00*
G04 #@! TF.ProjectId,qPCR-photoarray-series,71504352-2d70-4686-9f74-6f6172726179,rev?*
G04 #@! TF.SameCoordinates,Original*
G04 #@! TF.FileFunction,Copper,L2,Bot*
G04 #@! TF.FilePolarity,Positive*
%FSLAX46Y46*%
G04 Gerber Fmt 4.6, Leading zero omitted, Abs format (unit mm)*
G04 Created by KiCad (PCBNEW (5.1.6-0-10_14)) date 2021-01-14 22:31:30*
%MOMM*%
%LPD*%
G01*
G04 APERTURE LIST*
G04 #@! TA.AperFunction,ComponentPad*
%ADD10O,1.700000X1.700000*%
G04 #@! TD*
G04 #@! TA.AperFunction,ComponentPad*
%ADD11R,1.700000X1.700000*%
G04 #@! TD*
G04 #@! TA.AperFunction,ViaPad*
%ADD12C,0.800000*%
G04 #@! TD*
G04 #@! TA.AperFunction,Conductor*
%ADD13C,0.250000*%
G04 #@! TD*
G04 #@! TA.AperFunction,Conductor*
%ADD14C,0.254000*%
G04 #@! TD*
G04 APERTURE END LIST*
D10*
G04 #@! TO.P,U1,10*
G04 #@! TO.N,OUT1*
X182935000Y-89460000D03*
G04 #@! TO.P,U1,9*
G04 #@! TO.N,OUT2*
X182935000Y-92000000D03*
G04 #@! TO.P,U1,8*
G04 #@! TO.N,OUT3*
X185475000Y-89460000D03*
G04 #@! TO.P,U1,7*
G04 #@! TO.N,OUT4*
X185475000Y-92000000D03*
G04 #@! TO.P,U1,6*
G04 #@! TO.N,OUT5*
X188015000Y-89460000D03*
G04 #@! TO.P,U1,5*
G04 #@! TO.N,OUT6*
X188015000Y-92000000D03*
G04 #@! TO.P,U1,4*
G04 #@! TO.N,OUT7*
X190555000Y-89460000D03*
G04 #@! TO.P,U1,3*
G04 #@! TO.N,OUT8*
X190555000Y-92000000D03*
G04 #@! TO.P,U1,2*
G04 #@! TO.N,GND*
X193095000Y-89460000D03*
D11*
G04 #@! TO.P,U1,1*
X193095000Y-92000000D03*
G04 #@! TD*
D12*
G04 #@! TO.N,GND*
X111200000Y-97700000D03*
X194500000Y-97000000D03*
X195800000Y-97400000D03*
X194600000Y-93000000D03*
X201100000Y-94000000D03*
X198200000Y-95500000D03*
X196500000Y-94000000D03*
X200000000Y-95000000D03*
X114800000Y-97700000D03*
X111400000Y-101100000D03*
X111200000Y-103800000D03*
X119700000Y-101300000D03*
X115000000Y-101000000D03*
X115000000Y-104000000D03*
X119500000Y-104000000D03*
X124500000Y-104000000D03*
X122000000Y-108500000D03*
X117500000Y-110800000D03*
X135500000Y-110800000D03*
X144500000Y-110800000D03*
X153500000Y-110900000D03*
X162500000Y-110800000D03*
X171500000Y-110800000D03*
X180500000Y-110800000D03*
X182300000Y-110800000D03*
X178200000Y-110800000D03*
X173800000Y-110800000D03*
X169200000Y-110800000D03*
X164800000Y-110800000D03*
X160200000Y-110800000D03*
X155800000Y-110800000D03*
X151200000Y-110900000D03*
X146800000Y-110800000D03*
X142200000Y-110800000D03*
X137800000Y-110900000D03*
X133200000Y-110800000D03*
X128800000Y-110800000D03*
X124200000Y-110800000D03*
X119800000Y-110800000D03*
X115700000Y-110800000D03*
X122000000Y-106000000D03*
X131000000Y-106000000D03*
X131000000Y-108500000D03*
X128500000Y-104500000D03*
X133500000Y-104500000D03*
X140000000Y-108500000D03*
X140000000Y-106000000D03*
X142500000Y-105000000D03*
X137500000Y-105000000D03*
X149000000Y-108500000D03*
X149000000Y-106500000D03*
X147500000Y-105980000D03*
X150260000Y-105840000D03*
X158000000Y-108500000D03*
X158000000Y-106500000D03*
X156430000Y-106130000D03*
X159800000Y-106000000D03*
X176000000Y-108500000D03*
X174000000Y-107500000D03*
X177700000Y-106700000D03*
X190000000Y-103500000D03*
X192000000Y-98000000D03*
X191000000Y-96000000D03*
X193000000Y-95500000D03*
X200900000Y-97600000D03*
X198000000Y-97500000D03*
X113000000Y-103000000D03*
X113000000Y-99000000D03*
X116300000Y-102700000D03*
X167000000Y-108500000D03*
X168600000Y-106500000D03*
X167100000Y-106400000D03*
X194000000Y-103700000D03*
X182270000Y-105210000D03*
X186170000Y-95550000D03*
X183870000Y-99300000D03*
X185460000Y-97210000D03*
X182290000Y-103500000D03*
X184060000Y-101800000D03*
X185160000Y-103250000D03*
X186050000Y-100480000D03*
X187920000Y-97820000D03*
X188880000Y-95070000D03*
X191150000Y-94000000D03*
X189710000Y-96810000D03*
X188360000Y-99900000D03*
X187720000Y-102240000D03*
X191340000Y-99820000D03*
X191520000Y-102240000D03*
X193810000Y-100870000D03*
G04 #@! TD*
D13*
G04 #@! TO.N,GND*
X119500000Y-104000000D02*
X118500000Y-105000000D01*
X118500000Y-105000000D02*
X117500000Y-104000000D01*
X116500000Y-103000000D02*
X116500000Y-104000000D01*
X116500000Y-104000000D02*
X115000000Y-104000000D01*
X117500000Y-104000000D02*
X116500000Y-104000000D01*
G04 #@! TO.N,OUT4*
X185475000Y-92635358D02*
X185475000Y-92000000D01*
X184936410Y-92000000D02*
X185475000Y-92000000D01*
G04 #@! TO.N,OUT8*
X190536410Y-92000000D02*
X190555000Y-92000000D01*
G04 #@! TO.N,OUT6*
X187500000Y-92000000D02*
X188015000Y-92000000D01*
G04 #@! TD*
D14*
G04 #@! TO.N,GND*
G36*
X193222000Y-89333000D02*
G01*
X193242000Y-89333000D01*
X193242000Y-89587000D01*
X193222000Y-89587000D01*
X193222000Y-91873000D01*
X193242000Y-91873000D01*
X193242000Y-92127000D01*
X193222000Y-92127000D01*
X193222000Y-93326250D01*
X193380750Y-93485000D01*
X193945000Y-93488072D01*
X194069482Y-93475812D01*
X194189180Y-93439502D01*
X194299494Y-93380537D01*
X194396185Y-93301185D01*
X194475537Y-93204494D01*
X194534502Y-93094180D01*
X194542641Y-93067350D01*
X194568402Y-93114994D01*
X194603122Y-93166468D01*
X194637117Y-93218418D01*
X194643161Y-93225829D01*
X194767565Y-93376207D01*
X194811638Y-93419973D01*
X194855057Y-93464311D01*
X194862426Y-93470408D01*
X195013668Y-93593758D01*
X195065397Y-93628126D01*
X195116608Y-93663191D01*
X195125016Y-93667737D01*
X195125020Y-93667740D01*
X195125024Y-93667742D01*
X195297343Y-93759366D01*
X195354739Y-93783022D01*
X195411807Y-93807482D01*
X195420944Y-93810310D01*
X195607780Y-93866719D01*
X195668690Y-93878780D01*
X195729409Y-93891686D01*
X195738921Y-93892686D01*
X195933155Y-93911731D01*
X195933163Y-93911731D01*
X195966353Y-93915000D01*
X201359823Y-93915000D01*
X201102259Y-94172564D01*
X200834883Y-94572721D01*
X200650711Y-95017351D01*
X200556821Y-95489368D01*
X200556821Y-95970632D01*
X200650711Y-96442649D01*
X200834883Y-96887279D01*
X201102259Y-97287436D01*
X201359823Y-97545000D01*
X195966353Y-97545000D01*
X195937045Y-97547887D01*
X195930933Y-97547844D01*
X195921415Y-97548777D01*
X195727318Y-97569178D01*
X195666504Y-97581661D01*
X195605519Y-97593295D01*
X195596363Y-97596059D01*
X195409925Y-97653771D01*
X195352692Y-97677830D01*
X195295127Y-97701087D01*
X195286682Y-97705577D01*
X195115006Y-97798402D01*
X195063532Y-97833122D01*
X195011582Y-97867117D01*
X195004170Y-97873162D01*
X194853793Y-97997565D01*
X194810027Y-98041638D01*
X194765689Y-98085057D01*
X194759592Y-98092426D01*
X194636242Y-98243668D01*
X194601881Y-98295386D01*
X194566809Y-98346607D01*
X194562260Y-98355020D01*
X194470635Y-98527343D01*
X194446978Y-98584739D01*
X194422519Y-98641807D01*
X194419690Y-98650943D01*
X194363281Y-98837780D01*
X194351219Y-98898698D01*
X194338314Y-98959410D01*
X194337314Y-98968922D01*
X194318269Y-99163155D01*
X194318269Y-99163173D01*
X194315001Y-99196353D01*
X194315000Y-103466495D01*
X194305778Y-103560546D01*
X194288194Y-103618787D01*
X194259635Y-103672500D01*
X194221183Y-103719646D01*
X194174310Y-103758423D01*
X194120796Y-103787358D01*
X194062677Y-103805349D01*
X193970855Y-103815000D01*
X183466353Y-103815000D01*
X183437399Y-103817852D01*
X183434427Y-103817831D01*
X183424909Y-103818764D01*
X183376790Y-103823821D01*
X183365717Y-103824912D01*
X183365348Y-103825024D01*
X183327860Y-103828964D01*
X183267017Y-103841453D01*
X183206058Y-103853082D01*
X183196902Y-103855846D01*
X183103683Y-103884702D01*
X183046434Y-103908768D01*
X182988881Y-103932021D01*
X182980436Y-103936511D01*
X182894598Y-103982923D01*
X182843115Y-104017650D01*
X182791179Y-104051636D01*
X182783767Y-104057680D01*
X182708579Y-104119882D01*
X182664818Y-104163949D01*
X182620478Y-104207370D01*
X182614381Y-104214739D01*
X182552706Y-104290360D01*
X182518368Y-104342041D01*
X182483267Y-104393306D01*
X182478718Y-104401719D01*
X182432906Y-104487880D01*
X182409242Y-104545296D01*
X182384792Y-104602339D01*
X182381964Y-104611475D01*
X182353759Y-104704893D01*
X182341698Y-104765805D01*
X182328791Y-104826529D01*
X182327791Y-104836041D01*
X182318269Y-104933159D01*
X182318269Y-104933173D01*
X182315001Y-104966353D01*
X182315000Y-110815000D01*
X178185000Y-110815000D01*
X178185000Y-109966353D01*
X178182148Y-109937399D01*
X178182169Y-109934427D01*
X178181236Y-109924909D01*
X178176179Y-109876790D01*
X178175088Y-109865717D01*
X178174976Y-109865348D01*
X178171036Y-109827860D01*
X178158547Y-109767017D01*
X178146918Y-109706058D01*
X178144154Y-109696902D01*
X178115298Y-109603683D01*
X178091232Y-109546434D01*
X178067979Y-109488881D01*
X178063489Y-109480436D01*
X178017077Y-109394598D01*
X177982350Y-109343115D01*
X177948364Y-109291179D01*
X177942320Y-109283767D01*
X177880118Y-109208579D01*
X177836051Y-109164818D01*
X177792630Y-109120478D01*
X177785261Y-109114381D01*
X177709640Y-109052706D01*
X177657959Y-109018368D01*
X177606694Y-108983267D01*
X177598281Y-108978718D01*
X177512120Y-108932906D01*
X177454704Y-108909242D01*
X177397661Y-108884792D01*
X177388525Y-108881964D01*
X177295107Y-108853759D01*
X177234195Y-108841698D01*
X177173471Y-108828791D01*
X177163959Y-108827791D01*
X177066841Y-108818269D01*
X177066837Y-108818269D01*
X177033647Y-108815000D01*
X174966353Y-108815000D01*
X174937399Y-108817852D01*
X174934427Y-108817831D01*
X174924909Y-108818764D01*
X174876790Y-108823821D01*
X174865717Y-108824912D01*
X174865348Y-108825024D01*
X174827860Y-108828964D01*
X174767017Y-108841453D01*
X174706058Y-108853082D01*
X174696902Y-108855846D01*
X174603683Y-108884702D01*
X174546434Y-108908768D01*
X174488881Y-108932021D01*
X174480436Y-108936511D01*
X174394598Y-108982923D01*
X174343115Y-109017650D01*
X174291179Y-109051636D01*
X174283767Y-109057680D01*
X174208579Y-109119882D01*
X174164818Y-109163949D01*
X174120478Y-109207370D01*
X174114381Y-109214739D01*
X174052706Y-109290360D01*
X174018368Y-109342041D01*
X173983267Y-109393306D01*
X173978718Y-109401719D01*
X173932906Y-109487880D01*
X173909242Y-109545296D01*
X173884792Y-109602339D01*
X173881964Y-109611475D01*
X173853759Y-109704893D01*
X173841698Y-109765805D01*
X173828791Y-109826529D01*
X173827791Y-109836041D01*
X173818269Y-109933159D01*
X173818269Y-109933173D01*
X173815001Y-109966353D01*
X173815000Y-110815000D01*
X169185000Y-110815000D01*
X169185000Y-109966353D01*
X169182148Y-109937399D01*
X169182169Y-109934427D01*
X169181236Y-109924909D01*
X169176179Y-109876790D01*
X169175088Y-109865717D01*
X169174976Y-109865348D01*
X169171036Y-109827860D01*
X169158547Y-109767017D01*
X169146918Y-109706058D01*
X169144154Y-109696902D01*
X169115298Y-109603683D01*
X169091232Y-109546434D01*
X169067979Y-109488881D01*
X169063489Y-109480436D01*
X169017077Y-109394598D01*
X168982350Y-109343115D01*
X168948364Y-109291179D01*
X168942320Y-109283767D01*
X168880118Y-109208579D01*
X168836051Y-109164818D01*
X168792630Y-109120478D01*
X168785261Y-109114381D01*
X168709640Y-109052706D01*
X168657959Y-109018368D01*
X168606694Y-108983267D01*
X168598281Y-108978718D01*
X168512120Y-108932906D01*
X168454704Y-108909242D01*
X168397661Y-108884792D01*
X168388525Y-108881964D01*
X168295107Y-108853759D01*
X168234195Y-108841698D01*
X168173471Y-108828791D01*
X168163959Y-108827791D01*
X168066841Y-108818269D01*
X168066837Y-108818269D01*
X168033647Y-108815000D01*
X165966353Y-108815000D01*
X165937399Y-108817852D01*
X165934427Y-108817831D01*
X165924909Y-108818764D01*
X165876790Y-108823821D01*
X165865717Y-108824912D01*
X165865348Y-108825024D01*
X165827860Y-108828964D01*
X165767017Y-108841453D01*
X165706058Y-108853082D01*
X165696902Y-108855846D01*
X165603683Y-108884702D01*
X165546434Y-108908768D01*
X165488881Y-108932021D01*
X165480436Y-108936511D01*
X165394598Y-108982923D01*
X165343115Y-109017650D01*
X165291179Y-109051636D01*
X165283767Y-109057680D01*
X165208579Y-109119882D01*
X165164818Y-109163949D01*
X165120478Y-109207370D01*
X165114381Y-109214739D01*
X165052706Y-109290360D01*
X165018368Y-109342041D01*
X164983267Y-109393306D01*
X164978718Y-109401719D01*
X164932906Y-109487880D01*
X164909242Y-109545296D01*
X164884792Y-109602339D01*
X164881964Y-109611475D01*
X164853759Y-109704893D01*
X164841698Y-109765805D01*
X164828791Y-109826529D01*
X164827791Y-109836041D01*
X164818269Y-109933159D01*
X164818269Y-109933173D01*
X164815001Y-109966353D01*
X164815000Y-110815000D01*
X160185000Y-110815000D01*
X160185000Y-109966353D01*
X160182148Y-109937399D01*
X160182169Y-109934427D01*
X160181236Y-109924909D01*
X160176179Y-109876790D01*
X160175088Y-109865717D01*
X160174976Y-109865348D01*
X160171036Y-109827860D01*
X160158547Y-109767017D01*
X160146918Y-109706058D01*
X160144154Y-109696902D01*
X160115298Y-109603683D01*
X160091232Y-109546434D01*
X160067979Y-109488881D01*
X160063489Y-109480436D01*
X160017077Y-109394598D01*
X159982350Y-109343115D01*
X159948364Y-109291179D01*
X159942320Y-109283767D01*
X159880118Y-109208579D01*
X159836051Y-109164818D01*
X159792630Y-109120478D01*
X159785261Y-109114381D01*
X159709640Y-109052706D01*
X159657959Y-109018368D01*
X159606694Y-108983267D01*
X159598281Y-108978718D01*
X159512120Y-108932906D01*
X159454704Y-108909242D01*
X159397661Y-108884792D01*
X159388525Y-108881964D01*
X159295107Y-108853759D01*
X159234195Y-108841698D01*
X159173471Y-108828791D01*
X159163959Y-108827791D01*
X159066841Y-108818269D01*
X159066837Y-108818269D01*
X159033647Y-108815000D01*
X156966353Y-108815000D01*
X156937399Y-108817852D01*
X156934427Y-108817831D01*
X156924909Y-108818764D01*
X156876790Y-108823821D01*
X156865717Y-108824912D01*
X156865348Y-108825024D01*
X156827860Y-108828964D01*
X156767017Y-108841453D01*
X156706058Y-108853082D01*
X156696902Y-108855846D01*
X156603683Y-108884702D01*
X156546434Y-108908768D01*
X156488881Y-108932021D01*
X156480436Y-108936511D01*
X156394598Y-108982923D01*
X156343115Y-109017650D01*
X156291179Y-109051636D01*
X156283767Y-109057680D01*
X156208579Y-109119882D01*
X156164818Y-109163949D01*
X156120478Y-109207370D01*
X156114381Y-109214739D01*
X156052706Y-109290360D01*
X156018368Y-109342041D01*
X155983267Y-109393306D01*
X155978718Y-109401719D01*
X155932906Y-109487880D01*
X155909242Y-109545296D01*
X155884792Y-109602339D01*
X155881964Y-109611475D01*
X155853759Y-109704893D01*
X155841698Y-109765805D01*
X155828791Y-109826529D01*
X155827791Y-109836041D01*
X155818269Y-109933159D01*
X155818269Y-109933173D01*
X155815001Y-109966353D01*
X155815000Y-110815000D01*
X151185000Y-110815000D01*
X151185000Y-109966353D01*
X151182148Y-109937399D01*
X151182169Y-109934427D01*
X151181236Y-109924909D01*
X151176179Y-109876790D01*
X151175088Y-109865717D01*
X151174976Y-109865348D01*
X151171036Y-109827860D01*
X151158547Y-109767017D01*
X151146918Y-109706058D01*
X151144154Y-109696902D01*
X151115298Y-109603683D01*
X151091232Y-109546434D01*
X151067979Y-109488881D01*
X151063489Y-109480436D01*
X151017077Y-109394598D01*
X150982350Y-109343115D01*
X150948364Y-109291179D01*
X150942320Y-109283767D01*
X150880118Y-109208579D01*
X150836051Y-109164818D01*
X150792630Y-109120478D01*
X150785261Y-109114381D01*
X150709640Y-109052706D01*
X150657959Y-109018368D01*
X150606694Y-108983267D01*
X150598281Y-108978718D01*
X150512120Y-108932906D01*
X150454704Y-108909242D01*
X150397661Y-108884792D01*
X150388525Y-108881964D01*
X150295107Y-108853759D01*
X150234195Y-108841698D01*
X150173471Y-108828791D01*
X150163959Y-108827791D01*
X150066841Y-108818269D01*
X150066837Y-108818269D01*
X150033647Y-108815000D01*
X147966353Y-108815000D01*
X147937399Y-108817852D01*
X147934427Y-108817831D01*
X147924909Y-108818764D01*
X147876790Y-108823821D01*
X147865717Y-108824912D01*
X147865348Y-108825024D01*
X147827860Y-108828964D01*
X147767017Y-108841453D01*
X147706058Y-108853082D01*
X147696902Y-108855846D01*
X147603683Y-108884702D01*
X147546434Y-108908768D01*
X147488881Y-108932021D01*
X147480436Y-108936511D01*
X147394598Y-108982923D01*
X147343115Y-109017650D01*
X147291179Y-109051636D01*
X147283767Y-109057680D01*
X147208579Y-109119882D01*
X147164818Y-109163949D01*
X147120478Y-109207370D01*
X147114381Y-109214739D01*
X147052706Y-109290360D01*
X147018368Y-109342041D01*
X146983267Y-109393306D01*
X146978718Y-109401719D01*
X146932906Y-109487880D01*
X146909242Y-109545296D01*
X146884792Y-109602339D01*
X146881964Y-109611475D01*
X146853759Y-109704893D01*
X146841698Y-109765805D01*
X146828791Y-109826529D01*
X146827791Y-109836041D01*
X146818269Y-109933159D01*
X146818269Y-109933173D01*
X146815001Y-109966353D01*
X146815000Y-110815000D01*
X142185000Y-110815000D01*
X142185000Y-109966353D01*
X142182148Y-109937399D01*
X142182169Y-109934427D01*
X142181236Y-109924909D01*
X142176179Y-109876790D01*
X142175088Y-109865717D01*
X142174976Y-109865348D01*
X142171036Y-109827860D01*
X142158547Y-109767017D01*
X142146918Y-109706058D01*
X142144154Y-109696902D01*
X142115298Y-109603683D01*
X142091232Y-109546434D01*
X142067979Y-109488881D01*
X142063489Y-109480436D01*
X142017077Y-109394598D01*
X141982350Y-109343115D01*
X141948364Y-109291179D01*
X141942320Y-109283767D01*
X141880118Y-109208579D01*
X141836051Y-109164818D01*
X141792630Y-109120478D01*
X141785261Y-109114381D01*
X141709640Y-109052706D01*
X141657959Y-109018368D01*
X141606694Y-108983267D01*
X141598281Y-108978718D01*
X141512120Y-108932906D01*
X141454704Y-108909242D01*
X141397661Y-108884792D01*
X141388525Y-108881964D01*
X141295107Y-108853759D01*
X141234195Y-108841698D01*
X141173471Y-108828791D01*
X141163959Y-108827791D01*
X141066841Y-108818269D01*
X141066837Y-108818269D01*
X141033647Y-108815000D01*
X138966353Y-108815000D01*
X138937399Y-108817852D01*
X138934427Y-108817831D01*
X138924909Y-108818764D01*
X138876790Y-108823821D01*
X138865717Y-108824912D01*
X138865348Y-108825024D01*
X138827860Y-108828964D01*
X138767017Y-108841453D01*
X138706058Y-108853082D01*
X138696902Y-108855846D01*
X138603683Y-108884702D01*
X138546434Y-108908768D01*
X138488881Y-108932021D01*
X138480436Y-108936511D01*
X138394598Y-108982923D01*
X138343115Y-109017650D01*
X138291179Y-109051636D01*
X138283767Y-109057680D01*
X138208579Y-109119882D01*
X138164818Y-109163949D01*
X138120478Y-109207370D01*
X138114381Y-109214739D01*
X138052706Y-109290360D01*
X138018368Y-109342041D01*
X137983267Y-109393306D01*
X137978718Y-109401719D01*
X137932906Y-109487880D01*
X137909242Y-109545296D01*
X137884792Y-109602339D01*
X137881964Y-109611475D01*
X137853759Y-109704893D01*
X137841698Y-109765805D01*
X137828791Y-109826529D01*
X137827791Y-109836041D01*
X137818269Y-109933159D01*
X137818269Y-109933173D01*
X137815001Y-109966353D01*
X137815000Y-110815000D01*
X133185000Y-110815000D01*
X133185000Y-109966353D01*
X133182148Y-109937399D01*
X133182169Y-109934427D01*
X133181236Y-109924909D01*
X133176179Y-109876790D01*
X133175088Y-109865717D01*
X133174976Y-109865348D01*
X133171036Y-109827860D01*
X133158547Y-109767017D01*
X133146918Y-109706058D01*
X133144154Y-109696902D01*
X133115298Y-109603683D01*
X133091232Y-109546434D01*
X133067979Y-109488881D01*
X133063489Y-109480436D01*
X133017077Y-109394598D01*
X132982350Y-109343115D01*
X132948364Y-109291179D01*
X132942320Y-109283767D01*
X132880118Y-109208579D01*
X132836051Y-109164818D01*
X132792630Y-109120478D01*
X132785261Y-109114381D01*
X132709640Y-109052706D01*
X132657959Y-109018368D01*
X132606694Y-108983267D01*
X132598281Y-108978718D01*
X132512120Y-108932906D01*
X132454704Y-108909242D01*
X132397661Y-108884792D01*
X132388525Y-108881964D01*
X132295107Y-108853759D01*
X132234195Y-108841698D01*
X132173471Y-108828791D01*
X132163959Y-108827791D01*
X132066841Y-108818269D01*
X132066837Y-108818269D01*
X132033647Y-108815000D01*
X129966353Y-108815000D01*
X129937399Y-108817852D01*
X129934427Y-108817831D01*
X129924909Y-108818764D01*
X129876790Y-108823821D01*
X129865717Y-108824912D01*
X129865348Y-108825024D01*
X129827860Y-108828964D01*
X129767017Y-108841453D01*
X129706058Y-108853082D01*
X129696902Y-108855846D01*
X129603683Y-108884702D01*
X129546434Y-108908768D01*
X129488881Y-108932021D01*
X129480436Y-108936511D01*
X129394598Y-108982923D01*
X129343115Y-109017650D01*
X129291179Y-109051636D01*
X129283767Y-109057680D01*
X129208579Y-109119882D01*
X129164818Y-109163949D01*
X129120478Y-109207370D01*
X129114381Y-109214739D01*
X129052706Y-109290360D01*
X129018368Y-109342041D01*
X128983267Y-109393306D01*
X128978718Y-109401719D01*
X128932906Y-109487880D01*
X128909242Y-109545296D01*
X128884792Y-109602339D01*
X128881964Y-109611475D01*
X128853759Y-109704893D01*
X128841698Y-109765805D01*
X128828791Y-109826529D01*
X128827791Y-109836041D01*
X128818269Y-109933159D01*
X128818269Y-109933173D01*
X128815001Y-109966353D01*
X128815000Y-110815000D01*
X124185000Y-110815000D01*
X124185000Y-109966353D01*
X124182148Y-109937399D01*
X124182169Y-109934427D01*
X124181236Y-109924909D01*
X124176179Y-109876790D01*
X124175088Y-109865717D01*
X124174976Y-109865348D01*
X124171036Y-109827860D01*
X124158547Y-109767017D01*
X124146918Y-109706058D01*
X124144154Y-109696902D01*
X124115298Y-109603683D01*
X124091232Y-109546434D01*
X124067979Y-109488881D01*
X124063489Y-109480436D01*
X124017077Y-109394598D01*
X123982350Y-109343115D01*
X123948364Y-109291179D01*
X123942320Y-109283767D01*
X123880118Y-109208579D01*
X123836051Y-109164818D01*
X123792630Y-109120478D01*
X123785261Y-109114381D01*
X123709640Y-109052706D01*
X123657959Y-109018368D01*
X123606694Y-108983267D01*
X123598281Y-108978718D01*
X123512120Y-108932906D01*
X123454704Y-108909242D01*
X123397661Y-108884792D01*
X123388525Y-108881964D01*
X123295107Y-108853759D01*
X123234195Y-108841698D01*
X123173471Y-108828791D01*
X123163959Y-108827791D01*
X123066841Y-108818269D01*
X123066837Y-108818269D01*
X123033647Y-108815000D01*
X120966353Y-108815000D01*
X120937399Y-108817852D01*
X120934427Y-108817831D01*
X120924909Y-108818764D01*
X120876790Y-108823821D01*
X120865717Y-108824912D01*
X120865348Y-108825024D01*
X120827860Y-108828964D01*
X120767017Y-108841453D01*
X120706058Y-108853082D01*
X120696902Y-108855846D01*
X120603683Y-108884702D01*
X120546434Y-108908768D01*
X120488881Y-108932021D01*
X120480436Y-108936511D01*
X120394598Y-108982923D01*
X120343115Y-109017650D01*
X120291179Y-109051636D01*
X120283767Y-109057680D01*
X120208579Y-109119882D01*
X120164818Y-109163949D01*
X120120478Y-109207370D01*
X120114381Y-109214739D01*
X120052706Y-109290360D01*
X120018368Y-109342041D01*
X119983267Y-109393306D01*
X119978718Y-109401719D01*
X119932906Y-109487880D01*
X119909242Y-109545296D01*
X119884792Y-109602339D01*
X119881964Y-109611475D01*
X119853759Y-109704893D01*
X119841698Y-109765805D01*
X119828791Y-109826529D01*
X119827791Y-109836041D01*
X119818269Y-109933159D01*
X119818269Y-109933173D01*
X119815001Y-109966353D01*
X119815000Y-110815000D01*
X115685000Y-110815000D01*
X115685000Y-104966353D01*
X115682148Y-104937399D01*
X115682169Y-104934427D01*
X115681236Y-104924909D01*
X115676179Y-104876790D01*
X115675088Y-104865717D01*
X115674976Y-104865348D01*
X115671036Y-104827860D01*
X115658547Y-104767017D01*
X115646918Y-104706058D01*
X115644154Y-104696902D01*
X115615298Y-104603683D01*
X115591226Y-104546419D01*
X115567979Y-104488881D01*
X115563489Y-104480436D01*
X115517077Y-104394598D01*
X115482350Y-104343115D01*
X115448364Y-104291179D01*
X115442320Y-104283767D01*
X115380118Y-104208579D01*
X115336051Y-104164818D01*
X115292630Y-104120478D01*
X115285261Y-104114381D01*
X115209640Y-104052706D01*
X115157959Y-104018368D01*
X115106694Y-103983267D01*
X115098281Y-103978718D01*
X115012120Y-103932906D01*
X114954704Y-103909242D01*
X114897661Y-103884792D01*
X114888525Y-103881964D01*
X114795107Y-103853759D01*
X114734195Y-103841698D01*
X114673471Y-103828791D01*
X114663959Y-103827791D01*
X114566841Y-103818269D01*
X114566837Y-103818269D01*
X114533647Y-103815000D01*
X111185000Y-103815000D01*
X111185000Y-97370177D01*
X111442564Y-97627741D01*
X111842721Y-97895117D01*
X112287351Y-98079289D01*
X112759368Y-98173179D01*
X113240632Y-98173179D01*
X113712649Y-98079289D01*
X114157279Y-97895117D01*
X114557436Y-97627741D01*
X114815000Y-97370177D01*
X114815000Y-100033646D01*
X114817852Y-100062600D01*
X114817831Y-100065573D01*
X114818764Y-100075092D01*
X114823824Y-100123233D01*
X114824912Y-100134282D01*
X114825024Y-100134650D01*
X114828964Y-100172140D01*
X114841455Y-100232990D01*
X114853082Y-100293942D01*
X114855845Y-100303096D01*
X114855847Y-100303102D01*
X114884702Y-100396317D01*
X114908754Y-100453533D01*
X114932020Y-100511119D01*
X114936510Y-100519564D01*
X114982923Y-100605401D01*
X115017638Y-100656867D01*
X115051636Y-100708821D01*
X115057680Y-100716232D01*
X115119882Y-100791421D01*
X115163930Y-100835162D01*
X115207369Y-100879522D01*
X115214739Y-100885618D01*
X115214744Y-100885623D01*
X115214750Y-100885627D01*
X115290360Y-100947294D01*
X115342041Y-100981632D01*
X115393306Y-101016733D01*
X115401719Y-101021282D01*
X115487880Y-101067094D01*
X115545296Y-101090758D01*
X115602339Y-101115208D01*
X115611475Y-101118036D01*
X115704893Y-101146241D01*
X115765813Y-101158303D01*
X115826530Y-101171209D01*
X115836042Y-101172209D01*
X115933159Y-101181731D01*
X115933163Y-101181731D01*
X115966353Y-101185000D01*
X119815000Y-101185000D01*
X119815001Y-102033647D01*
X119817852Y-102062591D01*
X119817831Y-102065573D01*
X119818764Y-102075092D01*
X119823838Y-102123369D01*
X119824913Y-102134283D01*
X119825023Y-102134647D01*
X119828964Y-102172140D01*
X119841455Y-102232990D01*
X119853082Y-102293942D01*
X119855845Y-102303096D01*
X119855847Y-102303102D01*
X119884702Y-102396317D01*
X119908754Y-102453533D01*
X119932020Y-102511119D01*
X119936510Y-102519564D01*
X119982923Y-102605401D01*
X120017638Y-102656867D01*
X120051636Y-102708821D01*
X120057680Y-102716232D01*
X120119882Y-102791421D01*
X120163930Y-102835162D01*
X120207369Y-102879522D01*
X120214739Y-102885618D01*
X120214744Y-102885623D01*
X120214750Y-102885627D01*
X120290360Y-102947294D01*
X120342041Y-102981632D01*
X120393306Y-103016733D01*
X120401719Y-103021282D01*
X120487880Y-103067094D01*
X120545296Y-103090758D01*
X120602339Y-103115208D01*
X120611475Y-103118036D01*
X120704893Y-103146241D01*
X120765813Y-103158303D01*
X120826530Y-103171209D01*
X120836042Y-103172209D01*
X120933159Y-103181731D01*
X120933163Y-103181731D01*
X120966353Y-103185000D01*
X123033647Y-103185000D01*
X123062601Y-103182148D01*
X123065573Y-103182169D01*
X123075092Y-103181236D01*
X123123218Y-103176178D01*
X123134283Y-103175088D01*
X123134652Y-103174976D01*
X123172140Y-103171036D01*
X123232990Y-103158545D01*
X123293942Y-103146918D01*
X123303096Y-103144155D01*
X123303102Y-103144153D01*
X123396317Y-103115298D01*
X123453533Y-103091246D01*
X123511119Y-103067980D01*
X123519564Y-103063490D01*
X123605401Y-103017077D01*
X123656867Y-102982362D01*
X123708821Y-102948364D01*
X123716232Y-102942320D01*
X123791421Y-102880118D01*
X123835162Y-102836070D01*
X123879522Y-102792631D01*
X123885618Y-102785261D01*
X123885623Y-102785256D01*
X123885627Y-102785250D01*
X123947294Y-102709640D01*
X123981632Y-102657959D01*
X124016733Y-102606694D01*
X124021282Y-102598281D01*
X124067094Y-102512120D01*
X124090758Y-102454704D01*
X124115208Y-102397661D01*
X124118036Y-102388525D01*
X124146241Y-102295107D01*
X124158303Y-102234187D01*
X124171209Y-102173470D01*
X124172209Y-102163958D01*
X124181731Y-102066841D01*
X124181731Y-102066837D01*
X124185000Y-102033647D01*
X124185000Y-101185000D01*
X128815000Y-101185000D01*
X128815001Y-102033647D01*
X128817852Y-102062591D01*
X128817831Y-102065573D01*
X128818764Y-102075092D01*
X128823838Y-102123369D01*
X128824913Y-102134283D01*
X128825023Y-102134647D01*
X128828964Y-102172140D01*
X128841455Y-102232990D01*
X128853082Y-102293942D01*
X128855845Y-102303096D01*
X128855847Y-102303102D01*
X128884702Y-102396317D01*
X128908754Y-102453533D01*
X128932020Y-102511119D01*
X128936510Y-102519564D01*
X128982923Y-102605401D01*
X129017638Y-102656867D01*
X129051636Y-102708821D01*
X129057680Y-102716232D01*
X129119882Y-102791421D01*
X129163930Y-102835162D01*
X129207369Y-102879522D01*
X129214739Y-102885618D01*
X129214744Y-102885623D01*
X129214750Y-102885627D01*
X129290360Y-102947294D01*
X129342041Y-102981632D01*
X129393306Y-103016733D01*
X129401719Y-103021282D01*
X129487880Y-103067094D01*
X129545296Y-103090758D01*
X129602339Y-103115208D01*
X129611475Y-103118036D01*
X129704893Y-103146241D01*
X129765813Y-103158303D01*
X129826530Y-103171209D01*
X129836042Y-103172209D01*
X129933159Y-103181731D01*
X129933163Y-103181731D01*
X129966353Y-103185000D01*
X132033647Y-103185000D01*
X132062601Y-103182148D01*
X132065573Y-103182169D01*
X132075092Y-103181236D01*
X132123218Y-103176178D01*
X132134283Y-103175088D01*
X132134652Y-103174976D01*
X132172140Y-103171036D01*
X132232990Y-103158545D01*
X132293942Y-103146918D01*
X132303096Y-103144155D01*
X132303102Y-103144153D01*
X132396317Y-103115298D01*
X132453533Y-103091246D01*
X132511119Y-103067980D01*
X132519564Y-103063490D01*
X132605401Y-103017077D01*
X132656867Y-102982362D01*
X132708821Y-102948364D01*
X132716232Y-102942320D01*
X132791421Y-102880118D01*
X132835162Y-102836070D01*
X132879522Y-102792631D01*
X132885618Y-102785261D01*
X132885623Y-102785256D01*
X132885627Y-102785250D01*
X132947294Y-102709640D01*
X132981632Y-102657959D01*
X133016733Y-102606694D01*
X133021282Y-102598281D01*
X133067094Y-102512120D01*
X133090758Y-102454704D01*
X133115208Y-102397661D01*
X133118036Y-102388525D01*
X133146241Y-102295107D01*
X133158303Y-102234187D01*
X133171209Y-102173470D01*
X133172209Y-102163958D01*
X133181731Y-102066841D01*
X133181731Y-102066837D01*
X133185000Y-102033647D01*
X133185000Y-101185000D01*
X137815000Y-101185000D01*
X137815001Y-102033647D01*
X137817852Y-102062591D01*
X137817831Y-102065573D01*
X137818764Y-102075092D01*
X137823838Y-102123369D01*
X137824913Y-102134283D01*
X137825023Y-102134647D01*
X137828964Y-102172140D01*
X137841455Y-102232990D01*
X137853082Y-102293942D01*
X137855845Y-102303096D01*
X137855847Y-102303102D01*
X137884702Y-102396317D01*
X137908754Y-102453533D01*
X137932020Y-102511119D01*
X137936510Y-102519564D01*
X137982923Y-102605401D01*
X138017638Y-102656867D01*
X138051636Y-102708821D01*
X138057680Y-102716232D01*
X138119882Y-102791421D01*
X138163930Y-102835162D01*
X138207369Y-102879522D01*
X138214739Y-102885618D01*
X138214744Y-102885623D01*
X138214750Y-102885627D01*
X138290360Y-102947294D01*
X138342041Y-102981632D01*
X138393306Y-103016733D01*
X138401719Y-103021282D01*
X138487880Y-103067094D01*
X138545296Y-103090758D01*
X138602339Y-103115208D01*
X138611475Y-103118036D01*
X138704893Y-103146241D01*
X138765813Y-103158303D01*
X138826530Y-103171209D01*
X138836042Y-103172209D01*
X138933159Y-103181731D01*
X138933163Y-103181731D01*
X138966353Y-103185000D01*
X141033647Y-103185000D01*
X141062601Y-103182148D01*
X141065573Y-103182169D01*
X141075092Y-103181236D01*
X141123218Y-103176178D01*
X141134283Y-103175088D01*
X141134652Y-103174976D01*
X141172140Y-103171036D01*
X141232990Y-103158545D01*
X141293942Y-103146918D01*
X141303096Y-103144155D01*
X141303102Y-103144153D01*
X141396317Y-103115298D01*
X141453533Y-103091246D01*
X141511119Y-103067980D01*
X141519564Y-103063490D01*
X141605401Y-103017077D01*
X141656867Y-102982362D01*
X141708821Y-102948364D01*
X141716232Y-102942320D01*
X141791421Y-102880118D01*
X141835162Y-102836070D01*
X141879522Y-102792631D01*
X141885618Y-102785261D01*
X141885623Y-102785256D01*
X141885627Y-102785250D01*
X141947294Y-102709640D01*
X141981632Y-102657959D01*
X142016733Y-102606694D01*
X142021282Y-102598281D01*
X142067094Y-102512120D01*
X142090758Y-102454704D01*
X142115208Y-102397661D01*
X142118036Y-102388525D01*
X142146241Y-102295107D01*
X142158303Y-102234187D01*
X142171209Y-102173470D01*
X142172209Y-102163958D01*
X142181731Y-102066841D01*
X142181731Y-102066837D01*
X142185000Y-102033647D01*
X142185000Y-101185000D01*
X146815000Y-101185000D01*
X146815001Y-102033647D01*
X146817852Y-102062591D01*
X146817831Y-102065573D01*
X146818764Y-102075092D01*
X146823838Y-102123369D01*
X146824913Y-102134283D01*
X146825023Y-102134647D01*
X146828964Y-102172140D01*
X146841455Y-102232990D01*
X146853082Y-102293942D01*
X146855845Y-102303096D01*
X146855847Y-102303102D01*
X146884702Y-102396317D01*
X146908754Y-102453533D01*
X146932020Y-102511119D01*
X146936510Y-102519564D01*
X146982923Y-102605401D01*
X147017638Y-102656867D01*
X147051636Y-102708821D01*
X147057680Y-102716232D01*
X147119882Y-102791421D01*
X147163930Y-102835162D01*
X147207369Y-102879522D01*
X147214739Y-102885618D01*
X147214744Y-102885623D01*
X147214750Y-102885627D01*
X147290360Y-102947294D01*
X147342041Y-102981632D01*
X147393306Y-103016733D01*
X147401719Y-103021282D01*
X147487880Y-103067094D01*
X147545296Y-103090758D01*
X147602339Y-103115208D01*
X147611475Y-103118036D01*
X147704893Y-103146241D01*
X147765813Y-103158303D01*
X147826530Y-103171209D01*
X147836042Y-103172209D01*
X147933159Y-103181731D01*
X147933163Y-103181731D01*
X147966353Y-103185000D01*
X150033647Y-103185000D01*
X150062601Y-103182148D01*
X150065573Y-103182169D01*
X150075092Y-103181236D01*
X150123218Y-103176178D01*
X150134283Y-103175088D01*
X150134652Y-103174976D01*
X150172140Y-103171036D01*
X150232990Y-103158545D01*
X150293942Y-103146918D01*
X150303096Y-103144155D01*
X150303102Y-103144153D01*
X150396317Y-103115298D01*
X150453533Y-103091246D01*
X150511119Y-103067980D01*
X150519564Y-103063490D01*
X150605401Y-103017077D01*
X150656867Y-102982362D01*
X150708821Y-102948364D01*
X150716232Y-102942320D01*
X150791421Y-102880118D01*
X150835162Y-102836070D01*
X150879522Y-102792631D01*
X150885618Y-102785261D01*
X150885623Y-102785256D01*
X150885627Y-102785250D01*
X150947294Y-102709640D01*
X150981632Y-102657959D01*
X151016733Y-102606694D01*
X151021282Y-102598281D01*
X151067094Y-102512120D01*
X151090758Y-102454704D01*
X151115208Y-102397661D01*
X151118036Y-102388525D01*
X151146241Y-102295107D01*
X151158303Y-102234187D01*
X151171209Y-102173470D01*
X151172209Y-102163958D01*
X151181731Y-102066841D01*
X151181731Y-102066837D01*
X151185000Y-102033647D01*
X151185000Y-101185000D01*
X155815000Y-101185000D01*
X155815001Y-102033647D01*
X155817852Y-102062591D01*
X155817831Y-102065573D01*
X155818764Y-102075092D01*
X155823838Y-102123369D01*
X155824913Y-102134283D01*
X155825023Y-102134647D01*
X155828964Y-102172140D01*
X155841455Y-102232990D01*
X155853082Y-102293942D01*
X155855845Y-102303096D01*
X155855847Y-102303102D01*
X155884702Y-102396317D01*
X155908754Y-102453533D01*
X155932020Y-102511119D01*
X155936510Y-102519564D01*
X155982923Y-102605401D01*
X156017638Y-102656867D01*
X156051636Y-102708821D01*
X156057680Y-102716232D01*
X156119882Y-102791421D01*
X156163930Y-102835162D01*
X156207369Y-102879522D01*
X156214739Y-102885618D01*
X156214744Y-102885623D01*
X156214750Y-102885627D01*
X156290360Y-102947294D01*
X156342041Y-102981632D01*
X156393306Y-103016733D01*
X156401719Y-103021282D01*
X156487880Y-103067094D01*
X156545296Y-103090758D01*
X156602339Y-103115208D01*
X156611475Y-103118036D01*
X156704893Y-103146241D01*
X156765813Y-103158303D01*
X156826530Y-103171209D01*
X156836042Y-103172209D01*
X156933159Y-103181731D01*
X156933163Y-103181731D01*
X156966353Y-103185000D01*
X159033647Y-103185000D01*
X159062601Y-103182148D01*
X159065573Y-103182169D01*
X159075092Y-103181236D01*
X159123218Y-103176178D01*
X159134283Y-103175088D01*
X159134652Y-103174976D01*
X159172140Y-103171036D01*
X159232990Y-103158545D01*
X159293942Y-103146918D01*
X159303096Y-103144155D01*
X159303102Y-103144153D01*
X159396317Y-103115298D01*
X159453533Y-103091246D01*
X159511119Y-103067980D01*
X159519564Y-103063490D01*
X159605401Y-103017077D01*
X159656867Y-102982362D01*
X159708821Y-102948364D01*
X159716232Y-102942320D01*
X159791421Y-102880118D01*
X159835162Y-102836070D01*
X159879522Y-102792631D01*
X159885618Y-102785261D01*
X159885623Y-102785256D01*
X159885627Y-102785250D01*
X159947294Y-102709640D01*
X159981632Y-102657959D01*
X160016733Y-102606694D01*
X160021282Y-102598281D01*
X160067094Y-102512120D01*
X160090758Y-102454704D01*
X160115208Y-102397661D01*
X160118036Y-102388525D01*
X160146241Y-102295107D01*
X160158303Y-102234187D01*
X160171209Y-102173470D01*
X160172209Y-102163958D01*
X160181731Y-102066841D01*
X160181731Y-102066837D01*
X160185000Y-102033647D01*
X160185000Y-101185000D01*
X164815000Y-101185000D01*
X164815001Y-102033647D01*
X164817852Y-102062591D01*
X164817831Y-102065573D01*
X164818764Y-102075092D01*
X164823838Y-102123369D01*
X164824913Y-102134283D01*
X164825023Y-102134647D01*
X164828964Y-102172140D01*
X164841455Y-102232990D01*
X164853082Y-102293942D01*
X164855845Y-102303096D01*
X164855847Y-102303102D01*
X164884702Y-102396317D01*
X164908754Y-102453533D01*
X164932020Y-102511119D01*
X164936510Y-102519564D01*
X164982923Y-102605401D01*
X165017638Y-102656867D01*
X165051636Y-102708821D01*
X165057680Y-102716232D01*
X165119882Y-102791421D01*
X165163930Y-102835162D01*
X165207369Y-102879522D01*
X165214739Y-102885618D01*
X165214744Y-102885623D01*
X165214750Y-102885627D01*
X165290360Y-102947294D01*
X165342041Y-102981632D01*
X165393306Y-103016733D01*
X165401719Y-103021282D01*
X165487880Y-103067094D01*
X165545296Y-103090758D01*
X165602339Y-103115208D01*
X165611475Y-103118036D01*
X165704893Y-103146241D01*
X165765813Y-103158303D01*
X165826530Y-103171209D01*
X165836042Y-103172209D01*
X165933159Y-103181731D01*
X165933163Y-103181731D01*
X165966353Y-103185000D01*
X168033647Y-103185000D01*
X168062601Y-103182148D01*
X168065573Y-103182169D01*
X168075092Y-103181236D01*
X168123218Y-103176178D01*
X168134283Y-103175088D01*
X168134652Y-103174976D01*
X168172140Y-103171036D01*
X168232990Y-103158545D01*
X168293942Y-103146918D01*
X168303096Y-103144155D01*
X168303102Y-103144153D01*
X168396317Y-103115298D01*
X168453533Y-103091246D01*
X168511119Y-103067980D01*
X168519564Y-103063490D01*
X168605401Y-103017077D01*
X168656867Y-102982362D01*
X168708821Y-102948364D01*
X168716232Y-102942320D01*
X168791421Y-102880118D01*
X168835162Y-102836070D01*
X168879522Y-102792631D01*
X168885618Y-102785261D01*
X168885623Y-102785256D01*
X168885627Y-102785250D01*
X168947294Y-102709640D01*
X168981632Y-102657959D01*
X169016733Y-102606694D01*
X169021282Y-102598281D01*
X169067094Y-102512120D01*
X169090758Y-102454704D01*
X169115208Y-102397661D01*
X169118036Y-102388525D01*
X169146241Y-102295107D01*
X169158303Y-102234187D01*
X169171209Y-102173470D01*
X169172209Y-102163958D01*
X169181731Y-102066841D01*
X169181731Y-102066837D01*
X169185000Y-102033647D01*
X169185000Y-101185000D01*
X173815000Y-101185000D01*
X173815001Y-102033647D01*
X173817852Y-102062591D01*
X173817831Y-102065573D01*
X173818764Y-102075092D01*
X173823838Y-102123369D01*
X173824913Y-102134283D01*
X173825023Y-102134647D01*
X173828964Y-102172140D01*
X173841455Y-102232990D01*
X173853082Y-102293942D01*
X173855845Y-102303096D01*
X173855847Y-102303102D01*
X173884702Y-102396317D01*
X173908754Y-102453533D01*
X173932020Y-102511119D01*
X173936510Y-102519564D01*
X173982923Y-102605401D01*
X174017638Y-102656867D01*
X174051636Y-102708821D01*
X174057680Y-102716232D01*
X174119882Y-102791421D01*
X174163930Y-102835162D01*
X174207369Y-102879522D01*
X174214739Y-102885618D01*
X174214744Y-102885623D01*
X174214750Y-102885627D01*
X174290360Y-102947294D01*
X174342041Y-102981632D01*
X174393306Y-103016733D01*
X174401719Y-103021282D01*
X174487880Y-103067094D01*
X174545296Y-103090758D01*
X174602339Y-103115208D01*
X174611475Y-103118036D01*
X174704893Y-103146241D01*
X174765813Y-103158303D01*
X174826530Y-103171209D01*
X174836042Y-103172209D01*
X174933159Y-103181731D01*
X174933163Y-103181731D01*
X174966353Y-103185000D01*
X177033647Y-103185000D01*
X177062601Y-103182148D01*
X177065573Y-103182169D01*
X177075092Y-103181236D01*
X177123218Y-103176178D01*
X177134283Y-103175088D01*
X177134652Y-103174976D01*
X177172140Y-103171036D01*
X177232990Y-103158545D01*
X177293942Y-103146918D01*
X177303096Y-103144155D01*
X177303102Y-103144153D01*
X177396317Y-103115298D01*
X177453533Y-103091246D01*
X177511119Y-103067980D01*
X177519564Y-103063490D01*
X177605401Y-103017077D01*
X177656867Y-102982362D01*
X177708821Y-102948364D01*
X177716232Y-102942320D01*
X177791421Y-102880118D01*
X177835162Y-102836070D01*
X177879522Y-102792631D01*
X177885618Y-102785261D01*
X177885623Y-102785256D01*
X177885627Y-102785250D01*
X177947294Y-102709640D01*
X177981632Y-102657959D01*
X178016733Y-102606694D01*
X178021282Y-102598281D01*
X178067094Y-102512120D01*
X178090758Y-102454704D01*
X178115208Y-102397661D01*
X178118036Y-102388525D01*
X178146241Y-102295107D01*
X178158303Y-102234187D01*
X178171209Y-102173470D01*
X178172209Y-102163958D01*
X178181731Y-102066841D01*
X178181731Y-102066837D01*
X178185000Y-102033647D01*
X178185000Y-101185000D01*
X179033647Y-101185000D01*
X179062601Y-101182148D01*
X179065573Y-101182169D01*
X179075092Y-101181236D01*
X179123218Y-101176178D01*
X179134283Y-101175088D01*
X179134652Y-101174976D01*
X179172140Y-101171036D01*
X179232990Y-101158545D01*
X179293942Y-101146918D01*
X179303096Y-101144155D01*
X179303102Y-101144153D01*
X179396317Y-101115298D01*
X179453533Y-101091246D01*
X179511119Y-101067980D01*
X179519564Y-101063490D01*
X179605401Y-101017077D01*
X179656867Y-100982362D01*
X179708821Y-100948364D01*
X179716232Y-100942320D01*
X179791421Y-100880118D01*
X179835162Y-100836070D01*
X179879522Y-100792631D01*
X179885618Y-100785261D01*
X179885623Y-100785256D01*
X179885627Y-100785250D01*
X179947294Y-100709640D01*
X179981632Y-100657959D01*
X180016733Y-100606694D01*
X180021282Y-100598281D01*
X180067094Y-100512120D01*
X180090758Y-100454704D01*
X180115208Y-100397661D01*
X180118036Y-100388525D01*
X180146241Y-100295107D01*
X180158303Y-100234187D01*
X180171209Y-100173470D01*
X180172209Y-100163958D01*
X180181731Y-100066841D01*
X180181731Y-100066837D01*
X180185000Y-100033647D01*
X180185000Y-97783736D01*
X181460582Y-96508154D01*
X181486710Y-96486711D01*
X181508154Y-96460582D01*
X181508159Y-96460577D01*
X181572311Y-96382408D01*
X181572312Y-96382407D01*
X181635919Y-96263406D01*
X181675088Y-96134283D01*
X181685000Y-96033647D01*
X181685000Y-96033640D01*
X181688313Y-96000001D01*
X181685000Y-95966362D01*
X181685000Y-92802172D01*
X181781525Y-92946632D01*
X181988368Y-93153475D01*
X182231589Y-93315990D01*
X182501842Y-93427932D01*
X182788740Y-93485000D01*
X183081260Y-93485000D01*
X183368158Y-93427932D01*
X183638411Y-93315990D01*
X183881632Y-93153475D01*
X184088475Y-92946632D01*
X184205000Y-92772240D01*
X184321525Y-92946632D01*
X184528368Y-93153475D01*
X184771589Y-93315990D01*
X185041842Y-93427932D01*
X185328740Y-93485000D01*
X185621260Y-93485000D01*
X185908158Y-93427932D01*
X186178411Y-93315990D01*
X186421632Y-93153475D01*
X186628475Y-92946632D01*
X186745000Y-92772240D01*
X186861525Y-92946632D01*
X187068368Y-93153475D01*
X187311589Y-93315990D01*
X187581842Y-93427932D01*
X187868740Y-93485000D01*
X188161260Y-93485000D01*
X188448158Y-93427932D01*
X188718411Y-93315990D01*
X188961632Y-93153475D01*
X189168475Y-92946632D01*
X189285000Y-92772240D01*
X189401525Y-92946632D01*
X189608368Y-93153475D01*
X189851589Y-93315990D01*
X190121842Y-93427932D01*
X190408740Y-93485000D01*
X190701260Y-93485000D01*
X190988158Y-93427932D01*
X191258411Y-93315990D01*
X191501632Y-93153475D01*
X191633487Y-93021620D01*
X191655498Y-93094180D01*
X191714463Y-93204494D01*
X191793815Y-93301185D01*
X191890506Y-93380537D01*
X192000820Y-93439502D01*
X192120518Y-93475812D01*
X192245000Y-93488072D01*
X192809250Y-93485000D01*
X192968000Y-93326250D01*
X192968000Y-92127000D01*
X192948000Y-92127000D01*
X192948000Y-91873000D01*
X192968000Y-91873000D01*
X192968000Y-89587000D01*
X192948000Y-89587000D01*
X192948000Y-89333000D01*
X192968000Y-89333000D01*
X192968000Y-89313000D01*
X193222000Y-89313000D01*
X193222000Y-89333000D01*
G37*
X193222000Y-89333000D02*
X193242000Y-89333000D01*
X193242000Y-89587000D01*
X193222000Y-89587000D01*
X193222000Y-91873000D01*
X193242000Y-91873000D01*
X193242000Y-92127000D01*
X193222000Y-92127000D01*
X193222000Y-93326250D01*
X193380750Y-93485000D01*
X193945000Y-93488072D01*
X194069482Y-93475812D01*
X194189180Y-93439502D01*
X194299494Y-93380537D01*
X194396185Y-93301185D01*
X194475537Y-93204494D01*
X194534502Y-93094180D01*
X194542641Y-93067350D01*
X194568402Y-93114994D01*
X194603122Y-93166468D01*
X194637117Y-93218418D01*
X194643161Y-93225829D01*
X194767565Y-93376207D01*
X194811638Y-93419973D01*
X194855057Y-93464311D01*
X194862426Y-93470408D01*
X195013668Y-93593758D01*
X195065397Y-93628126D01*
X195116608Y-93663191D01*
X195125016Y-93667737D01*
X195125020Y-93667740D01*
X195125024Y-93667742D01*
X195297343Y-93759366D01*
X195354739Y-93783022D01*
X195411807Y-93807482D01*
X195420944Y-93810310D01*
X195607780Y-93866719D01*
X195668690Y-93878780D01*
X195729409Y-93891686D01*
X195738921Y-93892686D01*
X195933155Y-93911731D01*
X195933163Y-93911731D01*
X195966353Y-93915000D01*
X201359823Y-93915000D01*
X201102259Y-94172564D01*
X200834883Y-94572721D01*
X200650711Y-95017351D01*
X200556821Y-95489368D01*
X200556821Y-95970632D01*
X200650711Y-96442649D01*
X200834883Y-96887279D01*
X201102259Y-97287436D01*
X201359823Y-97545000D01*
X195966353Y-97545000D01*
X195937045Y-97547887D01*
X195930933Y-97547844D01*
X195921415Y-97548777D01*
X195727318Y-97569178D01*
X195666504Y-97581661D01*
X195605519Y-97593295D01*
X195596363Y-97596059D01*
X195409925Y-97653771D01*
X195352692Y-97677830D01*
X195295127Y-97701087D01*
X195286682Y-97705577D01*
X195115006Y-97798402D01*
X195063532Y-97833122D01*
X195011582Y-97867117D01*
X195004170Y-97873162D01*
X194853793Y-97997565D01*
X194810027Y-98041638D01*
X194765689Y-98085057D01*
X194759592Y-98092426D01*
X194636242Y-98243668D01*
X194601881Y-98295386D01*
X194566809Y-98346607D01*
X194562260Y-98355020D01*
X194470635Y-98527343D01*
X194446978Y-98584739D01*
X194422519Y-98641807D01*
X194419690Y-98650943D01*
X194363281Y-98837780D01*
X194351219Y-98898698D01*
X194338314Y-98959410D01*
X194337314Y-98968922D01*
X194318269Y-99163155D01*
X194318269Y-99163173D01*
X194315001Y-99196353D01*
X194315000Y-103466495D01*
X194305778Y-103560546D01*
X194288194Y-103618787D01*
X194259635Y-103672500D01*
X194221183Y-103719646D01*
X194174310Y-103758423D01*
X194120796Y-103787358D01*
X194062677Y-103805349D01*
X193970855Y-103815000D01*
X183466353Y-103815000D01*
X183437399Y-103817852D01*
X183434427Y-103817831D01*
X183424909Y-103818764D01*
X183376790Y-103823821D01*
X183365717Y-103824912D01*
X183365348Y-103825024D01*
X183327860Y-103828964D01*
X183267017Y-103841453D01*
X183206058Y-103853082D01*
X183196902Y-103855846D01*
X183103683Y-103884702D01*
X183046434Y-103908768D01*
X182988881Y-103932021D01*
X182980436Y-103936511D01*
X182894598Y-103982923D01*
X182843115Y-104017650D01*
X182791179Y-104051636D01*
X182783767Y-104057680D01*
X182708579Y-104119882D01*
X182664818Y-104163949D01*
X182620478Y-104207370D01*
X182614381Y-104214739D01*
X182552706Y-104290360D01*
X182518368Y-104342041D01*
X182483267Y-104393306D01*
X182478718Y-104401719D01*
X182432906Y-104487880D01*
X182409242Y-104545296D01*
X182384792Y-104602339D01*
X182381964Y-104611475D01*
X182353759Y-104704893D01*
X182341698Y-104765805D01*
X182328791Y-104826529D01*
X182327791Y-104836041D01*
X182318269Y-104933159D01*
X182318269Y-104933173D01*
X182315001Y-104966353D01*
X182315000Y-110815000D01*
X178185000Y-110815000D01*
X178185000Y-109966353D01*
X178182148Y-109937399D01*
X178182169Y-109934427D01*
X178181236Y-109924909D01*
X178176179Y-109876790D01*
X178175088Y-109865717D01*
X178174976Y-109865348D01*
X178171036Y-109827860D01*
X178158547Y-109767017D01*
X178146918Y-109706058D01*
X178144154Y-109696902D01*
X178115298Y-109603683D01*
X178091232Y-109546434D01*
X178067979Y-109488881D01*
X178063489Y-109480436D01*
X178017077Y-109394598D01*
X177982350Y-109343115D01*
X177948364Y-109291179D01*
X177942320Y-109283767D01*
X177880118Y-109208579D01*
X177836051Y-109164818D01*
X177792630Y-109120478D01*
X177785261Y-109114381D01*
X177709640Y-109052706D01*
X177657959Y-109018368D01*
X177606694Y-108983267D01*
X177598281Y-108978718D01*
X177512120Y-108932906D01*
X177454704Y-108909242D01*
X177397661Y-108884792D01*
X177388525Y-108881964D01*
X177295107Y-108853759D01*
X177234195Y-108841698D01*
X177173471Y-108828791D01*
X177163959Y-108827791D01*
X177066841Y-108818269D01*
X177066837Y-108818269D01*
X177033647Y-108815000D01*
X174966353Y-108815000D01*
X174937399Y-108817852D01*
X174934427Y-108817831D01*
X174924909Y-108818764D01*
X174876790Y-108823821D01*
X174865717Y-108824912D01*
X174865348Y-108825024D01*
X174827860Y-108828964D01*
X174767017Y-108841453D01*
X174706058Y-108853082D01*
X174696902Y-108855846D01*
X174603683Y-108884702D01*
X174546434Y-108908768D01*
X174488881Y-108932021D01*
X174480436Y-108936511D01*
X174394598Y-108982923D01*
X174343115Y-109017650D01*
X174291179Y-109051636D01*
X174283767Y-109057680D01*
X174208579Y-109119882D01*
X174164818Y-109163949D01*
X174120478Y-109207370D01*
X174114381Y-109214739D01*
X174052706Y-109290360D01*
X174018368Y-109342041D01*
X173983267Y-109393306D01*
X173978718Y-109401719D01*
X173932906Y-109487880D01*
X173909242Y-109545296D01*
X173884792Y-109602339D01*
X173881964Y-109611475D01*
X173853759Y-109704893D01*
X173841698Y-109765805D01*
X173828791Y-109826529D01*
X173827791Y-109836041D01*
X173818269Y-109933159D01*
X173818269Y-109933173D01*
X173815001Y-109966353D01*
X173815000Y-110815000D01*
X169185000Y-110815000D01*
X169185000Y-109966353D01*
X169182148Y-109937399D01*
X169182169Y-109934427D01*
X169181236Y-109924909D01*
X169176179Y-109876790D01*
X169175088Y-109865717D01*
X169174976Y-109865348D01*
X169171036Y-109827860D01*
X169158547Y-109767017D01*
X169146918Y-109706058D01*
X169144154Y-109696902D01*
X169115298Y-109603683D01*
X169091232Y-109546434D01*
X169067979Y-109488881D01*
X169063489Y-109480436D01*
X169017077Y-109394598D01*
X168982350Y-109343115D01*
X168948364Y-109291179D01*
X168942320Y-109283767D01*
X168880118Y-109208579D01*
X168836051Y-109164818D01*
X168792630Y-109120478D01*
X168785261Y-109114381D01*
X168709640Y-109052706D01*
X168657959Y-109018368D01*
X168606694Y-108983267D01*
X168598281Y-108978718D01*
X168512120Y-108932906D01*
X168454704Y-108909242D01*
X168397661Y-108884792D01*
X168388525Y-108881964D01*
X168295107Y-108853759D01*
X168234195Y-108841698D01*
X168173471Y-108828791D01*
X168163959Y-108827791D01*
X168066841Y-108818269D01*
X168066837Y-108818269D01*
X168033647Y-108815000D01*
X165966353Y-108815000D01*
X165937399Y-108817852D01*
X165934427Y-108817831D01*
X165924909Y-108818764D01*
X165876790Y-108823821D01*
X165865717Y-108824912D01*
X165865348Y-108825024D01*
X165827860Y-108828964D01*
X165767017Y-108841453D01*
X165706058Y-108853082D01*
X165696902Y-108855846D01*
X165603683Y-108884702D01*
X165546434Y-108908768D01*
X165488881Y-108932021D01*
X165480436Y-108936511D01*
X165394598Y-108982923D01*
X165343115Y-109017650D01*
X165291179Y-109051636D01*
X165283767Y-109057680D01*
X165208579Y-109119882D01*
X165164818Y-109163949D01*
X165120478Y-109207370D01*
X165114381Y-109214739D01*
X165052706Y-109290360D01*
X165018368Y-109342041D01*
X164983267Y-109393306D01*
X164978718Y-109401719D01*
X164932906Y-109487880D01*
X164909242Y-109545296D01*
X164884792Y-109602339D01*
X164881964Y-109611475D01*
X164853759Y-109704893D01*
X164841698Y-109765805D01*
X164828791Y-109826529D01*
X164827791Y-109836041D01*
X164818269Y-109933159D01*
X164818269Y-109933173D01*
X164815001Y-109966353D01*
X164815000Y-110815000D01*
X160185000Y-110815000D01*
X160185000Y-109966353D01*
X160182148Y-109937399D01*
X160182169Y-109934427D01*
X160181236Y-109924909D01*
X160176179Y-109876790D01*
X160175088Y-109865717D01*
X160174976Y-109865348D01*
X160171036Y-109827860D01*
X160158547Y-109767017D01*
X160146918Y-109706058D01*
X160144154Y-109696902D01*
X160115298Y-109603683D01*
X160091232Y-109546434D01*
X160067979Y-109488881D01*
X160063489Y-109480436D01*
X160017077Y-109394598D01*
X159982350Y-109343115D01*
X159948364Y-109291179D01*
X159942320Y-109283767D01*
X159880118Y-109208579D01*
X159836051Y-109164818D01*
X159792630Y-109120478D01*
X159785261Y-109114381D01*
X159709640Y-109052706D01*
X159657959Y-109018368D01*
X159606694Y-108983267D01*
X159598281Y-108978718D01*
X159512120Y-108932906D01*
X159454704Y-108909242D01*
X159397661Y-108884792D01*
X159388525Y-108881964D01*
X159295107Y-108853759D01*
X159234195Y-108841698D01*
X159173471Y-108828791D01*
X159163959Y-108827791D01*
X159066841Y-108818269D01*
X159066837Y-108818269D01*
X159033647Y-108815000D01*
X156966353Y-108815000D01*
X156937399Y-108817852D01*
X156934427Y-108817831D01*
X156924909Y-108818764D01*
X156876790Y-108823821D01*
X156865717Y-108824912D01*
X156865348Y-108825024D01*
X156827860Y-108828964D01*
X156767017Y-108841453D01*
X156706058Y-108853082D01*
X156696902Y-108855846D01*
X156603683Y-108884702D01*
X156546434Y-108908768D01*
X156488881Y-108932021D01*
X156480436Y-108936511D01*
X156394598Y-108982923D01*
X156343115Y-109017650D01*
X156291179Y-109051636D01*
X156283767Y-109057680D01*
X156208579Y-109119882D01*
X156164818Y-109163949D01*
X156120478Y-109207370D01*
X156114381Y-109214739D01*
X156052706Y-109290360D01*
X156018368Y-109342041D01*
X155983267Y-109393306D01*
X155978718Y-109401719D01*
X155932906Y-109487880D01*
X155909242Y-109545296D01*
X155884792Y-109602339D01*
X155881964Y-109611475D01*
X155853759Y-109704893D01*
X155841698Y-109765805D01*
X155828791Y-109826529D01*
X155827791Y-109836041D01*
X155818269Y-109933159D01*
X155818269Y-109933173D01*
X155815001Y-109966353D01*
X155815000Y-110815000D01*
X151185000Y-110815000D01*
X151185000Y-109966353D01*
X151182148Y-109937399D01*
X151182169Y-109934427D01*
X151181236Y-109924909D01*
X151176179Y-109876790D01*
X151175088Y-109865717D01*
X151174976Y-109865348D01*
X151171036Y-109827860D01*
X151158547Y-109767017D01*
X151146918Y-109706058D01*
X151144154Y-109696902D01*
X151115298Y-109603683D01*
X151091232Y-109546434D01*
X151067979Y-109488881D01*
X151063489Y-109480436D01*
X151017077Y-109394598D01*
X150982350Y-109343115D01*
X150948364Y-109291179D01*
X150942320Y-109283767D01*
X150880118Y-109208579D01*
X150836051Y-109164818D01*
X150792630Y-109120478D01*
X150785261Y-109114381D01*
X150709640Y-109052706D01*
X150657959Y-109018368D01*
X150606694Y-108983267D01*
X150598281Y-108978718D01*
X150512120Y-108932906D01*
X150454704Y-108909242D01*
X150397661Y-108884792D01*
X150388525Y-108881964D01*
X150295107Y-108853759D01*
X150234195Y-108841698D01*
X150173471Y-108828791D01*
X150163959Y-108827791D01*
X150066841Y-108818269D01*
X150066837Y-108818269D01*
X150033647Y-108815000D01*
X147966353Y-108815000D01*
X147937399Y-108817852D01*
X147934427Y-108817831D01*
X147924909Y-108818764D01*
X147876790Y-108823821D01*
X147865717Y-108824912D01*
X147865348Y-108825024D01*
X147827860Y-108828964D01*
X147767017Y-108841453D01*
X147706058Y-108853082D01*
X147696902Y-108855846D01*
X147603683Y-108884702D01*
X147546434Y-108908768D01*
X147488881Y-108932021D01*
X147480436Y-108936511D01*
X147394598Y-108982923D01*
X147343115Y-109017650D01*
X147291179Y-109051636D01*
X147283767Y-109057680D01*
X147208579Y-109119882D01*
X147164818Y-109163949D01*
X147120478Y-109207370D01*
X147114381Y-109214739D01*
X147052706Y-109290360D01*
X147018368Y-109342041D01*
X146983267Y-109393306D01*
X146978718Y-109401719D01*
X146932906Y-109487880D01*
X146909242Y-109545296D01*
X146884792Y-109602339D01*
X146881964Y-109611475D01*
X146853759Y-109704893D01*
X146841698Y-109765805D01*
X146828791Y-109826529D01*
X146827791Y-109836041D01*
X146818269Y-109933159D01*
X146818269Y-109933173D01*
X146815001Y-109966353D01*
X146815000Y-110815000D01*
X142185000Y-110815000D01*
X142185000Y-109966353D01*
X142182148Y-109937399D01*
X142182169Y-109934427D01*
X142181236Y-109924909D01*
X142176179Y-109876790D01*
X142175088Y-109865717D01*
X142174976Y-109865348D01*
X142171036Y-109827860D01*
X142158547Y-109767017D01*
X142146918Y-109706058D01*
X142144154Y-109696902D01*
X142115298Y-109603683D01*
X142091232Y-109546434D01*
X142067979Y-109488881D01*
X142063489Y-109480436D01*
X142017077Y-109394598D01*
X141982350Y-109343115D01*
X141948364Y-109291179D01*
X141942320Y-109283767D01*
X141880118Y-109208579D01*
X141836051Y-109164818D01*
X141792630Y-109120478D01*
X141785261Y-109114381D01*
X141709640Y-109052706D01*
X141657959Y-109018368D01*
X141606694Y-108983267D01*
X141598281Y-108978718D01*
X141512120Y-108932906D01*
X141454704Y-108909242D01*
X141397661Y-108884792D01*
X141388525Y-108881964D01*
X141295107Y-108853759D01*
X141234195Y-108841698D01*
X141173471Y-108828791D01*
X141163959Y-108827791D01*
X141066841Y-108818269D01*
X141066837Y-108818269D01*
X141033647Y-108815000D01*
X138966353Y-108815000D01*
X138937399Y-108817852D01*
X138934427Y-108817831D01*
X138924909Y-108818764D01*
X138876790Y-108823821D01*
X138865717Y-108824912D01*
X138865348Y-108825024D01*
X138827860Y-108828964D01*
X138767017Y-108841453D01*
X138706058Y-108853082D01*
X138696902Y-108855846D01*
X138603683Y-108884702D01*
X138546434Y-108908768D01*
X138488881Y-108932021D01*
X138480436Y-108936511D01*
X138394598Y-108982923D01*
X138343115Y-109017650D01*
X138291179Y-109051636D01*
X138283767Y-109057680D01*
X138208579Y-109119882D01*
X138164818Y-109163949D01*
X138120478Y-109207370D01*
X138114381Y-109214739D01*
X138052706Y-109290360D01*
X138018368Y-109342041D01*
X137983267Y-109393306D01*
X137978718Y-109401719D01*
X137932906Y-109487880D01*
X137909242Y-109545296D01*
X137884792Y-109602339D01*
X137881964Y-109611475D01*
X137853759Y-109704893D01*
X137841698Y-109765805D01*
X137828791Y-109826529D01*
X137827791Y-109836041D01*
X137818269Y-109933159D01*
X137818269Y-109933173D01*
X137815001Y-109966353D01*
X137815000Y-110815000D01*
X133185000Y-110815000D01*
X133185000Y-109966353D01*
X133182148Y-109937399D01*
X133182169Y-109934427D01*
X133181236Y-109924909D01*
X133176179Y-109876790D01*
X133175088Y-109865717D01*
X133174976Y-109865348D01*
X133171036Y-109827860D01*
X133158547Y-109767017D01*
X133146918Y-109706058D01*
X133144154Y-109696902D01*
X133115298Y-109603683D01*
X133091232Y-109546434D01*
X133067979Y-109488881D01*
X133063489Y-109480436D01*
X133017077Y-109394598D01*
X132982350Y-109343115D01*
X132948364Y-109291179D01*
X132942320Y-109283767D01*
X132880118Y-109208579D01*
X132836051Y-109164818D01*
X132792630Y-109120478D01*
X132785261Y-109114381D01*
X132709640Y-109052706D01*
X132657959Y-109018368D01*
X132606694Y-108983267D01*
X132598281Y-108978718D01*
X132512120Y-108932906D01*
X132454704Y-108909242D01*
X132397661Y-108884792D01*
X132388525Y-108881964D01*
X132295107Y-108853759D01*
X132234195Y-108841698D01*
X132173471Y-108828791D01*
X132163959Y-108827791D01*
X132066841Y-108818269D01*
X132066837Y-108818269D01*
X132033647Y-108815000D01*
X129966353Y-108815000D01*
X129937399Y-108817852D01*
X129934427Y-108817831D01*
X129924909Y-108818764D01*
X129876790Y-108823821D01*
X129865717Y-108824912D01*
X129865348Y-108825024D01*
X129827860Y-108828964D01*
X129767017Y-108841453D01*
X129706058Y-108853082D01*
X129696902Y-108855846D01*
X129603683Y-108884702D01*
X129546434Y-108908768D01*
X129488881Y-108932021D01*
X129480436Y-108936511D01*
X129394598Y-108982923D01*
X129343115Y-109017650D01*
X129291179Y-109051636D01*
X129283767Y-109057680D01*
X129208579Y-109119882D01*
X129164818Y-109163949D01*
X129120478Y-109207370D01*
X129114381Y-109214739D01*
X129052706Y-109290360D01*
X129018368Y-109342041D01*
X128983267Y-109393306D01*
X128978718Y-109401719D01*
X128932906Y-109487880D01*
X128909242Y-109545296D01*
X128884792Y-109602339D01*
X128881964Y-109611475D01*
X128853759Y-109704893D01*
X128841698Y-109765805D01*
X128828791Y-109826529D01*
X128827791Y-109836041D01*
X128818269Y-109933159D01*
X128818269Y-109933173D01*
X128815001Y-109966353D01*
X128815000Y-110815000D01*
X124185000Y-110815000D01*
X124185000Y-109966353D01*
X124182148Y-109937399D01*
X124182169Y-109934427D01*
X124181236Y-109924909D01*
X124176179Y-109876790D01*
X124175088Y-109865717D01*
X124174976Y-109865348D01*
X124171036Y-109827860D01*
X124158547Y-109767017D01*
X124146918Y-109706058D01*
X124144154Y-109696902D01*
X124115298Y-109603683D01*
X124091232Y-109546434D01*
X124067979Y-109488881D01*
X124063489Y-109480436D01*
X124017077Y-109394598D01*
X123982350Y-109343115D01*
X123948364Y-109291179D01*
X123942320Y-109283767D01*
X123880118Y-109208579D01*
X123836051Y-109164818D01*
X123792630Y-109120478D01*
X123785261Y-109114381D01*
X123709640Y-109052706D01*
X123657959Y-109018368D01*
X123606694Y-108983267D01*
X123598281Y-108978718D01*
X123512120Y-108932906D01*
X123454704Y-108909242D01*
X123397661Y-108884792D01*
X123388525Y-108881964D01*
X123295107Y-108853759D01*
X123234195Y-108841698D01*
X123173471Y-108828791D01*
X123163959Y-108827791D01*
X123066841Y-108818269D01*
X123066837Y-108818269D01*
X123033647Y-108815000D01*
X120966353Y-108815000D01*
X120937399Y-108817852D01*
X120934427Y-108817831D01*
X120924909Y-108818764D01*
X120876790Y-108823821D01*
X120865717Y-108824912D01*
X120865348Y-108825024D01*
X120827860Y-108828964D01*
X120767017Y-108841453D01*
X120706058Y-108853082D01*
X120696902Y-108855846D01*
X120603683Y-108884702D01*
X120546434Y-108908768D01*
X120488881Y-108932021D01*
X120480436Y-108936511D01*
X120394598Y-108982923D01*
X120343115Y-109017650D01*
X120291179Y-109051636D01*
X120283767Y-109057680D01*
X120208579Y-109119882D01*
X120164818Y-109163949D01*
X120120478Y-109207370D01*
X120114381Y-109214739D01*
X120052706Y-109290360D01*
X120018368Y-109342041D01*
X119983267Y-109393306D01*
X119978718Y-109401719D01*
X119932906Y-109487880D01*
X119909242Y-109545296D01*
X119884792Y-109602339D01*
X119881964Y-109611475D01*
X119853759Y-109704893D01*
X119841698Y-109765805D01*
X119828791Y-109826529D01*
X119827791Y-109836041D01*
X119818269Y-109933159D01*
X119818269Y-109933173D01*
X119815001Y-109966353D01*
X119815000Y-110815000D01*
X115685000Y-110815000D01*
X115685000Y-104966353D01*
X115682148Y-104937399D01*
X115682169Y-104934427D01*
X115681236Y-104924909D01*
X115676179Y-104876790D01*
X115675088Y-104865717D01*
X115674976Y-104865348D01*
X115671036Y-104827860D01*
X115658547Y-104767017D01*
X115646918Y-104706058D01*
X115644154Y-104696902D01*
X115615298Y-104603683D01*
X115591226Y-104546419D01*
X115567979Y-104488881D01*
X115563489Y-104480436D01*
X115517077Y-104394598D01*
X115482350Y-104343115D01*
X115448364Y-104291179D01*
X115442320Y-104283767D01*
X115380118Y-104208579D01*
X115336051Y-104164818D01*
X115292630Y-104120478D01*
X115285261Y-104114381D01*
X115209640Y-104052706D01*
X115157959Y-104018368D01*
X115106694Y-103983267D01*
X115098281Y-103978718D01*
X115012120Y-103932906D01*
X114954704Y-103909242D01*
X114897661Y-103884792D01*
X114888525Y-103881964D01*
X114795107Y-103853759D01*
X114734195Y-103841698D01*
X114673471Y-103828791D01*
X114663959Y-103827791D01*
X114566841Y-103818269D01*
X114566837Y-103818269D01*
X114533647Y-103815000D01*
X111185000Y-103815000D01*
X111185000Y-97370177D01*
X111442564Y-97627741D01*
X111842721Y-97895117D01*
X112287351Y-98079289D01*
X112759368Y-98173179D01*
X113240632Y-98173179D01*
X113712649Y-98079289D01*
X114157279Y-97895117D01*
X114557436Y-97627741D01*
X114815000Y-97370177D01*
X114815000Y-100033646D01*
X114817852Y-100062600D01*
X114817831Y-100065573D01*
X114818764Y-100075092D01*
X114823824Y-100123233D01*
X114824912Y-100134282D01*
X114825024Y-100134650D01*
X114828964Y-100172140D01*
X114841455Y-100232990D01*
X114853082Y-100293942D01*
X114855845Y-100303096D01*
X114855847Y-100303102D01*
X114884702Y-100396317D01*
X114908754Y-100453533D01*
X114932020Y-100511119D01*
X114936510Y-100519564D01*
X114982923Y-100605401D01*
X115017638Y-100656867D01*
X115051636Y-100708821D01*
X115057680Y-100716232D01*
X115119882Y-100791421D01*
X115163930Y-100835162D01*
X115207369Y-100879522D01*
X115214739Y-100885618D01*
X115214744Y-100885623D01*
X115214750Y-100885627D01*
X115290360Y-100947294D01*
X115342041Y-100981632D01*
X115393306Y-101016733D01*
X115401719Y-101021282D01*
X115487880Y-101067094D01*
X115545296Y-101090758D01*
X115602339Y-101115208D01*
X115611475Y-101118036D01*
X115704893Y-101146241D01*
X115765813Y-101158303D01*
X115826530Y-101171209D01*
X115836042Y-101172209D01*
X115933159Y-101181731D01*
X115933163Y-101181731D01*
X115966353Y-101185000D01*
X119815000Y-101185000D01*
X119815001Y-102033647D01*
X119817852Y-102062591D01*
X119817831Y-102065573D01*
X119818764Y-102075092D01*
X119823838Y-102123369D01*
X119824913Y-102134283D01*
X119825023Y-102134647D01*
X119828964Y-102172140D01*
X119841455Y-102232990D01*
X119853082Y-102293942D01*
X119855845Y-102303096D01*
X119855847Y-102303102D01*
X119884702Y-102396317D01*
X119908754Y-102453533D01*
X119932020Y-102511119D01*
X119936510Y-102519564D01*
X119982923Y-102605401D01*
X120017638Y-102656867D01*
X120051636Y-102708821D01*
X120057680Y-102716232D01*
X120119882Y-102791421D01*
X120163930Y-102835162D01*
X120207369Y-102879522D01*
X120214739Y-102885618D01*
X120214744Y-102885623D01*
X120214750Y-102885627D01*
X120290360Y-102947294D01*
X120342041Y-102981632D01*
X120393306Y-103016733D01*
X120401719Y-103021282D01*
X120487880Y-103067094D01*
X120545296Y-103090758D01*
X120602339Y-103115208D01*
X120611475Y-103118036D01*
X120704893Y-103146241D01*
X120765813Y-103158303D01*
X120826530Y-103171209D01*
X120836042Y-103172209D01*
X120933159Y-103181731D01*
X120933163Y-103181731D01*
X120966353Y-103185000D01*
X123033647Y-103185000D01*
X123062601Y-103182148D01*
X123065573Y-103182169D01*
X123075092Y-103181236D01*
X123123218Y-103176178D01*
X123134283Y-103175088D01*
X123134652Y-103174976D01*
X123172140Y-103171036D01*
X123232990Y-103158545D01*
X123293942Y-103146918D01*
X123303096Y-103144155D01*
X123303102Y-103144153D01*
X123396317Y-103115298D01*
X123453533Y-103091246D01*
X123511119Y-103067980D01*
X123519564Y-103063490D01*
X123605401Y-103017077D01*
X123656867Y-102982362D01*
X123708821Y-102948364D01*
X123716232Y-102942320D01*
X123791421Y-102880118D01*
X123835162Y-102836070D01*
X123879522Y-102792631D01*
X123885618Y-102785261D01*
X123885623Y-102785256D01*
X123885627Y-102785250D01*
X123947294Y-102709640D01*
X123981632Y-102657959D01*
X124016733Y-102606694D01*
X124021282Y-102598281D01*
X124067094Y-102512120D01*
X124090758Y-102454704D01*
X124115208Y-102397661D01*
X124118036Y-102388525D01*
X124146241Y-102295107D01*
X124158303Y-102234187D01*
X124171209Y-102173470D01*
X124172209Y-102163958D01*
X124181731Y-102066841D01*
X124181731Y-102066837D01*
X124185000Y-102033647D01*
X124185000Y-101185000D01*
X128815000Y-101185000D01*
X128815001Y-102033647D01*
X128817852Y-102062591D01*
X128817831Y-102065573D01*
X128818764Y-102075092D01*
X128823838Y-102123369D01*
X128824913Y-102134283D01*
X128825023Y-102134647D01*
X128828964Y-102172140D01*
X128841455Y-102232990D01*
X128853082Y-102293942D01*
X128855845Y-102303096D01*
X128855847Y-102303102D01*
X128884702Y-102396317D01*
X128908754Y-102453533D01*
X128932020Y-102511119D01*
X128936510Y-102519564D01*
X128982923Y-102605401D01*
X129017638Y-102656867D01*
X129051636Y-102708821D01*
X129057680Y-102716232D01*
X129119882Y-102791421D01*
X129163930Y-102835162D01*
X129207369Y-102879522D01*
X129214739Y-102885618D01*
X129214744Y-102885623D01*
X129214750Y-102885627D01*
X129290360Y-102947294D01*
X129342041Y-102981632D01*
X129393306Y-103016733D01*
X129401719Y-103021282D01*
X129487880Y-103067094D01*
X129545296Y-103090758D01*
X129602339Y-103115208D01*
X129611475Y-103118036D01*
X129704893Y-103146241D01*
X129765813Y-103158303D01*
X129826530Y-103171209D01*
X129836042Y-103172209D01*
X129933159Y-103181731D01*
X129933163Y-103181731D01*
X129966353Y-103185000D01*
X132033647Y-103185000D01*
X132062601Y-103182148D01*
X132065573Y-103182169D01*
X132075092Y-103181236D01*
X132123218Y-103176178D01*
X132134283Y-103175088D01*
X132134652Y-103174976D01*
X132172140Y-103171036D01*
X132232990Y-103158545D01*
X132293942Y-103146918D01*
X132303096Y-103144155D01*
X132303102Y-103144153D01*
X132396317Y-103115298D01*
X132453533Y-103091246D01*
X132511119Y-103067980D01*
X132519564Y-103063490D01*
X132605401Y-103017077D01*
X132656867Y-102982362D01*
X132708821Y-102948364D01*
X132716232Y-102942320D01*
X132791421Y-102880118D01*
X132835162Y-102836070D01*
X132879522Y-102792631D01*
X132885618Y-102785261D01*
X132885623Y-102785256D01*
X132885627Y-102785250D01*
X132947294Y-102709640D01*
X132981632Y-102657959D01*
X133016733Y-102606694D01*
X133021282Y-102598281D01*
X133067094Y-102512120D01*
X133090758Y-102454704D01*
X133115208Y-102397661D01*
X133118036Y-102388525D01*
X133146241Y-102295107D01*
X133158303Y-102234187D01*
X133171209Y-102173470D01*
X133172209Y-102163958D01*
X133181731Y-102066841D01*
X133181731Y-102066837D01*
X133185000Y-102033647D01*
X133185000Y-101185000D01*
X137815000Y-101185000D01*
X137815001Y-102033647D01*
X137817852Y-102062591D01*
X137817831Y-102065573D01*
X137818764Y-102075092D01*
X137823838Y-102123369D01*
X137824913Y-102134283D01*
X137825023Y-102134647D01*
X137828964Y-102172140D01*
X137841455Y-102232990D01*
X137853082Y-102293942D01*
X137855845Y-102303096D01*
X137855847Y-102303102D01*
X137884702Y-102396317D01*
X137908754Y-102453533D01*
X137932020Y-102511119D01*
X137936510Y-102519564D01*
X137982923Y-102605401D01*
X138017638Y-102656867D01*
X138051636Y-102708821D01*
X138057680Y-102716232D01*
X138119882Y-102791421D01*
X138163930Y-102835162D01*
X138207369Y-102879522D01*
X138214739Y-102885618D01*
X138214744Y-102885623D01*
X138214750Y-102885627D01*
X138290360Y-102947294D01*
X138342041Y-102981632D01*
X138393306Y-103016733D01*
X138401719Y-103021282D01*
X138487880Y-103067094D01*
X138545296Y-103090758D01*
X138602339Y-103115208D01*
X138611475Y-103118036D01*
X138704893Y-103146241D01*
X138765813Y-103158303D01*
X138826530Y-103171209D01*
X138836042Y-103172209D01*
X138933159Y-103181731D01*
X138933163Y-103181731D01*
X138966353Y-103185000D01*
X141033647Y-103185000D01*
X141062601Y-103182148D01*
X141065573Y-103182169D01*
X141075092Y-103181236D01*
X141123218Y-103176178D01*
X141134283Y-103175088D01*
X141134652Y-103174976D01*
X141172140Y-103171036D01*
X141232990Y-103158545D01*
X141293942Y-103146918D01*
X141303096Y-103144155D01*
X141303102Y-103144153D01*
X141396317Y-103115298D01*
X141453533Y-103091246D01*
X141511119Y-103067980D01*
X141519564Y-103063490D01*
X141605401Y-103017077D01*
X141656867Y-102982362D01*
X141708821Y-102948364D01*
X141716232Y-102942320D01*
X141791421Y-102880118D01*
X141835162Y-102836070D01*
X141879522Y-102792631D01*
X141885618Y-102785261D01*
X141885623Y-102785256D01*
X141885627Y-102785250D01*
X141947294Y-102709640D01*
X141981632Y-102657959D01*
X142016733Y-102606694D01*
X142021282Y-102598281D01*
X142067094Y-102512120D01*
X142090758Y-102454704D01*
X142115208Y-102397661D01*
X142118036Y-102388525D01*
X142146241Y-102295107D01*
X142158303Y-102234187D01*
X142171209Y-102173470D01*
X142172209Y-102163958D01*
X142181731Y-102066841D01*
X142181731Y-102066837D01*
X142185000Y-102033647D01*
X142185000Y-101185000D01*
X146815000Y-101185000D01*
X146815001Y-102033647D01*
X146817852Y-102062591D01*
X146817831Y-102065573D01*
X146818764Y-102075092D01*
X146823838Y-102123369D01*
X146824913Y-102134283D01*
X146825023Y-102134647D01*
X146828964Y-102172140D01*
X146841455Y-102232990D01*
X146853082Y-102293942D01*
X146855845Y-102303096D01*
X146855847Y-102303102D01*
X146884702Y-102396317D01*
X146908754Y-102453533D01*
X146932020Y-102511119D01*
X146936510Y-102519564D01*
X146982923Y-102605401D01*
X147017638Y-102656867D01*
X147051636Y-102708821D01*
X147057680Y-102716232D01*
X147119882Y-102791421D01*
X147163930Y-102835162D01*
X147207369Y-102879522D01*
X147214739Y-102885618D01*
X147214744Y-102885623D01*
X147214750Y-102885627D01*
X147290360Y-102947294D01*
X147342041Y-102981632D01*
X147393306Y-103016733D01*
X147401719Y-103021282D01*
X147487880Y-103067094D01*
X147545296Y-103090758D01*
X147602339Y-103115208D01*
X147611475Y-103118036D01*
X147704893Y-103146241D01*
X147765813Y-103158303D01*
X147826530Y-103171209D01*
X147836042Y-103172209D01*
X147933159Y-103181731D01*
X147933163Y-103181731D01*
X147966353Y-103185000D01*
X150033647Y-103185000D01*
X150062601Y-103182148D01*
X150065573Y-103182169D01*
X150075092Y-103181236D01*
X150123218Y-103176178D01*
X150134283Y-103175088D01*
X150134652Y-103174976D01*
X150172140Y-103171036D01*
X150232990Y-103158545D01*
X150293942Y-103146918D01*
X150303096Y-103144155D01*
X150303102Y-103144153D01*
X150396317Y-103115298D01*
X150453533Y-103091246D01*
X150511119Y-103067980D01*
X150519564Y-103063490D01*
X150605401Y-103017077D01*
X150656867Y-102982362D01*
X150708821Y-102948364D01*
X150716232Y-102942320D01*
X150791421Y-102880118D01*
X150835162Y-102836070D01*
X150879522Y-102792631D01*
X150885618Y-102785261D01*
X150885623Y-102785256D01*
X150885627Y-102785250D01*
X150947294Y-102709640D01*
X150981632Y-102657959D01*
X151016733Y-102606694D01*
X151021282Y-102598281D01*
X151067094Y-102512120D01*
X151090758Y-102454704D01*
X151115208Y-102397661D01*
X151118036Y-102388525D01*
X151146241Y-102295107D01*
X151158303Y-102234187D01*
X151171209Y-102173470D01*
X151172209Y-102163958D01*
X151181731Y-102066841D01*
X151181731Y-102066837D01*
X151185000Y-102033647D01*
X151185000Y-101185000D01*
X155815000Y-101185000D01*
X155815001Y-102033647D01*
X155817852Y-102062591D01*
X155817831Y-102065573D01*
X155818764Y-102075092D01*
X155823838Y-102123369D01*
X155824913Y-102134283D01*
X155825023Y-102134647D01*
X155828964Y-102172140D01*
X155841455Y-102232990D01*
X155853082Y-102293942D01*
X155855845Y-102303096D01*
X155855847Y-102303102D01*
X155884702Y-102396317D01*
X155908754Y-102453533D01*
X155932020Y-102511119D01*
X155936510Y-102519564D01*
X155982923Y-102605401D01*
X156017638Y-102656867D01*
X156051636Y-102708821D01*
X156057680Y-102716232D01*
X156119882Y-102791421D01*
X156163930Y-102835162D01*
X156207369Y-102879522D01*
X156214739Y-102885618D01*
X156214744Y-102885623D01*
X156214750Y-102885627D01*
X156290360Y-102947294D01*
X156342041Y-102981632D01*
X156393306Y-103016733D01*
X156401719Y-103021282D01*
X156487880Y-103067094D01*
X156545296Y-103090758D01*
X156602339Y-103115208D01*
X156611475Y-103118036D01*
X156704893Y-103146241D01*
X156765813Y-103158303D01*
X156826530Y-103171209D01*
X156836042Y-103172209D01*
X156933159Y-103181731D01*
X156933163Y-103181731D01*
X156966353Y-103185000D01*
X159033647Y-103185000D01*
X159062601Y-103182148D01*
X159065573Y-103182169D01*
X159075092Y-103181236D01*
X159123218Y-103176178D01*
X159134283Y-103175088D01*
X159134652Y-103174976D01*
X159172140Y-103171036D01*
X159232990Y-103158545D01*
X159293942Y-103146918D01*
X159303096Y-103144155D01*
X159303102Y-103144153D01*
X159396317Y-103115298D01*
X159453533Y-103091246D01*
X159511119Y-103067980D01*
X159519564Y-103063490D01*
X159605401Y-103017077D01*
X159656867Y-102982362D01*
X159708821Y-102948364D01*
X159716232Y-102942320D01*
X159791421Y-102880118D01*
X159835162Y-102836070D01*
X159879522Y-102792631D01*
X159885618Y-102785261D01*
X159885623Y-102785256D01*
X159885627Y-102785250D01*
X159947294Y-102709640D01*
X159981632Y-102657959D01*
X160016733Y-102606694D01*
X160021282Y-102598281D01*
X160067094Y-102512120D01*
X160090758Y-102454704D01*
X160115208Y-102397661D01*
X160118036Y-102388525D01*
X160146241Y-102295107D01*
X160158303Y-102234187D01*
X160171209Y-102173470D01*
X160172209Y-102163958D01*
X160181731Y-102066841D01*
X160181731Y-102066837D01*
X160185000Y-102033647D01*
X160185000Y-101185000D01*
X164815000Y-101185000D01*
X164815001Y-102033647D01*
X164817852Y-102062591D01*
X164817831Y-102065573D01*
X164818764Y-102075092D01*
X164823838Y-102123369D01*
X164824913Y-102134283D01*
X164825023Y-102134647D01*
X164828964Y-102172140D01*
X164841455Y-102232990D01*
X164853082Y-102293942D01*
X164855845Y-102303096D01*
X164855847Y-102303102D01*
X164884702Y-102396317D01*
X164908754Y-102453533D01*
X164932020Y-102511119D01*
X164936510Y-102519564D01*
X164982923Y-102605401D01*
X165017638Y-102656867D01*
X165051636Y-102708821D01*
X165057680Y-102716232D01*
X165119882Y-102791421D01*
X165163930Y-102835162D01*
X165207369Y-102879522D01*
X165214739Y-102885618D01*
X165214744Y-102885623D01*
X165214750Y-102885627D01*
X165290360Y-102947294D01*
X165342041Y-102981632D01*
X165393306Y-103016733D01*
X165401719Y-103021282D01*
X165487880Y-103067094D01*
X165545296Y-103090758D01*
X165602339Y-103115208D01*
X165611475Y-103118036D01*
X165704893Y-103146241D01*
X165765813Y-103158303D01*
X165826530Y-103171209D01*
X165836042Y-103172209D01*
X165933159Y-103181731D01*
X165933163Y-103181731D01*
X165966353Y-103185000D01*
X168033647Y-103185000D01*
X168062601Y-103182148D01*
X168065573Y-103182169D01*
X168075092Y-103181236D01*
X168123218Y-103176178D01*
X168134283Y-103175088D01*
X168134652Y-103174976D01*
X168172140Y-103171036D01*
X168232990Y-103158545D01*
X168293942Y-103146918D01*
X168303096Y-103144155D01*
X168303102Y-103144153D01*
X168396317Y-103115298D01*
X168453533Y-103091246D01*
X168511119Y-103067980D01*
X168519564Y-103063490D01*
X168605401Y-103017077D01*
X168656867Y-102982362D01*
X168708821Y-102948364D01*
X168716232Y-102942320D01*
X168791421Y-102880118D01*
X168835162Y-102836070D01*
X168879522Y-102792631D01*
X168885618Y-102785261D01*
X168885623Y-102785256D01*
X168885627Y-102785250D01*
X168947294Y-102709640D01*
X168981632Y-102657959D01*
X169016733Y-102606694D01*
X169021282Y-102598281D01*
X169067094Y-102512120D01*
X169090758Y-102454704D01*
X169115208Y-102397661D01*
X169118036Y-102388525D01*
X169146241Y-102295107D01*
X169158303Y-102234187D01*
X169171209Y-102173470D01*
X169172209Y-102163958D01*
X169181731Y-102066841D01*
X169181731Y-102066837D01*
X169185000Y-102033647D01*
X169185000Y-101185000D01*
X173815000Y-101185000D01*
X173815001Y-102033647D01*
X173817852Y-102062591D01*
X173817831Y-102065573D01*
X173818764Y-102075092D01*
X173823838Y-102123369D01*
X173824913Y-102134283D01*
X173825023Y-102134647D01*
X173828964Y-102172140D01*
X173841455Y-102232990D01*
X173853082Y-102293942D01*
X173855845Y-102303096D01*
X173855847Y-102303102D01*
X173884702Y-102396317D01*
X173908754Y-102453533D01*
X173932020Y-102511119D01*
X173936510Y-102519564D01*
X173982923Y-102605401D01*
X174017638Y-102656867D01*
X174051636Y-102708821D01*
X174057680Y-102716232D01*
X174119882Y-102791421D01*
X174163930Y-102835162D01*
X174207369Y-102879522D01*
X174214739Y-102885618D01*
X174214744Y-102885623D01*
X174214750Y-102885627D01*
X174290360Y-102947294D01*
X174342041Y-102981632D01*
X174393306Y-103016733D01*
X174401719Y-103021282D01*
X174487880Y-103067094D01*
X174545296Y-103090758D01*
X174602339Y-103115208D01*
X174611475Y-103118036D01*
X174704893Y-103146241D01*
X174765813Y-103158303D01*
X174826530Y-103171209D01*
X174836042Y-103172209D01*
X174933159Y-103181731D01*
X174933163Y-103181731D01*
X174966353Y-103185000D01*
X177033647Y-103185000D01*
X177062601Y-103182148D01*
X177065573Y-103182169D01*
X177075092Y-103181236D01*
X177123218Y-103176178D01*
X177134283Y-103175088D01*
X177134652Y-103174976D01*
X177172140Y-103171036D01*
X177232990Y-103158545D01*
X177293942Y-103146918D01*
X177303096Y-103144155D01*
X177303102Y-103144153D01*
X177396317Y-103115298D01*
X177453533Y-103091246D01*
X177511119Y-103067980D01*
X177519564Y-103063490D01*
X177605401Y-103017077D01*
X177656867Y-102982362D01*
X177708821Y-102948364D01*
X177716232Y-102942320D01*
X177791421Y-102880118D01*
X177835162Y-102836070D01*
X177879522Y-102792631D01*
X177885618Y-102785261D01*
X177885623Y-102785256D01*
X177885627Y-102785250D01*
X177947294Y-102709640D01*
X177981632Y-102657959D01*
X178016733Y-102606694D01*
X178021282Y-102598281D01*
X178067094Y-102512120D01*
X178090758Y-102454704D01*
X178115208Y-102397661D01*
X178118036Y-102388525D01*
X178146241Y-102295107D01*
X178158303Y-102234187D01*
X178171209Y-102173470D01*
X178172209Y-102163958D01*
X178181731Y-102066841D01*
X178181731Y-102066837D01*
X178185000Y-102033647D01*
X178185000Y-101185000D01*
X179033647Y-101185000D01*
X179062601Y-101182148D01*
X179065573Y-101182169D01*
X179075092Y-101181236D01*
X179123218Y-101176178D01*
X179134283Y-101175088D01*
X179134652Y-101174976D01*
X179172140Y-101171036D01*
X179232990Y-101158545D01*
X179293942Y-101146918D01*
X179303096Y-101144155D01*
X179303102Y-101144153D01*
X179396317Y-101115298D01*
X179453533Y-101091246D01*
X179511119Y-101067980D01*
X179519564Y-101063490D01*
X179605401Y-101017077D01*
X179656867Y-100982362D01*
X179708821Y-100948364D01*
X179716232Y-100942320D01*
X179791421Y-100880118D01*
X179835162Y-100836070D01*
X179879522Y-100792631D01*
X179885618Y-100785261D01*
X179885623Y-100785256D01*
X179885627Y-100785250D01*
X179947294Y-100709640D01*
X179981632Y-100657959D01*
X180016733Y-100606694D01*
X180021282Y-100598281D01*
X180067094Y-100512120D01*
X180090758Y-100454704D01*
X180115208Y-100397661D01*
X180118036Y-100388525D01*
X180146241Y-100295107D01*
X180158303Y-100234187D01*
X180171209Y-100173470D01*
X180172209Y-100163958D01*
X180181731Y-100066841D01*
X180181731Y-100066837D01*
X180185000Y-100033647D01*
X180185000Y-97783736D01*
X181460582Y-96508154D01*
X181486710Y-96486711D01*
X181508154Y-96460582D01*
X181508159Y-96460577D01*
X181572311Y-96382408D01*
X181572312Y-96382407D01*
X181635919Y-96263406D01*
X181675088Y-96134283D01*
X181685000Y-96033647D01*
X181685000Y-96033640D01*
X181688313Y-96000001D01*
X181685000Y-95966362D01*
X181685000Y-92802172D01*
X181781525Y-92946632D01*
X181988368Y-93153475D01*
X182231589Y-93315990D01*
X182501842Y-93427932D01*
X182788740Y-93485000D01*
X183081260Y-93485000D01*
X183368158Y-93427932D01*
X183638411Y-93315990D01*
X183881632Y-93153475D01*
X184088475Y-92946632D01*
X184205000Y-92772240D01*
X184321525Y-92946632D01*
X184528368Y-93153475D01*
X184771589Y-93315990D01*
X185041842Y-93427932D01*
X185328740Y-93485000D01*
X185621260Y-93485000D01*
X185908158Y-93427932D01*
X186178411Y-93315990D01*
X186421632Y-93153475D01*
X186628475Y-92946632D01*
X186745000Y-92772240D01*
X186861525Y-92946632D01*
X187068368Y-93153475D01*
X187311589Y-93315990D01*
X187581842Y-93427932D01*
X187868740Y-93485000D01*
X188161260Y-93485000D01*
X188448158Y-93427932D01*
X188718411Y-93315990D01*
X188961632Y-93153475D01*
X189168475Y-92946632D01*
X189285000Y-92772240D01*
X189401525Y-92946632D01*
X189608368Y-93153475D01*
X189851589Y-93315990D01*
X190121842Y-93427932D01*
X190408740Y-93485000D01*
X190701260Y-93485000D01*
X190988158Y-93427932D01*
X191258411Y-93315990D01*
X191501632Y-93153475D01*
X191633487Y-93021620D01*
X191655498Y-93094180D01*
X191714463Y-93204494D01*
X191793815Y-93301185D01*
X191890506Y-93380537D01*
X192000820Y-93439502D01*
X192120518Y-93475812D01*
X192245000Y-93488072D01*
X192809250Y-93485000D01*
X192968000Y-93326250D01*
X192968000Y-92127000D01*
X192948000Y-92127000D01*
X192948000Y-91873000D01*
X192968000Y-91873000D01*
X192968000Y-89587000D01*
X192948000Y-89587000D01*
X192948000Y-89333000D01*
X192968000Y-89333000D01*
X192968000Y-89313000D01*
X193222000Y-89313000D01*
X193222000Y-89333000D01*
G04 #@! TD*
M02*
