M48
INCH,TZ
T1C0.0118
T2C0.0157
T3C0.0394
%
G90
G05
T1
X56004Y-31941
X56004Y-32886
X56949Y-31941
X56949Y-32886
T2
X48441Y-22929
X49631Y-27316
X49969Y-25776
X51791Y-32807
X51965Y-25756
X52138Y-33768
X52539Y-32799
X53753Y-31743
X54148Y-31743
X54901Y-32802
X54908Y-33566
X55346Y-33591
X55894Y-35398
X56650Y-36039
X56951Y-31231
X57638Y-33598
X57654Y-35031
X58201Y-35071
X58239Y-32918
X58283Y-31973
X59165Y-36051
T3
X47858Y-23047
X47858Y-24047
X47858Y-25047
X47858Y-26047
X47858Y-27047
X47858Y-28047
X47858Y-29047
X49059Y-27152
X52170Y-24789
X54067Y-24744
X54067Y-25744
X54067Y-26744
X54067Y-27744
X56213Y-38720
X56213Y-40886
X57866Y-38720
X57866Y-40886
X58917Y-30988
X58917Y-31988
X58917Y-32988
X58917Y-33988
T0
M30
