%TF.GenerationSoftware,KiCad,Pcbnew,(7.0.0-122-g9f10c142c4)*%
%TF.CreationDate,2023-03-06T13:40:13+09:00*%
%TF.ProjectId,stepper,73746570-7065-4722-9e6b-696361645f70,rev?*%
%TF.SameCoordinates,Original*%
%TF.FileFunction,Soldermask,Top*%
%TF.FilePolarity,Negative*%
%FSLAX46Y46*%
G04 Gerber Fmt 4.6, Leading zero omitted, Abs format (unit mm)*
G04 Created by KiCad (PCBNEW (7.0.0-122-g9f10c142c4)) date 2023-03-06 13:40:13*
%MOMM*%
%LPD*%
G01*
G04 APERTURE LIST*
G04 Aperture macros list*
%AMRoundRect*
0 Rectangle with rounded corners*
0 $1 Rounding radius*
0 $2 $3 $4 $5 $6 $7 $8 $9 X,Y pos of 4 corners*
0 Add a 4 corners polygon primitive as box body*
4,1,4,$2,$3,$4,$5,$6,$7,$8,$9,$2,$3,0*
0 Add four circle primitives for the rounded corners*
1,1,$1+$1,$2,$3*
1,1,$1+$1,$4,$5*
1,1,$1+$1,$6,$7*
1,1,$1+$1,$8,$9*
0 Add four rect primitives between the rounded corners*
20,1,$1+$1,$2,$3,$4,$5,0*
20,1,$1+$1,$4,$5,$6,$7,0*
20,1,$1+$1,$6,$7,$8,$9,0*
20,1,$1+$1,$8,$9,$2,$3,0*%
G04 Aperture macros list end*
%ADD10R,1.700000X1.700000*%
%ADD11RoundRect,0.150000X0.150000X-0.825000X0.150000X0.825000X-0.150000X0.825000X-0.150000X-0.825000X0*%
%ADD12RoundRect,0.200000X0.200000X0.275000X-0.200000X0.275000X-0.200000X-0.275000X0.200000X-0.275000X0*%
%ADD13O,1.700000X1.700000*%
%ADD14RoundRect,0.250000X-0.250000X-0.475000X0.250000X-0.475000X0.250000X0.475000X-0.250000X0.475000X0*%
%ADD15RoundRect,0.200000X0.275000X-0.200000X0.275000X0.200000X-0.275000X0.200000X-0.275000X-0.200000X0*%
%ADD16RoundRect,0.100000X0.675000X0.100000X-0.675000X0.100000X-0.675000X-0.100000X0.675000X-0.100000X0*%
%ADD17R,3.000000X3.000000*%
%ADD18RoundRect,0.225000X-0.225000X-0.250000X0.225000X-0.250000X0.225000X0.250000X-0.225000X0.250000X0*%
%ADD19R,2.000000X3.500000*%
%ADD20R,7.000000X7.000000*%
%ADD21R,3.098800X1.219200*%
G04 APERTURE END LIST*
D10*
%TO.C,J10*%
X146979995Y-103850006D03*
%TD*%
D11*
%TO.C,U2*%
X126920000Y-71920000D03*
X128190000Y-71920000D03*
X129460000Y-71920000D03*
X130730000Y-71920000D03*
X132000000Y-71920000D03*
X133270000Y-71920000D03*
X134540000Y-71920000D03*
X134540000Y-66970000D03*
X133270000Y-66970000D03*
X132000000Y-66970000D03*
X130730000Y-66970000D03*
X129460000Y-66970000D03*
X128190000Y-66970000D03*
X126920000Y-66970000D03*
%TD*%
D10*
%TO.C,J3*%
X132510687Y-62964868D03*
%TD*%
D12*
%TO.C,RSENA3*%
X146470000Y-90040000D03*
X144820000Y-90040000D03*
%TD*%
D10*
%TO.C,J1*%
X149649999Y-86329999D03*
D13*
X149649999Y-83789999D03*
X149649999Y-81249999D03*
X149649999Y-78709999D03*
%TD*%
D14*
%TO.C,C4*%
X140150000Y-91070000D03*
X142050000Y-91070000D03*
%TD*%
D15*
%TO.C,R1*%
X124170000Y-73335000D03*
X124170000Y-71685000D03*
%TD*%
D10*
%TO.C,J11*%
X121559999Y-73779999D03*
D13*
X121559999Y-71239999D03*
X121559999Y-68699999D03*
%TD*%
D12*
%TO.C,RSENB1*%
X149518000Y-93088000D03*
X147868000Y-93088000D03*
%TD*%
D10*
%TO.C,J9*%
X142779995Y-103850006D03*
%TD*%
%TO.C,J6*%
X146979995Y-98350006D03*
%TD*%
%TO.C,J4*%
X137329999Y-62849999D03*
D13*
X137329999Y-65389999D03*
X137329999Y-67929999D03*
X137329999Y-70469999D03*
%TD*%
D16*
%TO.C,U1*%
X146325000Y-84605000D03*
X146325000Y-83955000D03*
X146325000Y-83305000D03*
X146325000Y-82655000D03*
X146325000Y-82005000D03*
X146325000Y-81355000D03*
X146325000Y-80705000D03*
X146325000Y-80055000D03*
X140575000Y-80055000D03*
X140575000Y-80705000D03*
X140575000Y-81355000D03*
X140575000Y-82005000D03*
X140575000Y-82655000D03*
X140575000Y-83305000D03*
X140575000Y-83955000D03*
X140575000Y-84605000D03*
D17*
X143449999Y-82329999D03*
%TD*%
D15*
%TO.C,R3*%
X124170000Y-64065000D03*
X124170000Y-65715000D03*
%TD*%
D12*
%TO.C,RSENB2*%
X149518000Y-91564000D03*
X147868000Y-91564000D03*
%TD*%
%TO.C,RSENA2*%
X146470000Y-91564000D03*
X144820000Y-91564000D03*
%TD*%
D13*
%TO.C,J12*%
X121559999Y-58539999D03*
D10*
X121559999Y-61079999D03*
%TD*%
D12*
%TO.C,RSENB3*%
X149518000Y-90040000D03*
X147868000Y-90040000D03*
%TD*%
D13*
%TO.C,J13*%
X121559999Y-63619999D03*
D10*
X121559999Y-66159999D03*
%TD*%
D18*
%TO.C,C2*%
X135035000Y-82410000D03*
X136585000Y-82410000D03*
%TD*%
%TO.C,C5*%
X140375000Y-89030000D03*
X141925000Y-89030000D03*
%TD*%
D14*
%TO.C,C1*%
X131550000Y-82170000D03*
X133450000Y-82170000D03*
%TD*%
D12*
%TO.C,RSENA1*%
X146470000Y-93088000D03*
X144820000Y-93088000D03*
%TD*%
D19*
%TO.C,U3*%
X137689999Y-93019999D03*
X133109999Y-93019999D03*
D20*
X135389999Y-100419999D03*
%TD*%
D10*
%TO.C,J7*%
X124610687Y-68964868D03*
%TD*%
%TO.C,J5*%
X142779995Y-98350006D03*
%TD*%
D21*
%TO.C,C3*%
X137552699Y-86949999D03*
X132447299Y-86949999D03*
%TD*%
D15*
%TO.C,R2*%
X124170000Y-60635000D03*
X124170000Y-58985000D03*
%TD*%
M02*
