%TF.GenerationSoftware,KiCad,Pcbnew,(7.0.0-122-g9f10c142c4)*%
%TF.CreationDate,2023-03-06T13:40:13+09:00*%
%TF.ProjectId,stepper,73746570-7065-4722-9e6b-696361645f70,rev?*%
%TF.SameCoordinates,Original*%
%TF.FileFunction,Legend,Top*%
%TF.FilePolarity,Positive*%
%FSLAX46Y46*%
G04 Gerber Fmt 4.6, Leading zero omitted, Abs format (unit mm)*
G04 Created by KiCad (PCBNEW (7.0.0-122-g9f10c142c4)) date 2023-03-06 13:40:13*
%MOMM*%
%LPD*%
G01*
G04 APERTURE LIST*
%ADD10C,0.150000*%
%ADD11C,0.300000*%
%ADD12C,0.125000*%
%ADD13C,0.150400*%
%ADD14C,0.120000*%
G04 APERTURE END LIST*
D10*
X123681904Y-62857142D02*
X123634285Y-62904761D01*
X123634285Y-62904761D02*
X123491428Y-62952380D01*
X123491428Y-62952380D02*
X123396190Y-62952380D01*
X123396190Y-62952380D02*
X123253333Y-62904761D01*
X123253333Y-62904761D02*
X123158095Y-62809523D01*
X123158095Y-62809523D02*
X123110476Y-62714285D01*
X123110476Y-62714285D02*
X123062857Y-62523809D01*
X123062857Y-62523809D02*
X123062857Y-62380952D01*
X123062857Y-62380952D02*
X123110476Y-62190476D01*
X123110476Y-62190476D02*
X123158095Y-62095238D01*
X123158095Y-62095238D02*
X123253333Y-62000000D01*
X123253333Y-62000000D02*
X123396190Y-61952380D01*
X123396190Y-61952380D02*
X123491428Y-61952380D01*
X123491428Y-61952380D02*
X123634285Y-62000000D01*
X123634285Y-62000000D02*
X123681904Y-62047619D01*
X124253333Y-62952380D02*
X124158095Y-62904761D01*
X124158095Y-62904761D02*
X124110476Y-62809523D01*
X124110476Y-62809523D02*
X124110476Y-61952380D01*
X124777143Y-62952380D02*
X124681905Y-62904761D01*
X124681905Y-62904761D02*
X124634286Y-62857142D01*
X124634286Y-62857142D02*
X124586667Y-62761904D01*
X124586667Y-62761904D02*
X124586667Y-62476190D01*
X124586667Y-62476190D02*
X124634286Y-62380952D01*
X124634286Y-62380952D02*
X124681905Y-62333333D01*
X124681905Y-62333333D02*
X124777143Y-62285714D01*
X124777143Y-62285714D02*
X124920000Y-62285714D01*
X124920000Y-62285714D02*
X125015238Y-62333333D01*
X125015238Y-62333333D02*
X125062857Y-62380952D01*
X125062857Y-62380952D02*
X125110476Y-62476190D01*
X125110476Y-62476190D02*
X125110476Y-62761904D01*
X125110476Y-62761904D02*
X125062857Y-62857142D01*
X125062857Y-62857142D02*
X125015238Y-62904761D01*
X125015238Y-62904761D02*
X124920000Y-62952380D01*
X124920000Y-62952380D02*
X124777143Y-62952380D01*
X125491429Y-62904761D02*
X125586667Y-62952380D01*
X125586667Y-62952380D02*
X125777143Y-62952380D01*
X125777143Y-62952380D02*
X125872381Y-62904761D01*
X125872381Y-62904761D02*
X125920000Y-62809523D01*
X125920000Y-62809523D02*
X125920000Y-62761904D01*
X125920000Y-62761904D02*
X125872381Y-62666666D01*
X125872381Y-62666666D02*
X125777143Y-62619047D01*
X125777143Y-62619047D02*
X125634286Y-62619047D01*
X125634286Y-62619047D02*
X125539048Y-62571428D01*
X125539048Y-62571428D02*
X125491429Y-62476190D01*
X125491429Y-62476190D02*
X125491429Y-62428571D01*
X125491429Y-62428571D02*
X125539048Y-62333333D01*
X125539048Y-62333333D02*
X125634286Y-62285714D01*
X125634286Y-62285714D02*
X125777143Y-62285714D01*
X125777143Y-62285714D02*
X125872381Y-62333333D01*
X126729524Y-62904761D02*
X126634286Y-62952380D01*
X126634286Y-62952380D02*
X126443810Y-62952380D01*
X126443810Y-62952380D02*
X126348572Y-62904761D01*
X126348572Y-62904761D02*
X126300953Y-62809523D01*
X126300953Y-62809523D02*
X126300953Y-62428571D01*
X126300953Y-62428571D02*
X126348572Y-62333333D01*
X126348572Y-62333333D02*
X126443810Y-62285714D01*
X126443810Y-62285714D02*
X126634286Y-62285714D01*
X126634286Y-62285714D02*
X126729524Y-62333333D01*
X126729524Y-62333333D02*
X126777143Y-62428571D01*
X126777143Y-62428571D02*
X126777143Y-62523809D01*
X126777143Y-62523809D02*
X126300953Y-62619047D01*
X123431428Y-56492380D02*
X123621904Y-56492380D01*
X123621904Y-56492380D02*
X123717142Y-56540000D01*
X123717142Y-56540000D02*
X123812380Y-56635238D01*
X123812380Y-56635238D02*
X123859999Y-56825714D01*
X123859999Y-56825714D02*
X123859999Y-57159047D01*
X123859999Y-57159047D02*
X123812380Y-57349523D01*
X123812380Y-57349523D02*
X123717142Y-57444761D01*
X123717142Y-57444761D02*
X123621904Y-57492380D01*
X123621904Y-57492380D02*
X123431428Y-57492380D01*
X123431428Y-57492380D02*
X123336190Y-57444761D01*
X123336190Y-57444761D02*
X123240952Y-57349523D01*
X123240952Y-57349523D02*
X123193333Y-57159047D01*
X123193333Y-57159047D02*
X123193333Y-56825714D01*
X123193333Y-56825714D02*
X123240952Y-56635238D01*
X123240952Y-56635238D02*
X123336190Y-56540000D01*
X123336190Y-56540000D02*
X123431428Y-56492380D01*
X124288571Y-56825714D02*
X124288571Y-57825714D01*
X124288571Y-56873333D02*
X124383809Y-56825714D01*
X124383809Y-56825714D02*
X124574285Y-56825714D01*
X124574285Y-56825714D02*
X124669523Y-56873333D01*
X124669523Y-56873333D02*
X124717142Y-56920952D01*
X124717142Y-56920952D02*
X124764761Y-57016190D01*
X124764761Y-57016190D02*
X124764761Y-57301904D01*
X124764761Y-57301904D02*
X124717142Y-57397142D01*
X124717142Y-57397142D02*
X124669523Y-57444761D01*
X124669523Y-57444761D02*
X124574285Y-57492380D01*
X124574285Y-57492380D02*
X124383809Y-57492380D01*
X124383809Y-57492380D02*
X124288571Y-57444761D01*
X125574285Y-57444761D02*
X125479047Y-57492380D01*
X125479047Y-57492380D02*
X125288571Y-57492380D01*
X125288571Y-57492380D02*
X125193333Y-57444761D01*
X125193333Y-57444761D02*
X125145714Y-57349523D01*
X125145714Y-57349523D02*
X125145714Y-56968571D01*
X125145714Y-56968571D02*
X125193333Y-56873333D01*
X125193333Y-56873333D02*
X125288571Y-56825714D01*
X125288571Y-56825714D02*
X125479047Y-56825714D01*
X125479047Y-56825714D02*
X125574285Y-56873333D01*
X125574285Y-56873333D02*
X125621904Y-56968571D01*
X125621904Y-56968571D02*
X125621904Y-57063809D01*
X125621904Y-57063809D02*
X125145714Y-57159047D01*
X126050476Y-56825714D02*
X126050476Y-57492380D01*
X126050476Y-56920952D02*
X126098095Y-56873333D01*
X126098095Y-56873333D02*
X126193333Y-56825714D01*
X126193333Y-56825714D02*
X126336190Y-56825714D01*
X126336190Y-56825714D02*
X126431428Y-56873333D01*
X126431428Y-56873333D02*
X126479047Y-56968571D01*
X126479047Y-56968571D02*
X126479047Y-57492380D01*
D11*
X129994285Y-75003571D02*
X129994285Y-76503571D01*
X129994285Y-75932142D02*
X129851427Y-76003571D01*
X129851427Y-76003571D02*
X129565713Y-76003571D01*
X129565713Y-76003571D02*
X129422856Y-75932142D01*
X129422856Y-75932142D02*
X129351427Y-75860714D01*
X129351427Y-75860714D02*
X129279999Y-75717857D01*
X129279999Y-75717857D02*
X129279999Y-75289285D01*
X129279999Y-75289285D02*
X129351427Y-75146428D01*
X129351427Y-75146428D02*
X129422856Y-75075000D01*
X129422856Y-75075000D02*
X129565713Y-75003571D01*
X129565713Y-75003571D02*
X129851427Y-75003571D01*
X129851427Y-75003571D02*
X129994285Y-75075000D01*
X130708570Y-76003571D02*
X130708570Y-74503571D01*
X130708570Y-74503571D02*
X131565713Y-76003571D01*
X131565713Y-76003571D02*
X131565713Y-74503571D01*
X132279999Y-76003571D02*
X132279999Y-75003571D01*
X132279999Y-74503571D02*
X132208571Y-74575000D01*
X132208571Y-74575000D02*
X132279999Y-74646428D01*
X132279999Y-74646428D02*
X132351428Y-74575000D01*
X132351428Y-74575000D02*
X132279999Y-74503571D01*
X132279999Y-74503571D02*
X132279999Y-74646428D01*
X132994285Y-75003571D02*
X132994285Y-76003571D01*
X132994285Y-75146428D02*
X133065714Y-75075000D01*
X133065714Y-75075000D02*
X133208571Y-75003571D01*
X133208571Y-75003571D02*
X133422857Y-75003571D01*
X133422857Y-75003571D02*
X133565714Y-75075000D01*
X133565714Y-75075000D02*
X133637143Y-75217857D01*
X133637143Y-75217857D02*
X133637143Y-76003571D01*
X134351428Y-75003571D02*
X134351428Y-76289285D01*
X134351428Y-76289285D02*
X134280000Y-76432142D01*
X134280000Y-76432142D02*
X134137143Y-76503571D01*
X134137143Y-76503571D02*
X134065714Y-76503571D01*
X134351428Y-74503571D02*
X134280000Y-74575000D01*
X134280000Y-74575000D02*
X134351428Y-74646428D01*
X134351428Y-74646428D02*
X134422857Y-74575000D01*
X134422857Y-74575000D02*
X134351428Y-74503571D01*
X134351428Y-74503571D02*
X134351428Y-74646428D01*
X135708572Y-76003571D02*
X135708572Y-75217857D01*
X135708572Y-75217857D02*
X135637143Y-75075000D01*
X135637143Y-75075000D02*
X135494286Y-75003571D01*
X135494286Y-75003571D02*
X135208572Y-75003571D01*
X135208572Y-75003571D02*
X135065714Y-75075000D01*
X135708572Y-75932142D02*
X135565714Y-76003571D01*
X135565714Y-76003571D02*
X135208572Y-76003571D01*
X135208572Y-76003571D02*
X135065714Y-75932142D01*
X135065714Y-75932142D02*
X134994286Y-75789285D01*
X134994286Y-75789285D02*
X134994286Y-75646428D01*
X134994286Y-75646428D02*
X135065714Y-75503571D01*
X135065714Y-75503571D02*
X135208572Y-75432142D01*
X135208572Y-75432142D02*
X135565714Y-75432142D01*
X135565714Y-75432142D02*
X135708572Y-75360714D01*
X125851428Y-78433571D02*
X125851428Y-76933571D01*
X125851428Y-77505000D02*
X125994286Y-77433571D01*
X125994286Y-77433571D02*
X126280000Y-77433571D01*
X126280000Y-77433571D02*
X126422857Y-77505000D01*
X126422857Y-77505000D02*
X126494286Y-77576428D01*
X126494286Y-77576428D02*
X126565714Y-77719285D01*
X126565714Y-77719285D02*
X126565714Y-78147857D01*
X126565714Y-78147857D02*
X126494286Y-78290714D01*
X126494286Y-78290714D02*
X126422857Y-78362142D01*
X126422857Y-78362142D02*
X126280000Y-78433571D01*
X126280000Y-78433571D02*
X125994286Y-78433571D01*
X125994286Y-78433571D02*
X125851428Y-78362142D01*
X127137143Y-77076428D02*
X127208571Y-77005000D01*
X127208571Y-77005000D02*
X127351429Y-76933571D01*
X127351429Y-76933571D02*
X127708571Y-76933571D01*
X127708571Y-76933571D02*
X127851429Y-77005000D01*
X127851429Y-77005000D02*
X127922857Y-77076428D01*
X127922857Y-77076428D02*
X127994286Y-77219285D01*
X127994286Y-77219285D02*
X127994286Y-77362142D01*
X127994286Y-77362142D02*
X127922857Y-77576428D01*
X127922857Y-77576428D02*
X127065714Y-78433571D01*
X127065714Y-78433571D02*
X127994286Y-78433571D01*
X129422857Y-78433571D02*
X128565714Y-78433571D01*
X128994285Y-78433571D02*
X128994285Y-76933571D01*
X128994285Y-76933571D02*
X128851428Y-77147857D01*
X128851428Y-77147857D02*
X128708571Y-77290714D01*
X128708571Y-77290714D02*
X128565714Y-77362142D01*
X131137142Y-76862142D02*
X129851428Y-78790714D01*
X131565714Y-78362142D02*
X131708571Y-78433571D01*
X131708571Y-78433571D02*
X131994285Y-78433571D01*
X131994285Y-78433571D02*
X132137142Y-78362142D01*
X132137142Y-78362142D02*
X132208571Y-78219285D01*
X132208571Y-78219285D02*
X132208571Y-78147857D01*
X132208571Y-78147857D02*
X132137142Y-78005000D01*
X132137142Y-78005000D02*
X131994285Y-77933571D01*
X131994285Y-77933571D02*
X131780000Y-77933571D01*
X131780000Y-77933571D02*
X131637142Y-77862142D01*
X131637142Y-77862142D02*
X131565714Y-77719285D01*
X131565714Y-77719285D02*
X131565714Y-77647857D01*
X131565714Y-77647857D02*
X131637142Y-77505000D01*
X131637142Y-77505000D02*
X131780000Y-77433571D01*
X131780000Y-77433571D02*
X131994285Y-77433571D01*
X131994285Y-77433571D02*
X132137142Y-77505000D01*
X132637143Y-77433571D02*
X133208571Y-77433571D01*
X132851428Y-76933571D02*
X132851428Y-78219285D01*
X132851428Y-78219285D02*
X132922857Y-78362142D01*
X132922857Y-78362142D02*
X133065714Y-78433571D01*
X133065714Y-78433571D02*
X133208571Y-78433571D01*
X134280000Y-78362142D02*
X134137143Y-78433571D01*
X134137143Y-78433571D02*
X133851429Y-78433571D01*
X133851429Y-78433571D02*
X133708571Y-78362142D01*
X133708571Y-78362142D02*
X133637143Y-78219285D01*
X133637143Y-78219285D02*
X133637143Y-77647857D01*
X133637143Y-77647857D02*
X133708571Y-77505000D01*
X133708571Y-77505000D02*
X133851429Y-77433571D01*
X133851429Y-77433571D02*
X134137143Y-77433571D01*
X134137143Y-77433571D02*
X134280000Y-77505000D01*
X134280000Y-77505000D02*
X134351429Y-77647857D01*
X134351429Y-77647857D02*
X134351429Y-77790714D01*
X134351429Y-77790714D02*
X133637143Y-77933571D01*
X134994285Y-77433571D02*
X134994285Y-78933571D01*
X134994285Y-77505000D02*
X135137143Y-77433571D01*
X135137143Y-77433571D02*
X135422857Y-77433571D01*
X135422857Y-77433571D02*
X135565714Y-77505000D01*
X135565714Y-77505000D02*
X135637143Y-77576428D01*
X135637143Y-77576428D02*
X135708571Y-77719285D01*
X135708571Y-77719285D02*
X135708571Y-78147857D01*
X135708571Y-78147857D02*
X135637143Y-78290714D01*
X135637143Y-78290714D02*
X135565714Y-78362142D01*
X135565714Y-78362142D02*
X135422857Y-78433571D01*
X135422857Y-78433571D02*
X135137143Y-78433571D01*
X135137143Y-78433571D02*
X134994285Y-78362142D01*
X136351428Y-77433571D02*
X136351428Y-78933571D01*
X136351428Y-77505000D02*
X136494286Y-77433571D01*
X136494286Y-77433571D02*
X136780000Y-77433571D01*
X136780000Y-77433571D02*
X136922857Y-77505000D01*
X136922857Y-77505000D02*
X136994286Y-77576428D01*
X136994286Y-77576428D02*
X137065714Y-77719285D01*
X137065714Y-77719285D02*
X137065714Y-78147857D01*
X137065714Y-78147857D02*
X136994286Y-78290714D01*
X136994286Y-78290714D02*
X136922857Y-78362142D01*
X136922857Y-78362142D02*
X136780000Y-78433571D01*
X136780000Y-78433571D02*
X136494286Y-78433571D01*
X136494286Y-78433571D02*
X136351428Y-78362142D01*
X138280000Y-78362142D02*
X138137143Y-78433571D01*
X138137143Y-78433571D02*
X137851429Y-78433571D01*
X137851429Y-78433571D02*
X137708571Y-78362142D01*
X137708571Y-78362142D02*
X137637143Y-78219285D01*
X137637143Y-78219285D02*
X137637143Y-77647857D01*
X137637143Y-77647857D02*
X137708571Y-77505000D01*
X137708571Y-77505000D02*
X137851429Y-77433571D01*
X137851429Y-77433571D02*
X138137143Y-77433571D01*
X138137143Y-77433571D02*
X138280000Y-77505000D01*
X138280000Y-77505000D02*
X138351429Y-77647857D01*
X138351429Y-77647857D02*
X138351429Y-77790714D01*
X138351429Y-77790714D02*
X137637143Y-77933571D01*
X138994285Y-78433571D02*
X138994285Y-77433571D01*
X138994285Y-77719285D02*
X139065714Y-77576428D01*
X139065714Y-77576428D02*
X139137143Y-77505000D01*
X139137143Y-77505000D02*
X139280000Y-77433571D01*
X139280000Y-77433571D02*
X139422857Y-77433571D01*
D10*
X147910000Y-80731108D02*
X147910000Y-79283308D01*
X147910000Y-85782000D02*
X147910000Y-84334200D01*
X144503476Y-95092761D02*
X144646333Y-95140380D01*
X144646333Y-95140380D02*
X144884428Y-95140380D01*
X144884428Y-95140380D02*
X144979666Y-95092761D01*
X144979666Y-95092761D02*
X145027285Y-95045142D01*
X145027285Y-95045142D02*
X145074904Y-94949904D01*
X145074904Y-94949904D02*
X145074904Y-94854666D01*
X145074904Y-94854666D02*
X145027285Y-94759428D01*
X145027285Y-94759428D02*
X144979666Y-94711809D01*
X144979666Y-94711809D02*
X144884428Y-94664190D01*
X144884428Y-94664190D02*
X144693952Y-94616571D01*
X144693952Y-94616571D02*
X144598714Y-94568952D01*
X144598714Y-94568952D02*
X144551095Y-94521333D01*
X144551095Y-94521333D02*
X144503476Y-94426095D01*
X144503476Y-94426095D02*
X144503476Y-94330857D01*
X144503476Y-94330857D02*
X144551095Y-94235619D01*
X144551095Y-94235619D02*
X144598714Y-94188000D01*
X144598714Y-94188000D02*
X144693952Y-94140380D01*
X144693952Y-94140380D02*
X144932047Y-94140380D01*
X144932047Y-94140380D02*
X145074904Y-94188000D01*
X145503476Y-94616571D02*
X145836809Y-94616571D01*
X145979666Y-95140380D02*
X145503476Y-95140380D01*
X145503476Y-95140380D02*
X145503476Y-94140380D01*
X145503476Y-94140380D02*
X145979666Y-94140380D01*
X146408238Y-95140380D02*
X146408238Y-94140380D01*
X146408238Y-94140380D02*
X146979666Y-95140380D01*
X146979666Y-95140380D02*
X146979666Y-94140380D01*
X147408238Y-94854666D02*
X147884428Y-94854666D01*
X147313000Y-95140380D02*
X147646333Y-94140380D01*
X147646333Y-94140380D02*
X147979666Y-95140380D01*
X149027285Y-94092761D02*
X148170143Y-95378476D01*
X149693952Y-94616571D02*
X149836809Y-94664190D01*
X149836809Y-94664190D02*
X149884428Y-94711809D01*
X149884428Y-94711809D02*
X149932047Y-94807047D01*
X149932047Y-94807047D02*
X149932047Y-94949904D01*
X149932047Y-94949904D02*
X149884428Y-95045142D01*
X149884428Y-95045142D02*
X149836809Y-95092761D01*
X149836809Y-95092761D02*
X149741571Y-95140380D01*
X149741571Y-95140380D02*
X149360619Y-95140380D01*
X149360619Y-95140380D02*
X149360619Y-94140380D01*
X149360619Y-94140380D02*
X149693952Y-94140380D01*
X149693952Y-94140380D02*
X149789190Y-94188000D01*
X149789190Y-94188000D02*
X149836809Y-94235619D01*
X149836809Y-94235619D02*
X149884428Y-94330857D01*
X149884428Y-94330857D02*
X149884428Y-94426095D01*
X149884428Y-94426095D02*
X149836809Y-94521333D01*
X149836809Y-94521333D02*
X149789190Y-94568952D01*
X149789190Y-94568952D02*
X149693952Y-94616571D01*
X149693952Y-94616571D02*
X149360619Y-94616571D01*
D12*
X148084761Y-81493690D02*
X147918095Y-81255595D01*
X147799047Y-81493690D02*
X147799047Y-80993690D01*
X147799047Y-80993690D02*
X147989523Y-80993690D01*
X147989523Y-80993690D02*
X148037142Y-81017500D01*
X148037142Y-81017500D02*
X148060952Y-81041309D01*
X148060952Y-81041309D02*
X148084761Y-81088928D01*
X148084761Y-81088928D02*
X148084761Y-81160357D01*
X148084761Y-81160357D02*
X148060952Y-81207976D01*
X148060952Y-81207976D02*
X148037142Y-81231785D01*
X148037142Y-81231785D02*
X147989523Y-81255595D01*
X147989523Y-81255595D02*
X147799047Y-81255595D01*
D10*
X126305535Y-73579999D02*
X126484107Y-73579999D01*
X126412678Y-73758571D02*
X126484107Y-73579999D01*
X126484107Y-73579999D02*
X126412678Y-73401428D01*
X126626964Y-73687142D02*
X126484107Y-73579999D01*
X126484107Y-73579999D02*
X126626964Y-73472856D01*
D12*
X147799047Y-86573690D02*
X147799047Y-86073690D01*
X148084761Y-86573690D02*
X147870476Y-86287976D01*
X148084761Y-86073690D02*
X147799047Y-86359404D01*
D10*
X146235535Y-85409999D02*
X146414107Y-85409999D01*
X146342678Y-85588571D02*
X146414107Y-85409999D01*
X146414107Y-85409999D02*
X146342678Y-85231428D01*
X146556964Y-85517142D02*
X146414107Y-85409999D01*
X146414107Y-85409999D02*
X146556964Y-85302856D01*
D12*
X147965714Y-78691785D02*
X148037142Y-78715595D01*
X148037142Y-78715595D02*
X148060952Y-78739404D01*
X148060952Y-78739404D02*
X148084761Y-78787023D01*
X148084761Y-78787023D02*
X148084761Y-78858452D01*
X148084761Y-78858452D02*
X148060952Y-78906071D01*
X148060952Y-78906071D02*
X148037142Y-78929880D01*
X148037142Y-78929880D02*
X147989523Y-78953690D01*
X147989523Y-78953690D02*
X147799047Y-78953690D01*
X147799047Y-78953690D02*
X147799047Y-78453690D01*
X147799047Y-78453690D02*
X147965714Y-78453690D01*
X147965714Y-78453690D02*
X148013333Y-78477500D01*
X148013333Y-78477500D02*
X148037142Y-78501309D01*
X148037142Y-78501309D02*
X148060952Y-78548928D01*
X148060952Y-78548928D02*
X148060952Y-78596547D01*
X148060952Y-78596547D02*
X148037142Y-78644166D01*
X148037142Y-78644166D02*
X148013333Y-78667976D01*
X148013333Y-78667976D02*
X147965714Y-78691785D01*
X147965714Y-78691785D02*
X147799047Y-78691785D01*
X148060952Y-83557500D02*
X148013333Y-83533690D01*
X148013333Y-83533690D02*
X147941904Y-83533690D01*
X147941904Y-83533690D02*
X147870476Y-83557500D01*
X147870476Y-83557500D02*
X147822857Y-83605119D01*
X147822857Y-83605119D02*
X147799047Y-83652738D01*
X147799047Y-83652738D02*
X147775238Y-83747976D01*
X147775238Y-83747976D02*
X147775238Y-83819404D01*
X147775238Y-83819404D02*
X147799047Y-83914642D01*
X147799047Y-83914642D02*
X147822857Y-83962261D01*
X147822857Y-83962261D02*
X147870476Y-84009880D01*
X147870476Y-84009880D02*
X147941904Y-84033690D01*
X147941904Y-84033690D02*
X147989523Y-84033690D01*
X147989523Y-84033690D02*
X148060952Y-84009880D01*
X148060952Y-84009880D02*
X148084761Y-83986071D01*
X148084761Y-83986071D02*
X148084761Y-83819404D01*
X148084761Y-83819404D02*
X147989523Y-83819404D01*
D10*
%TO.C,U2*%
X130138095Y-68662380D02*
X130138095Y-69471904D01*
X130138095Y-69471904D02*
X130185714Y-69567142D01*
X130185714Y-69567142D02*
X130233333Y-69614761D01*
X130233333Y-69614761D02*
X130328571Y-69662380D01*
X130328571Y-69662380D02*
X130519047Y-69662380D01*
X130519047Y-69662380D02*
X130614285Y-69614761D01*
X130614285Y-69614761D02*
X130661904Y-69567142D01*
X130661904Y-69567142D02*
X130709523Y-69471904D01*
X130709523Y-69471904D02*
X130709523Y-68662380D01*
X131138095Y-68757619D02*
X131185714Y-68710000D01*
X131185714Y-68710000D02*
X131280952Y-68662380D01*
X131280952Y-68662380D02*
X131519047Y-68662380D01*
X131519047Y-68662380D02*
X131614285Y-68710000D01*
X131614285Y-68710000D02*
X131661904Y-68757619D01*
X131661904Y-68757619D02*
X131709523Y-68852857D01*
X131709523Y-68852857D02*
X131709523Y-68948095D01*
X131709523Y-68948095D02*
X131661904Y-69090952D01*
X131661904Y-69090952D02*
X131090476Y-69662380D01*
X131090476Y-69662380D02*
X131709523Y-69662380D01*
%TO.C,J1*%
X146406666Y-77359380D02*
X146406666Y-78073666D01*
X146406666Y-78073666D02*
X146359047Y-78216523D01*
X146359047Y-78216523D02*
X146263809Y-78311761D01*
X146263809Y-78311761D02*
X146120952Y-78359380D01*
X146120952Y-78359380D02*
X146025714Y-78359380D01*
X147406666Y-78359380D02*
X146835238Y-78359380D01*
X147120952Y-78359380D02*
X147120952Y-77359380D01*
X147120952Y-77359380D02*
X147025714Y-77502238D01*
X147025714Y-77502238D02*
X146930476Y-77597476D01*
X146930476Y-77597476D02*
X146835238Y-77645095D01*
%TO.C,C4*%
X141043333Y-93252142D02*
X140995714Y-93299761D01*
X140995714Y-93299761D02*
X140852857Y-93347380D01*
X140852857Y-93347380D02*
X140757619Y-93347380D01*
X140757619Y-93347380D02*
X140614762Y-93299761D01*
X140614762Y-93299761D02*
X140519524Y-93204523D01*
X140519524Y-93204523D02*
X140471905Y-93109285D01*
X140471905Y-93109285D02*
X140424286Y-92918809D01*
X140424286Y-92918809D02*
X140424286Y-92775952D01*
X140424286Y-92775952D02*
X140471905Y-92585476D01*
X140471905Y-92585476D02*
X140519524Y-92490238D01*
X140519524Y-92490238D02*
X140614762Y-92395000D01*
X140614762Y-92395000D02*
X140757619Y-92347380D01*
X140757619Y-92347380D02*
X140852857Y-92347380D01*
X140852857Y-92347380D02*
X140995714Y-92395000D01*
X140995714Y-92395000D02*
X141043333Y-92442619D01*
X141900476Y-92680714D02*
X141900476Y-93347380D01*
X141662381Y-92299761D02*
X141424286Y-93014047D01*
X141424286Y-93014047D02*
X142043333Y-93014047D01*
%TO.C,R1*%
X124213333Y-75247380D02*
X123880000Y-74771190D01*
X123641905Y-75247380D02*
X123641905Y-74247380D01*
X123641905Y-74247380D02*
X124022857Y-74247380D01*
X124022857Y-74247380D02*
X124118095Y-74295000D01*
X124118095Y-74295000D02*
X124165714Y-74342619D01*
X124165714Y-74342619D02*
X124213333Y-74437857D01*
X124213333Y-74437857D02*
X124213333Y-74580714D01*
X124213333Y-74580714D02*
X124165714Y-74675952D01*
X124165714Y-74675952D02*
X124118095Y-74723571D01*
X124118095Y-74723571D02*
X124022857Y-74771190D01*
X124022857Y-74771190D02*
X123641905Y-74771190D01*
X125165714Y-75247380D02*
X124594286Y-75247380D01*
X124880000Y-75247380D02*
X124880000Y-74247380D01*
X124880000Y-74247380D02*
X124784762Y-74390238D01*
X124784762Y-74390238D02*
X124689524Y-74485476D01*
X124689524Y-74485476D02*
X124594286Y-74533095D01*
%TO.C,J11*%
X120750476Y-75477380D02*
X120750476Y-76191666D01*
X120750476Y-76191666D02*
X120702857Y-76334523D01*
X120702857Y-76334523D02*
X120607619Y-76429761D01*
X120607619Y-76429761D02*
X120464762Y-76477380D01*
X120464762Y-76477380D02*
X120369524Y-76477380D01*
X121750476Y-76477380D02*
X121179048Y-76477380D01*
X121464762Y-76477380D02*
X121464762Y-75477380D01*
X121464762Y-75477380D02*
X121369524Y-75620238D01*
X121369524Y-75620238D02*
X121274286Y-75715476D01*
X121274286Y-75715476D02*
X121179048Y-75763095D01*
X122702857Y-76477380D02*
X122131429Y-76477380D01*
X122417143Y-76477380D02*
X122417143Y-75477380D01*
X122417143Y-75477380D02*
X122321905Y-75620238D01*
X122321905Y-75620238D02*
X122226667Y-75715476D01*
X122226667Y-75715476D02*
X122131429Y-75763095D01*
%TO.C,J4*%
X136996666Y-59887380D02*
X136996666Y-60601666D01*
X136996666Y-60601666D02*
X136949047Y-60744523D01*
X136949047Y-60744523D02*
X136853809Y-60839761D01*
X136853809Y-60839761D02*
X136710952Y-60887380D01*
X136710952Y-60887380D02*
X136615714Y-60887380D01*
X137901428Y-60220714D02*
X137901428Y-60887380D01*
X137663333Y-59839761D02*
X137425238Y-60554047D01*
X137425238Y-60554047D02*
X138044285Y-60554047D01*
D12*
%TO.C,U1*%
X142858571Y-83945535D02*
X142858571Y-84552678D01*
X142858571Y-84552678D02*
X142894285Y-84624107D01*
X142894285Y-84624107D02*
X142930000Y-84659821D01*
X142930000Y-84659821D02*
X143001428Y-84695535D01*
X143001428Y-84695535D02*
X143144285Y-84695535D01*
X143144285Y-84695535D02*
X143215714Y-84659821D01*
X143215714Y-84659821D02*
X143251428Y-84624107D01*
X143251428Y-84624107D02*
X143287142Y-84552678D01*
X143287142Y-84552678D02*
X143287142Y-83945535D01*
X144037142Y-84695535D02*
X143608571Y-84695535D01*
X143822856Y-84695535D02*
X143822856Y-83945535D01*
X143822856Y-83945535D02*
X143751428Y-84052678D01*
X143751428Y-84052678D02*
X143679999Y-84124107D01*
X143679999Y-84124107D02*
X143608571Y-84159821D01*
D10*
%TO.C,R3*%
X125713333Y-65377380D02*
X125380000Y-64901190D01*
X125141905Y-65377380D02*
X125141905Y-64377380D01*
X125141905Y-64377380D02*
X125522857Y-64377380D01*
X125522857Y-64377380D02*
X125618095Y-64425000D01*
X125618095Y-64425000D02*
X125665714Y-64472619D01*
X125665714Y-64472619D02*
X125713333Y-64567857D01*
X125713333Y-64567857D02*
X125713333Y-64710714D01*
X125713333Y-64710714D02*
X125665714Y-64805952D01*
X125665714Y-64805952D02*
X125618095Y-64853571D01*
X125618095Y-64853571D02*
X125522857Y-64901190D01*
X125522857Y-64901190D02*
X125141905Y-64901190D01*
X126046667Y-64377380D02*
X126665714Y-64377380D01*
X126665714Y-64377380D02*
X126332381Y-64758333D01*
X126332381Y-64758333D02*
X126475238Y-64758333D01*
X126475238Y-64758333D02*
X126570476Y-64805952D01*
X126570476Y-64805952D02*
X126618095Y-64853571D01*
X126618095Y-64853571D02*
X126665714Y-64948809D01*
X126665714Y-64948809D02*
X126665714Y-65186904D01*
X126665714Y-65186904D02*
X126618095Y-65282142D01*
X126618095Y-65282142D02*
X126570476Y-65329761D01*
X126570476Y-65329761D02*
X126475238Y-65377380D01*
X126475238Y-65377380D02*
X126189524Y-65377380D01*
X126189524Y-65377380D02*
X126094286Y-65329761D01*
X126094286Y-65329761D02*
X126046667Y-65282142D01*
D13*
%TO.C,C2*%
X135563333Y-81342142D02*
X135515714Y-81389761D01*
X135515714Y-81389761D02*
X135372857Y-81437380D01*
X135372857Y-81437380D02*
X135277619Y-81437380D01*
X135277619Y-81437380D02*
X135134762Y-81389761D01*
X135134762Y-81389761D02*
X135039524Y-81294523D01*
X135039524Y-81294523D02*
X134991905Y-81199285D01*
X134991905Y-81199285D02*
X134944286Y-81008809D01*
X134944286Y-81008809D02*
X134944286Y-80865952D01*
X134944286Y-80865952D02*
X134991905Y-80675476D01*
X134991905Y-80675476D02*
X135039524Y-80580238D01*
X135039524Y-80580238D02*
X135134762Y-80485000D01*
X135134762Y-80485000D02*
X135277619Y-80437380D01*
X135277619Y-80437380D02*
X135372857Y-80437380D01*
X135372857Y-80437380D02*
X135515714Y-80485000D01*
X135515714Y-80485000D02*
X135563333Y-80532619D01*
X135944286Y-80532619D02*
X135991905Y-80485000D01*
X135991905Y-80485000D02*
X136087143Y-80437380D01*
X136087143Y-80437380D02*
X136325238Y-80437380D01*
X136325238Y-80437380D02*
X136420476Y-80485000D01*
X136420476Y-80485000D02*
X136468095Y-80532619D01*
X136468095Y-80532619D02*
X136515714Y-80627857D01*
X136515714Y-80627857D02*
X136515714Y-80723095D01*
X136515714Y-80723095D02*
X136468095Y-80865952D01*
X136468095Y-80865952D02*
X135896667Y-81437380D01*
X135896667Y-81437380D02*
X136515714Y-81437380D01*
%TO.C,C5*%
X141073333Y-87982142D02*
X141025714Y-88029761D01*
X141025714Y-88029761D02*
X140882857Y-88077380D01*
X140882857Y-88077380D02*
X140787619Y-88077380D01*
X140787619Y-88077380D02*
X140644762Y-88029761D01*
X140644762Y-88029761D02*
X140549524Y-87934523D01*
X140549524Y-87934523D02*
X140501905Y-87839285D01*
X140501905Y-87839285D02*
X140454286Y-87648809D01*
X140454286Y-87648809D02*
X140454286Y-87505952D01*
X140454286Y-87505952D02*
X140501905Y-87315476D01*
X140501905Y-87315476D02*
X140549524Y-87220238D01*
X140549524Y-87220238D02*
X140644762Y-87125000D01*
X140644762Y-87125000D02*
X140787619Y-87077380D01*
X140787619Y-87077380D02*
X140882857Y-87077380D01*
X140882857Y-87077380D02*
X141025714Y-87125000D01*
X141025714Y-87125000D02*
X141073333Y-87172619D01*
X141978095Y-87077380D02*
X141501905Y-87077380D01*
X141501905Y-87077380D02*
X141454286Y-87553571D01*
X141454286Y-87553571D02*
X141501905Y-87505952D01*
X141501905Y-87505952D02*
X141597143Y-87458333D01*
X141597143Y-87458333D02*
X141835238Y-87458333D01*
X141835238Y-87458333D02*
X141930476Y-87505952D01*
X141930476Y-87505952D02*
X141978095Y-87553571D01*
X141978095Y-87553571D02*
X142025714Y-87648809D01*
X142025714Y-87648809D02*
X142025714Y-87886904D01*
X142025714Y-87886904D02*
X141978095Y-87982142D01*
X141978095Y-87982142D02*
X141930476Y-88029761D01*
X141930476Y-88029761D02*
X141835238Y-88077380D01*
X141835238Y-88077380D02*
X141597143Y-88077380D01*
X141597143Y-88077380D02*
X141501905Y-88029761D01*
X141501905Y-88029761D02*
X141454286Y-87982142D01*
D10*
%TO.C,C1*%
X132333333Y-80762142D02*
X132285714Y-80809761D01*
X132285714Y-80809761D02*
X132142857Y-80857380D01*
X132142857Y-80857380D02*
X132047619Y-80857380D01*
X132047619Y-80857380D02*
X131904762Y-80809761D01*
X131904762Y-80809761D02*
X131809524Y-80714523D01*
X131809524Y-80714523D02*
X131761905Y-80619285D01*
X131761905Y-80619285D02*
X131714286Y-80428809D01*
X131714286Y-80428809D02*
X131714286Y-80285952D01*
X131714286Y-80285952D02*
X131761905Y-80095476D01*
X131761905Y-80095476D02*
X131809524Y-80000238D01*
X131809524Y-80000238D02*
X131904762Y-79905000D01*
X131904762Y-79905000D02*
X132047619Y-79857380D01*
X132047619Y-79857380D02*
X132142857Y-79857380D01*
X132142857Y-79857380D02*
X132285714Y-79905000D01*
X132285714Y-79905000D02*
X132333333Y-79952619D01*
X133285714Y-80857380D02*
X132714286Y-80857380D01*
X133000000Y-80857380D02*
X133000000Y-79857380D01*
X133000000Y-79857380D02*
X132904762Y-80000238D01*
X132904762Y-80000238D02*
X132809524Y-80095476D01*
X132809524Y-80095476D02*
X132714286Y-80143095D01*
%TO.C,U3*%
X134538095Y-95697380D02*
X134538095Y-96506904D01*
X134538095Y-96506904D02*
X134585714Y-96602142D01*
X134585714Y-96602142D02*
X134633333Y-96649761D01*
X134633333Y-96649761D02*
X134728571Y-96697380D01*
X134728571Y-96697380D02*
X134919047Y-96697380D01*
X134919047Y-96697380D02*
X135014285Y-96649761D01*
X135014285Y-96649761D02*
X135061904Y-96602142D01*
X135061904Y-96602142D02*
X135109523Y-96506904D01*
X135109523Y-96506904D02*
X135109523Y-95697380D01*
X135490476Y-95697380D02*
X136109523Y-95697380D01*
X136109523Y-95697380D02*
X135776190Y-96078333D01*
X135776190Y-96078333D02*
X135919047Y-96078333D01*
X135919047Y-96078333D02*
X136014285Y-96125952D01*
X136014285Y-96125952D02*
X136061904Y-96173571D01*
X136061904Y-96173571D02*
X136109523Y-96268809D01*
X136109523Y-96268809D02*
X136109523Y-96506904D01*
X136109523Y-96506904D02*
X136061904Y-96602142D01*
X136061904Y-96602142D02*
X136014285Y-96649761D01*
X136014285Y-96649761D02*
X135919047Y-96697380D01*
X135919047Y-96697380D02*
X135633333Y-96697380D01*
X135633333Y-96697380D02*
X135538095Y-96649761D01*
X135538095Y-96649761D02*
X135490476Y-96602142D01*
%TO.C,C3*%
X134593333Y-89132142D02*
X134545714Y-89179761D01*
X134545714Y-89179761D02*
X134402857Y-89227380D01*
X134402857Y-89227380D02*
X134307619Y-89227380D01*
X134307619Y-89227380D02*
X134164762Y-89179761D01*
X134164762Y-89179761D02*
X134069524Y-89084523D01*
X134069524Y-89084523D02*
X134021905Y-88989285D01*
X134021905Y-88989285D02*
X133974286Y-88798809D01*
X133974286Y-88798809D02*
X133974286Y-88655952D01*
X133974286Y-88655952D02*
X134021905Y-88465476D01*
X134021905Y-88465476D02*
X134069524Y-88370238D01*
X134069524Y-88370238D02*
X134164762Y-88275000D01*
X134164762Y-88275000D02*
X134307619Y-88227380D01*
X134307619Y-88227380D02*
X134402857Y-88227380D01*
X134402857Y-88227380D02*
X134545714Y-88275000D01*
X134545714Y-88275000D02*
X134593333Y-88322619D01*
X134926667Y-88227380D02*
X135545714Y-88227380D01*
X135545714Y-88227380D02*
X135212381Y-88608333D01*
X135212381Y-88608333D02*
X135355238Y-88608333D01*
X135355238Y-88608333D02*
X135450476Y-88655952D01*
X135450476Y-88655952D02*
X135498095Y-88703571D01*
X135498095Y-88703571D02*
X135545714Y-88798809D01*
X135545714Y-88798809D02*
X135545714Y-89036904D01*
X135545714Y-89036904D02*
X135498095Y-89132142D01*
X135498095Y-89132142D02*
X135450476Y-89179761D01*
X135450476Y-89179761D02*
X135355238Y-89227380D01*
X135355238Y-89227380D02*
X135069524Y-89227380D01*
X135069524Y-89227380D02*
X134974286Y-89179761D01*
X134974286Y-89179761D02*
X134926667Y-89132142D01*
X136799048Y-85406428D02*
X137560953Y-85406428D01*
X137180000Y-85787380D02*
X137180000Y-85025476D01*
X139250000Y-87457380D02*
X139250000Y-87695476D01*
X139011905Y-87600238D02*
X139250000Y-87695476D01*
X139250000Y-87695476D02*
X139488095Y-87600238D01*
X139107143Y-87885952D02*
X139250000Y-87695476D01*
X139250000Y-87695476D02*
X139392857Y-87885952D01*
%TO.C,R2*%
X125703333Y-60277380D02*
X125370000Y-59801190D01*
X125131905Y-60277380D02*
X125131905Y-59277380D01*
X125131905Y-59277380D02*
X125512857Y-59277380D01*
X125512857Y-59277380D02*
X125608095Y-59325000D01*
X125608095Y-59325000D02*
X125655714Y-59372619D01*
X125655714Y-59372619D02*
X125703333Y-59467857D01*
X125703333Y-59467857D02*
X125703333Y-59610714D01*
X125703333Y-59610714D02*
X125655714Y-59705952D01*
X125655714Y-59705952D02*
X125608095Y-59753571D01*
X125608095Y-59753571D02*
X125512857Y-59801190D01*
X125512857Y-59801190D02*
X125131905Y-59801190D01*
X126084286Y-59372619D02*
X126131905Y-59325000D01*
X126131905Y-59325000D02*
X126227143Y-59277380D01*
X126227143Y-59277380D02*
X126465238Y-59277380D01*
X126465238Y-59277380D02*
X126560476Y-59325000D01*
X126560476Y-59325000D02*
X126608095Y-59372619D01*
X126608095Y-59372619D02*
X126655714Y-59467857D01*
X126655714Y-59467857D02*
X126655714Y-59563095D01*
X126655714Y-59563095D02*
X126608095Y-59705952D01*
X126608095Y-59705952D02*
X126036667Y-60277380D01*
X126036667Y-60277380D02*
X126655714Y-60277380D01*
D14*
%TO.C,J10*%
X145649996Y-102520007D02*
X146979996Y-102520007D01*
X145649996Y-103850007D02*
X145649996Y-102520007D01*
X145649996Y-105120007D02*
X145649996Y-105180007D01*
X145649996Y-105120007D02*
X148309996Y-105120007D01*
X145649996Y-105180007D02*
X148309996Y-105180007D01*
X148309996Y-105120007D02*
X148309996Y-105180007D01*
%TO.C,U2*%
X126295000Y-69445000D02*
X126295000Y-72895000D01*
X126295000Y-69445000D02*
X126295000Y-67495000D01*
X135165000Y-69445000D02*
X135165000Y-71395000D01*
X135165000Y-69445000D02*
X135165000Y-67495000D01*
%TO.C,J3*%
X131180688Y-61634869D02*
X132510688Y-61634869D01*
X131180688Y-62964869D02*
X131180688Y-61634869D01*
X131180688Y-64234869D02*
X131180688Y-64294869D01*
X131180688Y-64234869D02*
X133840688Y-64234869D01*
X131180688Y-64294869D02*
X133840688Y-64294869D01*
X133840688Y-64234869D02*
X133840688Y-64294869D01*
%TO.C,RSENA3*%
X145882258Y-90562500D02*
X145407742Y-90562500D01*
X145882258Y-89517500D02*
X145407742Y-89517500D01*
%TO.C,J1*%
X150980000Y-87660000D02*
X149650000Y-87660000D01*
X150980000Y-86330000D02*
X150980000Y-87660000D01*
X150980000Y-85060000D02*
X150980000Y-77380000D01*
X150980000Y-85060000D02*
X148320000Y-85060000D01*
X150980000Y-77380000D02*
X148320000Y-77380000D01*
X148320000Y-85060000D02*
X148320000Y-77380000D01*
%TO.C,C4*%
X140838748Y-90335000D02*
X141361252Y-90335000D01*
X140838748Y-91805000D02*
X141361252Y-91805000D01*
%TO.C,R1*%
X123647500Y-72747258D02*
X123647500Y-72272742D01*
X124692500Y-72747258D02*
X124692500Y-72272742D01*
%TO.C,J11*%
X122890000Y-75110000D02*
X121560000Y-75110000D01*
X122890000Y-73780000D02*
X122890000Y-75110000D01*
X122890000Y-72510000D02*
X122890000Y-67370000D01*
X122890000Y-72510000D02*
X120230000Y-72510000D01*
X122890000Y-67370000D02*
X120230000Y-67370000D01*
X120230000Y-72510000D02*
X120230000Y-67370000D01*
%TO.C,RSENB1*%
X148930258Y-93610500D02*
X148455742Y-93610500D01*
X148930258Y-92565500D02*
X148455742Y-92565500D01*
%TO.C,J9*%
X141449996Y-102520007D02*
X142779996Y-102520007D01*
X141449996Y-103850007D02*
X141449996Y-102520007D01*
X141449996Y-105120007D02*
X141449996Y-105180007D01*
X141449996Y-105120007D02*
X144109996Y-105120007D01*
X141449996Y-105180007D02*
X144109996Y-105180007D01*
X144109996Y-105120007D02*
X144109996Y-105180007D01*
%TO.C,J6*%
X145649996Y-97020007D02*
X146979996Y-97020007D01*
X145649996Y-98350007D02*
X145649996Y-97020007D01*
X145649996Y-99620007D02*
X145649996Y-99680007D01*
X145649996Y-99620007D02*
X148309996Y-99620007D01*
X145649996Y-99680007D02*
X148309996Y-99680007D01*
X148309996Y-99620007D02*
X148309996Y-99680007D01*
%TO.C,J4*%
X136000000Y-61520000D02*
X137330000Y-61520000D01*
X136000000Y-62850000D02*
X136000000Y-61520000D01*
X136000000Y-64120000D02*
X136000000Y-71800000D01*
X136000000Y-64120000D02*
X138660000Y-64120000D01*
X136000000Y-71800000D02*
X138660000Y-71800000D01*
X138660000Y-64120000D02*
X138660000Y-71800000D01*
%TO.C,U1*%
X143450000Y-85065000D02*
X147100000Y-85065000D01*
X143450000Y-85065000D02*
X141250000Y-85065000D01*
X143450000Y-79595000D02*
X145650000Y-79595000D01*
X143450000Y-79595000D02*
X141250000Y-79595000D01*
%TO.C,R3*%
X124692500Y-65127258D02*
X124692500Y-64652742D01*
X123647500Y-65127258D02*
X123647500Y-64652742D01*
%TO.C,RSENB2*%
X148930258Y-92086500D02*
X148455742Y-92086500D01*
X148930258Y-91041500D02*
X148455742Y-91041500D01*
%TO.C,RSENA2*%
X145882258Y-92086500D02*
X145407742Y-92086500D01*
X145882258Y-91041500D02*
X145407742Y-91041500D01*
%TO.C,J12*%
X120230000Y-59810000D02*
X120230000Y-57210000D01*
X122890000Y-57210000D02*
X120230000Y-57210000D01*
X122890000Y-59810000D02*
X120230000Y-59810000D01*
X122890000Y-59810000D02*
X122890000Y-57210000D01*
X122890000Y-61080000D02*
X122890000Y-62410000D01*
X122890000Y-62410000D02*
X121560000Y-62410000D01*
%TO.C,RSENB3*%
X148930258Y-90562500D02*
X148455742Y-90562500D01*
X148930258Y-89517500D02*
X148455742Y-89517500D01*
%TO.C,J13*%
X120230000Y-64890000D02*
X120230000Y-62290000D01*
X122890000Y-62290000D02*
X120230000Y-62290000D01*
X122890000Y-64890000D02*
X120230000Y-64890000D01*
X122890000Y-64890000D02*
X122890000Y-62290000D01*
X122890000Y-66160000D02*
X122890000Y-67490000D01*
X122890000Y-67490000D02*
X121560000Y-67490000D01*
%TO.C,C2*%
X135669420Y-81900000D02*
X135950580Y-81900000D01*
X135669420Y-82920000D02*
X135950580Y-82920000D01*
%TO.C,C5*%
X141009420Y-88520000D02*
X141290580Y-88520000D01*
X141009420Y-89540000D02*
X141290580Y-89540000D01*
%TO.C,C1*%
X132238748Y-81435000D02*
X132761252Y-81435000D01*
X132238748Y-82905000D02*
X132761252Y-82905000D01*
%TO.C,RSENA1*%
X145882258Y-93610500D02*
X145407742Y-93610500D01*
X145882258Y-92565500D02*
X145407742Y-92565500D01*
%TO.C,U3*%
X138790000Y-95320000D02*
X138790000Y-96820000D01*
X138440000Y-95320000D02*
X138790000Y-95320000D01*
X133790000Y-95320000D02*
X136990000Y-95320000D01*
X131990000Y-95320000D02*
X132390000Y-95320000D01*
X131990000Y-96820000D02*
X131990000Y-95320000D01*
%TO.C,J7*%
X123280688Y-67634869D02*
X124610688Y-67634869D01*
X123280688Y-68964869D02*
X123280688Y-67634869D01*
X123280688Y-70234869D02*
X123280688Y-70294869D01*
X123280688Y-70234869D02*
X125940688Y-70234869D01*
X123280688Y-70294869D02*
X125940688Y-70294869D01*
X125940688Y-70234869D02*
X125940688Y-70294869D01*
%TO.C,J5*%
X141449996Y-97020007D02*
X142779996Y-97020007D01*
X141449996Y-98350007D02*
X141449996Y-97020007D01*
X141449996Y-99620007D02*
X141449996Y-99680007D01*
X141449996Y-99620007D02*
X144109996Y-99620007D01*
X141449996Y-99680007D02*
X144109996Y-99680007D01*
X144109996Y-99620007D02*
X144109996Y-99680007D01*
%TO.C,C3*%
X138530600Y-89480600D02*
X138530600Y-87892340D01*
X138530600Y-89480600D02*
X137530600Y-90480600D01*
X138530600Y-86007660D02*
X138530600Y-84419400D01*
X138530600Y-84419400D02*
X137530600Y-83419400D01*
X137530600Y-83419400D02*
X131469400Y-83419400D01*
X131469400Y-90480600D02*
X137530600Y-90480600D01*
X131469400Y-87892340D02*
X131469400Y-90480600D01*
X131469400Y-83419400D02*
X131469400Y-86007660D01*
%TO.C,R2*%
X123647500Y-60047258D02*
X123647500Y-59572742D01*
X124692500Y-60047258D02*
X124692500Y-59572742D01*
%TD*%
M02*
