M48
INCH,TZ
T1C0.0157
T2C0.0394
%
G90
G05
T1
X36539Y-30909
X37043Y-31161
X37579Y-33398
X37677Y-35413
X37724Y-33862
X38157Y-29043
X38220Y-30860
X38417Y-29760
X38929Y-31122
X39291Y-32087
X39382Y-29835
X39539Y-28583
X39583Y-33055
X39657Y-30976
X39870Y-29866
X40232Y-30831
X40441Y-33244
X40480Y-34795
X40488Y-29429
X40539Y-29020
X40539Y-35543
X40708Y-28567
T2
X39567Y-35236
X36850Y-28701
X36850Y-29701
T0
M30
