G04 #@! TF.GenerationSoftware,KiCad,Pcbnew,(5.1.6-0-10_14)*
G04 #@! TF.CreationDate,2020-08-07T14:52:54+09:00*
G04 #@! TF.ProjectId,con_lid_2x8,636f6e5f-6c69-4645-9f32-78382e6b6963,rev?*
G04 #@! TF.SameCoordinates,Original*
G04 #@! TF.FileFunction,Copper,L1,Top*
G04 #@! TF.FilePolarity,Positive*
%FSLAX46Y46*%
G04 Gerber Fmt 4.6, Leading zero omitted, Abs format (unit mm)*
G04 Created by KiCad (PCBNEW (5.1.6-0-10_14)) date 2020-08-07 14:52:54*
%MOMM*%
%LPD*%
G01*
G04 APERTURE LIST*
G04 #@! TA.AperFunction,ComponentPad*
%ADD10R,1.700000X1.700000*%
G04 #@! TD*
G04 #@! TA.AperFunction,ComponentPad*
%ADD11O,1.700000X1.700000*%
G04 #@! TD*
G04 #@! TA.AperFunction,ComponentPad*
%ADD12C,2.000000*%
G04 #@! TD*
G04 #@! TA.AperFunction,Conductor*
%ADD13C,1.270000*%
G04 #@! TD*
G04 #@! TA.AperFunction,Conductor*
%ADD14C,0.250000*%
G04 #@! TD*
G04 APERTURE END LIST*
D10*
G04 #@! TO.P,T1,1*
G04 #@! TO.N,THERM1*
X122730000Y-69820000D03*
D11*
G04 #@! TO.P,T1,2*
G04 #@! TO.N,THERM_GND*
X122730000Y-67280000D03*
G04 #@! TD*
G04 #@! TO.P,T2,2*
G04 #@! TO.N,THERM_GND*
X122730000Y-73630000D03*
D10*
G04 #@! TO.P,T2,1*
G04 #@! TO.N,THERM2*
X122730000Y-76170000D03*
G04 #@! TD*
G04 #@! TO.P,T3,1*
G04 #@! TO.N,THERM3*
X122730000Y-112790000D03*
D11*
G04 #@! TO.P,T3,2*
G04 #@! TO.N,THERM_GND*
X122730000Y-110250000D03*
G04 #@! TD*
G04 #@! TO.P,T4,2*
G04 #@! TO.N,THERM_GND*
X122730000Y-116460000D03*
D10*
G04 #@! TO.P,T4,1*
G04 #@! TO.N,THERM4*
X122730000Y-119000000D03*
G04 #@! TD*
D11*
G04 #@! TO.P,U1,10*
G04 #@! TO.N,HEATER2B*
X139780000Y-98080000D03*
G04 #@! TO.P,U1,9*
G04 #@! TO.N,HEATER2A*
X137240000Y-98080000D03*
G04 #@! TO.P,U1,8*
G04 #@! TO.N,THERM4*
X139780000Y-95540000D03*
G04 #@! TO.P,U1,7*
G04 #@! TO.N,THERM3*
X137240000Y-95540000D03*
G04 #@! TO.P,U1,6*
G04 #@! TO.N,THERM_GND*
X139780000Y-93000000D03*
G04 #@! TO.P,U1,5*
G04 #@! TO.N,THERM2*
X137240000Y-93000000D03*
G04 #@! TO.P,U1,4*
G04 #@! TO.N,THERM1*
X139780000Y-90460000D03*
G04 #@! TO.P,U1,3*
G04 #@! TO.N,AIR*
X137240000Y-90460000D03*
G04 #@! TO.P,U1,2*
G04 #@! TO.N,HEATER1B*
X139780000Y-87920000D03*
D10*
G04 #@! TO.P,U1,1*
G04 #@! TO.N,HEATER1A*
X137240000Y-87920000D03*
G04 #@! TD*
D12*
G04 #@! TO.P,H1,1*
G04 #@! TO.N,HEATER1A*
X128000000Y-82000000D03*
G04 #@! TO.P,H1,2*
G04 #@! TO.N,HEATER1B*
X128000000Y-85500000D03*
G04 #@! TD*
G04 #@! TO.P,H2,2*
G04 #@! TO.N,HEATER2B*
X128000000Y-104000000D03*
G04 #@! TO.P,H2,1*
G04 #@! TO.N,HEATER2A*
X128000000Y-100500000D03*
G04 #@! TD*
D11*
G04 #@! TO.P,TAIR1,2*
G04 #@! TO.N,THERM_GND*
X132000000Y-91460000D03*
D10*
G04 #@! TO.P,TAIR1,1*
G04 #@! TO.N,AIR*
X132000000Y-94000000D03*
G04 #@! TD*
D13*
G04 #@! TO.N,HEATER1B*
X139780000Y-86717919D02*
X139780000Y-87920000D01*
X138562081Y-85500000D02*
X139780000Y-86717919D01*
X128000000Y-85500000D02*
X138562081Y-85500000D01*
G04 #@! TO.N,HEATER1A*
X127704198Y-87920000D02*
X137240000Y-87920000D01*
X126164999Y-86380801D02*
X127704198Y-87920000D01*
X126164999Y-83835001D02*
X126164999Y-86380801D01*
X128000000Y-82000000D02*
X126164999Y-83835001D01*
G04 #@! TO.N,HEATER2A*
X130420000Y-98080000D02*
X137240000Y-98080000D01*
X128000000Y-100500000D02*
X130420000Y-98080000D01*
G04 #@! TO.N,HEATER2B*
X131210010Y-100789990D02*
X137070010Y-100789990D01*
X137070010Y-100789990D02*
X139780000Y-98080000D01*
X128000000Y-104000000D02*
X131210010Y-100789990D01*
G04 #@! TO.N,THERM_GND*
X121044999Y-114774999D02*
X122730000Y-116460000D01*
X121250000Y-110250000D02*
X121044999Y-110044999D01*
X122730000Y-110250000D02*
X121250000Y-110250000D01*
X121044999Y-110044999D02*
X121044999Y-114774999D01*
X121527919Y-67280000D02*
X121044999Y-67762920D01*
X122730000Y-67280000D02*
X121527919Y-67280000D01*
X121370000Y-73630000D02*
X121044999Y-73955001D01*
X122730000Y-73630000D02*
X121370000Y-73630000D01*
X121044999Y-67762920D02*
X121044999Y-73955001D01*
X121540000Y-91460000D02*
X121044999Y-91955001D01*
X132000000Y-91460000D02*
X121540000Y-91460000D01*
X121044999Y-91955001D02*
X121044999Y-110044999D01*
X121044999Y-73955001D02*
X121044999Y-91955001D01*
D14*
X132364999Y-91824999D02*
X132000000Y-91460000D01*
X138604999Y-91824999D02*
X132364999Y-91824999D01*
X139780000Y-93000000D02*
X138604999Y-91824999D01*
G04 #@! TO.N,THERM3*
X136439002Y-95250000D02*
X137240000Y-95250000D01*
G04 #@! TD*
M02*
