G04 #@! TF.GenerationSoftware,KiCad,Pcbnew,(5.1.6-0-10_14)*
G04 #@! TF.CreationDate,2020-08-07T14:52:54+09:00*
G04 #@! TF.ProjectId,con_lid_2x8,636f6e5f-6c69-4645-9f32-78382e6b6963,rev?*
G04 #@! TF.SameCoordinates,Original*
G04 #@! TF.FileFunction,Copper,L2,Bot*
G04 #@! TF.FilePolarity,Positive*
%FSLAX46Y46*%
G04 Gerber Fmt 4.6, Leading zero omitted, Abs format (unit mm)*
G04 Created by KiCad (PCBNEW (5.1.6-0-10_14)) date 2020-08-07 14:52:54*
%MOMM*%
%LPD*%
G01*
G04 APERTURE LIST*
G04 #@! TA.AperFunction,ComponentPad*
%ADD10R,1.700000X1.700000*%
G04 #@! TD*
G04 #@! TA.AperFunction,ComponentPad*
%ADD11O,1.700000X1.700000*%
G04 #@! TD*
G04 #@! TA.AperFunction,ComponentPad*
%ADD12C,2.000000*%
G04 #@! TD*
G04 #@! TA.AperFunction,Conductor*
%ADD13C,0.250000*%
G04 #@! TD*
G04 APERTURE END LIST*
D10*
G04 #@! TO.P,T1,1*
G04 #@! TO.N,THERM1*
X122730000Y-69820000D03*
D11*
G04 #@! TO.P,T1,2*
G04 #@! TO.N,THERM_GND*
X122730000Y-67280000D03*
G04 #@! TD*
G04 #@! TO.P,T2,2*
G04 #@! TO.N,THERM_GND*
X122730000Y-73630000D03*
D10*
G04 #@! TO.P,T2,1*
G04 #@! TO.N,THERM2*
X122730000Y-76170000D03*
G04 #@! TD*
G04 #@! TO.P,T3,1*
G04 #@! TO.N,THERM3*
X122730000Y-112790000D03*
D11*
G04 #@! TO.P,T3,2*
G04 #@! TO.N,THERM_GND*
X122730000Y-110250000D03*
G04 #@! TD*
G04 #@! TO.P,T4,2*
G04 #@! TO.N,THERM_GND*
X122730000Y-116460000D03*
D10*
G04 #@! TO.P,T4,1*
G04 #@! TO.N,THERM4*
X122730000Y-119000000D03*
G04 #@! TD*
D11*
G04 #@! TO.P,U1,10*
G04 #@! TO.N,HEATER2B*
X139780000Y-98080000D03*
G04 #@! TO.P,U1,9*
G04 #@! TO.N,HEATER2A*
X137240000Y-98080000D03*
G04 #@! TO.P,U1,8*
G04 #@! TO.N,THERM4*
X139780000Y-95540000D03*
G04 #@! TO.P,U1,7*
G04 #@! TO.N,THERM3*
X137240000Y-95540000D03*
G04 #@! TO.P,U1,6*
G04 #@! TO.N,THERM_GND*
X139780000Y-93000000D03*
G04 #@! TO.P,U1,5*
G04 #@! TO.N,THERM2*
X137240000Y-93000000D03*
G04 #@! TO.P,U1,4*
G04 #@! TO.N,THERM1*
X139780000Y-90460000D03*
G04 #@! TO.P,U1,3*
G04 #@! TO.N,AIR*
X137240000Y-90460000D03*
G04 #@! TO.P,U1,2*
G04 #@! TO.N,HEATER1B*
X139780000Y-87920000D03*
D10*
G04 #@! TO.P,U1,1*
G04 #@! TO.N,HEATER1A*
X137240000Y-87920000D03*
G04 #@! TD*
D12*
G04 #@! TO.P,H1,1*
G04 #@! TO.N,HEATER1A*
X128000000Y-82000000D03*
G04 #@! TO.P,H1,2*
G04 #@! TO.N,HEATER1B*
X128000000Y-85500000D03*
G04 #@! TD*
G04 #@! TO.P,H2,2*
G04 #@! TO.N,HEATER2B*
X128000000Y-104000000D03*
G04 #@! TO.P,H2,1*
G04 #@! TO.N,HEATER2A*
X128000000Y-100500000D03*
G04 #@! TD*
D11*
G04 #@! TO.P,TAIR1,2*
G04 #@! TO.N,THERM_GND*
X132000000Y-91460000D03*
D10*
G04 #@! TO.P,TAIR1,1*
G04 #@! TO.N,AIR*
X132000000Y-94000000D03*
G04 #@! TD*
D13*
G04 #@! TO.N,AIR*
X135540000Y-90460000D02*
X132000000Y-94000000D01*
X137240000Y-90460000D02*
X135540000Y-90460000D01*
G04 #@! TO.N,THERM1*
X138604999Y-89284999D02*
X127284999Y-89284999D01*
X139780000Y-90460000D02*
X138604999Y-89284999D01*
X127284999Y-89284999D02*
X124000000Y-86000000D01*
X124000000Y-71090000D02*
X122730000Y-69820000D01*
X124000000Y-86000000D02*
X124000000Y-71090000D01*
G04 #@! TO.N,THERM2*
X123549990Y-86186400D02*
X123549990Y-76989990D01*
X130000000Y-92636410D02*
X123549990Y-86186400D01*
X130000000Y-94285002D02*
X130000000Y-92636410D01*
X130889999Y-95175001D02*
X130000000Y-94285002D01*
X123549990Y-76989990D02*
X122730000Y-76170000D01*
X135064999Y-95175001D02*
X130889999Y-95175001D01*
X137240000Y-93000000D02*
X135064999Y-95175001D01*
G04 #@! TO.N,THERM3*
X137240000Y-95540000D02*
X136780000Y-96000000D01*
X136390001Y-96389999D02*
X126610001Y-96389999D01*
X137240000Y-95540000D02*
X136390001Y-96389999D01*
X126610001Y-96389999D02*
X124000000Y-99000000D01*
X124000000Y-111520000D02*
X122730000Y-112790000D01*
X124000000Y-99000000D02*
X124000000Y-111520000D01*
G04 #@! TO.N,THERM4*
X138479991Y-96840009D02*
X126796401Y-96840009D01*
X139780000Y-95540000D02*
X138479991Y-96840009D01*
X126796401Y-96840009D02*
X124450010Y-99186400D01*
X121554999Y-117824999D02*
X122730000Y-119000000D01*
X121554999Y-115895999D02*
X121554999Y-117824999D01*
X122165999Y-115284999D02*
X121554999Y-115895999D01*
X122520003Y-115284999D02*
X122165999Y-115284999D01*
X124450009Y-113354993D02*
X122520003Y-115284999D01*
X124450010Y-99186400D02*
X124450009Y-113354993D01*
G04 #@! TD*
M02*
