M48
; DRILL file {KiCad (5.1.6-0-10_14)} date Friday, August 07, 2020 at 02:49:01 PM
; FORMAT={-:-/ absolute / inch / decimal}
; #@! TF.CreationDate,2020-08-07T14:49:01+09:00
; #@! TF.GenerationSoftware,Kicad,Pcbnew,(5.1.6-0-10_14)
FMAT,2
INCH
T1C0.0394
T2C0.0472
%
G90
G05
T1
X4.4776Y-4.3256
X4.4776Y-4.4256
X4.4776Y-3.2138
X4.4776Y-3.3138
X5.4031Y-3.4614
X5.4031Y-3.5614
X5.4031Y-3.6614
X5.4031Y-3.7614
X5.4031Y-3.8614
X5.5031Y-3.4614
X5.5031Y-3.5614
X5.5031Y-3.6614
X5.5031Y-3.7614
X5.5031Y-3.8614
X4.4776Y-2.9638
X4.4776Y-3.0638
X4.4776Y-4.0256
X4.4776Y-4.1256
X5.1969Y-3.6008
X5.1969Y-3.7008
T2
X5.0394Y-3.9567
X5.0394Y-4.0945
X5.0394Y-3.2283
X5.0394Y-3.3661
T0
M30
