0
SECTION
2
HEADER
9
$INSUNITS
70
4
9
$ACADVER
1
AC1014
9
$HANDSEED
5
FFFF
0
ENDSEC
0
SECTION
2
TABLES
0
TABLE
2
VPORT
5
8
100
AcDbSymbolTable
0
ENDTAB
0
TABLE
2
LTYPE
5
5
100
AcDbSymbolTable
0
LTYPE
5
14
100
AcDbSymbolTableRecord
100
AcDbLinetypeTableRecord
2
BYBLOCK
70
0
0
LTYPE
5
15
100
AcDbSymbolTableRecord
100
AcDbLinetypeTableRecord
2
BYLAYER
70
0
0
ENDTAB
0
TABLE
2
LAYER
5
2
100
AcDbSymbolTable
70
2
0
LAYER
5
50
100
AcDbSymbolTableRecord
100
AcDbLayerTableRecord
2
0
70
0
6
CONTINUOUS
0
ENDTAB
0
TABLE
2
STYLE
5
3
100
AcDbSymbolTable
70
1
0
STYLE
5
11
100
AcDbSymbolTableRecord
100
AcDbTextStyleTableRecord
2
STANDARD
70
0
0
ENDTAB
0
TABLE
2
VIEW
5
6
100
AcDbSymbolTable
70
0
0
ENDTAB
0
TABLE
2
UCS
5
7
100
AcDbSymbolTable
70
0
0
ENDTAB
0
TABLE
2
APPID
5
9
100
AcDbSymbolTable
70
2
0
APPID
5
12
100
AcDbSymbolTableRecord
100
AcDbRegAppTableRecord
2
ACAD
70
0
0
ENDTAB
0
TABLE
2
DIMSTYLE
5
A
100
AcDbSymbolTable
70
1
0
ENDTAB
0
TABLE
2
BLOCK_RECORD
5
1
100
AcDbSymbolTable
70
1
0
BLOCK_RECORD
5
1F
100
AcDbSymbolTableRecord
100
AcDbBlockTableRecord
2
*MODEL_SPACE
0
BLOCK_RECORD
5
1B
100
AcDbSymbolTableRecord
100
AcDbBlockTableRecord
2
*PAPER_SPACE
0
ENDTAB
0
ENDSEC
0
SECTION
2
BLOCKS
0
BLOCK
5
20
100
AcDbEntity
100
AcDbBlockBegin
2
*MODEL_SPACE
0
ENDBLK
5
21
100
AcDbEntity
100
AcDbBlockEnd
0
BLOCK
5
1C
100
AcDbEntity
100
AcDbBlockBegin
2
*PAPER_SPACE
0
ENDBLK
5
1D
100
AcDbEntity
100
AcDbBlockEnd
0
ENDSEC
0
SECTION
2
ENTITIES
0
CIRCLE
5
100
100
AcDbEntity
8
0
100
AcDbCircle
10
158.09000000000344
20
87.230000000000061
30
0
40
1.6000000000000036
210
0
220
0
230
1
0
LWPOLYLINE
5
101
100
AcDbEntity
8
0
100
AcDbPolyline
90
8
70
1
43
0.0
10
39.390000000003376
20
77.230000000000061
42
-0.41421356237309509
10
44.390000000003376
20
82.230000000000061
10
145.59000000000344
20
82.230000000000061
42
-0.41421356237309509
10
150.59000000000344
20
77.230000000000061
10
150.59000000000344
20
27.221663250417354
42
-0.41421356237309509
10
145.59000000000344
20
22.221663250417354
10
44.390000000003376
20
22.221663250417354
42
-0.41421356237309509
10
39.390000000003376
20
27.221663250417354
0
CIRCLE
5
102
100
AcDbEntity
8
0
100
AcDbCircle
10
158.09000000000344
20
21.580000000000016
30
0
40
1.6000000000000036
210
0
220
0
230
1
0
CIRCLE
5
103
100
AcDbEntity
8
0
100
AcDbCircle
10
31.890000000003372
20
87.230000000000061
30
0
40
1.5999999999999994
210
0
220
0
230
1
0
CIRCLE
5
104
100
AcDbEntity
8
0
100
AcDbCircle
10
31.890000000003376
20
21.580000000000016
30
0
40
1.6000000000000036
210
0
220
0
230
1
0
LWPOLYLINE
5
105
100
AcDbEntity
8
0
100
AcDbPolyline
90
46
70
1
43
0.0
10
-2.4998781829201278
20
24.721663250417354
10
-4.9998781829201278
20
24.721663250417354
10
-4.9998781829201278
20
34.72166325041735
10
-2.4998781829201278
20
34.72166325041735
10
-2.4998781829201278
20
37.22166325041735
10
19.39000000000334
20
37.22166325041735
42
0.41421356237309709
10
24.390000000003376
20
42.22166325041735
10
24.390000000003376
20
72.22166325041735
42
0.41421356237309509
10
19.390000000003376
20
77.22166325041735
10
-2.4998781829201282
20
77.22166325041735
10
-2.4998781829201282
20
79.72166325041735
10
-4.9998781829201278
20
79.72166325041735
10
-4.9998781829201278
20
89.72166325041735
10
-2.4998781829201278
20
89.72166325041735
10
-2.4998781829201278
20
92.22166325041735
10
20.055070445037092
20
92.22166325041735
42
0.18300121467997793
10
23.366980080819268
20
93.475831625208698
42
-0.1830012146799766
10
26.678889716601439
20
94.730000000000061
10
163.30111028340539
20
94.730000000000047
42
-0.18300121467996408
10
166.61301991918754
20
93.475831625208698
42
0.18300121467996411
10
169.92492955496971
20
92.22166325041735
10
195.46010561621003
20
92.22166325041735
10
195.46010561621003
20
89.72166325041735
10
197.96010561621003
20
89.72166325041735
10
197.96010561621003
20
79.72166325041735
10
195.46010561621003
20
79.72166325041735
10
195.46010561621003
20
77.22166325041735
10
170.59000000000344
20
77.22166325041735
42
0.41421356237309509
10
165.59000000000344
20
72.22166325041735
10
165.59000000000344
20
42.22166325041735
42
0.41421356237309509
10
170.59000000000344
20
37.22166325041735
10
195.46010561621003
20
37.22166325041735
10
195.46010561621003
20
34.72166325041735
10
197.96010561621003
20
34.72166325041735
10
197.96010561621003
20
24.721663250417354
10
195.46010561621003
20
24.721663250417354
10
195.46010561621003
20
22.221663250417354
10
170.59000000000344
20
22.221663250417354
42
0.41421356237309509
10
165.59000000000344
20
17.221663250417354
10
165.59000000000344
20
11.630000000000003
42
-0.41421356237309415
10
160.59000000000344
20
6.6300000000000106
10
29.390000000003376
20
6.6300000000000043
42
-0.41421356237309542
10
24.390000000003376
20
11.630000000000003
10
24.390000000003376
20
17.221663250417354
42
0.41421356237309509
10
19.390000000003376
20
22.221663250417354
10
-2.4998781829201278
20
22.221663250417354
0
ENDSEC
0
SECTION
2
OBJECTS
0
DICTIONARY
5
C
100
AcDbDictionary
3
ACAD_GROUP
350
D
3
ACAD_MLINESTYLE
350
17
0
DICTIONARY
5
D
100
AcDbDictionary
0
DICTIONARY
5
1A
330
C
100
AcDbDictionary
0
DICTIONARY
5
17
100
AcDbDictionary
0
ENDSEC
0
EOF
