G04 #@! TF.GenerationSoftware,KiCad,Pcbnew,(6.0.5-0)*
G04 #@! TF.CreationDate,2023-01-17T15:29:59+09:00*
G04 #@! TF.ProjectId,qPCR-led-north,71504352-2d6c-4656-942d-6e6f7274682e,rev?*
G04 #@! TF.SameCoordinates,Original*
G04 #@! TF.FileFunction,Legend,Top*
G04 #@! TF.FilePolarity,Positive*
%FSLAX46Y46*%
G04 Gerber Fmt 4.6, Leading zero omitted, Abs format (unit mm)*
G04 Created by KiCad (PCBNEW (6.0.5-0)) date 2023-01-17 15:29:59*
%MOMM*%
%LPD*%
G01*
G04 APERTURE LIST*
%ADD10C,0.300000*%
%ADD11C,0.150000*%
%ADD12C,0.120000*%
G04 APERTURE END LIST*
D10*
X99484283Y-97778580D02*
X99484283Y-96278580D01*
X99484283Y-96850009D02*
X99627140Y-96778580D01*
X99912855Y-96778580D01*
X100055712Y-96850009D01*
X100127140Y-96921437D01*
X100198569Y-97064294D01*
X100198569Y-97492866D01*
X100127140Y-97635723D01*
X100055712Y-97707151D01*
X99912855Y-97778580D01*
X99627140Y-97778580D01*
X99484283Y-97707151D01*
X101484283Y-97778580D02*
X101484283Y-96992866D01*
X101412855Y-96850009D01*
X101269998Y-96778580D01*
X100984283Y-96778580D01*
X100841426Y-96850009D01*
X101484283Y-97707151D02*
X101341426Y-97778580D01*
X100984283Y-97778580D01*
X100841426Y-97707151D01*
X100769998Y-97564294D01*
X100769998Y-97421437D01*
X100841426Y-97278580D01*
X100984283Y-97207151D01*
X101341426Y-97207151D01*
X101484283Y-97135723D01*
X101984283Y-96778580D02*
X102555712Y-96778580D01*
X102198569Y-96278580D02*
X102198569Y-97564294D01*
X102269998Y-97707151D01*
X102412855Y-97778580D01*
X102555712Y-97778580D01*
X103698569Y-97707151D02*
X103555712Y-97778580D01*
X103269998Y-97778580D01*
X103127140Y-97707151D01*
X103055712Y-97635723D01*
X102984283Y-97492866D01*
X102984283Y-97064294D01*
X103055712Y-96921437D01*
X103127140Y-96850009D01*
X103269998Y-96778580D01*
X103555712Y-96778580D01*
X103698569Y-96850009D01*
X104341426Y-97778580D02*
X104341426Y-96278580D01*
X104984283Y-97778580D02*
X104984283Y-96992866D01*
X104912855Y-96850009D01*
X104769998Y-96778580D01*
X104555712Y-96778580D01*
X104412855Y-96850009D01*
X104341426Y-96921437D01*
X106484283Y-97778580D02*
X105627140Y-97778580D01*
X106055712Y-97778580D02*
X106055712Y-96278580D01*
X105912855Y-96492866D01*
X105769998Y-96635723D01*
X105627140Y-96707151D01*
X107198569Y-97778580D02*
X107484283Y-97778580D01*
X107627140Y-97707151D01*
X107698569Y-97635723D01*
X107841426Y-97421437D01*
X107912855Y-97135723D01*
X107912855Y-96564294D01*
X107841426Y-96421437D01*
X107769998Y-96350009D01*
X107627140Y-96278580D01*
X107341426Y-96278580D01*
X107198569Y-96350009D01*
X107127140Y-96421437D01*
X107055712Y-96564294D01*
X107055712Y-96921437D01*
X107127140Y-97064294D01*
X107198569Y-97135723D01*
X107341426Y-97207151D01*
X107627140Y-97207151D01*
X107769998Y-97135723D01*
X107841426Y-97064294D01*
X107912855Y-96921437D01*
X109627140Y-96207151D02*
X108341426Y-98135723D01*
X110341426Y-97778580D02*
X110198569Y-97707151D01*
X110127140Y-97564294D01*
X110127140Y-96278580D01*
X111484283Y-97707151D02*
X111341426Y-97778580D01*
X111055712Y-97778580D01*
X110912855Y-97707151D01*
X110841426Y-97564294D01*
X110841426Y-96992866D01*
X110912855Y-96850009D01*
X111055712Y-96778580D01*
X111341426Y-96778580D01*
X111484283Y-96850009D01*
X111555712Y-96992866D01*
X111555712Y-97135723D01*
X110841426Y-97278580D01*
X112841426Y-97778580D02*
X112841426Y-96278580D01*
X112841426Y-97707151D02*
X112698569Y-97778580D01*
X112412855Y-97778580D01*
X112269998Y-97707151D01*
X112198569Y-97635723D01*
X112127140Y-97492866D01*
X112127140Y-97064294D01*
X112198569Y-96921437D01*
X112269998Y-96850009D01*
X112412855Y-96778580D01*
X112698569Y-96778580D01*
X112841426Y-96850009D01*
X113555712Y-97207151D02*
X114698569Y-97207151D01*
X115412855Y-96778580D02*
X115412855Y-97778580D01*
X115412855Y-96921437D02*
X115484283Y-96850009D01*
X115627140Y-96778580D01*
X115841426Y-96778580D01*
X115984283Y-96850009D01*
X116055712Y-96992866D01*
X116055712Y-97778580D01*
X116984283Y-97778580D02*
X116841426Y-97707151D01*
X116769998Y-97635723D01*
X116698569Y-97492866D01*
X116698569Y-97064294D01*
X116769998Y-96921437D01*
X116841426Y-96850009D01*
X116984283Y-96778580D01*
X117198569Y-96778580D01*
X117341426Y-96850009D01*
X117412855Y-96921437D01*
X117484283Y-97064294D01*
X117484283Y-97492866D01*
X117412855Y-97635723D01*
X117341426Y-97707151D01*
X117198569Y-97778580D01*
X116984283Y-97778580D01*
X118127140Y-97778580D02*
X118127140Y-96778580D01*
X118127140Y-97064294D02*
X118198569Y-96921437D01*
X118269998Y-96850009D01*
X118412855Y-96778580D01*
X118555712Y-96778580D01*
X118841426Y-96778580D02*
X119412855Y-96778580D01*
X119055712Y-96278580D02*
X119055712Y-97564294D01*
X119127140Y-97707151D01*
X119269998Y-97778580D01*
X119412855Y-97778580D01*
X119912855Y-97778580D02*
X119912855Y-96278580D01*
X120555712Y-97778580D02*
X120555712Y-96992866D01*
X120484283Y-96850009D01*
X120341426Y-96778580D01*
X120127140Y-96778580D01*
X119984283Y-96850009D01*
X119912855Y-96921437D01*
D11*
G04 #@! TO.C,U1*
X187173131Y-105244411D02*
X187982655Y-105244411D01*
X188077893Y-105196792D01*
X188125512Y-105149173D01*
X188173131Y-105053935D01*
X188173131Y-104863459D01*
X188125512Y-104768221D01*
X188077893Y-104720602D01*
X187982655Y-104672983D01*
X187173131Y-104672983D01*
X188173131Y-103672983D02*
X188173131Y-104244411D01*
X188173131Y-103958697D02*
X187173131Y-103958697D01*
X187315989Y-104053935D01*
X187411227Y-104149173D01*
X187458846Y-104244411D01*
G04 #@! TO.C,D15*
X155785714Y-106034380D02*
X155785714Y-105034380D01*
X156023809Y-105034380D01*
X156166666Y-105082000D01*
X156261904Y-105177238D01*
X156309523Y-105272476D01*
X156357142Y-105462952D01*
X156357142Y-105605809D01*
X156309523Y-105796285D01*
X156261904Y-105891523D01*
X156166666Y-105986761D01*
X156023809Y-106034380D01*
X155785714Y-106034380D01*
X157309523Y-106034380D02*
X156738095Y-106034380D01*
X157023809Y-106034380D02*
X157023809Y-105034380D01*
X156928571Y-105177238D01*
X156833333Y-105272476D01*
X156738095Y-105320095D01*
X158214285Y-105034380D02*
X157738095Y-105034380D01*
X157690476Y-105510571D01*
X157738095Y-105462952D01*
X157833333Y-105415333D01*
X158071428Y-105415333D01*
X158166666Y-105462952D01*
X158214285Y-105510571D01*
X158261904Y-105605809D01*
X158261904Y-105843904D01*
X158214285Y-105939142D01*
X158166666Y-105986761D01*
X158071428Y-106034380D01*
X157833333Y-106034380D01*
X157738095Y-105986761D01*
X157690476Y-105939142D01*
G04 #@! TO.C,D14*
X146015714Y-106034380D02*
X146015714Y-105034380D01*
X146253809Y-105034380D01*
X146396666Y-105082000D01*
X146491904Y-105177238D01*
X146539523Y-105272476D01*
X146587142Y-105462952D01*
X146587142Y-105605809D01*
X146539523Y-105796285D01*
X146491904Y-105891523D01*
X146396666Y-105986761D01*
X146253809Y-106034380D01*
X146015714Y-106034380D01*
X147539523Y-106034380D02*
X146968095Y-106034380D01*
X147253809Y-106034380D02*
X147253809Y-105034380D01*
X147158571Y-105177238D01*
X147063333Y-105272476D01*
X146968095Y-105320095D01*
X148396666Y-105367714D02*
X148396666Y-106034380D01*
X148158571Y-104986761D02*
X147920476Y-105701047D01*
X148539523Y-105701047D01*
G04 #@! TO.C,D13*
X137785714Y-106034380D02*
X137785714Y-105034380D01*
X138023809Y-105034380D01*
X138166666Y-105082000D01*
X138261904Y-105177238D01*
X138309523Y-105272476D01*
X138357142Y-105462952D01*
X138357142Y-105605809D01*
X138309523Y-105796285D01*
X138261904Y-105891523D01*
X138166666Y-105986761D01*
X138023809Y-106034380D01*
X137785714Y-106034380D01*
X139309523Y-106034380D02*
X138738095Y-106034380D01*
X139023809Y-106034380D02*
X139023809Y-105034380D01*
X138928571Y-105177238D01*
X138833333Y-105272476D01*
X138738095Y-105320095D01*
X139642857Y-105034380D02*
X140261904Y-105034380D01*
X139928571Y-105415333D01*
X140071428Y-105415333D01*
X140166666Y-105462952D01*
X140214285Y-105510571D01*
X140261904Y-105605809D01*
X140261904Y-105843904D01*
X140214285Y-105939142D01*
X140166666Y-105986761D01*
X140071428Y-106034380D01*
X139785714Y-106034380D01*
X139690476Y-105986761D01*
X139642857Y-105939142D01*
G04 #@! TO.C,D12*
X128785714Y-106034380D02*
X128785714Y-105034380D01*
X129023809Y-105034380D01*
X129166666Y-105082000D01*
X129261904Y-105177238D01*
X129309523Y-105272476D01*
X129357142Y-105462952D01*
X129357142Y-105605809D01*
X129309523Y-105796285D01*
X129261904Y-105891523D01*
X129166666Y-105986761D01*
X129023809Y-106034380D01*
X128785714Y-106034380D01*
X130309523Y-106034380D02*
X129738095Y-106034380D01*
X130023809Y-106034380D02*
X130023809Y-105034380D01*
X129928571Y-105177238D01*
X129833333Y-105272476D01*
X129738095Y-105320095D01*
X130690476Y-105129619D02*
X130738095Y-105082000D01*
X130833333Y-105034380D01*
X131071428Y-105034380D01*
X131166666Y-105082000D01*
X131214285Y-105129619D01*
X131261904Y-105224857D01*
X131261904Y-105320095D01*
X131214285Y-105462952D01*
X130642857Y-106034380D01*
X131261904Y-106034380D01*
G04 #@! TO.C,D11*
X119785714Y-106034380D02*
X119785714Y-105034380D01*
X120023809Y-105034380D01*
X120166666Y-105082000D01*
X120261904Y-105177238D01*
X120309523Y-105272476D01*
X120357142Y-105462952D01*
X120357142Y-105605809D01*
X120309523Y-105796285D01*
X120261904Y-105891523D01*
X120166666Y-105986761D01*
X120023809Y-106034380D01*
X119785714Y-106034380D01*
X121309523Y-106034380D02*
X120738095Y-106034380D01*
X121023809Y-106034380D02*
X121023809Y-105034380D01*
X120928571Y-105177238D01*
X120833333Y-105272476D01*
X120738095Y-105320095D01*
X122261904Y-106034380D02*
X121690476Y-106034380D01*
X121976190Y-106034380D02*
X121976190Y-105034380D01*
X121880952Y-105177238D01*
X121785714Y-105272476D01*
X121690476Y-105320095D01*
G04 #@! TO.C,D10*
X110785714Y-106034380D02*
X110785714Y-105034380D01*
X111023809Y-105034380D01*
X111166666Y-105082000D01*
X111261904Y-105177238D01*
X111309523Y-105272476D01*
X111357142Y-105462952D01*
X111357142Y-105605809D01*
X111309523Y-105796285D01*
X111261904Y-105891523D01*
X111166666Y-105986761D01*
X111023809Y-106034380D01*
X110785714Y-106034380D01*
X112309523Y-106034380D02*
X111738095Y-106034380D01*
X112023809Y-106034380D02*
X112023809Y-105034380D01*
X111928571Y-105177238D01*
X111833333Y-105272476D01*
X111738095Y-105320095D01*
X112928571Y-105034380D02*
X113023809Y-105034380D01*
X113119047Y-105082000D01*
X113166666Y-105129619D01*
X113214285Y-105224857D01*
X113261904Y-105415333D01*
X113261904Y-105653428D01*
X113214285Y-105843904D01*
X113166666Y-105939142D01*
X113119047Y-105986761D01*
X113023809Y-106034380D01*
X112928571Y-106034380D01*
X112833333Y-105986761D01*
X112785714Y-105939142D01*
X112738095Y-105843904D01*
X112690476Y-105653428D01*
X112690476Y-105415333D01*
X112738095Y-105224857D01*
X112785714Y-105129619D01*
X112833333Y-105082000D01*
X112928571Y-105034380D01*
G04 #@! TO.C,D9*
X102261904Y-106034380D02*
X102261904Y-105034380D01*
X102500000Y-105034380D01*
X102642857Y-105082000D01*
X102738095Y-105177238D01*
X102785714Y-105272476D01*
X102833333Y-105462952D01*
X102833333Y-105605809D01*
X102785714Y-105796285D01*
X102738095Y-105891523D01*
X102642857Y-105986761D01*
X102500000Y-106034380D01*
X102261904Y-106034380D01*
X103309523Y-106034380D02*
X103500000Y-106034380D01*
X103595238Y-105986761D01*
X103642857Y-105939142D01*
X103738095Y-105796285D01*
X103785714Y-105605809D01*
X103785714Y-105224857D01*
X103738095Y-105129619D01*
X103690476Y-105082000D01*
X103595238Y-105034380D01*
X103404761Y-105034380D01*
X103309523Y-105082000D01*
X103261904Y-105129619D01*
X103214285Y-105224857D01*
X103214285Y-105462952D01*
X103261904Y-105558190D01*
X103309523Y-105605809D01*
X103404761Y-105653428D01*
X103595238Y-105653428D01*
X103690476Y-105605809D01*
X103738095Y-105558190D01*
X103785714Y-105462952D01*
G04 #@! TO.C,D16*
X164785714Y-106034380D02*
X164785714Y-105034380D01*
X165023809Y-105034380D01*
X165166666Y-105082000D01*
X165261904Y-105177238D01*
X165309523Y-105272476D01*
X165357142Y-105462952D01*
X165357142Y-105605809D01*
X165309523Y-105796285D01*
X165261904Y-105891523D01*
X165166666Y-105986761D01*
X165023809Y-106034380D01*
X164785714Y-106034380D01*
X166309523Y-106034380D02*
X165738095Y-106034380D01*
X166023809Y-106034380D02*
X166023809Y-105034380D01*
X165928571Y-105177238D01*
X165833333Y-105272476D01*
X165738095Y-105320095D01*
X167166666Y-105034380D02*
X166976190Y-105034380D01*
X166880952Y-105082000D01*
X166833333Y-105129619D01*
X166738095Y-105272476D01*
X166690476Y-105462952D01*
X166690476Y-105843904D01*
X166738095Y-105939142D01*
X166785714Y-105986761D01*
X166880952Y-106034380D01*
X167071428Y-106034380D01*
X167166666Y-105986761D01*
X167214285Y-105939142D01*
X167261904Y-105843904D01*
X167261904Y-105605809D01*
X167214285Y-105510571D01*
X167166666Y-105462952D01*
X167071428Y-105415333D01*
X166880952Y-105415333D01*
X166785714Y-105462952D01*
X166738095Y-105510571D01*
X166690476Y-105605809D01*
G04 #@! TO.C,C1*
X184853333Y-98147142D02*
X184805714Y-98194761D01*
X184662857Y-98242380D01*
X184567619Y-98242380D01*
X184424761Y-98194761D01*
X184329523Y-98099523D01*
X184281904Y-98004285D01*
X184234285Y-97813809D01*
X184234285Y-97670952D01*
X184281904Y-97480476D01*
X184329523Y-97385238D01*
X184424761Y-97290000D01*
X184567619Y-97242380D01*
X184662857Y-97242380D01*
X184805714Y-97290000D01*
X184853333Y-97337619D01*
X185805714Y-98242380D02*
X185234285Y-98242380D01*
X185520000Y-98242380D02*
X185520000Y-97242380D01*
X185424761Y-97385238D01*
X185329523Y-97480476D01*
X185234285Y-97528095D01*
D12*
G04 #@! TO.C,U1*
X186780751Y-104245007D02*
X180310751Y-104245007D01*
X186045751Y-104245007D02*
X186045751Y-108245007D01*
X184180751Y-103125007D02*
X184180751Y-104245007D01*
X186845751Y-100655007D02*
X186845751Y-101415007D01*
X184196074Y-103125007D02*
X184165428Y-103125007D01*
X183805751Y-104245007D02*
X183805751Y-108245007D01*
X183805751Y-108245007D02*
X183285751Y-108245007D01*
X185075751Y-108245007D02*
X184555751Y-108245007D01*
X182535751Y-108245007D02*
X182015751Y-108245007D01*
X181656074Y-103125007D02*
X181625428Y-103125007D01*
X182910751Y-103125007D02*
X182910751Y-104245007D01*
X186345751Y-104245007D02*
X186345751Y-108245007D01*
X186165751Y-104245007D02*
X186165751Y-108245007D01*
X185075751Y-104245007D02*
X185075751Y-108245007D01*
X180310751Y-103125007D02*
X180386074Y-103125007D01*
X186085751Y-100655007D02*
X186845751Y-100655007D01*
X181265751Y-108245007D02*
X180745751Y-108245007D01*
X182535751Y-104245007D02*
X182535751Y-108245007D01*
X185450751Y-103125007D02*
X185450751Y-104245007D01*
X186345751Y-108245007D02*
X185825751Y-108245007D01*
X182926074Y-103125007D02*
X182895428Y-103125007D01*
X186780751Y-103125007D02*
X186780751Y-104245007D01*
X181265751Y-104245007D02*
X181265751Y-108245007D01*
X185825751Y-108245007D02*
X185825751Y-104245007D01*
X183285751Y-108245007D02*
X183285751Y-104245007D01*
X185466074Y-103125007D02*
X185435428Y-103125007D01*
X180310751Y-104245007D02*
X180310751Y-103125007D01*
X184555751Y-108245007D02*
X184555751Y-104245007D01*
X185925751Y-104245007D02*
X185925751Y-108245007D01*
X182015751Y-108245007D02*
X182015751Y-104245007D01*
X181640751Y-103125007D02*
X181640751Y-104245007D01*
X186705428Y-103125007D02*
X186780751Y-103125007D01*
X186285751Y-104245007D02*
X186285751Y-108245007D01*
X180745751Y-108245007D02*
X180745751Y-104245007D01*
G04 #@! TO.C,D15*
X159560000Y-103167000D02*
X159560000Y-100077000D01*
X159560000Y-100077170D02*
G75*
G03*
X154010000Y-101622462I-2560000J-1544830D01*
G01*
X154010000Y-101621538D02*
G75*
G03*
X159560000Y-103166830I2990000J-462D01*
G01*
X159500000Y-101622000D02*
G75*
G03*
X159500000Y-101622000I-2500000J0D01*
G01*
G04 #@! TO.C,D14*
X149790000Y-103167000D02*
X149790000Y-100077000D01*
X149790000Y-100077170D02*
G75*
G03*
X144240000Y-101622462I-2560000J-1544830D01*
G01*
X144240000Y-101621538D02*
G75*
G03*
X149790000Y-103166830I2990000J-462D01*
G01*
X149730000Y-101622000D02*
G75*
G03*
X149730000Y-101622000I-2500000J0D01*
G01*
G04 #@! TO.C,D13*
X141560000Y-103167000D02*
X141560000Y-100077000D01*
X141560000Y-100077170D02*
G75*
G03*
X136010000Y-101622462I-2560000J-1544830D01*
G01*
X136010000Y-101621538D02*
G75*
G03*
X141560000Y-103166830I2990000J-462D01*
G01*
X141500000Y-101622000D02*
G75*
G03*
X141500000Y-101622000I-2500000J0D01*
G01*
G04 #@! TO.C,D12*
X132560000Y-103167000D02*
X132560000Y-100077000D01*
X132560000Y-100077170D02*
G75*
G03*
X127010000Y-101622462I-2560000J-1544830D01*
G01*
X127010000Y-101621538D02*
G75*
G03*
X132560000Y-103166830I2990000J-462D01*
G01*
X132500000Y-101622000D02*
G75*
G03*
X132500000Y-101622000I-2500000J0D01*
G01*
G04 #@! TO.C,D11*
X123560000Y-103167000D02*
X123560000Y-100077000D01*
X123560000Y-100077170D02*
G75*
G03*
X118010000Y-101622462I-2560000J-1544830D01*
G01*
X118010000Y-101621538D02*
G75*
G03*
X123560000Y-103166830I2990000J-462D01*
G01*
X123500000Y-101622000D02*
G75*
G03*
X123500000Y-101622000I-2500000J0D01*
G01*
G04 #@! TO.C,D10*
X114560000Y-103167000D02*
X114560000Y-100077000D01*
X109010000Y-101621538D02*
G75*
G03*
X114560000Y-103166830I2990000J-462D01*
G01*
X114560000Y-100077170D02*
G75*
G03*
X109010000Y-101622462I-2560000J-1544830D01*
G01*
X114500000Y-101622000D02*
G75*
G03*
X114500000Y-101622000I-2500000J0D01*
G01*
G04 #@! TO.C,D9*
X105560000Y-103167000D02*
X105560000Y-100077000D01*
X100010000Y-101621538D02*
G75*
G03*
X105560000Y-103166830I2990000J-462D01*
G01*
X105560000Y-100077170D02*
G75*
G03*
X100010000Y-101622462I-2560000J-1544830D01*
G01*
X105500000Y-101622000D02*
G75*
G03*
X105500000Y-101622000I-2500000J0D01*
G01*
G04 #@! TO.C,D16*
X168560000Y-103167000D02*
X168560000Y-100077000D01*
X168560000Y-100077170D02*
G75*
G03*
X163010000Y-101622462I-2560000J-1544830D01*
G01*
X163010000Y-101621538D02*
G75*
G03*
X168560000Y-103166830I2990000J-462D01*
G01*
X168500000Y-101622000D02*
G75*
G03*
X168500000Y-101622000I-2500000J0D01*
G01*
G04 #@! TO.C,C1*
X185440000Y-99990000D02*
X184740000Y-99990000D01*
X184740000Y-98790000D02*
X185440000Y-98790000D01*
G04 #@! TD*
M02*
