M48
INCH,TZ
T1C0.0157
T2C0.0256
T3C0.0354
%
G90
G05
T1
X35421Y-42583
X35441Y-37780
X35445Y-39559
X35453Y-41402
X36406Y-41925
X36469Y-38480
X37425Y-41323
X37465Y-37748
X37465Y-39224
X37484Y-42591
X38874Y-40051
X38941Y-38413
X39024Y-41795
X40264Y-40732
X40531Y-42622
X40598Y-37717
X40972Y-41575
X41693Y-40835
X41705Y-37173
X41728Y-42807
X41815Y-39850
X42421Y-41791
X42913Y-42807
X42925Y-40169
X42992Y-37201
X43063Y-40815
X43992Y-37732
X44110Y-40780
X44181Y-42583
X44591Y-39157
X44890Y-41713
X45260Y-39862
X45646Y-37693
X45657Y-42583
X45709Y-40866
X46189Y-38961
X46520Y-40197
X46795Y-37169
X46980Y-40850
X46992Y-42862
X47819Y-41898
X47902Y-38118
X48118Y-38969
X48453Y-40811
X48484Y-37185
X48512Y-42862
X48858Y-39854
X49547Y-40870
X49571Y-42555
X49634Y-37693
X49776Y-38819
X50016Y-40201
X50406Y-41661
X51181Y-40843
X51185Y-42567
X51228Y-37713
X51555Y-38831
X52157Y-40862
X52264Y-37157
X52280Y-42969
X52398Y-39854
X52988Y-41780
X53205Y-38346
X53492Y-40154
X53591Y-40843
X53618Y-37185
X53626Y-42969
X54638Y-37713
X54693Y-42575
X54728Y-40827
X55059Y-38685
X55661Y-41720
X55933Y-39854
X56346Y-42594
X56390Y-37732
X56476Y-40827
X56783Y-40185
X57421Y-37181
X57472Y-42925
X57598Y-40846
X58220Y-38492
X58358Y-41992
X59110Y-37181
X59138Y-40866
X59146Y-42937
X59244Y-39823
X60154Y-40839
X60220Y-37713
X60228Y-42602
X60646Y-40161
X61020Y-41717
X61846Y-42602
X61933Y-40823
X62075Y-38311
X62937Y-42953
X62961Y-37154
X62988Y-40850
X63020Y-39823
X63614Y-41791
X64169Y-38154
X64232Y-40197
X64240Y-42957
X64252Y-37197
X64287Y-40799
X65421Y-42591
X66000Y-37654
X66520Y-40803
X67217Y-42602
X68098Y-40378
X68303Y-41677
X69701Y-42602
X69736Y-39291
X69866Y-40752
X70911Y-39635
X70925Y-37622
X71459Y-39289
X71598Y-38319
X72071Y-38839
X72492Y-38823
X72512Y-37886
X73433Y-37697
X73457Y-38591
T2
X71262Y-39927
X71262Y-40427
X71762Y-39927
X71762Y-40427
X72262Y-39927
X72262Y-40427
X72762Y-39927
X72762Y-40427
X73262Y-39927
X73262Y-40427
T3
X40051Y-40009
X41051Y-40009
X43594Y-40009
X44594Y-40009
X47138Y-40009
X48138Y-40009
X50681Y-40009
X51681Y-40009
X54224Y-40009
X55224Y-40009
X57465Y-40009
X58465Y-40009
X61311Y-40009
X62311Y-40009
X64854Y-40009
X65854Y-40009
T0
M30
