G04 #@! TF.GenerationSoftware,KiCad,Pcbnew,(6.0.5-0)*
G04 #@! TF.CreationDate,2023-01-17T15:30:00+09:00*
G04 #@! TF.ProjectId,qPCR-led-north,71504352-2d6c-4656-942d-6e6f7274682e,rev?*
G04 #@! TF.SameCoordinates,Original*
G04 #@! TF.FileFunction,Profile,NP*
%FSLAX46Y46*%
G04 Gerber Fmt 4.6, Leading zero omitted, Abs format (unit mm)*
G04 Created by KiCad (PCBNEW (6.0.5-0)) date 2023-01-17 15:30:00*
%MOMM*%
%LPD*%
G01*
G04 APERTURE LIST*
G04 #@! TA.AperFunction,Profile*
%ADD10C,0.100000*%
G04 #@! TD*
G04 APERTURE END LIST*
D10*
X177100000Y-101622000D02*
G75*
G03*
X177100000Y-101622000I-1600000J0D01*
G01*
X186865000Y-104300400D02*
G75*
G03*
X187365000Y-103800360I0J500000D01*
G01*
X187365000Y-103800360D02*
X187365000Y-95399640D01*
X179500000Y-104300400D02*
G75*
G03*
X179000000Y-104800360I0J-500000D01*
G01*
X179500000Y-104300360D02*
X186865000Y-104300360D01*
X88865000Y-95399640D02*
X88865000Y-108600360D01*
X88865040Y-108600360D02*
G75*
G03*
X89365000Y-109100360I499960J-40D01*
G01*
X89365000Y-109100360D02*
X103500000Y-109100360D01*
X103500000Y-109100400D02*
G75*
G03*
X104000000Y-108600360I0J500000D01*
G01*
X104000000Y-108600360D02*
X104000000Y-108100360D01*
X105000000Y-108100360D02*
G75*
G03*
X104000000Y-108100360I-500000J0D01*
G01*
X105000000Y-108100360D02*
X105000000Y-109400000D01*
X105000000Y-109400000D02*
G75*
G03*
X105500000Y-109900000I500000J0D01*
G01*
X105500000Y-109900000D02*
X109500000Y-109900000D01*
X109500000Y-109900000D02*
G75*
G03*
X110000000Y-109400000I0J500000D01*
G01*
X110000000Y-109400000D02*
X110000000Y-108100360D01*
X111000000Y-108100360D02*
G75*
G03*
X110000000Y-108100360I-500000J0D01*
G01*
X111000000Y-108100360D02*
X111000000Y-108600360D01*
X111000040Y-108600360D02*
G75*
G03*
X111500000Y-109100360I499960J-40D01*
G01*
X111500000Y-109100360D02*
X116500000Y-109100360D01*
X116500000Y-109100400D02*
G75*
G03*
X117000000Y-108600360I0J500000D01*
G01*
X117000000Y-108600360D02*
X117000000Y-108100360D01*
X118000000Y-108100360D02*
G75*
G03*
X117000000Y-108100360I-500000J0D01*
G01*
X118000000Y-108100360D02*
X118000000Y-109400364D01*
X118000036Y-109400364D02*
G75*
G03*
X118500000Y-109900364I499964J-36D01*
G01*
X118500000Y-109900364D02*
X123500000Y-109900364D01*
X123500000Y-109900400D02*
G75*
G03*
X124000000Y-109400364I0J500000D01*
G01*
X124000000Y-109400364D02*
X124000000Y-108100360D01*
X125000000Y-108100362D02*
G75*
G03*
X124000000Y-108100360I-500000J-38D01*
G01*
X125000000Y-108100360D02*
X125000000Y-108600360D01*
X125000040Y-108600360D02*
G75*
G03*
X125500000Y-109100360I499960J-40D01*
G01*
X125500000Y-109100360D02*
X130500000Y-109100360D01*
X130500000Y-109100400D02*
G75*
G03*
X131000000Y-108600360I0J500000D01*
G01*
X131000000Y-108600360D02*
X131000000Y-108100360D01*
X132000000Y-108100360D02*
G75*
G03*
X131000000Y-108100360I-500000J0D01*
G01*
X132000000Y-108100360D02*
X132000000Y-109400000D01*
X132000000Y-109400000D02*
G75*
G03*
X132500000Y-109900000I500000J0D01*
G01*
X132500000Y-109900000D02*
X136500000Y-109900000D01*
X136500000Y-109900000D02*
G75*
G03*
X137000000Y-109400000I0J500000D01*
G01*
X137000000Y-109400000D02*
X137000000Y-108100360D01*
X138000000Y-108100360D02*
G75*
G03*
X137000000Y-108100360I-500000J0D01*
G01*
X138000000Y-108100360D02*
X138000000Y-108600360D01*
X138000040Y-108600360D02*
G75*
G03*
X138500000Y-109100360I499960J-40D01*
G01*
X138500000Y-109100360D02*
X143500000Y-109100360D01*
X143500000Y-109100400D02*
G75*
G03*
X144000000Y-108600360I0J500000D01*
G01*
X144000000Y-108600360D02*
X144000000Y-108100360D01*
X145000000Y-108100360D02*
G75*
G03*
X144000000Y-108100360I-500000J0D01*
G01*
X145000000Y-108100360D02*
X145000000Y-109400359D01*
X145000041Y-109400359D02*
G75*
G03*
X145500000Y-109900359I499959J-41D01*
G01*
X145500000Y-109900359D02*
X150500000Y-109900359D01*
X150500000Y-109900400D02*
G75*
G03*
X151000000Y-109400359I0J500000D01*
G01*
X151000000Y-109400359D02*
X151000000Y-108100360D01*
X152000000Y-108100360D02*
G75*
G03*
X151000000Y-108100360I-500000J0D01*
G01*
X152000000Y-108100360D02*
X152000000Y-108600360D01*
X152000040Y-108600360D02*
G75*
G03*
X152500000Y-109100360I499960J-40D01*
G01*
X152500000Y-109100360D02*
X157500000Y-109100360D01*
X157500000Y-109100400D02*
G75*
G03*
X158000000Y-108600360I0J500000D01*
G01*
X158000000Y-108600360D02*
X158000000Y-108100360D01*
X159000000Y-108100360D02*
G75*
G03*
X158000000Y-108100360I-500000J0D01*
G01*
X159000000Y-108100360D02*
X159000000Y-109400000D01*
X159000000Y-109400000D02*
G75*
G03*
X159500000Y-109900000I500000J0D01*
G01*
X159500000Y-109900000D02*
X163500000Y-109900000D01*
X163500000Y-109900000D02*
G75*
G03*
X164000000Y-109400000I0J500000D01*
G01*
X164000000Y-109400000D02*
X164000000Y-108100360D01*
X165000000Y-108100360D02*
G75*
G03*
X164000000Y-108100360I-500000J0D01*
G01*
X165000000Y-108100360D02*
X165000000Y-108600360D01*
X165000040Y-108600360D02*
G75*
G03*
X165500000Y-109100360I499960J-40D01*
G01*
X165500000Y-109100360D02*
X178500000Y-109100360D01*
X178500000Y-109100400D02*
G75*
G03*
X179000000Y-108600360I0J500000D01*
G01*
X179000000Y-104800360D02*
X179000000Y-108600360D01*
X103545747Y-94899640D02*
X89365000Y-94899640D01*
X157545747Y-94899640D02*
X152454254Y-94899640D01*
X186865000Y-94899640D02*
X165454254Y-94899640D01*
X150999988Y-95100640D02*
G75*
G03*
X151977127Y-95250140I500012J40D01*
G01*
X118000000Y-93800000D02*
X118000000Y-95100640D01*
X143545747Y-94899640D02*
X138454254Y-94899640D01*
X105500000Y-93300000D02*
G75*
G03*
X105000000Y-93800000I0J-500000D01*
G01*
X131022885Y-95250136D02*
G75*
G03*
X132000000Y-95100640I477115J149536D01*
G01*
X151000000Y-93800000D02*
G75*
G03*
X150500000Y-93300000I-500000J0D01*
G01*
X132500000Y-93300000D02*
G75*
G03*
X132000000Y-93800000I0J-500000D01*
G01*
X95100000Y-101622000D02*
G75*
G03*
X95100000Y-101622000I-1600000J0D01*
G01*
X136500000Y-93300000D02*
X132500000Y-93300000D01*
X163999988Y-95100640D02*
G75*
G03*
X164977127Y-95250140I500012J40D01*
G01*
X164000000Y-95100640D02*
X164000000Y-93800000D01*
X130545747Y-94899640D02*
X125454254Y-94899640D01*
X163500000Y-93300000D02*
X159500000Y-93300000D01*
X151000000Y-95100640D02*
X151000000Y-93800000D01*
X124000000Y-93800000D02*
G75*
G03*
X123500000Y-93300000I-500000J0D01*
G01*
X124000000Y-95100640D02*
X124000000Y-93800000D01*
X152454254Y-94899568D02*
G75*
G03*
X151977127Y-95250140I46J-500032D01*
G01*
X132000000Y-93800000D02*
X132000000Y-95100640D01*
X123999988Y-95100640D02*
G75*
G03*
X124977127Y-95250140I500012J40D01*
G01*
X165454254Y-94899568D02*
G75*
G03*
X164977127Y-95250140I46J-500032D01*
G01*
X89365000Y-94899600D02*
G75*
G03*
X88865000Y-95399640I0J-500000D01*
G01*
X110000000Y-93800000D02*
G75*
G03*
X109500000Y-93300000I-500000J0D01*
G01*
X137000000Y-95100640D02*
X137000000Y-93800000D01*
X109500000Y-93300000D02*
X105500000Y-93300000D01*
X159000000Y-93800000D02*
X159000000Y-95100640D01*
X117022804Y-95250162D02*
G75*
G03*
X116545747Y-94899640I-477104J-149438D01*
G01*
X104022885Y-95250136D02*
G75*
G03*
X105000000Y-95100640I477115J149536D01*
G01*
X125454254Y-94899568D02*
G75*
G03*
X124977127Y-95250140I46J-500032D01*
G01*
X109999988Y-95100640D02*
G75*
G03*
X110977127Y-95250140I500012J40D01*
G01*
X159500000Y-93300000D02*
G75*
G03*
X159000000Y-93800000I0J-500000D01*
G01*
X104022804Y-95250162D02*
G75*
G03*
X103545747Y-94899640I-477104J-149438D01*
G01*
X118500000Y-93300000D02*
G75*
G03*
X118000000Y-93800000I0J-500000D01*
G01*
X136999988Y-95100640D02*
G75*
G03*
X137977127Y-95250140I500012J40D01*
G01*
X187364960Y-95399640D02*
G75*
G03*
X186865000Y-94899640I-499960J40D01*
G01*
X150500000Y-93300000D02*
X145500000Y-93300000D01*
X111454254Y-94899568D02*
G75*
G03*
X110977127Y-95250140I46J-500032D01*
G01*
X158022885Y-95250136D02*
G75*
G03*
X159000000Y-95100640I477115J149536D01*
G01*
X164000000Y-93800000D02*
G75*
G03*
X163500000Y-93300000I-500000J0D01*
G01*
X138454254Y-94899568D02*
G75*
G03*
X137977127Y-95250140I46J-500032D01*
G01*
X144022804Y-95250162D02*
G75*
G03*
X143545747Y-94899640I-477104J-149438D01*
G01*
X105000000Y-93800000D02*
X105000000Y-95100640D01*
X158022804Y-95250162D02*
G75*
G03*
X157545747Y-94899640I-477104J-149438D01*
G01*
X116545747Y-94899640D02*
X111454254Y-94899640D01*
X110000000Y-95100640D02*
X110000000Y-93800000D01*
X144022885Y-95250136D02*
G75*
G03*
X145000000Y-95100640I477115J149536D01*
G01*
X123500000Y-93300000D02*
X118500000Y-93300000D01*
X137000000Y-93800000D02*
G75*
G03*
X136500000Y-93300000I-500000J0D01*
G01*
X117022885Y-95250136D02*
G75*
G03*
X118000000Y-95100640I477115J149536D01*
G01*
X131022804Y-95250162D02*
G75*
G03*
X130545747Y-94899640I-477104J-149438D01*
G01*
X145000000Y-93800000D02*
X145000000Y-95100640D01*
X145500000Y-93300000D02*
G75*
G03*
X145000000Y-93800000I0J-500000D01*
G01*
M02*
