%TF.GenerationSoftware,KiCad,Pcbnew,(5.1.6-0-10_14)*%
%TF.CreationDate,2021-01-04T10:33:49+09:00*%
%TF.ProjectId,greengrass,67726565-6e67-4726-9173-732e6b696361,rev?*%
%TF.SameCoordinates,Original*%
%TF.FileFunction,Copper,L2,Bot*%
%TF.FilePolarity,Positive*%
%FSLAX46Y46*%
G04 Gerber Fmt 4.6, Leading zero omitted, Abs format (unit mm)*
G04 Created by KiCad (PCBNEW (5.1.6-0-10_14)) date 2021-01-04 10:33:49*
%MOMM*%
%LPD*%
G01*
G04 APERTURE LIST*
%TA.AperFunction,ComponentPad*%
%ADD10O,1.700000X1.700000*%
%TD*%
%TA.AperFunction,ComponentPad*%
%ADD11R,1.700000X1.700000*%
%TD*%
%TA.AperFunction,Conductor*%
%ADD12C,1.270000*%
%TD*%
%TA.AperFunction,Conductor*%
%ADD13C,0.254000*%
%TD*%
G04 APERTURE END LIST*
D10*
%TO.P,J1,5*%
%TO.N,GND*%
X123025001Y-76355001D03*
%TO.P,J1,4*%
%TO.N,/SCA*%
X123025001Y-73815001D03*
%TO.P,J1,3*%
%TO.N,N/C*%
X123025001Y-71275001D03*
%TO.P,J1,2*%
X123025001Y-68735001D03*
D11*
%TO.P,J1,1*%
%TO.N,+3V3*%
X123025001Y-66195001D03*
%TD*%
D10*
%TO.P,J3,4*%
%TO.N,GND*%
X126835001Y-73815001D03*
%TO.P,J3,3*%
%TO.N,N/C*%
X126835001Y-71275001D03*
%TO.P,J3,2*%
%TO.N,/SCA*%
X126835001Y-68735001D03*
D11*
%TO.P,J3,1*%
%TO.N,+3V3*%
X126835001Y-66195001D03*
%TD*%
D12*
%TO.N,GND*%
X124295001Y-76355001D02*
X126835001Y-73815001D01*
X123025001Y-76355001D02*
X124295001Y-76355001D01*
%TO.N,/SCA*%
X125150000Y-70420002D02*
X126835001Y-68735001D01*
X125150000Y-71690002D02*
X125150000Y-70420002D01*
X123025001Y-73815001D02*
X125150000Y-71690002D01*
%TO.N,+3V3*%
X123025001Y-66195001D02*
X126835001Y-66195001D01*
%TD*%
D13*
%TO.N,GND*%
G36*
X128373000Y-77565000D02*
G01*
X123881475Y-77565000D01*
X123906356Y-77550179D01*
X124122589Y-77355270D01*
X124296642Y-77121921D01*
X124421826Y-76859100D01*
X124466477Y-76711891D01*
X124345156Y-76482001D01*
X123152001Y-76482001D01*
X123152001Y-76502001D01*
X122898001Y-76502001D01*
X122898001Y-76482001D01*
X122878001Y-76482001D01*
X122878001Y-76228001D01*
X122898001Y-76228001D01*
X122898001Y-76208001D01*
X123152001Y-76208001D01*
X123152001Y-76228001D01*
X124345156Y-76228001D01*
X124466477Y-75998111D01*
X124421826Y-75850902D01*
X124296642Y-75588081D01*
X124122589Y-75354732D01*
X123906356Y-75159823D01*
X123789467Y-75090196D01*
X123971633Y-74968476D01*
X124178476Y-74761633D01*
X124340991Y-74518412D01*
X124452933Y-74248159D01*
X124468104Y-74171891D01*
X125393525Y-74171891D01*
X125438176Y-74319100D01*
X125563360Y-74581921D01*
X125737413Y-74815270D01*
X125953646Y-75010179D01*
X126203749Y-75159158D01*
X126478110Y-75256482D01*
X126708001Y-75135815D01*
X126708001Y-73942001D01*
X126962001Y-73942001D01*
X126962001Y-75135815D01*
X127191892Y-75256482D01*
X127466253Y-75159158D01*
X127716356Y-75010179D01*
X127932589Y-74815270D01*
X128106642Y-74581921D01*
X128231826Y-74319100D01*
X128276477Y-74171891D01*
X128155156Y-73942001D01*
X126962001Y-73942001D01*
X126708001Y-73942001D01*
X125514846Y-73942001D01*
X125393525Y-74171891D01*
X124468104Y-74171891D01*
X124469083Y-74166970D01*
X125540975Y-73095078D01*
X125438176Y-73310902D01*
X125393525Y-73458111D01*
X125514846Y-73688001D01*
X126708001Y-73688001D01*
X126708001Y-73668001D01*
X126962001Y-73668001D01*
X126962001Y-73688001D01*
X128155156Y-73688001D01*
X128276477Y-73458111D01*
X128231826Y-73310902D01*
X128106642Y-73048081D01*
X127932589Y-72814732D01*
X127716356Y-72619823D01*
X127599467Y-72550196D01*
X127781633Y-72428476D01*
X127988476Y-72221633D01*
X128150991Y-71978412D01*
X128262933Y-71708159D01*
X128320001Y-71421261D01*
X128320001Y-71128741D01*
X128262933Y-70841843D01*
X128150991Y-70571590D01*
X127988476Y-70328369D01*
X127781633Y-70121526D01*
X127607241Y-70005001D01*
X127781633Y-69888476D01*
X127988476Y-69681633D01*
X128150991Y-69438412D01*
X128262933Y-69168159D01*
X128320001Y-68881261D01*
X128320001Y-68588741D01*
X128262933Y-68301843D01*
X128150991Y-68031590D01*
X127988476Y-67788369D01*
X127856621Y-67656514D01*
X127929181Y-67634503D01*
X128039495Y-67575538D01*
X128136186Y-67496186D01*
X128215538Y-67399495D01*
X128274503Y-67289181D01*
X128310813Y-67169483D01*
X128323073Y-67045001D01*
X128323073Y-65345001D01*
X128310813Y-65220519D01*
X128274503Y-65100821D01*
X128215538Y-64990507D01*
X128169985Y-64935000D01*
X128373000Y-64935000D01*
X128373000Y-77565000D01*
G37*
X128373000Y-77565000D02*
X123881475Y-77565000D01*
X123906356Y-77550179D01*
X124122589Y-77355270D01*
X124296642Y-77121921D01*
X124421826Y-76859100D01*
X124466477Y-76711891D01*
X124345156Y-76482001D01*
X123152001Y-76482001D01*
X123152001Y-76502001D01*
X122898001Y-76502001D01*
X122898001Y-76482001D01*
X122878001Y-76482001D01*
X122878001Y-76228001D01*
X122898001Y-76228001D01*
X122898001Y-76208001D01*
X123152001Y-76208001D01*
X123152001Y-76228001D01*
X124345156Y-76228001D01*
X124466477Y-75998111D01*
X124421826Y-75850902D01*
X124296642Y-75588081D01*
X124122589Y-75354732D01*
X123906356Y-75159823D01*
X123789467Y-75090196D01*
X123971633Y-74968476D01*
X124178476Y-74761633D01*
X124340991Y-74518412D01*
X124452933Y-74248159D01*
X124468104Y-74171891D01*
X125393525Y-74171891D01*
X125438176Y-74319100D01*
X125563360Y-74581921D01*
X125737413Y-74815270D01*
X125953646Y-75010179D01*
X126203749Y-75159158D01*
X126478110Y-75256482D01*
X126708001Y-75135815D01*
X126708001Y-73942001D01*
X126962001Y-73942001D01*
X126962001Y-75135815D01*
X127191892Y-75256482D01*
X127466253Y-75159158D01*
X127716356Y-75010179D01*
X127932589Y-74815270D01*
X128106642Y-74581921D01*
X128231826Y-74319100D01*
X128276477Y-74171891D01*
X128155156Y-73942001D01*
X126962001Y-73942001D01*
X126708001Y-73942001D01*
X125514846Y-73942001D01*
X125393525Y-74171891D01*
X124468104Y-74171891D01*
X124469083Y-74166970D01*
X125540975Y-73095078D01*
X125438176Y-73310902D01*
X125393525Y-73458111D01*
X125514846Y-73688001D01*
X126708001Y-73688001D01*
X126708001Y-73668001D01*
X126962001Y-73668001D01*
X126962001Y-73688001D01*
X128155156Y-73688001D01*
X128276477Y-73458111D01*
X128231826Y-73310902D01*
X128106642Y-73048081D01*
X127932589Y-72814732D01*
X127716356Y-72619823D01*
X127599467Y-72550196D01*
X127781633Y-72428476D01*
X127988476Y-72221633D01*
X128150991Y-71978412D01*
X128262933Y-71708159D01*
X128320001Y-71421261D01*
X128320001Y-71128741D01*
X128262933Y-70841843D01*
X128150991Y-70571590D01*
X127988476Y-70328369D01*
X127781633Y-70121526D01*
X127607241Y-70005001D01*
X127781633Y-69888476D01*
X127988476Y-69681633D01*
X128150991Y-69438412D01*
X128262933Y-69168159D01*
X128320001Y-68881261D01*
X128320001Y-68588741D01*
X128262933Y-68301843D01*
X128150991Y-68031590D01*
X127988476Y-67788369D01*
X127856621Y-67656514D01*
X127929181Y-67634503D01*
X128039495Y-67575538D01*
X128136186Y-67496186D01*
X128215538Y-67399495D01*
X128274503Y-67289181D01*
X128310813Y-67169483D01*
X128323073Y-67045001D01*
X128323073Y-65345001D01*
X128310813Y-65220519D01*
X128274503Y-65100821D01*
X128215538Y-64990507D01*
X128169985Y-64935000D01*
X128373000Y-64935000D01*
X128373000Y-77565000D01*
%TD*%
M02*
