0
SECTION
2
HEADER
9
$INSUNITS
70
4
9
$ACADVER
1
AC1014
9
$HANDSEED
5
FFFF
0
ENDSEC
0
SECTION
2
TABLES
0
TABLE
2
VPORT
5
8
100
AcDbSymbolTable
0
ENDTAB
0
TABLE
2
LTYPE
5
5
100
AcDbSymbolTable
0
LTYPE
5
14
100
AcDbSymbolTableRecord
100
AcDbLinetypeTableRecord
2
BYBLOCK
70
0
0
LTYPE
5
15
100
AcDbSymbolTableRecord
100
AcDbLinetypeTableRecord
2
BYLAYER
70
0
0
ENDTAB
0
TABLE
2
LAYER
5
2
100
AcDbSymbolTable
70
2
0
LAYER
5
50
100
AcDbSymbolTableRecord
100
AcDbLayerTableRecord
2
0
70
0
6
CONTINUOUS
0
ENDTAB
0
TABLE
2
STYLE
5
3
100
AcDbSymbolTable
70
1
0
STYLE
5
11
100
AcDbSymbolTableRecord
100
AcDbTextStyleTableRecord
2
STANDARD
70
0
0
ENDTAB
0
TABLE
2
VIEW
5
6
100
AcDbSymbolTable
70
0
0
ENDTAB
0
TABLE
2
UCS
5
7
100
AcDbSymbolTable
70
0
0
ENDTAB
0
TABLE
2
APPID
5
9
100
AcDbSymbolTable
70
2
0
APPID
5
12
100
AcDbSymbolTableRecord
100
AcDbRegAppTableRecord
2
ACAD
70
0
0
ENDTAB
0
TABLE
2
DIMSTYLE
5
A
100
AcDbSymbolTable
70
1
0
ENDTAB
0
TABLE
2
BLOCK_RECORD
5
1
100
AcDbSymbolTable
70
1
0
BLOCK_RECORD
5
1F
100
AcDbSymbolTableRecord
100
AcDbBlockTableRecord
2
*MODEL_SPACE
0
BLOCK_RECORD
5
1B
100
AcDbSymbolTableRecord
100
AcDbBlockTableRecord
2
*PAPER_SPACE
0
ENDTAB
0
ENDSEC
0
SECTION
2
BLOCKS
0
BLOCK
5
20
100
AcDbEntity
100
AcDbBlockBegin
2
*MODEL_SPACE
0
ENDBLK
5
21
100
AcDbEntity
100
AcDbBlockEnd
0
BLOCK
5
1C
100
AcDbEntity
100
AcDbBlockBegin
2
*PAPER_SPACE
0
ENDBLK
5
1D
100
AcDbEntity
100
AcDbBlockEnd
0
ENDSEC
0
SECTION
2
ENTITIES
0
ARC
5
100
100
AcDbEntity
8
0
100
AcDbCircle
10
-3.08590821196172
20
-104.40403566227316
30
-6.6613381477509463e-15
40
0.99999999999996092
210
-3.925231383991447e-17
220
3.9252309094267306e-17
230
1
100
AcDbArc
50
89.99999999999855
51
135.00000346356023
0
ARC
5
101
100
AcDbEntity
8
0
100
AcDbCircle
10
-4.5001218170797674
20
-102.98982214264507
30
6.6613381477509392e-15
40
0.99999999999999589
210
7.8504618188539763e-17
220
-7.8504627679837457e-17
230
1
100
AcDbArc
50
224.99999653643772
51
314.99999999999983
0
ARC
5
102
100
AcDbEntity
8
0
100
AcDbCircle
10
-5.9143354221978672
20
-104.4040356622732
30
-6.6613381477509392e-15
40
1.0000000000000395
210
-9.4205547521019581e-15
220
-9.4205547521025955e-15
230
1
100
AcDbArc
50
45.000000000001805
51
89.999999999999503
0
LINE
5
103
100
AcDbEntity
8
0
100
AcDbLine
10
-5.9143354221978583
20
-103.4040356622732
30
-6.6613381477509392e-15
11
-16.701422459553754
21
-103.4040356622732
31
2.2204460492503127e-15
0
ARC
5
104
100
AcDbEntity
8
0
100
AcDbCircle
10
-16.701422459553719
20
-113.4040356622732
30
6.6613381477509392e-15
40
10
210
-1.7682175248710659e-30
220
4.4408920985006262e-16
230
1
100
AcDbArc
50
90.000000000000199
51
147.76904736449782
0
ARC
5
105
100
AcDbEntity
8
0
100
AcDbCircle
10
-29.390000000003269
20
-105.4040356622732
30
2.2204460492503131e-15
40
5
210
6.0603849493949824e-33
220
-5.5511151231257827e-17
230
1
100
AcDbArc
50
270
51
327.76904736449825
0
LINE
5
106
100
AcDbEntity
8
0
100
AcDbLine
10
-29.390000000003269
20
-110.4040356622732
30
1.9428902930940239e-15
11
-130.59000000000336
21
-110.40403566227317
31
2.2204460492503131e-15
0
ARC
5
107
100
AcDbEntity
8
0
100
AcDbCircle
10
-130.59000000000336
20
-105.4040356622732
30
2.2204460492503131e-15
40
4.9999999999999982
210
-2.9605947323337415e-17
220
4.6957169783829051e-17
230
1
100
AcDbArc
50
212.23095263550206
51
270
0
ARC
5
108
100
AcDbEntity
8
0
100
AcDbCircle
10
-143.27857754045286
20
-113.40403566227317
30
6.6613381477509392e-15
40
9.9999999999999822
210
3.7565735827063285e-16
220
2.3684757858670006e-16
230
1
100
AcDbArc
50
32.230952635502057
51
90
0
LINE
5
109
100
AcDbEntity
8
0
100
AcDbLine
10
-143.27857754045286
20
-103.4040356622732
30
6.809367884367627e-15
11
-180.46010561620992
21
-103.40403566227322
31
2.2204460492503131e-15
0
LINE
5
110
100
AcDbEntity
8
0
100
AcDbLine
10
-180.46010561620992
20
-103.40403566227322
30
2.2204460492503131e-15
11
-180.46010561620992
21
-105.90403566227322
31
2.2204460492503131e-15
0
LINE
5
111
100
AcDbEntity
8
0
100
AcDbLine
10
-180.46010561620992
20
-105.90403566227322
30
2.2204460492503131e-15
11
-185.96010561620989
21
-105.90403566227317
31
2.2204460492503127e-15
0
LINE
5
112
100
AcDbEntity
8
0
100
AcDbLine
10
-185.96010561620989
20
-105.90403566227317
30
2.2204460492503127e-15
11
-185.96010561620989
21
-115.90403566227317
31
2.2204460492503131e-15
0
LINE
5
113
100
AcDbEntity
8
0
100
AcDbLine
10
-185.96010561620989
20
-115.90403566227317
30
2.2204460492503131e-15
11
-180.46010561620992
21
-115.90403566227323
31
1.1102230246251564e-14
0
LINE
5
114
100
AcDbEntity
8
0
100
AcDbLine
10
-180.46010561620992
20
-115.90403566227323
30
1.1102230246251564e-14
11
-180.46010561620992
21
-118.40369891269054
31
2.2204460492503131e-15
0
LINE
5
115
100
AcDbEntity
8
0
100
AcDbLine
10
-180.46010561620992
20
-118.40369891269054
30
2.2204460492503131e-15
11
-177.96010561620992
21
-118.40369891269056
31
2.2204460492503131e-15
0
ARC
5
116
100
AcDbEntity
8
0
100
AcDbCircle
10
-177.96010561620992
20
-122.40369891269054
30
2.2204460492503131e-15
40
3.9999999999999858
210
0
220
-1.1102230246251565e-16
230
1
100
AcDbArc
50
0
51
90
0
LINE
5
117
100
AcDbEntity
8
0
100
AcDbLine
10
-173.96010561620994
20
-122.40369891269054
30
2.2204460492503131e-15
11
-173.96010561620997
21
-137.90369856097658
31
2.2204460492503131e-15
0
ARC
5
118
100
AcDbEntity
8
0
100
AcDbCircle
10
-169.96010561620994
20
-137.90369891269054
30
-6.6613381477509385e-15
40
4.0000000000000373
210
2.2204460443692717e-15
220
-5.5511346471728197e-17
230
1
100
AcDbArc
50
-180.00000497831306
51
0
0
LINE
5
119
100
AcDbEntity
8
0
100
AcDbLine
10
-165.96010561620989
20
-137.90369891177866
30
-6.661338147700318e-15
11
-165.96010561620989
21
-122.40369891269056
31
-6.6613381477509392e-15
0
ARC
5
120
100
AcDbEntity
8
0
100
AcDbCircle
10
-161.96010561620992
20
-122.40369891269054
30
2.2204460492503131e-15
40
4.0000000000000036
210
-1.4096971350242585e-32
220
-1.1102230246251553e-16
230
1
100
AcDbArc
50
90
51
180
0
LINE
5
121
100
AcDbEntity
8
0
100
AcDbLine
10
-161.96010561620992
20
-118.40369891269054
30
2.6645352591003757e-15
11
2.9998781829202059
21
-118.40369891269052
31
2.2204460223057047e-15
0
LINE
5
122
100
AcDbEntity
8
0
100
AcDbLine
10
2.9998781829202059
20
-118.40369891269052
30
2.2204460223057047e-15
11
10.999878182920231
21
-118.40369891269054
31
1.1102230246251565e-14
0
LINE
5
123
100
AcDbEntity
8
0
100
AcDbLine
10
10.999878182920231
20
-118.40369891269054
30
1.1102230246251565e-14
11
17.499878182920234
21
-118.40369891269054
31
1.1102230262968531e-14
0
LINE
5
124
100
AcDbEntity
8
0
100
AcDbLine
10
17.499878182920234
20
-118.40369891269054
30
1.1102230262968531e-14
11
17.499878182920234
21
-115.90403566227322
31
2.2204460492503131e-15
0
LINE
5
125
100
AcDbEntity
8
0
100
AcDbLine
10
17.499878182920234
20
-115.90403566227322
30
2.2204460492503131e-15
11
22.999878182920241
21
-115.90403566227322
31
2.2204460492503135e-15
0
LINE
5
126
100
AcDbEntity
8
0
100
AcDbLine
10
22.999878182920241
20
-115.90403566227322
30
2.2204460492503135e-15
11
22.999878182920241
21
-105.90403566227323
31
1.1102230246251565e-14
0
LINE
5
127
100
AcDbEntity
8
0
100
AcDbLine
10
22.999878182920241
20
-105.90403566227323
30
1.1102230246251565e-14
11
17.499878182920234
21
-105.90403566227317
31
2.2204460492503131e-15
0
LINE
5
128
100
AcDbEntity
8
0
100
AcDbLine
10
17.499878182920234
20
-105.90403566227317
30
2.2204460492503131e-15
11
17.499878182920234
21
-103.40403566227317
31
2.2204460492503131e-15
0
LINE
5
129
100
AcDbEntity
8
0
100
AcDbLine
10
17.499878182920234
20
-103.40403566227317
30
2.2204460492503131e-15
11
-3.0859082119616947
21
-103.4040356622732
31
-6.7005904568452113e-15
0
CIRCLE
5
130
100
AcDbEntity
8
0
100
AcDbCircle
10
-169.96010561620994
20
-137.90369891269054
30
-6.6613381477509385e-15
40
1.6000000000000014
210
0
220
-0
230
1
0
CIRCLE
5
131
100
AcDbEntity
8
0
100
AcDbCircle
10
-143.09000000000336
20
-111.04569891269051
30
1.1102230246251565e-14
40
1.6000000000000014
210
-6.1629758220391547e-33
220
-6.7283789123460873e-49
230
1
0
CIRCLE
5
132
100
AcDbEntity
8
0
100
AcDbCircle
10
-16.890000000003269
20
-111.04569891269051
30
1.1102230246251565e-14
40
1.6000000000000059
210
-1.2325951644078309e-32
220
-1.3456757824692175e-48
230
1
0
ENDSEC
0
SECTION
2
OBJECTS
0
DICTIONARY
5
C
100
AcDbDictionary
3
ACAD_GROUP
350
D
3
ACAD_MLINESTYLE
350
17
0
DICTIONARY
5
D
100
AcDbDictionary
0
DICTIONARY
5
1A
330
C
100
AcDbDictionary
0
DICTIONARY
5
17
100
AcDbDictionary
0
ENDSEC
0
EOF
