0
SECTION
2
HEADER
9
$INSUNITS
70
4
9
$ACADVER
1
AC1014
9
$HANDSEED
5
FFFF
0
ENDSEC
0
SECTION
2
TABLES
0
TABLE
2
VPORT
5
8
100
AcDbSymbolTable
0
ENDTAB
0
TABLE
2
LTYPE
5
5
100
AcDbSymbolTable
0
LTYPE
5
14
100
AcDbSymbolTableRecord
100
AcDbLinetypeTableRecord
2
BYBLOCK
70
0
0
LTYPE
5
15
100
AcDbSymbolTableRecord
100
AcDbLinetypeTableRecord
2
BYLAYER
70
0
0
ENDTAB
0
TABLE
2
LAYER
5
2
100
AcDbSymbolTable
70
2
0
LAYER
5
50
100
AcDbSymbolTableRecord
100
AcDbLayerTableRecord
2
0
70
0
6
CONTINUOUS
0
ENDTAB
0
TABLE
2
STYLE
5
3
100
AcDbSymbolTable
70
1
0
STYLE
5
11
100
AcDbSymbolTableRecord
100
AcDbTextStyleTableRecord
2
STANDARD
70
0
0
ENDTAB
0
TABLE
2
VIEW
5
6
100
AcDbSymbolTable
70
0
0
ENDTAB
0
TABLE
2
UCS
5
7
100
AcDbSymbolTable
70
0
0
ENDTAB
0
TABLE
2
APPID
5
9
100
AcDbSymbolTable
70
2
0
APPID
5
12
100
AcDbSymbolTableRecord
100
AcDbRegAppTableRecord
2
ACAD
70
0
0
ENDTAB
0
TABLE
2
DIMSTYLE
5
A
100
AcDbSymbolTable
70
1
0
ENDTAB
0
TABLE
2
BLOCK_RECORD
5
1
100
AcDbSymbolTable
70
1
0
BLOCK_RECORD
5
1F
100
AcDbSymbolTableRecord
100
AcDbBlockTableRecord
2
*MODEL_SPACE
0
BLOCK_RECORD
5
1B
100
AcDbSymbolTableRecord
100
AcDbBlockTableRecord
2
*PAPER_SPACE
0
ENDTAB
0
ENDSEC
0
SECTION
2
BLOCKS
0
BLOCK
5
20
100
AcDbEntity
100
AcDbBlockBegin
2
*MODEL_SPACE
0
ENDBLK
5
21
100
AcDbEntity
100
AcDbBlockEnd
0
BLOCK
5
1C
100
AcDbEntity
100
AcDbBlockBegin
2
*PAPER_SPACE
0
ENDBLK
5
1D
100
AcDbEntity
100
AcDbBlockEnd
0
ENDSEC
0
SECTION
2
ENTITIES
0
CIRCLE
5
100
100
AcDbEntity
8
0
100
AcDbCircle
10
-16.890000000003369
20
-45.395698912690143
30
0
40
1.6000000000000059
210
-6.1629758220391547e-33
220
6.7283789124179437e-49
230
1
0
CIRCLE
5
101
100
AcDbEntity
8
0
100
AcDbCircle
10
-143.09000000000344
20
-45.395698912690143
30
0
40
1.6000000000000014
210
-0
220
0
230
1
0
LWPOLYLINE
5
102
100
AcDbEntity
8
0
100
AcDbPolyline
90
29
70
1
43
0.0
10
-4.5001218170798696
20
-39.037698955435125
10
-3.5001218170798354
20
-38.03769895543509
10
-1.0001218170798825
20
-38.037698912690146
42
0.41421356237309537
10
2.9998781829201171
20
-34.037698912690146
10
2.9998781829201215
20
-18.537698912690118
42
-0.99999999999999989
10
10.999878182920121
20
-18.537698912690107
10
10.999878182920115
20
-34.037698912690153
42
0.41421356237309537
10
14.999878182920119
20
-38.037698912690146
10
17.499878182920131
20
-38.037698912690139
10
17.499878182920135
20
-40.53736216310746
10
22.999878182920135
20
-40.53736216310746
10
22.999878182920135
20
-50.53736216310746
10
17.499878182920131
20
-50.53736216310746
10
17.499878182920135
20
-53.03736216310746
10
-16.701422459553861
20
-53.037362163107467
42
-0.25754274367713037
10
-25.160474153186865
20
-48.37069549644081
42
0.25754274367713242
10
-29.390000000003376
20
-46.037362163107467
10
-130.59000000000344
20
-46.037362163107488
42
0.2575427436771292
10
-134.81952584682
20
-48.370695496440803
42
-0.25754274367713131
10
-143.27857754045297
20
-53.03736216310746
10
-180.46010561621003
20
-53.03736216310746
10
-180.46010561621003
20
-50.53736216310746
10
-185.96010561621003
20
-50.53736216310746
10
-185.96010561621003
20
-40.537362163107467
10
-180.46010561621003
20
-40.537362163107467
10
-180.46010561621003
20
-38.037698912690139
10
-173.96010561621
20
-38.037698912690139
10
-165.96010561621
20
-38.037698912690104
10
-5.5001218170798793
20
-38.037698955435118
0
CIRCLE
5
103
100
AcDbEntity
8
0
100
AcDbCircle
10
6.9998781829201207
20
-18.537698912690111
30
-2.2204460492503131e-15
40
1.5999999999999925
210
7.3293016207536815e-33
220
5.5511151231257815e-17
230
1
0
ENDSEC
0
SECTION
2
OBJECTS
0
DICTIONARY
5
C
100
AcDbDictionary
3
ACAD_GROUP
350
D
3
ACAD_MLINESTYLE
350
17
0
DICTIONARY
5
D
100
AcDbDictionary
0
DICTIONARY
5
1A
330
C
100
AcDbDictionary
0
DICTIONARY
5
17
100
AcDbDictionary
0
ENDSEC
0
EOF
