M48
INCH,TZ
T1C0.0157
T2C0.0256
T3C0.0354
%
G90
G05
T1
X38984Y-38783
X39020Y-37689
X39996Y-40839
X40173Y-37819
X40240Y-38713
X41055Y-38910
X41228Y-38106
X41463Y-39315
X41744Y-37634
X42021Y-39833
X42047Y-40697
X42374Y-42650
X43228Y-39118
X43697Y-40953
X43839Y-42059
X44366Y-39697
X44992Y-37661
X45020Y-42594
X45098Y-41031
X45783Y-38138
X45921Y-40004
X46228Y-41567
X46528Y-37646
X47197Y-42610
X47543Y-40835
X47709Y-38169
X48181Y-37075
X48319Y-39862
X48339Y-42898
X48811Y-41795
X48941Y-38161
X49457Y-40189
X49567Y-42898
X49579Y-37075
X49780Y-40858
X50512Y-37713
X50724Y-42508
X50972Y-41681
X51504Y-38319
X51890Y-39866
X51909Y-40890
X52224Y-42524
X52370Y-37681
X53232Y-40130
X53354Y-37059
X53358Y-42921
X53417Y-40854
X53583Y-38059
X54311Y-41921
X54343Y-38504
X55024Y-37059
X55142Y-42945
X55280Y-40898
X55713Y-39870
X56094Y-37697
X56201Y-42630
X56232Y-40909
X56594Y-40189
X57083Y-41803
X57413Y-38677
X57862Y-42646
X57890Y-37650
X58398Y-40866
X58854Y-37071
X58906Y-42984
X58969Y-39894
X59559Y-38673
X59657Y-41835
X60091Y-40150
X60154Y-37051
X60252Y-42976
X60961Y-40909
X61220Y-37709
X61295Y-42602
X62161Y-41642
X62189Y-38866
X62476Y-39850
X62937Y-42614
X62961Y-37701
X63453Y-40866
X63638Y-40157
X64031Y-42976
X64039Y-37028
X64421Y-38996
X64917Y-41819
X64933Y-37858
X65685Y-37016
X65736Y-42976
X66051Y-39831
X66378Y-38937
X66453Y-40835
X66740Y-37689
X66795Y-42630
X67039Y-40165
X67744Y-41827
X67854Y-39193
X68500Y-42638
X68504Y-37689
X69299Y-40909
X69449Y-39122
X69504Y-43000
X69531Y-37110
X69630Y-39874
X70142Y-41827
X70157Y-38201
X70606Y-40150
X70728Y-37059
X70878Y-42988
X71240Y-40878
X71870Y-37717
X71921Y-42654
X72327Y-40748
X72594Y-41665
X73075Y-38807
X73276Y-42524
X73791Y-40858
X74402Y-37720
X74705Y-39760
X74870Y-42469
X75839Y-38681
X75969Y-41516
X77138Y-42646
X77185Y-37701
X77193Y-40161
T2
X39230Y-39927
X39230Y-40427
X39730Y-39927
X39730Y-40427
X40230Y-39927
X40230Y-40427
X40730Y-39927
X40730Y-40427
X41230Y-39927
X41230Y-40427
T3
X46638Y-40009
X47638Y-40009
X50181Y-40009
X51181Y-40009
X54028Y-40009
X55028Y-40009
X57268Y-40009
X58268Y-40009
X60811Y-40009
X61811Y-40009
X64354Y-40009
X65354Y-40009
X67898Y-40009
X68898Y-40009
X71441Y-40009
X72441Y-40009
T0
M30
