M48
INCH,TZ
T1C0.0157
T2C0.0394
%
G90
G05
T1
X32949Y-33461
X32984Y-34520
X32992Y-32220
X33012Y-35614
X33024Y-24945
X33039Y-37161
X33051Y-31055
X33067Y-39657
X33067Y-42220
X33071Y-26118
X33079Y-40768
X33091Y-38528
X33091Y-43327
X33504Y-43799
X33551Y-36343
X33571Y-41185
X33571Y-42787
X33638Y-39961
X33638Y-41764
X33673Y-39024
X33693Y-38024
X33720Y-25583
X33720Y-37071
X34000Y-26118
X34213Y-24957
X34370Y-32047
X34567Y-28071
X34567Y-29134
X34606Y-33110
X34685Y-34291
X34764Y-27323
X34803Y-26654
X34843Y-33701
X34882Y-32283
X34996Y-25343
X35079Y-28543
X35118Y-26339
X35118Y-27756
X35157Y-35039
X35197Y-36614
X35197Y-37323
X35276Y-29331
X35394Y-34646
X35433Y-32795
X35433Y-33898
X35472Y-35787
X35472Y-41457
X35512Y-38504
X35539Y-24811
X35551Y-39764
X35551Y-40354
X35591Y-27244
X35657Y-43772
X35854Y-43280
X35866Y-28228
X35866Y-29055
X35866Y-38031
X35866Y-40945
X35906Y-26260
X35906Y-35787
X35917Y-25547
X35945Y-30472
X35945Y-36811
X35984Y-39409
X36063Y-29921
X36181Y-40354
X36260Y-39882
X36299Y-27677
X36339Y-30472
X36378Y-26850
X36378Y-34685
X36457Y-28583
X36535Y-38819
X36575Y-29331
X36575Y-39252
X36614Y-32874
X36843Y-35190
X36850Y-34764
X36890Y-39921
X36890Y-41260
X36969Y-26378
X37047Y-30039
X37087Y-27165
X37190Y-30526
X37205Y-27913
X37228Y-43772
X37283Y-28740
X37402Y-40669
X37441Y-41890
X37638Y-40354
X37677Y-37756
X37756Y-29370
X37756Y-34646
X37756Y-41220
X37835Y-26299
X37913Y-30394
X37992Y-26929
X37992Y-42402
X38000Y-42065
X38031Y-27677
X38041Y-37047
X38071Y-40433
X38110Y-33228
X38110Y-37756
X38150Y-39094
X38157Y-43709
X38228Y-31339
X38346Y-33976
X38504Y-32205
X38583Y-37835
X38622Y-29764
X38661Y-28465
X38661Y-42756
X38740Y-40276
X38821Y-37383
X38898Y-26535
X38898Y-27165
X39094Y-34646
X39165Y-41815
X39169Y-43724
X39173Y-30748
X39213Y-37047
X39291Y-35866
X39409Y-33307
X39430Y-38658
X39449Y-26063
X39449Y-31457
X39488Y-27598
X39528Y-29213
X39724Y-40394
X39921Y-32559
X39961Y-26102
X39961Y-30079
X39961Y-34646
X39963Y-35059
X40079Y-28425
X40079Y-33937
X40079Y-42717
X40169Y-43705
X40472Y-27402
X40472Y-36850
X40591Y-26535
X40630Y-31772
X40669Y-40079
X40729Y-41926
X40748Y-30669
X40770Y-37253
X40906Y-29213
X40906Y-33228
X40984Y-28425
X41299Y-25669
X41339Y-32520
X41378Y-24921
X41575Y-33976
X41654Y-41929
X41693Y-27559
X41693Y-30079
X41693Y-31299
X41850Y-26575
X42008Y-28937
X42047Y-25394
X42205Y-41929
X42274Y-34449
X42283Y-31850
X42441Y-30748
X42441Y-41260
X42534Y-35526
X42559Y-33228
X42559Y-41614
X42598Y-32480
X42598Y-34094
X42638Y-27323
X42717Y-40827
X42756Y-29606
X42795Y-28268
X42913Y-24961
X42913Y-41890
X42953Y-41181
X42992Y-25748
X43110Y-26575
X43150Y-30394
X43346Y-28110
X43701Y-29331
X44173Y-39961
X44331Y-25000
X44449Y-27087
X44567Y-26063
X44606Y-34803
X44606Y-37087
X44606Y-38504
X44646Y-35866
X44685Y-32087
X44685Y-41142
X44724Y-27795
X44724Y-30315
X44764Y-33543
X44803Y-40551
X44882Y-28622
X44882Y-32795
X44882Y-41890
X44921Y-25551
X44921Y-29724
X44921Y-31457
X44921Y-37795
X44921Y-39291
X44961Y-34252
X44961Y-35315
X45000Y-26496
X45000Y-36535
T2
X43780Y-38504
X43780Y-39504
X43780Y-40504
X43780Y-41504
X43780Y-30118
X43780Y-31118
X34000Y-42307
X34000Y-43307
X35000Y-42307
X35000Y-43307
X41693Y-43358
X42693Y-43358
X36669Y-43307
X37669Y-43307
X38669Y-43307
X39669Y-43307
X40669Y-43307
X34146Y-27551
X34146Y-28551
X34146Y-29551
X34146Y-30551
X34146Y-31551
X34146Y-32551
X34146Y-33551
X34146Y-34551
X34146Y-35551
X34146Y-36551
X34146Y-37551
X34146Y-38551
X34146Y-39551
X34146Y-40551
X36669Y-25370
X37669Y-25370
X38669Y-25370
X39669Y-25370
X40669Y-25370
X43780Y-32756
X43780Y-33756
X43780Y-34756
X43780Y-35756
X43780Y-36756
X43693Y-43358
X44693Y-43358
X43780Y-25591
X43780Y-26591
X43780Y-27591
X43780Y-28591
T0
M30
