M48
INCH,TZ
T1C0.0157
T2C0.0394
T3C0.0472
%
G90
G05
T1
X62236Y-16339
X62252Y-18303
X62268Y-14272
X62327Y-24299
X62350Y-26705
X63173Y-17433
X63252Y-15382
X64020Y-16323
X64098Y-14366
X64260Y-18402
X64425Y-24382
X64697Y-26669
X65035Y-23043
X65063Y-22079
X65559Y-15386
X65831Y-25583
X66106Y-23276
X66122Y-22539
X66610Y-26752
X66709Y-15402
X67157Y-22461
X67421Y-16339
X67421Y-17028
X67421Y-17028
X67785Y-15600
X67913Y-18898
X68571Y-26000
X68929Y-26839
X69252Y-15531
X69291Y-16929
X69626Y-19124
X70374Y-26256
X70384Y-18524
X70630Y-18890
X70630Y-20331
X70965Y-14961
X71461Y-25886
X71555Y-14370
X71555Y-15748
X71642Y-26866
T2
X66457Y-16307
X66457Y-17307
X66457Y-18307
X65014Y-14547
X66014Y-14547
X65020Y-16319
X65020Y-17319
X65020Y-18319
X67665Y-14547
X68665Y-14547
X69665Y-14547
T3
X70925Y-16378
X70925Y-17756
T2
G00X63362Y-23079
M15
G01X64150Y-23079
M16
G05
G00X63362Y-25441
M15
G01X64150Y-25441
M16
G05
G00X65606Y-24654
M15
G01X65606Y-23866
M16
G05
T0
M30
