%TF.GenerationSoftware,KiCad,Pcbnew,(5.1.6-0-10_14)*%
%TF.CreationDate,2021-10-07T10:19:15+09:00*%
%TF.ProjectId,peltier,70656c74-6965-4722-9e6b-696361645f70,rev?*%
%TF.SameCoordinates,Original*%
%TF.FileFunction,Paste,Top*%
%TF.FilePolarity,Positive*%
%FSLAX46Y46*%
G04 Gerber Fmt 4.6, Leading zero omitted, Abs format (unit mm)*
G04 Created by KiCad (PCBNEW (5.1.6-0-10_14)) date 2021-10-07 10:19:15*
%MOMM*%
%LPD*%
G01*
G04 APERTURE LIST*
%ADD10C,0.100000*%
%ADD11R,0.250000X0.450000*%
%ADD12R,0.450000X0.250000*%
%ADD13R,0.450000X1.450000*%
%ADD14R,0.400000X1.450000*%
%ADD15R,4.100000X4.100000*%
G04 APERTURE END LIST*
D10*
%TO.C,U1*%
G36*
X172300000Y-54750000D02*
G01*
X172300000Y-54450000D01*
X172500000Y-54450000D01*
X172500000Y-54750000D01*
X172300000Y-54750000D01*
G37*
G36*
X172300000Y-55250000D02*
G01*
X172300000Y-54950000D01*
X172500000Y-54950000D01*
X172500000Y-55250000D01*
X172300000Y-55250000D01*
G37*
G36*
X172300000Y-54750000D02*
G01*
X172300000Y-54450000D01*
X172500000Y-54450000D01*
X172500000Y-54750000D01*
X172300000Y-54750000D01*
G37*
G36*
X173200000Y-54750000D02*
G01*
X173200000Y-54450000D01*
X173400000Y-54450000D01*
X173400000Y-54750000D01*
X173200000Y-54750000D01*
G37*
G36*
X173800000Y-55250000D02*
G01*
X173800000Y-54950000D01*
X174000000Y-54950000D01*
X174000000Y-55250000D01*
X173800000Y-55250000D01*
G37*
G36*
X173500000Y-54750000D02*
G01*
X173500000Y-54450000D01*
X173700000Y-54450000D01*
X173700000Y-54750000D01*
X173500000Y-54750000D01*
G37*
G36*
X173500000Y-54750000D02*
G01*
X173500000Y-54450000D01*
X173700000Y-54450000D01*
X173700000Y-54750000D01*
X173500000Y-54750000D01*
G37*
G36*
X173800000Y-54750000D02*
G01*
X173800000Y-54450000D01*
X174000000Y-54450000D01*
X174000000Y-54750000D01*
X173800000Y-54750000D01*
G37*
G36*
X173500000Y-55250000D02*
G01*
X173500000Y-54950000D01*
X173700000Y-54950000D01*
X173700000Y-55250000D01*
X173500000Y-55250000D01*
G37*
G36*
X173800000Y-54750000D02*
G01*
X173800000Y-54450000D01*
X174000000Y-54450000D01*
X174000000Y-54750000D01*
X173800000Y-54750000D01*
G37*
G36*
X174100000Y-55250000D02*
G01*
X174100000Y-54950000D01*
X174300000Y-54950000D01*
X174300000Y-55250000D01*
X174100000Y-55250000D01*
G37*
G36*
X174100000Y-54750000D02*
G01*
X174100000Y-54450000D01*
X174300000Y-54450000D01*
X174300000Y-54750000D01*
X174100000Y-54750000D01*
G37*
G36*
X174100000Y-54750000D02*
G01*
X174100000Y-54450000D01*
X174300000Y-54450000D01*
X174300000Y-54750000D01*
X174100000Y-54750000D01*
G37*
G36*
X173200000Y-55250000D02*
G01*
X173200000Y-54950000D01*
X173400000Y-54950000D01*
X173400000Y-55250000D01*
X173200000Y-55250000D01*
G37*
G36*
X172900000Y-54750000D02*
G01*
X172900000Y-54450000D01*
X173100000Y-54450000D01*
X173100000Y-54750000D01*
X172900000Y-54750000D01*
G37*
G36*
X172900000Y-54750000D02*
G01*
X172900000Y-54450000D01*
X173100000Y-54450000D01*
X173100000Y-54750000D01*
X172900000Y-54750000D01*
G37*
G36*
X173200000Y-54750000D02*
G01*
X173200000Y-54450000D01*
X173400000Y-54450000D01*
X173400000Y-54750000D01*
X173200000Y-54750000D01*
G37*
G36*
X172900000Y-55250000D02*
G01*
X172900000Y-54950000D01*
X173100000Y-54950000D01*
X173100000Y-55250000D01*
X172900000Y-55250000D01*
G37*
G36*
X172600000Y-54750000D02*
G01*
X172600000Y-54450000D01*
X172800000Y-54450000D01*
X172800000Y-54750000D01*
X172600000Y-54750000D01*
G37*
G36*
X172600000Y-55250000D02*
G01*
X172600000Y-54950000D01*
X172800000Y-54950000D01*
X172800000Y-55250000D01*
X172600000Y-55250000D01*
G37*
G36*
X172600000Y-54750000D02*
G01*
X172600000Y-54450000D01*
X172800000Y-54450000D01*
X172800000Y-54750000D01*
X172600000Y-54750000D01*
G37*
G36*
X174400000Y-54750000D02*
G01*
X174400000Y-54450000D01*
X174600000Y-54450000D01*
X174600000Y-54750000D01*
X174400000Y-54750000D01*
G37*
G36*
X174400000Y-55250000D02*
G01*
X174400000Y-54950000D01*
X174600000Y-54950000D01*
X174600000Y-55250000D01*
X174400000Y-55250000D01*
G37*
G36*
X174400000Y-54750000D02*
G01*
X174400000Y-54450000D01*
X174600000Y-54450000D01*
X174600000Y-54750000D01*
X174400000Y-54750000D01*
G37*
G36*
X173200000Y-53700000D02*
G01*
X173200000Y-53400000D01*
X173400000Y-53400000D01*
X173400000Y-53700000D01*
X173200000Y-53700000D01*
G37*
G36*
X172900000Y-53200000D02*
G01*
X172900000Y-52900000D01*
X173100000Y-52900000D01*
X173100000Y-53200000D01*
X172900000Y-53200000D01*
G37*
G36*
X172900000Y-53200000D02*
G01*
X172900000Y-52900000D01*
X173100000Y-52900000D01*
X173100000Y-53200000D01*
X172900000Y-53200000D01*
G37*
G36*
X173200000Y-53200000D02*
G01*
X173200000Y-52900000D01*
X173400000Y-52900000D01*
X173400000Y-53200000D01*
X173200000Y-53200000D01*
G37*
G36*
X172900000Y-53700000D02*
G01*
X172900000Y-53400000D01*
X173100000Y-53400000D01*
X173100000Y-53700000D01*
X172900000Y-53700000D01*
G37*
G36*
X172600000Y-53200000D02*
G01*
X172600000Y-52900000D01*
X172800000Y-52900000D01*
X172800000Y-53200000D01*
X172600000Y-53200000D01*
G37*
G36*
X172600000Y-53700000D02*
G01*
X172600000Y-53400000D01*
X172800000Y-53400000D01*
X172800000Y-53700000D01*
X172600000Y-53700000D01*
G37*
G36*
X172600000Y-53200000D02*
G01*
X172600000Y-52900000D01*
X172800000Y-52900000D01*
X172800000Y-53200000D01*
X172600000Y-53200000D01*
G37*
G36*
X172300000Y-53200000D02*
G01*
X172300000Y-52900000D01*
X172500000Y-52900000D01*
X172500000Y-53200000D01*
X172300000Y-53200000D01*
G37*
G36*
X172300000Y-53700000D02*
G01*
X172300000Y-53400000D01*
X172500000Y-53400000D01*
X172500000Y-53700000D01*
X172300000Y-53700000D01*
G37*
G36*
X172300000Y-53200000D02*
G01*
X172300000Y-52900000D01*
X172500000Y-52900000D01*
X172500000Y-53200000D01*
X172300000Y-53200000D01*
G37*
G36*
X173200000Y-53200000D02*
G01*
X173200000Y-52900000D01*
X173400000Y-52900000D01*
X173400000Y-53200000D01*
X173200000Y-53200000D01*
G37*
G36*
X173800000Y-53700000D02*
G01*
X173800000Y-53400000D01*
X174000000Y-53400000D01*
X174000000Y-53700000D01*
X173800000Y-53700000D01*
G37*
G36*
X173500000Y-53200000D02*
G01*
X173500000Y-52900000D01*
X173700000Y-52900000D01*
X173700000Y-53200000D01*
X173500000Y-53200000D01*
G37*
G36*
X173500000Y-53200000D02*
G01*
X173500000Y-52900000D01*
X173700000Y-52900000D01*
X173700000Y-53200000D01*
X173500000Y-53200000D01*
G37*
G36*
X173800000Y-53200000D02*
G01*
X173800000Y-52900000D01*
X174000000Y-52900000D01*
X174000000Y-53200000D01*
X173800000Y-53200000D01*
G37*
G36*
X173500000Y-53700000D02*
G01*
X173500000Y-53400000D01*
X173700000Y-53400000D01*
X173700000Y-53700000D01*
X173500000Y-53700000D01*
G37*
G36*
X173800000Y-53200000D02*
G01*
X173800000Y-52900000D01*
X174000000Y-52900000D01*
X174000000Y-53200000D01*
X173800000Y-53200000D01*
G37*
G36*
X174100000Y-53700000D02*
G01*
X174100000Y-53400000D01*
X174300000Y-53400000D01*
X174300000Y-53700000D01*
X174100000Y-53700000D01*
G37*
G36*
X174100000Y-53200000D02*
G01*
X174100000Y-52900000D01*
X174300000Y-52900000D01*
X174300000Y-53200000D01*
X174100000Y-53200000D01*
G37*
G36*
X174100000Y-53200000D02*
G01*
X174100000Y-52900000D01*
X174300000Y-52900000D01*
X174300000Y-53200000D01*
X174100000Y-53200000D01*
G37*
G36*
X174400000Y-53700000D02*
G01*
X174400000Y-53400000D01*
X174600000Y-53400000D01*
X174600000Y-53700000D01*
X174400000Y-53700000D01*
G37*
G36*
X174400000Y-53200000D02*
G01*
X174400000Y-52900000D01*
X174600000Y-52900000D01*
X174600000Y-53200000D01*
X174400000Y-53200000D01*
G37*
G36*
X174400000Y-53200000D02*
G01*
X174400000Y-52900000D01*
X174600000Y-52900000D01*
X174600000Y-53200000D01*
X174400000Y-53200000D01*
G37*
%TD*%
D11*
%TO.C,U1*%
X174750000Y-52180000D03*
X174250000Y-52180000D03*
X173750000Y-52180000D03*
X173250000Y-52180000D03*
X172750000Y-52180000D03*
X172250000Y-52180000D03*
D12*
X171680000Y-52750000D03*
X171680000Y-53250000D03*
X171680000Y-53750000D03*
X171680000Y-54750000D03*
X171680000Y-55250000D03*
D11*
X172250000Y-55820000D03*
X172750000Y-55820000D03*
X173250000Y-55820000D03*
X173750000Y-55820000D03*
X174250000Y-55820000D03*
X174750000Y-55820000D03*
D12*
X175320000Y-55250000D03*
X175320000Y-54750000D03*
X175320000Y-54250000D03*
X175320000Y-53750000D03*
X175320000Y-53250000D03*
X175320000Y-52750000D03*
%TD*%
%TO.C,C1*%
G36*
G01*
X177475000Y-53625000D02*
X176525000Y-53625000D01*
G75*
G02*
X176275000Y-53375000I0J250000D01*
G01*
X176275000Y-52700000D01*
G75*
G02*
X176525000Y-52450000I250000J0D01*
G01*
X177475000Y-52450000D01*
G75*
G02*
X177725000Y-52700000I0J-250000D01*
G01*
X177725000Y-53375000D01*
G75*
G02*
X177475000Y-53625000I-250000J0D01*
G01*
G37*
G36*
G01*
X177475000Y-51550000D02*
X176525000Y-51550000D01*
G75*
G02*
X176275000Y-51300000I0J250000D01*
G01*
X176275000Y-50625000D01*
G75*
G02*
X176525000Y-50375000I250000J0D01*
G01*
X177475000Y-50375000D01*
G75*
G02*
X177725000Y-50625000I0J-250000D01*
G01*
X177725000Y-51300000D01*
G75*
G02*
X177475000Y-51550000I-250000J0D01*
G01*
G37*
%TD*%
%TO.C,C2*%
G36*
G01*
X175475000Y-51125000D02*
X174525000Y-51125000D01*
G75*
G02*
X174275000Y-50875000I0J250000D01*
G01*
X174275000Y-50200000D01*
G75*
G02*
X174525000Y-49950000I250000J0D01*
G01*
X175475000Y-49950000D01*
G75*
G02*
X175725000Y-50200000I0J-250000D01*
G01*
X175725000Y-50875000D01*
G75*
G02*
X175475000Y-51125000I-250000J0D01*
G01*
G37*
G36*
G01*
X175475000Y-49050000D02*
X174525000Y-49050000D01*
G75*
G02*
X174275000Y-48800000I0J250000D01*
G01*
X174275000Y-48125000D01*
G75*
G02*
X174525000Y-47875000I250000J0D01*
G01*
X175475000Y-47875000D01*
G75*
G02*
X175725000Y-48125000I0J-250000D01*
G01*
X175725000Y-48800000D01*
G75*
G02*
X175475000Y-49050000I-250000J0D01*
G01*
G37*
%TD*%
%TO.C,C3*%
G36*
G01*
X177475000Y-55412500D02*
X177475000Y-55887500D01*
G75*
G02*
X177237500Y-56125000I-237500J0D01*
G01*
X176637500Y-56125000D01*
G75*
G02*
X176400000Y-55887500I0J237500D01*
G01*
X176400000Y-55412500D01*
G75*
G02*
X176637500Y-55175000I237500J0D01*
G01*
X177237500Y-55175000D01*
G75*
G02*
X177475000Y-55412500I0J-237500D01*
G01*
G37*
G36*
G01*
X179200000Y-55412500D02*
X179200000Y-55887500D01*
G75*
G02*
X178962500Y-56125000I-237500J0D01*
G01*
X178362500Y-56125000D01*
G75*
G02*
X178125000Y-55887500I0J237500D01*
G01*
X178125000Y-55412500D01*
G75*
G02*
X178362500Y-55175000I237500J0D01*
G01*
X178962500Y-55175000D01*
G75*
G02*
X179200000Y-55412500I0J-237500D01*
G01*
G37*
%TD*%
%TO.C,C4*%
G36*
G01*
X169762500Y-52800000D02*
X170237500Y-52800000D01*
G75*
G02*
X170475000Y-53037500I0J-237500D01*
G01*
X170475000Y-53637500D01*
G75*
G02*
X170237500Y-53875000I-237500J0D01*
G01*
X169762500Y-53875000D01*
G75*
G02*
X169525000Y-53637500I0J237500D01*
G01*
X169525000Y-53037500D01*
G75*
G02*
X169762500Y-52800000I237500J0D01*
G01*
G37*
G36*
G01*
X169762500Y-54525000D02*
X170237500Y-54525000D01*
G75*
G02*
X170475000Y-54762500I0J-237500D01*
G01*
X170475000Y-55362500D01*
G75*
G02*
X170237500Y-55600000I-237500J0D01*
G01*
X169762500Y-55600000D01*
G75*
G02*
X169525000Y-55362500I0J237500D01*
G01*
X169525000Y-54762500D01*
G75*
G02*
X169762500Y-54525000I237500J0D01*
G01*
G37*
%TD*%
%TO.C,R2*%
G36*
G01*
X170187500Y-52100000D02*
X169712500Y-52100000D01*
G75*
G02*
X169475000Y-51862500I0J237500D01*
G01*
X169475000Y-51362500D01*
G75*
G02*
X169712500Y-51125000I237500J0D01*
G01*
X170187500Y-51125000D01*
G75*
G02*
X170425000Y-51362500I0J-237500D01*
G01*
X170425000Y-51862500D01*
G75*
G02*
X170187500Y-52100000I-237500J0D01*
G01*
G37*
G36*
G01*
X170187500Y-50275000D02*
X169712500Y-50275000D01*
G75*
G02*
X169475000Y-50037500I0J237500D01*
G01*
X169475000Y-49537500D01*
G75*
G02*
X169712500Y-49300000I237500J0D01*
G01*
X170187500Y-49300000D01*
G75*
G02*
X170425000Y-49537500I0J-237500D01*
G01*
X170425000Y-50037500D01*
G75*
G02*
X170187500Y-50275000I-237500J0D01*
G01*
G37*
%TD*%
%TO.C,R3*%
G36*
G01*
X173387500Y-49275000D02*
X172912500Y-49275000D01*
G75*
G02*
X172675000Y-49037500I0J237500D01*
G01*
X172675000Y-48537500D01*
G75*
G02*
X172912500Y-48300000I237500J0D01*
G01*
X173387500Y-48300000D01*
G75*
G02*
X173625000Y-48537500I0J-237500D01*
G01*
X173625000Y-49037500D01*
G75*
G02*
X173387500Y-49275000I-237500J0D01*
G01*
G37*
G36*
G01*
X173387500Y-51100000D02*
X172912500Y-51100000D01*
G75*
G02*
X172675000Y-50862500I0J237500D01*
G01*
X172675000Y-50362500D01*
G75*
G02*
X172912500Y-50125000I237500J0D01*
G01*
X173387500Y-50125000D01*
G75*
G02*
X173625000Y-50362500I0J-237500D01*
G01*
X173625000Y-50862500D01*
G75*
G02*
X173387500Y-51100000I-237500J0D01*
G01*
G37*
%TD*%
D13*
%TO.C,U2*%
X175000000Y-45500000D03*
D14*
X174325000Y-45500000D03*
X173675000Y-45500000D03*
D13*
X173000000Y-45500000D03*
X173000000Y-41100000D03*
D14*
X173675000Y-41100000D03*
X174325000Y-41100000D03*
D13*
X175000000Y-41100000D03*
%TD*%
%TO.C,C5*%
G36*
G01*
X166049999Y-51225000D02*
X168250001Y-51225000D01*
G75*
G02*
X168500000Y-51474999I0J-249999D01*
G01*
X168500000Y-52300001D01*
G75*
G02*
X168250001Y-52550000I-249999J0D01*
G01*
X166049999Y-52550000D01*
G75*
G02*
X165800000Y-52300001I0J249999D01*
G01*
X165800000Y-51474999D01*
G75*
G02*
X166049999Y-51225000I249999J0D01*
G01*
G37*
G36*
G01*
X166049999Y-54350000D02*
X168250001Y-54350000D01*
G75*
G02*
X168500000Y-54599999I0J-249999D01*
G01*
X168500000Y-55425001D01*
G75*
G02*
X168250001Y-55675000I-249999J0D01*
G01*
X166049999Y-55675000D01*
G75*
G02*
X165800000Y-55425001I0J249999D01*
G01*
X165800000Y-54599999D01*
G75*
G02*
X166049999Y-54350000I249999J0D01*
G01*
G37*
%TD*%
%TO.C,C6*%
G36*
G01*
X183225000Y-52149999D02*
X183225000Y-54350001D01*
G75*
G02*
X182975001Y-54600000I-249999J0D01*
G01*
X182149999Y-54600000D01*
G75*
G02*
X181900000Y-54350001I0J249999D01*
G01*
X181900000Y-52149999D01*
G75*
G02*
X182149999Y-51900000I249999J0D01*
G01*
X182975001Y-51900000D01*
G75*
G02*
X183225000Y-52149999I0J-249999D01*
G01*
G37*
G36*
G01*
X180100000Y-52149999D02*
X180100000Y-54350001D01*
G75*
G02*
X179850001Y-54600000I-249999J0D01*
G01*
X179024999Y-54600000D01*
G75*
G02*
X178775000Y-54350001I0J249999D01*
G01*
X178775000Y-52149999D01*
G75*
G02*
X179024999Y-51900000I249999J0D01*
G01*
X179850001Y-51900000D01*
G75*
G02*
X180100000Y-52149999I0J-249999D01*
G01*
G37*
%TD*%
%TO.C,C8*%
G36*
G01*
X180084999Y-48774998D02*
X180084999Y-50975000D01*
G75*
G02*
X179835000Y-51224999I-249999J0D01*
G01*
X179009998Y-51224999D01*
G75*
G02*
X178759999Y-50975000I0J249999D01*
G01*
X178759999Y-48774998D01*
G75*
G02*
X179009998Y-48524999I249999J0D01*
G01*
X179835000Y-48524999D01*
G75*
G02*
X180084999Y-48774998I0J-249999D01*
G01*
G37*
G36*
G01*
X183209999Y-48774998D02*
X183209999Y-50975000D01*
G75*
G02*
X182960000Y-51224999I-249999J0D01*
G01*
X182134998Y-51224999D01*
G75*
G02*
X181884999Y-50975000I0J249999D01*
G01*
X181884999Y-48774998D01*
G75*
G02*
X182134998Y-48524999I249999J0D01*
G01*
X182960000Y-48524999D01*
G75*
G02*
X183209999Y-48774998I0J-249999D01*
G01*
G37*
%TD*%
D15*
%TO.C,L1*%
X171710000Y-62370000D03*
X181210000Y-62370000D03*
%TD*%
M02*
