G04 #@! TF.GenerationSoftware,KiCad,Pcbnew,(5.1.6-0-10_14)*
G04 #@! TF.CreationDate,2021-06-29T11:57:39+09:00*
G04 #@! TF.ProjectId,qPCR-photosensing,71504352-2d70-4686-9f74-6f73656e7369,rev?*
G04 #@! TF.SameCoordinates,Original*
G04 #@! TF.FileFunction,Legend,Top*
G04 #@! TF.FilePolarity,Positive*
%FSLAX46Y46*%
G04 Gerber Fmt 4.6, Leading zero omitted, Abs format (unit mm)*
G04 Created by KiCad (PCBNEW (5.1.6-0-10_14)) date 2021-06-29 11:57:39*
%MOMM*%
%LPD*%
G01*
G04 APERTURE LIST*
%ADD10C,0.150000*%
%ADD11C,0.300000*%
%ADD12C,0.120000*%
%ADD13C,0.100000*%
%ADD14C,0.200000*%
%ADD15C,0.127000*%
%ADD16C,0.152400*%
%ADD17C,0.015000*%
G04 APERTURE END LIST*
D10*
X146661904Y-106302380D02*
X147233333Y-106302380D01*
X146947619Y-107302380D02*
X146947619Y-106302380D01*
X147566666Y-107302380D02*
X147566666Y-106302380D01*
X147566666Y-106778571D02*
X148138095Y-106778571D01*
X148138095Y-107302380D02*
X148138095Y-106302380D01*
X148614285Y-106778571D02*
X148947619Y-106778571D01*
X149090476Y-107302380D02*
X148614285Y-107302380D01*
X148614285Y-106302380D01*
X149090476Y-106302380D01*
X150090476Y-107302380D02*
X149757142Y-106826190D01*
X149519047Y-107302380D02*
X149519047Y-106302380D01*
X149900000Y-106302380D01*
X149995238Y-106350000D01*
X150042857Y-106397619D01*
X150090476Y-106492857D01*
X150090476Y-106635714D01*
X150042857Y-106730952D01*
X149995238Y-106778571D01*
X149900000Y-106826190D01*
X149519047Y-106826190D01*
X150519047Y-107302380D02*
X150519047Y-106302380D01*
X150852380Y-107016666D01*
X151185714Y-106302380D01*
X151185714Y-107302380D01*
X151423809Y-107397619D02*
X152185714Y-107397619D01*
X152376190Y-107016666D02*
X152852380Y-107016666D01*
X152280952Y-107302380D02*
X152614285Y-106302380D01*
X152947619Y-107302380D01*
X153280952Y-107302380D02*
X153280952Y-106302380D01*
X154328571Y-107302380D02*
X153995238Y-106826190D01*
X153757142Y-107302380D02*
X153757142Y-106302380D01*
X154138095Y-106302380D01*
X154233333Y-106350000D01*
X154280952Y-106397619D01*
X154328571Y-106492857D01*
X154328571Y-106635714D01*
X154280952Y-106730952D01*
X154233333Y-106778571D01*
X154138095Y-106826190D01*
X153757142Y-106826190D01*
X155471428Y-106254761D02*
X154614285Y-107540476D01*
X155709523Y-106302380D02*
X155947619Y-107302380D01*
X156138095Y-106588095D01*
X156328571Y-107302380D01*
X156566666Y-106302380D01*
X156947619Y-106778571D02*
X157280952Y-106778571D01*
X157423809Y-107302380D02*
X156947619Y-107302380D01*
X156947619Y-106302380D01*
X157423809Y-106302380D01*
X158328571Y-107302380D02*
X157852380Y-107302380D01*
X157852380Y-106302380D01*
X159138095Y-107302380D02*
X158661904Y-107302380D01*
X158661904Y-106302380D01*
D11*
X129707142Y-119638571D02*
X129707142Y-118138571D01*
X129707142Y-118710000D02*
X129850000Y-118638571D01*
X130135714Y-118638571D01*
X130278571Y-118710000D01*
X130350000Y-118781428D01*
X130421428Y-118924285D01*
X130421428Y-119352857D01*
X130350000Y-119495714D01*
X130278571Y-119567142D01*
X130135714Y-119638571D01*
X129850000Y-119638571D01*
X129707142Y-119567142D01*
X131707142Y-119638571D02*
X131707142Y-118852857D01*
X131635714Y-118710000D01*
X131492857Y-118638571D01*
X131207142Y-118638571D01*
X131064285Y-118710000D01*
X131707142Y-119567142D02*
X131564285Y-119638571D01*
X131207142Y-119638571D01*
X131064285Y-119567142D01*
X130992857Y-119424285D01*
X130992857Y-119281428D01*
X131064285Y-119138571D01*
X131207142Y-119067142D01*
X131564285Y-119067142D01*
X131707142Y-118995714D01*
X132207142Y-118638571D02*
X132778571Y-118638571D01*
X132421428Y-118138571D02*
X132421428Y-119424285D01*
X132492857Y-119567142D01*
X132635714Y-119638571D01*
X132778571Y-119638571D01*
X133921428Y-119567142D02*
X133778571Y-119638571D01*
X133492857Y-119638571D01*
X133350000Y-119567142D01*
X133278571Y-119495714D01*
X133207142Y-119352857D01*
X133207142Y-118924285D01*
X133278571Y-118781428D01*
X133350000Y-118710000D01*
X133492857Y-118638571D01*
X133778571Y-118638571D01*
X133921428Y-118710000D01*
X134564285Y-119638571D02*
X134564285Y-118138571D01*
X135207142Y-119638571D02*
X135207142Y-118852857D01*
X135135714Y-118710000D01*
X134992857Y-118638571D01*
X134778571Y-118638571D01*
X134635714Y-118710000D01*
X134564285Y-118781428D01*
X136135714Y-118781428D02*
X135992857Y-118710000D01*
X135921428Y-118638571D01*
X135850000Y-118495714D01*
X135850000Y-118424285D01*
X135921428Y-118281428D01*
X135992857Y-118210000D01*
X136135714Y-118138571D01*
X136421428Y-118138571D01*
X136564285Y-118210000D01*
X136635714Y-118281428D01*
X136707142Y-118424285D01*
X136707142Y-118495714D01*
X136635714Y-118638571D01*
X136564285Y-118710000D01*
X136421428Y-118781428D01*
X136135714Y-118781428D01*
X135992857Y-118852857D01*
X135921428Y-118924285D01*
X135850000Y-119067142D01*
X135850000Y-119352857D01*
X135921428Y-119495714D01*
X135992857Y-119567142D01*
X136135714Y-119638571D01*
X136421428Y-119638571D01*
X136564285Y-119567142D01*
X136635714Y-119495714D01*
X136707142Y-119352857D01*
X136707142Y-119067142D01*
X136635714Y-118924285D01*
X136564285Y-118852857D01*
X136421428Y-118781428D01*
X138421428Y-118067142D02*
X137135714Y-119995714D01*
X138921428Y-118638571D02*
X138921428Y-120138571D01*
X138921428Y-118710000D02*
X139064285Y-118638571D01*
X139350000Y-118638571D01*
X139492857Y-118710000D01*
X139564285Y-118781428D01*
X139635714Y-118924285D01*
X139635714Y-119352857D01*
X139564285Y-119495714D01*
X139492857Y-119567142D01*
X139350000Y-119638571D01*
X139064285Y-119638571D01*
X138921428Y-119567142D01*
X140278571Y-119638571D02*
X140278571Y-118138571D01*
X140921428Y-119638571D02*
X140921428Y-118852857D01*
X140850000Y-118710000D01*
X140707142Y-118638571D01*
X140492857Y-118638571D01*
X140350000Y-118710000D01*
X140278571Y-118781428D01*
X141850000Y-119638571D02*
X141707142Y-119567142D01*
X141635714Y-119495714D01*
X141564285Y-119352857D01*
X141564285Y-118924285D01*
X141635714Y-118781428D01*
X141707142Y-118710000D01*
X141850000Y-118638571D01*
X142064285Y-118638571D01*
X142207142Y-118710000D01*
X142278571Y-118781428D01*
X142350000Y-118924285D01*
X142350000Y-119352857D01*
X142278571Y-119495714D01*
X142207142Y-119567142D01*
X142064285Y-119638571D01*
X141850000Y-119638571D01*
X142778571Y-118638571D02*
X143350000Y-118638571D01*
X142992857Y-118138571D02*
X142992857Y-119424285D01*
X143064285Y-119567142D01*
X143207142Y-119638571D01*
X143350000Y-119638571D01*
X144064285Y-119638571D02*
X143921428Y-119567142D01*
X143850000Y-119495714D01*
X143778571Y-119352857D01*
X143778571Y-118924285D01*
X143850000Y-118781428D01*
X143921428Y-118710000D01*
X144064285Y-118638571D01*
X144278571Y-118638571D01*
X144421428Y-118710000D01*
X144492857Y-118781428D01*
X144564285Y-118924285D01*
X144564285Y-119352857D01*
X144492857Y-119495714D01*
X144421428Y-119567142D01*
X144278571Y-119638571D01*
X144064285Y-119638571D01*
X145135714Y-119567142D02*
X145278571Y-119638571D01*
X145564285Y-119638571D01*
X145707142Y-119567142D01*
X145778571Y-119424285D01*
X145778571Y-119352857D01*
X145707142Y-119210000D01*
X145564285Y-119138571D01*
X145350000Y-119138571D01*
X145207142Y-119067142D01*
X145135714Y-118924285D01*
X145135714Y-118852857D01*
X145207142Y-118710000D01*
X145350000Y-118638571D01*
X145564285Y-118638571D01*
X145707142Y-118710000D01*
X146992857Y-119567142D02*
X146850000Y-119638571D01*
X146564285Y-119638571D01*
X146421428Y-119567142D01*
X146350000Y-119424285D01*
X146350000Y-118852857D01*
X146421428Y-118710000D01*
X146564285Y-118638571D01*
X146850000Y-118638571D01*
X146992857Y-118710000D01*
X147064285Y-118852857D01*
X147064285Y-118995714D01*
X146350000Y-119138571D01*
X147707142Y-118638571D02*
X147707142Y-119638571D01*
X147707142Y-118781428D02*
X147778571Y-118710000D01*
X147921428Y-118638571D01*
X148135714Y-118638571D01*
X148278571Y-118710000D01*
X148350000Y-118852857D01*
X148350000Y-119638571D01*
X148992857Y-119567142D02*
X149135714Y-119638571D01*
X149421428Y-119638571D01*
X149564285Y-119567142D01*
X149635714Y-119424285D01*
X149635714Y-119352857D01*
X149564285Y-119210000D01*
X149421428Y-119138571D01*
X149207142Y-119138571D01*
X149064285Y-119067142D01*
X148992857Y-118924285D01*
X148992857Y-118852857D01*
X149064285Y-118710000D01*
X149207142Y-118638571D01*
X149421428Y-118638571D01*
X149564285Y-118710000D01*
X150278571Y-119638571D02*
X150278571Y-118638571D01*
X150278571Y-118138571D02*
X150207142Y-118210000D01*
X150278571Y-118281428D01*
X150350000Y-118210000D01*
X150278571Y-118138571D01*
X150278571Y-118281428D01*
X150992857Y-118638571D02*
X150992857Y-119638571D01*
X150992857Y-118781428D02*
X151064285Y-118710000D01*
X151207142Y-118638571D01*
X151421428Y-118638571D01*
X151564285Y-118710000D01*
X151635714Y-118852857D01*
X151635714Y-119638571D01*
X152992857Y-118638571D02*
X152992857Y-119852857D01*
X152921428Y-119995714D01*
X152850000Y-120067142D01*
X152707142Y-120138571D01*
X152492857Y-120138571D01*
X152350000Y-120067142D01*
X152992857Y-119567142D02*
X152850000Y-119638571D01*
X152564285Y-119638571D01*
X152421428Y-119567142D01*
X152350000Y-119495714D01*
X152278571Y-119352857D01*
X152278571Y-118924285D01*
X152350000Y-118781428D01*
X152421428Y-118710000D01*
X152564285Y-118638571D01*
X152850000Y-118638571D01*
X152992857Y-118710000D01*
X132484285Y-117188571D02*
X132484285Y-115688571D01*
X133055714Y-115688571D01*
X133198571Y-115760000D01*
X133270000Y-115831428D01*
X133341428Y-115974285D01*
X133341428Y-116188571D01*
X133270000Y-116331428D01*
X133198571Y-116402857D01*
X133055714Y-116474285D01*
X132484285Y-116474285D01*
X134555714Y-117117142D02*
X134412857Y-117188571D01*
X134127142Y-117188571D01*
X133984285Y-117117142D01*
X133912857Y-116974285D01*
X133912857Y-116402857D01*
X133984285Y-116260000D01*
X134127142Y-116188571D01*
X134412857Y-116188571D01*
X134555714Y-116260000D01*
X134627142Y-116402857D01*
X134627142Y-116545714D01*
X133912857Y-116688571D01*
X135270000Y-117188571D02*
X135270000Y-116188571D01*
X135270000Y-116474285D02*
X135341428Y-116331428D01*
X135412857Y-116260000D01*
X135555714Y-116188571D01*
X135698571Y-116188571D01*
X136127142Y-117117142D02*
X136270000Y-117188571D01*
X136555714Y-117188571D01*
X136698571Y-117117142D01*
X136770000Y-116974285D01*
X136770000Y-116902857D01*
X136698571Y-116760000D01*
X136555714Y-116688571D01*
X136341428Y-116688571D01*
X136198571Y-116617142D01*
X136127142Y-116474285D01*
X136127142Y-116402857D01*
X136198571Y-116260000D01*
X136341428Y-116188571D01*
X136555714Y-116188571D01*
X136698571Y-116260000D01*
X137627142Y-117188571D02*
X137484285Y-117117142D01*
X137412857Y-117045714D01*
X137341428Y-116902857D01*
X137341428Y-116474285D01*
X137412857Y-116331428D01*
X137484285Y-116260000D01*
X137627142Y-116188571D01*
X137841428Y-116188571D01*
X137984285Y-116260000D01*
X138055714Y-116331428D01*
X138127142Y-116474285D01*
X138127142Y-116902857D01*
X138055714Y-117045714D01*
X137984285Y-117117142D01*
X137841428Y-117188571D01*
X137627142Y-117188571D01*
X138770000Y-116188571D02*
X138770000Y-117188571D01*
X138770000Y-116331428D02*
X138841428Y-116260000D01*
X138984285Y-116188571D01*
X139198571Y-116188571D01*
X139341428Y-116260000D01*
X139412857Y-116402857D01*
X139412857Y-117188571D01*
X140770000Y-117188571D02*
X140770000Y-116402857D01*
X140698571Y-116260000D01*
X140555714Y-116188571D01*
X140270000Y-116188571D01*
X140127142Y-116260000D01*
X140770000Y-117117142D02*
X140627142Y-117188571D01*
X140270000Y-117188571D01*
X140127142Y-117117142D01*
X140055714Y-116974285D01*
X140055714Y-116831428D01*
X140127142Y-116688571D01*
X140270000Y-116617142D01*
X140627142Y-116617142D01*
X140770000Y-116545714D01*
X141698571Y-117188571D02*
X141555714Y-117117142D01*
X141484285Y-116974285D01*
X141484285Y-115688571D01*
X144055714Y-116188571D02*
X144055714Y-117688571D01*
X144055714Y-117117142D02*
X143912857Y-117188571D01*
X143627142Y-117188571D01*
X143484285Y-117117142D01*
X143412857Y-117045714D01*
X143341428Y-116902857D01*
X143341428Y-116474285D01*
X143412857Y-116331428D01*
X143484285Y-116260000D01*
X143627142Y-116188571D01*
X143912857Y-116188571D01*
X144055714Y-116260000D01*
X144770000Y-117188571D02*
X144770000Y-115688571D01*
X145341428Y-115688571D01*
X145484285Y-115760000D01*
X145555714Y-115831428D01*
X145627142Y-115974285D01*
X145627142Y-116188571D01*
X145555714Y-116331428D01*
X145484285Y-116402857D01*
X145341428Y-116474285D01*
X144770000Y-116474285D01*
X147127142Y-117045714D02*
X147055714Y-117117142D01*
X146841428Y-117188571D01*
X146698571Y-117188571D01*
X146484285Y-117117142D01*
X146341428Y-116974285D01*
X146270000Y-116831428D01*
X146198571Y-116545714D01*
X146198571Y-116331428D01*
X146270000Y-116045714D01*
X146341428Y-115902857D01*
X146484285Y-115760000D01*
X146698571Y-115688571D01*
X146841428Y-115688571D01*
X147055714Y-115760000D01*
X147127142Y-115831428D01*
X148627142Y-117188571D02*
X148127142Y-116474285D01*
X147770000Y-117188571D02*
X147770000Y-115688571D01*
X148341428Y-115688571D01*
X148484285Y-115760000D01*
X148555714Y-115831428D01*
X148627142Y-115974285D01*
X148627142Y-116188571D01*
X148555714Y-116331428D01*
X148484285Y-116402857D01*
X148341428Y-116474285D01*
X147770000Y-116474285D01*
X137680000Y-114558571D02*
X137680000Y-113058571D01*
X138537142Y-114558571D01*
X138537142Y-113058571D01*
X139251428Y-114558571D02*
X139251428Y-113558571D01*
X139251428Y-113058571D02*
X139180000Y-113130000D01*
X139251428Y-113201428D01*
X139322857Y-113130000D01*
X139251428Y-113058571D01*
X139251428Y-113201428D01*
X139965714Y-113558571D02*
X139965714Y-114558571D01*
X139965714Y-113701428D02*
X140037142Y-113630000D01*
X140180000Y-113558571D01*
X140394285Y-113558571D01*
X140537142Y-113630000D01*
X140608571Y-113772857D01*
X140608571Y-114558571D01*
X141322857Y-113558571D02*
X141322857Y-114844285D01*
X141251428Y-114987142D01*
X141108571Y-115058571D01*
X141037142Y-115058571D01*
X141322857Y-113058571D02*
X141251428Y-113130000D01*
X141322857Y-113201428D01*
X141394285Y-113130000D01*
X141322857Y-113058571D01*
X141322857Y-113201428D01*
X142680000Y-114558571D02*
X142680000Y-113772857D01*
X142608571Y-113630000D01*
X142465714Y-113558571D01*
X142180000Y-113558571D01*
X142037142Y-113630000D01*
X142680000Y-114487142D02*
X142537142Y-114558571D01*
X142180000Y-114558571D01*
X142037142Y-114487142D01*
X141965714Y-114344285D01*
X141965714Y-114201428D01*
X142037142Y-114058571D01*
X142180000Y-113987142D01*
X142537142Y-113987142D01*
X142680000Y-113915714D01*
D10*
X95742857Y-68328571D02*
X95409523Y-68328571D01*
X95409523Y-68852380D02*
X95409523Y-67852380D01*
X95885714Y-67852380D01*
X96600000Y-68328571D02*
X96742857Y-68376190D01*
X96790476Y-68423809D01*
X96838095Y-68519047D01*
X96838095Y-68661904D01*
X96790476Y-68757142D01*
X96742857Y-68804761D01*
X96647619Y-68852380D01*
X96266666Y-68852380D01*
X96266666Y-67852380D01*
X96600000Y-67852380D01*
X96695238Y-67900000D01*
X96742857Y-67947619D01*
X96790476Y-68042857D01*
X96790476Y-68138095D01*
X96742857Y-68233333D01*
X96695238Y-68280952D01*
X96600000Y-68328571D01*
X96266666Y-68328571D01*
X83105238Y-124232380D02*
X83105238Y-123232380D01*
X83486190Y-123232380D01*
X83581428Y-123280000D01*
X83629047Y-123327619D01*
X83676666Y-123422857D01*
X83676666Y-123565714D01*
X83629047Y-123660952D01*
X83581428Y-123708571D01*
X83486190Y-123756190D01*
X83105238Y-123756190D01*
X84010000Y-123232380D02*
X84248095Y-124232380D01*
X84438571Y-123518095D01*
X84629047Y-124232380D01*
X84867142Y-123232380D01*
X85248095Y-124232380D02*
X85248095Y-123232380D01*
X85581428Y-123946666D01*
X85914761Y-123232380D01*
X85914761Y-124232380D01*
X87697619Y-124232380D02*
X87697619Y-123232380D01*
X88173809Y-124232380D02*
X88173809Y-123232380D01*
X88745238Y-124232380D01*
X88745238Y-123232380D01*
X89078571Y-123232380D02*
X89411904Y-124232380D01*
X89745238Y-123232380D01*
X98853333Y-103332380D02*
X99424761Y-103332380D01*
X99139047Y-104332380D02*
X99139047Y-103332380D01*
X99758095Y-104332380D02*
X99758095Y-103332380D01*
X99758095Y-103808571D02*
X100329523Y-103808571D01*
X100329523Y-104332380D02*
X100329523Y-103332380D01*
X100805714Y-103808571D02*
X101139047Y-103808571D01*
X101281904Y-104332380D02*
X100805714Y-104332380D01*
X100805714Y-103332380D01*
X101281904Y-103332380D01*
X102281904Y-104332380D02*
X101948571Y-103856190D01*
X101710476Y-104332380D02*
X101710476Y-103332380D01*
X102091428Y-103332380D01*
X102186666Y-103380000D01*
X102234285Y-103427619D01*
X102281904Y-103522857D01*
X102281904Y-103665714D01*
X102234285Y-103760952D01*
X102186666Y-103808571D01*
X102091428Y-103856190D01*
X101710476Y-103856190D01*
X102710476Y-104332380D02*
X102710476Y-103332380D01*
X103043809Y-104046666D01*
X103377142Y-103332380D01*
X103377142Y-104332380D01*
X103615238Y-104427619D02*
X104377142Y-104427619D01*
X104615238Y-103808571D02*
X104948571Y-103808571D01*
X105091428Y-104332380D02*
X104615238Y-104332380D01*
X104615238Y-103332380D01*
X105091428Y-103332380D01*
X105424761Y-103332380D02*
X106091428Y-104332380D01*
X106091428Y-103332380D02*
X105424761Y-104332380D01*
X106329523Y-103332380D02*
X106900952Y-103332380D01*
X106615238Y-104332380D02*
X106615238Y-103332380D01*
X107758095Y-104332380D02*
X107186666Y-104332380D01*
X107472380Y-104332380D02*
X107472380Y-103332380D01*
X107377142Y-103475238D01*
X107281904Y-103570476D01*
X107186666Y-103618095D01*
X108900952Y-103284761D02*
X108043809Y-104570476D01*
X109186666Y-103427619D02*
X109234285Y-103380000D01*
X109329523Y-103332380D01*
X109567619Y-103332380D01*
X109662857Y-103380000D01*
X109710476Y-103427619D01*
X109758095Y-103522857D01*
X109758095Y-103618095D01*
X109710476Y-103760952D01*
X109139047Y-104332380D01*
X109758095Y-104332380D01*
X110900952Y-103284761D02*
X110043809Y-104570476D01*
X111139047Y-103332380D02*
X111758095Y-103332380D01*
X111424761Y-103713333D01*
X111567619Y-103713333D01*
X111662857Y-103760952D01*
X111710476Y-103808571D01*
X111758095Y-103903809D01*
X111758095Y-104141904D01*
X111710476Y-104237142D01*
X111662857Y-104284761D01*
X111567619Y-104332380D01*
X111281904Y-104332380D01*
X111186666Y-104284761D01*
X111139047Y-104237142D01*
X112900952Y-103284761D02*
X112043809Y-104570476D01*
X113710476Y-104332380D02*
X113234285Y-104332380D01*
X113234285Y-103332380D01*
X114043809Y-104332380D02*
X114043809Y-103332380D01*
X114520000Y-104332380D02*
X114520000Y-103332380D01*
X114758095Y-103332380D01*
X114900952Y-103380000D01*
X114996190Y-103475238D01*
X115043809Y-103570476D01*
X115091428Y-103760952D01*
X115091428Y-103903809D01*
X115043809Y-104094285D01*
X114996190Y-104189523D01*
X114900952Y-104284761D01*
X114758095Y-104332380D01*
X114520000Y-104332380D01*
D12*
X116490000Y-102179500D02*
X116490000Y-99519500D01*
X93570000Y-102179500D02*
X116490000Y-102179500D01*
X93570000Y-99519500D02*
X116490000Y-99519500D01*
X93570000Y-102179500D02*
X93570000Y-99519500D01*
X92300000Y-102179500D02*
X90970000Y-102179500D01*
X90970000Y-102179500D02*
X90970000Y-100849500D01*
D13*
G36*
X113065600Y-117934501D02*
G01*
X113065600Y-118315501D01*
X112811600Y-118315501D01*
X112811600Y-117934501D01*
X113065600Y-117934501D01*
G37*
X113065600Y-117934501D02*
X113065600Y-118315501D01*
X112811600Y-118315501D01*
X112811600Y-117934501D01*
X113065600Y-117934501D01*
D12*
X110563811Y-113947300D02*
X107236189Y-113947300D01*
X107236189Y-119052700D02*
X110563811Y-119052700D01*
X108595200Y-113947300D02*
G75*
G03*
X109204800Y-113947300I304800J0D01*
G01*
D14*
X93375000Y-86130000D02*
G75*
G03*
X93375000Y-86130000I-100000J0D01*
G01*
D15*
X93500000Y-88555000D02*
X93500000Y-92085000D01*
X88500000Y-92085000D02*
X88500000Y-88555000D01*
D12*
X154130000Y-107540000D02*
X154130000Y-108870000D01*
X152800000Y-107540000D02*
X154130000Y-107540000D01*
X151530000Y-107540000D02*
X151530000Y-110200000D01*
X151530000Y-110200000D02*
X148930000Y-110200000D01*
X151530000Y-107540000D02*
X148930000Y-107540000D01*
X148930000Y-107540000D02*
X148930000Y-110200000D01*
X87400000Y-93220000D02*
X87400000Y-93920000D01*
X86200000Y-93920000D02*
X86200000Y-93220000D01*
X82550000Y-117950000D02*
X82550000Y-106950000D01*
X87050000Y-117950000D02*
X82550000Y-117950000D01*
X87050000Y-106150000D02*
X87050000Y-117950000D01*
X83350000Y-106150000D02*
X87050000Y-106150000D01*
X82550000Y-106950000D02*
X83350000Y-106150000D01*
X80200000Y-82270000D02*
X80200000Y-80270000D01*
X83000000Y-82270000D02*
X80200000Y-82270000D01*
X83000000Y-80270000D02*
X83000000Y-82270000D01*
X80200000Y-80270000D02*
X83000000Y-80270000D01*
X86320000Y-78650000D02*
X86320000Y-77650000D01*
X87680000Y-77650000D02*
X87680000Y-78650000D01*
X85070000Y-76910000D02*
X85070000Y-79460000D01*
X81870000Y-76910000D02*
X85070000Y-76910000D01*
X81870000Y-79410000D02*
X81870000Y-76910000D01*
X85070000Y-79410000D02*
X81870000Y-79410000D01*
X85550000Y-74900000D02*
X86250000Y-74900000D01*
X86250000Y-76100000D02*
X85550000Y-76100000D01*
X89450000Y-73700000D02*
X89450000Y-72700000D01*
X87750000Y-72700000D02*
X87750000Y-73700000D01*
X94400000Y-75700000D02*
X95400000Y-75700000D01*
X95400000Y-74000000D02*
X94400000Y-74000000D01*
X107096000Y-80230000D02*
X107096000Y-79530000D01*
X108296000Y-79530000D02*
X108296000Y-80230000D01*
X108296000Y-75850000D02*
X108296000Y-76550000D01*
X107096000Y-76550000D02*
X107096000Y-75850000D01*
X100750000Y-80100000D02*
X100050000Y-80100000D01*
X100050000Y-78900000D02*
X100750000Y-78900000D01*
X82720000Y-71960000D02*
X82720000Y-71260000D01*
X83920000Y-71260000D02*
X83920000Y-71960000D01*
X83700000Y-67800000D02*
X82700000Y-67800000D01*
X82700000Y-69500000D02*
X83700000Y-69500000D01*
X83000000Y-61220000D02*
X85000000Y-61220000D01*
X85000000Y-59180000D02*
X83000000Y-59180000D01*
X91750000Y-61530000D02*
X89750000Y-61530000D01*
X89750000Y-63570000D02*
X91750000Y-63570000D01*
X87650000Y-67250000D02*
X87650000Y-68250000D01*
X89350000Y-68250000D02*
X89350000Y-67250000D01*
X89430000Y-65750000D02*
X89430000Y-67750000D01*
X91470000Y-67750000D02*
X91470000Y-65750000D01*
X91520000Y-68150000D02*
X91520000Y-67150000D01*
X92880000Y-67150000D02*
X92880000Y-68150000D01*
X90970000Y-52480500D02*
X90970000Y-51150500D01*
X92300000Y-52480500D02*
X90970000Y-52480500D01*
X93570000Y-52480500D02*
X93570000Y-49820500D01*
X93570000Y-49820500D02*
X116490000Y-49820500D01*
X93570000Y-52480500D02*
X116490000Y-52480500D01*
X116490000Y-52480500D02*
X116490000Y-49820500D01*
X92700000Y-65500000D02*
X93000000Y-65200000D01*
X92700000Y-64900000D02*
X92700000Y-65500000D01*
X93000000Y-65200000D02*
X92700000Y-64900000D01*
X93250000Y-63850000D02*
X95200000Y-63850000D01*
X93250000Y-69350000D02*
X93250000Y-63850000D01*
X95200000Y-69350000D02*
X93250000Y-69350000D01*
X95200000Y-63850000D02*
X95200000Y-69350000D01*
X83800000Y-120500000D02*
X89300000Y-120500000D01*
X89300000Y-120500000D02*
X89300000Y-122450000D01*
X89300000Y-122450000D02*
X83800000Y-122450000D01*
X83800000Y-122450000D02*
X83800000Y-120500000D01*
X85150000Y-122700000D02*
X84850000Y-123000000D01*
X84850000Y-123000000D02*
X85450000Y-123000000D01*
X85450000Y-123000000D02*
X85150000Y-122700000D01*
X99085000Y-112730000D02*
X101885000Y-112730000D01*
X101885000Y-112730000D02*
X101885000Y-114730000D01*
X101885000Y-114730000D02*
X99085000Y-114730000D01*
X99085000Y-114730000D02*
X99085000Y-112730000D01*
X89620000Y-74100000D02*
X89620000Y-73100000D01*
X90980000Y-73100000D02*
X90980000Y-74100000D01*
X97420000Y-81300000D02*
X97420000Y-80300000D01*
X98780000Y-80300000D02*
X98780000Y-81300000D01*
X105230000Y-75020000D02*
X104230000Y-75020000D01*
X104230000Y-73660000D02*
X105230000Y-73660000D01*
X92080000Y-108500000D02*
X92080000Y-109500000D01*
X90720000Y-109500000D02*
X90720000Y-108500000D01*
D16*
X89490000Y-77065499D02*
X89236000Y-77065499D01*
X89490000Y-76684499D02*
X89490000Y-77065499D01*
X89236000Y-76684499D02*
X89490000Y-76684499D01*
X89236000Y-77065499D02*
X89236000Y-76684499D01*
X91460576Y-81179700D02*
X95139424Y-81179700D01*
X95139424Y-75820300D02*
X91460576Y-75820300D01*
D14*
X105255000Y-84595000D02*
G75*
G03*
X105255000Y-84595000I-100000J0D01*
G01*
D15*
X105235000Y-87350000D02*
X105235000Y-92650000D01*
X96965000Y-87350000D02*
X96965000Y-92650000D01*
X82620001Y-65610001D02*
X85620001Y-65610001D01*
X82620001Y-62540001D02*
X85620001Y-62540001D01*
D14*
X80700001Y-62820001D02*
G75*
G03*
X80700001Y-62820001I-100000J0D01*
G01*
D16*
X80953000Y-105767000D02*
X84207000Y-105767000D01*
X84207000Y-102513000D02*
X80953000Y-102513000D01*
D15*
X105235000Y-68550000D02*
X105235000Y-63250000D01*
X96965000Y-68550000D02*
X96965000Y-63250000D01*
D14*
X97145000Y-71305000D02*
G75*
G03*
X97145000Y-71305000I-100000J0D01*
G01*
D12*
X105370000Y-110400000D02*
X104040000Y-110400000D01*
X105370000Y-109070000D02*
X105370000Y-110400000D01*
X105370000Y-107800000D02*
X102710000Y-107800000D01*
X102710000Y-107800000D02*
X102710000Y-105200000D01*
X105370000Y-107800000D02*
X105370000Y-105200000D01*
X105370000Y-105200000D02*
X102710000Y-105200000D01*
X107910000Y-105200000D02*
X105250000Y-105200000D01*
X107910000Y-107800000D02*
X107910000Y-105200000D01*
X105250000Y-107800000D02*
X105250000Y-105200000D01*
X107910000Y-107800000D02*
X105250000Y-107800000D01*
X107910000Y-109070000D02*
X107910000Y-110400000D01*
X107910000Y-110400000D02*
X106580000Y-110400000D01*
X110450000Y-110400000D02*
X109120000Y-110400000D01*
X110450000Y-109070000D02*
X110450000Y-110400000D01*
X110450000Y-107800000D02*
X107790000Y-107800000D01*
X107790000Y-107800000D02*
X107790000Y-105200000D01*
X110450000Y-107800000D02*
X110450000Y-105200000D01*
X110450000Y-105200000D02*
X107790000Y-105200000D01*
X112990000Y-105200000D02*
X110330000Y-105200000D01*
X112990000Y-107800000D02*
X112990000Y-105200000D01*
X110330000Y-107800000D02*
X110330000Y-105200000D01*
X112990000Y-107800000D02*
X110330000Y-107800000D01*
X112990000Y-109070000D02*
X112990000Y-110400000D01*
X112990000Y-110400000D02*
X111660000Y-110400000D01*
X155050000Y-107540000D02*
X155050000Y-110200000D01*
X157650000Y-107540000D02*
X155050000Y-107540000D01*
X157650000Y-110200000D02*
X155050000Y-110200000D01*
X157650000Y-107540000D02*
X157650000Y-110200000D01*
X158920000Y-107540000D02*
X160250000Y-107540000D01*
X160250000Y-107540000D02*
X160250000Y-108870000D01*
X81690000Y-83130000D02*
X83020000Y-83130000D01*
X81690000Y-84460000D02*
X81690000Y-83130000D01*
X81690000Y-85730000D02*
X84350000Y-85730000D01*
X84350000Y-85730000D02*
X84350000Y-93410000D01*
X81690000Y-85730000D02*
X81690000Y-93410000D01*
X81690000Y-93410000D02*
X84350000Y-93410000D01*
X82400000Y-66500000D02*
X83100000Y-66500000D01*
X83100000Y-67700000D02*
X82400000Y-67700000D01*
X84500000Y-57150000D02*
X83500000Y-57150000D01*
X83500000Y-58850000D02*
X84500000Y-58850000D01*
X87550000Y-67450000D02*
X87550000Y-68150000D01*
X86350000Y-68150000D02*
X86350000Y-67450000D01*
X89274999Y-61404999D02*
X90274999Y-61404999D01*
X90274999Y-59704999D02*
X89274999Y-59704999D01*
X92050000Y-121600000D02*
X92750000Y-121600000D01*
X92750000Y-122800000D02*
X92050000Y-122800000D01*
X76600000Y-118650000D02*
X76600000Y-119350000D01*
X75400000Y-119350000D02*
X75400000Y-118650000D01*
X91200000Y-84270000D02*
X91900000Y-84270000D01*
X91900000Y-85470000D02*
X91200000Y-85470000D01*
X98790000Y-75500000D02*
X98790000Y-77950000D01*
X102010000Y-77300000D02*
X102010000Y-75500000D01*
X94170500Y-89610429D02*
X94170500Y-90089571D01*
X95110541Y-90548500D02*
X95389459Y-90548500D01*
X96329500Y-90089571D02*
X96329500Y-89610429D01*
X96532658Y-90077222D02*
G75*
G03*
X96634300Y-89850000I-203158J227222D01*
G01*
X90819571Y-117700500D02*
X90340429Y-117700500D01*
X91278500Y-118919459D02*
X91278500Y-118640541D01*
X90340429Y-119859500D02*
X90819571Y-119859500D01*
X90807222Y-117497342D02*
G75*
G03*
X90580000Y-117395700I-227222J-203158D01*
G01*
X106200000Y-78560000D02*
X106200000Y-76760000D01*
X102980000Y-76760000D02*
X102980000Y-79210000D01*
X101500000Y-115190000D02*
X99050000Y-115190000D01*
X99700000Y-118410000D02*
X101500000Y-118410000D01*
X158960000Y-124070000D02*
X158960000Y-125200000D01*
X158200000Y-124070000D02*
X158960000Y-124070000D01*
X158895000Y-126777530D02*
X158895000Y-127600000D01*
X158895000Y-125960000D02*
X158895000Y-126162470D01*
X158763471Y-125960000D02*
X158895000Y-125960000D01*
X157493471Y-125960000D02*
X157636529Y-125960000D01*
X157440000Y-125763471D02*
X157440000Y-125906529D01*
X157440000Y-124070000D02*
X157440000Y-124636529D01*
X158895000Y-127600000D02*
X146075000Y-127600000D01*
X157440000Y-124070000D02*
X146075000Y-124070000D01*
X146075000Y-125507530D02*
X146075000Y-126162470D01*
X146075000Y-126777530D02*
X146075000Y-127600000D01*
X146075000Y-124070000D02*
X146075000Y-124892470D01*
X128730000Y-111690000D02*
X128130000Y-111690000D01*
X129430000Y-109590000D02*
X129430000Y-110990000D01*
X128130000Y-108890000D02*
X128730000Y-108890000D01*
X127430000Y-110990000D02*
X127430000Y-109590000D01*
X127430000Y-109590000D02*
G75*
G02*
X128130000Y-108890000I700000J0D01*
G01*
X128730000Y-108890000D02*
G75*
G02*
X129430000Y-109590000I0J-700000D01*
G01*
X129430000Y-110990000D02*
G75*
G02*
X128730000Y-111690000I-700000J0D01*
G01*
X128130000Y-111690000D02*
G75*
G02*
X127430000Y-110990000I0J700000D01*
G01*
X108580000Y-90535000D02*
X108580000Y-89405000D01*
X109340000Y-90535000D02*
X108580000Y-90535000D01*
X108645000Y-87827470D02*
X108645000Y-87005000D01*
X108645000Y-88645000D02*
X108645000Y-88442530D01*
X108776529Y-88645000D02*
X108645000Y-88645000D01*
X110046529Y-88645000D02*
X109903471Y-88645000D01*
X110100000Y-88841529D02*
X110100000Y-88698471D01*
X110100000Y-90535000D02*
X110100000Y-89968471D01*
X108645000Y-87005000D02*
X115115000Y-87005000D01*
X110100000Y-90535000D02*
X115115000Y-90535000D01*
X115115000Y-89097470D02*
X115115000Y-88442530D01*
X115115000Y-87827470D02*
X115115000Y-87005000D01*
X115115000Y-90535000D02*
X115115000Y-89712530D01*
X115185000Y-95869000D02*
X115185000Y-95046530D01*
X115185000Y-93161470D02*
X115185000Y-92339000D01*
X115185000Y-94431470D02*
X115185000Y-93776530D01*
X110170000Y-95869000D02*
X115185000Y-95869000D01*
X108715000Y-92339000D02*
X115185000Y-92339000D01*
X110170000Y-95869000D02*
X110170000Y-95302471D01*
X110170000Y-94175529D02*
X110170000Y-94032471D01*
X110116529Y-93979000D02*
X109973471Y-93979000D01*
X108846529Y-93979000D02*
X108715000Y-93979000D01*
X108715000Y-93979000D02*
X108715000Y-93776530D01*
X108715000Y-93161470D02*
X108715000Y-92339000D01*
X109410000Y-95869000D02*
X108650000Y-95869000D01*
X108650000Y-95869000D02*
X108650000Y-94739000D01*
X108580000Y-64995000D02*
X108580000Y-63865000D01*
X109340000Y-64995000D02*
X108580000Y-64995000D01*
X108645000Y-62287470D02*
X108645000Y-61465000D01*
X108645000Y-63105000D02*
X108645000Y-62902530D01*
X108776529Y-63105000D02*
X108645000Y-63105000D01*
X110046529Y-63105000D02*
X109903471Y-63105000D01*
X110100000Y-63301529D02*
X110100000Y-63158471D01*
X110100000Y-64995000D02*
X110100000Y-64428471D01*
X108645000Y-61465000D02*
X115115000Y-61465000D01*
X110100000Y-64995000D02*
X115115000Y-64995000D01*
X115115000Y-63557470D02*
X115115000Y-62902530D01*
X115115000Y-62287470D02*
X115115000Y-61465000D01*
X115115000Y-64995000D02*
X115115000Y-64172530D01*
X115115000Y-70329000D02*
X115115000Y-69506530D01*
X115115000Y-67621470D02*
X115115000Y-66799000D01*
X115115000Y-68891470D02*
X115115000Y-68236530D01*
X110100000Y-70329000D02*
X115115000Y-70329000D01*
X108645000Y-66799000D02*
X115115000Y-66799000D01*
X110100000Y-70329000D02*
X110100000Y-69762471D01*
X110100000Y-68635529D02*
X110100000Y-68492471D01*
X110046529Y-68439000D02*
X109903471Y-68439000D01*
X108776529Y-68439000D02*
X108645000Y-68439000D01*
X108645000Y-68439000D02*
X108645000Y-68236530D01*
X108645000Y-67621470D02*
X108645000Y-66799000D01*
X109340000Y-70329000D02*
X108580000Y-70329000D01*
X108580000Y-70329000D02*
X108580000Y-69199000D01*
X122320000Y-109500000D02*
X122320000Y-108500000D01*
X123680000Y-108500000D02*
X123680000Y-109500000D01*
X124320000Y-109500000D02*
X124320000Y-108500000D01*
X125680000Y-108500000D02*
X125680000Y-109500000D01*
D10*
X91114761Y-98722380D02*
X90638571Y-98722380D01*
X90638571Y-97722380D01*
X91448095Y-98198571D02*
X91781428Y-98198571D01*
X91924285Y-98722380D02*
X91448095Y-98722380D01*
X91448095Y-97722380D01*
X91924285Y-97722380D01*
X92352857Y-98722380D02*
X92352857Y-97722380D01*
X92590952Y-97722380D01*
X92733809Y-97770000D01*
X92829047Y-97865238D01*
X92876666Y-97960476D01*
X92924285Y-98150952D01*
X92924285Y-98293809D01*
X92876666Y-98484285D01*
X92829047Y-98579523D01*
X92733809Y-98674761D01*
X92590952Y-98722380D01*
X92352857Y-98722380D01*
X93305238Y-98674761D02*
X93448095Y-98722380D01*
X93686190Y-98722380D01*
X93781428Y-98674761D01*
X93829047Y-98627142D01*
X93876666Y-98531904D01*
X93876666Y-98436666D01*
X93829047Y-98341428D01*
X93781428Y-98293809D01*
X93686190Y-98246190D01*
X93495714Y-98198571D01*
X93400476Y-98150952D01*
X93352857Y-98103333D01*
X93305238Y-98008095D01*
X93305238Y-97912857D01*
X93352857Y-97817619D01*
X93400476Y-97770000D01*
X93495714Y-97722380D01*
X93733809Y-97722380D01*
X93876666Y-97770000D01*
X94829047Y-98722380D02*
X94257619Y-98722380D01*
X94543333Y-98722380D02*
X94543333Y-97722380D01*
X94448095Y-97865238D01*
X94352857Y-97960476D01*
X94257619Y-98008095D01*
X107701904Y-112552380D02*
X107701904Y-113361904D01*
X107749523Y-113457142D01*
X107797142Y-113504761D01*
X107892380Y-113552380D01*
X108082857Y-113552380D01*
X108178095Y-113504761D01*
X108225714Y-113457142D01*
X108273333Y-113361904D01*
X108273333Y-112552380D01*
X109273333Y-113552380D02*
X108701904Y-113552380D01*
X108987619Y-113552380D02*
X108987619Y-112552380D01*
X108892380Y-112695238D01*
X108797142Y-112790476D01*
X108701904Y-112838095D01*
X109606666Y-112552380D02*
X110225714Y-112552380D01*
X109892380Y-112933333D01*
X110035238Y-112933333D01*
X110130476Y-112980952D01*
X110178095Y-113028571D01*
X110225714Y-113123809D01*
X110225714Y-113361904D01*
X110178095Y-113457142D01*
X110130476Y-113504761D01*
X110035238Y-113552380D01*
X109749523Y-113552380D01*
X109654285Y-113504761D01*
X109606666Y-113457142D01*
X106001600Y-112953779D02*
X106001600Y-113191875D01*
X105763504Y-113096637D02*
X106001600Y-113191875D01*
X106239695Y-113096637D01*
X105858742Y-113382351D02*
X106001600Y-113191875D01*
X106144457Y-113382351D01*
X106001600Y-112953779D02*
X106001600Y-113191875D01*
X105763504Y-113096637D02*
X106001600Y-113191875D01*
X106239695Y-113096637D01*
X105858742Y-113382351D02*
X106001600Y-113191875D01*
X106144457Y-113382351D01*
X90378095Y-94502380D02*
X90378095Y-95311904D01*
X90425714Y-95407142D01*
X90473333Y-95454761D01*
X90568571Y-95502380D01*
X90759047Y-95502380D01*
X90854285Y-95454761D01*
X90901904Y-95407142D01*
X90949523Y-95311904D01*
X90949523Y-94502380D01*
X91949523Y-95502380D02*
X91378095Y-95502380D01*
X91663809Y-95502380D02*
X91663809Y-94502380D01*
X91568571Y-94645238D01*
X91473333Y-94740476D01*
X91378095Y-94788095D01*
X90452380Y-90320000D02*
X90690476Y-90320000D01*
X90595238Y-90558095D02*
X90690476Y-90320000D01*
X90595238Y-90081904D01*
X90880952Y-90462857D02*
X90690476Y-90320000D01*
X90880952Y-90177142D01*
X86117142Y-96647142D02*
X86069523Y-96694761D01*
X85926666Y-96742380D01*
X85831428Y-96742380D01*
X85688571Y-96694761D01*
X85593333Y-96599523D01*
X85545714Y-96504285D01*
X85498095Y-96313809D01*
X85498095Y-96170952D01*
X85545714Y-95980476D01*
X85593333Y-95885238D01*
X85688571Y-95790000D01*
X85831428Y-95742380D01*
X85926666Y-95742380D01*
X86069523Y-95790000D01*
X86117142Y-95837619D01*
X87069523Y-96742380D02*
X86498095Y-96742380D01*
X86783809Y-96742380D02*
X86783809Y-95742380D01*
X86688571Y-95885238D01*
X86593333Y-95980476D01*
X86498095Y-96028095D01*
X87640952Y-96170952D02*
X87545714Y-96123333D01*
X87498095Y-96075714D01*
X87450476Y-95980476D01*
X87450476Y-95932857D01*
X87498095Y-95837619D01*
X87545714Y-95790000D01*
X87640952Y-95742380D01*
X87831428Y-95742380D01*
X87926666Y-95790000D01*
X87974285Y-95837619D01*
X88021904Y-95932857D01*
X88021904Y-95980476D01*
X87974285Y-96075714D01*
X87926666Y-96123333D01*
X87831428Y-96170952D01*
X87640952Y-96170952D01*
X87545714Y-96218571D01*
X87498095Y-96266190D01*
X87450476Y-96361428D01*
X87450476Y-96551904D01*
X87498095Y-96647142D01*
X87545714Y-96694761D01*
X87640952Y-96742380D01*
X87831428Y-96742380D01*
X87926666Y-96694761D01*
X87974285Y-96647142D01*
X88021904Y-96551904D01*
X88021904Y-96361428D01*
X87974285Y-96266190D01*
X87926666Y-96218571D01*
X87831428Y-96170952D01*
X83451904Y-114942380D02*
X83451904Y-115751904D01*
X83499523Y-115847142D01*
X83547142Y-115894761D01*
X83642380Y-115942380D01*
X83832857Y-115942380D01*
X83928095Y-115894761D01*
X83975714Y-115847142D01*
X84023333Y-115751904D01*
X84023333Y-114942380D01*
X85023333Y-115942380D02*
X84451904Y-115942380D01*
X84737619Y-115942380D02*
X84737619Y-114942380D01*
X84642380Y-115085238D01*
X84547142Y-115180476D01*
X84451904Y-115228095D01*
X85975714Y-115942380D02*
X85404285Y-115942380D01*
X85690000Y-115942380D02*
X85690000Y-114942380D01*
X85594761Y-115085238D01*
X85499523Y-115180476D01*
X85404285Y-115228095D01*
X77406666Y-80702380D02*
X77406666Y-81416666D01*
X77359047Y-81559523D01*
X77263809Y-81654761D01*
X77120952Y-81702380D01*
X77025714Y-81702380D01*
X77882857Y-81702380D02*
X77882857Y-80702380D01*
X78263809Y-80702380D01*
X78359047Y-80750000D01*
X78406666Y-80797619D01*
X78454285Y-80892857D01*
X78454285Y-81035714D01*
X78406666Y-81130952D01*
X78359047Y-81178571D01*
X78263809Y-81226190D01*
X77882857Y-81226190D01*
X79406666Y-81702380D02*
X78835238Y-81702380D01*
X79120952Y-81702380D02*
X79120952Y-80702380D01*
X79025714Y-80845238D01*
X78930476Y-80940476D01*
X78835238Y-80988095D01*
X86863333Y-81422380D02*
X86530000Y-80946190D01*
X86291904Y-81422380D02*
X86291904Y-80422380D01*
X86672857Y-80422380D01*
X86768095Y-80470000D01*
X86815714Y-80517619D01*
X86863333Y-80612857D01*
X86863333Y-80755714D01*
X86815714Y-80850952D01*
X86768095Y-80898571D01*
X86672857Y-80946190D01*
X86291904Y-80946190D01*
X87768095Y-80422380D02*
X87291904Y-80422380D01*
X87244285Y-80898571D01*
X87291904Y-80850952D01*
X87387142Y-80803333D01*
X87625238Y-80803333D01*
X87720476Y-80850952D01*
X87768095Y-80898571D01*
X87815714Y-80993809D01*
X87815714Y-81231904D01*
X87768095Y-81327142D01*
X87720476Y-81374761D01*
X87625238Y-81422380D01*
X87387142Y-81422380D01*
X87291904Y-81374761D01*
X87244285Y-81327142D01*
X79558095Y-77592380D02*
X79558095Y-78401904D01*
X79605714Y-78497142D01*
X79653333Y-78544761D01*
X79748571Y-78592380D01*
X79939047Y-78592380D01*
X80034285Y-78544761D01*
X80081904Y-78497142D01*
X80129523Y-78401904D01*
X80129523Y-77592380D01*
X81034285Y-77925714D02*
X81034285Y-78592380D01*
X80796190Y-77544761D02*
X80558095Y-78259047D01*
X81177142Y-78259047D01*
X85670000Y-76012380D02*
X85670000Y-76250476D01*
X85431904Y-76155238D02*
X85670000Y-76250476D01*
X85908095Y-76155238D01*
X85527142Y-76440952D02*
X85670000Y-76250476D01*
X85812857Y-76440952D01*
X83887142Y-74567142D02*
X83839523Y-74614761D01*
X83696666Y-74662380D01*
X83601428Y-74662380D01*
X83458571Y-74614761D01*
X83363333Y-74519523D01*
X83315714Y-74424285D01*
X83268095Y-74233809D01*
X83268095Y-74090952D01*
X83315714Y-73900476D01*
X83363333Y-73805238D01*
X83458571Y-73710000D01*
X83601428Y-73662380D01*
X83696666Y-73662380D01*
X83839523Y-73710000D01*
X83887142Y-73757619D01*
X84268095Y-73757619D02*
X84315714Y-73710000D01*
X84410952Y-73662380D01*
X84649047Y-73662380D01*
X84744285Y-73710000D01*
X84791904Y-73757619D01*
X84839523Y-73852857D01*
X84839523Y-73948095D01*
X84791904Y-74090952D01*
X84220476Y-74662380D01*
X84839523Y-74662380D01*
X85458571Y-73662380D02*
X85553809Y-73662380D01*
X85649047Y-73710000D01*
X85696666Y-73757619D01*
X85744285Y-73852857D01*
X85791904Y-74043333D01*
X85791904Y-74281428D01*
X85744285Y-74471904D01*
X85696666Y-74567142D01*
X85649047Y-74614761D01*
X85553809Y-74662380D01*
X85458571Y-74662380D01*
X85363333Y-74614761D01*
X85315714Y-74567142D01*
X85268095Y-74471904D01*
X85220476Y-74281428D01*
X85220476Y-74043333D01*
X85268095Y-73852857D01*
X85315714Y-73757619D01*
X85363333Y-73710000D01*
X85458571Y-73662380D01*
X86603333Y-72687142D02*
X86555714Y-72734761D01*
X86412857Y-72782380D01*
X86317619Y-72782380D01*
X86174761Y-72734761D01*
X86079523Y-72639523D01*
X86031904Y-72544285D01*
X85984285Y-72353809D01*
X85984285Y-72210952D01*
X86031904Y-72020476D01*
X86079523Y-71925238D01*
X86174761Y-71830000D01*
X86317619Y-71782380D01*
X86412857Y-71782380D01*
X86555714Y-71830000D01*
X86603333Y-71877619D01*
X87555714Y-72782380D02*
X86984285Y-72782380D01*
X87270000Y-72782380D02*
X87270000Y-71782380D01*
X87174761Y-71925238D01*
X87079523Y-72020476D01*
X86984285Y-72068095D01*
X94743333Y-73677142D02*
X94695714Y-73724761D01*
X94552857Y-73772380D01*
X94457619Y-73772380D01*
X94314761Y-73724761D01*
X94219523Y-73629523D01*
X94171904Y-73534285D01*
X94124285Y-73343809D01*
X94124285Y-73200952D01*
X94171904Y-73010476D01*
X94219523Y-72915238D01*
X94314761Y-72820000D01*
X94457619Y-72772380D01*
X94552857Y-72772380D01*
X94695714Y-72820000D01*
X94743333Y-72867619D01*
X95124285Y-72867619D02*
X95171904Y-72820000D01*
X95267142Y-72772380D01*
X95505238Y-72772380D01*
X95600476Y-72820000D01*
X95648095Y-72867619D01*
X95695714Y-72962857D01*
X95695714Y-73058095D01*
X95648095Y-73200952D01*
X95076666Y-73772380D01*
X95695714Y-73772380D01*
X107579333Y-83007142D02*
X107531714Y-83054761D01*
X107388857Y-83102380D01*
X107293619Y-83102380D01*
X107150761Y-83054761D01*
X107055523Y-82959523D01*
X107007904Y-82864285D01*
X106960285Y-82673809D01*
X106960285Y-82530952D01*
X107007904Y-82340476D01*
X107055523Y-82245238D01*
X107150761Y-82150000D01*
X107293619Y-82102380D01*
X107388857Y-82102380D01*
X107531714Y-82150000D01*
X107579333Y-82197619D01*
X107912666Y-82102380D02*
X108531714Y-82102380D01*
X108198380Y-82483333D01*
X108341238Y-82483333D01*
X108436476Y-82530952D01*
X108484095Y-82578571D01*
X108531714Y-82673809D01*
X108531714Y-82911904D01*
X108484095Y-83007142D01*
X108436476Y-83054761D01*
X108341238Y-83102380D01*
X108055523Y-83102380D01*
X107960285Y-83054761D01*
X107912666Y-83007142D01*
X107569333Y-73867142D02*
X107521714Y-73914761D01*
X107378857Y-73962380D01*
X107283619Y-73962380D01*
X107140761Y-73914761D01*
X107045523Y-73819523D01*
X106997904Y-73724285D01*
X106950285Y-73533809D01*
X106950285Y-73390952D01*
X106997904Y-73200476D01*
X107045523Y-73105238D01*
X107140761Y-73010000D01*
X107283619Y-72962380D01*
X107378857Y-72962380D01*
X107521714Y-73010000D01*
X107569333Y-73057619D01*
X108426476Y-73295714D02*
X108426476Y-73962380D01*
X108188380Y-72914761D02*
X107950285Y-73629047D01*
X108569333Y-73629047D01*
X100193333Y-81367142D02*
X100145714Y-81414761D01*
X100002857Y-81462380D01*
X99907619Y-81462380D01*
X99764761Y-81414761D01*
X99669523Y-81319523D01*
X99621904Y-81224285D01*
X99574285Y-81033809D01*
X99574285Y-80890952D01*
X99621904Y-80700476D01*
X99669523Y-80605238D01*
X99764761Y-80510000D01*
X99907619Y-80462380D01*
X100002857Y-80462380D01*
X100145714Y-80510000D01*
X100193333Y-80557619D01*
X101098095Y-80462380D02*
X100621904Y-80462380D01*
X100574285Y-80938571D01*
X100621904Y-80890952D01*
X100717142Y-80843333D01*
X100955238Y-80843333D01*
X101050476Y-80890952D01*
X101098095Y-80938571D01*
X101145714Y-81033809D01*
X101145714Y-81271904D01*
X101098095Y-81367142D01*
X101050476Y-81414761D01*
X100955238Y-81462380D01*
X100717142Y-81462380D01*
X100621904Y-81414761D01*
X100574285Y-81367142D01*
X81513333Y-71997142D02*
X81465714Y-72044761D01*
X81322857Y-72092380D01*
X81227619Y-72092380D01*
X81084761Y-72044761D01*
X80989523Y-71949523D01*
X80941904Y-71854285D01*
X80894285Y-71663809D01*
X80894285Y-71520952D01*
X80941904Y-71330476D01*
X80989523Y-71235238D01*
X81084761Y-71140000D01*
X81227619Y-71092380D01*
X81322857Y-71092380D01*
X81465714Y-71140000D01*
X81513333Y-71187619D01*
X82370476Y-71092380D02*
X82180000Y-71092380D01*
X82084761Y-71140000D01*
X82037142Y-71187619D01*
X81941904Y-71330476D01*
X81894285Y-71520952D01*
X81894285Y-71901904D01*
X81941904Y-71997142D01*
X81989523Y-72044761D01*
X82084761Y-72092380D01*
X82275238Y-72092380D01*
X82370476Y-72044761D01*
X82418095Y-71997142D01*
X82465714Y-71901904D01*
X82465714Y-71663809D01*
X82418095Y-71568571D01*
X82370476Y-71520952D01*
X82275238Y-71473333D01*
X82084761Y-71473333D01*
X81989523Y-71520952D01*
X81941904Y-71568571D01*
X81894285Y-71663809D01*
X79966666Y-68995714D02*
X79928571Y-69033809D01*
X79814285Y-69071904D01*
X79738095Y-69071904D01*
X79623809Y-69033809D01*
X79547619Y-68957619D01*
X79509523Y-68881428D01*
X79471428Y-68729047D01*
X79471428Y-68614761D01*
X79509523Y-68462380D01*
X79547619Y-68386190D01*
X79623809Y-68310000D01*
X79738095Y-68271904D01*
X79814285Y-68271904D01*
X79928571Y-68310000D01*
X79966666Y-68348095D01*
X80233333Y-68271904D02*
X80766666Y-68271904D01*
X80423809Y-69071904D01*
X83813333Y-60647142D02*
X83765714Y-60694761D01*
X83622857Y-60742380D01*
X83527619Y-60742380D01*
X83384761Y-60694761D01*
X83289523Y-60599523D01*
X83241904Y-60504285D01*
X83194285Y-60313809D01*
X83194285Y-60170952D01*
X83241904Y-59980476D01*
X83289523Y-59885238D01*
X83384761Y-59790000D01*
X83527619Y-59742380D01*
X83622857Y-59742380D01*
X83765714Y-59790000D01*
X83813333Y-59837619D01*
X84289523Y-60742380D02*
X84480000Y-60742380D01*
X84575238Y-60694761D01*
X84622857Y-60647142D01*
X84718095Y-60504285D01*
X84765714Y-60313809D01*
X84765714Y-59932857D01*
X84718095Y-59837619D01*
X84670476Y-59790000D01*
X84575238Y-59742380D01*
X84384761Y-59742380D01*
X84289523Y-59790000D01*
X84241904Y-59837619D01*
X84194285Y-59932857D01*
X84194285Y-60170952D01*
X84241904Y-60266190D01*
X84289523Y-60313809D01*
X84384761Y-60361428D01*
X84575238Y-60361428D01*
X84670476Y-60313809D01*
X84718095Y-60266190D01*
X84765714Y-60170952D01*
X93757142Y-61247142D02*
X93709523Y-61294761D01*
X93566666Y-61342380D01*
X93471428Y-61342380D01*
X93328571Y-61294761D01*
X93233333Y-61199523D01*
X93185714Y-61104285D01*
X93138095Y-60913809D01*
X93138095Y-60770952D01*
X93185714Y-60580476D01*
X93233333Y-60485238D01*
X93328571Y-60390000D01*
X93471428Y-60342380D01*
X93566666Y-60342380D01*
X93709523Y-60390000D01*
X93757142Y-60437619D01*
X94709523Y-61342380D02*
X94138095Y-61342380D01*
X94423809Y-61342380D02*
X94423809Y-60342380D01*
X94328571Y-60485238D01*
X94233333Y-60580476D01*
X94138095Y-60628095D01*
X95090476Y-60437619D02*
X95138095Y-60390000D01*
X95233333Y-60342380D01*
X95471428Y-60342380D01*
X95566666Y-60390000D01*
X95614285Y-60437619D01*
X95661904Y-60532857D01*
X95661904Y-60628095D01*
X95614285Y-60770952D01*
X95042857Y-61342380D01*
X95661904Y-61342380D01*
X87135714Y-70695714D02*
X87097619Y-70733809D01*
X86983333Y-70771904D01*
X86907142Y-70771904D01*
X86792857Y-70733809D01*
X86716666Y-70657619D01*
X86678571Y-70581428D01*
X86640476Y-70429047D01*
X86640476Y-70314761D01*
X86678571Y-70162380D01*
X86716666Y-70086190D01*
X86792857Y-70010000D01*
X86907142Y-69971904D01*
X86983333Y-69971904D01*
X87097619Y-70010000D01*
X87135714Y-70048095D01*
X87897619Y-70771904D02*
X87440476Y-70771904D01*
X87669047Y-70771904D02*
X87669047Y-69971904D01*
X87592857Y-70086190D01*
X87516666Y-70162380D01*
X87440476Y-70200476D01*
X88583333Y-70238571D02*
X88583333Y-70771904D01*
X88392857Y-69933809D02*
X88202380Y-70505238D01*
X88697619Y-70505238D01*
X89845714Y-70705714D02*
X89807619Y-70743809D01*
X89693333Y-70781904D01*
X89617142Y-70781904D01*
X89502857Y-70743809D01*
X89426666Y-70667619D01*
X89388571Y-70591428D01*
X89350476Y-70439047D01*
X89350476Y-70324761D01*
X89388571Y-70172380D01*
X89426666Y-70096190D01*
X89502857Y-70020000D01*
X89617142Y-69981904D01*
X89693333Y-69981904D01*
X89807619Y-70020000D01*
X89845714Y-70058095D01*
X90607619Y-70781904D02*
X90150476Y-70781904D01*
X90379047Y-70781904D02*
X90379047Y-69981904D01*
X90302857Y-70096190D01*
X90226666Y-70172380D01*
X90150476Y-70210476D01*
X91331428Y-69981904D02*
X90950476Y-69981904D01*
X90912380Y-70362857D01*
X90950476Y-70324761D01*
X91026666Y-70286666D01*
X91217142Y-70286666D01*
X91293333Y-70324761D01*
X91331428Y-70362857D01*
X91369523Y-70439047D01*
X91369523Y-70629523D01*
X91331428Y-70705714D01*
X91293333Y-70743809D01*
X91217142Y-70781904D01*
X91026666Y-70781904D01*
X90950476Y-70743809D01*
X90912380Y-70705714D01*
X91953333Y-69962857D02*
X91686666Y-69962857D01*
X91686666Y-70381904D02*
X91686666Y-69581904D01*
X92067619Y-69581904D01*
X92639047Y-69962857D02*
X92753333Y-70000952D01*
X92791428Y-70039047D01*
X92829523Y-70115238D01*
X92829523Y-70229523D01*
X92791428Y-70305714D01*
X92753333Y-70343809D01*
X92677142Y-70381904D01*
X92372380Y-70381904D01*
X92372380Y-69581904D01*
X92639047Y-69581904D01*
X92715238Y-69620000D01*
X92753333Y-69658095D01*
X92791428Y-69734285D01*
X92791428Y-69810476D01*
X92753333Y-69886666D01*
X92715238Y-69924761D01*
X92639047Y-69962857D01*
X92372380Y-69962857D01*
X93591428Y-70381904D02*
X93134285Y-70381904D01*
X93362857Y-70381904D02*
X93362857Y-69581904D01*
X93286666Y-69696190D01*
X93210476Y-69772380D01*
X93134285Y-69810476D01*
X91087142Y-54362380D02*
X90610952Y-54362380D01*
X90610952Y-53362380D01*
X91420476Y-53838571D02*
X91753809Y-53838571D01*
X91896666Y-54362380D02*
X91420476Y-54362380D01*
X91420476Y-53362380D01*
X91896666Y-53362380D01*
X92325238Y-54362380D02*
X92325238Y-53362380D01*
X92563333Y-53362380D01*
X92706190Y-53410000D01*
X92801428Y-53505238D01*
X92849047Y-53600476D01*
X92896666Y-53790952D01*
X92896666Y-53933809D01*
X92849047Y-54124285D01*
X92801428Y-54219523D01*
X92706190Y-54314761D01*
X92563333Y-54362380D01*
X92325238Y-54362380D01*
X93325238Y-54362380D02*
X93325238Y-53362380D01*
X93896666Y-54362380D01*
X93896666Y-53362380D01*
X94896666Y-54362380D02*
X94325238Y-54362380D01*
X94610952Y-54362380D02*
X94610952Y-53362380D01*
X94515714Y-53505238D01*
X94420476Y-53600476D01*
X94325238Y-53648095D01*
X94746666Y-62192380D02*
X94746666Y-62906666D01*
X94699047Y-63049523D01*
X94603809Y-63144761D01*
X94460952Y-63192380D01*
X94365714Y-63192380D01*
X95222857Y-63192380D02*
X95222857Y-62192380D01*
X95603809Y-62192380D01*
X95699047Y-62240000D01*
X95746666Y-62287619D01*
X95794285Y-62382857D01*
X95794285Y-62525714D01*
X95746666Y-62620952D01*
X95699047Y-62668571D01*
X95603809Y-62716190D01*
X95222857Y-62716190D01*
X96175238Y-62287619D02*
X96222857Y-62240000D01*
X96318095Y-62192380D01*
X96556190Y-62192380D01*
X96651428Y-62240000D01*
X96699047Y-62287619D01*
X96746666Y-62382857D01*
X96746666Y-62478095D01*
X96699047Y-62620952D01*
X96127619Y-63192380D01*
X96746666Y-63192380D01*
X85826666Y-119272380D02*
X85826666Y-119986666D01*
X85779047Y-120129523D01*
X85683809Y-120224761D01*
X85540952Y-120272380D01*
X85445714Y-120272380D01*
X86302857Y-120272380D02*
X86302857Y-119272380D01*
X86683809Y-119272380D01*
X86779047Y-119320000D01*
X86826666Y-119367619D01*
X86874285Y-119462857D01*
X86874285Y-119605714D01*
X86826666Y-119700952D01*
X86779047Y-119748571D01*
X86683809Y-119796190D01*
X86302857Y-119796190D01*
X87207619Y-119272380D02*
X87826666Y-119272380D01*
X87493333Y-119653333D01*
X87636190Y-119653333D01*
X87731428Y-119700952D01*
X87779047Y-119748571D01*
X87826666Y-119843809D01*
X87826666Y-120081904D01*
X87779047Y-120177142D01*
X87731428Y-120224761D01*
X87636190Y-120272380D01*
X87350476Y-120272380D01*
X87255238Y-120224761D01*
X87207619Y-120177142D01*
X102256666Y-113392380D02*
X102256666Y-114106666D01*
X102209047Y-114249523D01*
X102113809Y-114344761D01*
X101970952Y-114392380D01*
X101875714Y-114392380D01*
X102732857Y-114392380D02*
X102732857Y-113392380D01*
X103113809Y-113392380D01*
X103209047Y-113440000D01*
X103256666Y-113487619D01*
X103304285Y-113582857D01*
X103304285Y-113725714D01*
X103256666Y-113820952D01*
X103209047Y-113868571D01*
X103113809Y-113916190D01*
X102732857Y-113916190D01*
X104161428Y-113725714D02*
X104161428Y-114392380D01*
X103923333Y-113344761D02*
X103685238Y-114059047D01*
X104304285Y-114059047D01*
X91853333Y-73392380D02*
X91520000Y-72916190D01*
X91281904Y-73392380D02*
X91281904Y-72392380D01*
X91662857Y-72392380D01*
X91758095Y-72440000D01*
X91805714Y-72487619D01*
X91853333Y-72582857D01*
X91853333Y-72725714D01*
X91805714Y-72820952D01*
X91758095Y-72868571D01*
X91662857Y-72916190D01*
X91281904Y-72916190D01*
X92805714Y-73392380D02*
X92234285Y-73392380D01*
X92520000Y-73392380D02*
X92520000Y-72392380D01*
X92424761Y-72535238D01*
X92329523Y-72630476D01*
X92234285Y-72678095D01*
X97903333Y-84012380D02*
X97570000Y-83536190D01*
X97331904Y-84012380D02*
X97331904Y-83012380D01*
X97712857Y-83012380D01*
X97808095Y-83060000D01*
X97855714Y-83107619D01*
X97903333Y-83202857D01*
X97903333Y-83345714D01*
X97855714Y-83440952D01*
X97808095Y-83488571D01*
X97712857Y-83536190D01*
X97331904Y-83536190D01*
X98284285Y-83107619D02*
X98331904Y-83060000D01*
X98427142Y-83012380D01*
X98665238Y-83012380D01*
X98760476Y-83060000D01*
X98808095Y-83107619D01*
X98855714Y-83202857D01*
X98855714Y-83298095D01*
X98808095Y-83440952D01*
X98236666Y-84012380D01*
X98855714Y-84012380D01*
X104633333Y-73462380D02*
X104300000Y-72986190D01*
X104061904Y-73462380D02*
X104061904Y-72462380D01*
X104442857Y-72462380D01*
X104538095Y-72510000D01*
X104585714Y-72557619D01*
X104633333Y-72652857D01*
X104633333Y-72795714D01*
X104585714Y-72890952D01*
X104538095Y-72938571D01*
X104442857Y-72986190D01*
X104061904Y-72986190D01*
X105490476Y-72462380D02*
X105300000Y-72462380D01*
X105204761Y-72510000D01*
X105157142Y-72557619D01*
X105061904Y-72700476D01*
X105014285Y-72890952D01*
X105014285Y-73271904D01*
X105061904Y-73367142D01*
X105109523Y-73414761D01*
X105204761Y-73462380D01*
X105395238Y-73462380D01*
X105490476Y-73414761D01*
X105538095Y-73367142D01*
X105585714Y-73271904D01*
X105585714Y-73033809D01*
X105538095Y-72938571D01*
X105490476Y-72890952D01*
X105395238Y-72843333D01*
X105204761Y-72843333D01*
X105109523Y-72890952D01*
X105061904Y-72938571D01*
X105014285Y-73033809D01*
X93392380Y-109166666D02*
X92916190Y-109500000D01*
X93392380Y-109738095D02*
X92392380Y-109738095D01*
X92392380Y-109357142D01*
X92440000Y-109261904D01*
X92487619Y-109214285D01*
X92582857Y-109166666D01*
X92725714Y-109166666D01*
X92820952Y-109214285D01*
X92868571Y-109261904D01*
X92916190Y-109357142D01*
X92916190Y-109738095D01*
X92392380Y-108833333D02*
X92392380Y-108166666D01*
X93392380Y-108595238D01*
X92538095Y-77952380D02*
X92538095Y-78761904D01*
X92585714Y-78857142D01*
X92633333Y-78904761D01*
X92728571Y-78952380D01*
X92919047Y-78952380D01*
X93014285Y-78904761D01*
X93061904Y-78857142D01*
X93109523Y-78761904D01*
X93109523Y-77952380D01*
X93538095Y-78047619D02*
X93585714Y-78000000D01*
X93680952Y-77952380D01*
X93919047Y-77952380D01*
X94014285Y-78000000D01*
X94061904Y-78047619D01*
X94109523Y-78142857D01*
X94109523Y-78238095D01*
X94061904Y-78380952D01*
X93490476Y-78952380D01*
X94109523Y-78952380D01*
X96373400Y-81725981D02*
X96373400Y-81964077D01*
X96135304Y-81868839D02*
X96373400Y-81964077D01*
X96611495Y-81868839D01*
X96230542Y-82154553D02*
X96373400Y-81964077D01*
X96516257Y-82154553D01*
X96373400Y-81725981D02*
X96373400Y-81964077D01*
X96135304Y-81868839D02*
X96373400Y-81964077D01*
X96611495Y-81868839D01*
X96230542Y-82154553D02*
X96373400Y-81964077D01*
X96516257Y-82154553D01*
D17*
X100498095Y-89022380D02*
X100498095Y-89831904D01*
X100545714Y-89927142D01*
X100593333Y-89974761D01*
X100688571Y-90022380D01*
X100879047Y-90022380D01*
X100974285Y-89974761D01*
X101021904Y-89927142D01*
X101069523Y-89831904D01*
X101069523Y-89022380D01*
X101974285Y-89022380D02*
X101783809Y-89022380D01*
X101688571Y-89070000D01*
X101640952Y-89117619D01*
X101545714Y-89260476D01*
X101498095Y-89450952D01*
X101498095Y-89831904D01*
X101545714Y-89927142D01*
X101593333Y-89974761D01*
X101688571Y-90022380D01*
X101879047Y-90022380D01*
X101974285Y-89974761D01*
X102021904Y-89927142D01*
X102069523Y-89831904D01*
X102069523Y-89593809D01*
X102021904Y-89498571D01*
X101974285Y-89450952D01*
X101879047Y-89403333D01*
X101688571Y-89403333D01*
X101593333Y-89450952D01*
X101545714Y-89498571D01*
X101498095Y-89593809D01*
D10*
X83288095Y-63622380D02*
X83288095Y-64431904D01*
X83335714Y-64527142D01*
X83383333Y-64574761D01*
X83478571Y-64622380D01*
X83669047Y-64622380D01*
X83764285Y-64574761D01*
X83811904Y-64527142D01*
X83859523Y-64431904D01*
X83859523Y-63622380D01*
X84478571Y-64050952D02*
X84383333Y-64003333D01*
X84335714Y-63955714D01*
X84288095Y-63860476D01*
X84288095Y-63812857D01*
X84335714Y-63717619D01*
X84383333Y-63670000D01*
X84478571Y-63622380D01*
X84669047Y-63622380D01*
X84764285Y-63670000D01*
X84811904Y-63717619D01*
X84859523Y-63812857D01*
X84859523Y-63860476D01*
X84811904Y-63955714D01*
X84764285Y-64003333D01*
X84669047Y-64050952D01*
X84478571Y-64050952D01*
X84383333Y-64098571D01*
X84335714Y-64146190D01*
X84288095Y-64241428D01*
X84288095Y-64431904D01*
X84335714Y-64527142D01*
X84383333Y-64574761D01*
X84478571Y-64622380D01*
X84669047Y-64622380D01*
X84764285Y-64574761D01*
X84811904Y-64527142D01*
X84859523Y-64431904D01*
X84859523Y-64241428D01*
X84811904Y-64146190D01*
X84764285Y-64098571D01*
X84669047Y-64050952D01*
X81381904Y-101112380D02*
X81381904Y-101921904D01*
X81429523Y-102017142D01*
X81477142Y-102064761D01*
X81572380Y-102112380D01*
X81762857Y-102112380D01*
X81858095Y-102064761D01*
X81905714Y-102017142D01*
X81953333Y-101921904D01*
X81953333Y-101112380D01*
X82953333Y-102112380D02*
X82381904Y-102112380D01*
X82667619Y-102112380D02*
X82667619Y-101112380D01*
X82572380Y-101255238D01*
X82477142Y-101350476D01*
X82381904Y-101398095D01*
X83572380Y-101112380D02*
X83667619Y-101112380D01*
X83762857Y-101160000D01*
X83810476Y-101207619D01*
X83858095Y-101302857D01*
X83905714Y-101493333D01*
X83905714Y-101731428D01*
X83858095Y-101921904D01*
X83810476Y-102017142D01*
X83762857Y-102064761D01*
X83667619Y-102112380D01*
X83572380Y-102112380D01*
X83477142Y-102064761D01*
X83429523Y-102017142D01*
X83381904Y-101921904D01*
X83334285Y-101731428D01*
X83334285Y-101493333D01*
X83381904Y-101302857D01*
X83429523Y-101207619D01*
X83477142Y-101160000D01*
X83572380Y-101112380D01*
X84877600Y-106167580D02*
X84877600Y-106405676D01*
X84639504Y-106310438D02*
X84877600Y-106405676D01*
X85115695Y-106310438D01*
X84734742Y-106596152D02*
X84877600Y-106405676D01*
X85020457Y-106596152D01*
X84877600Y-106167580D02*
X84877600Y-106405676D01*
X84639504Y-106310438D02*
X84877600Y-106405676D01*
X85115695Y-106310438D01*
X84734742Y-106596152D02*
X84877600Y-106405676D01*
X85020457Y-106596152D01*
X99841904Y-59962380D02*
X99841904Y-60771904D01*
X99889523Y-60867142D01*
X99937142Y-60914761D01*
X100032380Y-60962380D01*
X100222857Y-60962380D01*
X100318095Y-60914761D01*
X100365714Y-60867142D01*
X100413333Y-60771904D01*
X100413333Y-59962380D01*
X101413333Y-60962380D02*
X100841904Y-60962380D01*
X101127619Y-60962380D02*
X101127619Y-59962380D01*
X101032380Y-60105238D01*
X100937142Y-60200476D01*
X100841904Y-60248095D01*
X102270476Y-60295714D02*
X102270476Y-60962380D01*
X102032380Y-59914761D02*
X101794285Y-60629047D01*
X102413333Y-60629047D01*
X79986666Y-84052380D02*
X79986666Y-84766666D01*
X79939047Y-84909523D01*
X79843809Y-85004761D01*
X79700952Y-85052380D01*
X79605714Y-85052380D01*
X80367619Y-84052380D02*
X80986666Y-84052380D01*
X80653333Y-84433333D01*
X80796190Y-84433333D01*
X80891428Y-84480952D01*
X80939047Y-84528571D01*
X80986666Y-84623809D01*
X80986666Y-84861904D01*
X80939047Y-84957142D01*
X80891428Y-85004761D01*
X80796190Y-85052380D01*
X80510476Y-85052380D01*
X80415238Y-85004761D01*
X80367619Y-84957142D01*
X80056666Y-67435714D02*
X80018571Y-67473809D01*
X79904285Y-67511904D01*
X79828095Y-67511904D01*
X79713809Y-67473809D01*
X79637619Y-67397619D01*
X79599523Y-67321428D01*
X79561428Y-67169047D01*
X79561428Y-67054761D01*
X79599523Y-66902380D01*
X79637619Y-66826190D01*
X79713809Y-66750000D01*
X79828095Y-66711904D01*
X79904285Y-66711904D01*
X80018571Y-66750000D01*
X80056666Y-66788095D01*
X80513809Y-67054761D02*
X80437619Y-67016666D01*
X80399523Y-66978571D01*
X80361428Y-66902380D01*
X80361428Y-66864285D01*
X80399523Y-66788095D01*
X80437619Y-66750000D01*
X80513809Y-66711904D01*
X80666190Y-66711904D01*
X80742380Y-66750000D01*
X80780476Y-66788095D01*
X80818571Y-66864285D01*
X80818571Y-66902380D01*
X80780476Y-66978571D01*
X80742380Y-67016666D01*
X80666190Y-67054761D01*
X80513809Y-67054761D01*
X80437619Y-67092857D01*
X80399523Y-67130952D01*
X80361428Y-67207142D01*
X80361428Y-67359523D01*
X80399523Y-67435714D01*
X80437619Y-67473809D01*
X80513809Y-67511904D01*
X80666190Y-67511904D01*
X80742380Y-67473809D01*
X80780476Y-67435714D01*
X80818571Y-67359523D01*
X80818571Y-67207142D01*
X80780476Y-67130952D01*
X80742380Y-67092857D01*
X80666190Y-67054761D01*
X83367142Y-56747142D02*
X83319523Y-56794761D01*
X83176666Y-56842380D01*
X83081428Y-56842380D01*
X82938571Y-56794761D01*
X82843333Y-56699523D01*
X82795714Y-56604285D01*
X82748095Y-56413809D01*
X82748095Y-56270952D01*
X82795714Y-56080476D01*
X82843333Y-55985238D01*
X82938571Y-55890000D01*
X83081428Y-55842380D01*
X83176666Y-55842380D01*
X83319523Y-55890000D01*
X83367142Y-55937619D01*
X84319523Y-56842380D02*
X83748095Y-56842380D01*
X84033809Y-56842380D02*
X84033809Y-55842380D01*
X83938571Y-55985238D01*
X83843333Y-56080476D01*
X83748095Y-56128095D01*
X84938571Y-55842380D02*
X85033809Y-55842380D01*
X85129047Y-55890000D01*
X85176666Y-55937619D01*
X85224285Y-56032857D01*
X85271904Y-56223333D01*
X85271904Y-56461428D01*
X85224285Y-56651904D01*
X85176666Y-56747142D01*
X85129047Y-56794761D01*
X85033809Y-56842380D01*
X84938571Y-56842380D01*
X84843333Y-56794761D01*
X84795714Y-56747142D01*
X84748095Y-56651904D01*
X84700476Y-56461428D01*
X84700476Y-56223333D01*
X84748095Y-56032857D01*
X84795714Y-55937619D01*
X84843333Y-55890000D01*
X84938571Y-55842380D01*
X84955714Y-66725714D02*
X84917619Y-66763809D01*
X84803333Y-66801904D01*
X84727142Y-66801904D01*
X84612857Y-66763809D01*
X84536666Y-66687619D01*
X84498571Y-66611428D01*
X84460476Y-66459047D01*
X84460476Y-66344761D01*
X84498571Y-66192380D01*
X84536666Y-66116190D01*
X84612857Y-66040000D01*
X84727142Y-66001904D01*
X84803333Y-66001904D01*
X84917619Y-66040000D01*
X84955714Y-66078095D01*
X85717619Y-66801904D02*
X85260476Y-66801904D01*
X85489047Y-66801904D02*
X85489047Y-66001904D01*
X85412857Y-66116190D01*
X85336666Y-66192380D01*
X85260476Y-66230476D01*
X86479523Y-66801904D02*
X86022380Y-66801904D01*
X86250952Y-66801904D02*
X86250952Y-66001904D01*
X86174761Y-66116190D01*
X86098571Y-66192380D01*
X86022380Y-66230476D01*
X89257142Y-59347142D02*
X89209523Y-59394761D01*
X89066666Y-59442380D01*
X88971428Y-59442380D01*
X88828571Y-59394761D01*
X88733333Y-59299523D01*
X88685714Y-59204285D01*
X88638095Y-59013809D01*
X88638095Y-58870952D01*
X88685714Y-58680476D01*
X88733333Y-58585238D01*
X88828571Y-58490000D01*
X88971428Y-58442380D01*
X89066666Y-58442380D01*
X89209523Y-58490000D01*
X89257142Y-58537619D01*
X90209523Y-59442380D02*
X89638095Y-59442380D01*
X89923809Y-59442380D02*
X89923809Y-58442380D01*
X89828571Y-58585238D01*
X89733333Y-58680476D01*
X89638095Y-58728095D01*
X90542857Y-58442380D02*
X91161904Y-58442380D01*
X90828571Y-58823333D01*
X90971428Y-58823333D01*
X91066666Y-58870952D01*
X91114285Y-58918571D01*
X91161904Y-59013809D01*
X91161904Y-59251904D01*
X91114285Y-59347142D01*
X91066666Y-59394761D01*
X90971428Y-59442380D01*
X90685714Y-59442380D01*
X90590476Y-59394761D01*
X90542857Y-59347142D01*
X91727142Y-123977142D02*
X91679523Y-124024761D01*
X91536666Y-124072380D01*
X91441428Y-124072380D01*
X91298571Y-124024761D01*
X91203333Y-123929523D01*
X91155714Y-123834285D01*
X91108095Y-123643809D01*
X91108095Y-123500952D01*
X91155714Y-123310476D01*
X91203333Y-123215238D01*
X91298571Y-123120000D01*
X91441428Y-123072380D01*
X91536666Y-123072380D01*
X91679523Y-123120000D01*
X91727142Y-123167619D01*
X92679523Y-124072380D02*
X92108095Y-124072380D01*
X92393809Y-124072380D02*
X92393809Y-123072380D01*
X92298571Y-123215238D01*
X92203333Y-123310476D01*
X92108095Y-123358095D01*
X93536666Y-123072380D02*
X93346190Y-123072380D01*
X93250952Y-123120000D01*
X93203333Y-123167619D01*
X93108095Y-123310476D01*
X93060476Y-123500952D01*
X93060476Y-123881904D01*
X93108095Y-123977142D01*
X93155714Y-124024761D01*
X93250952Y-124072380D01*
X93441428Y-124072380D01*
X93536666Y-124024761D01*
X93584285Y-123977142D01*
X93631904Y-123881904D01*
X93631904Y-123643809D01*
X93584285Y-123548571D01*
X93536666Y-123500952D01*
X93441428Y-123453333D01*
X93250952Y-123453333D01*
X93155714Y-123500952D01*
X93108095Y-123548571D01*
X93060476Y-123643809D01*
X75887142Y-122077142D02*
X75839523Y-122124761D01*
X75696666Y-122172380D01*
X75601428Y-122172380D01*
X75458571Y-122124761D01*
X75363333Y-122029523D01*
X75315714Y-121934285D01*
X75268095Y-121743809D01*
X75268095Y-121600952D01*
X75315714Y-121410476D01*
X75363333Y-121315238D01*
X75458571Y-121220000D01*
X75601428Y-121172380D01*
X75696666Y-121172380D01*
X75839523Y-121220000D01*
X75887142Y-121267619D01*
X76839523Y-122172380D02*
X76268095Y-122172380D01*
X76553809Y-122172380D02*
X76553809Y-121172380D01*
X76458571Y-121315238D01*
X76363333Y-121410476D01*
X76268095Y-121458095D01*
X77172857Y-121172380D02*
X77839523Y-121172380D01*
X77410952Y-122172380D01*
X90907142Y-83977142D02*
X90859523Y-84024761D01*
X90716666Y-84072380D01*
X90621428Y-84072380D01*
X90478571Y-84024761D01*
X90383333Y-83929523D01*
X90335714Y-83834285D01*
X90288095Y-83643809D01*
X90288095Y-83500952D01*
X90335714Y-83310476D01*
X90383333Y-83215238D01*
X90478571Y-83120000D01*
X90621428Y-83072380D01*
X90716666Y-83072380D01*
X90859523Y-83120000D01*
X90907142Y-83167619D01*
X91859523Y-84072380D02*
X91288095Y-84072380D01*
X91573809Y-84072380D02*
X91573809Y-83072380D01*
X91478571Y-83215238D01*
X91383333Y-83310476D01*
X91288095Y-83358095D01*
X92335714Y-84072380D02*
X92526190Y-84072380D01*
X92621428Y-84024761D01*
X92669047Y-83977142D01*
X92764285Y-83834285D01*
X92811904Y-83643809D01*
X92811904Y-83262857D01*
X92764285Y-83167619D01*
X92716666Y-83120000D01*
X92621428Y-83072380D01*
X92430952Y-83072380D01*
X92335714Y-83120000D01*
X92288095Y-83167619D01*
X92240476Y-83262857D01*
X92240476Y-83500952D01*
X92288095Y-83596190D01*
X92335714Y-83643809D01*
X92430952Y-83691428D01*
X92621428Y-83691428D01*
X92716666Y-83643809D01*
X92764285Y-83596190D01*
X92811904Y-83500952D01*
X99598095Y-73262380D02*
X99598095Y-74071904D01*
X99645714Y-74167142D01*
X99693333Y-74214761D01*
X99788571Y-74262380D01*
X99979047Y-74262380D01*
X100074285Y-74214761D01*
X100121904Y-74167142D01*
X100169523Y-74071904D01*
X100169523Y-73262380D01*
X100550476Y-73262380D02*
X101169523Y-73262380D01*
X100836190Y-73643333D01*
X100979047Y-73643333D01*
X101074285Y-73690952D01*
X101121904Y-73738571D01*
X101169523Y-73833809D01*
X101169523Y-74071904D01*
X101121904Y-74167142D01*
X101074285Y-74214761D01*
X100979047Y-74262380D01*
X100693333Y-74262380D01*
X100598095Y-74214761D01*
X100550476Y-74167142D01*
X94668095Y-92082380D02*
X94668095Y-92891904D01*
X94715714Y-92987142D01*
X94763333Y-93034761D01*
X94858571Y-93082380D01*
X95049047Y-93082380D01*
X95144285Y-93034761D01*
X95191904Y-92987142D01*
X95239523Y-92891904D01*
X95239523Y-92082380D01*
X95620476Y-92082380D02*
X96287142Y-92082380D01*
X95858571Y-93082380D01*
X95770980Y-88634600D02*
X96009076Y-88634600D01*
X95913838Y-88872695D02*
X96009076Y-88634600D01*
X95913838Y-88396504D01*
X96199552Y-88777457D02*
X96009076Y-88634600D01*
X96199552Y-88491742D01*
X95770980Y-88634600D02*
X96009076Y-88634600D01*
X95913838Y-88872695D02*
X96009076Y-88634600D01*
X95913838Y-88396504D01*
X96199552Y-88777457D02*
X96009076Y-88634600D01*
X96199552Y-88491742D01*
X91018095Y-116172380D02*
X91018095Y-116981904D01*
X91065714Y-117077142D01*
X91113333Y-117124761D01*
X91208571Y-117172380D01*
X91399047Y-117172380D01*
X91494285Y-117124761D01*
X91541904Y-117077142D01*
X91589523Y-116981904D01*
X91589523Y-116172380D01*
X92113333Y-117172380D02*
X92303809Y-117172380D01*
X92399047Y-117124761D01*
X92446666Y-117077142D01*
X92541904Y-116934285D01*
X92589523Y-116743809D01*
X92589523Y-116362857D01*
X92541904Y-116267619D01*
X92494285Y-116220000D01*
X92399047Y-116172380D01*
X92208571Y-116172380D01*
X92113333Y-116220000D01*
X92065714Y-116267619D01*
X92018095Y-116362857D01*
X92018095Y-116600952D01*
X92065714Y-116696190D01*
X92113333Y-116743809D01*
X92208571Y-116791428D01*
X92399047Y-116791428D01*
X92494285Y-116743809D01*
X92541904Y-116696190D01*
X92589523Y-116600952D01*
X89364600Y-117163780D02*
X89364600Y-117401876D01*
X89126504Y-117306638D02*
X89364600Y-117401876D01*
X89602695Y-117306638D01*
X89221742Y-117592352D02*
X89364600Y-117401876D01*
X89507457Y-117592352D01*
X89364600Y-117163780D02*
X89364600Y-117401876D01*
X89126504Y-117306638D02*
X89364600Y-117401876D01*
X89602695Y-117306638D01*
X89221742Y-117592352D02*
X89364600Y-117401876D01*
X89507457Y-117592352D01*
X103868095Y-79772380D02*
X103868095Y-80581904D01*
X103915714Y-80677142D01*
X103963333Y-80724761D01*
X104058571Y-80772380D01*
X104249047Y-80772380D01*
X104344285Y-80724761D01*
X104391904Y-80677142D01*
X104439523Y-80581904D01*
X104439523Y-79772380D01*
X105391904Y-79772380D02*
X104915714Y-79772380D01*
X104868095Y-80248571D01*
X104915714Y-80200952D01*
X105010952Y-80153333D01*
X105249047Y-80153333D01*
X105344285Y-80200952D01*
X105391904Y-80248571D01*
X105439523Y-80343809D01*
X105439523Y-80581904D01*
X105391904Y-80677142D01*
X105344285Y-80724761D01*
X105249047Y-80772380D01*
X105010952Y-80772380D01*
X104915714Y-80724761D01*
X104868095Y-80677142D01*
X99511904Y-118852380D02*
X99511904Y-119661904D01*
X99559523Y-119757142D01*
X99607142Y-119804761D01*
X99702380Y-119852380D01*
X99892857Y-119852380D01*
X99988095Y-119804761D01*
X100035714Y-119757142D01*
X100083333Y-119661904D01*
X100083333Y-118852380D01*
X101083333Y-119852380D02*
X100511904Y-119852380D01*
X100797619Y-119852380D02*
X100797619Y-118852380D01*
X100702380Y-118995238D01*
X100607142Y-119090476D01*
X100511904Y-119138095D01*
X101988095Y-118852380D02*
X101511904Y-118852380D01*
X101464285Y-119328571D01*
X101511904Y-119280952D01*
X101607142Y-119233333D01*
X101845238Y-119233333D01*
X101940476Y-119280952D01*
X101988095Y-119328571D01*
X102035714Y-119423809D01*
X102035714Y-119661904D01*
X101988095Y-119757142D01*
X101940476Y-119804761D01*
X101845238Y-119852380D01*
X101607142Y-119852380D01*
X101511904Y-119804761D01*
X101464285Y-119757142D01*
X157866666Y-122672380D02*
X157866666Y-123386666D01*
X157819047Y-123529523D01*
X157723809Y-123624761D01*
X157580952Y-123672380D01*
X157485714Y-123672380D01*
X158866666Y-123672380D02*
X158295238Y-123672380D01*
X158580952Y-123672380D02*
X158580952Y-122672380D01*
X158485714Y-122815238D01*
X158390476Y-122910476D01*
X158295238Y-122958095D01*
X130356666Y-109692380D02*
X130356666Y-110406666D01*
X130309047Y-110549523D01*
X130213809Y-110644761D01*
X130070952Y-110692380D01*
X129975714Y-110692380D01*
X130832857Y-110692380D02*
X130832857Y-109692380D01*
X131213809Y-109692380D01*
X131309047Y-109740000D01*
X131356666Y-109787619D01*
X131404285Y-109882857D01*
X131404285Y-110025714D01*
X131356666Y-110120952D01*
X131309047Y-110168571D01*
X131213809Y-110216190D01*
X130832857Y-110216190D01*
X132309047Y-109692380D02*
X131832857Y-109692380D01*
X131785238Y-110168571D01*
X131832857Y-110120952D01*
X131928095Y-110073333D01*
X132166190Y-110073333D01*
X132261428Y-110120952D01*
X132309047Y-110168571D01*
X132356666Y-110263809D01*
X132356666Y-110501904D01*
X132309047Y-110597142D01*
X132261428Y-110644761D01*
X132166190Y-110692380D01*
X131928095Y-110692380D01*
X131832857Y-110644761D01*
X131785238Y-110597142D01*
X107097380Y-90579523D02*
X107811666Y-90579523D01*
X107954523Y-90627142D01*
X108049761Y-90722380D01*
X108097380Y-90865238D01*
X108097380Y-90960476D01*
X108097380Y-90103333D02*
X107097380Y-90103333D01*
X107097380Y-89722380D01*
X107145000Y-89627142D01*
X107192619Y-89579523D01*
X107287857Y-89531904D01*
X107430714Y-89531904D01*
X107525952Y-89579523D01*
X107573571Y-89627142D01*
X107621190Y-89722380D01*
X107621190Y-90103333D01*
X108097380Y-89103333D02*
X107097380Y-89103333D01*
X107097380Y-88865238D01*
X107145000Y-88722380D01*
X107240238Y-88627142D01*
X107335476Y-88579523D01*
X107525952Y-88531904D01*
X107668809Y-88531904D01*
X107859285Y-88579523D01*
X107954523Y-88627142D01*
X108049761Y-88722380D01*
X108097380Y-88865238D01*
X108097380Y-89103333D01*
X108049761Y-88150952D02*
X108097380Y-88008095D01*
X108097380Y-87770000D01*
X108049761Y-87674761D01*
X108002142Y-87627142D01*
X107906904Y-87579523D01*
X107811666Y-87579523D01*
X107716428Y-87627142D01*
X107668809Y-87674761D01*
X107621190Y-87770000D01*
X107573571Y-87960476D01*
X107525952Y-88055714D01*
X107478333Y-88103333D01*
X107383095Y-88150952D01*
X107287857Y-88150952D01*
X107192619Y-88103333D01*
X107145000Y-88055714D01*
X107097380Y-87960476D01*
X107097380Y-87722380D01*
X107145000Y-87579523D01*
X108097380Y-86627142D02*
X108097380Y-87198571D01*
X108097380Y-86912857D02*
X107097380Y-86912857D01*
X107240238Y-87008095D01*
X107335476Y-87103333D01*
X107383095Y-87198571D01*
X107167380Y-95913523D02*
X107881666Y-95913523D01*
X108024523Y-95961142D01*
X108119761Y-96056380D01*
X108167380Y-96199238D01*
X108167380Y-96294476D01*
X108167380Y-95437333D02*
X107167380Y-95437333D01*
X107167380Y-95056380D01*
X107215000Y-94961142D01*
X107262619Y-94913523D01*
X107357857Y-94865904D01*
X107500714Y-94865904D01*
X107595952Y-94913523D01*
X107643571Y-94961142D01*
X107691190Y-95056380D01*
X107691190Y-95437333D01*
X108167380Y-94437333D02*
X107167380Y-94437333D01*
X107167380Y-94199238D01*
X107215000Y-94056380D01*
X107310238Y-93961142D01*
X107405476Y-93913523D01*
X107595952Y-93865904D01*
X107738809Y-93865904D01*
X107929285Y-93913523D01*
X108024523Y-93961142D01*
X108119761Y-94056380D01*
X108167380Y-94199238D01*
X108167380Y-94437333D01*
X108119761Y-93484952D02*
X108167380Y-93342095D01*
X108167380Y-93104000D01*
X108119761Y-93008761D01*
X108072142Y-92961142D01*
X107976904Y-92913523D01*
X107881666Y-92913523D01*
X107786428Y-92961142D01*
X107738809Y-93008761D01*
X107691190Y-93104000D01*
X107643571Y-93294476D01*
X107595952Y-93389714D01*
X107548333Y-93437333D01*
X107453095Y-93484952D01*
X107357857Y-93484952D01*
X107262619Y-93437333D01*
X107215000Y-93389714D01*
X107167380Y-93294476D01*
X107167380Y-93056380D01*
X107215000Y-92913523D01*
X107262619Y-92532571D02*
X107215000Y-92484952D01*
X107167380Y-92389714D01*
X107167380Y-92151619D01*
X107215000Y-92056380D01*
X107262619Y-92008761D01*
X107357857Y-91961142D01*
X107453095Y-91961142D01*
X107595952Y-92008761D01*
X108167380Y-92580190D01*
X108167380Y-91961142D01*
X107097380Y-65063333D02*
X107811666Y-65063333D01*
X107954523Y-65110952D01*
X108049761Y-65206190D01*
X108097380Y-65349047D01*
X108097380Y-65444285D01*
X108049761Y-64634761D02*
X108097380Y-64491904D01*
X108097380Y-64253809D01*
X108049761Y-64158571D01*
X108002142Y-64110952D01*
X107906904Y-64063333D01*
X107811666Y-64063333D01*
X107716428Y-64110952D01*
X107668809Y-64158571D01*
X107621190Y-64253809D01*
X107573571Y-64444285D01*
X107525952Y-64539523D01*
X107478333Y-64587142D01*
X107383095Y-64634761D01*
X107287857Y-64634761D01*
X107192619Y-64587142D01*
X107145000Y-64539523D01*
X107097380Y-64444285D01*
X107097380Y-64206190D01*
X107145000Y-64063333D01*
X108097380Y-63634761D02*
X107097380Y-63634761D01*
X107097380Y-63396666D01*
X107145000Y-63253809D01*
X107240238Y-63158571D01*
X107335476Y-63110952D01*
X107525952Y-63063333D01*
X107668809Y-63063333D01*
X107859285Y-63110952D01*
X107954523Y-63158571D01*
X108049761Y-63253809D01*
X108097380Y-63396666D01*
X108097380Y-63634761D01*
X108097380Y-62634761D02*
X107097380Y-62634761D01*
X108097380Y-62063333D01*
X107097380Y-62063333D01*
X108097380Y-61063333D02*
X108097380Y-61634761D01*
X108097380Y-61349047D02*
X107097380Y-61349047D01*
X107240238Y-61444285D01*
X107335476Y-61539523D01*
X107383095Y-61634761D01*
X107097380Y-70397333D02*
X107811666Y-70397333D01*
X107954523Y-70444952D01*
X108049761Y-70540190D01*
X108097380Y-70683047D01*
X108097380Y-70778285D01*
X108049761Y-69968761D02*
X108097380Y-69825904D01*
X108097380Y-69587809D01*
X108049761Y-69492571D01*
X108002142Y-69444952D01*
X107906904Y-69397333D01*
X107811666Y-69397333D01*
X107716428Y-69444952D01*
X107668809Y-69492571D01*
X107621190Y-69587809D01*
X107573571Y-69778285D01*
X107525952Y-69873523D01*
X107478333Y-69921142D01*
X107383095Y-69968761D01*
X107287857Y-69968761D01*
X107192619Y-69921142D01*
X107145000Y-69873523D01*
X107097380Y-69778285D01*
X107097380Y-69540190D01*
X107145000Y-69397333D01*
X108097380Y-68968761D02*
X107097380Y-68968761D01*
X107097380Y-68730666D01*
X107145000Y-68587809D01*
X107240238Y-68492571D01*
X107335476Y-68444952D01*
X107525952Y-68397333D01*
X107668809Y-68397333D01*
X107859285Y-68444952D01*
X107954523Y-68492571D01*
X108049761Y-68587809D01*
X108097380Y-68730666D01*
X108097380Y-68968761D01*
X108097380Y-67968761D02*
X107097380Y-67968761D01*
X108097380Y-67397333D01*
X107097380Y-67397333D01*
X107192619Y-66968761D02*
X107145000Y-66921142D01*
X107097380Y-66825904D01*
X107097380Y-66587809D01*
X107145000Y-66492571D01*
X107192619Y-66444952D01*
X107287857Y-66397333D01*
X107383095Y-66397333D01*
X107525952Y-66444952D01*
X108097380Y-67016380D01*
X108097380Y-66397333D01*
X121972380Y-110452380D02*
X121496190Y-110785714D01*
X121972380Y-111023809D02*
X120972380Y-111023809D01*
X120972380Y-110642857D01*
X121020000Y-110547619D01*
X121067619Y-110500000D01*
X121162857Y-110452380D01*
X121305714Y-110452380D01*
X121400952Y-110500000D01*
X121448571Y-110547619D01*
X121496190Y-110642857D01*
X121496190Y-111023809D01*
X122067619Y-110261904D02*
X122067619Y-109500000D01*
X120972380Y-109404761D02*
X120972380Y-108833333D01*
X121972380Y-109119047D02*
X120972380Y-109119047D01*
X121972380Y-108500000D02*
X120972380Y-108500000D01*
X121448571Y-108500000D02*
X121448571Y-107928571D01*
X121972380Y-107928571D02*
X120972380Y-107928571D01*
X121972380Y-106928571D02*
X121972380Y-107500000D01*
X121972380Y-107214285D02*
X120972380Y-107214285D01*
X121115238Y-107309523D01*
X121210476Y-107404761D01*
X121258095Y-107500000D01*
X126902380Y-110452380D02*
X126426190Y-110785714D01*
X126902380Y-111023809D02*
X125902380Y-111023809D01*
X125902380Y-110642857D01*
X125950000Y-110547619D01*
X125997619Y-110500000D01*
X126092857Y-110452380D01*
X126235714Y-110452380D01*
X126330952Y-110500000D01*
X126378571Y-110547619D01*
X126426190Y-110642857D01*
X126426190Y-111023809D01*
X126997619Y-110261904D02*
X126997619Y-109500000D01*
X125902380Y-109404761D02*
X125902380Y-108833333D01*
X126902380Y-109119047D02*
X125902380Y-109119047D01*
X126902380Y-108500000D02*
X125902380Y-108500000D01*
X126378571Y-108500000D02*
X126378571Y-107928571D01*
X126902380Y-107928571D02*
X125902380Y-107928571D01*
X125997619Y-107500000D02*
X125950000Y-107452380D01*
X125902380Y-107357142D01*
X125902380Y-107119047D01*
X125950000Y-107023809D01*
X125997619Y-106976190D01*
X126092857Y-106928571D01*
X126188095Y-106928571D01*
X126330952Y-106976190D01*
X126902380Y-107547619D01*
X126902380Y-106928571D01*
M02*
