G04 #@! TF.GenerationSoftware,KiCad,Pcbnew,(5.1.6-0-10_14)*
G04 #@! TF.CreationDate,2020-08-07T15:02:42+09:00*
G04 #@! TF.ProjectId,qPCR-photoarray,71504352-2d70-4686-9f74-6f6172726179,rev?*
G04 #@! TF.SameCoordinates,Original*
G04 #@! TF.FileFunction,Legend,Top*
G04 #@! TF.FilePolarity,Positive*
%FSLAX46Y46*%
G04 Gerber Fmt 4.6, Leading zero omitted, Abs format (unit mm)*
G04 Created by KiCad (PCBNEW (5.1.6-0-10_14)) date 2020-08-07 15:02:42*
%MOMM*%
%LPD*%
G01*
G04 APERTURE LIST*
%ADD10C,0.120000*%
%ADD11C,0.150000*%
G04 APERTURE END LIST*
D10*
G04 #@! TO.C,D10*
X155560000Y-105800000D02*
X153440000Y-105800000D01*
X155560000Y-109000000D02*
X155560000Y-105800000D01*
X153440000Y-105800000D02*
X153440000Y-109000000D01*
G04 #@! TO.C,D4*
X128560000Y-105800000D02*
X126440000Y-105800000D01*
X128560000Y-109000000D02*
X128560000Y-105800000D01*
X126440000Y-105800000D02*
X126440000Y-109000000D01*
G04 #@! TO.C,D2*
X119560000Y-105800000D02*
X117440000Y-105800000D01*
X119560000Y-109000000D02*
X119560000Y-105800000D01*
X117440000Y-105800000D02*
X117440000Y-109000000D01*
G04 #@! TO.C,D1*
X117560000Y-105800000D02*
X115440000Y-105800000D01*
X117560000Y-109000000D02*
X117560000Y-105800000D01*
X115440000Y-105800000D02*
X115440000Y-109000000D01*
G04 #@! TO.C,D3*
X126560000Y-105800000D02*
X124440000Y-105800000D01*
X126560000Y-109000000D02*
X126560000Y-105800000D01*
X124440000Y-105800000D02*
X124440000Y-109000000D01*
G04 #@! TO.C,D5*
X135560000Y-105800000D02*
X133440000Y-105800000D01*
X135560000Y-109000000D02*
X135560000Y-105800000D01*
X133440000Y-105800000D02*
X133440000Y-109000000D01*
G04 #@! TO.C,D6*
X137560000Y-105800000D02*
X135440000Y-105800000D01*
X137560000Y-109000000D02*
X137560000Y-105800000D01*
X135440000Y-105800000D02*
X135440000Y-109000000D01*
G04 #@! TO.C,D7*
X144560000Y-105800000D02*
X142440000Y-105800000D01*
X144560000Y-109000000D02*
X144560000Y-105800000D01*
X142440000Y-105800000D02*
X142440000Y-109000000D01*
G04 #@! TO.C,D8*
X146560000Y-105800000D02*
X144440000Y-105800000D01*
X146560000Y-109000000D02*
X146560000Y-105800000D01*
X144440000Y-105800000D02*
X144440000Y-109000000D01*
G04 #@! TO.C,D9*
X153560000Y-105800000D02*
X151440000Y-105800000D01*
X153560000Y-109000000D02*
X153560000Y-105800000D01*
X151440000Y-105800000D02*
X151440000Y-109000000D01*
G04 #@! TO.C,D11*
X162560000Y-105800000D02*
X160440000Y-105800000D01*
X162560000Y-109000000D02*
X162560000Y-105800000D01*
X160440000Y-105800000D02*
X160440000Y-109000000D01*
G04 #@! TO.C,D12*
X164560000Y-105800000D02*
X162440000Y-105800000D01*
X164560000Y-109000000D02*
X164560000Y-105800000D01*
X162440000Y-105800000D02*
X162440000Y-109000000D01*
G04 #@! TO.C,D13*
X171560000Y-105800000D02*
X169440000Y-105800000D01*
X171560000Y-109000000D02*
X171560000Y-105800000D01*
X169440000Y-105800000D02*
X169440000Y-109000000D01*
G04 #@! TO.C,D14*
X173560000Y-105800000D02*
X171440000Y-105800000D01*
X173560000Y-109000000D02*
X173560000Y-105800000D01*
X171440000Y-105800000D02*
X171440000Y-109000000D01*
G04 #@! TO.C,D15*
X180560000Y-105800000D02*
X178440000Y-105800000D01*
X180560000Y-109000000D02*
X180560000Y-105800000D01*
X178440000Y-105800000D02*
X178440000Y-109000000D01*
G04 #@! TO.C,D16*
X182560000Y-105800000D02*
X180440000Y-105800000D01*
X182560000Y-109000000D02*
X182560000Y-105800000D01*
X180440000Y-105800000D02*
X180440000Y-109000000D01*
G04 #@! TO.C,D10*
D11*
X156752380Y-109214285D02*
X155752380Y-109214285D01*
X155752380Y-108976190D01*
X155800000Y-108833333D01*
X155895238Y-108738095D01*
X155990476Y-108690476D01*
X156180952Y-108642857D01*
X156323809Y-108642857D01*
X156514285Y-108690476D01*
X156609523Y-108738095D01*
X156704761Y-108833333D01*
X156752380Y-108976190D01*
X156752380Y-109214285D01*
X156752380Y-107690476D02*
X156752380Y-108261904D01*
X156752380Y-107976190D02*
X155752380Y-107976190D01*
X155895238Y-108071428D01*
X155990476Y-108166666D01*
X156038095Y-108261904D01*
X155752380Y-107071428D02*
X155752380Y-106976190D01*
X155800000Y-106880952D01*
X155847619Y-106833333D01*
X155942857Y-106785714D01*
X156133333Y-106738095D01*
X156371428Y-106738095D01*
X156561904Y-106785714D01*
X156657142Y-106833333D01*
X156704761Y-106880952D01*
X156752380Y-106976190D01*
X156752380Y-107071428D01*
X156704761Y-107166666D01*
X156657142Y-107214285D01*
X156561904Y-107261904D01*
X156371428Y-107309523D01*
X156133333Y-107309523D01*
X155942857Y-107261904D01*
X155847619Y-107214285D01*
X155800000Y-107166666D01*
X155752380Y-107071428D01*
G04 #@! TO.C,D4*
X129752380Y-108738095D02*
X128752380Y-108738095D01*
X128752380Y-108500000D01*
X128800000Y-108357142D01*
X128895238Y-108261904D01*
X128990476Y-108214285D01*
X129180952Y-108166666D01*
X129323809Y-108166666D01*
X129514285Y-108214285D01*
X129609523Y-108261904D01*
X129704761Y-108357142D01*
X129752380Y-108500000D01*
X129752380Y-108738095D01*
X129085714Y-107309523D02*
X129752380Y-107309523D01*
X128704761Y-107547619D02*
X129419047Y-107785714D01*
X129419047Y-107166666D01*
G04 #@! TO.C,D2*
X120752380Y-108738095D02*
X119752380Y-108738095D01*
X119752380Y-108500000D01*
X119800000Y-108357142D01*
X119895238Y-108261904D01*
X119990476Y-108214285D01*
X120180952Y-108166666D01*
X120323809Y-108166666D01*
X120514285Y-108214285D01*
X120609523Y-108261904D01*
X120704761Y-108357142D01*
X120752380Y-108500000D01*
X120752380Y-108738095D01*
X119847619Y-107785714D02*
X119800000Y-107738095D01*
X119752380Y-107642857D01*
X119752380Y-107404761D01*
X119800000Y-107309523D01*
X119847619Y-107261904D01*
X119942857Y-107214285D01*
X120038095Y-107214285D01*
X120180952Y-107261904D01*
X120752380Y-107833333D01*
X120752380Y-107214285D01*
G04 #@! TO.C,D1*
X115052380Y-108738095D02*
X114052380Y-108738095D01*
X114052380Y-108500000D01*
X114100000Y-108357142D01*
X114195238Y-108261904D01*
X114290476Y-108214285D01*
X114480952Y-108166666D01*
X114623809Y-108166666D01*
X114814285Y-108214285D01*
X114909523Y-108261904D01*
X115004761Y-108357142D01*
X115052380Y-108500000D01*
X115052380Y-108738095D01*
X115052380Y-107214285D02*
X115052380Y-107785714D01*
X115052380Y-107500000D02*
X114052380Y-107500000D01*
X114195238Y-107595238D01*
X114290476Y-107690476D01*
X114338095Y-107785714D01*
G04 #@! TO.C,D3*
X124052380Y-108738095D02*
X123052380Y-108738095D01*
X123052380Y-108500000D01*
X123100000Y-108357142D01*
X123195238Y-108261904D01*
X123290476Y-108214285D01*
X123480952Y-108166666D01*
X123623809Y-108166666D01*
X123814285Y-108214285D01*
X123909523Y-108261904D01*
X124004761Y-108357142D01*
X124052380Y-108500000D01*
X124052380Y-108738095D01*
X123052380Y-107833333D02*
X123052380Y-107214285D01*
X123433333Y-107547619D01*
X123433333Y-107404761D01*
X123480952Y-107309523D01*
X123528571Y-107261904D01*
X123623809Y-107214285D01*
X123861904Y-107214285D01*
X123957142Y-107261904D01*
X124004761Y-107309523D01*
X124052380Y-107404761D01*
X124052380Y-107690476D01*
X124004761Y-107785714D01*
X123957142Y-107833333D01*
G04 #@! TO.C,D5*
X133052380Y-108738095D02*
X132052380Y-108738095D01*
X132052380Y-108500000D01*
X132100000Y-108357142D01*
X132195238Y-108261904D01*
X132290476Y-108214285D01*
X132480952Y-108166666D01*
X132623809Y-108166666D01*
X132814285Y-108214285D01*
X132909523Y-108261904D01*
X133004761Y-108357142D01*
X133052380Y-108500000D01*
X133052380Y-108738095D01*
X132052380Y-107261904D02*
X132052380Y-107738095D01*
X132528571Y-107785714D01*
X132480952Y-107738095D01*
X132433333Y-107642857D01*
X132433333Y-107404761D01*
X132480952Y-107309523D01*
X132528571Y-107261904D01*
X132623809Y-107214285D01*
X132861904Y-107214285D01*
X132957142Y-107261904D01*
X133004761Y-107309523D01*
X133052380Y-107404761D01*
X133052380Y-107642857D01*
X133004761Y-107738095D01*
X132957142Y-107785714D01*
G04 #@! TO.C,D6*
X138752380Y-108738095D02*
X137752380Y-108738095D01*
X137752380Y-108500000D01*
X137800000Y-108357142D01*
X137895238Y-108261904D01*
X137990476Y-108214285D01*
X138180952Y-108166666D01*
X138323809Y-108166666D01*
X138514285Y-108214285D01*
X138609523Y-108261904D01*
X138704761Y-108357142D01*
X138752380Y-108500000D01*
X138752380Y-108738095D01*
X137752380Y-107309523D02*
X137752380Y-107500000D01*
X137800000Y-107595238D01*
X137847619Y-107642857D01*
X137990476Y-107738095D01*
X138180952Y-107785714D01*
X138561904Y-107785714D01*
X138657142Y-107738095D01*
X138704761Y-107690476D01*
X138752380Y-107595238D01*
X138752380Y-107404761D01*
X138704761Y-107309523D01*
X138657142Y-107261904D01*
X138561904Y-107214285D01*
X138323809Y-107214285D01*
X138228571Y-107261904D01*
X138180952Y-107309523D01*
X138133333Y-107404761D01*
X138133333Y-107595238D01*
X138180952Y-107690476D01*
X138228571Y-107738095D01*
X138323809Y-107785714D01*
G04 #@! TO.C,D7*
X142052380Y-108738095D02*
X141052380Y-108738095D01*
X141052380Y-108500000D01*
X141100000Y-108357142D01*
X141195238Y-108261904D01*
X141290476Y-108214285D01*
X141480952Y-108166666D01*
X141623809Y-108166666D01*
X141814285Y-108214285D01*
X141909523Y-108261904D01*
X142004761Y-108357142D01*
X142052380Y-108500000D01*
X142052380Y-108738095D01*
X141052380Y-107833333D02*
X141052380Y-107166666D01*
X142052380Y-107595238D01*
G04 #@! TO.C,D8*
X147752380Y-108738095D02*
X146752380Y-108738095D01*
X146752380Y-108500000D01*
X146800000Y-108357142D01*
X146895238Y-108261904D01*
X146990476Y-108214285D01*
X147180952Y-108166666D01*
X147323809Y-108166666D01*
X147514285Y-108214285D01*
X147609523Y-108261904D01*
X147704761Y-108357142D01*
X147752380Y-108500000D01*
X147752380Y-108738095D01*
X147180952Y-107595238D02*
X147133333Y-107690476D01*
X147085714Y-107738095D01*
X146990476Y-107785714D01*
X146942857Y-107785714D01*
X146847619Y-107738095D01*
X146800000Y-107690476D01*
X146752380Y-107595238D01*
X146752380Y-107404761D01*
X146800000Y-107309523D01*
X146847619Y-107261904D01*
X146942857Y-107214285D01*
X146990476Y-107214285D01*
X147085714Y-107261904D01*
X147133333Y-107309523D01*
X147180952Y-107404761D01*
X147180952Y-107595238D01*
X147228571Y-107690476D01*
X147276190Y-107738095D01*
X147371428Y-107785714D01*
X147561904Y-107785714D01*
X147657142Y-107738095D01*
X147704761Y-107690476D01*
X147752380Y-107595238D01*
X147752380Y-107404761D01*
X147704761Y-107309523D01*
X147657142Y-107261904D01*
X147561904Y-107214285D01*
X147371428Y-107214285D01*
X147276190Y-107261904D01*
X147228571Y-107309523D01*
X147180952Y-107404761D01*
G04 #@! TO.C,D9*
X151052380Y-108738095D02*
X150052380Y-108738095D01*
X150052380Y-108500000D01*
X150100000Y-108357142D01*
X150195238Y-108261904D01*
X150290476Y-108214285D01*
X150480952Y-108166666D01*
X150623809Y-108166666D01*
X150814285Y-108214285D01*
X150909523Y-108261904D01*
X151004761Y-108357142D01*
X151052380Y-108500000D01*
X151052380Y-108738095D01*
X151052380Y-107690476D02*
X151052380Y-107500000D01*
X151004761Y-107404761D01*
X150957142Y-107357142D01*
X150814285Y-107261904D01*
X150623809Y-107214285D01*
X150242857Y-107214285D01*
X150147619Y-107261904D01*
X150100000Y-107309523D01*
X150052380Y-107404761D01*
X150052380Y-107595238D01*
X150100000Y-107690476D01*
X150147619Y-107738095D01*
X150242857Y-107785714D01*
X150480952Y-107785714D01*
X150576190Y-107738095D01*
X150623809Y-107690476D01*
X150671428Y-107595238D01*
X150671428Y-107404761D01*
X150623809Y-107309523D01*
X150576190Y-107261904D01*
X150480952Y-107214285D01*
G04 #@! TO.C,D11*
X160052380Y-109214285D02*
X159052380Y-109214285D01*
X159052380Y-108976190D01*
X159100000Y-108833333D01*
X159195238Y-108738095D01*
X159290476Y-108690476D01*
X159480952Y-108642857D01*
X159623809Y-108642857D01*
X159814285Y-108690476D01*
X159909523Y-108738095D01*
X160004761Y-108833333D01*
X160052380Y-108976190D01*
X160052380Y-109214285D01*
X160052380Y-107690476D02*
X160052380Y-108261904D01*
X160052380Y-107976190D02*
X159052380Y-107976190D01*
X159195238Y-108071428D01*
X159290476Y-108166666D01*
X159338095Y-108261904D01*
X160052380Y-106738095D02*
X160052380Y-107309523D01*
X160052380Y-107023809D02*
X159052380Y-107023809D01*
X159195238Y-107119047D01*
X159290476Y-107214285D01*
X159338095Y-107309523D01*
G04 #@! TO.C,D12*
X165752380Y-109214285D02*
X164752380Y-109214285D01*
X164752380Y-108976190D01*
X164800000Y-108833333D01*
X164895238Y-108738095D01*
X164990476Y-108690476D01*
X165180952Y-108642857D01*
X165323809Y-108642857D01*
X165514285Y-108690476D01*
X165609523Y-108738095D01*
X165704761Y-108833333D01*
X165752380Y-108976190D01*
X165752380Y-109214285D01*
X165752380Y-107690476D02*
X165752380Y-108261904D01*
X165752380Y-107976190D02*
X164752380Y-107976190D01*
X164895238Y-108071428D01*
X164990476Y-108166666D01*
X165038095Y-108261904D01*
X164847619Y-107309523D02*
X164800000Y-107261904D01*
X164752380Y-107166666D01*
X164752380Y-106928571D01*
X164800000Y-106833333D01*
X164847619Y-106785714D01*
X164942857Y-106738095D01*
X165038095Y-106738095D01*
X165180952Y-106785714D01*
X165752380Y-107357142D01*
X165752380Y-106738095D01*
G04 #@! TO.C,D13*
X169052380Y-109214285D02*
X168052380Y-109214285D01*
X168052380Y-108976190D01*
X168100000Y-108833333D01*
X168195238Y-108738095D01*
X168290476Y-108690476D01*
X168480952Y-108642857D01*
X168623809Y-108642857D01*
X168814285Y-108690476D01*
X168909523Y-108738095D01*
X169004761Y-108833333D01*
X169052380Y-108976190D01*
X169052380Y-109214285D01*
X169052380Y-107690476D02*
X169052380Y-108261904D01*
X169052380Y-107976190D02*
X168052380Y-107976190D01*
X168195238Y-108071428D01*
X168290476Y-108166666D01*
X168338095Y-108261904D01*
X168052380Y-107357142D02*
X168052380Y-106738095D01*
X168433333Y-107071428D01*
X168433333Y-106928571D01*
X168480952Y-106833333D01*
X168528571Y-106785714D01*
X168623809Y-106738095D01*
X168861904Y-106738095D01*
X168957142Y-106785714D01*
X169004761Y-106833333D01*
X169052380Y-106928571D01*
X169052380Y-107214285D01*
X169004761Y-107309523D01*
X168957142Y-107357142D01*
G04 #@! TO.C,D14*
X174752380Y-109214285D02*
X173752380Y-109214285D01*
X173752380Y-108976190D01*
X173800000Y-108833333D01*
X173895238Y-108738095D01*
X173990476Y-108690476D01*
X174180952Y-108642857D01*
X174323809Y-108642857D01*
X174514285Y-108690476D01*
X174609523Y-108738095D01*
X174704761Y-108833333D01*
X174752380Y-108976190D01*
X174752380Y-109214285D01*
X174752380Y-107690476D02*
X174752380Y-108261904D01*
X174752380Y-107976190D02*
X173752380Y-107976190D01*
X173895238Y-108071428D01*
X173990476Y-108166666D01*
X174038095Y-108261904D01*
X174085714Y-106833333D02*
X174752380Y-106833333D01*
X173704761Y-107071428D02*
X174419047Y-107309523D01*
X174419047Y-106690476D01*
G04 #@! TO.C,D15*
X178052380Y-109214285D02*
X177052380Y-109214285D01*
X177052380Y-108976190D01*
X177100000Y-108833333D01*
X177195238Y-108738095D01*
X177290476Y-108690476D01*
X177480952Y-108642857D01*
X177623809Y-108642857D01*
X177814285Y-108690476D01*
X177909523Y-108738095D01*
X178004761Y-108833333D01*
X178052380Y-108976190D01*
X178052380Y-109214285D01*
X178052380Y-107690476D02*
X178052380Y-108261904D01*
X178052380Y-107976190D02*
X177052380Y-107976190D01*
X177195238Y-108071428D01*
X177290476Y-108166666D01*
X177338095Y-108261904D01*
X177052380Y-106785714D02*
X177052380Y-107261904D01*
X177528571Y-107309523D01*
X177480952Y-107261904D01*
X177433333Y-107166666D01*
X177433333Y-106928571D01*
X177480952Y-106833333D01*
X177528571Y-106785714D01*
X177623809Y-106738095D01*
X177861904Y-106738095D01*
X177957142Y-106785714D01*
X178004761Y-106833333D01*
X178052380Y-106928571D01*
X178052380Y-107166666D01*
X178004761Y-107261904D01*
X177957142Y-107309523D01*
G04 #@! TO.C,D16*
X183752380Y-109214285D02*
X182752380Y-109214285D01*
X182752380Y-108976190D01*
X182800000Y-108833333D01*
X182895238Y-108738095D01*
X182990476Y-108690476D01*
X183180952Y-108642857D01*
X183323809Y-108642857D01*
X183514285Y-108690476D01*
X183609523Y-108738095D01*
X183704761Y-108833333D01*
X183752380Y-108976190D01*
X183752380Y-109214285D01*
X183752380Y-107690476D02*
X183752380Y-108261904D01*
X183752380Y-107976190D02*
X182752380Y-107976190D01*
X182895238Y-108071428D01*
X182990476Y-108166666D01*
X183038095Y-108261904D01*
X182752380Y-106833333D02*
X182752380Y-107023809D01*
X182800000Y-107119047D01*
X182847619Y-107166666D01*
X182990476Y-107261904D01*
X183180952Y-107309523D01*
X183561904Y-107309523D01*
X183657142Y-107261904D01*
X183704761Y-107214285D01*
X183752380Y-107119047D01*
X183752380Y-106928571D01*
X183704761Y-106833333D01*
X183657142Y-106785714D01*
X183561904Y-106738095D01*
X183323809Y-106738095D01*
X183228571Y-106785714D01*
X183180952Y-106833333D01*
X183133333Y-106928571D01*
X183133333Y-107119047D01*
X183180952Y-107214285D01*
X183228571Y-107261904D01*
X183323809Y-107309523D01*
G04 #@! TD*
M02*
