M48
; DRILL file {KiCad (5.1.6-0-10_14)} date Thursday, September 10, 2020 at 04:31:10 PM
; FORMAT={-:-/ absolute / inch / decimal}
; #@! TF.CreationDate,2020-09-10T16:31:10+09:00
; #@! TF.GenerationSoftware,Kicad,Pcbnew,(5.1.6-0-10_14)
FMAT,2
INCH
T1C0.0157
T2C0.0394
%
G90
G05
T1
X3.9531Y-3.1886
X3.9925Y-3.1898
X3.9929Y-2.866
X3.9937Y-2.7785
X4.0319Y-3.1888
X4.0685Y-2.8682
X4.1254Y-2.868
X4.1927Y-2.9701
T2
X4.3307Y-2.8528
X4.3307Y-2.9528
X4.4307Y-2.8528
X4.4307Y-2.9528
X4.5307Y-2.8528
X4.5307Y-2.9528
X4.6307Y-2.8528
X4.6307Y-2.9528
X4.7307Y-2.8528
X4.7307Y-2.9528
X4.3307Y-3.4433
X4.3307Y-3.5433
X4.4307Y-3.4433
X4.4307Y-3.5433
X4.5307Y-3.4433
X4.5307Y-3.5433
X4.6307Y-3.4433
X4.6307Y-3.5433
X4.7307Y-3.4433
X4.7307Y-3.5433
X3.4266Y-3.048
X3.4266Y-3.148
X3.4266Y-3.248
X3.4266Y-3.348
X3.4266Y-3.448
X3.5266Y-3.048
X3.5266Y-3.148
X3.5266Y-3.248
X3.5266Y-3.348
X3.5266Y-3.448
T0
M30
