G04 #@! TF.GenerationSoftware,KiCad,Pcbnew,(5.1.6-0-10_14)*
G04 #@! TF.CreationDate,2021-10-06T17:17:57+09:00*
G04 #@! TF.ProjectId,qPCR-main,71504352-2d6d-4616-996e-2e6b69636164,rev?*
G04 #@! TF.SameCoordinates,Original*
G04 #@! TF.FileFunction,Soldermask,Top*
G04 #@! TF.FilePolarity,Negative*
%FSLAX46Y46*%
G04 Gerber Fmt 4.6, Leading zero omitted, Abs format (unit mm)*
G04 Created by KiCad (PCBNEW (5.1.6-0-10_14)) date 2021-10-06 17:17:57*
%MOMM*%
%LPD*%
G01*
G04 APERTURE LIST*
%ADD10C,0.475000*%
%ADD11C,0.100000*%
%ADD12R,1.350000X0.600000*%
%ADD13R,1.350000X0.400000*%
%ADD14R,0.440000X1.900000*%
%ADD15R,0.457200X0.200000*%
%ADD16R,0.678200X0.711200*%
%ADD17R,0.249999X0.499999*%
%ADD18R,2.500000X1.500000*%
%ADD19C,0.600000*%
%ADD20R,0.750000X0.800000*%
%ADD21R,1.000000X1.250000*%
%ADD22R,1.000000X2.500000*%
%ADD23R,0.800000X0.750000*%
%ADD24C,6.000000*%
%ADD25O,1.700000X1.700000*%
%ADD26R,1.700000X1.700000*%
%ADD27R,1.570000X0.410000*%
%ADD28R,0.355600X1.473200*%
%ADD29R,0.900000X0.500000*%
%ADD30R,1.000000X0.900000*%
%ADD31R,1.250000X1.000000*%
%ADD32R,1.450000X0.450000*%
%ADD33R,1.450000X0.400000*%
%ADD34C,2.000000*%
%ADD35R,3.500000X3.500000*%
%ADD36O,2.000000X2.600000*%
%ADD37R,2.000000X2.600000*%
%ADD38R,1.320800X0.558800*%
%ADD39R,0.650000X1.060000*%
%ADD40R,1.060000X0.400000*%
%ADD41R,0.400000X1.060000*%
%ADD42R,1.676400X0.355600*%
%ADD43R,0.800000X0.900000*%
%ADD44R,2.000000X1.500000*%
%ADD45R,2.000000X3.800000*%
%ADD46R,2.400000X3.000000*%
%ADD47R,0.300000X1.250000*%
%ADD48R,2.400000X2.400000*%
%ADD49C,2.400000*%
%ADD50R,0.825500X0.508000*%
%ADD51R,3.098800X1.219200*%
%ADD52R,5.100000X1.900000*%
%ADD53R,5.100000X2.100000*%
%ADD54R,2.500000X1.000000*%
%ADD55R,2.500000X2.300000*%
%ADD56R,2.300000X2.500000*%
%ADD57R,0.500000X0.900000*%
%ADD58R,3.200000X1.000000*%
%ADD59R,0.889000X1.397000*%
%ADD60R,0.762000X0.863600*%
%ADD61O,2.400000X2.400000*%
%ADD62R,0.558800X1.473200*%
G04 APERTURE END LIST*
D10*
X125300000Y-79500000D02*
G75*
G03*
X125300000Y-79500000I-400000J0D01*
G01*
X172900000Y-99500000D02*
G75*
G03*
X172900000Y-99500000I-400000J0D01*
G01*
X172900000Y-142500000D02*
G75*
G03*
X172900000Y-142500000I-400000J0D01*
G01*
X88300000Y-147500000D02*
G75*
G03*
X88300000Y-147500000I-400000J0D01*
G01*
X157300000Y-58500000D02*
G75*
G03*
X157300000Y-58500000I-400000J0D01*
G01*
X99300000Y-53000000D02*
G75*
G03*
X99300000Y-53000000I-400000J0D01*
G01*
D11*
G36*
X142780000Y-108350000D02*
G01*
X142780000Y-108950000D01*
X142280000Y-108950000D01*
X142280000Y-108350000D01*
X142780000Y-108350000D01*
G37*
G36*
X143480000Y-108350000D02*
G01*
X143480000Y-108950000D01*
X142980000Y-108950000D01*
X142980000Y-108350000D01*
X143480000Y-108350000D01*
G37*
G36*
X142080000Y-108350000D02*
G01*
X142080000Y-108950000D01*
X141580000Y-108950000D01*
X141580000Y-108350000D01*
X142080000Y-108350000D01*
G37*
G36*
X143480000Y-107530000D02*
G01*
X143480000Y-108130000D01*
X142980000Y-108130000D01*
X142980000Y-107530000D01*
X143480000Y-107530000D01*
G37*
G36*
X142080000Y-107530000D02*
G01*
X142080000Y-108130000D01*
X141580000Y-108130000D01*
X141580000Y-107530000D01*
X142080000Y-107530000D01*
G37*
G36*
X142780000Y-107530000D02*
G01*
X142780000Y-108130000D01*
X142280000Y-108130000D01*
X142280000Y-107530000D01*
X142780000Y-107530000D01*
G37*
G36*
X142780000Y-105890000D02*
G01*
X142780000Y-106490000D01*
X142280000Y-106490000D01*
X142280000Y-105890000D01*
X142780000Y-105890000D01*
G37*
G36*
X143480000Y-105890000D02*
G01*
X143480000Y-106490000D01*
X142980000Y-106490000D01*
X142980000Y-105890000D01*
X143480000Y-105890000D01*
G37*
G36*
X142080000Y-105890000D02*
G01*
X142080000Y-106490000D01*
X141580000Y-106490000D01*
X141580000Y-105890000D01*
X142080000Y-105890000D01*
G37*
G36*
X143480000Y-106710000D02*
G01*
X143480000Y-107310000D01*
X142980000Y-107310000D01*
X142980000Y-106710000D01*
X143480000Y-106710000D01*
G37*
G36*
X142080000Y-106710000D02*
G01*
X142080000Y-107310000D01*
X141580000Y-107310000D01*
X141580000Y-106710000D01*
X142080000Y-106710000D01*
G37*
G36*
X142780000Y-106710000D02*
G01*
X142780000Y-107310000D01*
X142280000Y-107310000D01*
X142280000Y-106710000D01*
X142780000Y-106710000D01*
G37*
D12*
X145580000Y-103105000D03*
X139480000Y-103105000D03*
D13*
X145580000Y-103855000D03*
X139480000Y-103855000D03*
X145580000Y-104505000D03*
X139480000Y-104505000D03*
X145580000Y-105155000D03*
X139480000Y-105155000D03*
X145580000Y-105805000D03*
X139480000Y-105805000D03*
X145580000Y-106455000D03*
X139480000Y-106455000D03*
X145580000Y-107105000D03*
X139480000Y-107105000D03*
X145580000Y-107755000D03*
X139480000Y-107755000D03*
X145580000Y-108405000D03*
X139480000Y-108405000D03*
X145580000Y-109055000D03*
X139480000Y-109055000D03*
X145580000Y-109705000D03*
X139480000Y-109705000D03*
X145580000Y-110355000D03*
X139480000Y-110355000D03*
X145580000Y-111005000D03*
X139480000Y-111005000D03*
D12*
X145580000Y-111755000D03*
X139480000Y-111755000D03*
D14*
X127855000Y-110935000D03*
X128505000Y-110935000D03*
X129155000Y-110935000D03*
X129805000Y-110935000D03*
X130455000Y-110935000D03*
X131105000Y-110935000D03*
X131755000Y-110935000D03*
X132405000Y-110935000D03*
X133055000Y-110935000D03*
X133705000Y-110935000D03*
X134355000Y-110935000D03*
X135005000Y-110935000D03*
X135005000Y-103925000D03*
X134355000Y-103925000D03*
X133705000Y-103925000D03*
X133055000Y-103925000D03*
X132405000Y-103925000D03*
X131755000Y-103925000D03*
X131105000Y-103925000D03*
X130455000Y-103925000D03*
X129805000Y-103925000D03*
X129155000Y-103925000D03*
X128505000Y-103925000D03*
X127855000Y-103925000D03*
X116255000Y-110935000D03*
X116905000Y-110935000D03*
X117555000Y-110935000D03*
X118205000Y-110935000D03*
X118855000Y-110935000D03*
X119505000Y-110935000D03*
X120155000Y-110935000D03*
X120805000Y-110935000D03*
X121455000Y-110935000D03*
X122105000Y-110935000D03*
X122755000Y-110935000D03*
X123405000Y-110935000D03*
X123405000Y-103925000D03*
X122755000Y-103925000D03*
X122105000Y-103925000D03*
X121455000Y-103925000D03*
X120805000Y-103925000D03*
X120155000Y-103925000D03*
X119505000Y-103925000D03*
X118855000Y-103925000D03*
X118205000Y-103925000D03*
X117555000Y-103925000D03*
X116905000Y-103925000D03*
X116255000Y-103925000D03*
D15*
X106445000Y-125150001D03*
X106445000Y-125550000D03*
X106445000Y-125950000D03*
X106445000Y-126349999D03*
X107995000Y-126349999D03*
X107995000Y-125950000D03*
X107995000Y-125550000D03*
X107995000Y-125150001D03*
D16*
X107220000Y-126398000D03*
D17*
X110540000Y-114180000D03*
X111039999Y-114180000D03*
X111540000Y-114180000D03*
X112040000Y-114180000D03*
X112540001Y-114180000D03*
X113040000Y-114180000D03*
X113040000Y-111280000D03*
X112540001Y-111280000D03*
X112040000Y-111280000D03*
X111540000Y-111280000D03*
X111039999Y-111280000D03*
X110540000Y-111280000D03*
D18*
X111790000Y-112730000D03*
D19*
X110789999Y-112730000D03*
X111790000Y-112130000D03*
X112790001Y-112730000D03*
X111790000Y-113229999D03*
D20*
X105150000Y-126400000D03*
X105150000Y-124900000D03*
D21*
X108500000Y-129480000D03*
X106500000Y-129480000D03*
D22*
X102150000Y-132910000D03*
X105150000Y-132910000D03*
D23*
X107880000Y-127800000D03*
X106380000Y-127800000D03*
D24*
X158500000Y-143270000D03*
X100500000Y-94270000D03*
X158500000Y-94270000D03*
X100500000Y-143270000D03*
D25*
X153630000Y-144540000D03*
X153630000Y-142000000D03*
X135850000Y-144540000D03*
X135850000Y-142000000D03*
X130770000Y-144540000D03*
X130770000Y-142000000D03*
X140930000Y-144540000D03*
X140930000Y-142000000D03*
X112990000Y-144540000D03*
X112990000Y-142000000D03*
X143470000Y-144540000D03*
X143470000Y-142000000D03*
X125690000Y-144540000D03*
X125690000Y-142000000D03*
X148550000Y-144540000D03*
X148550000Y-142000000D03*
X146010000Y-144540000D03*
X146010000Y-142000000D03*
X151090000Y-144540000D03*
X151090000Y-142000000D03*
X128230000Y-144540000D03*
X128230000Y-142000000D03*
X115530000Y-144540000D03*
X115530000Y-142000000D03*
X120610000Y-144540000D03*
X120610000Y-142000000D03*
X138390000Y-144540000D03*
X138390000Y-142000000D03*
X118070000Y-144540000D03*
X118070000Y-142000000D03*
X133310000Y-144540000D03*
X133310000Y-142000000D03*
D26*
X105370000Y-142000000D03*
D25*
X105370000Y-144540000D03*
X110450000Y-142000000D03*
X107910000Y-144540000D03*
X123150000Y-144540000D03*
X123150000Y-142000000D03*
X107910000Y-142000000D03*
X110450000Y-144540000D03*
D24*
X100500000Y-120270000D03*
X158500000Y-120270000D03*
D27*
X136340000Y-119125000D03*
X136340000Y-119775000D03*
X136340000Y-120425000D03*
X136340000Y-121075000D03*
X136340000Y-121725000D03*
X136340000Y-122375000D03*
X136340000Y-123025000D03*
X136340000Y-123675000D03*
X130600000Y-123675000D03*
X130600000Y-123025000D03*
X130600000Y-122375000D03*
X130600000Y-121725000D03*
X130600000Y-121075000D03*
X130600000Y-120425000D03*
X130600000Y-119775000D03*
X130600000Y-119125000D03*
D26*
X117670000Y-118400000D03*
X105700000Y-87440000D03*
D25*
X105700000Y-84900000D03*
D28*
X124144999Y-125129400D03*
X123494998Y-125129400D03*
X122844999Y-125129400D03*
X122194998Y-125129400D03*
X121544999Y-125129400D03*
X120895001Y-125129400D03*
X120244999Y-125129400D03*
X119595001Y-125129400D03*
X119595001Y-119490600D03*
X120245002Y-119490600D03*
X120895001Y-119490600D03*
X121545002Y-119490600D03*
X122195001Y-119490600D03*
X122844999Y-119490600D03*
X123495001Y-119490600D03*
X124144999Y-119490600D03*
D29*
X117660000Y-125520000D03*
X117660000Y-124020000D03*
X128460000Y-119570000D03*
X128460000Y-121070000D03*
D23*
X126900000Y-119140000D03*
X125400000Y-119140000D03*
D30*
X126962500Y-120577500D03*
X125337500Y-120577500D03*
X125337500Y-121802500D03*
X126962500Y-121802500D03*
D31*
X115640000Y-120660000D03*
X115640000Y-122660000D03*
D32*
X140330000Y-114000000D03*
D33*
X140330000Y-114675000D03*
X140330000Y-115325000D03*
D32*
X140330000Y-116000000D03*
X144730000Y-116000000D03*
D33*
X144730000Y-115325000D03*
X144730000Y-114675000D03*
D32*
X144730000Y-114000000D03*
D34*
X166590000Y-55500000D03*
X170090000Y-55500000D03*
X144500000Y-55500000D03*
X141000000Y-55500000D03*
X136000000Y-55500000D03*
X132500000Y-55500000D03*
X158000000Y-55500000D03*
X161500000Y-55500000D03*
X153000000Y-55500000D03*
X149500000Y-55500000D03*
G36*
G01*
X176579000Y-60675000D02*
X176579000Y-62425000D01*
G75*
G02*
X175704000Y-63300000I-875000J0D01*
G01*
X173954000Y-63300000D01*
G75*
G02*
X173079000Y-62425000I0J875000D01*
G01*
X173079000Y-60675000D01*
G75*
G02*
X173954000Y-59800000I875000J0D01*
G01*
X175704000Y-59800000D01*
G75*
G02*
X176579000Y-60675000I0J-875000D01*
G01*
G37*
G36*
G01*
X179329000Y-65250000D02*
X179329000Y-67250000D01*
G75*
G02*
X178579000Y-68000000I-750000J0D01*
G01*
X177079000Y-68000000D01*
G75*
G02*
X176329000Y-67250000I0J750000D01*
G01*
X176329000Y-65250000D01*
G75*
G02*
X177079000Y-64500000I750000J0D01*
G01*
X178579000Y-64500000D01*
G75*
G02*
X179329000Y-65250000I0J-750000D01*
G01*
G37*
D35*
X171829000Y-66250000D03*
D26*
X123150000Y-148000000D03*
X125690000Y-148000000D03*
X128230000Y-148000000D03*
X130770000Y-148000000D03*
X133310000Y-148000000D03*
X146010000Y-148000000D03*
X143470000Y-148000000D03*
X148550000Y-148000000D03*
D11*
G36*
X129890602Y-128080000D02*
G01*
X129890602Y-128055466D01*
X129895412Y-128006635D01*
X129904984Y-127958510D01*
X129919228Y-127911555D01*
X129938005Y-127866222D01*
X129961136Y-127822949D01*
X129988396Y-127782150D01*
X130019524Y-127744221D01*
X130054221Y-127709524D01*
X130092150Y-127678396D01*
X130132949Y-127651136D01*
X130176222Y-127628005D01*
X130221555Y-127609228D01*
X130268510Y-127594984D01*
X130316635Y-127585412D01*
X130365466Y-127580602D01*
X130390000Y-127580602D01*
X130390000Y-127580000D01*
X130890000Y-127580000D01*
X130890000Y-127580602D01*
X130914534Y-127580602D01*
X130963365Y-127585412D01*
X131011490Y-127594984D01*
X131058445Y-127609228D01*
X131103778Y-127628005D01*
X131147051Y-127651136D01*
X131187850Y-127678396D01*
X131225779Y-127709524D01*
X131260476Y-127744221D01*
X131291604Y-127782150D01*
X131318864Y-127822949D01*
X131341995Y-127866222D01*
X131360772Y-127911555D01*
X131375016Y-127958510D01*
X131384588Y-128006635D01*
X131389398Y-128055466D01*
X131389398Y-128080000D01*
X131390000Y-128080000D01*
X131390000Y-128580000D01*
X129890000Y-128580000D01*
X129890000Y-128080000D01*
X129890602Y-128080000D01*
G37*
G36*
X131390000Y-128880000D02*
G01*
X131390000Y-129380000D01*
X131389398Y-129380000D01*
X131389398Y-129404534D01*
X131384588Y-129453365D01*
X131375016Y-129501490D01*
X131360772Y-129548445D01*
X131341995Y-129593778D01*
X131318864Y-129637051D01*
X131291604Y-129677850D01*
X131260476Y-129715779D01*
X131225779Y-129750476D01*
X131187850Y-129781604D01*
X131147051Y-129808864D01*
X131103778Y-129831995D01*
X131058445Y-129850772D01*
X131011490Y-129865016D01*
X130963365Y-129874588D01*
X130914534Y-129879398D01*
X130890000Y-129879398D01*
X130890000Y-129880000D01*
X130390000Y-129880000D01*
X130390000Y-129879398D01*
X130365466Y-129879398D01*
X130316635Y-129874588D01*
X130268510Y-129865016D01*
X130221555Y-129850772D01*
X130176222Y-129831995D01*
X130132949Y-129808864D01*
X130092150Y-129781604D01*
X130054221Y-129750476D01*
X130019524Y-129715779D01*
X129988396Y-129677850D01*
X129961136Y-129637051D01*
X129938005Y-129593778D01*
X129919228Y-129548445D01*
X129904984Y-129501490D01*
X129895412Y-129453365D01*
X129890602Y-129404534D01*
X129890602Y-129380000D01*
X129890000Y-129380000D01*
X129890000Y-128880000D01*
X131390000Y-128880000D01*
G37*
D36*
X177130000Y-55500000D03*
D37*
X174590000Y-55500000D03*
D38*
X173525532Y-76400000D03*
X171341132Y-77339800D03*
X171341132Y-75460200D03*
X167692199Y-76400000D03*
X165507799Y-77339800D03*
X165507799Y-75460200D03*
X148007800Y-75460200D03*
X148007800Y-77339800D03*
X150192200Y-76400000D03*
X144358867Y-76400000D03*
X142174467Y-77339800D03*
X142174467Y-75460200D03*
X159674466Y-75460200D03*
X159674466Y-77339800D03*
X161858866Y-76400000D03*
X153841133Y-75460200D03*
X153841133Y-77339800D03*
X156025533Y-76400000D03*
D25*
X103465500Y-56770000D03*
D26*
X103465500Y-54230000D03*
X119465500Y-54230000D03*
D25*
X119465500Y-56770000D03*
D26*
X115465500Y-54230000D03*
D25*
X115465500Y-56770000D03*
X111465500Y-56770000D03*
D26*
X111465500Y-54230000D03*
D25*
X107465500Y-56770000D03*
D26*
X107465500Y-54230000D03*
X127465500Y-54230000D03*
D25*
X127465500Y-56770000D03*
D26*
X123465500Y-54230000D03*
D25*
X123465500Y-56770000D03*
D39*
X121030000Y-113320000D03*
X122930000Y-113320000D03*
X122930000Y-115520000D03*
X121980000Y-115520000D03*
X121030000Y-115520000D03*
D40*
X125010000Y-115730000D03*
X125010000Y-116380000D03*
X125010000Y-117040000D03*
X125010000Y-117690000D03*
X127210000Y-117690000D03*
X127210000Y-117040000D03*
X127210000Y-116380000D03*
X127210000Y-115730000D03*
D41*
X134450000Y-126980000D03*
X133800000Y-126980000D03*
X133140000Y-126980000D03*
X132490000Y-126980000D03*
X132490000Y-124780000D03*
X133140000Y-124780000D03*
X133800000Y-124780000D03*
X134450000Y-124780000D03*
D42*
X145579400Y-119125001D03*
X145579400Y-119775002D03*
X145579400Y-120425001D03*
X145579400Y-121075002D03*
X145579400Y-121725001D03*
X145579400Y-122374999D03*
X145579400Y-123025001D03*
X145579400Y-123674999D03*
X139940600Y-123674999D03*
X139940600Y-123024998D03*
X139940600Y-122374999D03*
X139940600Y-121724998D03*
X139940600Y-121074999D03*
X139940600Y-120425001D03*
X139940600Y-119774999D03*
X139940600Y-119125001D03*
D43*
X93936000Y-80450000D03*
X92986000Y-78450000D03*
X94886000Y-78450000D03*
X92926000Y-91450000D03*
X91026000Y-91450000D03*
X91976000Y-93450000D03*
X91976000Y-106450000D03*
X91026000Y-104450000D03*
X92926000Y-104450000D03*
X92926000Y-117450000D03*
X91026000Y-117450000D03*
X91976000Y-119450000D03*
X91976000Y-132450000D03*
X91026000Y-130450000D03*
X92926000Y-130450000D03*
D44*
X157700000Y-109860000D03*
X157700000Y-105260000D03*
X157700000Y-107560000D03*
D45*
X151400000Y-107560000D03*
D26*
X105370000Y-148000000D03*
D25*
X107910000Y-148000000D03*
X110450000Y-148000000D03*
X112990000Y-148000000D03*
X115530000Y-148000000D03*
D46*
X111330000Y-95105000D03*
X144430000Y-95105000D03*
D47*
X113130000Y-97430000D03*
X113630000Y-97430000D03*
X114130000Y-97430000D03*
X114630000Y-97430000D03*
X115130000Y-97430000D03*
X115630000Y-97430000D03*
X116130000Y-97430000D03*
X116630000Y-97430000D03*
X117130000Y-97430000D03*
X117630000Y-97430000D03*
X118130000Y-97430000D03*
X118630000Y-97430000D03*
X119130000Y-97430000D03*
X119630000Y-97430000D03*
X120130000Y-97430000D03*
X120630000Y-97430000D03*
X121130000Y-97430000D03*
X121630000Y-97430000D03*
X122130000Y-97430000D03*
X122630000Y-97430000D03*
X123130000Y-97430000D03*
X123630000Y-97430000D03*
X124130000Y-97430000D03*
X124630000Y-97430000D03*
X125130000Y-97430000D03*
X125630000Y-97430000D03*
X126130000Y-97430000D03*
X126630000Y-97430000D03*
X127130000Y-97430000D03*
X127630000Y-97430000D03*
X128130000Y-97430000D03*
X128630000Y-97430000D03*
X129130000Y-97430000D03*
X129630000Y-97430000D03*
X130130000Y-97430000D03*
X130630000Y-97430000D03*
X131130000Y-97430000D03*
X131630000Y-97430000D03*
X132130000Y-97430000D03*
X132630000Y-97430000D03*
X133130000Y-97430000D03*
X133630000Y-97430000D03*
X134130000Y-97430000D03*
X134630000Y-97430000D03*
X135130000Y-97430000D03*
X135630000Y-97430000D03*
X136130000Y-97430000D03*
X136630000Y-97430000D03*
X137130000Y-97430000D03*
X137630000Y-97430000D03*
X138130000Y-97430000D03*
X138630000Y-97430000D03*
X139130000Y-97430000D03*
X139630000Y-97430000D03*
X140130000Y-97430000D03*
X140630000Y-97430000D03*
X141130000Y-97430000D03*
X141630000Y-97430000D03*
X142130000Y-97430000D03*
X142630000Y-97430000D03*
D26*
X131560000Y-113504000D03*
X131560000Y-116044000D03*
X125760000Y-110210000D03*
D48*
X85546000Y-88320000D03*
D49*
X85546000Y-83320000D03*
X85546000Y-96320000D03*
D48*
X85546000Y-101320000D03*
X85546000Y-114320000D03*
D49*
X85546000Y-109320000D03*
D48*
X85546000Y-127320000D03*
D49*
X85546000Y-122320000D03*
X85546000Y-135320000D03*
D48*
X85546000Y-140320000D03*
D50*
X141636350Y-126832500D03*
X141636350Y-124927500D03*
X144163650Y-124940200D03*
X144163650Y-125880000D03*
X144163650Y-126819800D03*
D26*
X151090000Y-148000000D03*
X153630000Y-148000000D03*
D51*
X172092700Y-85270000D03*
X166987300Y-85270000D03*
D52*
X101200000Y-129730000D03*
D53*
X101200000Y-125530000D03*
D31*
X117660000Y-122640000D03*
X117660000Y-120640000D03*
D20*
X138000000Y-122330000D03*
X138000000Y-120830000D03*
D23*
X128690000Y-118080000D03*
X130190000Y-118080000D03*
D20*
X124820000Y-112730000D03*
X124820000Y-114230000D03*
X129392000Y-114230000D03*
X129392000Y-112730000D03*
D23*
X121340000Y-117160000D03*
X122840000Y-117160000D03*
D20*
X146720000Y-114250000D03*
X146720000Y-115750000D03*
D23*
X143380000Y-99250000D03*
X144880000Y-99250000D03*
X109290000Y-125110000D03*
X110790000Y-125110000D03*
X109258000Y-123704000D03*
X107758000Y-123704000D03*
X109258000Y-122434000D03*
X107758000Y-122434000D03*
D21*
X107508000Y-121164000D03*
X109508000Y-121164000D03*
D22*
X105210000Y-136430000D03*
X102210000Y-136430000D03*
D31*
X149760000Y-126460000D03*
X149760000Y-124460000D03*
D22*
X149550000Y-101880000D03*
X152550000Y-101880000D03*
D23*
X146730000Y-124640000D03*
X148230000Y-124640000D03*
X154800000Y-101880000D03*
X156300000Y-101880000D03*
X146730000Y-126130000D03*
X148230000Y-126130000D03*
D22*
X155950000Y-113280000D03*
X158950000Y-113280000D03*
D23*
X158160000Y-115960000D03*
X156660000Y-115960000D03*
D20*
X145540000Y-124700000D03*
X145540000Y-126200000D03*
D21*
X138160000Y-126060000D03*
X140160000Y-126060000D03*
D54*
X110720000Y-105000000D03*
X110720000Y-108000000D03*
D20*
X113330000Y-115410000D03*
X113330000Y-116910000D03*
D23*
X108210000Y-112270000D03*
X109710000Y-112270000D03*
X109540000Y-113890000D03*
X108040000Y-113890000D03*
D21*
X112700000Y-109790000D03*
X110700000Y-109790000D03*
D54*
X115560000Y-113310000D03*
X115560000Y-116310000D03*
X118570000Y-116270000D03*
X118570000Y-113270000D03*
D55*
X104020000Y-64130000D03*
X99720000Y-64130000D03*
D56*
X94270000Y-70140000D03*
X94270000Y-74440000D03*
D31*
X114460000Y-109680000D03*
X114460000Y-111680000D03*
D29*
X145896000Y-86000000D03*
X145896000Y-84500000D03*
X144118000Y-84500000D03*
X144118000Y-86000000D03*
X158422000Y-86000000D03*
X158422000Y-84500000D03*
X156644000Y-84500000D03*
X156644000Y-86000000D03*
X151310000Y-86000000D03*
X151310000Y-84500000D03*
X140562000Y-84500000D03*
X140562000Y-86000000D03*
X142340000Y-84500000D03*
X142340000Y-86000000D03*
X153088000Y-84500000D03*
X153088000Y-86000000D03*
X154866000Y-84500000D03*
X154866000Y-86000000D03*
X125650000Y-124350000D03*
X125650000Y-122850000D03*
X126344000Y-112730000D03*
X126344000Y-114230000D03*
X127868000Y-114230000D03*
X127868000Y-112730000D03*
X128960000Y-115550000D03*
X128960000Y-117050000D03*
X138380000Y-114988000D03*
X138380000Y-113488000D03*
D57*
X137220000Y-126740000D03*
X135720000Y-126740000D03*
X137220000Y-125130000D03*
X135720000Y-125130000D03*
X110640000Y-126560000D03*
X109140000Y-126560000D03*
D29*
X110080000Y-127900000D03*
X110080000Y-129400000D03*
X160200000Y-84500000D03*
X160200000Y-86000000D03*
X163050000Y-84500000D03*
X163050000Y-86000000D03*
D58*
X93936000Y-82720000D03*
X93936000Y-88920000D03*
X93936000Y-101920000D03*
X93936000Y-95720000D03*
X93936000Y-108720000D03*
X93936000Y-114920000D03*
X93936000Y-127920000D03*
X93936000Y-121720000D03*
X93936000Y-134720000D03*
X93936000Y-140920000D03*
D29*
X110300000Y-115410000D03*
X110300000Y-116910000D03*
X111860000Y-117310000D03*
X111860000Y-115810000D03*
D59*
X177510000Y-74429300D03*
D60*
X177510000Y-72664000D03*
D49*
X100950000Y-88510000D03*
D61*
X100950000Y-68190000D03*
D62*
X135039999Y-113044200D03*
X136940001Y-113044200D03*
X136940001Y-115431800D03*
X135990000Y-115431800D03*
X135039999Y-115431800D03*
D26*
X127930000Y-126126000D03*
X127930000Y-123586000D03*
D58*
X105820000Y-81860000D03*
X105820000Y-75660000D03*
D11*
G36*
X104960000Y-73325000D02*
G01*
X104210000Y-72825000D01*
X104210000Y-71825000D01*
X105710000Y-71825000D01*
X105710000Y-72825000D01*
X104960000Y-73325000D01*
G37*
G36*
X104210000Y-74275000D02*
G01*
X104210000Y-73125000D01*
X104960000Y-73625000D01*
X105710000Y-73125000D01*
X105710000Y-74275000D01*
X104210000Y-74275000D01*
G37*
G36*
X106500000Y-74275000D02*
G01*
X106500000Y-73125000D01*
X107250000Y-73625000D01*
X108000000Y-73125000D01*
X108000000Y-74275000D01*
X106500000Y-74275000D01*
G37*
G36*
X107250000Y-73325000D02*
G01*
X106500000Y-72825000D01*
X106500000Y-71825000D01*
X108000000Y-71825000D01*
X108000000Y-72825000D01*
X107250000Y-73325000D01*
G37*
M02*
