%TF.GenerationSoftware,KiCad,Pcbnew,(6.0.5-0)*%
%TF.CreationDate,2022-10-09T22:43:55+09:00*%
%TF.ProjectId,qLAMP-lcd,714c414d-502d-46c6-9364-2e6b69636164,rev?*%
%TF.SameCoordinates,Original*%
%TF.FileFunction,Legend,Top*%
%TF.FilePolarity,Positive*%
%FSLAX46Y46*%
G04 Gerber Fmt 4.6, Leading zero omitted, Abs format (unit mm)*
G04 Created by KiCad (PCBNEW (6.0.5-0)) date 2022-10-09 22:43:55*
%MOMM*%
%LPD*%
G01*
G04 APERTURE LIST*
%ADD10C,0.500000*%
%ADD11C,0.300000*%
%ADD12C,0.150000*%
%ADD13C,0.120000*%
G04 APERTURE END LIST*
D10*
X170139526Y-97529526D02*
X167984534Y-95374534D01*
X167984534Y-96452030D02*
X167984534Y-95374534D01*
X169062030Y-95374534D01*
X167984534Y-108374534D02*
X170139526Y-110529526D01*
X170139526Y-109452030D02*
X170139526Y-110529526D01*
X169062030Y-110529526D01*
D11*
X167967142Y-101928571D02*
X168252857Y-101928571D01*
X168395714Y-102000000D01*
X168538571Y-102142857D01*
X168610000Y-102428571D01*
X168610000Y-102928571D01*
X168538571Y-103214285D01*
X168395714Y-103357142D01*
X168252857Y-103428571D01*
X167967142Y-103428571D01*
X167824285Y-103357142D01*
X167681428Y-103214285D01*
X167610000Y-102928571D01*
X167610000Y-102428571D01*
X167681428Y-102142857D01*
X167824285Y-102000000D01*
X167967142Y-101928571D01*
X169252857Y-103428571D02*
X169252857Y-101928571D01*
X170110000Y-103428571D02*
X169467142Y-102571428D01*
X170110000Y-101928571D02*
X169252857Y-102785714D01*
D12*
%TO.C,R7*%
X144293333Y-100913015D02*
X143960000Y-100436825D01*
X143721904Y-100913015D02*
X143721904Y-99913015D01*
X144102857Y-99913015D01*
X144198095Y-99960635D01*
X144245714Y-100008254D01*
X144293333Y-100103492D01*
X144293333Y-100246349D01*
X144245714Y-100341587D01*
X144198095Y-100389206D01*
X144102857Y-100436825D01*
X143721904Y-100436825D01*
X144626666Y-99913015D02*
X145293333Y-99913015D01*
X144864761Y-100913015D01*
%TO.C,J4*%
X182732380Y-105953333D02*
X183446666Y-105953333D01*
X183589523Y-106000952D01*
X183684761Y-106096190D01*
X183732380Y-106239047D01*
X183732380Y-106334285D01*
X183065714Y-105048571D02*
X183732380Y-105048571D01*
X182684761Y-105286666D02*
X183399047Y-105524761D01*
X183399047Y-104905714D01*
%TO.C,SW3*%
X162436666Y-107704761D02*
X162579523Y-107752380D01*
X162817619Y-107752380D01*
X162912857Y-107704761D01*
X162960476Y-107657142D01*
X163008095Y-107561904D01*
X163008095Y-107466666D01*
X162960476Y-107371428D01*
X162912857Y-107323809D01*
X162817619Y-107276190D01*
X162627142Y-107228571D01*
X162531904Y-107180952D01*
X162484285Y-107133333D01*
X162436666Y-107038095D01*
X162436666Y-106942857D01*
X162484285Y-106847619D01*
X162531904Y-106800000D01*
X162627142Y-106752380D01*
X162865238Y-106752380D01*
X163008095Y-106800000D01*
X163341428Y-106752380D02*
X163579523Y-107752380D01*
X163770000Y-107038095D01*
X163960476Y-107752380D01*
X164198571Y-106752380D01*
X164484285Y-106752380D02*
X165103333Y-106752380D01*
X164770000Y-107133333D01*
X164912857Y-107133333D01*
X165008095Y-107180952D01*
X165055714Y-107228571D01*
X165103333Y-107323809D01*
X165103333Y-107561904D01*
X165055714Y-107657142D01*
X165008095Y-107704761D01*
X164912857Y-107752380D01*
X164627142Y-107752380D01*
X164531904Y-107704761D01*
X164484285Y-107657142D01*
%TO.C,R11*%
X143477142Y-106219016D02*
X143143809Y-105742826D01*
X142905714Y-106219016D02*
X142905714Y-105219016D01*
X143286666Y-105219016D01*
X143381904Y-105266636D01*
X143429523Y-105314255D01*
X143477142Y-105409493D01*
X143477142Y-105552350D01*
X143429523Y-105647588D01*
X143381904Y-105695207D01*
X143286666Y-105742826D01*
X142905714Y-105742826D01*
X144429523Y-106219016D02*
X143858095Y-106219016D01*
X144143809Y-106219016D02*
X144143809Y-105219016D01*
X144048571Y-105361874D01*
X143953333Y-105457112D01*
X143858095Y-105504731D01*
X145381904Y-106219016D02*
X144810476Y-106219016D01*
X145096190Y-106219016D02*
X145096190Y-105219016D01*
X145000952Y-105361874D01*
X144905714Y-105457112D01*
X144810476Y-105504731D01*
%TO.C,R5*%
X144293333Y-99135015D02*
X143960000Y-98658825D01*
X143721904Y-99135015D02*
X143721904Y-98135015D01*
X144102857Y-98135015D01*
X144198095Y-98182635D01*
X144245714Y-98230254D01*
X144293333Y-98325492D01*
X144293333Y-98468349D01*
X144245714Y-98563587D01*
X144198095Y-98611206D01*
X144102857Y-98658825D01*
X143721904Y-98658825D01*
X145198095Y-98135015D02*
X144721904Y-98135015D01*
X144674285Y-98611206D01*
X144721904Y-98563587D01*
X144817142Y-98515968D01*
X145055238Y-98515968D01*
X145150476Y-98563587D01*
X145198095Y-98611206D01*
X145245714Y-98706444D01*
X145245714Y-98944539D01*
X145198095Y-99039777D01*
X145150476Y-99087396D01*
X145055238Y-99135015D01*
X144817142Y-99135015D01*
X144721904Y-99087396D01*
X144674285Y-99039777D01*
%TO.C,R9*%
X144293333Y-102699016D02*
X143960000Y-102222826D01*
X143721904Y-102699016D02*
X143721904Y-101699016D01*
X144102857Y-101699016D01*
X144198095Y-101746636D01*
X144245714Y-101794255D01*
X144293333Y-101889493D01*
X144293333Y-102032350D01*
X144245714Y-102127588D01*
X144198095Y-102175207D01*
X144102857Y-102222826D01*
X143721904Y-102222826D01*
X144769523Y-102699016D02*
X144960000Y-102699016D01*
X145055238Y-102651397D01*
X145102857Y-102603778D01*
X145198095Y-102460921D01*
X145245714Y-102270445D01*
X145245714Y-101889493D01*
X145198095Y-101794255D01*
X145150476Y-101746636D01*
X145055238Y-101699016D01*
X144864761Y-101699016D01*
X144769523Y-101746636D01*
X144721904Y-101794255D01*
X144674285Y-101889493D01*
X144674285Y-102127588D01*
X144721904Y-102222826D01*
X144769523Y-102270445D01*
X144864761Y-102318064D01*
X145055238Y-102318064D01*
X145150476Y-102270445D01*
X145198095Y-102222826D01*
X145245714Y-102127588D01*
%TO.C,SW2*%
X162436666Y-101214761D02*
X162579523Y-101262380D01*
X162817619Y-101262380D01*
X162912857Y-101214761D01*
X162960476Y-101167142D01*
X163008095Y-101071904D01*
X163008095Y-100976666D01*
X162960476Y-100881428D01*
X162912857Y-100833809D01*
X162817619Y-100786190D01*
X162627142Y-100738571D01*
X162531904Y-100690952D01*
X162484285Y-100643333D01*
X162436666Y-100548095D01*
X162436666Y-100452857D01*
X162484285Y-100357619D01*
X162531904Y-100310000D01*
X162627142Y-100262380D01*
X162865238Y-100262380D01*
X163008095Y-100310000D01*
X163341428Y-100262380D02*
X163579523Y-101262380D01*
X163770000Y-100548095D01*
X163960476Y-101262380D01*
X164198571Y-100262380D01*
X164531904Y-100357619D02*
X164579523Y-100310000D01*
X164674761Y-100262380D01*
X164912857Y-100262380D01*
X165008095Y-100310000D01*
X165055714Y-100357619D01*
X165103333Y-100452857D01*
X165103333Y-100548095D01*
X165055714Y-100690952D01*
X164484285Y-101262380D01*
X165103333Y-101262380D01*
%TO.C,SW1*%
X162436666Y-94664761D02*
X162579523Y-94712380D01*
X162817619Y-94712380D01*
X162912857Y-94664761D01*
X162960476Y-94617142D01*
X163008095Y-94521904D01*
X163008095Y-94426666D01*
X162960476Y-94331428D01*
X162912857Y-94283809D01*
X162817619Y-94236190D01*
X162627142Y-94188571D01*
X162531904Y-94140952D01*
X162484285Y-94093333D01*
X162436666Y-93998095D01*
X162436666Y-93902857D01*
X162484285Y-93807619D01*
X162531904Y-93760000D01*
X162627142Y-93712380D01*
X162865238Y-93712380D01*
X163008095Y-93760000D01*
X163341428Y-93712380D02*
X163579523Y-94712380D01*
X163770000Y-93998095D01*
X163960476Y-94712380D01*
X164198571Y-93712380D01*
X165103333Y-94712380D02*
X164531904Y-94712380D01*
X164817619Y-94712380D02*
X164817619Y-93712380D01*
X164722380Y-93855238D01*
X164627142Y-93950476D01*
X164531904Y-93998095D01*
%TO.C,R10*%
X143407142Y-104449016D02*
X143073809Y-103972826D01*
X142835714Y-104449016D02*
X142835714Y-103449016D01*
X143216666Y-103449016D01*
X143311904Y-103496636D01*
X143359523Y-103544255D01*
X143407142Y-103639493D01*
X143407142Y-103782350D01*
X143359523Y-103877588D01*
X143311904Y-103925207D01*
X143216666Y-103972826D01*
X142835714Y-103972826D01*
X144359523Y-104449016D02*
X143788095Y-104449016D01*
X144073809Y-104449016D02*
X144073809Y-103449016D01*
X143978571Y-103591874D01*
X143883333Y-103687112D01*
X143788095Y-103734731D01*
X144978571Y-103449016D02*
X145073809Y-103449016D01*
X145169047Y-103496636D01*
X145216666Y-103544255D01*
X145264285Y-103639493D01*
X145311904Y-103829969D01*
X145311904Y-104068064D01*
X145264285Y-104258540D01*
X145216666Y-104353778D01*
X145169047Y-104401397D01*
X145073809Y-104449016D01*
X144978571Y-104449016D01*
X144883333Y-104401397D01*
X144835714Y-104353778D01*
X144788095Y-104258540D01*
X144740476Y-104068064D01*
X144740476Y-103829969D01*
X144788095Y-103639493D01*
X144835714Y-103544255D01*
X144883333Y-103496636D01*
X144978571Y-103449016D01*
D13*
%TO.C,D2*%
X159450004Y-88999993D02*
X159450004Y-114999993D01*
X132600004Y-88999993D02*
X160100004Y-88999993D01*
X160100004Y-88999993D02*
X160100004Y-116799993D01*
X133250004Y-88999993D02*
X133250004Y-114999993D01*
X132600004Y-116799993D02*
X160100004Y-116799993D01*
X132600004Y-88999993D02*
X132600004Y-116799993D01*
X133250004Y-114999993D02*
X159450004Y-114999993D01*
%TO.C,J1*%
X162770000Y-89170000D02*
X170450000Y-89170000D01*
X170450000Y-91830000D02*
X170450000Y-89170000D01*
X161500000Y-91830000D02*
X160170000Y-91830000D01*
X162770000Y-91830000D02*
X170450000Y-91830000D01*
X162770000Y-91830000D02*
X162770000Y-89170000D01*
X160170000Y-91830000D02*
X160170000Y-90500000D01*
%TO.C,R7*%
X147226458Y-100983135D02*
X146751942Y-100983135D01*
X147226458Y-99938135D02*
X146751942Y-99938135D01*
%TO.C,J4*%
X179350000Y-98310000D02*
X193850000Y-98310000D01*
X179350000Y-113010000D02*
X193850000Y-113010000D01*
X193850000Y-98310000D02*
X193850000Y-113010000D01*
X179350000Y-113010000D02*
X179350000Y-98310000D01*
%TO.C,J3*%
X133170000Y-97610000D02*
X134500000Y-97610000D01*
X133170000Y-107890000D02*
X135830000Y-107890000D01*
X133170000Y-100210000D02*
X133170000Y-107890000D01*
X133170000Y-100210000D02*
X135830000Y-100210000D01*
X135830000Y-100210000D02*
X135830000Y-107890000D01*
X133170000Y-98940000D02*
X133170000Y-97610000D01*
%TO.C,SW3*%
X160780000Y-106280000D02*
X166720000Y-106280000D01*
X160630000Y-110740000D02*
X160630000Y-108060000D01*
X160780000Y-112520000D02*
X166720000Y-112520000D01*
X166870000Y-108060000D02*
X166870000Y-110740000D01*
X165164214Y-109400000D02*
G75*
G03*
X165164214Y-109400000I-1414214J0D01*
G01*
%TO.C,R11*%
X146751942Y-105272135D02*
X147226458Y-105272135D01*
X146751942Y-106317135D02*
X147226458Y-106317135D01*
%TO.C,R5*%
X147226458Y-99205135D02*
X146751942Y-99205135D01*
X147226458Y-98160135D02*
X146751942Y-98160135D01*
%TO.C,R9*%
X146751942Y-102761135D02*
X147226458Y-102761135D01*
X146751942Y-101716135D02*
X147226458Y-101716135D01*
%TO.C,SW2*%
X160780000Y-106020000D02*
X166720000Y-106020000D01*
X160780000Y-99780000D02*
X166720000Y-99780000D01*
X166870000Y-101560000D02*
X166870000Y-104240000D01*
X160630000Y-104240000D02*
X160630000Y-101560000D01*
X165164214Y-102900000D02*
G75*
G03*
X165164214Y-102900000I-1414214J0D01*
G01*
%TO.C,SW1*%
X160630000Y-97740000D02*
X160630000Y-95060000D01*
X166870000Y-95060000D02*
X166870000Y-97740000D01*
X160780000Y-99520000D02*
X166720000Y-99520000D01*
X160780000Y-93280000D02*
X166720000Y-93280000D01*
X165164214Y-96400000D02*
G75*
G03*
X165164214Y-96400000I-1414214J0D01*
G01*
%TO.C,J2*%
X170450000Y-116330000D02*
X170450000Y-113670000D01*
X161500000Y-116330000D02*
X160170000Y-116330000D01*
X162770000Y-116330000D02*
X170450000Y-116330000D01*
X162770000Y-116330000D02*
X162770000Y-113670000D01*
X160170000Y-116330000D02*
X160170000Y-115000000D01*
X162770000Y-113670000D02*
X170450000Y-113670000D01*
%TO.C,R10*%
X146751942Y-104539135D02*
X147226458Y-104539135D01*
X146751942Y-103494135D02*
X147226458Y-103494135D01*
%TD*%
M02*
