%TF.GenerationSoftware,KiCad,Pcbnew,(6.0.5-0)*%
%TF.CreationDate,2022-10-09T22:43:55+09:00*%
%TF.ProjectId,qLAMP-lcd,714c414d-502d-46c6-9364-2e6b69636164,rev?*%
%TF.SameCoordinates,Original*%
%TF.FileFunction,Soldermask,Top*%
%TF.FilePolarity,Negative*%
%FSLAX46Y46*%
G04 Gerber Fmt 4.6, Leading zero omitted, Abs format (unit mm)*
G04 Created by KiCad (PCBNEW (6.0.5-0)) date 2022-10-09 22:43:55*
%MOMM*%
%LPD*%
G01*
G04 APERTURE LIST*
G04 Aperture macros list*
%AMRoundRect*
0 Rectangle with rounded corners*
0 $1 Rounding radius*
0 $2 $3 $4 $5 $6 $7 $8 $9 X,Y pos of 4 corners*
0 Add a 4 corners polygon primitive as box body*
4,1,4,$2,$3,$4,$5,$6,$7,$8,$9,$2,$3,0*
0 Add four circle primitives for the rounded corners*
1,1,$1+$1,$2,$3*
1,1,$1+$1,$4,$5*
1,1,$1+$1,$6,$7*
1,1,$1+$1,$8,$9*
0 Add four rect primitives between the rounded corners*
20,1,$1+$1,$2,$3,$4,$5,0*
20,1,$1+$1,$4,$5,$6,$7,0*
20,1,$1+$1,$6,$7,$8,$9,0*
20,1,$1+$1,$8,$9,$2,$3,0*%
%AMHorizOval*
0 Thick line with rounded ends*
0 $1 width*
0 $2 $3 position (X,Y) of the first rounded end (center of the circle)*
0 $4 $5 position (X,Y) of the second rounded end (center of the circle)*
0 Add line between two ends*
20,1,$1,$2,$3,$4,$5,0*
0 Add two circle primitives to create the rounded ends*
1,1,$1,$2,$3*
1,1,$1,$4,$5*%
G04 Aperture macros list end*
%ADD10C,0.475000*%
%ADD11HorizOval,2.000000X0.374990X-0.799972X-0.374990X0.799972X0*%
%ADD12O,2.750000X2.000000*%
%ADD13HorizOval,2.000000X0.374990X0.799972X-0.374990X-0.799972X0*%
%ADD14O,2.032000X2.032000*%
%ADD15R,1.700000X1.700000*%
%ADD16O,1.700000X1.700000*%
%ADD17RoundRect,0.200000X0.200000X0.275000X-0.200000X0.275000X-0.200000X-0.275000X0.200000X-0.275000X0*%
%ADD18RoundRect,0.175000X0.625000X-0.175000X0.625000X0.175000X-0.625000X0.175000X-0.625000X-0.175000X0*%
%ADD19RoundRect,0.298000X0.402000X-0.298000X0.402000X0.298000X-0.402000X0.298000X-0.402000X-0.298000X0*%
%ADD20RoundRect,0.300000X0.800000X-0.300000X0.800000X0.300000X-0.800000X0.300000X-0.800000X-0.300000X0*%
%ADD21RoundRect,0.350000X0.350000X-0.450000X0.350000X0.450000X-0.350000X0.450000X-0.350000X-0.450000X0*%
%ADD22C,1.700000*%
%ADD23RoundRect,0.200000X-0.200000X-0.275000X0.200000X-0.275000X0.200000X0.275000X-0.200000X0.275000X0*%
G04 APERTURE END LIST*
D10*
X138785000Y-90410000D02*
G75*
G03*
X138785000Y-90410000I-400000J0D01*
G01*
X139250000Y-115240000D02*
G75*
G03*
X139250000Y-115240000I-400000J0D01*
G01*
X189760000Y-90790000D02*
G75*
G03*
X189760000Y-90790000I-400000J0D01*
G01*
D11*
%TO.C,D2*%
X157725004Y-113999993D03*
D12*
X157725004Y-90999993D03*
D13*
X134975004Y-113999993D03*
D12*
X134975004Y-90999993D03*
D14*
X142540004Y-90499993D03*
X145080004Y-90499993D03*
X147620004Y-90499993D03*
X150160004Y-90499993D03*
%TD*%
D15*
%TO.C,J1*%
X161500000Y-90500000D03*
D16*
X164040000Y-90500000D03*
X166580000Y-90500000D03*
X169120000Y-90500000D03*
%TD*%
D17*
%TO.C,R7*%
X147814200Y-100460635D03*
X146164200Y-100460635D03*
%TD*%
D18*
%TO.C,J4*%
X178850000Y-103460000D03*
X178850000Y-104560000D03*
X178850000Y-105660000D03*
X178850000Y-106760000D03*
X178850000Y-107860000D03*
X178850000Y-108960000D03*
X178850000Y-110060000D03*
X178850000Y-111160000D03*
X178850000Y-112260000D03*
D19*
X179350000Y-113410000D03*
D20*
X188950000Y-97910000D03*
D21*
X179350000Y-98810000D03*
D20*
X188950000Y-113410000D03*
%TD*%
D15*
%TO.C,J3*%
X134500000Y-98940000D03*
D16*
X134500000Y-101480000D03*
X134500000Y-104019999D03*
X134500000Y-106560000D03*
%TD*%
D22*
%TO.C,SW3*%
X160500000Y-107150000D03*
X167000000Y-107150000D03*
X160500000Y-111650000D03*
X167000000Y-111650000D03*
%TD*%
D23*
%TO.C,R11*%
X146164200Y-105794635D03*
X147814200Y-105794635D03*
%TD*%
D17*
%TO.C,R5*%
X147814200Y-98682635D03*
X146164200Y-98682635D03*
%TD*%
D23*
%TO.C,R9*%
X146164200Y-102238635D03*
X147814200Y-102238635D03*
%TD*%
D22*
%TO.C,SW2*%
X160500000Y-100650000D03*
X167000000Y-100650000D03*
X160500000Y-105150000D03*
X167000000Y-105150000D03*
%TD*%
%TO.C,SW1*%
X160500000Y-94150000D03*
X167000000Y-94150000D03*
X160500000Y-98650000D03*
X167000000Y-98650000D03*
%TD*%
D15*
%TO.C,J2*%
X161500000Y-115000000D03*
D16*
X164040000Y-115000000D03*
X166580000Y-115000000D03*
X169120000Y-115000000D03*
%TD*%
D23*
%TO.C,R10*%
X146164200Y-104016635D03*
X147814200Y-104016635D03*
%TD*%
M02*
