M48
INCH,TZ
T1C0.0157
T2C0.0394
T3C0.0400
T4C0.0787
%
G90
G05
T1
X52346Y-42736
X52354Y-36500
X52358Y-35303
X52378Y-38378
X52382Y-45705
X52406Y-44079
X53146Y-37512
X53220Y-43335
X53693Y-39350
X53972Y-40878
X53996Y-35248
X54012Y-36535
X54134Y-44110
X54173Y-42787
X54197Y-38697
X54217Y-45681
X54740Y-41709
X55012Y-43453
X55047Y-45008
X55059Y-36236
X55134Y-40165
X55142Y-37256
X55547Y-35240
X55563Y-38705
X55902Y-42752
X55937Y-44224
X55953Y-45724
X55965Y-40957
X56402Y-41819
X56642Y-36197
X56701Y-38602
X56728Y-37370
X56913Y-40197
X56961Y-44921
X56996Y-43335
X57559Y-42224
X57850Y-44224
X57917Y-45724
X57976Y-36528
X57976Y-38197
X58583Y-43161
X58697Y-40311
X59028Y-37346
X59043Y-41866
X59303Y-39047
X59559Y-44205
X59626Y-45709
X59815Y-36067
X60134Y-40323
X60220Y-37854
X60528Y-43098
X60618Y-41917
X60984Y-39059
X61016Y-36425
X61299Y-44189
X61299Y-45724
X61319Y-35315
X61539Y-40291
X61720Y-37909
X62102Y-42087
X62315Y-39516
X62362Y-43224
X62409Y-36823
X62736Y-45744
X63504Y-44642
X63638Y-40114
X63650Y-37575
X63815Y-42795
X63858Y-36709
X64839Y-44559
X64987Y-42497
X65110Y-36709
X65138Y-40984
X65232Y-38461
X65862Y-44638
X66550Y-41602
X66866Y-41220
X66886Y-39717
X67069Y-43007
X67102Y-37941
X67114Y-36260
X67256Y-35205
X67264Y-44098
X67528Y-45681
X67870Y-40185
X68051Y-38811
X68063Y-37291
X68272Y-35799
X68280Y-44764
X68906Y-43606
X69051Y-41575
X69122Y-37795
X69146Y-39874
X69228Y-35205
X69319Y-45091
X69823Y-42890
X69854Y-38890
X69882Y-42152
X70181Y-36091
X70331Y-40244
X71000Y-38248
X71035Y-35209
X71150Y-41429
X71209Y-43508
X71445Y-40197
X72016Y-39205
X72315Y-42358
X72343Y-44193
X72957Y-35220
X72992Y-38134
X73020Y-40126
X73449Y-41476
X73673Y-43374
X73906Y-39154
X73909Y-36063
X74213Y-37598
X74717Y-42307
X74764Y-35181
X74772Y-39870
T2
X52953Y-38953
X52953Y-39953
X52953Y-40953
X52953Y-41953
X63189Y-37067
X63189Y-38839
X63189Y-39626
X63189Y-41398
X63189Y-42185
X63189Y-43957
X63583Y-35630
X63583Y-45276
X64583Y-35630
X64583Y-45276
X65583Y-35630
X65583Y-45276
X65748Y-37067
X65748Y-38839
X65748Y-39626
X65748Y-41398
X65748Y-42185
X65748Y-43957
X66583Y-35630
X66583Y-45276
T3
X56118Y-35630
X57118Y-35630
X58118Y-35630
X59118Y-35630
T4
G00X52992Y-35827
M15
G01X53287Y-35827
M16
G05
G00X52992Y-45197
M15
G01X53287Y-44567
M16
G05
G00X61949Y-35827
M15
G01X62244Y-35827
M16
G05
G00X61949Y-44567
M15
G01X62244Y-45197
M16
G05
T0
M30
