%TF.GenerationSoftware,KiCad,Pcbnew,(5.1.6-0-10_14)*%
%TF.CreationDate,2021-03-01T23:58:59+09:00*%
%TF.ProjectId,qPCR-photo_mux_74HC4067SSOP,71504352-2d70-4686-9f74-6f5f6d75785f,rev?*%
%TF.SameCoordinates,Original*%
%TF.FileFunction,Copper,L2,Bot*%
%TF.FilePolarity,Positive*%
%FSLAX46Y46*%
G04 Gerber Fmt 4.6, Leading zero omitted, Abs format (unit mm)*
G04 Created by KiCad (PCBNEW (5.1.6-0-10_14)) date 2021-03-01 23:58:59*
%MOMM*%
%LPD*%
G01*
G04 APERTURE LIST*
%TA.AperFunction,ComponentPad*%
%ADD10O,1.700000X1.700000*%
%TD*%
%TA.AperFunction,ComponentPad*%
%ADD11R,1.700000X1.700000*%
%TD*%
%TA.AperFunction,ViaPad*%
%ADD12C,0.800000*%
%TD*%
%TA.AperFunction,Conductor*%
%ADD13C,0.250000*%
%TD*%
%TA.AperFunction,Conductor*%
%ADD14C,0.254000*%
%TD*%
G04 APERTURE END LIST*
D10*
%TO.P,J1,5*%
%TO.N,PD_MUX_OUT*%
X103298000Y-110000000D03*
%TO.P,J1,4*%
%TO.N,VCC_LOGIC*%
X100758000Y-110000000D03*
%TO.P,J1,3*%
%TO.N,N/C*%
X98218000Y-110000000D03*
%TO.P,J1,2*%
X95678000Y-110000000D03*
D11*
%TO.P,J1,1*%
%TO.N,GND*%
X93138000Y-110000000D03*
%TD*%
%TO.P,J2,1*%
%TO.N,ADDRESSA3*%
X103298000Y-64440000D03*
D10*
%TO.P,J2,2*%
%TO.N,ADDRESSA2*%
X100758000Y-64440000D03*
%TO.P,J2,3*%
%TO.N,ADDRESSA1*%
X98218000Y-64440000D03*
%TO.P,J2,4*%
%TO.N,ADDRESSA0*%
X95678000Y-64440000D03*
%TO.P,J2,5*%
%TO.N,MUX_SELECT*%
X93138000Y-64440000D03*
%TD*%
%TO.P,N_PD1,10*%
%TO.N,N_PD1_OUT1*%
X113160000Y-70460000D03*
%TO.P,N_PD1,9*%
%TO.N,N_PD1_OUT2*%
X113160000Y-73000000D03*
%TO.P,N_PD1,8*%
%TO.N,N_PD1_OUT3*%
X110620000Y-70460000D03*
%TO.P,N_PD1,7*%
%TO.N,N_PD1_OUT4*%
X110620000Y-73000000D03*
%TO.P,N_PD1,6*%
%TO.N,N_PD1_OUT5*%
X108080000Y-70460000D03*
%TO.P,N_PD1,5*%
%TO.N,N_PD1_OUT6*%
X108080000Y-73000000D03*
%TO.P,N_PD1,4*%
%TO.N,N_PD1_OUT7*%
X105540000Y-70460000D03*
%TO.P,N_PD1,3*%
%TO.N,N_PD1_OUT8*%
X105540000Y-73000000D03*
%TO.P,N_PD1,2*%
%TO.N,GND*%
X103000000Y-70460000D03*
D11*
%TO.P,N_PD1,1*%
X103000000Y-73000000D03*
%TD*%
%TO.P,N_PD2,1*%
%TO.N,GND*%
X103000000Y-83000000D03*
D10*
%TO.P,N_PD2,2*%
X103000000Y-80460000D03*
%TO.P,N_PD2,3*%
%TO.N,N_PD1_OUT16*%
X105540000Y-83000000D03*
%TO.P,N_PD2,4*%
%TO.N,N_PD1_OUT15*%
X105540000Y-80460000D03*
%TO.P,N_PD2,5*%
%TO.N,N_PD1_OUT14*%
X108080000Y-83000000D03*
%TO.P,N_PD2,6*%
%TO.N,N_PD1_OUT13*%
X108080000Y-80460000D03*
%TO.P,N_PD2,7*%
%TO.N,N_PD1_OUT12*%
X110620000Y-83000000D03*
%TO.P,N_PD2,8*%
%TO.N,N_PD1_OUT10*%
X110620000Y-80460000D03*
%TO.P,N_PD2,9*%
%TO.N,N_PD1_OUT11*%
X113160000Y-83000000D03*
%TO.P,N_PD2,10*%
%TO.N,N_PD1_OUT9*%
X113160000Y-80460000D03*
%TD*%
D11*
%TO.P,S_PD1,1*%
%TO.N,GND*%
X103000000Y-93000000D03*
D10*
%TO.P,S_PD1,2*%
X103000000Y-90460000D03*
%TO.P,S_PD1,3*%
%TO.N,S_PD1_OUT8*%
X105540000Y-93000000D03*
%TO.P,S_PD1,4*%
%TO.N,S_PD1_OUT7*%
X105540000Y-90460000D03*
%TO.P,S_PD1,5*%
%TO.N,S_PD1_OUT6*%
X108080000Y-93000000D03*
%TO.P,S_PD1,6*%
%TO.N,S_PD1_OUT5*%
X108080000Y-90460000D03*
%TO.P,S_PD1,7*%
%TO.N,S_PD1_OUT4*%
X110620000Y-93000000D03*
%TO.P,S_PD1,8*%
%TO.N,S_PD1_OUT3*%
X110620000Y-90460000D03*
%TO.P,S_PD1,9*%
%TO.N,S_PD1_OUT2*%
X113160000Y-93000000D03*
%TO.P,S_PD1,10*%
%TO.N,S_PD1_OUT1*%
X113160000Y-90460000D03*
%TD*%
%TO.P,S_PD2,10*%
%TO.N,S_PD1_OUT9*%
X113160000Y-100460000D03*
%TO.P,S_PD2,9*%
%TO.N,S_PD1_OUT11*%
X113160000Y-103000000D03*
%TO.P,S_PD2,8*%
%TO.N,S_PD1_OUT10*%
X110620000Y-100460000D03*
%TO.P,S_PD2,7*%
%TO.N,S_PD1_OUT12*%
X110620000Y-103000000D03*
%TO.P,S_PD2,6*%
%TO.N,S_PD1_OUT13*%
X108080000Y-100460000D03*
%TO.P,S_PD2,5*%
%TO.N,S_PD1_OUT14*%
X108080000Y-103000000D03*
%TO.P,S_PD2,4*%
%TO.N,S_PD1_OUT15*%
X105540000Y-100460000D03*
%TO.P,S_PD2,3*%
%TO.N,S_PD1_OUT16*%
X105540000Y-103000000D03*
%TO.P,S_PD2,2*%
%TO.N,GND*%
X103000000Y-100460000D03*
D11*
%TO.P,S_PD2,1*%
X103000000Y-103000000D03*
%TD*%
D12*
%TO.N,VCC_LOGIC*%
X85563500Y-69465700D03*
X97550000Y-80300000D03*
%TO.N,ADDRESSA3*%
X86015000Y-79753000D03*
X89280000Y-78925000D03*
X86001900Y-94220000D03*
X86589497Y-84920503D03*
%TO.N,ADDRESSA2*%
X89600000Y-76825000D03*
X90075000Y-98575000D03*
X87889700Y-83606900D03*
%TO.N,ADDRESSA0*%
X87450000Y-75450000D03*
%TO.N,MUX_SELECT*%
X87950000Y-76375000D03*
%TO.N,/PD_MUX_OUT1*%
X108000000Y-108091900D03*
X102911600Y-74997400D03*
%TO.N,N_PD1_OUT16*%
X102884600Y-78088300D03*
%TO.N,N_PD1_OUT15*%
X104342700Y-78558000D03*
%TO.N,N_PD1_OUT14*%
X97000000Y-82625000D03*
X92600000Y-82200000D03*
%TO.N,N_PD1_OUT13*%
X103115200Y-86557400D03*
%TO.N,S_PD1_OUT11*%
X103181500Y-97563500D03*
%TO.N,S_PD1_OUT12*%
X94175000Y-102200000D03*
%TO.N,S_PD1_OUT13*%
X93900000Y-98850000D03*
X97225000Y-98504999D03*
X93900000Y-98850000D03*
%TO.N,S_PD1_OUT14*%
X100328400Y-104139000D03*
%TO.N,S_PD1_OUT15*%
X105014300Y-97926700D03*
%TD*%
D13*
%TO.N,VCC_LOGIC*%
X85269500Y-80054400D02*
X85269500Y-69759700D01*
X85269500Y-69759700D02*
X85563500Y-69465700D01*
X99582700Y-110000000D02*
X99582700Y-110365300D01*
X99582700Y-110365300D02*
X98760800Y-111187200D01*
X98760800Y-111187200D02*
X92164000Y-111187200D01*
X92164000Y-111187200D02*
X91938400Y-110961600D01*
X91938400Y-110961600D02*
X91938400Y-88739200D01*
X100758000Y-110000000D02*
X99582700Y-110000000D01*
X85915099Y-80699999D02*
X85269500Y-80054400D01*
X97550000Y-80300000D02*
X97150001Y-80699999D01*
X91874999Y-88675799D02*
X91874999Y-80799999D01*
X91938400Y-88739200D02*
X91874999Y-88675799D01*
X91874999Y-80799999D02*
X91774999Y-80699999D01*
X91774999Y-80699999D02*
X85915099Y-80699999D01*
X97150001Y-80699999D02*
X91774999Y-80699999D01*
%TO.N,GND*%
X103000000Y-103000000D02*
X100441700Y-103000000D01*
X100441700Y-103000000D02*
X94313300Y-109128400D01*
X94313300Y-109128400D02*
X94313300Y-110000000D01*
X103000000Y-80460000D02*
X103000000Y-79284700D01*
X103000000Y-79284700D02*
X102155200Y-78439900D01*
X102155200Y-78439900D02*
X102155200Y-74726200D01*
X102155200Y-74726200D02*
X102706100Y-74175300D01*
X102706100Y-74175300D02*
X103000000Y-74175300D01*
X103000000Y-83000000D02*
X103000000Y-80460000D01*
X103000000Y-73000000D02*
X103000000Y-74175300D01*
X103000000Y-89284700D02*
X102369300Y-88654000D01*
X102369300Y-88654000D02*
X102369300Y-84806000D01*
X102369300Y-84806000D02*
X103000000Y-84175300D01*
X103000000Y-90460000D02*
X103000000Y-89284700D01*
X103000000Y-90460000D02*
X103000000Y-93000000D01*
X103000000Y-83000000D02*
X103000000Y-84175300D01*
X103000000Y-94175300D02*
X102456200Y-94719100D01*
X102456200Y-94719100D02*
X102456200Y-98740900D01*
X102456200Y-98740900D02*
X103000000Y-99284700D01*
X93138000Y-110000000D02*
X94313300Y-110000000D01*
X103000000Y-100460000D02*
X103000000Y-99284700D01*
X103000000Y-93000000D02*
X103000000Y-94175300D01*
X103000000Y-73000000D02*
X103000000Y-70460000D01*
%TO.N,ADDRESSA3*%
X89160300Y-79753000D02*
X86015000Y-79753000D01*
X103298000Y-64440000D02*
X103298000Y-65615300D01*
X89599150Y-79244150D02*
X89669150Y-79244150D01*
X89280000Y-78925000D02*
X89599150Y-79244150D01*
X89669150Y-79244150D02*
X89160300Y-79753000D01*
X103298000Y-65615300D02*
X89669150Y-79244150D01*
X86001900Y-85508100D02*
X86589497Y-84920503D01*
X86001900Y-94220000D02*
X86001900Y-85508100D01*
%TO.N,ADDRESSA2*%
X90075000Y-85792200D02*
X87889700Y-83606900D01*
X90075000Y-98575000D02*
X90075000Y-85792200D01*
X91451890Y-76825000D02*
X89600000Y-76825000D01*
X99582700Y-68694190D02*
X91451890Y-76825000D01*
X99582700Y-64440000D02*
X99582700Y-68694190D01*
X100758000Y-64440000D02*
X99582700Y-64440000D01*
%TO.N,ADDRESSA0*%
X87450000Y-68388998D02*
X92573999Y-63264999D01*
X94502999Y-63264999D02*
X95678000Y-64440000D01*
X92573999Y-63264999D02*
X94502999Y-63264999D01*
X87450000Y-75450000D02*
X87450000Y-68388998D01*
%TO.N,MUX_SELECT*%
X88225001Y-76099999D02*
X87950000Y-76375000D01*
X90222992Y-76374990D02*
X89948001Y-76099999D01*
X91250010Y-76374990D02*
X90222992Y-76374990D01*
X93138000Y-74487000D02*
X91250010Y-76374990D01*
X89948001Y-76099999D02*
X88225001Y-76099999D01*
X93138000Y-64440000D02*
X93138000Y-74487000D01*
%TO.N,/PD_MUX_OUT1*%
X102911600Y-74997400D02*
X104285100Y-74997400D01*
X104285100Y-74997400D02*
X109255300Y-79967600D01*
X109255300Y-79967600D02*
X109255300Y-85041400D01*
X109255300Y-85041400D02*
X111795400Y-87581500D01*
X111795400Y-87581500D02*
X111795400Y-95041500D01*
X111795400Y-95041500D02*
X114348600Y-97594700D01*
X114348600Y-97594700D02*
X114348600Y-103519500D01*
X114348600Y-103519500D02*
X109776200Y-108091900D01*
X109776200Y-108091900D02*
X108000000Y-108091900D01*
%TO.N,N_PD1_OUT16*%
X105540000Y-81824700D02*
X105172600Y-81824700D01*
X105172600Y-81824700D02*
X104364700Y-81016800D01*
X104364700Y-81016800D02*
X104364700Y-79728300D01*
X104364700Y-79728300D02*
X102884600Y-78248200D01*
X102884600Y-78248200D02*
X102884600Y-78088300D01*
X105540000Y-83000000D02*
X105540000Y-81824700D01*
%TO.N,N_PD1_OUT15*%
X105540000Y-80460000D02*
X105540000Y-79284700D01*
X105540000Y-79284700D02*
X105069400Y-79284700D01*
X105069400Y-79284700D02*
X104342700Y-78558000D01*
%TO.N,N_PD1_OUT14*%
X93025000Y-82625000D02*
X92600000Y-82200000D01*
X97000000Y-82625000D02*
X93025000Y-82625000D01*
%TO.N,N_PD1_OUT13*%
X108080000Y-81635300D02*
X107712600Y-81635300D01*
X107712600Y-81635300D02*
X106904700Y-82443200D01*
X106904700Y-82443200D02*
X106904700Y-83329700D01*
X106904700Y-83329700D02*
X103677000Y-86557400D01*
X103677000Y-86557400D02*
X103115200Y-86557400D01*
X108080000Y-80460000D02*
X108080000Y-81635300D01*
%TO.N,S_PD1_OUT11*%
X113160000Y-103000000D02*
X111984700Y-103000000D01*
X103181500Y-97563500D02*
X103546200Y-97198800D01*
X103546200Y-97198800D02*
X106528500Y-97198800D01*
X106528500Y-97198800D02*
X109255400Y-99925700D01*
X109255400Y-99925700D02*
X109255400Y-100819600D01*
X109255400Y-100819600D02*
X110260500Y-101824700D01*
X110260500Y-101824700D02*
X111176800Y-101824700D01*
X111176800Y-101824700D02*
X111984700Y-102632600D01*
X111984700Y-102632600D02*
X111984700Y-103000000D01*
%TO.N,S_PD1_OUT12*%
X110620000Y-103000000D02*
X109444700Y-103000000D01*
X109444700Y-103000000D02*
X109444700Y-102632600D01*
X109444700Y-102632600D02*
X108636800Y-101824700D01*
X108636800Y-101824700D02*
X97038300Y-101824700D01*
X96663000Y-102200000D02*
X97038300Y-101824700D01*
X94175000Y-102200000D02*
X96663000Y-102200000D01*
%TO.N,S_PD1_OUT13*%
X94245001Y-98504999D02*
X93900000Y-98850000D01*
X97225000Y-98504999D02*
X94245001Y-98504999D01*
%TO.N,S_PD1_OUT14*%
X108080000Y-103000000D02*
X106904700Y-103000000D01*
X100328400Y-104139000D02*
X100364700Y-104175300D01*
X100364700Y-104175300D02*
X106096800Y-104175300D01*
X106096800Y-104175300D02*
X106904700Y-103367400D01*
X106904700Y-103367400D02*
X106904700Y-103000000D01*
%TO.N,S_PD1_OUT15*%
X105540000Y-100460000D02*
X105540000Y-99284700D01*
X105014300Y-97926700D02*
X105014300Y-98759000D01*
X105014300Y-98759000D02*
X105540000Y-99284700D01*
%TD*%
D14*
%TO.N,GND*%
G36*
X114315000Y-69515651D02*
G01*
X114313475Y-69513368D01*
X114106632Y-69306525D01*
X113863411Y-69144010D01*
X113593158Y-69032068D01*
X113306260Y-68975000D01*
X113013740Y-68975000D01*
X112726842Y-69032068D01*
X112456589Y-69144010D01*
X112213368Y-69306525D01*
X112006525Y-69513368D01*
X111890000Y-69687760D01*
X111773475Y-69513368D01*
X111566632Y-69306525D01*
X111323411Y-69144010D01*
X111053158Y-69032068D01*
X110766260Y-68975000D01*
X110473740Y-68975000D01*
X110186842Y-69032068D01*
X109916589Y-69144010D01*
X109673368Y-69306525D01*
X109466525Y-69513368D01*
X109350000Y-69687760D01*
X109233475Y-69513368D01*
X109026632Y-69306525D01*
X108783411Y-69144010D01*
X108513158Y-69032068D01*
X108226260Y-68975000D01*
X107933740Y-68975000D01*
X107646842Y-69032068D01*
X107376589Y-69144010D01*
X107133368Y-69306525D01*
X106926525Y-69513368D01*
X106810000Y-69687760D01*
X106693475Y-69513368D01*
X106486632Y-69306525D01*
X106243411Y-69144010D01*
X105973158Y-69032068D01*
X105686260Y-68975000D01*
X105393740Y-68975000D01*
X105106842Y-69032068D01*
X104836589Y-69144010D01*
X104593368Y-69306525D01*
X104386525Y-69513368D01*
X104264805Y-69695534D01*
X104195178Y-69578645D01*
X104000269Y-69362412D01*
X103766920Y-69188359D01*
X103504099Y-69063175D01*
X103356890Y-69018524D01*
X103127000Y-69139845D01*
X103127000Y-70333000D01*
X103147000Y-70333000D01*
X103147000Y-70587000D01*
X103127000Y-70587000D01*
X103127000Y-72873000D01*
X103147000Y-72873000D01*
X103147000Y-73127000D01*
X103127000Y-73127000D01*
X103127000Y-73147000D01*
X102873000Y-73147000D01*
X102873000Y-73127000D01*
X101673750Y-73127000D01*
X101515000Y-73285750D01*
X101511928Y-73850000D01*
X101524188Y-73974482D01*
X101560498Y-74094180D01*
X101619463Y-74204494D01*
X101698815Y-74301185D01*
X101795506Y-74380537D01*
X101905820Y-74439502D01*
X102017047Y-74473242D01*
X101994395Y-74507144D01*
X101916374Y-74695502D01*
X101876600Y-74895461D01*
X101876600Y-75099339D01*
X101916374Y-75299298D01*
X101994395Y-75487656D01*
X102107663Y-75657174D01*
X102251826Y-75801337D01*
X102421344Y-75914605D01*
X102609702Y-75992626D01*
X102809661Y-76032400D01*
X103013539Y-76032400D01*
X103213498Y-75992626D01*
X103401856Y-75914605D01*
X103571374Y-75801337D01*
X103615311Y-75757400D01*
X103970299Y-75757400D01*
X107364791Y-79151893D01*
X107133368Y-79306525D01*
X106926525Y-79513368D01*
X106810000Y-79687760D01*
X106693475Y-79513368D01*
X106486632Y-79306525D01*
X106293089Y-79177204D01*
X106289003Y-79135714D01*
X106245546Y-78992453D01*
X106174974Y-78860424D01*
X106080001Y-78744699D01*
X105964276Y-78649726D01*
X105832247Y-78579154D01*
X105688986Y-78535697D01*
X105577333Y-78524700D01*
X105540000Y-78521023D01*
X105502667Y-78524700D01*
X105384202Y-78524700D01*
X105377700Y-78518198D01*
X105377700Y-78456061D01*
X105337926Y-78256102D01*
X105259905Y-78067744D01*
X105146637Y-77898226D01*
X105002474Y-77754063D01*
X104832956Y-77640795D01*
X104644598Y-77562774D01*
X104444639Y-77523000D01*
X104240761Y-77523000D01*
X104040802Y-77562774D01*
X103852444Y-77640795D01*
X103826652Y-77658029D01*
X103801805Y-77598044D01*
X103688537Y-77428526D01*
X103544374Y-77284363D01*
X103374856Y-77171095D01*
X103186498Y-77093074D01*
X102986539Y-77053300D01*
X102782661Y-77053300D01*
X102582702Y-77093074D01*
X102394344Y-77171095D01*
X102224826Y-77284363D01*
X102080663Y-77428526D01*
X101967395Y-77598044D01*
X101889374Y-77786402D01*
X101849600Y-77986361D01*
X101849600Y-78190239D01*
X101889374Y-78390198D01*
X101967395Y-78578556D01*
X102080663Y-78748074D01*
X102224826Y-78892237D01*
X102394344Y-79005505D01*
X102517647Y-79056579D01*
X102495901Y-79063175D01*
X102233080Y-79188359D01*
X101999731Y-79362412D01*
X101804822Y-79578645D01*
X101655843Y-79828748D01*
X101558519Y-80103109D01*
X101679186Y-80333000D01*
X102873000Y-80333000D01*
X102873000Y-80313000D01*
X103127000Y-80313000D01*
X103127000Y-80333000D01*
X103147000Y-80333000D01*
X103147000Y-80587000D01*
X103127000Y-80587000D01*
X103127000Y-82873000D01*
X103147000Y-82873000D01*
X103147000Y-83127000D01*
X103127000Y-83127000D01*
X103127000Y-84326250D01*
X103285750Y-84485000D01*
X103850000Y-84488072D01*
X103974482Y-84475812D01*
X104094180Y-84439502D01*
X104204494Y-84380537D01*
X104301185Y-84301185D01*
X104380537Y-84204494D01*
X104439502Y-84094180D01*
X104461513Y-84021620D01*
X104593368Y-84153475D01*
X104836589Y-84315990D01*
X104841553Y-84318046D01*
X103544608Y-85614991D01*
X103417098Y-85562174D01*
X103217139Y-85522400D01*
X103013261Y-85522400D01*
X102813302Y-85562174D01*
X102624944Y-85640195D01*
X102455426Y-85753463D01*
X102311263Y-85897626D01*
X102197995Y-86067144D01*
X102119974Y-86255502D01*
X102080200Y-86455461D01*
X102080200Y-86659339D01*
X102119974Y-86859298D01*
X102197995Y-87047656D01*
X102311263Y-87217174D01*
X102455426Y-87361337D01*
X102624944Y-87474605D01*
X102813302Y-87552626D01*
X103013261Y-87592400D01*
X103217139Y-87592400D01*
X103417098Y-87552626D01*
X103605456Y-87474605D01*
X103774974Y-87361337D01*
X103831616Y-87304695D01*
X103969247Y-87262946D01*
X104101276Y-87192374D01*
X104217001Y-87097401D01*
X104240804Y-87068397D01*
X107146771Y-84162431D01*
X107376589Y-84315990D01*
X107646842Y-84427932D01*
X107933740Y-84485000D01*
X108226260Y-84485000D01*
X108495301Y-84431484D01*
X108495301Y-85004068D01*
X108491624Y-85041400D01*
X108495301Y-85078733D01*
X108506298Y-85190386D01*
X108519480Y-85233842D01*
X108549754Y-85333646D01*
X108620326Y-85465676D01*
X108648457Y-85499953D01*
X108715300Y-85581401D01*
X108744298Y-85605199D01*
X111035400Y-87896302D01*
X111035400Y-89028536D01*
X110766260Y-88975000D01*
X110473740Y-88975000D01*
X110186842Y-89032068D01*
X109916589Y-89144010D01*
X109673368Y-89306525D01*
X109466525Y-89513368D01*
X109350000Y-89687760D01*
X109233475Y-89513368D01*
X109026632Y-89306525D01*
X108783411Y-89144010D01*
X108513158Y-89032068D01*
X108226260Y-88975000D01*
X107933740Y-88975000D01*
X107646842Y-89032068D01*
X107376589Y-89144010D01*
X107133368Y-89306525D01*
X106926525Y-89513368D01*
X106810000Y-89687760D01*
X106693475Y-89513368D01*
X106486632Y-89306525D01*
X106243411Y-89144010D01*
X105973158Y-89032068D01*
X105686260Y-88975000D01*
X105393740Y-88975000D01*
X105106842Y-89032068D01*
X104836589Y-89144010D01*
X104593368Y-89306525D01*
X104386525Y-89513368D01*
X104264805Y-89695534D01*
X104195178Y-89578645D01*
X104000269Y-89362412D01*
X103766920Y-89188359D01*
X103504099Y-89063175D01*
X103356890Y-89018524D01*
X103127000Y-89139845D01*
X103127000Y-90333000D01*
X103147000Y-90333000D01*
X103147000Y-90587000D01*
X103127000Y-90587000D01*
X103127000Y-92873000D01*
X103147000Y-92873000D01*
X103147000Y-93127000D01*
X103127000Y-93127000D01*
X103127000Y-94326250D01*
X103285750Y-94485000D01*
X103850000Y-94488072D01*
X103974482Y-94475812D01*
X104094180Y-94439502D01*
X104204494Y-94380537D01*
X104301185Y-94301185D01*
X104380537Y-94204494D01*
X104439502Y-94094180D01*
X104461513Y-94021620D01*
X104593368Y-94153475D01*
X104836589Y-94315990D01*
X105106842Y-94427932D01*
X105393740Y-94485000D01*
X105686260Y-94485000D01*
X105973158Y-94427932D01*
X106243411Y-94315990D01*
X106486632Y-94153475D01*
X106693475Y-93946632D01*
X106810000Y-93772240D01*
X106926525Y-93946632D01*
X107133368Y-94153475D01*
X107376589Y-94315990D01*
X107646842Y-94427932D01*
X107933740Y-94485000D01*
X108226260Y-94485000D01*
X108513158Y-94427932D01*
X108783411Y-94315990D01*
X109026632Y-94153475D01*
X109233475Y-93946632D01*
X109350000Y-93772240D01*
X109466525Y-93946632D01*
X109673368Y-94153475D01*
X109916589Y-94315990D01*
X110186842Y-94427932D01*
X110473740Y-94485000D01*
X110766260Y-94485000D01*
X111035401Y-94431464D01*
X111035401Y-95004168D01*
X111031724Y-95041500D01*
X111046398Y-95190485D01*
X111089854Y-95333746D01*
X111160426Y-95465776D01*
X111231601Y-95552502D01*
X111255400Y-95581501D01*
X111284398Y-95605299D01*
X113588600Y-97909502D01*
X113588600Y-99031161D01*
X113306260Y-98975000D01*
X113013740Y-98975000D01*
X112726842Y-99032068D01*
X112456589Y-99144010D01*
X112213368Y-99306525D01*
X112006525Y-99513368D01*
X111890000Y-99687760D01*
X111773475Y-99513368D01*
X111566632Y-99306525D01*
X111323411Y-99144010D01*
X111053158Y-99032068D01*
X110766260Y-98975000D01*
X110473740Y-98975000D01*
X110186842Y-99032068D01*
X109916589Y-99144010D01*
X109695943Y-99291441D01*
X107092304Y-96687803D01*
X107068501Y-96658799D01*
X106952776Y-96563826D01*
X106820747Y-96493254D01*
X106677486Y-96449797D01*
X106565833Y-96438800D01*
X106565822Y-96438800D01*
X106528500Y-96435124D01*
X106491178Y-96438800D01*
X103583525Y-96438800D01*
X103546200Y-96435124D01*
X103508875Y-96438800D01*
X103508867Y-96438800D01*
X103397214Y-96449797D01*
X103253953Y-96493254D01*
X103188013Y-96528500D01*
X103079561Y-96528500D01*
X102879602Y-96568274D01*
X102691244Y-96646295D01*
X102521726Y-96759563D01*
X102377563Y-96903726D01*
X102264295Y-97073244D01*
X102186274Y-97261602D01*
X102146500Y-97461561D01*
X102146500Y-97665439D01*
X102186274Y-97865398D01*
X102264295Y-98053756D01*
X102377563Y-98223274D01*
X102521726Y-98367437D01*
X102691244Y-98480705D01*
X102879602Y-98558726D01*
X103079561Y-98598500D01*
X103283439Y-98598500D01*
X103483398Y-98558726D01*
X103671756Y-98480705D01*
X103841274Y-98367437D01*
X103985437Y-98223274D01*
X104010542Y-98185702D01*
X104019074Y-98228598D01*
X104097095Y-98416956D01*
X104210363Y-98586474D01*
X104254300Y-98630411D01*
X104254300Y-98721678D01*
X104250624Y-98759000D01*
X104254300Y-98796322D01*
X104254300Y-98796333D01*
X104262236Y-98876898D01*
X104265298Y-98907985D01*
X104308754Y-99051246D01*
X104379326Y-99183276D01*
X104421590Y-99234774D01*
X104474300Y-99299001D01*
X104503298Y-99322799D01*
X104540196Y-99359697D01*
X104386525Y-99513368D01*
X104264805Y-99695534D01*
X104195178Y-99578645D01*
X104000269Y-99362412D01*
X103766920Y-99188359D01*
X103504099Y-99063175D01*
X103356890Y-99018524D01*
X103127000Y-99139845D01*
X103127000Y-100333000D01*
X103147000Y-100333000D01*
X103147000Y-100587000D01*
X103127000Y-100587000D01*
X103127000Y-100607000D01*
X102873000Y-100607000D01*
X102873000Y-100587000D01*
X101679186Y-100587000D01*
X101558519Y-100816891D01*
X101646424Y-101064700D01*
X97075622Y-101064700D01*
X97038299Y-101061024D01*
X97000976Y-101064700D01*
X97000967Y-101064700D01*
X96889314Y-101075697D01*
X96746053Y-101119154D01*
X96614024Y-101189726D01*
X96498299Y-101284699D01*
X96474496Y-101313703D01*
X96348199Y-101440000D01*
X94878711Y-101440000D01*
X94834774Y-101396063D01*
X94665256Y-101282795D01*
X94476898Y-101204774D01*
X94276939Y-101165000D01*
X94073061Y-101165000D01*
X93873102Y-101204774D01*
X93684744Y-101282795D01*
X93515226Y-101396063D01*
X93371063Y-101540226D01*
X93257795Y-101709744D01*
X93179774Y-101898102D01*
X93140000Y-102098061D01*
X93140000Y-102301939D01*
X93179774Y-102501898D01*
X93257795Y-102690256D01*
X93371063Y-102859774D01*
X93515226Y-103003937D01*
X93684744Y-103117205D01*
X93873102Y-103195226D01*
X94073061Y-103235000D01*
X94276939Y-103235000D01*
X94476898Y-103195226D01*
X94665256Y-103117205D01*
X94834774Y-103003937D01*
X94878711Y-102960000D01*
X96625678Y-102960000D01*
X96663000Y-102963676D01*
X96700322Y-102960000D01*
X96700333Y-102960000D01*
X96811986Y-102949003D01*
X96955247Y-102905546D01*
X97087276Y-102834974D01*
X97203001Y-102740001D01*
X97226804Y-102710997D01*
X97353101Y-102584700D01*
X101514295Y-102584700D01*
X101515000Y-102714250D01*
X101673750Y-102873000D01*
X102873000Y-102873000D01*
X102873000Y-102853000D01*
X103127000Y-102853000D01*
X103127000Y-102873000D01*
X103147000Y-102873000D01*
X103147000Y-103127000D01*
X103127000Y-103127000D01*
X103127000Y-103147000D01*
X102873000Y-103147000D01*
X102873000Y-103127000D01*
X101673750Y-103127000D01*
X101515000Y-103285750D01*
X101514295Y-103415300D01*
X101068411Y-103415300D01*
X100988174Y-103335063D01*
X100818656Y-103221795D01*
X100630298Y-103143774D01*
X100430339Y-103104000D01*
X100226461Y-103104000D01*
X100026502Y-103143774D01*
X99838144Y-103221795D01*
X99668626Y-103335063D01*
X99524463Y-103479226D01*
X99411195Y-103648744D01*
X99333174Y-103837102D01*
X99293400Y-104037061D01*
X99293400Y-104240939D01*
X99333174Y-104440898D01*
X99411195Y-104629256D01*
X99524463Y-104798774D01*
X99668626Y-104942937D01*
X99838144Y-105056205D01*
X100026502Y-105134226D01*
X100226461Y-105174000D01*
X100430339Y-105174000D01*
X100630298Y-105134226D01*
X100818656Y-105056205D01*
X100988174Y-104942937D01*
X100995811Y-104935300D01*
X106059478Y-104935300D01*
X106096800Y-104938976D01*
X106134122Y-104935300D01*
X106134133Y-104935300D01*
X106245786Y-104924303D01*
X106389047Y-104880846D01*
X106521076Y-104810274D01*
X106636801Y-104715301D01*
X106660603Y-104686298D01*
X107169371Y-104177531D01*
X107376589Y-104315990D01*
X107646842Y-104427932D01*
X107933740Y-104485000D01*
X108226260Y-104485000D01*
X108513158Y-104427932D01*
X108783411Y-104315990D01*
X109026632Y-104153475D01*
X109233475Y-103946632D01*
X109350000Y-103772240D01*
X109466525Y-103946632D01*
X109673368Y-104153475D01*
X109916589Y-104315990D01*
X110186842Y-104427932D01*
X110473740Y-104485000D01*
X110766260Y-104485000D01*
X111053158Y-104427932D01*
X111323411Y-104315990D01*
X111566632Y-104153475D01*
X111773475Y-103946632D01*
X111890000Y-103772240D01*
X112006525Y-103946632D01*
X112213368Y-104153475D01*
X112456589Y-104315990D01*
X112471240Y-104322059D01*
X109461399Y-107331900D01*
X108703711Y-107331900D01*
X108659774Y-107287963D01*
X108490256Y-107174695D01*
X108301898Y-107096674D01*
X108101939Y-107056900D01*
X107898061Y-107056900D01*
X107698102Y-107096674D01*
X107509744Y-107174695D01*
X107340226Y-107287963D01*
X107196063Y-107432126D01*
X107082795Y-107601644D01*
X107004774Y-107790002D01*
X106965000Y-107989961D01*
X106965000Y-108193839D01*
X107004774Y-108393798D01*
X107082795Y-108582156D01*
X107196063Y-108751674D01*
X107340226Y-108895837D01*
X107509744Y-109009105D01*
X107698102Y-109087126D01*
X107898061Y-109126900D01*
X108101939Y-109126900D01*
X108301898Y-109087126D01*
X108490256Y-109009105D01*
X108659774Y-108895837D01*
X108703711Y-108851900D01*
X109738878Y-108851900D01*
X109776200Y-108855576D01*
X109813522Y-108851900D01*
X109813533Y-108851900D01*
X109925186Y-108840903D01*
X110068447Y-108797446D01*
X110200476Y-108726874D01*
X110316201Y-108631901D01*
X110340004Y-108602897D01*
X114315001Y-104627901D01*
X114315001Y-111315000D01*
X104002893Y-111315000D01*
X104244632Y-111153475D01*
X104451475Y-110946632D01*
X104613990Y-110703411D01*
X104725932Y-110433158D01*
X104783000Y-110146260D01*
X104783000Y-109853740D01*
X104725932Y-109566842D01*
X104613990Y-109296589D01*
X104451475Y-109053368D01*
X104244632Y-108846525D01*
X104001411Y-108684010D01*
X103731158Y-108572068D01*
X103444260Y-108515000D01*
X103151740Y-108515000D01*
X102864842Y-108572068D01*
X102594589Y-108684010D01*
X102351368Y-108846525D01*
X102144525Y-109053368D01*
X102028000Y-109227760D01*
X101911475Y-109053368D01*
X101704632Y-108846525D01*
X101461411Y-108684010D01*
X101191158Y-108572068D01*
X100904260Y-108515000D01*
X100611740Y-108515000D01*
X100324842Y-108572068D01*
X100054589Y-108684010D01*
X99811368Y-108846525D01*
X99604525Y-109053368D01*
X99488000Y-109227760D01*
X99371475Y-109053368D01*
X99164632Y-108846525D01*
X98921411Y-108684010D01*
X98651158Y-108572068D01*
X98364260Y-108515000D01*
X98071740Y-108515000D01*
X97784842Y-108572068D01*
X97514589Y-108684010D01*
X97271368Y-108846525D01*
X97064525Y-109053368D01*
X96948000Y-109227760D01*
X96831475Y-109053368D01*
X96624632Y-108846525D01*
X96381411Y-108684010D01*
X96111158Y-108572068D01*
X95824260Y-108515000D01*
X95531740Y-108515000D01*
X95244842Y-108572068D01*
X94974589Y-108684010D01*
X94731368Y-108846525D01*
X94599513Y-108978380D01*
X94577502Y-108905820D01*
X94518537Y-108795506D01*
X94439185Y-108698815D01*
X94342494Y-108619463D01*
X94232180Y-108560498D01*
X94112482Y-108524188D01*
X93988000Y-108511928D01*
X93423750Y-108515000D01*
X93265000Y-108673750D01*
X93265000Y-109873000D01*
X93285000Y-109873000D01*
X93285000Y-110127000D01*
X93265000Y-110127000D01*
X93265000Y-110147000D01*
X93011000Y-110147000D01*
X93011000Y-110127000D01*
X92991000Y-110127000D01*
X92991000Y-109873000D01*
X93011000Y-109873000D01*
X93011000Y-108673750D01*
X92852250Y-108515000D01*
X92698400Y-108514162D01*
X92698400Y-100103109D01*
X101558519Y-100103109D01*
X101679186Y-100333000D01*
X102873000Y-100333000D01*
X102873000Y-99139845D01*
X102643110Y-99018524D01*
X102495901Y-99063175D01*
X102233080Y-99188359D01*
X101999731Y-99362412D01*
X101804822Y-99578645D01*
X101655843Y-99828748D01*
X101558519Y-100103109D01*
X92698400Y-100103109D01*
X92698400Y-98748061D01*
X92865000Y-98748061D01*
X92865000Y-98951939D01*
X92904774Y-99151898D01*
X92982795Y-99340256D01*
X93096063Y-99509774D01*
X93240226Y-99653937D01*
X93409744Y-99767205D01*
X93598102Y-99845226D01*
X93798061Y-99885000D01*
X94001939Y-99885000D01*
X94201898Y-99845226D01*
X94390256Y-99767205D01*
X94559774Y-99653937D01*
X94703937Y-99509774D01*
X94817205Y-99340256D01*
X94848378Y-99264999D01*
X96521289Y-99264999D01*
X96565226Y-99308936D01*
X96734744Y-99422204D01*
X96923102Y-99500225D01*
X97123061Y-99539999D01*
X97326939Y-99539999D01*
X97526898Y-99500225D01*
X97715256Y-99422204D01*
X97884774Y-99308936D01*
X98028937Y-99164773D01*
X98142205Y-98995255D01*
X98220226Y-98806897D01*
X98260000Y-98606938D01*
X98260000Y-98403060D01*
X98220226Y-98203101D01*
X98142205Y-98014743D01*
X98028937Y-97845225D01*
X97884774Y-97701062D01*
X97715256Y-97587794D01*
X97526898Y-97509773D01*
X97326939Y-97469999D01*
X97123061Y-97469999D01*
X96923102Y-97509773D01*
X96734744Y-97587794D01*
X96565226Y-97701062D01*
X96521289Y-97744999D01*
X94282323Y-97744999D01*
X94245000Y-97741323D01*
X94207677Y-97744999D01*
X94207668Y-97744999D01*
X94096015Y-97755996D01*
X93952754Y-97799453D01*
X93923668Y-97815000D01*
X93798061Y-97815000D01*
X93598102Y-97854774D01*
X93409744Y-97932795D01*
X93240226Y-98046063D01*
X93096063Y-98190226D01*
X92982795Y-98359744D01*
X92904774Y-98548102D01*
X92865000Y-98748061D01*
X92698400Y-98748061D01*
X92698400Y-93850000D01*
X101511928Y-93850000D01*
X101524188Y-93974482D01*
X101560498Y-94094180D01*
X101619463Y-94204494D01*
X101698815Y-94301185D01*
X101795506Y-94380537D01*
X101905820Y-94439502D01*
X102025518Y-94475812D01*
X102150000Y-94488072D01*
X102714250Y-94485000D01*
X102873000Y-94326250D01*
X102873000Y-93127000D01*
X101673750Y-93127000D01*
X101515000Y-93285750D01*
X101511928Y-93850000D01*
X92698400Y-93850000D01*
X92698400Y-92150000D01*
X101511928Y-92150000D01*
X101515000Y-92714250D01*
X101673750Y-92873000D01*
X102873000Y-92873000D01*
X102873000Y-90587000D01*
X101679186Y-90587000D01*
X101558519Y-90816891D01*
X101655843Y-91091252D01*
X101804822Y-91341355D01*
X101981626Y-91537502D01*
X101905820Y-91560498D01*
X101795506Y-91619463D01*
X101698815Y-91698815D01*
X101619463Y-91795506D01*
X101560498Y-91905820D01*
X101524188Y-92025518D01*
X101511928Y-92150000D01*
X92698400Y-92150000D01*
X92698400Y-90103109D01*
X101558519Y-90103109D01*
X101679186Y-90333000D01*
X102873000Y-90333000D01*
X102873000Y-89139845D01*
X102643110Y-89018524D01*
X102495901Y-89063175D01*
X102233080Y-89188359D01*
X101999731Y-89362412D01*
X101804822Y-89578645D01*
X101655843Y-89828748D01*
X101558519Y-90103109D01*
X92698400Y-90103109D01*
X92698400Y-88776533D01*
X92702077Y-88739200D01*
X92687403Y-88590215D01*
X92643946Y-88446954D01*
X92643946Y-88446953D01*
X92634999Y-88430215D01*
X92634999Y-83850000D01*
X101511928Y-83850000D01*
X101524188Y-83974482D01*
X101560498Y-84094180D01*
X101619463Y-84204494D01*
X101698815Y-84301185D01*
X101795506Y-84380537D01*
X101905820Y-84439502D01*
X102025518Y-84475812D01*
X102150000Y-84488072D01*
X102714250Y-84485000D01*
X102873000Y-84326250D01*
X102873000Y-83127000D01*
X101673750Y-83127000D01*
X101515000Y-83285750D01*
X101511928Y-83850000D01*
X92634999Y-83850000D01*
X92634999Y-83278295D01*
X92732753Y-83330546D01*
X92876014Y-83374003D01*
X92987667Y-83385000D01*
X92987675Y-83385000D01*
X93025000Y-83388676D01*
X93062325Y-83385000D01*
X96296289Y-83385000D01*
X96340226Y-83428937D01*
X96509744Y-83542205D01*
X96698102Y-83620226D01*
X96898061Y-83660000D01*
X97101939Y-83660000D01*
X97301898Y-83620226D01*
X97490256Y-83542205D01*
X97659774Y-83428937D01*
X97803937Y-83284774D01*
X97917205Y-83115256D01*
X97995226Y-82926898D01*
X98035000Y-82726939D01*
X98035000Y-82523061D01*
X97995226Y-82323102D01*
X97923525Y-82150000D01*
X101511928Y-82150000D01*
X101515000Y-82714250D01*
X101673750Y-82873000D01*
X102873000Y-82873000D01*
X102873000Y-80587000D01*
X101679186Y-80587000D01*
X101558519Y-80816891D01*
X101655843Y-81091252D01*
X101804822Y-81341355D01*
X101981626Y-81537502D01*
X101905820Y-81560498D01*
X101795506Y-81619463D01*
X101698815Y-81698815D01*
X101619463Y-81795506D01*
X101560498Y-81905820D01*
X101524188Y-82025518D01*
X101511928Y-82150000D01*
X97923525Y-82150000D01*
X97917205Y-82134744D01*
X97803937Y-81965226D01*
X97659774Y-81821063D01*
X97490256Y-81707795D01*
X97301898Y-81629774D01*
X97101939Y-81590000D01*
X96898061Y-81590000D01*
X96698102Y-81629774D01*
X96509744Y-81707795D01*
X96340226Y-81821063D01*
X96296289Y-81865000D01*
X93581515Y-81865000D01*
X93517205Y-81709744D01*
X93403937Y-81540226D01*
X93323710Y-81459999D01*
X97112679Y-81459999D01*
X97150001Y-81463675D01*
X97187323Y-81459999D01*
X97187334Y-81459999D01*
X97298987Y-81449002D01*
X97442248Y-81405545D01*
X97574226Y-81335000D01*
X97651939Y-81335000D01*
X97851898Y-81295226D01*
X98040256Y-81217205D01*
X98209774Y-81103937D01*
X98353937Y-80959774D01*
X98467205Y-80790256D01*
X98545226Y-80601898D01*
X98585000Y-80401939D01*
X98585000Y-80198061D01*
X98545226Y-79998102D01*
X98467205Y-79809744D01*
X98353937Y-79640226D01*
X98209774Y-79496063D01*
X98040256Y-79382795D01*
X97851898Y-79304774D01*
X97651939Y-79265000D01*
X97448061Y-79265000D01*
X97248102Y-79304774D01*
X97059744Y-79382795D01*
X96890226Y-79496063D01*
X96746063Y-79640226D01*
X96632795Y-79809744D01*
X96578841Y-79939999D01*
X91812321Y-79939999D01*
X91774999Y-79936323D01*
X91737677Y-79939999D01*
X90048102Y-79939999D01*
X90180147Y-79807954D01*
X90209151Y-79784151D01*
X90232954Y-79755147D01*
X97838101Y-72150000D01*
X101511928Y-72150000D01*
X101515000Y-72714250D01*
X101673750Y-72873000D01*
X102873000Y-72873000D01*
X102873000Y-70587000D01*
X101679186Y-70587000D01*
X101558519Y-70816891D01*
X101655843Y-71091252D01*
X101804822Y-71341355D01*
X101981626Y-71537502D01*
X101905820Y-71560498D01*
X101795506Y-71619463D01*
X101698815Y-71698815D01*
X101619463Y-71795506D01*
X101560498Y-71905820D01*
X101524188Y-72025518D01*
X101511928Y-72150000D01*
X97838101Y-72150000D01*
X99884992Y-70103109D01*
X101558519Y-70103109D01*
X101679186Y-70333000D01*
X102873000Y-70333000D01*
X102873000Y-69139845D01*
X102643110Y-69018524D01*
X102495901Y-69063175D01*
X102233080Y-69188359D01*
X101999731Y-69362412D01*
X101804822Y-69578645D01*
X101655843Y-69828748D01*
X101558519Y-70103109D01*
X99884992Y-70103109D01*
X103809003Y-66179099D01*
X103838001Y-66155301D01*
X103932974Y-66039576D01*
X103992575Y-65928072D01*
X104148000Y-65928072D01*
X104272482Y-65915812D01*
X104392180Y-65879502D01*
X104502494Y-65820537D01*
X104599185Y-65741185D01*
X104678537Y-65644494D01*
X104737502Y-65534180D01*
X104773812Y-65414482D01*
X104786072Y-65290000D01*
X104786072Y-63590000D01*
X104773812Y-63465518D01*
X104737502Y-63345820D01*
X104678537Y-63235506D01*
X104599185Y-63138815D01*
X104582351Y-63125000D01*
X114315000Y-63125000D01*
X114315000Y-69515651D01*
G37*
X114315000Y-69515651D02*
X114313475Y-69513368D01*
X114106632Y-69306525D01*
X113863411Y-69144010D01*
X113593158Y-69032068D01*
X113306260Y-68975000D01*
X113013740Y-68975000D01*
X112726842Y-69032068D01*
X112456589Y-69144010D01*
X112213368Y-69306525D01*
X112006525Y-69513368D01*
X111890000Y-69687760D01*
X111773475Y-69513368D01*
X111566632Y-69306525D01*
X111323411Y-69144010D01*
X111053158Y-69032068D01*
X110766260Y-68975000D01*
X110473740Y-68975000D01*
X110186842Y-69032068D01*
X109916589Y-69144010D01*
X109673368Y-69306525D01*
X109466525Y-69513368D01*
X109350000Y-69687760D01*
X109233475Y-69513368D01*
X109026632Y-69306525D01*
X108783411Y-69144010D01*
X108513158Y-69032068D01*
X108226260Y-68975000D01*
X107933740Y-68975000D01*
X107646842Y-69032068D01*
X107376589Y-69144010D01*
X107133368Y-69306525D01*
X106926525Y-69513368D01*
X106810000Y-69687760D01*
X106693475Y-69513368D01*
X106486632Y-69306525D01*
X106243411Y-69144010D01*
X105973158Y-69032068D01*
X105686260Y-68975000D01*
X105393740Y-68975000D01*
X105106842Y-69032068D01*
X104836589Y-69144010D01*
X104593368Y-69306525D01*
X104386525Y-69513368D01*
X104264805Y-69695534D01*
X104195178Y-69578645D01*
X104000269Y-69362412D01*
X103766920Y-69188359D01*
X103504099Y-69063175D01*
X103356890Y-69018524D01*
X103127000Y-69139845D01*
X103127000Y-70333000D01*
X103147000Y-70333000D01*
X103147000Y-70587000D01*
X103127000Y-70587000D01*
X103127000Y-72873000D01*
X103147000Y-72873000D01*
X103147000Y-73127000D01*
X103127000Y-73127000D01*
X103127000Y-73147000D01*
X102873000Y-73147000D01*
X102873000Y-73127000D01*
X101673750Y-73127000D01*
X101515000Y-73285750D01*
X101511928Y-73850000D01*
X101524188Y-73974482D01*
X101560498Y-74094180D01*
X101619463Y-74204494D01*
X101698815Y-74301185D01*
X101795506Y-74380537D01*
X101905820Y-74439502D01*
X102017047Y-74473242D01*
X101994395Y-74507144D01*
X101916374Y-74695502D01*
X101876600Y-74895461D01*
X101876600Y-75099339D01*
X101916374Y-75299298D01*
X101994395Y-75487656D01*
X102107663Y-75657174D01*
X102251826Y-75801337D01*
X102421344Y-75914605D01*
X102609702Y-75992626D01*
X102809661Y-76032400D01*
X103013539Y-76032400D01*
X103213498Y-75992626D01*
X103401856Y-75914605D01*
X103571374Y-75801337D01*
X103615311Y-75757400D01*
X103970299Y-75757400D01*
X107364791Y-79151893D01*
X107133368Y-79306525D01*
X106926525Y-79513368D01*
X106810000Y-79687760D01*
X106693475Y-79513368D01*
X106486632Y-79306525D01*
X106293089Y-79177204D01*
X106289003Y-79135714D01*
X106245546Y-78992453D01*
X106174974Y-78860424D01*
X106080001Y-78744699D01*
X105964276Y-78649726D01*
X105832247Y-78579154D01*
X105688986Y-78535697D01*
X105577333Y-78524700D01*
X105540000Y-78521023D01*
X105502667Y-78524700D01*
X105384202Y-78524700D01*
X105377700Y-78518198D01*
X105377700Y-78456061D01*
X105337926Y-78256102D01*
X105259905Y-78067744D01*
X105146637Y-77898226D01*
X105002474Y-77754063D01*
X104832956Y-77640795D01*
X104644598Y-77562774D01*
X104444639Y-77523000D01*
X104240761Y-77523000D01*
X104040802Y-77562774D01*
X103852444Y-77640795D01*
X103826652Y-77658029D01*
X103801805Y-77598044D01*
X103688537Y-77428526D01*
X103544374Y-77284363D01*
X103374856Y-77171095D01*
X103186498Y-77093074D01*
X102986539Y-77053300D01*
X102782661Y-77053300D01*
X102582702Y-77093074D01*
X102394344Y-77171095D01*
X102224826Y-77284363D01*
X102080663Y-77428526D01*
X101967395Y-77598044D01*
X101889374Y-77786402D01*
X101849600Y-77986361D01*
X101849600Y-78190239D01*
X101889374Y-78390198D01*
X101967395Y-78578556D01*
X102080663Y-78748074D01*
X102224826Y-78892237D01*
X102394344Y-79005505D01*
X102517647Y-79056579D01*
X102495901Y-79063175D01*
X102233080Y-79188359D01*
X101999731Y-79362412D01*
X101804822Y-79578645D01*
X101655843Y-79828748D01*
X101558519Y-80103109D01*
X101679186Y-80333000D01*
X102873000Y-80333000D01*
X102873000Y-80313000D01*
X103127000Y-80313000D01*
X103127000Y-80333000D01*
X103147000Y-80333000D01*
X103147000Y-80587000D01*
X103127000Y-80587000D01*
X103127000Y-82873000D01*
X103147000Y-82873000D01*
X103147000Y-83127000D01*
X103127000Y-83127000D01*
X103127000Y-84326250D01*
X103285750Y-84485000D01*
X103850000Y-84488072D01*
X103974482Y-84475812D01*
X104094180Y-84439502D01*
X104204494Y-84380537D01*
X104301185Y-84301185D01*
X104380537Y-84204494D01*
X104439502Y-84094180D01*
X104461513Y-84021620D01*
X104593368Y-84153475D01*
X104836589Y-84315990D01*
X104841553Y-84318046D01*
X103544608Y-85614991D01*
X103417098Y-85562174D01*
X103217139Y-85522400D01*
X103013261Y-85522400D01*
X102813302Y-85562174D01*
X102624944Y-85640195D01*
X102455426Y-85753463D01*
X102311263Y-85897626D01*
X102197995Y-86067144D01*
X102119974Y-86255502D01*
X102080200Y-86455461D01*
X102080200Y-86659339D01*
X102119974Y-86859298D01*
X102197995Y-87047656D01*
X102311263Y-87217174D01*
X102455426Y-87361337D01*
X102624944Y-87474605D01*
X102813302Y-87552626D01*
X103013261Y-87592400D01*
X103217139Y-87592400D01*
X103417098Y-87552626D01*
X103605456Y-87474605D01*
X103774974Y-87361337D01*
X103831616Y-87304695D01*
X103969247Y-87262946D01*
X104101276Y-87192374D01*
X104217001Y-87097401D01*
X104240804Y-87068397D01*
X107146771Y-84162431D01*
X107376589Y-84315990D01*
X107646842Y-84427932D01*
X107933740Y-84485000D01*
X108226260Y-84485000D01*
X108495301Y-84431484D01*
X108495301Y-85004068D01*
X108491624Y-85041400D01*
X108495301Y-85078733D01*
X108506298Y-85190386D01*
X108519480Y-85233842D01*
X108549754Y-85333646D01*
X108620326Y-85465676D01*
X108648457Y-85499953D01*
X108715300Y-85581401D01*
X108744298Y-85605199D01*
X111035400Y-87896302D01*
X111035400Y-89028536D01*
X110766260Y-88975000D01*
X110473740Y-88975000D01*
X110186842Y-89032068D01*
X109916589Y-89144010D01*
X109673368Y-89306525D01*
X109466525Y-89513368D01*
X109350000Y-89687760D01*
X109233475Y-89513368D01*
X109026632Y-89306525D01*
X108783411Y-89144010D01*
X108513158Y-89032068D01*
X108226260Y-88975000D01*
X107933740Y-88975000D01*
X107646842Y-89032068D01*
X107376589Y-89144010D01*
X107133368Y-89306525D01*
X106926525Y-89513368D01*
X106810000Y-89687760D01*
X106693475Y-89513368D01*
X106486632Y-89306525D01*
X106243411Y-89144010D01*
X105973158Y-89032068D01*
X105686260Y-88975000D01*
X105393740Y-88975000D01*
X105106842Y-89032068D01*
X104836589Y-89144010D01*
X104593368Y-89306525D01*
X104386525Y-89513368D01*
X104264805Y-89695534D01*
X104195178Y-89578645D01*
X104000269Y-89362412D01*
X103766920Y-89188359D01*
X103504099Y-89063175D01*
X103356890Y-89018524D01*
X103127000Y-89139845D01*
X103127000Y-90333000D01*
X103147000Y-90333000D01*
X103147000Y-90587000D01*
X103127000Y-90587000D01*
X103127000Y-92873000D01*
X103147000Y-92873000D01*
X103147000Y-93127000D01*
X103127000Y-93127000D01*
X103127000Y-94326250D01*
X103285750Y-94485000D01*
X103850000Y-94488072D01*
X103974482Y-94475812D01*
X104094180Y-94439502D01*
X104204494Y-94380537D01*
X104301185Y-94301185D01*
X104380537Y-94204494D01*
X104439502Y-94094180D01*
X104461513Y-94021620D01*
X104593368Y-94153475D01*
X104836589Y-94315990D01*
X105106842Y-94427932D01*
X105393740Y-94485000D01*
X105686260Y-94485000D01*
X105973158Y-94427932D01*
X106243411Y-94315990D01*
X106486632Y-94153475D01*
X106693475Y-93946632D01*
X106810000Y-93772240D01*
X106926525Y-93946632D01*
X107133368Y-94153475D01*
X107376589Y-94315990D01*
X107646842Y-94427932D01*
X107933740Y-94485000D01*
X108226260Y-94485000D01*
X108513158Y-94427932D01*
X108783411Y-94315990D01*
X109026632Y-94153475D01*
X109233475Y-93946632D01*
X109350000Y-93772240D01*
X109466525Y-93946632D01*
X109673368Y-94153475D01*
X109916589Y-94315990D01*
X110186842Y-94427932D01*
X110473740Y-94485000D01*
X110766260Y-94485000D01*
X111035401Y-94431464D01*
X111035401Y-95004168D01*
X111031724Y-95041500D01*
X111046398Y-95190485D01*
X111089854Y-95333746D01*
X111160426Y-95465776D01*
X111231601Y-95552502D01*
X111255400Y-95581501D01*
X111284398Y-95605299D01*
X113588600Y-97909502D01*
X113588600Y-99031161D01*
X113306260Y-98975000D01*
X113013740Y-98975000D01*
X112726842Y-99032068D01*
X112456589Y-99144010D01*
X112213368Y-99306525D01*
X112006525Y-99513368D01*
X111890000Y-99687760D01*
X111773475Y-99513368D01*
X111566632Y-99306525D01*
X111323411Y-99144010D01*
X111053158Y-99032068D01*
X110766260Y-98975000D01*
X110473740Y-98975000D01*
X110186842Y-99032068D01*
X109916589Y-99144010D01*
X109695943Y-99291441D01*
X107092304Y-96687803D01*
X107068501Y-96658799D01*
X106952776Y-96563826D01*
X106820747Y-96493254D01*
X106677486Y-96449797D01*
X106565833Y-96438800D01*
X106565822Y-96438800D01*
X106528500Y-96435124D01*
X106491178Y-96438800D01*
X103583525Y-96438800D01*
X103546200Y-96435124D01*
X103508875Y-96438800D01*
X103508867Y-96438800D01*
X103397214Y-96449797D01*
X103253953Y-96493254D01*
X103188013Y-96528500D01*
X103079561Y-96528500D01*
X102879602Y-96568274D01*
X102691244Y-96646295D01*
X102521726Y-96759563D01*
X102377563Y-96903726D01*
X102264295Y-97073244D01*
X102186274Y-97261602D01*
X102146500Y-97461561D01*
X102146500Y-97665439D01*
X102186274Y-97865398D01*
X102264295Y-98053756D01*
X102377563Y-98223274D01*
X102521726Y-98367437D01*
X102691244Y-98480705D01*
X102879602Y-98558726D01*
X103079561Y-98598500D01*
X103283439Y-98598500D01*
X103483398Y-98558726D01*
X103671756Y-98480705D01*
X103841274Y-98367437D01*
X103985437Y-98223274D01*
X104010542Y-98185702D01*
X104019074Y-98228598D01*
X104097095Y-98416956D01*
X104210363Y-98586474D01*
X104254300Y-98630411D01*
X104254300Y-98721678D01*
X104250624Y-98759000D01*
X104254300Y-98796322D01*
X104254300Y-98796333D01*
X104262236Y-98876898D01*
X104265298Y-98907985D01*
X104308754Y-99051246D01*
X104379326Y-99183276D01*
X104421590Y-99234774D01*
X104474300Y-99299001D01*
X104503298Y-99322799D01*
X104540196Y-99359697D01*
X104386525Y-99513368D01*
X104264805Y-99695534D01*
X104195178Y-99578645D01*
X104000269Y-99362412D01*
X103766920Y-99188359D01*
X103504099Y-99063175D01*
X103356890Y-99018524D01*
X103127000Y-99139845D01*
X103127000Y-100333000D01*
X103147000Y-100333000D01*
X103147000Y-100587000D01*
X103127000Y-100587000D01*
X103127000Y-100607000D01*
X102873000Y-100607000D01*
X102873000Y-100587000D01*
X101679186Y-100587000D01*
X101558519Y-100816891D01*
X101646424Y-101064700D01*
X97075622Y-101064700D01*
X97038299Y-101061024D01*
X97000976Y-101064700D01*
X97000967Y-101064700D01*
X96889314Y-101075697D01*
X96746053Y-101119154D01*
X96614024Y-101189726D01*
X96498299Y-101284699D01*
X96474496Y-101313703D01*
X96348199Y-101440000D01*
X94878711Y-101440000D01*
X94834774Y-101396063D01*
X94665256Y-101282795D01*
X94476898Y-101204774D01*
X94276939Y-101165000D01*
X94073061Y-101165000D01*
X93873102Y-101204774D01*
X93684744Y-101282795D01*
X93515226Y-101396063D01*
X93371063Y-101540226D01*
X93257795Y-101709744D01*
X93179774Y-101898102D01*
X93140000Y-102098061D01*
X93140000Y-102301939D01*
X93179774Y-102501898D01*
X93257795Y-102690256D01*
X93371063Y-102859774D01*
X93515226Y-103003937D01*
X93684744Y-103117205D01*
X93873102Y-103195226D01*
X94073061Y-103235000D01*
X94276939Y-103235000D01*
X94476898Y-103195226D01*
X94665256Y-103117205D01*
X94834774Y-103003937D01*
X94878711Y-102960000D01*
X96625678Y-102960000D01*
X96663000Y-102963676D01*
X96700322Y-102960000D01*
X96700333Y-102960000D01*
X96811986Y-102949003D01*
X96955247Y-102905546D01*
X97087276Y-102834974D01*
X97203001Y-102740001D01*
X97226804Y-102710997D01*
X97353101Y-102584700D01*
X101514295Y-102584700D01*
X101515000Y-102714250D01*
X101673750Y-102873000D01*
X102873000Y-102873000D01*
X102873000Y-102853000D01*
X103127000Y-102853000D01*
X103127000Y-102873000D01*
X103147000Y-102873000D01*
X103147000Y-103127000D01*
X103127000Y-103127000D01*
X103127000Y-103147000D01*
X102873000Y-103147000D01*
X102873000Y-103127000D01*
X101673750Y-103127000D01*
X101515000Y-103285750D01*
X101514295Y-103415300D01*
X101068411Y-103415300D01*
X100988174Y-103335063D01*
X100818656Y-103221795D01*
X100630298Y-103143774D01*
X100430339Y-103104000D01*
X100226461Y-103104000D01*
X100026502Y-103143774D01*
X99838144Y-103221795D01*
X99668626Y-103335063D01*
X99524463Y-103479226D01*
X99411195Y-103648744D01*
X99333174Y-103837102D01*
X99293400Y-104037061D01*
X99293400Y-104240939D01*
X99333174Y-104440898D01*
X99411195Y-104629256D01*
X99524463Y-104798774D01*
X99668626Y-104942937D01*
X99838144Y-105056205D01*
X100026502Y-105134226D01*
X100226461Y-105174000D01*
X100430339Y-105174000D01*
X100630298Y-105134226D01*
X100818656Y-105056205D01*
X100988174Y-104942937D01*
X100995811Y-104935300D01*
X106059478Y-104935300D01*
X106096800Y-104938976D01*
X106134122Y-104935300D01*
X106134133Y-104935300D01*
X106245786Y-104924303D01*
X106389047Y-104880846D01*
X106521076Y-104810274D01*
X106636801Y-104715301D01*
X106660603Y-104686298D01*
X107169371Y-104177531D01*
X107376589Y-104315990D01*
X107646842Y-104427932D01*
X107933740Y-104485000D01*
X108226260Y-104485000D01*
X108513158Y-104427932D01*
X108783411Y-104315990D01*
X109026632Y-104153475D01*
X109233475Y-103946632D01*
X109350000Y-103772240D01*
X109466525Y-103946632D01*
X109673368Y-104153475D01*
X109916589Y-104315990D01*
X110186842Y-104427932D01*
X110473740Y-104485000D01*
X110766260Y-104485000D01*
X111053158Y-104427932D01*
X111323411Y-104315990D01*
X111566632Y-104153475D01*
X111773475Y-103946632D01*
X111890000Y-103772240D01*
X112006525Y-103946632D01*
X112213368Y-104153475D01*
X112456589Y-104315990D01*
X112471240Y-104322059D01*
X109461399Y-107331900D01*
X108703711Y-107331900D01*
X108659774Y-107287963D01*
X108490256Y-107174695D01*
X108301898Y-107096674D01*
X108101939Y-107056900D01*
X107898061Y-107056900D01*
X107698102Y-107096674D01*
X107509744Y-107174695D01*
X107340226Y-107287963D01*
X107196063Y-107432126D01*
X107082795Y-107601644D01*
X107004774Y-107790002D01*
X106965000Y-107989961D01*
X106965000Y-108193839D01*
X107004774Y-108393798D01*
X107082795Y-108582156D01*
X107196063Y-108751674D01*
X107340226Y-108895837D01*
X107509744Y-109009105D01*
X107698102Y-109087126D01*
X107898061Y-109126900D01*
X108101939Y-109126900D01*
X108301898Y-109087126D01*
X108490256Y-109009105D01*
X108659774Y-108895837D01*
X108703711Y-108851900D01*
X109738878Y-108851900D01*
X109776200Y-108855576D01*
X109813522Y-108851900D01*
X109813533Y-108851900D01*
X109925186Y-108840903D01*
X110068447Y-108797446D01*
X110200476Y-108726874D01*
X110316201Y-108631901D01*
X110340004Y-108602897D01*
X114315001Y-104627901D01*
X114315001Y-111315000D01*
X104002893Y-111315000D01*
X104244632Y-111153475D01*
X104451475Y-110946632D01*
X104613990Y-110703411D01*
X104725932Y-110433158D01*
X104783000Y-110146260D01*
X104783000Y-109853740D01*
X104725932Y-109566842D01*
X104613990Y-109296589D01*
X104451475Y-109053368D01*
X104244632Y-108846525D01*
X104001411Y-108684010D01*
X103731158Y-108572068D01*
X103444260Y-108515000D01*
X103151740Y-108515000D01*
X102864842Y-108572068D01*
X102594589Y-108684010D01*
X102351368Y-108846525D01*
X102144525Y-109053368D01*
X102028000Y-109227760D01*
X101911475Y-109053368D01*
X101704632Y-108846525D01*
X101461411Y-108684010D01*
X101191158Y-108572068D01*
X100904260Y-108515000D01*
X100611740Y-108515000D01*
X100324842Y-108572068D01*
X100054589Y-108684010D01*
X99811368Y-108846525D01*
X99604525Y-109053368D01*
X99488000Y-109227760D01*
X99371475Y-109053368D01*
X99164632Y-108846525D01*
X98921411Y-108684010D01*
X98651158Y-108572068D01*
X98364260Y-108515000D01*
X98071740Y-108515000D01*
X97784842Y-108572068D01*
X97514589Y-108684010D01*
X97271368Y-108846525D01*
X97064525Y-109053368D01*
X96948000Y-109227760D01*
X96831475Y-109053368D01*
X96624632Y-108846525D01*
X96381411Y-108684010D01*
X96111158Y-108572068D01*
X95824260Y-108515000D01*
X95531740Y-108515000D01*
X95244842Y-108572068D01*
X94974589Y-108684010D01*
X94731368Y-108846525D01*
X94599513Y-108978380D01*
X94577502Y-108905820D01*
X94518537Y-108795506D01*
X94439185Y-108698815D01*
X94342494Y-108619463D01*
X94232180Y-108560498D01*
X94112482Y-108524188D01*
X93988000Y-108511928D01*
X93423750Y-108515000D01*
X93265000Y-108673750D01*
X93265000Y-109873000D01*
X93285000Y-109873000D01*
X93285000Y-110127000D01*
X93265000Y-110127000D01*
X93265000Y-110147000D01*
X93011000Y-110147000D01*
X93011000Y-110127000D01*
X92991000Y-110127000D01*
X92991000Y-109873000D01*
X93011000Y-109873000D01*
X93011000Y-108673750D01*
X92852250Y-108515000D01*
X92698400Y-108514162D01*
X92698400Y-100103109D01*
X101558519Y-100103109D01*
X101679186Y-100333000D01*
X102873000Y-100333000D01*
X102873000Y-99139845D01*
X102643110Y-99018524D01*
X102495901Y-99063175D01*
X102233080Y-99188359D01*
X101999731Y-99362412D01*
X101804822Y-99578645D01*
X101655843Y-99828748D01*
X101558519Y-100103109D01*
X92698400Y-100103109D01*
X92698400Y-98748061D01*
X92865000Y-98748061D01*
X92865000Y-98951939D01*
X92904774Y-99151898D01*
X92982795Y-99340256D01*
X93096063Y-99509774D01*
X93240226Y-99653937D01*
X93409744Y-99767205D01*
X93598102Y-99845226D01*
X93798061Y-99885000D01*
X94001939Y-99885000D01*
X94201898Y-99845226D01*
X94390256Y-99767205D01*
X94559774Y-99653937D01*
X94703937Y-99509774D01*
X94817205Y-99340256D01*
X94848378Y-99264999D01*
X96521289Y-99264999D01*
X96565226Y-99308936D01*
X96734744Y-99422204D01*
X96923102Y-99500225D01*
X97123061Y-99539999D01*
X97326939Y-99539999D01*
X97526898Y-99500225D01*
X97715256Y-99422204D01*
X97884774Y-99308936D01*
X98028937Y-99164773D01*
X98142205Y-98995255D01*
X98220226Y-98806897D01*
X98260000Y-98606938D01*
X98260000Y-98403060D01*
X98220226Y-98203101D01*
X98142205Y-98014743D01*
X98028937Y-97845225D01*
X97884774Y-97701062D01*
X97715256Y-97587794D01*
X97526898Y-97509773D01*
X97326939Y-97469999D01*
X97123061Y-97469999D01*
X96923102Y-97509773D01*
X96734744Y-97587794D01*
X96565226Y-97701062D01*
X96521289Y-97744999D01*
X94282323Y-97744999D01*
X94245000Y-97741323D01*
X94207677Y-97744999D01*
X94207668Y-97744999D01*
X94096015Y-97755996D01*
X93952754Y-97799453D01*
X93923668Y-97815000D01*
X93798061Y-97815000D01*
X93598102Y-97854774D01*
X93409744Y-97932795D01*
X93240226Y-98046063D01*
X93096063Y-98190226D01*
X92982795Y-98359744D01*
X92904774Y-98548102D01*
X92865000Y-98748061D01*
X92698400Y-98748061D01*
X92698400Y-93850000D01*
X101511928Y-93850000D01*
X101524188Y-93974482D01*
X101560498Y-94094180D01*
X101619463Y-94204494D01*
X101698815Y-94301185D01*
X101795506Y-94380537D01*
X101905820Y-94439502D01*
X102025518Y-94475812D01*
X102150000Y-94488072D01*
X102714250Y-94485000D01*
X102873000Y-94326250D01*
X102873000Y-93127000D01*
X101673750Y-93127000D01*
X101515000Y-93285750D01*
X101511928Y-93850000D01*
X92698400Y-93850000D01*
X92698400Y-92150000D01*
X101511928Y-92150000D01*
X101515000Y-92714250D01*
X101673750Y-92873000D01*
X102873000Y-92873000D01*
X102873000Y-90587000D01*
X101679186Y-90587000D01*
X101558519Y-90816891D01*
X101655843Y-91091252D01*
X101804822Y-91341355D01*
X101981626Y-91537502D01*
X101905820Y-91560498D01*
X101795506Y-91619463D01*
X101698815Y-91698815D01*
X101619463Y-91795506D01*
X101560498Y-91905820D01*
X101524188Y-92025518D01*
X101511928Y-92150000D01*
X92698400Y-92150000D01*
X92698400Y-90103109D01*
X101558519Y-90103109D01*
X101679186Y-90333000D01*
X102873000Y-90333000D01*
X102873000Y-89139845D01*
X102643110Y-89018524D01*
X102495901Y-89063175D01*
X102233080Y-89188359D01*
X101999731Y-89362412D01*
X101804822Y-89578645D01*
X101655843Y-89828748D01*
X101558519Y-90103109D01*
X92698400Y-90103109D01*
X92698400Y-88776533D01*
X92702077Y-88739200D01*
X92687403Y-88590215D01*
X92643946Y-88446954D01*
X92643946Y-88446953D01*
X92634999Y-88430215D01*
X92634999Y-83850000D01*
X101511928Y-83850000D01*
X101524188Y-83974482D01*
X101560498Y-84094180D01*
X101619463Y-84204494D01*
X101698815Y-84301185D01*
X101795506Y-84380537D01*
X101905820Y-84439502D01*
X102025518Y-84475812D01*
X102150000Y-84488072D01*
X102714250Y-84485000D01*
X102873000Y-84326250D01*
X102873000Y-83127000D01*
X101673750Y-83127000D01*
X101515000Y-83285750D01*
X101511928Y-83850000D01*
X92634999Y-83850000D01*
X92634999Y-83278295D01*
X92732753Y-83330546D01*
X92876014Y-83374003D01*
X92987667Y-83385000D01*
X92987675Y-83385000D01*
X93025000Y-83388676D01*
X93062325Y-83385000D01*
X96296289Y-83385000D01*
X96340226Y-83428937D01*
X96509744Y-83542205D01*
X96698102Y-83620226D01*
X96898061Y-83660000D01*
X97101939Y-83660000D01*
X97301898Y-83620226D01*
X97490256Y-83542205D01*
X97659774Y-83428937D01*
X97803937Y-83284774D01*
X97917205Y-83115256D01*
X97995226Y-82926898D01*
X98035000Y-82726939D01*
X98035000Y-82523061D01*
X97995226Y-82323102D01*
X97923525Y-82150000D01*
X101511928Y-82150000D01*
X101515000Y-82714250D01*
X101673750Y-82873000D01*
X102873000Y-82873000D01*
X102873000Y-80587000D01*
X101679186Y-80587000D01*
X101558519Y-80816891D01*
X101655843Y-81091252D01*
X101804822Y-81341355D01*
X101981626Y-81537502D01*
X101905820Y-81560498D01*
X101795506Y-81619463D01*
X101698815Y-81698815D01*
X101619463Y-81795506D01*
X101560498Y-81905820D01*
X101524188Y-82025518D01*
X101511928Y-82150000D01*
X97923525Y-82150000D01*
X97917205Y-82134744D01*
X97803937Y-81965226D01*
X97659774Y-81821063D01*
X97490256Y-81707795D01*
X97301898Y-81629774D01*
X97101939Y-81590000D01*
X96898061Y-81590000D01*
X96698102Y-81629774D01*
X96509744Y-81707795D01*
X96340226Y-81821063D01*
X96296289Y-81865000D01*
X93581515Y-81865000D01*
X93517205Y-81709744D01*
X93403937Y-81540226D01*
X93323710Y-81459999D01*
X97112679Y-81459999D01*
X97150001Y-81463675D01*
X97187323Y-81459999D01*
X97187334Y-81459999D01*
X97298987Y-81449002D01*
X97442248Y-81405545D01*
X97574226Y-81335000D01*
X97651939Y-81335000D01*
X97851898Y-81295226D01*
X98040256Y-81217205D01*
X98209774Y-81103937D01*
X98353937Y-80959774D01*
X98467205Y-80790256D01*
X98545226Y-80601898D01*
X98585000Y-80401939D01*
X98585000Y-80198061D01*
X98545226Y-79998102D01*
X98467205Y-79809744D01*
X98353937Y-79640226D01*
X98209774Y-79496063D01*
X98040256Y-79382795D01*
X97851898Y-79304774D01*
X97651939Y-79265000D01*
X97448061Y-79265000D01*
X97248102Y-79304774D01*
X97059744Y-79382795D01*
X96890226Y-79496063D01*
X96746063Y-79640226D01*
X96632795Y-79809744D01*
X96578841Y-79939999D01*
X91812321Y-79939999D01*
X91774999Y-79936323D01*
X91737677Y-79939999D01*
X90048102Y-79939999D01*
X90180147Y-79807954D01*
X90209151Y-79784151D01*
X90232954Y-79755147D01*
X97838101Y-72150000D01*
X101511928Y-72150000D01*
X101515000Y-72714250D01*
X101673750Y-72873000D01*
X102873000Y-72873000D01*
X102873000Y-70587000D01*
X101679186Y-70587000D01*
X101558519Y-70816891D01*
X101655843Y-71091252D01*
X101804822Y-71341355D01*
X101981626Y-71537502D01*
X101905820Y-71560498D01*
X101795506Y-71619463D01*
X101698815Y-71698815D01*
X101619463Y-71795506D01*
X101560498Y-71905820D01*
X101524188Y-72025518D01*
X101511928Y-72150000D01*
X97838101Y-72150000D01*
X99884992Y-70103109D01*
X101558519Y-70103109D01*
X101679186Y-70333000D01*
X102873000Y-70333000D01*
X102873000Y-69139845D01*
X102643110Y-69018524D01*
X102495901Y-69063175D01*
X102233080Y-69188359D01*
X101999731Y-69362412D01*
X101804822Y-69578645D01*
X101655843Y-69828748D01*
X101558519Y-70103109D01*
X99884992Y-70103109D01*
X103809003Y-66179099D01*
X103838001Y-66155301D01*
X103932974Y-66039576D01*
X103992575Y-65928072D01*
X104148000Y-65928072D01*
X104272482Y-65915812D01*
X104392180Y-65879502D01*
X104502494Y-65820537D01*
X104599185Y-65741185D01*
X104678537Y-65644494D01*
X104737502Y-65534180D01*
X104773812Y-65414482D01*
X104786072Y-65290000D01*
X104786072Y-63590000D01*
X104773812Y-63465518D01*
X104737502Y-63345820D01*
X104678537Y-63235506D01*
X104599185Y-63138815D01*
X104582351Y-63125000D01*
X114315000Y-63125000D01*
X114315000Y-69515651D01*
%TD*%
M02*
