G04 #@! TF.GenerationSoftware,KiCad,Pcbnew,(5.1.6-0-10_14)*
G04 #@! TF.CreationDate,2021-08-31T16:03:37+09:00*
G04 #@! TF.ProjectId,FFCbreak,46464362-7265-4616-9b2e-6b696361645f,rev?*
G04 #@! TF.SameCoordinates,Original*
G04 #@! TF.FileFunction,Legend,Top*
G04 #@! TF.FilePolarity,Positive*
%FSLAX46Y46*%
G04 Gerber Fmt 4.6, Leading zero omitted, Abs format (unit mm)*
G04 Created by KiCad (PCBNEW (5.1.6-0-10_14)) date 2021-08-31 16:03:37*
%MOMM*%
%LPD*%
G01*
G04 APERTURE LIST*
%ADD10C,0.300000*%
%ADD11C,0.120000*%
G04 APERTURE END LIST*
D10*
X143102857Y-89455714D02*
X141902857Y-89455714D01*
X142360000Y-89455714D02*
X142302857Y-89341428D01*
X142302857Y-89112857D01*
X142360000Y-88998571D01*
X142417142Y-88941428D01*
X142531428Y-88884285D01*
X142874285Y-88884285D01*
X142988571Y-88941428D01*
X143045714Y-88998571D01*
X143102857Y-89112857D01*
X143102857Y-89341428D01*
X143045714Y-89455714D01*
X143102857Y-87855714D02*
X142474285Y-87855714D01*
X142360000Y-87912857D01*
X142302857Y-88027142D01*
X142302857Y-88255714D01*
X142360000Y-88370000D01*
X143045714Y-87855714D02*
X143102857Y-87970000D01*
X143102857Y-88255714D01*
X143045714Y-88370000D01*
X142931428Y-88427142D01*
X142817142Y-88427142D01*
X142702857Y-88370000D01*
X142645714Y-88255714D01*
X142645714Y-87970000D01*
X142588571Y-87855714D01*
X142302857Y-87455714D02*
X142302857Y-86998571D01*
X141902857Y-87284285D02*
X142931428Y-87284285D01*
X143045714Y-87227142D01*
X143102857Y-87112857D01*
X143102857Y-86998571D01*
X143045714Y-86084285D02*
X143102857Y-86198571D01*
X143102857Y-86427142D01*
X143045714Y-86541428D01*
X142988571Y-86598571D01*
X142874285Y-86655714D01*
X142531428Y-86655714D01*
X142417142Y-86598571D01*
X142360000Y-86541428D01*
X142302857Y-86427142D01*
X142302857Y-86198571D01*
X142360000Y-86084285D01*
X143102857Y-85570000D02*
X141902857Y-85570000D01*
X143102857Y-85055714D02*
X142474285Y-85055714D01*
X142360000Y-85112857D01*
X142302857Y-85227142D01*
X142302857Y-85398571D01*
X142360000Y-85512857D01*
X142417142Y-85570000D01*
X143102857Y-84427142D02*
X143102857Y-84198571D01*
X143045714Y-84084285D01*
X142988571Y-84027142D01*
X142817142Y-83912857D01*
X142588571Y-83855714D01*
X142131428Y-83855714D01*
X142017142Y-83912857D01*
X141960000Y-83970000D01*
X141902857Y-84084285D01*
X141902857Y-84312857D01*
X141960000Y-84427142D01*
X142017142Y-84484285D01*
X142131428Y-84541428D01*
X142417142Y-84541428D01*
X142531428Y-84484285D01*
X142588571Y-84427142D01*
X142645714Y-84312857D01*
X142645714Y-84084285D01*
X142588571Y-83970000D01*
X142531428Y-83912857D01*
X142417142Y-83855714D01*
X141845714Y-82484285D02*
X143388571Y-83512857D01*
X142474285Y-81684285D02*
X142474285Y-82084285D01*
X143102857Y-82084285D02*
X141902857Y-82084285D01*
X141902857Y-81512857D01*
X142474285Y-80655714D02*
X142474285Y-81055714D01*
X143102857Y-81055714D02*
X141902857Y-81055714D01*
X141902857Y-80484285D01*
X142988571Y-79341428D02*
X143045714Y-79398571D01*
X143102857Y-79570000D01*
X143102857Y-79684285D01*
X143045714Y-79855714D01*
X142931428Y-79970000D01*
X142817142Y-80027142D01*
X142588571Y-80084285D01*
X142417142Y-80084285D01*
X142188571Y-80027142D01*
X142074285Y-79970000D01*
X141960000Y-79855714D01*
X141902857Y-79684285D01*
X141902857Y-79570000D01*
X141960000Y-79398571D01*
X142017142Y-79341428D01*
X143102857Y-78827142D02*
X141902857Y-78827142D01*
X142360000Y-78827142D02*
X142302857Y-78712857D01*
X142302857Y-78484285D01*
X142360000Y-78370000D01*
X142417142Y-78312857D01*
X142531428Y-78255714D01*
X142874285Y-78255714D01*
X142988571Y-78312857D01*
X143045714Y-78370000D01*
X143102857Y-78484285D01*
X143102857Y-78712857D01*
X143045714Y-78827142D01*
X143102857Y-77741428D02*
X142302857Y-77741428D01*
X142531428Y-77741428D02*
X142417142Y-77684285D01*
X142360000Y-77627142D01*
X142302857Y-77512857D01*
X142302857Y-77398571D01*
X143045714Y-76541428D02*
X143102857Y-76655714D01*
X143102857Y-76884285D01*
X143045714Y-76998571D01*
X142931428Y-77055714D01*
X142474285Y-77055714D01*
X142360000Y-76998571D01*
X142302857Y-76884285D01*
X142302857Y-76655714D01*
X142360000Y-76541428D01*
X142474285Y-76484285D01*
X142588571Y-76484285D01*
X142702857Y-77055714D01*
X143102857Y-75455714D02*
X142474285Y-75455714D01*
X142360000Y-75512857D01*
X142302857Y-75627142D01*
X142302857Y-75855714D01*
X142360000Y-75970000D01*
X143045714Y-75455714D02*
X143102857Y-75570000D01*
X143102857Y-75855714D01*
X143045714Y-75970000D01*
X142931428Y-76027142D01*
X142817142Y-76027142D01*
X142702857Y-75970000D01*
X142645714Y-75855714D01*
X142645714Y-75570000D01*
X142588571Y-75455714D01*
X143102857Y-74884285D02*
X141902857Y-74884285D01*
X142645714Y-74770000D02*
X143102857Y-74427142D01*
X142302857Y-74427142D02*
X142760000Y-74884285D01*
X120141428Y-101840000D02*
X120027142Y-101782857D01*
X119855714Y-101782857D01*
X119684285Y-101840000D01*
X119570000Y-101954285D01*
X119512857Y-102068571D01*
X119455714Y-102297142D01*
X119455714Y-102468571D01*
X119512857Y-102697142D01*
X119570000Y-102811428D01*
X119684285Y-102925714D01*
X119855714Y-102982857D01*
X119970000Y-102982857D01*
X120141428Y-102925714D01*
X120198571Y-102868571D01*
X120198571Y-102468571D01*
X119970000Y-102468571D01*
X120712857Y-102982857D02*
X120712857Y-101782857D01*
X121398571Y-102982857D01*
X121398571Y-101782857D01*
X121970000Y-102982857D02*
X121970000Y-101782857D01*
X122255714Y-101782857D01*
X122427142Y-101840000D01*
X122541428Y-101954285D01*
X122598571Y-102068571D01*
X122655714Y-102297142D01*
X122655714Y-102468571D01*
X122598571Y-102697142D01*
X122541428Y-102811428D01*
X122427142Y-102925714D01*
X122255714Y-102982857D01*
X121970000Y-102982857D01*
X123112857Y-102640000D02*
X123684285Y-102640000D01*
X122998571Y-102982857D02*
X123398571Y-101782857D01*
X123798571Y-102982857D01*
X103971428Y-101790000D02*
X103857142Y-101732857D01*
X103685714Y-101732857D01*
X103514285Y-101790000D01*
X103400000Y-101904285D01*
X103342857Y-102018571D01*
X103285714Y-102247142D01*
X103285714Y-102418571D01*
X103342857Y-102647142D01*
X103400000Y-102761428D01*
X103514285Y-102875714D01*
X103685714Y-102932857D01*
X103800000Y-102932857D01*
X103971428Y-102875714D01*
X104028571Y-102818571D01*
X104028571Y-102418571D01*
X103800000Y-102418571D01*
X104542857Y-102932857D02*
X104542857Y-101732857D01*
X105228571Y-102932857D01*
X105228571Y-101732857D01*
X105800000Y-102932857D02*
X105800000Y-101732857D01*
X106085714Y-101732857D01*
X106257142Y-101790000D01*
X106371428Y-101904285D01*
X106428571Y-102018571D01*
X106485714Y-102247142D01*
X106485714Y-102418571D01*
X106428571Y-102647142D01*
X106371428Y-102761428D01*
X106257142Y-102875714D01*
X106085714Y-102932857D01*
X105800000Y-102932857D01*
X106942857Y-102590000D02*
X107514285Y-102590000D01*
X106828571Y-102932857D02*
X107228571Y-101732857D01*
X107628571Y-102932857D01*
X110817142Y-102832857D02*
X111502857Y-102832857D01*
X111160000Y-104032857D02*
X111160000Y-102832857D01*
X111902857Y-104032857D02*
X111902857Y-102832857D01*
X111902857Y-103404285D02*
X112588571Y-103404285D01*
X112588571Y-104032857D02*
X112588571Y-102832857D01*
X113788571Y-104032857D02*
X113102857Y-104032857D01*
X113445714Y-104032857D02*
X113445714Y-102832857D01*
X113331428Y-103004285D01*
X113217142Y-103118571D01*
X113102857Y-103175714D01*
X115160000Y-102775714D02*
X114131428Y-104318571D01*
X115502857Y-102947142D02*
X115560000Y-102890000D01*
X115674285Y-102832857D01*
X115960000Y-102832857D01*
X116074285Y-102890000D01*
X116131428Y-102947142D01*
X116188571Y-103061428D01*
X116188571Y-103175714D01*
X116131428Y-103347142D01*
X115445714Y-104032857D01*
X116188571Y-104032857D01*
X110175714Y-93252857D02*
X110175714Y-92052857D01*
X110861428Y-93252857D01*
X110861428Y-92052857D01*
X112061428Y-93252857D02*
X111375714Y-93252857D01*
X111718571Y-93252857D02*
X111718571Y-92052857D01*
X111604285Y-92224285D01*
X111490000Y-92338571D01*
X111375714Y-92395714D01*
X100294285Y-93252857D02*
X100294285Y-92052857D01*
X100980000Y-93252857D01*
X100980000Y-92052857D01*
X102180000Y-93252857D02*
X101494285Y-93252857D01*
X101837142Y-93252857D02*
X101837142Y-92052857D01*
X101722857Y-92224285D01*
X101608571Y-92338571D01*
X101494285Y-92395714D01*
X103208571Y-92052857D02*
X102980000Y-92052857D01*
X102865714Y-92110000D01*
X102808571Y-92167142D01*
X102694285Y-92338571D01*
X102637142Y-92567142D01*
X102637142Y-93024285D01*
X102694285Y-93138571D01*
X102751428Y-93195714D01*
X102865714Y-93252857D01*
X103094285Y-93252857D01*
X103208571Y-93195714D01*
X103265714Y-93138571D01*
X103322857Y-93024285D01*
X103322857Y-92738571D01*
X103265714Y-92624285D01*
X103208571Y-92567142D01*
X103094285Y-92510000D01*
X102865714Y-92510000D01*
X102751428Y-92567142D01*
X102694285Y-92624285D01*
X102637142Y-92738571D01*
X101325714Y-75472857D02*
X101325714Y-74272857D01*
X102011428Y-75472857D01*
X102011428Y-74272857D01*
X102640000Y-75472857D02*
X102868571Y-75472857D01*
X102982857Y-75415714D01*
X103040000Y-75358571D01*
X103154285Y-75187142D01*
X103211428Y-74958571D01*
X103211428Y-74501428D01*
X103154285Y-74387142D01*
X103097142Y-74330000D01*
X102982857Y-74272857D01*
X102754285Y-74272857D01*
X102640000Y-74330000D01*
X102582857Y-74387142D01*
X102525714Y-74501428D01*
X102525714Y-74787142D01*
X102582857Y-74901428D01*
X102640000Y-74958571D01*
X102754285Y-75015714D01*
X102982857Y-75015714D01*
X103097142Y-74958571D01*
X103154285Y-74901428D01*
X103211428Y-74787142D01*
X110085714Y-75472857D02*
X110085714Y-74272857D01*
X110771428Y-75472857D01*
X110771428Y-74272857D01*
X111514285Y-74787142D02*
X111400000Y-74730000D01*
X111342857Y-74672857D01*
X111285714Y-74558571D01*
X111285714Y-74501428D01*
X111342857Y-74387142D01*
X111400000Y-74330000D01*
X111514285Y-74272857D01*
X111742857Y-74272857D01*
X111857142Y-74330000D01*
X111914285Y-74387142D01*
X111971428Y-74501428D01*
X111971428Y-74558571D01*
X111914285Y-74672857D01*
X111857142Y-74730000D01*
X111742857Y-74787142D01*
X111514285Y-74787142D01*
X111400000Y-74844285D01*
X111342857Y-74901428D01*
X111285714Y-75015714D01*
X111285714Y-75244285D01*
X111342857Y-75358571D01*
X111400000Y-75415714D01*
X111514285Y-75472857D01*
X111742857Y-75472857D01*
X111857142Y-75415714D01*
X111914285Y-75358571D01*
X111971428Y-75244285D01*
X111971428Y-75015714D01*
X111914285Y-74901428D01*
X111857142Y-74844285D01*
X111742857Y-74787142D01*
X123684285Y-93195714D02*
X123855714Y-93252857D01*
X124141428Y-93252857D01*
X124255714Y-93195714D01*
X124312857Y-93138571D01*
X124370000Y-93024285D01*
X124370000Y-92910000D01*
X124312857Y-92795714D01*
X124255714Y-92738571D01*
X124141428Y-92681428D01*
X123912857Y-92624285D01*
X123798571Y-92567142D01*
X123741428Y-92510000D01*
X123684285Y-92395714D01*
X123684285Y-92281428D01*
X123741428Y-92167142D01*
X123798571Y-92110000D01*
X123912857Y-92052857D01*
X124198571Y-92052857D01*
X124370000Y-92110000D01*
X125512857Y-93252857D02*
X124827142Y-93252857D01*
X125170000Y-93252857D02*
X125170000Y-92052857D01*
X125055714Y-92224285D01*
X124941428Y-92338571D01*
X124827142Y-92395714D01*
X126541428Y-92052857D02*
X126312857Y-92052857D01*
X126198571Y-92110000D01*
X126141428Y-92167142D01*
X126027142Y-92338571D01*
X125970000Y-92567142D01*
X125970000Y-93024285D01*
X126027142Y-93138571D01*
X126084285Y-93195714D01*
X126198571Y-93252857D01*
X126427142Y-93252857D01*
X126541428Y-93195714D01*
X126598571Y-93138571D01*
X126655714Y-93024285D01*
X126655714Y-92738571D01*
X126598571Y-92624285D01*
X126541428Y-92567142D01*
X126427142Y-92510000D01*
X126198571Y-92510000D01*
X126084285Y-92567142D01*
X126027142Y-92624285D01*
X125970000Y-92738571D01*
X124375714Y-75415714D02*
X124547142Y-75472857D01*
X124832857Y-75472857D01*
X124947142Y-75415714D01*
X125004285Y-75358571D01*
X125061428Y-75244285D01*
X125061428Y-75130000D01*
X125004285Y-75015714D01*
X124947142Y-74958571D01*
X124832857Y-74901428D01*
X124604285Y-74844285D01*
X124490000Y-74787142D01*
X124432857Y-74730000D01*
X124375714Y-74615714D01*
X124375714Y-74501428D01*
X124432857Y-74387142D01*
X124490000Y-74330000D01*
X124604285Y-74272857D01*
X124890000Y-74272857D01*
X125061428Y-74330000D01*
X125632857Y-75472857D02*
X125861428Y-75472857D01*
X125975714Y-75415714D01*
X126032857Y-75358571D01*
X126147142Y-75187142D01*
X126204285Y-74958571D01*
X126204285Y-74501428D01*
X126147142Y-74387142D01*
X126090000Y-74330000D01*
X125975714Y-74272857D01*
X125747142Y-74272857D01*
X125632857Y-74330000D01*
X125575714Y-74387142D01*
X125518571Y-74501428D01*
X125518571Y-74787142D01*
X125575714Y-74901428D01*
X125632857Y-74958571D01*
X125747142Y-75015714D01*
X125975714Y-75015714D01*
X126090000Y-74958571D01*
X126147142Y-74901428D01*
X126204285Y-74787142D01*
X115265714Y-75415714D02*
X115437142Y-75472857D01*
X115722857Y-75472857D01*
X115837142Y-75415714D01*
X115894285Y-75358571D01*
X115951428Y-75244285D01*
X115951428Y-75130000D01*
X115894285Y-75015714D01*
X115837142Y-74958571D01*
X115722857Y-74901428D01*
X115494285Y-74844285D01*
X115380000Y-74787142D01*
X115322857Y-74730000D01*
X115265714Y-74615714D01*
X115265714Y-74501428D01*
X115322857Y-74387142D01*
X115380000Y-74330000D01*
X115494285Y-74272857D01*
X115780000Y-74272857D01*
X115951428Y-74330000D01*
X116637142Y-74787142D02*
X116522857Y-74730000D01*
X116465714Y-74672857D01*
X116408571Y-74558571D01*
X116408571Y-74501428D01*
X116465714Y-74387142D01*
X116522857Y-74330000D01*
X116637142Y-74272857D01*
X116865714Y-74272857D01*
X116980000Y-74330000D01*
X117037142Y-74387142D01*
X117094285Y-74501428D01*
X117094285Y-74558571D01*
X117037142Y-74672857D01*
X116980000Y-74730000D01*
X116865714Y-74787142D01*
X116637142Y-74787142D01*
X116522857Y-74844285D01*
X116465714Y-74901428D01*
X116408571Y-75015714D01*
X116408571Y-75244285D01*
X116465714Y-75358571D01*
X116522857Y-75415714D01*
X116637142Y-75472857D01*
X116865714Y-75472857D01*
X116980000Y-75415714D01*
X117037142Y-75358571D01*
X117094285Y-75244285D01*
X117094285Y-75015714D01*
X117037142Y-74901428D01*
X116980000Y-74844285D01*
X116865714Y-74787142D01*
X114997142Y-93317142D02*
X115211428Y-93388571D01*
X115568571Y-93388571D01*
X115711428Y-93317142D01*
X115782857Y-93245714D01*
X115854285Y-93102857D01*
X115854285Y-92960000D01*
X115782857Y-92817142D01*
X115711428Y-92745714D01*
X115568571Y-92674285D01*
X115282857Y-92602857D01*
X115140000Y-92531428D01*
X115068571Y-92460000D01*
X114997142Y-92317142D01*
X114997142Y-92174285D01*
X115068571Y-92031428D01*
X115140000Y-91960000D01*
X115282857Y-91888571D01*
X115640000Y-91888571D01*
X115854285Y-91960000D01*
X117282857Y-93388571D02*
X116425714Y-93388571D01*
X116854285Y-93388571D02*
X116854285Y-91888571D01*
X116711428Y-92102857D01*
X116568571Y-92245714D01*
X116425714Y-92317142D01*
X129135714Y-75472857D02*
X129135714Y-74272857D01*
X129821428Y-75472857D01*
X129821428Y-74272857D01*
X130450000Y-75472857D02*
X130678571Y-75472857D01*
X130792857Y-75415714D01*
X130850000Y-75358571D01*
X130964285Y-75187142D01*
X131021428Y-74958571D01*
X131021428Y-74501428D01*
X130964285Y-74387142D01*
X130907142Y-74330000D01*
X130792857Y-74272857D01*
X130564285Y-74272857D01*
X130450000Y-74330000D01*
X130392857Y-74387142D01*
X130335714Y-74501428D01*
X130335714Y-74787142D01*
X130392857Y-74901428D01*
X130450000Y-74958571D01*
X130564285Y-75015714D01*
X130792857Y-75015714D01*
X130907142Y-74958571D01*
X130964285Y-74901428D01*
X131021428Y-74787142D01*
X128034285Y-93252857D02*
X128034285Y-92052857D01*
X128720000Y-93252857D01*
X128720000Y-92052857D01*
X129920000Y-93252857D02*
X129234285Y-93252857D01*
X129577142Y-93252857D02*
X129577142Y-92052857D01*
X129462857Y-92224285D01*
X129348571Y-92338571D01*
X129234285Y-92395714D01*
X130948571Y-92052857D02*
X130720000Y-92052857D01*
X130605714Y-92110000D01*
X130548571Y-92167142D01*
X130434285Y-92338571D01*
X130377142Y-92567142D01*
X130377142Y-93024285D01*
X130434285Y-93138571D01*
X130491428Y-93195714D01*
X130605714Y-93252857D01*
X130834285Y-93252857D01*
X130948571Y-93195714D01*
X131005714Y-93138571D01*
X131062857Y-93024285D01*
X131062857Y-92738571D01*
X131005714Y-92624285D01*
X130948571Y-92567142D01*
X130834285Y-92510000D01*
X130605714Y-92510000D01*
X130491428Y-92567142D01*
X130434285Y-92624285D01*
X130377142Y-92738571D01*
X138195714Y-93195714D02*
X138367142Y-93252857D01*
X138652857Y-93252857D01*
X138767142Y-93195714D01*
X138824285Y-93138571D01*
X138881428Y-93024285D01*
X138881428Y-92910000D01*
X138824285Y-92795714D01*
X138767142Y-92738571D01*
X138652857Y-92681428D01*
X138424285Y-92624285D01*
X138310000Y-92567142D01*
X138252857Y-92510000D01*
X138195714Y-92395714D01*
X138195714Y-92281428D01*
X138252857Y-92167142D01*
X138310000Y-92110000D01*
X138424285Y-92052857D01*
X138710000Y-92052857D01*
X138881428Y-92110000D01*
X139567142Y-92567142D02*
X139452857Y-92510000D01*
X139395714Y-92452857D01*
X139338571Y-92338571D01*
X139338571Y-92281428D01*
X139395714Y-92167142D01*
X139452857Y-92110000D01*
X139567142Y-92052857D01*
X139795714Y-92052857D01*
X139910000Y-92110000D01*
X139967142Y-92167142D01*
X140024285Y-92281428D01*
X140024285Y-92338571D01*
X139967142Y-92452857D01*
X139910000Y-92510000D01*
X139795714Y-92567142D01*
X139567142Y-92567142D01*
X139452857Y-92624285D01*
X139395714Y-92681428D01*
X139338571Y-92795714D01*
X139338571Y-93024285D01*
X139395714Y-93138571D01*
X139452857Y-93195714D01*
X139567142Y-93252857D01*
X139795714Y-93252857D01*
X139910000Y-93195714D01*
X139967142Y-93138571D01*
X140024285Y-93024285D01*
X140024285Y-92795714D01*
X139967142Y-92681428D01*
X139910000Y-92624285D01*
X139795714Y-92567142D01*
X138085714Y-75415714D02*
X138257142Y-75472857D01*
X138542857Y-75472857D01*
X138657142Y-75415714D01*
X138714285Y-75358571D01*
X138771428Y-75244285D01*
X138771428Y-75130000D01*
X138714285Y-75015714D01*
X138657142Y-74958571D01*
X138542857Y-74901428D01*
X138314285Y-74844285D01*
X138200000Y-74787142D01*
X138142857Y-74730000D01*
X138085714Y-74615714D01*
X138085714Y-74501428D01*
X138142857Y-74387142D01*
X138200000Y-74330000D01*
X138314285Y-74272857D01*
X138600000Y-74272857D01*
X138771428Y-74330000D01*
X139914285Y-75472857D02*
X139228571Y-75472857D01*
X139571428Y-75472857D02*
X139571428Y-74272857D01*
X139457142Y-74444285D01*
X139342857Y-74558571D01*
X139228571Y-74615714D01*
X132182857Y-68668571D02*
X132682857Y-70168571D01*
X133182857Y-68668571D01*
X134540000Y-70025714D02*
X134468571Y-70097142D01*
X134254285Y-70168571D01*
X134111428Y-70168571D01*
X133897142Y-70097142D01*
X133754285Y-69954285D01*
X133682857Y-69811428D01*
X133611428Y-69525714D01*
X133611428Y-69311428D01*
X133682857Y-69025714D01*
X133754285Y-68882857D01*
X133897142Y-68740000D01*
X134111428Y-68668571D01*
X134254285Y-68668571D01*
X134468571Y-68740000D01*
X134540000Y-68811428D01*
X136040000Y-70025714D02*
X135968571Y-70097142D01*
X135754285Y-70168571D01*
X135611428Y-70168571D01*
X135397142Y-70097142D01*
X135254285Y-69954285D01*
X135182857Y-69811428D01*
X135111428Y-69525714D01*
X135111428Y-69311428D01*
X135182857Y-69025714D01*
X135254285Y-68882857D01*
X135397142Y-68740000D01*
X135611428Y-68668571D01*
X135754285Y-68668571D01*
X135968571Y-68740000D01*
X136040000Y-68811428D01*
X137397142Y-70168571D02*
X136682857Y-70168571D01*
X136682857Y-68668571D01*
X132790000Y-97530000D02*
X132647142Y-97458571D01*
X132432857Y-97458571D01*
X132218571Y-97530000D01*
X132075714Y-97672857D01*
X132004285Y-97815714D01*
X131932857Y-98101428D01*
X131932857Y-98315714D01*
X132004285Y-98601428D01*
X132075714Y-98744285D01*
X132218571Y-98887142D01*
X132432857Y-98958571D01*
X132575714Y-98958571D01*
X132790000Y-98887142D01*
X132861428Y-98815714D01*
X132861428Y-98315714D01*
X132575714Y-98315714D01*
X133504285Y-98958571D02*
X133504285Y-97458571D01*
X134361428Y-98958571D01*
X134361428Y-97458571D01*
X135075714Y-98958571D02*
X135075714Y-97458571D01*
X135432857Y-97458571D01*
X135647142Y-97530000D01*
X135790000Y-97672857D01*
X135861428Y-97815714D01*
X135932857Y-98101428D01*
X135932857Y-98315714D01*
X135861428Y-98601428D01*
X135790000Y-98744285D01*
X135647142Y-98887142D01*
X135432857Y-98958571D01*
X135075714Y-98958571D01*
X137290000Y-98958571D02*
X136575714Y-98958571D01*
X136575714Y-97458571D01*
X119014285Y-97530000D02*
X118871428Y-97458571D01*
X118657142Y-97458571D01*
X118442857Y-97530000D01*
X118300000Y-97672857D01*
X118228571Y-97815714D01*
X118157142Y-98101428D01*
X118157142Y-98315714D01*
X118228571Y-98601428D01*
X118300000Y-98744285D01*
X118442857Y-98887142D01*
X118657142Y-98958571D01*
X118800000Y-98958571D01*
X119014285Y-98887142D01*
X119085714Y-98815714D01*
X119085714Y-98315714D01*
X118800000Y-98315714D01*
X119728571Y-98958571D02*
X119728571Y-97458571D01*
X120585714Y-98958571D01*
X120585714Y-97458571D01*
X121300000Y-98958571D02*
X121300000Y-97458571D01*
X121657142Y-97458571D01*
X121871428Y-97530000D01*
X122014285Y-97672857D01*
X122085714Y-97815714D01*
X122157142Y-98101428D01*
X122157142Y-98315714D01*
X122085714Y-98601428D01*
X122014285Y-98744285D01*
X121871428Y-98887142D01*
X121657142Y-98958571D01*
X121300000Y-98958571D01*
X122728571Y-98530000D02*
X123442857Y-98530000D01*
X122585714Y-98958571D02*
X123085714Y-97458571D01*
X123585714Y-98958571D01*
X118904285Y-68740000D02*
X118761428Y-68668571D01*
X118547142Y-68668571D01*
X118332857Y-68740000D01*
X118190000Y-68882857D01*
X118118571Y-69025714D01*
X118047142Y-69311428D01*
X118047142Y-69525714D01*
X118118571Y-69811428D01*
X118190000Y-69954285D01*
X118332857Y-70097142D01*
X118547142Y-70168571D01*
X118690000Y-70168571D01*
X118904285Y-70097142D01*
X118975714Y-70025714D01*
X118975714Y-69525714D01*
X118690000Y-69525714D01*
X119618571Y-70168571D02*
X119618571Y-68668571D01*
X120475714Y-70168571D01*
X120475714Y-68668571D01*
X121190000Y-70168571D02*
X121190000Y-68668571D01*
X121547142Y-68668571D01*
X121761428Y-68740000D01*
X121904285Y-68882857D01*
X121975714Y-69025714D01*
X122047142Y-69311428D01*
X122047142Y-69525714D01*
X121975714Y-69811428D01*
X121904285Y-69954285D01*
X121761428Y-70097142D01*
X121547142Y-70168571D01*
X121190000Y-70168571D01*
X122618571Y-69740000D02*
X123332857Y-69740000D01*
X122475714Y-70168571D02*
X122975714Y-68668571D01*
X123475714Y-70168571D01*
X104794285Y-68740000D02*
X104651428Y-68668571D01*
X104437142Y-68668571D01*
X104222857Y-68740000D01*
X104080000Y-68882857D01*
X104008571Y-69025714D01*
X103937142Y-69311428D01*
X103937142Y-69525714D01*
X104008571Y-69811428D01*
X104080000Y-69954285D01*
X104222857Y-70097142D01*
X104437142Y-70168571D01*
X104580000Y-70168571D01*
X104794285Y-70097142D01*
X104865714Y-70025714D01*
X104865714Y-69525714D01*
X104580000Y-69525714D01*
X105508571Y-70168571D02*
X105508571Y-68668571D01*
X106365714Y-70168571D01*
X106365714Y-68668571D01*
X107080000Y-70168571D02*
X107080000Y-68668571D01*
X107437142Y-68668571D01*
X107651428Y-68740000D01*
X107794285Y-68882857D01*
X107865714Y-69025714D01*
X107937142Y-69311428D01*
X107937142Y-69525714D01*
X107865714Y-69811428D01*
X107794285Y-69954285D01*
X107651428Y-70097142D01*
X107437142Y-70168571D01*
X107080000Y-70168571D01*
X108508571Y-69740000D02*
X109222857Y-69740000D01*
X108365714Y-70168571D02*
X108865714Y-68668571D01*
X109365714Y-70168571D01*
X104884285Y-97530000D02*
X104741428Y-97458571D01*
X104527142Y-97458571D01*
X104312857Y-97530000D01*
X104170000Y-97672857D01*
X104098571Y-97815714D01*
X104027142Y-98101428D01*
X104027142Y-98315714D01*
X104098571Y-98601428D01*
X104170000Y-98744285D01*
X104312857Y-98887142D01*
X104527142Y-98958571D01*
X104670000Y-98958571D01*
X104884285Y-98887142D01*
X104955714Y-98815714D01*
X104955714Y-98315714D01*
X104670000Y-98315714D01*
X105598571Y-98958571D02*
X105598571Y-97458571D01*
X106455714Y-98958571D01*
X106455714Y-97458571D01*
X107170000Y-98958571D02*
X107170000Y-97458571D01*
X107527142Y-97458571D01*
X107741428Y-97530000D01*
X107884285Y-97672857D01*
X107955714Y-97815714D01*
X108027142Y-98101428D01*
X108027142Y-98315714D01*
X107955714Y-98601428D01*
X107884285Y-98744285D01*
X107741428Y-98887142D01*
X107527142Y-98958571D01*
X107170000Y-98958571D01*
X108598571Y-98530000D02*
X109312857Y-98530000D01*
X108455714Y-98958571D02*
X108955714Y-97458571D01*
X109455714Y-98958571D01*
D11*
G04 #@! TO.C,J1*
X105250000Y-64825000D02*
X105250000Y-65625000D01*
X135250000Y-64825000D02*
X135250000Y-65625000D01*
X102250000Y-64825000D02*
X105250000Y-64825000D01*
X138250000Y-64825000D02*
X135250000Y-64825000D01*
X102250000Y-59975000D02*
X102250000Y-64825000D01*
X138250000Y-59975000D02*
X138250000Y-64825000D01*
X138250000Y-59975000D02*
X102250000Y-59975000D01*
X135250000Y-65625000D02*
X105250000Y-65625000D01*
G04 #@! TO.C,J2*
X134560000Y-96580000D02*
X137220000Y-96580000D01*
X134560000Y-73660000D02*
X134560000Y-96580000D01*
X137220000Y-73660000D02*
X137220000Y-96580000D01*
X134560000Y-73660000D02*
X137220000Y-73660000D01*
X134560000Y-72390000D02*
X134560000Y-71060000D01*
X134560000Y-71060000D02*
X135890000Y-71060000D01*
G04 #@! TO.C,J3*
X132020000Y-71060000D02*
X133350000Y-71060000D01*
X132020000Y-72390000D02*
X132020000Y-71060000D01*
X132020000Y-73660000D02*
X134680000Y-73660000D01*
X134680000Y-73660000D02*
X134680000Y-96580000D01*
X132020000Y-73660000D02*
X132020000Y-96580000D01*
X132020000Y-96580000D02*
X134680000Y-96580000D01*
G04 #@! TO.C,J4*
X118050000Y-96580000D02*
X120710000Y-96580000D01*
X118050000Y-73660000D02*
X118050000Y-96580000D01*
X120710000Y-73660000D02*
X120710000Y-96580000D01*
X118050000Y-73660000D02*
X120710000Y-73660000D01*
X118050000Y-72390000D02*
X118050000Y-71060000D01*
X118050000Y-71060000D02*
X119380000Y-71060000D01*
G04 #@! TO.C,J5*
X120590000Y-71060000D02*
X121920000Y-71060000D01*
X120590000Y-72390000D02*
X120590000Y-71060000D01*
X120590000Y-73660000D02*
X123250000Y-73660000D01*
X123250000Y-73660000D02*
X123250000Y-96580000D01*
X120590000Y-73660000D02*
X120590000Y-96580000D01*
X120590000Y-96580000D02*
X123250000Y-96580000D01*
G04 #@! TO.C,J6*
X109280000Y-71060000D02*
X106620000Y-71060000D01*
X109280000Y-93980000D02*
X109280000Y-71060000D01*
X106620000Y-93980000D02*
X106620000Y-71060000D01*
X109280000Y-93980000D02*
X106620000Y-93980000D01*
X109280000Y-95250000D02*
X109280000Y-96580000D01*
X109280000Y-96580000D02*
X107950000Y-96580000D01*
G04 #@! TO.C,J7*
X106740000Y-96580000D02*
X105410000Y-96580000D01*
X106740000Y-95250000D02*
X106740000Y-96580000D01*
X106740000Y-93980000D02*
X104080000Y-93980000D01*
X104080000Y-93980000D02*
X104080000Y-71060000D01*
X106740000Y-93980000D02*
X106740000Y-71060000D01*
X106740000Y-71060000D02*
X104080000Y-71060000D01*
G04 #@! TO.C,J8*
X118670000Y-102414000D02*
X118670000Y-99754000D01*
X110990000Y-102414000D02*
X118670000Y-102414000D01*
X110990000Y-99754000D02*
X118670000Y-99754000D01*
X110990000Y-102414000D02*
X110990000Y-99754000D01*
X109720000Y-102414000D02*
X108390000Y-102414000D01*
X108390000Y-102414000D02*
X108390000Y-101084000D01*
G04 #@! TD*
M02*
