M48
; DRILL file {KiCad (5.1.6-0-10_14)} date Friday, August 07, 2020 at 02:37:44 PM
; FORMAT={-:-/ absolute / inch / decimal}
; #@! TF.CreationDate,2020-08-07T14:37:44+09:00
; #@! TF.GenerationSoftware,Kicad,Pcbnew,(5.1.6-0-10_14)
FMAT,2
INCH
T1C0.0394
T2C0.0472
%
G90
G05
T1
X6.3173Y-3.887
X6.3173Y-3.987
X6.4173Y-3.887
X6.4173Y-3.987
X6.5354Y-3.737
X6.5354Y-3.837
X6.5354Y-3.937
X6.5354Y-4.037
X6.5354Y-4.137
X6.6354Y-3.737
X6.6354Y-3.837
X6.6354Y-3.937
X6.6354Y-4.037
X6.6354Y-4.137
T2
X6.0039Y-4.2126
X6.0039Y-4.3504
X6.2402Y-4.1929
X6.378Y-4.1929
X6.0039Y-3.5236
X6.0039Y-3.6614
X6.2402Y-3.6811
X6.378Y-3.6811
T0
M30
