G04 #@! TF.GenerationSoftware,KiCad,Pcbnew,(5.1.6-0-10_14)*
G04 #@! TF.CreationDate,2021-04-27T13:26:49+09:00*
G04 #@! TF.ProjectId,qPCR-photosensing,71504352-2d70-4686-9f74-6f73656e7369,rev?*
G04 #@! TF.SameCoordinates,Original*
G04 #@! TF.FileFunction,Copper,L2,Bot*
G04 #@! TF.FilePolarity,Positive*
%FSLAX46Y46*%
G04 Gerber Fmt 4.6, Leading zero omitted, Abs format (unit mm)*
G04 Created by KiCad (PCBNEW (5.1.6-0-10_14)) date 2021-04-27 13:26:49*
%MOMM*%
%LPD*%
G01*
G04 APERTURE LIST*
G04 #@! TA.AperFunction,ComponentPad*
%ADD10O,1.700000X1.700000*%
G04 #@! TD*
G04 #@! TA.AperFunction,ComponentPad*
%ADD11R,1.700000X1.700000*%
G04 #@! TD*
G04 #@! TA.AperFunction,ViaPad*
%ADD12C,0.508000*%
G04 #@! TD*
G04 #@! TA.AperFunction,ViaPad*
%ADD13C,0.800000*%
G04 #@! TD*
G04 #@! TA.AperFunction,Conductor*
%ADD14C,1.524000*%
G04 #@! TD*
G04 #@! TA.AperFunction,Conductor*
%ADD15C,0.250000*%
G04 #@! TD*
G04 #@! TA.AperFunction,Conductor*
%ADD16C,1.016000*%
G04 #@! TD*
G04 #@! TA.AperFunction,Conductor*
%ADD17C,0.508000*%
G04 #@! TD*
G04 #@! TA.AperFunction,Conductor*
%ADD18C,0.254000*%
G04 #@! TD*
G04 APERTURE END LIST*
D10*
X86730000Y-69980000D03*
X86730000Y-72520000D03*
X86730000Y-75060000D03*
X86730000Y-77600000D03*
X86730000Y-80140000D03*
X86730000Y-82680000D03*
X86730000Y-85220000D03*
X86730000Y-87760000D03*
X86730000Y-90300000D03*
X86730000Y-92840000D03*
X86730000Y-95380000D03*
X86730000Y-97920000D03*
X86730000Y-100460000D03*
D11*
X86730000Y-103000000D03*
X110980000Y-110130000D03*
D10*
X113520000Y-110130000D03*
X86360000Y-110000000D03*
X86360000Y-107460000D03*
X88900000Y-110000000D03*
D11*
X88900000Y-107460000D03*
D10*
X111200000Y-93360000D03*
X111200000Y-90820000D03*
X111200000Y-88280000D03*
X111200000Y-85740000D03*
D11*
X111200000Y-83200000D03*
D10*
X111200000Y-79040000D03*
D11*
X111200000Y-76500000D03*
D10*
X111200000Y-105420000D03*
X111200000Y-102880000D03*
X111200000Y-100340000D03*
D11*
X111200000Y-97800000D03*
D10*
X103298000Y-110000000D03*
X100758000Y-110000000D03*
X98218000Y-110000000D03*
X95678000Y-110000000D03*
D11*
X93138000Y-110000000D03*
X103298000Y-64440000D03*
D10*
X100758000Y-64440000D03*
X98218000Y-64440000D03*
X95678000Y-64440000D03*
X93138000Y-64440000D03*
D11*
X105900000Y-110130000D03*
D10*
X108440000Y-110130000D03*
X111200000Y-72620000D03*
X111200000Y-70080000D03*
X111200000Y-67540000D03*
D11*
X111200000Y-65000000D03*
D12*
X90270000Y-63020000D03*
X88890000Y-64370000D03*
X83880000Y-63360000D03*
X86900000Y-63390000D03*
X84000000Y-66340000D03*
X86360000Y-66340000D03*
X85650000Y-64980000D03*
X83950000Y-78880000D03*
X85220000Y-92310000D03*
X83850000Y-90460000D03*
X83690000Y-84990000D03*
X83800000Y-81840000D03*
X83780000Y-87680000D03*
X83920000Y-94390000D03*
X85650000Y-94160000D03*
X85580000Y-96580000D03*
X85530000Y-99120000D03*
X85440000Y-101500000D03*
X85270000Y-104610000D03*
X85440000Y-106080000D03*
X85270000Y-108680000D03*
X85100000Y-111250000D03*
X84050000Y-110050000D03*
X83990000Y-107240000D03*
X84020000Y-103550000D03*
X83990000Y-100730000D03*
X84050000Y-97860000D03*
X90570000Y-111180000D03*
X91070000Y-109930000D03*
X94560000Y-111180000D03*
X96920000Y-111020000D03*
X99490000Y-111060000D03*
X102030000Y-111010000D03*
X94463800Y-77536200D03*
D13*
X103555550Y-94623360D03*
D12*
X88400000Y-67700000D03*
X89200000Y-66900000D03*
X87800000Y-74000000D03*
X87800000Y-71300000D03*
X88300000Y-69400000D03*
X91200000Y-66700000D03*
X90400000Y-69200000D03*
X89200000Y-70500000D03*
X89100000Y-72500000D03*
X89600000Y-74500000D03*
X91600000Y-76000000D03*
X91100000Y-73800000D03*
X91100000Y-71700000D03*
X92400000Y-68200000D03*
X92200000Y-70300000D03*
X92600000Y-72600000D03*
X92900000Y-74500000D03*
X94700000Y-73000000D03*
X94500000Y-70900000D03*
X94200000Y-69000000D03*
X93900000Y-67000000D03*
X96100000Y-66800000D03*
X96500000Y-68400000D03*
X96600000Y-70300000D03*
X98800000Y-69000000D03*
X98800000Y-67400000D03*
X100200000Y-66200000D03*
X101500000Y-66300000D03*
X104900000Y-65200000D03*
X105100000Y-63300000D03*
X106800000Y-64500000D03*
X109000000Y-63400000D03*
X109200000Y-65400000D03*
X112600000Y-63500000D03*
X113200000Y-66200000D03*
X112900000Y-68800000D03*
X113600000Y-70600000D03*
X114300000Y-67300000D03*
X114100000Y-64900000D03*
X114000000Y-72700000D03*
X114100000Y-75500000D03*
X113600000Y-77000000D03*
X114100000Y-79900000D03*
X113500000Y-81500000D03*
X114000000Y-83300000D03*
X113700000Y-85200000D03*
X114200000Y-87000000D03*
X113300000Y-88400000D03*
X114200000Y-89700000D03*
X113400000Y-91100000D03*
X114300000Y-92800000D03*
X113300000Y-94200000D03*
X114100000Y-96000000D03*
X113300000Y-97800000D03*
X114100000Y-99800000D03*
X112200000Y-101500000D03*
X113800000Y-103000000D03*
X113500000Y-104500000D03*
X114000000Y-106400000D03*
X109000000Y-106400000D03*
X107200000Y-106500000D03*
X105800000Y-106500000D03*
X107800000Y-104800000D03*
X108100000Y-105700000D03*
X109100000Y-104600000D03*
X101800000Y-108500000D03*
X98200000Y-108600000D03*
X96500000Y-107700000D03*
X95100000Y-106400000D03*
X93700000Y-104800000D03*
X95000000Y-103300000D03*
X95900000Y-104700000D03*
X96700000Y-102700000D03*
X98400000Y-102300000D03*
X91100000Y-104000000D03*
X90300000Y-102500000D03*
X90300000Y-101000000D03*
X91400000Y-100100000D03*
X92100000Y-101300000D03*
X93700000Y-101400000D03*
X91900000Y-102500000D03*
X90200000Y-97800000D03*
X91100000Y-96600000D03*
X89400000Y-94800000D03*
X91300000Y-93500000D03*
X89400000Y-93000000D03*
X91200000Y-90900000D03*
X89300000Y-89000000D03*
X89900000Y-88000000D03*
X90100000Y-90900000D03*
X92400000Y-88100000D03*
X93600000Y-88300000D03*
X95900000Y-88000000D03*
X99300000Y-88000000D03*
X101500000Y-88000000D03*
X88100000Y-87100000D03*
X90000000Y-86100000D03*
X87900000Y-84100000D03*
X90000000Y-83300000D03*
X88500000Y-85600000D03*
X87300000Y-81400000D03*
X88600000Y-82000000D03*
X94100000Y-76300000D03*
X95900000Y-74600000D03*
X98200000Y-72300000D03*
X100300000Y-70100000D03*
X103100000Y-67400000D03*
X109500000Y-67500000D03*
X106300000Y-67500000D03*
X102800000Y-69600000D03*
X104100000Y-72200000D03*
X100400000Y-74200000D03*
X101800000Y-72200000D03*
X98100000Y-75600000D03*
X96300000Y-77200000D03*
X99500000Y-78100000D03*
X97100000Y-79600000D03*
X103900000Y-74200000D03*
X101500000Y-76400000D03*
X105900000Y-70000000D03*
X108300000Y-69400000D03*
X108700000Y-71800000D03*
X106700000Y-73500000D03*
X110100000Y-71400000D03*
X111000000Y-74500000D03*
X109600000Y-77200000D03*
X108600000Y-75200000D03*
X105900000Y-76400000D03*
X103500000Y-77900000D03*
X100200000Y-79900000D03*
X97800000Y-81800000D03*
X96800000Y-84400000D03*
X97400000Y-86300000D03*
X100100000Y-84600000D03*
X101800000Y-86200000D03*
X103900000Y-84400000D03*
X105600000Y-86300000D03*
X108100000Y-84400000D03*
X108200000Y-86600000D03*
X108200000Y-82500000D03*
X105000000Y-82600000D03*
X101400000Y-82700000D03*
X103200000Y-80700000D03*
X105900000Y-79500000D03*
X107800000Y-78100000D03*
X107400000Y-80900000D03*
X90100000Y-105300000D03*
D13*
X108036130Y-90236130D03*
X107374857Y-87499837D03*
D12*
X96623762Y-94100000D03*
D13*
X99600000Y-94100000D03*
X108500000Y-103700000D03*
X98000000Y-96100000D03*
X91230000Y-64890000D03*
X93000000Y-83500000D03*
D12*
X95600000Y-102500000D03*
D13*
X92900000Y-99700000D03*
X100152801Y-98192000D03*
X102800000Y-93600000D03*
X100900000Y-102600000D03*
X96519855Y-106846229D03*
X103300000Y-101800000D03*
X96900000Y-99300000D03*
X92800000Y-98600000D03*
X93582346Y-89382346D03*
X98605439Y-94954000D03*
X101505858Y-89049999D03*
X99800000Y-91100000D03*
D12*
X92300000Y-77400000D03*
D13*
X96800000Y-95900000D03*
D12*
X91300000Y-77400000D03*
D13*
X95700000Y-95900000D03*
X103451166Y-106491876D03*
X99480000Y-106210000D03*
D14*
X90598000Y-107460000D02*
X88900000Y-107460000D01*
X86730000Y-105148238D02*
X86730000Y-103000000D01*
X88900000Y-107318238D02*
X86730000Y-105148238D01*
X88900000Y-107460000D02*
X88900000Y-107318238D01*
D15*
X90240000Y-63020000D02*
X88890000Y-64370000D01*
X90270000Y-63020000D02*
X90240000Y-63020000D01*
X101726001Y-111313999D02*
X102030000Y-111010000D01*
X99743999Y-111313999D02*
X101726001Y-111313999D01*
X99490000Y-111060000D02*
X99743999Y-111313999D01*
X96760000Y-111180000D02*
X94560000Y-111180000D01*
X96920000Y-111020000D02*
X96760000Y-111180000D01*
X84040000Y-66380000D02*
X84000000Y-66340000D01*
X94318000Y-111180000D02*
X93138000Y-110000000D01*
X94560000Y-111180000D02*
X94318000Y-111180000D01*
D16*
X103555550Y-94623360D02*
X103555550Y-98883964D01*
X103555550Y-98883964D02*
X102255523Y-100183991D01*
X99503688Y-100183991D02*
X97403687Y-98083990D01*
X102255523Y-100183991D02*
X99503688Y-100183991D01*
X93995686Y-97375989D02*
X92296313Y-97375989D01*
X86730000Y-102942302D02*
X86730000Y-103000000D01*
X94703687Y-98083990D02*
X93995686Y-97375989D01*
X92296313Y-97375989D02*
X86730000Y-102942302D01*
X97403687Y-98083990D02*
X94703687Y-98083990D01*
D15*
X97173999Y-111273999D02*
X99276001Y-111273999D01*
X99276001Y-111273999D02*
X99490000Y-111060000D01*
X96920000Y-111020000D02*
X97173999Y-111273999D01*
X97300000Y-107700000D02*
X98200000Y-108600000D01*
X96500000Y-107700000D02*
X97300000Y-107700000D01*
X102053999Y-110986001D02*
X102030000Y-111010000D01*
X102053999Y-108753999D02*
X102053999Y-110986001D01*
X101800000Y-108500000D02*
X102053999Y-108753999D01*
X88000000Y-81400000D02*
X88600000Y-82000000D01*
X87300000Y-81400000D02*
X88000000Y-81400000D01*
D17*
X112504001Y-108605999D02*
X110980000Y-110130000D01*
X112504001Y-104184001D02*
X112504001Y-108605999D01*
X111200000Y-102880000D02*
X112504001Y-104184001D01*
D14*
X86588238Y-95380000D02*
X86730000Y-95380000D01*
X92180081Y-105300000D02*
X90100000Y-105300000D01*
X95678000Y-108797919D02*
X92180081Y-105300000D01*
X95678000Y-110000000D02*
X95678000Y-108797919D01*
D17*
X107374857Y-89574857D02*
X108036130Y-90236130D01*
X107374857Y-87499837D02*
X107374857Y-89574857D01*
X99600000Y-94100000D02*
X96623762Y-94100000D01*
X112504001Y-93978797D02*
X109187989Y-97294809D01*
X112504001Y-73924001D02*
X112504001Y-93978797D01*
X111200000Y-72620000D02*
X112504001Y-73924001D01*
X109187989Y-103012011D02*
X108500000Y-103700000D01*
X109187989Y-97294809D02*
X109187989Y-103012011D01*
D15*
X90027990Y-80140000D02*
X86730000Y-80140000D01*
X90587990Y-88733812D02*
X90587990Y-80700000D01*
X92199980Y-90345802D02*
X90587990Y-88733812D01*
X90587990Y-80700000D02*
X90027990Y-80140000D01*
X92199980Y-92404291D02*
X92199980Y-90345802D01*
X94700000Y-94904311D02*
X92199980Y-92404291D01*
X97474999Y-96625001D02*
X95351999Y-96625001D01*
X94700000Y-95973002D02*
X94700000Y-94904311D01*
X95351999Y-96625001D02*
X94700000Y-95973002D01*
X98000000Y-96100000D02*
X97474999Y-96625001D01*
X98218000Y-64440000D02*
X96592989Y-66065011D01*
X85554999Y-69415999D02*
X85554999Y-86584999D01*
X85554999Y-86584999D02*
X86730000Y-87760000D01*
X88905987Y-66065011D02*
X85554999Y-69415999D01*
X96592989Y-66065011D02*
X88905987Y-66065011D01*
X85104989Y-88674989D02*
X86730000Y-90300000D01*
X96242001Y-65615001D02*
X88719586Y-65615002D01*
X96853001Y-64065997D02*
X96853001Y-65004001D01*
X85104989Y-69229599D02*
X85104989Y-88674989D01*
X88719586Y-65615002D02*
X85104989Y-69229599D01*
X97653999Y-63264999D02*
X96853001Y-64065997D01*
X99582999Y-63264999D02*
X97653999Y-63264999D01*
X96853001Y-65004001D02*
X96242001Y-65615001D01*
X100758000Y-64440000D02*
X99582999Y-63264999D01*
X84654980Y-90764980D02*
X86730000Y-92840000D01*
X84654980Y-69043198D02*
X84654980Y-90764980D01*
X88533187Y-65164993D02*
X84654980Y-69043198D01*
X90955007Y-65164993D02*
X88533187Y-65164993D01*
X91230000Y-64890000D02*
X90955007Y-65164993D01*
X110900000Y-83500000D02*
X111200000Y-83200000D01*
X93000000Y-83500000D02*
X110900000Y-83500000D01*
X95600000Y-102400000D02*
X95600000Y-102500000D01*
X92900000Y-99700000D02*
X95600000Y-102400000D01*
D17*
X100152801Y-96247199D02*
X102800000Y-93600000D01*
X100152801Y-98192000D02*
X100152801Y-96247199D01*
X109895999Y-108674001D02*
X108440000Y-110130000D01*
X109895999Y-99104001D02*
X109895999Y-108674001D01*
X111200000Y-97800000D02*
X109895999Y-99104001D01*
X100900000Y-102600000D02*
X101299999Y-102999999D01*
X111200000Y-90820000D02*
X109661276Y-90820000D01*
X108308010Y-92173266D02*
X108308010Y-96554638D01*
X109661276Y-90820000D02*
X108308010Y-92173266D01*
X108246639Y-96554638D02*
X104262010Y-100539267D01*
X108308010Y-96554638D02*
X108246639Y-96554638D01*
X104262010Y-102198477D02*
X103460488Y-102999999D01*
X103460488Y-102999999D02*
X101299999Y-102999999D01*
X104262010Y-100539267D02*
X104262010Y-102198477D01*
X97604229Y-106846229D02*
X96519855Y-106846229D01*
X100758000Y-110000000D02*
X97604229Y-106846229D01*
X100900000Y-102600000D02*
X100010000Y-103490000D01*
X96608001Y-106758083D02*
X96519855Y-106846229D01*
X96608001Y-104360159D02*
X96608001Y-106758083D01*
X97478160Y-103490000D02*
X96608001Y-104360159D01*
X100010000Y-103490000D02*
X97478160Y-103490000D01*
D16*
X96900000Y-99300000D02*
X94200000Y-99300000D01*
D17*
X103300000Y-100500000D02*
X103300000Y-101800000D01*
X107600000Y-96200000D02*
X103300000Y-100500000D01*
X107600000Y-91880000D02*
X107600000Y-96200000D01*
X111200000Y-88280000D02*
X107600000Y-91880000D01*
D16*
X102900001Y-101400001D02*
X98900001Y-101400001D01*
X103300000Y-101800000D02*
X102900001Y-101400001D01*
X96900000Y-99400000D02*
X96900000Y-99300000D01*
X98900001Y-101400001D02*
X96900000Y-99400000D01*
X93491999Y-98591999D02*
X92800000Y-98591999D01*
X94200000Y-99300000D02*
X93491999Y-98591999D01*
D15*
X96658919Y-94954000D02*
X98605439Y-94954000D01*
X93582346Y-91877427D02*
X96658919Y-94954000D01*
X93582346Y-89382346D02*
X93582346Y-91877427D01*
X99800000Y-90755857D02*
X99800000Y-91100000D01*
X101505858Y-89049999D02*
X99800000Y-90755857D01*
X102821389Y-66515021D02*
X92300000Y-77036410D01*
X110175021Y-66515021D02*
X102821389Y-66515021D01*
X92300000Y-77036410D02*
X92300000Y-77400000D01*
X111200000Y-67540000D02*
X110175021Y-66515021D01*
X93100000Y-89973002D02*
X91488010Y-88361012D01*
X91488010Y-88361012D02*
X91488010Y-78211990D01*
X96800000Y-95700000D02*
X96504010Y-95404010D01*
X96472518Y-95404009D02*
X93100000Y-92031491D01*
X96504010Y-95404010D02*
X96472518Y-95404009D01*
X91488010Y-78211990D02*
X92300000Y-77400000D01*
X93100000Y-92031491D02*
X93100000Y-89973002D01*
X96800000Y-95900000D02*
X96800000Y-95700000D01*
X102634989Y-66065011D02*
X91300000Y-77400000D01*
X110134989Y-66065011D02*
X102634989Y-66065011D01*
X111200000Y-65000000D02*
X110134989Y-66065011D01*
X91038000Y-77662000D02*
X91300000Y-77400000D01*
X91038000Y-88547412D02*
X91038000Y-77662000D01*
X92649990Y-92217891D02*
X92649990Y-90159402D01*
X92649990Y-90159402D02*
X91038000Y-88547412D01*
X95700000Y-95267901D02*
X92649990Y-92217891D01*
X95700000Y-95900000D02*
X95700000Y-95267901D01*
D17*
X99761876Y-106491876D02*
X99480000Y-106210000D01*
X103451166Y-106491876D02*
X99761876Y-106491876D01*
D18*
G36*
X93421587Y-108517163D02*
G01*
X93265000Y-108673750D01*
X93265000Y-109873000D01*
X93285000Y-109873000D01*
X93285000Y-110127000D01*
X93265000Y-110127000D01*
X93265000Y-110147000D01*
X93011000Y-110147000D01*
X93011000Y-110127000D01*
X91811750Y-110127000D01*
X91653000Y-110285750D01*
X91649928Y-110850000D01*
X91662188Y-110974482D01*
X91698498Y-111094180D01*
X91757463Y-111204494D01*
X91836815Y-111301185D01*
X91853649Y-111315000D01*
X89604893Y-111315000D01*
X89846632Y-111153475D01*
X90053475Y-110946632D01*
X90215990Y-110703411D01*
X90327932Y-110433158D01*
X90385000Y-110146260D01*
X90385000Y-109853740D01*
X90327932Y-109566842D01*
X90215990Y-109296589D01*
X90118043Y-109150000D01*
X91649928Y-109150000D01*
X91653000Y-109714250D01*
X91811750Y-109873000D01*
X93011000Y-109873000D01*
X93011000Y-108673750D01*
X92852250Y-108515000D01*
X92288000Y-108511928D01*
X92163518Y-108524188D01*
X92043820Y-108560498D01*
X91933506Y-108619463D01*
X91836815Y-108698815D01*
X91757463Y-108795506D01*
X91698498Y-108905820D01*
X91662188Y-109025518D01*
X91649928Y-109150000D01*
X90118043Y-109150000D01*
X90053475Y-109053368D01*
X89921620Y-108921513D01*
X89994180Y-108899502D01*
X90104494Y-108840537D01*
X90201185Y-108761185D01*
X90280537Y-108664494D01*
X90339502Y-108554180D01*
X90375812Y-108434482D01*
X90388072Y-108310000D01*
X90385000Y-107745750D01*
X90226250Y-107587000D01*
X89027000Y-107587000D01*
X89027000Y-107607000D01*
X88773000Y-107607000D01*
X88773000Y-107587000D01*
X88753000Y-107587000D01*
X88753000Y-107333000D01*
X88773000Y-107333000D01*
X88773000Y-107313000D01*
X89027000Y-107313000D01*
X89027000Y-107333000D01*
X90226250Y-107333000D01*
X90385000Y-107174250D01*
X90387598Y-106697000D01*
X91601426Y-106697000D01*
X93421587Y-108517163D01*
G37*
X93421587Y-108517163D02*
X93265000Y-108673750D01*
X93265000Y-109873000D01*
X93285000Y-109873000D01*
X93285000Y-110127000D01*
X93265000Y-110127000D01*
X93265000Y-110147000D01*
X93011000Y-110147000D01*
X93011000Y-110127000D01*
X91811750Y-110127000D01*
X91653000Y-110285750D01*
X91649928Y-110850000D01*
X91662188Y-110974482D01*
X91698498Y-111094180D01*
X91757463Y-111204494D01*
X91836815Y-111301185D01*
X91853649Y-111315000D01*
X89604893Y-111315000D01*
X89846632Y-111153475D01*
X90053475Y-110946632D01*
X90215990Y-110703411D01*
X90327932Y-110433158D01*
X90385000Y-110146260D01*
X90385000Y-109853740D01*
X90327932Y-109566842D01*
X90215990Y-109296589D01*
X90118043Y-109150000D01*
X91649928Y-109150000D01*
X91653000Y-109714250D01*
X91811750Y-109873000D01*
X93011000Y-109873000D01*
X93011000Y-108673750D01*
X92852250Y-108515000D01*
X92288000Y-108511928D01*
X92163518Y-108524188D01*
X92043820Y-108560498D01*
X91933506Y-108619463D01*
X91836815Y-108698815D01*
X91757463Y-108795506D01*
X91698498Y-108905820D01*
X91662188Y-109025518D01*
X91649928Y-109150000D01*
X90118043Y-109150000D01*
X90053475Y-109053368D01*
X89921620Y-108921513D01*
X89994180Y-108899502D01*
X90104494Y-108840537D01*
X90201185Y-108761185D01*
X90280537Y-108664494D01*
X90339502Y-108554180D01*
X90375812Y-108434482D01*
X90388072Y-108310000D01*
X90385000Y-107745750D01*
X90226250Y-107587000D01*
X89027000Y-107587000D01*
X89027000Y-107607000D01*
X88773000Y-107607000D01*
X88773000Y-107587000D01*
X88753000Y-107587000D01*
X88753000Y-107333000D01*
X88773000Y-107333000D01*
X88773000Y-107313000D01*
X89027000Y-107313000D01*
X89027000Y-107333000D01*
X90226250Y-107333000D01*
X90385000Y-107174250D01*
X90387598Y-106697000D01*
X91601426Y-106697000D01*
X93421587Y-108517163D01*
G36*
X102144525Y-110946632D02*
G01*
X102351368Y-111153475D01*
X102593107Y-111315000D01*
X101462893Y-111315000D01*
X101704632Y-111153475D01*
X101911475Y-110946632D01*
X102028000Y-110772240D01*
X102144525Y-110946632D01*
G37*
X102144525Y-110946632D02*
X102351368Y-111153475D01*
X102593107Y-111315000D01*
X101462893Y-111315000D01*
X101704632Y-111153475D01*
X101911475Y-110946632D01*
X102028000Y-110772240D01*
X102144525Y-110946632D01*
G36*
X99604525Y-110946632D02*
G01*
X99811368Y-111153475D01*
X100053107Y-111315000D01*
X98922893Y-111315000D01*
X99164632Y-111153475D01*
X99371475Y-110946632D01*
X99488000Y-110772240D01*
X99604525Y-110946632D01*
G37*
X99604525Y-110946632D02*
X99811368Y-111153475D01*
X100053107Y-111315000D01*
X98922893Y-111315000D01*
X99164632Y-111153475D01*
X99371475Y-110946632D01*
X99488000Y-110772240D01*
X99604525Y-110946632D01*
G36*
X97064525Y-110946632D02*
G01*
X97271368Y-111153475D01*
X97513107Y-111315000D01*
X96382893Y-111315000D01*
X96624632Y-111153475D01*
X96831475Y-110946632D01*
X96948000Y-110772240D01*
X97064525Y-110946632D01*
G37*
X97064525Y-110946632D02*
X97271368Y-111153475D01*
X97513107Y-111315000D01*
X96382893Y-111315000D01*
X96624632Y-111153475D01*
X96831475Y-110946632D01*
X96948000Y-110772240D01*
X97064525Y-110946632D01*
G36*
X94731368Y-111153475D02*
G01*
X94973107Y-111315000D01*
X94422351Y-111315000D01*
X94439185Y-111301185D01*
X94518537Y-111204494D01*
X94577502Y-111094180D01*
X94599513Y-111021620D01*
X94731368Y-111153475D01*
G37*
X94731368Y-111153475D02*
X94973107Y-111315000D01*
X94422351Y-111315000D01*
X94439185Y-111301185D01*
X94518537Y-111204494D01*
X94577502Y-111094180D01*
X94599513Y-111021620D01*
X94731368Y-111153475D01*
G36*
X92191368Y-63286525D02*
G01*
X91984525Y-63493368D01*
X91822010Y-63736589D01*
X91723322Y-63974844D01*
X91720256Y-63972795D01*
X91531898Y-63894774D01*
X91331939Y-63855000D01*
X91128061Y-63855000D01*
X90928102Y-63894774D01*
X90739744Y-63972795D01*
X90570226Y-64086063D01*
X90426063Y-64230226D01*
X90312795Y-64399744D01*
X90310621Y-64404993D01*
X88570520Y-64404993D01*
X88533187Y-64401316D01*
X88384201Y-64415990D01*
X88240940Y-64459447D01*
X88108911Y-64530019D01*
X88022184Y-64601193D01*
X88022179Y-64601198D01*
X87993186Y-64624992D01*
X87969392Y-64653985D01*
X84143983Y-68479394D01*
X84114979Y-68503197D01*
X84074872Y-68552068D01*
X84020006Y-68618922D01*
X83971081Y-68710453D01*
X83949434Y-68750952D01*
X83905977Y-68894213D01*
X83894980Y-69005866D01*
X83894980Y-69005875D01*
X83891304Y-69043198D01*
X83894980Y-69080520D01*
X83894981Y-90727647D01*
X83891304Y-90764980D01*
X83894981Y-90802313D01*
X83904172Y-90895624D01*
X83905978Y-90913965D01*
X83949434Y-91057226D01*
X84020006Y-91189256D01*
X84087199Y-91271130D01*
X84114980Y-91304981D01*
X84143978Y-91328779D01*
X85288790Y-92473593D01*
X85245000Y-92693740D01*
X85245000Y-92986260D01*
X85302068Y-93273158D01*
X85414010Y-93543411D01*
X85576525Y-93786632D01*
X85783368Y-93993475D01*
X85957760Y-94110000D01*
X85783368Y-94226525D01*
X85745476Y-94264417D01*
X85595630Y-94387392D01*
X85421055Y-94600113D01*
X85291334Y-94842805D01*
X85211452Y-95106140D01*
X85184479Y-95380000D01*
X85211452Y-95653860D01*
X85291334Y-95917195D01*
X85421055Y-96159887D01*
X85595630Y-96372608D01*
X85745476Y-96495583D01*
X85783368Y-96533475D01*
X85957760Y-96650000D01*
X85783368Y-96766525D01*
X85576525Y-96973368D01*
X85414010Y-97216589D01*
X85302068Y-97486842D01*
X85245000Y-97773740D01*
X85245000Y-98066260D01*
X85302068Y-98353158D01*
X85414010Y-98623411D01*
X85576525Y-98866632D01*
X85783368Y-99073475D01*
X85957760Y-99190000D01*
X85783368Y-99306525D01*
X85576525Y-99513368D01*
X85414010Y-99756589D01*
X85302068Y-100026842D01*
X85245000Y-100313740D01*
X85245000Y-100606260D01*
X85302068Y-100893158D01*
X85414010Y-101163411D01*
X85576525Y-101406632D01*
X85708380Y-101538487D01*
X85635820Y-101560498D01*
X85525506Y-101619463D01*
X85428815Y-101698815D01*
X85349463Y-101795506D01*
X85290498Y-101905820D01*
X85254188Y-102025518D01*
X85241928Y-102150000D01*
X85245000Y-102714250D01*
X85403750Y-102873000D01*
X86603000Y-102873000D01*
X86603000Y-102853000D01*
X86857000Y-102853000D01*
X86857000Y-102873000D01*
X88056250Y-102873000D01*
X88215000Y-102714250D01*
X88218072Y-102150000D01*
X88205812Y-102025518D01*
X88169502Y-101905820D01*
X88110537Y-101795506D01*
X88031185Y-101698815D01*
X87934494Y-101619463D01*
X87824180Y-101560498D01*
X87751620Y-101538487D01*
X87883475Y-101406632D01*
X88045990Y-101163411D01*
X88157932Y-100893158D01*
X88215000Y-100606260D01*
X88215000Y-100313740D01*
X88157932Y-100026842D01*
X88045990Y-99756589D01*
X87883475Y-99513368D01*
X87676632Y-99306525D01*
X87502240Y-99190000D01*
X87676632Y-99073475D01*
X87883475Y-98866632D01*
X88045990Y-98623411D01*
X88157932Y-98353158D01*
X88215000Y-98066260D01*
X88215000Y-97773740D01*
X88157932Y-97486842D01*
X88045990Y-97216589D01*
X87883475Y-96973368D01*
X87676632Y-96766525D01*
X87502240Y-96650000D01*
X87676632Y-96533475D01*
X87883475Y-96326632D01*
X88045990Y-96083411D01*
X88157932Y-95813158D01*
X88215000Y-95526260D01*
X88215000Y-95233740D01*
X88157932Y-94946842D01*
X88045990Y-94676589D01*
X87883475Y-94433368D01*
X87676632Y-94226525D01*
X87502240Y-94110000D01*
X87676632Y-93993475D01*
X87883475Y-93786632D01*
X88045990Y-93543411D01*
X88157932Y-93273158D01*
X88215000Y-92986260D01*
X88215000Y-92693740D01*
X88157932Y-92406842D01*
X88045990Y-92136589D01*
X87883475Y-91893368D01*
X87676632Y-91686525D01*
X87502240Y-91570000D01*
X87676632Y-91453475D01*
X87883475Y-91246632D01*
X88045990Y-91003411D01*
X88157932Y-90733158D01*
X88215000Y-90446260D01*
X88215000Y-90153740D01*
X88157932Y-89866842D01*
X88045990Y-89596589D01*
X87883475Y-89353368D01*
X87676632Y-89146525D01*
X87502240Y-89030000D01*
X87676632Y-88913475D01*
X87883475Y-88706632D01*
X88045990Y-88463411D01*
X88157932Y-88193158D01*
X88215000Y-87906260D01*
X88215000Y-87613740D01*
X88157932Y-87326842D01*
X88045990Y-87056589D01*
X87883475Y-86813368D01*
X87676632Y-86606525D01*
X87502240Y-86490000D01*
X87676632Y-86373475D01*
X87883475Y-86166632D01*
X88045990Y-85923411D01*
X88157932Y-85653158D01*
X88215000Y-85366260D01*
X88215000Y-85073740D01*
X88157932Y-84786842D01*
X88045990Y-84516589D01*
X87883475Y-84273368D01*
X87676632Y-84066525D01*
X87502240Y-83950000D01*
X87676632Y-83833475D01*
X87883475Y-83626632D01*
X88045990Y-83383411D01*
X88157932Y-83113158D01*
X88215000Y-82826260D01*
X88215000Y-82533740D01*
X88157932Y-82246842D01*
X88045990Y-81976589D01*
X87883475Y-81733368D01*
X87676632Y-81526525D01*
X87502240Y-81410000D01*
X87676632Y-81293475D01*
X87883475Y-81086632D01*
X88008178Y-80900000D01*
X89713189Y-80900000D01*
X89827991Y-81014803D01*
X89827990Y-88696490D01*
X89824314Y-88733812D01*
X89827990Y-88771134D01*
X89827990Y-88771144D01*
X89838987Y-88882797D01*
X89869689Y-88984010D01*
X89882444Y-89026058D01*
X89953016Y-89158088D01*
X89972957Y-89182386D01*
X90047989Y-89273813D01*
X90076993Y-89297616D01*
X91439981Y-90660605D01*
X91439980Y-92366968D01*
X91436304Y-92404291D01*
X91439980Y-92441613D01*
X91439980Y-92441623D01*
X91450977Y-92553276D01*
X91492758Y-92691013D01*
X91494434Y-92696537D01*
X91565006Y-92828567D01*
X91584947Y-92852865D01*
X91659979Y-92944292D01*
X91688983Y-92968095D01*
X93940001Y-95219114D01*
X93940000Y-95935679D01*
X93936324Y-95973002D01*
X93940000Y-96010324D01*
X93940000Y-96010334D01*
X93950997Y-96121987D01*
X93986796Y-96240001D01*
X93994454Y-96265248D01*
X94065026Y-96397278D01*
X94082585Y-96418673D01*
X94159999Y-96513003D01*
X94189002Y-96536805D01*
X94788199Y-97136003D01*
X94811998Y-97165002D01*
X94927723Y-97259975D01*
X95059752Y-97330547D01*
X95203013Y-97374004D01*
X95314666Y-97385001D01*
X95314676Y-97385001D01*
X95351999Y-97388677D01*
X95389322Y-97385001D01*
X97437677Y-97385001D01*
X97474999Y-97388677D01*
X97512321Y-97385001D01*
X97512332Y-97385001D01*
X97623985Y-97374004D01*
X97767246Y-97330547D01*
X97899275Y-97259975D01*
X98015000Y-97165002D01*
X98038802Y-97135999D01*
X98039801Y-97135000D01*
X98101939Y-97135000D01*
X98301898Y-97095226D01*
X98490256Y-97017205D01*
X98659774Y-96903937D01*
X98803937Y-96759774D01*
X98917205Y-96590256D01*
X98995226Y-96401898D01*
X99035000Y-96201939D01*
X99035000Y-95998061D01*
X99016308Y-95904088D01*
X99095695Y-95871205D01*
X99265213Y-95757937D01*
X99409376Y-95613774D01*
X99522644Y-95444256D01*
X99600665Y-95255898D01*
X99624713Y-95135000D01*
X99701939Y-95135000D01*
X99901898Y-95095226D01*
X100090256Y-95017205D01*
X100196649Y-94946116D01*
X99555060Y-95587705D01*
X99521143Y-95615540D01*
X99493308Y-95649457D01*
X99493306Y-95649459D01*
X99410049Y-95750908D01*
X99327499Y-95905347D01*
X99276665Y-96072925D01*
X99259501Y-96247199D01*
X99263802Y-96290869D01*
X99263801Y-97659532D01*
X99235596Y-97701744D01*
X99157575Y-97890102D01*
X99117801Y-98090061D01*
X99117801Y-98293939D01*
X99157575Y-98493898D01*
X99235596Y-98682256D01*
X99348864Y-98851774D01*
X99493027Y-98995937D01*
X99662545Y-99109205D01*
X99850903Y-99187226D01*
X100050862Y-99227000D01*
X100254740Y-99227000D01*
X100454699Y-99187226D01*
X100643057Y-99109205D01*
X100812575Y-98995937D01*
X100956738Y-98851774D01*
X101070006Y-98682256D01*
X101148027Y-98493898D01*
X101187801Y-98293939D01*
X101187801Y-98090061D01*
X101148027Y-97890102D01*
X101070006Y-97701744D01*
X101041801Y-97659532D01*
X101041801Y-96615434D01*
X103052106Y-94605130D01*
X103101898Y-94595226D01*
X103290256Y-94517205D01*
X103459774Y-94403937D01*
X103603937Y-94259774D01*
X103717205Y-94090256D01*
X103795226Y-93901898D01*
X103835000Y-93701939D01*
X103835000Y-93498061D01*
X103795226Y-93298102D01*
X103717205Y-93109744D01*
X103603937Y-92940226D01*
X103459774Y-92796063D01*
X103290256Y-92682795D01*
X103101898Y-92604774D01*
X102901939Y-92565000D01*
X102698061Y-92565000D01*
X102498102Y-92604774D01*
X102309744Y-92682795D01*
X102140226Y-92796063D01*
X101996063Y-92940226D01*
X101882795Y-93109744D01*
X101804774Y-93298102D01*
X101794870Y-93347894D01*
X100446116Y-94696649D01*
X100517205Y-94590256D01*
X100595226Y-94401898D01*
X100635000Y-94201939D01*
X100635000Y-93998061D01*
X100595226Y-93798102D01*
X100517205Y-93609744D01*
X100403937Y-93440226D01*
X100259774Y-93296063D01*
X100090256Y-93182795D01*
X99901898Y-93104774D01*
X99701939Y-93065000D01*
X99498061Y-93065000D01*
X99298102Y-93104774D01*
X99109744Y-93182795D01*
X99067532Y-93211000D01*
X96536203Y-93211000D01*
X96493153Y-93219563D01*
X96449488Y-93223864D01*
X96407499Y-93236601D01*
X96364450Y-93245164D01*
X96323905Y-93261959D01*
X96281911Y-93274697D01*
X96243205Y-93295386D01*
X96202663Y-93312179D01*
X96166177Y-93336558D01*
X96133660Y-93353939D01*
X94342346Y-91562626D01*
X94342346Y-90998061D01*
X98765000Y-90998061D01*
X98765000Y-91201939D01*
X98804774Y-91401898D01*
X98882795Y-91590256D01*
X98996063Y-91759774D01*
X99140226Y-91903937D01*
X99309744Y-92017205D01*
X99498102Y-92095226D01*
X99698061Y-92135000D01*
X99901939Y-92135000D01*
X100101898Y-92095226D01*
X100290256Y-92017205D01*
X100459774Y-91903937D01*
X100603937Y-91759774D01*
X100717205Y-91590256D01*
X100795226Y-91401898D01*
X100835000Y-91201939D01*
X100835000Y-90998061D01*
X100801419Y-90829239D01*
X101545660Y-90084999D01*
X101607797Y-90084999D01*
X101807756Y-90045225D01*
X101996114Y-89967204D01*
X102165632Y-89853936D01*
X102309795Y-89709773D01*
X102423063Y-89540255D01*
X102501084Y-89351897D01*
X102540858Y-89151938D01*
X102540858Y-88948060D01*
X102501084Y-88748101D01*
X102423063Y-88559743D01*
X102309795Y-88390225D01*
X102165632Y-88246062D01*
X101996114Y-88132794D01*
X101807756Y-88054773D01*
X101607797Y-88014999D01*
X101403919Y-88014999D01*
X101203960Y-88054773D01*
X101015602Y-88132794D01*
X100846084Y-88246062D01*
X100701921Y-88390225D01*
X100588653Y-88559743D01*
X100510632Y-88748101D01*
X100470858Y-88948060D01*
X100470858Y-89010197D01*
X99289003Y-90192053D01*
X99259999Y-90215856D01*
X99259677Y-90216249D01*
X99140226Y-90296063D01*
X98996063Y-90440226D01*
X98882795Y-90609744D01*
X98804774Y-90798102D01*
X98765000Y-90998061D01*
X94342346Y-90998061D01*
X94342346Y-90086057D01*
X94386283Y-90042120D01*
X94499551Y-89872602D01*
X94577572Y-89684244D01*
X94617346Y-89484285D01*
X94617346Y-89280407D01*
X94577572Y-89080448D01*
X94499551Y-88892090D01*
X94386283Y-88722572D01*
X94242120Y-88578409D01*
X94072602Y-88465141D01*
X93884244Y-88387120D01*
X93684285Y-88347346D01*
X93480407Y-88347346D01*
X93280448Y-88387120D01*
X93092090Y-88465141D01*
X92922572Y-88578409D01*
X92851390Y-88649591D01*
X92248010Y-88046211D01*
X92248010Y-84211721D01*
X92340226Y-84303937D01*
X92509744Y-84417205D01*
X92698102Y-84495226D01*
X92898061Y-84535000D01*
X93101939Y-84535000D01*
X93301898Y-84495226D01*
X93490256Y-84417205D01*
X93659774Y-84303937D01*
X93703711Y-84260000D01*
X109750130Y-84260000D01*
X109760498Y-84294180D01*
X109819463Y-84404494D01*
X109898815Y-84501185D01*
X109995506Y-84580537D01*
X110105820Y-84639502D01*
X110178380Y-84661513D01*
X110046525Y-84793368D01*
X109884010Y-85036589D01*
X109772068Y-85306842D01*
X109715000Y-85593740D01*
X109715000Y-85886260D01*
X109772068Y-86173158D01*
X109884010Y-86443411D01*
X110046525Y-86686632D01*
X110253368Y-86893475D01*
X110427760Y-87010000D01*
X110253368Y-87126525D01*
X110046525Y-87333368D01*
X109884010Y-87576589D01*
X109772068Y-87846842D01*
X109715000Y-88133740D01*
X109715000Y-88426260D01*
X109728523Y-88494242D01*
X108743238Y-89479527D01*
X108695904Y-89432193D01*
X108526386Y-89318925D01*
X108338028Y-89240904D01*
X108288235Y-89231000D01*
X108263857Y-89206622D01*
X108263857Y-88032305D01*
X108292062Y-87990093D01*
X108370083Y-87801735D01*
X108409857Y-87601776D01*
X108409857Y-87397898D01*
X108370083Y-87197939D01*
X108292062Y-87009581D01*
X108178794Y-86840063D01*
X108034631Y-86695900D01*
X107865113Y-86582632D01*
X107676755Y-86504611D01*
X107476796Y-86464837D01*
X107272918Y-86464837D01*
X107072959Y-86504611D01*
X106884601Y-86582632D01*
X106715083Y-86695900D01*
X106570920Y-86840063D01*
X106457652Y-87009581D01*
X106379631Y-87197939D01*
X106339857Y-87397898D01*
X106339857Y-87601776D01*
X106379631Y-87801735D01*
X106457652Y-87990093D01*
X106485857Y-88032305D01*
X106485858Y-89531187D01*
X106481557Y-89574857D01*
X106498721Y-89749131D01*
X106549555Y-89916709D01*
X106632105Y-90071148D01*
X106705439Y-90160505D01*
X106743199Y-90206516D01*
X106777116Y-90234351D01*
X107031000Y-90488235D01*
X107040904Y-90538028D01*
X107118925Y-90726386D01*
X107232193Y-90895904D01*
X107279527Y-90943238D01*
X107002264Y-91220501D01*
X106968341Y-91248341D01*
X106857247Y-91383710D01*
X106774697Y-91538150D01*
X106760431Y-91585181D01*
X106732586Y-91676975D01*
X106723864Y-91705727D01*
X106711000Y-91836334D01*
X106711000Y-91836340D01*
X106706700Y-91880000D01*
X106711000Y-91923660D01*
X106711001Y-95831764D01*
X102702264Y-99840501D01*
X102668341Y-99868341D01*
X102557247Y-100003710D01*
X102474697Y-100158150D01*
X102444711Y-100257001D01*
X99373447Y-100257001D01*
X97942938Y-98826493D01*
X97854968Y-98661911D01*
X97712133Y-98487867D01*
X97538089Y-98345032D01*
X97339523Y-98238897D01*
X97124067Y-98173539D01*
X96956146Y-98157000D01*
X96900000Y-98151470D01*
X96843854Y-98157000D01*
X94673445Y-98157000D01*
X94339927Y-97823482D01*
X94304132Y-97779866D01*
X94130088Y-97637031D01*
X93931522Y-97530896D01*
X93716066Y-97465538D01*
X93548145Y-97448999D01*
X93548138Y-97448999D01*
X93491999Y-97443470D01*
X93435860Y-97448999D01*
X92743854Y-97448999D01*
X92575933Y-97465538D01*
X92360477Y-97530896D01*
X92161911Y-97637031D01*
X91987867Y-97779866D01*
X91845032Y-97953910D01*
X91738897Y-98152476D01*
X91673539Y-98367932D01*
X91651470Y-98591999D01*
X91673539Y-98816066D01*
X91738897Y-99031522D01*
X91845032Y-99230088D01*
X91930986Y-99334822D01*
X91904774Y-99398102D01*
X91865000Y-99598061D01*
X91865000Y-99801939D01*
X91904774Y-100001898D01*
X91982795Y-100190256D01*
X92096063Y-100359774D01*
X92240226Y-100503937D01*
X92409744Y-100617205D01*
X92598102Y-100695226D01*
X92798061Y-100735000D01*
X92860199Y-100735000D01*
X94711000Y-102585802D01*
X94711000Y-102587559D01*
X94745164Y-102759312D01*
X94812179Y-102921099D01*
X94909469Y-103066704D01*
X95033296Y-103190531D01*
X95178901Y-103287821D01*
X95340688Y-103354836D01*
X95512441Y-103389000D01*
X95687559Y-103389000D01*
X95859312Y-103354836D01*
X96021099Y-103287821D01*
X96166704Y-103190531D01*
X96290531Y-103066704D01*
X96387821Y-102921099D01*
X96454836Y-102759312D01*
X96489000Y-102587559D01*
X96489000Y-102412441D01*
X96454836Y-102240688D01*
X96387821Y-102078901D01*
X96290531Y-101933296D01*
X96166704Y-101809469D01*
X96021099Y-101712179D01*
X95962855Y-101688053D01*
X94717801Y-100443000D01*
X96326555Y-100443000D01*
X98052076Y-102168522D01*
X98087868Y-102212134D01*
X98261912Y-102354969D01*
X98391312Y-102424134D01*
X98460477Y-102461104D01*
X98600924Y-102503708D01*
X98675934Y-102526462D01*
X98843855Y-102543001D01*
X98843862Y-102543001D01*
X98900001Y-102548530D01*
X98956140Y-102543001D01*
X99699764Y-102543001D01*
X99641765Y-102601000D01*
X97521820Y-102601000D01*
X97478160Y-102596700D01*
X97434500Y-102601000D01*
X97434493Y-102601000D01*
X97321461Y-102612133D01*
X97303885Y-102613864D01*
X97266176Y-102625303D01*
X97136309Y-102664697D01*
X96981869Y-102747247D01*
X96981867Y-102747248D01*
X96981868Y-102747248D01*
X96886244Y-102825725D01*
X96846501Y-102858341D01*
X96818665Y-102892259D01*
X96010264Y-103700660D01*
X95976342Y-103728500D01*
X95865248Y-103863869D01*
X95782698Y-104018309D01*
X95731865Y-104185886D01*
X95719001Y-104316493D01*
X95719001Y-104316499D01*
X95714701Y-104360159D01*
X95719001Y-104403819D01*
X95719002Y-106183371D01*
X95715918Y-106186455D01*
X95602650Y-106355973D01*
X95524629Y-106544331D01*
X95503963Y-106648226D01*
X93216445Y-104360709D01*
X93172689Y-104307392D01*
X92959968Y-104132817D01*
X92717276Y-104003096D01*
X92453941Y-103923214D01*
X92248706Y-103903000D01*
X92180081Y-103896241D01*
X92111456Y-103903000D01*
X90031375Y-103903000D01*
X89826140Y-103923214D01*
X89562805Y-104003096D01*
X89320113Y-104132817D01*
X89107392Y-104307392D01*
X88932817Y-104520113D01*
X88803096Y-104762805D01*
X88723214Y-105026140D01*
X88696241Y-105300000D01*
X88723214Y-105573860D01*
X88803096Y-105837195D01*
X88876754Y-105975000D01*
X88772998Y-105975000D01*
X88772998Y-106133748D01*
X88614250Y-105975000D01*
X88050000Y-105971928D01*
X87925518Y-105984188D01*
X87805820Y-106020498D01*
X87695506Y-106079463D01*
X87598815Y-106158815D01*
X87519463Y-106255506D01*
X87460498Y-106365820D01*
X87438487Y-106438380D01*
X87306632Y-106306525D01*
X87063411Y-106144010D01*
X86793158Y-106032068D01*
X86506260Y-105975000D01*
X86213740Y-105975000D01*
X85926842Y-106032068D01*
X85656589Y-106144010D01*
X85413368Y-106306525D01*
X85206525Y-106513368D01*
X85044010Y-106756589D01*
X84932068Y-107026842D01*
X84875000Y-107313740D01*
X84875000Y-107606260D01*
X84932068Y-107893158D01*
X85044010Y-108163411D01*
X85206525Y-108406632D01*
X85413368Y-108613475D01*
X85587760Y-108730000D01*
X85413368Y-108846525D01*
X85206525Y-109053368D01*
X85044010Y-109296589D01*
X84932068Y-109566842D01*
X84875000Y-109853740D01*
X84875000Y-110146260D01*
X84932068Y-110433158D01*
X85044010Y-110703411D01*
X85206525Y-110946632D01*
X85413368Y-111153475D01*
X85655107Y-111315000D01*
X83685000Y-111315000D01*
X83685000Y-103850000D01*
X85241928Y-103850000D01*
X85254188Y-103974482D01*
X85290498Y-104094180D01*
X85349463Y-104204494D01*
X85428815Y-104301185D01*
X85525506Y-104380537D01*
X85635820Y-104439502D01*
X85755518Y-104475812D01*
X85880000Y-104488072D01*
X86444250Y-104485000D01*
X86603000Y-104326250D01*
X86603000Y-103127000D01*
X86857000Y-103127000D01*
X86857000Y-104326250D01*
X87015750Y-104485000D01*
X87580000Y-104488072D01*
X87704482Y-104475812D01*
X87824180Y-104439502D01*
X87934494Y-104380537D01*
X88031185Y-104301185D01*
X88110537Y-104204494D01*
X88169502Y-104094180D01*
X88205812Y-103974482D01*
X88218072Y-103850000D01*
X88215000Y-103285750D01*
X88056250Y-103127000D01*
X86857000Y-103127000D01*
X86603000Y-103127000D01*
X85403750Y-103127000D01*
X85245000Y-103285750D01*
X85241928Y-103850000D01*
X83685000Y-103850000D01*
X83685000Y-63125000D01*
X92433107Y-63125000D01*
X92191368Y-63286525D01*
G37*
X92191368Y-63286525D02*
X91984525Y-63493368D01*
X91822010Y-63736589D01*
X91723322Y-63974844D01*
X91720256Y-63972795D01*
X91531898Y-63894774D01*
X91331939Y-63855000D01*
X91128061Y-63855000D01*
X90928102Y-63894774D01*
X90739744Y-63972795D01*
X90570226Y-64086063D01*
X90426063Y-64230226D01*
X90312795Y-64399744D01*
X90310621Y-64404993D01*
X88570520Y-64404993D01*
X88533187Y-64401316D01*
X88384201Y-64415990D01*
X88240940Y-64459447D01*
X88108911Y-64530019D01*
X88022184Y-64601193D01*
X88022179Y-64601198D01*
X87993186Y-64624992D01*
X87969392Y-64653985D01*
X84143983Y-68479394D01*
X84114979Y-68503197D01*
X84074872Y-68552068D01*
X84020006Y-68618922D01*
X83971081Y-68710453D01*
X83949434Y-68750952D01*
X83905977Y-68894213D01*
X83894980Y-69005866D01*
X83894980Y-69005875D01*
X83891304Y-69043198D01*
X83894980Y-69080520D01*
X83894981Y-90727647D01*
X83891304Y-90764980D01*
X83894981Y-90802313D01*
X83904172Y-90895624D01*
X83905978Y-90913965D01*
X83949434Y-91057226D01*
X84020006Y-91189256D01*
X84087199Y-91271130D01*
X84114980Y-91304981D01*
X84143978Y-91328779D01*
X85288790Y-92473593D01*
X85245000Y-92693740D01*
X85245000Y-92986260D01*
X85302068Y-93273158D01*
X85414010Y-93543411D01*
X85576525Y-93786632D01*
X85783368Y-93993475D01*
X85957760Y-94110000D01*
X85783368Y-94226525D01*
X85745476Y-94264417D01*
X85595630Y-94387392D01*
X85421055Y-94600113D01*
X85291334Y-94842805D01*
X85211452Y-95106140D01*
X85184479Y-95380000D01*
X85211452Y-95653860D01*
X85291334Y-95917195D01*
X85421055Y-96159887D01*
X85595630Y-96372608D01*
X85745476Y-96495583D01*
X85783368Y-96533475D01*
X85957760Y-96650000D01*
X85783368Y-96766525D01*
X85576525Y-96973368D01*
X85414010Y-97216589D01*
X85302068Y-97486842D01*
X85245000Y-97773740D01*
X85245000Y-98066260D01*
X85302068Y-98353158D01*
X85414010Y-98623411D01*
X85576525Y-98866632D01*
X85783368Y-99073475D01*
X85957760Y-99190000D01*
X85783368Y-99306525D01*
X85576525Y-99513368D01*
X85414010Y-99756589D01*
X85302068Y-100026842D01*
X85245000Y-100313740D01*
X85245000Y-100606260D01*
X85302068Y-100893158D01*
X85414010Y-101163411D01*
X85576525Y-101406632D01*
X85708380Y-101538487D01*
X85635820Y-101560498D01*
X85525506Y-101619463D01*
X85428815Y-101698815D01*
X85349463Y-101795506D01*
X85290498Y-101905820D01*
X85254188Y-102025518D01*
X85241928Y-102150000D01*
X85245000Y-102714250D01*
X85403750Y-102873000D01*
X86603000Y-102873000D01*
X86603000Y-102853000D01*
X86857000Y-102853000D01*
X86857000Y-102873000D01*
X88056250Y-102873000D01*
X88215000Y-102714250D01*
X88218072Y-102150000D01*
X88205812Y-102025518D01*
X88169502Y-101905820D01*
X88110537Y-101795506D01*
X88031185Y-101698815D01*
X87934494Y-101619463D01*
X87824180Y-101560498D01*
X87751620Y-101538487D01*
X87883475Y-101406632D01*
X88045990Y-101163411D01*
X88157932Y-100893158D01*
X88215000Y-100606260D01*
X88215000Y-100313740D01*
X88157932Y-100026842D01*
X88045990Y-99756589D01*
X87883475Y-99513368D01*
X87676632Y-99306525D01*
X87502240Y-99190000D01*
X87676632Y-99073475D01*
X87883475Y-98866632D01*
X88045990Y-98623411D01*
X88157932Y-98353158D01*
X88215000Y-98066260D01*
X88215000Y-97773740D01*
X88157932Y-97486842D01*
X88045990Y-97216589D01*
X87883475Y-96973368D01*
X87676632Y-96766525D01*
X87502240Y-96650000D01*
X87676632Y-96533475D01*
X87883475Y-96326632D01*
X88045990Y-96083411D01*
X88157932Y-95813158D01*
X88215000Y-95526260D01*
X88215000Y-95233740D01*
X88157932Y-94946842D01*
X88045990Y-94676589D01*
X87883475Y-94433368D01*
X87676632Y-94226525D01*
X87502240Y-94110000D01*
X87676632Y-93993475D01*
X87883475Y-93786632D01*
X88045990Y-93543411D01*
X88157932Y-93273158D01*
X88215000Y-92986260D01*
X88215000Y-92693740D01*
X88157932Y-92406842D01*
X88045990Y-92136589D01*
X87883475Y-91893368D01*
X87676632Y-91686525D01*
X87502240Y-91570000D01*
X87676632Y-91453475D01*
X87883475Y-91246632D01*
X88045990Y-91003411D01*
X88157932Y-90733158D01*
X88215000Y-90446260D01*
X88215000Y-90153740D01*
X88157932Y-89866842D01*
X88045990Y-89596589D01*
X87883475Y-89353368D01*
X87676632Y-89146525D01*
X87502240Y-89030000D01*
X87676632Y-88913475D01*
X87883475Y-88706632D01*
X88045990Y-88463411D01*
X88157932Y-88193158D01*
X88215000Y-87906260D01*
X88215000Y-87613740D01*
X88157932Y-87326842D01*
X88045990Y-87056589D01*
X87883475Y-86813368D01*
X87676632Y-86606525D01*
X87502240Y-86490000D01*
X87676632Y-86373475D01*
X87883475Y-86166632D01*
X88045990Y-85923411D01*
X88157932Y-85653158D01*
X88215000Y-85366260D01*
X88215000Y-85073740D01*
X88157932Y-84786842D01*
X88045990Y-84516589D01*
X87883475Y-84273368D01*
X87676632Y-84066525D01*
X87502240Y-83950000D01*
X87676632Y-83833475D01*
X87883475Y-83626632D01*
X88045990Y-83383411D01*
X88157932Y-83113158D01*
X88215000Y-82826260D01*
X88215000Y-82533740D01*
X88157932Y-82246842D01*
X88045990Y-81976589D01*
X87883475Y-81733368D01*
X87676632Y-81526525D01*
X87502240Y-81410000D01*
X87676632Y-81293475D01*
X87883475Y-81086632D01*
X88008178Y-80900000D01*
X89713189Y-80900000D01*
X89827991Y-81014803D01*
X89827990Y-88696490D01*
X89824314Y-88733812D01*
X89827990Y-88771134D01*
X89827990Y-88771144D01*
X89838987Y-88882797D01*
X89869689Y-88984010D01*
X89882444Y-89026058D01*
X89953016Y-89158088D01*
X89972957Y-89182386D01*
X90047989Y-89273813D01*
X90076993Y-89297616D01*
X91439981Y-90660605D01*
X91439980Y-92366968D01*
X91436304Y-92404291D01*
X91439980Y-92441613D01*
X91439980Y-92441623D01*
X91450977Y-92553276D01*
X91492758Y-92691013D01*
X91494434Y-92696537D01*
X91565006Y-92828567D01*
X91584947Y-92852865D01*
X91659979Y-92944292D01*
X91688983Y-92968095D01*
X93940001Y-95219114D01*
X93940000Y-95935679D01*
X93936324Y-95973002D01*
X93940000Y-96010324D01*
X93940000Y-96010334D01*
X93950997Y-96121987D01*
X93986796Y-96240001D01*
X93994454Y-96265248D01*
X94065026Y-96397278D01*
X94082585Y-96418673D01*
X94159999Y-96513003D01*
X94189002Y-96536805D01*
X94788199Y-97136003D01*
X94811998Y-97165002D01*
X94927723Y-97259975D01*
X95059752Y-97330547D01*
X95203013Y-97374004D01*
X95314666Y-97385001D01*
X95314676Y-97385001D01*
X95351999Y-97388677D01*
X95389322Y-97385001D01*
X97437677Y-97385001D01*
X97474999Y-97388677D01*
X97512321Y-97385001D01*
X97512332Y-97385001D01*
X97623985Y-97374004D01*
X97767246Y-97330547D01*
X97899275Y-97259975D01*
X98015000Y-97165002D01*
X98038802Y-97135999D01*
X98039801Y-97135000D01*
X98101939Y-97135000D01*
X98301898Y-97095226D01*
X98490256Y-97017205D01*
X98659774Y-96903937D01*
X98803937Y-96759774D01*
X98917205Y-96590256D01*
X98995226Y-96401898D01*
X99035000Y-96201939D01*
X99035000Y-95998061D01*
X99016308Y-95904088D01*
X99095695Y-95871205D01*
X99265213Y-95757937D01*
X99409376Y-95613774D01*
X99522644Y-95444256D01*
X99600665Y-95255898D01*
X99624713Y-95135000D01*
X99701939Y-95135000D01*
X99901898Y-95095226D01*
X100090256Y-95017205D01*
X100196649Y-94946116D01*
X99555060Y-95587705D01*
X99521143Y-95615540D01*
X99493308Y-95649457D01*
X99493306Y-95649459D01*
X99410049Y-95750908D01*
X99327499Y-95905347D01*
X99276665Y-96072925D01*
X99259501Y-96247199D01*
X99263802Y-96290869D01*
X99263801Y-97659532D01*
X99235596Y-97701744D01*
X99157575Y-97890102D01*
X99117801Y-98090061D01*
X99117801Y-98293939D01*
X99157575Y-98493898D01*
X99235596Y-98682256D01*
X99348864Y-98851774D01*
X99493027Y-98995937D01*
X99662545Y-99109205D01*
X99850903Y-99187226D01*
X100050862Y-99227000D01*
X100254740Y-99227000D01*
X100454699Y-99187226D01*
X100643057Y-99109205D01*
X100812575Y-98995937D01*
X100956738Y-98851774D01*
X101070006Y-98682256D01*
X101148027Y-98493898D01*
X101187801Y-98293939D01*
X101187801Y-98090061D01*
X101148027Y-97890102D01*
X101070006Y-97701744D01*
X101041801Y-97659532D01*
X101041801Y-96615434D01*
X103052106Y-94605130D01*
X103101898Y-94595226D01*
X103290256Y-94517205D01*
X103459774Y-94403937D01*
X103603937Y-94259774D01*
X103717205Y-94090256D01*
X103795226Y-93901898D01*
X103835000Y-93701939D01*
X103835000Y-93498061D01*
X103795226Y-93298102D01*
X103717205Y-93109744D01*
X103603937Y-92940226D01*
X103459774Y-92796063D01*
X103290256Y-92682795D01*
X103101898Y-92604774D01*
X102901939Y-92565000D01*
X102698061Y-92565000D01*
X102498102Y-92604774D01*
X102309744Y-92682795D01*
X102140226Y-92796063D01*
X101996063Y-92940226D01*
X101882795Y-93109744D01*
X101804774Y-93298102D01*
X101794870Y-93347894D01*
X100446116Y-94696649D01*
X100517205Y-94590256D01*
X100595226Y-94401898D01*
X100635000Y-94201939D01*
X100635000Y-93998061D01*
X100595226Y-93798102D01*
X100517205Y-93609744D01*
X100403937Y-93440226D01*
X100259774Y-93296063D01*
X100090256Y-93182795D01*
X99901898Y-93104774D01*
X99701939Y-93065000D01*
X99498061Y-93065000D01*
X99298102Y-93104774D01*
X99109744Y-93182795D01*
X99067532Y-93211000D01*
X96536203Y-93211000D01*
X96493153Y-93219563D01*
X96449488Y-93223864D01*
X96407499Y-93236601D01*
X96364450Y-93245164D01*
X96323905Y-93261959D01*
X96281911Y-93274697D01*
X96243205Y-93295386D01*
X96202663Y-93312179D01*
X96166177Y-93336558D01*
X96133660Y-93353939D01*
X94342346Y-91562626D01*
X94342346Y-90998061D01*
X98765000Y-90998061D01*
X98765000Y-91201939D01*
X98804774Y-91401898D01*
X98882795Y-91590256D01*
X98996063Y-91759774D01*
X99140226Y-91903937D01*
X99309744Y-92017205D01*
X99498102Y-92095226D01*
X99698061Y-92135000D01*
X99901939Y-92135000D01*
X100101898Y-92095226D01*
X100290256Y-92017205D01*
X100459774Y-91903937D01*
X100603937Y-91759774D01*
X100717205Y-91590256D01*
X100795226Y-91401898D01*
X100835000Y-91201939D01*
X100835000Y-90998061D01*
X100801419Y-90829239D01*
X101545660Y-90084999D01*
X101607797Y-90084999D01*
X101807756Y-90045225D01*
X101996114Y-89967204D01*
X102165632Y-89853936D01*
X102309795Y-89709773D01*
X102423063Y-89540255D01*
X102501084Y-89351897D01*
X102540858Y-89151938D01*
X102540858Y-88948060D01*
X102501084Y-88748101D01*
X102423063Y-88559743D01*
X102309795Y-88390225D01*
X102165632Y-88246062D01*
X101996114Y-88132794D01*
X101807756Y-88054773D01*
X101607797Y-88014999D01*
X101403919Y-88014999D01*
X101203960Y-88054773D01*
X101015602Y-88132794D01*
X100846084Y-88246062D01*
X100701921Y-88390225D01*
X100588653Y-88559743D01*
X100510632Y-88748101D01*
X100470858Y-88948060D01*
X100470858Y-89010197D01*
X99289003Y-90192053D01*
X99259999Y-90215856D01*
X99259677Y-90216249D01*
X99140226Y-90296063D01*
X98996063Y-90440226D01*
X98882795Y-90609744D01*
X98804774Y-90798102D01*
X98765000Y-90998061D01*
X94342346Y-90998061D01*
X94342346Y-90086057D01*
X94386283Y-90042120D01*
X94499551Y-89872602D01*
X94577572Y-89684244D01*
X94617346Y-89484285D01*
X94617346Y-89280407D01*
X94577572Y-89080448D01*
X94499551Y-88892090D01*
X94386283Y-88722572D01*
X94242120Y-88578409D01*
X94072602Y-88465141D01*
X93884244Y-88387120D01*
X93684285Y-88347346D01*
X93480407Y-88347346D01*
X93280448Y-88387120D01*
X93092090Y-88465141D01*
X92922572Y-88578409D01*
X92851390Y-88649591D01*
X92248010Y-88046211D01*
X92248010Y-84211721D01*
X92340226Y-84303937D01*
X92509744Y-84417205D01*
X92698102Y-84495226D01*
X92898061Y-84535000D01*
X93101939Y-84535000D01*
X93301898Y-84495226D01*
X93490256Y-84417205D01*
X93659774Y-84303937D01*
X93703711Y-84260000D01*
X109750130Y-84260000D01*
X109760498Y-84294180D01*
X109819463Y-84404494D01*
X109898815Y-84501185D01*
X109995506Y-84580537D01*
X110105820Y-84639502D01*
X110178380Y-84661513D01*
X110046525Y-84793368D01*
X109884010Y-85036589D01*
X109772068Y-85306842D01*
X109715000Y-85593740D01*
X109715000Y-85886260D01*
X109772068Y-86173158D01*
X109884010Y-86443411D01*
X110046525Y-86686632D01*
X110253368Y-86893475D01*
X110427760Y-87010000D01*
X110253368Y-87126525D01*
X110046525Y-87333368D01*
X109884010Y-87576589D01*
X109772068Y-87846842D01*
X109715000Y-88133740D01*
X109715000Y-88426260D01*
X109728523Y-88494242D01*
X108743238Y-89479527D01*
X108695904Y-89432193D01*
X108526386Y-89318925D01*
X108338028Y-89240904D01*
X108288235Y-89231000D01*
X108263857Y-89206622D01*
X108263857Y-88032305D01*
X108292062Y-87990093D01*
X108370083Y-87801735D01*
X108409857Y-87601776D01*
X108409857Y-87397898D01*
X108370083Y-87197939D01*
X108292062Y-87009581D01*
X108178794Y-86840063D01*
X108034631Y-86695900D01*
X107865113Y-86582632D01*
X107676755Y-86504611D01*
X107476796Y-86464837D01*
X107272918Y-86464837D01*
X107072959Y-86504611D01*
X106884601Y-86582632D01*
X106715083Y-86695900D01*
X106570920Y-86840063D01*
X106457652Y-87009581D01*
X106379631Y-87197939D01*
X106339857Y-87397898D01*
X106339857Y-87601776D01*
X106379631Y-87801735D01*
X106457652Y-87990093D01*
X106485857Y-88032305D01*
X106485858Y-89531187D01*
X106481557Y-89574857D01*
X106498721Y-89749131D01*
X106549555Y-89916709D01*
X106632105Y-90071148D01*
X106705439Y-90160505D01*
X106743199Y-90206516D01*
X106777116Y-90234351D01*
X107031000Y-90488235D01*
X107040904Y-90538028D01*
X107118925Y-90726386D01*
X107232193Y-90895904D01*
X107279527Y-90943238D01*
X107002264Y-91220501D01*
X106968341Y-91248341D01*
X106857247Y-91383710D01*
X106774697Y-91538150D01*
X106760431Y-91585181D01*
X106732586Y-91676975D01*
X106723864Y-91705727D01*
X106711000Y-91836334D01*
X106711000Y-91836340D01*
X106706700Y-91880000D01*
X106711000Y-91923660D01*
X106711001Y-95831764D01*
X102702264Y-99840501D01*
X102668341Y-99868341D01*
X102557247Y-100003710D01*
X102474697Y-100158150D01*
X102444711Y-100257001D01*
X99373447Y-100257001D01*
X97942938Y-98826493D01*
X97854968Y-98661911D01*
X97712133Y-98487867D01*
X97538089Y-98345032D01*
X97339523Y-98238897D01*
X97124067Y-98173539D01*
X96956146Y-98157000D01*
X96900000Y-98151470D01*
X96843854Y-98157000D01*
X94673445Y-98157000D01*
X94339927Y-97823482D01*
X94304132Y-97779866D01*
X94130088Y-97637031D01*
X93931522Y-97530896D01*
X93716066Y-97465538D01*
X93548145Y-97448999D01*
X93548138Y-97448999D01*
X93491999Y-97443470D01*
X93435860Y-97448999D01*
X92743854Y-97448999D01*
X92575933Y-97465538D01*
X92360477Y-97530896D01*
X92161911Y-97637031D01*
X91987867Y-97779866D01*
X91845032Y-97953910D01*
X91738897Y-98152476D01*
X91673539Y-98367932D01*
X91651470Y-98591999D01*
X91673539Y-98816066D01*
X91738897Y-99031522D01*
X91845032Y-99230088D01*
X91930986Y-99334822D01*
X91904774Y-99398102D01*
X91865000Y-99598061D01*
X91865000Y-99801939D01*
X91904774Y-100001898D01*
X91982795Y-100190256D01*
X92096063Y-100359774D01*
X92240226Y-100503937D01*
X92409744Y-100617205D01*
X92598102Y-100695226D01*
X92798061Y-100735000D01*
X92860199Y-100735000D01*
X94711000Y-102585802D01*
X94711000Y-102587559D01*
X94745164Y-102759312D01*
X94812179Y-102921099D01*
X94909469Y-103066704D01*
X95033296Y-103190531D01*
X95178901Y-103287821D01*
X95340688Y-103354836D01*
X95512441Y-103389000D01*
X95687559Y-103389000D01*
X95859312Y-103354836D01*
X96021099Y-103287821D01*
X96166704Y-103190531D01*
X96290531Y-103066704D01*
X96387821Y-102921099D01*
X96454836Y-102759312D01*
X96489000Y-102587559D01*
X96489000Y-102412441D01*
X96454836Y-102240688D01*
X96387821Y-102078901D01*
X96290531Y-101933296D01*
X96166704Y-101809469D01*
X96021099Y-101712179D01*
X95962855Y-101688053D01*
X94717801Y-100443000D01*
X96326555Y-100443000D01*
X98052076Y-102168522D01*
X98087868Y-102212134D01*
X98261912Y-102354969D01*
X98391312Y-102424134D01*
X98460477Y-102461104D01*
X98600924Y-102503708D01*
X98675934Y-102526462D01*
X98843855Y-102543001D01*
X98843862Y-102543001D01*
X98900001Y-102548530D01*
X98956140Y-102543001D01*
X99699764Y-102543001D01*
X99641765Y-102601000D01*
X97521820Y-102601000D01*
X97478160Y-102596700D01*
X97434500Y-102601000D01*
X97434493Y-102601000D01*
X97321461Y-102612133D01*
X97303885Y-102613864D01*
X97266176Y-102625303D01*
X97136309Y-102664697D01*
X96981869Y-102747247D01*
X96981867Y-102747248D01*
X96981868Y-102747248D01*
X96886244Y-102825725D01*
X96846501Y-102858341D01*
X96818665Y-102892259D01*
X96010264Y-103700660D01*
X95976342Y-103728500D01*
X95865248Y-103863869D01*
X95782698Y-104018309D01*
X95731865Y-104185886D01*
X95719001Y-104316493D01*
X95719001Y-104316499D01*
X95714701Y-104360159D01*
X95719001Y-104403819D01*
X95719002Y-106183371D01*
X95715918Y-106186455D01*
X95602650Y-106355973D01*
X95524629Y-106544331D01*
X95503963Y-106648226D01*
X93216445Y-104360709D01*
X93172689Y-104307392D01*
X92959968Y-104132817D01*
X92717276Y-104003096D01*
X92453941Y-103923214D01*
X92248706Y-103903000D01*
X92180081Y-103896241D01*
X92111456Y-103903000D01*
X90031375Y-103903000D01*
X89826140Y-103923214D01*
X89562805Y-104003096D01*
X89320113Y-104132817D01*
X89107392Y-104307392D01*
X88932817Y-104520113D01*
X88803096Y-104762805D01*
X88723214Y-105026140D01*
X88696241Y-105300000D01*
X88723214Y-105573860D01*
X88803096Y-105837195D01*
X88876754Y-105975000D01*
X88772998Y-105975000D01*
X88772998Y-106133748D01*
X88614250Y-105975000D01*
X88050000Y-105971928D01*
X87925518Y-105984188D01*
X87805820Y-106020498D01*
X87695506Y-106079463D01*
X87598815Y-106158815D01*
X87519463Y-106255506D01*
X87460498Y-106365820D01*
X87438487Y-106438380D01*
X87306632Y-106306525D01*
X87063411Y-106144010D01*
X86793158Y-106032068D01*
X86506260Y-105975000D01*
X86213740Y-105975000D01*
X85926842Y-106032068D01*
X85656589Y-106144010D01*
X85413368Y-106306525D01*
X85206525Y-106513368D01*
X85044010Y-106756589D01*
X84932068Y-107026842D01*
X84875000Y-107313740D01*
X84875000Y-107606260D01*
X84932068Y-107893158D01*
X85044010Y-108163411D01*
X85206525Y-108406632D01*
X85413368Y-108613475D01*
X85587760Y-108730000D01*
X85413368Y-108846525D01*
X85206525Y-109053368D01*
X85044010Y-109296589D01*
X84932068Y-109566842D01*
X84875000Y-109853740D01*
X84875000Y-110146260D01*
X84932068Y-110433158D01*
X85044010Y-110703411D01*
X85206525Y-110946632D01*
X85413368Y-111153475D01*
X85655107Y-111315000D01*
X83685000Y-111315000D01*
X83685000Y-103850000D01*
X85241928Y-103850000D01*
X85254188Y-103974482D01*
X85290498Y-104094180D01*
X85349463Y-104204494D01*
X85428815Y-104301185D01*
X85525506Y-104380537D01*
X85635820Y-104439502D01*
X85755518Y-104475812D01*
X85880000Y-104488072D01*
X86444250Y-104485000D01*
X86603000Y-104326250D01*
X86603000Y-103127000D01*
X86857000Y-103127000D01*
X86857000Y-104326250D01*
X87015750Y-104485000D01*
X87580000Y-104488072D01*
X87704482Y-104475812D01*
X87824180Y-104439502D01*
X87934494Y-104380537D01*
X88031185Y-104301185D01*
X88110537Y-104204494D01*
X88169502Y-104094180D01*
X88205812Y-103974482D01*
X88218072Y-103850000D01*
X88215000Y-103285750D01*
X88056250Y-103127000D01*
X86857000Y-103127000D01*
X86603000Y-103127000D01*
X85403750Y-103127000D01*
X85245000Y-103285750D01*
X85241928Y-103850000D01*
X83685000Y-103850000D01*
X83685000Y-63125000D01*
X92433107Y-63125000D01*
X92191368Y-63286525D01*
G36*
X108298990Y-102643775D02*
G01*
X108247895Y-102694870D01*
X108198102Y-102704774D01*
X108009744Y-102782795D01*
X107840226Y-102896063D01*
X107696063Y-103040226D01*
X107582795Y-103209744D01*
X107504774Y-103398102D01*
X107465000Y-103598061D01*
X107465000Y-103801939D01*
X107504774Y-104001898D01*
X107582795Y-104190256D01*
X107696063Y-104359774D01*
X107840226Y-104503937D01*
X108009744Y-104617205D01*
X108198102Y-104695226D01*
X108398061Y-104735000D01*
X108601939Y-104735000D01*
X108801898Y-104695226D01*
X108990256Y-104617205D01*
X109007000Y-104606017D01*
X109007000Y-108305764D01*
X108654242Y-108658523D01*
X108586260Y-108645000D01*
X108293740Y-108645000D01*
X108006842Y-108702068D01*
X107736589Y-108814010D01*
X107493368Y-108976525D01*
X107361513Y-109108380D01*
X107339502Y-109035820D01*
X107280537Y-108925506D01*
X107201185Y-108828815D01*
X107104494Y-108749463D01*
X106994180Y-108690498D01*
X106874482Y-108654188D01*
X106750000Y-108641928D01*
X105050000Y-108641928D01*
X104925518Y-108654188D01*
X104805820Y-108690498D01*
X104695506Y-108749463D01*
X104598815Y-108828815D01*
X104519463Y-108925506D01*
X104460498Y-109035820D01*
X104454020Y-109057176D01*
X104451475Y-109053368D01*
X104244632Y-108846525D01*
X104001411Y-108684010D01*
X103731158Y-108572068D01*
X103444260Y-108515000D01*
X103151740Y-108515000D01*
X102864842Y-108572068D01*
X102594589Y-108684010D01*
X102351368Y-108846525D01*
X102144525Y-109053368D01*
X102028000Y-109227760D01*
X101911475Y-109053368D01*
X101704632Y-108846525D01*
X101461411Y-108684010D01*
X101191158Y-108572068D01*
X100904260Y-108515000D01*
X100611740Y-108515000D01*
X100543758Y-108528523D01*
X99230979Y-107215744D01*
X99246283Y-107218788D01*
X99265585Y-107234629D01*
X99420025Y-107317179D01*
X99503565Y-107342520D01*
X99587601Y-107368012D01*
X99604201Y-107369647D01*
X99718209Y-107380876D01*
X99718216Y-107380876D01*
X99761876Y-107385176D01*
X99805536Y-107380876D01*
X102918698Y-107380876D01*
X102960910Y-107409081D01*
X103149268Y-107487102D01*
X103349227Y-107526876D01*
X103553105Y-107526876D01*
X103753064Y-107487102D01*
X103941422Y-107409081D01*
X104110940Y-107295813D01*
X104255103Y-107151650D01*
X104368371Y-106982132D01*
X104446392Y-106793774D01*
X104486166Y-106593815D01*
X104486166Y-106389937D01*
X104446392Y-106189978D01*
X104368371Y-106001620D01*
X104255103Y-105832102D01*
X104110940Y-105687939D01*
X103941422Y-105574671D01*
X103753064Y-105496650D01*
X103553105Y-105456876D01*
X103349227Y-105456876D01*
X103149268Y-105496650D01*
X102960910Y-105574671D01*
X102918698Y-105602876D01*
X100319117Y-105602876D01*
X100283937Y-105550226D01*
X100139774Y-105406063D01*
X99970256Y-105292795D01*
X99781898Y-105214774D01*
X99581939Y-105175000D01*
X99378061Y-105175000D01*
X99178102Y-105214774D01*
X98989744Y-105292795D01*
X98820226Y-105406063D01*
X98676063Y-105550226D01*
X98562795Y-105719744D01*
X98484774Y-105908102D01*
X98445000Y-106108061D01*
X98445000Y-106311939D01*
X98474256Y-106459021D01*
X98263728Y-106248493D01*
X98235888Y-106214570D01*
X98100520Y-106103476D01*
X97946080Y-106020926D01*
X97778503Y-105970093D01*
X97647896Y-105957229D01*
X97647889Y-105957229D01*
X97604229Y-105952929D01*
X97560569Y-105957229D01*
X97497001Y-105957229D01*
X97497001Y-104728394D01*
X97846396Y-104379000D01*
X99966340Y-104379000D01*
X100010000Y-104383300D01*
X100053660Y-104379000D01*
X100053667Y-104379000D01*
X100184274Y-104366136D01*
X100351851Y-104315303D01*
X100506291Y-104232753D01*
X100641659Y-104121659D01*
X100669499Y-104087737D01*
X100941065Y-103816171D01*
X100958148Y-103825302D01*
X101013693Y-103842151D01*
X101125724Y-103876135D01*
X101144072Y-103877942D01*
X101256332Y-103888999D01*
X101256338Y-103888999D01*
X101299998Y-103893299D01*
X101343658Y-103888999D01*
X103416828Y-103888999D01*
X103460488Y-103893299D01*
X103504148Y-103888999D01*
X103504155Y-103888999D01*
X103634762Y-103876135D01*
X103802339Y-103825302D01*
X103956779Y-103742752D01*
X104092147Y-103631658D01*
X104119987Y-103597735D01*
X104859746Y-102857976D01*
X104893669Y-102830136D01*
X105004763Y-102694768D01*
X105087313Y-102540328D01*
X105122077Y-102425726D01*
X105138146Y-102372753D01*
X105148339Y-102269260D01*
X105151010Y-102242144D01*
X105151010Y-102242138D01*
X105155310Y-102198478D01*
X105151010Y-102154818D01*
X105151010Y-100907502D01*
X108298989Y-97759523D01*
X108298990Y-102643775D01*
G37*
X108298990Y-102643775D02*
X108247895Y-102694870D01*
X108198102Y-102704774D01*
X108009744Y-102782795D01*
X107840226Y-102896063D01*
X107696063Y-103040226D01*
X107582795Y-103209744D01*
X107504774Y-103398102D01*
X107465000Y-103598061D01*
X107465000Y-103801939D01*
X107504774Y-104001898D01*
X107582795Y-104190256D01*
X107696063Y-104359774D01*
X107840226Y-104503937D01*
X108009744Y-104617205D01*
X108198102Y-104695226D01*
X108398061Y-104735000D01*
X108601939Y-104735000D01*
X108801898Y-104695226D01*
X108990256Y-104617205D01*
X109007000Y-104606017D01*
X109007000Y-108305764D01*
X108654242Y-108658523D01*
X108586260Y-108645000D01*
X108293740Y-108645000D01*
X108006842Y-108702068D01*
X107736589Y-108814010D01*
X107493368Y-108976525D01*
X107361513Y-109108380D01*
X107339502Y-109035820D01*
X107280537Y-108925506D01*
X107201185Y-108828815D01*
X107104494Y-108749463D01*
X106994180Y-108690498D01*
X106874482Y-108654188D01*
X106750000Y-108641928D01*
X105050000Y-108641928D01*
X104925518Y-108654188D01*
X104805820Y-108690498D01*
X104695506Y-108749463D01*
X104598815Y-108828815D01*
X104519463Y-108925506D01*
X104460498Y-109035820D01*
X104454020Y-109057176D01*
X104451475Y-109053368D01*
X104244632Y-108846525D01*
X104001411Y-108684010D01*
X103731158Y-108572068D01*
X103444260Y-108515000D01*
X103151740Y-108515000D01*
X102864842Y-108572068D01*
X102594589Y-108684010D01*
X102351368Y-108846525D01*
X102144525Y-109053368D01*
X102028000Y-109227760D01*
X101911475Y-109053368D01*
X101704632Y-108846525D01*
X101461411Y-108684010D01*
X101191158Y-108572068D01*
X100904260Y-108515000D01*
X100611740Y-108515000D01*
X100543758Y-108528523D01*
X99230979Y-107215744D01*
X99246283Y-107218788D01*
X99265585Y-107234629D01*
X99420025Y-107317179D01*
X99503565Y-107342520D01*
X99587601Y-107368012D01*
X99604201Y-107369647D01*
X99718209Y-107380876D01*
X99718216Y-107380876D01*
X99761876Y-107385176D01*
X99805536Y-107380876D01*
X102918698Y-107380876D01*
X102960910Y-107409081D01*
X103149268Y-107487102D01*
X103349227Y-107526876D01*
X103553105Y-107526876D01*
X103753064Y-107487102D01*
X103941422Y-107409081D01*
X104110940Y-107295813D01*
X104255103Y-107151650D01*
X104368371Y-106982132D01*
X104446392Y-106793774D01*
X104486166Y-106593815D01*
X104486166Y-106389937D01*
X104446392Y-106189978D01*
X104368371Y-106001620D01*
X104255103Y-105832102D01*
X104110940Y-105687939D01*
X103941422Y-105574671D01*
X103753064Y-105496650D01*
X103553105Y-105456876D01*
X103349227Y-105456876D01*
X103149268Y-105496650D01*
X102960910Y-105574671D01*
X102918698Y-105602876D01*
X100319117Y-105602876D01*
X100283937Y-105550226D01*
X100139774Y-105406063D01*
X99970256Y-105292795D01*
X99781898Y-105214774D01*
X99581939Y-105175000D01*
X99378061Y-105175000D01*
X99178102Y-105214774D01*
X98989744Y-105292795D01*
X98820226Y-105406063D01*
X98676063Y-105550226D01*
X98562795Y-105719744D01*
X98484774Y-105908102D01*
X98445000Y-106108061D01*
X98445000Y-106311939D01*
X98474256Y-106459021D01*
X98263728Y-106248493D01*
X98235888Y-106214570D01*
X98100520Y-106103476D01*
X97946080Y-106020926D01*
X97778503Y-105970093D01*
X97647896Y-105957229D01*
X97647889Y-105957229D01*
X97604229Y-105952929D01*
X97560569Y-105957229D01*
X97497001Y-105957229D01*
X97497001Y-104728394D01*
X97846396Y-104379000D01*
X99966340Y-104379000D01*
X100010000Y-104383300D01*
X100053660Y-104379000D01*
X100053667Y-104379000D01*
X100184274Y-104366136D01*
X100351851Y-104315303D01*
X100506291Y-104232753D01*
X100641659Y-104121659D01*
X100669499Y-104087737D01*
X100941065Y-103816171D01*
X100958148Y-103825302D01*
X101013693Y-103842151D01*
X101125724Y-103876135D01*
X101144072Y-103877942D01*
X101256332Y-103888999D01*
X101256338Y-103888999D01*
X101299998Y-103893299D01*
X101343658Y-103888999D01*
X103416828Y-103888999D01*
X103460488Y-103893299D01*
X103504148Y-103888999D01*
X103504155Y-103888999D01*
X103634762Y-103876135D01*
X103802339Y-103825302D01*
X103956779Y-103742752D01*
X104092147Y-103631658D01*
X104119987Y-103597735D01*
X104859746Y-102857976D01*
X104893669Y-102830136D01*
X105004763Y-102694768D01*
X105087313Y-102540328D01*
X105122077Y-102425726D01*
X105138146Y-102372753D01*
X105148339Y-102269260D01*
X105151010Y-102242144D01*
X105151010Y-102242138D01*
X105155310Y-102198478D01*
X105151010Y-102154818D01*
X105151010Y-100907502D01*
X108298989Y-97759523D01*
X108298990Y-102643775D01*
G36*
X98025052Y-108524287D02*
G01*
X97784842Y-108572068D01*
X97514589Y-108684010D01*
X97271368Y-108846525D01*
X97075000Y-109042893D01*
X97075000Y-108866543D01*
X97081759Y-108797918D01*
X97054786Y-108524059D01*
X97019165Y-108406632D01*
X96974904Y-108260724D01*
X96845183Y-108018032D01*
X96717319Y-107862228D01*
X96821753Y-107841455D01*
X97010111Y-107763434D01*
X97052323Y-107735229D01*
X97235994Y-107735229D01*
X98025052Y-108524287D01*
G37*
X98025052Y-108524287D02*
X97784842Y-108572068D01*
X97514589Y-108684010D01*
X97271368Y-108846525D01*
X97075000Y-109042893D01*
X97075000Y-108866543D01*
X97081759Y-108797918D01*
X97054786Y-108524059D01*
X97019165Y-108406632D01*
X96974904Y-108260724D01*
X96845183Y-108018032D01*
X96717319Y-107862228D01*
X96821753Y-107841455D01*
X97010111Y-107763434D01*
X97052323Y-107735229D01*
X97235994Y-107735229D01*
X98025052Y-108524287D01*
G36*
X114315001Y-108875208D02*
G01*
X114223411Y-108814010D01*
X113953158Y-108702068D01*
X113666260Y-108645000D01*
X113393460Y-108645000D01*
X113397301Y-108605999D01*
X113393001Y-108562339D01*
X113393001Y-104227661D01*
X113397301Y-104184001D01*
X113393001Y-104140341D01*
X113393001Y-104140334D01*
X113380137Y-104009727D01*
X113374781Y-103992068D01*
X113345712Y-103896241D01*
X113329304Y-103842150D01*
X113246754Y-103687710D01*
X113135660Y-103552342D01*
X113101744Y-103524508D01*
X112671477Y-103094242D01*
X112685000Y-103026260D01*
X112685000Y-102733740D01*
X112627932Y-102446842D01*
X112515990Y-102176589D01*
X112353475Y-101933368D01*
X112146632Y-101726525D01*
X111972240Y-101610000D01*
X112146632Y-101493475D01*
X112353475Y-101286632D01*
X112515990Y-101043411D01*
X112627932Y-100773158D01*
X112685000Y-100486260D01*
X112685000Y-100193740D01*
X112627932Y-99906842D01*
X112515990Y-99636589D01*
X112353475Y-99393368D01*
X112221620Y-99261513D01*
X112294180Y-99239502D01*
X112404494Y-99180537D01*
X112501185Y-99101185D01*
X112580537Y-99004494D01*
X112639502Y-98894180D01*
X112675812Y-98774482D01*
X112688072Y-98650000D01*
X112688072Y-96950000D01*
X112675812Y-96825518D01*
X112639502Y-96705820D01*
X112580537Y-96595506D01*
X112501185Y-96498815D01*
X112404494Y-96419463D01*
X112294180Y-96360498D01*
X112174482Y-96324188D01*
X112050000Y-96311928D01*
X111428105Y-96311928D01*
X113101743Y-94638291D01*
X113135660Y-94610456D01*
X113246754Y-94475088D01*
X113329304Y-94320648D01*
X113351203Y-94248454D01*
X113380137Y-94153073D01*
X113391589Y-94036795D01*
X113393001Y-94022464D01*
X113393001Y-94022458D01*
X113397301Y-93978798D01*
X113393001Y-93935138D01*
X113393001Y-73967661D01*
X113397301Y-73924001D01*
X113393001Y-73880341D01*
X113393001Y-73880334D01*
X113380137Y-73749727D01*
X113329304Y-73582150D01*
X113246754Y-73427710D01*
X113135660Y-73292342D01*
X113101744Y-73264508D01*
X112671477Y-72834242D01*
X112685000Y-72766260D01*
X112685000Y-72473740D01*
X112627932Y-72186842D01*
X112515990Y-71916589D01*
X112353475Y-71673368D01*
X112146632Y-71466525D01*
X111972240Y-71350000D01*
X112146632Y-71233475D01*
X112353475Y-71026632D01*
X112515990Y-70783411D01*
X112627932Y-70513158D01*
X112685000Y-70226260D01*
X112685000Y-69933740D01*
X112627932Y-69646842D01*
X112515990Y-69376589D01*
X112353475Y-69133368D01*
X112146632Y-68926525D01*
X111972240Y-68810000D01*
X112146632Y-68693475D01*
X112353475Y-68486632D01*
X112515990Y-68243411D01*
X112627932Y-67973158D01*
X112685000Y-67686260D01*
X112685000Y-67393740D01*
X112627932Y-67106842D01*
X112515990Y-66836589D01*
X112353475Y-66593368D01*
X112221620Y-66461513D01*
X112294180Y-66439502D01*
X112404494Y-66380537D01*
X112501185Y-66301185D01*
X112580537Y-66204494D01*
X112639502Y-66094180D01*
X112675812Y-65974482D01*
X112688072Y-65850000D01*
X112688072Y-64150000D01*
X112675812Y-64025518D01*
X112639502Y-63905820D01*
X112580537Y-63795506D01*
X112501185Y-63698815D01*
X112404494Y-63619463D01*
X112294180Y-63560498D01*
X112174482Y-63524188D01*
X112050000Y-63511928D01*
X110350000Y-63511928D01*
X110225518Y-63524188D01*
X110105820Y-63560498D01*
X109995506Y-63619463D01*
X109898815Y-63698815D01*
X109819463Y-63795506D01*
X109760498Y-63905820D01*
X109724188Y-64025518D01*
X109711928Y-64150000D01*
X109711928Y-65305011D01*
X104784594Y-65305011D01*
X104786072Y-65290000D01*
X104786072Y-63590000D01*
X104773812Y-63465518D01*
X104737502Y-63345820D01*
X104678537Y-63235506D01*
X104599185Y-63138815D01*
X104582351Y-63125000D01*
X114315000Y-63125000D01*
X114315001Y-108875208D01*
G37*
X114315001Y-108875208D02*
X114223411Y-108814010D01*
X113953158Y-108702068D01*
X113666260Y-108645000D01*
X113393460Y-108645000D01*
X113397301Y-108605999D01*
X113393001Y-108562339D01*
X113393001Y-104227661D01*
X113397301Y-104184001D01*
X113393001Y-104140341D01*
X113393001Y-104140334D01*
X113380137Y-104009727D01*
X113374781Y-103992068D01*
X113345712Y-103896241D01*
X113329304Y-103842150D01*
X113246754Y-103687710D01*
X113135660Y-103552342D01*
X113101744Y-103524508D01*
X112671477Y-103094242D01*
X112685000Y-103026260D01*
X112685000Y-102733740D01*
X112627932Y-102446842D01*
X112515990Y-102176589D01*
X112353475Y-101933368D01*
X112146632Y-101726525D01*
X111972240Y-101610000D01*
X112146632Y-101493475D01*
X112353475Y-101286632D01*
X112515990Y-101043411D01*
X112627932Y-100773158D01*
X112685000Y-100486260D01*
X112685000Y-100193740D01*
X112627932Y-99906842D01*
X112515990Y-99636589D01*
X112353475Y-99393368D01*
X112221620Y-99261513D01*
X112294180Y-99239502D01*
X112404494Y-99180537D01*
X112501185Y-99101185D01*
X112580537Y-99004494D01*
X112639502Y-98894180D01*
X112675812Y-98774482D01*
X112688072Y-98650000D01*
X112688072Y-96950000D01*
X112675812Y-96825518D01*
X112639502Y-96705820D01*
X112580537Y-96595506D01*
X112501185Y-96498815D01*
X112404494Y-96419463D01*
X112294180Y-96360498D01*
X112174482Y-96324188D01*
X112050000Y-96311928D01*
X111428105Y-96311928D01*
X113101743Y-94638291D01*
X113135660Y-94610456D01*
X113246754Y-94475088D01*
X113329304Y-94320648D01*
X113351203Y-94248454D01*
X113380137Y-94153073D01*
X113391589Y-94036795D01*
X113393001Y-94022464D01*
X113393001Y-94022458D01*
X113397301Y-93978798D01*
X113393001Y-93935138D01*
X113393001Y-73967661D01*
X113397301Y-73924001D01*
X113393001Y-73880341D01*
X113393001Y-73880334D01*
X113380137Y-73749727D01*
X113329304Y-73582150D01*
X113246754Y-73427710D01*
X113135660Y-73292342D01*
X113101744Y-73264508D01*
X112671477Y-72834242D01*
X112685000Y-72766260D01*
X112685000Y-72473740D01*
X112627932Y-72186842D01*
X112515990Y-71916589D01*
X112353475Y-71673368D01*
X112146632Y-71466525D01*
X111972240Y-71350000D01*
X112146632Y-71233475D01*
X112353475Y-71026632D01*
X112515990Y-70783411D01*
X112627932Y-70513158D01*
X112685000Y-70226260D01*
X112685000Y-69933740D01*
X112627932Y-69646842D01*
X112515990Y-69376589D01*
X112353475Y-69133368D01*
X112146632Y-68926525D01*
X111972240Y-68810000D01*
X112146632Y-68693475D01*
X112353475Y-68486632D01*
X112515990Y-68243411D01*
X112627932Y-67973158D01*
X112685000Y-67686260D01*
X112685000Y-67393740D01*
X112627932Y-67106842D01*
X112515990Y-66836589D01*
X112353475Y-66593368D01*
X112221620Y-66461513D01*
X112294180Y-66439502D01*
X112404494Y-66380537D01*
X112501185Y-66301185D01*
X112580537Y-66204494D01*
X112639502Y-66094180D01*
X112675812Y-65974482D01*
X112688072Y-65850000D01*
X112688072Y-64150000D01*
X112675812Y-64025518D01*
X112639502Y-63905820D01*
X112580537Y-63795506D01*
X112501185Y-63698815D01*
X112404494Y-63619463D01*
X112294180Y-63560498D01*
X112174482Y-63524188D01*
X112050000Y-63511928D01*
X110350000Y-63511928D01*
X110225518Y-63524188D01*
X110105820Y-63560498D01*
X109995506Y-63619463D01*
X109898815Y-63698815D01*
X109819463Y-63795506D01*
X109760498Y-63905820D01*
X109724188Y-64025518D01*
X109711928Y-64150000D01*
X109711928Y-65305011D01*
X104784594Y-65305011D01*
X104786072Y-65290000D01*
X104786072Y-63590000D01*
X104773812Y-63465518D01*
X104737502Y-63345820D01*
X104678537Y-63235506D01*
X104599185Y-63138815D01*
X104582351Y-63125000D01*
X114315000Y-63125000D01*
X114315001Y-108875208D01*
G36*
X109715000Y-67393740D02*
G01*
X109715000Y-67686260D01*
X109772068Y-67973158D01*
X109884010Y-68243411D01*
X110046525Y-68486632D01*
X110253368Y-68693475D01*
X110427760Y-68810000D01*
X110253368Y-68926525D01*
X110046525Y-69133368D01*
X109884010Y-69376589D01*
X109772068Y-69646842D01*
X109715000Y-69933740D01*
X109715000Y-70226260D01*
X109772068Y-70513158D01*
X109884010Y-70783411D01*
X110046525Y-71026632D01*
X110253368Y-71233475D01*
X110427760Y-71350000D01*
X110253368Y-71466525D01*
X110046525Y-71673368D01*
X109884010Y-71916589D01*
X109772068Y-72186842D01*
X109715000Y-72473740D01*
X109715000Y-72766260D01*
X109772068Y-73053158D01*
X109884010Y-73323411D01*
X110046525Y-73566632D01*
X110253368Y-73773475D01*
X110496589Y-73935990D01*
X110766842Y-74047932D01*
X111053740Y-74105000D01*
X111346260Y-74105000D01*
X111414242Y-74091477D01*
X111615001Y-74292237D01*
X111615001Y-75011928D01*
X110350000Y-75011928D01*
X110225518Y-75024188D01*
X110105820Y-75060498D01*
X109995506Y-75119463D01*
X109898815Y-75198815D01*
X109819463Y-75295506D01*
X109760498Y-75405820D01*
X109724188Y-75525518D01*
X109711928Y-75650000D01*
X109711928Y-77350000D01*
X109724188Y-77474482D01*
X109760498Y-77594180D01*
X109819463Y-77704494D01*
X109898815Y-77801185D01*
X109995506Y-77880537D01*
X110105820Y-77939502D01*
X110178380Y-77961513D01*
X110046525Y-78093368D01*
X109884010Y-78336589D01*
X109772068Y-78606842D01*
X109715000Y-78893740D01*
X109715000Y-79186260D01*
X109772068Y-79473158D01*
X109884010Y-79743411D01*
X110046525Y-79986632D01*
X110253368Y-80193475D01*
X110496589Y-80355990D01*
X110766842Y-80467932D01*
X111053740Y-80525000D01*
X111346260Y-80525000D01*
X111615001Y-80471544D01*
X111615001Y-81711928D01*
X110350000Y-81711928D01*
X110225518Y-81724188D01*
X110105820Y-81760498D01*
X109995506Y-81819463D01*
X109898815Y-81898815D01*
X109819463Y-81995506D01*
X109760498Y-82105820D01*
X109724188Y-82225518D01*
X109711928Y-82350000D01*
X109711928Y-82740000D01*
X93703711Y-82740000D01*
X93659774Y-82696063D01*
X93490256Y-82582795D01*
X93301898Y-82504774D01*
X93101939Y-82465000D01*
X92898061Y-82465000D01*
X92698102Y-82504774D01*
X92509744Y-82582795D01*
X92340226Y-82696063D01*
X92248010Y-82788279D01*
X92248010Y-78526791D01*
X92510196Y-78264606D01*
X92559312Y-78254836D01*
X92721099Y-78187821D01*
X92866704Y-78090531D01*
X92990531Y-77966704D01*
X93087821Y-77821099D01*
X93154836Y-77659312D01*
X93189000Y-77487559D01*
X93189000Y-77312441D01*
X93174030Y-77237181D01*
X103136191Y-67275021D01*
X109738615Y-67275021D01*
X109715000Y-67393740D01*
G37*
X109715000Y-67393740D02*
X109715000Y-67686260D01*
X109772068Y-67973158D01*
X109884010Y-68243411D01*
X110046525Y-68486632D01*
X110253368Y-68693475D01*
X110427760Y-68810000D01*
X110253368Y-68926525D01*
X110046525Y-69133368D01*
X109884010Y-69376589D01*
X109772068Y-69646842D01*
X109715000Y-69933740D01*
X109715000Y-70226260D01*
X109772068Y-70513158D01*
X109884010Y-70783411D01*
X110046525Y-71026632D01*
X110253368Y-71233475D01*
X110427760Y-71350000D01*
X110253368Y-71466525D01*
X110046525Y-71673368D01*
X109884010Y-71916589D01*
X109772068Y-72186842D01*
X109715000Y-72473740D01*
X109715000Y-72766260D01*
X109772068Y-73053158D01*
X109884010Y-73323411D01*
X110046525Y-73566632D01*
X110253368Y-73773475D01*
X110496589Y-73935990D01*
X110766842Y-74047932D01*
X111053740Y-74105000D01*
X111346260Y-74105000D01*
X111414242Y-74091477D01*
X111615001Y-74292237D01*
X111615001Y-75011928D01*
X110350000Y-75011928D01*
X110225518Y-75024188D01*
X110105820Y-75060498D01*
X109995506Y-75119463D01*
X109898815Y-75198815D01*
X109819463Y-75295506D01*
X109760498Y-75405820D01*
X109724188Y-75525518D01*
X109711928Y-75650000D01*
X109711928Y-77350000D01*
X109724188Y-77474482D01*
X109760498Y-77594180D01*
X109819463Y-77704494D01*
X109898815Y-77801185D01*
X109995506Y-77880537D01*
X110105820Y-77939502D01*
X110178380Y-77961513D01*
X110046525Y-78093368D01*
X109884010Y-78336589D01*
X109772068Y-78606842D01*
X109715000Y-78893740D01*
X109715000Y-79186260D01*
X109772068Y-79473158D01*
X109884010Y-79743411D01*
X110046525Y-79986632D01*
X110253368Y-80193475D01*
X110496589Y-80355990D01*
X110766842Y-80467932D01*
X111053740Y-80525000D01*
X111346260Y-80525000D01*
X111615001Y-80471544D01*
X111615001Y-81711928D01*
X110350000Y-81711928D01*
X110225518Y-81724188D01*
X110105820Y-81760498D01*
X109995506Y-81819463D01*
X109898815Y-81898815D01*
X109819463Y-81995506D01*
X109760498Y-82105820D01*
X109724188Y-82225518D01*
X109711928Y-82350000D01*
X109711928Y-82740000D01*
X93703711Y-82740000D01*
X93659774Y-82696063D01*
X93490256Y-82582795D01*
X93301898Y-82504774D01*
X93101939Y-82465000D01*
X92898061Y-82465000D01*
X92698102Y-82504774D01*
X92509744Y-82582795D01*
X92340226Y-82696063D01*
X92248010Y-82788279D01*
X92248010Y-78526791D01*
X92510196Y-78264606D01*
X92559312Y-78254836D01*
X92721099Y-78187821D01*
X92866704Y-78090531D01*
X92990531Y-77966704D01*
X93087821Y-77821099D01*
X93154836Y-77659312D01*
X93189000Y-77487559D01*
X93189000Y-77312441D01*
X93174030Y-77237181D01*
X103136191Y-67275021D01*
X109738615Y-67275021D01*
X109715000Y-67393740D01*
G36*
X99604525Y-65386632D02*
G01*
X99811368Y-65593475D01*
X100054589Y-65755990D01*
X100324842Y-65867932D01*
X100611740Y-65925000D01*
X100904260Y-65925000D01*
X101191158Y-65867932D01*
X101461411Y-65755990D01*
X101704632Y-65593475D01*
X101836487Y-65461620D01*
X101858498Y-65534180D01*
X101917463Y-65644494D01*
X101945969Y-65679229D01*
X91089805Y-76535394D01*
X91040688Y-76545164D01*
X90878901Y-76612179D01*
X90733296Y-76709469D01*
X90609469Y-76833296D01*
X90512179Y-76978901D01*
X90445164Y-77140688D01*
X90433168Y-77200997D01*
X90403026Y-77237724D01*
X90332454Y-77369754D01*
X90288998Y-77513015D01*
X90274324Y-77662000D01*
X90278001Y-77699332D01*
X90278001Y-79421642D01*
X90176976Y-79390997D01*
X90065323Y-79380000D01*
X90065312Y-79380000D01*
X90027990Y-79376324D01*
X89990668Y-79380000D01*
X88008178Y-79380000D01*
X87883475Y-79193368D01*
X87676632Y-78986525D01*
X87502240Y-78870000D01*
X87676632Y-78753475D01*
X87883475Y-78546632D01*
X88045990Y-78303411D01*
X88157932Y-78033158D01*
X88215000Y-77746260D01*
X88215000Y-77453740D01*
X88157932Y-77166842D01*
X88045990Y-76896589D01*
X87883475Y-76653368D01*
X87676632Y-76446525D01*
X87502240Y-76330000D01*
X87676632Y-76213475D01*
X87883475Y-76006632D01*
X88045990Y-75763411D01*
X88157932Y-75493158D01*
X88215000Y-75206260D01*
X88215000Y-74913740D01*
X88157932Y-74626842D01*
X88045990Y-74356589D01*
X87883475Y-74113368D01*
X87676632Y-73906525D01*
X87502240Y-73790000D01*
X87676632Y-73673475D01*
X87883475Y-73466632D01*
X88045990Y-73223411D01*
X88157932Y-72953158D01*
X88215000Y-72666260D01*
X88215000Y-72373740D01*
X88157932Y-72086842D01*
X88045990Y-71816589D01*
X87883475Y-71573368D01*
X87676632Y-71366525D01*
X87502240Y-71250000D01*
X87676632Y-71133475D01*
X87883475Y-70926632D01*
X88045990Y-70683411D01*
X88157932Y-70413158D01*
X88215000Y-70126260D01*
X88215000Y-69833740D01*
X88157932Y-69546842D01*
X88045990Y-69276589D01*
X87883475Y-69033368D01*
X87676632Y-68826525D01*
X87433411Y-68664010D01*
X87396909Y-68648890D01*
X89220789Y-66825011D01*
X96555667Y-66825011D01*
X96592989Y-66828687D01*
X96630311Y-66825011D01*
X96630322Y-66825011D01*
X96741975Y-66814014D01*
X96885236Y-66770557D01*
X97017265Y-66699985D01*
X97132990Y-66605012D01*
X97156793Y-66576008D01*
X97851592Y-65881209D01*
X98071740Y-65925000D01*
X98364260Y-65925000D01*
X98651158Y-65867932D01*
X98921411Y-65755990D01*
X99164632Y-65593475D01*
X99371475Y-65386632D01*
X99488000Y-65212240D01*
X99604525Y-65386632D01*
G37*
X99604525Y-65386632D02*
X99811368Y-65593475D01*
X100054589Y-65755990D01*
X100324842Y-65867932D01*
X100611740Y-65925000D01*
X100904260Y-65925000D01*
X101191158Y-65867932D01*
X101461411Y-65755990D01*
X101704632Y-65593475D01*
X101836487Y-65461620D01*
X101858498Y-65534180D01*
X101917463Y-65644494D01*
X101945969Y-65679229D01*
X91089805Y-76535394D01*
X91040688Y-76545164D01*
X90878901Y-76612179D01*
X90733296Y-76709469D01*
X90609469Y-76833296D01*
X90512179Y-76978901D01*
X90445164Y-77140688D01*
X90433168Y-77200997D01*
X90403026Y-77237724D01*
X90332454Y-77369754D01*
X90288998Y-77513015D01*
X90274324Y-77662000D01*
X90278001Y-77699332D01*
X90278001Y-79421642D01*
X90176976Y-79390997D01*
X90065323Y-79380000D01*
X90065312Y-79380000D01*
X90027990Y-79376324D01*
X89990668Y-79380000D01*
X88008178Y-79380000D01*
X87883475Y-79193368D01*
X87676632Y-78986525D01*
X87502240Y-78870000D01*
X87676632Y-78753475D01*
X87883475Y-78546632D01*
X88045990Y-78303411D01*
X88157932Y-78033158D01*
X88215000Y-77746260D01*
X88215000Y-77453740D01*
X88157932Y-77166842D01*
X88045990Y-76896589D01*
X87883475Y-76653368D01*
X87676632Y-76446525D01*
X87502240Y-76330000D01*
X87676632Y-76213475D01*
X87883475Y-76006632D01*
X88045990Y-75763411D01*
X88157932Y-75493158D01*
X88215000Y-75206260D01*
X88215000Y-74913740D01*
X88157932Y-74626842D01*
X88045990Y-74356589D01*
X87883475Y-74113368D01*
X87676632Y-73906525D01*
X87502240Y-73790000D01*
X87676632Y-73673475D01*
X87883475Y-73466632D01*
X88045990Y-73223411D01*
X88157932Y-72953158D01*
X88215000Y-72666260D01*
X88215000Y-72373740D01*
X88157932Y-72086842D01*
X88045990Y-71816589D01*
X87883475Y-71573368D01*
X87676632Y-71366525D01*
X87502240Y-71250000D01*
X87676632Y-71133475D01*
X87883475Y-70926632D01*
X88045990Y-70683411D01*
X88157932Y-70413158D01*
X88215000Y-70126260D01*
X88215000Y-69833740D01*
X88157932Y-69546842D01*
X88045990Y-69276589D01*
X87883475Y-69033368D01*
X87676632Y-68826525D01*
X87433411Y-68664010D01*
X87396909Y-68648890D01*
X89220789Y-66825011D01*
X96555667Y-66825011D01*
X96592989Y-66828687D01*
X96630311Y-66825011D01*
X96630322Y-66825011D01*
X96741975Y-66814014D01*
X96885236Y-66770557D01*
X97017265Y-66699985D01*
X97132990Y-66605012D01*
X97156793Y-66576008D01*
X97851592Y-65881209D01*
X98071740Y-65925000D01*
X98364260Y-65925000D01*
X98651158Y-65867932D01*
X98921411Y-65755990D01*
X99164632Y-65593475D01*
X99371475Y-65386632D01*
X99488000Y-65212240D01*
X99604525Y-65386632D01*
M02*
