M48
INCH,TZ
T1C0.0157
T2C0.0394
T3C0.0472
%
G90
G05
T1
X62236Y-16339
X62252Y-18303
X62268Y-14272
X62327Y-24299
X62350Y-26705
X63173Y-17433
X63252Y-15382
X64020Y-16323
X64098Y-14366
X64260Y-18402
X64425Y-24382
X64697Y-26669
X65063Y-22079
X65559Y-15386
X65831Y-25583
X66106Y-23276
X66122Y-22539
X66709Y-15402
X67157Y-22461
X67421Y-16339
X67421Y-17028
X67421Y-17028
X67785Y-15600
X67913Y-18898
X68929Y-26839
X69252Y-15531
X69291Y-16929
X69626Y-19124
X70384Y-18524
X70630Y-18890
X70630Y-20331
X70965Y-14961
X71461Y-25886
X71555Y-14370
X71555Y-15748
X71642Y-26866
T2
X65014Y-14547
X66014Y-14547
X51378Y-23425
X51378Y-24425
X51378Y-25425
X51378Y-26425
X56890Y-14370
X56890Y-15370
X56890Y-16370
X56890Y-17370
X60827Y-12795
X61827Y-12795
X62827Y-12795
X63827Y-12795
X64827Y-12795
X65827Y-12795
X66827Y-12795
X67827Y-12795
X68827Y-12795
X69827Y-12795
X70827Y-12795
X71827Y-12795
X60827Y-14370
X60827Y-15370
X60827Y-16370
X60827Y-17370
X65020Y-16319
X65020Y-17319
X65020Y-18319
X51378Y-19094
X51378Y-20094
X51378Y-21094
X51378Y-22094
X56890Y-23425
X56890Y-24425
X56890Y-25425
X56890Y-26425
X55315Y-18898
X55315Y-19898
X55315Y-20898
X55315Y-21898
X55315Y-23425
X55315Y-24425
X55315Y-25425
X55315Y-26425
X56890Y-18898
X56890Y-19898
X56890Y-20898
X56890Y-21898
X55315Y-14370
X55315Y-15370
X55315Y-16370
X55315Y-17370
X67665Y-14547
X68665Y-14547
X69665Y-14547
X66457Y-16307
X66457Y-17307
X66457Y-18307
X60827Y-8071
X61827Y-8071
X62827Y-8071
X63827Y-8071
X64827Y-8071
X65827Y-8071
X66827Y-8071
X67827Y-8071
X68827Y-8071
X69827Y-8071
X70827Y-8071
X71827Y-8071
X60827Y-18898
X60827Y-19898
X60827Y-20898
X60827Y-21898
X54921Y-8071
X55921Y-8071
X56921Y-8071
X57921Y-8071
X58921Y-8071
X60827Y-23425
X60827Y-24425
X60827Y-25425
X60827Y-26425
X51378Y-14567
X51378Y-15567
X51378Y-16567
X51378Y-17567
X54921Y-12795
X55921Y-12795
X56921Y-12795
X57921Y-12795
X58921Y-12795
T3
X70925Y-16378
X70925Y-17756
T2
G00X63362Y-23079
M15
G01X64150Y-23079
M16
G05
G00X63362Y-25441
M15
G01X64150Y-25441
M16
G05
G00X65606Y-24654
M15
G01X65606Y-23866
M16
G05
T0
M30
