G04 #@! TF.GenerationSoftware,KiCad,Pcbnew,(5.1.6-0-10_14)*
G04 #@! TF.CreationDate,2021-11-10T21:38:56+09:00*
G04 #@! TF.ProjectId,peltier+relay,70656c74-6965-4722-9b72-656c61792e6b,rev?*
G04 #@! TF.SameCoordinates,Original*
G04 #@! TF.FileFunction,Paste,Top*
G04 #@! TF.FilePolarity,Positive*
%FSLAX46Y46*%
G04 Gerber Fmt 4.6, Leading zero omitted, Abs format (unit mm)*
G04 Created by KiCad (PCBNEW (5.1.6-0-10_14)) date 2021-11-10 21:38:56*
%MOMM*%
%LPD*%
G01*
G04 APERTURE LIST*
%ADD10C,0.475000*%
%ADD11C,0.100000*%
%ADD12R,2.500000X1.800000*%
%ADD13R,4.100000X4.100000*%
%ADD14R,0.700000X0.420000*%
%ADD15R,0.540000X0.420000*%
%ADD16R,0.800000X0.900000*%
%ADD17R,1.450000X0.450000*%
%ADD18R,1.450000X0.400000*%
%ADD19R,1.000000X1.250000*%
%ADD20R,0.750000X0.800000*%
%ADD21R,0.800000X0.750000*%
%ADD22R,1.000000X2.500000*%
%ADD23R,0.900000X0.500000*%
%ADD24R,0.500000X0.900000*%
%ADD25R,0.650000X0.250000*%
%ADD26R,0.250000X0.650000*%
G04 APERTURE END LIST*
D10*
X102022500Y-87770000D02*
G75*
G03*
X102022500Y-87770000I-212500J0D01*
G01*
X100030833Y-87770000D02*
G75*
G03*
X100030833Y-87770000I-220833J0D01*
G01*
X100039167Y-85770000D02*
G75*
G03*
X100039167Y-85770000I-229167J0D01*
G01*
X100047500Y-83770000D02*
G75*
G03*
X100047500Y-83770000I-237500J0D01*
G01*
X101617500Y-112730000D02*
G75*
G03*
X101617500Y-112730000I-237500J0D01*
G01*
X174287500Y-113190000D02*
G75*
G03*
X174287500Y-113190000I-237500J0D01*
G01*
X177407500Y-82740000D02*
G75*
G03*
X177407500Y-82740000I-237500J0D01*
G01*
D11*
G36*
X161600000Y-92840000D02*
G01*
X161850000Y-92840000D01*
X161850000Y-93090000D01*
X161600000Y-93090000D01*
X161600000Y-92840000D01*
G37*
G36*
X161600000Y-93340000D02*
G01*
X161850000Y-93340000D01*
X161850000Y-93590000D01*
X161600000Y-93590000D01*
X161600000Y-93340000D01*
G37*
G36*
X161600000Y-93840000D02*
G01*
X161850000Y-93840000D01*
X161850000Y-94090000D01*
X161600000Y-94090000D01*
X161600000Y-93840000D01*
G37*
G36*
X161600000Y-94340000D02*
G01*
X161850000Y-94340000D01*
X161850000Y-94590000D01*
X161600000Y-94590000D01*
X161600000Y-94340000D01*
G37*
G36*
X160060000Y-92840000D02*
G01*
X160310000Y-92840000D01*
X160310000Y-93090000D01*
X160060000Y-93090000D01*
X160060000Y-92840000D01*
G37*
G36*
X160060000Y-93340000D02*
G01*
X160310000Y-93340000D01*
X160310000Y-93590000D01*
X160060000Y-93590000D01*
X160060000Y-93340000D01*
G37*
G36*
X160060000Y-93840000D02*
G01*
X160310000Y-93840000D01*
X160310000Y-94090000D01*
X160060000Y-94090000D01*
X160060000Y-93840000D01*
G37*
G36*
X160060000Y-94340000D02*
G01*
X160310000Y-94340000D01*
X160310000Y-94590000D01*
X160060000Y-94590000D01*
X160060000Y-94340000D01*
G37*
D12*
X151860000Y-87890000D03*
X147860000Y-87890000D03*
X151860000Y-84290000D03*
X147860000Y-84290000D03*
D13*
X152670000Y-92070000D03*
X152670000Y-101570000D03*
D14*
X104520000Y-103945000D03*
X104520000Y-104595000D03*
X104520000Y-105245000D03*
X104520000Y-105895000D03*
D15*
X107600000Y-105895000D03*
X107600000Y-105245000D03*
X107600000Y-104595000D03*
X107600000Y-103945000D03*
D16*
X156320000Y-86890000D03*
X154420000Y-86890000D03*
X155370000Y-88890000D03*
X155370000Y-85290000D03*
X154420000Y-83290000D03*
X156320000Y-83290000D03*
D17*
X158540000Y-112740000D03*
D18*
X158540000Y-112065000D03*
X158540000Y-111415000D03*
D17*
X158540000Y-110740000D03*
X162940000Y-110740000D03*
D18*
X162940000Y-111415000D03*
X162940000Y-112065000D03*
D17*
X162940000Y-112740000D03*
D19*
X163050000Y-98300000D03*
X161050000Y-98300000D03*
X164400000Y-96300000D03*
X166400000Y-96300000D03*
D20*
X159390000Y-98910000D03*
X159390000Y-97410000D03*
D21*
X160090000Y-90360000D03*
X161590000Y-90360000D03*
D22*
X160090000Y-87510000D03*
X163090000Y-87510000D03*
D23*
X103130000Y-106890000D03*
X103130000Y-105390000D03*
D24*
X165090000Y-90310000D03*
X163590000Y-90310000D03*
X164400000Y-92150000D03*
X165900000Y-92150000D03*
D23*
X158240000Y-88640000D03*
X158240000Y-87140000D03*
X103130000Y-104440000D03*
X103130000Y-102940000D03*
X158240000Y-85040000D03*
X158240000Y-83540000D03*
D20*
X161790000Y-100250000D03*
X161790000Y-101750000D03*
X165165001Y-101750000D03*
X165165001Y-100250000D03*
D25*
X162960000Y-95110000D03*
X162960000Y-94610000D03*
X162960000Y-94110000D03*
X162960000Y-93610000D03*
X162960000Y-93110000D03*
X162960000Y-92610000D03*
D26*
X162290000Y-91940000D03*
X161790000Y-91940000D03*
X161290000Y-91940000D03*
X160290000Y-91940000D03*
X159790000Y-91940000D03*
D25*
X159120000Y-92610000D03*
X159120000Y-93110000D03*
X159120000Y-93610000D03*
X159120000Y-94110000D03*
X159120000Y-94610000D03*
X159120000Y-95110000D03*
D26*
X159790000Y-95780000D03*
X160290000Y-95780000D03*
X160790000Y-95780000D03*
X161290000Y-95780000D03*
X161790000Y-95780000D03*
X162290000Y-95780000D03*
M02*
