G04 #@! TF.GenerationSoftware,KiCad,Pcbnew,(5.1.6-0-10_14)*
G04 #@! TF.CreationDate,2021-11-10T21:38:56+09:00*
G04 #@! TF.ProjectId,peltier+relay,70656c74-6965-4722-9b72-656c61792e6b,rev?*
G04 #@! TF.SameCoordinates,Original*
G04 #@! TF.FileFunction,Soldermask,Top*
G04 #@! TF.FilePolarity,Negative*
%FSLAX46Y46*%
G04 Gerber Fmt 4.6, Leading zero omitted, Abs format (unit mm)*
G04 Created by KiCad (PCBNEW (5.1.6-0-10_14)) date 2021-11-10 21:38:56*
%MOMM*%
%LPD*%
G01*
G04 APERTURE LIST*
%ADD10C,0.475000*%
%ADD11C,0.100000*%
%ADD12O,1.700000X1.700000*%
%ADD13R,1.700000X1.700000*%
%ADD14R,2.500000X1.800000*%
%ADD15C,2.000000*%
%ADD16R,3.500000X3.500000*%
%ADD17C,2.700000*%
%ADD18C,1.700000*%
%ADD19C,2.108200*%
%ADD20C,2.006600*%
%ADD21C,1.701800*%
%ADD22C,1.498600*%
%ADD23R,4.100000X4.100000*%
%ADD24R,0.700000X0.420000*%
%ADD25R,0.540000X0.420000*%
%ADD26R,0.800000X0.900000*%
%ADD27R,1.450000X0.450000*%
%ADD28R,1.450000X0.400000*%
%ADD29R,1.000000X1.250000*%
%ADD30R,0.750000X0.800000*%
%ADD31R,0.800000X0.750000*%
%ADD32R,1.000000X2.500000*%
%ADD33R,0.900000X0.500000*%
%ADD34R,0.500000X0.900000*%
%ADD35R,0.650000X0.250000*%
%ADD36R,0.250000X0.650000*%
G04 APERTURE END LIST*
D10*
X102185000Y-87770000D02*
G75*
G03*
X102185000Y-87770000I-375000J0D01*
G01*
X100193333Y-87770000D02*
G75*
G03*
X100193333Y-87770000I-383333J0D01*
G01*
X100201667Y-85770000D02*
G75*
G03*
X100201667Y-85770000I-391667J0D01*
G01*
X100210000Y-83770000D02*
G75*
G03*
X100210000Y-83770000I-400000J0D01*
G01*
X101780000Y-112730000D02*
G75*
G03*
X101780000Y-112730000I-400000J0D01*
G01*
X174450000Y-113190000D02*
G75*
G03*
X174450000Y-113190000I-400000J0D01*
G01*
X177570000Y-82740000D02*
G75*
G03*
X177570000Y-82740000I-400000J0D01*
G01*
D11*
G36*
X161030000Y-92140000D02*
G01*
X162370000Y-92140000D01*
X162370000Y-95240000D01*
X161030000Y-95240000D01*
X161030000Y-92140000D01*
G37*
G36*
X159740000Y-92140000D02*
G01*
X160650000Y-92140000D01*
X160650000Y-95240000D01*
X159740000Y-95240000D01*
X159740000Y-92140000D01*
G37*
D12*
X176160000Y-110500000D03*
X173620000Y-110500000D03*
X171080000Y-110500000D03*
X168540000Y-110500000D03*
D13*
X166000000Y-110500000D03*
D14*
X151860000Y-87890000D03*
X147860000Y-87890000D03*
X151860000Y-84290000D03*
X147860000Y-84290000D03*
D15*
X104750000Y-99770000D03*
X104750000Y-96270000D03*
D12*
X162050000Y-107810000D03*
D13*
X159510000Y-107810000D03*
D12*
X155560000Y-112890000D03*
X155560000Y-110350000D03*
D13*
X155560000Y-107810000D03*
D16*
X170000000Y-104000000D03*
G36*
G01*
X177500000Y-103000000D02*
X177500000Y-105000000D01*
G75*
G02*
X176750000Y-105750000I-750000J0D01*
G01*
X175250000Y-105750000D01*
G75*
G02*
X174500000Y-105000000I0J750000D01*
G01*
X174500000Y-103000000D01*
G75*
G02*
X175250000Y-102250000I750000J0D01*
G01*
X176750000Y-102250000D01*
G75*
G02*
X177500000Y-103000000I0J-750000D01*
G01*
G37*
G36*
G01*
X174750000Y-98425000D02*
X174750000Y-100175000D01*
G75*
G02*
X173875000Y-101050000I-875000J0D01*
G01*
X172125000Y-101050000D01*
G75*
G02*
X171250000Y-100175000I0J875000D01*
G01*
X171250000Y-98425000D01*
G75*
G02*
X172125000Y-97550000I875000J0D01*
G01*
X173875000Y-97550000D01*
G75*
G02*
X174750000Y-98425000I0J-875000D01*
G01*
G37*
G36*
G01*
X174750000Y-84425000D02*
X174750000Y-86175000D01*
G75*
G02*
X173875000Y-87050000I-875000J0D01*
G01*
X172125000Y-87050000D01*
G75*
G02*
X171250000Y-86175000I0J875000D01*
G01*
X171250000Y-84425000D01*
G75*
G02*
X172125000Y-83550000I875000J0D01*
G01*
X173875000Y-83550000D01*
G75*
G02*
X174750000Y-84425000I0J-875000D01*
G01*
G37*
G36*
G01*
X177500000Y-89000000D02*
X177500000Y-91000000D01*
G75*
G02*
X176750000Y-91750000I-750000J0D01*
G01*
X175250000Y-91750000D01*
G75*
G02*
X174500000Y-91000000I0J750000D01*
G01*
X174500000Y-89000000D01*
G75*
G02*
X175250000Y-88250000I750000J0D01*
G01*
X176750000Y-88250000D01*
G75*
G02*
X177500000Y-89000000I0J-750000D01*
G01*
G37*
X170000000Y-90000000D03*
D17*
X139880000Y-109710000D03*
D18*
X143130000Y-107610000D03*
X143130000Y-103110000D03*
D15*
X140780000Y-99610000D03*
D17*
X135480000Y-89510000D03*
D18*
X132230000Y-91610000D03*
X132230000Y-96110000D03*
D15*
X131280000Y-99610000D03*
D19*
X114830000Y-98720000D03*
D20*
X114230000Y-94220000D03*
D21*
X118780000Y-93420000D03*
D22*
X122180000Y-93420000D03*
D19*
X124130000Y-96070000D03*
X122130000Y-100220000D03*
D20*
X122730000Y-104720000D03*
D21*
X118780000Y-105520000D03*
D22*
X115380000Y-105520000D03*
D19*
X113430000Y-102870000D03*
D23*
X152670000Y-92070000D03*
X152670000Y-101570000D03*
D24*
X104520000Y-103945000D03*
X104520000Y-104595000D03*
X104520000Y-105245000D03*
X104520000Y-105895000D03*
D25*
X107600000Y-105895000D03*
X107600000Y-105245000D03*
X107600000Y-104595000D03*
X107600000Y-103945000D03*
D26*
X156320000Y-86890000D03*
X154420000Y-86890000D03*
X155370000Y-88890000D03*
X155370000Y-85290000D03*
X154420000Y-83290000D03*
X156320000Y-83290000D03*
D27*
X158540000Y-112740000D03*
D28*
X158540000Y-112065000D03*
X158540000Y-111415000D03*
D27*
X158540000Y-110740000D03*
X162940000Y-110740000D03*
D28*
X162940000Y-111415000D03*
X162940000Y-112065000D03*
D27*
X162940000Y-112740000D03*
D12*
X151000000Y-112890000D03*
D13*
X151000000Y-110350000D03*
D12*
X162690010Y-83330008D03*
X165230010Y-83330008D03*
D13*
X167770010Y-83330008D03*
D29*
X163050000Y-98300000D03*
X161050000Y-98300000D03*
X164400000Y-96300000D03*
X166400000Y-96300000D03*
D30*
X159390000Y-98910000D03*
X159390000Y-97410000D03*
D31*
X160090000Y-90360000D03*
X161590000Y-90360000D03*
D32*
X160090000Y-87510000D03*
X163090000Y-87510000D03*
D33*
X103130000Y-106890000D03*
X103130000Y-105390000D03*
D34*
X165090000Y-90310000D03*
X163590000Y-90310000D03*
X164400000Y-92150000D03*
X165900000Y-92150000D03*
D33*
X158240000Y-88640000D03*
X158240000Y-87140000D03*
X103130000Y-104440000D03*
X103130000Y-102940000D03*
X158240000Y-85040000D03*
X158240000Y-83540000D03*
D12*
X103940000Y-92160000D03*
D13*
X106480000Y-92160000D03*
D30*
X161790000Y-100250000D03*
X161790000Y-101750000D03*
X165165001Y-101750000D03*
X165165001Y-100250000D03*
D11*
G36*
X107465000Y-107800000D02*
G01*
X108615000Y-107800000D01*
X108115000Y-108550000D01*
X108615000Y-109300000D01*
X107465000Y-109300000D01*
X107465000Y-107800000D01*
G37*
G36*
X108415000Y-108550000D02*
G01*
X108915000Y-107800000D01*
X109915000Y-107800000D01*
X109915000Y-109300000D01*
X108915000Y-109300000D01*
X108415000Y-108550000D01*
G37*
D35*
X162960000Y-95110000D03*
X162960000Y-94610000D03*
X162960000Y-94110000D03*
X162960000Y-93610000D03*
X162960000Y-93110000D03*
X162960000Y-92610000D03*
D36*
X162290000Y-91940000D03*
X161790000Y-91940000D03*
X161290000Y-91940000D03*
X160290000Y-91940000D03*
X159790000Y-91940000D03*
D35*
X159120000Y-92610000D03*
X159120000Y-93110000D03*
X159120000Y-93610000D03*
X159120000Y-94110000D03*
X159120000Y-94610000D03*
X159120000Y-95110000D03*
D36*
X159790000Y-95780000D03*
X160290000Y-95780000D03*
X160790000Y-95780000D03*
X161290000Y-95780000D03*
X161790000Y-95780000D03*
X162290000Y-95780000D03*
M02*
