G04 #@! TF.GenerationSoftware,KiCad,Pcbnew,(5.1.6-0-10_14)*
G04 #@! TF.CreationDate,2021-11-10T21:38:56+09:00*
G04 #@! TF.ProjectId,peltier+relay,70656c74-6965-4722-9b72-656c61792e6b,rev?*
G04 #@! TF.SameCoordinates,Original*
G04 #@! TF.FileFunction,Copper,L1,Top*
G04 #@! TF.FilePolarity,Positive*
%FSLAX46Y46*%
G04 Gerber Fmt 4.6, Leading zero omitted, Abs format (unit mm)*
G04 Created by KiCad (PCBNEW (5.1.6-0-10_14)) date 2021-11-10 21:38:56*
%MOMM*%
%LPD*%
G01*
G04 APERTURE LIST*
G04 #@! TA.AperFunction,NonConductor*
%ADD10C,0.100000*%
G04 #@! TD*
G04 #@! TA.AperFunction,EtchedComponent*
%ADD11C,0.100000*%
G04 #@! TD*
G04 #@! TA.AperFunction,ComponentPad*
%ADD12O,1.700000X1.700000*%
G04 #@! TD*
G04 #@! TA.AperFunction,ComponentPad*
%ADD13R,1.700000X1.700000*%
G04 #@! TD*
G04 #@! TA.AperFunction,SMDPad,CuDef*
%ADD14R,2.500000X1.800000*%
G04 #@! TD*
G04 #@! TA.AperFunction,ComponentPad*
%ADD15C,2.000000*%
G04 #@! TD*
G04 #@! TA.AperFunction,ComponentPad*
%ADD16R,3.500000X3.500000*%
G04 #@! TD*
G04 #@! TA.AperFunction,ComponentPad*
%ADD17C,2.700000*%
G04 #@! TD*
G04 #@! TA.AperFunction,ComponentPad*
%ADD18C,1.700000*%
G04 #@! TD*
G04 #@! TA.AperFunction,ComponentPad*
%ADD19C,2.108200*%
G04 #@! TD*
G04 #@! TA.AperFunction,ComponentPad*
%ADD20C,2.006600*%
G04 #@! TD*
G04 #@! TA.AperFunction,ComponentPad*
%ADD21C,1.701800*%
G04 #@! TD*
G04 #@! TA.AperFunction,ComponentPad*
%ADD22C,1.498600*%
G04 #@! TD*
G04 #@! TA.AperFunction,SMDPad,CuDef*
%ADD23R,4.100000X4.100000*%
G04 #@! TD*
G04 #@! TA.AperFunction,SMDPad,CuDef*
%ADD24R,0.700000X0.420000*%
G04 #@! TD*
G04 #@! TA.AperFunction,SMDPad,CuDef*
%ADD25R,0.540000X0.420000*%
G04 #@! TD*
G04 #@! TA.AperFunction,SMDPad,CuDef*
%ADD26R,0.800000X0.900000*%
G04 #@! TD*
G04 #@! TA.AperFunction,SMDPad,CuDef*
%ADD27R,1.450000X0.450000*%
G04 #@! TD*
G04 #@! TA.AperFunction,SMDPad,CuDef*
%ADD28R,1.450000X0.400000*%
G04 #@! TD*
G04 #@! TA.AperFunction,SMDPad,CuDef*
%ADD29R,1.000000X1.250000*%
G04 #@! TD*
G04 #@! TA.AperFunction,SMDPad,CuDef*
%ADD30R,0.750000X0.800000*%
G04 #@! TD*
G04 #@! TA.AperFunction,SMDPad,CuDef*
%ADD31R,0.800000X0.750000*%
G04 #@! TD*
G04 #@! TA.AperFunction,SMDPad,CuDef*
%ADD32R,1.000000X2.500000*%
G04 #@! TD*
G04 #@! TA.AperFunction,SMDPad,CuDef*
%ADD33R,0.900000X0.500000*%
G04 #@! TD*
G04 #@! TA.AperFunction,SMDPad,CuDef*
%ADD34R,0.500000X0.900000*%
G04 #@! TD*
G04 #@! TA.AperFunction,SMDPad,CuDef*
%ADD35C,0.100000*%
G04 #@! TD*
G04 #@! TA.AperFunction,SMDPad,CuDef*
%ADD36R,0.650000X0.250000*%
G04 #@! TD*
G04 #@! TA.AperFunction,SMDPad,CuDef*
%ADD37R,0.250000X0.650000*%
G04 #@! TD*
G04 #@! TA.AperFunction,ViaPad*
%ADD38C,0.800000*%
G04 #@! TD*
G04 #@! TA.AperFunction,Conductor*
%ADD39C,1.000000*%
G04 #@! TD*
G04 #@! TA.AperFunction,Conductor*
%ADD40C,0.750000*%
G04 #@! TD*
G04 #@! TA.AperFunction,Conductor*
%ADD41C,2.540000*%
G04 #@! TD*
G04 #@! TA.AperFunction,Conductor*
%ADD42C,0.250000*%
G04 #@! TD*
G04 #@! TA.AperFunction,Conductor*
%ADD43C,5.080000*%
G04 #@! TD*
G04 #@! TA.AperFunction,Conductor*
%ADD44C,0.500000*%
G04 #@! TD*
G04 #@! TA.AperFunction,Conductor*
%ADD45C,0.254000*%
G04 #@! TD*
G04 APERTURE END LIST*
D10*
G36*
X174005000Y-100890000D02*
G01*
X160230000Y-100890000D01*
X160230000Y-99340000D01*
X161960000Y-99340000D01*
X161960000Y-98670000D01*
X165170000Y-98670000D01*
X165180000Y-98220000D01*
X166100000Y-97340000D01*
X166120000Y-92510000D01*
X173995000Y-92510000D01*
X174005000Y-100890000D01*
G37*
X174005000Y-100890000D02*
X160230000Y-100890000D01*
X160230000Y-99340000D01*
X161960000Y-99340000D01*
X161960000Y-98670000D01*
X165170000Y-98670000D01*
X165180000Y-98220000D01*
X166100000Y-97340000D01*
X166120000Y-92510000D01*
X173995000Y-92510000D01*
X174005000Y-100890000D01*
G36*
X166630000Y-102320000D02*
G01*
X159560000Y-102310000D01*
X159560000Y-101220000D01*
X166630000Y-101220000D01*
X166630000Y-102320000D01*
G37*
X166630000Y-102320000D02*
X159560000Y-102310000D01*
X159560000Y-101220000D01*
X166630000Y-101220000D01*
X166630000Y-102320000D01*
G36*
X161500000Y-88170000D02*
G01*
X160580000Y-88760000D01*
X160430000Y-89770000D01*
X160430000Y-90760000D01*
X159440000Y-91290000D01*
X159440000Y-94240000D01*
X159060000Y-94240000D01*
X159010000Y-94190000D01*
X155710000Y-90030000D01*
X155250000Y-89340000D01*
X153500000Y-89340000D01*
X153500000Y-87840000D01*
X156360000Y-87840000D01*
X157300000Y-88770000D01*
X157660000Y-89690000D01*
X159070000Y-89440000D01*
X159070000Y-86380000D01*
X159700000Y-85560000D01*
X161520000Y-85560000D01*
X161500000Y-88170000D01*
G37*
G36*
X160540000Y-102220000D02*
G01*
X166640000Y-102230000D01*
X166640000Y-106400000D01*
X150520000Y-106400000D01*
X150520000Y-99370000D01*
X158520000Y-99370000D01*
X160540000Y-102220000D01*
G37*
G36*
X158830000Y-94480000D02*
G01*
X159890000Y-94480000D01*
X159900000Y-95050000D01*
X159910000Y-95450000D01*
X159710000Y-95580000D01*
X159730000Y-97820000D01*
X150520000Y-97820000D01*
X150510000Y-89860000D01*
X154850000Y-89860000D01*
X158830000Y-94480000D01*
G37*
G36*
X163860000Y-90740000D02*
G01*
X162410000Y-92140000D01*
X161040000Y-92140000D01*
X160690000Y-91080000D01*
X160690000Y-90240000D01*
X163860000Y-89810000D01*
X163860000Y-90740000D01*
G37*
X163860000Y-90740000D02*
X162410000Y-92140000D01*
X161040000Y-92140000D01*
X160690000Y-91080000D01*
X160690000Y-90240000D01*
X163860000Y-89810000D01*
X163860000Y-90740000D01*
D11*
G36*
X107330000Y-106105000D02*
G01*
X105620000Y-106105000D01*
X105620000Y-103735000D01*
X107330000Y-103735000D01*
X107330000Y-106105000D01*
G37*
G36*
X161040000Y-92140000D02*
G01*
X162380000Y-92140000D01*
X162380000Y-95240000D01*
X161040000Y-95240000D01*
X161040000Y-92140000D01*
G37*
G36*
X159700000Y-92140000D02*
G01*
X160650000Y-92140000D01*
X160650000Y-95240000D01*
X159700000Y-95240000D01*
X159700000Y-92140000D01*
G37*
D12*
X176160000Y-110500000D03*
X173620000Y-110500000D03*
X171080000Y-110500000D03*
X168540000Y-110500000D03*
D13*
X166000000Y-110500000D03*
D14*
X151860000Y-87890000D03*
X147860000Y-87890000D03*
X151860000Y-84290000D03*
X147860000Y-84290000D03*
D15*
X104750000Y-99770000D03*
X104750000Y-96270000D03*
D12*
X162050000Y-107810000D03*
D13*
X159510000Y-107810000D03*
D12*
X155560000Y-112890000D03*
X155560000Y-110350000D03*
D13*
X155560000Y-107810000D03*
D16*
X170000000Y-104000000D03*
G04 #@! TA.AperFunction,ComponentPad*
G36*
G01*
X177500000Y-103000000D02*
X177500000Y-105000000D01*
G75*
G02*
X176750000Y-105750000I-750000J0D01*
G01*
X175250000Y-105750000D01*
G75*
G02*
X174500000Y-105000000I0J750000D01*
G01*
X174500000Y-103000000D01*
G75*
G02*
X175250000Y-102250000I750000J0D01*
G01*
X176750000Y-102250000D01*
G75*
G02*
X177500000Y-103000000I0J-750000D01*
G01*
G37*
G04 #@! TD.AperFunction*
G04 #@! TA.AperFunction,ComponentPad*
G36*
G01*
X174750000Y-98425000D02*
X174750000Y-100175000D01*
G75*
G02*
X173875000Y-101050000I-875000J0D01*
G01*
X172125000Y-101050000D01*
G75*
G02*
X171250000Y-100175000I0J875000D01*
G01*
X171250000Y-98425000D01*
G75*
G02*
X172125000Y-97550000I875000J0D01*
G01*
X173875000Y-97550000D01*
G75*
G02*
X174750000Y-98425000I0J-875000D01*
G01*
G37*
G04 #@! TD.AperFunction*
G04 #@! TA.AperFunction,ComponentPad*
G36*
G01*
X174750000Y-84425000D02*
X174750000Y-86175000D01*
G75*
G02*
X173875000Y-87050000I-875000J0D01*
G01*
X172125000Y-87050000D01*
G75*
G02*
X171250000Y-86175000I0J875000D01*
G01*
X171250000Y-84425000D01*
G75*
G02*
X172125000Y-83550000I875000J0D01*
G01*
X173875000Y-83550000D01*
G75*
G02*
X174750000Y-84425000I0J-875000D01*
G01*
G37*
G04 #@! TD.AperFunction*
G04 #@! TA.AperFunction,ComponentPad*
G36*
G01*
X177500000Y-89000000D02*
X177500000Y-91000000D01*
G75*
G02*
X176750000Y-91750000I-750000J0D01*
G01*
X175250000Y-91750000D01*
G75*
G02*
X174500000Y-91000000I0J750000D01*
G01*
X174500000Y-89000000D01*
G75*
G02*
X175250000Y-88250000I750000J0D01*
G01*
X176750000Y-88250000D01*
G75*
G02*
X177500000Y-89000000I0J-750000D01*
G01*
G37*
G04 #@! TD.AperFunction*
X170000000Y-90000000D03*
D17*
X139880000Y-109710000D03*
D18*
X143130000Y-107610000D03*
X143130000Y-103110000D03*
D15*
X140780000Y-99610000D03*
D17*
X135480000Y-89510000D03*
D18*
X132230000Y-91610000D03*
X132230000Y-96110000D03*
D15*
X131280000Y-99610000D03*
D19*
X114830000Y-98720000D03*
D20*
X114230000Y-94220000D03*
D21*
X118780000Y-93420000D03*
D22*
X122180000Y-93420000D03*
D19*
X124130000Y-96070000D03*
X122130000Y-100220000D03*
D20*
X122730000Y-104720000D03*
D21*
X118780000Y-105520000D03*
D22*
X115380000Y-105520000D03*
D19*
X113430000Y-102870000D03*
D23*
X152670000Y-92070000D03*
X152670000Y-101570000D03*
D24*
X104520000Y-103945000D03*
X104520000Y-104595000D03*
X104520000Y-105245000D03*
X104520000Y-105895000D03*
D25*
X107600000Y-105895000D03*
X107600000Y-105245000D03*
X107600000Y-104595000D03*
X107600000Y-103945000D03*
D26*
X156320000Y-86890000D03*
X154420000Y-86890000D03*
X155370000Y-88890000D03*
X155370000Y-85290000D03*
X154420000Y-83290000D03*
X156320000Y-83290000D03*
D27*
X158540000Y-112740000D03*
D28*
X158540000Y-112065000D03*
X158540000Y-111415000D03*
D27*
X158540000Y-110740000D03*
X162940000Y-110740000D03*
D28*
X162940000Y-111415000D03*
X162940000Y-112065000D03*
D27*
X162940000Y-112740000D03*
D12*
X151000000Y-112890000D03*
D13*
X151000000Y-110350000D03*
D12*
X162690010Y-83330008D03*
X165230010Y-83330008D03*
D13*
X167770010Y-83330008D03*
D29*
X163050000Y-98300000D03*
X161050000Y-98300000D03*
X164400000Y-96300000D03*
X166400000Y-96300000D03*
D30*
X159390000Y-98910000D03*
X159390000Y-97410000D03*
D31*
X160090000Y-90360000D03*
X161590000Y-90360000D03*
D32*
X160090000Y-87510000D03*
X163090000Y-87510000D03*
D33*
X103130000Y-106890000D03*
X103130000Y-105390000D03*
D34*
X165090000Y-90310000D03*
X163590000Y-90310000D03*
X164400000Y-92150000D03*
X165900000Y-92150000D03*
D33*
X158240000Y-88640000D03*
X158240000Y-87140000D03*
X103130000Y-104440000D03*
X103130000Y-102940000D03*
X158240000Y-85040000D03*
X158240000Y-83540000D03*
D12*
X103940000Y-92160000D03*
D13*
X106480000Y-92160000D03*
D30*
X161790000Y-100250000D03*
X161790000Y-101750000D03*
X165165001Y-101750000D03*
X165165001Y-100250000D03*
G04 #@! TA.AperFunction,SMDPad,CuDef*
D35*
G36*
X107465000Y-107800000D02*
G01*
X108615000Y-107800000D01*
X108115000Y-108550000D01*
X108615000Y-109300000D01*
X107465000Y-109300000D01*
X107465000Y-107800000D01*
G37*
G04 #@! TD.AperFunction*
G04 #@! TA.AperFunction,SMDPad,CuDef*
G36*
X108415000Y-108550000D02*
G01*
X108915000Y-107800000D01*
X109915000Y-107800000D01*
X109915000Y-109300000D01*
X108915000Y-109300000D01*
X108415000Y-108550000D01*
G37*
G04 #@! TD.AperFunction*
D36*
X162960000Y-95110000D03*
X162960000Y-94610000D03*
X162960000Y-94110000D03*
X162960000Y-93610000D03*
X162960000Y-93110000D03*
X162960000Y-92610000D03*
D37*
X162290000Y-91940000D03*
X161790000Y-91940000D03*
X161290000Y-91940000D03*
X160290000Y-91940000D03*
X159790000Y-91940000D03*
D36*
X159120000Y-92610000D03*
X159120000Y-93110000D03*
X159120000Y-93610000D03*
X159120000Y-94110000D03*
X159120000Y-94610000D03*
X159120000Y-95110000D03*
D37*
X159790000Y-95780000D03*
X160290000Y-95780000D03*
X160790000Y-95780000D03*
X161290000Y-95780000D03*
X161790000Y-95780000D03*
X162290000Y-95780000D03*
D38*
X145860000Y-86010000D03*
X162940000Y-109790000D03*
X156330000Y-85280000D03*
X156330000Y-88890000D03*
X102000000Y-102960000D03*
X100560000Y-82780000D03*
X100320000Y-89240000D03*
X105600000Y-82780000D03*
X104380000Y-89450000D03*
X103020000Y-85450000D03*
X106600000Y-87090000D03*
X109790000Y-82830000D03*
X112080000Y-84800000D03*
X118890000Y-82520000D03*
X116290000Y-84600000D03*
X111030000Y-93030000D03*
X110980000Y-95700000D03*
X108100000Y-97470000D03*
X107160000Y-96010000D03*
X109120000Y-95290000D03*
X105930000Y-93930000D03*
X99850000Y-98750000D03*
X101000000Y-100790000D03*
X99700000Y-103110000D03*
X100720000Y-106740000D03*
X99730000Y-113490000D03*
X99840000Y-110160000D03*
X104200000Y-113500000D03*
X102790000Y-110840000D03*
X104870000Y-108190000D03*
X106860000Y-106770000D03*
X110540000Y-110500000D03*
X106740000Y-110780000D03*
X108860000Y-113750000D03*
X114140000Y-113350000D03*
X119600000Y-113240000D03*
X126430000Y-113440000D03*
X133750000Y-113310000D03*
X140290000Y-113430000D03*
X143220000Y-109430000D03*
X147050000Y-113480000D03*
X144570000Y-111620000D03*
X147250000Y-111090000D03*
X153520000Y-112660000D03*
X145500000Y-107350000D03*
X140410000Y-106440000D03*
X143250000Y-104880000D03*
X145500000Y-102800000D03*
X135470000Y-95960000D03*
X137250000Y-97520000D03*
X130760000Y-94770000D03*
X127200000Y-98610000D03*
X121050000Y-95590000D03*
X118520000Y-97210000D03*
X117820000Y-103820000D03*
X119650000Y-102980000D03*
X118600000Y-100710000D03*
X140150000Y-83400000D03*
X142300000Y-85570000D03*
X144330000Y-83380000D03*
X144210000Y-90500000D03*
X144110000Y-95780000D03*
X149710000Y-90620000D03*
X149580000Y-96860000D03*
X146820000Y-93190000D03*
X154410000Y-98570000D03*
X157940000Y-98570000D03*
X166470000Y-89780000D03*
X158970000Y-89980000D03*
X157980000Y-91270000D03*
X158440000Y-92410000D03*
X171250000Y-82610000D03*
X169750000Y-86350000D03*
X176270000Y-86610000D03*
X173370000Y-88090000D03*
X168020000Y-85420000D03*
X173770000Y-92620000D03*
X177190000Y-95070000D03*
X175890000Y-98400000D03*
X177200000Y-101220000D03*
X173640000Y-102300000D03*
X168000000Y-106730000D03*
X171000000Y-108130000D03*
X172920000Y-106140000D03*
X174980000Y-109190000D03*
X177060000Y-107420000D03*
X176300000Y-112870000D03*
X171380000Y-113310000D03*
X167370000Y-113370000D03*
X160530000Y-110620000D03*
X159000000Y-109470000D03*
X157230000Y-109510000D03*
X157440000Y-113610000D03*
X157070000Y-111870000D03*
X164250000Y-98000000D03*
X105430000Y-106890000D03*
X164995121Y-91630184D03*
X163125000Y-95835002D03*
D39*
X152860000Y-86890000D02*
X151860000Y-87890000D01*
X154420000Y-86890000D02*
X152860000Y-86890000D01*
D40*
X150384999Y-89365001D02*
X151860000Y-87890000D01*
X142717320Y-89365001D02*
X150384999Y-89365001D01*
X137557293Y-94525029D02*
X142717320Y-89365001D01*
X133655001Y-95425999D02*
X134555971Y-94525029D01*
X133655001Y-96191485D02*
X133655001Y-95425999D01*
X134555971Y-94525029D02*
X137557293Y-94525029D01*
X140573516Y-103110000D02*
X133655001Y-96191485D01*
X143130000Y-103110000D02*
X140573516Y-103110000D01*
D41*
X167510000Y-87510000D02*
X163090000Y-87510000D01*
X170000000Y-90000000D02*
X167510000Y-87510000D01*
X161960001Y-89989999D02*
X161960001Y-90360000D01*
X163090000Y-88860000D02*
X161960001Y-89989999D01*
X163090000Y-87510000D02*
X163090000Y-88860000D01*
D39*
X163590000Y-89360000D02*
X163090000Y-88860000D01*
X163590000Y-90310000D02*
X163590000Y-89360000D01*
D42*
X161590000Y-90360000D02*
X161960001Y-89989999D01*
X161790000Y-90160000D02*
X161960001Y-89989999D01*
X161790000Y-92040000D02*
X161790000Y-90160000D01*
X161790000Y-95680000D02*
X161790000Y-92040000D01*
D40*
X143130000Y-107010000D02*
X143130000Y-107610000D01*
X132230000Y-96110000D02*
X143130000Y-107010000D01*
X145860000Y-87890000D02*
X145860000Y-86010000D01*
X151860000Y-84290000D02*
X151750000Y-84290000D01*
X145860000Y-87890000D02*
X142848804Y-87890000D01*
X142848804Y-87890000D02*
X137163786Y-93575019D01*
X137163786Y-93575019D02*
X133134981Y-93575019D01*
X132230000Y-94480000D02*
X132230000Y-96110000D01*
X133134981Y-93575019D02*
X132230000Y-94480000D01*
D42*
X161290000Y-92040000D02*
X161790000Y-92040000D01*
X161790000Y-92040000D02*
X162290000Y-92040000D01*
D40*
X150140000Y-86010000D02*
X151860000Y-84290000D01*
X145860000Y-86010000D02*
X150140000Y-86010000D01*
X147860000Y-87890000D02*
X145860000Y-87890000D01*
X153944999Y-82814999D02*
X154420000Y-83290000D01*
X149335001Y-82814999D02*
X153944999Y-82814999D01*
X147860000Y-84290000D02*
X149335001Y-82814999D01*
X136770279Y-92625009D02*
X133245009Y-92625009D01*
X145105288Y-84290000D02*
X136770279Y-92625009D01*
X133245009Y-92625009D02*
X132230000Y-91610000D01*
X145860000Y-84290000D02*
X145105288Y-84290000D01*
X145860000Y-84290000D02*
X147860000Y-84290000D01*
D43*
X133989999Y-88019999D02*
X130506799Y-88019999D01*
X135480000Y-89510000D02*
X133989999Y-88019999D01*
X107950010Y-90639990D02*
X107950010Y-91060000D01*
X110570001Y-88019999D02*
X107950010Y-90639990D01*
X125669301Y-95094865D02*
X125669301Y-88259299D01*
X125669301Y-88259299D02*
X125430001Y-88019999D01*
X125430001Y-88019999D02*
X110570001Y-88019999D01*
X124412083Y-96352083D02*
X125669301Y-95094865D01*
X130506799Y-88019999D02*
X125430001Y-88019999D01*
D42*
X155560000Y-107810000D02*
X159510000Y-107810000D01*
X161805001Y-102844999D02*
X161790000Y-102860000D01*
X165165001Y-102844999D02*
X161805001Y-102844999D01*
X153960000Y-102860000D02*
X152670000Y-101570000D01*
X161790000Y-102860000D02*
X153960000Y-102860000D01*
X154384999Y-103284999D02*
X152670000Y-101570000D01*
X154384999Y-109174999D02*
X154384999Y-103284999D01*
X155560000Y-110350000D02*
X154384999Y-109174999D01*
X155560000Y-110350000D02*
X151000000Y-110350000D01*
D43*
X152670000Y-101570000D02*
X149200000Y-101570000D01*
X146890598Y-99260598D02*
X143129402Y-99260598D01*
X149200000Y-101570000D02*
X146890598Y-99260598D01*
X150729999Y-109299999D02*
X151000000Y-109299999D01*
X149200000Y-107770000D02*
X150729999Y-109299999D01*
X149200000Y-101570000D02*
X149200000Y-107770000D01*
X152670000Y-101570000D02*
X151969999Y-102270001D01*
X151969999Y-102270001D02*
X151969999Y-109299999D01*
D41*
X155084316Y-110350000D02*
X155304315Y-110130001D01*
X151000000Y-110350000D02*
X155084316Y-110350000D01*
D43*
X143129402Y-99260598D02*
X141129402Y-99260598D01*
D42*
X161790000Y-101750000D02*
X161790000Y-102860000D01*
X165165001Y-101750000D02*
X165165001Y-102844999D01*
X155560000Y-112890000D02*
X155560000Y-112130000D01*
X156950000Y-110740000D02*
X158540000Y-110740000D01*
X155560000Y-112130000D02*
X156950000Y-110740000D01*
X162104998Y-112740000D02*
X161710000Y-112345002D01*
X162940000Y-112740000D02*
X162104998Y-112740000D01*
X161710000Y-110995000D02*
X161965000Y-110740000D01*
X161965000Y-110740000D02*
X162940000Y-110740000D01*
X161710000Y-112345002D02*
X161710000Y-110995000D01*
X162940000Y-110740000D02*
X162940000Y-109790000D01*
D43*
X175380990Y-100948988D02*
X175380990Y-104000000D01*
X173732002Y-99300000D02*
X175380990Y-100948988D01*
X173000000Y-99300000D02*
X173732002Y-99300000D01*
X174780000Y-99300000D02*
X173000000Y-99300000D01*
X175380990Y-85930990D02*
X175380990Y-98699010D01*
X174750000Y-85300000D02*
X175380990Y-85930990D01*
X175380990Y-98699010D02*
X174780000Y-99300000D01*
X173000000Y-85300000D02*
X174750000Y-85300000D01*
D42*
X159220000Y-92610000D02*
X159220000Y-93110000D01*
X159220000Y-93110000D02*
X159220000Y-93610000D01*
X159220000Y-93610000D02*
X159220000Y-94110000D01*
X160090000Y-87510000D02*
X160090000Y-90360000D01*
X159220000Y-91230000D02*
X159220000Y-92610000D01*
X160090000Y-90360000D02*
X159220000Y-91230000D01*
D39*
X156320000Y-85290000D02*
X156330000Y-85280000D01*
X155370000Y-85290000D02*
X156320000Y-85290000D01*
X156330000Y-88890000D02*
X155370000Y-88890000D01*
X157800000Y-90360000D02*
X159989991Y-90360000D01*
X156330000Y-88890000D02*
X157800000Y-90360000D01*
D42*
X103130000Y-102940000D02*
X104260000Y-102940000D01*
X104520000Y-103200000D02*
X104520000Y-103945000D01*
X104260000Y-102940000D02*
X104520000Y-103200000D01*
X104520000Y-103945000D02*
X104520000Y-104595000D01*
X104520000Y-104595000D02*
X104520000Y-105245000D01*
D40*
X102020000Y-102940000D02*
X102000000Y-102960000D01*
X103130000Y-102940000D02*
X102020000Y-102940000D01*
D42*
X159319991Y-94030009D02*
X159319992Y-91873598D01*
X159240000Y-94110000D02*
X159319991Y-94030009D01*
X159220000Y-94110000D02*
X159240000Y-94110000D01*
X163050000Y-98300000D02*
X163050000Y-98600000D01*
X166400000Y-96300000D02*
X166400000Y-97000000D01*
X166400000Y-97000000D02*
X165165001Y-98234999D01*
X163050000Y-98420000D02*
X163050000Y-98300000D01*
X163930000Y-99300000D02*
X163050000Y-98420000D01*
X165165001Y-98234999D02*
X165165001Y-100250000D01*
X161790000Y-100250000D02*
X161790000Y-99790000D01*
X163050000Y-98530000D02*
X163050000Y-98300000D01*
X161790000Y-99790000D02*
X163050000Y-98530000D01*
X105230000Y-108550000D02*
X104870000Y-108190000D01*
X107965000Y-108550000D02*
X105230000Y-108550000D01*
X166090000Y-95990000D02*
X166400000Y-96300000D01*
X166090000Y-93510000D02*
X166090000Y-95990000D01*
X165990000Y-93610000D02*
X166090000Y-93510000D01*
X162960000Y-93610000D02*
X165990000Y-93610000D01*
X165900000Y-93320000D02*
X166090000Y-93510000D01*
X165900000Y-92150000D02*
X165900000Y-93320000D01*
D44*
X165900000Y-92150000D02*
X165900000Y-93450000D01*
X165900000Y-93450000D02*
X166340000Y-93890000D01*
X166340000Y-96240000D02*
X166400000Y-96300000D01*
X166340000Y-93890000D02*
X166340000Y-96240000D01*
X164910000Y-100250000D02*
X163960000Y-99300000D01*
X165165001Y-100250000D02*
X164910000Y-100250000D01*
D42*
X163960000Y-99300000D02*
X163930000Y-99300000D01*
X173000000Y-99300000D02*
X163960000Y-99300000D01*
X171644001Y-109324999D02*
X172819002Y-110500000D01*
X170541409Y-109324999D02*
X171644001Y-109324999D01*
X169716401Y-108499991D02*
X170541409Y-109324999D01*
X164374989Y-110853603D02*
X164374990Y-109203598D01*
X165078598Y-108499990D02*
X169716401Y-108499991D01*
X164374990Y-109203598D02*
X165078598Y-108499990D01*
X163813592Y-111415000D02*
X164374989Y-110853603D01*
X172819002Y-110500000D02*
X173620000Y-110500000D01*
X162940000Y-111415000D02*
X163813592Y-111415000D01*
X164824999Y-109389999D02*
X165264998Y-108950000D01*
X164824999Y-111040003D02*
X164824999Y-109389999D01*
X163800002Y-112065000D02*
X164824999Y-111040003D01*
X162940000Y-112065000D02*
X163800002Y-112065000D01*
X169530000Y-108950000D02*
X171080000Y-110500000D01*
X165264998Y-108950000D02*
X169530000Y-108950000D01*
X158540000Y-112740000D02*
X158540000Y-113390000D01*
X158540000Y-113390000D02*
X158750000Y-113600000D01*
X158750000Y-113600000D02*
X165100000Y-113600000D01*
X166000000Y-112700000D02*
X166000000Y-110500000D01*
X165100000Y-113600000D02*
X166000000Y-112700000D01*
X161290000Y-98060000D02*
X161290000Y-95680000D01*
X161050000Y-98300000D02*
X161290000Y-98060000D01*
X162000001Y-97349999D02*
X161050000Y-98300000D01*
X164400001Y-97849999D02*
X164250000Y-98000000D01*
X164400001Y-97349999D02*
X164400001Y-97849999D01*
X164400001Y-97349999D02*
X162000001Y-97349999D01*
X165160001Y-95349999D02*
X165400000Y-95589998D01*
X165400000Y-95589998D02*
X165400000Y-97010002D01*
X165400000Y-97010002D02*
X165060003Y-97349999D01*
X165060003Y-97349999D02*
X164400001Y-97349999D01*
X164060011Y-94538599D02*
X164060011Y-95060000D01*
X163631412Y-94110000D02*
X164060011Y-94538599D01*
X162960000Y-94110000D02*
X163631412Y-94110000D01*
X164350010Y-95349999D02*
X165160001Y-95349999D01*
X164060011Y-95060000D02*
X164350010Y-95349999D01*
D43*
X126170000Y-104720000D02*
X122730000Y-104720000D01*
X131280000Y-99610000D02*
X126170000Y-104720000D01*
X122730000Y-106884534D02*
X122730000Y-104720000D01*
X114830000Y-98720000D02*
X111964730Y-98720000D01*
X120503633Y-109110901D02*
X122730000Y-106884534D01*
X113806735Y-109110901D02*
X120503633Y-109110901D01*
X109635899Y-101048831D02*
X109635899Y-104940065D01*
X111964730Y-98720000D02*
X109635899Y-101048831D01*
D42*
X113245834Y-108550000D02*
X113806735Y-109110901D01*
X109415000Y-108550000D02*
X113245834Y-108550000D01*
D39*
X109415000Y-108550000D02*
X109915000Y-109050000D01*
X109915000Y-109050000D02*
X110910000Y-109050000D01*
D43*
X112327917Y-107632083D02*
X113806735Y-109110901D01*
D39*
X110910000Y-109050000D02*
X112327917Y-107632083D01*
D43*
X109635899Y-104940065D02*
X112327917Y-107632083D01*
D42*
X103130000Y-105390000D02*
X103330000Y-105390000D01*
X103835000Y-105895000D02*
X104520000Y-105895000D01*
X103330000Y-105390000D02*
X103835000Y-105895000D01*
X103130000Y-105390000D02*
X103130000Y-104440000D01*
X158070000Y-88640000D02*
X156320000Y-86890000D01*
X158240000Y-88640000D02*
X158070000Y-88640000D01*
X156570000Y-83540000D02*
X156320000Y-83290000D01*
X158240000Y-83540000D02*
X156570000Y-83540000D01*
X103120000Y-106880000D02*
X103130000Y-106890000D01*
X105430000Y-106890000D02*
X103130000Y-106890000D01*
X167770010Y-83330008D02*
X166144999Y-84955019D01*
X166144999Y-84955019D02*
X159534981Y-84955019D01*
X158240000Y-86250000D02*
X158240000Y-87140000D01*
X159534981Y-84955019D02*
X158240000Y-86250000D01*
X164055009Y-84505009D02*
X158994991Y-84505009D01*
X165230010Y-83330008D02*
X164055009Y-84505009D01*
X158460000Y-85040000D02*
X158240000Y-85040000D01*
X158994991Y-84505009D02*
X158460000Y-85040000D01*
X162960000Y-92610000D02*
X162960000Y-91970000D01*
X163794990Y-91135010D02*
X164464990Y-91135010D01*
X162960000Y-91970000D02*
X163794990Y-91135010D01*
X165090000Y-90510000D02*
X165090000Y-90310000D01*
X164464990Y-91135010D02*
X165090000Y-90510000D01*
X160090001Y-97346409D02*
X160090001Y-98209999D01*
X160090001Y-98209999D02*
X159390000Y-98910000D01*
X160780000Y-96656410D02*
X160090001Y-97346409D01*
X160780000Y-95690000D02*
X160780000Y-96656410D01*
X160790000Y-95680000D02*
X160780000Y-95690000D01*
X164139997Y-96560003D02*
X164400000Y-96300000D01*
X162695003Y-96560003D02*
X164139997Y-96560003D01*
X162290000Y-96155000D02*
X162695003Y-96560003D01*
X162290000Y-95680000D02*
X162290000Y-96155000D01*
D41*
X103940000Y-92160000D02*
X101830000Y-92160000D01*
X104750000Y-96270000D02*
X101960000Y-96270000D01*
D43*
X101960000Y-93850000D02*
X101830000Y-93720000D01*
X101830000Y-93720000D02*
X101830000Y-92160000D01*
X101960000Y-96270000D02*
X101960000Y-93850000D01*
D42*
X159790000Y-97010000D02*
X159390000Y-97410000D01*
X159790000Y-95680000D02*
X159790000Y-97010000D01*
X159790000Y-92040000D02*
X160290000Y-92040000D01*
X159220000Y-94610000D02*
X159220000Y-95110000D01*
X159220000Y-95110000D02*
X159790000Y-95680000D01*
X159220000Y-94610000D02*
X159910000Y-94610000D01*
X159770001Y-92059999D02*
X159790000Y-92040000D01*
X159770001Y-94470001D02*
X159770001Y-92059999D01*
X159910000Y-94610000D02*
X159770001Y-94470001D01*
X155210000Y-94610000D02*
X152670000Y-92070000D01*
X159220000Y-94610000D02*
X155210000Y-94610000D01*
X162050000Y-107810000D02*
X159590001Y-110269999D01*
X159590001Y-110269999D02*
X159590001Y-111219999D01*
X159395000Y-111415000D02*
X158540000Y-111415000D01*
X159590001Y-111219999D02*
X159395000Y-111415000D01*
X164400000Y-92150000D02*
X164400000Y-91980000D01*
X164749816Y-91630184D02*
X164995121Y-91630184D01*
X164400000Y-91980000D02*
X164749816Y-91630184D01*
X162960000Y-93110000D02*
X163650000Y-93110000D01*
X164400000Y-92360000D02*
X164400000Y-92150000D01*
X163650000Y-93110000D02*
X164400000Y-92360000D01*
X163270000Y-95835002D02*
X163125000Y-95835002D01*
X163610001Y-94724999D02*
X163610001Y-95495001D01*
X163495002Y-94610000D02*
X163610001Y-94724999D01*
X163610001Y-95495001D02*
X163270000Y-95835002D01*
X162960000Y-94610000D02*
X163495002Y-94610000D01*
D45*
G36*
X122494301Y-92071099D02*
G01*
X122316342Y-92035700D01*
X122043658Y-92035700D01*
X121776215Y-92088898D01*
X121524288Y-92193249D01*
X121297560Y-92344744D01*
X121104744Y-92537560D01*
X120953249Y-92764288D01*
X120848898Y-93016215D01*
X120795700Y-93283658D01*
X120795700Y-93556342D01*
X120848898Y-93823785D01*
X120953249Y-94075712D01*
X121104744Y-94302440D01*
X121297560Y-94495256D01*
X121524288Y-94646751D01*
X121687396Y-94714312D01*
X121464573Y-95131185D01*
X121283024Y-95729675D01*
X121221721Y-96352083D01*
X121283024Y-96974491D01*
X121464573Y-97572981D01*
X121759394Y-98124552D01*
X122092875Y-98530900D01*
X121963638Y-98530900D01*
X121637308Y-98595811D01*
X121329911Y-98723139D01*
X121053261Y-98907990D01*
X120817990Y-99143261D01*
X120633139Y-99419911D01*
X120505811Y-99727308D01*
X120440900Y-100053638D01*
X120440900Y-100386362D01*
X120505811Y-100712692D01*
X120633139Y-101020089D01*
X120817990Y-101296739D01*
X121053261Y-101532010D01*
X121329911Y-101716861D01*
X121489502Y-101782966D01*
X120957530Y-102067311D01*
X120474073Y-102464073D01*
X120077311Y-102947530D01*
X119844229Y-103383596D01*
X119782490Y-103499101D01*
X119600940Y-104097591D01*
X119583949Y-104270104D01*
X119483838Y-104203212D01*
X119213421Y-104091202D01*
X118926348Y-104034100D01*
X118633652Y-104034100D01*
X118346579Y-104091202D01*
X118076162Y-104203212D01*
X117832794Y-104365826D01*
X117625826Y-104572794D01*
X117463212Y-104816162D01*
X117351202Y-105086579D01*
X117294100Y-105373652D01*
X117294100Y-105666348D01*
X117347717Y-105935901D01*
X116706083Y-105935901D01*
X116711102Y-105923785D01*
X116764300Y-105656342D01*
X116764300Y-105383658D01*
X116711102Y-105116215D01*
X116606751Y-104864288D01*
X116455256Y-104637560D01*
X116262440Y-104444744D01*
X116035712Y-104293249D01*
X115783785Y-104188898D01*
X115516342Y-104135700D01*
X115243658Y-104135700D01*
X114976215Y-104188898D01*
X114724288Y-104293249D01*
X114497560Y-104444744D01*
X114304744Y-104637560D01*
X114153249Y-104864288D01*
X114123081Y-104937120D01*
X113720391Y-104534429D01*
X113922692Y-104494189D01*
X114230089Y-104366861D01*
X114506739Y-104182010D01*
X114742010Y-103946739D01*
X114926861Y-103670089D01*
X115054189Y-103362692D01*
X115119100Y-103036362D01*
X115119100Y-102703638D01*
X115054189Y-102377308D01*
X114926861Y-102069911D01*
X114809990Y-101895000D01*
X114985973Y-101895000D01*
X115452409Y-101849060D01*
X116050899Y-101667510D01*
X116602470Y-101372689D01*
X117085927Y-100975927D01*
X117482689Y-100492470D01*
X117777510Y-99940899D01*
X117959060Y-99342409D01*
X118020362Y-98720000D01*
X117959060Y-98097591D01*
X117777510Y-97499101D01*
X117482689Y-96947530D01*
X117085927Y-96464073D01*
X116602470Y-96067311D01*
X116050899Y-95772490D01*
X115452409Y-95590940D01*
X115168896Y-95563016D01*
X115274355Y-95492551D01*
X115502551Y-95264355D01*
X115681843Y-94996026D01*
X115805341Y-94697874D01*
X115868300Y-94381358D01*
X115868300Y-94058642D01*
X115805341Y-93742126D01*
X115681843Y-93443974D01*
X115568038Y-93273652D01*
X117294100Y-93273652D01*
X117294100Y-93566348D01*
X117351202Y-93853421D01*
X117463212Y-94123838D01*
X117625826Y-94367206D01*
X117832794Y-94574174D01*
X118076162Y-94736788D01*
X118346579Y-94848798D01*
X118633652Y-94905900D01*
X118926348Y-94905900D01*
X119213421Y-94848798D01*
X119483838Y-94736788D01*
X119727206Y-94574174D01*
X119934174Y-94367206D01*
X120096788Y-94123838D01*
X120208798Y-93853421D01*
X120265900Y-93566348D01*
X120265900Y-93273652D01*
X120208798Y-92986579D01*
X120096788Y-92716162D01*
X119934174Y-92472794D01*
X119727206Y-92265826D01*
X119483838Y-92103212D01*
X119213421Y-91991202D01*
X118926348Y-91934100D01*
X118633652Y-91934100D01*
X118346579Y-91991202D01*
X118076162Y-92103212D01*
X117832794Y-92265826D01*
X117625826Y-92472794D01*
X117463212Y-92716162D01*
X117351202Y-92986579D01*
X117294100Y-93273652D01*
X115568038Y-93273652D01*
X115502551Y-93175645D01*
X115274355Y-92947449D01*
X115006026Y-92768157D01*
X114707874Y-92644659D01*
X114391358Y-92581700D01*
X114068642Y-92581700D01*
X113752126Y-92644659D01*
X113453974Y-92768157D01*
X113185645Y-92947449D01*
X112957449Y-93175645D01*
X112778157Y-93443974D01*
X112654659Y-93742126D01*
X112591700Y-94058642D01*
X112591700Y-94381358D01*
X112654659Y-94697874D01*
X112778157Y-94996026D01*
X112957449Y-95264355D01*
X113185645Y-95492551D01*
X113264140Y-95545000D01*
X112120699Y-95545000D01*
X111964729Y-95529638D01*
X111808759Y-95545000D01*
X111808757Y-95545000D01*
X111342321Y-95590940D01*
X110743831Y-95772490D01*
X110192260Y-96067311D01*
X109708803Y-96464073D01*
X109609373Y-96585229D01*
X107501133Y-98693470D01*
X107379972Y-98792904D01*
X106983210Y-99276362D01*
X106688389Y-99827933D01*
X106506839Y-100426423D01*
X106466014Y-100840927D01*
X106445537Y-101048831D01*
X106460899Y-101204802D01*
X106460900Y-103100000D01*
X105620000Y-103100000D01*
X105560495Y-103105834D01*
X105501013Y-103111248D01*
X105498882Y-103111875D01*
X105496661Y-103112093D01*
X105439379Y-103129388D01*
X105382125Y-103146238D01*
X105380153Y-103147269D01*
X105378020Y-103147913D01*
X105325219Y-103175988D01*
X105272297Y-103203655D01*
X105270563Y-103205049D01*
X105268596Y-103206095D01*
X105246997Y-103223711D01*
X105211780Y-103196184D01*
X105100095Y-103139859D01*
X104979567Y-103106406D01*
X104854829Y-103097108D01*
X104805750Y-103100000D01*
X104647000Y-103258750D01*
X104647000Y-103862000D01*
X104667000Y-103862000D01*
X104667000Y-103888750D01*
X104647000Y-103908750D01*
X104647000Y-104742000D01*
X104393000Y-104742000D01*
X104393000Y-103908750D01*
X104373000Y-103888750D01*
X104373000Y-103862000D01*
X104393000Y-103862000D01*
X104393000Y-103258750D01*
X104234250Y-103100000D01*
X104185171Y-103097108D01*
X104096935Y-103103685D01*
X104056250Y-103063000D01*
X103257000Y-103063000D01*
X103257000Y-103087000D01*
X103003000Y-103087000D01*
X103003000Y-103063000D01*
X102203750Y-103063000D01*
X102045000Y-103221750D01*
X102056896Y-103327397D01*
X102095674Y-103446318D01*
X102156907Y-103555389D01*
X102238242Y-103650419D01*
X102288425Y-103689895D01*
X102228815Y-103738815D01*
X102149463Y-103835506D01*
X102090498Y-103945820D01*
X102054188Y-104065518D01*
X102041928Y-104190000D01*
X102041928Y-104690000D01*
X102054188Y-104814482D01*
X102084680Y-104915000D01*
X102054188Y-105015518D01*
X102041928Y-105140000D01*
X102041928Y-105640000D01*
X102054188Y-105764482D01*
X102090498Y-105884180D01*
X102149463Y-105994494D01*
X102228815Y-106091185D01*
X102288296Y-106140000D01*
X102228815Y-106188815D01*
X102149463Y-106285506D01*
X102090498Y-106395820D01*
X102054188Y-106515518D01*
X102041928Y-106640000D01*
X102041928Y-107140000D01*
X102054188Y-107264482D01*
X102090498Y-107384180D01*
X102149463Y-107494494D01*
X102228815Y-107591185D01*
X102325506Y-107670537D01*
X102435820Y-107729502D01*
X102555518Y-107765812D01*
X102680000Y-107778072D01*
X103580000Y-107778072D01*
X103704482Y-107765812D01*
X103824180Y-107729502D01*
X103934494Y-107670537D01*
X103959518Y-107650000D01*
X104726289Y-107650000D01*
X104770226Y-107693937D01*
X104939744Y-107807205D01*
X105128102Y-107885226D01*
X105328061Y-107925000D01*
X105531939Y-107925000D01*
X105731898Y-107885226D01*
X105920256Y-107807205D01*
X106089774Y-107693937D01*
X106233937Y-107549774D01*
X106347205Y-107380256D01*
X106425226Y-107191898D01*
X106465000Y-106991939D01*
X106465000Y-106788061D01*
X106455440Y-106740000D01*
X107005751Y-106740000D01*
X107015110Y-106751404D01*
X107379973Y-107195992D01*
X107501128Y-107295421D01*
X108091162Y-107885456D01*
X107884092Y-108196061D01*
X107825754Y-108305204D01*
X107789319Y-108424864D01*
X107776928Y-108549333D01*
X107789059Y-108673827D01*
X107825243Y-108793563D01*
X107884092Y-108903939D01*
X108384092Y-109653939D01*
X108463815Y-109751185D01*
X108560506Y-109830537D01*
X108670820Y-109889502D01*
X108790518Y-109925812D01*
X108915000Y-109938072D01*
X109208009Y-109938072D01*
X109281377Y-109998284D01*
X109478553Y-110103676D01*
X109692501Y-110168577D01*
X109769910Y-110176201D01*
X109915000Y-110190491D01*
X109970752Y-110185000D01*
X110390707Y-110185000D01*
X111451374Y-111245667D01*
X111550808Y-111366828D01*
X112034265Y-111763590D01*
X112585836Y-112058411D01*
X113184326Y-112239961D01*
X113650762Y-112285901D01*
X113650764Y-112285901D01*
X113806734Y-112301263D01*
X113962704Y-112285901D01*
X120347663Y-112285901D01*
X120503633Y-112301263D01*
X120659603Y-112285901D01*
X120659606Y-112285901D01*
X121126042Y-112239961D01*
X121724532Y-112058411D01*
X122276103Y-111763590D01*
X122759560Y-111366828D01*
X122858994Y-111245667D01*
X124590166Y-109514495D01*
X137895000Y-109514495D01*
X137895000Y-109905505D01*
X137971282Y-110289003D01*
X138120915Y-110650250D01*
X138338149Y-110975364D01*
X138614636Y-111251851D01*
X138939750Y-111469085D01*
X139300997Y-111618718D01*
X139684495Y-111695000D01*
X140075505Y-111695000D01*
X140459003Y-111618718D01*
X140820250Y-111469085D01*
X141145364Y-111251851D01*
X141421851Y-110975364D01*
X141639085Y-110650250D01*
X141788718Y-110289003D01*
X141865000Y-109905505D01*
X141865000Y-109514495D01*
X141788718Y-109130997D01*
X141639085Y-108769750D01*
X141421851Y-108444636D01*
X141145364Y-108168149D01*
X140820250Y-107950915D01*
X140459003Y-107801282D01*
X140075505Y-107725000D01*
X139684495Y-107725000D01*
X139300997Y-107801282D01*
X138939750Y-107950915D01*
X138614636Y-108168149D01*
X138338149Y-108444636D01*
X138120915Y-108769750D01*
X137971282Y-109130997D01*
X137895000Y-109514495D01*
X124590166Y-109514495D01*
X124864772Y-109239890D01*
X124985927Y-109140461D01*
X125382689Y-108657004D01*
X125677510Y-108105433D01*
X125741344Y-107895000D01*
X126014030Y-107895000D01*
X126170000Y-107910362D01*
X126325970Y-107895000D01*
X126325973Y-107895000D01*
X126792409Y-107849060D01*
X127390899Y-107667510D01*
X127942470Y-107372689D01*
X128425927Y-106975927D01*
X128525361Y-106854766D01*
X133635353Y-101744775D01*
X133932688Y-101382471D01*
X134227510Y-100830899D01*
X134409059Y-100232410D01*
X134455235Y-99763590D01*
X141750811Y-107059167D01*
X141702068Y-107176842D01*
X141645000Y-107463740D01*
X141645000Y-107756260D01*
X141702068Y-108043158D01*
X141814010Y-108313411D01*
X141976525Y-108556632D01*
X142183368Y-108763475D01*
X142426589Y-108925990D01*
X142696842Y-109037932D01*
X142983740Y-109095000D01*
X143276260Y-109095000D01*
X143563158Y-109037932D01*
X143833411Y-108925990D01*
X144076632Y-108763475D01*
X144283475Y-108556632D01*
X144445990Y-108313411D01*
X144557932Y-108043158D01*
X144615000Y-107756260D01*
X144615000Y-107463740D01*
X144557932Y-107176842D01*
X144445990Y-106906589D01*
X144283475Y-106663368D01*
X144076632Y-106456525D01*
X143867886Y-106317045D01*
X143847633Y-106292367D01*
X143809100Y-106260744D01*
X141668356Y-104120000D01*
X142039893Y-104120000D01*
X142183368Y-104263475D01*
X142426589Y-104425990D01*
X142696842Y-104537932D01*
X142983740Y-104595000D01*
X143276260Y-104595000D01*
X143563158Y-104537932D01*
X143833411Y-104425990D01*
X144076632Y-104263475D01*
X144283475Y-104056632D01*
X144445990Y-103813411D01*
X144557932Y-103543158D01*
X144615000Y-103256260D01*
X144615000Y-102963740D01*
X144557932Y-102676842D01*
X144458006Y-102435598D01*
X145575471Y-102435598D01*
X146025000Y-102885128D01*
X146025001Y-107614020D01*
X146009638Y-107770000D01*
X146058462Y-108265707D01*
X146070941Y-108392409D01*
X146102988Y-108498053D01*
X146252490Y-108990898D01*
X146547311Y-109542469D01*
X146595344Y-109600997D01*
X146944074Y-110025927D01*
X147065230Y-110125357D01*
X148374638Y-111434765D01*
X148474072Y-111555926D01*
X148957529Y-111952688D01*
X149509100Y-112247509D01*
X149648894Y-112289915D01*
X149603175Y-112385901D01*
X149558524Y-112533110D01*
X149679845Y-112763000D01*
X150873000Y-112763000D01*
X150873000Y-112743000D01*
X151127000Y-112743000D01*
X151127000Y-112763000D01*
X152320155Y-112763000D01*
X152441476Y-112533110D01*
X152415209Y-112446512D01*
X152592408Y-112429059D01*
X153166203Y-112255000D01*
X154215673Y-112255000D01*
X154132068Y-112456842D01*
X154075000Y-112743740D01*
X154075000Y-113036260D01*
X154132068Y-113323158D01*
X154244010Y-113593411D01*
X154405435Y-113835000D01*
X152138813Y-113835000D01*
X152271641Y-113656920D01*
X152396825Y-113394099D01*
X152441476Y-113246890D01*
X152320155Y-113017000D01*
X151127000Y-113017000D01*
X151127000Y-113037000D01*
X150873000Y-113037000D01*
X150873000Y-113017000D01*
X149679845Y-113017000D01*
X149558524Y-113246890D01*
X149603175Y-113394099D01*
X149728359Y-113656920D01*
X149861187Y-113835000D01*
X101780935Y-113835000D01*
X101936248Y-113770667D01*
X102128584Y-113642152D01*
X102292152Y-113478584D01*
X102420667Y-113286248D01*
X102509190Y-113072536D01*
X102554318Y-112845660D01*
X102554318Y-112614340D01*
X102509190Y-112387464D01*
X102420667Y-112173752D01*
X102292152Y-111981416D01*
X102128584Y-111817848D01*
X101936248Y-111689333D01*
X101722536Y-111600810D01*
X101495660Y-111555682D01*
X101264340Y-111555682D01*
X101037464Y-111600810D01*
X100823752Y-111689333D01*
X100631416Y-111817848D01*
X100467848Y-111981416D01*
X100339333Y-112173752D01*
X100250810Y-112387464D01*
X100205682Y-112614340D01*
X100205682Y-112845660D01*
X100250810Y-113072536D01*
X100339333Y-113286248D01*
X100467848Y-113478584D01*
X100631416Y-113642152D01*
X100823752Y-113770667D01*
X100979065Y-113835000D01*
X99185000Y-113835000D01*
X99185000Y-102658250D01*
X102045000Y-102658250D01*
X102203750Y-102817000D01*
X103003000Y-102817000D01*
X103003000Y-102213750D01*
X103257000Y-102213750D01*
X103257000Y-102817000D01*
X104056250Y-102817000D01*
X104215000Y-102658250D01*
X104203104Y-102552603D01*
X104164326Y-102433682D01*
X104103093Y-102324611D01*
X104021758Y-102229581D01*
X103923447Y-102152245D01*
X103811937Y-102095575D01*
X103691514Y-102061748D01*
X103566805Y-102052064D01*
X103415750Y-102055000D01*
X103257000Y-102213750D01*
X103003000Y-102213750D01*
X102844250Y-102055000D01*
X102693195Y-102052064D01*
X102568486Y-102061748D01*
X102448063Y-102095575D01*
X102336553Y-102152245D01*
X102238242Y-102229581D01*
X102156907Y-102324611D01*
X102095674Y-102433682D01*
X102056896Y-102552603D01*
X102045000Y-102658250D01*
X99185000Y-102658250D01*
X99185000Y-97813641D01*
X99307311Y-98042469D01*
X99704073Y-98525927D01*
X100187530Y-98922689D01*
X100739101Y-99217510D01*
X101337591Y-99399060D01*
X101960000Y-99460362D01*
X102582408Y-99399060D01*
X103180898Y-99217510D01*
X103217168Y-99198123D01*
X103177832Y-99293088D01*
X103115000Y-99608967D01*
X103115000Y-99931033D01*
X103177832Y-100246912D01*
X103301082Y-100544463D01*
X103480013Y-100812252D01*
X103707748Y-101039987D01*
X103975537Y-101218918D01*
X104273088Y-101342168D01*
X104588967Y-101405000D01*
X104911033Y-101405000D01*
X105226912Y-101342168D01*
X105524463Y-101218918D01*
X105792252Y-101039987D01*
X106019987Y-100812252D01*
X106198918Y-100544463D01*
X106322168Y-100246912D01*
X106385000Y-99931033D01*
X106385000Y-99608967D01*
X106322168Y-99293088D01*
X106198918Y-98995537D01*
X106019987Y-98727748D01*
X105792252Y-98500013D01*
X105524463Y-98321082D01*
X105226912Y-98197832D01*
X105023193Y-98157310D01*
X105123445Y-98147436D01*
X105482539Y-98038506D01*
X105813482Y-97861613D01*
X106103556Y-97623556D01*
X106341613Y-97333482D01*
X106518506Y-97002539D01*
X106627436Y-96643445D01*
X106664217Y-96270000D01*
X106627436Y-95896555D01*
X106518506Y-95537461D01*
X106341613Y-95206518D01*
X106103556Y-94916444D01*
X105813482Y-94678387D01*
X105482539Y-94501494D01*
X105135000Y-94396069D01*
X105135000Y-94005973D01*
X105150362Y-93850000D01*
X105133008Y-93673799D01*
X105130412Y-93647444D01*
X105268093Y-93534453D01*
X105275506Y-93540537D01*
X105385820Y-93599502D01*
X105505518Y-93635812D01*
X105630000Y-93648072D01*
X106098805Y-93648072D01*
X106177541Y-93712689D01*
X106729112Y-94007510D01*
X107327602Y-94189060D01*
X107950010Y-94250362D01*
X108572419Y-94189060D01*
X109170909Y-94007510D01*
X109722480Y-93712689D01*
X110205937Y-93315927D01*
X110602699Y-92832470D01*
X110897520Y-92280898D01*
X110940319Y-92139808D01*
X111885129Y-91194999D01*
X122494302Y-91194999D01*
X122494301Y-92071099D01*
G37*
X122494301Y-92071099D02*
X122316342Y-92035700D01*
X122043658Y-92035700D01*
X121776215Y-92088898D01*
X121524288Y-92193249D01*
X121297560Y-92344744D01*
X121104744Y-92537560D01*
X120953249Y-92764288D01*
X120848898Y-93016215D01*
X120795700Y-93283658D01*
X120795700Y-93556342D01*
X120848898Y-93823785D01*
X120953249Y-94075712D01*
X121104744Y-94302440D01*
X121297560Y-94495256D01*
X121524288Y-94646751D01*
X121687396Y-94714312D01*
X121464573Y-95131185D01*
X121283024Y-95729675D01*
X121221721Y-96352083D01*
X121283024Y-96974491D01*
X121464573Y-97572981D01*
X121759394Y-98124552D01*
X122092875Y-98530900D01*
X121963638Y-98530900D01*
X121637308Y-98595811D01*
X121329911Y-98723139D01*
X121053261Y-98907990D01*
X120817990Y-99143261D01*
X120633139Y-99419911D01*
X120505811Y-99727308D01*
X120440900Y-100053638D01*
X120440900Y-100386362D01*
X120505811Y-100712692D01*
X120633139Y-101020089D01*
X120817990Y-101296739D01*
X121053261Y-101532010D01*
X121329911Y-101716861D01*
X121489502Y-101782966D01*
X120957530Y-102067311D01*
X120474073Y-102464073D01*
X120077311Y-102947530D01*
X119844229Y-103383596D01*
X119782490Y-103499101D01*
X119600940Y-104097591D01*
X119583949Y-104270104D01*
X119483838Y-104203212D01*
X119213421Y-104091202D01*
X118926348Y-104034100D01*
X118633652Y-104034100D01*
X118346579Y-104091202D01*
X118076162Y-104203212D01*
X117832794Y-104365826D01*
X117625826Y-104572794D01*
X117463212Y-104816162D01*
X117351202Y-105086579D01*
X117294100Y-105373652D01*
X117294100Y-105666348D01*
X117347717Y-105935901D01*
X116706083Y-105935901D01*
X116711102Y-105923785D01*
X116764300Y-105656342D01*
X116764300Y-105383658D01*
X116711102Y-105116215D01*
X116606751Y-104864288D01*
X116455256Y-104637560D01*
X116262440Y-104444744D01*
X116035712Y-104293249D01*
X115783785Y-104188898D01*
X115516342Y-104135700D01*
X115243658Y-104135700D01*
X114976215Y-104188898D01*
X114724288Y-104293249D01*
X114497560Y-104444744D01*
X114304744Y-104637560D01*
X114153249Y-104864288D01*
X114123081Y-104937120D01*
X113720391Y-104534429D01*
X113922692Y-104494189D01*
X114230089Y-104366861D01*
X114506739Y-104182010D01*
X114742010Y-103946739D01*
X114926861Y-103670089D01*
X115054189Y-103362692D01*
X115119100Y-103036362D01*
X115119100Y-102703638D01*
X115054189Y-102377308D01*
X114926861Y-102069911D01*
X114809990Y-101895000D01*
X114985973Y-101895000D01*
X115452409Y-101849060D01*
X116050899Y-101667510D01*
X116602470Y-101372689D01*
X117085927Y-100975927D01*
X117482689Y-100492470D01*
X117777510Y-99940899D01*
X117959060Y-99342409D01*
X118020362Y-98720000D01*
X117959060Y-98097591D01*
X117777510Y-97499101D01*
X117482689Y-96947530D01*
X117085927Y-96464073D01*
X116602470Y-96067311D01*
X116050899Y-95772490D01*
X115452409Y-95590940D01*
X115168896Y-95563016D01*
X115274355Y-95492551D01*
X115502551Y-95264355D01*
X115681843Y-94996026D01*
X115805341Y-94697874D01*
X115868300Y-94381358D01*
X115868300Y-94058642D01*
X115805341Y-93742126D01*
X115681843Y-93443974D01*
X115568038Y-93273652D01*
X117294100Y-93273652D01*
X117294100Y-93566348D01*
X117351202Y-93853421D01*
X117463212Y-94123838D01*
X117625826Y-94367206D01*
X117832794Y-94574174D01*
X118076162Y-94736788D01*
X118346579Y-94848798D01*
X118633652Y-94905900D01*
X118926348Y-94905900D01*
X119213421Y-94848798D01*
X119483838Y-94736788D01*
X119727206Y-94574174D01*
X119934174Y-94367206D01*
X120096788Y-94123838D01*
X120208798Y-93853421D01*
X120265900Y-93566348D01*
X120265900Y-93273652D01*
X120208798Y-92986579D01*
X120096788Y-92716162D01*
X119934174Y-92472794D01*
X119727206Y-92265826D01*
X119483838Y-92103212D01*
X119213421Y-91991202D01*
X118926348Y-91934100D01*
X118633652Y-91934100D01*
X118346579Y-91991202D01*
X118076162Y-92103212D01*
X117832794Y-92265826D01*
X117625826Y-92472794D01*
X117463212Y-92716162D01*
X117351202Y-92986579D01*
X117294100Y-93273652D01*
X115568038Y-93273652D01*
X115502551Y-93175645D01*
X115274355Y-92947449D01*
X115006026Y-92768157D01*
X114707874Y-92644659D01*
X114391358Y-92581700D01*
X114068642Y-92581700D01*
X113752126Y-92644659D01*
X113453974Y-92768157D01*
X113185645Y-92947449D01*
X112957449Y-93175645D01*
X112778157Y-93443974D01*
X112654659Y-93742126D01*
X112591700Y-94058642D01*
X112591700Y-94381358D01*
X112654659Y-94697874D01*
X112778157Y-94996026D01*
X112957449Y-95264355D01*
X113185645Y-95492551D01*
X113264140Y-95545000D01*
X112120699Y-95545000D01*
X111964729Y-95529638D01*
X111808759Y-95545000D01*
X111808757Y-95545000D01*
X111342321Y-95590940D01*
X110743831Y-95772490D01*
X110192260Y-96067311D01*
X109708803Y-96464073D01*
X109609373Y-96585229D01*
X107501133Y-98693470D01*
X107379972Y-98792904D01*
X106983210Y-99276362D01*
X106688389Y-99827933D01*
X106506839Y-100426423D01*
X106466014Y-100840927D01*
X106445537Y-101048831D01*
X106460899Y-101204802D01*
X106460900Y-103100000D01*
X105620000Y-103100000D01*
X105560495Y-103105834D01*
X105501013Y-103111248D01*
X105498882Y-103111875D01*
X105496661Y-103112093D01*
X105439379Y-103129388D01*
X105382125Y-103146238D01*
X105380153Y-103147269D01*
X105378020Y-103147913D01*
X105325219Y-103175988D01*
X105272297Y-103203655D01*
X105270563Y-103205049D01*
X105268596Y-103206095D01*
X105246997Y-103223711D01*
X105211780Y-103196184D01*
X105100095Y-103139859D01*
X104979567Y-103106406D01*
X104854829Y-103097108D01*
X104805750Y-103100000D01*
X104647000Y-103258750D01*
X104647000Y-103862000D01*
X104667000Y-103862000D01*
X104667000Y-103888750D01*
X104647000Y-103908750D01*
X104647000Y-104742000D01*
X104393000Y-104742000D01*
X104393000Y-103908750D01*
X104373000Y-103888750D01*
X104373000Y-103862000D01*
X104393000Y-103862000D01*
X104393000Y-103258750D01*
X104234250Y-103100000D01*
X104185171Y-103097108D01*
X104096935Y-103103685D01*
X104056250Y-103063000D01*
X103257000Y-103063000D01*
X103257000Y-103087000D01*
X103003000Y-103087000D01*
X103003000Y-103063000D01*
X102203750Y-103063000D01*
X102045000Y-103221750D01*
X102056896Y-103327397D01*
X102095674Y-103446318D01*
X102156907Y-103555389D01*
X102238242Y-103650419D01*
X102288425Y-103689895D01*
X102228815Y-103738815D01*
X102149463Y-103835506D01*
X102090498Y-103945820D01*
X102054188Y-104065518D01*
X102041928Y-104190000D01*
X102041928Y-104690000D01*
X102054188Y-104814482D01*
X102084680Y-104915000D01*
X102054188Y-105015518D01*
X102041928Y-105140000D01*
X102041928Y-105640000D01*
X102054188Y-105764482D01*
X102090498Y-105884180D01*
X102149463Y-105994494D01*
X102228815Y-106091185D01*
X102288296Y-106140000D01*
X102228815Y-106188815D01*
X102149463Y-106285506D01*
X102090498Y-106395820D01*
X102054188Y-106515518D01*
X102041928Y-106640000D01*
X102041928Y-107140000D01*
X102054188Y-107264482D01*
X102090498Y-107384180D01*
X102149463Y-107494494D01*
X102228815Y-107591185D01*
X102325506Y-107670537D01*
X102435820Y-107729502D01*
X102555518Y-107765812D01*
X102680000Y-107778072D01*
X103580000Y-107778072D01*
X103704482Y-107765812D01*
X103824180Y-107729502D01*
X103934494Y-107670537D01*
X103959518Y-107650000D01*
X104726289Y-107650000D01*
X104770226Y-107693937D01*
X104939744Y-107807205D01*
X105128102Y-107885226D01*
X105328061Y-107925000D01*
X105531939Y-107925000D01*
X105731898Y-107885226D01*
X105920256Y-107807205D01*
X106089774Y-107693937D01*
X106233937Y-107549774D01*
X106347205Y-107380256D01*
X106425226Y-107191898D01*
X106465000Y-106991939D01*
X106465000Y-106788061D01*
X106455440Y-106740000D01*
X107005751Y-106740000D01*
X107015110Y-106751404D01*
X107379973Y-107195992D01*
X107501128Y-107295421D01*
X108091162Y-107885456D01*
X107884092Y-108196061D01*
X107825754Y-108305204D01*
X107789319Y-108424864D01*
X107776928Y-108549333D01*
X107789059Y-108673827D01*
X107825243Y-108793563D01*
X107884092Y-108903939D01*
X108384092Y-109653939D01*
X108463815Y-109751185D01*
X108560506Y-109830537D01*
X108670820Y-109889502D01*
X108790518Y-109925812D01*
X108915000Y-109938072D01*
X109208009Y-109938072D01*
X109281377Y-109998284D01*
X109478553Y-110103676D01*
X109692501Y-110168577D01*
X109769910Y-110176201D01*
X109915000Y-110190491D01*
X109970752Y-110185000D01*
X110390707Y-110185000D01*
X111451374Y-111245667D01*
X111550808Y-111366828D01*
X112034265Y-111763590D01*
X112585836Y-112058411D01*
X113184326Y-112239961D01*
X113650762Y-112285901D01*
X113650764Y-112285901D01*
X113806734Y-112301263D01*
X113962704Y-112285901D01*
X120347663Y-112285901D01*
X120503633Y-112301263D01*
X120659603Y-112285901D01*
X120659606Y-112285901D01*
X121126042Y-112239961D01*
X121724532Y-112058411D01*
X122276103Y-111763590D01*
X122759560Y-111366828D01*
X122858994Y-111245667D01*
X124590166Y-109514495D01*
X137895000Y-109514495D01*
X137895000Y-109905505D01*
X137971282Y-110289003D01*
X138120915Y-110650250D01*
X138338149Y-110975364D01*
X138614636Y-111251851D01*
X138939750Y-111469085D01*
X139300997Y-111618718D01*
X139684495Y-111695000D01*
X140075505Y-111695000D01*
X140459003Y-111618718D01*
X140820250Y-111469085D01*
X141145364Y-111251851D01*
X141421851Y-110975364D01*
X141639085Y-110650250D01*
X141788718Y-110289003D01*
X141865000Y-109905505D01*
X141865000Y-109514495D01*
X141788718Y-109130997D01*
X141639085Y-108769750D01*
X141421851Y-108444636D01*
X141145364Y-108168149D01*
X140820250Y-107950915D01*
X140459003Y-107801282D01*
X140075505Y-107725000D01*
X139684495Y-107725000D01*
X139300997Y-107801282D01*
X138939750Y-107950915D01*
X138614636Y-108168149D01*
X138338149Y-108444636D01*
X138120915Y-108769750D01*
X137971282Y-109130997D01*
X137895000Y-109514495D01*
X124590166Y-109514495D01*
X124864772Y-109239890D01*
X124985927Y-109140461D01*
X125382689Y-108657004D01*
X125677510Y-108105433D01*
X125741344Y-107895000D01*
X126014030Y-107895000D01*
X126170000Y-107910362D01*
X126325970Y-107895000D01*
X126325973Y-107895000D01*
X126792409Y-107849060D01*
X127390899Y-107667510D01*
X127942470Y-107372689D01*
X128425927Y-106975927D01*
X128525361Y-106854766D01*
X133635353Y-101744775D01*
X133932688Y-101382471D01*
X134227510Y-100830899D01*
X134409059Y-100232410D01*
X134455235Y-99763590D01*
X141750811Y-107059167D01*
X141702068Y-107176842D01*
X141645000Y-107463740D01*
X141645000Y-107756260D01*
X141702068Y-108043158D01*
X141814010Y-108313411D01*
X141976525Y-108556632D01*
X142183368Y-108763475D01*
X142426589Y-108925990D01*
X142696842Y-109037932D01*
X142983740Y-109095000D01*
X143276260Y-109095000D01*
X143563158Y-109037932D01*
X143833411Y-108925990D01*
X144076632Y-108763475D01*
X144283475Y-108556632D01*
X144445990Y-108313411D01*
X144557932Y-108043158D01*
X144615000Y-107756260D01*
X144615000Y-107463740D01*
X144557932Y-107176842D01*
X144445990Y-106906589D01*
X144283475Y-106663368D01*
X144076632Y-106456525D01*
X143867886Y-106317045D01*
X143847633Y-106292367D01*
X143809100Y-106260744D01*
X141668356Y-104120000D01*
X142039893Y-104120000D01*
X142183368Y-104263475D01*
X142426589Y-104425990D01*
X142696842Y-104537932D01*
X142983740Y-104595000D01*
X143276260Y-104595000D01*
X143563158Y-104537932D01*
X143833411Y-104425990D01*
X144076632Y-104263475D01*
X144283475Y-104056632D01*
X144445990Y-103813411D01*
X144557932Y-103543158D01*
X144615000Y-103256260D01*
X144615000Y-102963740D01*
X144557932Y-102676842D01*
X144458006Y-102435598D01*
X145575471Y-102435598D01*
X146025000Y-102885128D01*
X146025001Y-107614020D01*
X146009638Y-107770000D01*
X146058462Y-108265707D01*
X146070941Y-108392409D01*
X146102988Y-108498053D01*
X146252490Y-108990898D01*
X146547311Y-109542469D01*
X146595344Y-109600997D01*
X146944074Y-110025927D01*
X147065230Y-110125357D01*
X148374638Y-111434765D01*
X148474072Y-111555926D01*
X148957529Y-111952688D01*
X149509100Y-112247509D01*
X149648894Y-112289915D01*
X149603175Y-112385901D01*
X149558524Y-112533110D01*
X149679845Y-112763000D01*
X150873000Y-112763000D01*
X150873000Y-112743000D01*
X151127000Y-112743000D01*
X151127000Y-112763000D01*
X152320155Y-112763000D01*
X152441476Y-112533110D01*
X152415209Y-112446512D01*
X152592408Y-112429059D01*
X153166203Y-112255000D01*
X154215673Y-112255000D01*
X154132068Y-112456842D01*
X154075000Y-112743740D01*
X154075000Y-113036260D01*
X154132068Y-113323158D01*
X154244010Y-113593411D01*
X154405435Y-113835000D01*
X152138813Y-113835000D01*
X152271641Y-113656920D01*
X152396825Y-113394099D01*
X152441476Y-113246890D01*
X152320155Y-113017000D01*
X151127000Y-113017000D01*
X151127000Y-113037000D01*
X150873000Y-113037000D01*
X150873000Y-113017000D01*
X149679845Y-113017000D01*
X149558524Y-113246890D01*
X149603175Y-113394099D01*
X149728359Y-113656920D01*
X149861187Y-113835000D01*
X101780935Y-113835000D01*
X101936248Y-113770667D01*
X102128584Y-113642152D01*
X102292152Y-113478584D01*
X102420667Y-113286248D01*
X102509190Y-113072536D01*
X102554318Y-112845660D01*
X102554318Y-112614340D01*
X102509190Y-112387464D01*
X102420667Y-112173752D01*
X102292152Y-111981416D01*
X102128584Y-111817848D01*
X101936248Y-111689333D01*
X101722536Y-111600810D01*
X101495660Y-111555682D01*
X101264340Y-111555682D01*
X101037464Y-111600810D01*
X100823752Y-111689333D01*
X100631416Y-111817848D01*
X100467848Y-111981416D01*
X100339333Y-112173752D01*
X100250810Y-112387464D01*
X100205682Y-112614340D01*
X100205682Y-112845660D01*
X100250810Y-113072536D01*
X100339333Y-113286248D01*
X100467848Y-113478584D01*
X100631416Y-113642152D01*
X100823752Y-113770667D01*
X100979065Y-113835000D01*
X99185000Y-113835000D01*
X99185000Y-102658250D01*
X102045000Y-102658250D01*
X102203750Y-102817000D01*
X103003000Y-102817000D01*
X103003000Y-102213750D01*
X103257000Y-102213750D01*
X103257000Y-102817000D01*
X104056250Y-102817000D01*
X104215000Y-102658250D01*
X104203104Y-102552603D01*
X104164326Y-102433682D01*
X104103093Y-102324611D01*
X104021758Y-102229581D01*
X103923447Y-102152245D01*
X103811937Y-102095575D01*
X103691514Y-102061748D01*
X103566805Y-102052064D01*
X103415750Y-102055000D01*
X103257000Y-102213750D01*
X103003000Y-102213750D01*
X102844250Y-102055000D01*
X102693195Y-102052064D01*
X102568486Y-102061748D01*
X102448063Y-102095575D01*
X102336553Y-102152245D01*
X102238242Y-102229581D01*
X102156907Y-102324611D01*
X102095674Y-102433682D01*
X102056896Y-102552603D01*
X102045000Y-102658250D01*
X99185000Y-102658250D01*
X99185000Y-97813641D01*
X99307311Y-98042469D01*
X99704073Y-98525927D01*
X100187530Y-98922689D01*
X100739101Y-99217510D01*
X101337591Y-99399060D01*
X101960000Y-99460362D01*
X102582408Y-99399060D01*
X103180898Y-99217510D01*
X103217168Y-99198123D01*
X103177832Y-99293088D01*
X103115000Y-99608967D01*
X103115000Y-99931033D01*
X103177832Y-100246912D01*
X103301082Y-100544463D01*
X103480013Y-100812252D01*
X103707748Y-101039987D01*
X103975537Y-101218918D01*
X104273088Y-101342168D01*
X104588967Y-101405000D01*
X104911033Y-101405000D01*
X105226912Y-101342168D01*
X105524463Y-101218918D01*
X105792252Y-101039987D01*
X106019987Y-100812252D01*
X106198918Y-100544463D01*
X106322168Y-100246912D01*
X106385000Y-99931033D01*
X106385000Y-99608967D01*
X106322168Y-99293088D01*
X106198918Y-98995537D01*
X106019987Y-98727748D01*
X105792252Y-98500013D01*
X105524463Y-98321082D01*
X105226912Y-98197832D01*
X105023193Y-98157310D01*
X105123445Y-98147436D01*
X105482539Y-98038506D01*
X105813482Y-97861613D01*
X106103556Y-97623556D01*
X106341613Y-97333482D01*
X106518506Y-97002539D01*
X106627436Y-96643445D01*
X106664217Y-96270000D01*
X106627436Y-95896555D01*
X106518506Y-95537461D01*
X106341613Y-95206518D01*
X106103556Y-94916444D01*
X105813482Y-94678387D01*
X105482539Y-94501494D01*
X105135000Y-94396069D01*
X105135000Y-94005973D01*
X105150362Y-93850000D01*
X105133008Y-93673799D01*
X105130412Y-93647444D01*
X105268093Y-93534453D01*
X105275506Y-93540537D01*
X105385820Y-93599502D01*
X105505518Y-93635812D01*
X105630000Y-93648072D01*
X106098805Y-93648072D01*
X106177541Y-93712689D01*
X106729112Y-94007510D01*
X107327602Y-94189060D01*
X107950010Y-94250362D01*
X108572419Y-94189060D01*
X109170909Y-94007510D01*
X109722480Y-93712689D01*
X110205937Y-93315927D01*
X110602699Y-92832470D01*
X110897520Y-92280898D01*
X110940319Y-92139808D01*
X111885129Y-91194999D01*
X122494302Y-91194999D01*
X122494301Y-92071099D01*
G36*
X157176928Y-111615000D02*
G01*
X157189188Y-111739482D01*
X157189345Y-111740000D01*
X157189188Y-111740518D01*
X157176928Y-111865000D01*
X157176928Y-112265000D01*
X157189188Y-112389482D01*
X157189345Y-112390000D01*
X157189188Y-112390518D01*
X157176928Y-112515000D01*
X157176928Y-112965000D01*
X157189188Y-113089482D01*
X157225498Y-113209180D01*
X157284463Y-113319494D01*
X157363815Y-113416185D01*
X157460506Y-113495537D01*
X157570820Y-113554502D01*
X157690518Y-113590812D01*
X157810296Y-113602609D01*
X157834454Y-113682247D01*
X157859037Y-113728236D01*
X157905026Y-113814276D01*
X157922034Y-113835000D01*
X156714565Y-113835000D01*
X156875990Y-113593411D01*
X156987932Y-113323158D01*
X157045000Y-113036260D01*
X157045000Y-112743740D01*
X156987932Y-112456842D01*
X156875990Y-112186589D01*
X156756717Y-112008084D01*
X157176928Y-111587874D01*
X157176928Y-111615000D01*
G37*
X157176928Y-111615000D02*
X157189188Y-111739482D01*
X157189345Y-111740000D01*
X157189188Y-111740518D01*
X157176928Y-111865000D01*
X157176928Y-112265000D01*
X157189188Y-112389482D01*
X157189345Y-112390000D01*
X157189188Y-112390518D01*
X157176928Y-112515000D01*
X157176928Y-112965000D01*
X157189188Y-113089482D01*
X157225498Y-113209180D01*
X157284463Y-113319494D01*
X157363815Y-113416185D01*
X157460506Y-113495537D01*
X157570820Y-113554502D01*
X157690518Y-113590812D01*
X157810296Y-113602609D01*
X157834454Y-113682247D01*
X157859037Y-113728236D01*
X157905026Y-113814276D01*
X157922034Y-113835000D01*
X156714565Y-113835000D01*
X156875990Y-113593411D01*
X156987932Y-113323158D01*
X157045000Y-113036260D01*
X157045000Y-112743740D01*
X156987932Y-112456842D01*
X156875990Y-112186589D01*
X156756717Y-112008084D01*
X157176928Y-111587874D01*
X157176928Y-111615000D01*
G36*
X175995682Y-82624340D02*
G01*
X175995682Y-82855660D01*
X176040810Y-83082536D01*
X176129333Y-83296248D01*
X176257848Y-83488584D01*
X176421416Y-83652152D01*
X176613752Y-83780667D01*
X176827464Y-83869190D01*
X177054340Y-83914318D01*
X177285660Y-83914318D01*
X177486000Y-83874468D01*
X177486000Y-87611963D01*
X176285750Y-87615000D01*
X176127000Y-87773750D01*
X176127000Y-89873000D01*
X176147000Y-89873000D01*
X176147000Y-90127000D01*
X176127000Y-90127000D01*
X176127000Y-92226250D01*
X176285750Y-92385000D01*
X177486000Y-92388037D01*
X177486001Y-101611963D01*
X176285750Y-101615000D01*
X176127000Y-101773750D01*
X176127000Y-103873000D01*
X176147000Y-103873000D01*
X176147000Y-104127000D01*
X176127000Y-104127000D01*
X176127000Y-106226250D01*
X176285750Y-106385000D01*
X177486001Y-106388037D01*
X177486001Y-109838268D01*
X177355178Y-109618645D01*
X177160269Y-109402412D01*
X176926920Y-109228359D01*
X176664099Y-109103175D01*
X176516890Y-109058524D01*
X176287000Y-109179845D01*
X176287000Y-110373000D01*
X176307000Y-110373000D01*
X176307000Y-110627000D01*
X176287000Y-110627000D01*
X176287000Y-111820155D01*
X176516890Y-111941476D01*
X176664099Y-111896825D01*
X176926920Y-111771641D01*
X177160269Y-111597588D01*
X177355178Y-111381355D01*
X177486001Y-111161732D01*
X177486001Y-113835000D01*
X175031365Y-113835000D01*
X175090667Y-113746248D01*
X175179190Y-113532536D01*
X175224318Y-113305660D01*
X175224318Y-113074340D01*
X175179190Y-112847464D01*
X175090667Y-112633752D01*
X174962152Y-112441416D01*
X174798584Y-112277848D01*
X174606248Y-112149333D01*
X174392536Y-112060810D01*
X174165660Y-112015682D01*
X173934340Y-112015682D01*
X173707464Y-112060810D01*
X173493752Y-112149333D01*
X173301416Y-112277848D01*
X173137848Y-112441416D01*
X173009333Y-112633752D01*
X172920810Y-112847464D01*
X172875682Y-113074340D01*
X172875682Y-113305660D01*
X172920810Y-113532536D01*
X173009333Y-113746248D01*
X173068635Y-113835000D01*
X165939801Y-113835000D01*
X166511004Y-113263798D01*
X166540001Y-113240001D01*
X166634974Y-113124276D01*
X166705546Y-112992247D01*
X166749003Y-112848986D01*
X166760000Y-112737333D01*
X166760000Y-112737324D01*
X166763676Y-112700001D01*
X166760000Y-112662678D01*
X166760000Y-111988072D01*
X166850000Y-111988072D01*
X166974482Y-111975812D01*
X167094180Y-111939502D01*
X167204494Y-111880537D01*
X167301185Y-111801185D01*
X167380537Y-111704494D01*
X167439502Y-111594180D01*
X167461513Y-111521620D01*
X167593368Y-111653475D01*
X167836589Y-111815990D01*
X168106842Y-111927932D01*
X168393740Y-111985000D01*
X168686260Y-111985000D01*
X168973158Y-111927932D01*
X169243411Y-111815990D01*
X169486632Y-111653475D01*
X169693475Y-111446632D01*
X169810000Y-111272240D01*
X169926525Y-111446632D01*
X170133368Y-111653475D01*
X170376589Y-111815990D01*
X170646842Y-111927932D01*
X170933740Y-111985000D01*
X171226260Y-111985000D01*
X171513158Y-111927932D01*
X171783411Y-111815990D01*
X172026632Y-111653475D01*
X172233475Y-111446632D01*
X172350000Y-111272240D01*
X172466525Y-111446632D01*
X172673368Y-111653475D01*
X172916589Y-111815990D01*
X173186842Y-111927932D01*
X173473740Y-111985000D01*
X173766260Y-111985000D01*
X174053158Y-111927932D01*
X174323411Y-111815990D01*
X174566632Y-111653475D01*
X174773475Y-111446632D01*
X174895195Y-111264466D01*
X174964822Y-111381355D01*
X175159731Y-111597588D01*
X175393080Y-111771641D01*
X175655901Y-111896825D01*
X175803110Y-111941476D01*
X176033000Y-111820155D01*
X176033000Y-110627000D01*
X176013000Y-110627000D01*
X176013000Y-110373000D01*
X176033000Y-110373000D01*
X176033000Y-109179845D01*
X175803110Y-109058524D01*
X175655901Y-109103175D01*
X175393080Y-109228359D01*
X175159731Y-109402412D01*
X174964822Y-109618645D01*
X174895195Y-109735534D01*
X174773475Y-109553368D01*
X174566632Y-109346525D01*
X174323411Y-109184010D01*
X174053158Y-109072068D01*
X173766260Y-109015000D01*
X173473740Y-109015000D01*
X173186842Y-109072068D01*
X172916589Y-109184010D01*
X172713508Y-109319704D01*
X172207805Y-108814002D01*
X172184002Y-108784998D01*
X172068277Y-108690025D01*
X171936248Y-108619453D01*
X171792987Y-108575996D01*
X171681334Y-108564999D01*
X171681323Y-108564999D01*
X171644001Y-108561323D01*
X171606679Y-108564999D01*
X170856211Y-108564999D01*
X170280200Y-107988989D01*
X170256402Y-107959991D01*
X170214951Y-107925973D01*
X170140677Y-107865017D01*
X170008647Y-107794445D01*
X169882763Y-107756260D01*
X169865387Y-107750989D01*
X169753734Y-107739992D01*
X169716401Y-107736315D01*
X169679069Y-107739992D01*
X165115921Y-107739990D01*
X165078598Y-107736314D01*
X165041275Y-107739990D01*
X165041266Y-107739990D01*
X164929613Y-107750987D01*
X164840324Y-107778072D01*
X164786351Y-107794444D01*
X164654321Y-107865016D01*
X164567595Y-107936191D01*
X164567591Y-107936195D01*
X164538598Y-107959989D01*
X164514804Y-107988982D01*
X163863988Y-108639799D01*
X163834990Y-108663597D01*
X163811192Y-108692595D01*
X163811191Y-108692596D01*
X163740016Y-108779322D01*
X163669444Y-108911352D01*
X163645315Y-108990898D01*
X163625988Y-109054612D01*
X163621205Y-109103175D01*
X163611314Y-109203598D01*
X163614991Y-109240930D01*
X163614990Y-109877283D01*
X163225750Y-109880000D01*
X163067000Y-110038750D01*
X163067000Y-110576928D01*
X162813000Y-110576928D01*
X162813000Y-110038750D01*
X162654250Y-109880000D01*
X162224715Y-109877002D01*
X162100061Y-109887366D01*
X161979825Y-109921849D01*
X161868625Y-109979126D01*
X161770737Y-110056997D01*
X161689922Y-110152469D01*
X161629285Y-110261873D01*
X161591156Y-110381004D01*
X161580000Y-110483250D01*
X161738750Y-110642000D01*
X161939947Y-110642000D01*
X161860506Y-110684463D01*
X161763815Y-110763815D01*
X161684463Y-110860506D01*
X161647968Y-110928782D01*
X161580000Y-110996750D01*
X161589955Y-111087989D01*
X161589188Y-111090518D01*
X161576928Y-111215000D01*
X161576928Y-111615000D01*
X161589188Y-111739482D01*
X161589345Y-111740000D01*
X161589188Y-111740518D01*
X161576928Y-111865000D01*
X161576928Y-112265000D01*
X161589188Y-112389482D01*
X161589955Y-112392011D01*
X161580000Y-112483250D01*
X161647968Y-112551218D01*
X161684463Y-112619494D01*
X161763815Y-112716185D01*
X161860506Y-112795537D01*
X161939947Y-112838000D01*
X161738750Y-112838000D01*
X161736750Y-112840000D01*
X159903072Y-112840000D01*
X159903072Y-112515000D01*
X159890812Y-112390518D01*
X159890655Y-112390000D01*
X159890812Y-112389482D01*
X159903072Y-112265000D01*
X159903072Y-111981204D01*
X159935001Y-111955001D01*
X159958804Y-111925997D01*
X160100998Y-111783803D01*
X160130002Y-111760000D01*
X160224975Y-111644275D01*
X160295547Y-111512246D01*
X160339004Y-111368985D01*
X160350001Y-111257332D01*
X160350001Y-111257323D01*
X160353677Y-111220000D01*
X160350001Y-111182677D01*
X160350001Y-110584800D01*
X161683592Y-109251210D01*
X161903740Y-109295000D01*
X162196260Y-109295000D01*
X162483158Y-109237932D01*
X162753411Y-109125990D01*
X162996632Y-108963475D01*
X163203475Y-108756632D01*
X163365990Y-108513411D01*
X163477932Y-108243158D01*
X163535000Y-107956260D01*
X163535000Y-107663740D01*
X163477932Y-107376842D01*
X163365990Y-107106589D01*
X163318156Y-107035000D01*
X166640000Y-107035000D01*
X166699505Y-107029166D01*
X166758987Y-107023752D01*
X166761118Y-107023125D01*
X166763339Y-107022907D01*
X166820621Y-107005612D01*
X166877875Y-106988762D01*
X166879847Y-106987731D01*
X166881980Y-106987087D01*
X166934781Y-106959012D01*
X166987703Y-106931345D01*
X166989437Y-106929951D01*
X166991404Y-106928905D01*
X167037737Y-106891117D01*
X167084286Y-106853690D01*
X167085717Y-106851985D01*
X167087443Y-106850577D01*
X167125539Y-106804527D01*
X167163947Y-106758754D01*
X167165020Y-106756802D01*
X167166439Y-106755087D01*
X167194851Y-106702539D01*
X167223651Y-106650153D01*
X167224325Y-106648029D01*
X167225383Y-106646072D01*
X167243034Y-106589050D01*
X167261124Y-106532024D01*
X167261373Y-106529808D01*
X167262030Y-106527684D01*
X167268276Y-106468257D01*
X167274938Y-106408866D01*
X167274968Y-106404596D01*
X167274985Y-106404433D01*
X167274970Y-106404270D01*
X167275000Y-106400000D01*
X167275000Y-102541661D01*
X167280364Y-102524417D01*
X167300031Y-102462420D01*
X167300245Y-102460513D01*
X167300813Y-102458687D01*
X167307685Y-102394180D01*
X167314933Y-102329564D01*
X167314959Y-102325905D01*
X167314975Y-102325751D01*
X167314961Y-102325593D01*
X167315000Y-102320000D01*
X167315000Y-101575000D01*
X170888759Y-101575000D01*
X170895506Y-101580537D01*
X170954233Y-101611928D01*
X168250000Y-101611928D01*
X168125518Y-101624188D01*
X168005820Y-101660498D01*
X167895506Y-101719463D01*
X167798815Y-101798815D01*
X167719463Y-101895506D01*
X167660498Y-102005820D01*
X167624188Y-102125518D01*
X167611928Y-102250000D01*
X167611928Y-105750000D01*
X167624188Y-105874482D01*
X167660498Y-105994180D01*
X167719463Y-106104494D01*
X167798815Y-106201185D01*
X167895506Y-106280537D01*
X168005820Y-106339502D01*
X168125518Y-106375812D01*
X168250000Y-106388072D01*
X171750000Y-106388072D01*
X171874482Y-106375812D01*
X171994180Y-106339502D01*
X172104494Y-106280537D01*
X172201185Y-106201185D01*
X172280537Y-106104494D01*
X172339502Y-105994180D01*
X172375812Y-105874482D01*
X172388072Y-105750000D01*
X173861928Y-105750000D01*
X173874188Y-105874482D01*
X173910498Y-105994180D01*
X173969463Y-106104494D01*
X174048815Y-106201185D01*
X174145506Y-106280537D01*
X174255820Y-106339502D01*
X174375518Y-106375812D01*
X174500000Y-106388072D01*
X175714250Y-106385000D01*
X175873000Y-106226250D01*
X175873000Y-104127000D01*
X174023750Y-104127000D01*
X173865000Y-104285750D01*
X173861928Y-105750000D01*
X172388072Y-105750000D01*
X172388072Y-102250000D01*
X172375812Y-102125518D01*
X172339502Y-102005820D01*
X172280537Y-101895506D01*
X172201185Y-101798815D01*
X172104494Y-101719463D01*
X172042655Y-101686409D01*
X172714250Y-101685000D01*
X172824250Y-101575000D01*
X173175750Y-101575000D01*
X173285750Y-101685000D01*
X174206367Y-101686931D01*
X174145506Y-101719463D01*
X174048815Y-101798815D01*
X173969463Y-101895506D01*
X173910498Y-102005820D01*
X173874188Y-102125518D01*
X173861928Y-102250000D01*
X173865000Y-103714250D01*
X174023750Y-103873000D01*
X175873000Y-103873000D01*
X175873000Y-101773750D01*
X175714250Y-101615000D01*
X175043195Y-101613302D01*
X175104494Y-101580537D01*
X175201185Y-101501185D01*
X175280537Y-101404494D01*
X175339502Y-101294180D01*
X175375812Y-101174482D01*
X175388072Y-101050000D01*
X175385000Y-99585750D01*
X175226250Y-99427000D01*
X174688255Y-99427000D01*
X174687952Y-99173000D01*
X175226250Y-99173000D01*
X175385000Y-99014250D01*
X175388072Y-97550000D01*
X175375812Y-97425518D01*
X175339502Y-97305820D01*
X175280537Y-97195506D01*
X175201185Y-97098815D01*
X175104494Y-97019463D01*
X174994180Y-96960498D01*
X174874482Y-96924188D01*
X174750000Y-96911928D01*
X174685254Y-96912064D01*
X174680000Y-92509183D01*
X174673663Y-92445338D01*
X174668413Y-92387646D01*
X175714250Y-92385000D01*
X175873000Y-92226250D01*
X175873000Y-90127000D01*
X174023750Y-90127000D01*
X173865000Y-90285750D01*
X173861928Y-91750000D01*
X173869315Y-91825000D01*
X172380685Y-91825000D01*
X172388072Y-91750000D01*
X172388072Y-88250000D01*
X172375812Y-88125518D01*
X172339502Y-88005820D01*
X172280537Y-87895506D01*
X172201185Y-87798815D01*
X172104494Y-87719463D01*
X172042655Y-87686409D01*
X172714250Y-87685000D01*
X172873000Y-87526250D01*
X172873000Y-85427000D01*
X173127000Y-85427000D01*
X173127000Y-87526250D01*
X173285750Y-87685000D01*
X174206367Y-87686931D01*
X174145506Y-87719463D01*
X174048815Y-87798815D01*
X173969463Y-87895506D01*
X173910498Y-88005820D01*
X173874188Y-88125518D01*
X173861928Y-88250000D01*
X173865000Y-89714250D01*
X174023750Y-89873000D01*
X175873000Y-89873000D01*
X175873000Y-87773750D01*
X175714250Y-87615000D01*
X175043195Y-87613302D01*
X175104494Y-87580537D01*
X175201185Y-87501185D01*
X175280537Y-87404494D01*
X175339502Y-87294180D01*
X175375812Y-87174482D01*
X175388072Y-87050000D01*
X175385000Y-85585750D01*
X175226250Y-85427000D01*
X173127000Y-85427000D01*
X172873000Y-85427000D01*
X170773750Y-85427000D01*
X170615000Y-85585750D01*
X170611928Y-87050000D01*
X170624188Y-87174482D01*
X170660498Y-87294180D01*
X170719463Y-87404494D01*
X170798815Y-87501185D01*
X170895506Y-87580537D01*
X170954233Y-87611928D01*
X170306004Y-87611928D01*
X168923220Y-86229145D01*
X168863556Y-86156444D01*
X168573482Y-85918387D01*
X168242539Y-85741494D01*
X167883445Y-85632564D01*
X167603582Y-85605000D01*
X167603580Y-85605000D01*
X167510000Y-85595783D01*
X167416420Y-85605000D01*
X166541199Y-85605000D01*
X166569275Y-85589993D01*
X166685000Y-85495020D01*
X166708803Y-85466016D01*
X167356739Y-84818080D01*
X168620010Y-84818080D01*
X168744492Y-84805820D01*
X168864190Y-84769510D01*
X168974504Y-84710545D01*
X169071195Y-84631193D01*
X169150547Y-84534502D01*
X169209512Y-84424188D01*
X169245822Y-84304490D01*
X169258082Y-84180008D01*
X169258082Y-83550000D01*
X170611928Y-83550000D01*
X170615000Y-85014250D01*
X170773750Y-85173000D01*
X172873000Y-85173000D01*
X172873000Y-83073750D01*
X173127000Y-83073750D01*
X173127000Y-85173000D01*
X175226250Y-85173000D01*
X175385000Y-85014250D01*
X175388072Y-83550000D01*
X175375812Y-83425518D01*
X175339502Y-83305820D01*
X175280537Y-83195506D01*
X175201185Y-83098815D01*
X175104494Y-83019463D01*
X174994180Y-82960498D01*
X174874482Y-82924188D01*
X174750000Y-82911928D01*
X173285750Y-82915000D01*
X173127000Y-83073750D01*
X172873000Y-83073750D01*
X172714250Y-82915000D01*
X171250000Y-82911928D01*
X171125518Y-82924188D01*
X171005820Y-82960498D01*
X170895506Y-83019463D01*
X170798815Y-83098815D01*
X170719463Y-83195506D01*
X170660498Y-83305820D01*
X170624188Y-83425518D01*
X170611928Y-83550000D01*
X169258082Y-83550000D01*
X169258082Y-82480008D01*
X169257589Y-82475000D01*
X176025387Y-82475000D01*
X175995682Y-82624340D01*
G37*
X175995682Y-82624340D02*
X175995682Y-82855660D01*
X176040810Y-83082536D01*
X176129333Y-83296248D01*
X176257848Y-83488584D01*
X176421416Y-83652152D01*
X176613752Y-83780667D01*
X176827464Y-83869190D01*
X177054340Y-83914318D01*
X177285660Y-83914318D01*
X177486000Y-83874468D01*
X177486000Y-87611963D01*
X176285750Y-87615000D01*
X176127000Y-87773750D01*
X176127000Y-89873000D01*
X176147000Y-89873000D01*
X176147000Y-90127000D01*
X176127000Y-90127000D01*
X176127000Y-92226250D01*
X176285750Y-92385000D01*
X177486000Y-92388037D01*
X177486001Y-101611963D01*
X176285750Y-101615000D01*
X176127000Y-101773750D01*
X176127000Y-103873000D01*
X176147000Y-103873000D01*
X176147000Y-104127000D01*
X176127000Y-104127000D01*
X176127000Y-106226250D01*
X176285750Y-106385000D01*
X177486001Y-106388037D01*
X177486001Y-109838268D01*
X177355178Y-109618645D01*
X177160269Y-109402412D01*
X176926920Y-109228359D01*
X176664099Y-109103175D01*
X176516890Y-109058524D01*
X176287000Y-109179845D01*
X176287000Y-110373000D01*
X176307000Y-110373000D01*
X176307000Y-110627000D01*
X176287000Y-110627000D01*
X176287000Y-111820155D01*
X176516890Y-111941476D01*
X176664099Y-111896825D01*
X176926920Y-111771641D01*
X177160269Y-111597588D01*
X177355178Y-111381355D01*
X177486001Y-111161732D01*
X177486001Y-113835000D01*
X175031365Y-113835000D01*
X175090667Y-113746248D01*
X175179190Y-113532536D01*
X175224318Y-113305660D01*
X175224318Y-113074340D01*
X175179190Y-112847464D01*
X175090667Y-112633752D01*
X174962152Y-112441416D01*
X174798584Y-112277848D01*
X174606248Y-112149333D01*
X174392536Y-112060810D01*
X174165660Y-112015682D01*
X173934340Y-112015682D01*
X173707464Y-112060810D01*
X173493752Y-112149333D01*
X173301416Y-112277848D01*
X173137848Y-112441416D01*
X173009333Y-112633752D01*
X172920810Y-112847464D01*
X172875682Y-113074340D01*
X172875682Y-113305660D01*
X172920810Y-113532536D01*
X173009333Y-113746248D01*
X173068635Y-113835000D01*
X165939801Y-113835000D01*
X166511004Y-113263798D01*
X166540001Y-113240001D01*
X166634974Y-113124276D01*
X166705546Y-112992247D01*
X166749003Y-112848986D01*
X166760000Y-112737333D01*
X166760000Y-112737324D01*
X166763676Y-112700001D01*
X166760000Y-112662678D01*
X166760000Y-111988072D01*
X166850000Y-111988072D01*
X166974482Y-111975812D01*
X167094180Y-111939502D01*
X167204494Y-111880537D01*
X167301185Y-111801185D01*
X167380537Y-111704494D01*
X167439502Y-111594180D01*
X167461513Y-111521620D01*
X167593368Y-111653475D01*
X167836589Y-111815990D01*
X168106842Y-111927932D01*
X168393740Y-111985000D01*
X168686260Y-111985000D01*
X168973158Y-111927932D01*
X169243411Y-111815990D01*
X169486632Y-111653475D01*
X169693475Y-111446632D01*
X169810000Y-111272240D01*
X169926525Y-111446632D01*
X170133368Y-111653475D01*
X170376589Y-111815990D01*
X170646842Y-111927932D01*
X170933740Y-111985000D01*
X171226260Y-111985000D01*
X171513158Y-111927932D01*
X171783411Y-111815990D01*
X172026632Y-111653475D01*
X172233475Y-111446632D01*
X172350000Y-111272240D01*
X172466525Y-111446632D01*
X172673368Y-111653475D01*
X172916589Y-111815990D01*
X173186842Y-111927932D01*
X173473740Y-111985000D01*
X173766260Y-111985000D01*
X174053158Y-111927932D01*
X174323411Y-111815990D01*
X174566632Y-111653475D01*
X174773475Y-111446632D01*
X174895195Y-111264466D01*
X174964822Y-111381355D01*
X175159731Y-111597588D01*
X175393080Y-111771641D01*
X175655901Y-111896825D01*
X175803110Y-111941476D01*
X176033000Y-111820155D01*
X176033000Y-110627000D01*
X176013000Y-110627000D01*
X176013000Y-110373000D01*
X176033000Y-110373000D01*
X176033000Y-109179845D01*
X175803110Y-109058524D01*
X175655901Y-109103175D01*
X175393080Y-109228359D01*
X175159731Y-109402412D01*
X174964822Y-109618645D01*
X174895195Y-109735534D01*
X174773475Y-109553368D01*
X174566632Y-109346525D01*
X174323411Y-109184010D01*
X174053158Y-109072068D01*
X173766260Y-109015000D01*
X173473740Y-109015000D01*
X173186842Y-109072068D01*
X172916589Y-109184010D01*
X172713508Y-109319704D01*
X172207805Y-108814002D01*
X172184002Y-108784998D01*
X172068277Y-108690025D01*
X171936248Y-108619453D01*
X171792987Y-108575996D01*
X171681334Y-108564999D01*
X171681323Y-108564999D01*
X171644001Y-108561323D01*
X171606679Y-108564999D01*
X170856211Y-108564999D01*
X170280200Y-107988989D01*
X170256402Y-107959991D01*
X170214951Y-107925973D01*
X170140677Y-107865017D01*
X170008647Y-107794445D01*
X169882763Y-107756260D01*
X169865387Y-107750989D01*
X169753734Y-107739992D01*
X169716401Y-107736315D01*
X169679069Y-107739992D01*
X165115921Y-107739990D01*
X165078598Y-107736314D01*
X165041275Y-107739990D01*
X165041266Y-107739990D01*
X164929613Y-107750987D01*
X164840324Y-107778072D01*
X164786351Y-107794444D01*
X164654321Y-107865016D01*
X164567595Y-107936191D01*
X164567591Y-107936195D01*
X164538598Y-107959989D01*
X164514804Y-107988982D01*
X163863988Y-108639799D01*
X163834990Y-108663597D01*
X163811192Y-108692595D01*
X163811191Y-108692596D01*
X163740016Y-108779322D01*
X163669444Y-108911352D01*
X163645315Y-108990898D01*
X163625988Y-109054612D01*
X163621205Y-109103175D01*
X163611314Y-109203598D01*
X163614991Y-109240930D01*
X163614990Y-109877283D01*
X163225750Y-109880000D01*
X163067000Y-110038750D01*
X163067000Y-110576928D01*
X162813000Y-110576928D01*
X162813000Y-110038750D01*
X162654250Y-109880000D01*
X162224715Y-109877002D01*
X162100061Y-109887366D01*
X161979825Y-109921849D01*
X161868625Y-109979126D01*
X161770737Y-110056997D01*
X161689922Y-110152469D01*
X161629285Y-110261873D01*
X161591156Y-110381004D01*
X161580000Y-110483250D01*
X161738750Y-110642000D01*
X161939947Y-110642000D01*
X161860506Y-110684463D01*
X161763815Y-110763815D01*
X161684463Y-110860506D01*
X161647968Y-110928782D01*
X161580000Y-110996750D01*
X161589955Y-111087989D01*
X161589188Y-111090518D01*
X161576928Y-111215000D01*
X161576928Y-111615000D01*
X161589188Y-111739482D01*
X161589345Y-111740000D01*
X161589188Y-111740518D01*
X161576928Y-111865000D01*
X161576928Y-112265000D01*
X161589188Y-112389482D01*
X161589955Y-112392011D01*
X161580000Y-112483250D01*
X161647968Y-112551218D01*
X161684463Y-112619494D01*
X161763815Y-112716185D01*
X161860506Y-112795537D01*
X161939947Y-112838000D01*
X161738750Y-112838000D01*
X161736750Y-112840000D01*
X159903072Y-112840000D01*
X159903072Y-112515000D01*
X159890812Y-112390518D01*
X159890655Y-112390000D01*
X159890812Y-112389482D01*
X159903072Y-112265000D01*
X159903072Y-111981204D01*
X159935001Y-111955001D01*
X159958804Y-111925997D01*
X160100998Y-111783803D01*
X160130002Y-111760000D01*
X160224975Y-111644275D01*
X160295547Y-111512246D01*
X160339004Y-111368985D01*
X160350001Y-111257332D01*
X160350001Y-111257323D01*
X160353677Y-111220000D01*
X160350001Y-111182677D01*
X160350001Y-110584800D01*
X161683592Y-109251210D01*
X161903740Y-109295000D01*
X162196260Y-109295000D01*
X162483158Y-109237932D01*
X162753411Y-109125990D01*
X162996632Y-108963475D01*
X163203475Y-108756632D01*
X163365990Y-108513411D01*
X163477932Y-108243158D01*
X163535000Y-107956260D01*
X163535000Y-107663740D01*
X163477932Y-107376842D01*
X163365990Y-107106589D01*
X163318156Y-107035000D01*
X166640000Y-107035000D01*
X166699505Y-107029166D01*
X166758987Y-107023752D01*
X166761118Y-107023125D01*
X166763339Y-107022907D01*
X166820621Y-107005612D01*
X166877875Y-106988762D01*
X166879847Y-106987731D01*
X166881980Y-106987087D01*
X166934781Y-106959012D01*
X166987703Y-106931345D01*
X166989437Y-106929951D01*
X166991404Y-106928905D01*
X167037737Y-106891117D01*
X167084286Y-106853690D01*
X167085717Y-106851985D01*
X167087443Y-106850577D01*
X167125539Y-106804527D01*
X167163947Y-106758754D01*
X167165020Y-106756802D01*
X167166439Y-106755087D01*
X167194851Y-106702539D01*
X167223651Y-106650153D01*
X167224325Y-106648029D01*
X167225383Y-106646072D01*
X167243034Y-106589050D01*
X167261124Y-106532024D01*
X167261373Y-106529808D01*
X167262030Y-106527684D01*
X167268276Y-106468257D01*
X167274938Y-106408866D01*
X167274968Y-106404596D01*
X167274985Y-106404433D01*
X167274970Y-106404270D01*
X167275000Y-106400000D01*
X167275000Y-102541661D01*
X167280364Y-102524417D01*
X167300031Y-102462420D01*
X167300245Y-102460513D01*
X167300813Y-102458687D01*
X167307685Y-102394180D01*
X167314933Y-102329564D01*
X167314959Y-102325905D01*
X167314975Y-102325751D01*
X167314961Y-102325593D01*
X167315000Y-102320000D01*
X167315000Y-101575000D01*
X170888759Y-101575000D01*
X170895506Y-101580537D01*
X170954233Y-101611928D01*
X168250000Y-101611928D01*
X168125518Y-101624188D01*
X168005820Y-101660498D01*
X167895506Y-101719463D01*
X167798815Y-101798815D01*
X167719463Y-101895506D01*
X167660498Y-102005820D01*
X167624188Y-102125518D01*
X167611928Y-102250000D01*
X167611928Y-105750000D01*
X167624188Y-105874482D01*
X167660498Y-105994180D01*
X167719463Y-106104494D01*
X167798815Y-106201185D01*
X167895506Y-106280537D01*
X168005820Y-106339502D01*
X168125518Y-106375812D01*
X168250000Y-106388072D01*
X171750000Y-106388072D01*
X171874482Y-106375812D01*
X171994180Y-106339502D01*
X172104494Y-106280537D01*
X172201185Y-106201185D01*
X172280537Y-106104494D01*
X172339502Y-105994180D01*
X172375812Y-105874482D01*
X172388072Y-105750000D01*
X173861928Y-105750000D01*
X173874188Y-105874482D01*
X173910498Y-105994180D01*
X173969463Y-106104494D01*
X174048815Y-106201185D01*
X174145506Y-106280537D01*
X174255820Y-106339502D01*
X174375518Y-106375812D01*
X174500000Y-106388072D01*
X175714250Y-106385000D01*
X175873000Y-106226250D01*
X175873000Y-104127000D01*
X174023750Y-104127000D01*
X173865000Y-104285750D01*
X173861928Y-105750000D01*
X172388072Y-105750000D01*
X172388072Y-102250000D01*
X172375812Y-102125518D01*
X172339502Y-102005820D01*
X172280537Y-101895506D01*
X172201185Y-101798815D01*
X172104494Y-101719463D01*
X172042655Y-101686409D01*
X172714250Y-101685000D01*
X172824250Y-101575000D01*
X173175750Y-101575000D01*
X173285750Y-101685000D01*
X174206367Y-101686931D01*
X174145506Y-101719463D01*
X174048815Y-101798815D01*
X173969463Y-101895506D01*
X173910498Y-102005820D01*
X173874188Y-102125518D01*
X173861928Y-102250000D01*
X173865000Y-103714250D01*
X174023750Y-103873000D01*
X175873000Y-103873000D01*
X175873000Y-101773750D01*
X175714250Y-101615000D01*
X175043195Y-101613302D01*
X175104494Y-101580537D01*
X175201185Y-101501185D01*
X175280537Y-101404494D01*
X175339502Y-101294180D01*
X175375812Y-101174482D01*
X175388072Y-101050000D01*
X175385000Y-99585750D01*
X175226250Y-99427000D01*
X174688255Y-99427000D01*
X174687952Y-99173000D01*
X175226250Y-99173000D01*
X175385000Y-99014250D01*
X175388072Y-97550000D01*
X175375812Y-97425518D01*
X175339502Y-97305820D01*
X175280537Y-97195506D01*
X175201185Y-97098815D01*
X175104494Y-97019463D01*
X174994180Y-96960498D01*
X174874482Y-96924188D01*
X174750000Y-96911928D01*
X174685254Y-96912064D01*
X174680000Y-92509183D01*
X174673663Y-92445338D01*
X174668413Y-92387646D01*
X175714250Y-92385000D01*
X175873000Y-92226250D01*
X175873000Y-90127000D01*
X174023750Y-90127000D01*
X173865000Y-90285750D01*
X173861928Y-91750000D01*
X173869315Y-91825000D01*
X172380685Y-91825000D01*
X172388072Y-91750000D01*
X172388072Y-88250000D01*
X172375812Y-88125518D01*
X172339502Y-88005820D01*
X172280537Y-87895506D01*
X172201185Y-87798815D01*
X172104494Y-87719463D01*
X172042655Y-87686409D01*
X172714250Y-87685000D01*
X172873000Y-87526250D01*
X172873000Y-85427000D01*
X173127000Y-85427000D01*
X173127000Y-87526250D01*
X173285750Y-87685000D01*
X174206367Y-87686931D01*
X174145506Y-87719463D01*
X174048815Y-87798815D01*
X173969463Y-87895506D01*
X173910498Y-88005820D01*
X173874188Y-88125518D01*
X173861928Y-88250000D01*
X173865000Y-89714250D01*
X174023750Y-89873000D01*
X175873000Y-89873000D01*
X175873000Y-87773750D01*
X175714250Y-87615000D01*
X175043195Y-87613302D01*
X175104494Y-87580537D01*
X175201185Y-87501185D01*
X175280537Y-87404494D01*
X175339502Y-87294180D01*
X175375812Y-87174482D01*
X175388072Y-87050000D01*
X175385000Y-85585750D01*
X175226250Y-85427000D01*
X173127000Y-85427000D01*
X172873000Y-85427000D01*
X170773750Y-85427000D01*
X170615000Y-85585750D01*
X170611928Y-87050000D01*
X170624188Y-87174482D01*
X170660498Y-87294180D01*
X170719463Y-87404494D01*
X170798815Y-87501185D01*
X170895506Y-87580537D01*
X170954233Y-87611928D01*
X170306004Y-87611928D01*
X168923220Y-86229145D01*
X168863556Y-86156444D01*
X168573482Y-85918387D01*
X168242539Y-85741494D01*
X167883445Y-85632564D01*
X167603582Y-85605000D01*
X167603580Y-85605000D01*
X167510000Y-85595783D01*
X167416420Y-85605000D01*
X166541199Y-85605000D01*
X166569275Y-85589993D01*
X166685000Y-85495020D01*
X166708803Y-85466016D01*
X167356739Y-84818080D01*
X168620010Y-84818080D01*
X168744492Y-84805820D01*
X168864190Y-84769510D01*
X168974504Y-84710545D01*
X169071195Y-84631193D01*
X169150547Y-84534502D01*
X169209512Y-84424188D01*
X169245822Y-84304490D01*
X169258082Y-84180008D01*
X169258082Y-83550000D01*
X170611928Y-83550000D01*
X170615000Y-85014250D01*
X170773750Y-85173000D01*
X172873000Y-85173000D01*
X172873000Y-83073750D01*
X173127000Y-83073750D01*
X173127000Y-85173000D01*
X175226250Y-85173000D01*
X175385000Y-85014250D01*
X175388072Y-83550000D01*
X175375812Y-83425518D01*
X175339502Y-83305820D01*
X175280537Y-83195506D01*
X175201185Y-83098815D01*
X175104494Y-83019463D01*
X174994180Y-82960498D01*
X174874482Y-82924188D01*
X174750000Y-82911928D01*
X173285750Y-82915000D01*
X173127000Y-83073750D01*
X172873000Y-83073750D01*
X172714250Y-82915000D01*
X171250000Y-82911928D01*
X171125518Y-82924188D01*
X171005820Y-82960498D01*
X170895506Y-83019463D01*
X170798815Y-83098815D01*
X170719463Y-83195506D01*
X170660498Y-83305820D01*
X170624188Y-83425518D01*
X170611928Y-83550000D01*
X169258082Y-83550000D01*
X169258082Y-82480008D01*
X169257589Y-82475000D01*
X176025387Y-82475000D01*
X175995682Y-82624340D01*
G36*
X158021928Y-108660000D02*
G01*
X158034188Y-108784482D01*
X158070498Y-108904180D01*
X158129463Y-109014494D01*
X158208815Y-109111185D01*
X158305506Y-109190537D01*
X158415820Y-109249502D01*
X158535518Y-109285812D01*
X158660000Y-109298072D01*
X159487127Y-109298072D01*
X159079004Y-109706195D01*
X159050000Y-109729998D01*
X159019751Y-109766857D01*
X158955027Y-109845723D01*
X158938347Y-109876928D01*
X157815000Y-109876928D01*
X157690518Y-109889188D01*
X157570820Y-109925498D01*
X157468856Y-109980000D01*
X157203758Y-109980000D01*
X157181750Y-109756556D01*
X157072821Y-109397462D01*
X156896683Y-109067931D01*
X156940537Y-109014494D01*
X156999502Y-108904180D01*
X157035812Y-108784482D01*
X157048072Y-108660000D01*
X157048072Y-108570000D01*
X158021928Y-108570000D01*
X158021928Y-108660000D01*
G37*
X158021928Y-108660000D02*
X158034188Y-108784482D01*
X158070498Y-108904180D01*
X158129463Y-109014494D01*
X158208815Y-109111185D01*
X158305506Y-109190537D01*
X158415820Y-109249502D01*
X158535518Y-109285812D01*
X158660000Y-109298072D01*
X159487127Y-109298072D01*
X159079004Y-109706195D01*
X159050000Y-109729998D01*
X159019751Y-109766857D01*
X158955027Y-109845723D01*
X158938347Y-109876928D01*
X157815000Y-109876928D01*
X157690518Y-109889188D01*
X157570820Y-109925498D01*
X157468856Y-109980000D01*
X157203758Y-109980000D01*
X157181750Y-109756556D01*
X157072821Y-109397462D01*
X156896683Y-109067931D01*
X156940537Y-109014494D01*
X156999502Y-108904180D01*
X157035812Y-108784482D01*
X157048072Y-108660000D01*
X157048072Y-108570000D01*
X158021928Y-108570000D01*
X158021928Y-108660000D01*
G36*
X130745000Y-91463740D02*
G01*
X130745000Y-91756260D01*
X130802068Y-92043158D01*
X130914010Y-92313411D01*
X131076525Y-92556632D01*
X131283368Y-92763475D01*
X131526589Y-92925990D01*
X131796842Y-93037932D01*
X132083740Y-93095000D01*
X132186645Y-93095000D01*
X131550906Y-93730739D01*
X131512367Y-93762367D01*
X131386153Y-93916160D01*
X131293221Y-94090025D01*
X131292368Y-94091621D01*
X131234615Y-94282006D01*
X131215114Y-94480000D01*
X131220000Y-94529608D01*
X131220000Y-95019893D01*
X131076525Y-95163368D01*
X130914010Y-95406589D01*
X130802068Y-95676842D01*
X130745000Y-95963740D01*
X130745000Y-96256260D01*
X130787154Y-96468180D01*
X130657590Y-96480941D01*
X130059101Y-96662490D01*
X129507529Y-96957312D01*
X129145225Y-97254647D01*
X124854873Y-101545000D01*
X123187298Y-101545000D01*
X123206739Y-101532010D01*
X123442010Y-101296739D01*
X123626861Y-101020089D01*
X123754189Y-100712692D01*
X123819100Y-100386362D01*
X123819100Y-100053638D01*
X123754189Y-99727308D01*
X123632471Y-99433455D01*
X123789675Y-99481142D01*
X124412083Y-99542445D01*
X125034491Y-99481142D01*
X125632981Y-99299593D01*
X126184552Y-99004772D01*
X126546857Y-98707436D01*
X127804068Y-97450225D01*
X127925228Y-97350792D01*
X128321990Y-96867335D01*
X128616811Y-96315764D01*
X128798361Y-95717274D01*
X128844301Y-95250838D01*
X128844301Y-95250837D01*
X128859663Y-95094865D01*
X128844301Y-94938892D01*
X128844301Y-91194999D01*
X130798456Y-91194999D01*
X130745000Y-91463740D01*
G37*
X130745000Y-91463740D02*
X130745000Y-91756260D01*
X130802068Y-92043158D01*
X130914010Y-92313411D01*
X131076525Y-92556632D01*
X131283368Y-92763475D01*
X131526589Y-92925990D01*
X131796842Y-93037932D01*
X132083740Y-93095000D01*
X132186645Y-93095000D01*
X131550906Y-93730739D01*
X131512367Y-93762367D01*
X131386153Y-93916160D01*
X131293221Y-94090025D01*
X131292368Y-94091621D01*
X131234615Y-94282006D01*
X131215114Y-94480000D01*
X131220000Y-94529608D01*
X131220000Y-95019893D01*
X131076525Y-95163368D01*
X130914010Y-95406589D01*
X130802068Y-95676842D01*
X130745000Y-95963740D01*
X130745000Y-96256260D01*
X130787154Y-96468180D01*
X130657590Y-96480941D01*
X130059101Y-96662490D01*
X129507529Y-96957312D01*
X129145225Y-97254647D01*
X124854873Y-101545000D01*
X123187298Y-101545000D01*
X123206739Y-101532010D01*
X123442010Y-101296739D01*
X123626861Y-101020089D01*
X123754189Y-100712692D01*
X123819100Y-100386362D01*
X123819100Y-100053638D01*
X123754189Y-99727308D01*
X123632471Y-99433455D01*
X123789675Y-99481142D01*
X124412083Y-99542445D01*
X125034491Y-99481142D01*
X125632981Y-99299593D01*
X126184552Y-99004772D01*
X126546857Y-98707436D01*
X127804068Y-97450225D01*
X127925228Y-97350792D01*
X128321990Y-96867335D01*
X128616811Y-96315764D01*
X128798361Y-95717274D01*
X128844301Y-95250838D01*
X128844301Y-95250837D01*
X128859663Y-95094865D01*
X128844301Y-94938892D01*
X128844301Y-91194999D01*
X130798456Y-91194999D01*
X130745000Y-91463740D01*
G36*
X149884931Y-97764803D02*
G01*
X149245959Y-97125832D01*
X149146525Y-97004671D01*
X148663068Y-96607909D01*
X148111497Y-96313088D01*
X147513007Y-96131538D01*
X147046571Y-96085598D01*
X147046568Y-96085598D01*
X146890598Y-96070236D01*
X146734628Y-96085598D01*
X140973429Y-96085598D01*
X140506993Y-96131538D01*
X139908503Y-96313088D01*
X139356932Y-96607909D01*
X138873475Y-97004671D01*
X138476713Y-97488128D01*
X138181892Y-98039699D01*
X138000342Y-98638189D01*
X137958176Y-99066305D01*
X134700613Y-95808742D01*
X134974327Y-95535029D01*
X137507685Y-95535029D01*
X137557293Y-95539915D01*
X137626446Y-95533104D01*
X137755287Y-95520414D01*
X137945673Y-95462661D01*
X138121133Y-95368876D01*
X138274926Y-95242662D01*
X138306558Y-95204118D01*
X143135676Y-90375001D01*
X149875647Y-90375001D01*
X149884931Y-97764803D01*
G37*
X149884931Y-97764803D02*
X149245959Y-97125832D01*
X149146525Y-97004671D01*
X148663068Y-96607909D01*
X148111497Y-96313088D01*
X147513007Y-96131538D01*
X147046571Y-96085598D01*
X147046568Y-96085598D01*
X146890598Y-96070236D01*
X146734628Y-96085598D01*
X140973429Y-96085598D01*
X140506993Y-96131538D01*
X139908503Y-96313088D01*
X139356932Y-96607909D01*
X138873475Y-97004671D01*
X138476713Y-97488128D01*
X138181892Y-98039699D01*
X138000342Y-98638189D01*
X137958176Y-99066305D01*
X134700613Y-95808742D01*
X134974327Y-95535029D01*
X137507685Y-95535029D01*
X137557293Y-95539915D01*
X137626446Y-95533104D01*
X137755287Y-95520414D01*
X137945673Y-95462661D01*
X138121133Y-95368876D01*
X138274926Y-95242662D01*
X138306558Y-95204118D01*
X143135676Y-90375001D01*
X149875647Y-90375001D01*
X149884931Y-97764803D01*
G36*
X158376928Y-98510000D02*
G01*
X158376928Y-98735000D01*
X154101390Y-98735000D01*
X153890899Y-98622490D01*
X153338759Y-98455000D01*
X158382345Y-98455000D01*
X158376928Y-98510000D01*
G37*
X158376928Y-98510000D02*
X158376928Y-98735000D01*
X154101390Y-98735000D01*
X153890899Y-98622490D01*
X153338759Y-98455000D01*
X158382345Y-98455000D01*
X158376928Y-98510000D01*
G36*
X167611928Y-90306004D02*
G01*
X167611928Y-91750000D01*
X167619315Y-91825000D01*
X166785763Y-91825000D01*
X166787936Y-91713195D01*
X166778252Y-91588486D01*
X166744425Y-91468063D01*
X166687755Y-91356553D01*
X166610419Y-91258242D01*
X166515389Y-91176907D01*
X166406318Y-91115674D01*
X166287397Y-91076896D01*
X166181750Y-91065000D01*
X166023000Y-91223750D01*
X166023000Y-91492445D01*
X165990347Y-91328286D01*
X165912326Y-91139928D01*
X165881557Y-91093878D01*
X165929502Y-91004180D01*
X165965812Y-90884482D01*
X165978072Y-90760000D01*
X165978072Y-89860000D01*
X165965812Y-89735518D01*
X165929502Y-89615820D01*
X165870537Y-89505506D01*
X165796261Y-89415000D01*
X166720925Y-89415000D01*
X167611928Y-90306004D01*
G37*
X167611928Y-90306004D02*
X167611928Y-91750000D01*
X167619315Y-91825000D01*
X166785763Y-91825000D01*
X166787936Y-91713195D01*
X166778252Y-91588486D01*
X166744425Y-91468063D01*
X166687755Y-91356553D01*
X166610419Y-91258242D01*
X166515389Y-91176907D01*
X166406318Y-91115674D01*
X166287397Y-91076896D01*
X166181750Y-91065000D01*
X166023000Y-91223750D01*
X166023000Y-91492445D01*
X165990347Y-91328286D01*
X165912326Y-91139928D01*
X165881557Y-91093878D01*
X165929502Y-91004180D01*
X165965812Y-90884482D01*
X165978072Y-90760000D01*
X165978072Y-89860000D01*
X165965812Y-89735518D01*
X165929502Y-89615820D01*
X165870537Y-89505506D01*
X165796261Y-89415000D01*
X166720925Y-89415000D01*
X167611928Y-90306004D01*
G36*
X147969717Y-82751928D02*
G01*
X146610000Y-82751928D01*
X146485518Y-82764188D01*
X146365820Y-82800498D01*
X146255506Y-82859463D01*
X146158815Y-82938815D01*
X146079463Y-83035506D01*
X146020498Y-83145820D01*
X145984188Y-83265518D01*
X145982762Y-83280000D01*
X145154896Y-83280000D01*
X145105288Y-83275114D01*
X144907293Y-83294615D01*
X144716908Y-83352368D01*
X144541448Y-83446153D01*
X144387655Y-83572367D01*
X144356032Y-83610900D01*
X138651226Y-89315707D01*
X138609060Y-88887591D01*
X138427510Y-88289101D01*
X138132689Y-87737531D01*
X137835353Y-87375226D01*
X136345360Y-85885233D01*
X136245926Y-85764072D01*
X135762469Y-85367310D01*
X135210898Y-85072489D01*
X134612408Y-84890939D01*
X134145972Y-84844999D01*
X134145969Y-84844999D01*
X133989999Y-84829637D01*
X133834029Y-84844999D01*
X125585971Y-84844999D01*
X125430001Y-84829637D01*
X125274031Y-84844999D01*
X110725974Y-84844999D01*
X110570001Y-84829637D01*
X110414028Y-84844999D01*
X109947592Y-84890939D01*
X109349102Y-85072489D01*
X108797531Y-85367310D01*
X108314074Y-85764072D01*
X108214644Y-85885228D01*
X105815244Y-88284629D01*
X105694083Y-88384063D01*
X105297321Y-88867521D01*
X105002500Y-89419092D01*
X104820950Y-90017582D01*
X104778542Y-90448154D01*
X104672539Y-90391494D01*
X104424091Y-90316128D01*
X104085927Y-89904073D01*
X103602470Y-89507311D01*
X103050899Y-89212490D01*
X102452409Y-89030940D01*
X101830000Y-88969638D01*
X101207592Y-89030940D01*
X100609102Y-89212490D01*
X100057531Y-89507311D01*
X99574074Y-89904073D01*
X99185000Y-90378161D01*
X99185000Y-88744780D01*
X99261609Y-88795968D01*
X99472302Y-88883240D01*
X99695973Y-88927731D01*
X99924027Y-88927731D01*
X100147698Y-88883240D01*
X100358391Y-88795968D01*
X100548011Y-88669269D01*
X100709269Y-88508011D01*
X100814987Y-88349792D01*
X100917173Y-88502724D01*
X101077276Y-88662827D01*
X101265537Y-88788619D01*
X101474721Y-88875266D01*
X101696790Y-88919438D01*
X101923210Y-88919438D01*
X102145279Y-88875266D01*
X102354463Y-88788619D01*
X102542724Y-88662827D01*
X102702827Y-88502724D01*
X102828619Y-88314463D01*
X102915266Y-88105279D01*
X102959438Y-87883210D01*
X102959438Y-87656790D01*
X102915266Y-87434721D01*
X102828619Y-87225537D01*
X102702827Y-87037276D01*
X102542724Y-86877173D01*
X102354463Y-86751381D01*
X102145279Y-86664734D01*
X101923210Y-86620562D01*
X101696790Y-86620562D01*
X101474721Y-86664734D01*
X101265537Y-86751381D01*
X101077276Y-86877173D01*
X100917173Y-87037276D01*
X100814987Y-87190208D01*
X100709269Y-87031989D01*
X100548011Y-86870731D01*
X100404720Y-86774988D01*
X100553298Y-86675711D01*
X100715711Y-86513298D01*
X100843318Y-86322320D01*
X100931215Y-86110117D01*
X100976025Y-85884843D01*
X100976025Y-85655157D01*
X100931215Y-85429883D01*
X100843318Y-85217680D01*
X100715711Y-85026702D01*
X100553298Y-84864289D01*
X100419647Y-84774987D01*
X100558584Y-84682152D01*
X100722152Y-84518584D01*
X100850667Y-84326248D01*
X100939190Y-84112536D01*
X100984318Y-83885660D01*
X100984318Y-83654340D01*
X100939190Y-83427464D01*
X100850667Y-83213752D01*
X100722152Y-83021416D01*
X100558584Y-82857848D01*
X100366248Y-82729333D01*
X100152536Y-82640810D01*
X99925660Y-82595682D01*
X99694340Y-82595682D01*
X99467464Y-82640810D01*
X99253752Y-82729333D01*
X99185000Y-82775272D01*
X99185000Y-82475000D01*
X148246645Y-82475000D01*
X147969717Y-82751928D01*
G37*
X147969717Y-82751928D02*
X146610000Y-82751928D01*
X146485518Y-82764188D01*
X146365820Y-82800498D01*
X146255506Y-82859463D01*
X146158815Y-82938815D01*
X146079463Y-83035506D01*
X146020498Y-83145820D01*
X145984188Y-83265518D01*
X145982762Y-83280000D01*
X145154896Y-83280000D01*
X145105288Y-83275114D01*
X144907293Y-83294615D01*
X144716908Y-83352368D01*
X144541448Y-83446153D01*
X144387655Y-83572367D01*
X144356032Y-83610900D01*
X138651226Y-89315707D01*
X138609060Y-88887591D01*
X138427510Y-88289101D01*
X138132689Y-87737531D01*
X137835353Y-87375226D01*
X136345360Y-85885233D01*
X136245926Y-85764072D01*
X135762469Y-85367310D01*
X135210898Y-85072489D01*
X134612408Y-84890939D01*
X134145972Y-84844999D01*
X134145969Y-84844999D01*
X133989999Y-84829637D01*
X133834029Y-84844999D01*
X125585971Y-84844999D01*
X125430001Y-84829637D01*
X125274031Y-84844999D01*
X110725974Y-84844999D01*
X110570001Y-84829637D01*
X110414028Y-84844999D01*
X109947592Y-84890939D01*
X109349102Y-85072489D01*
X108797531Y-85367310D01*
X108314074Y-85764072D01*
X108214644Y-85885228D01*
X105815244Y-88284629D01*
X105694083Y-88384063D01*
X105297321Y-88867521D01*
X105002500Y-89419092D01*
X104820950Y-90017582D01*
X104778542Y-90448154D01*
X104672539Y-90391494D01*
X104424091Y-90316128D01*
X104085927Y-89904073D01*
X103602470Y-89507311D01*
X103050899Y-89212490D01*
X102452409Y-89030940D01*
X101830000Y-88969638D01*
X101207592Y-89030940D01*
X100609102Y-89212490D01*
X100057531Y-89507311D01*
X99574074Y-89904073D01*
X99185000Y-90378161D01*
X99185000Y-88744780D01*
X99261609Y-88795968D01*
X99472302Y-88883240D01*
X99695973Y-88927731D01*
X99924027Y-88927731D01*
X100147698Y-88883240D01*
X100358391Y-88795968D01*
X100548011Y-88669269D01*
X100709269Y-88508011D01*
X100814987Y-88349792D01*
X100917173Y-88502724D01*
X101077276Y-88662827D01*
X101265537Y-88788619D01*
X101474721Y-88875266D01*
X101696790Y-88919438D01*
X101923210Y-88919438D01*
X102145279Y-88875266D01*
X102354463Y-88788619D01*
X102542724Y-88662827D01*
X102702827Y-88502724D01*
X102828619Y-88314463D01*
X102915266Y-88105279D01*
X102959438Y-87883210D01*
X102959438Y-87656790D01*
X102915266Y-87434721D01*
X102828619Y-87225537D01*
X102702827Y-87037276D01*
X102542724Y-86877173D01*
X102354463Y-86751381D01*
X102145279Y-86664734D01*
X101923210Y-86620562D01*
X101696790Y-86620562D01*
X101474721Y-86664734D01*
X101265537Y-86751381D01*
X101077276Y-86877173D01*
X100917173Y-87037276D01*
X100814987Y-87190208D01*
X100709269Y-87031989D01*
X100548011Y-86870731D01*
X100404720Y-86774988D01*
X100553298Y-86675711D01*
X100715711Y-86513298D01*
X100843318Y-86322320D01*
X100931215Y-86110117D01*
X100976025Y-85884843D01*
X100976025Y-85655157D01*
X100931215Y-85429883D01*
X100843318Y-85217680D01*
X100715711Y-85026702D01*
X100553298Y-84864289D01*
X100419647Y-84774987D01*
X100558584Y-84682152D01*
X100722152Y-84518584D01*
X100850667Y-84326248D01*
X100939190Y-84112536D01*
X100984318Y-83885660D01*
X100984318Y-83654340D01*
X100939190Y-83427464D01*
X100850667Y-83213752D01*
X100722152Y-83021416D01*
X100558584Y-82857848D01*
X100366248Y-82729333D01*
X100152536Y-82640810D01*
X99925660Y-82595682D01*
X99694340Y-82595682D01*
X99467464Y-82640810D01*
X99253752Y-82729333D01*
X99185000Y-82775272D01*
X99185000Y-82475000D01*
X148246645Y-82475000D01*
X147969717Y-82751928D01*
G36*
X155389463Y-84094494D02*
G01*
X155468815Y-84191185D01*
X155565506Y-84270537D01*
X155581607Y-84279143D01*
X155497000Y-84363750D01*
X155497000Y-85163000D01*
X156246250Y-85163000D01*
X156405000Y-85004250D01*
X156408072Y-84840000D01*
X156395812Y-84715518D01*
X156359502Y-84595820D01*
X156300537Y-84485506D01*
X156221185Y-84388815D01*
X156208095Y-84378072D01*
X156720000Y-84378072D01*
X156844482Y-84365812D01*
X156964180Y-84329502D01*
X157019373Y-84300000D01*
X157386111Y-84300000D01*
X157338815Y-84338815D01*
X157259463Y-84435506D01*
X157200498Y-84545820D01*
X157164188Y-84665518D01*
X157151928Y-84790000D01*
X157151928Y-85290000D01*
X157164188Y-85414482D01*
X157200498Y-85534180D01*
X157259463Y-85644494D01*
X157338815Y-85741185D01*
X157435506Y-85820537D01*
X157545820Y-85879502D01*
X157572031Y-85887453D01*
X157547922Y-85932557D01*
X157534454Y-85957754D01*
X157490997Y-86101015D01*
X157480000Y-86212668D01*
X157480000Y-86212678D01*
X157476324Y-86250000D01*
X157480000Y-86287322D01*
X157480000Y-86335680D01*
X157435506Y-86359463D01*
X157356524Y-86424282D01*
X157345812Y-86315518D01*
X157309502Y-86195820D01*
X157250537Y-86085506D01*
X157171185Y-85988815D01*
X157074494Y-85909463D01*
X156964180Y-85850498D01*
X156844482Y-85814188D01*
X156720000Y-85801928D01*
X156401973Y-85801928D01*
X156408072Y-85740000D01*
X156405000Y-85575750D01*
X156246250Y-85417000D01*
X155497000Y-85417000D01*
X155497000Y-85437000D01*
X155243000Y-85437000D01*
X155243000Y-85417000D01*
X154493750Y-85417000D01*
X154335000Y-85575750D01*
X154331928Y-85740000D01*
X154333405Y-85755000D01*
X153400019Y-85755000D01*
X153464494Y-85720537D01*
X153561185Y-85641185D01*
X153640537Y-85544494D01*
X153699502Y-85434180D01*
X153735812Y-85314482D01*
X153748072Y-85190000D01*
X153748072Y-84314670D01*
X153775820Y-84329502D01*
X153895518Y-84365812D01*
X154020000Y-84378072D01*
X154531905Y-84378072D01*
X154518815Y-84388815D01*
X154439463Y-84485506D01*
X154380498Y-84595820D01*
X154344188Y-84715518D01*
X154331928Y-84840000D01*
X154335000Y-85004250D01*
X154493750Y-85163000D01*
X155243000Y-85163000D01*
X155243000Y-84363750D01*
X155158393Y-84279143D01*
X155174494Y-84270537D01*
X155271185Y-84191185D01*
X155350537Y-84094494D01*
X155370000Y-84058082D01*
X155389463Y-84094494D01*
G37*
X155389463Y-84094494D02*
X155468815Y-84191185D01*
X155565506Y-84270537D01*
X155581607Y-84279143D01*
X155497000Y-84363750D01*
X155497000Y-85163000D01*
X156246250Y-85163000D01*
X156405000Y-85004250D01*
X156408072Y-84840000D01*
X156395812Y-84715518D01*
X156359502Y-84595820D01*
X156300537Y-84485506D01*
X156221185Y-84388815D01*
X156208095Y-84378072D01*
X156720000Y-84378072D01*
X156844482Y-84365812D01*
X156964180Y-84329502D01*
X157019373Y-84300000D01*
X157386111Y-84300000D01*
X157338815Y-84338815D01*
X157259463Y-84435506D01*
X157200498Y-84545820D01*
X157164188Y-84665518D01*
X157151928Y-84790000D01*
X157151928Y-85290000D01*
X157164188Y-85414482D01*
X157200498Y-85534180D01*
X157259463Y-85644494D01*
X157338815Y-85741185D01*
X157435506Y-85820537D01*
X157545820Y-85879502D01*
X157572031Y-85887453D01*
X157547922Y-85932557D01*
X157534454Y-85957754D01*
X157490997Y-86101015D01*
X157480000Y-86212668D01*
X157480000Y-86212678D01*
X157476324Y-86250000D01*
X157480000Y-86287322D01*
X157480000Y-86335680D01*
X157435506Y-86359463D01*
X157356524Y-86424282D01*
X157345812Y-86315518D01*
X157309502Y-86195820D01*
X157250537Y-86085506D01*
X157171185Y-85988815D01*
X157074494Y-85909463D01*
X156964180Y-85850498D01*
X156844482Y-85814188D01*
X156720000Y-85801928D01*
X156401973Y-85801928D01*
X156408072Y-85740000D01*
X156405000Y-85575750D01*
X156246250Y-85417000D01*
X155497000Y-85417000D01*
X155497000Y-85437000D01*
X155243000Y-85437000D01*
X155243000Y-85417000D01*
X154493750Y-85417000D01*
X154335000Y-85575750D01*
X154331928Y-85740000D01*
X154333405Y-85755000D01*
X153400019Y-85755000D01*
X153464494Y-85720537D01*
X153561185Y-85641185D01*
X153640537Y-85544494D01*
X153699502Y-85434180D01*
X153735812Y-85314482D01*
X153748072Y-85190000D01*
X153748072Y-84314670D01*
X153775820Y-84329502D01*
X153895518Y-84365812D01*
X154020000Y-84378072D01*
X154531905Y-84378072D01*
X154518815Y-84388815D01*
X154439463Y-84485506D01*
X154380498Y-84595820D01*
X154344188Y-84715518D01*
X154331928Y-84840000D01*
X154335000Y-85004250D01*
X154493750Y-85163000D01*
X155243000Y-85163000D01*
X155243000Y-84363750D01*
X155158393Y-84279143D01*
X155174494Y-84270537D01*
X155271185Y-84191185D01*
X155350537Y-84094494D01*
X155370000Y-84058082D01*
X155389463Y-84094494D01*
M02*
