G04 #@! TF.GenerationSoftware,KiCad,Pcbnew,(5.1.6-0-10_14)*
G04 #@! TF.CreationDate,2021-11-10T21:38:56+09:00*
G04 #@! TF.ProjectId,peltier+relay,70656c74-6965-4722-9b72-656c61792e6b,rev?*
G04 #@! TF.SameCoordinates,Original*
G04 #@! TF.FileFunction,Legend,Top*
G04 #@! TF.FilePolarity,Positive*
%FSLAX46Y46*%
G04 Gerber Fmt 4.6, Leading zero omitted, Abs format (unit mm)*
G04 Created by KiCad (PCBNEW (5.1.6-0-10_14)) date 2021-11-10 21:38:56*
%MOMM*%
%LPD*%
G01*
G04 APERTURE LIST*
%ADD10C,0.250000*%
%ADD11C,0.120000*%
%ADD12C,0.152400*%
%ADD13C,0.150000*%
G04 APERTURE END LIST*
D10*
X101149999Y-84818571D02*
X101149999Y-83318571D01*
X101149999Y-83890000D02*
X101292857Y-83818571D01*
X101578571Y-83818571D01*
X101721428Y-83890000D01*
X101792857Y-83961428D01*
X101864285Y-84104285D01*
X101864285Y-84532857D01*
X101792857Y-84675714D01*
X101721428Y-84747142D01*
X101578571Y-84818571D01*
X101292857Y-84818571D01*
X101149999Y-84747142D01*
X103149999Y-84818571D02*
X103149999Y-84032857D01*
X103078571Y-83890000D01*
X102935714Y-83818571D01*
X102649999Y-83818571D01*
X102507142Y-83890000D01*
X103149999Y-84747142D02*
X103007142Y-84818571D01*
X102649999Y-84818571D01*
X102507142Y-84747142D01*
X102435714Y-84604285D01*
X102435714Y-84461428D01*
X102507142Y-84318571D01*
X102649999Y-84247142D01*
X103007142Y-84247142D01*
X103149999Y-84175714D01*
X103649999Y-83818571D02*
X104221428Y-83818571D01*
X103864285Y-83318571D02*
X103864285Y-84604285D01*
X103935714Y-84747142D01*
X104078571Y-84818571D01*
X104221428Y-84818571D01*
X105364285Y-84747142D02*
X105221428Y-84818571D01*
X104935714Y-84818571D01*
X104792857Y-84747142D01*
X104721428Y-84675714D01*
X104649999Y-84532857D01*
X104649999Y-84104285D01*
X104721428Y-83961428D01*
X104792857Y-83890000D01*
X104935714Y-83818571D01*
X105221428Y-83818571D01*
X105364285Y-83890000D01*
X106007142Y-84818571D02*
X106007142Y-83318571D01*
X106649999Y-84818571D02*
X106649999Y-84032857D01*
X106578571Y-83890000D01*
X106435714Y-83818571D01*
X106221428Y-83818571D01*
X106078571Y-83890000D01*
X106007142Y-83961428D01*
X108149999Y-84818571D02*
X107292857Y-84818571D01*
X107721428Y-84818571D02*
X107721428Y-83318571D01*
X107578571Y-83532857D01*
X107435714Y-83675714D01*
X107292857Y-83747142D01*
X108649999Y-83318571D02*
X109578571Y-83318571D01*
X109078571Y-83890000D01*
X109292857Y-83890000D01*
X109435714Y-83961428D01*
X109507142Y-84032857D01*
X109578571Y-84175714D01*
X109578571Y-84532857D01*
X109507142Y-84675714D01*
X109435714Y-84747142D01*
X109292857Y-84818571D01*
X108864285Y-84818571D01*
X108721428Y-84747142D01*
X108649999Y-84675714D01*
X111292857Y-83247142D02*
X110007142Y-85175714D01*
X111792857Y-83818571D02*
X111792857Y-85318571D01*
X111792857Y-83890000D02*
X111935714Y-83818571D01*
X112221428Y-83818571D01*
X112364285Y-83890000D01*
X112435714Y-83961428D01*
X112507142Y-84104285D01*
X112507142Y-84532857D01*
X112435714Y-84675714D01*
X112364285Y-84747142D01*
X112221428Y-84818571D01*
X111935714Y-84818571D01*
X111792857Y-84747142D01*
X113721428Y-84747142D02*
X113578571Y-84818571D01*
X113292857Y-84818571D01*
X113149999Y-84747142D01*
X113078571Y-84604285D01*
X113078571Y-84032857D01*
X113149999Y-83890000D01*
X113292857Y-83818571D01*
X113578571Y-83818571D01*
X113721428Y-83890000D01*
X113792857Y-84032857D01*
X113792857Y-84175714D01*
X113078571Y-84318571D01*
X114649999Y-84818571D02*
X114507142Y-84747142D01*
X114435714Y-84604285D01*
X114435714Y-83318571D01*
X115007142Y-83818571D02*
X115578571Y-83818571D01*
X115221428Y-83318571D02*
X115221428Y-84604285D01*
X115292857Y-84747142D01*
X115435714Y-84818571D01*
X115578571Y-84818571D01*
X116078571Y-84818571D02*
X116078571Y-83818571D01*
X116078571Y-83318571D02*
X116007142Y-83390000D01*
X116078571Y-83461428D01*
X116149999Y-83390000D01*
X116078571Y-83318571D01*
X116078571Y-83461428D01*
X117364285Y-84747142D02*
X117221428Y-84818571D01*
X116935714Y-84818571D01*
X116792857Y-84747142D01*
X116721428Y-84604285D01*
X116721428Y-84032857D01*
X116792857Y-83890000D01*
X116935714Y-83818571D01*
X117221428Y-83818571D01*
X117364285Y-83890000D01*
X117435714Y-84032857D01*
X117435714Y-84175714D01*
X116721428Y-84318571D01*
X118078571Y-84818571D02*
X118078571Y-83818571D01*
X118078571Y-84104285D02*
X118149999Y-83961428D01*
X118221428Y-83890000D01*
X118364285Y-83818571D01*
X118507142Y-83818571D01*
X119007142Y-84247142D02*
X120149999Y-84247142D01*
X119578571Y-84818571D02*
X119578571Y-83675714D01*
X120864285Y-84818571D02*
X120864285Y-83818571D01*
X120864285Y-84104285D02*
X120935714Y-83961428D01*
X121007142Y-83890000D01*
X121149999Y-83818571D01*
X121292857Y-83818571D01*
X122364285Y-84747142D02*
X122221428Y-84818571D01*
X121935714Y-84818571D01*
X121792857Y-84747142D01*
X121721428Y-84604285D01*
X121721428Y-84032857D01*
X121792857Y-83890000D01*
X121935714Y-83818571D01*
X122221428Y-83818571D01*
X122364285Y-83890000D01*
X122435714Y-84032857D01*
X122435714Y-84175714D01*
X121721428Y-84318571D01*
X123292857Y-84818571D02*
X123150000Y-84747142D01*
X123078571Y-84604285D01*
X123078571Y-83318571D01*
X124507142Y-84818571D02*
X124507142Y-84032857D01*
X124435714Y-83890000D01*
X124292857Y-83818571D01*
X124007142Y-83818571D01*
X123864285Y-83890000D01*
X124507142Y-84747142D02*
X124364285Y-84818571D01*
X124007142Y-84818571D01*
X123864285Y-84747142D01*
X123792857Y-84604285D01*
X123792857Y-84461428D01*
X123864285Y-84318571D01*
X124007142Y-84247142D01*
X124364285Y-84247142D01*
X124507142Y-84175714D01*
X125078571Y-83818571D02*
X125435714Y-84818571D01*
X125792857Y-83818571D02*
X125435714Y-84818571D01*
X125292857Y-85175714D01*
X125221428Y-85247142D01*
X125078571Y-85318571D01*
X148880952Y-112818571D02*
X148119047Y-112818571D01*
X148571428Y-110730952D02*
X148571428Y-109969047D01*
X148952380Y-110350000D02*
X148190476Y-110350000D01*
X100571428Y-98936666D02*
X100523809Y-99079523D01*
X100476190Y-99127142D01*
X100380952Y-99174761D01*
X100238095Y-99174761D01*
X100142857Y-99127142D01*
X100095238Y-99079523D01*
X100047619Y-98984285D01*
X100047619Y-98603333D01*
X101047619Y-98603333D01*
X101047619Y-98936666D01*
X101000000Y-99031904D01*
X100952380Y-99079523D01*
X100857142Y-99127142D01*
X100761904Y-99127142D01*
X100666666Y-99079523D01*
X100619047Y-99031904D01*
X100571428Y-98936666D01*
X100571428Y-98603333D01*
X100047619Y-100079523D02*
X100047619Y-99603333D01*
X101047619Y-99603333D01*
X100047619Y-100412857D02*
X101047619Y-100412857D01*
X100047619Y-100984285D02*
X100619047Y-100555714D01*
X101047619Y-100984285D02*
X100476190Y-100412857D01*
X100047619Y-95627142D02*
X100523809Y-95293809D01*
X100047619Y-95055714D02*
X101047619Y-95055714D01*
X101047619Y-95436666D01*
X101000000Y-95531904D01*
X100952380Y-95579523D01*
X100857142Y-95627142D01*
X100714285Y-95627142D01*
X100619047Y-95579523D01*
X100571428Y-95531904D01*
X100523809Y-95436666D01*
X100523809Y-95055714D01*
X100571428Y-96055714D02*
X100571428Y-96389047D01*
X100047619Y-96531904D02*
X100047619Y-96055714D01*
X101047619Y-96055714D01*
X101047619Y-96531904D01*
X100047619Y-96960476D02*
X101047619Y-96960476D01*
X101047619Y-97198571D01*
X101000000Y-97341428D01*
X100904761Y-97436666D01*
X100809523Y-97484285D01*
X100619047Y-97531904D01*
X100476190Y-97531904D01*
X100285714Y-97484285D01*
X100190476Y-97436666D01*
X100095238Y-97341428D01*
X100047619Y-97198571D01*
X100047619Y-96960476D01*
X170404761Y-84745714D02*
X170452380Y-84602857D01*
X170452380Y-84364761D01*
X170404761Y-84269523D01*
X170357142Y-84221904D01*
X170261904Y-84174285D01*
X170166666Y-84174285D01*
X170071428Y-84221904D01*
X170023809Y-84269523D01*
X169976190Y-84364761D01*
X169928571Y-84555238D01*
X169880952Y-84650476D01*
X169833333Y-84698095D01*
X169738095Y-84745714D01*
X169642857Y-84745714D01*
X169547619Y-84698095D01*
X169500000Y-84650476D01*
X169452380Y-84555238D01*
X169452380Y-84317142D01*
X169500000Y-84174285D01*
X169452380Y-83840952D02*
X170452380Y-83602857D01*
X169738095Y-83412380D01*
X170452380Y-83221904D01*
X169452380Y-82983809D01*
X170166666Y-82650476D02*
X170166666Y-82174285D01*
X170452380Y-82745714D02*
X169452380Y-82412380D01*
X170452380Y-82079047D01*
X163872867Y-85884761D02*
X164015724Y-85932380D01*
X164253819Y-85932380D01*
X164349057Y-85884761D01*
X164396676Y-85837142D01*
X164444295Y-85741904D01*
X164444295Y-85646666D01*
X164396676Y-85551428D01*
X164349057Y-85503809D01*
X164253819Y-85456190D01*
X164063343Y-85408571D01*
X163968105Y-85360952D01*
X163920486Y-85313333D01*
X163872867Y-85218095D01*
X163872867Y-85122857D01*
X163920486Y-85027619D01*
X163968105Y-84980000D01*
X164063343Y-84932380D01*
X164301438Y-84932380D01*
X164444295Y-84980000D01*
X164777629Y-84932380D02*
X165015724Y-85932380D01*
X165206200Y-85218095D01*
X165396676Y-85932380D01*
X165634771Y-84932380D01*
X166349057Y-85408571D02*
X166491914Y-85456190D01*
X166539533Y-85503809D01*
X166587152Y-85599047D01*
X166587152Y-85741904D01*
X166539533Y-85837142D01*
X166491914Y-85884761D01*
X166396676Y-85932380D01*
X166015724Y-85932380D01*
X166015724Y-84932380D01*
X166349057Y-84932380D01*
X166444295Y-84980000D01*
X166491914Y-85027619D01*
X166539533Y-85122857D01*
X166539533Y-85218095D01*
X166491914Y-85313333D01*
X166444295Y-85360952D01*
X166349057Y-85408571D01*
X166015724Y-85408571D01*
X161052380Y-84814761D02*
X160052380Y-84814761D01*
X160052380Y-84433809D01*
X160100000Y-84338571D01*
X160147619Y-84290952D01*
X160242857Y-84243333D01*
X160385714Y-84243333D01*
X160480952Y-84290952D01*
X160528571Y-84338571D01*
X160576190Y-84433809D01*
X160576190Y-84814761D01*
X160052380Y-83910000D02*
X161052380Y-83671904D01*
X160338095Y-83481428D01*
X161052380Y-83290952D01*
X160052380Y-83052857D01*
X161052380Y-82671904D02*
X160052380Y-82671904D01*
X160766666Y-82338571D01*
X160052380Y-82005238D01*
X161052380Y-82005238D01*
X153884761Y-108905238D02*
X153932380Y-108762380D01*
X153932380Y-108524285D01*
X153884761Y-108429047D01*
X153837142Y-108381428D01*
X153741904Y-108333809D01*
X153646666Y-108333809D01*
X153551428Y-108381428D01*
X153503809Y-108429047D01*
X153456190Y-108524285D01*
X153408571Y-108714761D01*
X153360952Y-108810000D01*
X153313333Y-108857619D01*
X153218095Y-108905238D01*
X153122857Y-108905238D01*
X153027619Y-108857619D01*
X152980000Y-108810000D01*
X152932380Y-108714761D01*
X152932380Y-108476666D01*
X152980000Y-108333809D01*
X152932380Y-108048095D02*
X152932380Y-107476666D01*
X153932380Y-107762380D02*
X152932380Y-107762380D01*
X153646666Y-107190952D02*
X153646666Y-106714761D01*
X153932380Y-107286190D02*
X152932380Y-106952857D01*
X153932380Y-106619523D01*
X153932380Y-114056666D02*
X152932380Y-114056666D01*
X152932380Y-113675714D01*
X152980000Y-113580476D01*
X153027619Y-113532857D01*
X153122857Y-113485238D01*
X153265714Y-113485238D01*
X153360952Y-113532857D01*
X153408571Y-113580476D01*
X153456190Y-113675714D01*
X153456190Y-114056666D01*
X152932380Y-112866190D02*
X152932380Y-112675714D01*
X152980000Y-112580476D01*
X153075238Y-112485238D01*
X153265714Y-112437619D01*
X153599047Y-112437619D01*
X153789523Y-112485238D01*
X153884761Y-112580476D01*
X153932380Y-112675714D01*
X153932380Y-112866190D01*
X153884761Y-112961428D01*
X153789523Y-113056666D01*
X153599047Y-113104285D01*
X153265714Y-113104285D01*
X153075238Y-113056666D01*
X152980000Y-112961428D01*
X152932380Y-112866190D01*
X152932380Y-112151904D02*
X152932380Y-111580476D01*
X153932380Y-111866190D02*
X152932380Y-111866190D01*
X165809523Y-112572380D02*
X165333333Y-112572380D01*
X165285714Y-113048571D01*
X165333333Y-113000952D01*
X165428571Y-112953333D01*
X165666666Y-112953333D01*
X165761904Y-113000952D01*
X165809523Y-113048571D01*
X165857142Y-113143809D01*
X165857142Y-113381904D01*
X165809523Y-113477142D01*
X165761904Y-113524761D01*
X165666666Y-113572380D01*
X165428571Y-113572380D01*
X165333333Y-113524761D01*
X165285714Y-113477142D01*
X166142857Y-112572380D02*
X166476190Y-113572380D01*
X166809523Y-112572380D01*
X167873333Y-113572380D02*
X167540000Y-113096190D01*
X167301904Y-113572380D02*
X167301904Y-112572380D01*
X167682857Y-112572380D01*
X167778095Y-112620000D01*
X167825714Y-112667619D01*
X167873333Y-112762857D01*
X167873333Y-112905714D01*
X167825714Y-113000952D01*
X167778095Y-113048571D01*
X167682857Y-113096190D01*
X167301904Y-113096190D01*
X168301904Y-113048571D02*
X168635238Y-113048571D01*
X168778095Y-113572380D02*
X168301904Y-113572380D01*
X168301904Y-112572380D01*
X168778095Y-112572380D01*
X169206666Y-113572380D02*
X169206666Y-112572380D01*
X169778095Y-113572380D01*
X169778095Y-112572380D01*
X171373809Y-113572380D02*
X171373809Y-112572380D01*
X171802380Y-112667619D02*
X171850000Y-112620000D01*
X171945238Y-112572380D01*
X172183333Y-112572380D01*
X172278571Y-112620000D01*
X172326190Y-112667619D01*
X172373809Y-112762857D01*
X172373809Y-112858095D01*
X172326190Y-113000952D01*
X171754761Y-113572380D01*
X172373809Y-113572380D01*
X173373809Y-113477142D02*
X173326190Y-113524761D01*
X173183333Y-113572380D01*
X173088095Y-113572380D01*
X172945238Y-113524761D01*
X172850000Y-113429523D01*
X172802380Y-113334285D01*
X172754761Y-113143809D01*
X172754761Y-113000952D01*
X172802380Y-112810476D01*
X172850000Y-112715238D01*
X172945238Y-112620000D01*
X173088095Y-112572380D01*
X173183333Y-112572380D01*
X173326190Y-112620000D01*
X173373809Y-112667619D01*
X175398095Y-112620000D02*
X175302857Y-112572380D01*
X175160000Y-112572380D01*
X175017142Y-112620000D01*
X174921904Y-112715238D01*
X174874285Y-112810476D01*
X174826666Y-113000952D01*
X174826666Y-113143809D01*
X174874285Y-113334285D01*
X174921904Y-113429523D01*
X175017142Y-113524761D01*
X175160000Y-113572380D01*
X175255238Y-113572380D01*
X175398095Y-113524761D01*
X175445714Y-113477142D01*
X175445714Y-113143809D01*
X175255238Y-113143809D01*
X175874285Y-113572380D02*
X175874285Y-112572380D01*
X176445714Y-113572380D01*
X176445714Y-112572380D01*
X176921904Y-113572380D02*
X176921904Y-112572380D01*
X177160000Y-112572380D01*
X177302857Y-112620000D01*
X177398095Y-112715238D01*
X177445714Y-112810476D01*
X177493333Y-113000952D01*
X177493333Y-113143809D01*
X177445714Y-113334285D01*
X177398095Y-113429523D01*
X177302857Y-113524761D01*
X177160000Y-113572380D01*
X176921904Y-113572380D01*
D11*
X164670000Y-111830000D02*
X164670000Y-110500000D01*
X166000000Y-111830000D02*
X164670000Y-111830000D01*
X167270000Y-111830000D02*
X167270000Y-109170000D01*
X167270000Y-109170000D02*
X177490000Y-109170000D01*
X167270000Y-111830000D02*
X177490000Y-111830000D01*
X177490000Y-111830000D02*
X177490000Y-109170000D01*
X153260000Y-89540000D02*
X153260000Y-86240000D01*
X153260000Y-86240000D02*
X147860000Y-86240000D01*
X153260000Y-89540000D02*
X147860000Y-89540000D01*
X146460000Y-82640000D02*
X151860000Y-82640000D01*
X146460000Y-85940000D02*
X151860000Y-85940000D01*
X146460000Y-82640000D02*
X146460000Y-85940000D01*
X102250000Y-102020000D02*
X102250000Y-94020000D01*
X101350000Y-94020000D02*
X108150000Y-94020000D01*
X101350000Y-102020000D02*
X101350000Y-94020000D01*
X108150000Y-102020000D02*
X101350000Y-102020000D01*
X108150000Y-94020000D02*
X108150000Y-102020000D01*
X158180000Y-109140000D02*
X158180000Y-107810000D01*
X159510000Y-109140000D02*
X158180000Y-109140000D01*
X160780000Y-109140000D02*
X160780000Y-106480000D01*
X160780000Y-106480000D02*
X163380000Y-106480000D01*
X160780000Y-109140000D02*
X163380000Y-109140000D01*
X163380000Y-109140000D02*
X163380000Y-106480000D01*
X154230000Y-106480000D02*
X155560000Y-106480000D01*
X154230000Y-107810000D02*
X154230000Y-106480000D01*
X154230000Y-109080000D02*
X156890000Y-109080000D01*
X156890000Y-109080000D02*
X156890000Y-114220000D01*
X154230000Y-109080000D02*
X154230000Y-114220000D01*
X154230000Y-114220000D02*
X156890000Y-114220000D01*
X168900000Y-107750000D02*
X168900000Y-108800000D01*
X169950000Y-108800000D02*
X168900000Y-108800000D01*
X175000000Y-99400000D02*
X183800000Y-99400000D01*
X183800000Y-99400000D02*
X183800000Y-108600000D01*
X169100000Y-102100000D02*
X169100000Y-99400000D01*
X169100000Y-99400000D02*
X171000000Y-99400000D01*
X183800000Y-108600000D02*
X169100000Y-108600000D01*
X169100000Y-108600000D02*
X169100000Y-106000000D01*
X169100000Y-94600000D02*
X169100000Y-92000000D01*
X183800000Y-94600000D02*
X169100000Y-94600000D01*
X169100000Y-85400000D02*
X171000000Y-85400000D01*
X169100000Y-88100000D02*
X169100000Y-85400000D01*
X183800000Y-85400000D02*
X183800000Y-94600000D01*
X175000000Y-85400000D02*
X183800000Y-85400000D01*
X169950000Y-94800000D02*
X168900000Y-94800000D01*
X168900000Y-93750000D02*
X168900000Y-94800000D01*
X145780000Y-87710000D02*
X129580000Y-87710000D01*
X129580000Y-111510000D02*
X129580000Y-87710000D01*
X145780000Y-111510000D02*
X145780000Y-87710000D01*
X129580000Y-111510000D02*
X145780000Y-111510000D01*
X140260499Y-112110000D02*
G75*
G03*
X140260499Y-112110000I-381000J0D01*
G01*
X124947399Y-106391499D02*
X124947399Y-92548499D01*
X124947399Y-92548499D02*
X112603000Y-92548499D01*
X112603000Y-92548499D02*
X112603000Y-101820679D01*
X112603000Y-106391499D02*
X124947399Y-106391499D01*
X112603000Y-103919320D02*
X112603000Y-106391499D01*
X111911000Y-102869499D02*
G75*
G03*
X111911000Y-102869499I-381000J0D01*
G01*
X157670000Y-91070000D02*
X157670000Y-102570000D01*
X157670000Y-102570000D02*
X147670000Y-102570000D01*
X147670000Y-102570000D02*
X147670000Y-91070000D01*
X147670000Y-91070000D02*
X157670000Y-91070000D01*
X104370000Y-106570000D02*
X107670000Y-106570000D01*
X107670000Y-103270000D02*
X104370000Y-103270000D01*
X153790000Y-88650000D02*
X154720000Y-88650000D01*
X156950000Y-88650000D02*
X156020000Y-88650000D01*
X156950000Y-88650000D02*
X156950000Y-86490000D01*
X153790000Y-88650000D02*
X153790000Y-87190000D01*
X153790000Y-85050000D02*
X153790000Y-83590000D01*
X156950000Y-85050000D02*
X156950000Y-82890000D01*
X156950000Y-85050000D02*
X156020000Y-85050000D01*
X153790000Y-85050000D02*
X154720000Y-85050000D01*
D12*
X159113000Y-113367000D02*
X162367000Y-113367000D01*
X162367000Y-110113000D02*
X159113000Y-110113000D01*
D11*
X149670000Y-109020000D02*
X151000000Y-109020000D01*
X149670000Y-110350000D02*
X149670000Y-109020000D01*
X149670000Y-111620000D02*
X152330000Y-111620000D01*
X152330000Y-111620000D02*
X152330000Y-114220000D01*
X149670000Y-111620000D02*
X149670000Y-114220000D01*
X149670000Y-114220000D02*
X152330000Y-114220000D01*
X169100010Y-82000008D02*
X169100010Y-83330008D01*
X167770010Y-82000008D02*
X169100010Y-82000008D01*
X166500010Y-82000008D02*
X166500010Y-84660008D01*
X166500010Y-84660008D02*
X161360010Y-84660008D01*
X166500010Y-82000008D02*
X161360010Y-82000008D01*
X161360010Y-82000008D02*
X161360010Y-84660008D01*
X161550000Y-99150000D02*
X162550000Y-99150000D01*
X162550000Y-97450000D02*
X161550000Y-97450000D01*
X165900000Y-95450000D02*
X164900000Y-95450000D01*
X164900000Y-97150000D02*
X165900000Y-97150000D01*
X158790000Y-98510000D02*
X158790000Y-97810000D01*
X159990000Y-97810000D02*
X159990000Y-98510000D01*
X160490000Y-89760000D02*
X161190000Y-89760000D01*
X161190000Y-90960000D02*
X160490000Y-90960000D01*
X162590000Y-86030000D02*
X160590000Y-86030000D01*
X160590000Y-88990000D02*
X162590000Y-88990000D01*
X103810000Y-105640000D02*
X103810000Y-106640000D01*
X102450000Y-106640000D02*
X102450000Y-105640000D01*
X163840000Y-89630000D02*
X164840000Y-89630000D01*
X164840000Y-90990000D02*
X163840000Y-90990000D01*
X165650000Y-92830000D02*
X164650000Y-92830000D01*
X164650000Y-91470000D02*
X165650000Y-91470000D01*
X158920000Y-87390000D02*
X158920000Y-88390000D01*
X157560000Y-88390000D02*
X157560000Y-87390000D01*
X103810000Y-103190000D02*
X103810000Y-104190000D01*
X102450000Y-104190000D02*
X102450000Y-103190000D01*
X158920000Y-83790000D02*
X158920000Y-84790000D01*
X157560000Y-84790000D02*
X157560000Y-83790000D01*
X107810000Y-90830000D02*
X107810000Y-92160000D01*
X106480000Y-90830000D02*
X107810000Y-90830000D01*
X105210000Y-90830000D02*
X105210000Y-93490000D01*
X105210000Y-93490000D02*
X102610000Y-93490000D01*
X105210000Y-90830000D02*
X102610000Y-90830000D01*
X102610000Y-90830000D02*
X102610000Y-93490000D01*
X161190000Y-101350000D02*
X161190000Y-100650000D01*
X162390000Y-100650000D02*
X162390000Y-101350000D01*
X165765001Y-100650000D02*
X165765001Y-101350000D01*
X164565001Y-101350000D02*
X164565001Y-100650000D01*
X110090000Y-109550000D02*
X107290000Y-109550000D01*
X107290000Y-109550000D02*
X107290000Y-107550000D01*
X107290000Y-107550000D02*
X110090000Y-107550000D01*
X110090000Y-107550000D02*
X110090000Y-109550000D01*
X160943848Y-94720000D02*
G75*
G03*
X160943848Y-94720000I-183848J0D01*
G01*
X162790000Y-96010000D02*
X163265000Y-96010000D01*
X163190000Y-91710000D02*
X163190000Y-92110000D01*
X162790000Y-91710000D02*
X163190000Y-91710000D01*
X158890000Y-91710000D02*
X158890000Y-92110000D01*
X159290000Y-91710000D02*
X158890000Y-91710000D01*
X158890000Y-96010000D02*
X158890000Y-95610000D01*
X159290000Y-96010000D02*
X158890000Y-96010000D01*
D13*
X165616666Y-108232380D02*
X165616666Y-108946666D01*
X165569047Y-109089523D01*
X165473809Y-109184761D01*
X165330952Y-109232380D01*
X165235714Y-109232380D01*
X166569047Y-108232380D02*
X166092857Y-108232380D01*
X166045238Y-108708571D01*
X166092857Y-108660952D01*
X166188095Y-108613333D01*
X166426190Y-108613333D01*
X166521428Y-108660952D01*
X166569047Y-108708571D01*
X166616666Y-108803809D01*
X166616666Y-109041904D01*
X166569047Y-109137142D01*
X166521428Y-109184761D01*
X166426190Y-109232380D01*
X166188095Y-109232380D01*
X166092857Y-109184761D01*
X166045238Y-109137142D01*
X153471904Y-89852380D02*
X153471904Y-88852380D01*
X153710000Y-88852380D01*
X153852857Y-88900000D01*
X153948095Y-88995238D01*
X153995714Y-89090476D01*
X154043333Y-89280952D01*
X154043333Y-89423809D01*
X153995714Y-89614285D01*
X153948095Y-89709523D01*
X153852857Y-89804761D01*
X153710000Y-89852380D01*
X153471904Y-89852380D01*
X154995714Y-89852380D02*
X154424285Y-89852380D01*
X154710000Y-89852380D02*
X154710000Y-88852380D01*
X154614761Y-88995238D01*
X154519523Y-89090476D01*
X154424285Y-89138095D01*
X144641904Y-83552380D02*
X144641904Y-82552380D01*
X144880000Y-82552380D01*
X145022857Y-82600000D01*
X145118095Y-82695238D01*
X145165714Y-82790476D01*
X145213333Y-82980952D01*
X145213333Y-83123809D01*
X145165714Y-83314285D01*
X145118095Y-83409523D01*
X145022857Y-83504761D01*
X144880000Y-83552380D01*
X144641904Y-83552380D01*
X145594285Y-82647619D02*
X145641904Y-82600000D01*
X145737142Y-82552380D01*
X145975238Y-82552380D01*
X146070476Y-82600000D01*
X146118095Y-82647619D01*
X146165714Y-82742857D01*
X146165714Y-82838095D01*
X146118095Y-82980952D01*
X145546666Y-83552380D01*
X146165714Y-83552380D01*
X106547619Y-96384761D02*
X107547619Y-96384761D01*
X107547619Y-96765714D01*
X107500000Y-96860952D01*
X107452380Y-96908571D01*
X107357142Y-96956190D01*
X107214285Y-96956190D01*
X107119047Y-96908571D01*
X107071428Y-96860952D01*
X107023809Y-96765714D01*
X107023809Y-96384761D01*
X107071428Y-97384761D02*
X107071428Y-97718095D01*
X106547619Y-97860952D02*
X106547619Y-97384761D01*
X107547619Y-97384761D01*
X107547619Y-97860952D01*
X106547619Y-98765714D02*
X106547619Y-98289523D01*
X107547619Y-98289523D01*
X106547619Y-99622857D02*
X106547619Y-99051428D01*
X106547619Y-99337142D02*
X107547619Y-99337142D01*
X107404761Y-99241904D01*
X107309523Y-99146666D01*
X107261904Y-99051428D01*
X160506666Y-105002380D02*
X160506666Y-105716666D01*
X160459047Y-105859523D01*
X160363809Y-105954761D01*
X160220952Y-106002380D01*
X160125714Y-106002380D01*
X161506666Y-106002380D02*
X160935238Y-106002380D01*
X161220952Y-106002380D02*
X161220952Y-105002380D01*
X161125714Y-105145238D01*
X161030476Y-105240476D01*
X160935238Y-105288095D01*
X155226666Y-104932380D02*
X155226666Y-105646666D01*
X155179047Y-105789523D01*
X155083809Y-105884761D01*
X154940952Y-105932380D01*
X154845714Y-105932380D01*
X155655238Y-105027619D02*
X155702857Y-104980000D01*
X155798095Y-104932380D01*
X156036190Y-104932380D01*
X156131428Y-104980000D01*
X156179047Y-105027619D01*
X156226666Y-105122857D01*
X156226666Y-105218095D01*
X156179047Y-105360952D01*
X155607619Y-105932380D01*
X156226666Y-105932380D01*
X172626666Y-106662380D02*
X172626666Y-107376666D01*
X172579047Y-107519523D01*
X172483809Y-107614761D01*
X172340952Y-107662380D01*
X172245714Y-107662380D01*
X173531428Y-106662380D02*
X173340952Y-106662380D01*
X173245714Y-106710000D01*
X173198095Y-106757619D01*
X173102857Y-106900476D01*
X173055238Y-107090952D01*
X173055238Y-107471904D01*
X173102857Y-107567142D01*
X173150476Y-107614761D01*
X173245714Y-107662380D01*
X173436190Y-107662380D01*
X173531428Y-107614761D01*
X173579047Y-107567142D01*
X173626666Y-107471904D01*
X173626666Y-107233809D01*
X173579047Y-107138571D01*
X173531428Y-107090952D01*
X173436190Y-107043333D01*
X173245714Y-107043333D01*
X173150476Y-107090952D01*
X173102857Y-107138571D01*
X173055238Y-107233809D01*
X172696666Y-92532380D02*
X172696666Y-93246666D01*
X172649047Y-93389523D01*
X172553809Y-93484761D01*
X172410952Y-93532380D01*
X172315714Y-93532380D01*
X173077619Y-92532380D02*
X173744285Y-92532380D01*
X173315714Y-93532380D01*
X135441904Y-99662380D02*
X135441904Y-98662380D01*
X136013333Y-99662380D02*
X135584761Y-99090952D01*
X136013333Y-98662380D02*
X135441904Y-99233809D01*
X136965714Y-99662380D02*
X136394285Y-99662380D01*
X136680000Y-99662380D02*
X136680000Y-98662380D01*
X136584761Y-98805238D01*
X136489523Y-98900476D01*
X136394285Y-98948095D01*
X141630000Y-109712380D02*
X141630000Y-109950476D01*
X141391904Y-109855238D02*
X141630000Y-109950476D01*
X141868095Y-109855238D01*
X141487142Y-110140952D02*
X141630000Y-109950476D01*
X141772857Y-110140952D01*
X117891904Y-99572380D02*
X117891904Y-98572380D01*
X118463333Y-99572380D02*
X118034761Y-99000952D01*
X118463333Y-98572380D02*
X117891904Y-99143809D01*
X118844285Y-98667619D02*
X118891904Y-98620000D01*
X118987142Y-98572380D01*
X119225238Y-98572380D01*
X119320476Y-98620000D01*
X119368095Y-98667619D01*
X119415714Y-98762857D01*
X119415714Y-98858095D01*
X119368095Y-99000952D01*
X118796666Y-99572380D01*
X119415714Y-99572380D01*
X112982380Y-104420000D02*
X113220476Y-104420000D01*
X113125238Y-104658095D02*
X113220476Y-104420000D01*
X113125238Y-104181904D01*
X113410952Y-104562857D02*
X113220476Y-104420000D01*
X113410952Y-104277142D01*
X152653333Y-97542380D02*
X152177142Y-97542380D01*
X152177142Y-96542380D01*
X153510476Y-97542380D02*
X152939047Y-97542380D01*
X153224761Y-97542380D02*
X153224761Y-96542380D01*
X153129523Y-96685238D01*
X153034285Y-96780476D01*
X152939047Y-96828095D01*
X106004761Y-105467619D02*
X105909523Y-105420000D01*
X105814285Y-105324761D01*
X105671428Y-105181904D01*
X105576190Y-105134285D01*
X105480952Y-105134285D01*
X105528571Y-105372380D02*
X105433333Y-105324761D01*
X105338095Y-105229523D01*
X105290476Y-105039047D01*
X105290476Y-104705714D01*
X105338095Y-104515238D01*
X105433333Y-104420000D01*
X105528571Y-104372380D01*
X105719047Y-104372380D01*
X105814285Y-104420000D01*
X105909523Y-104515238D01*
X105957142Y-104705714D01*
X105957142Y-105039047D01*
X105909523Y-105229523D01*
X105814285Y-105324761D01*
X105719047Y-105372380D01*
X105528571Y-105372380D01*
X106909523Y-105372380D02*
X106338095Y-105372380D01*
X106623809Y-105372380D02*
X106623809Y-104372380D01*
X106528571Y-104515238D01*
X106433333Y-104610476D01*
X106338095Y-104658095D01*
X104230000Y-102452380D02*
X104230000Y-102690476D01*
X103991904Y-102595238D02*
X104230000Y-102690476D01*
X104468095Y-102595238D01*
X104087142Y-102880952D02*
X104230000Y-102690476D01*
X104372857Y-102880952D01*
X155244761Y-88487619D02*
X155149523Y-88440000D01*
X155054285Y-88344761D01*
X154911428Y-88201904D01*
X154816190Y-88154285D01*
X154720952Y-88154285D01*
X154768571Y-88392380D02*
X154673333Y-88344761D01*
X154578095Y-88249523D01*
X154530476Y-88059047D01*
X154530476Y-87725714D01*
X154578095Y-87535238D01*
X154673333Y-87440000D01*
X154768571Y-87392380D01*
X154959047Y-87392380D01*
X155054285Y-87440000D01*
X155149523Y-87535238D01*
X155197142Y-87725714D01*
X155197142Y-88059047D01*
X155149523Y-88249523D01*
X155054285Y-88344761D01*
X154959047Y-88392380D01*
X154768571Y-88392380D01*
X155578095Y-87487619D02*
X155625714Y-87440000D01*
X155720952Y-87392380D01*
X155959047Y-87392380D01*
X156054285Y-87440000D01*
X156101904Y-87487619D01*
X156149523Y-87582857D01*
X156149523Y-87678095D01*
X156101904Y-87820952D01*
X155530476Y-88392380D01*
X156149523Y-88392380D01*
X155224761Y-85037619D02*
X155129523Y-84990000D01*
X155034285Y-84894761D01*
X154891428Y-84751904D01*
X154796190Y-84704285D01*
X154700952Y-84704285D01*
X154748571Y-84942380D02*
X154653333Y-84894761D01*
X154558095Y-84799523D01*
X154510476Y-84609047D01*
X154510476Y-84275714D01*
X154558095Y-84085238D01*
X154653333Y-83990000D01*
X154748571Y-83942380D01*
X154939047Y-83942380D01*
X155034285Y-83990000D01*
X155129523Y-84085238D01*
X155177142Y-84275714D01*
X155177142Y-84609047D01*
X155129523Y-84799523D01*
X155034285Y-84894761D01*
X154939047Y-84942380D01*
X154748571Y-84942380D01*
X156034285Y-84275714D02*
X156034285Y-84942380D01*
X155796190Y-83894761D02*
X155558095Y-84609047D01*
X156177142Y-84609047D01*
X159978095Y-111192380D02*
X159978095Y-112001904D01*
X160025714Y-112097142D01*
X160073333Y-112144761D01*
X160168571Y-112192380D01*
X160359047Y-112192380D01*
X160454285Y-112144761D01*
X160501904Y-112097142D01*
X160549523Y-112001904D01*
X160549523Y-111192380D01*
X160978095Y-111287619D02*
X161025714Y-111240000D01*
X161120952Y-111192380D01*
X161359047Y-111192380D01*
X161454285Y-111240000D01*
X161501904Y-111287619D01*
X161549523Y-111382857D01*
X161549523Y-111478095D01*
X161501904Y-111620952D01*
X160930476Y-112192380D01*
X161549523Y-112192380D01*
X163037600Y-113767580D02*
X163037600Y-114005676D01*
X162799504Y-113910438D02*
X163037600Y-114005676D01*
X163275695Y-113910438D01*
X162894742Y-114196152D02*
X163037600Y-114005676D01*
X163180457Y-114196152D01*
X163037600Y-113767580D02*
X163037600Y-114005676D01*
X162799504Y-113910438D02*
X163037600Y-114005676D01*
X163275695Y-113910438D01*
X162894742Y-114196152D02*
X163037600Y-114005676D01*
X163180457Y-114196152D01*
X150666666Y-107472380D02*
X150666666Y-108186666D01*
X150619047Y-108329523D01*
X150523809Y-108424761D01*
X150380952Y-108472380D01*
X150285714Y-108472380D01*
X151571428Y-107805714D02*
X151571428Y-108472380D01*
X151333333Y-107424761D02*
X151095238Y-108139047D01*
X151714285Y-108139047D01*
X161616666Y-84872380D02*
X161616666Y-85586666D01*
X161569047Y-85729523D01*
X161473809Y-85824761D01*
X161330952Y-85872380D01*
X161235714Y-85872380D01*
X162235714Y-85300952D02*
X162140476Y-85253333D01*
X162092857Y-85205714D01*
X162045238Y-85110476D01*
X162045238Y-85062857D01*
X162092857Y-84967619D01*
X162140476Y-84920000D01*
X162235714Y-84872380D01*
X162426190Y-84872380D01*
X162521428Y-84920000D01*
X162569047Y-84967619D01*
X162616666Y-85062857D01*
X162616666Y-85110476D01*
X162569047Y-85205714D01*
X162521428Y-85253333D01*
X162426190Y-85300952D01*
X162235714Y-85300952D01*
X162140476Y-85348571D01*
X162092857Y-85396190D01*
X162045238Y-85491428D01*
X162045238Y-85681904D01*
X162092857Y-85777142D01*
X162140476Y-85824761D01*
X162235714Y-85872380D01*
X162426190Y-85872380D01*
X162521428Y-85824761D01*
X162569047Y-85777142D01*
X162616666Y-85681904D01*
X162616666Y-85491428D01*
X162569047Y-85396190D01*
X162521428Y-85348571D01*
X162426190Y-85300952D01*
X164343333Y-98717142D02*
X164295714Y-98764761D01*
X164152857Y-98812380D01*
X164057619Y-98812380D01*
X163914761Y-98764761D01*
X163819523Y-98669523D01*
X163771904Y-98574285D01*
X163724285Y-98383809D01*
X163724285Y-98240952D01*
X163771904Y-98050476D01*
X163819523Y-97955238D01*
X163914761Y-97860000D01*
X164057619Y-97812380D01*
X164152857Y-97812380D01*
X164295714Y-97860000D01*
X164343333Y-97907619D01*
X165295714Y-98812380D02*
X164724285Y-98812380D01*
X165010000Y-98812380D02*
X165010000Y-97812380D01*
X164914761Y-97955238D01*
X164819523Y-98050476D01*
X164724285Y-98098095D01*
X167633333Y-96697142D02*
X167585714Y-96744761D01*
X167442857Y-96792380D01*
X167347619Y-96792380D01*
X167204761Y-96744761D01*
X167109523Y-96649523D01*
X167061904Y-96554285D01*
X167014285Y-96363809D01*
X167014285Y-96220952D01*
X167061904Y-96030476D01*
X167109523Y-95935238D01*
X167204761Y-95840000D01*
X167347619Y-95792380D01*
X167442857Y-95792380D01*
X167585714Y-95840000D01*
X167633333Y-95887619D01*
X168014285Y-95887619D02*
X168061904Y-95840000D01*
X168157142Y-95792380D01*
X168395238Y-95792380D01*
X168490476Y-95840000D01*
X168538095Y-95887619D01*
X168585714Y-95982857D01*
X168585714Y-96078095D01*
X168538095Y-96220952D01*
X167966666Y-96792380D01*
X168585714Y-96792380D01*
X160893333Y-99057142D02*
X160845714Y-99104761D01*
X160702857Y-99152380D01*
X160607619Y-99152380D01*
X160464761Y-99104761D01*
X160369523Y-99009523D01*
X160321904Y-98914285D01*
X160274285Y-98723809D01*
X160274285Y-98580952D01*
X160321904Y-98390476D01*
X160369523Y-98295238D01*
X160464761Y-98200000D01*
X160607619Y-98152380D01*
X160702857Y-98152380D01*
X160845714Y-98200000D01*
X160893333Y-98247619D01*
X161226666Y-98152380D02*
X161845714Y-98152380D01*
X161512380Y-98533333D01*
X161655238Y-98533333D01*
X161750476Y-98580952D01*
X161798095Y-98628571D01*
X161845714Y-98723809D01*
X161845714Y-98961904D01*
X161798095Y-99057142D01*
X161750476Y-99104761D01*
X161655238Y-99152380D01*
X161369523Y-99152380D01*
X161274285Y-99104761D01*
X161226666Y-99057142D01*
X158713333Y-91437142D02*
X158665714Y-91484761D01*
X158522857Y-91532380D01*
X158427619Y-91532380D01*
X158284761Y-91484761D01*
X158189523Y-91389523D01*
X158141904Y-91294285D01*
X158094285Y-91103809D01*
X158094285Y-90960952D01*
X158141904Y-90770476D01*
X158189523Y-90675238D01*
X158284761Y-90580000D01*
X158427619Y-90532380D01*
X158522857Y-90532380D01*
X158665714Y-90580000D01*
X158713333Y-90627619D01*
X159570476Y-90865714D02*
X159570476Y-91532380D01*
X159332380Y-90484761D02*
X159094285Y-91199047D01*
X159713333Y-91199047D01*
X161453333Y-87937142D02*
X161405714Y-87984761D01*
X161262857Y-88032380D01*
X161167619Y-88032380D01*
X161024761Y-87984761D01*
X160929523Y-87889523D01*
X160881904Y-87794285D01*
X160834285Y-87603809D01*
X160834285Y-87460952D01*
X160881904Y-87270476D01*
X160929523Y-87175238D01*
X161024761Y-87080000D01*
X161167619Y-87032380D01*
X161262857Y-87032380D01*
X161405714Y-87080000D01*
X161453333Y-87127619D01*
X162358095Y-87032380D02*
X161881904Y-87032380D01*
X161834285Y-87508571D01*
X161881904Y-87460952D01*
X161977142Y-87413333D01*
X162215238Y-87413333D01*
X162310476Y-87460952D01*
X162358095Y-87508571D01*
X162405714Y-87603809D01*
X162405714Y-87841904D01*
X162358095Y-87937142D01*
X162310476Y-87984761D01*
X162215238Y-88032380D01*
X161977142Y-88032380D01*
X161881904Y-87984761D01*
X161834285Y-87937142D01*
X101093333Y-106452380D02*
X100760000Y-105976190D01*
X100521904Y-106452380D02*
X100521904Y-105452380D01*
X100902857Y-105452380D01*
X100998095Y-105500000D01*
X101045714Y-105547619D01*
X101093333Y-105642857D01*
X101093333Y-105785714D01*
X101045714Y-105880952D01*
X100998095Y-105928571D01*
X100902857Y-105976190D01*
X100521904Y-105976190D01*
X102045714Y-106452380D02*
X101474285Y-106452380D01*
X101760000Y-106452380D02*
X101760000Y-105452380D01*
X101664761Y-105595238D01*
X101569523Y-105690476D01*
X101474285Y-105738095D01*
X166203333Y-90882380D02*
X165870000Y-90406190D01*
X165631904Y-90882380D02*
X165631904Y-89882380D01*
X166012857Y-89882380D01*
X166108095Y-89930000D01*
X166155714Y-89977619D01*
X166203333Y-90072857D01*
X166203333Y-90215714D01*
X166155714Y-90310952D01*
X166108095Y-90358571D01*
X166012857Y-90406190D01*
X165631904Y-90406190D01*
X166584285Y-89977619D02*
X166631904Y-89930000D01*
X166727142Y-89882380D01*
X166965238Y-89882380D01*
X167060476Y-89930000D01*
X167108095Y-89977619D01*
X167155714Y-90072857D01*
X167155714Y-90168095D01*
X167108095Y-90310952D01*
X166536666Y-90882380D01*
X167155714Y-90882380D01*
X166993333Y-92682380D02*
X166660000Y-92206190D01*
X166421904Y-92682380D02*
X166421904Y-91682380D01*
X166802857Y-91682380D01*
X166898095Y-91730000D01*
X166945714Y-91777619D01*
X166993333Y-91872857D01*
X166993333Y-92015714D01*
X166945714Y-92110952D01*
X166898095Y-92158571D01*
X166802857Y-92206190D01*
X166421904Y-92206190D01*
X167326666Y-91682380D02*
X167945714Y-91682380D01*
X167612380Y-92063333D01*
X167755238Y-92063333D01*
X167850476Y-92110952D01*
X167898095Y-92158571D01*
X167945714Y-92253809D01*
X167945714Y-92491904D01*
X167898095Y-92587142D01*
X167850476Y-92634761D01*
X167755238Y-92682380D01*
X167469523Y-92682380D01*
X167374285Y-92634761D01*
X167326666Y-92587142D01*
X157743333Y-90112380D02*
X157410000Y-89636190D01*
X157171904Y-90112380D02*
X157171904Y-89112380D01*
X157552857Y-89112380D01*
X157648095Y-89160000D01*
X157695714Y-89207619D01*
X157743333Y-89302857D01*
X157743333Y-89445714D01*
X157695714Y-89540952D01*
X157648095Y-89588571D01*
X157552857Y-89636190D01*
X157171904Y-89636190D01*
X158600476Y-89112380D02*
X158410000Y-89112380D01*
X158314761Y-89160000D01*
X158267142Y-89207619D01*
X158171904Y-89350476D01*
X158124285Y-89540952D01*
X158124285Y-89921904D01*
X158171904Y-90017142D01*
X158219523Y-90064761D01*
X158314761Y-90112380D01*
X158505238Y-90112380D01*
X158600476Y-90064761D01*
X158648095Y-90017142D01*
X158695714Y-89921904D01*
X158695714Y-89683809D01*
X158648095Y-89588571D01*
X158600476Y-89540952D01*
X158505238Y-89493333D01*
X158314761Y-89493333D01*
X158219523Y-89540952D01*
X158171904Y-89588571D01*
X158124285Y-89683809D01*
X101093333Y-104232380D02*
X100760000Y-103756190D01*
X100521904Y-104232380D02*
X100521904Y-103232380D01*
X100902857Y-103232380D01*
X100998095Y-103280000D01*
X101045714Y-103327619D01*
X101093333Y-103422857D01*
X101093333Y-103565714D01*
X101045714Y-103660952D01*
X100998095Y-103708571D01*
X100902857Y-103756190D01*
X100521904Y-103756190D01*
X101426666Y-103232380D02*
X102093333Y-103232380D01*
X101664761Y-104232380D01*
X158013333Y-83112380D02*
X157680000Y-82636190D01*
X157441904Y-83112380D02*
X157441904Y-82112380D01*
X157822857Y-82112380D01*
X157918095Y-82160000D01*
X157965714Y-82207619D01*
X158013333Y-82302857D01*
X158013333Y-82445714D01*
X157965714Y-82540952D01*
X157918095Y-82588571D01*
X157822857Y-82636190D01*
X157441904Y-82636190D01*
X158584761Y-82540952D02*
X158489523Y-82493333D01*
X158441904Y-82445714D01*
X158394285Y-82350476D01*
X158394285Y-82302857D01*
X158441904Y-82207619D01*
X158489523Y-82160000D01*
X158584761Y-82112380D01*
X158775238Y-82112380D01*
X158870476Y-82160000D01*
X158918095Y-82207619D01*
X158965714Y-82302857D01*
X158965714Y-82350476D01*
X158918095Y-82445714D01*
X158870476Y-82493333D01*
X158775238Y-82540952D01*
X158584761Y-82540952D01*
X158489523Y-82588571D01*
X158441904Y-82636190D01*
X158394285Y-82731428D01*
X158394285Y-82921904D01*
X158441904Y-83017142D01*
X158489523Y-83064761D01*
X158584761Y-83112380D01*
X158775238Y-83112380D01*
X158870476Y-83064761D01*
X158918095Y-83017142D01*
X158965714Y-82921904D01*
X158965714Y-82731428D01*
X158918095Y-82636190D01*
X158870476Y-82588571D01*
X158775238Y-82540952D01*
X104916666Y-89262380D02*
X104916666Y-89976666D01*
X104869047Y-90119523D01*
X104773809Y-90214761D01*
X104630952Y-90262380D01*
X104535714Y-90262380D01*
X105297619Y-89262380D02*
X105916666Y-89262380D01*
X105583333Y-89643333D01*
X105726190Y-89643333D01*
X105821428Y-89690952D01*
X105869047Y-89738571D01*
X105916666Y-89833809D01*
X105916666Y-90071904D01*
X105869047Y-90167142D01*
X105821428Y-90214761D01*
X105726190Y-90262380D01*
X105440476Y-90262380D01*
X105345238Y-90214761D01*
X105297619Y-90167142D01*
X160647142Y-101166666D02*
X160694761Y-101214285D01*
X160742380Y-101357142D01*
X160742380Y-101452380D01*
X160694761Y-101595238D01*
X160599523Y-101690476D01*
X160504285Y-101738095D01*
X160313809Y-101785714D01*
X160170952Y-101785714D01*
X159980476Y-101738095D01*
X159885238Y-101690476D01*
X159790000Y-101595238D01*
X159742380Y-101452380D01*
X159742380Y-101357142D01*
X159790000Y-101214285D01*
X159837619Y-101166666D01*
X159742380Y-100309523D02*
X159742380Y-100500000D01*
X159790000Y-100595238D01*
X159837619Y-100642857D01*
X159980476Y-100738095D01*
X160170952Y-100785714D01*
X160551904Y-100785714D01*
X160647142Y-100738095D01*
X160694761Y-100690476D01*
X160742380Y-100595238D01*
X160742380Y-100404761D01*
X160694761Y-100309523D01*
X160647142Y-100261904D01*
X160551904Y-100214285D01*
X160313809Y-100214285D01*
X160218571Y-100261904D01*
X160170952Y-100309523D01*
X160123333Y-100404761D01*
X160123333Y-100595238D01*
X160170952Y-100690476D01*
X160218571Y-100738095D01*
X160313809Y-100785714D01*
X164022143Y-101166666D02*
X164069762Y-101214285D01*
X164117381Y-101357142D01*
X164117381Y-101452380D01*
X164069762Y-101595238D01*
X163974524Y-101690476D01*
X163879286Y-101738095D01*
X163688810Y-101785714D01*
X163545953Y-101785714D01*
X163355477Y-101738095D01*
X163260239Y-101690476D01*
X163165001Y-101595238D01*
X163117381Y-101452380D01*
X163117381Y-101357142D01*
X163165001Y-101214285D01*
X163212620Y-101166666D01*
X163545953Y-100595238D02*
X163498334Y-100690476D01*
X163450715Y-100738095D01*
X163355477Y-100785714D01*
X163307858Y-100785714D01*
X163212620Y-100738095D01*
X163165001Y-100690476D01*
X163117381Y-100595238D01*
X163117381Y-100404761D01*
X163165001Y-100309523D01*
X163212620Y-100261904D01*
X163307858Y-100214285D01*
X163355477Y-100214285D01*
X163450715Y-100261904D01*
X163498334Y-100309523D01*
X163545953Y-100404761D01*
X163545953Y-100595238D01*
X163593572Y-100690476D01*
X163641191Y-100738095D01*
X163736429Y-100785714D01*
X163926905Y-100785714D01*
X164022143Y-100738095D01*
X164069762Y-100690476D01*
X164117381Y-100595238D01*
X164117381Y-100404761D01*
X164069762Y-100309523D01*
X164022143Y-100261904D01*
X163926905Y-100214285D01*
X163736429Y-100214285D01*
X163641191Y-100261904D01*
X163593572Y-100309523D01*
X163545953Y-100404761D01*
X107856666Y-109802380D02*
X107856666Y-110516666D01*
X107809047Y-110659523D01*
X107713809Y-110754761D01*
X107570952Y-110802380D01*
X107475714Y-110802380D01*
X108332857Y-110802380D02*
X108332857Y-109802380D01*
X108713809Y-109802380D01*
X108809047Y-109850000D01*
X108856666Y-109897619D01*
X108904285Y-109992857D01*
X108904285Y-110135714D01*
X108856666Y-110230952D01*
X108809047Y-110278571D01*
X108713809Y-110326190D01*
X108332857Y-110326190D01*
X109856666Y-110802380D02*
X109285238Y-110802380D01*
X109570952Y-110802380D02*
X109570952Y-109802380D01*
X109475714Y-109945238D01*
X109380476Y-110040476D01*
X109285238Y-110088095D01*
X160278095Y-96812380D02*
X160278095Y-97621904D01*
X160325714Y-97717142D01*
X160373333Y-97764761D01*
X160468571Y-97812380D01*
X160659047Y-97812380D01*
X160754285Y-97764761D01*
X160801904Y-97717142D01*
X160849523Y-97621904D01*
X160849523Y-96812380D01*
X161849523Y-97812380D02*
X161278095Y-97812380D01*
X161563809Y-97812380D02*
X161563809Y-96812380D01*
X161468571Y-96955238D01*
X161373333Y-97050476D01*
X161278095Y-97098095D01*
X164015000Y-95162380D02*
X164015000Y-95400476D01*
X163776904Y-95305238D02*
X164015000Y-95400476D01*
X164253095Y-95305238D01*
X163872142Y-95590952D02*
X164015000Y-95400476D01*
X164157857Y-95590952D01*
M02*
