0
SECTION
2
HEADER
9
$INSUNITS
70
4
9
$ACADVER
1
AC1014
9
$HANDSEED
5
FFFF
0
ENDSEC
0
SECTION
2
TABLES
0
TABLE
2
VPORT
5
8
100
AcDbSymbolTable
0
ENDTAB
0
TABLE
2
LTYPE
5
5
100
AcDbSymbolTable
0
LTYPE
5
14
100
AcDbSymbolTableRecord
100
AcDbLinetypeTableRecord
2
BYBLOCK
70
0
0
LTYPE
5
15
100
AcDbSymbolTableRecord
100
AcDbLinetypeTableRecord
2
BYLAYER
70
0
0
ENDTAB
0
TABLE
2
LAYER
5
2
100
AcDbSymbolTable
70
2
0
LAYER
5
50
100
AcDbSymbolTableRecord
100
AcDbLayerTableRecord
2
0
70
0
6
CONTINUOUS
0
ENDTAB
0
TABLE
2
STYLE
5
3
100
AcDbSymbolTable
70
1
0
STYLE
5
11
100
AcDbSymbolTableRecord
100
AcDbTextStyleTableRecord
2
STANDARD
70
0
0
ENDTAB
0
TABLE
2
VIEW
5
6
100
AcDbSymbolTable
70
0
0
ENDTAB
0
TABLE
2
UCS
5
7
100
AcDbSymbolTable
70
0
0
ENDTAB
0
TABLE
2
APPID
5
9
100
AcDbSymbolTable
70
2
0
APPID
5
12
100
AcDbSymbolTableRecord
100
AcDbRegAppTableRecord
2
ACAD
70
0
0
ENDTAB
0
TABLE
2
DIMSTYLE
5
A
100
AcDbSymbolTable
70
1
0
ENDTAB
0
TABLE
2
BLOCK_RECORD
5
1
100
AcDbSymbolTable
70
1
0
BLOCK_RECORD
5
1F
100
AcDbSymbolTableRecord
100
AcDbBlockTableRecord
2
*MODEL_SPACE
0
BLOCK_RECORD
5
1B
100
AcDbSymbolTableRecord
100
AcDbBlockTableRecord
2
*PAPER_SPACE
0
ENDTAB
0
ENDSEC
0
SECTION
2
BLOCKS
0
BLOCK
5
20
100
AcDbEntity
100
AcDbBlockBegin
2
*MODEL_SPACE
0
ENDBLK
5
21
100
AcDbEntity
100
AcDbBlockEnd
0
BLOCK
5
1C
100
AcDbEntity
100
AcDbBlockBegin
2
*PAPER_SPACE
0
ENDBLK
5
1D
100
AcDbEntity
100
AcDbBlockEnd
0
ENDSEC
0
SECTION
2
ENTITIES
0
LWPOLYLINE
5
100
100
AcDbEntity
8
0
100
AcDbPolyline
90
16
70
1
43
0.0
10
55.472535091006918
20
-36.870443489524206
42
-0.046370179641596725
10
56.393977766257848
20
-36.784804424195819
10
146.39397776625785
20
-36.784804424195642
42
-0.04777112476113124
10
147.34288400816962
20
-36.875672429223329
10
155.28792806729345
20
-38.365368190309027
42
-0.36249202824249743
10
159.39397776625788
20
-43.284804424195833
10
159.39396955675804
20
-59.283090555241706
42
-0.36091130257263876
10
155.31541892859207
20
-64.197443421024275
10
147.31542044150876
20
-65.697451489913476
42
-0.046370179641594615
10
146.39397776625782
20
-65.78309055524187
10
56.393977766257848
20
-65.78309055524187
42
-0.047771124761130011
10
55.445071524346112
20
-65.692222550214197
10
47.500027465222267
20
-64.202526789128498
42
-0.36249202824249743
10
43.393977766257812
20
-59.283090555241685
10
43.393985975757623
20
-43.284804424195826
42
-0.36091130257263926
10
47.472536603923594
20
-38.370451558413244
0
CIRCLE
5
101
100
AcDbEntity
8
0
100
AcDbCircle
10
154.39397776625785
20
-59.283090555241685
30
0
40
1.6000000000000014
210
0
220
0
230
1
0
CIRCLE
5
102
100
AcDbEntity
8
0
100
AcDbCircle
10
48.393977766257819
20
-43.284804424195826
30
0
40
1.5999999999999925
210
0
220
0
230
1
0
LWPOLYLINE
5
103
100
AcDbEntity
8
0
100
AcDbPolyline
90
3
70
1
43
0.0
10
53.385629667490953
20
-58.994280415331474
42
-0.001162172924926746
10
53.393977766257812
20
-58.980314917509759
10
53.393977766257812
20
-59.283090555241685
42
0.014449554598321826
0
CIRCLE
5
104
100
AcDbEntity
8
0
100
AcDbCircle
10
154.39397776625788
20
-43.284804424195833
30
0
40
1.6500000000000092
210
0
220
-0
230
1
0
CIRCLE
5
105
100
AcDbEntity
8
0
100
AcDbCircle
10
48.393977766257812
20
-59.283090555241685
30
0
40
1.6500000000000004
210
0
220
-0
230
1
0
LWPOLYLINE
5
106
100
AcDbEntity
8
0
100
AcDbPolyline
90
3
70
1
43
0.0
10
149.40232586502458
20
-43.573614564106279
42
-0.0011621729255358155
10
149.39397776625788
20
-43.587580061927767
10
149.39397776625788
20
-43.284804424195826
42
0.014449554598329518
0
LWPOLYLINE
5
107
100
AcDbEntity
8
0
100
AcDbPolyline
90
6
70
1
43
0.0
10
96.393980097508489
20
-54.170697489718798
10
101.39397776625793
20
-57.057447489718804
10
106.39397543500738
20
-54.170697489718805
10
106.39397543500738
20
-48.397197489718813
10
101.39397776625793
20
-45.510447489718821
10
96.393980097508489
20
-48.397197489718806
0
ENDSEC
0
SECTION
2
OBJECTS
0
DICTIONARY
5
C
100
AcDbDictionary
3
ACAD_GROUP
350
D
3
ACAD_MLINESTYLE
350
17
0
DICTIONARY
5
D
100
AcDbDictionary
0
DICTIONARY
5
1A
330
C
100
AcDbDictionary
0
DICTIONARY
5
17
100
AcDbDictionary
0
ENDSEC
0
EOF
