0
SECTION
2
HEADER
9
$INSUNITS
70
4
9
$ACADVER
1
AC1014
9
$HANDSEED
5
FFFF
0
ENDSEC
0
SECTION
2
TABLES
0
TABLE
2
VPORT
5
8
100
AcDbSymbolTable
0
ENDTAB
0
TABLE
2
LTYPE
5
5
100
AcDbSymbolTable
0
LTYPE
5
14
100
AcDbSymbolTableRecord
100
AcDbLinetypeTableRecord
2
BYBLOCK
70
0
0
LTYPE
5
15
100
AcDbSymbolTableRecord
100
AcDbLinetypeTableRecord
2
BYLAYER
70
0
0
ENDTAB
0
TABLE
2
LAYER
5
2
100
AcDbSymbolTable
70
2
0
LAYER
5
50
100
AcDbSymbolTableRecord
100
AcDbLayerTableRecord
2
0
70
0
6
CONTINUOUS
0
ENDTAB
0
TABLE
2
STYLE
5
3
100
AcDbSymbolTable
70
1
0
STYLE
5
11
100
AcDbSymbolTableRecord
100
AcDbTextStyleTableRecord
2
STANDARD
70
0
0
ENDTAB
0
TABLE
2
VIEW
5
6
100
AcDbSymbolTable
70
0
0
ENDTAB
0
TABLE
2
UCS
5
7
100
AcDbSymbolTable
70
0
0
ENDTAB
0
TABLE
2
APPID
5
9
100
AcDbSymbolTable
70
2
0
APPID
5
12
100
AcDbSymbolTableRecord
100
AcDbRegAppTableRecord
2
ACAD
70
0
0
ENDTAB
0
TABLE
2
DIMSTYLE
5
A
100
AcDbSymbolTable
70
1
0
ENDTAB
0
TABLE
2
BLOCK_RECORD
5
1
100
AcDbSymbolTable
70
1
0
BLOCK_RECORD
5
1F
100
AcDbSymbolTableRecord
100
AcDbBlockTableRecord
2
*MODEL_SPACE
0
BLOCK_RECORD
5
1B
100
AcDbSymbolTableRecord
100
AcDbBlockTableRecord
2
*PAPER_SPACE
0
ENDTAB
0
ENDSEC
0
SECTION
2
BLOCKS
0
BLOCK
5
20
100
AcDbEntity
100
AcDbBlockBegin
2
*MODEL_SPACE
0
ENDBLK
5
21
100
AcDbEntity
100
AcDbBlockEnd
0
BLOCK
5
1C
100
AcDbEntity
100
AcDbBlockBegin
2
*PAPER_SPACE
0
ENDBLK
5
1D
100
AcDbEntity
100
AcDbBlockEnd
0
ENDSEC
0
SECTION
2
ENTITIES
0
CIRCLE
5
100
100
AcDbEntity
8
0
100
AcDbCircle
10
29.766996634338206
20
-59.284924861214634
30
0
40
1.6000000000000014
210
1.8207402634779468e-69
220
-1.9259299443872359e-34
230
1
0
CIRCLE
5
101
100
AcDbEntity
8
0
100
AcDbCircle
10
22.500121817079936
20
-4.4999999999999867
30
0
40
1.6000000000000014
210
0
220
-1.9259299443872359e-34
230
1
0
CIRCLE
5
102
100
AcDbEntity
8
0
100
AcDbCircle
10
174.39397776625782
20
-27.784804424195826
30
0
40
3.0000000000000071
210
7.7037197775489434e-34
220
7.2829610539117872e-69
230
1
0
CIRCLE
5
103
100
AcDbEntity
8
0
100
AcDbCircle
10
156.89397776625782
20
-30.784804424195823
30
0
40
5
210
-0
220
0
230
1
0
CIRCLE
5
104
100
AcDbEntity
8
0
100
AcDbCircle
10
45.893977766257819
20
-71.783090555241685
30
0
40
5
210
-0
220
0
230
1
0
CIRCLE
5
105
100
AcDbEntity
8
0
100
AcDbCircle
10
156.89397776625782
20
-71.783090555241685
30
0
40
5
210
-0
220
0
230
1
0
CIRCLE
5
106
100
AcDbEntity
8
0
100
AcDbCircle
10
45.893977766257819
20
-30.784804424195823
30
0
40
5
210
-0
220
0
230
1
0
LWPOLYLINE
5
107
100
AcDbEntity
8
0
100
AcDbPolyline
90
4
70
1
43
0.0
10
131.84735997266574
20
-101.27833674956931
10
189.39397776625782
20
-101.27833674956931
10
189.39397776625782
20
-98.778336749569306
10
131.84735997266574
20
-98.778336749569306
0
LWPOLYLINE
5
108
100
AcDbEntity
8
0
100
AcDbPolyline
90
4
70
1
43
0.0
10
76.847359972665728
20
-10.278336749569323
10
46.847359972665728
20
-10.278336749569323
10
46.847359972665728
20
-12.778336749569323
10
76.847359972665728
20
-12.778336749569323
0
LWPOLYLINE
5
109
100
AcDbEntity
8
0
100
AcDbPolyline
90
4
70
1
43
0.0
10
131.98233472624602
20
-10.204623625189679
10
131.98233472624602
20
-12.704623625189679
10
161.84735997266571
20
-12.704623625189679
10
161.84735997266571
20
-10.204623625189679
0
CIRCLE
5
110
100
AcDbEntity
8
0
100
AcDbCircle
10
190.46010561621003
20
-87.778336749569306
30
0
40
1.6000000000000014
210
-1.9131922659973993e-77
220
-1.9259299443872359e-34
230
1
0
LWPOLYLINE
5
111
100
AcDbEntity
8
0
100
AcDbPolyline
90
4
70
1
43
0.0
10
61.847359972665728
20
-101.27833674956931
10
61.847359972665728
20
-98.778336749569306
10
31.847359972665732
20
-98.778336749569306
10
31.847359972665732
20
-101.27833674956931
0
LWPOLYLINE
5
112
100
AcDbEntity
8
0
100
AcDbPolyline
90
4
70
1
43
0.0
10
-4.9998781829200922
20
-35.278336749569306
10
-4.9998781829200922
20
-65.278336749569306
10
-2.4998781829200922
20
-65.278336749569306
10
-2.4998781829200922
20
-35.278336749569306
0
CIRCLE
5
113
100
AcDbEntity
8
0
100
AcDbCircle
10
2.5001218170799051
20
-87.778336749569306
30
0
40
1.6000000000000003
210
0
220
-0
230
1
0
LWPOLYLINE
5
114
100
AcDbEntity
8
0
100
AcDbPolyline
90
4
70
1
43
0.0
10
195.46010561621003
20
-35.278336749569306
10
195.46010561621003
20
-65.278336749569306
10
197.96010561621003
20
-65.278336749569306
10
197.96010561621003
20
-35.278336749569306
0
LWPOLYLINE
5
115
100
AcDbEntity
8
0
100
AcDbPolyline
90
8
70
1
43
0.0
10
138.54425471664482
20
-35.279582792561804
10
63.544254716644815
20
-35.279582792561797
42
0.41421356237309509
10
63.044254716644808
20
-35.779582792561804
10
63.044254716644801
20
-66.779582792561797
42
0.41421356237309509
10
63.544254716644808
20
-67.279582792561811
10
138.54425471664482
20
-67.279582792561811
42
0.41421356237309509
10
139.04425471664482
20
-66.779582792561811
10
139.04425471664482
20
-35.779582792561811
42
0.41421356237309509
0
ARC
5
116
100
AcDbEntity
8
0
100
AcDbCircle
10
2.5001218170799087
20
-12.160324367825879
30
0
40
5.0000000000000018
210
0
220
-0
230
1
100
AcDbArc
50
60.000805932040336
51
180
0
LINE
5
117
100
AcDbEntity
8
0
100
AcDbLine
10
-2.4998781829200931
20
-12.160324367825876
30
0
11
-2.4998781829200922
21
-12.704623625189662
31
0
0
LINE
5
118
100
AcDbEntity
8
0
100
AcDbLine
10
-2.4998781829200922
20
-12.704623625189662
30
0
11
-4.9998781829200922
21
-12.704623625189662
31
0
0
ARC
5
119
100
AcDbEntity
8
0
100
AcDbCircle
10
-4.9998781829200913
20
-17.704623625189665
30
0
40
5.0000000000000044
210
0
220
0
230
1
100
AcDbArc
50
90.000000000000014
51
180
0
LINE
5
120
100
AcDbEntity
8
0
100
AcDbLine
10
-9.999878182920094
20
-17.704623625189662
30
0
11
-9.9998781829200905
21
-101.27833674956929
31
0
0
ARC
5
121
100
AcDbEntity
8
0
100
AcDbCircle
10
-4.9998781829200762
20
-101.27833674956931
30
8.5528470722950261e-49
40
5.0000000000000142
210
5.1317082433770004e-49
220
1.9259299443872356e-34
230
1
100
AcDbArc
50
180
51
270
0
LINE
5
122
100
AcDbEntity
8
0
100
AcDbLine
10
-4.9998781829200736
20
-106.27833674956932
30
9.6296497219362135e-34
11
197.96010561620994
21
-106.27833674956931
31
0
0
ARC
5
123
100
AcDbEntity
8
0
100
AcDbCircle
10
197.96010561621
20
-101.27833674956935
30
0
40
4.9999999999999467
210
0
220
0
230
1
100
AcDbArc
50
-90.000000000000654
51
0
0
LINE
5
124
100
AcDbEntity
8
0
100
AcDbLine
10
202.96010561620994
20
-101.27833674956929
30
0
11
202.96010561621
21
-17.704623625189662
31
0
0
ARC
5
125
100
AcDbEntity
8
0
100
AcDbCircle
10
197.96010561620994
20
-17.704623625189672
30
1.6517685908369769e-47
40
5.0000000000000355
210
4.1588218889034254e-48
220
-3.8518598887744666e-34
230
1
100
AcDbArc
50
0
51
89.999999999999346
0
LINE
5
126
100
AcDbEntity
8
0
100
AcDbLine
10
197.96010561621
20
-12.70462362518964
30
1.925929944387227e-33
11
195.46010561621003
21
-12.704623625189665
31
-1.1555579666323415e-32
0
ARC
5
127
100
AcDbEntity
8
0
100
AcDbCircle
10
190.6111311521683
20
-13.924232795996822
30
-1.4326018846094169e-47
40
4.9999999882445643
210
2.2867216764287559e-33
220
3.8317574361989846e-34
230
1
100
AcDbArc
50
14.118126472940794
51
89.290265630147971
0
ARC
5
128
100
AcDbEntity
8
0
100
AcDbCircle
10
190.73500000000007
20
-3.9249999999999021
30
4.2336593007860379e-47
40
5.0000000000001252
210
-4.7712544643131573e-36
220
-3.8515643725418094e-34
230
1
100
AcDbArc
50
219.44473690990867
51
269.29026563014799
0
ARC
5
129
100
AcDbEntity
8
0
100
AcDbCircle
10
183.01262263635277
20
-10.278336749569295
30
0
40
4.9999999999999316
210
1.918141215569332e-34
220
1.5780887804198887e-34
230
1
100
AcDbArc
50
39.444736909908769
51
90.000000000000654
0
LINE
5
130
100
AcDbEntity
8
0
100
AcDbLine
10
183.01262263635272
20
-5.2783367495693607
30
0
11
39.947377363647277
21
-5.2783367495693243
31
0
0
ARC
5
131
100
AcDbEntity
8
0
100
AcDbCircle
10
39.947377363647284
20
-10.278336749569331
30
0
40
5.0000000000000053
210
0
220
0
230
1
100
AcDbArc
50
90.000000000000071
51
140.5552630900915
0
ARC
5
132
100
AcDbEntity
8
0
100
AcDbCircle
10
32.225000000000001
20
-3.9250000000000043
30
0
40
4.9999999999999964
210
0
220
0
230
1
100
AcDbArc
50
185.87368247586841
51
320.55526309009156
0
ARC
5
133
100
AcDbEntity
8
0
100
AcDbCircle
10
22.277500723830315
20
-4.9483563165406288
30
0
40
5.0000000000000053
210
0
220
-0
230
1
100
AcDbArc
50
5.8736824758684731
51
152.16013762287378
0
ARC
5
134
100
AcDbEntity
8
0
100
AcDbCircle
10
13.434937902786563
20
-0.27833674956932847
30
0
40
5
210
-0
220
0
230
1
100
AcDbArc
50
278.76077201760944
51
332.16013762287383
0
ARC
5
135
100
AcDbEntity
8
0
100
AcDbCircle
10
14.958029928337853
20
-10.16166567669212
30
-1.325691296205729e-47
40
5.0000000000000036
210
4.8396483261795142e-34
220
7.4582459274906349e-35
230
1
100
AcDbArc
50
98.760772017609426
51
138.22811636621341
0
ARC
5
136
100
AcDbEntity
8
0
100
AcDbCircle
10
7.5000000000000755
20
-3.4999999999999796
30
0
40
5.0000000000000036
210
0
220
0
230
1
100
AcDbArc
50
240.00080593204032
51
318.22811636621327
0
CIRCLE
5
137
100
AcDbEntity
8
0
100
AcDbCircle
10
29.766806072592779
20
-43.283674864099638
30
0
40
1.6000000000000014
210
1.8207402634779468e-69
220
-1.9259299443872359e-34
230
1
0
ENDSEC
0
SECTION
2
OBJECTS
0
DICTIONARY
5
C
100
AcDbDictionary
3
ACAD_GROUP
350
D
3
ACAD_MLINESTYLE
350
17
0
DICTIONARY
5
D
100
AcDbDictionary
0
DICTIONARY
5
1A
330
C
100
AcDbDictionary
0
DICTIONARY
5
17
100
AcDbDictionary
0
ENDSEC
0
EOF
