0
SECTION
2
HEADER
9
$INSUNITS
70
4
9
$ACADVER
1
AC1014
9
$HANDSEED
5
FFFF
0
ENDSEC
0
SECTION
2
TABLES
0
TABLE
2
VPORT
5
8
100
AcDbSymbolTable
0
ENDTAB
0
TABLE
2
LTYPE
5
5
100
AcDbSymbolTable
0
LTYPE
5
14
100
AcDbSymbolTableRecord
100
AcDbLinetypeTableRecord
2
BYBLOCK
70
0
0
LTYPE
5
15
100
AcDbSymbolTableRecord
100
AcDbLinetypeTableRecord
2
BYLAYER
70
0
0
ENDTAB
0
TABLE
2
LAYER
5
2
100
AcDbSymbolTable
70
2
0
LAYER
5
50
100
AcDbSymbolTableRecord
100
AcDbLayerTableRecord
2
0
70
0
6
CONTINUOUS
0
ENDTAB
0
TABLE
2
STYLE
5
3
100
AcDbSymbolTable
70
1
0
STYLE
5
11
100
AcDbSymbolTableRecord
100
AcDbTextStyleTableRecord
2
STANDARD
70
0
0
ENDTAB
0
TABLE
2
VIEW
5
6
100
AcDbSymbolTable
70
0
0
ENDTAB
0
TABLE
2
UCS
5
7
100
AcDbSymbolTable
70
0
0
ENDTAB
0
TABLE
2
APPID
5
9
100
AcDbSymbolTable
70
2
0
APPID
5
12
100
AcDbSymbolTableRecord
100
AcDbRegAppTableRecord
2
ACAD
70
0
0
ENDTAB
0
TABLE
2
DIMSTYLE
5
A
100
AcDbSymbolTable
70
1
0
ENDTAB
0
TABLE
2
BLOCK_RECORD
5
1
100
AcDbSymbolTable
70
1
0
BLOCK_RECORD
5
1F
100
AcDbSymbolTableRecord
100
AcDbBlockTableRecord
2
*MODEL_SPACE
0
BLOCK_RECORD
5
1B
100
AcDbSymbolTableRecord
100
AcDbBlockTableRecord
2
*PAPER_SPACE
0
ENDTAB
0
ENDSEC
0
SECTION
2
BLOCKS
0
BLOCK
5
20
100
AcDbEntity
100
AcDbBlockBegin
2
*MODEL_SPACE
0
ENDBLK
5
21
100
AcDbEntity
100
AcDbBlockEnd
0
BLOCK
5
1C
100
AcDbEntity
100
AcDbBlockBegin
2
*PAPER_SPACE
0
ENDBLK
5
1D
100
AcDbEntity
100
AcDbBlockEnd
0
ENDSEC
0
SECTION
2
ENTITIES
0
LWPOLYLINE
5
100
100
AcDbEntity
8
0
100
AcDbPolyline
90
4
70
1
43
0.0
10
107.62
20
-9.9899999999819773
10
117.62
20
-9.9899999999819773
10
117.62
20
-7.489999999981972
10
107.62
20
-7.4899999999819666
0
LWPOLYLINE
5
101
100
AcDbEntity
8
0
100
AcDbPolyline
90
4
70
1
43
0.0
10
-7.004999999999999
20
-7.4899999999819808
10
-7.004999999999999
20
-9.9899999999819791
10
0.49500000000000161
20
-9.9899999999819791
10
0.49500000000000099
20
-7.48999999998198
0
LWPOLYLINE
5
102
100
AcDbEntity
8
0
100
AcDbPolyline
90
8
70
1
43
0.0
10
2.490000000000121
20
-21.389999999965514
10
-6.5099999999998825
20
-21.389999999965514
42
0.41421356237309537
10
-7.5099999999998888
20
-22.389999999965518
10
-7.5099999999998825
20
-33.389999999965518
42
0.41421356237309509
10
-6.5099999999998825
20
-34.389999999965525
10
2.4900000000001206
20
-34.389999999965525
42
0.41421356237309415
10
3.4900000000001268
20
-33.389999999965518
10
3.4900000000001179
20
-22.389999999965518
42
0.41421356237309415
0
LWPOLYLINE
5
103
100
AcDbEntity
8
0
100
AcDbPolyline
90
42
70
1
43
0.0
10
-12.704623625189665
20
-14.990000331098594
10
-12.704623625189662
20
0.0099996689014080192
10
14.721663250417354
20
0.0099996689014170137
10
14.721663250417354
20
2.509999668901417
10
44.72166325041735
20
2.509999668901417
10
44.72166325041735
20
0.0099996689014169009
10
69.72166325041735
20
0.0099996689014170137
10
69.72166325041735
20
2.509999668901417
10
99.72166325041735
20
2.509999668901417
10
99.72166325041735
20
0.0099996689014191804
10
123.25966325041735
20
0.0099996689014170137
10
123.25966325041735
20
-7.4900003310985834
10
125.75966325041735
20
-7.4900003310985852
10
125.75966325041735
20
-22.490000331098585
10
123.25966325041735
20
-22.490000331098585
10
123.25966325041735
20
-37.490000331098585
10
125.75966325041735
20
-37.490000331098585
10
125.75966325041735
20
-52.490000331098585
10
123.25966325041735
20
-52.490000331098585
10
123.25966325041735
20
-59.990000331098585
10
99.72166325041735
20
-59.990000331098585
10
99.72166325041735
20
-62.490000331098585
10
69.72166325041735
20
-62.490000331098585
10
69.72166325041735
20
-59.990000331098585
10
44.72166325041735
20
-59.990000331098585
10
44.72166325041735
20
-62.490000331098585
10
14.721663250417354
20
-62.490000331098585
10
14.721663250417354
20
-59.990000331098585
10
-35.278336749569306
20
-59.990000331098585
10
-35.278336749569306
20
-62.490000331098585
10
-65.278336749569306
20
-62.490000331098585
10
-65.278336749569306
20
-59.990000331098585
10
-92.778336749569291
20
-59.990000331098585
10
-92.778336749569306
20
-47.490000331098585
10
-95.278336749569306
20
-47.490000331098585
10
-95.278336749569306
20
-27.490000331098589
10
-92.778336749569306
20
-27.490000331098585
10
-92.778336749569306
20
-14.990000331098594
10
-65.278336749569306
20
-14.990000331098594
10
-65.278336749569306
20
-12.490000331098583
10
-35.278336749569306
20
-12.490000331098583
10
-35.278336749569313
20
-14.990000331098594
0
LWPOLYLINE
5
104
100
AcDbEntity
8
0
100
AcDbPolyline
90
4
70
1
43
0.0
10
34.72166325041735
20
-11.859999999981987
10
34.72166325041735
20
-9.3599999999819836
10
24.721663250417354
20
-9.3599999999819836
10
24.721663250417354
20
-11.859999999981987
0
LWPOLYLINE
5
105
100
AcDbEntity
8
0
100
AcDbPolyline
90
4
70
1
43
0.0
10
89.72166325041735
20
-11.859999999981984
10
89.72166325041735
20
-9.3599999999819801
10
79.72166325041735
20
-9.3599999999819801
10
79.72166325041735
20
-11.859999999981985
0
ENDSEC
0
SECTION
2
OBJECTS
0
DICTIONARY
5
C
100
AcDbDictionary
3
ACAD_GROUP
350
D
3
ACAD_MLINESTYLE
350
17
0
DICTIONARY
5
D
100
AcDbDictionary
0
DICTIONARY
5
1A
330
C
100
AcDbDictionary
0
DICTIONARY
5
17
100
AcDbDictionary
0
ENDSEC
0
EOF
