0
SECTION
2
HEADER
9
$INSUNITS
70
4
9
$ACADVER
1
AC1014
9
$HANDSEED
5
FFFF
0
ENDSEC
0
SECTION
2
TABLES
0
TABLE
2
VPORT
5
8
100
AcDbSymbolTable
0
ENDTAB
0
TABLE
2
LTYPE
5
5
100
AcDbSymbolTable
0
LTYPE
5
14
100
AcDbSymbolTableRecord
100
AcDbLinetypeTableRecord
2
BYBLOCK
70
0
0
LTYPE
5
15
100
AcDbSymbolTableRecord
100
AcDbLinetypeTableRecord
2
BYLAYER
70
0
0
ENDTAB
0
TABLE
2
LAYER
5
2
100
AcDbSymbolTable
70
2
0
LAYER
5
50
100
AcDbSymbolTableRecord
100
AcDbLayerTableRecord
2
0
70
0
6
CONTINUOUS
0
ENDTAB
0
TABLE
2
STYLE
5
3
100
AcDbSymbolTable
70
1
0
STYLE
5
11
100
AcDbSymbolTableRecord
100
AcDbTextStyleTableRecord
2
STANDARD
70
0
0
ENDTAB
0
TABLE
2
VIEW
5
6
100
AcDbSymbolTable
70
0
0
ENDTAB
0
TABLE
2
UCS
5
7
100
AcDbSymbolTable
70
0
0
ENDTAB
0
TABLE
2
APPID
5
9
100
AcDbSymbolTable
70
2
0
APPID
5
12
100
AcDbSymbolTableRecord
100
AcDbRegAppTableRecord
2
ACAD
70
0
0
ENDTAB
0
TABLE
2
DIMSTYLE
5
A
100
AcDbSymbolTable
70
1
0
ENDTAB
0
TABLE
2
BLOCK_RECORD
5
1
100
AcDbSymbolTable
70
1
0
BLOCK_RECORD
5
1F
100
AcDbSymbolTableRecord
100
AcDbBlockTableRecord
2
*MODEL_SPACE
0
BLOCK_RECORD
5
1B
100
AcDbSymbolTableRecord
100
AcDbBlockTableRecord
2
*PAPER_SPACE
0
ENDTAB
0
ENDSEC
0
SECTION
2
BLOCKS
0
BLOCK
5
20
100
AcDbEntity
100
AcDbBlockBegin
2
*MODEL_SPACE
0
ENDBLK
5
21
100
AcDbEntity
100
AcDbBlockEnd
0
BLOCK
5
1C
100
AcDbEntity
100
AcDbBlockBegin
2
*PAPER_SPACE
0
ENDBLK
5
1D
100
AcDbEntity
100
AcDbBlockEnd
0
ENDSEC
0
SECTION
2
ENTITIES
0
LWPOLYLINE
5
100
100
AcDbEntity
8
0
100
AcDbPolyline
90
30
70
1
43
0.0
10
195.46010561621
20
-62.490000331098585
10
195.46010561621
20
-79.990000331098585
10
161.84735997266571
20
-79.990000331098599
10
161.84735997266571
20
-82.490000331098585
10
131.84735997266574
20
-82.490000331098585
10
131.84735997266574
20
-79.990000331098599
10
61.847359972665728
20
-79.990000331098599
10
61.847359972665728
20
-82.490000331098585
10
31.847359972665732
20
-82.490000331098585
10
31.847359972665732
20
-79.990000331098599
10
-2.4998781829200962
20
-79.990000331098585
10
-2.4998781829200922
20
-62.490000331098585
10
-4.9998781829200958
20
-62.490000331098585
10
-4.999878182920094
20
-32.490000331098578
10
-2.4998781829200922
20
-32.490000331098578
10
-2.4998781829200922
20
-14.990000331098599
10
31.847359972665732
20
-14.990000331098594
10
31.847359972665732
20
-12.490000331098594
10
61.847359972665728
20
-12.490000331098594
10
61.847359972665728
20
-14.990000331098594
10
131.84735997266574
20
-14.990000331098594
10
131.84735997266574
20
-12.490000331098594
10
149.62927551176941
20
-12.490000331098594
42
0.37796447339107725
10
169.47241034809502
20
5.0099996954212447
42
-0.93922053451331522
10
189.39397776625782
20
3.7599997086811543
10
189.39397776625782
20
-14.990000331098599
10
195.46010561621
20
-14.990000331098594
10
195.46010561621
20
-32.490000331098578
10
197.96010561621
20
-32.490000331098578
10
197.96010561621
20
-62.490000331098585
0
CIRCLE
5
101
100
AcDbEntity
8
0
100
AcDbCircle
10
179.39397776625782
20
3.7599997086811552
30
0
40
5.153882032022068
210
0
220
-0
230
1
0
ENDSEC
0
SECTION
2
OBJECTS
0
DICTIONARY
5
C
100
AcDbDictionary
3
ACAD_GROUP
350
D
3
ACAD_MLINESTYLE
350
17
0
DICTIONARY
5
D
100
AcDbDictionary
0
DICTIONARY
5
1A
330
C
100
AcDbDictionary
0
DICTIONARY
5
17
100
AcDbDictionary
0
ENDSEC
0
EOF
