0
SECTION
2
HEADER
9
$INSUNITS
70
4
9
$ACADVER
1
AC1014
9
$HANDSEED
5
FFFF
0
ENDSEC
0
SECTION
2
TABLES
0
TABLE
2
VPORT
5
8
100
AcDbSymbolTable
0
ENDTAB
0
TABLE
2
LTYPE
5
5
100
AcDbSymbolTable
0
LTYPE
5
14
100
AcDbSymbolTableRecord
100
AcDbLinetypeTableRecord
2
BYBLOCK
70
0
0
LTYPE
5
15
100
AcDbSymbolTableRecord
100
AcDbLinetypeTableRecord
2
BYLAYER
70
0
0
ENDTAB
0
TABLE
2
LAYER
5
2
100
AcDbSymbolTable
70
2
0
LAYER
5
50
100
AcDbSymbolTableRecord
100
AcDbLayerTableRecord
2
0
70
0
6
CONTINUOUS
0
ENDTAB
0
TABLE
2
STYLE
5
3
100
AcDbSymbolTable
70
1
0
STYLE
5
11
100
AcDbSymbolTableRecord
100
AcDbTextStyleTableRecord
2
STANDARD
70
0
0
ENDTAB
0
TABLE
2
VIEW
5
6
100
AcDbSymbolTable
70
0
0
ENDTAB
0
TABLE
2
UCS
5
7
100
AcDbSymbolTable
70
0
0
ENDTAB
0
TABLE
2
APPID
5
9
100
AcDbSymbolTable
70
2
0
APPID
5
12
100
AcDbSymbolTableRecord
100
AcDbRegAppTableRecord
2
ACAD
70
0
0
ENDTAB
0
TABLE
2
DIMSTYLE
5
A
100
AcDbSymbolTable
70
1
0
ENDTAB
0
TABLE
2
BLOCK_RECORD
5
1
100
AcDbSymbolTable
70
1
0
BLOCK_RECORD
5
1F
100
AcDbSymbolTableRecord
100
AcDbBlockTableRecord
2
*MODEL_SPACE
0
BLOCK_RECORD
5
1B
100
AcDbSymbolTableRecord
100
AcDbBlockTableRecord
2
*PAPER_SPACE
0
ENDTAB
0
ENDSEC
0
SECTION
2
BLOCKS
0
BLOCK
5
20
100
AcDbEntity
100
AcDbBlockBegin
2
*MODEL_SPACE
0
ENDBLK
5
21
100
AcDbEntity
100
AcDbBlockEnd
0
BLOCK
5
1C
100
AcDbEntity
100
AcDbBlockBegin
2
*PAPER_SPACE
0
ENDBLK
5
1D
100
AcDbEntity
100
AcDbBlockEnd
0
ENDSEC
0
SECTION
2
ENTITIES
0
LWPOLYLINE
5
100
100
AcDbEntity
8
0
100
AcDbPolyline
90
29
70
1
43
0.0
10
138.22502041746398
20
-26.278749792561605
42
-0.3275382217185398
10
142.99471642454873
20
-29.778749792561626
42
-0.73423783474357773
10
144.9947164245487
20
-36.151031115830627
10
144.9947164245487
20
-66.406468469292591
42
-0.52223296786709172
10
144.9947164245487
20
-72.151031115830605
10
144.9947164245487
20
-76.278749792561598
42
0.41421356237309509
10
149.9947164245487
20
-81.278749792561598
10
152.99471642454873
20
-81.278749792561598
42
-0.99999999999999989
10
152.99471642454873
20
-91.278749792561598
10
144.49471642454873
20
-91.278749792561598
42
-0.41421356237309298
10
139.49471642454873
20
-86.278749792561598
10
139.49471642454876
20
-81.278749792561598
42
0.41421356237309509
10
134.49471642454876
20
-76.278749792561584
10
68.294716424548767
20
-76.278749792561598
42
0.41421356237309509
10
63.294716424548767
20
-81.278749792561598
10
63.29471642454876
20
-86.278749792561626
42
-0.41421356237309448
10
58.294716424548767
20
-91.278749792561626
10
49.79471642454876
20
-91.278749792561626
42
-0.99999999999999989
10
49.79471642454876
20
-81.278749792561626
10
51.294716424548753
20
-81.278749792561626
42
0.41421356237309509
10
56.294716424548753
20
-76.278749792561626
10
56.294716424548753
20
-26.278749792561626
42
0.41421356237309509
10
51.294716424548753
20
-21.278749792561626
10
49.79471642454876
20
-21.278749792561626
42
-0.99999999999999989
10
49.79471642454876
20
-11.278749792561626
10
58.294716424548767
20
-11.278749792561623
42
-0.41421356237309526
10
63.294716424548767
20
-16.278749792561626
10
63.294716424548767
20
-21.278749792561609
42
0.41421356237309509
10
68.294716424548767
20
-26.278749792561609
0
CIRCLE
5
101
100
AcDbEntity
8
0
100
AcDbCircle
10
152.99471642454873
20
-86.278749792561598
30
0
40
1.6000000000000014
210
0
220
0
230
1
0
CIRCLE
5
102
100
AcDbEntity
8
0
100
AcDbCircle
10
142.99471642454873
20
-33.278749792561619
30
-2.3822480360562183e-60
40
1.6000000000000014
210
0
220
0
230
1
0
CIRCLE
5
103
100
AcDbEntity
8
0
100
AcDbCircle
10
142.9947164245487
20
-69.278749792561598
30
-2.1382117680737565e-47
40
1.6000000000000014
210
0
220
0
230
1
0
CIRCLE
5
104
100
AcDbEntity
8
0
100
AcDbCircle
10
49.79471642454876
20
-16.278749792561626
30
0
40
1.6000000000000014
210
0
220
-0
230
1
0
CIRCLE
5
105
100
AcDbEntity
8
0
100
AcDbCircle
10
59.79471642454876
20
-33.278749792561626
30
0
40
1.6000000000000014
210
0
220
-0
230
1
0
CIRCLE
5
106
100
AcDbEntity
8
0
100
AcDbCircle
10
49.79471642454876
20
-86.278749792561626
30
0
40
1.6000000000000014
210
0
220
-0
230
1
0
CIRCLE
5
107
100
AcDbEntity
8
0
100
AcDbCircle
10
59.79471642454876
20
-69.278749792561612
30
0
40
1.6000000000000014
210
0
220
-0
230
1
0
CIRCLE
5
108
100
AcDbEntity
8
0
100
AcDbCircle
10
139.47994376730946
20
-41.78110448616539
30
0
40
1.5499999999999934
210
-1.7516230804060217e-46
220
3.081487911019578e-33
230
1
0
CIRCLE
5
109
100
AcDbEntity
8
0
100
AcDbCircle
10
139.48011376263048
20
-60.780643241195378
30
0
40
1.5500000000000114
210
0
220
-0
230
1
0
CIRCLE
5
110
100
AcDbEntity
8
0
100
AcDbCircle
10
63.307671873591516
20
-41.783901179497434
30
0
40
1.5500000000000025
210
0
220
-0
230
1
0
CIRCLE
5
111
100
AcDbEntity
8
0
100
AcDbCircle
10
63.307841822927017
20
-60.781546485893813
30
0
40
1.5500000000000025
210
0
220
-0
230
1
0
LWPOLYLINE
5
112
100
AcDbEntity
8
0
100
AcDbPolyline
90
22
70
1
43
0.0
10
63.307841822927017
20
-57.281546485893813
42
-0.99999999999999989
10
63.307841822927017
20
-64.281546485893813
10
63.294716424548767
20
-64.281546485893813
10
63.294716424548774
20
-66.778749792561584
42
0.41421356237309509
10
68.294716424548781
20
-71.778749792561584
10
134.49471642454873
20
-71.778749792561584
42
0.41421356237309509
10
139.49471642454873
20
-66.778749792561584
10
139.4947164245487
20
-64.280612778529218
42
-0.99076923541742379
10
139.400603404577
20
-57.281546485893777
10
139.49471642454876
20
-57.281546485893777
10
139.49471642454873
20
-45.281073310111985
42
-0.98227881530994032
10
139.34005441163595
20
-38.283901179497441
10
139.49471642454873
20
-38.283901179497441
10
139.49471642454876
20
-35.778749792561619
42
0.41421356237309553
10
134.49471642454876
20
-30.778749792561612
10
68.294716424548767
20
-30.778749792561612
42
0.41421356237309509
10
63.294716424548767
20
-35.778749792561612
10
63.294716424548767
20
-38.283901179497441
10
63.307671873638192
20
-38.283901179497441
42
-0.99999743655959616
10
63.307689817650676
20
-45.283901179451433
10
63.294716424548767
20
-45.283901179359411
10
63.294716424548767
20
-57.281546485893813
0
ENDSEC
0
SECTION
2
OBJECTS
0
DICTIONARY
5
C
100
AcDbDictionary
3
ACAD_GROUP
350
D
3
ACAD_MLINESTYLE
350
17
0
DICTIONARY
5
D
100
AcDbDictionary
0
DICTIONARY
5
1A
330
C
100
AcDbDictionary
0
DICTIONARY
5
17
100
AcDbDictionary
0
ENDSEC
0
EOF
