0
SECTION
2
HEADER
9
$INSUNITS
70
4
9
$ACADVER
1
AC1014
9
$HANDSEED
5
FFFF
0
ENDSEC
0
SECTION
2
TABLES
0
TABLE
2
VPORT
5
8
100
AcDbSymbolTable
0
ENDTAB
0
TABLE
2
LTYPE
5
5
100
AcDbSymbolTable
0
LTYPE
5
14
100
AcDbSymbolTableRecord
100
AcDbLinetypeTableRecord
2
BYBLOCK
70
0
0
LTYPE
5
15
100
AcDbSymbolTableRecord
100
AcDbLinetypeTableRecord
2
BYLAYER
70
0
0
ENDTAB
0
TABLE
2
LAYER
5
2
100
AcDbSymbolTable
70
2
0
LAYER
5
50
100
AcDbSymbolTableRecord
100
AcDbLayerTableRecord
2
0
70
0
6
CONTINUOUS
0
ENDTAB
0
TABLE
2
STYLE
5
3
100
AcDbSymbolTable
70
1
0
STYLE
5
11
100
AcDbSymbolTableRecord
100
AcDbTextStyleTableRecord
2
STANDARD
70
0
0
ENDTAB
0
TABLE
2
VIEW
5
6
100
AcDbSymbolTable
70
0
0
ENDTAB
0
TABLE
2
UCS
5
7
100
AcDbSymbolTable
70
0
0
ENDTAB
0
TABLE
2
APPID
5
9
100
AcDbSymbolTable
70
2
0
APPID
5
12
100
AcDbSymbolTableRecord
100
AcDbRegAppTableRecord
2
ACAD
70
0
0
ENDTAB
0
TABLE
2
DIMSTYLE
5
A
100
AcDbSymbolTable
70
1
0
ENDTAB
0
TABLE
2
BLOCK_RECORD
5
1
100
AcDbSymbolTable
70
1
0
BLOCK_RECORD
5
1F
100
AcDbSymbolTableRecord
100
AcDbBlockTableRecord
2
*MODEL_SPACE
0
BLOCK_RECORD
5
1B
100
AcDbSymbolTableRecord
100
AcDbBlockTableRecord
2
*PAPER_SPACE
0
ENDTAB
0
ENDSEC
0
SECTION
2
BLOCKS
0
BLOCK
5
20
100
AcDbEntity
100
AcDbBlockBegin
2
*MODEL_SPACE
0
ENDBLK
5
21
100
AcDbEntity
100
AcDbBlockEnd
0
BLOCK
5
1C
100
AcDbEntity
100
AcDbBlockBegin
2
*PAPER_SPACE
0
ENDBLK
5
1D
100
AcDbEntity
100
AcDbBlockEnd
0
ENDSEC
0
SECTION
2
ENTITIES
0
LWPOLYLINE
5
100
100
AcDbEntity
8
0
100
AcDbPolyline
90
4
70
1
43
0.0
10
-82.088336749582396
20
-10.959999999981829
10
-82.088336749582396
20
-8.4599999999818287
10
-92.088336749582396
20
-8.4599999999818376
10
-92.088336749582396
20
-10.959999999981838
0
LWPOLYLINE
5
101
100
AcDbEntity
8
0
100
AcDbPolyline
90
42
70
1
43
0.0
10
101.27833674956931
20
-32.490000331098578
10
98.778336749569306
20
-32.490000331098578
10
98.778336749569306
20
-62.490000331098585
10
101.27833674956931
20
-62.490000331098585
10
101.27833674956931
20
-79.990000331098585
10
65.278336749569291
20
-79.990000331098585
10
65.278336749569291
20
-82.490000331098585
10
35.278336749569306
20
-82.490000331098585
10
35.278336749569306
20
-79.990000331098585
10
-14.721663250417354
20
-79.990000331098585
10
-14.721663250417354
20
-82.490000331098585
10
-44.72166325041735
20
-82.490000331098585
10
-44.72166325041735
20
-79.990000331098585
10
-69.72166325041735
20
-79.990000331098585
10
-69.72166325041735
20
-82.490000331098585
10
-99.72166325041735
20
-82.490000331098585
10
-99.72166325041735
20
-79.990000331098585
10
-123.25966325041735
20
-79.990000331098585
10
-123.25966325041735
20
-69.990000331098585
10
-125.75966325041735
20
-69.990000331098585
10
-125.75966325041735
20
-49.990000331098585
10
-123.25966325041736
20
-49.990000331098585
10
-123.25966325041736
20
-29.990000331098582
10
-125.75966325041735
20
-29.990000331098585
10
-125.75966325041736
20
-9.9900003310985834
10
-123.25966325041736
20
-9.9900003310985852
10
-123.25966325041736
20
0.0099996689014145157
10
-99.72166325041735
20
0.0099996689014142381
10
-99.72166325041735
20
2.5099996689014148
10
-69.72166325041735
20
2.5099996689014143
10
-69.72166325041735
20
0.0099996689014138825
10
-44.72166325041735
20
0.0099996689014147933
10
-44.72166325041735
20
2.5099996689014148
10
-14.721663250417354
20
2.5099996689014148
10
-14.721663250417352
20
0.0099996689014145157
10
12.704623625189663
20
0.0099996689014059115
10
12.704623625189665
20
-14.990000331098596
10
35.278336749569313
20
-14.990000331098596
10
35.278336749569313
20
-12.490000331098585
10
65.278336749569291
20
-12.490000331098585
10
65.278336749569306
20
-14.990000331098596
10
101.27833674956932
20
-14.990000331098594
0
LWPOLYLINE
5
102
100
AcDbEntity
8
0
100
AcDbPolyline
90
4
70
1
43
0.0
10
-26.721663250417357
20
-8.4599999999819886
10
-26.721663250417357
20
-10.959999999981989
10
-16.721663250417357
20
-10.959999999981989
10
-16.721663250417357
20
-8.4599999999819886
0
LWPOLYLINE
5
103
100
AcDbEntity
8
0
100
AcDbPolyline
90
4
70
1
43
0.0
10
7.004999999999999
20
-9.9899999999819897
10
7.004999999999999
20
-7.4899999999819897
10
-0.49500000000000149
20
-7.4899999999819897
10
-0.4950000000000021
20
-9.9899999999819897
0
LWPOLYLINE
5
104
100
AcDbEntity
8
0
100
AcDbPolyline
90
4
70
1
43
0.0
10
-117.62
20
-9.9899999999819844
10
-107.62
20
-9.9899999999819844
10
-107.62
20
-7.4899999999819835
10
-117.62
20
-7.4899999999819826
0
ENDSEC
0
SECTION
2
OBJECTS
0
DICTIONARY
5
C
100
AcDbDictionary
3
ACAD_GROUP
350
D
3
ACAD_MLINESTYLE
350
17
0
DICTIONARY
5
D
100
AcDbDictionary
0
DICTIONARY
5
1A
330
C
100
AcDbDictionary
0
DICTIONARY
5
17
100
AcDbDictionary
0
ENDSEC
0
EOF
