0
SECTION
2
HEADER
9
$INSUNITS
70
4
9
$ACADVER
1
AC1014
9
$HANDSEED
5
FFFF
0
ENDSEC
0
SECTION
2
TABLES
0
TABLE
2
VPORT
5
8
100
AcDbSymbolTable
0
ENDTAB
0
TABLE
2
LTYPE
5
5
100
AcDbSymbolTable
0
LTYPE
5
14
100
AcDbSymbolTableRecord
100
AcDbLinetypeTableRecord
2
BYBLOCK
70
0
0
LTYPE
5
15
100
AcDbSymbolTableRecord
100
AcDbLinetypeTableRecord
2
BYLAYER
70
0
0
ENDTAB
0
TABLE
2
LAYER
5
2
100
AcDbSymbolTable
70
2
0
LAYER
5
50
100
AcDbSymbolTableRecord
100
AcDbLayerTableRecord
2
0
70
0
6
CONTINUOUS
0
ENDTAB
0
TABLE
2
STYLE
5
3
100
AcDbSymbolTable
70
1
0
STYLE
5
11
100
AcDbSymbolTableRecord
100
AcDbTextStyleTableRecord
2
STANDARD
70
0
0
ENDTAB
0
TABLE
2
VIEW
5
6
100
AcDbSymbolTable
70
0
0
ENDTAB
0
TABLE
2
UCS
5
7
100
AcDbSymbolTable
70
0
0
ENDTAB
0
TABLE
2
APPID
5
9
100
AcDbSymbolTable
70
2
0
APPID
5
12
100
AcDbSymbolTableRecord
100
AcDbRegAppTableRecord
2
ACAD
70
0
0
ENDTAB
0
TABLE
2
DIMSTYLE
5
A
100
AcDbSymbolTable
70
1
0
ENDTAB
0
TABLE
2
BLOCK_RECORD
5
1
100
AcDbSymbolTable
70
1
0
BLOCK_RECORD
5
1F
100
AcDbSymbolTableRecord
100
AcDbBlockTableRecord
2
*MODEL_SPACE
0
BLOCK_RECORD
5
1B
100
AcDbSymbolTableRecord
100
AcDbBlockTableRecord
2
*PAPER_SPACE
0
ENDTAB
0
ENDSEC
0
SECTION
2
BLOCKS
0
BLOCK
5
20
100
AcDbEntity
100
AcDbBlockBegin
2
*MODEL_SPACE
0
ENDBLK
5
21
100
AcDbEntity
100
AcDbBlockEnd
0
BLOCK
5
1C
100
AcDbEntity
100
AcDbBlockBegin
2
*PAPER_SPACE
0
ENDBLK
5
1D
100
AcDbEntity
100
AcDbBlockEnd
0
ENDSEC
0
SECTION
2
ENTITIES
0
LWPOLYLINE
5
100
100
AcDbEntity
8
0
100
AcDbPolyline
90
4
70
1
43
0.0
10
92.088336749582396
20
-10.959999999981827
10
92.088336749582396
20
-8.4599999999818269
10
82.088336749582396
20
-8.4599999999818181
10
82.088336749582396
20
-10.959999999981818
0
LWPOLYLINE
5
101
100
AcDbEntity
8
0
100
AcDbPolyline
90
8
70
1
43
0.0
10
2.490000000000121
20
-21.389999999965504
10
-6.5099999999998825
20
-21.389999999965504
42
0.41421356237309537
10
-7.5099999999998888
20
-22.389999999965511
10
-7.5099999999998825
20
-33.389999999965511
42
0.41421356237309509
10
-6.5099999999998825
20
-34.389999999965511
10
2.4900000000001206
20
-34.389999999965511
42
0.41421356237309415
10
3.490000000000109
20
-33.389999999965511
10
3.4900000000001179
20
-22.389999999965511
42
0.41421356237309415
0
LWPOLYLINE
5
102
100
AcDbEntity
8
0
100
AcDbPolyline
90
42
70
1
43
0.0
10
-98.77833674956932
20
-32.490000331098571
10
-101.27833674956932
20
-32.490000331098571
10
-101.27833674956932
20
-14.990000331098587
10
-65.27833674956932
20
-14.990000331098585
10
-65.27833674956932
20
-12.490000331098575
10
-35.27833674956932
20
-12.490000331098575
10
-35.278336749569327
20
-14.990000331098585
10
-12.704623625189683
20
-14.990000331098585
10
-12.704623625189679
20
0.0099996689014169009
10
14.721663250417336
20
0.0099996689014258955
10
14.721663250417336
20
2.5099996689014259
10
44.721663250417336
20
2.5099996689014259
10
44.721663250417336
20
0.0099996689014257827
10
69.721663250417336
20
0.0099996689014258955
10
69.721663250417336
20
2.5099996689014259
10
99.721663250417336
20
2.5099996689014259
10
99.721663250417336
20
0.0099996689014280622
10
123.25966325041735
20
0.0099996689014258955
10
123.25966325041735
20
-9.9900003310985745
10
125.75966325041735
20
-9.9900003310985763
10
125.75966325041735
20
-29.990000331098578
10
123.25966325041735
20
-29.990000331098578
10
123.25966325041735
20
-49.990000331098578
10
125.75966325041733
20
-49.990000331098578
10
125.75966325041733
20
-69.990000331098571
10
123.25966325041733
20
-69.990000331098571
10
123.25966325041733
20
-79.990000331098571
10
99.721663250417336
20
-79.990000331098557
10
99.721663250417336
20
-82.490000331098571
10
69.721663250417336
20
-82.490000331098585
10
69.721663250417336
20
-79.990000331098571
10
44.721663250417336
20
-79.990000331098557
10
44.721663250417336
20
-82.490000331098571
10
14.721663250417336
20
-82.490000331098585
10
14.721663250417336
20
-79.990000331098571
10
-35.27833674956932
20
-79.990000331098557
10
-35.27833674956932
20
-82.490000331098571
10
-65.27833674956932
20
-82.490000331098585
10
-65.27833674956932
20
-79.990000331098571
10
-101.27833674956932
20
-79.990000331098571
10
-101.27833674956932
20
-62.490000331098578
10
-98.77833674956932
20
-62.490000331098578
0
LWPOLYLINE
5
103
100
AcDbEntity
8
0
100
AcDbPolyline
90
4
70
1
43
0.0
10
26.721663250417336
20
-10.959999999981978
10
26.721663250417336
20
-8.4599999999819797
10
16.721663250417336
20
-8.4599999999819797
10
16.721663250417336
20
-10.95999999998198
0
LWPOLYLINE
5
104
100
AcDbEntity
8
0
100
AcDbPolyline
90
4
70
1
43
0.0
10
0.49499999999998384
20
-9.9899999999819773
10
0.49499999999998323
20
-7.4899999999819791
10
-7.0050000000000168
20
-7.4899999999819791
10
-7.0050000000000168
20
-9.9899999999819773
0
LWPOLYLINE
5
105
100
AcDbEntity
8
0
100
AcDbPolyline
90
4
70
1
43
0.0
10
117.61999999999999
20
-7.4899999999819711
10
107.61999999999999
20
-7.489999999981972
10
107.61999999999999
20
-9.9899999999819773
10
117.61999999999999
20
-9.9899999999819737
0
ENDSEC
0
SECTION
2
OBJECTS
0
DICTIONARY
5
C
100
AcDbDictionary
3
ACAD_GROUP
350
D
3
ACAD_MLINESTYLE
350
17
0
DICTIONARY
5
D
100
AcDbDictionary
0
DICTIONARY
5
1A
330
C
100
AcDbDictionary
0
DICTIONARY
5
17
100
AcDbDictionary
0
ENDSEC
0
EOF
