0
SECTION
2
HEADER
9
$INSUNITS
70
4
9
$ACADVER
1
AC1014
9
$HANDSEED
5
FFFF
0
ENDSEC
0
SECTION
2
TABLES
0
TABLE
2
VPORT
5
8
100
AcDbSymbolTable
0
ENDTAB
0
TABLE
2
LTYPE
5
5
100
AcDbSymbolTable
0
LTYPE
5
14
100
AcDbSymbolTableRecord
100
AcDbLinetypeTableRecord
2
BYBLOCK
70
0
0
LTYPE
5
15
100
AcDbSymbolTableRecord
100
AcDbLinetypeTableRecord
2
BYLAYER
70
0
0
ENDTAB
0
TABLE
2
LAYER
5
2
100
AcDbSymbolTable
70
2
0
LAYER
5
50
100
AcDbSymbolTableRecord
100
AcDbLayerTableRecord
2
0
70
0
6
CONTINUOUS
0
ENDTAB
0
TABLE
2
STYLE
5
3
100
AcDbSymbolTable
70
1
0
STYLE
5
11
100
AcDbSymbolTableRecord
100
AcDbTextStyleTableRecord
2
STANDARD
70
0
0
ENDTAB
0
TABLE
2
VIEW
5
6
100
AcDbSymbolTable
70
0
0
ENDTAB
0
TABLE
2
UCS
5
7
100
AcDbSymbolTable
70
0
0
ENDTAB
0
TABLE
2
APPID
5
9
100
AcDbSymbolTable
70
2
0
APPID
5
12
100
AcDbSymbolTableRecord
100
AcDbRegAppTableRecord
2
ACAD
70
0
0
ENDTAB
0
TABLE
2
DIMSTYLE
5
A
100
AcDbSymbolTable
70
1
0
ENDTAB
0
TABLE
2
BLOCK_RECORD
5
1
100
AcDbSymbolTable
70
1
0
BLOCK_RECORD
5
1F
100
AcDbSymbolTableRecord
100
AcDbBlockTableRecord
2
*MODEL_SPACE
0
BLOCK_RECORD
5
1B
100
AcDbSymbolTableRecord
100
AcDbBlockTableRecord
2
*PAPER_SPACE
0
ENDTAB
0
ENDSEC
0
SECTION
2
BLOCKS
0
BLOCK
5
20
100
AcDbEntity
100
AcDbBlockBegin
2
*MODEL_SPACE
0
ENDBLK
5
21
100
AcDbEntity
100
AcDbBlockEnd
0
BLOCK
5
1C
100
AcDbEntity
100
AcDbBlockBegin
2
*PAPER_SPACE
0
ENDBLK
5
1D
100
AcDbEntity
100
AcDbBlockEnd
0
ENDSEC
0
SECTION
2
ENTITIES
0
CIRCLE
5
100
100
AcDbEntity
8
0
100
AcDbCircle
10
-22.500121817079986
20
-4.4999999999999813
30
0
40
1.6000000000000012
210
-1.0127871481759792e-66
220
-1.5407439555097887e-33
230
1
0
CIRCLE
5
101
100
AcDbEntity
8
0
100
AcDbCircle
10
-7.5000000000000782
20
-3.4999999999999791
30
0
40
1.6000000000000001
210
0
220
-0
230
1
0
CIRCLE
5
102
100
AcDbEntity
8
0
100
AcDbCircle
10
-110.17000000000336
20
8.6900000000001825
30
0
40
1.6000000000000012
210
-1.0127871481759792e-66
220
-1.5407439555097887e-33
230
1
0
CIRCLE
5
103
100
AcDbEntity
8
0
100
AcDbCircle
10
-122.67000000000338
20
40.690000000000168
30
0
40
1.6000000000000012
210
-1.0127871481759792e-66
220
-1.5407439555097887e-33
230
1
0
CIRCLE
5
104
100
AcDbEntity
8
0
100
AcDbCircle
10
-86.17000000000337
20
14.190000000000214
30
0
40
1.6000000000000012
210
-1.0127871481759792e-66
220
-1.5407439555097887e-33
230
1
0
CIRCLE
5
105
100
AcDbEntity
8
0
100
AcDbCircle
10
-58.170000000003348
20
40.690000000000175
30
0
40
1.6000000000000012
210
-1.0127871481759792e-66
220
-1.5407439555097887e-33
230
1
0
LWPOLYLINE
5
106
100
AcDbEntity
8
0
100
AcDbPolyline
90
4
70
1
43
0.0
10
-197.96010561621
20
-35.278336749569299
10
-197.96010561621
20
-65.278336749569291
10
-195.46010561621
20
-65.278336749569291
10
-195.46010561621
20
-35.278336749569299
0
LWPOLYLINE
5
107
100
AcDbEntity
8
0
100
AcDbPolyline
90
4
70
1
43
0.0
10
-61.847359972665728
20
123.2598371644457
10
-31.847359972665732
20
123.2598371644457
10
-31.847359972665735
20
125.7598371644457
10
-61.847359972665728
20
125.7598371644457
0
LWPOLYLINE
5
108
100
AcDbEntity
8
0
100
AcDbPolyline
90
4
70
1
43
0.0
10
-31.847359972665732
20
-101.27833674956929
10
-31.847359972665732
20
-98.778336749569291
10
-61.847359972665728
20
-98.778336749569291
10
-61.847359972665728
20
-101.27833674956929
0
LWPOLYLINE
5
109
100
AcDbEntity
8
0
100
AcDbPolyline
90
4
70
1
43
0.0
10
2.4998781829200913
20
-35.278336749569299
10
2.4998781829200913
20
-65.278336749569291
10
4.9998781829200905
20
-65.278336749569291
10
4.9998781829200905
20
-35.278336749569299
0
LWPOLYLINE
5
110
100
AcDbEntity
8
0
100
AcDbPolyline
90
4
70
1
43
0.0
10
-161.84735997266569
20
123.2598371644457
10
-131.84735997266574
20
123.2598371644457
10
-131.84735997266571
20
125.7598371644457
10
-161.84735997266569
20
125.7598371644457
0
LWPOLYLINE
5
111
100
AcDbEntity
8
0
100
AcDbPolyline
90
4
70
1
43
0.0
10
-197.96010561621
20
14.721663250417352
10
-195.46010561621
20
14.721663250417354
10
-195.46010561621
20
44.721663250417343
10
-197.96010561621
20
44.721663250417343
0
LWPOLYLINE
5
112
100
AcDbEntity
8
0
100
AcDbPolyline
90
4
70
1
43
0.0
10
2.4998781829200909
20
99.721663250417336
10
2.4998781829200905
20
69.72166325041735
10
4.999878182920126
20
69.721663250417336
10
4.999878182920126
20
99.721663250417336
0
LWPOLYLINE
5
113
100
AcDbEntity
8
0
100
AcDbPolyline
90
4
70
1
43
0.0
10
-131.84735997266574
20
-101.27833674956929
10
-131.84735997266574
20
-98.778336749569291
10
-161.84735997266569
20
-98.778336749569291
10
-161.84735997266569
20
-101.27833674956929
0
LWPOLYLINE
5
114
100
AcDbEntity
8
0
100
AcDbPolyline
90
4
70
1
43
0.0
10
2.4998781829200909
20
44.721663250417343
10
2.4998781829200905
20
14.721663250417352
10
4.999878182920126
20
14.72166325041735
10
4.999878182920126
20
44.721663250417343
0
LWPOLYLINE
5
115
100
AcDbEntity
8
0
100
AcDbPolyline
90
4
70
1
43
0.0
10
-197.96010561621
20
69.72166325041735
10
-195.46010561621
20
69.72166325041735
10
-195.46010561621
20
99.721663250417336
10
-197.96010561621
20
99.721663250417336
0
LWPOLYLINE
5
116
100
AcDbEntity
8
0
100
AcDbPolyline
90
8
70
1
43
0.0
10
9.999878182920094
20
-101.27833602046928
42
-0.41421356237309337
10
4.9998781829200922
20
-106.27833602046928
10
-197.96010561621003
20
-106.27833602046931
42
-0.41421356237308982
10
-202.96010561621
20
-101.27833602046928
10
-202.96010561620994
20
125.7598371644457
42
-0.41421356237309193
10
-197.96010561621
20
130.75983716444571
10
4.9998781829200851
20
130.75983716444571
42
-0.41421356237309337
10
9.9998781829200905
20
125.7598371644457
0
CIRCLE
5
117
100
AcDbEntity
8
0
100
AcDbCircle
10
-190.46010561621
20
-87.778336749569291
30
0
40
1.6000000000000012
210
-1.0127871481759792e-66
220
-1.5407439555097887e-33
230
1
0
CIRCLE
5
118
100
AcDbEntity
8
0
100
AcDbCircle
10
-2.5001218170799082
20
-87.778336749569291
30
0
40
1.6000000000000001
210
0
220
-0
230
1
0
LWPOLYLINE
5
119
100
AcDbEntity
8
0
100
AcDbPolyline
90
8
70
1
43
0.0
10
-171.17000000000337
20
-27.049999999999834
10
-159.09000000000341
20
-27.049999999999834
42
0.41421356237309509
10
-157.09000000000341
20
-25.049999999999834
10
-157.09000000000341
20
-12.969999999999839
42
0.41421356237309243
10
-159.09000000000339
20
-10.969999999999843
10
-171.17000000000337
20
-10.969999999999839
42
0.41421356237309509
10
-173.17000000000337
20
-12.969999999999839
10
-173.17000000000337
20
-25.049999999999834
42
0.41421356237309509
0
CIRCLE
5
120
100
AcDbEntity
8
0
100
AcDbCircle
10
-12.500121817079881
20
118.2598371644457
30
0
40
1.599999999999999
210
1.2325951644078309e-32
220
1.5407439555097887e-33
230
1
0
CIRCLE
5
121
100
AcDbEntity
8
0
100
AcDbCircle
10
-180.46010561620994
20
118.2598371644457
30
0
40
1.6000000000000012
210
1.2325951644078309e-32
220
-1.5407439555097887e-33
230
1
0
CIRCLE
5
122
100
AcDbEntity
8
0
100
AcDbCircle
10
-60.143977766257912
20
-92.533947489718699
30
0
40
2.1499999999999981
210
0
220
-0
230
1
0
CIRCLE
5
123
100
AcDbEntity
8
0
100
AcDbCircle
10
-152.9947164245487
20
-86.27874979256157
30
0
40
1.6000000000000012
210
-1.0127871481759792e-66
220
-1.5407439555097887e-33
230
1
0
CIRCLE
5
124
100
AcDbEntity
8
0
100
AcDbCircle
10
-142.64397776625782
20
-10.033947489718747
30
0
40
2.1499999999999981
210
0
220
-0
230
1
0
CIRCLE
5
125
100
AcDbEntity
8
0
100
AcDbCircle
10
-137.14397776625782
20
-15.533947489718745
30
0
40
2.1499999999999981
210
0
220
-0
230
1
0
CIRCLE
5
126
100
AcDbEntity
8
0
100
AcDbCircle
10
-49.79471642454876
20
-16.278749792561623
30
0
40
1.6000000000000012
210
-1.0127871481759792e-66
220
-1.5407439555097887e-33
230
1
0
CIRCLE
5
127
100
AcDbEntity
8
0
100
AcDbCircle
10
-65.64397776625789
20
-87.033947489718685
30
0
40
2.1499999999999981
210
0
220
-0
230
1
0
CIRCLE
5
128
100
AcDbEntity
8
0
100
AcDbCircle
10
-137.14397776625782
20
-87.033947489718685
30
0
40
2.1499999999999981
210
0
220
-0
230
1
0
CIRCLE
5
129
100
AcDbEntity
8
0
100
AcDbCircle
10
-65.64397776625789
20
-15.533947489718745
30
0
40
2.1499999999999981
210
0
220
-0
230
1
0
CIRCLE
5
130
100
AcDbEntity
8
0
100
AcDbCircle
10
-60.143977766257912
20
-10.033947489718747
30
0
40
2.1499999999999981
210
0
220
-0
230
1
0
CIRCLE
5
131
100
AcDbEntity
8
0
100
AcDbCircle
10
-142.64397776625782
20
-92.533947489718699
30
0
40
2.1499999999999981
210
0
220
-0
230
1
0
CIRCLE
5
132
100
AcDbEntity
8
0
100
AcDbCircle
10
-49.79471642454876
20
-86.278749792561612
30
0
40
1.6000000000000012
210
-1.0127871481759792e-66
220
-1.5407439555097887e-33
230
1
0
LWPOLYLINE
5
133
100
AcDbEntity
8
0
100
AcDbPolyline
90
8
70
1
43
0.0
10
-145.14533800810545
20
-37.077664478738143
42
-3.9161525218074078
10
-136.98593740829796
20
-80.425196756683704
42
0.22485901172391715
10
-138.53341391447361
20
-79.692207594377834
10
-171.17000000000334
20
-79.692207594377834
42
-0.41421356237309509
10
-173.17000000000334
20
-77.692207594377848
10
-173.17000000000334
20
-40.459999999999852
42
-0.41421356237309637
10
-171.17000000000334
20
-38.459999999999845
10
-147.04757106209883
20
-38.459999999999845
42
0.32497338833366357
0
ENDSEC
0
SECTION
2
OBJECTS
0
DICTIONARY
5
C
100
AcDbDictionary
3
ACAD_GROUP
350
D
3
ACAD_MLINESTYLE
350
17
0
DICTIONARY
5
D
100
AcDbDictionary
0
DICTIONARY
5
1A
330
C
100
AcDbDictionary
0
DICTIONARY
5
17
100
AcDbDictionary
0
ENDSEC
0
EOF
