0
SECTION
2
HEADER
9
$INSUNITS
70
4
9
$ACADVER
1
AC1014
9
$HANDSEED
5
FFFF
0
ENDSEC
0
SECTION
2
TABLES
0
TABLE
2
VPORT
5
8
100
AcDbSymbolTable
0
ENDTAB
0
TABLE
2
LTYPE
5
5
100
AcDbSymbolTable
0
LTYPE
5
14
100
AcDbSymbolTableRecord
100
AcDbLinetypeTableRecord
2
BYBLOCK
70
0
0
LTYPE
5
15
100
AcDbSymbolTableRecord
100
AcDbLinetypeTableRecord
2
BYLAYER
70
0
0
ENDTAB
0
TABLE
2
LAYER
5
2
100
AcDbSymbolTable
70
2
0
LAYER
5
50
100
AcDbSymbolTableRecord
100
AcDbLayerTableRecord
2
0
70
0
6
CONTINUOUS
0
ENDTAB
0
TABLE
2
STYLE
5
3
100
AcDbSymbolTable
70
1
0
STYLE
5
11
100
AcDbSymbolTableRecord
100
AcDbTextStyleTableRecord
2
STANDARD
70
0
0
ENDTAB
0
TABLE
2
VIEW
5
6
100
AcDbSymbolTable
70
0
0
ENDTAB
0
TABLE
2
UCS
5
7
100
AcDbSymbolTable
70
0
0
ENDTAB
0
TABLE
2
APPID
5
9
100
AcDbSymbolTable
70
2
0
APPID
5
12
100
AcDbSymbolTableRecord
100
AcDbRegAppTableRecord
2
ACAD
70
0
0
ENDTAB
0
TABLE
2
DIMSTYLE
5
A
100
AcDbSymbolTable
70
1
0
ENDTAB
0
TABLE
2
BLOCK_RECORD
5
1
100
AcDbSymbolTable
70
1
0
BLOCK_RECORD
5
1F
100
AcDbSymbolTableRecord
100
AcDbBlockTableRecord
2
*MODEL_SPACE
0
BLOCK_RECORD
5
1B
100
AcDbSymbolTableRecord
100
AcDbBlockTableRecord
2
*PAPER_SPACE
0
ENDTAB
0
ENDSEC
0
SECTION
2
BLOCKS
0
BLOCK
5
20
100
AcDbEntity
100
AcDbBlockBegin
2
*MODEL_SPACE
0
ENDBLK
5
21
100
AcDbEntity
100
AcDbBlockEnd
0
BLOCK
5
1C
100
AcDbEntity
100
AcDbBlockBegin
2
*PAPER_SPACE
0
ENDBLK
5
1D
100
AcDbEntity
100
AcDbBlockEnd
0
ENDSEC
0
SECTION
2
ENTITIES
0
CIRCLE
5
100
100
AcDbEntity
8
0
100
AcDbCircle
10
-180.46010561621
20
118.25983716444571
30
0
40
1.6000000000000014
210
0
220
-0
230
1
0
CIRCLE
5
101
100
AcDbEntity
8
0
100
AcDbCircle
10
-12.500121817079883
20
118.25983716444571
30
0
40
1.5999999999999992
210
-6.4662564075851e-66
220
1.5407439555097887e-33
230
1
0
LWPOLYLINE
5
102
100
AcDbEntity
8
0
100
AcDbPolyline
90
17
70
1
43
0.0
10
-146.68000000000347
20
-60.391000397772309
42
-0.31778858566634011
10
-145.34700000000345
20
-58.505500198886097
42
0.31778858566634377
10
-144.01400000000342
20
-56.619999999999848
10
-144.01400000000342
20
-40.459999999999852
42
0.41421356237309509
10
-146.01400000000342
20
-38.459999999999852
10
-157.09400000000343
20
-38.459999999999852
42
0.41421356237309509
10
-159.09400000000343
20
-40.459999999999852
10
-159.09400000000343
20
-58.619999999999848
10
-159.09384376549502
20
-58.619999999999848
10
-159.09384376549502
20
-77.692207594377862
42
0.41421356237309509
10
-157.09384376549505
20
-79.692207594377862
10
-148.68000000000347
20
-79.692207594377862
42
0.4142135623730937
10
-146.6800000000035
20
-77.692207594377862
10
-146.6800000000035
20
-73.938336815394038
42
0.13689509728553476
10
-147.54674247776444
20
-70.831945466839244
42
-0.27901908694285688
10
-147.54674247776444
20
-67.725554118284379
42
0.13689509728553559
10
-146.68000000000347
20
-64.619162769729556
0
LWPOLYLINE
5
103
100
AcDbEntity
8
0
100
AcDbPolyline
90
8
70
1
43
0.0
10
-171.17000000000343
20
-27.049999999999837
10
-159.09000000000344
20
-27.049999999999837
42
0.41421356237309509
10
-157.09000000000344
20
-25.049999999999841
10
-157.09000000000344
20
-12.969999999999843
42
0.41421356237309509
10
-159.09000000000344
20
-10.969999999999844
10
-171.17000000000343
20
-10.969999999999843
42
0.41421356237309509
10
-173.17000000000343
20
-12.969999999999843
10
-173.17000000000343
20
-25.049999999999841
42
0.41421356237309509
0
CIRCLE
5
104
100
AcDbEntity
8
0
100
AcDbCircle
10
-62.500121817079908
20
-4.4999999999999165
30
0
40
1.6000000000000014
210
0
220
-0
230
1
0
CIRCLE
5
105
100
AcDbEntity
8
0
100
AcDbCircle
10
-127.23378559023652
20
-23.782650972059081
30
0
40
1.5999999999999837
210
1.0127871481759796e-66
220
1.5407439555097887e-33
230
1
0
CIRCLE
5
106
100
AcDbEntity
8
0
100
AcDbCircle
10
-99.553785590236544
20
-78.782650972058974
30
0
40
1.6000000000000014
210
0
220
-0
230
1
0
CIRCLE
5
107
100
AcDbEntity
8
0
100
AcDbCircle
10
-72.233785590236607
20
-23.782650972059116
30
0
40
1.5999999999999925
210
0
220
-0
230
1
0
CIRCLE
5
108
100
AcDbEntity
8
0
100
AcDbCircle
10
-106.55378559023657
20
-78.782650972058974
30
0
40
1.6000000000000014
210
0
220
-0
230
1
0
CIRCLE
5
109
100
AcDbEntity
8
0
100
AcDbCircle
10
-96.233785590236579
20
-23.782650972059116
30
0
40
1.5999999999999837
210
1.0127871481759796e-66
220
1.5407439555097887e-33
230
1
0
CIRCLE
5
110
100
AcDbEntity
8
0
100
AcDbCircle
10
-130.55378559023652
20
-78.782650972058974
30
0
40
1.6000000000000014
210
0
220
-0
230
1
0
CIRCLE
5
111
100
AcDbEntity
8
0
100
AcDbCircle
10
-75.553785590236572
20
-78.782650972058988
30
0
40
1.6000000000000014
210
0
220
-0
230
1
0
LWPOLYLINE
5
112
100
AcDbEntity
8
0
100
AcDbPolyline
90
12
70
1
43
0.0
10
-97.221225174630774
20
-42.230628410117518
42
-0.025401126773633834
10
-97.808150641324843
20
-40.880357658383197
42
-0.81990125513380552
10
-98.587000007841226
20
-37.840619845063344
42
-1.5221902149940922
10
-72.906346005842366
20
-44.834673534000594
42
-0.025401126773636835
10
-72.319420539148325
20
-46.184944285734915
42
-0.81990125513305212
10
-71.54057117263072
20
-49.22468209905378
42
-0.20703839539532395
10
-74.566346005842348
20
-60.334673534000586
42
-0.025401126773629389
10
-73.979420539148308
20
-61.684944285734858
42
-0.81990125513626388
10
-73.200571172634241
20
-64.724682099057929
42
-1.5221902149940514
10
-98.881225174630728
20
-57.730628410117468
42
-0.0254011267736305
10
-99.468150641324797
20
-56.380357658383183
42
-0.81990125513455303
10
-100.2470000078408
20
-53.340619845062349
42
-0.20703839539525551
0
LWPOLYLINE
5
113
100
AcDbEntity
8
0
100
AcDbPolyline
90
12
70
1
43
0.0
10
-102.54057117262917
20
-49.224682099054398
42
-0.20703839539534619
10
-105.56634600584233
20
-60.334673534000558
42
-0.025401126773629389
10
-104.97942053914832
20
-61.684944285734844
42
-0.81990125513383305
10
-104.20057117263477
20
-64.724682099055173
42
-1.5221902149942113
10
-129.88122517463074
20
-57.73062841011744
42
-0.025401126773623949
10
-130.46815064132474
20
-56.38035765838319
42
-0.81990125513438783
10
-131.24700000783932
20
-53.340619845062406
42
-0.2070383953952247
10
-128.22122517463072
20
-42.230628410117475
42
-0.025401126773643389
10
-128.80815064132477
20
-40.880357658383204
42
-0.81990125513281853
10
-129.58700000784984
20
-37.840619845065703
42
-1.5221902149937718
10
-103.90634600584235
20
-44.834673534000586
42
-0.02540112677364172
10
-103.31942053914835
20
-46.184944285734211
42
-0.81990125513327228
0
CIRCLE
5
114
100
AcDbEntity
8
0
100
AcDbCircle
10
-103.23378559023655
20
-23.782650972059081
30
0
40
1.6000000000000014
210
0
220
-0
230
1
0
CIRCLE
5
115
100
AcDbEntity
8
0
100
AcDbCircle
10
-72.5
20
-4.4999999999999165
30
0
40
1.6000000000000014
210
0
220
-0
230
1
0
CIRCLE
5
116
100
AcDbEntity
8
0
100
AcDbCircle
10
-2.5001218170799078
20
-87.778336749569306
30
0
40
1.6000000000000003
210
-0
220
1.5407439555097887e-33
230
1
0
CIRCLE
5
117
100
AcDbEntity
8
0
100
AcDbCircle
10
-190.46010561621003
20
-87.778336749569306
30
0
40
1.6000000000000014
210
0
220
-0
230
1
0
LWPOLYLINE
5
118
100
AcDbEntity
8
0
100
AcDbPolyline
90
8
70
1
43
0.0
10
9.999878182920094
20
-95.278336749569306
42
-0.41421356237309331
10
4.9998781829200922
20
-100.27833674956931
10
-197.96010561621003
20
-100.27833674956929
42
-0.41421356237309404
10
-202.96010561621003
20
-95.278336749569306
10
-202.96010561621003
20
125.75983716444571
42
-0.41421356237309404
10
-197.96010561621003
20
130.75983716444571
10
4.9998781829200869
20
130.75983716444571
42
-0.41421356237309337
10
9.9998781829200922
20
125.75983716444571
0
LWPOLYLINE
5
119
100
AcDbEntity
8
0
100
AcDbPolyline
90
4
70
1
43
0.0
10
-197.96010561621003
20
69.72166325041735
10
-195.46010561621003
20
69.72166325041735
10
-195.46010561621003
20
99.72166325041735
10
-197.96010561621003
20
99.72166325041735
0
LWPOLYLINE
5
120
100
AcDbEntity
8
0
100
AcDbPolyline
90
4
70
1
43
0.0
10
2.4998781829200922
20
44.72166325041735
10
2.4998781829200922
20
14.721663250417354
10
4.9998781829201278
20
14.721663250417354
10
4.9998781829201278
20
44.72166325041735
0
LWPOLYLINE
5
121
100
AcDbEntity
8
0
100
AcDbPolyline
90
4
70
1
43
0.0
10
-131.84735997266574
20
-95.278336749569306
10
-131.84735997266574
20
-92.778336749569306
10
-161.84735997266571
20
-92.778336749569306
10
-161.84735997266571
20
-95.278336749569306
0
LWPOLYLINE
5
122
100
AcDbEntity
8
0
100
AcDbPolyline
90
4
70
1
43
0.0
10
2.4998781829200922
20
99.72166325041735
10
2.4998781829200922
20
69.72166325041735
10
4.9998781829201278
20
69.72166325041735
10
4.9998781829201278
20
99.72166325041735
0
LWPOLYLINE
5
123
100
AcDbEntity
8
0
100
AcDbPolyline
90
4
70
1
43
0.0
10
-197.96010561621003
20
14.721663250417354
10
-195.46010561621003
20
14.721663250417354
10
-195.46010561621003
20
44.72166325041735
10
-197.96010561621003
20
44.72166325041735
0
LWPOLYLINE
5
124
100
AcDbEntity
8
0
100
AcDbPolyline
90
4
70
1
43
0.0
10
-161.84735997266571
20
123.25983716444571
10
-131.84735997266574
20
123.25983716444571
10
-131.84735997266574
20
125.75983716444571
10
-161.84735997266571
20
125.75983716444571
0
LWPOLYLINE
5
125
100
AcDbEntity
8
0
100
AcDbPolyline
90
4
70
1
43
0.0
10
2.4998781829200927
20
-35.278336749569306
10
2.4998781829200927
20
-65.278336749569306
10
4.9998781829200922
20
-65.278336749569306
10
4.9998781829200922
20
-35.278336749569306
0
LWPOLYLINE
5
126
100
AcDbEntity
8
0
100
AcDbPolyline
90
4
70
1
43
0.0
10
-31.847359972665735
20
-95.278336749569306
10
-31.847359972665735
20
-92.778336749569306
10
-61.847359972665728
20
-92.778336749569306
10
-61.847359972665728
20
-95.278336749569306
0
LWPOLYLINE
5
127
100
AcDbEntity
8
0
100
AcDbPolyline
90
4
70
1
43
0.0
10
-61.847359972665728
20
123.25983716444571
10
-31.847359972665735
20
123.25983716444571
10
-31.847359972665732
20
125.75983716444571
10
-61.847359972665728
20
125.75983716444571
0
LWPOLYLINE
5
128
100
AcDbEntity
8
0
100
AcDbPolyline
90
4
70
1
43
0.0
10
-197.96010561621003
20
-35.278336749569306
10
-197.96010561621003
20
-65.278336749569306
10
-195.46010561621003
20
-65.278336749569306
10
-195.46010561621003
20
-35.278336749569306
0
CIRCLE
5
129
100
AcDbEntity
8
0
100
AcDbCircle
10
-139.48011371664501
20
-41.778749792561804
30
0
40
1.6000000000000014
210
0
220
-0
230
1
0
CIRCLE
5
130
100
AcDbEntity
8
0
100
AcDbCircle
10
-63.307841822927045
20
-41.781546485893855
30
0
40
1.6000000000000014
210
0
220
-0
230
1
0
CIRCLE
5
131
100
AcDbEntity
8
0
100
AcDbCircle
10
-58.170000000003348
20
40.690000000000182
30
0
40
1.6000000000000014
210
0
220
-0
230
1
0
CIRCLE
5
132
100
AcDbEntity
8
0
100
AcDbCircle
10
-86.170000000003384
20
14.190000000000216
30
0
40
1.6000000000000014
210
0
220
-0
230
1
0
CIRCLE
5
133
100
AcDbEntity
8
0
100
AcDbCircle
10
-63.307841822926996
20
-60.781546485893841
30
0
40
1.6000000000000014
210
0
220
-0
230
1
0
CIRCLE
5
134
100
AcDbEntity
8
0
100
AcDbCircle
10
-139.48011371664492
20
-60.77874979256179
30
0
40
1.6000000000000014
210
0
220
-0
230
1
0
ARC
5
135
100
AcDbEntity
8
0
100
AcDbCircle
10
-144.98011371664478
20
-33.27874979256179
30
1.2829270608442539e-47
40
1.6000000000000039
210
2.8850415147143283e-33
220
6.2573456183252199e-33
230
1
100
AcDbArc
50
51.317812546510673
51
308.68218745348918
0
ARC
5
136
100
AcDbEntity
8
0
100
AcDbCircle
10
-142.98011371664478
20
-33.27874979256179
30
-4.3833341245512009e-48
40
1.6000000000000039
210
-4.2129717533471699e-34
220
4.2847714557622973e-33
230
1
100
AcDbArc
50
-128.68218745348915
51
128.68218745348932
0
ARC
5
137
100
AcDbEntity
8
0
100
AcDbCircle
10
-57.808113716644755
20
-33.27874979256179
30
-4.8109764781659522e-48
40
1.6000000000000081
210
-1.9259299443872345e-33
220
2.4054857295507673e-33
230
1
100
AcDbArc
50
-128.68218745348986
51
128.68218745348986
0
ARC
5
138
100
AcDbEntity
8
0
100
AcDbCircle
10
-59.808113716644762
20
-33.27874979256179
30
0
40
1.599999999999997
210
1.9259299443872482e-33
220
2.4054857295507879e-33
230
1
100
AcDbArc
50
51.317812546510716
51
308.68218745348929
0
CIRCLE
5
139
100
AcDbEntity
8
0
100
AcDbCircle
10
-122.6700000000034
20
40.690000000000175
30
0
40
1.6000000000000014
210
0
220
-0
230
1
0
CIRCLE
5
140
100
AcDbEntity
8
0
100
AcDbCircle
10
-110.17000000000337
20
8.6900000000001842
30
0
40
1.6000000000000014
210
0
220
-0
230
1
0
ARC
5
141
100
AcDbEntity
8
0
100
AcDbCircle
10
-57.808113716644883
20
-69.278749792561769
30
0
40
1.6000000000000061
210
0
220
0
230
1
100
AcDbArc
50
-128.68218745348935
51
128.68218745348949
0
ARC
5
142
100
AcDbEntity
8
0
100
AcDbCircle
10
-59.808113716644883
20
-69.278749792561769
30
0
40
1.600000000000013
210
0
220
-0
230
1
100
AcDbArc
50
51.317812546510517
51
308.68218745348895
0
ARC
5
143
100
AcDbEntity
8
0
100
AcDbCircle
10
-144.98011371664489
20
-69.278749792561825
30
0
40
1.6000000000000076
210
0
220
-0
230
1
100
AcDbArc
50
51.317812546510837
51
308.68218745348867
0
ARC
5
144
100
AcDbEntity
8
0
100
AcDbCircle
10
-142.98011371664489
20
-69.278749792561825
30
1.1760164724405661e-48
40
1.6000000000000048
210
2.347227119721929e-33
220
-1.8792857262115591e-33
230
1
100
AcDbArc
50
-128.68218745349026
51
128.68218745348918
0
ENDSEC
0
SECTION
2
OBJECTS
0
DICTIONARY
5
C
100
AcDbDictionary
3
ACAD_GROUP
350
D
3
ACAD_MLINESTYLE
350
17
0
DICTIONARY
5
D
100
AcDbDictionary
0
DICTIONARY
5
1A
330
C
100
AcDbDictionary
0
DICTIONARY
5
17
100
AcDbDictionary
0
ENDSEC
0
EOF
