0
SECTION
2
HEADER
9
$INSUNITS
70
4
9
$ACADVER
1
AC1014
9
$HANDSEED
5
FFFF
0
ENDSEC
0
SECTION
2
TABLES
0
TABLE
2
VPORT
5
8
100
AcDbSymbolTable
0
ENDTAB
0
TABLE
2
LTYPE
5
5
100
AcDbSymbolTable
0
LTYPE
5
14
100
AcDbSymbolTableRecord
100
AcDbLinetypeTableRecord
2
BYBLOCK
70
0
0
LTYPE
5
15
100
AcDbSymbolTableRecord
100
AcDbLinetypeTableRecord
2
BYLAYER
70
0
0
ENDTAB
0
TABLE
2
LAYER
5
2
100
AcDbSymbolTable
70
2
0
LAYER
5
50
100
AcDbSymbolTableRecord
100
AcDbLayerTableRecord
2
0
70
0
6
CONTINUOUS
0
ENDTAB
0
TABLE
2
STYLE
5
3
100
AcDbSymbolTable
70
1
0
STYLE
5
11
100
AcDbSymbolTableRecord
100
AcDbTextStyleTableRecord
2
STANDARD
70
0
0
ENDTAB
0
TABLE
2
VIEW
5
6
100
AcDbSymbolTable
70
0
0
ENDTAB
0
TABLE
2
UCS
5
7
100
AcDbSymbolTable
70
0
0
ENDTAB
0
TABLE
2
APPID
5
9
100
AcDbSymbolTable
70
2
0
APPID
5
12
100
AcDbSymbolTableRecord
100
AcDbRegAppTableRecord
2
ACAD
70
0
0
ENDTAB
0
TABLE
2
DIMSTYLE
5
A
100
AcDbSymbolTable
70
1
0
ENDTAB
0
TABLE
2
BLOCK_RECORD
5
1
100
AcDbSymbolTable
70
1
0
BLOCK_RECORD
5
1F
100
AcDbSymbolTableRecord
100
AcDbBlockTableRecord
2
*MODEL_SPACE
0
BLOCK_RECORD
5
1B
100
AcDbSymbolTableRecord
100
AcDbBlockTableRecord
2
*PAPER_SPACE
0
ENDTAB
0
ENDSEC
0
SECTION
2
BLOCKS
0
BLOCK
5
20
100
AcDbEntity
100
AcDbBlockBegin
2
*MODEL_SPACE
0
ENDBLK
5
21
100
AcDbEntity
100
AcDbBlockEnd
0
BLOCK
5
1C
100
AcDbEntity
100
AcDbBlockBegin
2
*PAPER_SPACE
0
ENDBLK
5
1D
100
AcDbEntity
100
AcDbBlockEnd
0
ENDSEC
0
SECTION
2
ENTITIES
0
CIRCLE
5
100
100
AcDbEntity
8
0
100
AcDbCircle
10
151.89397776625782
20
-71.783090555241685
30
0
40
1.6000000000000014
210
0
220
-0
230
1
0
CIRCLE
5
101
100
AcDbEntity
8
0
100
AcDbCircle
10
50.893977766257819
20
-71.783090555241685
30
0
40
1.6000000000000014
210
0
220
-0
230
1
0
CIRCLE
5
102
100
AcDbEntity
8
0
100
AcDbCircle
10
151.89397776625782
20
-30.784804424195826
30
0
40
1.6000000000000014
210
-0
220
0
230
1
0
CIRCLE
5
103
100
AcDbEntity
8
0
100
AcDbCircle
10
50.893977766257819
20
-30.784804424195826
30
0
40
1.6000000000000014
210
-0
220
0
230
1
0
CIRCLE
5
104
100
AcDbEntity
8
0
100
AcDbCircle
10
56.393977766257848
20
-60.783090555241671
30
0
40
3.4999999999999876
210
6.1629758220391547e-33
220
-2.4651903288156619e-32
230
1
0
CIRCLE
5
105
100
AcDbEntity
8
0
100
AcDbCircle
10
146.39397776625788
20
-60.783090555241692
30
0
40
3.5000000000000142
210
2.0026232023401774e-64
220
-2.4651903288156619e-32
230
1
0
CIRCLE
5
106
100
AcDbEntity
8
0
100
AcDbCircle
10
56.393977766257848
20
-41.784804424195826
30
0
40
3.4999999999999876
210
6.1629758220391547e-33
220
-2.4651903288156619e-32
230
1
0
CIRCLE
5
107
100
AcDbEntity
8
0
100
AcDbCircle
10
146.39397776625788
20
-41.784804424195841
30
0
40
3.499999999999996
210
6.1629758220391561e-33
220
-2.4651903288156624e-32
230
1
0
CIRCLE
5
108
100
AcDbEntity
8
0
100
AcDbCircle
10
101.39397776625793
20
-51.283947489718798
30
0
40
2.9999999999999893
210
-6.1629758220391547e-33
220
2.4651903288156619e-32
230
1
0
LWPOLYLINE
5
109
100
AcDbEntity
8
0
100
AcDbPolyline
90
19
70
1
43
0.0
10
18.393977766257823
20
-17.778336749569327
42
-0.41421356237309509
10
23.393977766257823
20
-12.778336749569327
10
40.71404263667111
20
-12.778336749569323
42
-0.22506372936056188
10
44.585201578657475
20
-14.613825974444833
42
0.22506372936056412
10
52.327519462630185
20
-18.284804424195826
10
156.84735997266571
20
-18.284804424195826
42
0.28565771108510951
10
161.33247976567364
20
-15.494714024692746
42
-0.28565771108510835
10
165.81759955868159
20
-12.704623625189679
10
174.39397776625782
20
-12.704623625189679
10
174.39397776625782
20
-10.278336749569359
42
-0.99999999999999989
10
184.39397776625782
20
-10.278336749569341
10
184.39397776625782
20
-95.278336749569306
42
-0.99999999999999989
10
174.39397776625782
20
-95.278336749569306
10
174.39397776625782
20
-92.778336749569306
10
166.73349753919365
20
-92.778336749569362
42
-0.37063325292992028
10
161.79042875592967
20
-88.530713652405495
42
0.37063325292992161
10
156.84735997266571
20
-84.283090555241685
10
23.393977766257823
20
-84.283090555241699
42
-0.41421356237309404
10
18.393977766257812
20
-79.283090555241685
0
CIRCLE
5
110
100
AcDbEntity
8
0
100
AcDbCircle
10
48.393977766257812
20
-59.283090555241685
30
0
40
1.6500000000000004
210
-0
220
0
230
1
0
CIRCLE
5
111
100
AcDbEntity
8
0
100
AcDbCircle
10
154.39397776625785
20
-59.283090555241685
30
0
40
1.6000000000000014
210
-0
220
0
230
1
0
CIRCLE
5
112
100
AcDbEntity
8
0
100
AcDbCircle
10
154.39397776625788
20
-43.284804424195841
30
0
40
1.6000000000000014
210
-0
220
0
230
1
0
CIRCLE
5
113
100
AcDbEntity
8
0
100
AcDbCircle
10
48.393977766257819
20
-43.284804424195826
30
0
40
1.5999999999999925
210
-0
220
0
230
1
0
LWPOLYLINE
5
114
100
AcDbEntity
8
0
100
AcDbPolyline
90
4
70
1
43
0.0
10
161.89397776625782
20
-58.783947489718756
10
164.39397776625782
20
-58.783947489718756
10
164.39397776625782
20
-43.783947489718756
10
161.89397776625782
20
-43.783947489718756
0
LWPOLYLINE
5
115
100
AcDbEntity
8
0
100
AcDbPolyline
90
4
70
1
43
0.0
10
38.393977766257819
20
-58.783947489718756
10
40.893977766257819
20
-58.783947489718756
10
40.893977766257819
20
-43.783947489718756
10
38.393977766257819
20
-43.783947489718756
0
LWPOLYLINE
5
116
100
AcDbEntity
8
0
100
AcDbPolyline
90
4
70
1
43
0.0
10
86.393977766257819
20
-25.784804424195826
10
86.393977766257819
20
-23.284804424195826
10
56.393977766257812
20
-23.284804424195826
10
56.393977766257812
20
-25.784804424195826
0
LWPOLYLINE
5
117
100
AcDbEntity
8
0
100
AcDbPolyline
90
4
70
1
43
0.0
10
146.39397776625782
20
-25.784804424195826
10
146.39397776625782
20
-23.284804424195826
10
116.39397776625782
20
-23.284804424195826
10
116.39397776625782
20
-25.784804424195826
0
LWPOLYLINE
5
118
100
AcDbEntity
8
0
100
AcDbPolyline
90
4
70
1
43
0.0
10
116.39397776625782
20
-76.783090555241685
10
116.39397776625782
20
-79.283090555241685
10
146.39397776625782
20
-79.283090555241685
10
146.39397776625782
20
-76.783090555241685
0
LWPOLYLINE
5
119
100
AcDbEntity
8
0
100
AcDbPolyline
90
4
70
1
43
0.0
10
56.393977766257812
20
-76.783090555241685
10
56.393977766257812
20
-79.283090555241685
10
86.393977766257819
20
-79.283090555241685
10
86.393977766257819
20
-76.783090555241685
0
ENDSEC
0
SECTION
2
OBJECTS
0
DICTIONARY
5
C
100
AcDbDictionary
3
ACAD_GROUP
350
D
3
ACAD_MLINESTYLE
350
17
0
DICTIONARY
5
D
100
AcDbDictionary
0
DICTIONARY
5
1A
330
C
100
AcDbDictionary
0
DICTIONARY
5
17
100
AcDbDictionary
0
ENDSEC
0
EOF
