0
SECTION
2
HEADER
9
$INSUNITS
70
4
9
$ACADVER
1
AC1014
9
$HANDSEED
5
FFFF
0
ENDSEC
0
SECTION
2
TABLES
0
TABLE
2
VPORT
5
8
100
AcDbSymbolTable
0
ENDTAB
0
TABLE
2
LTYPE
5
5
100
AcDbSymbolTable
0
LTYPE
5
14
100
AcDbSymbolTableRecord
100
AcDbLinetypeTableRecord
2
BYBLOCK
70
0
0
LTYPE
5
15
100
AcDbSymbolTableRecord
100
AcDbLinetypeTableRecord
2
BYLAYER
70
0
0
ENDTAB
0
TABLE
2
LAYER
5
2
100
AcDbSymbolTable
70
2
0
LAYER
5
50
100
AcDbSymbolTableRecord
100
AcDbLayerTableRecord
2
0
70
0
6
CONTINUOUS
0
ENDTAB
0
TABLE
2
STYLE
5
3
100
AcDbSymbolTable
70
1
0
STYLE
5
11
100
AcDbSymbolTableRecord
100
AcDbTextStyleTableRecord
2
STANDARD
70
0
0
ENDTAB
0
TABLE
2
VIEW
5
6
100
AcDbSymbolTable
70
0
0
ENDTAB
0
TABLE
2
UCS
5
7
100
AcDbSymbolTable
70
0
0
ENDTAB
0
TABLE
2
APPID
5
9
100
AcDbSymbolTable
70
2
0
APPID
5
12
100
AcDbSymbolTableRecord
100
AcDbRegAppTableRecord
2
ACAD
70
0
0
ENDTAB
0
TABLE
2
DIMSTYLE
5
A
100
AcDbSymbolTable
70
1
0
ENDTAB
0
TABLE
2
BLOCK_RECORD
5
1
100
AcDbSymbolTable
70
1
0
BLOCK_RECORD
5
1F
100
AcDbSymbolTableRecord
100
AcDbBlockTableRecord
2
*MODEL_SPACE
0
BLOCK_RECORD
5
1B
100
AcDbSymbolTableRecord
100
AcDbBlockTableRecord
2
*PAPER_SPACE
0
ENDTAB
0
ENDSEC
0
SECTION
2
BLOCKS
0
BLOCK
5
20
100
AcDbEntity
100
AcDbBlockBegin
2
*MODEL_SPACE
0
ENDBLK
5
21
100
AcDbEntity
100
AcDbBlockEnd
0
BLOCK
5
1C
100
AcDbEntity
100
AcDbBlockBegin
2
*PAPER_SPACE
0
ENDBLK
5
1D
100
AcDbEntity
100
AcDbBlockEnd
0
ENDSEC
0
SECTION
2
ENTITIES
0
LWPOLYLINE
5
100
100
AcDbEntity
8
0
100
AcDbPolyline
90
4
70
1
43
0.0
10
-164.39397776625782
20
-58.783947489718756
10
-161.89397776625782
20
-58.783947489718756
10
-161.89397776625782
20
-43.783947489718756
10
-164.39397776625782
20
-43.783947489718756
0
LWPOLYLINE
5
101
100
AcDbEntity
8
0
100
AcDbPolyline
90
4
70
1
43
0.0
10
-56.393977766257812
20
-25.784804424195826
10
-56.393977766257812
20
-23.284804424195826
10
-86.393977766257819
20
-23.284804424195826
10
-86.393977766257819
20
-25.784804424195826
0
LWPOLYLINE
5
102
100
AcDbEntity
8
0
100
AcDbPolyline
90
4
70
1
43
0.0
10
-116.39397776625782
20
-25.784804424195826
10
-116.39397776625782
20
-23.284804424195826
10
-146.39397776625782
20
-23.284804424195826
10
-146.39397776625782
20
-25.784804424195826
0
LWPOLYLINE
5
103
100
AcDbEntity
8
0
100
AcDbPolyline
90
4
70
1
43
0.0
10
-86.393977766257819
20
-76.783090555241685
10
-86.393977766257819
20
-79.283090555241685
10
-56.393977766257812
20
-79.283090555241685
10
-56.393977766257812
20
-76.783090555241685
0
LWPOLYLINE
5
104
100
AcDbEntity
8
0
100
AcDbPolyline
90
4
70
1
43
0.0
10
-146.39397776625782
20
-76.783090555241685
10
-146.39397776625782
20
-79.283090555241685
10
-116.39397776625782
20
-79.283090555241685
10
-116.39397776625782
20
-76.783090555241685
0
LWPOLYLINE
5
105
100
AcDbEntity
8
0
100
AcDbPolyline
90
16
70
1
43
0.0
10
-40.893977766257819
20
-27.28494748971876
10
-40.893977766257819
20
-75.282947489718751
10
-38.393977766257819
20
-75.282947489718751
10
-38.393977766257819
20
-73.783947489718756
10
-33.393977766257819
20
-73.783947489718756
10
-33.393977766257819
20
-79.283090555241685
42
-0.41421356237309298
10
-38.393977766257819
20
-84.283090555241685
10
-164.39397776625782
20
-84.283090555241671
42
-0.41421356237309342
10
-169.39397776625782
20
-79.283090555241685
10
-169.39397776625782
20
-23.284804424195826
42
-0.41421356237309448
10
-164.39397776625782
20
-18.284804424195823
10
-38.393977766257805
20
-18.284804424195833
42
-0.41421356237309476
10
-33.393977766257819
20
-23.28480442419583
10
-33.393977766257819
20
-28.783947489718763
10
-38.393977766257819
20
-28.783947489718763
10
-38.393977766257819
20
-27.284947489718764
0
LWPOLYLINE
5
106
100
AcDbEntity
8
0
100
AcDbPolyline
90
20
70
1
43
0.0
10
-159.39397776625793
20
-41.284804424195812
10
-159.39397776625793
20
-61.283090555241657
42
0.41421356237309603
10
-154.39397776625796
20
-66.283090555241685
10
-151.89397776625782
20
-66.283090555241671
42
-0.2752727225077537
10
-147.05759589866702
20
-69.164042936194065
42
0.27527272250775509
10
-142.66088510994808
20
-71.783090555241685
10
-60.127070422567506
20
-71.783090555241685
42
0.27527272250775348
10
-55.730359633848607
20
-69.164042936194065
42
-0.2752727225077537
10
-50.893977766257819
20
-66.283090555241685
10
-48.393977766257819
20
-66.283090555241685
42
0.41421356237309448
10
-43.393977766257819
20
-61.283090555241699
10
-43.393977766257791
20
-41.284804424195826
42
0.41421356237309553
10
-48.393977766257791
20
-36.284804424195819
10
-50.893977766257819
20
-36.284804424195812
42
-0.27527272250775348
10
-55.730359633848607
20
-33.40385204324344
42
0.27527272250775281
10
-60.127070422567499
20
-30.78480442419583
10
-142.66088510994814
20
-30.784804424195826
42
0.27527272250775348
10
-147.05759589866702
20
-33.403852043243447
42
-0.2752727225077537
10
-151.89397776625782
20
-36.284804424195833
10
-154.39397776625788
20
-36.284804424195833
42
0.41421356237309404
0
CIRCLE
5
107
100
AcDbEntity
8
0
100
AcDbCircle
10
-50.893977766257819
20
-30.784804424195826
30
0
40
1.6000000000000014
210
0
220
-0
230
1
0
CIRCLE
5
108
100
AcDbEntity
8
0
100
AcDbCircle
10
-151.89397776625782
20
-30.784804424195826
30
0
40
1.6000000000000014
210
0
220
-0
230
1
0
CIRCLE
5
109
100
AcDbEntity
8
0
100
AcDbCircle
10
-50.893977766257819
20
-71.783090555241685
30
0
40
1.6000000000000014
210
0
220
-0
230
1
0
CIRCLE
5
110
100
AcDbEntity
8
0
100
AcDbCircle
10
-151.89397776625782
20
-71.783090555241685
30
0
40
1.6000000000000014
210
0
220
-0
230
1
0
ENDSEC
0
SECTION
2
OBJECTS
0
DICTIONARY
5
C
100
AcDbDictionary
3
ACAD_GROUP
350
D
3
ACAD_MLINESTYLE
350
17
0
DICTIONARY
5
D
100
AcDbDictionary
0
DICTIONARY
5
1A
330
C
100
AcDbDictionary
0
DICTIONARY
5
17
100
AcDbDictionary
0
ENDSEC
0
EOF
