0
SECTION
2
HEADER
9
$INSUNITS
70
4
9
$ACADVER
1
AC1014
9
$HANDSEED
5
FFFF
0
ENDSEC
0
SECTION
2
TABLES
0
TABLE
2
VPORT
5
8
100
AcDbSymbolTable
0
ENDTAB
0
TABLE
2
LTYPE
5
5
100
AcDbSymbolTable
0
LTYPE
5
14
100
AcDbSymbolTableRecord
100
AcDbLinetypeTableRecord
2
BYBLOCK
70
0
0
LTYPE
5
15
100
AcDbSymbolTableRecord
100
AcDbLinetypeTableRecord
2
BYLAYER
70
0
0
ENDTAB
0
TABLE
2
LAYER
5
2
100
AcDbSymbolTable
70
2
0
LAYER
5
50
100
AcDbSymbolTableRecord
100
AcDbLayerTableRecord
2
0
70
0
6
CONTINUOUS
0
ENDTAB
0
TABLE
2
STYLE
5
3
100
AcDbSymbolTable
70
1
0
STYLE
5
11
100
AcDbSymbolTableRecord
100
AcDbTextStyleTableRecord
2
STANDARD
70
0
0
ENDTAB
0
TABLE
2
VIEW
5
6
100
AcDbSymbolTable
70
0
0
ENDTAB
0
TABLE
2
UCS
5
7
100
AcDbSymbolTable
70
0
0
ENDTAB
0
TABLE
2
APPID
5
9
100
AcDbSymbolTable
70
2
0
APPID
5
12
100
AcDbSymbolTableRecord
100
AcDbRegAppTableRecord
2
ACAD
70
0
0
ENDTAB
0
TABLE
2
DIMSTYLE
5
A
100
AcDbSymbolTable
70
1
0
ENDTAB
0
TABLE
2
BLOCK_RECORD
5
1
100
AcDbSymbolTable
70
1
0
BLOCK_RECORD
5
1F
100
AcDbSymbolTableRecord
100
AcDbBlockTableRecord
2
*MODEL_SPACE
0
BLOCK_RECORD
5
1B
100
AcDbSymbolTableRecord
100
AcDbBlockTableRecord
2
*PAPER_SPACE
0
ENDTAB
0
ENDSEC
0
SECTION
2
BLOCKS
0
BLOCK
5
20
100
AcDbEntity
100
AcDbBlockBegin
2
*MODEL_SPACE
0
ENDBLK
5
21
100
AcDbEntity
100
AcDbBlockEnd
0
BLOCK
5
1C
100
AcDbEntity
100
AcDbBlockBegin
2
*PAPER_SPACE
0
ENDBLK
5
1D
100
AcDbEntity
100
AcDbBlockEnd
0
ENDSEC
0
SECTION
2
ENTITIES
0
CIRCLE
5
100
100
AcDbEntity
8
0
100
AcDbCircle
10
31.766996634196381
20
-59.284901042857257
30
0
40
1.6000000000000014
210
1.8207402634779468e-69
220
-1.9259299443872359e-34
230
1
0
CIRCLE
5
101
100
AcDbEntity
8
0
100
AcDbCircle
10
31.766806072450954
20
-43.283651045742261
30
0
40
1.6000000000000014
210
1.8207402634779468e-69
220
-1.9259299443872359e-34
230
1
0
CIRCLE
5
102
100
AcDbEntity
8
0
100
AcDbCircle
10
174.39397776625782
20
-27.784804424195826
30
0
40
3.0000000000000071
210
7.7037197775489434e-34
220
7.2829610539117872e-69
230
1
0
CIRCLE
5
103
100
AcDbEntity
8
0
100
AcDbCircle
10
156.89397776625782
20
-30.784804424195823
30
0
40
5
210
-0
220
0
230
1
0
CIRCLE
5
104
100
AcDbEntity
8
0
100
AcDbCircle
10
45.893977766257819
20
-71.783090555241685
30
0
40
5
210
-0
220
0
230
1
0
CIRCLE
5
105
100
AcDbEntity
8
0
100
AcDbCircle
10
156.89397776625782
20
-71.783090555241685
30
0
40
5
210
-0
220
0
230
1
0
CIRCLE
5
106
100
AcDbEntity
8
0
100
AcDbCircle
10
45.893977766257819
20
-30.784804424195823
30
0
40
5
210
-0
220
0
230
1
0
LWPOLYLINE
5
107
100
AcDbEntity
8
0
100
AcDbPolyline
90
4
70
1
43
0.0
10
131.84735997266574
20
-95.278336749569306
10
189.39397776625782
20
-95.278336749569306
10
189.39397776625782
20
-92.778336749569306
10
131.84735997266574
20
-92.778336749569306
0
LWPOLYLINE
5
108
100
AcDbEntity
8
0
100
AcDbPolyline
90
4
70
1
43
0.0
10
61.847359972665728
20
-10.278336749569323
10
31.847359972665714
20
-10.278336749569323
10
31.847359972665714
20
-12.778336749569323
10
61.847359972665728
20
-12.778336749569323
0
LWPOLYLINE
5
109
100
AcDbEntity
8
0
100
AcDbPolyline
90
4
70
1
43
0.0
10
131.98233472624602
20
-10.204623625189679
10
131.98233472624602
20
-12.704623625189679
10
161.84735997266571
20
-12.704623625189679
10
161.84735997266571
20
-10.204623625189679
0
CIRCLE
5
110
100
AcDbEntity
8
0
100
AcDbCircle
10
190.46010561621003
20
-87.778336749569306
30
0
40
1.6000000000000014
210
-1.9131922659973993e-77
220
-1.9259299443872359e-34
230
1
0
LWPOLYLINE
5
111
100
AcDbEntity
8
0
100
AcDbPolyline
90
4
70
1
43
0.0
10
61.847359972665728
20
-95.278336749569306
10
61.847359972665728
20
-92.778336749569306
10
31.847359972665714
20
-92.778336749569306
10
31.847359972665714
20
-95.278336749569306
0
LWPOLYLINE
5
112
100
AcDbEntity
8
0
100
AcDbPolyline
90
4
70
1
43
0.0
10
-4.9998781829200922
20
-35.278336749569306
10
-4.9998781829200922
20
-65.278336749569306
10
-2.4998781829200922
20
-65.278336749569306
10
-2.4998781829200922
20
-35.278336749569306
0
CIRCLE
5
113
100
AcDbEntity
8
0
100
AcDbCircle
10
2.5001218170799051
20
-87.778336749569306
30
0
40
1.6000000000000003
210
0
220
-0
230
1
0
LWPOLYLINE
5
114
100
AcDbEntity
8
0
100
AcDbPolyline
90
4
70
1
43
0.0
10
195.46010561621003
20
-35.278336749569306
10
195.46010561621003
20
-65.278336749569306
10
197.96010561621003
20
-65.278336749569306
10
197.96010561621003
20
-35.278336749569306
0
CIRCLE
5
115
100
AcDbEntity
8
0
100
AcDbCircle
10
62.500121817079936
20
-4.4999999999999867
30
0
40
1.6000000000000014
210
0
220
-1.9259299443872359e-34
230
1
0
LWPOLYLINE
5
116
100
AcDbEntity
8
0
100
AcDbPolyline
90
8
70
1
43
0.0
10
138.54425471664482
20
-35.279582792561804
10
63.544254716644815
20
-35.279582792561797
42
0.41421356237309509
10
63.044254716644808
20
-35.779582792561804
10
63.044254716644801
20
-66.779582792561797
42
0.41421356237309509
10
63.544254716644808
20
-67.279582792561811
10
138.54425471664482
20
-67.279582792561811
42
0.41421356237309509
10
139.04425471664482
20
-66.779582792561811
10
139.04425471664482
20
-35.779582792561811
42
0.41421356237309509
0
LWPOLYLINE
5
117
100
AcDbEntity
8
0
100
AcDbPolyline
90
20
70
1
43
0.0
10
76.705372559211639
20
-7.4239913881934028
42
-0.24557335587623361
10
80.810578103151144
20
-5.2783367495693287
10
190.46010561621003
20
-5.2783367495693634
42
-0.41421356237309426
10
195.46010561621003
20
-10.27833674956935
10
195.46010561621003
20
-12.704623625189665
10
197.96010561621
20
-12.704623625189637
42
-0.41421356237309231
10
202.96010561621
20
-17.704623625189662
10
202.96010561621003
20
-95.278336749569306
42
-0.41421356237309193
10
197.96010561621003
20
-100.27833674956931
10
-4.9998781829200905
20
-100.27833674956931
42
-0.41421356237309331
10
-9.9998781829200922
20
-95.278336749569306
10
-9.9998781829200958
20
-17.704623625189662
42
-0.4142135623730947
10
-4.9998781829200922
20
-12.704623625189662
10
-2.4998781829200922
20
-12.704623625189662
10
-2.4998781829200913
20
-10.27833674956932
42
-0.41421356237309503
10
2.5001218170799078
20
-5.278336749569319
10
53.434937902786565
20
-5.2783367495693287
42
0.29160866409718755
10
57.967529859933236
20
-2.3891683747846617
42
-0.80781783822067488
10
67.49974971291806
20
-4.5609992062020392
42
0.41629421238544884
10
72.473869770894595
20
-9.6219333470015052
42
0.24692609218245723
0
ENDSEC
0
SECTION
2
OBJECTS
0
DICTIONARY
5
C
100
AcDbDictionary
3
ACAD_GROUP
350
D
3
ACAD_MLINESTYLE
350
17
0
DICTIONARY
5
D
100
AcDbDictionary
0
DICTIONARY
5
1A
330
C
100
AcDbDictionary
0
DICTIONARY
5
17
100
AcDbDictionary
0
ENDSEC
0
EOF
