%TF.GenerationSoftware,KiCad,Pcbnew,(5.1.6-0-10_14)*%
%TF.CreationDate,2021-02-18T14:05:14+09:00*%
%TF.ProjectId,qPCR-xtal,71504352-2d78-4746-916c-2e6b69636164,rev?*%
%TF.SameCoordinates,Original*%
%TF.FileFunction,Legend,Bot*%
%TF.FilePolarity,Positive*%
%FSLAX46Y46*%
G04 Gerber Fmt 4.6, Leading zero omitted, Abs format (unit mm)*
G04 Created by KiCad (PCBNEW (5.1.6-0-10_14)) date 2021-02-18 14:05:14*
%MOMM*%
%LPD*%
G01*
G04 APERTURE LIST*
%ADD10C,0.187500*%
%ADD11C,0.120000*%
%ADD12C,0.150000*%
G04 APERTURE END LIST*
D10*
X141071428Y-110210714D02*
X141535714Y-110210714D01*
X141285714Y-109925000D01*
X141392857Y-109925000D01*
X141464285Y-109889285D01*
X141500000Y-109853571D01*
X141535714Y-109782142D01*
X141535714Y-109603571D01*
X141500000Y-109532142D01*
X141464285Y-109496428D01*
X141392857Y-109460714D01*
X141178571Y-109460714D01*
X141107142Y-109496428D01*
X141071428Y-109532142D01*
X141750000Y-110210714D02*
X142000000Y-109460714D01*
X142250000Y-110210714D01*
X142428571Y-110210714D02*
X142892857Y-110210714D01*
X142642857Y-109925000D01*
X142750000Y-109925000D01*
X142821428Y-109889285D01*
X142857142Y-109853571D01*
X142892857Y-109782142D01*
X142892857Y-109603571D01*
X142857142Y-109532142D01*
X142821428Y-109496428D01*
X142750000Y-109460714D01*
X142535714Y-109460714D01*
X142464285Y-109496428D01*
X142428571Y-109532142D01*
X145847619Y-117909523D02*
X145847619Y-117290476D01*
X145466666Y-117623809D01*
X145466666Y-117480952D01*
X145419047Y-117385714D01*
X145371428Y-117338095D01*
X145276190Y-117290476D01*
X145038095Y-117290476D01*
X144942857Y-117338095D01*
X144895238Y-117385714D01*
X144847619Y-117480952D01*
X144847619Y-117766666D01*
X144895238Y-117861904D01*
X144942857Y-117909523D01*
X145752380Y-116909523D02*
X145800000Y-116861904D01*
X145847619Y-116766666D01*
X145847619Y-116528571D01*
X145800000Y-116433333D01*
X145752380Y-116385714D01*
X145657142Y-116338095D01*
X145561904Y-116338095D01*
X145419047Y-116385714D01*
X144847619Y-116957142D01*
X144847619Y-116338095D01*
X144942857Y-115909523D02*
X144895238Y-115861904D01*
X144847619Y-115909523D01*
X144895238Y-115957142D01*
X144942857Y-115909523D01*
X144847619Y-115909523D01*
X145847619Y-115528571D02*
X145847619Y-114861904D01*
X144847619Y-115290476D01*
X145847619Y-114052380D02*
X145847619Y-114242857D01*
X145800000Y-114338095D01*
X145752380Y-114385714D01*
X145609523Y-114480952D01*
X145419047Y-114528571D01*
X145038095Y-114528571D01*
X144942857Y-114480952D01*
X144895238Y-114433333D01*
X144847619Y-114338095D01*
X144847619Y-114147619D01*
X144895238Y-114052380D01*
X144942857Y-114004761D01*
X145038095Y-113957142D01*
X145276190Y-113957142D01*
X145371428Y-114004761D01*
X145419047Y-114052380D01*
X145466666Y-114147619D01*
X145466666Y-114338095D01*
X145419047Y-114433333D01*
X145371428Y-114480952D01*
X145276190Y-114528571D01*
X145419047Y-113385714D02*
X145466666Y-113480952D01*
X145514285Y-113528571D01*
X145609523Y-113576190D01*
X145657142Y-113576190D01*
X145752380Y-113528571D01*
X145800000Y-113480952D01*
X145847619Y-113385714D01*
X145847619Y-113195238D01*
X145800000Y-113100000D01*
X145752380Y-113052380D01*
X145657142Y-113004761D01*
X145609523Y-113004761D01*
X145514285Y-113052380D01*
X145466666Y-113100000D01*
X145419047Y-113195238D01*
X145419047Y-113385714D01*
X145371428Y-113480952D01*
X145323809Y-113528571D01*
X145228571Y-113576190D01*
X145038095Y-113576190D01*
X144942857Y-113528571D01*
X144895238Y-113480952D01*
X144847619Y-113385714D01*
X144847619Y-113195238D01*
X144895238Y-113100000D01*
X144942857Y-113052380D01*
X145038095Y-113004761D01*
X145228571Y-113004761D01*
X145323809Y-113052380D01*
X145371428Y-113100000D01*
X145419047Y-113195238D01*
X144847619Y-112576190D02*
X145847619Y-112576190D01*
X145228571Y-112480952D02*
X144847619Y-112195238D01*
X145514285Y-112195238D02*
X145133333Y-112576190D01*
X144847619Y-111766666D02*
X145847619Y-111766666D01*
X145371428Y-111766666D02*
X145371428Y-111195238D01*
X144847619Y-111195238D02*
X145847619Y-111195238D01*
X145514285Y-110814285D02*
X145514285Y-110290476D01*
X144847619Y-110814285D01*
X144847619Y-110290476D01*
X138571428Y-117825000D02*
X138642857Y-117789285D01*
X138750000Y-117789285D01*
X138857142Y-117825000D01*
X138928571Y-117896428D01*
X138964285Y-117967857D01*
X139000000Y-118110714D01*
X139000000Y-118217857D01*
X138964285Y-118360714D01*
X138928571Y-118432142D01*
X138857142Y-118503571D01*
X138750000Y-118539285D01*
X138678571Y-118539285D01*
X138571428Y-118503571D01*
X138535714Y-118467857D01*
X138535714Y-118217857D01*
X138678571Y-118217857D01*
X138214285Y-118539285D02*
X138214285Y-117789285D01*
X137785714Y-118539285D01*
X137785714Y-117789285D01*
X137428571Y-118539285D02*
X137428571Y-117789285D01*
X137250000Y-117789285D01*
X137142857Y-117825000D01*
X137071428Y-117896428D01*
X137035714Y-117967857D01*
X137000000Y-118110714D01*
X137000000Y-118217857D01*
X137035714Y-118360714D01*
X137071428Y-118432142D01*
X137142857Y-118503571D01*
X137250000Y-118539285D01*
X137428571Y-118539285D01*
X139417857Y-109967857D02*
X139453571Y-110003571D01*
X139560714Y-110039285D01*
X139632142Y-110039285D01*
X139739285Y-110003571D01*
X139810714Y-109932142D01*
X139846428Y-109860714D01*
X139882142Y-109717857D01*
X139882142Y-109610714D01*
X139846428Y-109467857D01*
X139810714Y-109396428D01*
X139739285Y-109325000D01*
X139632142Y-109289285D01*
X139560714Y-109289285D01*
X139453571Y-109325000D01*
X139417857Y-109360714D01*
X138739285Y-110039285D02*
X139096428Y-110039285D01*
X139096428Y-109289285D01*
X138489285Y-110039285D02*
X138489285Y-109289285D01*
X138060714Y-110039285D02*
X138382142Y-109610714D01*
X138060714Y-109289285D02*
X138489285Y-109717857D01*
X137739285Y-110039285D02*
X137739285Y-109289285D01*
X137382142Y-110039285D02*
X137382142Y-109289285D01*
X136953571Y-110039285D01*
X136953571Y-109289285D01*
D11*
%TO.C,Jee*%
X139270000Y-110230000D02*
X138000000Y-110230000D01*
X139270000Y-111500000D02*
X139270000Y-110230000D01*
X136957071Y-116960000D02*
X136560000Y-116960000D01*
X136957071Y-116200000D02*
X136560000Y-116200000D01*
X127900000Y-116960000D02*
X133900000Y-116960000D01*
X127900000Y-116200000D02*
X127900000Y-116960000D01*
X133900000Y-116200000D02*
X127900000Y-116200000D01*
X136560000Y-115310000D02*
X133900000Y-115310000D01*
X136957071Y-114420000D02*
X136560000Y-114420000D01*
X136957071Y-113660000D02*
X136560000Y-113660000D01*
X127900000Y-114420000D02*
X133900000Y-114420000D01*
X127900000Y-113660000D02*
X127900000Y-114420000D01*
X133900000Y-113660000D02*
X127900000Y-113660000D01*
X136560000Y-112770000D02*
X133900000Y-112770000D01*
X136890000Y-111880000D02*
X136560000Y-111880000D01*
X136890000Y-111120000D02*
X136560000Y-111120000D01*
X133900000Y-111780000D02*
X127900000Y-111780000D01*
X133900000Y-111660000D02*
X127900000Y-111660000D01*
X133900000Y-111540000D02*
X127900000Y-111540000D01*
X133900000Y-111420000D02*
X127900000Y-111420000D01*
X133900000Y-111300000D02*
X127900000Y-111300000D01*
X133900000Y-111180000D02*
X127900000Y-111180000D01*
X127900000Y-111880000D02*
X133900000Y-111880000D01*
X127900000Y-111120000D02*
X127900000Y-111880000D01*
X133900000Y-111120000D02*
X127900000Y-111120000D01*
X133900000Y-110170000D02*
X136560000Y-110170000D01*
X133900000Y-117910000D02*
X133900000Y-110170000D01*
X136560000Y-117910000D02*
X133900000Y-117910000D01*
X136560000Y-110170000D02*
X136560000Y-117910000D01*
%TO.C,U1*%
X143600000Y-114250000D02*
X140400000Y-114250000D01*
X140400000Y-114250000D02*
X140400000Y-116750000D01*
X140400000Y-116750000D02*
X143600000Y-116750000D01*
X143600000Y-116750000D02*
X143600000Y-114200000D01*
D12*
X144200000Y-116552380D02*
X144200000Y-116790476D01*
X144438095Y-116695238D02*
X144200000Y-116790476D01*
X143961904Y-116695238D01*
X144342857Y-116980952D02*
X144200000Y-116790476D01*
X144057142Y-116980952D01*
%TD*%
M02*
