G04 #@! TF.GenerationSoftware,KiCad,Pcbnew,(5.1.6-0-10_14)*
G04 #@! TF.CreationDate,2021-06-29T19:39:51+09:00*
G04 #@! TF.ProjectId,qPCR-photodiode,71504352-2d70-4686-9f74-6f64696f6465,rev?*
G04 #@! TF.SameCoordinates,Original*
G04 #@! TF.FileFunction,Soldermask,Top*
G04 #@! TF.FilePolarity,Negative*
%FSLAX46Y46*%
G04 Gerber Fmt 4.6, Leading zero omitted, Abs format (unit mm)*
G04 Created by KiCad (PCBNEW (5.1.6-0-10_14)) date 2021-06-29 19:39:51*
%MOMM*%
%LPD*%
G01*
G04 APERTURE LIST*
%ADD10C,0.475000*%
%ADD11O,1.000000X1.000000*%
%ADD12R,1.000000X1.000000*%
%ADD13R,1.600000X1.000000*%
%ADD14R,1.200000X0.900000*%
G04 APERTURE END LIST*
D10*
X102160000Y-73840000D02*
G75*
G03*
X102160000Y-73840000I-400000J0D01*
G01*
X173970000Y-75610000D02*
G75*
G03*
X173970000Y-75610000I-400000J0D01*
G01*
X174750000Y-126770000D02*
G75*
G03*
X174750000Y-126770000I-400000J0D01*
G01*
X101900000Y-126000000D02*
G75*
G03*
X101900000Y-126000000I-400000J0D01*
G01*
D11*
X90910204Y-93198814D03*
X90910204Y-91928814D03*
X89640204Y-93198814D03*
X89640204Y-91928814D03*
X88370204Y-93198814D03*
X88370204Y-91928814D03*
X87100204Y-93198814D03*
X87100204Y-91928814D03*
X85830204Y-93198814D03*
D12*
X85830204Y-91928814D03*
D13*
X105578789Y-88998367D03*
X105578789Y-91998367D03*
X107578789Y-91998367D03*
X107578789Y-88998367D03*
X105578789Y-107997934D03*
X105578789Y-110997934D03*
X107578789Y-110997934D03*
X107578789Y-107997934D03*
X114578789Y-107997934D03*
X114578789Y-110997934D03*
X116578789Y-110997934D03*
X116578789Y-107997934D03*
X123578789Y-107997934D03*
X123578789Y-110997934D03*
X125578789Y-110997934D03*
X125578789Y-107997934D03*
X132578789Y-107997934D03*
X132578789Y-110997934D03*
X134578789Y-110997934D03*
X134578789Y-107997934D03*
X141578789Y-110997934D03*
X141578789Y-107997934D03*
X143578789Y-107997934D03*
X143578789Y-110997934D03*
X150578789Y-110997934D03*
X150578789Y-107997934D03*
X152578789Y-107997934D03*
X152578789Y-110997934D03*
X159578789Y-110997934D03*
X159578789Y-107997934D03*
X161578789Y-107997934D03*
X161578789Y-110997934D03*
X168578789Y-110997934D03*
X168578789Y-107997934D03*
X170578789Y-107997934D03*
X170578789Y-110997934D03*
X114578789Y-88998367D03*
X114578789Y-91998367D03*
X116578789Y-91998367D03*
X116578789Y-88998367D03*
X123578789Y-88998367D03*
X123578789Y-91998367D03*
X125578789Y-91998367D03*
X125578789Y-88998367D03*
X132578789Y-88998367D03*
X132578789Y-91998367D03*
X134578789Y-91998367D03*
X134578789Y-88998367D03*
X141578789Y-91998367D03*
X141578789Y-88998367D03*
X143578789Y-88998367D03*
X143578789Y-91998367D03*
X150578789Y-91998367D03*
X150578789Y-88998367D03*
X152578789Y-88998367D03*
X152578789Y-91998367D03*
X159578789Y-91998367D03*
X159578789Y-88998367D03*
X161578789Y-88998367D03*
X161578789Y-91998367D03*
X168578789Y-91998367D03*
X168578789Y-88998367D03*
X170578789Y-88998367D03*
X170578789Y-91998367D03*
D11*
X90910204Y-118738814D03*
X90910204Y-117468814D03*
X89640204Y-118738814D03*
X89640204Y-117468814D03*
X88370204Y-118738814D03*
X88370204Y-117468814D03*
X87100204Y-118738814D03*
X87100204Y-117468814D03*
X85830204Y-118738814D03*
D12*
X85830204Y-117468814D03*
X85830204Y-112134814D03*
D11*
X85830204Y-113404814D03*
X87100204Y-112134814D03*
X87100204Y-113404814D03*
X88370204Y-112134814D03*
X88370204Y-113404814D03*
X89640204Y-112134814D03*
X89640204Y-113404814D03*
X90910204Y-112134814D03*
X90910204Y-113404814D03*
D12*
X85830204Y-86594814D03*
D11*
X85830204Y-87864814D03*
X87100204Y-86594814D03*
X87100204Y-87864814D03*
X88370204Y-86594814D03*
X88370204Y-87864814D03*
X89640204Y-86594814D03*
X89640204Y-87864814D03*
X90910204Y-86594814D03*
X90910204Y-87864814D03*
D14*
X89540000Y-109000000D03*
X91740000Y-109000000D03*
M02*
