G04 #@! TF.GenerationSoftware,KiCad,Pcbnew,(5.1.6-0-10_14)*
G04 #@! TF.CreationDate,2020-08-07T15:02:42+09:00*
G04 #@! TF.ProjectId,qPCR-photoarray,71504352-2d70-4686-9f74-6f6172726179,rev?*
G04 #@! TF.SameCoordinates,Original*
G04 #@! TF.FileFunction,Soldermask,Top*
G04 #@! TF.FilePolarity,Negative*
%FSLAX46Y46*%
G04 Gerber Fmt 4.6, Leading zero omitted, Abs format (unit mm)*
G04 Created by KiCad (PCBNEW (5.1.6-0-10_14)) date 2020-08-07 15:02:42*
%MOMM*%
%LPD*%
G01*
G04 APERTURE LIST*
%ADD10R,1.700000X1.700000*%
%ADD11O,1.700000X1.700000*%
%ADD12R,1.600000X1.000000*%
G04 APERTURE END LIST*
D10*
G04 #@! TO.C,U2*
X193095000Y-102000000D03*
D11*
X193095000Y-99460000D03*
X190555000Y-102000000D03*
X190555000Y-99460000D03*
X188015000Y-102000000D03*
X188015000Y-99460000D03*
X185475000Y-102000000D03*
X185475000Y-99460000D03*
X182935000Y-102000000D03*
X182935000Y-99460000D03*
G04 #@! TD*
D12*
G04 #@! TO.C,D10*
X154500000Y-106500000D03*
X154500000Y-109500000D03*
G04 #@! TD*
G04 #@! TO.C,D4*
X127500000Y-106500000D03*
X127500000Y-109500000D03*
G04 #@! TD*
G04 #@! TO.C,D2*
X118500000Y-106500000D03*
X118500000Y-109500000D03*
G04 #@! TD*
G04 #@! TO.C,D1*
X116500000Y-106500000D03*
X116500000Y-109500000D03*
G04 #@! TD*
G04 #@! TO.C,D3*
X125500000Y-106500000D03*
X125500000Y-109500000D03*
G04 #@! TD*
G04 #@! TO.C,D5*
X134500000Y-106500000D03*
X134500000Y-109500000D03*
G04 #@! TD*
G04 #@! TO.C,D6*
X136500000Y-106500000D03*
X136500000Y-109500000D03*
G04 #@! TD*
G04 #@! TO.C,D7*
X143500000Y-106500000D03*
X143500000Y-109500000D03*
G04 #@! TD*
G04 #@! TO.C,D8*
X145500000Y-106500000D03*
X145500000Y-109500000D03*
G04 #@! TD*
G04 #@! TO.C,D9*
X152500000Y-106500000D03*
X152500000Y-109500000D03*
G04 #@! TD*
G04 #@! TO.C,D11*
X161500000Y-106500000D03*
X161500000Y-109500000D03*
G04 #@! TD*
G04 #@! TO.C,D12*
X163500000Y-106500000D03*
X163500000Y-109500000D03*
G04 #@! TD*
G04 #@! TO.C,D13*
X170500000Y-106500000D03*
X170500000Y-109500000D03*
G04 #@! TD*
G04 #@! TO.C,D14*
X172500000Y-106500000D03*
X172500000Y-109500000D03*
G04 #@! TD*
G04 #@! TO.C,D15*
X179500000Y-106500000D03*
X179500000Y-109500000D03*
G04 #@! TD*
G04 #@! TO.C,D16*
X181500000Y-106500000D03*
X181500000Y-109500000D03*
G04 #@! TD*
D11*
G04 #@! TO.C,U1*
X182935000Y-89460000D03*
X182935000Y-92000000D03*
X185475000Y-89460000D03*
X185475000Y-92000000D03*
X188015000Y-89460000D03*
X188015000Y-92000000D03*
X190555000Y-89460000D03*
X190555000Y-92000000D03*
X193095000Y-89460000D03*
D10*
X193095000Y-92000000D03*
G04 #@! TD*
M02*
