M48
INCH,TZ
T1C0.0157
T2C0.0394
%
G90
G05
T1
X33783Y-31213
X33783Y-47575
X33783Y-50350
X33811Y-44862
X33815Y-28697
X33827Y-48961
X33835Y-33831
X34902Y-29815
X35181Y-47681
X35228Y-45386
X35402Y-50323
X35504Y-49024
X36122Y-31228
X36157Y-33760
X36193Y-28610
X36614Y-44984
X36689Y-47472
X37449Y-32520
X37622Y-29815
X37724Y-50350
X37776Y-44417
X37902Y-46177
X38630Y-49193
X38709Y-33846
X38724Y-47937
X38776Y-28575
X38776Y-28575
X38811Y-31280
X39303Y-50130
X39350Y-35819
X39906Y-46685
X39909Y-42512
X40031Y-32433
X40039Y-34685
X40177Y-33862
X40260Y-45130
X40398Y-29839
X40654Y-35378
X40669Y-43858
X40677Y-42150
X40787Y-36394
X40823Y-48331
X41630Y-30965
X41850Y-44528
X42094Y-48929
X42169Y-50280
X42354Y-28587
X42469Y-42980
X42768Y-47602
X42886Y-35799
X43146Y-30201
X43276Y-49622
X43504Y-42512
X44181Y-36555
X44228Y-35358
X44291Y-43819
X44370Y-28579
X44394Y-42232
X44472Y-48949
X44492Y-50185
X44831Y-31067
X45197Y-44646
X45350Y-47240
X45453Y-45386
X45555Y-33260
X45858Y-31693
X45937Y-29654
X46039Y-42961
X46421Y-35776
X46728Y-46260
X46732Y-33898
X46811Y-48461
X46890Y-32520
X46992Y-42516
X47465Y-30791
X47512Y-49295
X47657Y-50413
X47732Y-28480
X47740Y-42201
X47815Y-35110
X47815Y-36539
X48110Y-45157
X48228Y-33858
X48268Y-43858
X48311Y-47165
X48346Y-32165
X48701Y-30354
X48803Y-29531
X48807Y-49819
X49528Y-44252
X49528Y-47283
X49567Y-31220
X49606Y-34409
X49665Y-42961
X49701Y-28441
X49937Y-50390
X49961Y-35776
X50039Y-32874
X50039Y-45748
X50071Y-49283
X50524Y-42512
X50906Y-47362
X51020Y-31421
X51224Y-36492
X51252Y-35079
X51378Y-29961
X51445Y-42224
X52087Y-47520
X52224Y-31421
X52283Y-48858
X52764Y-50382
X52787Y-29295
X52854Y-28413
X52870Y-49500
X52913Y-45827
X53197Y-42957
X53295Y-34067
X53319Y-44657
X53339Y-32850
X53406Y-31709
X53516Y-35772
X53831Y-28917
X53937Y-47559
X53965Y-49961
X54016Y-48898
X54098Y-42508
X54173Y-29921
X54291Y-43291
X54343Y-45614
X54370Y-31142
X54528Y-32874
X54909Y-36531
X54921Y-35240
X54965Y-28390
X54965Y-29283
X54996Y-49472
X55035Y-50382
X55043Y-42213
X55217Y-47102
X55248Y-34106
X55358Y-31685
X55453Y-44555
X55469Y-43323
X56106Y-32890
X56378Y-31102
X56413Y-45937
X56614Y-29921
X56693Y-48819
X56740Y-42984
X57055Y-35776
X57213Y-31657
X57217Y-47055
X57240Y-34122
X57283Y-44748
X57398Y-32839
X57642Y-42516
X58224Y-49362
X58228Y-47638
X58260Y-50390
X58287Y-28378
X58406Y-29299
X58425Y-36594
X58425Y-43661
X58433Y-35528
X58488Y-42256
X59354Y-28811
X59370Y-44567
X59370Y-49925
X59449Y-48780
X59606Y-29921
X59685Y-31181
X60264Y-42961
X60567Y-49362
X60567Y-50370
X60587Y-35764
X60638Y-29248
X60673Y-28307
X61161Y-42520
X61378Y-47638
X61496Y-43740
X61575Y-29882
X62008Y-48858
X62126Y-35575
X62146Y-42240
X62165Y-36504
X62193Y-32709
X62283Y-46142
X62362Y-31181
X62441Y-43071
X62598Y-43819
X62598Y-47559
X62795Y-33937
X62835Y-44843
X63268Y-30354
X63421Y-29504
X63461Y-28323
X63484Y-50181
X63543Y-48346
X63661Y-31496
X63661Y-32953
X63807Y-42957
X63819Y-45709
X64146Y-35768
X64646Y-43189
X64756Y-42087
X64803Y-47008
X64843Y-30512
X64882Y-32205
X64909Y-29035
X64961Y-34921
X65094Y-42496
X65409Y-49138
X65457Y-36413
X65669Y-43858
X66173Y-32315
X66220Y-36024
X66327Y-29858
X66335Y-50236
X66339Y-33386
X66413Y-47996
X66453Y-46331
X66669Y-28319
X66693Y-42441
X66736Y-30906
X66850Y-36732
X67126Y-45118
X67602Y-33602
X67874Y-34921
X68087Y-29819
X68169Y-49146
X68268Y-36850
X68268Y-41339
X68346Y-43858
X68350Y-28472
X68646Y-31567
X68654Y-47181
X69051Y-37045
X69189Y-32811
X69370Y-45118
X69606Y-41890
X69780Y-29657
X69843Y-34961
X70102Y-33634
X70118Y-37402
X70177Y-49043
X70209Y-50248
X70291Y-47980
X70315Y-31378
X70512Y-43819
X70787Y-40630
X70906Y-38110
X70941Y-28531
X71417Y-45945
X71969Y-32677
X71969Y-37205
X72047Y-30984
X72047Y-39488
X72087Y-34961
X72126Y-42205
X72381Y-41830
X72413Y-50197
X72717Y-42124
X72795Y-44409
X72913Y-47677
X73112Y-42301
X73228Y-46969
X73339Y-28547
X73496Y-42478
X73618Y-46683
X73622Y-46181
X73887Y-42656
X73937Y-34921
X73937Y-40315
X74016Y-31260
X74016Y-32992
X74016Y-46506
X74055Y-37283
X74055Y-38110
X74280Y-42833
X74409Y-46329
X74528Y-41496
X74567Y-50272
X74658Y-43010
X74685Y-43583
X74765Y-46152
X75039Y-43187
X75079Y-40827
X75079Y-47756
X75118Y-31969
X75121Y-45974
X75157Y-33976
X75157Y-37520
X75157Y-45394
X75514Y-45792
X75866Y-40039
X75890Y-45600
X76142Y-38189
X76220Y-30630
X76220Y-34882
X76260Y-44213
X76378Y-32992
X76539Y-28547
X76693Y-47283
X76890Y-41535
X77047Y-37165
X77228Y-50299
X77520Y-40709
X77677Y-31654
X77677Y-37953
X77795Y-43425
X78031Y-40039
X78071Y-46890
X78150Y-34882
X78228Y-32953
X78543Y-45472
X78622Y-30276
X78661Y-48583
X78701Y-38189
X78819Y-45079
X78976Y-41535
X79433Y-28563
X79449Y-33543
X79488Y-47362
X79528Y-46102
X79567Y-30709
X79587Y-50197
X80386Y-41720
X80386Y-45457
X80827Y-32441
X81220Y-28543
X81252Y-50228
X81299Y-37780
X81335Y-40476
X81346Y-34811
X81350Y-48858
X81374Y-43654
X81374Y-46539
X81425Y-31508
X81457Y-29791
T2
X71222Y-49066
X72222Y-49066
X73222Y-49066
X74222Y-49066
X75222Y-49066
X76222Y-49066
X77222Y-49066
X78222Y-49066
X79222Y-49066
X80222Y-49066
X71222Y-29674
X72222Y-29674
X73222Y-29674
X74222Y-29674
X75222Y-29674
X76222Y-29674
X77222Y-29674
X78222Y-29674
X79222Y-29674
X80222Y-29674
T0
M30
