%TF.GenerationSoftware,KiCad,Pcbnew,(5.1.6-0-10_14)*%
%TF.CreationDate,2021-03-02T16:37:27+09:00*%
%TF.ProjectId,qPCR-supercap,71504352-2d73-4757-9065-726361702e6b,rev?*%
%TF.SameCoordinates,Original*%
%TF.FileFunction,Soldermask,Bot*%
%TF.FilePolarity,Negative*%
%FSLAX46Y46*%
G04 Gerber Fmt 4.6, Leading zero omitted, Abs format (unit mm)*
G04 Created by KiCad (PCBNEW (5.1.6-0-10_14)) date 2021-03-02 16:37:27*
%MOMM*%
%LPD*%
G01*
G04 APERTURE LIST*
%ADD10R,2.400000X2.400000*%
%ADD11C,2.400000*%
%ADD12C,1.600000*%
%ADD13R,3.500000X3.500000*%
%ADD14R,1.700000X1.700000*%
%ADD15O,1.700000X1.700000*%
%ADD16O,2.400000X2.400000*%
G04 APERTURE END LIST*
D10*
%TO.C,C6*%
X120800000Y-119200000D03*
D11*
X125800000Y-119200000D03*
%TD*%
D10*
%TO.C,C7*%
X127600000Y-106950000D03*
D11*
X132600000Y-106950000D03*
%TD*%
D10*
%TO.C,C8*%
X127600000Y-93250000D03*
D11*
X132600000Y-93250000D03*
%TD*%
D10*
%TO.C,C9*%
X127600000Y-79550000D03*
D11*
X132600000Y-79550000D03*
%TD*%
D10*
%TO.C,C10*%
X120800000Y-67400000D03*
D11*
X125800000Y-67400000D03*
%TD*%
D12*
%TO.C,C12*%
X95700000Y-78400000D03*
X95700000Y-73400000D03*
%TD*%
%TO.C,J1*%
G36*
G01*
X98575000Y-120750000D02*
X96825000Y-120750000D01*
G75*
G02*
X95950000Y-119875000I0J875000D01*
G01*
X95950000Y-118125000D01*
G75*
G02*
X96825000Y-117250000I875000J0D01*
G01*
X98575000Y-117250000D01*
G75*
G02*
X99450000Y-118125000I0J-875000D01*
G01*
X99450000Y-119875000D01*
G75*
G02*
X98575000Y-120750000I-875000J0D01*
G01*
G37*
G36*
G01*
X94000000Y-123500000D02*
X92000000Y-123500000D01*
G75*
G02*
X91250000Y-122750000I0J750000D01*
G01*
X91250000Y-121250000D01*
G75*
G02*
X92000000Y-120500000I750000J0D01*
G01*
X94000000Y-120500000D01*
G75*
G02*
X94750000Y-121250000I0J-750000D01*
G01*
X94750000Y-122750000D01*
G75*
G02*
X94000000Y-123500000I-750000J0D01*
G01*
G37*
D13*
X93000000Y-116000000D03*
%TD*%
D14*
%TO.C,J2*%
X101500000Y-120500000D03*
D15*
X101500000Y-123040000D03*
%TD*%
D14*
%TO.C,J3*%
X106100000Y-91900000D03*
D15*
X103560000Y-91900000D03*
%TD*%
D14*
%TO.C,J4*%
X110400000Y-112100000D03*
D15*
X110400000Y-109560000D03*
%TD*%
D14*
%TO.C,J7*%
X110400000Y-105900000D03*
D15*
X110400000Y-103360000D03*
%TD*%
D14*
%TO.C,J6*%
X114300000Y-120900000D03*
D15*
X114300000Y-123440000D03*
%TD*%
D14*
%TO.C,J8*%
X114500000Y-92100000D03*
D15*
X114500000Y-94640000D03*
%TD*%
D11*
%TO.C,R3*%
X90800000Y-81900000D03*
D16*
X90800000Y-109840000D03*
%TD*%
D11*
%TO.C,R4*%
X97800000Y-89500000D03*
D16*
X97800000Y-109820000D03*
%TD*%
D15*
%TO.C,J9*%
X82960000Y-74080000D03*
X85500000Y-71540000D03*
X85500000Y-86780000D03*
X82960000Y-86780000D03*
X82960000Y-71540000D03*
X85500000Y-74080000D03*
X82960000Y-69000000D03*
D14*
X85500000Y-69000000D03*
D15*
X85500000Y-96940000D03*
X82960000Y-96940000D03*
X85500000Y-81700000D03*
X82960000Y-81700000D03*
X85500000Y-102020000D03*
X82960000Y-102020000D03*
X85500000Y-84240000D03*
X82960000Y-84240000D03*
X85500000Y-79160000D03*
X82960000Y-79160000D03*
X85500000Y-91860000D03*
X82960000Y-91860000D03*
X85500000Y-114720000D03*
X82960000Y-114720000D03*
X85500000Y-109640000D03*
X82960000Y-109640000D03*
X85500000Y-112180000D03*
X82960000Y-112180000D03*
X85500000Y-89320000D03*
X82960000Y-89320000D03*
X85500000Y-107100000D03*
X82960000Y-107100000D03*
X85500000Y-76620000D03*
X82960000Y-76620000D03*
X85500000Y-104560000D03*
X82960000Y-104560000D03*
X85500000Y-94400000D03*
X82960000Y-94400000D03*
X85500000Y-99480000D03*
X82960000Y-99480000D03*
X85500000Y-117260000D03*
X82960000Y-117260000D03*
%TD*%
D14*
%TO.C,JP1*%
X103100000Y-109500000D03*
D15*
X103100000Y-106960000D03*
X103100000Y-104420000D03*
%TD*%
M02*
