%TF.GenerationSoftware,KiCad,Pcbnew,(5.1.6-0-10_14)*%
%TF.CreationDate,2021-03-02T15:26:55+09:00*%
%TF.ProjectId,qPCR-supercap,71504352-2d73-4757-9065-726361702e6b,rev?*%
%TF.SameCoordinates,Original*%
%TF.FileFunction,Copper,L1,Top*%
%TF.FilePolarity,Positive*%
%FSLAX46Y46*%
G04 Gerber Fmt 4.6, Leading zero omitted, Abs format (unit mm)*
G04 Created by KiCad (PCBNEW (5.1.6-0-10_14)) date 2021-03-02 15:26:55*
%MOMM*%
%LPD*%
G01*
G04 APERTURE LIST*
%TA.AperFunction,EtchedComponent*%
%ADD10C,0.152400*%
%TD*%
%TA.AperFunction,SMDPad,CuDef*%
%ADD11R,1.600000X3.500000*%
%TD*%
%TA.AperFunction,SMDPad,CuDef*%
%ADD12R,1.250000X1.500000*%
%TD*%
%TA.AperFunction,ComponentPad*%
%ADD13C,2.400000*%
%TD*%
%TA.AperFunction,ComponentPad*%
%ADD14R,2.400000X2.400000*%
%TD*%
%TA.AperFunction,SMDPad,CuDef*%
%ADD15R,0.750000X1.200000*%
%TD*%
%TA.AperFunction,ComponentPad*%
%ADD16C,1.600000*%
%TD*%
%TA.AperFunction,SMDPad,CuDef*%
%ADD17R,3.200000X2.700000*%
%TD*%
%TA.AperFunction,ComponentPad*%
%ADD18R,3.500000X3.500000*%
%TD*%
%TA.AperFunction,ComponentPad*%
%ADD19R,1.700000X1.700000*%
%TD*%
%TA.AperFunction,ComponentPad*%
%ADD20O,1.700000X1.700000*%
%TD*%
%TA.AperFunction,SMDPad,CuDef*%
%ADD21R,1.500000X4.000000*%
%TD*%
%TA.AperFunction,SMDPad,CuDef*%
%ADD22R,1.200000X0.900000*%
%TD*%
%TA.AperFunction,ComponentPad*%
%ADD23O,2.400000X2.400000*%
%TD*%
%TA.AperFunction,SMDPad,CuDef*%
%ADD24R,0.900000X1.200000*%
%TD*%
%TA.AperFunction,SMDPad,CuDef*%
%ADD25R,1.175000X1.175000*%
%TD*%
%TA.AperFunction,SMDPad,CuDef*%
%ADD26R,1.550000X0.600000*%
%TD*%
%TA.AperFunction,SMDPad,CuDef*%
%ADD27R,0.558800X1.524000*%
%TD*%
%TA.AperFunction,SMDPad,CuDef*%
%ADD28R,1.524000X0.558800*%
%TD*%
%TA.AperFunction,SMDPad,CuDef*%
%ADD29R,3.000000X2.000000*%
%TD*%
%TA.AperFunction,SMDPad,CuDef*%
%ADD30R,2.000000X3.000000*%
%TD*%
%TA.AperFunction,ViaPad*%
%ADD31C,0.800000*%
%TD*%
%TA.AperFunction,Conductor*%
%ADD32C,2.540000*%
%TD*%
%TA.AperFunction,Conductor*%
%ADD33C,1.016000*%
%TD*%
%TA.AperFunction,Conductor*%
%ADD34C,1.524000*%
%TD*%
%TA.AperFunction,Conductor*%
%ADD35C,0.508000*%
%TD*%
%TA.AperFunction,Conductor*%
%ADD36C,0.250000*%
%TD*%
%TA.AperFunction,Conductor*%
%ADD37C,0.254000*%
%TD*%
G04 APERTURE END LIST*
D10*
%TO.C,U1*%
X115679400Y-114022400D02*
X115120600Y-114022400D01*
X115679400Y-113349300D02*
X115679400Y-114022400D01*
X116225500Y-112803200D02*
X115679400Y-113349300D01*
X116225500Y-111107750D02*
X116225500Y-112803200D01*
X115825450Y-110707700D02*
X116225500Y-111107750D01*
X114974550Y-110707700D02*
X115825450Y-110707700D01*
X114574500Y-111107750D02*
X114974550Y-110707700D01*
X114574500Y-112803200D02*
X114574500Y-111107750D01*
X115120600Y-113349300D02*
X114574500Y-112803200D01*
X115120600Y-114022400D02*
X115120600Y-113349300D01*
%TO.C,U2*%
X117722400Y-106479400D02*
X117049300Y-106479400D01*
X117049300Y-106479400D02*
X116503200Y-107025500D01*
X116503200Y-107025500D02*
X114807750Y-107025500D01*
X114807750Y-107025500D02*
X114407700Y-106625450D01*
X114407700Y-106625450D02*
X114407700Y-105774550D01*
X114407700Y-105774550D02*
X114807750Y-105374500D01*
X114807750Y-105374500D02*
X116503200Y-105374500D01*
X116503200Y-105374500D02*
X117049300Y-105920600D01*
X117049300Y-105920600D02*
X117722400Y-105920600D01*
X117722400Y-105920600D02*
X117722400Y-106479400D01*
%TO.C,U3*%
X117722400Y-99220600D02*
X117722400Y-99779400D01*
X117049300Y-99220600D02*
X117722400Y-99220600D01*
X116503200Y-98674500D02*
X117049300Y-99220600D01*
X114807750Y-98674500D02*
X116503200Y-98674500D01*
X114407700Y-99074550D02*
X114807750Y-98674500D01*
X114407700Y-99925450D02*
X114407700Y-99074550D01*
X114807750Y-100325500D02*
X114407700Y-99925450D01*
X116503200Y-100325500D02*
X114807750Y-100325500D01*
X117049300Y-99779400D02*
X116503200Y-100325500D01*
X117722400Y-99779400D02*
X117049300Y-99779400D01*
%TO.C,U4*%
X117322400Y-75579400D02*
X116649300Y-75579400D01*
X116649300Y-75579400D02*
X116103200Y-76125500D01*
X116103200Y-76125500D02*
X114407750Y-76125500D01*
X114407750Y-76125500D02*
X114007700Y-75725450D01*
X114007700Y-75725450D02*
X114007700Y-74874550D01*
X114007700Y-74874550D02*
X114407750Y-74474500D01*
X114407750Y-74474500D02*
X116103200Y-74474500D01*
X116103200Y-74474500D02*
X116649300Y-75020600D01*
X116649300Y-75020600D02*
X117322400Y-75020600D01*
X117322400Y-75020600D02*
X117322400Y-75579400D01*
%TO.C,U5*%
X110622400Y-63720600D02*
X110622400Y-64279400D01*
X109949300Y-63720600D02*
X110622400Y-63720600D01*
X109403200Y-63174500D02*
X109949300Y-63720600D01*
X107707750Y-63174500D02*
X109403200Y-63174500D01*
X107307700Y-63574550D02*
X107707750Y-63174500D01*
X107307700Y-64425450D02*
X107307700Y-63574550D01*
X107707750Y-64825500D02*
X107307700Y-64425450D01*
X109403200Y-64825500D02*
X107707750Y-64825500D01*
X109949300Y-64279400D02*
X109403200Y-64825500D01*
X110622400Y-64279400D02*
X109949300Y-64279400D01*
%TD*%
D11*
%TO.P,C1,1*%
%TO.N,12V_BD_VIN*%
X113500000Y-81400000D03*
%TO.P,C1,2*%
%TO.N,GND*%
X113500000Y-86800000D03*
%TD*%
%TO.P,C2,2*%
%TO.N,GND*%
X105900000Y-86800000D03*
%TO.P,C2,1*%
%TO.N,12V_BD_VIN*%
X105900000Y-81400000D03*
%TD*%
D12*
%TO.P,C3,2*%
%TO.N,GND*%
X101000000Y-84150000D03*
%TO.P,C3,1*%
%TO.N,12V_BD_VIN*%
X101000000Y-81650000D03*
%TD*%
%TO.P,C4,1*%
%TO.N,12V_BD_VIN*%
X99000000Y-81650000D03*
%TO.P,C4,2*%
%TO.N,GND*%
X99000000Y-84150000D03*
%TD*%
D13*
%TO.P,C6,2*%
%TO.N,Net-(C6-Pad2)*%
X125800000Y-119200000D03*
D14*
%TO.P,C6,1*%
%TO.N,Net-(C6-Pad1)*%
X120800000Y-119200000D03*
%TD*%
%TO.P,C7,1*%
%TO.N,Net-(C6-Pad2)*%
X127600000Y-106950000D03*
D13*
%TO.P,C7,2*%
%TO.N,Net-(C7-Pad2)*%
X132600000Y-106950000D03*
%TD*%
%TO.P,C8,2*%
%TO.N,Net-(C8-Pad2)*%
X132600000Y-93250000D03*
D14*
%TO.P,C8,1*%
%TO.N,Net-(C7-Pad2)*%
X127600000Y-93250000D03*
%TD*%
%TO.P,C9,1*%
%TO.N,Net-(C8-Pad2)*%
X127600000Y-79550000D03*
D13*
%TO.P,C9,2*%
%TO.N,Net-(C10-Pad1)*%
X132600000Y-79550000D03*
%TD*%
%TO.P,C10,2*%
%TO.N,GND*%
X125800000Y-67400000D03*
D14*
%TO.P,C10,1*%
%TO.N,Net-(C10-Pad1)*%
X120800000Y-67400000D03*
%TD*%
D12*
%TO.P,C5,2*%
%TO.N,GND*%
X97000000Y-84150000D03*
%TO.P,C5,1*%
%TO.N,12V_BD_VIN*%
X97000000Y-81650000D03*
%TD*%
D15*
%TO.P,C11,1*%
%TO.N,12V_BD_VIN*%
X95300000Y-81950000D03*
%TO.P,C11,2*%
%TO.N,GND*%
X95300000Y-83850000D03*
%TD*%
D16*
%TO.P,C12,2*%
%TO.N,GND*%
X95700000Y-73400000D03*
%TO.P,C12,1*%
%TO.N,Net-(C12-Pad1)*%
X95700000Y-78400000D03*
%TD*%
D12*
%TO.P,C13,2*%
%TO.N,GND*%
X98800000Y-74650000D03*
%TO.P,C13,1*%
%TO.N,Net-(C13-Pad1)*%
X98800000Y-77150000D03*
%TD*%
%TO.P,C14,1*%
%TO.N,/BD_BOOT*%
X109000000Y-74750000D03*
%TO.P,C14,2*%
%TO.N,/BD_SW*%
X109000000Y-77250000D03*
%TD*%
D15*
%TO.P,C15,2*%
%TO.N,/BD_FB*%
X94500000Y-64050000D03*
%TO.P,C15,1*%
%TO.N,5V*%
X94500000Y-65950000D03*
%TD*%
D12*
%TO.P,C16,1*%
%TO.N,5V*%
X92800000Y-66250000D03*
%TO.P,C16,2*%
%TO.N,GND*%
X92800000Y-63750000D03*
%TD*%
%TO.P,C17,2*%
%TO.N,GND*%
X90900000Y-63750000D03*
%TO.P,C17,1*%
%TO.N,5V*%
X90900000Y-66250000D03*
%TD*%
D17*
%TO.P,F1,2*%
%TO.N,Net-(F1-Pad2)*%
X110500000Y-99750000D03*
%TO.P,F1,1*%
%TO.N,12V_BD_VIN*%
X110500000Y-91850000D03*
%TD*%
D18*
%TO.P,J1,1*%
%TO.N,VIN*%
X93000000Y-116000000D03*
%TO.P,J1,2*%
%TO.N,GND*%
%TA.AperFunction,ComponentPad*%
G36*
G01*
X94000000Y-123500000D02*
X92000000Y-123500000D01*
G75*
G02*
X91250000Y-122750000I0J750000D01*
G01*
X91250000Y-121250000D01*
G75*
G02*
X92000000Y-120500000I750000J0D01*
G01*
X94000000Y-120500000D01*
G75*
G02*
X94750000Y-121250000I0J-750000D01*
G01*
X94750000Y-122750000D01*
G75*
G02*
X94000000Y-123500000I-750000J0D01*
G01*
G37*
%TD.AperFunction*%
%TO.P,J1,3*%
%TA.AperFunction,ComponentPad*%
G36*
G01*
X98575000Y-120750000D02*
X96825000Y-120750000D01*
G75*
G02*
X95950000Y-119875000I0J875000D01*
G01*
X95950000Y-118125000D01*
G75*
G02*
X96825000Y-117250000I875000J0D01*
G01*
X98575000Y-117250000D01*
G75*
G02*
X99450000Y-118125000I0J-875000D01*
G01*
X99450000Y-119875000D01*
G75*
G02*
X98575000Y-120750000I-875000J0D01*
G01*
G37*
%TD.AperFunction*%
%TD*%
D19*
%TO.P,J2,1*%
%TO.N,VIN*%
X101500000Y-120500000D03*
D20*
%TO.P,J2,2*%
%TO.N,GND*%
X101500000Y-123040000D03*
%TD*%
D19*
%TO.P,J3,1*%
%TO.N,12V_BD_VIN*%
X106100000Y-91900000D03*
D20*
%TO.P,J3,2*%
%TO.N,GND*%
X103560000Y-91900000D03*
%TD*%
D19*
%TO.P,J4,1*%
%TO.N,Net-(D2-Pad1)*%
X110400000Y-112100000D03*
D20*
%TO.P,J4,2*%
%TO.N,Net-(D3-Pad1)*%
X110400000Y-109560000D03*
%TD*%
%TO.P,J7,2*%
%TO.N,Net-(F1-Pad2)*%
X110400000Y-103360000D03*
D19*
%TO.P,J7,1*%
%TO.N,Net-(D3-Pad1)*%
X110400000Y-105900000D03*
%TD*%
D20*
%TO.P,J6,2*%
%TO.N,Net-(J6-Pad2)*%
X114300000Y-123440000D03*
D19*
%TO.P,J6,1*%
%TO.N,Net-(C6-Pad1)*%
X114300000Y-120900000D03*
%TD*%
D20*
%TO.P,J8,2*%
%TO.N,Net-(F1-Pad2)*%
X114500000Y-94640000D03*
D19*
%TO.P,J8,1*%
%TO.N,12V_BD_VIN*%
X114500000Y-92100000D03*
%TD*%
D21*
%TO.P,L1,2*%
%TO.N,5V*%
X100800000Y-65000000D03*
%TO.P,L1,1*%
%TO.N,/BD_SW*%
X104400000Y-65000000D03*
%TD*%
D22*
%TO.P,R1,1*%
%TO.N,VIN*%
X94500000Y-113200000D03*
%TO.P,R1,2*%
%TO.N,VIN_SENSE*%
X92300000Y-113200000D03*
%TD*%
%TO.P,R2,2*%
%TO.N,GND*%
X88200000Y-113200000D03*
%TO.P,R2,1*%
%TO.N,VIN_SENSE*%
X90400000Y-113200000D03*
%TD*%
D23*
%TO.P,R3,2*%
%TO.N,Net-(JP1-Pad3)*%
X90800000Y-109840000D03*
D13*
%TO.P,R3,1*%
%TO.N,Net-(C6-Pad1)*%
X90800000Y-81900000D03*
%TD*%
D23*
%TO.P,R4,2*%
%TO.N,Net-(JP1-Pad1)*%
X97800000Y-109820000D03*
D13*
%TO.P,R4,1*%
%TO.N,Net-(C6-Pad1)*%
X97800000Y-89500000D03*
%TD*%
D17*
%TO.P,R5,1*%
%TO.N,Net-(J6-Pad2)*%
X110400000Y-123600000D03*
%TO.P,R5,2*%
%TO.N,Net-(C6-Pad2)*%
X110400000Y-115700000D03*
%TD*%
%TO.P,R6,2*%
%TO.N,Net-(C6-Pad2)*%
X121200000Y-101650000D03*
%TO.P,R6,1*%
%TO.N,Net-(C7-Pad2)*%
X121200000Y-109550000D03*
%TD*%
%TO.P,R7,1*%
%TO.N,Net-(C8-Pad2)*%
X121200000Y-97250000D03*
%TO.P,R7,2*%
%TO.N,Net-(C7-Pad2)*%
X121200000Y-89350000D03*
%TD*%
%TO.P,R9,2*%
%TO.N,Net-(C10-Pad1)*%
X114500000Y-70850000D03*
%TO.P,R9,1*%
%TO.N,GND*%
X114500000Y-62950000D03*
%TD*%
D24*
%TO.P,R10,1*%
%TO.N,5V*%
X99000000Y-66200000D03*
%TO.P,R10,2*%
%TO.N,Net-(R10-Pad2)*%
X99000000Y-64000000D03*
%TD*%
%TO.P,R11,1*%
%TO.N,Net-(R10-Pad2)*%
X97500000Y-64000000D03*
%TO.P,R11,2*%
%TO.N,/BD_FB*%
X97500000Y-66200000D03*
%TD*%
%TO.P,R12,2*%
%TO.N,GND*%
X96000000Y-64000000D03*
%TO.P,R12,1*%
%TO.N,/BD_FB*%
X96000000Y-66200000D03*
%TD*%
D25*
%TO.P,U6,9*%
%TO.N,GND*%
X103312500Y-75312500D03*
X103312500Y-76487500D03*
X104487500Y-75312500D03*
X104487500Y-76487500D03*
D26*
%TO.P,U6,8*%
%TO.N,12V_BD_VIN*%
X106600000Y-73995000D03*
%TO.P,U6,7*%
%TO.N,/BD_BOOT*%
X106600000Y-75265000D03*
%TO.P,U6,6*%
%TO.N,/BD_SW*%
X106600000Y-76535000D03*
%TO.P,U6,5*%
%TO.N,GND*%
X106600000Y-77805000D03*
%TO.P,U6,4*%
%TO.N,Net-(C12-Pad1)*%
X101200000Y-77805000D03*
%TO.P,U6,3*%
%TO.N,Net-(C13-Pad1)*%
X101200000Y-76535000D03*
%TO.P,U6,2*%
%TO.N,/BD_FB*%
X101200000Y-75265000D03*
%TO.P,U6,1*%
%TO.N,12V_BD_VIN*%
X101200000Y-73995000D03*
%TD*%
D27*
%TO.P,U1,3*%
%TO.N,Net-(C6-Pad1)*%
X116900124Y-114314500D03*
%TO.P,U1,2*%
%TO.N,Net-(C6-Pad2)*%
X115400000Y-114314500D03*
%TO.P,U1,1*%
%TO.N,Net-(C6-Pad1)*%
X113899876Y-114314500D03*
%TD*%
D28*
%TO.P,U2,1*%
%TO.N,Net-(C6-Pad2)*%
X118014500Y-107700124D03*
%TO.P,U2,2*%
%TO.N,Net-(C7-Pad2)*%
X118014500Y-106200000D03*
%TO.P,U2,3*%
%TO.N,Net-(C6-Pad2)*%
X118014500Y-104699876D03*
%TD*%
%TO.P,U3,3*%
%TO.N,Net-(C7-Pad2)*%
X118014500Y-97999876D03*
%TO.P,U3,2*%
%TO.N,Net-(C8-Pad2)*%
X118014500Y-99500000D03*
%TO.P,U3,1*%
%TO.N,Net-(C7-Pad2)*%
X118014500Y-101000124D03*
%TD*%
%TO.P,U4,1*%
%TO.N,Net-(C8-Pad2)*%
X117614500Y-76800124D03*
%TO.P,U4,2*%
%TO.N,Net-(C10-Pad1)*%
X117614500Y-75300000D03*
%TO.P,U4,3*%
%TO.N,Net-(C8-Pad2)*%
X117614500Y-73799876D03*
%TD*%
%TO.P,U5,3*%
%TO.N,Net-(C10-Pad1)*%
X110914500Y-62499876D03*
%TO.P,U5,2*%
%TO.N,GND*%
X110914500Y-64000000D03*
%TO.P,U5,1*%
%TO.N,Net-(C10-Pad1)*%
X110914500Y-65500124D03*
%TD*%
D17*
%TO.P,R8,2*%
%TO.N,Net-(C8-Pad2)*%
X121200000Y-76950000D03*
%TO.P,R8,1*%
%TO.N,Net-(C10-Pad1)*%
X121200000Y-84850000D03*
%TD*%
D20*
%TO.P,J9,40*%
%TO.N,N/C*%
X82960000Y-117260000D03*
%TO.P,J9,39*%
%TO.N,GND*%
X85500000Y-117260000D03*
%TO.P,J9,26*%
%TO.N,N/C*%
X82960000Y-99480000D03*
%TO.P,J9,25*%
%TO.N,GND*%
X85500000Y-99480000D03*
%TO.P,J9,22*%
%TO.N,N/C*%
X82960000Y-94400000D03*
%TO.P,J9,21*%
X85500000Y-94400000D03*
%TO.P,J9,30*%
%TO.N,GND*%
X82960000Y-104560000D03*
%TO.P,J9,29*%
%TO.N,N/C*%
X85500000Y-104560000D03*
%TO.P,J9,8*%
X82960000Y-76620000D03*
%TO.P,J9,7*%
X85500000Y-76620000D03*
%TO.P,J9,32*%
X82960000Y-107100000D03*
%TO.P,J9,31*%
X85500000Y-107100000D03*
%TO.P,J9,18*%
X82960000Y-89320000D03*
%TO.P,J9,17*%
X85500000Y-89320000D03*
%TO.P,J9,36*%
X82960000Y-112180000D03*
%TO.P,J9,35*%
X85500000Y-112180000D03*
%TO.P,J9,34*%
%TO.N,GND*%
X82960000Y-109640000D03*
%TO.P,J9,33*%
%TO.N,VIN_SENSE*%
X85500000Y-109640000D03*
%TO.P,J9,38*%
%TO.N,N/C*%
X82960000Y-114720000D03*
%TO.P,J9,37*%
X85500000Y-114720000D03*
%TO.P,J9,20*%
%TO.N,GND*%
X82960000Y-91860000D03*
%TO.P,J9,19*%
%TO.N,N/C*%
X85500000Y-91860000D03*
%TO.P,J9,10*%
X82960000Y-79160000D03*
%TO.P,J9,9*%
%TO.N,GND*%
X85500000Y-79160000D03*
%TO.P,J9,14*%
X82960000Y-84240000D03*
%TO.P,J9,13*%
%TO.N,N/C*%
X85500000Y-84240000D03*
%TO.P,J9,28*%
X82960000Y-102020000D03*
%TO.P,J9,27*%
X85500000Y-102020000D03*
%TO.P,J9,12*%
X82960000Y-81700000D03*
%TO.P,J9,11*%
X85500000Y-81700000D03*
%TO.P,J9,24*%
X82960000Y-96940000D03*
%TO.P,J9,23*%
X85500000Y-96940000D03*
D19*
%TO.P,J9,1*%
X85500000Y-69000000D03*
D20*
%TO.P,J9,2*%
%TO.N,5V*%
X82960000Y-69000000D03*
%TO.P,J9,5*%
%TO.N,N/C*%
X85500000Y-74080000D03*
%TO.P,J9,4*%
%TO.N,5V*%
X82960000Y-71540000D03*
%TO.P,J9,16*%
%TO.N,N/C*%
X82960000Y-86780000D03*
%TO.P,J9,15*%
X85500000Y-86780000D03*
%TO.P,J9,3*%
X85500000Y-71540000D03*
%TO.P,J9,6*%
%TO.N,GND*%
X82960000Y-74080000D03*
%TD*%
D29*
%TO.P,D1,2*%
%TO.N,GND*%
X106200000Y-123925000D03*
%TO.P,D1,1*%
%TO.N,VIN*%
X106200000Y-119275000D03*
%TD*%
D30*
%TO.P,D2,1*%
%TO.N,Net-(D2-Pad1)*%
X106925000Y-115200000D03*
%TO.P,D2,2*%
%TO.N,VIN*%
X102275000Y-115200000D03*
%TD*%
D29*
%TO.P,D3,2*%
%TO.N,Net-(C6-Pad1)*%
X103400000Y-96375000D03*
%TO.P,D3,1*%
%TO.N,Net-(D3-Pad1)*%
X103400000Y-101025000D03*
%TD*%
D20*
%TO.P,JP1,3*%
%TO.N,Net-(JP1-Pad3)*%
X103100000Y-104420000D03*
%TO.P,JP1,2*%
%TO.N,Net-(D3-Pad1)*%
X103100000Y-106960000D03*
D19*
%TO.P,JP1,1*%
%TO.N,Net-(JP1-Pad1)*%
X103100000Y-109500000D03*
%TD*%
D31*
%TO.N,GND*%
X102750000Y-84150000D03*
X103900000Y-77800000D03*
X89400000Y-64700000D03*
X87500000Y-62100000D03*
X81800000Y-66000000D03*
X87350000Y-69900000D03*
X91650000Y-70950000D03*
X100600000Y-69900000D03*
X106450000Y-71950000D03*
X103700000Y-69000000D03*
X102350000Y-71400000D03*
X102650000Y-63100000D03*
X97750000Y-62250000D03*
X91500000Y-61650000D03*
X106100000Y-61900000D03*
X107900000Y-66850000D03*
X109950000Y-68850000D03*
X112050000Y-66750000D03*
X118600000Y-69750000D03*
X120500000Y-74850000D03*
X122800000Y-72050000D03*
X120600000Y-71800000D03*
X125050000Y-74850000D03*
X129350000Y-72200000D03*
X127750000Y-70350000D03*
X126600000Y-64650000D03*
X123500000Y-62100000D03*
X129400000Y-62550000D03*
X135050000Y-66950000D03*
X131150000Y-68450000D03*
X134650000Y-71750000D03*
X132250000Y-74950000D03*
X135500000Y-76450000D03*
X133200000Y-82400000D03*
X131650000Y-84900000D03*
X135300000Y-87150000D03*
X133600000Y-96350000D03*
X132000000Y-97800000D03*
X135200000Y-101100000D03*
X135450000Y-98100000D03*
X135900000Y-93250000D03*
X135600000Y-80550000D03*
X135900000Y-106650000D03*
X132600000Y-109900000D03*
X129600000Y-112650000D03*
X129900000Y-116450000D03*
X128050000Y-121950000D03*
X123200000Y-124500000D03*
X118050000Y-124100000D03*
X129850000Y-124300000D03*
X131650000Y-118950000D03*
X134150000Y-114850000D03*
X135050000Y-118500000D03*
X135600000Y-124200000D03*
X135400000Y-62100000D03*
X82200000Y-61850000D03*
X81950000Y-124500000D03*
X81900000Y-120400000D03*
X85650000Y-119450000D03*
X87500000Y-123950000D03*
X92850000Y-124900000D03*
X98650000Y-125000000D03*
X94700000Y-119100000D03*
X90500000Y-119300000D03*
X88150000Y-117300000D03*
X89700000Y-114800000D03*
X96700000Y-113100000D03*
X95350000Y-111400000D03*
X99400000Y-112900000D03*
X88300000Y-108600000D03*
X88300000Y-104250000D03*
X88400000Y-99250000D03*
X88350000Y-92900000D03*
X88300000Y-86950000D03*
X90300000Y-89950000D03*
X90300000Y-95700000D03*
X90050000Y-101850000D03*
X90000000Y-106450000D03*
X92750000Y-104400000D03*
X95600000Y-105250000D03*
X92650000Y-107750000D03*
X95350000Y-100950000D03*
X92650000Y-98700000D03*
X95500000Y-96000000D03*
X95550000Y-91650000D03*
X92600000Y-92950000D03*
X93100000Y-86750000D03*
X96750000Y-87350000D03*
X100150000Y-88950000D03*
X100200000Y-93500000D03*
X103500000Y-94100000D03*
X106100000Y-89750000D03*
X113850000Y-89550000D03*
X110000000Y-89150000D03*
X112100000Y-84400000D03*
X107850000Y-83400000D03*
X109400000Y-84750000D03*
X103850000Y-86100000D03*
X93050000Y-82100000D03*
X90900000Y-79950000D03*
X87900000Y-77100000D03*
X91150000Y-74300000D03*
X87400000Y-73100000D03*
X89450000Y-75300000D03*
X89350000Y-71650000D03*
X107500000Y-79350000D03*
X111350000Y-79250000D03*
X113000000Y-77900000D03*
X115400000Y-80350000D03*
X118850000Y-78100000D03*
X118450000Y-82100000D03*
X116350000Y-78600000D03*
X125550000Y-82900000D03*
X124100000Y-78850000D03*
X122850000Y-81600000D03*
X120600000Y-82750000D03*
X118550000Y-85550000D03*
X118550000Y-89600000D03*
X122500000Y-87050000D03*
X128200000Y-88250000D03*
X130300000Y-91900000D03*
X124900000Y-91550000D03*
X125050000Y-95300000D03*
X123000000Y-93300000D03*
X120500000Y-91650000D03*
X120300000Y-95300000D03*
X115900000Y-96650000D03*
X118550000Y-96900000D03*
X117100000Y-94050000D03*
X112150000Y-94200000D03*
X107000000Y-94250000D03*
X108150000Y-98150000D03*
X105500000Y-98600000D03*
X108150000Y-102250000D03*
X112800000Y-101500000D03*
X116650000Y-103050000D03*
X112550000Y-104500000D03*
X122500000Y-103750000D03*
X125350000Y-105550000D03*
X123300000Y-107200000D03*
X121400000Y-99450000D03*
X126150000Y-99650000D03*
X129250000Y-102900000D03*
X130450000Y-105300000D03*
X105100000Y-112400000D03*
X105450000Y-111000000D03*
%TO.N,/BD_FB*%
X95800000Y-75900000D03*
X96800000Y-65400000D03*
%TO.N,5V*%
X87900000Y-67200000D03*
%TD*%
D32*
%TO.N,12V_BD_VIN*%
X106350010Y-91850000D02*
X106300010Y-91900000D01*
X110500000Y-91850000D02*
X106350010Y-91850000D01*
X113500000Y-81400000D02*
X105900000Y-81400000D01*
X114250000Y-91850000D02*
X110500000Y-91850000D01*
X114299991Y-91899991D02*
X114250000Y-91850000D01*
X116240010Y-90359990D02*
X114700009Y-91899991D01*
X114700009Y-91899991D02*
X114299991Y-91899991D01*
X116240010Y-84140010D02*
X116240010Y-90359990D01*
X113500000Y-81400000D02*
X116240010Y-84140010D01*
X105900000Y-81400000D02*
X105900000Y-81500000D01*
X101009990Y-81400000D02*
X101000000Y-81409990D01*
X102700000Y-81400000D02*
X95850000Y-81400000D01*
X95850000Y-81400000D02*
X95600000Y-81150000D01*
X105900000Y-81400000D02*
X102700000Y-81400000D01*
X102700000Y-81400000D02*
X101009990Y-81400000D01*
D33*
X101200000Y-73995000D02*
X106600000Y-73995000D01*
D32*
X98835000Y-71129999D02*
X101200000Y-73494999D01*
X95340398Y-81400000D02*
X93429999Y-79489601D01*
X94610399Y-71129999D02*
X98835000Y-71129999D01*
X93429999Y-72310399D02*
X94610399Y-71129999D01*
X93429999Y-79489601D02*
X93429999Y-72310399D01*
X95850000Y-81400000D02*
X95340398Y-81400000D01*
D34*
%TO.N,GND*%
X102385000Y-123925000D02*
X101500000Y-123040000D01*
X106200000Y-123925000D02*
X102385000Y-123925000D01*
D35*
X88200000Y-114158000D02*
X85500000Y-116858000D01*
X85500000Y-116858000D02*
X85500000Y-117260000D01*
X88200000Y-113200000D02*
X88200000Y-114158000D01*
D32*
X125800000Y-67400000D02*
X121400000Y-63000000D01*
X114550000Y-63000000D02*
X114500000Y-62950000D01*
X121400000Y-63000000D02*
X114550000Y-63000000D01*
D33*
X114500000Y-62950000D02*
X114250000Y-62950000D01*
X113200000Y-64000000D02*
X111406610Y-64000000D01*
X114250000Y-62950000D02*
X113200000Y-64000000D01*
D32*
X113500000Y-86800000D02*
X105900000Y-86800000D01*
X103560000Y-89140000D02*
X103560000Y-91900000D01*
X105900000Y-86800000D02*
X103560000Y-89140000D01*
X101000000Y-86580000D02*
X103560000Y-89140000D01*
X101000000Y-84150000D02*
X101000000Y-86580000D01*
X99000000Y-84150000D02*
X101000000Y-84150000D01*
X97000000Y-84150000D02*
X99000000Y-84150000D01*
D34*
X90900000Y-63750000D02*
X92800000Y-63750000D01*
X92800000Y-63043398D02*
X92800000Y-63750000D01*
X93355399Y-62487999D02*
X92800000Y-63043398D01*
X95644601Y-62487999D02*
X93355399Y-62487999D01*
X96000000Y-62843398D02*
X95644601Y-62487999D01*
X96000000Y-64000000D02*
X96000000Y-62843398D01*
D33*
X104487500Y-76771902D02*
X104487500Y-76487500D01*
X105520598Y-77805000D02*
X104487500Y-76771902D01*
X106600000Y-77805000D02*
X105520598Y-77805000D01*
X97550000Y-73400000D02*
X98800000Y-74650000D01*
X95700000Y-73400000D02*
X97550000Y-73400000D01*
D32*
X102759990Y-84140010D02*
X102800000Y-84140010D01*
X101000000Y-84150000D02*
X102750000Y-84150000D01*
X102759990Y-84140010D02*
X102750000Y-84150000D01*
X103445001Y-77345001D02*
X103445001Y-76487500D01*
X103900000Y-77800000D02*
X103445001Y-77345001D01*
X95600000Y-84150000D02*
X97000000Y-84150000D01*
X95009990Y-84140010D02*
X95590010Y-84140010D01*
X94579999Y-84570001D02*
X95009990Y-84140010D01*
X95590010Y-84140010D02*
X95600000Y-84150000D01*
X89518399Y-84570001D02*
X94579999Y-84570001D01*
X88129999Y-83181601D02*
X89518399Y-84570001D01*
X88129999Y-80587918D02*
X88129999Y-83181601D01*
X86702081Y-79160000D02*
X88129999Y-80587918D01*
X85500000Y-79160000D02*
X86702081Y-79160000D01*
X88804999Y-64323999D02*
X88804999Y-64459991D01*
X89378998Y-63750000D02*
X88804999Y-64323999D01*
X90900000Y-63750000D02*
X89378998Y-63750000D01*
D35*
X103312500Y-75312500D02*
X104487500Y-75312500D01*
D32*
%TO.N,Net-(C6-Pad2)*%
X127600000Y-106950000D02*
X127600000Y-104700000D01*
X124550000Y-101650000D02*
X121300000Y-101650000D01*
X127600000Y-104700000D02*
X124550000Y-101650000D01*
D33*
X113623491Y-106950281D02*
X114482920Y-107809710D01*
X113623490Y-105449720D02*
X113623491Y-106950281D01*
X114482919Y-104590291D02*
X113623490Y-105449720D01*
X116828030Y-104590290D02*
X114482919Y-104590291D01*
X117904914Y-107809710D02*
X118014500Y-107700124D01*
X114482920Y-107809710D02*
X117904914Y-107809710D01*
X116937616Y-104699876D02*
X116828030Y-104590290D01*
X118014500Y-104699876D02*
X116937616Y-104699876D01*
X110400000Y-115700000D02*
X110484501Y-115784501D01*
X118014500Y-107700124D02*
X118225717Y-107911341D01*
X118225717Y-111625717D02*
X125800000Y-119200000D01*
X118225717Y-107911341D02*
X118225717Y-111625717D01*
D32*
X111246501Y-116546501D02*
X114292503Y-116546501D01*
X114292503Y-116546501D02*
X117400000Y-119653998D01*
X110400000Y-115700000D02*
X111246501Y-116546501D01*
X117400000Y-119653998D02*
X117400000Y-121450000D01*
X123129999Y-121870001D02*
X125800000Y-119200000D01*
X117820001Y-121870001D02*
X123129999Y-121870001D01*
X117400000Y-121450000D02*
X117820001Y-121870001D01*
D33*
X115400000Y-115439004D02*
X115400000Y-114806610D01*
X114292503Y-116546501D02*
X115400000Y-115439004D01*
D32*
%TO.N,Net-(C7-Pad2)*%
X127600000Y-93250000D02*
X127600000Y-91200000D01*
X125750000Y-89350000D02*
X120900000Y-89350000D01*
X127600000Y-91200000D02*
X125750000Y-89350000D01*
X121440010Y-109690010D02*
X129859990Y-109690010D01*
X129859990Y-109690010D02*
X132600000Y-106950000D01*
X121300000Y-109550000D02*
X121440010Y-109690010D01*
D33*
X117904914Y-101109710D02*
X118014500Y-101000124D01*
X114482920Y-101109710D02*
X117904914Y-101109710D01*
X116828030Y-97890290D02*
X114482919Y-97890291D01*
X113623490Y-98749720D02*
X113623491Y-100250281D01*
X114482919Y-97890291D02*
X113623490Y-98749720D01*
X116937616Y-97999876D02*
X116828030Y-97890290D01*
X113623491Y-100250281D02*
X114482920Y-101109710D01*
X118014500Y-97999876D02*
X116937616Y-97999876D01*
X118014500Y-102688902D02*
X119033599Y-103708001D01*
X118014500Y-101000124D02*
X118014500Y-102688902D01*
X119033599Y-103708001D02*
X120608001Y-103708001D01*
X120608001Y-103708001D02*
X121200000Y-104300000D01*
X121200000Y-106300000D02*
X118506610Y-106300000D01*
X121200000Y-104300000D02*
X121200000Y-106300000D01*
X121200000Y-106300000D02*
X121200000Y-109550000D01*
D32*
%TO.N,Net-(C8-Pad2)*%
X127600000Y-79550000D02*
X124950000Y-76900000D01*
X121250000Y-76900000D02*
X121200000Y-76950000D01*
X124950000Y-76900000D02*
X121250000Y-76900000D01*
D33*
X117504914Y-76909710D02*
X117614500Y-76800124D01*
X114082920Y-76909710D02*
X117504914Y-76909710D01*
X113223491Y-76050281D02*
X114082920Y-76909710D01*
X113223490Y-74549720D02*
X113223491Y-76050281D01*
X116428030Y-73690290D02*
X114082919Y-73690291D01*
X116537616Y-73799876D02*
X116428030Y-73690290D01*
X114082919Y-73690291D02*
X113223490Y-74549720D01*
X117614500Y-73799876D02*
X116537616Y-73799876D01*
X121050124Y-76800124D02*
X121200000Y-76950000D01*
X117614500Y-76800124D02*
X121050124Y-76800124D01*
D32*
X128600000Y-97250000D02*
X132600000Y-93250000D01*
X120900000Y-97250000D02*
X128600000Y-97250000D01*
D33*
X118950000Y-99500000D02*
X118506610Y-99500000D01*
X121200000Y-97250000D02*
X118950000Y-99500000D01*
%TO.N,Net-(C12-Pad1)*%
X99805001Y-79199999D02*
X96499999Y-79199999D01*
X96499999Y-79199999D02*
X95700000Y-78400000D01*
X101200000Y-77805000D02*
X99805001Y-79199999D01*
%TO.N,Net-(C13-Pad1)*%
X98800000Y-77150000D02*
X98850000Y-77200000D01*
X99716999Y-76938599D02*
X100120598Y-76535000D01*
X99461401Y-76938599D02*
X99716999Y-76938599D01*
X100120598Y-76535000D02*
X101200000Y-76535000D01*
X99250000Y-77150000D02*
X99461401Y-76938599D01*
X98800000Y-77150000D02*
X99250000Y-77150000D01*
%TO.N,/BD_BOOT*%
X108485000Y-75265000D02*
X109000000Y-74750000D01*
X106600000Y-75265000D02*
X108485000Y-75265000D01*
%TO.N,/BD_SW*%
X108285000Y-76535000D02*
X109000000Y-77250000D01*
X106600000Y-76535000D02*
X108285000Y-76535000D01*
D32*
X104400000Y-66250000D02*
X104400000Y-65000000D01*
X111095001Y-72945001D02*
X104400000Y-66250000D01*
X111095001Y-76676001D02*
X111095001Y-72945001D01*
X110521002Y-77250000D02*
X111095001Y-76676001D01*
X109000000Y-77250000D02*
X110521002Y-77250000D01*
D35*
%TO.N,/BD_FB*%
X94500000Y-64230304D02*
X94500000Y-64050000D01*
X96000000Y-65730304D02*
X94500000Y-64230304D01*
X96000000Y-66200000D02*
X96000000Y-65730304D01*
D36*
X100145002Y-75265000D02*
X99510002Y-75900000D01*
X99510002Y-75900000D02*
X95800000Y-75900000D01*
X101200000Y-75265000D02*
X100145002Y-75265000D01*
X96800000Y-66100000D02*
X96700000Y-66200000D01*
X96800000Y-65400000D02*
X96800000Y-66100000D01*
D35*
X96700000Y-66200000D02*
X96000000Y-66200000D01*
X97500000Y-66200000D02*
X96700000Y-66200000D01*
D32*
%TO.N,5V*%
X82960000Y-71540000D02*
X82960000Y-69000000D01*
D34*
X82960000Y-67797919D02*
X82960000Y-69000000D01*
X83957918Y-66800001D02*
X82960000Y-67797919D01*
X87500001Y-66800001D02*
X83957918Y-66800001D01*
X87900000Y-67200000D02*
X87500001Y-66800001D01*
D32*
X100920001Y-66476001D02*
X100920001Y-65000000D01*
X99126001Y-68270001D02*
X100920001Y-66476001D01*
X87900000Y-67200000D02*
X88970001Y-68270001D01*
D34*
X99000000Y-68144000D02*
X99126001Y-68270001D01*
X99000000Y-66200000D02*
X99000000Y-68144000D01*
X94500000Y-67600000D02*
X93829999Y-68270001D01*
D32*
X93829999Y-68270001D02*
X99126001Y-68270001D01*
D34*
X94500000Y-65950000D02*
X94500000Y-67600000D01*
X92800000Y-67240002D02*
X93829999Y-68270001D01*
X92800000Y-66250000D02*
X92800000Y-67240002D01*
X90900000Y-67700000D02*
X90329999Y-68270001D01*
X90900000Y-66250000D02*
X90900000Y-67700000D01*
D32*
X90329999Y-68270001D02*
X93829999Y-68270001D01*
X88970001Y-68270001D02*
X90329999Y-68270001D01*
D35*
%TO.N,VIN*%
X94500000Y-114500000D02*
X93000000Y-116000000D01*
X94500000Y-113200000D02*
X94500000Y-114500000D01*
D32*
X93800000Y-115200000D02*
X102275000Y-115200000D01*
X93000000Y-116000000D02*
X93800000Y-115200000D01*
X101500000Y-115975000D02*
X102275000Y-115200000D01*
X106200000Y-119275000D02*
X101825000Y-119275000D01*
X101500000Y-119600000D02*
X101500000Y-115975000D01*
X101825000Y-119275000D02*
X101500000Y-119600000D01*
X101500000Y-120500000D02*
X101500000Y-119600000D01*
%TO.N,Net-(D2-Pad1)*%
X106925000Y-113578998D02*
X108403998Y-112100000D01*
X108403998Y-112100000D02*
X110400000Y-112100000D01*
X106925000Y-115200000D02*
X106925000Y-113578998D01*
%TO.N,Net-(D3-Pad1)*%
X108654969Y-106100010D02*
X110400000Y-106100010D01*
X103579959Y-101025000D02*
X108654969Y-106100010D01*
X103400000Y-101025000D02*
X103579959Y-101025000D01*
%TO.N,Net-(F1-Pad2)*%
X110400000Y-99850000D02*
X110500000Y-99750000D01*
X110400000Y-103360000D02*
X110400000Y-99850000D01*
X110500000Y-98640000D02*
X114500000Y-94640000D01*
X110500000Y-99750000D02*
X110500000Y-98640000D01*
%TO.N,Net-(J6-Pad2)*%
X114140000Y-123600000D02*
X114300000Y-123440000D01*
X110400000Y-123600000D02*
X114140000Y-123600000D01*
D35*
%TO.N,VIN_SENSE*%
X90400000Y-113200000D02*
X89495999Y-112295999D01*
X89495999Y-112295999D02*
X87595999Y-112295999D01*
X85500000Y-110200000D02*
X85500000Y-109640000D01*
X87595999Y-112295999D02*
X85500000Y-110200000D01*
X90400000Y-113200000D02*
X92300000Y-113200000D01*
%TO.N,Net-(R10-Pad2)*%
X97500000Y-64000000D02*
X99000000Y-64000000D01*
D33*
%TO.N,Net-(C6-Pad1)*%
X113790290Y-114204914D02*
X113899876Y-114314500D01*
X114649719Y-109923491D02*
X113790290Y-110782920D01*
X117009710Y-113128030D02*
X117009709Y-110782919D01*
X113790290Y-110782920D02*
X113790290Y-114204914D01*
X116150280Y-109923490D02*
X114649719Y-109923491D01*
X116900124Y-113237616D02*
X117009710Y-113128030D01*
X117009709Y-110782919D02*
X116150280Y-109923490D01*
X116900124Y-114314500D02*
X116900124Y-113237616D01*
D32*
X103400000Y-96375000D02*
X99775000Y-96375000D01*
X97800000Y-94400000D02*
X97800000Y-89500000D01*
X99775000Y-96375000D02*
X97800000Y-94400000D01*
D33*
X120800000Y-119200000D02*
X120800000Y-118214376D01*
X120800000Y-118214376D02*
X116900124Y-114314500D01*
%TO.N,Net-(C10-Pad1)*%
X110804914Y-65609710D02*
X110914500Y-65500124D01*
X106523490Y-63249720D02*
X106523491Y-64750281D01*
X107382920Y-65609710D02*
X110804914Y-65609710D01*
X107382919Y-62390291D02*
X106523490Y-63249720D01*
X109728030Y-62390290D02*
X107382919Y-62390291D01*
X106523491Y-64750281D02*
X107382920Y-65609710D01*
X109837616Y-62499876D02*
X109728030Y-62390290D01*
X110914500Y-62499876D02*
X109837616Y-62499876D01*
X113400124Y-65500124D02*
X110914500Y-65500124D01*
X114500000Y-66600000D02*
X113400124Y-65500124D01*
X118625598Y-75300000D02*
X118106610Y-75300000D01*
D32*
X127300000Y-84850000D02*
X132600000Y-79550000D01*
X121200000Y-84850000D02*
X127300000Y-84850000D01*
X120800000Y-67400000D02*
X117950000Y-67400000D01*
D33*
X114500000Y-66600000D02*
X114500000Y-66650000D01*
X114500000Y-66600000D02*
X116625000Y-68725000D01*
D32*
X116625000Y-68725000D02*
X114500000Y-70850000D01*
X117950000Y-67400000D02*
X116625000Y-68725000D01*
D33*
X119084501Y-74841097D02*
X118625598Y-75300000D01*
X117116000Y-70850000D02*
X119084501Y-72818501D01*
X119084501Y-72818501D02*
X119084501Y-74841097D01*
X114500000Y-70850000D02*
X117116000Y-70850000D01*
X117116000Y-69216000D02*
X116625000Y-68725000D01*
X117116000Y-70850000D02*
X117116000Y-69216000D01*
D32*
%TO.N,Net-(JP1-Pad1)*%
X98120000Y-109500000D02*
X97800000Y-109820000D01*
X103100000Y-109500000D02*
X98120000Y-109500000D01*
%TO.N,Net-(JP1-Pad3)*%
X99557929Y-106759990D02*
X96985051Y-106759990D01*
X101897919Y-104420000D02*
X99557929Y-106759990D01*
X103100000Y-104420000D02*
X101897919Y-104420000D01*
X93905041Y-109840000D02*
X90800000Y-109840000D01*
X96985051Y-106759990D02*
X93905041Y-109840000D01*
%TD*%
D37*
%TO.N,GND*%
G36*
X136315000Y-125315000D02*
G01*
X114972642Y-125315000D01*
X115203482Y-125191613D01*
X115493556Y-124953556D01*
X115553218Y-124880857D01*
X115713210Y-124720866D01*
X115891613Y-124503482D01*
X116068505Y-124172539D01*
X116177435Y-123813445D01*
X116214217Y-123440001D01*
X116177435Y-123066556D01*
X116114629Y-122859513D01*
X116119139Y-122863214D01*
X116406784Y-123150860D01*
X116466445Y-123223557D01*
X116756519Y-123461614D01*
X117087462Y-123638507D01*
X117446556Y-123747437D01*
X117726419Y-123775001D01*
X117726420Y-123775001D01*
X117820000Y-123784218D01*
X117913580Y-123775001D01*
X123036419Y-123775001D01*
X123129999Y-123784218D01*
X123223579Y-123775001D01*
X123223581Y-123775001D01*
X123503444Y-123747437D01*
X123862538Y-123638507D01*
X124193481Y-123461614D01*
X124483555Y-123223557D01*
X124543219Y-123150856D01*
X125762043Y-121932032D01*
X131220000Y-121932032D01*
X131220000Y-122327968D01*
X131297243Y-122716296D01*
X131448761Y-123082092D01*
X131668731Y-123411301D01*
X131948699Y-123691269D01*
X132277908Y-123911239D01*
X132643704Y-124062757D01*
X133032032Y-124140000D01*
X133427968Y-124140000D01*
X133816296Y-124062757D01*
X134182092Y-123911239D01*
X134511301Y-123691269D01*
X134791269Y-123411301D01*
X135011239Y-123082092D01*
X135162757Y-122716296D01*
X135240000Y-122327968D01*
X135240000Y-121932032D01*
X135162757Y-121543704D01*
X135011239Y-121177908D01*
X134791269Y-120848699D01*
X134511301Y-120568731D01*
X134182092Y-120348761D01*
X133816296Y-120197243D01*
X133427968Y-120120000D01*
X133032032Y-120120000D01*
X132643704Y-120197243D01*
X132277908Y-120348761D01*
X131948699Y-120568731D01*
X131668731Y-120848699D01*
X131448761Y-121177908D01*
X131297243Y-121543704D01*
X131220000Y-121932032D01*
X125762043Y-121932032D01*
X127213211Y-120480866D01*
X127391613Y-120263482D01*
X127568506Y-119932540D01*
X127677435Y-119573445D01*
X127714217Y-119200000D01*
X127677435Y-118826555D01*
X127568506Y-118467461D01*
X127391613Y-118136518D01*
X127153556Y-117846444D01*
X126863482Y-117608387D01*
X126532539Y-117431494D01*
X126173445Y-117322565D01*
X125800000Y-117285783D01*
X125528928Y-117312482D01*
X119754517Y-111538072D01*
X120969732Y-111538072D01*
X121066565Y-111567446D01*
X121346428Y-111595010D01*
X121346430Y-111595010D01*
X121440009Y-111604227D01*
X121533589Y-111595010D01*
X129766410Y-111595010D01*
X129859990Y-111604227D01*
X129953570Y-111595010D01*
X129953572Y-111595010D01*
X130233435Y-111567446D01*
X130592529Y-111458516D01*
X130923472Y-111281623D01*
X131213546Y-111043566D01*
X131273210Y-110970865D01*
X134013210Y-108230867D01*
X134191613Y-108013483D01*
X134368505Y-107682540D01*
X134477435Y-107323446D01*
X134514217Y-106950001D01*
X134477435Y-106576556D01*
X134368505Y-106217461D01*
X134191613Y-105886518D01*
X133953555Y-105596445D01*
X133663482Y-105358387D01*
X133332539Y-105181495D01*
X132973444Y-105072565D01*
X132599999Y-105035783D01*
X132226554Y-105072565D01*
X131867460Y-105181495D01*
X131536517Y-105358387D01*
X131319133Y-105536790D01*
X129453468Y-107402456D01*
X129477436Y-107323445D01*
X129505000Y-107043582D01*
X129505000Y-104793571D01*
X129514216Y-104699999D01*
X129505000Y-104606427D01*
X129505000Y-104606418D01*
X129477436Y-104326555D01*
X129368506Y-103967461D01*
X129191613Y-103636518D01*
X128953556Y-103346444D01*
X128880866Y-103286789D01*
X125963220Y-100369145D01*
X125903556Y-100296444D01*
X125613482Y-100058387D01*
X125282539Y-99881494D01*
X124923445Y-99772564D01*
X124643582Y-99745000D01*
X124643580Y-99745000D01*
X124550000Y-99735783D01*
X124456420Y-99745000D01*
X123108728Y-99745000D01*
X123044180Y-99710498D01*
X122924482Y-99674188D01*
X122800000Y-99661928D01*
X120404517Y-99661928D01*
X120828373Y-99238072D01*
X122800000Y-99238072D01*
X122924482Y-99225812D01*
X123044180Y-99189502D01*
X123108728Y-99155000D01*
X128506420Y-99155000D01*
X128600000Y-99164217D01*
X128693580Y-99155000D01*
X128693582Y-99155000D01*
X128973445Y-99127436D01*
X129332539Y-99018506D01*
X129663482Y-98841613D01*
X129953556Y-98603556D01*
X130013220Y-98530855D01*
X134013210Y-94530867D01*
X134191613Y-94313483D01*
X134368505Y-93982540D01*
X134477435Y-93623446D01*
X134514217Y-93250001D01*
X134477435Y-92876556D01*
X134368505Y-92517461D01*
X134191613Y-92186518D01*
X133953555Y-91896445D01*
X133663482Y-91658387D01*
X133332539Y-91481495D01*
X132973444Y-91372565D01*
X132599999Y-91335783D01*
X132226554Y-91372565D01*
X131867460Y-91481495D01*
X131536517Y-91658387D01*
X131319133Y-91836790D01*
X129453468Y-93702455D01*
X129477436Y-93623445D01*
X129505000Y-93343582D01*
X129505000Y-91293579D01*
X129514217Y-91199999D01*
X129495092Y-91005820D01*
X129477436Y-90826555D01*
X129368506Y-90467461D01*
X129283474Y-90308378D01*
X129191613Y-90136517D01*
X129013210Y-89919133D01*
X128953556Y-89846444D01*
X128880865Y-89786788D01*
X127163220Y-88069144D01*
X127103556Y-87996444D01*
X126813482Y-87758387D01*
X126482539Y-87581494D01*
X126123445Y-87472564D01*
X125843582Y-87445000D01*
X125843580Y-87445000D01*
X125750000Y-87435783D01*
X125656420Y-87445000D01*
X123108728Y-87445000D01*
X123044180Y-87410498D01*
X122924482Y-87374188D01*
X122800000Y-87361928D01*
X119600000Y-87361928D01*
X119475518Y-87374188D01*
X119355820Y-87410498D01*
X119245506Y-87469463D01*
X119148815Y-87548815D01*
X119069463Y-87645506D01*
X119010498Y-87755820D01*
X118974188Y-87875518D01*
X118961928Y-88000000D01*
X118961928Y-90700000D01*
X118974188Y-90824482D01*
X119010498Y-90944180D01*
X119069463Y-91054494D01*
X119148815Y-91151185D01*
X119245506Y-91230537D01*
X119355820Y-91289502D01*
X119475518Y-91325812D01*
X119600000Y-91338072D01*
X122800000Y-91338072D01*
X122924482Y-91325812D01*
X123044180Y-91289502D01*
X123108728Y-91255000D01*
X124960924Y-91255000D01*
X125695001Y-91989077D01*
X125695000Y-93343581D01*
X125722564Y-93623444D01*
X125761928Y-93753210D01*
X125761928Y-94450000D01*
X125774188Y-94574482D01*
X125810498Y-94694180D01*
X125869463Y-94804494D01*
X125948815Y-94901185D01*
X126045506Y-94980537D01*
X126155820Y-95039502D01*
X126275518Y-95075812D01*
X126400000Y-95088072D01*
X127096789Y-95088072D01*
X127226555Y-95127436D01*
X127600000Y-95164217D01*
X127973444Y-95127436D01*
X128052457Y-95103468D01*
X127810925Y-95345000D01*
X123108728Y-95345000D01*
X123044180Y-95310498D01*
X122924482Y-95274188D01*
X122800000Y-95261928D01*
X119600000Y-95261928D01*
X119475518Y-95274188D01*
X119355820Y-95310498D01*
X119245506Y-95369463D01*
X119148815Y-95448815D01*
X119069463Y-95545506D01*
X119010498Y-95655820D01*
X118974188Y-95775518D01*
X118961928Y-95900000D01*
X118961928Y-97113152D01*
X118900982Y-97094664D01*
X118776500Y-97082404D01*
X118698278Y-97082404D01*
X118652589Y-97044908D01*
X118454023Y-96938773D01*
X118238567Y-96873415D01*
X118070646Y-96856876D01*
X117319355Y-96856876D01*
X117267552Y-96829187D01*
X117117455Y-96783655D01*
X117052097Y-96763829D01*
X117029429Y-96761596D01*
X116884175Y-96747290D01*
X116884169Y-96747290D01*
X116828030Y-96741761D01*
X116771890Y-96747290D01*
X115086785Y-96747291D01*
X115913210Y-95920867D01*
X116091613Y-95703483D01*
X116268505Y-95372540D01*
X116377435Y-95013446D01*
X116414217Y-94640001D01*
X116377435Y-94266556D01*
X116268505Y-93907461D01*
X116091613Y-93576518D01*
X115917917Y-93364870D01*
X116053565Y-93253547D01*
X116113228Y-93180847D01*
X117520875Y-91773202D01*
X117593566Y-91713546D01*
X117687723Y-91598815D01*
X117831623Y-91423473D01*
X117974275Y-91156589D01*
X118008516Y-91092529D01*
X118117446Y-90733435D01*
X118145010Y-90453572D01*
X118145010Y-90453571D01*
X118154227Y-90359991D01*
X118145010Y-90266411D01*
X118145010Y-84233589D01*
X118154227Y-84140009D01*
X118145010Y-84046428D01*
X118117446Y-83766565D01*
X118008516Y-83407471D01*
X117886126Y-83178495D01*
X117831623Y-83076527D01*
X117665567Y-82874188D01*
X117593566Y-82786454D01*
X117520876Y-82726799D01*
X114938072Y-80143997D01*
X114938072Y-79650000D01*
X114925812Y-79525518D01*
X114889502Y-79405820D01*
X114830537Y-79295506D01*
X114751185Y-79198815D01*
X114654494Y-79119463D01*
X114544180Y-79060498D01*
X114424482Y-79024188D01*
X114300000Y-79011928D01*
X112700000Y-79011928D01*
X112575518Y-79024188D01*
X112455820Y-79060498D01*
X112345506Y-79119463D01*
X112248815Y-79198815D01*
X112169463Y-79295506D01*
X112110498Y-79405820D01*
X112083446Y-79495000D01*
X107316554Y-79495000D01*
X107289502Y-79405820D01*
X107230537Y-79295506D01*
X107151185Y-79198815D01*
X107054494Y-79119463D01*
X106944180Y-79060498D01*
X106824482Y-79024188D01*
X106700000Y-79011928D01*
X105100000Y-79011928D01*
X104975518Y-79024188D01*
X104855820Y-79060498D01*
X104745506Y-79119463D01*
X104648815Y-79198815D01*
X104569463Y-79295506D01*
X104510498Y-79405820D01*
X104483446Y-79495000D01*
X101126445Y-79495000D01*
X101878374Y-78743072D01*
X101975000Y-78743072D01*
X102099482Y-78730812D01*
X102219180Y-78694502D01*
X102329494Y-78635537D01*
X102426185Y-78556185D01*
X102505537Y-78459494D01*
X102564502Y-78349180D01*
X102600812Y-78229482D01*
X102613072Y-78105000D01*
X105186928Y-78105000D01*
X105199188Y-78229482D01*
X105235498Y-78349180D01*
X105294463Y-78459494D01*
X105373815Y-78556185D01*
X105470506Y-78635537D01*
X105580820Y-78694502D01*
X105700518Y-78730812D01*
X105825000Y-78743072D01*
X106314250Y-78740000D01*
X106473000Y-78581250D01*
X106473000Y-77932000D01*
X105348750Y-77932000D01*
X105190000Y-78090750D01*
X105186928Y-78105000D01*
X102613072Y-78105000D01*
X102613072Y-77702048D01*
X102725000Y-77713072D01*
X103026750Y-77710000D01*
X103185500Y-77551250D01*
X103185500Y-77075000D01*
X103261928Y-77075000D01*
X103274188Y-77199482D01*
X103310498Y-77319180D01*
X103369463Y-77429494D01*
X103439500Y-77514835D01*
X103439500Y-77551250D01*
X103598250Y-77710000D01*
X103900000Y-77713072D01*
X104201750Y-77710000D01*
X104360500Y-77551250D01*
X104360500Y-77514835D01*
X104430537Y-77429494D01*
X104489502Y-77319180D01*
X104525812Y-77199482D01*
X104538072Y-77075000D01*
X104535000Y-76773250D01*
X104376250Y-76614500D01*
X103423750Y-76614500D01*
X103265000Y-76773250D01*
X103261928Y-77075000D01*
X103185500Y-77075000D01*
X103185500Y-76614500D01*
X103165500Y-76614500D01*
X103165500Y-76396250D01*
X103185500Y-76376250D01*
X103185500Y-75900000D01*
X103261928Y-75900000D01*
X103265000Y-76201750D01*
X103423750Y-76360500D01*
X103439500Y-76360500D01*
X103439500Y-76376250D01*
X103598250Y-76535000D01*
X103900000Y-76538072D01*
X104201750Y-76535000D01*
X104360500Y-76376250D01*
X104360500Y-76360500D01*
X104376250Y-76360500D01*
X104535000Y-76201750D01*
X104538072Y-75900000D01*
X104535000Y-75598250D01*
X104376250Y-75439500D01*
X104360500Y-75439500D01*
X104360500Y-75423750D01*
X104201750Y-75265000D01*
X103900000Y-75261928D01*
X103598250Y-75265000D01*
X103439500Y-75423750D01*
X103439500Y-75439500D01*
X103423750Y-75439500D01*
X103265000Y-75598250D01*
X103261928Y-75900000D01*
X103185500Y-75900000D01*
X103185500Y-75423750D01*
X103165500Y-75403750D01*
X103165500Y-75185500D01*
X103185500Y-75185500D01*
X103185500Y-75165500D01*
X103403750Y-75165500D01*
X103423750Y-75185500D01*
X104376250Y-75185500D01*
X104396250Y-75165500D01*
X104614500Y-75165500D01*
X104614500Y-75185500D01*
X104634500Y-75185500D01*
X104634500Y-75403750D01*
X104614500Y-75423750D01*
X104614500Y-76376250D01*
X104634500Y-76396250D01*
X104634500Y-76614500D01*
X104614500Y-76614500D01*
X104614500Y-77551250D01*
X104773250Y-77710000D01*
X105075000Y-77713072D01*
X105199482Y-77700812D01*
X105319180Y-77664502D01*
X105329654Y-77658904D01*
X105348750Y-77678000D01*
X106473000Y-77678000D01*
X106473000Y-77671021D01*
X106543854Y-77678000D01*
X106747000Y-77678000D01*
X106747000Y-77932000D01*
X106727000Y-77932000D01*
X106727000Y-78581250D01*
X106885750Y-78740000D01*
X107375000Y-78743072D01*
X107499482Y-78730812D01*
X107619180Y-78694502D01*
X107702800Y-78649806D01*
X107936518Y-78841613D01*
X108267461Y-79018506D01*
X108626555Y-79127436D01*
X108906418Y-79155000D01*
X110427422Y-79155000D01*
X110521002Y-79164217D01*
X110614582Y-79155000D01*
X110614584Y-79155000D01*
X110894447Y-79127436D01*
X111253541Y-79018506D01*
X111584484Y-78841613D01*
X111874558Y-78603556D01*
X111934221Y-78530856D01*
X112375860Y-78089217D01*
X112448557Y-78029557D01*
X112686614Y-77739483D01*
X112863507Y-77408540D01*
X112887200Y-77330435D01*
X113234997Y-77678233D01*
X113270787Y-77721843D01*
X113314397Y-77757633D01*
X113314398Y-77757634D01*
X113363491Y-77797924D01*
X113444831Y-77864678D01*
X113643397Y-77970813D01*
X113784058Y-78013482D01*
X113858852Y-78036171D01*
X113881520Y-78038404D01*
X114026774Y-78052710D01*
X114026780Y-78052710D01*
X114082919Y-78058239D01*
X114139058Y-78052710D01*
X117448775Y-78052710D01*
X117504914Y-78058239D01*
X117561053Y-78052710D01*
X117561060Y-78052710D01*
X117728981Y-78036171D01*
X117944437Y-77970813D01*
X117996240Y-77943124D01*
X118961928Y-77943124D01*
X118961928Y-78300000D01*
X118974188Y-78424482D01*
X119010498Y-78544180D01*
X119069463Y-78654494D01*
X119148815Y-78751185D01*
X119245506Y-78830537D01*
X119355820Y-78889502D01*
X119475518Y-78925812D01*
X119600000Y-78938072D01*
X122800000Y-78938072D01*
X122924482Y-78925812D01*
X123044180Y-78889502D01*
X123154494Y-78830537D01*
X123185611Y-78805000D01*
X124160925Y-78805000D01*
X125761928Y-80406004D01*
X125761928Y-80750000D01*
X125774188Y-80874482D01*
X125810498Y-80994180D01*
X125869463Y-81104494D01*
X125948815Y-81201185D01*
X126045506Y-81280537D01*
X126155820Y-81339502D01*
X126275518Y-81375812D01*
X126400000Y-81388072D01*
X127096792Y-81388072D01*
X127226555Y-81427435D01*
X127600000Y-81464217D01*
X127973445Y-81427435D01*
X128052458Y-81403467D01*
X126510925Y-82945000D01*
X123108728Y-82945000D01*
X123044180Y-82910498D01*
X122924482Y-82874188D01*
X122800000Y-82861928D01*
X119600000Y-82861928D01*
X119475518Y-82874188D01*
X119355820Y-82910498D01*
X119245506Y-82969463D01*
X119148815Y-83048815D01*
X119069463Y-83145506D01*
X119010498Y-83255820D01*
X118974188Y-83375518D01*
X118961928Y-83500000D01*
X118961928Y-86200000D01*
X118974188Y-86324482D01*
X119010498Y-86444180D01*
X119069463Y-86554494D01*
X119148815Y-86651185D01*
X119245506Y-86730537D01*
X119355820Y-86789502D01*
X119475518Y-86825812D01*
X119600000Y-86838072D01*
X122800000Y-86838072D01*
X122924482Y-86825812D01*
X123044180Y-86789502D01*
X123108728Y-86755000D01*
X127206420Y-86755000D01*
X127300000Y-86764217D01*
X127393580Y-86755000D01*
X127393582Y-86755000D01*
X127673445Y-86727436D01*
X128032539Y-86618506D01*
X128363482Y-86441613D01*
X128653556Y-86203556D01*
X128713220Y-86130855D01*
X134013210Y-80830866D01*
X134191613Y-80613483D01*
X134368505Y-80282540D01*
X134477435Y-79923445D01*
X134514217Y-79550000D01*
X134477435Y-79176555D01*
X134368505Y-78817461D01*
X134191613Y-78486518D01*
X133953555Y-78196445D01*
X133663482Y-77958387D01*
X133332539Y-77781495D01*
X132973445Y-77672565D01*
X132600000Y-77635783D01*
X132226555Y-77672565D01*
X131867460Y-77781495D01*
X131536517Y-77958387D01*
X131319134Y-78136790D01*
X129453467Y-80002458D01*
X129477435Y-79923445D01*
X129514217Y-79550000D01*
X129477435Y-79176555D01*
X129438072Y-79046792D01*
X129438072Y-78350000D01*
X129425812Y-78225518D01*
X129389502Y-78105820D01*
X129330537Y-77995506D01*
X129251185Y-77898815D01*
X129154494Y-77819463D01*
X129044180Y-77760498D01*
X128924482Y-77724188D01*
X128800000Y-77711928D01*
X128456004Y-77711928D01*
X126363220Y-75619145D01*
X126303556Y-75546444D01*
X126013482Y-75308387D01*
X125682539Y-75131494D01*
X125323445Y-75022564D01*
X125043582Y-74995000D01*
X125043580Y-74995000D01*
X124950000Y-74985783D01*
X124856420Y-74995000D01*
X122993090Y-74995000D01*
X122924482Y-74974188D01*
X122800000Y-74961928D01*
X120221130Y-74961928D01*
X120227501Y-74897243D01*
X120227501Y-74897236D01*
X120233030Y-74841097D01*
X120227501Y-74784958D01*
X120227501Y-72874640D01*
X120233030Y-72818501D01*
X120227501Y-72762362D01*
X120227501Y-72762355D01*
X120210962Y-72594434D01*
X120208678Y-72586903D01*
X120191136Y-72529075D01*
X120145604Y-72378978D01*
X120039469Y-72180412D01*
X119896634Y-72006368D01*
X119853025Y-71970579D01*
X118259000Y-70376555D01*
X118259000Y-69785075D01*
X118739076Y-69305000D01*
X120893582Y-69305000D01*
X121173445Y-69277436D01*
X121303211Y-69238072D01*
X122000000Y-69238072D01*
X122124482Y-69225812D01*
X122244180Y-69189502D01*
X122354494Y-69130537D01*
X122451185Y-69051185D01*
X122530537Y-68954494D01*
X122589502Y-68844180D01*
X122625812Y-68724482D01*
X122630391Y-68677980D01*
X124701626Y-68677980D01*
X124821514Y-68962836D01*
X125145210Y-69123699D01*
X125494069Y-69218322D01*
X125854684Y-69243067D01*
X126213198Y-69196985D01*
X126555833Y-69081846D01*
X126778486Y-68962836D01*
X126898374Y-68677980D01*
X125800000Y-67579605D01*
X124701626Y-68677980D01*
X122630391Y-68677980D01*
X122638072Y-68600000D01*
X122638072Y-67903211D01*
X122677436Y-67773445D01*
X122708831Y-67454684D01*
X123956933Y-67454684D01*
X124003015Y-67813198D01*
X124118154Y-68155833D01*
X124237164Y-68378486D01*
X124522020Y-68498374D01*
X125620395Y-67400000D01*
X125979605Y-67400000D01*
X127077980Y-68498374D01*
X127362836Y-68378486D01*
X127523699Y-68054790D01*
X127618322Y-67705931D01*
X127643067Y-67345316D01*
X127596985Y-66986802D01*
X127481846Y-66644167D01*
X127362836Y-66421514D01*
X127077980Y-66301626D01*
X125979605Y-67400000D01*
X125620395Y-67400000D01*
X124522020Y-66301626D01*
X124237164Y-66421514D01*
X124076301Y-66745210D01*
X123981678Y-67094069D01*
X123956933Y-67454684D01*
X122708831Y-67454684D01*
X122714217Y-67400000D01*
X122677436Y-67026555D01*
X122638072Y-66896789D01*
X122638072Y-66200000D01*
X122630392Y-66122020D01*
X124701626Y-66122020D01*
X125800000Y-67220395D01*
X126898374Y-66122020D01*
X126778486Y-65837164D01*
X126454790Y-65676301D01*
X126105931Y-65581678D01*
X125745316Y-65556933D01*
X125386802Y-65603015D01*
X125044167Y-65718154D01*
X124821514Y-65837164D01*
X124701626Y-66122020D01*
X122630392Y-66122020D01*
X122625812Y-66075518D01*
X122589502Y-65955820D01*
X122530537Y-65845506D01*
X122451185Y-65748815D01*
X122354494Y-65669463D01*
X122244180Y-65610498D01*
X122124482Y-65574188D01*
X122000000Y-65561928D01*
X121303211Y-65561928D01*
X121173445Y-65522564D01*
X120893582Y-65495000D01*
X118043580Y-65495000D01*
X117950000Y-65485783D01*
X117856420Y-65495000D01*
X117856418Y-65495000D01*
X117576555Y-65522564D01*
X117217461Y-65631494D01*
X117079477Y-65705248D01*
X116886517Y-65808387D01*
X116803455Y-65876555D01*
X116596444Y-66046444D01*
X116536784Y-66119140D01*
X116086185Y-66569740D01*
X115347928Y-65831483D01*
X115347924Y-65831478D01*
X115347923Y-65831477D01*
X115312133Y-65787867D01*
X115268522Y-65752076D01*
X114332848Y-64816402D01*
X114373000Y-64776250D01*
X114373000Y-63077000D01*
X114627000Y-63077000D01*
X114627000Y-64776250D01*
X114785750Y-64935000D01*
X116100000Y-64938072D01*
X116224482Y-64925812D01*
X116344180Y-64889502D01*
X116454494Y-64830537D01*
X116551185Y-64751185D01*
X116630537Y-64654494D01*
X116689502Y-64544180D01*
X116725812Y-64424482D01*
X116738072Y-64300000D01*
X116737010Y-63932032D01*
X131220000Y-63932032D01*
X131220000Y-64327968D01*
X131297243Y-64716296D01*
X131448761Y-65082092D01*
X131668731Y-65411301D01*
X131948699Y-65691269D01*
X132277908Y-65911239D01*
X132643704Y-66062757D01*
X133032032Y-66140000D01*
X133427968Y-66140000D01*
X133816296Y-66062757D01*
X134182092Y-65911239D01*
X134511301Y-65691269D01*
X134791269Y-65411301D01*
X135011239Y-65082092D01*
X135162757Y-64716296D01*
X135240000Y-64327968D01*
X135240000Y-63932032D01*
X135162757Y-63543704D01*
X135011239Y-63177908D01*
X134791269Y-62848699D01*
X134511301Y-62568731D01*
X134182092Y-62348761D01*
X133816296Y-62197243D01*
X133427968Y-62120000D01*
X133032032Y-62120000D01*
X132643704Y-62197243D01*
X132277908Y-62348761D01*
X131948699Y-62568731D01*
X131668731Y-62848699D01*
X131448761Y-63177908D01*
X131297243Y-63543704D01*
X131220000Y-63932032D01*
X116737010Y-63932032D01*
X116735000Y-63235750D01*
X116576250Y-63077000D01*
X114627000Y-63077000D01*
X114373000Y-63077000D01*
X114353000Y-63077000D01*
X114353000Y-62823000D01*
X114373000Y-62823000D01*
X114373000Y-62803000D01*
X114627000Y-62803000D01*
X114627000Y-62823000D01*
X116576250Y-62823000D01*
X116735000Y-62664250D01*
X116738072Y-61600000D01*
X116725812Y-61475518D01*
X116689502Y-61355820D01*
X116630537Y-61245506D01*
X116580881Y-61185000D01*
X136315001Y-61185000D01*
X136315000Y-125315000D01*
G37*
X136315000Y-125315000D02*
X114972642Y-125315000D01*
X115203482Y-125191613D01*
X115493556Y-124953556D01*
X115553218Y-124880857D01*
X115713210Y-124720866D01*
X115891613Y-124503482D01*
X116068505Y-124172539D01*
X116177435Y-123813445D01*
X116214217Y-123440001D01*
X116177435Y-123066556D01*
X116114629Y-122859513D01*
X116119139Y-122863214D01*
X116406784Y-123150860D01*
X116466445Y-123223557D01*
X116756519Y-123461614D01*
X117087462Y-123638507D01*
X117446556Y-123747437D01*
X117726419Y-123775001D01*
X117726420Y-123775001D01*
X117820000Y-123784218D01*
X117913580Y-123775001D01*
X123036419Y-123775001D01*
X123129999Y-123784218D01*
X123223579Y-123775001D01*
X123223581Y-123775001D01*
X123503444Y-123747437D01*
X123862538Y-123638507D01*
X124193481Y-123461614D01*
X124483555Y-123223557D01*
X124543219Y-123150856D01*
X125762043Y-121932032D01*
X131220000Y-121932032D01*
X131220000Y-122327968D01*
X131297243Y-122716296D01*
X131448761Y-123082092D01*
X131668731Y-123411301D01*
X131948699Y-123691269D01*
X132277908Y-123911239D01*
X132643704Y-124062757D01*
X133032032Y-124140000D01*
X133427968Y-124140000D01*
X133816296Y-124062757D01*
X134182092Y-123911239D01*
X134511301Y-123691269D01*
X134791269Y-123411301D01*
X135011239Y-123082092D01*
X135162757Y-122716296D01*
X135240000Y-122327968D01*
X135240000Y-121932032D01*
X135162757Y-121543704D01*
X135011239Y-121177908D01*
X134791269Y-120848699D01*
X134511301Y-120568731D01*
X134182092Y-120348761D01*
X133816296Y-120197243D01*
X133427968Y-120120000D01*
X133032032Y-120120000D01*
X132643704Y-120197243D01*
X132277908Y-120348761D01*
X131948699Y-120568731D01*
X131668731Y-120848699D01*
X131448761Y-121177908D01*
X131297243Y-121543704D01*
X131220000Y-121932032D01*
X125762043Y-121932032D01*
X127213211Y-120480866D01*
X127391613Y-120263482D01*
X127568506Y-119932540D01*
X127677435Y-119573445D01*
X127714217Y-119200000D01*
X127677435Y-118826555D01*
X127568506Y-118467461D01*
X127391613Y-118136518D01*
X127153556Y-117846444D01*
X126863482Y-117608387D01*
X126532539Y-117431494D01*
X126173445Y-117322565D01*
X125800000Y-117285783D01*
X125528928Y-117312482D01*
X119754517Y-111538072D01*
X120969732Y-111538072D01*
X121066565Y-111567446D01*
X121346428Y-111595010D01*
X121346430Y-111595010D01*
X121440009Y-111604227D01*
X121533589Y-111595010D01*
X129766410Y-111595010D01*
X129859990Y-111604227D01*
X129953570Y-111595010D01*
X129953572Y-111595010D01*
X130233435Y-111567446D01*
X130592529Y-111458516D01*
X130923472Y-111281623D01*
X131213546Y-111043566D01*
X131273210Y-110970865D01*
X134013210Y-108230867D01*
X134191613Y-108013483D01*
X134368505Y-107682540D01*
X134477435Y-107323446D01*
X134514217Y-106950001D01*
X134477435Y-106576556D01*
X134368505Y-106217461D01*
X134191613Y-105886518D01*
X133953555Y-105596445D01*
X133663482Y-105358387D01*
X133332539Y-105181495D01*
X132973444Y-105072565D01*
X132599999Y-105035783D01*
X132226554Y-105072565D01*
X131867460Y-105181495D01*
X131536517Y-105358387D01*
X131319133Y-105536790D01*
X129453468Y-107402456D01*
X129477436Y-107323445D01*
X129505000Y-107043582D01*
X129505000Y-104793571D01*
X129514216Y-104699999D01*
X129505000Y-104606427D01*
X129505000Y-104606418D01*
X129477436Y-104326555D01*
X129368506Y-103967461D01*
X129191613Y-103636518D01*
X128953556Y-103346444D01*
X128880866Y-103286789D01*
X125963220Y-100369145D01*
X125903556Y-100296444D01*
X125613482Y-100058387D01*
X125282539Y-99881494D01*
X124923445Y-99772564D01*
X124643582Y-99745000D01*
X124643580Y-99745000D01*
X124550000Y-99735783D01*
X124456420Y-99745000D01*
X123108728Y-99745000D01*
X123044180Y-99710498D01*
X122924482Y-99674188D01*
X122800000Y-99661928D01*
X120404517Y-99661928D01*
X120828373Y-99238072D01*
X122800000Y-99238072D01*
X122924482Y-99225812D01*
X123044180Y-99189502D01*
X123108728Y-99155000D01*
X128506420Y-99155000D01*
X128600000Y-99164217D01*
X128693580Y-99155000D01*
X128693582Y-99155000D01*
X128973445Y-99127436D01*
X129332539Y-99018506D01*
X129663482Y-98841613D01*
X129953556Y-98603556D01*
X130013220Y-98530855D01*
X134013210Y-94530867D01*
X134191613Y-94313483D01*
X134368505Y-93982540D01*
X134477435Y-93623446D01*
X134514217Y-93250001D01*
X134477435Y-92876556D01*
X134368505Y-92517461D01*
X134191613Y-92186518D01*
X133953555Y-91896445D01*
X133663482Y-91658387D01*
X133332539Y-91481495D01*
X132973444Y-91372565D01*
X132599999Y-91335783D01*
X132226554Y-91372565D01*
X131867460Y-91481495D01*
X131536517Y-91658387D01*
X131319133Y-91836790D01*
X129453468Y-93702455D01*
X129477436Y-93623445D01*
X129505000Y-93343582D01*
X129505000Y-91293579D01*
X129514217Y-91199999D01*
X129495092Y-91005820D01*
X129477436Y-90826555D01*
X129368506Y-90467461D01*
X129283474Y-90308378D01*
X129191613Y-90136517D01*
X129013210Y-89919133D01*
X128953556Y-89846444D01*
X128880865Y-89786788D01*
X127163220Y-88069144D01*
X127103556Y-87996444D01*
X126813482Y-87758387D01*
X126482539Y-87581494D01*
X126123445Y-87472564D01*
X125843582Y-87445000D01*
X125843580Y-87445000D01*
X125750000Y-87435783D01*
X125656420Y-87445000D01*
X123108728Y-87445000D01*
X123044180Y-87410498D01*
X122924482Y-87374188D01*
X122800000Y-87361928D01*
X119600000Y-87361928D01*
X119475518Y-87374188D01*
X119355820Y-87410498D01*
X119245506Y-87469463D01*
X119148815Y-87548815D01*
X119069463Y-87645506D01*
X119010498Y-87755820D01*
X118974188Y-87875518D01*
X118961928Y-88000000D01*
X118961928Y-90700000D01*
X118974188Y-90824482D01*
X119010498Y-90944180D01*
X119069463Y-91054494D01*
X119148815Y-91151185D01*
X119245506Y-91230537D01*
X119355820Y-91289502D01*
X119475518Y-91325812D01*
X119600000Y-91338072D01*
X122800000Y-91338072D01*
X122924482Y-91325812D01*
X123044180Y-91289502D01*
X123108728Y-91255000D01*
X124960924Y-91255000D01*
X125695001Y-91989077D01*
X125695000Y-93343581D01*
X125722564Y-93623444D01*
X125761928Y-93753210D01*
X125761928Y-94450000D01*
X125774188Y-94574482D01*
X125810498Y-94694180D01*
X125869463Y-94804494D01*
X125948815Y-94901185D01*
X126045506Y-94980537D01*
X126155820Y-95039502D01*
X126275518Y-95075812D01*
X126400000Y-95088072D01*
X127096789Y-95088072D01*
X127226555Y-95127436D01*
X127600000Y-95164217D01*
X127973444Y-95127436D01*
X128052457Y-95103468D01*
X127810925Y-95345000D01*
X123108728Y-95345000D01*
X123044180Y-95310498D01*
X122924482Y-95274188D01*
X122800000Y-95261928D01*
X119600000Y-95261928D01*
X119475518Y-95274188D01*
X119355820Y-95310498D01*
X119245506Y-95369463D01*
X119148815Y-95448815D01*
X119069463Y-95545506D01*
X119010498Y-95655820D01*
X118974188Y-95775518D01*
X118961928Y-95900000D01*
X118961928Y-97113152D01*
X118900982Y-97094664D01*
X118776500Y-97082404D01*
X118698278Y-97082404D01*
X118652589Y-97044908D01*
X118454023Y-96938773D01*
X118238567Y-96873415D01*
X118070646Y-96856876D01*
X117319355Y-96856876D01*
X117267552Y-96829187D01*
X117117455Y-96783655D01*
X117052097Y-96763829D01*
X117029429Y-96761596D01*
X116884175Y-96747290D01*
X116884169Y-96747290D01*
X116828030Y-96741761D01*
X116771890Y-96747290D01*
X115086785Y-96747291D01*
X115913210Y-95920867D01*
X116091613Y-95703483D01*
X116268505Y-95372540D01*
X116377435Y-95013446D01*
X116414217Y-94640001D01*
X116377435Y-94266556D01*
X116268505Y-93907461D01*
X116091613Y-93576518D01*
X115917917Y-93364870D01*
X116053565Y-93253547D01*
X116113228Y-93180847D01*
X117520875Y-91773202D01*
X117593566Y-91713546D01*
X117687723Y-91598815D01*
X117831623Y-91423473D01*
X117974275Y-91156589D01*
X118008516Y-91092529D01*
X118117446Y-90733435D01*
X118145010Y-90453572D01*
X118145010Y-90453571D01*
X118154227Y-90359991D01*
X118145010Y-90266411D01*
X118145010Y-84233589D01*
X118154227Y-84140009D01*
X118145010Y-84046428D01*
X118117446Y-83766565D01*
X118008516Y-83407471D01*
X117886126Y-83178495D01*
X117831623Y-83076527D01*
X117665567Y-82874188D01*
X117593566Y-82786454D01*
X117520876Y-82726799D01*
X114938072Y-80143997D01*
X114938072Y-79650000D01*
X114925812Y-79525518D01*
X114889502Y-79405820D01*
X114830537Y-79295506D01*
X114751185Y-79198815D01*
X114654494Y-79119463D01*
X114544180Y-79060498D01*
X114424482Y-79024188D01*
X114300000Y-79011928D01*
X112700000Y-79011928D01*
X112575518Y-79024188D01*
X112455820Y-79060498D01*
X112345506Y-79119463D01*
X112248815Y-79198815D01*
X112169463Y-79295506D01*
X112110498Y-79405820D01*
X112083446Y-79495000D01*
X107316554Y-79495000D01*
X107289502Y-79405820D01*
X107230537Y-79295506D01*
X107151185Y-79198815D01*
X107054494Y-79119463D01*
X106944180Y-79060498D01*
X106824482Y-79024188D01*
X106700000Y-79011928D01*
X105100000Y-79011928D01*
X104975518Y-79024188D01*
X104855820Y-79060498D01*
X104745506Y-79119463D01*
X104648815Y-79198815D01*
X104569463Y-79295506D01*
X104510498Y-79405820D01*
X104483446Y-79495000D01*
X101126445Y-79495000D01*
X101878374Y-78743072D01*
X101975000Y-78743072D01*
X102099482Y-78730812D01*
X102219180Y-78694502D01*
X102329494Y-78635537D01*
X102426185Y-78556185D01*
X102505537Y-78459494D01*
X102564502Y-78349180D01*
X102600812Y-78229482D01*
X102613072Y-78105000D01*
X105186928Y-78105000D01*
X105199188Y-78229482D01*
X105235498Y-78349180D01*
X105294463Y-78459494D01*
X105373815Y-78556185D01*
X105470506Y-78635537D01*
X105580820Y-78694502D01*
X105700518Y-78730812D01*
X105825000Y-78743072D01*
X106314250Y-78740000D01*
X106473000Y-78581250D01*
X106473000Y-77932000D01*
X105348750Y-77932000D01*
X105190000Y-78090750D01*
X105186928Y-78105000D01*
X102613072Y-78105000D01*
X102613072Y-77702048D01*
X102725000Y-77713072D01*
X103026750Y-77710000D01*
X103185500Y-77551250D01*
X103185500Y-77075000D01*
X103261928Y-77075000D01*
X103274188Y-77199482D01*
X103310498Y-77319180D01*
X103369463Y-77429494D01*
X103439500Y-77514835D01*
X103439500Y-77551250D01*
X103598250Y-77710000D01*
X103900000Y-77713072D01*
X104201750Y-77710000D01*
X104360500Y-77551250D01*
X104360500Y-77514835D01*
X104430537Y-77429494D01*
X104489502Y-77319180D01*
X104525812Y-77199482D01*
X104538072Y-77075000D01*
X104535000Y-76773250D01*
X104376250Y-76614500D01*
X103423750Y-76614500D01*
X103265000Y-76773250D01*
X103261928Y-77075000D01*
X103185500Y-77075000D01*
X103185500Y-76614500D01*
X103165500Y-76614500D01*
X103165500Y-76396250D01*
X103185500Y-76376250D01*
X103185500Y-75900000D01*
X103261928Y-75900000D01*
X103265000Y-76201750D01*
X103423750Y-76360500D01*
X103439500Y-76360500D01*
X103439500Y-76376250D01*
X103598250Y-76535000D01*
X103900000Y-76538072D01*
X104201750Y-76535000D01*
X104360500Y-76376250D01*
X104360500Y-76360500D01*
X104376250Y-76360500D01*
X104535000Y-76201750D01*
X104538072Y-75900000D01*
X104535000Y-75598250D01*
X104376250Y-75439500D01*
X104360500Y-75439500D01*
X104360500Y-75423750D01*
X104201750Y-75265000D01*
X103900000Y-75261928D01*
X103598250Y-75265000D01*
X103439500Y-75423750D01*
X103439500Y-75439500D01*
X103423750Y-75439500D01*
X103265000Y-75598250D01*
X103261928Y-75900000D01*
X103185500Y-75900000D01*
X103185500Y-75423750D01*
X103165500Y-75403750D01*
X103165500Y-75185500D01*
X103185500Y-75185500D01*
X103185500Y-75165500D01*
X103403750Y-75165500D01*
X103423750Y-75185500D01*
X104376250Y-75185500D01*
X104396250Y-75165500D01*
X104614500Y-75165500D01*
X104614500Y-75185500D01*
X104634500Y-75185500D01*
X104634500Y-75403750D01*
X104614500Y-75423750D01*
X104614500Y-76376250D01*
X104634500Y-76396250D01*
X104634500Y-76614500D01*
X104614500Y-76614500D01*
X104614500Y-77551250D01*
X104773250Y-77710000D01*
X105075000Y-77713072D01*
X105199482Y-77700812D01*
X105319180Y-77664502D01*
X105329654Y-77658904D01*
X105348750Y-77678000D01*
X106473000Y-77678000D01*
X106473000Y-77671021D01*
X106543854Y-77678000D01*
X106747000Y-77678000D01*
X106747000Y-77932000D01*
X106727000Y-77932000D01*
X106727000Y-78581250D01*
X106885750Y-78740000D01*
X107375000Y-78743072D01*
X107499482Y-78730812D01*
X107619180Y-78694502D01*
X107702800Y-78649806D01*
X107936518Y-78841613D01*
X108267461Y-79018506D01*
X108626555Y-79127436D01*
X108906418Y-79155000D01*
X110427422Y-79155000D01*
X110521002Y-79164217D01*
X110614582Y-79155000D01*
X110614584Y-79155000D01*
X110894447Y-79127436D01*
X111253541Y-79018506D01*
X111584484Y-78841613D01*
X111874558Y-78603556D01*
X111934221Y-78530856D01*
X112375860Y-78089217D01*
X112448557Y-78029557D01*
X112686614Y-77739483D01*
X112863507Y-77408540D01*
X112887200Y-77330435D01*
X113234997Y-77678233D01*
X113270787Y-77721843D01*
X113314397Y-77757633D01*
X113314398Y-77757634D01*
X113363491Y-77797924D01*
X113444831Y-77864678D01*
X113643397Y-77970813D01*
X113784058Y-78013482D01*
X113858852Y-78036171D01*
X113881520Y-78038404D01*
X114026774Y-78052710D01*
X114026780Y-78052710D01*
X114082919Y-78058239D01*
X114139058Y-78052710D01*
X117448775Y-78052710D01*
X117504914Y-78058239D01*
X117561053Y-78052710D01*
X117561060Y-78052710D01*
X117728981Y-78036171D01*
X117944437Y-77970813D01*
X117996240Y-77943124D01*
X118961928Y-77943124D01*
X118961928Y-78300000D01*
X118974188Y-78424482D01*
X119010498Y-78544180D01*
X119069463Y-78654494D01*
X119148815Y-78751185D01*
X119245506Y-78830537D01*
X119355820Y-78889502D01*
X119475518Y-78925812D01*
X119600000Y-78938072D01*
X122800000Y-78938072D01*
X122924482Y-78925812D01*
X123044180Y-78889502D01*
X123154494Y-78830537D01*
X123185611Y-78805000D01*
X124160925Y-78805000D01*
X125761928Y-80406004D01*
X125761928Y-80750000D01*
X125774188Y-80874482D01*
X125810498Y-80994180D01*
X125869463Y-81104494D01*
X125948815Y-81201185D01*
X126045506Y-81280537D01*
X126155820Y-81339502D01*
X126275518Y-81375812D01*
X126400000Y-81388072D01*
X127096792Y-81388072D01*
X127226555Y-81427435D01*
X127600000Y-81464217D01*
X127973445Y-81427435D01*
X128052458Y-81403467D01*
X126510925Y-82945000D01*
X123108728Y-82945000D01*
X123044180Y-82910498D01*
X122924482Y-82874188D01*
X122800000Y-82861928D01*
X119600000Y-82861928D01*
X119475518Y-82874188D01*
X119355820Y-82910498D01*
X119245506Y-82969463D01*
X119148815Y-83048815D01*
X119069463Y-83145506D01*
X119010498Y-83255820D01*
X118974188Y-83375518D01*
X118961928Y-83500000D01*
X118961928Y-86200000D01*
X118974188Y-86324482D01*
X119010498Y-86444180D01*
X119069463Y-86554494D01*
X119148815Y-86651185D01*
X119245506Y-86730537D01*
X119355820Y-86789502D01*
X119475518Y-86825812D01*
X119600000Y-86838072D01*
X122800000Y-86838072D01*
X122924482Y-86825812D01*
X123044180Y-86789502D01*
X123108728Y-86755000D01*
X127206420Y-86755000D01*
X127300000Y-86764217D01*
X127393580Y-86755000D01*
X127393582Y-86755000D01*
X127673445Y-86727436D01*
X128032539Y-86618506D01*
X128363482Y-86441613D01*
X128653556Y-86203556D01*
X128713220Y-86130855D01*
X134013210Y-80830866D01*
X134191613Y-80613483D01*
X134368505Y-80282540D01*
X134477435Y-79923445D01*
X134514217Y-79550000D01*
X134477435Y-79176555D01*
X134368505Y-78817461D01*
X134191613Y-78486518D01*
X133953555Y-78196445D01*
X133663482Y-77958387D01*
X133332539Y-77781495D01*
X132973445Y-77672565D01*
X132600000Y-77635783D01*
X132226555Y-77672565D01*
X131867460Y-77781495D01*
X131536517Y-77958387D01*
X131319134Y-78136790D01*
X129453467Y-80002458D01*
X129477435Y-79923445D01*
X129514217Y-79550000D01*
X129477435Y-79176555D01*
X129438072Y-79046792D01*
X129438072Y-78350000D01*
X129425812Y-78225518D01*
X129389502Y-78105820D01*
X129330537Y-77995506D01*
X129251185Y-77898815D01*
X129154494Y-77819463D01*
X129044180Y-77760498D01*
X128924482Y-77724188D01*
X128800000Y-77711928D01*
X128456004Y-77711928D01*
X126363220Y-75619145D01*
X126303556Y-75546444D01*
X126013482Y-75308387D01*
X125682539Y-75131494D01*
X125323445Y-75022564D01*
X125043582Y-74995000D01*
X125043580Y-74995000D01*
X124950000Y-74985783D01*
X124856420Y-74995000D01*
X122993090Y-74995000D01*
X122924482Y-74974188D01*
X122800000Y-74961928D01*
X120221130Y-74961928D01*
X120227501Y-74897243D01*
X120227501Y-74897236D01*
X120233030Y-74841097D01*
X120227501Y-74784958D01*
X120227501Y-72874640D01*
X120233030Y-72818501D01*
X120227501Y-72762362D01*
X120227501Y-72762355D01*
X120210962Y-72594434D01*
X120208678Y-72586903D01*
X120191136Y-72529075D01*
X120145604Y-72378978D01*
X120039469Y-72180412D01*
X119896634Y-72006368D01*
X119853025Y-71970579D01*
X118259000Y-70376555D01*
X118259000Y-69785075D01*
X118739076Y-69305000D01*
X120893582Y-69305000D01*
X121173445Y-69277436D01*
X121303211Y-69238072D01*
X122000000Y-69238072D01*
X122124482Y-69225812D01*
X122244180Y-69189502D01*
X122354494Y-69130537D01*
X122451185Y-69051185D01*
X122530537Y-68954494D01*
X122589502Y-68844180D01*
X122625812Y-68724482D01*
X122630391Y-68677980D01*
X124701626Y-68677980D01*
X124821514Y-68962836D01*
X125145210Y-69123699D01*
X125494069Y-69218322D01*
X125854684Y-69243067D01*
X126213198Y-69196985D01*
X126555833Y-69081846D01*
X126778486Y-68962836D01*
X126898374Y-68677980D01*
X125800000Y-67579605D01*
X124701626Y-68677980D01*
X122630391Y-68677980D01*
X122638072Y-68600000D01*
X122638072Y-67903211D01*
X122677436Y-67773445D01*
X122708831Y-67454684D01*
X123956933Y-67454684D01*
X124003015Y-67813198D01*
X124118154Y-68155833D01*
X124237164Y-68378486D01*
X124522020Y-68498374D01*
X125620395Y-67400000D01*
X125979605Y-67400000D01*
X127077980Y-68498374D01*
X127362836Y-68378486D01*
X127523699Y-68054790D01*
X127618322Y-67705931D01*
X127643067Y-67345316D01*
X127596985Y-66986802D01*
X127481846Y-66644167D01*
X127362836Y-66421514D01*
X127077980Y-66301626D01*
X125979605Y-67400000D01*
X125620395Y-67400000D01*
X124522020Y-66301626D01*
X124237164Y-66421514D01*
X124076301Y-66745210D01*
X123981678Y-67094069D01*
X123956933Y-67454684D01*
X122708831Y-67454684D01*
X122714217Y-67400000D01*
X122677436Y-67026555D01*
X122638072Y-66896789D01*
X122638072Y-66200000D01*
X122630392Y-66122020D01*
X124701626Y-66122020D01*
X125800000Y-67220395D01*
X126898374Y-66122020D01*
X126778486Y-65837164D01*
X126454790Y-65676301D01*
X126105931Y-65581678D01*
X125745316Y-65556933D01*
X125386802Y-65603015D01*
X125044167Y-65718154D01*
X124821514Y-65837164D01*
X124701626Y-66122020D01*
X122630392Y-66122020D01*
X122625812Y-66075518D01*
X122589502Y-65955820D01*
X122530537Y-65845506D01*
X122451185Y-65748815D01*
X122354494Y-65669463D01*
X122244180Y-65610498D01*
X122124482Y-65574188D01*
X122000000Y-65561928D01*
X121303211Y-65561928D01*
X121173445Y-65522564D01*
X120893582Y-65495000D01*
X118043580Y-65495000D01*
X117950000Y-65485783D01*
X117856420Y-65495000D01*
X117856418Y-65495000D01*
X117576555Y-65522564D01*
X117217461Y-65631494D01*
X117079477Y-65705248D01*
X116886517Y-65808387D01*
X116803455Y-65876555D01*
X116596444Y-66046444D01*
X116536784Y-66119140D01*
X116086185Y-66569740D01*
X115347928Y-65831483D01*
X115347924Y-65831478D01*
X115347923Y-65831477D01*
X115312133Y-65787867D01*
X115268522Y-65752076D01*
X114332848Y-64816402D01*
X114373000Y-64776250D01*
X114373000Y-63077000D01*
X114627000Y-63077000D01*
X114627000Y-64776250D01*
X114785750Y-64935000D01*
X116100000Y-64938072D01*
X116224482Y-64925812D01*
X116344180Y-64889502D01*
X116454494Y-64830537D01*
X116551185Y-64751185D01*
X116630537Y-64654494D01*
X116689502Y-64544180D01*
X116725812Y-64424482D01*
X116738072Y-64300000D01*
X116737010Y-63932032D01*
X131220000Y-63932032D01*
X131220000Y-64327968D01*
X131297243Y-64716296D01*
X131448761Y-65082092D01*
X131668731Y-65411301D01*
X131948699Y-65691269D01*
X132277908Y-65911239D01*
X132643704Y-66062757D01*
X133032032Y-66140000D01*
X133427968Y-66140000D01*
X133816296Y-66062757D01*
X134182092Y-65911239D01*
X134511301Y-65691269D01*
X134791269Y-65411301D01*
X135011239Y-65082092D01*
X135162757Y-64716296D01*
X135240000Y-64327968D01*
X135240000Y-63932032D01*
X135162757Y-63543704D01*
X135011239Y-63177908D01*
X134791269Y-62848699D01*
X134511301Y-62568731D01*
X134182092Y-62348761D01*
X133816296Y-62197243D01*
X133427968Y-62120000D01*
X133032032Y-62120000D01*
X132643704Y-62197243D01*
X132277908Y-62348761D01*
X131948699Y-62568731D01*
X131668731Y-62848699D01*
X131448761Y-63177908D01*
X131297243Y-63543704D01*
X131220000Y-63932032D01*
X116737010Y-63932032D01*
X116735000Y-63235750D01*
X116576250Y-63077000D01*
X114627000Y-63077000D01*
X114373000Y-63077000D01*
X114353000Y-63077000D01*
X114353000Y-62823000D01*
X114373000Y-62823000D01*
X114373000Y-62803000D01*
X114627000Y-62803000D01*
X114627000Y-62823000D01*
X116576250Y-62823000D01*
X116735000Y-62664250D01*
X116738072Y-61600000D01*
X116725812Y-61475518D01*
X116689502Y-61355820D01*
X116630537Y-61245506D01*
X116580881Y-61185000D01*
X136315001Y-61185000D01*
X136315000Y-125315000D01*
G36*
X81191494Y-72272538D02*
G01*
X81368387Y-72603482D01*
X81606444Y-72893556D01*
X81851358Y-73094551D01*
X81688359Y-73313080D01*
X81563175Y-73575901D01*
X81518524Y-73723110D01*
X81639845Y-73953000D01*
X82833000Y-73953000D01*
X82833000Y-73933000D01*
X83087000Y-73933000D01*
X83087000Y-73953000D01*
X83107000Y-73953000D01*
X83107000Y-74207000D01*
X83087000Y-74207000D01*
X83087000Y-74227000D01*
X82833000Y-74227000D01*
X82833000Y-74207000D01*
X81639845Y-74207000D01*
X81518524Y-74436890D01*
X81563175Y-74584099D01*
X81688359Y-74846920D01*
X81862412Y-75080269D01*
X82078645Y-75275178D01*
X82195534Y-75344805D01*
X82013368Y-75466525D01*
X81806525Y-75673368D01*
X81644010Y-75916589D01*
X81532068Y-76186842D01*
X81475000Y-76473740D01*
X81475000Y-76766260D01*
X81532068Y-77053158D01*
X81644010Y-77323411D01*
X81806525Y-77566632D01*
X82013368Y-77773475D01*
X82187760Y-77890000D01*
X82013368Y-78006525D01*
X81806525Y-78213368D01*
X81644010Y-78456589D01*
X81532068Y-78726842D01*
X81475000Y-79013740D01*
X81475000Y-79306260D01*
X81532068Y-79593158D01*
X81644010Y-79863411D01*
X81806525Y-80106632D01*
X82013368Y-80313475D01*
X82187760Y-80430000D01*
X82013368Y-80546525D01*
X81806525Y-80753368D01*
X81644010Y-80996589D01*
X81532068Y-81266842D01*
X81475000Y-81553740D01*
X81475000Y-81846260D01*
X81532068Y-82133158D01*
X81644010Y-82403411D01*
X81806525Y-82646632D01*
X82013368Y-82853475D01*
X82195534Y-82975195D01*
X82078645Y-83044822D01*
X81862412Y-83239731D01*
X81688359Y-83473080D01*
X81563175Y-83735901D01*
X81518524Y-83883110D01*
X81639845Y-84113000D01*
X82833000Y-84113000D01*
X82833000Y-84093000D01*
X83087000Y-84093000D01*
X83087000Y-84113000D01*
X83107000Y-84113000D01*
X83107000Y-84367000D01*
X83087000Y-84367000D01*
X83087000Y-84387000D01*
X82833000Y-84387000D01*
X82833000Y-84367000D01*
X81639845Y-84367000D01*
X81518524Y-84596890D01*
X81563175Y-84744099D01*
X81688359Y-85006920D01*
X81862412Y-85240269D01*
X82078645Y-85435178D01*
X82195534Y-85504805D01*
X82013368Y-85626525D01*
X81806525Y-85833368D01*
X81644010Y-86076589D01*
X81532068Y-86346842D01*
X81475000Y-86633740D01*
X81475000Y-86926260D01*
X81532068Y-87213158D01*
X81644010Y-87483411D01*
X81806525Y-87726632D01*
X82013368Y-87933475D01*
X82187760Y-88050000D01*
X82013368Y-88166525D01*
X81806525Y-88373368D01*
X81644010Y-88616589D01*
X81532068Y-88886842D01*
X81475000Y-89173740D01*
X81475000Y-89466260D01*
X81532068Y-89753158D01*
X81644010Y-90023411D01*
X81806525Y-90266632D01*
X82013368Y-90473475D01*
X82195534Y-90595195D01*
X82078645Y-90664822D01*
X81862412Y-90859731D01*
X81688359Y-91093080D01*
X81563175Y-91355901D01*
X81518524Y-91503110D01*
X81639845Y-91733000D01*
X82833000Y-91733000D01*
X82833000Y-91713000D01*
X83087000Y-91713000D01*
X83087000Y-91733000D01*
X83107000Y-91733000D01*
X83107000Y-91987000D01*
X83087000Y-91987000D01*
X83087000Y-92007000D01*
X82833000Y-92007000D01*
X82833000Y-91987000D01*
X81639845Y-91987000D01*
X81518524Y-92216890D01*
X81563175Y-92364099D01*
X81688359Y-92626920D01*
X81862412Y-92860269D01*
X82078645Y-93055178D01*
X82195534Y-93124805D01*
X82013368Y-93246525D01*
X81806525Y-93453368D01*
X81644010Y-93696589D01*
X81532068Y-93966842D01*
X81475000Y-94253740D01*
X81475000Y-94546260D01*
X81532068Y-94833158D01*
X81644010Y-95103411D01*
X81806525Y-95346632D01*
X82013368Y-95553475D01*
X82187760Y-95670000D01*
X82013368Y-95786525D01*
X81806525Y-95993368D01*
X81644010Y-96236589D01*
X81532068Y-96506842D01*
X81475000Y-96793740D01*
X81475000Y-97086260D01*
X81532068Y-97373158D01*
X81644010Y-97643411D01*
X81806525Y-97886632D01*
X82013368Y-98093475D01*
X82187760Y-98210000D01*
X82013368Y-98326525D01*
X81806525Y-98533368D01*
X81644010Y-98776589D01*
X81532068Y-99046842D01*
X81475000Y-99333740D01*
X81475000Y-99626260D01*
X81532068Y-99913158D01*
X81644010Y-100183411D01*
X81806525Y-100426632D01*
X82013368Y-100633475D01*
X82187760Y-100750000D01*
X82013368Y-100866525D01*
X81806525Y-101073368D01*
X81644010Y-101316589D01*
X81532068Y-101586842D01*
X81475000Y-101873740D01*
X81475000Y-102166260D01*
X81532068Y-102453158D01*
X81644010Y-102723411D01*
X81806525Y-102966632D01*
X82013368Y-103173475D01*
X82195534Y-103295195D01*
X82078645Y-103364822D01*
X81862412Y-103559731D01*
X81688359Y-103793080D01*
X81563175Y-104055901D01*
X81518524Y-104203110D01*
X81639845Y-104433000D01*
X82833000Y-104433000D01*
X82833000Y-104413000D01*
X83087000Y-104413000D01*
X83087000Y-104433000D01*
X83107000Y-104433000D01*
X83107000Y-104687000D01*
X83087000Y-104687000D01*
X83087000Y-104707000D01*
X82833000Y-104707000D01*
X82833000Y-104687000D01*
X81639845Y-104687000D01*
X81518524Y-104916890D01*
X81563175Y-105064099D01*
X81688359Y-105326920D01*
X81862412Y-105560269D01*
X82078645Y-105755178D01*
X82195534Y-105824805D01*
X82013368Y-105946525D01*
X81806525Y-106153368D01*
X81644010Y-106396589D01*
X81532068Y-106666842D01*
X81475000Y-106953740D01*
X81475000Y-107246260D01*
X81532068Y-107533158D01*
X81644010Y-107803411D01*
X81806525Y-108046632D01*
X82013368Y-108253475D01*
X82195534Y-108375195D01*
X82078645Y-108444822D01*
X81862412Y-108639731D01*
X81688359Y-108873080D01*
X81563175Y-109135901D01*
X81518524Y-109283110D01*
X81639845Y-109513000D01*
X82833000Y-109513000D01*
X82833000Y-109493000D01*
X83087000Y-109493000D01*
X83087000Y-109513000D01*
X83107000Y-109513000D01*
X83107000Y-109767000D01*
X83087000Y-109767000D01*
X83087000Y-109787000D01*
X82833000Y-109787000D01*
X82833000Y-109767000D01*
X81639845Y-109767000D01*
X81518524Y-109996890D01*
X81563175Y-110144099D01*
X81688359Y-110406920D01*
X81862412Y-110640269D01*
X82078645Y-110835178D01*
X82195534Y-110904805D01*
X82013368Y-111026525D01*
X81806525Y-111233368D01*
X81644010Y-111476589D01*
X81532068Y-111746842D01*
X81475000Y-112033740D01*
X81475000Y-112326260D01*
X81532068Y-112613158D01*
X81644010Y-112883411D01*
X81806525Y-113126632D01*
X82013368Y-113333475D01*
X82187760Y-113450000D01*
X82013368Y-113566525D01*
X81806525Y-113773368D01*
X81644010Y-114016589D01*
X81532068Y-114286842D01*
X81475000Y-114573740D01*
X81475000Y-114866260D01*
X81532068Y-115153158D01*
X81644010Y-115423411D01*
X81806525Y-115666632D01*
X82013368Y-115873475D01*
X82187760Y-115990000D01*
X82013368Y-116106525D01*
X81806525Y-116313368D01*
X81644010Y-116556589D01*
X81532068Y-116826842D01*
X81475000Y-117113740D01*
X81475000Y-117406260D01*
X81532068Y-117693158D01*
X81644010Y-117963411D01*
X81806525Y-118206632D01*
X82013368Y-118413475D01*
X82256589Y-118575990D01*
X82526842Y-118687932D01*
X82813740Y-118745000D01*
X83106260Y-118745000D01*
X83393158Y-118687932D01*
X83663411Y-118575990D01*
X83906632Y-118413475D01*
X84113475Y-118206632D01*
X84231100Y-118030594D01*
X84402412Y-118260269D01*
X84618645Y-118455178D01*
X84868748Y-118604157D01*
X85143109Y-118701481D01*
X85373000Y-118580814D01*
X85373000Y-117387000D01*
X85627000Y-117387000D01*
X85627000Y-118580814D01*
X85856891Y-118701481D01*
X86131252Y-118604157D01*
X86381355Y-118455178D01*
X86597588Y-118260269D01*
X86771641Y-118026920D01*
X86896825Y-117764099D01*
X86941476Y-117616890D01*
X86820155Y-117387000D01*
X85627000Y-117387000D01*
X85373000Y-117387000D01*
X85353000Y-117387000D01*
X85353000Y-117133000D01*
X85373000Y-117133000D01*
X85373000Y-117113000D01*
X85627000Y-117113000D01*
X85627000Y-117133000D01*
X86820155Y-117133000D01*
X86941476Y-116903110D01*
X86896825Y-116755901D01*
X86771641Y-116493080D01*
X86597588Y-116259731D01*
X86381355Y-116064822D01*
X86264466Y-115995195D01*
X86446632Y-115873475D01*
X86653475Y-115666632D01*
X86815990Y-115423411D01*
X86927932Y-115153158D01*
X86985000Y-114866260D01*
X86985000Y-114573740D01*
X86927932Y-114286842D01*
X86815990Y-114016589D01*
X86653475Y-113773368D01*
X86530107Y-113650000D01*
X86961928Y-113650000D01*
X86974188Y-113774482D01*
X87010498Y-113894180D01*
X87069463Y-114004494D01*
X87148815Y-114101185D01*
X87245506Y-114180537D01*
X87355820Y-114239502D01*
X87475518Y-114275812D01*
X87600000Y-114288072D01*
X87914250Y-114285000D01*
X88073000Y-114126250D01*
X88073000Y-113327000D01*
X87123750Y-113327000D01*
X86965000Y-113485750D01*
X86961928Y-113650000D01*
X86530107Y-113650000D01*
X86446632Y-113566525D01*
X86272240Y-113450000D01*
X86446632Y-113333475D01*
X86653475Y-113126632D01*
X86815990Y-112883411D01*
X86848262Y-112805498D01*
X86936503Y-112893739D01*
X86964340Y-112927658D01*
X87042793Y-112992043D01*
X87123750Y-113073000D01*
X87163781Y-113073000D01*
X87254148Y-113121302D01*
X87320057Y-113141295D01*
X87421723Y-113172135D01*
X87454923Y-113175405D01*
X87552332Y-113184999D01*
X87552338Y-113184999D01*
X87595998Y-113189299D01*
X87639658Y-113184999D01*
X88347000Y-113184999D01*
X88347000Y-113327000D01*
X88327000Y-113327000D01*
X88327000Y-114126250D01*
X88485750Y-114285000D01*
X88800000Y-114288072D01*
X88924482Y-114275812D01*
X89044180Y-114239502D01*
X89154494Y-114180537D01*
X89251185Y-114101185D01*
X89300000Y-114041704D01*
X89348815Y-114101185D01*
X89445506Y-114180537D01*
X89555820Y-114239502D01*
X89675518Y-114275812D01*
X89800000Y-114288072D01*
X90611928Y-114288072D01*
X90611928Y-117750000D01*
X90624188Y-117874482D01*
X90660498Y-117994180D01*
X90719463Y-118104494D01*
X90798815Y-118201185D01*
X90895506Y-118280537D01*
X91005820Y-118339502D01*
X91125518Y-118375812D01*
X91250000Y-118388072D01*
X94750000Y-118388072D01*
X94874482Y-118375812D01*
X94994180Y-118339502D01*
X95104494Y-118280537D01*
X95201185Y-118201185D01*
X95280537Y-118104494D01*
X95313591Y-118042655D01*
X95315000Y-118714250D01*
X95473750Y-118873000D01*
X97573000Y-118873000D01*
X97573000Y-118853000D01*
X97827000Y-118853000D01*
X97827000Y-118873000D01*
X97847000Y-118873000D01*
X97847000Y-119127000D01*
X97827000Y-119127000D01*
X97827000Y-121226250D01*
X97985750Y-121385000D01*
X99450000Y-121388072D01*
X99574482Y-121375812D01*
X99694180Y-121339502D01*
X99767671Y-121300220D01*
X99908387Y-121563482D01*
X100146444Y-121853556D01*
X100391358Y-122054551D01*
X100228359Y-122273080D01*
X100103175Y-122535901D01*
X100058524Y-122683110D01*
X100179845Y-122913000D01*
X101373000Y-122913000D01*
X101373000Y-122893000D01*
X101627000Y-122893000D01*
X101627000Y-122913000D01*
X102820155Y-122913000D01*
X102941476Y-122683110D01*
X102896825Y-122535901D01*
X102771641Y-122273080D01*
X102608642Y-122054551D01*
X102853556Y-121853556D01*
X103091613Y-121563482D01*
X103268506Y-121232539D01*
X103284444Y-121180000D01*
X106293582Y-121180000D01*
X106573445Y-121152436D01*
X106932539Y-121043506D01*
X107176563Y-120913072D01*
X107700000Y-120913072D01*
X107824482Y-120900812D01*
X107944180Y-120864502D01*
X108054494Y-120805537D01*
X108151185Y-120726185D01*
X108230537Y-120629494D01*
X108289502Y-120519180D01*
X108325812Y-120399482D01*
X108338072Y-120275000D01*
X108338072Y-118275000D01*
X108325812Y-118150518D01*
X108289502Y-118030820D01*
X108230537Y-117920506D01*
X108151185Y-117823815D01*
X108054494Y-117744463D01*
X107944180Y-117685498D01*
X107824482Y-117649188D01*
X107700000Y-117636928D01*
X107176563Y-117636928D01*
X106932539Y-117506494D01*
X106573445Y-117397564D01*
X106293582Y-117370000D01*
X103405000Y-117370000D01*
X103405000Y-117324138D01*
X103519180Y-117289502D01*
X103629494Y-117230537D01*
X103726185Y-117151185D01*
X103805537Y-117054494D01*
X103864502Y-116944180D01*
X103900812Y-116824482D01*
X103913072Y-116700000D01*
X103913072Y-116176563D01*
X104043506Y-115932539D01*
X104152436Y-115573445D01*
X104189217Y-115200000D01*
X104152436Y-114826555D01*
X104043506Y-114467461D01*
X103913072Y-114223437D01*
X103913072Y-113700000D01*
X103900812Y-113575518D01*
X103864502Y-113455820D01*
X103805537Y-113345506D01*
X103726185Y-113248815D01*
X103629494Y-113169463D01*
X103519180Y-113110498D01*
X103399482Y-113074188D01*
X103275000Y-113061928D01*
X101275000Y-113061928D01*
X101150518Y-113074188D01*
X101030820Y-113110498D01*
X100920506Y-113169463D01*
X100823815Y-113248815D01*
X100785912Y-113295000D01*
X95738072Y-113295000D01*
X95738072Y-112750000D01*
X95725812Y-112625518D01*
X95689502Y-112505820D01*
X95630537Y-112395506D01*
X95551185Y-112298815D01*
X95454494Y-112219463D01*
X95344180Y-112160498D01*
X95224482Y-112124188D01*
X95100000Y-112111928D01*
X93900000Y-112111928D01*
X93775518Y-112124188D01*
X93655820Y-112160498D01*
X93545506Y-112219463D01*
X93448815Y-112298815D01*
X93400000Y-112358296D01*
X93351185Y-112298815D01*
X93254494Y-112219463D01*
X93144180Y-112160498D01*
X93024482Y-112124188D01*
X92900000Y-112111928D01*
X91700000Y-112111928D01*
X91575518Y-112124188D01*
X91455820Y-112160498D01*
X91350000Y-112217061D01*
X91244180Y-112160498D01*
X91124482Y-112124188D01*
X91000000Y-112111928D01*
X90569163Y-112111928D01*
X90155498Y-111698263D01*
X90127658Y-111664340D01*
X90044987Y-111596493D01*
X90067461Y-111608506D01*
X90426555Y-111717436D01*
X90706418Y-111745000D01*
X93811461Y-111745000D01*
X93905041Y-111754217D01*
X93998621Y-111745000D01*
X93998623Y-111745000D01*
X94278486Y-111717436D01*
X94637580Y-111608506D01*
X94968523Y-111431613D01*
X95258597Y-111193556D01*
X95318261Y-111120855D01*
X95997766Y-110441350D01*
X96031495Y-110552539D01*
X96208387Y-110883482D01*
X96446445Y-111173555D01*
X96736518Y-111411613D01*
X97067461Y-111588505D01*
X97426555Y-111697435D01*
X97800000Y-111734217D01*
X98173445Y-111697435D01*
X98532539Y-111588505D01*
X98863482Y-111411613D01*
X98871540Y-111405000D01*
X103193582Y-111405000D01*
X103473445Y-111377436D01*
X103832539Y-111268506D01*
X104163482Y-111091613D01*
X104453556Y-110853556D01*
X104691613Y-110563482D01*
X104868506Y-110232539D01*
X104977436Y-109873445D01*
X105014217Y-109500000D01*
X104977436Y-109126555D01*
X104868506Y-108767461D01*
X104691613Y-108436518D01*
X104453556Y-108146444D01*
X104211946Y-107948161D01*
X104253475Y-107906632D01*
X104415990Y-107663411D01*
X104527932Y-107393158D01*
X104585000Y-107106260D01*
X104585000Y-106813740D01*
X104527932Y-106526842D01*
X104415990Y-106256589D01*
X104253475Y-106013368D01*
X104211946Y-105971839D01*
X104453556Y-105773556D01*
X104691613Y-105483482D01*
X104868506Y-105152539D01*
X104902235Y-105041351D01*
X107241753Y-107380870D01*
X107301413Y-107453566D01*
X107465673Y-107588370D01*
X107591486Y-107691623D01*
X107768379Y-107786174D01*
X107922430Y-107868516D01*
X108281524Y-107977446D01*
X108561387Y-108005010D01*
X108561389Y-108005010D01*
X108654969Y-108014227D01*
X108748549Y-108005010D01*
X110493582Y-108005010D01*
X110773445Y-107977446D01*
X111132539Y-107868516D01*
X111463482Y-107691623D01*
X111753556Y-107453566D01*
X111991613Y-107163492D01*
X112168506Y-106832549D01*
X112277436Y-106473455D01*
X112314217Y-106100010D01*
X112277436Y-105726565D01*
X112168506Y-105367471D01*
X111991613Y-105036528D01*
X111861330Y-104877777D01*
X111839502Y-104805820D01*
X111780537Y-104695506D01*
X111774453Y-104688093D01*
X111991613Y-104423482D01*
X112168506Y-104092539D01*
X112277436Y-103733445D01*
X112305000Y-103453582D01*
X112305000Y-101701387D01*
X112344180Y-101689502D01*
X112454494Y-101630537D01*
X112551185Y-101551185D01*
X112630537Y-101454494D01*
X112689502Y-101344180D01*
X112725812Y-101224482D01*
X112738072Y-101100000D01*
X112738072Y-100973114D01*
X112811359Y-101062414D01*
X112854969Y-101098204D01*
X113634997Y-101878233D01*
X113670787Y-101921843D01*
X113844831Y-102064678D01*
X114043397Y-102170813D01*
X114193494Y-102216345D01*
X114258852Y-102236171D01*
X114281520Y-102238404D01*
X114426774Y-102252710D01*
X114426780Y-102252710D01*
X114482919Y-102258239D01*
X114539058Y-102252710D01*
X116871500Y-102252710D01*
X116871500Y-102632763D01*
X116865971Y-102688902D01*
X116871500Y-102745041D01*
X116871500Y-102745048D01*
X116876273Y-102793506D01*
X116888039Y-102912969D01*
X116950393Y-103118519D01*
X116953398Y-103128425D01*
X117059533Y-103326991D01*
X117124805Y-103406525D01*
X117153724Y-103441762D01*
X117202368Y-103501035D01*
X117218564Y-103514327D01*
X117083542Y-103473368D01*
X117052097Y-103463829D01*
X117029429Y-103461596D01*
X116884175Y-103447290D01*
X116884169Y-103447290D01*
X116828030Y-103441761D01*
X116771890Y-103447290D01*
X114539066Y-103447292D01*
X114482918Y-103441762D01*
X114258851Y-103463830D01*
X114043395Y-103529189D01*
X113844829Y-103635324D01*
X113714397Y-103742367D01*
X113714390Y-103742374D01*
X113670786Y-103778159D01*
X113635000Y-103821764D01*
X112854967Y-104601798D01*
X112811357Y-104637588D01*
X112668522Y-104811632D01*
X112562387Y-105010198D01*
X112526499Y-105128506D01*
X112497029Y-105225653D01*
X112495869Y-105237436D01*
X112480490Y-105393575D01*
X112480490Y-105393581D01*
X112474961Y-105449720D01*
X112480490Y-105505860D01*
X112480492Y-106894134D01*
X112474962Y-106950281D01*
X112497030Y-107174348D01*
X112561864Y-107388072D01*
X112562389Y-107389804D01*
X112668524Y-107588370D01*
X112707435Y-107635783D01*
X112760239Y-107700124D01*
X112811359Y-107762414D01*
X112854969Y-107798204D01*
X113634997Y-108578233D01*
X113670787Y-108621843D01*
X113844831Y-108764678D01*
X114043397Y-108870813D01*
X114139751Y-108900042D01*
X114011629Y-108968524D01*
X113881197Y-109075567D01*
X113881190Y-109075574D01*
X113837586Y-109111359D01*
X113801800Y-109154964D01*
X113021772Y-109934993D01*
X112978157Y-109970787D01*
X112835322Y-110144832D01*
X112729187Y-110343398D01*
X112709942Y-110406841D01*
X112663829Y-110558853D01*
X112662481Y-110572539D01*
X112647290Y-110726775D01*
X112647290Y-110726781D01*
X112641761Y-110782920D01*
X112647290Y-110839059D01*
X112647291Y-114148766D01*
X112641761Y-114204914D01*
X112663829Y-114428981D01*
X112710413Y-114582544D01*
X112728297Y-114641501D01*
X112638072Y-114641501D01*
X112638072Y-114350000D01*
X112625812Y-114225518D01*
X112589502Y-114105820D01*
X112530537Y-113995506D01*
X112451185Y-113898815D01*
X112354494Y-113819463D01*
X112244180Y-113760498D01*
X112124482Y-113724188D01*
X112000000Y-113711928D01*
X111425475Y-113711928D01*
X111463482Y-113691613D01*
X111753556Y-113453556D01*
X111991613Y-113163482D01*
X112168506Y-112832539D01*
X112277436Y-112473445D01*
X112314217Y-112100000D01*
X112277436Y-111726555D01*
X112168506Y-111367461D01*
X111991613Y-111036518D01*
X111753556Y-110746444D01*
X111511946Y-110548161D01*
X111553475Y-110506632D01*
X111715990Y-110263411D01*
X111827932Y-109993158D01*
X111885000Y-109706260D01*
X111885000Y-109413740D01*
X111827932Y-109126842D01*
X111715990Y-108856589D01*
X111553475Y-108613368D01*
X111346632Y-108406525D01*
X111103411Y-108244010D01*
X110833158Y-108132068D01*
X110546260Y-108075000D01*
X110253740Y-108075000D01*
X109966842Y-108132068D01*
X109696589Y-108244010D01*
X109453368Y-108406525D01*
X109246525Y-108613368D01*
X109084010Y-108856589D01*
X108972068Y-109126842D01*
X108915000Y-109413740D01*
X108915000Y-109706260D01*
X108972068Y-109993158D01*
X109055673Y-110195000D01*
X108497577Y-110195000D01*
X108403997Y-110185783D01*
X108310417Y-110195000D01*
X108310416Y-110195000D01*
X108030553Y-110222564D01*
X107671459Y-110331494D01*
X107556186Y-110393109D01*
X107340515Y-110508387D01*
X107273382Y-110563482D01*
X107050442Y-110746444D01*
X106990782Y-110819140D01*
X105644140Y-112165783D01*
X105571445Y-112225442D01*
X105448955Y-112374697D01*
X105333387Y-112515516D01*
X105195093Y-112774247D01*
X105156495Y-112846459D01*
X105047565Y-113205553D01*
X105022165Y-113463442D01*
X105010783Y-113578998D01*
X105020000Y-113672578D01*
X105020000Y-115293581D01*
X105047564Y-115573444D01*
X105156494Y-115932538D01*
X105286928Y-116176563D01*
X105286928Y-116700000D01*
X105299188Y-116824482D01*
X105335498Y-116944180D01*
X105394463Y-117054494D01*
X105473815Y-117151185D01*
X105570506Y-117230537D01*
X105680820Y-117289502D01*
X105800518Y-117325812D01*
X105925000Y-117338072D01*
X107925000Y-117338072D01*
X108049482Y-117325812D01*
X108169180Y-117289502D01*
X108203512Y-117271151D01*
X108210498Y-117294180D01*
X108269463Y-117404494D01*
X108348815Y-117501185D01*
X108445506Y-117580537D01*
X108555820Y-117639502D01*
X108675518Y-117675812D01*
X108800000Y-117688072D01*
X109693996Y-117688072D01*
X109833285Y-117827361D01*
X109892945Y-117900057D01*
X110183019Y-118138114D01*
X110513962Y-118315007D01*
X110873056Y-118423937D01*
X111152919Y-118451501D01*
X111152920Y-118451501D01*
X111246500Y-118460718D01*
X111340080Y-118451501D01*
X113503428Y-118451501D01*
X114463854Y-119411928D01*
X113450000Y-119411928D01*
X113325518Y-119424188D01*
X113205820Y-119460498D01*
X113095506Y-119519463D01*
X112998815Y-119598815D01*
X112919463Y-119695506D01*
X112860498Y-119805820D01*
X112824188Y-119925518D01*
X112811928Y-120050000D01*
X112811928Y-121695000D01*
X112308728Y-121695000D01*
X112244180Y-121660498D01*
X112124482Y-121624188D01*
X112000000Y-121611928D01*
X108800000Y-121611928D01*
X108675518Y-121624188D01*
X108555820Y-121660498D01*
X108445506Y-121719463D01*
X108348815Y-121798815D01*
X108269463Y-121895506D01*
X108210498Y-122005820D01*
X108174188Y-122125518D01*
X108161928Y-122250000D01*
X108161928Y-122486905D01*
X108151185Y-122473815D01*
X108054494Y-122394463D01*
X107944180Y-122335498D01*
X107824482Y-122299188D01*
X107700000Y-122286928D01*
X106485750Y-122290000D01*
X106327000Y-122448750D01*
X106327000Y-123798000D01*
X106347000Y-123798000D01*
X106347000Y-124052000D01*
X106327000Y-124052000D01*
X106327000Y-124072000D01*
X106073000Y-124072000D01*
X106073000Y-124052000D01*
X104223750Y-124052000D01*
X104065000Y-124210750D01*
X104061928Y-124925000D01*
X104074188Y-125049482D01*
X104110498Y-125169180D01*
X104169463Y-125279494D01*
X104198602Y-125315000D01*
X81185000Y-125315000D01*
X81185000Y-121932032D01*
X82220000Y-121932032D01*
X82220000Y-122327968D01*
X82297243Y-122716296D01*
X82448761Y-123082092D01*
X82668731Y-123411301D01*
X82948699Y-123691269D01*
X83277908Y-123911239D01*
X83643704Y-124062757D01*
X84032032Y-124140000D01*
X84427968Y-124140000D01*
X84816296Y-124062757D01*
X85182092Y-123911239D01*
X85511301Y-123691269D01*
X85702570Y-123500000D01*
X90611928Y-123500000D01*
X90624188Y-123624482D01*
X90660498Y-123744180D01*
X90719463Y-123854494D01*
X90798815Y-123951185D01*
X90895506Y-124030537D01*
X91005820Y-124089502D01*
X91125518Y-124125812D01*
X91250000Y-124138072D01*
X92714250Y-124135000D01*
X92873000Y-123976250D01*
X92873000Y-122127000D01*
X93127000Y-122127000D01*
X93127000Y-123976250D01*
X93285750Y-124135000D01*
X94750000Y-124138072D01*
X94874482Y-124125812D01*
X94994180Y-124089502D01*
X95104494Y-124030537D01*
X95201185Y-123951185D01*
X95280537Y-123854494D01*
X95339502Y-123744180D01*
X95375812Y-123624482D01*
X95388072Y-123500000D01*
X95387812Y-123396890D01*
X100058524Y-123396890D01*
X100103175Y-123544099D01*
X100228359Y-123806920D01*
X100402412Y-124040269D01*
X100618645Y-124235178D01*
X100868748Y-124384157D01*
X101143109Y-124481481D01*
X101373000Y-124360814D01*
X101373000Y-123167000D01*
X101627000Y-123167000D01*
X101627000Y-124360814D01*
X101856891Y-124481481D01*
X102131252Y-124384157D01*
X102381355Y-124235178D01*
X102597588Y-124040269D01*
X102771641Y-123806920D01*
X102896825Y-123544099D01*
X102941476Y-123396890D01*
X102820155Y-123167000D01*
X101627000Y-123167000D01*
X101373000Y-123167000D01*
X100179845Y-123167000D01*
X100058524Y-123396890D01*
X95387812Y-123396890D01*
X95386618Y-122925000D01*
X104061928Y-122925000D01*
X104065000Y-123639250D01*
X104223750Y-123798000D01*
X106073000Y-123798000D01*
X106073000Y-122448750D01*
X105914250Y-122290000D01*
X104700000Y-122286928D01*
X104575518Y-122299188D01*
X104455820Y-122335498D01*
X104345506Y-122394463D01*
X104248815Y-122473815D01*
X104169463Y-122570506D01*
X104110498Y-122680820D01*
X104074188Y-122800518D01*
X104061928Y-122925000D01*
X95386618Y-122925000D01*
X95385000Y-122285750D01*
X95226250Y-122127000D01*
X93127000Y-122127000D01*
X92873000Y-122127000D01*
X90773750Y-122127000D01*
X90615000Y-122285750D01*
X90611928Y-123500000D01*
X85702570Y-123500000D01*
X85791269Y-123411301D01*
X86011239Y-123082092D01*
X86162757Y-122716296D01*
X86240000Y-122327968D01*
X86240000Y-121932032D01*
X86162757Y-121543704D01*
X86011239Y-121177908D01*
X85791269Y-120848699D01*
X85511301Y-120568731D01*
X85408438Y-120500000D01*
X90611928Y-120500000D01*
X90615000Y-121714250D01*
X90773750Y-121873000D01*
X92873000Y-121873000D01*
X92873000Y-120023750D01*
X93127000Y-120023750D01*
X93127000Y-121873000D01*
X95226250Y-121873000D01*
X95385000Y-121714250D01*
X95386698Y-121043195D01*
X95419463Y-121104494D01*
X95498815Y-121201185D01*
X95595506Y-121280537D01*
X95705820Y-121339502D01*
X95825518Y-121375812D01*
X95950000Y-121388072D01*
X97414250Y-121385000D01*
X97573000Y-121226250D01*
X97573000Y-119127000D01*
X95473750Y-119127000D01*
X95315000Y-119285750D01*
X95313069Y-120206367D01*
X95280537Y-120145506D01*
X95201185Y-120048815D01*
X95104494Y-119969463D01*
X94994180Y-119910498D01*
X94874482Y-119874188D01*
X94750000Y-119861928D01*
X93285750Y-119865000D01*
X93127000Y-120023750D01*
X92873000Y-120023750D01*
X92714250Y-119865000D01*
X91250000Y-119861928D01*
X91125518Y-119874188D01*
X91005820Y-119910498D01*
X90895506Y-119969463D01*
X90798815Y-120048815D01*
X90719463Y-120145506D01*
X90660498Y-120255820D01*
X90624188Y-120375518D01*
X90611928Y-120500000D01*
X85408438Y-120500000D01*
X85182092Y-120348761D01*
X84816296Y-120197243D01*
X84427968Y-120120000D01*
X84032032Y-120120000D01*
X83643704Y-120197243D01*
X83277908Y-120348761D01*
X82948699Y-120568731D01*
X82668731Y-120848699D01*
X82448761Y-121177908D01*
X82297243Y-121543704D01*
X82220000Y-121932032D01*
X81185000Y-121932032D01*
X81185000Y-72251130D01*
X81191494Y-72272538D01*
G37*
X81191494Y-72272538D02*
X81368387Y-72603482D01*
X81606444Y-72893556D01*
X81851358Y-73094551D01*
X81688359Y-73313080D01*
X81563175Y-73575901D01*
X81518524Y-73723110D01*
X81639845Y-73953000D01*
X82833000Y-73953000D01*
X82833000Y-73933000D01*
X83087000Y-73933000D01*
X83087000Y-73953000D01*
X83107000Y-73953000D01*
X83107000Y-74207000D01*
X83087000Y-74207000D01*
X83087000Y-74227000D01*
X82833000Y-74227000D01*
X82833000Y-74207000D01*
X81639845Y-74207000D01*
X81518524Y-74436890D01*
X81563175Y-74584099D01*
X81688359Y-74846920D01*
X81862412Y-75080269D01*
X82078645Y-75275178D01*
X82195534Y-75344805D01*
X82013368Y-75466525D01*
X81806525Y-75673368D01*
X81644010Y-75916589D01*
X81532068Y-76186842D01*
X81475000Y-76473740D01*
X81475000Y-76766260D01*
X81532068Y-77053158D01*
X81644010Y-77323411D01*
X81806525Y-77566632D01*
X82013368Y-77773475D01*
X82187760Y-77890000D01*
X82013368Y-78006525D01*
X81806525Y-78213368D01*
X81644010Y-78456589D01*
X81532068Y-78726842D01*
X81475000Y-79013740D01*
X81475000Y-79306260D01*
X81532068Y-79593158D01*
X81644010Y-79863411D01*
X81806525Y-80106632D01*
X82013368Y-80313475D01*
X82187760Y-80430000D01*
X82013368Y-80546525D01*
X81806525Y-80753368D01*
X81644010Y-80996589D01*
X81532068Y-81266842D01*
X81475000Y-81553740D01*
X81475000Y-81846260D01*
X81532068Y-82133158D01*
X81644010Y-82403411D01*
X81806525Y-82646632D01*
X82013368Y-82853475D01*
X82195534Y-82975195D01*
X82078645Y-83044822D01*
X81862412Y-83239731D01*
X81688359Y-83473080D01*
X81563175Y-83735901D01*
X81518524Y-83883110D01*
X81639845Y-84113000D01*
X82833000Y-84113000D01*
X82833000Y-84093000D01*
X83087000Y-84093000D01*
X83087000Y-84113000D01*
X83107000Y-84113000D01*
X83107000Y-84367000D01*
X83087000Y-84367000D01*
X83087000Y-84387000D01*
X82833000Y-84387000D01*
X82833000Y-84367000D01*
X81639845Y-84367000D01*
X81518524Y-84596890D01*
X81563175Y-84744099D01*
X81688359Y-85006920D01*
X81862412Y-85240269D01*
X82078645Y-85435178D01*
X82195534Y-85504805D01*
X82013368Y-85626525D01*
X81806525Y-85833368D01*
X81644010Y-86076589D01*
X81532068Y-86346842D01*
X81475000Y-86633740D01*
X81475000Y-86926260D01*
X81532068Y-87213158D01*
X81644010Y-87483411D01*
X81806525Y-87726632D01*
X82013368Y-87933475D01*
X82187760Y-88050000D01*
X82013368Y-88166525D01*
X81806525Y-88373368D01*
X81644010Y-88616589D01*
X81532068Y-88886842D01*
X81475000Y-89173740D01*
X81475000Y-89466260D01*
X81532068Y-89753158D01*
X81644010Y-90023411D01*
X81806525Y-90266632D01*
X82013368Y-90473475D01*
X82195534Y-90595195D01*
X82078645Y-90664822D01*
X81862412Y-90859731D01*
X81688359Y-91093080D01*
X81563175Y-91355901D01*
X81518524Y-91503110D01*
X81639845Y-91733000D01*
X82833000Y-91733000D01*
X82833000Y-91713000D01*
X83087000Y-91713000D01*
X83087000Y-91733000D01*
X83107000Y-91733000D01*
X83107000Y-91987000D01*
X83087000Y-91987000D01*
X83087000Y-92007000D01*
X82833000Y-92007000D01*
X82833000Y-91987000D01*
X81639845Y-91987000D01*
X81518524Y-92216890D01*
X81563175Y-92364099D01*
X81688359Y-92626920D01*
X81862412Y-92860269D01*
X82078645Y-93055178D01*
X82195534Y-93124805D01*
X82013368Y-93246525D01*
X81806525Y-93453368D01*
X81644010Y-93696589D01*
X81532068Y-93966842D01*
X81475000Y-94253740D01*
X81475000Y-94546260D01*
X81532068Y-94833158D01*
X81644010Y-95103411D01*
X81806525Y-95346632D01*
X82013368Y-95553475D01*
X82187760Y-95670000D01*
X82013368Y-95786525D01*
X81806525Y-95993368D01*
X81644010Y-96236589D01*
X81532068Y-96506842D01*
X81475000Y-96793740D01*
X81475000Y-97086260D01*
X81532068Y-97373158D01*
X81644010Y-97643411D01*
X81806525Y-97886632D01*
X82013368Y-98093475D01*
X82187760Y-98210000D01*
X82013368Y-98326525D01*
X81806525Y-98533368D01*
X81644010Y-98776589D01*
X81532068Y-99046842D01*
X81475000Y-99333740D01*
X81475000Y-99626260D01*
X81532068Y-99913158D01*
X81644010Y-100183411D01*
X81806525Y-100426632D01*
X82013368Y-100633475D01*
X82187760Y-100750000D01*
X82013368Y-100866525D01*
X81806525Y-101073368D01*
X81644010Y-101316589D01*
X81532068Y-101586842D01*
X81475000Y-101873740D01*
X81475000Y-102166260D01*
X81532068Y-102453158D01*
X81644010Y-102723411D01*
X81806525Y-102966632D01*
X82013368Y-103173475D01*
X82195534Y-103295195D01*
X82078645Y-103364822D01*
X81862412Y-103559731D01*
X81688359Y-103793080D01*
X81563175Y-104055901D01*
X81518524Y-104203110D01*
X81639845Y-104433000D01*
X82833000Y-104433000D01*
X82833000Y-104413000D01*
X83087000Y-104413000D01*
X83087000Y-104433000D01*
X83107000Y-104433000D01*
X83107000Y-104687000D01*
X83087000Y-104687000D01*
X83087000Y-104707000D01*
X82833000Y-104707000D01*
X82833000Y-104687000D01*
X81639845Y-104687000D01*
X81518524Y-104916890D01*
X81563175Y-105064099D01*
X81688359Y-105326920D01*
X81862412Y-105560269D01*
X82078645Y-105755178D01*
X82195534Y-105824805D01*
X82013368Y-105946525D01*
X81806525Y-106153368D01*
X81644010Y-106396589D01*
X81532068Y-106666842D01*
X81475000Y-106953740D01*
X81475000Y-107246260D01*
X81532068Y-107533158D01*
X81644010Y-107803411D01*
X81806525Y-108046632D01*
X82013368Y-108253475D01*
X82195534Y-108375195D01*
X82078645Y-108444822D01*
X81862412Y-108639731D01*
X81688359Y-108873080D01*
X81563175Y-109135901D01*
X81518524Y-109283110D01*
X81639845Y-109513000D01*
X82833000Y-109513000D01*
X82833000Y-109493000D01*
X83087000Y-109493000D01*
X83087000Y-109513000D01*
X83107000Y-109513000D01*
X83107000Y-109767000D01*
X83087000Y-109767000D01*
X83087000Y-109787000D01*
X82833000Y-109787000D01*
X82833000Y-109767000D01*
X81639845Y-109767000D01*
X81518524Y-109996890D01*
X81563175Y-110144099D01*
X81688359Y-110406920D01*
X81862412Y-110640269D01*
X82078645Y-110835178D01*
X82195534Y-110904805D01*
X82013368Y-111026525D01*
X81806525Y-111233368D01*
X81644010Y-111476589D01*
X81532068Y-111746842D01*
X81475000Y-112033740D01*
X81475000Y-112326260D01*
X81532068Y-112613158D01*
X81644010Y-112883411D01*
X81806525Y-113126632D01*
X82013368Y-113333475D01*
X82187760Y-113450000D01*
X82013368Y-113566525D01*
X81806525Y-113773368D01*
X81644010Y-114016589D01*
X81532068Y-114286842D01*
X81475000Y-114573740D01*
X81475000Y-114866260D01*
X81532068Y-115153158D01*
X81644010Y-115423411D01*
X81806525Y-115666632D01*
X82013368Y-115873475D01*
X82187760Y-115990000D01*
X82013368Y-116106525D01*
X81806525Y-116313368D01*
X81644010Y-116556589D01*
X81532068Y-116826842D01*
X81475000Y-117113740D01*
X81475000Y-117406260D01*
X81532068Y-117693158D01*
X81644010Y-117963411D01*
X81806525Y-118206632D01*
X82013368Y-118413475D01*
X82256589Y-118575990D01*
X82526842Y-118687932D01*
X82813740Y-118745000D01*
X83106260Y-118745000D01*
X83393158Y-118687932D01*
X83663411Y-118575990D01*
X83906632Y-118413475D01*
X84113475Y-118206632D01*
X84231100Y-118030594D01*
X84402412Y-118260269D01*
X84618645Y-118455178D01*
X84868748Y-118604157D01*
X85143109Y-118701481D01*
X85373000Y-118580814D01*
X85373000Y-117387000D01*
X85627000Y-117387000D01*
X85627000Y-118580814D01*
X85856891Y-118701481D01*
X86131252Y-118604157D01*
X86381355Y-118455178D01*
X86597588Y-118260269D01*
X86771641Y-118026920D01*
X86896825Y-117764099D01*
X86941476Y-117616890D01*
X86820155Y-117387000D01*
X85627000Y-117387000D01*
X85373000Y-117387000D01*
X85353000Y-117387000D01*
X85353000Y-117133000D01*
X85373000Y-117133000D01*
X85373000Y-117113000D01*
X85627000Y-117113000D01*
X85627000Y-117133000D01*
X86820155Y-117133000D01*
X86941476Y-116903110D01*
X86896825Y-116755901D01*
X86771641Y-116493080D01*
X86597588Y-116259731D01*
X86381355Y-116064822D01*
X86264466Y-115995195D01*
X86446632Y-115873475D01*
X86653475Y-115666632D01*
X86815990Y-115423411D01*
X86927932Y-115153158D01*
X86985000Y-114866260D01*
X86985000Y-114573740D01*
X86927932Y-114286842D01*
X86815990Y-114016589D01*
X86653475Y-113773368D01*
X86530107Y-113650000D01*
X86961928Y-113650000D01*
X86974188Y-113774482D01*
X87010498Y-113894180D01*
X87069463Y-114004494D01*
X87148815Y-114101185D01*
X87245506Y-114180537D01*
X87355820Y-114239502D01*
X87475518Y-114275812D01*
X87600000Y-114288072D01*
X87914250Y-114285000D01*
X88073000Y-114126250D01*
X88073000Y-113327000D01*
X87123750Y-113327000D01*
X86965000Y-113485750D01*
X86961928Y-113650000D01*
X86530107Y-113650000D01*
X86446632Y-113566525D01*
X86272240Y-113450000D01*
X86446632Y-113333475D01*
X86653475Y-113126632D01*
X86815990Y-112883411D01*
X86848262Y-112805498D01*
X86936503Y-112893739D01*
X86964340Y-112927658D01*
X87042793Y-112992043D01*
X87123750Y-113073000D01*
X87163781Y-113073000D01*
X87254148Y-113121302D01*
X87320057Y-113141295D01*
X87421723Y-113172135D01*
X87454923Y-113175405D01*
X87552332Y-113184999D01*
X87552338Y-113184999D01*
X87595998Y-113189299D01*
X87639658Y-113184999D01*
X88347000Y-113184999D01*
X88347000Y-113327000D01*
X88327000Y-113327000D01*
X88327000Y-114126250D01*
X88485750Y-114285000D01*
X88800000Y-114288072D01*
X88924482Y-114275812D01*
X89044180Y-114239502D01*
X89154494Y-114180537D01*
X89251185Y-114101185D01*
X89300000Y-114041704D01*
X89348815Y-114101185D01*
X89445506Y-114180537D01*
X89555820Y-114239502D01*
X89675518Y-114275812D01*
X89800000Y-114288072D01*
X90611928Y-114288072D01*
X90611928Y-117750000D01*
X90624188Y-117874482D01*
X90660498Y-117994180D01*
X90719463Y-118104494D01*
X90798815Y-118201185D01*
X90895506Y-118280537D01*
X91005820Y-118339502D01*
X91125518Y-118375812D01*
X91250000Y-118388072D01*
X94750000Y-118388072D01*
X94874482Y-118375812D01*
X94994180Y-118339502D01*
X95104494Y-118280537D01*
X95201185Y-118201185D01*
X95280537Y-118104494D01*
X95313591Y-118042655D01*
X95315000Y-118714250D01*
X95473750Y-118873000D01*
X97573000Y-118873000D01*
X97573000Y-118853000D01*
X97827000Y-118853000D01*
X97827000Y-118873000D01*
X97847000Y-118873000D01*
X97847000Y-119127000D01*
X97827000Y-119127000D01*
X97827000Y-121226250D01*
X97985750Y-121385000D01*
X99450000Y-121388072D01*
X99574482Y-121375812D01*
X99694180Y-121339502D01*
X99767671Y-121300220D01*
X99908387Y-121563482D01*
X100146444Y-121853556D01*
X100391358Y-122054551D01*
X100228359Y-122273080D01*
X100103175Y-122535901D01*
X100058524Y-122683110D01*
X100179845Y-122913000D01*
X101373000Y-122913000D01*
X101373000Y-122893000D01*
X101627000Y-122893000D01*
X101627000Y-122913000D01*
X102820155Y-122913000D01*
X102941476Y-122683110D01*
X102896825Y-122535901D01*
X102771641Y-122273080D01*
X102608642Y-122054551D01*
X102853556Y-121853556D01*
X103091613Y-121563482D01*
X103268506Y-121232539D01*
X103284444Y-121180000D01*
X106293582Y-121180000D01*
X106573445Y-121152436D01*
X106932539Y-121043506D01*
X107176563Y-120913072D01*
X107700000Y-120913072D01*
X107824482Y-120900812D01*
X107944180Y-120864502D01*
X108054494Y-120805537D01*
X108151185Y-120726185D01*
X108230537Y-120629494D01*
X108289502Y-120519180D01*
X108325812Y-120399482D01*
X108338072Y-120275000D01*
X108338072Y-118275000D01*
X108325812Y-118150518D01*
X108289502Y-118030820D01*
X108230537Y-117920506D01*
X108151185Y-117823815D01*
X108054494Y-117744463D01*
X107944180Y-117685498D01*
X107824482Y-117649188D01*
X107700000Y-117636928D01*
X107176563Y-117636928D01*
X106932539Y-117506494D01*
X106573445Y-117397564D01*
X106293582Y-117370000D01*
X103405000Y-117370000D01*
X103405000Y-117324138D01*
X103519180Y-117289502D01*
X103629494Y-117230537D01*
X103726185Y-117151185D01*
X103805537Y-117054494D01*
X103864502Y-116944180D01*
X103900812Y-116824482D01*
X103913072Y-116700000D01*
X103913072Y-116176563D01*
X104043506Y-115932539D01*
X104152436Y-115573445D01*
X104189217Y-115200000D01*
X104152436Y-114826555D01*
X104043506Y-114467461D01*
X103913072Y-114223437D01*
X103913072Y-113700000D01*
X103900812Y-113575518D01*
X103864502Y-113455820D01*
X103805537Y-113345506D01*
X103726185Y-113248815D01*
X103629494Y-113169463D01*
X103519180Y-113110498D01*
X103399482Y-113074188D01*
X103275000Y-113061928D01*
X101275000Y-113061928D01*
X101150518Y-113074188D01*
X101030820Y-113110498D01*
X100920506Y-113169463D01*
X100823815Y-113248815D01*
X100785912Y-113295000D01*
X95738072Y-113295000D01*
X95738072Y-112750000D01*
X95725812Y-112625518D01*
X95689502Y-112505820D01*
X95630537Y-112395506D01*
X95551185Y-112298815D01*
X95454494Y-112219463D01*
X95344180Y-112160498D01*
X95224482Y-112124188D01*
X95100000Y-112111928D01*
X93900000Y-112111928D01*
X93775518Y-112124188D01*
X93655820Y-112160498D01*
X93545506Y-112219463D01*
X93448815Y-112298815D01*
X93400000Y-112358296D01*
X93351185Y-112298815D01*
X93254494Y-112219463D01*
X93144180Y-112160498D01*
X93024482Y-112124188D01*
X92900000Y-112111928D01*
X91700000Y-112111928D01*
X91575518Y-112124188D01*
X91455820Y-112160498D01*
X91350000Y-112217061D01*
X91244180Y-112160498D01*
X91124482Y-112124188D01*
X91000000Y-112111928D01*
X90569163Y-112111928D01*
X90155498Y-111698263D01*
X90127658Y-111664340D01*
X90044987Y-111596493D01*
X90067461Y-111608506D01*
X90426555Y-111717436D01*
X90706418Y-111745000D01*
X93811461Y-111745000D01*
X93905041Y-111754217D01*
X93998621Y-111745000D01*
X93998623Y-111745000D01*
X94278486Y-111717436D01*
X94637580Y-111608506D01*
X94968523Y-111431613D01*
X95258597Y-111193556D01*
X95318261Y-111120855D01*
X95997766Y-110441350D01*
X96031495Y-110552539D01*
X96208387Y-110883482D01*
X96446445Y-111173555D01*
X96736518Y-111411613D01*
X97067461Y-111588505D01*
X97426555Y-111697435D01*
X97800000Y-111734217D01*
X98173445Y-111697435D01*
X98532539Y-111588505D01*
X98863482Y-111411613D01*
X98871540Y-111405000D01*
X103193582Y-111405000D01*
X103473445Y-111377436D01*
X103832539Y-111268506D01*
X104163482Y-111091613D01*
X104453556Y-110853556D01*
X104691613Y-110563482D01*
X104868506Y-110232539D01*
X104977436Y-109873445D01*
X105014217Y-109500000D01*
X104977436Y-109126555D01*
X104868506Y-108767461D01*
X104691613Y-108436518D01*
X104453556Y-108146444D01*
X104211946Y-107948161D01*
X104253475Y-107906632D01*
X104415990Y-107663411D01*
X104527932Y-107393158D01*
X104585000Y-107106260D01*
X104585000Y-106813740D01*
X104527932Y-106526842D01*
X104415990Y-106256589D01*
X104253475Y-106013368D01*
X104211946Y-105971839D01*
X104453556Y-105773556D01*
X104691613Y-105483482D01*
X104868506Y-105152539D01*
X104902235Y-105041351D01*
X107241753Y-107380870D01*
X107301413Y-107453566D01*
X107465673Y-107588370D01*
X107591486Y-107691623D01*
X107768379Y-107786174D01*
X107922430Y-107868516D01*
X108281524Y-107977446D01*
X108561387Y-108005010D01*
X108561389Y-108005010D01*
X108654969Y-108014227D01*
X108748549Y-108005010D01*
X110493582Y-108005010D01*
X110773445Y-107977446D01*
X111132539Y-107868516D01*
X111463482Y-107691623D01*
X111753556Y-107453566D01*
X111991613Y-107163492D01*
X112168506Y-106832549D01*
X112277436Y-106473455D01*
X112314217Y-106100010D01*
X112277436Y-105726565D01*
X112168506Y-105367471D01*
X111991613Y-105036528D01*
X111861330Y-104877777D01*
X111839502Y-104805820D01*
X111780537Y-104695506D01*
X111774453Y-104688093D01*
X111991613Y-104423482D01*
X112168506Y-104092539D01*
X112277436Y-103733445D01*
X112305000Y-103453582D01*
X112305000Y-101701387D01*
X112344180Y-101689502D01*
X112454494Y-101630537D01*
X112551185Y-101551185D01*
X112630537Y-101454494D01*
X112689502Y-101344180D01*
X112725812Y-101224482D01*
X112738072Y-101100000D01*
X112738072Y-100973114D01*
X112811359Y-101062414D01*
X112854969Y-101098204D01*
X113634997Y-101878233D01*
X113670787Y-101921843D01*
X113844831Y-102064678D01*
X114043397Y-102170813D01*
X114193494Y-102216345D01*
X114258852Y-102236171D01*
X114281520Y-102238404D01*
X114426774Y-102252710D01*
X114426780Y-102252710D01*
X114482919Y-102258239D01*
X114539058Y-102252710D01*
X116871500Y-102252710D01*
X116871500Y-102632763D01*
X116865971Y-102688902D01*
X116871500Y-102745041D01*
X116871500Y-102745048D01*
X116876273Y-102793506D01*
X116888039Y-102912969D01*
X116950393Y-103118519D01*
X116953398Y-103128425D01*
X117059533Y-103326991D01*
X117124805Y-103406525D01*
X117153724Y-103441762D01*
X117202368Y-103501035D01*
X117218564Y-103514327D01*
X117083542Y-103473368D01*
X117052097Y-103463829D01*
X117029429Y-103461596D01*
X116884175Y-103447290D01*
X116884169Y-103447290D01*
X116828030Y-103441761D01*
X116771890Y-103447290D01*
X114539066Y-103447292D01*
X114482918Y-103441762D01*
X114258851Y-103463830D01*
X114043395Y-103529189D01*
X113844829Y-103635324D01*
X113714397Y-103742367D01*
X113714390Y-103742374D01*
X113670786Y-103778159D01*
X113635000Y-103821764D01*
X112854967Y-104601798D01*
X112811357Y-104637588D01*
X112668522Y-104811632D01*
X112562387Y-105010198D01*
X112526499Y-105128506D01*
X112497029Y-105225653D01*
X112495869Y-105237436D01*
X112480490Y-105393575D01*
X112480490Y-105393581D01*
X112474961Y-105449720D01*
X112480490Y-105505860D01*
X112480492Y-106894134D01*
X112474962Y-106950281D01*
X112497030Y-107174348D01*
X112561864Y-107388072D01*
X112562389Y-107389804D01*
X112668524Y-107588370D01*
X112707435Y-107635783D01*
X112760239Y-107700124D01*
X112811359Y-107762414D01*
X112854969Y-107798204D01*
X113634997Y-108578233D01*
X113670787Y-108621843D01*
X113844831Y-108764678D01*
X114043397Y-108870813D01*
X114139751Y-108900042D01*
X114011629Y-108968524D01*
X113881197Y-109075567D01*
X113881190Y-109075574D01*
X113837586Y-109111359D01*
X113801800Y-109154964D01*
X113021772Y-109934993D01*
X112978157Y-109970787D01*
X112835322Y-110144832D01*
X112729187Y-110343398D01*
X112709942Y-110406841D01*
X112663829Y-110558853D01*
X112662481Y-110572539D01*
X112647290Y-110726775D01*
X112647290Y-110726781D01*
X112641761Y-110782920D01*
X112647290Y-110839059D01*
X112647291Y-114148766D01*
X112641761Y-114204914D01*
X112663829Y-114428981D01*
X112710413Y-114582544D01*
X112728297Y-114641501D01*
X112638072Y-114641501D01*
X112638072Y-114350000D01*
X112625812Y-114225518D01*
X112589502Y-114105820D01*
X112530537Y-113995506D01*
X112451185Y-113898815D01*
X112354494Y-113819463D01*
X112244180Y-113760498D01*
X112124482Y-113724188D01*
X112000000Y-113711928D01*
X111425475Y-113711928D01*
X111463482Y-113691613D01*
X111753556Y-113453556D01*
X111991613Y-113163482D01*
X112168506Y-112832539D01*
X112277436Y-112473445D01*
X112314217Y-112100000D01*
X112277436Y-111726555D01*
X112168506Y-111367461D01*
X111991613Y-111036518D01*
X111753556Y-110746444D01*
X111511946Y-110548161D01*
X111553475Y-110506632D01*
X111715990Y-110263411D01*
X111827932Y-109993158D01*
X111885000Y-109706260D01*
X111885000Y-109413740D01*
X111827932Y-109126842D01*
X111715990Y-108856589D01*
X111553475Y-108613368D01*
X111346632Y-108406525D01*
X111103411Y-108244010D01*
X110833158Y-108132068D01*
X110546260Y-108075000D01*
X110253740Y-108075000D01*
X109966842Y-108132068D01*
X109696589Y-108244010D01*
X109453368Y-108406525D01*
X109246525Y-108613368D01*
X109084010Y-108856589D01*
X108972068Y-109126842D01*
X108915000Y-109413740D01*
X108915000Y-109706260D01*
X108972068Y-109993158D01*
X109055673Y-110195000D01*
X108497577Y-110195000D01*
X108403997Y-110185783D01*
X108310417Y-110195000D01*
X108310416Y-110195000D01*
X108030553Y-110222564D01*
X107671459Y-110331494D01*
X107556186Y-110393109D01*
X107340515Y-110508387D01*
X107273382Y-110563482D01*
X107050442Y-110746444D01*
X106990782Y-110819140D01*
X105644140Y-112165783D01*
X105571445Y-112225442D01*
X105448955Y-112374697D01*
X105333387Y-112515516D01*
X105195093Y-112774247D01*
X105156495Y-112846459D01*
X105047565Y-113205553D01*
X105022165Y-113463442D01*
X105010783Y-113578998D01*
X105020000Y-113672578D01*
X105020000Y-115293581D01*
X105047564Y-115573444D01*
X105156494Y-115932538D01*
X105286928Y-116176563D01*
X105286928Y-116700000D01*
X105299188Y-116824482D01*
X105335498Y-116944180D01*
X105394463Y-117054494D01*
X105473815Y-117151185D01*
X105570506Y-117230537D01*
X105680820Y-117289502D01*
X105800518Y-117325812D01*
X105925000Y-117338072D01*
X107925000Y-117338072D01*
X108049482Y-117325812D01*
X108169180Y-117289502D01*
X108203512Y-117271151D01*
X108210498Y-117294180D01*
X108269463Y-117404494D01*
X108348815Y-117501185D01*
X108445506Y-117580537D01*
X108555820Y-117639502D01*
X108675518Y-117675812D01*
X108800000Y-117688072D01*
X109693996Y-117688072D01*
X109833285Y-117827361D01*
X109892945Y-117900057D01*
X110183019Y-118138114D01*
X110513962Y-118315007D01*
X110873056Y-118423937D01*
X111152919Y-118451501D01*
X111152920Y-118451501D01*
X111246500Y-118460718D01*
X111340080Y-118451501D01*
X113503428Y-118451501D01*
X114463854Y-119411928D01*
X113450000Y-119411928D01*
X113325518Y-119424188D01*
X113205820Y-119460498D01*
X113095506Y-119519463D01*
X112998815Y-119598815D01*
X112919463Y-119695506D01*
X112860498Y-119805820D01*
X112824188Y-119925518D01*
X112811928Y-120050000D01*
X112811928Y-121695000D01*
X112308728Y-121695000D01*
X112244180Y-121660498D01*
X112124482Y-121624188D01*
X112000000Y-121611928D01*
X108800000Y-121611928D01*
X108675518Y-121624188D01*
X108555820Y-121660498D01*
X108445506Y-121719463D01*
X108348815Y-121798815D01*
X108269463Y-121895506D01*
X108210498Y-122005820D01*
X108174188Y-122125518D01*
X108161928Y-122250000D01*
X108161928Y-122486905D01*
X108151185Y-122473815D01*
X108054494Y-122394463D01*
X107944180Y-122335498D01*
X107824482Y-122299188D01*
X107700000Y-122286928D01*
X106485750Y-122290000D01*
X106327000Y-122448750D01*
X106327000Y-123798000D01*
X106347000Y-123798000D01*
X106347000Y-124052000D01*
X106327000Y-124052000D01*
X106327000Y-124072000D01*
X106073000Y-124072000D01*
X106073000Y-124052000D01*
X104223750Y-124052000D01*
X104065000Y-124210750D01*
X104061928Y-124925000D01*
X104074188Y-125049482D01*
X104110498Y-125169180D01*
X104169463Y-125279494D01*
X104198602Y-125315000D01*
X81185000Y-125315000D01*
X81185000Y-121932032D01*
X82220000Y-121932032D01*
X82220000Y-122327968D01*
X82297243Y-122716296D01*
X82448761Y-123082092D01*
X82668731Y-123411301D01*
X82948699Y-123691269D01*
X83277908Y-123911239D01*
X83643704Y-124062757D01*
X84032032Y-124140000D01*
X84427968Y-124140000D01*
X84816296Y-124062757D01*
X85182092Y-123911239D01*
X85511301Y-123691269D01*
X85702570Y-123500000D01*
X90611928Y-123500000D01*
X90624188Y-123624482D01*
X90660498Y-123744180D01*
X90719463Y-123854494D01*
X90798815Y-123951185D01*
X90895506Y-124030537D01*
X91005820Y-124089502D01*
X91125518Y-124125812D01*
X91250000Y-124138072D01*
X92714250Y-124135000D01*
X92873000Y-123976250D01*
X92873000Y-122127000D01*
X93127000Y-122127000D01*
X93127000Y-123976250D01*
X93285750Y-124135000D01*
X94750000Y-124138072D01*
X94874482Y-124125812D01*
X94994180Y-124089502D01*
X95104494Y-124030537D01*
X95201185Y-123951185D01*
X95280537Y-123854494D01*
X95339502Y-123744180D01*
X95375812Y-123624482D01*
X95388072Y-123500000D01*
X95387812Y-123396890D01*
X100058524Y-123396890D01*
X100103175Y-123544099D01*
X100228359Y-123806920D01*
X100402412Y-124040269D01*
X100618645Y-124235178D01*
X100868748Y-124384157D01*
X101143109Y-124481481D01*
X101373000Y-124360814D01*
X101373000Y-123167000D01*
X101627000Y-123167000D01*
X101627000Y-124360814D01*
X101856891Y-124481481D01*
X102131252Y-124384157D01*
X102381355Y-124235178D01*
X102597588Y-124040269D01*
X102771641Y-123806920D01*
X102896825Y-123544099D01*
X102941476Y-123396890D01*
X102820155Y-123167000D01*
X101627000Y-123167000D01*
X101373000Y-123167000D01*
X100179845Y-123167000D01*
X100058524Y-123396890D01*
X95387812Y-123396890D01*
X95386618Y-122925000D01*
X104061928Y-122925000D01*
X104065000Y-123639250D01*
X104223750Y-123798000D01*
X106073000Y-123798000D01*
X106073000Y-122448750D01*
X105914250Y-122290000D01*
X104700000Y-122286928D01*
X104575518Y-122299188D01*
X104455820Y-122335498D01*
X104345506Y-122394463D01*
X104248815Y-122473815D01*
X104169463Y-122570506D01*
X104110498Y-122680820D01*
X104074188Y-122800518D01*
X104061928Y-122925000D01*
X95386618Y-122925000D01*
X95385000Y-122285750D01*
X95226250Y-122127000D01*
X93127000Y-122127000D01*
X92873000Y-122127000D01*
X90773750Y-122127000D01*
X90615000Y-122285750D01*
X90611928Y-123500000D01*
X85702570Y-123500000D01*
X85791269Y-123411301D01*
X86011239Y-123082092D01*
X86162757Y-122716296D01*
X86240000Y-122327968D01*
X86240000Y-121932032D01*
X86162757Y-121543704D01*
X86011239Y-121177908D01*
X85791269Y-120848699D01*
X85511301Y-120568731D01*
X85408438Y-120500000D01*
X90611928Y-120500000D01*
X90615000Y-121714250D01*
X90773750Y-121873000D01*
X92873000Y-121873000D01*
X92873000Y-120023750D01*
X93127000Y-120023750D01*
X93127000Y-121873000D01*
X95226250Y-121873000D01*
X95385000Y-121714250D01*
X95386698Y-121043195D01*
X95419463Y-121104494D01*
X95498815Y-121201185D01*
X95595506Y-121280537D01*
X95705820Y-121339502D01*
X95825518Y-121375812D01*
X95950000Y-121388072D01*
X97414250Y-121385000D01*
X97573000Y-121226250D01*
X97573000Y-119127000D01*
X95473750Y-119127000D01*
X95315000Y-119285750D01*
X95313069Y-120206367D01*
X95280537Y-120145506D01*
X95201185Y-120048815D01*
X95104494Y-119969463D01*
X94994180Y-119910498D01*
X94874482Y-119874188D01*
X94750000Y-119861928D01*
X93285750Y-119865000D01*
X93127000Y-120023750D01*
X92873000Y-120023750D01*
X92714250Y-119865000D01*
X91250000Y-119861928D01*
X91125518Y-119874188D01*
X91005820Y-119910498D01*
X90895506Y-119969463D01*
X90798815Y-120048815D01*
X90719463Y-120145506D01*
X90660498Y-120255820D01*
X90624188Y-120375518D01*
X90611928Y-120500000D01*
X85408438Y-120500000D01*
X85182092Y-120348761D01*
X84816296Y-120197243D01*
X84427968Y-120120000D01*
X84032032Y-120120000D01*
X83643704Y-120197243D01*
X83277908Y-120348761D01*
X82948699Y-120568731D01*
X82668731Y-120848699D01*
X82448761Y-121177908D01*
X82297243Y-121543704D01*
X82220000Y-121932032D01*
X81185000Y-121932032D01*
X81185000Y-72251130D01*
X81191494Y-72272538D01*
G36*
X87556781Y-69550856D02*
G01*
X87616445Y-69623557D01*
X87817913Y-69788897D01*
X87906518Y-69861614D01*
X87969041Y-69895033D01*
X88237462Y-70038507D01*
X88596556Y-70147437D01*
X88876419Y-70175001D01*
X88876421Y-70175001D01*
X88970001Y-70184218D01*
X89063581Y-70175001D01*
X92871321Y-70175001D01*
X92149139Y-70897184D01*
X92076444Y-70956843D01*
X91980242Y-71074066D01*
X91838386Y-71246917D01*
X91661494Y-71577860D01*
X91552564Y-71936954D01*
X91515782Y-72310399D01*
X91525000Y-72403988D01*
X91524999Y-79396021D01*
X91515782Y-79489601D01*
X91524999Y-79583181D01*
X91524999Y-79583182D01*
X91552563Y-79863045D01*
X91661493Y-80222139D01*
X91700203Y-80294560D01*
X91669199Y-80273844D01*
X91335250Y-80135518D01*
X90980732Y-80065000D01*
X90619268Y-80065000D01*
X90264750Y-80135518D01*
X89930801Y-80273844D01*
X89630256Y-80474662D01*
X89374662Y-80730256D01*
X89173844Y-81030801D01*
X89035518Y-81364750D01*
X88965000Y-81719268D01*
X88965000Y-82080732D01*
X89035518Y-82435250D01*
X89173844Y-82769199D01*
X89374662Y-83069744D01*
X89630256Y-83325338D01*
X89930801Y-83526156D01*
X90264750Y-83664482D01*
X90619268Y-83735000D01*
X90980732Y-83735000D01*
X91335250Y-83664482D01*
X91669199Y-83526156D01*
X91969744Y-83325338D01*
X92225338Y-83069744D01*
X92426156Y-82769199D01*
X92564482Y-82435250D01*
X92635000Y-82080732D01*
X92635000Y-81719268D01*
X92564482Y-81364750D01*
X92531538Y-81285215D01*
X93927186Y-82680865D01*
X93986842Y-82753556D01*
X94059531Y-82813210D01*
X94276915Y-82991613D01*
X94331033Y-83020539D01*
X94299188Y-83125518D01*
X94286928Y-83250000D01*
X94290000Y-83564250D01*
X94448750Y-83723000D01*
X95173000Y-83723000D01*
X95173000Y-83703000D01*
X95427000Y-83703000D01*
X95427000Y-83723000D01*
X95447000Y-83723000D01*
X95447000Y-83977000D01*
X95427000Y-83977000D01*
X95427000Y-84926250D01*
X95585750Y-85085000D01*
X95675000Y-85088072D01*
X95765766Y-85079133D01*
X95785498Y-85144180D01*
X95844463Y-85254494D01*
X95923815Y-85351185D01*
X96020506Y-85430537D01*
X96130820Y-85489502D01*
X96250518Y-85525812D01*
X96375000Y-85538072D01*
X96714250Y-85535000D01*
X96873000Y-85376250D01*
X96873000Y-84277000D01*
X97127000Y-84277000D01*
X97127000Y-85376250D01*
X97285750Y-85535000D01*
X97625000Y-85538072D01*
X97749482Y-85525812D01*
X97869180Y-85489502D01*
X97979494Y-85430537D01*
X98000000Y-85413708D01*
X98020506Y-85430537D01*
X98130820Y-85489502D01*
X98250518Y-85525812D01*
X98375000Y-85538072D01*
X98714250Y-85535000D01*
X98873000Y-85376250D01*
X98873000Y-84277000D01*
X99127000Y-84277000D01*
X99127000Y-85376250D01*
X99285750Y-85535000D01*
X99625000Y-85538072D01*
X99749482Y-85525812D01*
X99869180Y-85489502D01*
X99979494Y-85430537D01*
X100000000Y-85413708D01*
X100020506Y-85430537D01*
X100130820Y-85489502D01*
X100250518Y-85525812D01*
X100375000Y-85538072D01*
X100714250Y-85535000D01*
X100873000Y-85376250D01*
X100873000Y-84277000D01*
X101127000Y-84277000D01*
X101127000Y-85376250D01*
X101285750Y-85535000D01*
X101625000Y-85538072D01*
X101749482Y-85525812D01*
X101869180Y-85489502D01*
X101979494Y-85430537D01*
X102076185Y-85351185D01*
X102155537Y-85254494D01*
X102214502Y-85144180D01*
X102243071Y-85050000D01*
X104461928Y-85050000D01*
X104465000Y-86514250D01*
X104623750Y-86673000D01*
X105773000Y-86673000D01*
X105773000Y-84573750D01*
X106027000Y-84573750D01*
X106027000Y-86673000D01*
X107176250Y-86673000D01*
X107335000Y-86514250D01*
X107338072Y-85050000D01*
X112061928Y-85050000D01*
X112065000Y-86514250D01*
X112223750Y-86673000D01*
X113373000Y-86673000D01*
X113373000Y-84573750D01*
X113214250Y-84415000D01*
X112700000Y-84411928D01*
X112575518Y-84424188D01*
X112455820Y-84460498D01*
X112345506Y-84519463D01*
X112248815Y-84598815D01*
X112169463Y-84695506D01*
X112110498Y-84805820D01*
X112074188Y-84925518D01*
X112061928Y-85050000D01*
X107338072Y-85050000D01*
X107325812Y-84925518D01*
X107289502Y-84805820D01*
X107230537Y-84695506D01*
X107151185Y-84598815D01*
X107054494Y-84519463D01*
X106944180Y-84460498D01*
X106824482Y-84424188D01*
X106700000Y-84411928D01*
X106185750Y-84415000D01*
X106027000Y-84573750D01*
X105773000Y-84573750D01*
X105614250Y-84415000D01*
X105100000Y-84411928D01*
X104975518Y-84424188D01*
X104855820Y-84460498D01*
X104745506Y-84519463D01*
X104648815Y-84598815D01*
X104569463Y-84695506D01*
X104510498Y-84805820D01*
X104474188Y-84925518D01*
X104461928Y-85050000D01*
X102243071Y-85050000D01*
X102250812Y-85024482D01*
X102263072Y-84900000D01*
X102260000Y-84435750D01*
X102101250Y-84277000D01*
X101127000Y-84277000D01*
X100873000Y-84277000D01*
X99127000Y-84277000D01*
X98873000Y-84277000D01*
X97127000Y-84277000D01*
X96873000Y-84277000D01*
X96853000Y-84277000D01*
X96853000Y-84023000D01*
X96873000Y-84023000D01*
X96873000Y-84003000D01*
X97127000Y-84003000D01*
X97127000Y-84023000D01*
X98873000Y-84023000D01*
X98873000Y-84003000D01*
X99127000Y-84003000D01*
X99127000Y-84023000D01*
X100873000Y-84023000D01*
X100873000Y-84003000D01*
X101127000Y-84003000D01*
X101127000Y-84023000D01*
X102101250Y-84023000D01*
X102260000Y-83864250D01*
X102263072Y-83400000D01*
X102253716Y-83305000D01*
X104483446Y-83305000D01*
X104510498Y-83394180D01*
X104569463Y-83504494D01*
X104648815Y-83601185D01*
X104745506Y-83680537D01*
X104855820Y-83739502D01*
X104975518Y-83775812D01*
X105100000Y-83788072D01*
X106700000Y-83788072D01*
X106824482Y-83775812D01*
X106944180Y-83739502D01*
X107054494Y-83680537D01*
X107151185Y-83601185D01*
X107230537Y-83504494D01*
X107289502Y-83394180D01*
X107316554Y-83305000D01*
X112083446Y-83305000D01*
X112110498Y-83394180D01*
X112169463Y-83504494D01*
X112248815Y-83601185D01*
X112345506Y-83680537D01*
X112455820Y-83739502D01*
X112575518Y-83775812D01*
X112700000Y-83788072D01*
X113193996Y-83788072D01*
X113820715Y-84414791D01*
X113785750Y-84415000D01*
X113627000Y-84573750D01*
X113627000Y-86673000D01*
X113647000Y-86673000D01*
X113647000Y-86927000D01*
X113627000Y-86927000D01*
X113627000Y-89026250D01*
X113785750Y-89185000D01*
X114300000Y-89188072D01*
X114335011Y-89184624D01*
X114335011Y-89570913D01*
X113960924Y-89945000D01*
X112408728Y-89945000D01*
X112344180Y-89910498D01*
X112224482Y-89874188D01*
X112100000Y-89861928D01*
X108900000Y-89861928D01*
X108775518Y-89874188D01*
X108655820Y-89910498D01*
X108591272Y-89945000D01*
X106443590Y-89945000D01*
X106350010Y-89935783D01*
X106256431Y-89945000D01*
X106256428Y-89945000D01*
X105976565Y-89972564D01*
X105617471Y-90081494D01*
X105286528Y-90258387D01*
X105060446Y-90443927D01*
X105005820Y-90460498D01*
X104895506Y-90519463D01*
X104798815Y-90598815D01*
X104719463Y-90695506D01*
X104660498Y-90805820D01*
X104636034Y-90886466D01*
X104560269Y-90802412D01*
X104326920Y-90628359D01*
X104064099Y-90503175D01*
X103916890Y-90458524D01*
X103687000Y-90579845D01*
X103687000Y-91773000D01*
X103707000Y-91773000D01*
X103707000Y-92027000D01*
X103687000Y-92027000D01*
X103687000Y-93220155D01*
X103916890Y-93341476D01*
X104064099Y-93296825D01*
X104326920Y-93171641D01*
X104560269Y-92997588D01*
X104636034Y-92913534D01*
X104660498Y-92994180D01*
X104719463Y-93104494D01*
X104798815Y-93201185D01*
X104895506Y-93280537D01*
X105005820Y-93339502D01*
X105077779Y-93361331D01*
X105236528Y-93491613D01*
X105567471Y-93668505D01*
X105926565Y-93777435D01*
X106300010Y-93814217D01*
X106673455Y-93777435D01*
X106747413Y-93755000D01*
X108591272Y-93755000D01*
X108655820Y-93789502D01*
X108775518Y-93825812D01*
X108900000Y-93838072D01*
X112100000Y-93838072D01*
X112224482Y-93825812D01*
X112344180Y-93789502D01*
X112408728Y-93755000D01*
X112690923Y-93755000D01*
X109219140Y-97226785D01*
X109146445Y-97286444D01*
X109021671Y-97438482D01*
X108908387Y-97576518D01*
X108831440Y-97720476D01*
X108804243Y-97771359D01*
X108775518Y-97774188D01*
X108655820Y-97810498D01*
X108545506Y-97869463D01*
X108448815Y-97948815D01*
X108369463Y-98045506D01*
X108310498Y-98155820D01*
X108274188Y-98275518D01*
X108261928Y-98400000D01*
X108261928Y-101100000D01*
X108274188Y-101224482D01*
X108310498Y-101344180D01*
X108369463Y-101454494D01*
X108448815Y-101551185D01*
X108495001Y-101589088D01*
X108495000Y-103245965D01*
X105538072Y-100289038D01*
X105538072Y-100025000D01*
X105525812Y-99900518D01*
X105489502Y-99780820D01*
X105430537Y-99670506D01*
X105351185Y-99573815D01*
X105254494Y-99494463D01*
X105144180Y-99435498D01*
X105024482Y-99399188D01*
X104900000Y-99386928D01*
X104556522Y-99386928D01*
X104312498Y-99256494D01*
X103953404Y-99147564D01*
X103673541Y-99120000D01*
X103673539Y-99120000D01*
X103579959Y-99110783D01*
X103486379Y-99120000D01*
X103306418Y-99120000D01*
X103026555Y-99147564D01*
X102667461Y-99256494D01*
X102423437Y-99386928D01*
X101900000Y-99386928D01*
X101775518Y-99399188D01*
X101655820Y-99435498D01*
X101545506Y-99494463D01*
X101448815Y-99573815D01*
X101369463Y-99670506D01*
X101310498Y-99780820D01*
X101274188Y-99900518D01*
X101261928Y-100025000D01*
X101261928Y-102025000D01*
X101274188Y-102149482D01*
X101310498Y-102269180D01*
X101369463Y-102379494D01*
X101448815Y-102476185D01*
X101529139Y-102542105D01*
X101524474Y-102542564D01*
X101248956Y-102626141D01*
X101165379Y-102651494D01*
X100845331Y-102822564D01*
X100834437Y-102828387D01*
X100544363Y-103066444D01*
X100484708Y-103139135D01*
X98768853Y-104854990D01*
X97078631Y-104854990D01*
X96985051Y-104845773D01*
X96891471Y-104854990D01*
X96891469Y-104854990D01*
X96611606Y-104882554D01*
X96252512Y-104991484D01*
X96124498Y-105059909D01*
X95921568Y-105168377D01*
X95840291Y-105235080D01*
X95631495Y-105406434D01*
X95571835Y-105479130D01*
X93115966Y-107935000D01*
X90706418Y-107935000D01*
X90426555Y-107962564D01*
X90067461Y-108071494D01*
X89736518Y-108248387D01*
X89446444Y-108486444D01*
X89208387Y-108776518D01*
X89031494Y-109107461D01*
X88922564Y-109466555D01*
X88885783Y-109840000D01*
X88922564Y-110213445D01*
X89031494Y-110572539D01*
X89208387Y-110903482D01*
X89446444Y-111193556D01*
X89736518Y-111431613D01*
X89772616Y-111450908D01*
X89670273Y-111419863D01*
X89539666Y-111406999D01*
X89539659Y-111406999D01*
X89495999Y-111402699D01*
X89452339Y-111406999D01*
X87964235Y-111406999D01*
X86840785Y-110283550D01*
X86927932Y-110073158D01*
X86985000Y-109786260D01*
X86985000Y-109493740D01*
X86927932Y-109206842D01*
X86815990Y-108936589D01*
X86653475Y-108693368D01*
X86446632Y-108486525D01*
X86272240Y-108370000D01*
X86446632Y-108253475D01*
X86653475Y-108046632D01*
X86815990Y-107803411D01*
X86927932Y-107533158D01*
X86985000Y-107246260D01*
X86985000Y-106953740D01*
X86927932Y-106666842D01*
X86815990Y-106396589D01*
X86653475Y-106153368D01*
X86446632Y-105946525D01*
X86272240Y-105830000D01*
X86446632Y-105713475D01*
X86653475Y-105506632D01*
X86815990Y-105263411D01*
X86927932Y-104993158D01*
X86985000Y-104706260D01*
X86985000Y-104413740D01*
X86927932Y-104126842D01*
X86815990Y-103856589D01*
X86653475Y-103613368D01*
X86446632Y-103406525D01*
X86272240Y-103290000D01*
X86446632Y-103173475D01*
X86653475Y-102966632D01*
X86815990Y-102723411D01*
X86927932Y-102453158D01*
X86985000Y-102166260D01*
X86985000Y-101873740D01*
X86927932Y-101586842D01*
X86815990Y-101316589D01*
X86653475Y-101073368D01*
X86446632Y-100866525D01*
X86264466Y-100744805D01*
X86381355Y-100675178D01*
X86597588Y-100480269D01*
X86771641Y-100246920D01*
X86896825Y-99984099D01*
X86941476Y-99836890D01*
X86820155Y-99607000D01*
X85627000Y-99607000D01*
X85627000Y-99627000D01*
X85373000Y-99627000D01*
X85373000Y-99607000D01*
X85353000Y-99607000D01*
X85353000Y-99353000D01*
X85373000Y-99353000D01*
X85373000Y-99333000D01*
X85627000Y-99333000D01*
X85627000Y-99353000D01*
X86820155Y-99353000D01*
X86941476Y-99123110D01*
X86896825Y-98975901D01*
X86771641Y-98713080D01*
X86597588Y-98479731D01*
X86381355Y-98284822D01*
X86264466Y-98215195D01*
X86446632Y-98093475D01*
X86653475Y-97886632D01*
X86815990Y-97643411D01*
X86927932Y-97373158D01*
X86985000Y-97086260D01*
X86985000Y-96793740D01*
X86927932Y-96506842D01*
X86815990Y-96236589D01*
X86653475Y-95993368D01*
X86446632Y-95786525D01*
X86272240Y-95670000D01*
X86446632Y-95553475D01*
X86653475Y-95346632D01*
X86815990Y-95103411D01*
X86927932Y-94833158D01*
X86985000Y-94546260D01*
X86985000Y-94400000D01*
X95885783Y-94400000D01*
X95895000Y-94493580D01*
X95895000Y-94493581D01*
X95922564Y-94773444D01*
X96031494Y-95132538D01*
X96208387Y-95463482D01*
X96446444Y-95753556D01*
X96519144Y-95813220D01*
X98361788Y-97655865D01*
X98421444Y-97728556D01*
X98494134Y-97788211D01*
X98711517Y-97966613D01*
X99042460Y-98143506D01*
X99126037Y-98168859D01*
X99401555Y-98252436D01*
X99681418Y-98280000D01*
X99681420Y-98280000D01*
X99775000Y-98289217D01*
X99868580Y-98280000D01*
X103493582Y-98280000D01*
X103773445Y-98252436D01*
X104132539Y-98143506D01*
X104376563Y-98013072D01*
X104900000Y-98013072D01*
X105024482Y-98000812D01*
X105144180Y-97964502D01*
X105254494Y-97905537D01*
X105351185Y-97826185D01*
X105430537Y-97729494D01*
X105489502Y-97619180D01*
X105525812Y-97499482D01*
X105538072Y-97375000D01*
X105538072Y-95375000D01*
X105525812Y-95250518D01*
X105489502Y-95130820D01*
X105430537Y-95020506D01*
X105351185Y-94923815D01*
X105254494Y-94844463D01*
X105144180Y-94785498D01*
X105024482Y-94749188D01*
X104900000Y-94736928D01*
X104376563Y-94736928D01*
X104132539Y-94606494D01*
X103773445Y-94497564D01*
X103493582Y-94470000D01*
X100564076Y-94470000D01*
X99705000Y-93610924D01*
X99705000Y-92256891D01*
X102118519Y-92256891D01*
X102215843Y-92531252D01*
X102364822Y-92781355D01*
X102559731Y-92997588D01*
X102793080Y-93171641D01*
X103055901Y-93296825D01*
X103203110Y-93341476D01*
X103433000Y-93220155D01*
X103433000Y-92027000D01*
X102239186Y-92027000D01*
X102118519Y-92256891D01*
X99705000Y-92256891D01*
X99705000Y-91543109D01*
X102118519Y-91543109D01*
X102239186Y-91773000D01*
X103433000Y-91773000D01*
X103433000Y-90579845D01*
X103203110Y-90458524D01*
X103055901Y-90503175D01*
X102793080Y-90628359D01*
X102559731Y-90802412D01*
X102364822Y-91018645D01*
X102215843Y-91268748D01*
X102118519Y-91543109D01*
X99705000Y-91543109D01*
X99705000Y-89406418D01*
X99677436Y-89126555D01*
X99568506Y-88767461D01*
X99452271Y-88550000D01*
X104461928Y-88550000D01*
X104474188Y-88674482D01*
X104510498Y-88794180D01*
X104569463Y-88904494D01*
X104648815Y-89001185D01*
X104745506Y-89080537D01*
X104855820Y-89139502D01*
X104975518Y-89175812D01*
X105100000Y-89188072D01*
X105614250Y-89185000D01*
X105773000Y-89026250D01*
X105773000Y-86927000D01*
X106027000Y-86927000D01*
X106027000Y-89026250D01*
X106185750Y-89185000D01*
X106700000Y-89188072D01*
X106824482Y-89175812D01*
X106944180Y-89139502D01*
X107054494Y-89080537D01*
X107151185Y-89001185D01*
X107230537Y-88904494D01*
X107289502Y-88794180D01*
X107325812Y-88674482D01*
X107338072Y-88550000D01*
X112061928Y-88550000D01*
X112074188Y-88674482D01*
X112110498Y-88794180D01*
X112169463Y-88904494D01*
X112248815Y-89001185D01*
X112345506Y-89080537D01*
X112455820Y-89139502D01*
X112575518Y-89175812D01*
X112700000Y-89188072D01*
X113214250Y-89185000D01*
X113373000Y-89026250D01*
X113373000Y-86927000D01*
X112223750Y-86927000D01*
X112065000Y-87085750D01*
X112061928Y-88550000D01*
X107338072Y-88550000D01*
X107335000Y-87085750D01*
X107176250Y-86927000D01*
X106027000Y-86927000D01*
X105773000Y-86927000D01*
X104623750Y-86927000D01*
X104465000Y-87085750D01*
X104461928Y-88550000D01*
X99452271Y-88550000D01*
X99391613Y-88436518D01*
X99153556Y-88146444D01*
X98863482Y-87908387D01*
X98532539Y-87731494D01*
X98173445Y-87622564D01*
X97800000Y-87585783D01*
X97426556Y-87622564D01*
X97067462Y-87731494D01*
X96736519Y-87908387D01*
X96446445Y-88146444D01*
X96208388Y-88436518D01*
X96031495Y-88767461D01*
X95922565Y-89126555D01*
X95895001Y-89406418D01*
X95895000Y-94306420D01*
X95885783Y-94400000D01*
X86985000Y-94400000D01*
X86985000Y-94253740D01*
X86927932Y-93966842D01*
X86815990Y-93696589D01*
X86653475Y-93453368D01*
X86446632Y-93246525D01*
X86272240Y-93130000D01*
X86446632Y-93013475D01*
X86653475Y-92806632D01*
X86815990Y-92563411D01*
X86927932Y-92293158D01*
X86985000Y-92006260D01*
X86985000Y-91713740D01*
X86927932Y-91426842D01*
X86815990Y-91156589D01*
X86653475Y-90913368D01*
X86446632Y-90706525D01*
X86272240Y-90590000D01*
X86446632Y-90473475D01*
X86653475Y-90266632D01*
X86815990Y-90023411D01*
X86927932Y-89753158D01*
X86985000Y-89466260D01*
X86985000Y-89173740D01*
X86927932Y-88886842D01*
X86815990Y-88616589D01*
X86653475Y-88373368D01*
X86446632Y-88166525D01*
X86272240Y-88050000D01*
X86446632Y-87933475D01*
X86653475Y-87726632D01*
X86815990Y-87483411D01*
X86927932Y-87213158D01*
X86985000Y-86926260D01*
X86985000Y-86633740D01*
X86927932Y-86346842D01*
X86815990Y-86076589D01*
X86653475Y-85833368D01*
X86446632Y-85626525D01*
X86272240Y-85510000D01*
X86446632Y-85393475D01*
X86653475Y-85186632D01*
X86815990Y-84943411D01*
X86927932Y-84673158D01*
X86972321Y-84450000D01*
X94286928Y-84450000D01*
X94299188Y-84574482D01*
X94335498Y-84694180D01*
X94394463Y-84804494D01*
X94473815Y-84901185D01*
X94570506Y-84980537D01*
X94680820Y-85039502D01*
X94800518Y-85075812D01*
X94925000Y-85088072D01*
X95014250Y-85085000D01*
X95173000Y-84926250D01*
X95173000Y-83977000D01*
X94448750Y-83977000D01*
X94290000Y-84135750D01*
X94286928Y-84450000D01*
X86972321Y-84450000D01*
X86985000Y-84386260D01*
X86985000Y-84093740D01*
X86927932Y-83806842D01*
X86815990Y-83536589D01*
X86653475Y-83293368D01*
X86446632Y-83086525D01*
X86272240Y-82970000D01*
X86446632Y-82853475D01*
X86653475Y-82646632D01*
X86815990Y-82403411D01*
X86927932Y-82133158D01*
X86985000Y-81846260D01*
X86985000Y-81553740D01*
X86927932Y-81266842D01*
X86815990Y-80996589D01*
X86653475Y-80753368D01*
X86446632Y-80546525D01*
X86264466Y-80424805D01*
X86381355Y-80355178D01*
X86597588Y-80160269D01*
X86771641Y-79926920D01*
X86896825Y-79664099D01*
X86941476Y-79516890D01*
X86820155Y-79287000D01*
X85627000Y-79287000D01*
X85627000Y-79307000D01*
X85373000Y-79307000D01*
X85373000Y-79287000D01*
X85353000Y-79287000D01*
X85353000Y-79033000D01*
X85373000Y-79033000D01*
X85373000Y-79013000D01*
X85627000Y-79013000D01*
X85627000Y-79033000D01*
X86820155Y-79033000D01*
X86941476Y-78803110D01*
X86896825Y-78655901D01*
X86771641Y-78393080D01*
X86597588Y-78159731D01*
X86381355Y-77964822D01*
X86264466Y-77895195D01*
X86446632Y-77773475D01*
X86653475Y-77566632D01*
X86815990Y-77323411D01*
X86927932Y-77053158D01*
X86985000Y-76766260D01*
X86985000Y-76473740D01*
X86927932Y-76186842D01*
X86815990Y-75916589D01*
X86653475Y-75673368D01*
X86446632Y-75466525D01*
X86272240Y-75350000D01*
X86446632Y-75233475D01*
X86653475Y-75026632D01*
X86815990Y-74783411D01*
X86927932Y-74513158D01*
X86985000Y-74226260D01*
X86985000Y-73933740D01*
X86927932Y-73646842D01*
X86815990Y-73376589D01*
X86653475Y-73133368D01*
X86446632Y-72926525D01*
X86272240Y-72810000D01*
X86446632Y-72693475D01*
X86653475Y-72486632D01*
X86815990Y-72243411D01*
X86927932Y-71973158D01*
X86985000Y-71686260D01*
X86985000Y-71393740D01*
X86927932Y-71106842D01*
X86815990Y-70836589D01*
X86653475Y-70593368D01*
X86521620Y-70461513D01*
X86594180Y-70439502D01*
X86704494Y-70380537D01*
X86801185Y-70301185D01*
X86880537Y-70204494D01*
X86939502Y-70094180D01*
X86975812Y-69974482D01*
X86988072Y-69850000D01*
X86988072Y-68982147D01*
X87556781Y-69550856D01*
G37*
X87556781Y-69550856D02*
X87616445Y-69623557D01*
X87817913Y-69788897D01*
X87906518Y-69861614D01*
X87969041Y-69895033D01*
X88237462Y-70038507D01*
X88596556Y-70147437D01*
X88876419Y-70175001D01*
X88876421Y-70175001D01*
X88970001Y-70184218D01*
X89063581Y-70175001D01*
X92871321Y-70175001D01*
X92149139Y-70897184D01*
X92076444Y-70956843D01*
X91980242Y-71074066D01*
X91838386Y-71246917D01*
X91661494Y-71577860D01*
X91552564Y-71936954D01*
X91515782Y-72310399D01*
X91525000Y-72403988D01*
X91524999Y-79396021D01*
X91515782Y-79489601D01*
X91524999Y-79583181D01*
X91524999Y-79583182D01*
X91552563Y-79863045D01*
X91661493Y-80222139D01*
X91700203Y-80294560D01*
X91669199Y-80273844D01*
X91335250Y-80135518D01*
X90980732Y-80065000D01*
X90619268Y-80065000D01*
X90264750Y-80135518D01*
X89930801Y-80273844D01*
X89630256Y-80474662D01*
X89374662Y-80730256D01*
X89173844Y-81030801D01*
X89035518Y-81364750D01*
X88965000Y-81719268D01*
X88965000Y-82080732D01*
X89035518Y-82435250D01*
X89173844Y-82769199D01*
X89374662Y-83069744D01*
X89630256Y-83325338D01*
X89930801Y-83526156D01*
X90264750Y-83664482D01*
X90619268Y-83735000D01*
X90980732Y-83735000D01*
X91335250Y-83664482D01*
X91669199Y-83526156D01*
X91969744Y-83325338D01*
X92225338Y-83069744D01*
X92426156Y-82769199D01*
X92564482Y-82435250D01*
X92635000Y-82080732D01*
X92635000Y-81719268D01*
X92564482Y-81364750D01*
X92531538Y-81285215D01*
X93927186Y-82680865D01*
X93986842Y-82753556D01*
X94059531Y-82813210D01*
X94276915Y-82991613D01*
X94331033Y-83020539D01*
X94299188Y-83125518D01*
X94286928Y-83250000D01*
X94290000Y-83564250D01*
X94448750Y-83723000D01*
X95173000Y-83723000D01*
X95173000Y-83703000D01*
X95427000Y-83703000D01*
X95427000Y-83723000D01*
X95447000Y-83723000D01*
X95447000Y-83977000D01*
X95427000Y-83977000D01*
X95427000Y-84926250D01*
X95585750Y-85085000D01*
X95675000Y-85088072D01*
X95765766Y-85079133D01*
X95785498Y-85144180D01*
X95844463Y-85254494D01*
X95923815Y-85351185D01*
X96020506Y-85430537D01*
X96130820Y-85489502D01*
X96250518Y-85525812D01*
X96375000Y-85538072D01*
X96714250Y-85535000D01*
X96873000Y-85376250D01*
X96873000Y-84277000D01*
X97127000Y-84277000D01*
X97127000Y-85376250D01*
X97285750Y-85535000D01*
X97625000Y-85538072D01*
X97749482Y-85525812D01*
X97869180Y-85489502D01*
X97979494Y-85430537D01*
X98000000Y-85413708D01*
X98020506Y-85430537D01*
X98130820Y-85489502D01*
X98250518Y-85525812D01*
X98375000Y-85538072D01*
X98714250Y-85535000D01*
X98873000Y-85376250D01*
X98873000Y-84277000D01*
X99127000Y-84277000D01*
X99127000Y-85376250D01*
X99285750Y-85535000D01*
X99625000Y-85538072D01*
X99749482Y-85525812D01*
X99869180Y-85489502D01*
X99979494Y-85430537D01*
X100000000Y-85413708D01*
X100020506Y-85430537D01*
X100130820Y-85489502D01*
X100250518Y-85525812D01*
X100375000Y-85538072D01*
X100714250Y-85535000D01*
X100873000Y-85376250D01*
X100873000Y-84277000D01*
X101127000Y-84277000D01*
X101127000Y-85376250D01*
X101285750Y-85535000D01*
X101625000Y-85538072D01*
X101749482Y-85525812D01*
X101869180Y-85489502D01*
X101979494Y-85430537D01*
X102076185Y-85351185D01*
X102155537Y-85254494D01*
X102214502Y-85144180D01*
X102243071Y-85050000D01*
X104461928Y-85050000D01*
X104465000Y-86514250D01*
X104623750Y-86673000D01*
X105773000Y-86673000D01*
X105773000Y-84573750D01*
X106027000Y-84573750D01*
X106027000Y-86673000D01*
X107176250Y-86673000D01*
X107335000Y-86514250D01*
X107338072Y-85050000D01*
X112061928Y-85050000D01*
X112065000Y-86514250D01*
X112223750Y-86673000D01*
X113373000Y-86673000D01*
X113373000Y-84573750D01*
X113214250Y-84415000D01*
X112700000Y-84411928D01*
X112575518Y-84424188D01*
X112455820Y-84460498D01*
X112345506Y-84519463D01*
X112248815Y-84598815D01*
X112169463Y-84695506D01*
X112110498Y-84805820D01*
X112074188Y-84925518D01*
X112061928Y-85050000D01*
X107338072Y-85050000D01*
X107325812Y-84925518D01*
X107289502Y-84805820D01*
X107230537Y-84695506D01*
X107151185Y-84598815D01*
X107054494Y-84519463D01*
X106944180Y-84460498D01*
X106824482Y-84424188D01*
X106700000Y-84411928D01*
X106185750Y-84415000D01*
X106027000Y-84573750D01*
X105773000Y-84573750D01*
X105614250Y-84415000D01*
X105100000Y-84411928D01*
X104975518Y-84424188D01*
X104855820Y-84460498D01*
X104745506Y-84519463D01*
X104648815Y-84598815D01*
X104569463Y-84695506D01*
X104510498Y-84805820D01*
X104474188Y-84925518D01*
X104461928Y-85050000D01*
X102243071Y-85050000D01*
X102250812Y-85024482D01*
X102263072Y-84900000D01*
X102260000Y-84435750D01*
X102101250Y-84277000D01*
X101127000Y-84277000D01*
X100873000Y-84277000D01*
X99127000Y-84277000D01*
X98873000Y-84277000D01*
X97127000Y-84277000D01*
X96873000Y-84277000D01*
X96853000Y-84277000D01*
X96853000Y-84023000D01*
X96873000Y-84023000D01*
X96873000Y-84003000D01*
X97127000Y-84003000D01*
X97127000Y-84023000D01*
X98873000Y-84023000D01*
X98873000Y-84003000D01*
X99127000Y-84003000D01*
X99127000Y-84023000D01*
X100873000Y-84023000D01*
X100873000Y-84003000D01*
X101127000Y-84003000D01*
X101127000Y-84023000D01*
X102101250Y-84023000D01*
X102260000Y-83864250D01*
X102263072Y-83400000D01*
X102253716Y-83305000D01*
X104483446Y-83305000D01*
X104510498Y-83394180D01*
X104569463Y-83504494D01*
X104648815Y-83601185D01*
X104745506Y-83680537D01*
X104855820Y-83739502D01*
X104975518Y-83775812D01*
X105100000Y-83788072D01*
X106700000Y-83788072D01*
X106824482Y-83775812D01*
X106944180Y-83739502D01*
X107054494Y-83680537D01*
X107151185Y-83601185D01*
X107230537Y-83504494D01*
X107289502Y-83394180D01*
X107316554Y-83305000D01*
X112083446Y-83305000D01*
X112110498Y-83394180D01*
X112169463Y-83504494D01*
X112248815Y-83601185D01*
X112345506Y-83680537D01*
X112455820Y-83739502D01*
X112575518Y-83775812D01*
X112700000Y-83788072D01*
X113193996Y-83788072D01*
X113820715Y-84414791D01*
X113785750Y-84415000D01*
X113627000Y-84573750D01*
X113627000Y-86673000D01*
X113647000Y-86673000D01*
X113647000Y-86927000D01*
X113627000Y-86927000D01*
X113627000Y-89026250D01*
X113785750Y-89185000D01*
X114300000Y-89188072D01*
X114335011Y-89184624D01*
X114335011Y-89570913D01*
X113960924Y-89945000D01*
X112408728Y-89945000D01*
X112344180Y-89910498D01*
X112224482Y-89874188D01*
X112100000Y-89861928D01*
X108900000Y-89861928D01*
X108775518Y-89874188D01*
X108655820Y-89910498D01*
X108591272Y-89945000D01*
X106443590Y-89945000D01*
X106350010Y-89935783D01*
X106256431Y-89945000D01*
X106256428Y-89945000D01*
X105976565Y-89972564D01*
X105617471Y-90081494D01*
X105286528Y-90258387D01*
X105060446Y-90443927D01*
X105005820Y-90460498D01*
X104895506Y-90519463D01*
X104798815Y-90598815D01*
X104719463Y-90695506D01*
X104660498Y-90805820D01*
X104636034Y-90886466D01*
X104560269Y-90802412D01*
X104326920Y-90628359D01*
X104064099Y-90503175D01*
X103916890Y-90458524D01*
X103687000Y-90579845D01*
X103687000Y-91773000D01*
X103707000Y-91773000D01*
X103707000Y-92027000D01*
X103687000Y-92027000D01*
X103687000Y-93220155D01*
X103916890Y-93341476D01*
X104064099Y-93296825D01*
X104326920Y-93171641D01*
X104560269Y-92997588D01*
X104636034Y-92913534D01*
X104660498Y-92994180D01*
X104719463Y-93104494D01*
X104798815Y-93201185D01*
X104895506Y-93280537D01*
X105005820Y-93339502D01*
X105077779Y-93361331D01*
X105236528Y-93491613D01*
X105567471Y-93668505D01*
X105926565Y-93777435D01*
X106300010Y-93814217D01*
X106673455Y-93777435D01*
X106747413Y-93755000D01*
X108591272Y-93755000D01*
X108655820Y-93789502D01*
X108775518Y-93825812D01*
X108900000Y-93838072D01*
X112100000Y-93838072D01*
X112224482Y-93825812D01*
X112344180Y-93789502D01*
X112408728Y-93755000D01*
X112690923Y-93755000D01*
X109219140Y-97226785D01*
X109146445Y-97286444D01*
X109021671Y-97438482D01*
X108908387Y-97576518D01*
X108831440Y-97720476D01*
X108804243Y-97771359D01*
X108775518Y-97774188D01*
X108655820Y-97810498D01*
X108545506Y-97869463D01*
X108448815Y-97948815D01*
X108369463Y-98045506D01*
X108310498Y-98155820D01*
X108274188Y-98275518D01*
X108261928Y-98400000D01*
X108261928Y-101100000D01*
X108274188Y-101224482D01*
X108310498Y-101344180D01*
X108369463Y-101454494D01*
X108448815Y-101551185D01*
X108495001Y-101589088D01*
X108495000Y-103245965D01*
X105538072Y-100289038D01*
X105538072Y-100025000D01*
X105525812Y-99900518D01*
X105489502Y-99780820D01*
X105430537Y-99670506D01*
X105351185Y-99573815D01*
X105254494Y-99494463D01*
X105144180Y-99435498D01*
X105024482Y-99399188D01*
X104900000Y-99386928D01*
X104556522Y-99386928D01*
X104312498Y-99256494D01*
X103953404Y-99147564D01*
X103673541Y-99120000D01*
X103673539Y-99120000D01*
X103579959Y-99110783D01*
X103486379Y-99120000D01*
X103306418Y-99120000D01*
X103026555Y-99147564D01*
X102667461Y-99256494D01*
X102423437Y-99386928D01*
X101900000Y-99386928D01*
X101775518Y-99399188D01*
X101655820Y-99435498D01*
X101545506Y-99494463D01*
X101448815Y-99573815D01*
X101369463Y-99670506D01*
X101310498Y-99780820D01*
X101274188Y-99900518D01*
X101261928Y-100025000D01*
X101261928Y-102025000D01*
X101274188Y-102149482D01*
X101310498Y-102269180D01*
X101369463Y-102379494D01*
X101448815Y-102476185D01*
X101529139Y-102542105D01*
X101524474Y-102542564D01*
X101248956Y-102626141D01*
X101165379Y-102651494D01*
X100845331Y-102822564D01*
X100834437Y-102828387D01*
X100544363Y-103066444D01*
X100484708Y-103139135D01*
X98768853Y-104854990D01*
X97078631Y-104854990D01*
X96985051Y-104845773D01*
X96891471Y-104854990D01*
X96891469Y-104854990D01*
X96611606Y-104882554D01*
X96252512Y-104991484D01*
X96124498Y-105059909D01*
X95921568Y-105168377D01*
X95840291Y-105235080D01*
X95631495Y-105406434D01*
X95571835Y-105479130D01*
X93115966Y-107935000D01*
X90706418Y-107935000D01*
X90426555Y-107962564D01*
X90067461Y-108071494D01*
X89736518Y-108248387D01*
X89446444Y-108486444D01*
X89208387Y-108776518D01*
X89031494Y-109107461D01*
X88922564Y-109466555D01*
X88885783Y-109840000D01*
X88922564Y-110213445D01*
X89031494Y-110572539D01*
X89208387Y-110903482D01*
X89446444Y-111193556D01*
X89736518Y-111431613D01*
X89772616Y-111450908D01*
X89670273Y-111419863D01*
X89539666Y-111406999D01*
X89539659Y-111406999D01*
X89495999Y-111402699D01*
X89452339Y-111406999D01*
X87964235Y-111406999D01*
X86840785Y-110283550D01*
X86927932Y-110073158D01*
X86985000Y-109786260D01*
X86985000Y-109493740D01*
X86927932Y-109206842D01*
X86815990Y-108936589D01*
X86653475Y-108693368D01*
X86446632Y-108486525D01*
X86272240Y-108370000D01*
X86446632Y-108253475D01*
X86653475Y-108046632D01*
X86815990Y-107803411D01*
X86927932Y-107533158D01*
X86985000Y-107246260D01*
X86985000Y-106953740D01*
X86927932Y-106666842D01*
X86815990Y-106396589D01*
X86653475Y-106153368D01*
X86446632Y-105946525D01*
X86272240Y-105830000D01*
X86446632Y-105713475D01*
X86653475Y-105506632D01*
X86815990Y-105263411D01*
X86927932Y-104993158D01*
X86985000Y-104706260D01*
X86985000Y-104413740D01*
X86927932Y-104126842D01*
X86815990Y-103856589D01*
X86653475Y-103613368D01*
X86446632Y-103406525D01*
X86272240Y-103290000D01*
X86446632Y-103173475D01*
X86653475Y-102966632D01*
X86815990Y-102723411D01*
X86927932Y-102453158D01*
X86985000Y-102166260D01*
X86985000Y-101873740D01*
X86927932Y-101586842D01*
X86815990Y-101316589D01*
X86653475Y-101073368D01*
X86446632Y-100866525D01*
X86264466Y-100744805D01*
X86381355Y-100675178D01*
X86597588Y-100480269D01*
X86771641Y-100246920D01*
X86896825Y-99984099D01*
X86941476Y-99836890D01*
X86820155Y-99607000D01*
X85627000Y-99607000D01*
X85627000Y-99627000D01*
X85373000Y-99627000D01*
X85373000Y-99607000D01*
X85353000Y-99607000D01*
X85353000Y-99353000D01*
X85373000Y-99353000D01*
X85373000Y-99333000D01*
X85627000Y-99333000D01*
X85627000Y-99353000D01*
X86820155Y-99353000D01*
X86941476Y-99123110D01*
X86896825Y-98975901D01*
X86771641Y-98713080D01*
X86597588Y-98479731D01*
X86381355Y-98284822D01*
X86264466Y-98215195D01*
X86446632Y-98093475D01*
X86653475Y-97886632D01*
X86815990Y-97643411D01*
X86927932Y-97373158D01*
X86985000Y-97086260D01*
X86985000Y-96793740D01*
X86927932Y-96506842D01*
X86815990Y-96236589D01*
X86653475Y-95993368D01*
X86446632Y-95786525D01*
X86272240Y-95670000D01*
X86446632Y-95553475D01*
X86653475Y-95346632D01*
X86815990Y-95103411D01*
X86927932Y-94833158D01*
X86985000Y-94546260D01*
X86985000Y-94400000D01*
X95885783Y-94400000D01*
X95895000Y-94493580D01*
X95895000Y-94493581D01*
X95922564Y-94773444D01*
X96031494Y-95132538D01*
X96208387Y-95463482D01*
X96446444Y-95753556D01*
X96519144Y-95813220D01*
X98361788Y-97655865D01*
X98421444Y-97728556D01*
X98494134Y-97788211D01*
X98711517Y-97966613D01*
X99042460Y-98143506D01*
X99126037Y-98168859D01*
X99401555Y-98252436D01*
X99681418Y-98280000D01*
X99681420Y-98280000D01*
X99775000Y-98289217D01*
X99868580Y-98280000D01*
X103493582Y-98280000D01*
X103773445Y-98252436D01*
X104132539Y-98143506D01*
X104376563Y-98013072D01*
X104900000Y-98013072D01*
X105024482Y-98000812D01*
X105144180Y-97964502D01*
X105254494Y-97905537D01*
X105351185Y-97826185D01*
X105430537Y-97729494D01*
X105489502Y-97619180D01*
X105525812Y-97499482D01*
X105538072Y-97375000D01*
X105538072Y-95375000D01*
X105525812Y-95250518D01*
X105489502Y-95130820D01*
X105430537Y-95020506D01*
X105351185Y-94923815D01*
X105254494Y-94844463D01*
X105144180Y-94785498D01*
X105024482Y-94749188D01*
X104900000Y-94736928D01*
X104376563Y-94736928D01*
X104132539Y-94606494D01*
X103773445Y-94497564D01*
X103493582Y-94470000D01*
X100564076Y-94470000D01*
X99705000Y-93610924D01*
X99705000Y-92256891D01*
X102118519Y-92256891D01*
X102215843Y-92531252D01*
X102364822Y-92781355D01*
X102559731Y-92997588D01*
X102793080Y-93171641D01*
X103055901Y-93296825D01*
X103203110Y-93341476D01*
X103433000Y-93220155D01*
X103433000Y-92027000D01*
X102239186Y-92027000D01*
X102118519Y-92256891D01*
X99705000Y-92256891D01*
X99705000Y-91543109D01*
X102118519Y-91543109D01*
X102239186Y-91773000D01*
X103433000Y-91773000D01*
X103433000Y-90579845D01*
X103203110Y-90458524D01*
X103055901Y-90503175D01*
X102793080Y-90628359D01*
X102559731Y-90802412D01*
X102364822Y-91018645D01*
X102215843Y-91268748D01*
X102118519Y-91543109D01*
X99705000Y-91543109D01*
X99705000Y-89406418D01*
X99677436Y-89126555D01*
X99568506Y-88767461D01*
X99452271Y-88550000D01*
X104461928Y-88550000D01*
X104474188Y-88674482D01*
X104510498Y-88794180D01*
X104569463Y-88904494D01*
X104648815Y-89001185D01*
X104745506Y-89080537D01*
X104855820Y-89139502D01*
X104975518Y-89175812D01*
X105100000Y-89188072D01*
X105614250Y-89185000D01*
X105773000Y-89026250D01*
X105773000Y-86927000D01*
X106027000Y-86927000D01*
X106027000Y-89026250D01*
X106185750Y-89185000D01*
X106700000Y-89188072D01*
X106824482Y-89175812D01*
X106944180Y-89139502D01*
X107054494Y-89080537D01*
X107151185Y-89001185D01*
X107230537Y-88904494D01*
X107289502Y-88794180D01*
X107325812Y-88674482D01*
X107338072Y-88550000D01*
X112061928Y-88550000D01*
X112074188Y-88674482D01*
X112110498Y-88794180D01*
X112169463Y-88904494D01*
X112248815Y-89001185D01*
X112345506Y-89080537D01*
X112455820Y-89139502D01*
X112575518Y-89175812D01*
X112700000Y-89188072D01*
X113214250Y-89185000D01*
X113373000Y-89026250D01*
X113373000Y-86927000D01*
X112223750Y-86927000D01*
X112065000Y-87085750D01*
X112061928Y-88550000D01*
X107338072Y-88550000D01*
X107335000Y-87085750D01*
X107176250Y-86927000D01*
X106027000Y-86927000D01*
X105773000Y-86927000D01*
X104623750Y-86927000D01*
X104465000Y-87085750D01*
X104461928Y-88550000D01*
X99452271Y-88550000D01*
X99391613Y-88436518D01*
X99153556Y-88146444D01*
X98863482Y-87908387D01*
X98532539Y-87731494D01*
X98173445Y-87622564D01*
X97800000Y-87585783D01*
X97426556Y-87622564D01*
X97067462Y-87731494D01*
X96736519Y-87908387D01*
X96446445Y-88146444D01*
X96208388Y-88436518D01*
X96031495Y-88767461D01*
X95922565Y-89126555D01*
X95895001Y-89406418D01*
X95895000Y-94306420D01*
X95885783Y-94400000D01*
X86985000Y-94400000D01*
X86985000Y-94253740D01*
X86927932Y-93966842D01*
X86815990Y-93696589D01*
X86653475Y-93453368D01*
X86446632Y-93246525D01*
X86272240Y-93130000D01*
X86446632Y-93013475D01*
X86653475Y-92806632D01*
X86815990Y-92563411D01*
X86927932Y-92293158D01*
X86985000Y-92006260D01*
X86985000Y-91713740D01*
X86927932Y-91426842D01*
X86815990Y-91156589D01*
X86653475Y-90913368D01*
X86446632Y-90706525D01*
X86272240Y-90590000D01*
X86446632Y-90473475D01*
X86653475Y-90266632D01*
X86815990Y-90023411D01*
X86927932Y-89753158D01*
X86985000Y-89466260D01*
X86985000Y-89173740D01*
X86927932Y-88886842D01*
X86815990Y-88616589D01*
X86653475Y-88373368D01*
X86446632Y-88166525D01*
X86272240Y-88050000D01*
X86446632Y-87933475D01*
X86653475Y-87726632D01*
X86815990Y-87483411D01*
X86927932Y-87213158D01*
X86985000Y-86926260D01*
X86985000Y-86633740D01*
X86927932Y-86346842D01*
X86815990Y-86076589D01*
X86653475Y-85833368D01*
X86446632Y-85626525D01*
X86272240Y-85510000D01*
X86446632Y-85393475D01*
X86653475Y-85186632D01*
X86815990Y-84943411D01*
X86927932Y-84673158D01*
X86972321Y-84450000D01*
X94286928Y-84450000D01*
X94299188Y-84574482D01*
X94335498Y-84694180D01*
X94394463Y-84804494D01*
X94473815Y-84901185D01*
X94570506Y-84980537D01*
X94680820Y-85039502D01*
X94800518Y-85075812D01*
X94925000Y-85088072D01*
X95014250Y-85085000D01*
X95173000Y-84926250D01*
X95173000Y-83977000D01*
X94448750Y-83977000D01*
X94290000Y-84135750D01*
X94286928Y-84450000D01*
X86972321Y-84450000D01*
X86985000Y-84386260D01*
X86985000Y-84093740D01*
X86927932Y-83806842D01*
X86815990Y-83536589D01*
X86653475Y-83293368D01*
X86446632Y-83086525D01*
X86272240Y-82970000D01*
X86446632Y-82853475D01*
X86653475Y-82646632D01*
X86815990Y-82403411D01*
X86927932Y-82133158D01*
X86985000Y-81846260D01*
X86985000Y-81553740D01*
X86927932Y-81266842D01*
X86815990Y-80996589D01*
X86653475Y-80753368D01*
X86446632Y-80546525D01*
X86264466Y-80424805D01*
X86381355Y-80355178D01*
X86597588Y-80160269D01*
X86771641Y-79926920D01*
X86896825Y-79664099D01*
X86941476Y-79516890D01*
X86820155Y-79287000D01*
X85627000Y-79287000D01*
X85627000Y-79307000D01*
X85373000Y-79307000D01*
X85373000Y-79287000D01*
X85353000Y-79287000D01*
X85353000Y-79033000D01*
X85373000Y-79033000D01*
X85373000Y-79013000D01*
X85627000Y-79013000D01*
X85627000Y-79033000D01*
X86820155Y-79033000D01*
X86941476Y-78803110D01*
X86896825Y-78655901D01*
X86771641Y-78393080D01*
X86597588Y-78159731D01*
X86381355Y-77964822D01*
X86264466Y-77895195D01*
X86446632Y-77773475D01*
X86653475Y-77566632D01*
X86815990Y-77323411D01*
X86927932Y-77053158D01*
X86985000Y-76766260D01*
X86985000Y-76473740D01*
X86927932Y-76186842D01*
X86815990Y-75916589D01*
X86653475Y-75673368D01*
X86446632Y-75466525D01*
X86272240Y-75350000D01*
X86446632Y-75233475D01*
X86653475Y-75026632D01*
X86815990Y-74783411D01*
X86927932Y-74513158D01*
X86985000Y-74226260D01*
X86985000Y-73933740D01*
X86927932Y-73646842D01*
X86815990Y-73376589D01*
X86653475Y-73133368D01*
X86446632Y-72926525D01*
X86272240Y-72810000D01*
X86446632Y-72693475D01*
X86653475Y-72486632D01*
X86815990Y-72243411D01*
X86927932Y-71973158D01*
X86985000Y-71686260D01*
X86985000Y-71393740D01*
X86927932Y-71106842D01*
X86815990Y-70836589D01*
X86653475Y-70593368D01*
X86521620Y-70461513D01*
X86594180Y-70439502D01*
X86704494Y-70380537D01*
X86801185Y-70301185D01*
X86880537Y-70204494D01*
X86939502Y-70094180D01*
X86975812Y-69974482D01*
X86988072Y-69850000D01*
X86988072Y-68982147D01*
X87556781Y-69550856D01*
G36*
X125695001Y-105489077D02*
G01*
X125695000Y-107043581D01*
X125722564Y-107323444D01*
X125761928Y-107453210D01*
X125761928Y-107785010D01*
X123280889Y-107785010D01*
X123251185Y-107748815D01*
X123154494Y-107669463D01*
X123044180Y-107610498D01*
X122924482Y-107574188D01*
X122800000Y-107561928D01*
X122343000Y-107561928D01*
X122343000Y-106356146D01*
X122348530Y-106300000D01*
X122343000Y-106243854D01*
X122343000Y-104356138D01*
X122348529Y-104299999D01*
X122343000Y-104243860D01*
X122343000Y-104243854D01*
X122326461Y-104075933D01*
X122323443Y-104065982D01*
X122288928Y-103952203D01*
X122261103Y-103860477D01*
X122154968Y-103661911D01*
X122135404Y-103638072D01*
X122800000Y-103638072D01*
X122924482Y-103625812D01*
X123044180Y-103589502D01*
X123108728Y-103555000D01*
X123760925Y-103555000D01*
X125695001Y-105489077D01*
G37*
X125695001Y-105489077D02*
X125695000Y-107043581D01*
X125722564Y-107323444D01*
X125761928Y-107453210D01*
X125761928Y-107785010D01*
X123280889Y-107785010D01*
X123251185Y-107748815D01*
X123154494Y-107669463D01*
X123044180Y-107610498D01*
X122924482Y-107574188D01*
X122800000Y-107561928D01*
X122343000Y-107561928D01*
X122343000Y-106356146D01*
X122348530Y-106300000D01*
X122343000Y-106243854D01*
X122343000Y-104356138D01*
X122348529Y-104299999D01*
X122343000Y-104243860D01*
X122343000Y-104243854D01*
X122326461Y-104075933D01*
X122323443Y-104065982D01*
X122288928Y-103952203D01*
X122261103Y-103860477D01*
X122154968Y-103661911D01*
X122135404Y-103638072D01*
X122800000Y-103638072D01*
X122924482Y-103625812D01*
X123044180Y-103589502D01*
X123108728Y-103555000D01*
X123760925Y-103555000D01*
X125695001Y-105489077D01*
G36*
X98273748Y-73262822D02*
G01*
X98175000Y-73261928D01*
X98050518Y-73274188D01*
X97930820Y-73310498D01*
X97820506Y-73369463D01*
X97723815Y-73448815D01*
X97644463Y-73545506D01*
X97585498Y-73655820D01*
X97549188Y-73775518D01*
X97536928Y-73900000D01*
X97540000Y-74364250D01*
X97698750Y-74523000D01*
X98673000Y-74523000D01*
X98673000Y-74503000D01*
X98927000Y-74503000D01*
X98927000Y-74523000D01*
X98947000Y-74523000D01*
X98947000Y-74777000D01*
X98927000Y-74777000D01*
X98927000Y-74797000D01*
X98673000Y-74797000D01*
X98673000Y-74777000D01*
X97698750Y-74777000D01*
X97540000Y-74935750D01*
X97538648Y-75140000D01*
X96503711Y-75140000D01*
X96459774Y-75096063D01*
X96290256Y-74982795D01*
X96101898Y-74904774D01*
X95901939Y-74865000D01*
X95698061Y-74865000D01*
X95498102Y-74904774D01*
X95334999Y-74972334D01*
X95334999Y-74787902D01*
X95488184Y-74826300D01*
X95770512Y-74840217D01*
X96050130Y-74798787D01*
X96316292Y-74703603D01*
X96441514Y-74636671D01*
X96513097Y-74392702D01*
X95700000Y-73579605D01*
X95685858Y-73593748D01*
X95506253Y-73414143D01*
X95520395Y-73400000D01*
X95506253Y-73385858D01*
X95685858Y-73206253D01*
X95700000Y-73220395D01*
X95714143Y-73206253D01*
X95893748Y-73385858D01*
X95879605Y-73400000D01*
X96692702Y-74213097D01*
X96936671Y-74141514D01*
X97057571Y-73886004D01*
X97126300Y-73611816D01*
X97140217Y-73329488D01*
X97098787Y-73049870D01*
X97093469Y-73034999D01*
X98045925Y-73034999D01*
X98273748Y-73262822D01*
G37*
X98273748Y-73262822D02*
X98175000Y-73261928D01*
X98050518Y-73274188D01*
X97930820Y-73310498D01*
X97820506Y-73369463D01*
X97723815Y-73448815D01*
X97644463Y-73545506D01*
X97585498Y-73655820D01*
X97549188Y-73775518D01*
X97536928Y-73900000D01*
X97540000Y-74364250D01*
X97698750Y-74523000D01*
X98673000Y-74523000D01*
X98673000Y-74503000D01*
X98927000Y-74503000D01*
X98927000Y-74523000D01*
X98947000Y-74523000D01*
X98947000Y-74777000D01*
X98927000Y-74777000D01*
X98927000Y-74797000D01*
X98673000Y-74797000D01*
X98673000Y-74777000D01*
X97698750Y-74777000D01*
X97540000Y-74935750D01*
X97538648Y-75140000D01*
X96503711Y-75140000D01*
X96459774Y-75096063D01*
X96290256Y-74982795D01*
X96101898Y-74904774D01*
X95901939Y-74865000D01*
X95698061Y-74865000D01*
X95498102Y-74904774D01*
X95334999Y-74972334D01*
X95334999Y-74787902D01*
X95488184Y-74826300D01*
X95770512Y-74840217D01*
X96050130Y-74798787D01*
X96316292Y-74703603D01*
X96441514Y-74636671D01*
X96513097Y-74392702D01*
X95700000Y-73579605D01*
X95685858Y-73593748D01*
X95506253Y-73414143D01*
X95520395Y-73400000D01*
X95506253Y-73385858D01*
X95685858Y-73206253D01*
X95700000Y-73220395D01*
X95714143Y-73206253D01*
X95893748Y-73385858D01*
X95879605Y-73400000D01*
X96692702Y-74213097D01*
X96936671Y-74141514D01*
X97057571Y-73886004D01*
X97126300Y-73611816D01*
X97140217Y-73329488D01*
X97098787Y-73049870D01*
X97093469Y-73034999D01*
X98045925Y-73034999D01*
X98273748Y-73262822D01*
G36*
X102808387Y-67313482D02*
G01*
X103046444Y-67603556D01*
X103119145Y-67663220D01*
X108817851Y-73361928D01*
X108375000Y-73361928D01*
X108250518Y-73374188D01*
X108130820Y-73410498D01*
X108020506Y-73469463D01*
X107980193Y-73502547D01*
X107964502Y-73450820D01*
X107905537Y-73340506D01*
X107826185Y-73243815D01*
X107729494Y-73164463D01*
X107619180Y-73105498D01*
X107499482Y-73069188D01*
X107375000Y-73056928D01*
X107258677Y-73056928D01*
X107238089Y-73040032D01*
X107039523Y-72933897D01*
X106824067Y-72868539D01*
X106656146Y-72852000D01*
X102995667Y-72852000D01*
X102968505Y-72762459D01*
X102791613Y-72431516D01*
X102613210Y-72214132D01*
X100248220Y-69849144D01*
X100230696Y-69827791D01*
X100479557Y-69623557D01*
X100539221Y-69550857D01*
X102200866Y-67889213D01*
X102273557Y-67829557D01*
X102405630Y-67668625D01*
X102511614Y-67539484D01*
X102619739Y-67337196D01*
X102688507Y-67208540D01*
X102711601Y-67132408D01*
X102808387Y-67313482D01*
G37*
X102808387Y-67313482D02*
X103046444Y-67603556D01*
X103119145Y-67663220D01*
X108817851Y-73361928D01*
X108375000Y-73361928D01*
X108250518Y-73374188D01*
X108130820Y-73410498D01*
X108020506Y-73469463D01*
X107980193Y-73502547D01*
X107964502Y-73450820D01*
X107905537Y-73340506D01*
X107826185Y-73243815D01*
X107729494Y-73164463D01*
X107619180Y-73105498D01*
X107499482Y-73069188D01*
X107375000Y-73056928D01*
X107258677Y-73056928D01*
X107238089Y-73040032D01*
X107039523Y-72933897D01*
X106824067Y-72868539D01*
X106656146Y-72852000D01*
X102995667Y-72852000D01*
X102968505Y-72762459D01*
X102791613Y-72431516D01*
X102613210Y-72214132D01*
X100248220Y-69849144D01*
X100230696Y-69827791D01*
X100479557Y-69623557D01*
X100539221Y-69550857D01*
X102200866Y-67889213D01*
X102273557Y-67829557D01*
X102405630Y-67668625D01*
X102511614Y-67539484D01*
X102619739Y-67337196D01*
X102688507Y-67208540D01*
X102711601Y-67132408D01*
X102808387Y-67313482D01*
G36*
X113514475Y-67230921D02*
G01*
X113545032Y-67288089D01*
X113687867Y-67462133D01*
X113861912Y-67604968D01*
X113919079Y-67635524D01*
X114469739Y-68186185D01*
X113793996Y-68861928D01*
X112900000Y-68861928D01*
X112775518Y-68874188D01*
X112655820Y-68910498D01*
X112545506Y-68969463D01*
X112448815Y-69048815D01*
X112369463Y-69145506D01*
X112310498Y-69255820D01*
X112274188Y-69375518D01*
X112261928Y-69500000D01*
X112261928Y-71417851D01*
X107596786Y-66752710D01*
X110748775Y-66752710D01*
X110804914Y-66758239D01*
X110861053Y-66752710D01*
X110861060Y-66752710D01*
X111028981Y-66736171D01*
X111244437Y-66670813D01*
X111296240Y-66643124D01*
X112926679Y-66643124D01*
X113514475Y-67230921D01*
G37*
X113514475Y-67230921D02*
X113545032Y-67288089D01*
X113687867Y-67462133D01*
X113861912Y-67604968D01*
X113919079Y-67635524D01*
X114469739Y-68186185D01*
X113793996Y-68861928D01*
X112900000Y-68861928D01*
X112775518Y-68874188D01*
X112655820Y-68910498D01*
X112545506Y-68969463D01*
X112448815Y-69048815D01*
X112369463Y-69145506D01*
X112310498Y-69255820D01*
X112274188Y-69375518D01*
X112261928Y-69500000D01*
X112261928Y-71417851D01*
X107596786Y-66752710D01*
X110748775Y-66752710D01*
X110804914Y-66758239D01*
X110861053Y-66752710D01*
X110861060Y-66752710D01*
X111028981Y-66736171D01*
X111244437Y-66670813D01*
X111296240Y-66643124D01*
X112926679Y-66643124D01*
X113514475Y-67230921D01*
G36*
X112369463Y-61245506D02*
G01*
X112310498Y-61355820D01*
X112274188Y-61475518D01*
X112261928Y-61600000D01*
X112262998Y-61970676D01*
X112207037Y-61865982D01*
X112127685Y-61769291D01*
X112030994Y-61689939D01*
X111920680Y-61630974D01*
X111800982Y-61594664D01*
X111676500Y-61582404D01*
X111598278Y-61582404D01*
X111552589Y-61544908D01*
X111354023Y-61438773D01*
X111138567Y-61373415D01*
X110970646Y-61356876D01*
X110219355Y-61356876D01*
X110167552Y-61329187D01*
X110017455Y-61283655D01*
X109952097Y-61263829D01*
X109929429Y-61261596D01*
X109784175Y-61247290D01*
X109784169Y-61247290D01*
X109728030Y-61241761D01*
X109671890Y-61247290D01*
X107439066Y-61247292D01*
X107382918Y-61241762D01*
X107158851Y-61263830D01*
X106943395Y-61329189D01*
X106744829Y-61435324D01*
X106614397Y-61542367D01*
X106614390Y-61542374D01*
X106570786Y-61578159D01*
X106535000Y-61621764D01*
X105754967Y-62401798D01*
X105711357Y-62437588D01*
X105610630Y-62560324D01*
X105601185Y-62548815D01*
X105504494Y-62469463D01*
X105394180Y-62410498D01*
X105274482Y-62374188D01*
X105150000Y-62361928D01*
X103650000Y-62361928D01*
X103525518Y-62374188D01*
X103405820Y-62410498D01*
X103295506Y-62469463D01*
X103198815Y-62548815D01*
X103119463Y-62645506D01*
X103060498Y-62755820D01*
X103024188Y-62875518D01*
X103011928Y-63000000D01*
X103011928Y-63688503D01*
X102808388Y-63936518D01*
X102660001Y-64214130D01*
X102511614Y-63936518D01*
X102273557Y-63646444D01*
X102188072Y-63576288D01*
X102188072Y-63000000D01*
X102175812Y-62875518D01*
X102139502Y-62755820D01*
X102080537Y-62645506D01*
X102001185Y-62548815D01*
X101904494Y-62469463D01*
X101794180Y-62410498D01*
X101674482Y-62374188D01*
X101550000Y-62361928D01*
X100050000Y-62361928D01*
X99925518Y-62374188D01*
X99805820Y-62410498D01*
X99695506Y-62469463D01*
X99598815Y-62548815D01*
X99519463Y-62645506D01*
X99460498Y-62755820D01*
X99458394Y-62762755D01*
X99450000Y-62761928D01*
X98550000Y-62761928D01*
X98425518Y-62774188D01*
X98305820Y-62810498D01*
X98250000Y-62840335D01*
X98194180Y-62810498D01*
X98074482Y-62774188D01*
X97950000Y-62761928D01*
X97050000Y-62761928D01*
X96925518Y-62774188D01*
X96805820Y-62810498D01*
X96750000Y-62840335D01*
X96694180Y-62810498D01*
X96574482Y-62774188D01*
X96450000Y-62761928D01*
X96285750Y-62765000D01*
X96127000Y-62923750D01*
X96127000Y-63873000D01*
X96147000Y-63873000D01*
X96147000Y-64127000D01*
X96127000Y-64127000D01*
X96127000Y-64147000D01*
X95873000Y-64147000D01*
X95873000Y-64127000D01*
X95853000Y-64127000D01*
X95853000Y-63873000D01*
X95873000Y-63873000D01*
X95873000Y-62923750D01*
X95714250Y-62765000D01*
X95550000Y-62761928D01*
X95425518Y-62774188D01*
X95305820Y-62810498D01*
X95195506Y-62869463D01*
X95172017Y-62888740D01*
X95119180Y-62860498D01*
X94999482Y-62824188D01*
X94875000Y-62811928D01*
X94125000Y-62811928D01*
X94034234Y-62820867D01*
X94014502Y-62755820D01*
X93955537Y-62645506D01*
X93876185Y-62548815D01*
X93779494Y-62469463D01*
X93669180Y-62410498D01*
X93549482Y-62374188D01*
X93425000Y-62361928D01*
X93085750Y-62365000D01*
X92927000Y-62523750D01*
X92927000Y-63623000D01*
X92947000Y-63623000D01*
X92947000Y-63877000D01*
X92927000Y-63877000D01*
X92927000Y-63897000D01*
X92673000Y-63897000D01*
X92673000Y-63877000D01*
X91027000Y-63877000D01*
X91027000Y-63897000D01*
X90773000Y-63897000D01*
X90773000Y-63877000D01*
X89798750Y-63877000D01*
X89640000Y-64035750D01*
X89636928Y-64500000D01*
X89649188Y-64624482D01*
X89685498Y-64744180D01*
X89744463Y-64854494D01*
X89823815Y-64951185D01*
X89883296Y-65000000D01*
X89823815Y-65048815D01*
X89744463Y-65145506D01*
X89685498Y-65255820D01*
X89649188Y-65375518D01*
X89636928Y-65500000D01*
X89636928Y-65649510D01*
X89603096Y-65712806D01*
X89523214Y-65976141D01*
X89509496Y-66115421D01*
X89180865Y-65786790D01*
X88963482Y-65608387D01*
X88632539Y-65431495D01*
X88273445Y-65322565D01*
X87900000Y-65285783D01*
X87526555Y-65322565D01*
X87261393Y-65403001D01*
X85796815Y-65403001D01*
X86011239Y-65082092D01*
X86162757Y-64716296D01*
X86240000Y-64327968D01*
X86240000Y-63932032D01*
X86162757Y-63543704D01*
X86011239Y-63177908D01*
X85892365Y-63000000D01*
X89636928Y-63000000D01*
X89640000Y-63464250D01*
X89798750Y-63623000D01*
X90773000Y-63623000D01*
X90773000Y-62523750D01*
X91027000Y-62523750D01*
X91027000Y-63623000D01*
X92673000Y-63623000D01*
X92673000Y-62523750D01*
X92514250Y-62365000D01*
X92175000Y-62361928D01*
X92050518Y-62374188D01*
X91930820Y-62410498D01*
X91850000Y-62453698D01*
X91769180Y-62410498D01*
X91649482Y-62374188D01*
X91525000Y-62361928D01*
X91185750Y-62365000D01*
X91027000Y-62523750D01*
X90773000Y-62523750D01*
X90614250Y-62365000D01*
X90275000Y-62361928D01*
X90150518Y-62374188D01*
X90030820Y-62410498D01*
X89920506Y-62469463D01*
X89823815Y-62548815D01*
X89744463Y-62645506D01*
X89685498Y-62755820D01*
X89649188Y-62875518D01*
X89636928Y-63000000D01*
X85892365Y-63000000D01*
X85791269Y-62848699D01*
X85511301Y-62568731D01*
X85182092Y-62348761D01*
X84816296Y-62197243D01*
X84427968Y-62120000D01*
X84032032Y-62120000D01*
X83643704Y-62197243D01*
X83277908Y-62348761D01*
X82948699Y-62568731D01*
X82668731Y-62848699D01*
X82448761Y-63177908D01*
X82297243Y-63543704D01*
X82220000Y-63932032D01*
X82220000Y-64327968D01*
X82297243Y-64716296D01*
X82448761Y-65082092D01*
X82668731Y-65411301D01*
X82948699Y-65691269D01*
X83035851Y-65749502D01*
X82965310Y-65807393D01*
X82921562Y-65860700D01*
X82020704Y-66761560D01*
X81967392Y-66805312D01*
X81792817Y-67018033D01*
X81663096Y-67260725D01*
X81593511Y-67490115D01*
X81583214Y-67524060D01*
X81566348Y-67695303D01*
X81368388Y-67936518D01*
X81191495Y-68267461D01*
X81185000Y-68288872D01*
X81185000Y-61185000D01*
X112419119Y-61185000D01*
X112369463Y-61245506D01*
G37*
X112369463Y-61245506D02*
X112310498Y-61355820D01*
X112274188Y-61475518D01*
X112261928Y-61600000D01*
X112262998Y-61970676D01*
X112207037Y-61865982D01*
X112127685Y-61769291D01*
X112030994Y-61689939D01*
X111920680Y-61630974D01*
X111800982Y-61594664D01*
X111676500Y-61582404D01*
X111598278Y-61582404D01*
X111552589Y-61544908D01*
X111354023Y-61438773D01*
X111138567Y-61373415D01*
X110970646Y-61356876D01*
X110219355Y-61356876D01*
X110167552Y-61329187D01*
X110017455Y-61283655D01*
X109952097Y-61263829D01*
X109929429Y-61261596D01*
X109784175Y-61247290D01*
X109784169Y-61247290D01*
X109728030Y-61241761D01*
X109671890Y-61247290D01*
X107439066Y-61247292D01*
X107382918Y-61241762D01*
X107158851Y-61263830D01*
X106943395Y-61329189D01*
X106744829Y-61435324D01*
X106614397Y-61542367D01*
X106614390Y-61542374D01*
X106570786Y-61578159D01*
X106535000Y-61621764D01*
X105754967Y-62401798D01*
X105711357Y-62437588D01*
X105610630Y-62560324D01*
X105601185Y-62548815D01*
X105504494Y-62469463D01*
X105394180Y-62410498D01*
X105274482Y-62374188D01*
X105150000Y-62361928D01*
X103650000Y-62361928D01*
X103525518Y-62374188D01*
X103405820Y-62410498D01*
X103295506Y-62469463D01*
X103198815Y-62548815D01*
X103119463Y-62645506D01*
X103060498Y-62755820D01*
X103024188Y-62875518D01*
X103011928Y-63000000D01*
X103011928Y-63688503D01*
X102808388Y-63936518D01*
X102660001Y-64214130D01*
X102511614Y-63936518D01*
X102273557Y-63646444D01*
X102188072Y-63576288D01*
X102188072Y-63000000D01*
X102175812Y-62875518D01*
X102139502Y-62755820D01*
X102080537Y-62645506D01*
X102001185Y-62548815D01*
X101904494Y-62469463D01*
X101794180Y-62410498D01*
X101674482Y-62374188D01*
X101550000Y-62361928D01*
X100050000Y-62361928D01*
X99925518Y-62374188D01*
X99805820Y-62410498D01*
X99695506Y-62469463D01*
X99598815Y-62548815D01*
X99519463Y-62645506D01*
X99460498Y-62755820D01*
X99458394Y-62762755D01*
X99450000Y-62761928D01*
X98550000Y-62761928D01*
X98425518Y-62774188D01*
X98305820Y-62810498D01*
X98250000Y-62840335D01*
X98194180Y-62810498D01*
X98074482Y-62774188D01*
X97950000Y-62761928D01*
X97050000Y-62761928D01*
X96925518Y-62774188D01*
X96805820Y-62810498D01*
X96750000Y-62840335D01*
X96694180Y-62810498D01*
X96574482Y-62774188D01*
X96450000Y-62761928D01*
X96285750Y-62765000D01*
X96127000Y-62923750D01*
X96127000Y-63873000D01*
X96147000Y-63873000D01*
X96147000Y-64127000D01*
X96127000Y-64127000D01*
X96127000Y-64147000D01*
X95873000Y-64147000D01*
X95873000Y-64127000D01*
X95853000Y-64127000D01*
X95853000Y-63873000D01*
X95873000Y-63873000D01*
X95873000Y-62923750D01*
X95714250Y-62765000D01*
X95550000Y-62761928D01*
X95425518Y-62774188D01*
X95305820Y-62810498D01*
X95195506Y-62869463D01*
X95172017Y-62888740D01*
X95119180Y-62860498D01*
X94999482Y-62824188D01*
X94875000Y-62811928D01*
X94125000Y-62811928D01*
X94034234Y-62820867D01*
X94014502Y-62755820D01*
X93955537Y-62645506D01*
X93876185Y-62548815D01*
X93779494Y-62469463D01*
X93669180Y-62410498D01*
X93549482Y-62374188D01*
X93425000Y-62361928D01*
X93085750Y-62365000D01*
X92927000Y-62523750D01*
X92927000Y-63623000D01*
X92947000Y-63623000D01*
X92947000Y-63877000D01*
X92927000Y-63877000D01*
X92927000Y-63897000D01*
X92673000Y-63897000D01*
X92673000Y-63877000D01*
X91027000Y-63877000D01*
X91027000Y-63897000D01*
X90773000Y-63897000D01*
X90773000Y-63877000D01*
X89798750Y-63877000D01*
X89640000Y-64035750D01*
X89636928Y-64500000D01*
X89649188Y-64624482D01*
X89685498Y-64744180D01*
X89744463Y-64854494D01*
X89823815Y-64951185D01*
X89883296Y-65000000D01*
X89823815Y-65048815D01*
X89744463Y-65145506D01*
X89685498Y-65255820D01*
X89649188Y-65375518D01*
X89636928Y-65500000D01*
X89636928Y-65649510D01*
X89603096Y-65712806D01*
X89523214Y-65976141D01*
X89509496Y-66115421D01*
X89180865Y-65786790D01*
X88963482Y-65608387D01*
X88632539Y-65431495D01*
X88273445Y-65322565D01*
X87900000Y-65285783D01*
X87526555Y-65322565D01*
X87261393Y-65403001D01*
X85796815Y-65403001D01*
X86011239Y-65082092D01*
X86162757Y-64716296D01*
X86240000Y-64327968D01*
X86240000Y-63932032D01*
X86162757Y-63543704D01*
X86011239Y-63177908D01*
X85892365Y-63000000D01*
X89636928Y-63000000D01*
X89640000Y-63464250D01*
X89798750Y-63623000D01*
X90773000Y-63623000D01*
X90773000Y-62523750D01*
X91027000Y-62523750D01*
X91027000Y-63623000D01*
X92673000Y-63623000D01*
X92673000Y-62523750D01*
X92514250Y-62365000D01*
X92175000Y-62361928D01*
X92050518Y-62374188D01*
X91930820Y-62410498D01*
X91850000Y-62453698D01*
X91769180Y-62410498D01*
X91649482Y-62374188D01*
X91525000Y-62361928D01*
X91185750Y-62365000D01*
X91027000Y-62523750D01*
X90773000Y-62523750D01*
X90614250Y-62365000D01*
X90275000Y-62361928D01*
X90150518Y-62374188D01*
X90030820Y-62410498D01*
X89920506Y-62469463D01*
X89823815Y-62548815D01*
X89744463Y-62645506D01*
X89685498Y-62755820D01*
X89649188Y-62875518D01*
X89636928Y-63000000D01*
X85892365Y-63000000D01*
X85791269Y-62848699D01*
X85511301Y-62568731D01*
X85182092Y-62348761D01*
X84816296Y-62197243D01*
X84427968Y-62120000D01*
X84032032Y-62120000D01*
X83643704Y-62197243D01*
X83277908Y-62348761D01*
X82948699Y-62568731D01*
X82668731Y-62848699D01*
X82448761Y-63177908D01*
X82297243Y-63543704D01*
X82220000Y-63932032D01*
X82220000Y-64327968D01*
X82297243Y-64716296D01*
X82448761Y-65082092D01*
X82668731Y-65411301D01*
X82948699Y-65691269D01*
X83035851Y-65749502D01*
X82965310Y-65807393D01*
X82921562Y-65860700D01*
X82020704Y-66761560D01*
X81967392Y-66805312D01*
X81792817Y-67018033D01*
X81663096Y-67260725D01*
X81593511Y-67490115D01*
X81583214Y-67524060D01*
X81566348Y-67695303D01*
X81368388Y-67936518D01*
X81191495Y-68267461D01*
X81185000Y-68288872D01*
X81185000Y-61185000D01*
X112419119Y-61185000D01*
X112369463Y-61245506D01*
%TD*%
M02*
