%TF.GenerationSoftware,KiCad,Pcbnew,(5.1.6-0-10_14)*%
%TF.CreationDate,2021-03-02T16:37:27+09:00*%
%TF.ProjectId,qPCR-supercap,71504352-2d73-4757-9065-726361702e6b,rev?*%
%TF.SameCoordinates,Original*%
%TF.FileFunction,Copper,L2,Bot*%
%TF.FilePolarity,Positive*%
%FSLAX46Y46*%
G04 Gerber Fmt 4.6, Leading zero omitted, Abs format (unit mm)*
G04 Created by KiCad (PCBNEW (5.1.6-0-10_14)) date 2021-03-02 16:37:27*
%MOMM*%
%LPD*%
G01*
G04 APERTURE LIST*
%TA.AperFunction,ComponentPad*%
%ADD10R,2.400000X2.400000*%
%TD*%
%TA.AperFunction,ComponentPad*%
%ADD11C,2.400000*%
%TD*%
%TA.AperFunction,ComponentPad*%
%ADD12C,1.600000*%
%TD*%
%TA.AperFunction,ComponentPad*%
%ADD13R,3.500000X3.500000*%
%TD*%
%TA.AperFunction,ComponentPad*%
%ADD14R,1.700000X1.700000*%
%TD*%
%TA.AperFunction,ComponentPad*%
%ADD15O,1.700000X1.700000*%
%TD*%
%TA.AperFunction,ComponentPad*%
%ADD16O,2.400000X2.400000*%
%TD*%
%TA.AperFunction,ViaPad*%
%ADD17C,0.800000*%
%TD*%
%TA.AperFunction,Conductor*%
%ADD18C,1.524000*%
%TD*%
%TA.AperFunction,Conductor*%
%ADD19C,1.016000*%
%TD*%
%TA.AperFunction,Conductor*%
%ADD20C,2.540000*%
%TD*%
%TA.AperFunction,Conductor*%
%ADD21C,0.250000*%
%TD*%
%TA.AperFunction,Conductor*%
%ADD22C,0.254000*%
%TD*%
G04 APERTURE END LIST*
D10*
%TO.P,C6,1*%
%TO.N,Net-(C6-Pad1)*%
X120800000Y-119200000D03*
D11*
%TO.P,C6,2*%
%TO.N,Net-(C6-Pad2)*%
X125800000Y-119200000D03*
%TD*%
D10*
%TO.P,C7,1*%
%TO.N,Net-(C6-Pad2)*%
X127600000Y-106950000D03*
D11*
%TO.P,C7,2*%
%TO.N,Net-(C7-Pad2)*%
X132600000Y-106950000D03*
%TD*%
D10*
%TO.P,C8,1*%
%TO.N,Net-(C7-Pad2)*%
X127600000Y-93250000D03*
D11*
%TO.P,C8,2*%
%TO.N,Net-(C8-Pad2)*%
X132600000Y-93250000D03*
%TD*%
D10*
%TO.P,C9,1*%
%TO.N,Net-(C8-Pad2)*%
X127600000Y-79550000D03*
D11*
%TO.P,C9,2*%
%TO.N,Net-(C10-Pad1)*%
X132600000Y-79550000D03*
%TD*%
D10*
%TO.P,C10,1*%
%TO.N,Net-(C10-Pad1)*%
X120800000Y-67400000D03*
D11*
%TO.P,C10,2*%
%TO.N,GND*%
X125800000Y-67400000D03*
%TD*%
D12*
%TO.P,C12,1*%
%TO.N,Net-(C12-Pad1)*%
X95700000Y-78400000D03*
%TO.P,C12,2*%
%TO.N,GND*%
X95700000Y-73400000D03*
%TD*%
%TO.P,J1,3*%
%TO.N,GND*%
%TA.AperFunction,ComponentPad*%
G36*
G01*
X98575000Y-120750000D02*
X96825000Y-120750000D01*
G75*
G02*
X95950000Y-119875000I0J875000D01*
G01*
X95950000Y-118125000D01*
G75*
G02*
X96825000Y-117250000I875000J0D01*
G01*
X98575000Y-117250000D01*
G75*
G02*
X99450000Y-118125000I0J-875000D01*
G01*
X99450000Y-119875000D01*
G75*
G02*
X98575000Y-120750000I-875000J0D01*
G01*
G37*
%TD.AperFunction*%
%TO.P,J1,2*%
%TA.AperFunction,ComponentPad*%
G36*
G01*
X94000000Y-123500000D02*
X92000000Y-123500000D01*
G75*
G02*
X91250000Y-122750000I0J750000D01*
G01*
X91250000Y-121250000D01*
G75*
G02*
X92000000Y-120500000I750000J0D01*
G01*
X94000000Y-120500000D01*
G75*
G02*
X94750000Y-121250000I0J-750000D01*
G01*
X94750000Y-122750000D01*
G75*
G02*
X94000000Y-123500000I-750000J0D01*
G01*
G37*
%TD.AperFunction*%
D13*
%TO.P,J1,1*%
%TO.N,VIN*%
X93000000Y-116000000D03*
%TD*%
D14*
%TO.P,J2,1*%
%TO.N,VIN*%
X101500000Y-120500000D03*
D15*
%TO.P,J2,2*%
%TO.N,GND*%
X101500000Y-123040000D03*
%TD*%
D14*
%TO.P,J3,1*%
%TO.N,12V_BD_VIN*%
X106100000Y-91900000D03*
D15*
%TO.P,J3,2*%
%TO.N,GND*%
X103560000Y-91900000D03*
%TD*%
D14*
%TO.P,J4,1*%
%TO.N,Net-(D2-Pad1)*%
X110400000Y-112100000D03*
D15*
%TO.P,J4,2*%
%TO.N,Net-(D3-Pad1)*%
X110400000Y-109560000D03*
%TD*%
D14*
%TO.P,J7,1*%
%TO.N,Net-(D3-Pad1)*%
X110400000Y-105900000D03*
D15*
%TO.P,J7,2*%
%TO.N,Net-(F1-Pad2)*%
X110400000Y-103360000D03*
%TD*%
D14*
%TO.P,J6,1*%
%TO.N,Net-(C6-Pad1)*%
X114300000Y-120900000D03*
D15*
%TO.P,J6,2*%
%TO.N,Net-(J6-Pad2)*%
X114300000Y-123440000D03*
%TD*%
D14*
%TO.P,J8,1*%
%TO.N,12V_BD_VIN*%
X114500000Y-92100000D03*
D15*
%TO.P,J8,2*%
%TO.N,Net-(F1-Pad2)*%
X114500000Y-94640000D03*
%TD*%
D11*
%TO.P,R3,1*%
%TO.N,Net-(C6-Pad1)*%
X90800000Y-81900000D03*
D16*
%TO.P,R3,2*%
%TO.N,Net-(JP1-Pad3)*%
X90800000Y-109840000D03*
%TD*%
D11*
%TO.P,R4,1*%
%TO.N,Net-(C6-Pad1)*%
X97800000Y-89500000D03*
D16*
%TO.P,R4,2*%
%TO.N,Net-(JP1-Pad1)*%
X97800000Y-109820000D03*
%TD*%
D15*
%TO.P,J9,6*%
%TO.N,GND*%
X82960000Y-74080000D03*
%TO.P,J9,3*%
%TO.N,N/C*%
X85500000Y-71540000D03*
%TO.P,J9,15*%
X85500000Y-86780000D03*
%TO.P,J9,16*%
X82960000Y-86780000D03*
%TO.P,J9,4*%
%TO.N,5V*%
X82960000Y-71540000D03*
%TO.P,J9,5*%
%TO.N,N/C*%
X85500000Y-74080000D03*
%TO.P,J9,2*%
%TO.N,5V*%
X82960000Y-69000000D03*
D14*
%TO.P,J9,1*%
%TO.N,N/C*%
X85500000Y-69000000D03*
D15*
%TO.P,J9,23*%
X85500000Y-96940000D03*
%TO.P,J9,24*%
X82960000Y-96940000D03*
%TO.P,J9,11*%
X85500000Y-81700000D03*
%TO.P,J9,12*%
X82960000Y-81700000D03*
%TO.P,J9,27*%
X85500000Y-102020000D03*
%TO.P,J9,28*%
X82960000Y-102020000D03*
%TO.P,J9,13*%
X85500000Y-84240000D03*
%TO.P,J9,14*%
%TO.N,GND*%
X82960000Y-84240000D03*
%TO.P,J9,9*%
X85500000Y-79160000D03*
%TO.P,J9,10*%
%TO.N,N/C*%
X82960000Y-79160000D03*
%TO.P,J9,19*%
X85500000Y-91860000D03*
%TO.P,J9,20*%
%TO.N,GND*%
X82960000Y-91860000D03*
%TO.P,J9,37*%
%TO.N,N/C*%
X85500000Y-114720000D03*
%TO.P,J9,38*%
X82960000Y-114720000D03*
%TO.P,J9,33*%
%TO.N,VIN_SENSE*%
X85500000Y-109640000D03*
%TO.P,J9,34*%
%TO.N,GND*%
X82960000Y-109640000D03*
%TO.P,J9,35*%
%TO.N,N/C*%
X85500000Y-112180000D03*
%TO.P,J9,36*%
X82960000Y-112180000D03*
%TO.P,J9,17*%
X85500000Y-89320000D03*
%TO.P,J9,18*%
X82960000Y-89320000D03*
%TO.P,J9,31*%
X85500000Y-107100000D03*
%TO.P,J9,32*%
X82960000Y-107100000D03*
%TO.P,J9,7*%
X85500000Y-76620000D03*
%TO.P,J9,8*%
X82960000Y-76620000D03*
%TO.P,J9,29*%
X85500000Y-104560000D03*
%TO.P,J9,30*%
%TO.N,GND*%
X82960000Y-104560000D03*
%TO.P,J9,21*%
%TO.N,N/C*%
X85500000Y-94400000D03*
%TO.P,J9,22*%
X82960000Y-94400000D03*
%TO.P,J9,25*%
%TO.N,GND*%
X85500000Y-99480000D03*
%TO.P,J9,26*%
%TO.N,N/C*%
X82960000Y-99480000D03*
%TO.P,J9,39*%
%TO.N,GND*%
X85500000Y-117260000D03*
%TO.P,J9,40*%
%TO.N,N/C*%
X82960000Y-117260000D03*
%TD*%
D14*
%TO.P,JP1,1*%
%TO.N,Net-(JP1-Pad1)*%
X103100000Y-109500000D03*
D15*
%TO.P,JP1,2*%
%TO.N,Net-(D3-Pad1)*%
X103100000Y-106960000D03*
%TO.P,JP1,3*%
%TO.N,Net-(JP1-Pad3)*%
X103100000Y-104420000D03*
%TD*%
D17*
%TO.N,GND*%
X102750000Y-84150000D03*
X103900000Y-77800000D03*
X89400000Y-64700000D03*
X87500000Y-62100000D03*
X81800000Y-66000000D03*
X87350000Y-69900000D03*
X91650000Y-70950000D03*
X100600000Y-69900000D03*
X106450000Y-71950000D03*
X103700000Y-69000000D03*
X102350000Y-71400000D03*
X102650000Y-63100000D03*
X97750000Y-62250000D03*
X91500000Y-61650000D03*
X106100000Y-61900000D03*
X107900000Y-66850000D03*
X109950000Y-68850000D03*
X112050000Y-66750000D03*
X118600000Y-69750000D03*
X120500000Y-74850000D03*
X122800000Y-72050000D03*
X120600000Y-71800000D03*
X125050000Y-74850000D03*
X129350000Y-72200000D03*
X127750000Y-70350000D03*
X126600000Y-64650000D03*
X123500000Y-62100000D03*
X129400000Y-62550000D03*
X135050000Y-66950000D03*
X131150000Y-68450000D03*
X134650000Y-71750000D03*
X132250000Y-74950000D03*
X135500000Y-76450000D03*
X133200000Y-82400000D03*
X131650000Y-84900000D03*
X135300000Y-87150000D03*
X133600000Y-96350000D03*
X132000000Y-97800000D03*
X135200000Y-101100000D03*
X135450000Y-98100000D03*
X135900000Y-93250000D03*
X135600000Y-80550000D03*
X135900000Y-106650000D03*
X132600000Y-109900000D03*
X129600000Y-112650000D03*
X129900000Y-116450000D03*
X128050000Y-121950000D03*
X123200000Y-124500000D03*
X118050000Y-124100000D03*
X129850000Y-124300000D03*
X131650000Y-118950000D03*
X134150000Y-114850000D03*
X135050000Y-118500000D03*
X135600000Y-124200000D03*
X135400000Y-62100000D03*
X82200000Y-61850000D03*
X81950000Y-124500000D03*
X81900000Y-120400000D03*
X85650000Y-119450000D03*
X87500000Y-123950000D03*
X92850000Y-124900000D03*
X98650000Y-125000000D03*
X94700000Y-119100000D03*
X90500000Y-119300000D03*
X88150000Y-117300000D03*
X89700000Y-114800000D03*
X96700000Y-113100000D03*
X95350000Y-111400000D03*
X99400000Y-112900000D03*
X88300000Y-108600000D03*
X88300000Y-104250000D03*
X88400000Y-99250000D03*
X88350000Y-92900000D03*
X88300000Y-86950000D03*
X90300000Y-89950000D03*
X90300000Y-95700000D03*
X90050000Y-101850000D03*
X90000000Y-106450000D03*
X92750000Y-104400000D03*
X95600000Y-105250000D03*
X92650000Y-107750000D03*
X95350000Y-100950000D03*
X92650000Y-98700000D03*
X95500000Y-96000000D03*
X95550000Y-91650000D03*
X92600000Y-92950000D03*
X93100000Y-86750000D03*
X96750000Y-87350000D03*
X100150000Y-88950000D03*
X100200000Y-93500000D03*
X103500000Y-94100000D03*
X106100000Y-89750000D03*
X113850000Y-89550000D03*
X110000000Y-89150000D03*
X112100000Y-84400000D03*
X107850000Y-83400000D03*
X109400000Y-84750000D03*
X103850000Y-86100000D03*
X93050000Y-82100000D03*
X90900000Y-79950000D03*
X87900000Y-77100000D03*
X91150000Y-74300000D03*
X87400000Y-73100000D03*
X89450000Y-75300000D03*
X89350000Y-71650000D03*
X107500000Y-79350000D03*
X111350000Y-79250000D03*
X113000000Y-77900000D03*
X115400000Y-80350000D03*
X118850000Y-78100000D03*
X118450000Y-82100000D03*
X116350000Y-78600000D03*
X125550000Y-82900000D03*
X124100000Y-78850000D03*
X122850000Y-81600000D03*
X120600000Y-82750000D03*
X118550000Y-85550000D03*
X118550000Y-89600000D03*
X122500000Y-87050000D03*
X128200000Y-88250000D03*
X130300000Y-91900000D03*
X124900000Y-91550000D03*
X125050000Y-95300000D03*
X123000000Y-93300000D03*
X120500000Y-91650000D03*
X120300000Y-95300000D03*
X115900000Y-96650000D03*
X118550000Y-96900000D03*
X117100000Y-94050000D03*
X112150000Y-94200000D03*
X107000000Y-94250000D03*
X108150000Y-98150000D03*
X105500000Y-98600000D03*
X108150000Y-102250000D03*
X112800000Y-101500000D03*
X116650000Y-103050000D03*
X112550000Y-104500000D03*
X122500000Y-103750000D03*
X125350000Y-105550000D03*
X123300000Y-107200000D03*
X121400000Y-99450000D03*
X126150000Y-99650000D03*
X129250000Y-102900000D03*
X130450000Y-105300000D03*
X105100000Y-112400000D03*
X105450000Y-111000000D03*
%TO.N,/BD_FB*%
X95800000Y-75900000D03*
X96800000Y-65400000D03*
%TO.N,5V*%
X87900000Y-67200000D03*
%TD*%
D18*
%TO.N,GND*%
X90240000Y-122000000D02*
X85500000Y-117260000D01*
X93000000Y-122000000D02*
X90240000Y-122000000D01*
X97700000Y-119000000D02*
X97700000Y-119900000D01*
X94040000Y-123040000D02*
X93000000Y-122000000D01*
X97700000Y-122700000D02*
X97360000Y-123040000D01*
X97700000Y-119000000D02*
X97700000Y-122700000D01*
X97360000Y-123040000D02*
X94040000Y-123040000D01*
X101500000Y-123040000D02*
X97360000Y-123040000D01*
D19*
X81401999Y-75638001D02*
X82960000Y-74080000D01*
X83941999Y-118818001D02*
X82212159Y-118818001D01*
X82212159Y-118818001D02*
X81401999Y-118007841D01*
X85500000Y-117260000D02*
X83941999Y-118818001D01*
X81540000Y-84240000D02*
X81401999Y-84101999D01*
X82960000Y-84240000D02*
X81540000Y-84240000D01*
X81560000Y-91860000D02*
X81401999Y-91701999D01*
X82960000Y-91860000D02*
X81560000Y-91860000D01*
X81401999Y-91701999D02*
X81401999Y-84101999D01*
X82960000Y-104560000D02*
X81460000Y-104560000D01*
X81460000Y-104560000D02*
X81401999Y-104501999D01*
X81740000Y-109640000D02*
X81401999Y-109301999D01*
X82960000Y-109640000D02*
X81740000Y-109640000D01*
X81401999Y-109301999D02*
X81401999Y-104501999D01*
X81401999Y-118007841D02*
X81401999Y-109301999D01*
X81401999Y-104501999D02*
X81401999Y-91701999D01*
X81401999Y-84101999D02*
X81401999Y-75638001D01*
X87058001Y-115701999D02*
X85500000Y-117260000D01*
X85500000Y-79160000D02*
X87058001Y-80718001D01*
X86896002Y-99480000D02*
X87058001Y-99641999D01*
X85500000Y-99480000D02*
X86896002Y-99480000D01*
X87058001Y-99641999D02*
X87058001Y-115701999D01*
X87058001Y-80718001D02*
X87058001Y-99641999D01*
D20*
X102750000Y-84150000D02*
X102750000Y-79150000D01*
X103900000Y-78000000D02*
X103900000Y-77800000D01*
X102750000Y-79150000D02*
X103900000Y-78000000D01*
X125800000Y-67400000D02*
X122900000Y-64500000D01*
X122900000Y-64500000D02*
X117200000Y-64500000D01*
X95700000Y-71000000D02*
X89400000Y-64700000D01*
X95700000Y-73400000D02*
X95700000Y-71000000D01*
X104100000Y-73400000D02*
X106200000Y-75500000D01*
X95700000Y-73400000D02*
X104100000Y-73400000D01*
X106200000Y-75500000D02*
X103900000Y-77800000D01*
X117200000Y-64500000D02*
X106200000Y-75500000D01*
%TO.N,Net-(C6-Pad2)*%
X125800000Y-119200000D02*
X127600000Y-117400000D01*
X127600000Y-117400000D02*
X127600000Y-106950000D01*
%TO.N,Net-(C7-Pad2)*%
X132600000Y-106950000D02*
X132600000Y-102300000D01*
X127600000Y-97300000D02*
X127600000Y-93250000D01*
X132600000Y-102300000D02*
X127600000Y-97300000D01*
%TO.N,Net-(C8-Pad2)*%
X132600000Y-93250000D02*
X132600000Y-89500000D01*
X127600000Y-84500000D02*
X127600000Y-79550000D01*
X132600000Y-89500000D02*
X127600000Y-84500000D01*
D21*
%TO.N,/BD_FB*%
X95800000Y-75900000D02*
X94104990Y-74204990D01*
X87804991Y-64039325D02*
X88739325Y-63104991D01*
X94104990Y-71660674D02*
X87804991Y-65360675D01*
X88739325Y-63104991D02*
X90060675Y-63104991D01*
X87804991Y-65360675D02*
X87804991Y-64039325D01*
X94104990Y-74204990D02*
X94104990Y-71660674D01*
X92355684Y-65400000D02*
X96800000Y-65400000D01*
X90060675Y-63104991D02*
X92355684Y-65400000D01*
D20*
%TO.N,Net-(D3-Pad1)*%
X107506002Y-109560000D02*
X110400000Y-109560000D01*
X104906002Y-106960000D02*
X107506002Y-109560000D01*
X103100000Y-106960000D02*
X104906002Y-106960000D01*
X110400000Y-105900000D02*
X110400000Y-109560000D01*
%TO.N,Net-(C6-Pad1)*%
X119100000Y-120900000D02*
X120800000Y-119200000D01*
X114300000Y-120900000D02*
X119100000Y-120900000D01*
X100470001Y-108204960D02*
X97800000Y-105534959D01*
X100470001Y-111070001D02*
X100470001Y-108204960D01*
X97800000Y-105534959D02*
X97800000Y-89500000D01*
X110300000Y-120900000D02*
X100470001Y-111070001D01*
X114300000Y-120900000D02*
X110300000Y-120900000D01*
X90800000Y-81900000D02*
X90800000Y-87200000D01*
X93100000Y-89500000D02*
X97800000Y-89500000D01*
X90800000Y-87200000D02*
X93100000Y-89500000D01*
%TO.N,Net-(C10-Pad1)*%
X132600000Y-79200000D02*
X120800000Y-67400000D01*
X132600000Y-79550000D02*
X132600000Y-79200000D01*
%TD*%
D22*
%TO.N,GND*%
G36*
X136315000Y-125315000D02*
G01*
X81185000Y-125315000D01*
X81185000Y-121932032D01*
X82220000Y-121932032D01*
X82220000Y-122327968D01*
X82297243Y-122716296D01*
X82448761Y-123082092D01*
X82668731Y-123411301D01*
X82948699Y-123691269D01*
X83277908Y-123911239D01*
X83643704Y-124062757D01*
X84032032Y-124140000D01*
X84427968Y-124140000D01*
X84816296Y-124062757D01*
X85182092Y-123911239D01*
X85511301Y-123691269D01*
X85702570Y-123500000D01*
X90611928Y-123500000D01*
X90624188Y-123624482D01*
X90660498Y-123744180D01*
X90719463Y-123854494D01*
X90798815Y-123951185D01*
X90895506Y-124030537D01*
X91005820Y-124089502D01*
X91125518Y-124125812D01*
X91250000Y-124138072D01*
X92714250Y-124135000D01*
X92873000Y-123976250D01*
X92873000Y-122127000D01*
X93127000Y-122127000D01*
X93127000Y-123976250D01*
X93285750Y-124135000D01*
X94750000Y-124138072D01*
X94874482Y-124125812D01*
X94994180Y-124089502D01*
X95104494Y-124030537D01*
X95201185Y-123951185D01*
X95280537Y-123854494D01*
X95339502Y-123744180D01*
X95375812Y-123624482D01*
X95388072Y-123500000D01*
X95387812Y-123396890D01*
X100058524Y-123396890D01*
X100103175Y-123544099D01*
X100228359Y-123806920D01*
X100402412Y-124040269D01*
X100618645Y-124235178D01*
X100868748Y-124384157D01*
X101143109Y-124481481D01*
X101373000Y-124360814D01*
X101373000Y-123167000D01*
X101627000Y-123167000D01*
X101627000Y-124360814D01*
X101856891Y-124481481D01*
X102131252Y-124384157D01*
X102381355Y-124235178D01*
X102597588Y-124040269D01*
X102771641Y-123806920D01*
X102896825Y-123544099D01*
X102941476Y-123396890D01*
X102820155Y-123167000D01*
X101627000Y-123167000D01*
X101373000Y-123167000D01*
X100179845Y-123167000D01*
X100058524Y-123396890D01*
X95387812Y-123396890D01*
X95385000Y-122285750D01*
X95226250Y-122127000D01*
X93127000Y-122127000D01*
X92873000Y-122127000D01*
X90773750Y-122127000D01*
X90615000Y-122285750D01*
X90611928Y-123500000D01*
X85702570Y-123500000D01*
X85791269Y-123411301D01*
X86011239Y-123082092D01*
X86162757Y-122716296D01*
X86240000Y-122327968D01*
X86240000Y-121932032D01*
X86162757Y-121543704D01*
X86011239Y-121177908D01*
X85791269Y-120848699D01*
X85511301Y-120568731D01*
X85408438Y-120500000D01*
X90611928Y-120500000D01*
X90615000Y-121714250D01*
X90773750Y-121873000D01*
X92873000Y-121873000D01*
X92873000Y-120023750D01*
X93127000Y-120023750D01*
X93127000Y-121873000D01*
X95226250Y-121873000D01*
X95385000Y-121714250D01*
X95386698Y-121043195D01*
X95419463Y-121104494D01*
X95498815Y-121201185D01*
X95595506Y-121280537D01*
X95705820Y-121339502D01*
X95825518Y-121375812D01*
X95950000Y-121388072D01*
X97414250Y-121385000D01*
X97573000Y-121226250D01*
X97573000Y-119127000D01*
X97827000Y-119127000D01*
X97827000Y-121226250D01*
X97985750Y-121385000D01*
X99450000Y-121388072D01*
X99574482Y-121375812D01*
X99694180Y-121339502D01*
X99804494Y-121280537D01*
X99901185Y-121201185D01*
X99980537Y-121104494D01*
X100011928Y-121045767D01*
X100011928Y-121350000D01*
X100024188Y-121474482D01*
X100060498Y-121594180D01*
X100119463Y-121704494D01*
X100198815Y-121801185D01*
X100295506Y-121880537D01*
X100405820Y-121939502D01*
X100486466Y-121963966D01*
X100402412Y-122039731D01*
X100228359Y-122273080D01*
X100103175Y-122535901D01*
X100058524Y-122683110D01*
X100179845Y-122913000D01*
X101373000Y-122913000D01*
X101373000Y-122893000D01*
X101627000Y-122893000D01*
X101627000Y-122913000D01*
X102820155Y-122913000D01*
X102941476Y-122683110D01*
X102896825Y-122535901D01*
X102771641Y-122273080D01*
X102597588Y-122039731D01*
X102513534Y-121963966D01*
X102594180Y-121939502D01*
X102704494Y-121880537D01*
X102801185Y-121801185D01*
X102880537Y-121704494D01*
X102939502Y-121594180D01*
X102975812Y-121474482D01*
X102988072Y-121350000D01*
X102988072Y-119650000D01*
X102975812Y-119525518D01*
X102939502Y-119405820D01*
X102880537Y-119295506D01*
X102801185Y-119198815D01*
X102704494Y-119119463D01*
X102594180Y-119060498D01*
X102474482Y-119024188D01*
X102350000Y-119011928D01*
X100650000Y-119011928D01*
X100525518Y-119024188D01*
X100405820Y-119060498D01*
X100295506Y-119119463D01*
X100198815Y-119198815D01*
X100119463Y-119295506D01*
X100085155Y-119359690D01*
X100085000Y-119285750D01*
X99926250Y-119127000D01*
X97827000Y-119127000D01*
X97573000Y-119127000D01*
X95473750Y-119127000D01*
X95315000Y-119285750D01*
X95313069Y-120206367D01*
X95280537Y-120145506D01*
X95201185Y-120048815D01*
X95104494Y-119969463D01*
X94994180Y-119910498D01*
X94874482Y-119874188D01*
X94750000Y-119861928D01*
X93285750Y-119865000D01*
X93127000Y-120023750D01*
X92873000Y-120023750D01*
X92714250Y-119865000D01*
X91250000Y-119861928D01*
X91125518Y-119874188D01*
X91005820Y-119910498D01*
X90895506Y-119969463D01*
X90798815Y-120048815D01*
X90719463Y-120145506D01*
X90660498Y-120255820D01*
X90624188Y-120375518D01*
X90611928Y-120500000D01*
X85408438Y-120500000D01*
X85182092Y-120348761D01*
X84816296Y-120197243D01*
X84427968Y-120120000D01*
X84032032Y-120120000D01*
X83643704Y-120197243D01*
X83277908Y-120348761D01*
X82948699Y-120568731D01*
X82668731Y-120848699D01*
X82448761Y-121177908D01*
X82297243Y-121543704D01*
X82220000Y-121932032D01*
X81185000Y-121932032D01*
X81185000Y-68853740D01*
X81475000Y-68853740D01*
X81475000Y-69146260D01*
X81532068Y-69433158D01*
X81644010Y-69703411D01*
X81806525Y-69946632D01*
X82013368Y-70153475D01*
X82187760Y-70270000D01*
X82013368Y-70386525D01*
X81806525Y-70593368D01*
X81644010Y-70836589D01*
X81532068Y-71106842D01*
X81475000Y-71393740D01*
X81475000Y-71686260D01*
X81532068Y-71973158D01*
X81644010Y-72243411D01*
X81806525Y-72486632D01*
X82013368Y-72693475D01*
X82195534Y-72815195D01*
X82078645Y-72884822D01*
X81862412Y-73079731D01*
X81688359Y-73313080D01*
X81563175Y-73575901D01*
X81518524Y-73723110D01*
X81639845Y-73953000D01*
X82833000Y-73953000D01*
X82833000Y-73933000D01*
X83087000Y-73933000D01*
X83087000Y-73953000D01*
X83107000Y-73953000D01*
X83107000Y-74207000D01*
X83087000Y-74207000D01*
X83087000Y-74227000D01*
X82833000Y-74227000D01*
X82833000Y-74207000D01*
X81639845Y-74207000D01*
X81518524Y-74436890D01*
X81563175Y-74584099D01*
X81688359Y-74846920D01*
X81862412Y-75080269D01*
X82078645Y-75275178D01*
X82195534Y-75344805D01*
X82013368Y-75466525D01*
X81806525Y-75673368D01*
X81644010Y-75916589D01*
X81532068Y-76186842D01*
X81475000Y-76473740D01*
X81475000Y-76766260D01*
X81532068Y-77053158D01*
X81644010Y-77323411D01*
X81806525Y-77566632D01*
X82013368Y-77773475D01*
X82187760Y-77890000D01*
X82013368Y-78006525D01*
X81806525Y-78213368D01*
X81644010Y-78456589D01*
X81532068Y-78726842D01*
X81475000Y-79013740D01*
X81475000Y-79306260D01*
X81532068Y-79593158D01*
X81644010Y-79863411D01*
X81806525Y-80106632D01*
X82013368Y-80313475D01*
X82187760Y-80430000D01*
X82013368Y-80546525D01*
X81806525Y-80753368D01*
X81644010Y-80996589D01*
X81532068Y-81266842D01*
X81475000Y-81553740D01*
X81475000Y-81846260D01*
X81532068Y-82133158D01*
X81644010Y-82403411D01*
X81806525Y-82646632D01*
X82013368Y-82853475D01*
X82195534Y-82975195D01*
X82078645Y-83044822D01*
X81862412Y-83239731D01*
X81688359Y-83473080D01*
X81563175Y-83735901D01*
X81518524Y-83883110D01*
X81639845Y-84113000D01*
X82833000Y-84113000D01*
X82833000Y-84093000D01*
X83087000Y-84093000D01*
X83087000Y-84113000D01*
X83107000Y-84113000D01*
X83107000Y-84367000D01*
X83087000Y-84367000D01*
X83087000Y-84387000D01*
X82833000Y-84387000D01*
X82833000Y-84367000D01*
X81639845Y-84367000D01*
X81518524Y-84596890D01*
X81563175Y-84744099D01*
X81688359Y-85006920D01*
X81862412Y-85240269D01*
X82078645Y-85435178D01*
X82195534Y-85504805D01*
X82013368Y-85626525D01*
X81806525Y-85833368D01*
X81644010Y-86076589D01*
X81532068Y-86346842D01*
X81475000Y-86633740D01*
X81475000Y-86926260D01*
X81532068Y-87213158D01*
X81644010Y-87483411D01*
X81806525Y-87726632D01*
X82013368Y-87933475D01*
X82187760Y-88050000D01*
X82013368Y-88166525D01*
X81806525Y-88373368D01*
X81644010Y-88616589D01*
X81532068Y-88886842D01*
X81475000Y-89173740D01*
X81475000Y-89466260D01*
X81532068Y-89753158D01*
X81644010Y-90023411D01*
X81806525Y-90266632D01*
X82013368Y-90473475D01*
X82195534Y-90595195D01*
X82078645Y-90664822D01*
X81862412Y-90859731D01*
X81688359Y-91093080D01*
X81563175Y-91355901D01*
X81518524Y-91503110D01*
X81639845Y-91733000D01*
X82833000Y-91733000D01*
X82833000Y-91713000D01*
X83087000Y-91713000D01*
X83087000Y-91733000D01*
X83107000Y-91733000D01*
X83107000Y-91987000D01*
X83087000Y-91987000D01*
X83087000Y-92007000D01*
X82833000Y-92007000D01*
X82833000Y-91987000D01*
X81639845Y-91987000D01*
X81518524Y-92216890D01*
X81563175Y-92364099D01*
X81688359Y-92626920D01*
X81862412Y-92860269D01*
X82078645Y-93055178D01*
X82195534Y-93124805D01*
X82013368Y-93246525D01*
X81806525Y-93453368D01*
X81644010Y-93696589D01*
X81532068Y-93966842D01*
X81475000Y-94253740D01*
X81475000Y-94546260D01*
X81532068Y-94833158D01*
X81644010Y-95103411D01*
X81806525Y-95346632D01*
X82013368Y-95553475D01*
X82187760Y-95670000D01*
X82013368Y-95786525D01*
X81806525Y-95993368D01*
X81644010Y-96236589D01*
X81532068Y-96506842D01*
X81475000Y-96793740D01*
X81475000Y-97086260D01*
X81532068Y-97373158D01*
X81644010Y-97643411D01*
X81806525Y-97886632D01*
X82013368Y-98093475D01*
X82187760Y-98210000D01*
X82013368Y-98326525D01*
X81806525Y-98533368D01*
X81644010Y-98776589D01*
X81532068Y-99046842D01*
X81475000Y-99333740D01*
X81475000Y-99626260D01*
X81532068Y-99913158D01*
X81644010Y-100183411D01*
X81806525Y-100426632D01*
X82013368Y-100633475D01*
X82187760Y-100750000D01*
X82013368Y-100866525D01*
X81806525Y-101073368D01*
X81644010Y-101316589D01*
X81532068Y-101586842D01*
X81475000Y-101873740D01*
X81475000Y-102166260D01*
X81532068Y-102453158D01*
X81644010Y-102723411D01*
X81806525Y-102966632D01*
X82013368Y-103173475D01*
X82195534Y-103295195D01*
X82078645Y-103364822D01*
X81862412Y-103559731D01*
X81688359Y-103793080D01*
X81563175Y-104055901D01*
X81518524Y-104203110D01*
X81639845Y-104433000D01*
X82833000Y-104433000D01*
X82833000Y-104413000D01*
X83087000Y-104413000D01*
X83087000Y-104433000D01*
X83107000Y-104433000D01*
X83107000Y-104687000D01*
X83087000Y-104687000D01*
X83087000Y-104707000D01*
X82833000Y-104707000D01*
X82833000Y-104687000D01*
X81639845Y-104687000D01*
X81518524Y-104916890D01*
X81563175Y-105064099D01*
X81688359Y-105326920D01*
X81862412Y-105560269D01*
X82078645Y-105755178D01*
X82195534Y-105824805D01*
X82013368Y-105946525D01*
X81806525Y-106153368D01*
X81644010Y-106396589D01*
X81532068Y-106666842D01*
X81475000Y-106953740D01*
X81475000Y-107246260D01*
X81532068Y-107533158D01*
X81644010Y-107803411D01*
X81806525Y-108046632D01*
X82013368Y-108253475D01*
X82195534Y-108375195D01*
X82078645Y-108444822D01*
X81862412Y-108639731D01*
X81688359Y-108873080D01*
X81563175Y-109135901D01*
X81518524Y-109283110D01*
X81639845Y-109513000D01*
X82833000Y-109513000D01*
X82833000Y-109493000D01*
X83087000Y-109493000D01*
X83087000Y-109513000D01*
X83107000Y-109513000D01*
X83107000Y-109767000D01*
X83087000Y-109767000D01*
X83087000Y-109787000D01*
X82833000Y-109787000D01*
X82833000Y-109767000D01*
X81639845Y-109767000D01*
X81518524Y-109996890D01*
X81563175Y-110144099D01*
X81688359Y-110406920D01*
X81862412Y-110640269D01*
X82078645Y-110835178D01*
X82195534Y-110904805D01*
X82013368Y-111026525D01*
X81806525Y-111233368D01*
X81644010Y-111476589D01*
X81532068Y-111746842D01*
X81475000Y-112033740D01*
X81475000Y-112326260D01*
X81532068Y-112613158D01*
X81644010Y-112883411D01*
X81806525Y-113126632D01*
X82013368Y-113333475D01*
X82187760Y-113450000D01*
X82013368Y-113566525D01*
X81806525Y-113773368D01*
X81644010Y-114016589D01*
X81532068Y-114286842D01*
X81475000Y-114573740D01*
X81475000Y-114866260D01*
X81532068Y-115153158D01*
X81644010Y-115423411D01*
X81806525Y-115666632D01*
X82013368Y-115873475D01*
X82187760Y-115990000D01*
X82013368Y-116106525D01*
X81806525Y-116313368D01*
X81644010Y-116556589D01*
X81532068Y-116826842D01*
X81475000Y-117113740D01*
X81475000Y-117406260D01*
X81532068Y-117693158D01*
X81644010Y-117963411D01*
X81806525Y-118206632D01*
X82013368Y-118413475D01*
X82256589Y-118575990D01*
X82526842Y-118687932D01*
X82813740Y-118745000D01*
X83106260Y-118745000D01*
X83393158Y-118687932D01*
X83663411Y-118575990D01*
X83906632Y-118413475D01*
X84113475Y-118206632D01*
X84231100Y-118030594D01*
X84402412Y-118260269D01*
X84618645Y-118455178D01*
X84868748Y-118604157D01*
X85143109Y-118701481D01*
X85373000Y-118580814D01*
X85373000Y-117387000D01*
X85627000Y-117387000D01*
X85627000Y-118580814D01*
X85856891Y-118701481D01*
X86131252Y-118604157D01*
X86381355Y-118455178D01*
X86597588Y-118260269D01*
X86771641Y-118026920D01*
X86896825Y-117764099D01*
X86941476Y-117616890D01*
X86820155Y-117387000D01*
X85627000Y-117387000D01*
X85373000Y-117387000D01*
X85353000Y-117387000D01*
X85353000Y-117133000D01*
X85373000Y-117133000D01*
X85373000Y-117113000D01*
X85627000Y-117113000D01*
X85627000Y-117133000D01*
X86820155Y-117133000D01*
X86941476Y-116903110D01*
X86896825Y-116755901D01*
X86771641Y-116493080D01*
X86597588Y-116259731D01*
X86381355Y-116064822D01*
X86264466Y-115995195D01*
X86446632Y-115873475D01*
X86653475Y-115666632D01*
X86815990Y-115423411D01*
X86927932Y-115153158D01*
X86985000Y-114866260D01*
X86985000Y-114573740D01*
X86927932Y-114286842D01*
X86912672Y-114250000D01*
X90611928Y-114250000D01*
X90611928Y-117750000D01*
X90624188Y-117874482D01*
X90660498Y-117994180D01*
X90719463Y-118104494D01*
X90798815Y-118201185D01*
X90895506Y-118280537D01*
X91005820Y-118339502D01*
X91125518Y-118375812D01*
X91250000Y-118388072D01*
X94750000Y-118388072D01*
X94874482Y-118375812D01*
X94994180Y-118339502D01*
X95104494Y-118280537D01*
X95201185Y-118201185D01*
X95280537Y-118104494D01*
X95313591Y-118042655D01*
X95315000Y-118714250D01*
X95473750Y-118873000D01*
X97573000Y-118873000D01*
X97573000Y-116773750D01*
X97827000Y-116773750D01*
X97827000Y-118873000D01*
X99926250Y-118873000D01*
X100085000Y-118714250D01*
X100088072Y-117250000D01*
X100075812Y-117125518D01*
X100039502Y-117005820D01*
X99980537Y-116895506D01*
X99901185Y-116798815D01*
X99804494Y-116719463D01*
X99694180Y-116660498D01*
X99574482Y-116624188D01*
X99450000Y-116611928D01*
X97985750Y-116615000D01*
X97827000Y-116773750D01*
X97573000Y-116773750D01*
X97414250Y-116615000D01*
X95950000Y-116611928D01*
X95825518Y-116624188D01*
X95705820Y-116660498D01*
X95595506Y-116719463D01*
X95498815Y-116798815D01*
X95419463Y-116895506D01*
X95388072Y-116954233D01*
X95388072Y-114250000D01*
X95375812Y-114125518D01*
X95339502Y-114005820D01*
X95280537Y-113895506D01*
X95201185Y-113798815D01*
X95104494Y-113719463D01*
X94994180Y-113660498D01*
X94874482Y-113624188D01*
X94750000Y-113611928D01*
X91250000Y-113611928D01*
X91125518Y-113624188D01*
X91005820Y-113660498D01*
X90895506Y-113719463D01*
X90798815Y-113798815D01*
X90719463Y-113895506D01*
X90660498Y-114005820D01*
X90624188Y-114125518D01*
X90611928Y-114250000D01*
X86912672Y-114250000D01*
X86815990Y-114016589D01*
X86653475Y-113773368D01*
X86446632Y-113566525D01*
X86272240Y-113450000D01*
X86446632Y-113333475D01*
X86653475Y-113126632D01*
X86815990Y-112883411D01*
X86927932Y-112613158D01*
X86985000Y-112326260D01*
X86985000Y-112033740D01*
X86927932Y-111746842D01*
X86815990Y-111476589D01*
X86653475Y-111233368D01*
X86446632Y-111026525D01*
X86272240Y-110910000D01*
X86446632Y-110793475D01*
X86653475Y-110586632D01*
X86815990Y-110343411D01*
X86927932Y-110073158D01*
X86985000Y-109786260D01*
X86985000Y-109659268D01*
X88965000Y-109659268D01*
X88965000Y-110020732D01*
X89035518Y-110375250D01*
X89173844Y-110709199D01*
X89374662Y-111009744D01*
X89630256Y-111265338D01*
X89930801Y-111466156D01*
X90264750Y-111604482D01*
X90619268Y-111675000D01*
X90980732Y-111675000D01*
X91335250Y-111604482D01*
X91669199Y-111466156D01*
X91969744Y-111265338D01*
X92225338Y-111009744D01*
X92426156Y-110709199D01*
X92564482Y-110375250D01*
X92635000Y-110020732D01*
X92635000Y-109659268D01*
X92564482Y-109304750D01*
X92426156Y-108970801D01*
X92225338Y-108670256D01*
X91969744Y-108414662D01*
X91669199Y-108213844D01*
X91335250Y-108075518D01*
X90980732Y-108005000D01*
X90619268Y-108005000D01*
X90264750Y-108075518D01*
X89930801Y-108213844D01*
X89630256Y-108414662D01*
X89374662Y-108670256D01*
X89173844Y-108970801D01*
X89035518Y-109304750D01*
X88965000Y-109659268D01*
X86985000Y-109659268D01*
X86985000Y-109493740D01*
X86927932Y-109206842D01*
X86815990Y-108936589D01*
X86653475Y-108693368D01*
X86446632Y-108486525D01*
X86272240Y-108370000D01*
X86446632Y-108253475D01*
X86653475Y-108046632D01*
X86815990Y-107803411D01*
X86927932Y-107533158D01*
X86985000Y-107246260D01*
X86985000Y-106953740D01*
X86927932Y-106666842D01*
X86815990Y-106396589D01*
X86653475Y-106153368D01*
X86446632Y-105946525D01*
X86272240Y-105830000D01*
X86446632Y-105713475D01*
X86653475Y-105506632D01*
X86815990Y-105263411D01*
X86927932Y-104993158D01*
X86985000Y-104706260D01*
X86985000Y-104413740D01*
X86927932Y-104126842D01*
X86815990Y-103856589D01*
X86653475Y-103613368D01*
X86446632Y-103406525D01*
X86272240Y-103290000D01*
X86446632Y-103173475D01*
X86653475Y-102966632D01*
X86815990Y-102723411D01*
X86927932Y-102453158D01*
X86985000Y-102166260D01*
X86985000Y-101873740D01*
X86927932Y-101586842D01*
X86815990Y-101316589D01*
X86653475Y-101073368D01*
X86446632Y-100866525D01*
X86264466Y-100744805D01*
X86381355Y-100675178D01*
X86597588Y-100480269D01*
X86771641Y-100246920D01*
X86896825Y-99984099D01*
X86941476Y-99836890D01*
X86820155Y-99607000D01*
X85627000Y-99607000D01*
X85627000Y-99627000D01*
X85373000Y-99627000D01*
X85373000Y-99607000D01*
X85353000Y-99607000D01*
X85353000Y-99353000D01*
X85373000Y-99353000D01*
X85373000Y-99333000D01*
X85627000Y-99333000D01*
X85627000Y-99353000D01*
X86820155Y-99353000D01*
X86941476Y-99123110D01*
X86896825Y-98975901D01*
X86771641Y-98713080D01*
X86597588Y-98479731D01*
X86381355Y-98284822D01*
X86264466Y-98215195D01*
X86446632Y-98093475D01*
X86653475Y-97886632D01*
X86815990Y-97643411D01*
X86927932Y-97373158D01*
X86985000Y-97086260D01*
X86985000Y-96793740D01*
X86927932Y-96506842D01*
X86815990Y-96236589D01*
X86653475Y-95993368D01*
X86446632Y-95786525D01*
X86272240Y-95670000D01*
X86446632Y-95553475D01*
X86653475Y-95346632D01*
X86815990Y-95103411D01*
X86927932Y-94833158D01*
X86985000Y-94546260D01*
X86985000Y-94253740D01*
X86927932Y-93966842D01*
X86815990Y-93696589D01*
X86653475Y-93453368D01*
X86446632Y-93246525D01*
X86272240Y-93130000D01*
X86446632Y-93013475D01*
X86653475Y-92806632D01*
X86815990Y-92563411D01*
X86927932Y-92293158D01*
X86985000Y-92006260D01*
X86985000Y-91713740D01*
X86927932Y-91426842D01*
X86815990Y-91156589D01*
X86653475Y-90913368D01*
X86446632Y-90706525D01*
X86272240Y-90590000D01*
X86446632Y-90473475D01*
X86653475Y-90266632D01*
X86815990Y-90023411D01*
X86927932Y-89753158D01*
X86985000Y-89466260D01*
X86985000Y-89173740D01*
X86927932Y-88886842D01*
X86815990Y-88616589D01*
X86653475Y-88373368D01*
X86446632Y-88166525D01*
X86272240Y-88050000D01*
X86446632Y-87933475D01*
X86653475Y-87726632D01*
X86815990Y-87483411D01*
X86927932Y-87213158D01*
X86930549Y-87200000D01*
X88885783Y-87200000D01*
X88922565Y-87573445D01*
X89031495Y-87932539D01*
X89208387Y-88263482D01*
X89298569Y-88373368D01*
X89446445Y-88553556D01*
X89519140Y-88613215D01*
X91686789Y-90780865D01*
X91746444Y-90853556D01*
X91833911Y-90925338D01*
X92036517Y-91091613D01*
X92101143Y-91126156D01*
X92367461Y-91268506D01*
X92726555Y-91377436D01*
X93006418Y-91405000D01*
X93006419Y-91405000D01*
X93099999Y-91414217D01*
X93193579Y-91405000D01*
X95895001Y-91405000D01*
X95895000Y-105441379D01*
X95885783Y-105534959D01*
X95895000Y-105628539D01*
X95895000Y-105628540D01*
X95922564Y-105908403D01*
X96031494Y-106267497D01*
X96208387Y-106598441D01*
X96446444Y-106888515D01*
X96519145Y-106948179D01*
X97566468Y-107995503D01*
X97264750Y-108055518D01*
X96930801Y-108193844D01*
X96630256Y-108394662D01*
X96374662Y-108650256D01*
X96173844Y-108950801D01*
X96035518Y-109284750D01*
X95965000Y-109639268D01*
X95965000Y-110000732D01*
X96035518Y-110355250D01*
X96173844Y-110689199D01*
X96374662Y-110989744D01*
X96630256Y-111245338D01*
X96930801Y-111446156D01*
X97264750Y-111584482D01*
X97619268Y-111655000D01*
X97980732Y-111655000D01*
X98335250Y-111584482D01*
X98601850Y-111474053D01*
X98701495Y-111802539D01*
X98878388Y-112133483D01*
X99116445Y-112423557D01*
X99189146Y-112483221D01*
X108886784Y-122180860D01*
X108946444Y-122253556D01*
X109095414Y-122375812D01*
X109236517Y-122491613D01*
X109413410Y-122586164D01*
X109567461Y-122668506D01*
X109926555Y-122777436D01*
X110206418Y-122805000D01*
X110206420Y-122805000D01*
X110300000Y-122814217D01*
X110393580Y-122805000D01*
X112955673Y-122805000D01*
X112872068Y-123006842D01*
X112815000Y-123293740D01*
X112815000Y-123586260D01*
X112872068Y-123873158D01*
X112984010Y-124143411D01*
X113146525Y-124386632D01*
X113353368Y-124593475D01*
X113596589Y-124755990D01*
X113866842Y-124867932D01*
X114153740Y-124925000D01*
X114446260Y-124925000D01*
X114733158Y-124867932D01*
X115003411Y-124755990D01*
X115246632Y-124593475D01*
X115453475Y-124386632D01*
X115615990Y-124143411D01*
X115727932Y-123873158D01*
X115785000Y-123586260D01*
X115785000Y-123293740D01*
X115727932Y-123006842D01*
X115644327Y-122805000D01*
X119006420Y-122805000D01*
X119100000Y-122814217D01*
X119193580Y-122805000D01*
X119193582Y-122805000D01*
X119473445Y-122777436D01*
X119832539Y-122668506D01*
X120163482Y-122491613D01*
X120453556Y-122253556D01*
X120513220Y-122180855D01*
X120762043Y-121932032D01*
X131220000Y-121932032D01*
X131220000Y-122327968D01*
X131297243Y-122716296D01*
X131448761Y-123082092D01*
X131668731Y-123411301D01*
X131948699Y-123691269D01*
X132277908Y-123911239D01*
X132643704Y-124062757D01*
X133032032Y-124140000D01*
X133427968Y-124140000D01*
X133816296Y-124062757D01*
X134182092Y-123911239D01*
X134511301Y-123691269D01*
X134791269Y-123411301D01*
X135011239Y-123082092D01*
X135162757Y-122716296D01*
X135240000Y-122327968D01*
X135240000Y-121932032D01*
X135162757Y-121543704D01*
X135011239Y-121177908D01*
X134791269Y-120848699D01*
X134511301Y-120568731D01*
X134182092Y-120348761D01*
X133816296Y-120197243D01*
X133427968Y-120120000D01*
X133032032Y-120120000D01*
X132643704Y-120197243D01*
X132277908Y-120348761D01*
X131948699Y-120568731D01*
X131668731Y-120848699D01*
X131448761Y-121177908D01*
X131297243Y-121543704D01*
X131220000Y-121932032D01*
X120762043Y-121932032D01*
X121656004Y-121038072D01*
X122000000Y-121038072D01*
X122124482Y-121025812D01*
X122244180Y-120989502D01*
X122354494Y-120930537D01*
X122451185Y-120851185D01*
X122530537Y-120754494D01*
X122589502Y-120644180D01*
X122625812Y-120524482D01*
X122638072Y-120400000D01*
X122638072Y-119703208D01*
X122677435Y-119573446D01*
X122714217Y-119200001D01*
X122714217Y-119200000D01*
X123885783Y-119200000D01*
X123922565Y-119573445D01*
X124031495Y-119932539D01*
X124208387Y-120263482D01*
X124446445Y-120553555D01*
X124736518Y-120791613D01*
X125067461Y-120968505D01*
X125426555Y-121077435D01*
X125800000Y-121114217D01*
X126173445Y-121077435D01*
X126532539Y-120968505D01*
X126863482Y-120791613D01*
X127080865Y-120613210D01*
X128880865Y-118813212D01*
X128953556Y-118753556D01*
X129191613Y-118463482D01*
X129368506Y-118132539D01*
X129477436Y-117773445D01*
X129505000Y-117493582D01*
X129505000Y-117493573D01*
X129514216Y-117400001D01*
X129505000Y-117306429D01*
X129505000Y-106856418D01*
X129477436Y-106576555D01*
X129438072Y-106446789D01*
X129438072Y-105750000D01*
X129425812Y-105625518D01*
X129389502Y-105505820D01*
X129330537Y-105395506D01*
X129251185Y-105298815D01*
X129154494Y-105219463D01*
X129044180Y-105160498D01*
X128924482Y-105124188D01*
X128800000Y-105111928D01*
X128103211Y-105111928D01*
X127973445Y-105072564D01*
X127600000Y-105035783D01*
X127226556Y-105072564D01*
X127096790Y-105111928D01*
X126400000Y-105111928D01*
X126275518Y-105124188D01*
X126155820Y-105160498D01*
X126045506Y-105219463D01*
X125948815Y-105298815D01*
X125869463Y-105395506D01*
X125810498Y-105505820D01*
X125774188Y-105625518D01*
X125761928Y-105750000D01*
X125761928Y-106446793D01*
X125722565Y-106576555D01*
X125695001Y-106856418D01*
X125695000Y-116610924D01*
X124386790Y-117919135D01*
X124208387Y-118136518D01*
X124031495Y-118467461D01*
X123922565Y-118826555D01*
X123885783Y-119200000D01*
X122714217Y-119200000D01*
X122677435Y-118826556D01*
X122638072Y-118696793D01*
X122638072Y-118000000D01*
X122625812Y-117875518D01*
X122589502Y-117755820D01*
X122530537Y-117645506D01*
X122451185Y-117548815D01*
X122354494Y-117469463D01*
X122244180Y-117410498D01*
X122124482Y-117374188D01*
X122000000Y-117361928D01*
X121303207Y-117361928D01*
X121173444Y-117322565D01*
X120799999Y-117285783D01*
X120426554Y-117322565D01*
X120296792Y-117361928D01*
X119600000Y-117361928D01*
X119475518Y-117374188D01*
X119355820Y-117410498D01*
X119245506Y-117469463D01*
X119148815Y-117548815D01*
X119069463Y-117645506D01*
X119010498Y-117755820D01*
X118974188Y-117875518D01*
X118961928Y-118000000D01*
X118961928Y-118343996D01*
X118310925Y-118995000D01*
X111089076Y-118995000D01*
X103082147Y-110988072D01*
X103950000Y-110988072D01*
X104074482Y-110975812D01*
X104194180Y-110939502D01*
X104304494Y-110880537D01*
X104401185Y-110801185D01*
X104480537Y-110704494D01*
X104539502Y-110594180D01*
X104575812Y-110474482D01*
X104588072Y-110350000D01*
X104588072Y-109336146D01*
X106092791Y-110840865D01*
X106152446Y-110913556D01*
X106238474Y-110984157D01*
X106442519Y-111151613D01*
X106617867Y-111245338D01*
X106773463Y-111328506D01*
X107132557Y-111437436D01*
X107412420Y-111465000D01*
X107412421Y-111465000D01*
X107506001Y-111474217D01*
X107599581Y-111465000D01*
X108911928Y-111465000D01*
X108911928Y-112950000D01*
X108924188Y-113074482D01*
X108960498Y-113194180D01*
X109019463Y-113304494D01*
X109098815Y-113401185D01*
X109195506Y-113480537D01*
X109305820Y-113539502D01*
X109425518Y-113575812D01*
X109550000Y-113588072D01*
X111250000Y-113588072D01*
X111374482Y-113575812D01*
X111494180Y-113539502D01*
X111604494Y-113480537D01*
X111701185Y-113401185D01*
X111780537Y-113304494D01*
X111839502Y-113194180D01*
X111875812Y-113074482D01*
X111888072Y-112950000D01*
X111888072Y-111250000D01*
X111875812Y-111125518D01*
X111839502Y-111005820D01*
X111780537Y-110895506D01*
X111774453Y-110888093D01*
X111991613Y-110623482D01*
X112168506Y-110292539D01*
X112277436Y-109933445D01*
X112314217Y-109560000D01*
X112305000Y-109466418D01*
X112305000Y-105806418D01*
X112277436Y-105526555D01*
X112168506Y-105167461D01*
X111991613Y-104836518D01*
X111753556Y-104546444D01*
X111511946Y-104348161D01*
X111553475Y-104306632D01*
X111715990Y-104063411D01*
X111827932Y-103793158D01*
X111885000Y-103506260D01*
X111885000Y-103213740D01*
X111827932Y-102926842D01*
X111715990Y-102656589D01*
X111553475Y-102413368D01*
X111346632Y-102206525D01*
X111103411Y-102044010D01*
X110833158Y-101932068D01*
X110546260Y-101875000D01*
X110253740Y-101875000D01*
X109966842Y-101932068D01*
X109696589Y-102044010D01*
X109453368Y-102206525D01*
X109246525Y-102413368D01*
X109084010Y-102656589D01*
X108972068Y-102926842D01*
X108915000Y-103213740D01*
X108915000Y-103506260D01*
X108972068Y-103793158D01*
X109084010Y-104063411D01*
X109246525Y-104306632D01*
X109288054Y-104348161D01*
X109046444Y-104546444D01*
X108808387Y-104836518D01*
X108631494Y-105167462D01*
X108522564Y-105526556D01*
X108495000Y-105806419D01*
X108495000Y-107655000D01*
X108295079Y-107655000D01*
X106319222Y-105679145D01*
X106259558Y-105606444D01*
X105969484Y-105368387D01*
X105638541Y-105191494D01*
X105279447Y-105082564D01*
X104999584Y-105055000D01*
X104999582Y-105055000D01*
X104906002Y-105045783D01*
X104812422Y-105055000D01*
X104444327Y-105055000D01*
X104527932Y-104853158D01*
X104585000Y-104566260D01*
X104585000Y-104273740D01*
X104527932Y-103986842D01*
X104415990Y-103716589D01*
X104253475Y-103473368D01*
X104046632Y-103266525D01*
X103803411Y-103104010D01*
X103533158Y-102992068D01*
X103246260Y-102935000D01*
X102953740Y-102935000D01*
X102666842Y-102992068D01*
X102396589Y-103104010D01*
X102153368Y-103266525D01*
X101946525Y-103473368D01*
X101784010Y-103716589D01*
X101672068Y-103986842D01*
X101615000Y-104273740D01*
X101615000Y-104566260D01*
X101672068Y-104853158D01*
X101784010Y-105123411D01*
X101946525Y-105366632D01*
X101988054Y-105408161D01*
X101746444Y-105606444D01*
X101508387Y-105896518D01*
X101331494Y-106227461D01*
X101297766Y-106338648D01*
X99705000Y-104745884D01*
X99705000Y-97300000D01*
X125685783Y-97300000D01*
X125695000Y-97393580D01*
X125695000Y-97393581D01*
X125722564Y-97673444D01*
X125831494Y-98032538D01*
X126008387Y-98363482D01*
X126246444Y-98653556D01*
X126319145Y-98713220D01*
X130695001Y-103089078D01*
X130695000Y-107043581D01*
X130722564Y-107323444D01*
X130831494Y-107682538D01*
X131008387Y-108013482D01*
X131246444Y-108303556D01*
X131536518Y-108541613D01*
X131867461Y-108718506D01*
X132226555Y-108827436D01*
X132600000Y-108864217D01*
X132973444Y-108827436D01*
X133332538Y-108718506D01*
X133663482Y-108541613D01*
X133953556Y-108303556D01*
X134191613Y-108013482D01*
X134368506Y-107682539D01*
X134477436Y-107323445D01*
X134505000Y-107043582D01*
X134505000Y-102393580D01*
X134514217Y-102300000D01*
X134505000Y-102206418D01*
X134477436Y-101926555D01*
X134368506Y-101567461D01*
X134368506Y-101567460D01*
X134191613Y-101236517D01*
X134013211Y-101019134D01*
X133953556Y-100946444D01*
X133880866Y-100886789D01*
X129505000Y-96510925D01*
X129505000Y-93156418D01*
X129477436Y-92876555D01*
X129438072Y-92746789D01*
X129438072Y-92050000D01*
X129425812Y-91925518D01*
X129389502Y-91805820D01*
X129330537Y-91695506D01*
X129251185Y-91598815D01*
X129154494Y-91519463D01*
X129044180Y-91460498D01*
X128924482Y-91424188D01*
X128800000Y-91411928D01*
X128103211Y-91411928D01*
X127973445Y-91372564D01*
X127600000Y-91335783D01*
X127226556Y-91372564D01*
X127096790Y-91411928D01*
X126400000Y-91411928D01*
X126275518Y-91424188D01*
X126155820Y-91460498D01*
X126045506Y-91519463D01*
X125948815Y-91598815D01*
X125869463Y-91695506D01*
X125810498Y-91805820D01*
X125774188Y-91925518D01*
X125761928Y-92050000D01*
X125761928Y-92746793D01*
X125722565Y-92876555D01*
X125695001Y-93156418D01*
X125695000Y-97206420D01*
X125685783Y-97300000D01*
X99705000Y-97300000D01*
X99705000Y-92256891D01*
X102118519Y-92256891D01*
X102215843Y-92531252D01*
X102364822Y-92781355D01*
X102559731Y-92997588D01*
X102793080Y-93171641D01*
X103055901Y-93296825D01*
X103203110Y-93341476D01*
X103433000Y-93220155D01*
X103433000Y-92027000D01*
X102239186Y-92027000D01*
X102118519Y-92256891D01*
X99705000Y-92256891D01*
X99705000Y-91543109D01*
X102118519Y-91543109D01*
X102239186Y-91773000D01*
X103433000Y-91773000D01*
X103433000Y-90579845D01*
X103687000Y-90579845D01*
X103687000Y-91773000D01*
X103707000Y-91773000D01*
X103707000Y-92027000D01*
X103687000Y-92027000D01*
X103687000Y-93220155D01*
X103916890Y-93341476D01*
X104064099Y-93296825D01*
X104326920Y-93171641D01*
X104560269Y-92997588D01*
X104636034Y-92913534D01*
X104660498Y-92994180D01*
X104719463Y-93104494D01*
X104798815Y-93201185D01*
X104895506Y-93280537D01*
X105005820Y-93339502D01*
X105125518Y-93375812D01*
X105250000Y-93388072D01*
X106950000Y-93388072D01*
X107074482Y-93375812D01*
X107194180Y-93339502D01*
X107304494Y-93280537D01*
X107401185Y-93201185D01*
X107480537Y-93104494D01*
X107539502Y-92994180D01*
X107575812Y-92874482D01*
X107588072Y-92750000D01*
X107588072Y-91250000D01*
X113011928Y-91250000D01*
X113011928Y-92950000D01*
X113024188Y-93074482D01*
X113060498Y-93194180D01*
X113119463Y-93304494D01*
X113198815Y-93401185D01*
X113295506Y-93480537D01*
X113405820Y-93539502D01*
X113478380Y-93561513D01*
X113346525Y-93693368D01*
X113184010Y-93936589D01*
X113072068Y-94206842D01*
X113015000Y-94493740D01*
X113015000Y-94786260D01*
X113072068Y-95073158D01*
X113184010Y-95343411D01*
X113346525Y-95586632D01*
X113553368Y-95793475D01*
X113796589Y-95955990D01*
X114066842Y-96067932D01*
X114353740Y-96125000D01*
X114646260Y-96125000D01*
X114933158Y-96067932D01*
X115203411Y-95955990D01*
X115446632Y-95793475D01*
X115653475Y-95586632D01*
X115815990Y-95343411D01*
X115927932Y-95073158D01*
X115985000Y-94786260D01*
X115985000Y-94493740D01*
X115927932Y-94206842D01*
X115815990Y-93936589D01*
X115653475Y-93693368D01*
X115521620Y-93561513D01*
X115594180Y-93539502D01*
X115704494Y-93480537D01*
X115801185Y-93401185D01*
X115880537Y-93304494D01*
X115939502Y-93194180D01*
X115975812Y-93074482D01*
X115988072Y-92950000D01*
X115988072Y-91250000D01*
X115975812Y-91125518D01*
X115939502Y-91005820D01*
X115880537Y-90895506D01*
X115801185Y-90798815D01*
X115704494Y-90719463D01*
X115594180Y-90660498D01*
X115474482Y-90624188D01*
X115350000Y-90611928D01*
X113650000Y-90611928D01*
X113525518Y-90624188D01*
X113405820Y-90660498D01*
X113295506Y-90719463D01*
X113198815Y-90798815D01*
X113119463Y-90895506D01*
X113060498Y-91005820D01*
X113024188Y-91125518D01*
X113011928Y-91250000D01*
X107588072Y-91250000D01*
X107588072Y-91050000D01*
X107575812Y-90925518D01*
X107539502Y-90805820D01*
X107480537Y-90695506D01*
X107401185Y-90598815D01*
X107304494Y-90519463D01*
X107194180Y-90460498D01*
X107074482Y-90424188D01*
X106950000Y-90411928D01*
X105250000Y-90411928D01*
X105125518Y-90424188D01*
X105005820Y-90460498D01*
X104895506Y-90519463D01*
X104798815Y-90598815D01*
X104719463Y-90695506D01*
X104660498Y-90805820D01*
X104636034Y-90886466D01*
X104560269Y-90802412D01*
X104326920Y-90628359D01*
X104064099Y-90503175D01*
X103916890Y-90458524D01*
X103687000Y-90579845D01*
X103433000Y-90579845D01*
X103203110Y-90458524D01*
X103055901Y-90503175D01*
X102793080Y-90628359D01*
X102559731Y-90802412D01*
X102364822Y-91018645D01*
X102215843Y-91268748D01*
X102118519Y-91543109D01*
X99705000Y-91543109D01*
X99705000Y-89593582D01*
X99714217Y-89500000D01*
X99677436Y-89126555D01*
X99568506Y-88767461D01*
X99391613Y-88436518D01*
X99153556Y-88146444D01*
X98863482Y-87908387D01*
X98532539Y-87731494D01*
X98173445Y-87622564D01*
X97893582Y-87595000D01*
X97800000Y-87585783D01*
X97706418Y-87595000D01*
X93889076Y-87595000D01*
X92705000Y-86410924D01*
X92705000Y-81806418D01*
X92677436Y-81526555D01*
X92568506Y-81167461D01*
X92391613Y-80836518D01*
X92153556Y-80546444D01*
X91863482Y-80308387D01*
X91532538Y-80131494D01*
X91173444Y-80022564D01*
X90800000Y-79985783D01*
X90426555Y-80022564D01*
X90067461Y-80131494D01*
X89736518Y-80308387D01*
X89446444Y-80546444D01*
X89208387Y-80836518D01*
X89031494Y-81167462D01*
X88922564Y-81526556D01*
X88895000Y-81806419D01*
X88895001Y-87106411D01*
X88885783Y-87200000D01*
X86930549Y-87200000D01*
X86985000Y-86926260D01*
X86985000Y-86633740D01*
X86927932Y-86346842D01*
X86815990Y-86076589D01*
X86653475Y-85833368D01*
X86446632Y-85626525D01*
X86272240Y-85510000D01*
X86446632Y-85393475D01*
X86653475Y-85186632D01*
X86815990Y-84943411D01*
X86927932Y-84673158D01*
X86985000Y-84386260D01*
X86985000Y-84093740D01*
X86927932Y-83806842D01*
X86815990Y-83536589D01*
X86653475Y-83293368D01*
X86446632Y-83086525D01*
X86272240Y-82970000D01*
X86446632Y-82853475D01*
X86653475Y-82646632D01*
X86815990Y-82403411D01*
X86927932Y-82133158D01*
X86985000Y-81846260D01*
X86985000Y-81553740D01*
X86927932Y-81266842D01*
X86815990Y-80996589D01*
X86653475Y-80753368D01*
X86446632Y-80546525D01*
X86264466Y-80424805D01*
X86381355Y-80355178D01*
X86597588Y-80160269D01*
X86771641Y-79926920D01*
X86896825Y-79664099D01*
X86941476Y-79516890D01*
X86820155Y-79287000D01*
X85627000Y-79287000D01*
X85627000Y-79307000D01*
X85373000Y-79307000D01*
X85373000Y-79287000D01*
X85353000Y-79287000D01*
X85353000Y-79033000D01*
X85373000Y-79033000D01*
X85373000Y-79013000D01*
X85627000Y-79013000D01*
X85627000Y-79033000D01*
X86820155Y-79033000D01*
X86941476Y-78803110D01*
X86896825Y-78655901D01*
X86771641Y-78393080D01*
X86671383Y-78258665D01*
X94265000Y-78258665D01*
X94265000Y-78541335D01*
X94320147Y-78818574D01*
X94428320Y-79079727D01*
X94585363Y-79314759D01*
X94785241Y-79514637D01*
X95020273Y-79671680D01*
X95281426Y-79779853D01*
X95558665Y-79835000D01*
X95841335Y-79835000D01*
X96118574Y-79779853D01*
X96379727Y-79671680D01*
X96614759Y-79514637D01*
X96814637Y-79314759D01*
X96971680Y-79079727D01*
X97079853Y-78818574D01*
X97135000Y-78541335D01*
X97135000Y-78258665D01*
X97079853Y-77981426D01*
X96971680Y-77720273D01*
X96814637Y-77485241D01*
X96614759Y-77285363D01*
X96379727Y-77128320D01*
X96118574Y-77020147D01*
X95841335Y-76965000D01*
X95558665Y-76965000D01*
X95281426Y-77020147D01*
X95020273Y-77128320D01*
X94785241Y-77285363D01*
X94585363Y-77485241D01*
X94428320Y-77720273D01*
X94320147Y-77981426D01*
X94265000Y-78258665D01*
X86671383Y-78258665D01*
X86597588Y-78159731D01*
X86381355Y-77964822D01*
X86264466Y-77895195D01*
X86446632Y-77773475D01*
X86653475Y-77566632D01*
X86815990Y-77323411D01*
X86927932Y-77053158D01*
X86985000Y-76766260D01*
X86985000Y-76473740D01*
X86927932Y-76186842D01*
X86815990Y-75916589D01*
X86653475Y-75673368D01*
X86446632Y-75466525D01*
X86272240Y-75350000D01*
X86446632Y-75233475D01*
X86653475Y-75026632D01*
X86815990Y-74783411D01*
X86927932Y-74513158D01*
X86985000Y-74226260D01*
X86985000Y-73933740D01*
X86927932Y-73646842D01*
X86815990Y-73376589D01*
X86653475Y-73133368D01*
X86446632Y-72926525D01*
X86272240Y-72810000D01*
X86446632Y-72693475D01*
X86653475Y-72486632D01*
X86815990Y-72243411D01*
X86927932Y-71973158D01*
X86985000Y-71686260D01*
X86985000Y-71393740D01*
X86927932Y-71106842D01*
X86815990Y-70836589D01*
X86653475Y-70593368D01*
X86521620Y-70461513D01*
X86594180Y-70439502D01*
X86704494Y-70380537D01*
X86801185Y-70301185D01*
X86880537Y-70204494D01*
X86939502Y-70094180D01*
X86975812Y-69974482D01*
X86988072Y-69850000D01*
X86988072Y-68150000D01*
X86975812Y-68025518D01*
X86939502Y-67905820D01*
X86880537Y-67795506D01*
X86801185Y-67698815D01*
X86704494Y-67619463D01*
X86594180Y-67560498D01*
X86474482Y-67524188D01*
X86350000Y-67511928D01*
X84650000Y-67511928D01*
X84525518Y-67524188D01*
X84405820Y-67560498D01*
X84295506Y-67619463D01*
X84198815Y-67698815D01*
X84119463Y-67795506D01*
X84060498Y-67905820D01*
X84038487Y-67978380D01*
X83906632Y-67846525D01*
X83663411Y-67684010D01*
X83393158Y-67572068D01*
X83106260Y-67515000D01*
X82813740Y-67515000D01*
X82526842Y-67572068D01*
X82256589Y-67684010D01*
X82013368Y-67846525D01*
X81806525Y-68053368D01*
X81644010Y-68296589D01*
X81532068Y-68566842D01*
X81475000Y-68853740D01*
X81185000Y-68853740D01*
X81185000Y-67098061D01*
X86865000Y-67098061D01*
X86865000Y-67301939D01*
X86904774Y-67501898D01*
X86982795Y-67690256D01*
X87096063Y-67859774D01*
X87240226Y-68003937D01*
X87409744Y-68117205D01*
X87598102Y-68195226D01*
X87798061Y-68235000D01*
X88001939Y-68235000D01*
X88201898Y-68195226D01*
X88390256Y-68117205D01*
X88559774Y-68003937D01*
X88703937Y-67859774D01*
X88817205Y-67690256D01*
X88888251Y-67518736D01*
X93344991Y-71975477D01*
X93344990Y-74167667D01*
X93341314Y-74204990D01*
X93344990Y-74242312D01*
X93344990Y-74242322D01*
X93355987Y-74353975D01*
X93367735Y-74392702D01*
X93399444Y-74497236D01*
X93470016Y-74629266D01*
X93509861Y-74677816D01*
X93564989Y-74744991D01*
X93593993Y-74768794D01*
X94765000Y-75939802D01*
X94765000Y-76001939D01*
X94804774Y-76201898D01*
X94882795Y-76390256D01*
X94996063Y-76559774D01*
X95140226Y-76703937D01*
X95309744Y-76817205D01*
X95498102Y-76895226D01*
X95698061Y-76935000D01*
X95901939Y-76935000D01*
X96101898Y-76895226D01*
X96290256Y-76817205D01*
X96459774Y-76703937D01*
X96603937Y-76559774D01*
X96717205Y-76390256D01*
X96795226Y-76201898D01*
X96835000Y-76001939D01*
X96835000Y-75798061D01*
X96795226Y-75598102D01*
X96717205Y-75409744D01*
X96603937Y-75240226D01*
X96459774Y-75096063D01*
X96290256Y-74982795D01*
X96101898Y-74904774D01*
X95901939Y-74865000D01*
X95839802Y-74865000D01*
X95809275Y-74834474D01*
X96050130Y-74798787D01*
X96316292Y-74703603D01*
X96441514Y-74636671D01*
X96513097Y-74392702D01*
X95700000Y-73579605D01*
X95685858Y-73593748D01*
X95506253Y-73414143D01*
X95520395Y-73400000D01*
X95879605Y-73400000D01*
X96692702Y-74213097D01*
X96936671Y-74141514D01*
X97057571Y-73886004D01*
X97126300Y-73611816D01*
X97140217Y-73329488D01*
X97098787Y-73049870D01*
X97003603Y-72783708D01*
X96936671Y-72658486D01*
X96692702Y-72586903D01*
X95879605Y-73400000D01*
X95520395Y-73400000D01*
X95506253Y-73385858D01*
X95685858Y-73206253D01*
X95700000Y-73220395D01*
X96513097Y-72407298D01*
X96441514Y-72163329D01*
X96186004Y-72042429D01*
X95911816Y-71973700D01*
X95629488Y-71959783D01*
X95349870Y-72001213D01*
X95083708Y-72096397D01*
X94958486Y-72163329D01*
X94886903Y-72407296D01*
X94864990Y-72385383D01*
X94864990Y-71697996D01*
X94868666Y-71660673D01*
X94864990Y-71623350D01*
X94864990Y-71623341D01*
X94853993Y-71511688D01*
X94810536Y-71368427D01*
X94739964Y-71236397D01*
X94668789Y-71149671D01*
X94644991Y-71120673D01*
X94615993Y-71096875D01*
X90919118Y-67400000D01*
X118885783Y-67400000D01*
X118922565Y-67773445D01*
X118961928Y-67903207D01*
X118961928Y-68600000D01*
X118974188Y-68724482D01*
X119010498Y-68844180D01*
X119069463Y-68954494D01*
X119148815Y-69051185D01*
X119245506Y-69130537D01*
X119355820Y-69189502D01*
X119475518Y-69225812D01*
X119600000Y-69238072D01*
X119943997Y-69238072D01*
X128417852Y-77711928D01*
X128103211Y-77711928D01*
X127973445Y-77672564D01*
X127600000Y-77635783D01*
X127226556Y-77672564D01*
X127096790Y-77711928D01*
X126400000Y-77711928D01*
X126275518Y-77724188D01*
X126155820Y-77760498D01*
X126045506Y-77819463D01*
X125948815Y-77898815D01*
X125869463Y-77995506D01*
X125810498Y-78105820D01*
X125774188Y-78225518D01*
X125761928Y-78350000D01*
X125761928Y-79046793D01*
X125722565Y-79176555D01*
X125695001Y-79456418D01*
X125695000Y-84406420D01*
X125685783Y-84500000D01*
X125695000Y-84593580D01*
X125695000Y-84593581D01*
X125722564Y-84873444D01*
X125831494Y-85232538D01*
X126008387Y-85563482D01*
X126246444Y-85853556D01*
X126319145Y-85913220D01*
X130695001Y-90289078D01*
X130695000Y-93343581D01*
X130722564Y-93623444D01*
X130831494Y-93982538D01*
X131008387Y-94313482D01*
X131246444Y-94603556D01*
X131536518Y-94841613D01*
X131867461Y-95018506D01*
X132226555Y-95127436D01*
X132600000Y-95164217D01*
X132973444Y-95127436D01*
X133332538Y-95018506D01*
X133663482Y-94841613D01*
X133953556Y-94603556D01*
X134191613Y-94313482D01*
X134368506Y-93982539D01*
X134477436Y-93623445D01*
X134505000Y-93343582D01*
X134505000Y-89593580D01*
X134514217Y-89500000D01*
X134505000Y-89406418D01*
X134477436Y-89126555D01*
X134393859Y-88851037D01*
X134368506Y-88767460D01*
X134191613Y-88436517D01*
X134013211Y-88219134D01*
X134013210Y-88219133D01*
X133953556Y-88146444D01*
X133880866Y-88086789D01*
X129505000Y-83710925D01*
X129505000Y-79456418D01*
X129477436Y-79176555D01*
X129438072Y-79046789D01*
X129438072Y-78732148D01*
X130763145Y-80057221D01*
X130831494Y-80282538D01*
X131008387Y-80613482D01*
X131246444Y-80903556D01*
X131536518Y-81141613D01*
X131867461Y-81318506D01*
X132226555Y-81427436D01*
X132600000Y-81464217D01*
X132973444Y-81427436D01*
X133332538Y-81318506D01*
X133663482Y-81141613D01*
X133953556Y-80903556D01*
X134191613Y-80613482D01*
X134368506Y-80282539D01*
X134477436Y-79923445D01*
X134505000Y-79643582D01*
X134505000Y-79293579D01*
X134514217Y-79199999D01*
X134495872Y-79013740D01*
X134477436Y-78826556D01*
X134368506Y-78467461D01*
X134239185Y-78225518D01*
X134191613Y-78136517D01*
X134111023Y-78038319D01*
X133953556Y-77846444D01*
X133880860Y-77786784D01*
X125244782Y-69150706D01*
X125494069Y-69218322D01*
X125854684Y-69243067D01*
X126213198Y-69196985D01*
X126555833Y-69081846D01*
X126778486Y-68962836D01*
X126898374Y-68677980D01*
X125800000Y-67579605D01*
X125785858Y-67593748D01*
X125606252Y-67414142D01*
X125620395Y-67400000D01*
X125979605Y-67400000D01*
X127077980Y-68498374D01*
X127362836Y-68378486D01*
X127523699Y-68054790D01*
X127618322Y-67705931D01*
X127643067Y-67345316D01*
X127596985Y-66986802D01*
X127481846Y-66644167D01*
X127362836Y-66421514D01*
X127077980Y-66301626D01*
X125979605Y-67400000D01*
X125620395Y-67400000D01*
X124522020Y-66301626D01*
X124237164Y-66421514D01*
X124076301Y-66745210D01*
X123981678Y-67094069D01*
X123956933Y-67454684D01*
X124003015Y-67813198D01*
X124051471Y-67957396D01*
X122638072Y-66543997D01*
X122638072Y-66200000D01*
X122630392Y-66122020D01*
X124701626Y-66122020D01*
X125800000Y-67220395D01*
X126898374Y-66122020D01*
X126778486Y-65837164D01*
X126454790Y-65676301D01*
X126105931Y-65581678D01*
X125745316Y-65556933D01*
X125386802Y-65603015D01*
X125044167Y-65718154D01*
X124821514Y-65837164D01*
X124701626Y-66122020D01*
X122630392Y-66122020D01*
X122625812Y-66075518D01*
X122589502Y-65955820D01*
X122530537Y-65845506D01*
X122451185Y-65748815D01*
X122354494Y-65669463D01*
X122244180Y-65610498D01*
X122124482Y-65574188D01*
X122000000Y-65561928D01*
X121303207Y-65561928D01*
X121173445Y-65522565D01*
X120800000Y-65485783D01*
X120426555Y-65522565D01*
X120296793Y-65561928D01*
X119600000Y-65561928D01*
X119475518Y-65574188D01*
X119355820Y-65610498D01*
X119245506Y-65669463D01*
X119148815Y-65748815D01*
X119069463Y-65845506D01*
X119010498Y-65955820D01*
X118974188Y-66075518D01*
X118961928Y-66200000D01*
X118961928Y-66896793D01*
X118922565Y-67026555D01*
X118885783Y-67400000D01*
X90919118Y-67400000D01*
X88564991Y-65045874D01*
X88564991Y-64354126D01*
X89054127Y-63864991D01*
X89745874Y-63864991D01*
X91791885Y-65911003D01*
X91815683Y-65940001D01*
X91931408Y-66034974D01*
X92063437Y-66105546D01*
X92206698Y-66149003D01*
X92318351Y-66160000D01*
X92318361Y-66160000D01*
X92355684Y-66163676D01*
X92393007Y-66160000D01*
X96096289Y-66160000D01*
X96140226Y-66203937D01*
X96309744Y-66317205D01*
X96498102Y-66395226D01*
X96698061Y-66435000D01*
X96901939Y-66435000D01*
X97101898Y-66395226D01*
X97290256Y-66317205D01*
X97459774Y-66203937D01*
X97603937Y-66059774D01*
X97717205Y-65890256D01*
X97795226Y-65701898D01*
X97835000Y-65501939D01*
X97835000Y-65298061D01*
X97795226Y-65098102D01*
X97717205Y-64909744D01*
X97603937Y-64740226D01*
X97459774Y-64596063D01*
X97290256Y-64482795D01*
X97101898Y-64404774D01*
X96901939Y-64365000D01*
X96698061Y-64365000D01*
X96498102Y-64404774D01*
X96309744Y-64482795D01*
X96140226Y-64596063D01*
X96096289Y-64640000D01*
X92670486Y-64640000D01*
X91962518Y-63932032D01*
X131220000Y-63932032D01*
X131220000Y-64327968D01*
X131297243Y-64716296D01*
X131448761Y-65082092D01*
X131668731Y-65411301D01*
X131948699Y-65691269D01*
X132277908Y-65911239D01*
X132643704Y-66062757D01*
X133032032Y-66140000D01*
X133427968Y-66140000D01*
X133816296Y-66062757D01*
X134182092Y-65911239D01*
X134511301Y-65691269D01*
X134791269Y-65411301D01*
X135011239Y-65082092D01*
X135162757Y-64716296D01*
X135240000Y-64327968D01*
X135240000Y-63932032D01*
X135162757Y-63543704D01*
X135011239Y-63177908D01*
X134791269Y-62848699D01*
X134511301Y-62568731D01*
X134182092Y-62348761D01*
X133816296Y-62197243D01*
X133427968Y-62120000D01*
X133032032Y-62120000D01*
X132643704Y-62197243D01*
X132277908Y-62348761D01*
X131948699Y-62568731D01*
X131668731Y-62848699D01*
X131448761Y-63177908D01*
X131297243Y-63543704D01*
X131220000Y-63932032D01*
X91962518Y-63932032D01*
X90624479Y-62593994D01*
X90600676Y-62564990D01*
X90484951Y-62470017D01*
X90352922Y-62399445D01*
X90209661Y-62355988D01*
X90098008Y-62344991D01*
X90097997Y-62344991D01*
X90060675Y-62341315D01*
X90023353Y-62344991D01*
X88776648Y-62344991D01*
X88739325Y-62341315D01*
X88702002Y-62344991D01*
X88701992Y-62344991D01*
X88590339Y-62355988D01*
X88447078Y-62399445D01*
X88315049Y-62470017D01*
X88199324Y-62564990D01*
X88175526Y-62593988D01*
X87293989Y-63475526D01*
X87264991Y-63499324D01*
X87241193Y-63528322D01*
X87241192Y-63528323D01*
X87170017Y-63615049D01*
X87099445Y-63747079D01*
X87055989Y-63890340D01*
X87041315Y-64039325D01*
X87044992Y-64076657D01*
X87044991Y-65323352D01*
X87041315Y-65360675D01*
X87044991Y-65397997D01*
X87044991Y-65398007D01*
X87055988Y-65509660D01*
X87092946Y-65631495D01*
X87099445Y-65652921D01*
X87170017Y-65784951D01*
X87189251Y-65808387D01*
X87264990Y-65900676D01*
X87293994Y-65924479D01*
X87581264Y-66211749D01*
X87409744Y-66282795D01*
X87240226Y-66396063D01*
X87096063Y-66540226D01*
X86982795Y-66709744D01*
X86904774Y-66898102D01*
X86865000Y-67098061D01*
X81185000Y-67098061D01*
X81185000Y-63932032D01*
X82220000Y-63932032D01*
X82220000Y-64327968D01*
X82297243Y-64716296D01*
X82448761Y-65082092D01*
X82668731Y-65411301D01*
X82948699Y-65691269D01*
X83277908Y-65911239D01*
X83643704Y-66062757D01*
X84032032Y-66140000D01*
X84427968Y-66140000D01*
X84816296Y-66062757D01*
X85182092Y-65911239D01*
X85511301Y-65691269D01*
X85791269Y-65411301D01*
X86011239Y-65082092D01*
X86162757Y-64716296D01*
X86240000Y-64327968D01*
X86240000Y-63932032D01*
X86162757Y-63543704D01*
X86011239Y-63177908D01*
X85791269Y-62848699D01*
X85511301Y-62568731D01*
X85182092Y-62348761D01*
X84816296Y-62197243D01*
X84427968Y-62120000D01*
X84032032Y-62120000D01*
X83643704Y-62197243D01*
X83277908Y-62348761D01*
X82948699Y-62568731D01*
X82668731Y-62848699D01*
X82448761Y-63177908D01*
X82297243Y-63543704D01*
X82220000Y-63932032D01*
X81185000Y-63932032D01*
X81185000Y-61185000D01*
X136315001Y-61185000D01*
X136315000Y-125315000D01*
G37*
X136315000Y-125315000D02*
X81185000Y-125315000D01*
X81185000Y-121932032D01*
X82220000Y-121932032D01*
X82220000Y-122327968D01*
X82297243Y-122716296D01*
X82448761Y-123082092D01*
X82668731Y-123411301D01*
X82948699Y-123691269D01*
X83277908Y-123911239D01*
X83643704Y-124062757D01*
X84032032Y-124140000D01*
X84427968Y-124140000D01*
X84816296Y-124062757D01*
X85182092Y-123911239D01*
X85511301Y-123691269D01*
X85702570Y-123500000D01*
X90611928Y-123500000D01*
X90624188Y-123624482D01*
X90660498Y-123744180D01*
X90719463Y-123854494D01*
X90798815Y-123951185D01*
X90895506Y-124030537D01*
X91005820Y-124089502D01*
X91125518Y-124125812D01*
X91250000Y-124138072D01*
X92714250Y-124135000D01*
X92873000Y-123976250D01*
X92873000Y-122127000D01*
X93127000Y-122127000D01*
X93127000Y-123976250D01*
X93285750Y-124135000D01*
X94750000Y-124138072D01*
X94874482Y-124125812D01*
X94994180Y-124089502D01*
X95104494Y-124030537D01*
X95201185Y-123951185D01*
X95280537Y-123854494D01*
X95339502Y-123744180D01*
X95375812Y-123624482D01*
X95388072Y-123500000D01*
X95387812Y-123396890D01*
X100058524Y-123396890D01*
X100103175Y-123544099D01*
X100228359Y-123806920D01*
X100402412Y-124040269D01*
X100618645Y-124235178D01*
X100868748Y-124384157D01*
X101143109Y-124481481D01*
X101373000Y-124360814D01*
X101373000Y-123167000D01*
X101627000Y-123167000D01*
X101627000Y-124360814D01*
X101856891Y-124481481D01*
X102131252Y-124384157D01*
X102381355Y-124235178D01*
X102597588Y-124040269D01*
X102771641Y-123806920D01*
X102896825Y-123544099D01*
X102941476Y-123396890D01*
X102820155Y-123167000D01*
X101627000Y-123167000D01*
X101373000Y-123167000D01*
X100179845Y-123167000D01*
X100058524Y-123396890D01*
X95387812Y-123396890D01*
X95385000Y-122285750D01*
X95226250Y-122127000D01*
X93127000Y-122127000D01*
X92873000Y-122127000D01*
X90773750Y-122127000D01*
X90615000Y-122285750D01*
X90611928Y-123500000D01*
X85702570Y-123500000D01*
X85791269Y-123411301D01*
X86011239Y-123082092D01*
X86162757Y-122716296D01*
X86240000Y-122327968D01*
X86240000Y-121932032D01*
X86162757Y-121543704D01*
X86011239Y-121177908D01*
X85791269Y-120848699D01*
X85511301Y-120568731D01*
X85408438Y-120500000D01*
X90611928Y-120500000D01*
X90615000Y-121714250D01*
X90773750Y-121873000D01*
X92873000Y-121873000D01*
X92873000Y-120023750D01*
X93127000Y-120023750D01*
X93127000Y-121873000D01*
X95226250Y-121873000D01*
X95385000Y-121714250D01*
X95386698Y-121043195D01*
X95419463Y-121104494D01*
X95498815Y-121201185D01*
X95595506Y-121280537D01*
X95705820Y-121339502D01*
X95825518Y-121375812D01*
X95950000Y-121388072D01*
X97414250Y-121385000D01*
X97573000Y-121226250D01*
X97573000Y-119127000D01*
X97827000Y-119127000D01*
X97827000Y-121226250D01*
X97985750Y-121385000D01*
X99450000Y-121388072D01*
X99574482Y-121375812D01*
X99694180Y-121339502D01*
X99804494Y-121280537D01*
X99901185Y-121201185D01*
X99980537Y-121104494D01*
X100011928Y-121045767D01*
X100011928Y-121350000D01*
X100024188Y-121474482D01*
X100060498Y-121594180D01*
X100119463Y-121704494D01*
X100198815Y-121801185D01*
X100295506Y-121880537D01*
X100405820Y-121939502D01*
X100486466Y-121963966D01*
X100402412Y-122039731D01*
X100228359Y-122273080D01*
X100103175Y-122535901D01*
X100058524Y-122683110D01*
X100179845Y-122913000D01*
X101373000Y-122913000D01*
X101373000Y-122893000D01*
X101627000Y-122893000D01*
X101627000Y-122913000D01*
X102820155Y-122913000D01*
X102941476Y-122683110D01*
X102896825Y-122535901D01*
X102771641Y-122273080D01*
X102597588Y-122039731D01*
X102513534Y-121963966D01*
X102594180Y-121939502D01*
X102704494Y-121880537D01*
X102801185Y-121801185D01*
X102880537Y-121704494D01*
X102939502Y-121594180D01*
X102975812Y-121474482D01*
X102988072Y-121350000D01*
X102988072Y-119650000D01*
X102975812Y-119525518D01*
X102939502Y-119405820D01*
X102880537Y-119295506D01*
X102801185Y-119198815D01*
X102704494Y-119119463D01*
X102594180Y-119060498D01*
X102474482Y-119024188D01*
X102350000Y-119011928D01*
X100650000Y-119011928D01*
X100525518Y-119024188D01*
X100405820Y-119060498D01*
X100295506Y-119119463D01*
X100198815Y-119198815D01*
X100119463Y-119295506D01*
X100085155Y-119359690D01*
X100085000Y-119285750D01*
X99926250Y-119127000D01*
X97827000Y-119127000D01*
X97573000Y-119127000D01*
X95473750Y-119127000D01*
X95315000Y-119285750D01*
X95313069Y-120206367D01*
X95280537Y-120145506D01*
X95201185Y-120048815D01*
X95104494Y-119969463D01*
X94994180Y-119910498D01*
X94874482Y-119874188D01*
X94750000Y-119861928D01*
X93285750Y-119865000D01*
X93127000Y-120023750D01*
X92873000Y-120023750D01*
X92714250Y-119865000D01*
X91250000Y-119861928D01*
X91125518Y-119874188D01*
X91005820Y-119910498D01*
X90895506Y-119969463D01*
X90798815Y-120048815D01*
X90719463Y-120145506D01*
X90660498Y-120255820D01*
X90624188Y-120375518D01*
X90611928Y-120500000D01*
X85408438Y-120500000D01*
X85182092Y-120348761D01*
X84816296Y-120197243D01*
X84427968Y-120120000D01*
X84032032Y-120120000D01*
X83643704Y-120197243D01*
X83277908Y-120348761D01*
X82948699Y-120568731D01*
X82668731Y-120848699D01*
X82448761Y-121177908D01*
X82297243Y-121543704D01*
X82220000Y-121932032D01*
X81185000Y-121932032D01*
X81185000Y-68853740D01*
X81475000Y-68853740D01*
X81475000Y-69146260D01*
X81532068Y-69433158D01*
X81644010Y-69703411D01*
X81806525Y-69946632D01*
X82013368Y-70153475D01*
X82187760Y-70270000D01*
X82013368Y-70386525D01*
X81806525Y-70593368D01*
X81644010Y-70836589D01*
X81532068Y-71106842D01*
X81475000Y-71393740D01*
X81475000Y-71686260D01*
X81532068Y-71973158D01*
X81644010Y-72243411D01*
X81806525Y-72486632D01*
X82013368Y-72693475D01*
X82195534Y-72815195D01*
X82078645Y-72884822D01*
X81862412Y-73079731D01*
X81688359Y-73313080D01*
X81563175Y-73575901D01*
X81518524Y-73723110D01*
X81639845Y-73953000D01*
X82833000Y-73953000D01*
X82833000Y-73933000D01*
X83087000Y-73933000D01*
X83087000Y-73953000D01*
X83107000Y-73953000D01*
X83107000Y-74207000D01*
X83087000Y-74207000D01*
X83087000Y-74227000D01*
X82833000Y-74227000D01*
X82833000Y-74207000D01*
X81639845Y-74207000D01*
X81518524Y-74436890D01*
X81563175Y-74584099D01*
X81688359Y-74846920D01*
X81862412Y-75080269D01*
X82078645Y-75275178D01*
X82195534Y-75344805D01*
X82013368Y-75466525D01*
X81806525Y-75673368D01*
X81644010Y-75916589D01*
X81532068Y-76186842D01*
X81475000Y-76473740D01*
X81475000Y-76766260D01*
X81532068Y-77053158D01*
X81644010Y-77323411D01*
X81806525Y-77566632D01*
X82013368Y-77773475D01*
X82187760Y-77890000D01*
X82013368Y-78006525D01*
X81806525Y-78213368D01*
X81644010Y-78456589D01*
X81532068Y-78726842D01*
X81475000Y-79013740D01*
X81475000Y-79306260D01*
X81532068Y-79593158D01*
X81644010Y-79863411D01*
X81806525Y-80106632D01*
X82013368Y-80313475D01*
X82187760Y-80430000D01*
X82013368Y-80546525D01*
X81806525Y-80753368D01*
X81644010Y-80996589D01*
X81532068Y-81266842D01*
X81475000Y-81553740D01*
X81475000Y-81846260D01*
X81532068Y-82133158D01*
X81644010Y-82403411D01*
X81806525Y-82646632D01*
X82013368Y-82853475D01*
X82195534Y-82975195D01*
X82078645Y-83044822D01*
X81862412Y-83239731D01*
X81688359Y-83473080D01*
X81563175Y-83735901D01*
X81518524Y-83883110D01*
X81639845Y-84113000D01*
X82833000Y-84113000D01*
X82833000Y-84093000D01*
X83087000Y-84093000D01*
X83087000Y-84113000D01*
X83107000Y-84113000D01*
X83107000Y-84367000D01*
X83087000Y-84367000D01*
X83087000Y-84387000D01*
X82833000Y-84387000D01*
X82833000Y-84367000D01*
X81639845Y-84367000D01*
X81518524Y-84596890D01*
X81563175Y-84744099D01*
X81688359Y-85006920D01*
X81862412Y-85240269D01*
X82078645Y-85435178D01*
X82195534Y-85504805D01*
X82013368Y-85626525D01*
X81806525Y-85833368D01*
X81644010Y-86076589D01*
X81532068Y-86346842D01*
X81475000Y-86633740D01*
X81475000Y-86926260D01*
X81532068Y-87213158D01*
X81644010Y-87483411D01*
X81806525Y-87726632D01*
X82013368Y-87933475D01*
X82187760Y-88050000D01*
X82013368Y-88166525D01*
X81806525Y-88373368D01*
X81644010Y-88616589D01*
X81532068Y-88886842D01*
X81475000Y-89173740D01*
X81475000Y-89466260D01*
X81532068Y-89753158D01*
X81644010Y-90023411D01*
X81806525Y-90266632D01*
X82013368Y-90473475D01*
X82195534Y-90595195D01*
X82078645Y-90664822D01*
X81862412Y-90859731D01*
X81688359Y-91093080D01*
X81563175Y-91355901D01*
X81518524Y-91503110D01*
X81639845Y-91733000D01*
X82833000Y-91733000D01*
X82833000Y-91713000D01*
X83087000Y-91713000D01*
X83087000Y-91733000D01*
X83107000Y-91733000D01*
X83107000Y-91987000D01*
X83087000Y-91987000D01*
X83087000Y-92007000D01*
X82833000Y-92007000D01*
X82833000Y-91987000D01*
X81639845Y-91987000D01*
X81518524Y-92216890D01*
X81563175Y-92364099D01*
X81688359Y-92626920D01*
X81862412Y-92860269D01*
X82078645Y-93055178D01*
X82195534Y-93124805D01*
X82013368Y-93246525D01*
X81806525Y-93453368D01*
X81644010Y-93696589D01*
X81532068Y-93966842D01*
X81475000Y-94253740D01*
X81475000Y-94546260D01*
X81532068Y-94833158D01*
X81644010Y-95103411D01*
X81806525Y-95346632D01*
X82013368Y-95553475D01*
X82187760Y-95670000D01*
X82013368Y-95786525D01*
X81806525Y-95993368D01*
X81644010Y-96236589D01*
X81532068Y-96506842D01*
X81475000Y-96793740D01*
X81475000Y-97086260D01*
X81532068Y-97373158D01*
X81644010Y-97643411D01*
X81806525Y-97886632D01*
X82013368Y-98093475D01*
X82187760Y-98210000D01*
X82013368Y-98326525D01*
X81806525Y-98533368D01*
X81644010Y-98776589D01*
X81532068Y-99046842D01*
X81475000Y-99333740D01*
X81475000Y-99626260D01*
X81532068Y-99913158D01*
X81644010Y-100183411D01*
X81806525Y-100426632D01*
X82013368Y-100633475D01*
X82187760Y-100750000D01*
X82013368Y-100866525D01*
X81806525Y-101073368D01*
X81644010Y-101316589D01*
X81532068Y-101586842D01*
X81475000Y-101873740D01*
X81475000Y-102166260D01*
X81532068Y-102453158D01*
X81644010Y-102723411D01*
X81806525Y-102966632D01*
X82013368Y-103173475D01*
X82195534Y-103295195D01*
X82078645Y-103364822D01*
X81862412Y-103559731D01*
X81688359Y-103793080D01*
X81563175Y-104055901D01*
X81518524Y-104203110D01*
X81639845Y-104433000D01*
X82833000Y-104433000D01*
X82833000Y-104413000D01*
X83087000Y-104413000D01*
X83087000Y-104433000D01*
X83107000Y-104433000D01*
X83107000Y-104687000D01*
X83087000Y-104687000D01*
X83087000Y-104707000D01*
X82833000Y-104707000D01*
X82833000Y-104687000D01*
X81639845Y-104687000D01*
X81518524Y-104916890D01*
X81563175Y-105064099D01*
X81688359Y-105326920D01*
X81862412Y-105560269D01*
X82078645Y-105755178D01*
X82195534Y-105824805D01*
X82013368Y-105946525D01*
X81806525Y-106153368D01*
X81644010Y-106396589D01*
X81532068Y-106666842D01*
X81475000Y-106953740D01*
X81475000Y-107246260D01*
X81532068Y-107533158D01*
X81644010Y-107803411D01*
X81806525Y-108046632D01*
X82013368Y-108253475D01*
X82195534Y-108375195D01*
X82078645Y-108444822D01*
X81862412Y-108639731D01*
X81688359Y-108873080D01*
X81563175Y-109135901D01*
X81518524Y-109283110D01*
X81639845Y-109513000D01*
X82833000Y-109513000D01*
X82833000Y-109493000D01*
X83087000Y-109493000D01*
X83087000Y-109513000D01*
X83107000Y-109513000D01*
X83107000Y-109767000D01*
X83087000Y-109767000D01*
X83087000Y-109787000D01*
X82833000Y-109787000D01*
X82833000Y-109767000D01*
X81639845Y-109767000D01*
X81518524Y-109996890D01*
X81563175Y-110144099D01*
X81688359Y-110406920D01*
X81862412Y-110640269D01*
X82078645Y-110835178D01*
X82195534Y-110904805D01*
X82013368Y-111026525D01*
X81806525Y-111233368D01*
X81644010Y-111476589D01*
X81532068Y-111746842D01*
X81475000Y-112033740D01*
X81475000Y-112326260D01*
X81532068Y-112613158D01*
X81644010Y-112883411D01*
X81806525Y-113126632D01*
X82013368Y-113333475D01*
X82187760Y-113450000D01*
X82013368Y-113566525D01*
X81806525Y-113773368D01*
X81644010Y-114016589D01*
X81532068Y-114286842D01*
X81475000Y-114573740D01*
X81475000Y-114866260D01*
X81532068Y-115153158D01*
X81644010Y-115423411D01*
X81806525Y-115666632D01*
X82013368Y-115873475D01*
X82187760Y-115990000D01*
X82013368Y-116106525D01*
X81806525Y-116313368D01*
X81644010Y-116556589D01*
X81532068Y-116826842D01*
X81475000Y-117113740D01*
X81475000Y-117406260D01*
X81532068Y-117693158D01*
X81644010Y-117963411D01*
X81806525Y-118206632D01*
X82013368Y-118413475D01*
X82256589Y-118575990D01*
X82526842Y-118687932D01*
X82813740Y-118745000D01*
X83106260Y-118745000D01*
X83393158Y-118687932D01*
X83663411Y-118575990D01*
X83906632Y-118413475D01*
X84113475Y-118206632D01*
X84231100Y-118030594D01*
X84402412Y-118260269D01*
X84618645Y-118455178D01*
X84868748Y-118604157D01*
X85143109Y-118701481D01*
X85373000Y-118580814D01*
X85373000Y-117387000D01*
X85627000Y-117387000D01*
X85627000Y-118580814D01*
X85856891Y-118701481D01*
X86131252Y-118604157D01*
X86381355Y-118455178D01*
X86597588Y-118260269D01*
X86771641Y-118026920D01*
X86896825Y-117764099D01*
X86941476Y-117616890D01*
X86820155Y-117387000D01*
X85627000Y-117387000D01*
X85373000Y-117387000D01*
X85353000Y-117387000D01*
X85353000Y-117133000D01*
X85373000Y-117133000D01*
X85373000Y-117113000D01*
X85627000Y-117113000D01*
X85627000Y-117133000D01*
X86820155Y-117133000D01*
X86941476Y-116903110D01*
X86896825Y-116755901D01*
X86771641Y-116493080D01*
X86597588Y-116259731D01*
X86381355Y-116064822D01*
X86264466Y-115995195D01*
X86446632Y-115873475D01*
X86653475Y-115666632D01*
X86815990Y-115423411D01*
X86927932Y-115153158D01*
X86985000Y-114866260D01*
X86985000Y-114573740D01*
X86927932Y-114286842D01*
X86912672Y-114250000D01*
X90611928Y-114250000D01*
X90611928Y-117750000D01*
X90624188Y-117874482D01*
X90660498Y-117994180D01*
X90719463Y-118104494D01*
X90798815Y-118201185D01*
X90895506Y-118280537D01*
X91005820Y-118339502D01*
X91125518Y-118375812D01*
X91250000Y-118388072D01*
X94750000Y-118388072D01*
X94874482Y-118375812D01*
X94994180Y-118339502D01*
X95104494Y-118280537D01*
X95201185Y-118201185D01*
X95280537Y-118104494D01*
X95313591Y-118042655D01*
X95315000Y-118714250D01*
X95473750Y-118873000D01*
X97573000Y-118873000D01*
X97573000Y-116773750D01*
X97827000Y-116773750D01*
X97827000Y-118873000D01*
X99926250Y-118873000D01*
X100085000Y-118714250D01*
X100088072Y-117250000D01*
X100075812Y-117125518D01*
X100039502Y-117005820D01*
X99980537Y-116895506D01*
X99901185Y-116798815D01*
X99804494Y-116719463D01*
X99694180Y-116660498D01*
X99574482Y-116624188D01*
X99450000Y-116611928D01*
X97985750Y-116615000D01*
X97827000Y-116773750D01*
X97573000Y-116773750D01*
X97414250Y-116615000D01*
X95950000Y-116611928D01*
X95825518Y-116624188D01*
X95705820Y-116660498D01*
X95595506Y-116719463D01*
X95498815Y-116798815D01*
X95419463Y-116895506D01*
X95388072Y-116954233D01*
X95388072Y-114250000D01*
X95375812Y-114125518D01*
X95339502Y-114005820D01*
X95280537Y-113895506D01*
X95201185Y-113798815D01*
X95104494Y-113719463D01*
X94994180Y-113660498D01*
X94874482Y-113624188D01*
X94750000Y-113611928D01*
X91250000Y-113611928D01*
X91125518Y-113624188D01*
X91005820Y-113660498D01*
X90895506Y-113719463D01*
X90798815Y-113798815D01*
X90719463Y-113895506D01*
X90660498Y-114005820D01*
X90624188Y-114125518D01*
X90611928Y-114250000D01*
X86912672Y-114250000D01*
X86815990Y-114016589D01*
X86653475Y-113773368D01*
X86446632Y-113566525D01*
X86272240Y-113450000D01*
X86446632Y-113333475D01*
X86653475Y-113126632D01*
X86815990Y-112883411D01*
X86927932Y-112613158D01*
X86985000Y-112326260D01*
X86985000Y-112033740D01*
X86927932Y-111746842D01*
X86815990Y-111476589D01*
X86653475Y-111233368D01*
X86446632Y-111026525D01*
X86272240Y-110910000D01*
X86446632Y-110793475D01*
X86653475Y-110586632D01*
X86815990Y-110343411D01*
X86927932Y-110073158D01*
X86985000Y-109786260D01*
X86985000Y-109659268D01*
X88965000Y-109659268D01*
X88965000Y-110020732D01*
X89035518Y-110375250D01*
X89173844Y-110709199D01*
X89374662Y-111009744D01*
X89630256Y-111265338D01*
X89930801Y-111466156D01*
X90264750Y-111604482D01*
X90619268Y-111675000D01*
X90980732Y-111675000D01*
X91335250Y-111604482D01*
X91669199Y-111466156D01*
X91969744Y-111265338D01*
X92225338Y-111009744D01*
X92426156Y-110709199D01*
X92564482Y-110375250D01*
X92635000Y-110020732D01*
X92635000Y-109659268D01*
X92564482Y-109304750D01*
X92426156Y-108970801D01*
X92225338Y-108670256D01*
X91969744Y-108414662D01*
X91669199Y-108213844D01*
X91335250Y-108075518D01*
X90980732Y-108005000D01*
X90619268Y-108005000D01*
X90264750Y-108075518D01*
X89930801Y-108213844D01*
X89630256Y-108414662D01*
X89374662Y-108670256D01*
X89173844Y-108970801D01*
X89035518Y-109304750D01*
X88965000Y-109659268D01*
X86985000Y-109659268D01*
X86985000Y-109493740D01*
X86927932Y-109206842D01*
X86815990Y-108936589D01*
X86653475Y-108693368D01*
X86446632Y-108486525D01*
X86272240Y-108370000D01*
X86446632Y-108253475D01*
X86653475Y-108046632D01*
X86815990Y-107803411D01*
X86927932Y-107533158D01*
X86985000Y-107246260D01*
X86985000Y-106953740D01*
X86927932Y-106666842D01*
X86815990Y-106396589D01*
X86653475Y-106153368D01*
X86446632Y-105946525D01*
X86272240Y-105830000D01*
X86446632Y-105713475D01*
X86653475Y-105506632D01*
X86815990Y-105263411D01*
X86927932Y-104993158D01*
X86985000Y-104706260D01*
X86985000Y-104413740D01*
X86927932Y-104126842D01*
X86815990Y-103856589D01*
X86653475Y-103613368D01*
X86446632Y-103406525D01*
X86272240Y-103290000D01*
X86446632Y-103173475D01*
X86653475Y-102966632D01*
X86815990Y-102723411D01*
X86927932Y-102453158D01*
X86985000Y-102166260D01*
X86985000Y-101873740D01*
X86927932Y-101586842D01*
X86815990Y-101316589D01*
X86653475Y-101073368D01*
X86446632Y-100866525D01*
X86264466Y-100744805D01*
X86381355Y-100675178D01*
X86597588Y-100480269D01*
X86771641Y-100246920D01*
X86896825Y-99984099D01*
X86941476Y-99836890D01*
X86820155Y-99607000D01*
X85627000Y-99607000D01*
X85627000Y-99627000D01*
X85373000Y-99627000D01*
X85373000Y-99607000D01*
X85353000Y-99607000D01*
X85353000Y-99353000D01*
X85373000Y-99353000D01*
X85373000Y-99333000D01*
X85627000Y-99333000D01*
X85627000Y-99353000D01*
X86820155Y-99353000D01*
X86941476Y-99123110D01*
X86896825Y-98975901D01*
X86771641Y-98713080D01*
X86597588Y-98479731D01*
X86381355Y-98284822D01*
X86264466Y-98215195D01*
X86446632Y-98093475D01*
X86653475Y-97886632D01*
X86815990Y-97643411D01*
X86927932Y-97373158D01*
X86985000Y-97086260D01*
X86985000Y-96793740D01*
X86927932Y-96506842D01*
X86815990Y-96236589D01*
X86653475Y-95993368D01*
X86446632Y-95786525D01*
X86272240Y-95670000D01*
X86446632Y-95553475D01*
X86653475Y-95346632D01*
X86815990Y-95103411D01*
X86927932Y-94833158D01*
X86985000Y-94546260D01*
X86985000Y-94253740D01*
X86927932Y-93966842D01*
X86815990Y-93696589D01*
X86653475Y-93453368D01*
X86446632Y-93246525D01*
X86272240Y-93130000D01*
X86446632Y-93013475D01*
X86653475Y-92806632D01*
X86815990Y-92563411D01*
X86927932Y-92293158D01*
X86985000Y-92006260D01*
X86985000Y-91713740D01*
X86927932Y-91426842D01*
X86815990Y-91156589D01*
X86653475Y-90913368D01*
X86446632Y-90706525D01*
X86272240Y-90590000D01*
X86446632Y-90473475D01*
X86653475Y-90266632D01*
X86815990Y-90023411D01*
X86927932Y-89753158D01*
X86985000Y-89466260D01*
X86985000Y-89173740D01*
X86927932Y-88886842D01*
X86815990Y-88616589D01*
X86653475Y-88373368D01*
X86446632Y-88166525D01*
X86272240Y-88050000D01*
X86446632Y-87933475D01*
X86653475Y-87726632D01*
X86815990Y-87483411D01*
X86927932Y-87213158D01*
X86930549Y-87200000D01*
X88885783Y-87200000D01*
X88922565Y-87573445D01*
X89031495Y-87932539D01*
X89208387Y-88263482D01*
X89298569Y-88373368D01*
X89446445Y-88553556D01*
X89519140Y-88613215D01*
X91686789Y-90780865D01*
X91746444Y-90853556D01*
X91833911Y-90925338D01*
X92036517Y-91091613D01*
X92101143Y-91126156D01*
X92367461Y-91268506D01*
X92726555Y-91377436D01*
X93006418Y-91405000D01*
X93006419Y-91405000D01*
X93099999Y-91414217D01*
X93193579Y-91405000D01*
X95895001Y-91405000D01*
X95895000Y-105441379D01*
X95885783Y-105534959D01*
X95895000Y-105628539D01*
X95895000Y-105628540D01*
X95922564Y-105908403D01*
X96031494Y-106267497D01*
X96208387Y-106598441D01*
X96446444Y-106888515D01*
X96519145Y-106948179D01*
X97566468Y-107995503D01*
X97264750Y-108055518D01*
X96930801Y-108193844D01*
X96630256Y-108394662D01*
X96374662Y-108650256D01*
X96173844Y-108950801D01*
X96035518Y-109284750D01*
X95965000Y-109639268D01*
X95965000Y-110000732D01*
X96035518Y-110355250D01*
X96173844Y-110689199D01*
X96374662Y-110989744D01*
X96630256Y-111245338D01*
X96930801Y-111446156D01*
X97264750Y-111584482D01*
X97619268Y-111655000D01*
X97980732Y-111655000D01*
X98335250Y-111584482D01*
X98601850Y-111474053D01*
X98701495Y-111802539D01*
X98878388Y-112133483D01*
X99116445Y-112423557D01*
X99189146Y-112483221D01*
X108886784Y-122180860D01*
X108946444Y-122253556D01*
X109095414Y-122375812D01*
X109236517Y-122491613D01*
X109413410Y-122586164D01*
X109567461Y-122668506D01*
X109926555Y-122777436D01*
X110206418Y-122805000D01*
X110206420Y-122805000D01*
X110300000Y-122814217D01*
X110393580Y-122805000D01*
X112955673Y-122805000D01*
X112872068Y-123006842D01*
X112815000Y-123293740D01*
X112815000Y-123586260D01*
X112872068Y-123873158D01*
X112984010Y-124143411D01*
X113146525Y-124386632D01*
X113353368Y-124593475D01*
X113596589Y-124755990D01*
X113866842Y-124867932D01*
X114153740Y-124925000D01*
X114446260Y-124925000D01*
X114733158Y-124867932D01*
X115003411Y-124755990D01*
X115246632Y-124593475D01*
X115453475Y-124386632D01*
X115615990Y-124143411D01*
X115727932Y-123873158D01*
X115785000Y-123586260D01*
X115785000Y-123293740D01*
X115727932Y-123006842D01*
X115644327Y-122805000D01*
X119006420Y-122805000D01*
X119100000Y-122814217D01*
X119193580Y-122805000D01*
X119193582Y-122805000D01*
X119473445Y-122777436D01*
X119832539Y-122668506D01*
X120163482Y-122491613D01*
X120453556Y-122253556D01*
X120513220Y-122180855D01*
X120762043Y-121932032D01*
X131220000Y-121932032D01*
X131220000Y-122327968D01*
X131297243Y-122716296D01*
X131448761Y-123082092D01*
X131668731Y-123411301D01*
X131948699Y-123691269D01*
X132277908Y-123911239D01*
X132643704Y-124062757D01*
X133032032Y-124140000D01*
X133427968Y-124140000D01*
X133816296Y-124062757D01*
X134182092Y-123911239D01*
X134511301Y-123691269D01*
X134791269Y-123411301D01*
X135011239Y-123082092D01*
X135162757Y-122716296D01*
X135240000Y-122327968D01*
X135240000Y-121932032D01*
X135162757Y-121543704D01*
X135011239Y-121177908D01*
X134791269Y-120848699D01*
X134511301Y-120568731D01*
X134182092Y-120348761D01*
X133816296Y-120197243D01*
X133427968Y-120120000D01*
X133032032Y-120120000D01*
X132643704Y-120197243D01*
X132277908Y-120348761D01*
X131948699Y-120568731D01*
X131668731Y-120848699D01*
X131448761Y-121177908D01*
X131297243Y-121543704D01*
X131220000Y-121932032D01*
X120762043Y-121932032D01*
X121656004Y-121038072D01*
X122000000Y-121038072D01*
X122124482Y-121025812D01*
X122244180Y-120989502D01*
X122354494Y-120930537D01*
X122451185Y-120851185D01*
X122530537Y-120754494D01*
X122589502Y-120644180D01*
X122625812Y-120524482D01*
X122638072Y-120400000D01*
X122638072Y-119703208D01*
X122677435Y-119573446D01*
X122714217Y-119200001D01*
X122714217Y-119200000D01*
X123885783Y-119200000D01*
X123922565Y-119573445D01*
X124031495Y-119932539D01*
X124208387Y-120263482D01*
X124446445Y-120553555D01*
X124736518Y-120791613D01*
X125067461Y-120968505D01*
X125426555Y-121077435D01*
X125800000Y-121114217D01*
X126173445Y-121077435D01*
X126532539Y-120968505D01*
X126863482Y-120791613D01*
X127080865Y-120613210D01*
X128880865Y-118813212D01*
X128953556Y-118753556D01*
X129191613Y-118463482D01*
X129368506Y-118132539D01*
X129477436Y-117773445D01*
X129505000Y-117493582D01*
X129505000Y-117493573D01*
X129514216Y-117400001D01*
X129505000Y-117306429D01*
X129505000Y-106856418D01*
X129477436Y-106576555D01*
X129438072Y-106446789D01*
X129438072Y-105750000D01*
X129425812Y-105625518D01*
X129389502Y-105505820D01*
X129330537Y-105395506D01*
X129251185Y-105298815D01*
X129154494Y-105219463D01*
X129044180Y-105160498D01*
X128924482Y-105124188D01*
X128800000Y-105111928D01*
X128103211Y-105111928D01*
X127973445Y-105072564D01*
X127600000Y-105035783D01*
X127226556Y-105072564D01*
X127096790Y-105111928D01*
X126400000Y-105111928D01*
X126275518Y-105124188D01*
X126155820Y-105160498D01*
X126045506Y-105219463D01*
X125948815Y-105298815D01*
X125869463Y-105395506D01*
X125810498Y-105505820D01*
X125774188Y-105625518D01*
X125761928Y-105750000D01*
X125761928Y-106446793D01*
X125722565Y-106576555D01*
X125695001Y-106856418D01*
X125695000Y-116610924D01*
X124386790Y-117919135D01*
X124208387Y-118136518D01*
X124031495Y-118467461D01*
X123922565Y-118826555D01*
X123885783Y-119200000D01*
X122714217Y-119200000D01*
X122677435Y-118826556D01*
X122638072Y-118696793D01*
X122638072Y-118000000D01*
X122625812Y-117875518D01*
X122589502Y-117755820D01*
X122530537Y-117645506D01*
X122451185Y-117548815D01*
X122354494Y-117469463D01*
X122244180Y-117410498D01*
X122124482Y-117374188D01*
X122000000Y-117361928D01*
X121303207Y-117361928D01*
X121173444Y-117322565D01*
X120799999Y-117285783D01*
X120426554Y-117322565D01*
X120296792Y-117361928D01*
X119600000Y-117361928D01*
X119475518Y-117374188D01*
X119355820Y-117410498D01*
X119245506Y-117469463D01*
X119148815Y-117548815D01*
X119069463Y-117645506D01*
X119010498Y-117755820D01*
X118974188Y-117875518D01*
X118961928Y-118000000D01*
X118961928Y-118343996D01*
X118310925Y-118995000D01*
X111089076Y-118995000D01*
X103082147Y-110988072D01*
X103950000Y-110988072D01*
X104074482Y-110975812D01*
X104194180Y-110939502D01*
X104304494Y-110880537D01*
X104401185Y-110801185D01*
X104480537Y-110704494D01*
X104539502Y-110594180D01*
X104575812Y-110474482D01*
X104588072Y-110350000D01*
X104588072Y-109336146D01*
X106092791Y-110840865D01*
X106152446Y-110913556D01*
X106238474Y-110984157D01*
X106442519Y-111151613D01*
X106617867Y-111245338D01*
X106773463Y-111328506D01*
X107132557Y-111437436D01*
X107412420Y-111465000D01*
X107412421Y-111465000D01*
X107506001Y-111474217D01*
X107599581Y-111465000D01*
X108911928Y-111465000D01*
X108911928Y-112950000D01*
X108924188Y-113074482D01*
X108960498Y-113194180D01*
X109019463Y-113304494D01*
X109098815Y-113401185D01*
X109195506Y-113480537D01*
X109305820Y-113539502D01*
X109425518Y-113575812D01*
X109550000Y-113588072D01*
X111250000Y-113588072D01*
X111374482Y-113575812D01*
X111494180Y-113539502D01*
X111604494Y-113480537D01*
X111701185Y-113401185D01*
X111780537Y-113304494D01*
X111839502Y-113194180D01*
X111875812Y-113074482D01*
X111888072Y-112950000D01*
X111888072Y-111250000D01*
X111875812Y-111125518D01*
X111839502Y-111005820D01*
X111780537Y-110895506D01*
X111774453Y-110888093D01*
X111991613Y-110623482D01*
X112168506Y-110292539D01*
X112277436Y-109933445D01*
X112314217Y-109560000D01*
X112305000Y-109466418D01*
X112305000Y-105806418D01*
X112277436Y-105526555D01*
X112168506Y-105167461D01*
X111991613Y-104836518D01*
X111753556Y-104546444D01*
X111511946Y-104348161D01*
X111553475Y-104306632D01*
X111715990Y-104063411D01*
X111827932Y-103793158D01*
X111885000Y-103506260D01*
X111885000Y-103213740D01*
X111827932Y-102926842D01*
X111715990Y-102656589D01*
X111553475Y-102413368D01*
X111346632Y-102206525D01*
X111103411Y-102044010D01*
X110833158Y-101932068D01*
X110546260Y-101875000D01*
X110253740Y-101875000D01*
X109966842Y-101932068D01*
X109696589Y-102044010D01*
X109453368Y-102206525D01*
X109246525Y-102413368D01*
X109084010Y-102656589D01*
X108972068Y-102926842D01*
X108915000Y-103213740D01*
X108915000Y-103506260D01*
X108972068Y-103793158D01*
X109084010Y-104063411D01*
X109246525Y-104306632D01*
X109288054Y-104348161D01*
X109046444Y-104546444D01*
X108808387Y-104836518D01*
X108631494Y-105167462D01*
X108522564Y-105526556D01*
X108495000Y-105806419D01*
X108495000Y-107655000D01*
X108295079Y-107655000D01*
X106319222Y-105679145D01*
X106259558Y-105606444D01*
X105969484Y-105368387D01*
X105638541Y-105191494D01*
X105279447Y-105082564D01*
X104999584Y-105055000D01*
X104999582Y-105055000D01*
X104906002Y-105045783D01*
X104812422Y-105055000D01*
X104444327Y-105055000D01*
X104527932Y-104853158D01*
X104585000Y-104566260D01*
X104585000Y-104273740D01*
X104527932Y-103986842D01*
X104415990Y-103716589D01*
X104253475Y-103473368D01*
X104046632Y-103266525D01*
X103803411Y-103104010D01*
X103533158Y-102992068D01*
X103246260Y-102935000D01*
X102953740Y-102935000D01*
X102666842Y-102992068D01*
X102396589Y-103104010D01*
X102153368Y-103266525D01*
X101946525Y-103473368D01*
X101784010Y-103716589D01*
X101672068Y-103986842D01*
X101615000Y-104273740D01*
X101615000Y-104566260D01*
X101672068Y-104853158D01*
X101784010Y-105123411D01*
X101946525Y-105366632D01*
X101988054Y-105408161D01*
X101746444Y-105606444D01*
X101508387Y-105896518D01*
X101331494Y-106227461D01*
X101297766Y-106338648D01*
X99705000Y-104745884D01*
X99705000Y-97300000D01*
X125685783Y-97300000D01*
X125695000Y-97393580D01*
X125695000Y-97393581D01*
X125722564Y-97673444D01*
X125831494Y-98032538D01*
X126008387Y-98363482D01*
X126246444Y-98653556D01*
X126319145Y-98713220D01*
X130695001Y-103089078D01*
X130695000Y-107043581D01*
X130722564Y-107323444D01*
X130831494Y-107682538D01*
X131008387Y-108013482D01*
X131246444Y-108303556D01*
X131536518Y-108541613D01*
X131867461Y-108718506D01*
X132226555Y-108827436D01*
X132600000Y-108864217D01*
X132973444Y-108827436D01*
X133332538Y-108718506D01*
X133663482Y-108541613D01*
X133953556Y-108303556D01*
X134191613Y-108013482D01*
X134368506Y-107682539D01*
X134477436Y-107323445D01*
X134505000Y-107043582D01*
X134505000Y-102393580D01*
X134514217Y-102300000D01*
X134505000Y-102206418D01*
X134477436Y-101926555D01*
X134368506Y-101567461D01*
X134368506Y-101567460D01*
X134191613Y-101236517D01*
X134013211Y-101019134D01*
X133953556Y-100946444D01*
X133880866Y-100886789D01*
X129505000Y-96510925D01*
X129505000Y-93156418D01*
X129477436Y-92876555D01*
X129438072Y-92746789D01*
X129438072Y-92050000D01*
X129425812Y-91925518D01*
X129389502Y-91805820D01*
X129330537Y-91695506D01*
X129251185Y-91598815D01*
X129154494Y-91519463D01*
X129044180Y-91460498D01*
X128924482Y-91424188D01*
X128800000Y-91411928D01*
X128103211Y-91411928D01*
X127973445Y-91372564D01*
X127600000Y-91335783D01*
X127226556Y-91372564D01*
X127096790Y-91411928D01*
X126400000Y-91411928D01*
X126275518Y-91424188D01*
X126155820Y-91460498D01*
X126045506Y-91519463D01*
X125948815Y-91598815D01*
X125869463Y-91695506D01*
X125810498Y-91805820D01*
X125774188Y-91925518D01*
X125761928Y-92050000D01*
X125761928Y-92746793D01*
X125722565Y-92876555D01*
X125695001Y-93156418D01*
X125695000Y-97206420D01*
X125685783Y-97300000D01*
X99705000Y-97300000D01*
X99705000Y-92256891D01*
X102118519Y-92256891D01*
X102215843Y-92531252D01*
X102364822Y-92781355D01*
X102559731Y-92997588D01*
X102793080Y-93171641D01*
X103055901Y-93296825D01*
X103203110Y-93341476D01*
X103433000Y-93220155D01*
X103433000Y-92027000D01*
X102239186Y-92027000D01*
X102118519Y-92256891D01*
X99705000Y-92256891D01*
X99705000Y-91543109D01*
X102118519Y-91543109D01*
X102239186Y-91773000D01*
X103433000Y-91773000D01*
X103433000Y-90579845D01*
X103687000Y-90579845D01*
X103687000Y-91773000D01*
X103707000Y-91773000D01*
X103707000Y-92027000D01*
X103687000Y-92027000D01*
X103687000Y-93220155D01*
X103916890Y-93341476D01*
X104064099Y-93296825D01*
X104326920Y-93171641D01*
X104560269Y-92997588D01*
X104636034Y-92913534D01*
X104660498Y-92994180D01*
X104719463Y-93104494D01*
X104798815Y-93201185D01*
X104895506Y-93280537D01*
X105005820Y-93339502D01*
X105125518Y-93375812D01*
X105250000Y-93388072D01*
X106950000Y-93388072D01*
X107074482Y-93375812D01*
X107194180Y-93339502D01*
X107304494Y-93280537D01*
X107401185Y-93201185D01*
X107480537Y-93104494D01*
X107539502Y-92994180D01*
X107575812Y-92874482D01*
X107588072Y-92750000D01*
X107588072Y-91250000D01*
X113011928Y-91250000D01*
X113011928Y-92950000D01*
X113024188Y-93074482D01*
X113060498Y-93194180D01*
X113119463Y-93304494D01*
X113198815Y-93401185D01*
X113295506Y-93480537D01*
X113405820Y-93539502D01*
X113478380Y-93561513D01*
X113346525Y-93693368D01*
X113184010Y-93936589D01*
X113072068Y-94206842D01*
X113015000Y-94493740D01*
X113015000Y-94786260D01*
X113072068Y-95073158D01*
X113184010Y-95343411D01*
X113346525Y-95586632D01*
X113553368Y-95793475D01*
X113796589Y-95955990D01*
X114066842Y-96067932D01*
X114353740Y-96125000D01*
X114646260Y-96125000D01*
X114933158Y-96067932D01*
X115203411Y-95955990D01*
X115446632Y-95793475D01*
X115653475Y-95586632D01*
X115815990Y-95343411D01*
X115927932Y-95073158D01*
X115985000Y-94786260D01*
X115985000Y-94493740D01*
X115927932Y-94206842D01*
X115815990Y-93936589D01*
X115653475Y-93693368D01*
X115521620Y-93561513D01*
X115594180Y-93539502D01*
X115704494Y-93480537D01*
X115801185Y-93401185D01*
X115880537Y-93304494D01*
X115939502Y-93194180D01*
X115975812Y-93074482D01*
X115988072Y-92950000D01*
X115988072Y-91250000D01*
X115975812Y-91125518D01*
X115939502Y-91005820D01*
X115880537Y-90895506D01*
X115801185Y-90798815D01*
X115704494Y-90719463D01*
X115594180Y-90660498D01*
X115474482Y-90624188D01*
X115350000Y-90611928D01*
X113650000Y-90611928D01*
X113525518Y-90624188D01*
X113405820Y-90660498D01*
X113295506Y-90719463D01*
X113198815Y-90798815D01*
X113119463Y-90895506D01*
X113060498Y-91005820D01*
X113024188Y-91125518D01*
X113011928Y-91250000D01*
X107588072Y-91250000D01*
X107588072Y-91050000D01*
X107575812Y-90925518D01*
X107539502Y-90805820D01*
X107480537Y-90695506D01*
X107401185Y-90598815D01*
X107304494Y-90519463D01*
X107194180Y-90460498D01*
X107074482Y-90424188D01*
X106950000Y-90411928D01*
X105250000Y-90411928D01*
X105125518Y-90424188D01*
X105005820Y-90460498D01*
X104895506Y-90519463D01*
X104798815Y-90598815D01*
X104719463Y-90695506D01*
X104660498Y-90805820D01*
X104636034Y-90886466D01*
X104560269Y-90802412D01*
X104326920Y-90628359D01*
X104064099Y-90503175D01*
X103916890Y-90458524D01*
X103687000Y-90579845D01*
X103433000Y-90579845D01*
X103203110Y-90458524D01*
X103055901Y-90503175D01*
X102793080Y-90628359D01*
X102559731Y-90802412D01*
X102364822Y-91018645D01*
X102215843Y-91268748D01*
X102118519Y-91543109D01*
X99705000Y-91543109D01*
X99705000Y-89593582D01*
X99714217Y-89500000D01*
X99677436Y-89126555D01*
X99568506Y-88767461D01*
X99391613Y-88436518D01*
X99153556Y-88146444D01*
X98863482Y-87908387D01*
X98532539Y-87731494D01*
X98173445Y-87622564D01*
X97893582Y-87595000D01*
X97800000Y-87585783D01*
X97706418Y-87595000D01*
X93889076Y-87595000D01*
X92705000Y-86410924D01*
X92705000Y-81806418D01*
X92677436Y-81526555D01*
X92568506Y-81167461D01*
X92391613Y-80836518D01*
X92153556Y-80546444D01*
X91863482Y-80308387D01*
X91532538Y-80131494D01*
X91173444Y-80022564D01*
X90800000Y-79985783D01*
X90426555Y-80022564D01*
X90067461Y-80131494D01*
X89736518Y-80308387D01*
X89446444Y-80546444D01*
X89208387Y-80836518D01*
X89031494Y-81167462D01*
X88922564Y-81526556D01*
X88895000Y-81806419D01*
X88895001Y-87106411D01*
X88885783Y-87200000D01*
X86930549Y-87200000D01*
X86985000Y-86926260D01*
X86985000Y-86633740D01*
X86927932Y-86346842D01*
X86815990Y-86076589D01*
X86653475Y-85833368D01*
X86446632Y-85626525D01*
X86272240Y-85510000D01*
X86446632Y-85393475D01*
X86653475Y-85186632D01*
X86815990Y-84943411D01*
X86927932Y-84673158D01*
X86985000Y-84386260D01*
X86985000Y-84093740D01*
X86927932Y-83806842D01*
X86815990Y-83536589D01*
X86653475Y-83293368D01*
X86446632Y-83086525D01*
X86272240Y-82970000D01*
X86446632Y-82853475D01*
X86653475Y-82646632D01*
X86815990Y-82403411D01*
X86927932Y-82133158D01*
X86985000Y-81846260D01*
X86985000Y-81553740D01*
X86927932Y-81266842D01*
X86815990Y-80996589D01*
X86653475Y-80753368D01*
X86446632Y-80546525D01*
X86264466Y-80424805D01*
X86381355Y-80355178D01*
X86597588Y-80160269D01*
X86771641Y-79926920D01*
X86896825Y-79664099D01*
X86941476Y-79516890D01*
X86820155Y-79287000D01*
X85627000Y-79287000D01*
X85627000Y-79307000D01*
X85373000Y-79307000D01*
X85373000Y-79287000D01*
X85353000Y-79287000D01*
X85353000Y-79033000D01*
X85373000Y-79033000D01*
X85373000Y-79013000D01*
X85627000Y-79013000D01*
X85627000Y-79033000D01*
X86820155Y-79033000D01*
X86941476Y-78803110D01*
X86896825Y-78655901D01*
X86771641Y-78393080D01*
X86671383Y-78258665D01*
X94265000Y-78258665D01*
X94265000Y-78541335D01*
X94320147Y-78818574D01*
X94428320Y-79079727D01*
X94585363Y-79314759D01*
X94785241Y-79514637D01*
X95020273Y-79671680D01*
X95281426Y-79779853D01*
X95558665Y-79835000D01*
X95841335Y-79835000D01*
X96118574Y-79779853D01*
X96379727Y-79671680D01*
X96614759Y-79514637D01*
X96814637Y-79314759D01*
X96971680Y-79079727D01*
X97079853Y-78818574D01*
X97135000Y-78541335D01*
X97135000Y-78258665D01*
X97079853Y-77981426D01*
X96971680Y-77720273D01*
X96814637Y-77485241D01*
X96614759Y-77285363D01*
X96379727Y-77128320D01*
X96118574Y-77020147D01*
X95841335Y-76965000D01*
X95558665Y-76965000D01*
X95281426Y-77020147D01*
X95020273Y-77128320D01*
X94785241Y-77285363D01*
X94585363Y-77485241D01*
X94428320Y-77720273D01*
X94320147Y-77981426D01*
X94265000Y-78258665D01*
X86671383Y-78258665D01*
X86597588Y-78159731D01*
X86381355Y-77964822D01*
X86264466Y-77895195D01*
X86446632Y-77773475D01*
X86653475Y-77566632D01*
X86815990Y-77323411D01*
X86927932Y-77053158D01*
X86985000Y-76766260D01*
X86985000Y-76473740D01*
X86927932Y-76186842D01*
X86815990Y-75916589D01*
X86653475Y-75673368D01*
X86446632Y-75466525D01*
X86272240Y-75350000D01*
X86446632Y-75233475D01*
X86653475Y-75026632D01*
X86815990Y-74783411D01*
X86927932Y-74513158D01*
X86985000Y-74226260D01*
X86985000Y-73933740D01*
X86927932Y-73646842D01*
X86815990Y-73376589D01*
X86653475Y-73133368D01*
X86446632Y-72926525D01*
X86272240Y-72810000D01*
X86446632Y-72693475D01*
X86653475Y-72486632D01*
X86815990Y-72243411D01*
X86927932Y-71973158D01*
X86985000Y-71686260D01*
X86985000Y-71393740D01*
X86927932Y-71106842D01*
X86815990Y-70836589D01*
X86653475Y-70593368D01*
X86521620Y-70461513D01*
X86594180Y-70439502D01*
X86704494Y-70380537D01*
X86801185Y-70301185D01*
X86880537Y-70204494D01*
X86939502Y-70094180D01*
X86975812Y-69974482D01*
X86988072Y-69850000D01*
X86988072Y-68150000D01*
X86975812Y-68025518D01*
X86939502Y-67905820D01*
X86880537Y-67795506D01*
X86801185Y-67698815D01*
X86704494Y-67619463D01*
X86594180Y-67560498D01*
X86474482Y-67524188D01*
X86350000Y-67511928D01*
X84650000Y-67511928D01*
X84525518Y-67524188D01*
X84405820Y-67560498D01*
X84295506Y-67619463D01*
X84198815Y-67698815D01*
X84119463Y-67795506D01*
X84060498Y-67905820D01*
X84038487Y-67978380D01*
X83906632Y-67846525D01*
X83663411Y-67684010D01*
X83393158Y-67572068D01*
X83106260Y-67515000D01*
X82813740Y-67515000D01*
X82526842Y-67572068D01*
X82256589Y-67684010D01*
X82013368Y-67846525D01*
X81806525Y-68053368D01*
X81644010Y-68296589D01*
X81532068Y-68566842D01*
X81475000Y-68853740D01*
X81185000Y-68853740D01*
X81185000Y-67098061D01*
X86865000Y-67098061D01*
X86865000Y-67301939D01*
X86904774Y-67501898D01*
X86982795Y-67690256D01*
X87096063Y-67859774D01*
X87240226Y-68003937D01*
X87409744Y-68117205D01*
X87598102Y-68195226D01*
X87798061Y-68235000D01*
X88001939Y-68235000D01*
X88201898Y-68195226D01*
X88390256Y-68117205D01*
X88559774Y-68003937D01*
X88703937Y-67859774D01*
X88817205Y-67690256D01*
X88888251Y-67518736D01*
X93344991Y-71975477D01*
X93344990Y-74167667D01*
X93341314Y-74204990D01*
X93344990Y-74242312D01*
X93344990Y-74242322D01*
X93355987Y-74353975D01*
X93367735Y-74392702D01*
X93399444Y-74497236D01*
X93470016Y-74629266D01*
X93509861Y-74677816D01*
X93564989Y-74744991D01*
X93593993Y-74768794D01*
X94765000Y-75939802D01*
X94765000Y-76001939D01*
X94804774Y-76201898D01*
X94882795Y-76390256D01*
X94996063Y-76559774D01*
X95140226Y-76703937D01*
X95309744Y-76817205D01*
X95498102Y-76895226D01*
X95698061Y-76935000D01*
X95901939Y-76935000D01*
X96101898Y-76895226D01*
X96290256Y-76817205D01*
X96459774Y-76703937D01*
X96603937Y-76559774D01*
X96717205Y-76390256D01*
X96795226Y-76201898D01*
X96835000Y-76001939D01*
X96835000Y-75798061D01*
X96795226Y-75598102D01*
X96717205Y-75409744D01*
X96603937Y-75240226D01*
X96459774Y-75096063D01*
X96290256Y-74982795D01*
X96101898Y-74904774D01*
X95901939Y-74865000D01*
X95839802Y-74865000D01*
X95809275Y-74834474D01*
X96050130Y-74798787D01*
X96316292Y-74703603D01*
X96441514Y-74636671D01*
X96513097Y-74392702D01*
X95700000Y-73579605D01*
X95685858Y-73593748D01*
X95506253Y-73414143D01*
X95520395Y-73400000D01*
X95879605Y-73400000D01*
X96692702Y-74213097D01*
X96936671Y-74141514D01*
X97057571Y-73886004D01*
X97126300Y-73611816D01*
X97140217Y-73329488D01*
X97098787Y-73049870D01*
X97003603Y-72783708D01*
X96936671Y-72658486D01*
X96692702Y-72586903D01*
X95879605Y-73400000D01*
X95520395Y-73400000D01*
X95506253Y-73385858D01*
X95685858Y-73206253D01*
X95700000Y-73220395D01*
X96513097Y-72407298D01*
X96441514Y-72163329D01*
X96186004Y-72042429D01*
X95911816Y-71973700D01*
X95629488Y-71959783D01*
X95349870Y-72001213D01*
X95083708Y-72096397D01*
X94958486Y-72163329D01*
X94886903Y-72407296D01*
X94864990Y-72385383D01*
X94864990Y-71697996D01*
X94868666Y-71660673D01*
X94864990Y-71623350D01*
X94864990Y-71623341D01*
X94853993Y-71511688D01*
X94810536Y-71368427D01*
X94739964Y-71236397D01*
X94668789Y-71149671D01*
X94644991Y-71120673D01*
X94615993Y-71096875D01*
X90919118Y-67400000D01*
X118885783Y-67400000D01*
X118922565Y-67773445D01*
X118961928Y-67903207D01*
X118961928Y-68600000D01*
X118974188Y-68724482D01*
X119010498Y-68844180D01*
X119069463Y-68954494D01*
X119148815Y-69051185D01*
X119245506Y-69130537D01*
X119355820Y-69189502D01*
X119475518Y-69225812D01*
X119600000Y-69238072D01*
X119943997Y-69238072D01*
X128417852Y-77711928D01*
X128103211Y-77711928D01*
X127973445Y-77672564D01*
X127600000Y-77635783D01*
X127226556Y-77672564D01*
X127096790Y-77711928D01*
X126400000Y-77711928D01*
X126275518Y-77724188D01*
X126155820Y-77760498D01*
X126045506Y-77819463D01*
X125948815Y-77898815D01*
X125869463Y-77995506D01*
X125810498Y-78105820D01*
X125774188Y-78225518D01*
X125761928Y-78350000D01*
X125761928Y-79046793D01*
X125722565Y-79176555D01*
X125695001Y-79456418D01*
X125695000Y-84406420D01*
X125685783Y-84500000D01*
X125695000Y-84593580D01*
X125695000Y-84593581D01*
X125722564Y-84873444D01*
X125831494Y-85232538D01*
X126008387Y-85563482D01*
X126246444Y-85853556D01*
X126319145Y-85913220D01*
X130695001Y-90289078D01*
X130695000Y-93343581D01*
X130722564Y-93623444D01*
X130831494Y-93982538D01*
X131008387Y-94313482D01*
X131246444Y-94603556D01*
X131536518Y-94841613D01*
X131867461Y-95018506D01*
X132226555Y-95127436D01*
X132600000Y-95164217D01*
X132973444Y-95127436D01*
X133332538Y-95018506D01*
X133663482Y-94841613D01*
X133953556Y-94603556D01*
X134191613Y-94313482D01*
X134368506Y-93982539D01*
X134477436Y-93623445D01*
X134505000Y-93343582D01*
X134505000Y-89593580D01*
X134514217Y-89500000D01*
X134505000Y-89406418D01*
X134477436Y-89126555D01*
X134393859Y-88851037D01*
X134368506Y-88767460D01*
X134191613Y-88436517D01*
X134013211Y-88219134D01*
X134013210Y-88219133D01*
X133953556Y-88146444D01*
X133880866Y-88086789D01*
X129505000Y-83710925D01*
X129505000Y-79456418D01*
X129477436Y-79176555D01*
X129438072Y-79046789D01*
X129438072Y-78732148D01*
X130763145Y-80057221D01*
X130831494Y-80282538D01*
X131008387Y-80613482D01*
X131246444Y-80903556D01*
X131536518Y-81141613D01*
X131867461Y-81318506D01*
X132226555Y-81427436D01*
X132600000Y-81464217D01*
X132973444Y-81427436D01*
X133332538Y-81318506D01*
X133663482Y-81141613D01*
X133953556Y-80903556D01*
X134191613Y-80613482D01*
X134368506Y-80282539D01*
X134477436Y-79923445D01*
X134505000Y-79643582D01*
X134505000Y-79293579D01*
X134514217Y-79199999D01*
X134495872Y-79013740D01*
X134477436Y-78826556D01*
X134368506Y-78467461D01*
X134239185Y-78225518D01*
X134191613Y-78136517D01*
X134111023Y-78038319D01*
X133953556Y-77846444D01*
X133880860Y-77786784D01*
X125244782Y-69150706D01*
X125494069Y-69218322D01*
X125854684Y-69243067D01*
X126213198Y-69196985D01*
X126555833Y-69081846D01*
X126778486Y-68962836D01*
X126898374Y-68677980D01*
X125800000Y-67579605D01*
X125785858Y-67593748D01*
X125606252Y-67414142D01*
X125620395Y-67400000D01*
X125979605Y-67400000D01*
X127077980Y-68498374D01*
X127362836Y-68378486D01*
X127523699Y-68054790D01*
X127618322Y-67705931D01*
X127643067Y-67345316D01*
X127596985Y-66986802D01*
X127481846Y-66644167D01*
X127362836Y-66421514D01*
X127077980Y-66301626D01*
X125979605Y-67400000D01*
X125620395Y-67400000D01*
X124522020Y-66301626D01*
X124237164Y-66421514D01*
X124076301Y-66745210D01*
X123981678Y-67094069D01*
X123956933Y-67454684D01*
X124003015Y-67813198D01*
X124051471Y-67957396D01*
X122638072Y-66543997D01*
X122638072Y-66200000D01*
X122630392Y-66122020D01*
X124701626Y-66122020D01*
X125800000Y-67220395D01*
X126898374Y-66122020D01*
X126778486Y-65837164D01*
X126454790Y-65676301D01*
X126105931Y-65581678D01*
X125745316Y-65556933D01*
X125386802Y-65603015D01*
X125044167Y-65718154D01*
X124821514Y-65837164D01*
X124701626Y-66122020D01*
X122630392Y-66122020D01*
X122625812Y-66075518D01*
X122589502Y-65955820D01*
X122530537Y-65845506D01*
X122451185Y-65748815D01*
X122354494Y-65669463D01*
X122244180Y-65610498D01*
X122124482Y-65574188D01*
X122000000Y-65561928D01*
X121303207Y-65561928D01*
X121173445Y-65522565D01*
X120800000Y-65485783D01*
X120426555Y-65522565D01*
X120296793Y-65561928D01*
X119600000Y-65561928D01*
X119475518Y-65574188D01*
X119355820Y-65610498D01*
X119245506Y-65669463D01*
X119148815Y-65748815D01*
X119069463Y-65845506D01*
X119010498Y-65955820D01*
X118974188Y-66075518D01*
X118961928Y-66200000D01*
X118961928Y-66896793D01*
X118922565Y-67026555D01*
X118885783Y-67400000D01*
X90919118Y-67400000D01*
X88564991Y-65045874D01*
X88564991Y-64354126D01*
X89054127Y-63864991D01*
X89745874Y-63864991D01*
X91791885Y-65911003D01*
X91815683Y-65940001D01*
X91931408Y-66034974D01*
X92063437Y-66105546D01*
X92206698Y-66149003D01*
X92318351Y-66160000D01*
X92318361Y-66160000D01*
X92355684Y-66163676D01*
X92393007Y-66160000D01*
X96096289Y-66160000D01*
X96140226Y-66203937D01*
X96309744Y-66317205D01*
X96498102Y-66395226D01*
X96698061Y-66435000D01*
X96901939Y-66435000D01*
X97101898Y-66395226D01*
X97290256Y-66317205D01*
X97459774Y-66203937D01*
X97603937Y-66059774D01*
X97717205Y-65890256D01*
X97795226Y-65701898D01*
X97835000Y-65501939D01*
X97835000Y-65298061D01*
X97795226Y-65098102D01*
X97717205Y-64909744D01*
X97603937Y-64740226D01*
X97459774Y-64596063D01*
X97290256Y-64482795D01*
X97101898Y-64404774D01*
X96901939Y-64365000D01*
X96698061Y-64365000D01*
X96498102Y-64404774D01*
X96309744Y-64482795D01*
X96140226Y-64596063D01*
X96096289Y-64640000D01*
X92670486Y-64640000D01*
X91962518Y-63932032D01*
X131220000Y-63932032D01*
X131220000Y-64327968D01*
X131297243Y-64716296D01*
X131448761Y-65082092D01*
X131668731Y-65411301D01*
X131948699Y-65691269D01*
X132277908Y-65911239D01*
X132643704Y-66062757D01*
X133032032Y-66140000D01*
X133427968Y-66140000D01*
X133816296Y-66062757D01*
X134182092Y-65911239D01*
X134511301Y-65691269D01*
X134791269Y-65411301D01*
X135011239Y-65082092D01*
X135162757Y-64716296D01*
X135240000Y-64327968D01*
X135240000Y-63932032D01*
X135162757Y-63543704D01*
X135011239Y-63177908D01*
X134791269Y-62848699D01*
X134511301Y-62568731D01*
X134182092Y-62348761D01*
X133816296Y-62197243D01*
X133427968Y-62120000D01*
X133032032Y-62120000D01*
X132643704Y-62197243D01*
X132277908Y-62348761D01*
X131948699Y-62568731D01*
X131668731Y-62848699D01*
X131448761Y-63177908D01*
X131297243Y-63543704D01*
X131220000Y-63932032D01*
X91962518Y-63932032D01*
X90624479Y-62593994D01*
X90600676Y-62564990D01*
X90484951Y-62470017D01*
X90352922Y-62399445D01*
X90209661Y-62355988D01*
X90098008Y-62344991D01*
X90097997Y-62344991D01*
X90060675Y-62341315D01*
X90023353Y-62344991D01*
X88776648Y-62344991D01*
X88739325Y-62341315D01*
X88702002Y-62344991D01*
X88701992Y-62344991D01*
X88590339Y-62355988D01*
X88447078Y-62399445D01*
X88315049Y-62470017D01*
X88199324Y-62564990D01*
X88175526Y-62593988D01*
X87293989Y-63475526D01*
X87264991Y-63499324D01*
X87241193Y-63528322D01*
X87241192Y-63528323D01*
X87170017Y-63615049D01*
X87099445Y-63747079D01*
X87055989Y-63890340D01*
X87041315Y-64039325D01*
X87044992Y-64076657D01*
X87044991Y-65323352D01*
X87041315Y-65360675D01*
X87044991Y-65397997D01*
X87044991Y-65398007D01*
X87055988Y-65509660D01*
X87092946Y-65631495D01*
X87099445Y-65652921D01*
X87170017Y-65784951D01*
X87189251Y-65808387D01*
X87264990Y-65900676D01*
X87293994Y-65924479D01*
X87581264Y-66211749D01*
X87409744Y-66282795D01*
X87240226Y-66396063D01*
X87096063Y-66540226D01*
X86982795Y-66709744D01*
X86904774Y-66898102D01*
X86865000Y-67098061D01*
X81185000Y-67098061D01*
X81185000Y-63932032D01*
X82220000Y-63932032D01*
X82220000Y-64327968D01*
X82297243Y-64716296D01*
X82448761Y-65082092D01*
X82668731Y-65411301D01*
X82948699Y-65691269D01*
X83277908Y-65911239D01*
X83643704Y-66062757D01*
X84032032Y-66140000D01*
X84427968Y-66140000D01*
X84816296Y-66062757D01*
X85182092Y-65911239D01*
X85511301Y-65691269D01*
X85791269Y-65411301D01*
X86011239Y-65082092D01*
X86162757Y-64716296D01*
X86240000Y-64327968D01*
X86240000Y-63932032D01*
X86162757Y-63543704D01*
X86011239Y-63177908D01*
X85791269Y-62848699D01*
X85511301Y-62568731D01*
X85182092Y-62348761D01*
X84816296Y-62197243D01*
X84427968Y-62120000D01*
X84032032Y-62120000D01*
X83643704Y-62197243D01*
X83277908Y-62348761D01*
X82948699Y-62568731D01*
X82668731Y-62848699D01*
X82448761Y-63177908D01*
X82297243Y-63543704D01*
X82220000Y-63932032D01*
X81185000Y-63932032D01*
X81185000Y-61185000D01*
X136315001Y-61185000D01*
X136315000Y-125315000D01*
%TD*%
M02*
