0
SECTION
2
HEADER
9
$INSUNITS
70
4
9
$ACADVER
1
AC1014
9
$HANDSEED
5
FFFF
0
ENDSEC
0
SECTION
2
TABLES
0
TABLE
2
VPORT
5
8
100
AcDbSymbolTable
0
ENDTAB
0
TABLE
2
LTYPE
5
5
100
AcDbSymbolTable
0
LTYPE
5
14
100
AcDbSymbolTableRecord
100
AcDbLinetypeTableRecord
2
BYBLOCK
70
0
0
LTYPE
5
15
100
AcDbSymbolTableRecord
100
AcDbLinetypeTableRecord
2
BYLAYER
70
0
0
ENDTAB
0
TABLE
2
LAYER
5
2
100
AcDbSymbolTable
70
2
0
LAYER
5
50
100
AcDbSymbolTableRecord
100
AcDbLayerTableRecord
2
0
70
0
6
CONTINUOUS
0
ENDTAB
0
TABLE
2
STYLE
5
3
100
AcDbSymbolTable
70
1
0
STYLE
5
11
100
AcDbSymbolTableRecord
100
AcDbTextStyleTableRecord
2
STANDARD
70
0
0
ENDTAB
0
TABLE
2
VIEW
5
6
100
AcDbSymbolTable
70
0
0
ENDTAB
0
TABLE
2
UCS
5
7
100
AcDbSymbolTable
70
0
0
ENDTAB
0
TABLE
2
APPID
5
9
100
AcDbSymbolTable
70
2
0
APPID
5
12
100
AcDbSymbolTableRecord
100
AcDbRegAppTableRecord
2
ACAD
70
0
0
ENDTAB
0
TABLE
2
DIMSTYLE
5
A
100
AcDbSymbolTable
70
1
0
ENDTAB
0
TABLE
2
BLOCK_RECORD
5
1
100
AcDbSymbolTable
70
1
0
BLOCK_RECORD
5
1F
100
AcDbSymbolTableRecord
100
AcDbBlockTableRecord
2
*MODEL_SPACE
0
BLOCK_RECORD
5
1B
100
AcDbSymbolTableRecord
100
AcDbBlockTableRecord
2
*PAPER_SPACE
0
ENDTAB
0
ENDSEC
0
SECTION
2
BLOCKS
0
BLOCK
5
20
100
AcDbEntity
100
AcDbBlockBegin
2
*MODEL_SPACE
0
ENDBLK
5
21
100
AcDbEntity
100
AcDbBlockEnd
0
BLOCK
5
1C
100
AcDbEntity
100
AcDbBlockBegin
2
*PAPER_SPACE
0
ENDBLK
5
1D
100
AcDbEntity
100
AcDbBlockEnd
0
ENDSEC
0
SECTION
2
ENTITIES
0
LWPOLYLINE
5
100
100
AcDbEntity
8
0
100
AcDbPolyline
90
4
70
1
43
0.0
10
25.8256930691606
20
-203.03371469326973
10
25.8256930691606
20
-208.73371469326975
10
46.025693069160603
20
-208.73371469326975
10
46.025693069160603
20
-203.03371469326973
0
LWPOLYLINE
5
101
100
AcDbEntity
8
0
100
AcDbPolyline
90
4
70
1
43
0.0
10
12.825662089178163
20
-326.43311845044371
10
12.825662089178159
20
-332.1331184504437
10
43.025662089178162
20
-332.1331184504437
10
43.025662089178184
20
-326.43311845044371
0
CIRCLE
5
102
100
AcDbEntity
8
0
100
AcDbCircle
10
28.777613710177427
20
-215.94687520745333
30
0
40
1.6000000000000061
210
3.0814879110195774e-33
220
5.3455294201843907e-51
230
1
0
CIRCLE
5
103
100
AcDbEntity
8
0
100
AcDbCircle
10
28.776710465479066
20
-292.11914714715675
30
0
40
1.5999999999999972
210
-3.0814879110195774e-33
220
-5.3455294201843907e-51
230
1
0
CIRCLE
5
104
100
AcDbEntity
8
0
100
AcDbCircle
10
7.9256620891781342
20
-321.53311845044368
30
0
40
1.5999999999999772
210
0
220
-0
230
1
0
CIRCLE
5
105
100
AcDbEntity
8
0
100
AcDbCircle
10
7.9256620891781111
20
-186.53311845044371
30
0
40
1.5999999999999839
210
0
220
-0
230
1
0
CIRCLE
5
106
100
AcDbEntity
8
0
100
AcDbCircle
10
47.925662089178125
20
-186.53311845044371
30
0
40
1.6000000000000016
210
3.0814879110195774e-33
220
-3.0814879110195774e-33
230
1
0
CIRCLE
5
107
100
AcDbEntity
8
0
100
AcDbCircle
10
47.925662089178125
20
-321.53311845044368
30
0
40
1.6000000000000016
210
3.0814879110195774e-33
220
-3.0814879110195774e-33
230
1
0
CIRCLE
5
108
100
AcDbEntity
8
0
100
AcDbCircle
10
25.475458541990051
20
-280.03309612368577
30
0
40
1.4999999999999993
210
0
220
-0
230
1
0
CIRCLE
5
109
100
AcDbEntity
8
0
100
AcDbCircle
10
16.507707843399281
20
-308.03311845841381
30
0
40
1.6000000000000016
210
-3.0814879110195774e-33
220
-3.0814879110195774e-33
230
1
0
CIRCLE
5
110
100
AcDbEntity
8
0
100
AcDbCircle
10
49.475458541990051
20
-256.0330961236856
30
0
40
1.6000000000000016
210
-3.0814879110195774e-33
220
-3.0814879110195774e-33
230
1
0
CIRCLE
5
111
100
AcDbEntity
8
0
100
AcDbCircle
10
25.475458541990047
20
-249.03309612368577
30
0
40
1.4999999999999993
210
0
220
-0
230
1
0
CIRCLE
5
112
100
AcDbEntity
8
0
100
AcDbCircle
10
49.475458541990051
20
-280.0330961236856
30
0
40
1.6000000000000016
210
-3.0814879110195774e-33
220
-3.0814879110195774e-33
230
1
0
CIRCLE
5
113
100
AcDbEntity
8
0
100
AcDbCircle
10
25.475458541990058
20
-256.03309612368571
30
0
40
1.4999999999999993
210
0
220
-0
230
1
0
CIRCLE
5
114
100
AcDbEntity
8
0
100
AcDbCircle
10
16.507707843399245
20
-218.03311845841387
30
0
40
1.6000000000000016
210
-3.0814879110195774e-33
220
-3.0814879110195774e-33
230
1
0
CIRCLE
5
115
100
AcDbEntity
8
0
100
AcDbCircle
10
49.475458541990058
20
-225.0330961236856
30
0
40
1.6000000000000016
210
-3.0814879110195774e-33
220
-3.0814879110195774e-33
230
1
0
CIRCLE
5
116
100
AcDbEntity
8
0
100
AcDbCircle
10
25.475458541990072
20
-225.0330961236856
30
0
40
1.5999999999999972
210
-3.0814879110195774e-33
220
-5.3455294201843907e-51
230
1
0
CIRCLE
5
117
100
AcDbEntity
8
0
100
AcDbCircle
10
37.475458541990058
20
-268.0330961236856
30
0
40
14.499999999999991
210
0
220
-0
230
1
0
CIRCLE
5
118
100
AcDbEntity
8
0
100
AcDbCircle
10
37.475458541990065
20
-237.0330961236856
30
0
40
14.499999999999995
210
-3.0814879110195774e-33
220
-5.3455294201843907e-51
230
1
0
CIRCLE
5
119
100
AcDbEntity
8
0
100
AcDbCircle
10
49.475458541990058
20
-249.0330961236856
30
0
40
1.6000000000000016
210
-3.0814879110195774e-33
220
-3.0814879110195774e-33
230
1
0
LWPOLYLINE
5
120
100
AcDbEntity
8
0
100
AcDbPolyline
90
26
70
1
43
0.0
10
50.925458541990409
20
-213.36751945044364
10
52.925458541990416
20
-213.36751945044364
10
52.925458541990409
20
-300.04811845841391
10
58.425865636365906
20
-300.04811845841391
10
58.425865636365906
20
-308.69911845841392
10
52.925458541990409
20
-308.69911845841392
10
52.925458541990409
20
-337.03357362438516
10
2.9258656363659021
20
-337.03357362438521
10
2.9258656363659012
20
-308.69911845841392
10
-2.5741343636341001
20
-308.69911845841392
10
-2.5741343636341005
20
-300.04811845841391
10
4.9258656363659012
20
-300.04811845841391
10
4.9258656363659012
20
-286.04811845841391
10
2.9258656363659004
20
-286.04811845841391
10
2.925865636365899
20
-213.36751945044364
10
4.9258656363658995
20
-213.36751945044364
10
4.9258656363658995
20
-199.36751945044364
10
-2.5741343636341023
20
-199.36751945044364
10
-2.5741343636341023
20
-190.71651945044363
10
2.925865636365899
20
-190.71651945044363
10
2.9258656363658986
20
-176.03311845044371
10
52.925458541990402
20
-176.03311845044371
10
52.925458541990409
20
-190.71651945044363
10
58.425865636365913
20
-190.71651945044366
10
58.425865636365913
20
-199.36751945044361
10
50.925458541990409
20
-199.36751945044364
0
ENDSEC
0
SECTION
2
OBJECTS
0
DICTIONARY
5
C
100
AcDbDictionary
3
ACAD_GROUP
350
D
3
ACAD_MLINESTYLE
350
17
0
DICTIONARY
5
D
100
AcDbDictionary
0
DICTIONARY
5
1A
330
C
100
AcDbDictionary
0
DICTIONARY
5
17
100
AcDbDictionary
0
ENDSEC
0
EOF
