0
SECTION
2
HEADER
9
$INSUNITS
70
4
9
$ACADVER
1
AC1014
9
$HANDSEED
5
FFFF
0
ENDSEC
0
SECTION
2
TABLES
0
TABLE
2
VPORT
5
8
100
AcDbSymbolTable
0
ENDTAB
0
TABLE
2
LTYPE
5
5
100
AcDbSymbolTable
0
LTYPE
5
14
100
AcDbSymbolTableRecord
100
AcDbLinetypeTableRecord
2
BYBLOCK
70
0
0
LTYPE
5
15
100
AcDbSymbolTableRecord
100
AcDbLinetypeTableRecord
2
BYLAYER
70
0
0
ENDTAB
0
TABLE
2
LAYER
5
2
100
AcDbSymbolTable
70
2
0
LAYER
5
50
100
AcDbSymbolTableRecord
100
AcDbLayerTableRecord
2
0
70
0
6
CONTINUOUS
0
ENDTAB
0
TABLE
2
STYLE
5
3
100
AcDbSymbolTable
70
1
0
STYLE
5
11
100
AcDbSymbolTableRecord
100
AcDbTextStyleTableRecord
2
STANDARD
70
0
0
ENDTAB
0
TABLE
2
VIEW
5
6
100
AcDbSymbolTable
70
0
0
ENDTAB
0
TABLE
2
UCS
5
7
100
AcDbSymbolTable
70
0
0
ENDTAB
0
TABLE
2
APPID
5
9
100
AcDbSymbolTable
70
2
0
APPID
5
12
100
AcDbSymbolTableRecord
100
AcDbRegAppTableRecord
2
ACAD
70
0
0
ENDTAB
0
TABLE
2
DIMSTYLE
5
A
100
AcDbSymbolTable
70
1
0
ENDTAB
0
TABLE
2
BLOCK_RECORD
5
1
100
AcDbSymbolTable
70
1
0
BLOCK_RECORD
5
1F
100
AcDbSymbolTableRecord
100
AcDbBlockTableRecord
2
*MODEL_SPACE
0
BLOCK_RECORD
5
1B
100
AcDbSymbolTableRecord
100
AcDbBlockTableRecord
2
*PAPER_SPACE
0
ENDTAB
0
ENDSEC
0
SECTION
2
BLOCKS
0
BLOCK
5
20
100
AcDbEntity
100
AcDbBlockBegin
2
*MODEL_SPACE
0
ENDBLK
5
21
100
AcDbEntity
100
AcDbBlockEnd
0
BLOCK
5
1C
100
AcDbEntity
100
AcDbBlockBegin
2
*PAPER_SPACE
0
ENDBLK
5
1D
100
AcDbEntity
100
AcDbBlockEnd
0
ENDSEC
0
SECTION
2
ENTITIES
0
LWPOLYLINE
5
100
100
AcDbEntity
8
0
100
AcDbPolyline
90
14
70
1
43
0.0
10
326.43311845044377
20
37.084748874936238
10
326.43311845044377
20
27.084748874936238
10
332.1331184504437
20
27.084748874936238
10
332.1331184504437
20
37.084748874936238
10
337.03357362438516
20
37.084748874936238
10
337.03357362438521
20
-43.915258142699273
10
317.03349326139454
20
-43.915258142699294
10
312.03349326139454
20
-33.915258142699287
10
196.03349326139454
20
-33.915258142699287
10
191.03349326139454
20
-43.915258142699287
10
171.03341289840387
20
-43.915258142699273
10
171.03341289840387
20
49.834452280336343
10
187.17236820520824
20
49.834452280336343
10
194.53341289840387
20
37.084748874936245
0
LWPOLYLINE
5
101
100
AcDbEntity
8
0
100
AcDbPolyline
90
4
70
1
43
0.0
10
175.93311845044369
20
13.234903784267853
10
181.63311845044373
20
13.23490378426785
10
181.63311845044373
20
23.434903784267856
10
175.93311845044369
20
23.43490378426786
0
LWPOLYLINE
5
102
100
AcDbEntity
8
0
100
AcDbPolyline
90
4
70
1
43
0.0
10
299.94811845841389
20
-29.015258142699277
10
308.79911845841394
20
-29.015258142699277
10
308.79911845841394
20
-23.315258142699285
10
299.94811845841389
20
-23.315258142699285
0
LWPOLYLINE
5
103
100
AcDbEntity
8
0
100
AcDbPolyline
90
4
70
1
43
0.0
10
175.93311845044369
20
-8.0650962157321455
10
175.93311845044369
20
-18.265096215732147
10
181.63311845044373
20
-18.265096215732143
10
181.63311845044373
20
-8.0650962157321455
0
LWPOLYLINE
5
104
100
AcDbEntity
8
0
100
AcDbPolyline
90
4
70
1
43
0.0
10
190.61651945044363
20
-29.015258142699277
10
199.46751945044366
20
-29.015258142699277
10
199.46751945044366
20
-23.315258142699285
10
190.6165194504436
20
-23.315258142699275
0
CIRCLE
5
105
100
AcDbEntity
8
0
100
AcDbCircle
10
314.71651945044363
20
-7.4152581426985877
30
0
40
1.4999999999999858
210
-1.9259299443875472e-34
220
3.0814879110195774e-33
230
1
0
CIRCLE
5
106
100
AcDbEntity
8
0
100
AcDbCircle
10
194.71651945044354
20
-7.4152581426993365
30
0
40
1.4999999999999858
210
-1.9259299443875472e-34
220
3.0814879110195774e-33
230
1
0
LWPOLYLINE
5
107
100
AcDbEntity
8
0
100
AcDbPolyline
90
8
70
1
43
0.0
10
203.53311845044371
20
-6.9149342887650311
42
-0.41421356237307388
10
204.53311845044371
20
-5.914934288765032
10
207.53311845044368
20
-5.9149342887650196
42
-0.41421356237307361
10
208.53311845044371
20
-6.9149342887650311
10
208.53311845044371
20
-17.415096215732163
42
-0.41421356237307422
10
207.53311845044368
20
-18.415096215732163
10
204.53311845044371
20
-18.415096215732177
42
-0.41421356237307422
10
203.53311845044371
20
-17.415096215732163
0
LWPOLYLINE
5
108
100
AcDbEntity
8
0
100
AcDbPolyline
90
8
70
1
43
0.0
10
211.53311845044368
20
-6.9149342887650302
42
-0.41421356237310542
10
212.53311845044374
20
-5.9149342887650311
10
215.53311845044368
20
-5.9149342887650516
42
-0.41421356237310542
10
216.53311845044371
20
-6.9149342887650311
10
216.53311845044374
20
-17.415096215732163
42
-0.41421356237310414
10
215.53311845044368
20
-18.415096215732159
10
212.53311845044374
20
-18.415096215732135
42
-0.4142135623731048
10
211.53311845044371
20
-17.415096215732159
0
LWPOLYLINE
5
109
100
AcDbEntity
8
0
100
AcDbPolyline
90
8
70
1
43
0.0
10
219.53311845044371
20
-6.9149342887650285
42
-0.41421356237307388
10
220.53311845044374
20
-5.9149342887650302
10
223.53311845044371
20
-5.9149342887650169
42
-0.41421356237307361
10
224.53311845044371
20
-6.9149342887650285
10
224.53311845044371
20
-17.415096215732156
42
-0.41421356237307422
10
223.53311845044371
20
-18.415096215732159
10
220.53311845044374
20
-18.41509621573217
42
-0.41421356237307422
10
219.53311845044371
20
-17.415096215732156
0
LWPOLYLINE
5
110
100
AcDbEntity
8
0
100
AcDbPolyline
90
8
70
1
43
0.0
10
227.53311845044368
20
-6.9149342887650276
42
-0.41421356237310542
10
228.53311845044374
20
-5.9149342887650294
10
231.53311845044371
20
-5.9149342887650489
42
-0.41421356237310542
10
232.53311845044374
20
-6.9149342887650267
10
232.53311845044377
20
-17.415096215732156
42
-0.41421356237310542
10
231.53311845044371
20
-18.415096215732159
10
228.53311845044374
20
-18.415096215732135
42
-0.41421356237310542
10
227.53311845044374
20
-17.415096215732156
0
LWPOLYLINE
5
111
100
AcDbEntity
8
0
100
AcDbPolyline
90
8
70
1
43
0.0
10
235.53311845044365
20
-6.9149342887650258
42
-0.41421356237310542
10
236.53311845044371
20
-5.9149342887650267
10
239.53311845044368
20
-5.9149342887650471
42
-0.41421356237310542
10
240.53311845044368
20
-6.9149342887650267
10
240.53311845044374
20
-17.415096215732156
42
-0.41421356237310414
10
239.53311845044368
20
-18.415096215732156
10
236.53311845044371
20
-18.415096215732131
42
-0.4142135623731048
10
235.53311845044368
20
-17.415096215732156
0
LWPOLYLINE
5
112
100
AcDbEntity
8
0
100
AcDbPolyline
90
8
70
1
43
0.0
10
243.53311845044371
20
-6.9149342887650249
42
-0.41421356237307388
10
244.53311845044371
20
-5.9149342887650258
10
247.53311845044368
20
-5.9149342887650125
42
-0.41421356237307361
10
248.53311845044371
20
-6.9149342887650249
10
248.53311845044371
20
-17.415096215732156
42
-0.41421356237307361
10
247.53311845044368
20
-18.415096215732156
10
244.53311845044371
20
-18.415096215732166
42
-0.41421356237307361
10
243.53311845044371
20
-17.415096215732156
0
LWPOLYLINE
5
113
100
AcDbEntity
8
0
100
AcDbPolyline
90
8
70
1
43
0.0
10
203.53311845044371
20
10.585065711234968
42
-0.41421356237307422
10
204.53311845044371
20
11.58506571123497
10
207.53311845044368
20
11.585065711234982
42
-0.41421356237307422
10
208.53311845044371
20
10.585065711234968
10
208.53311845044371
20
0.08490378426783797
42
-0.41421356237307438
10
207.53311845044368
20
-0.91509621573216315
10
204.53311845044371
20
-0.91509621573217681
42
-0.41421356237307405
10
203.53311845044371
20
0.084903784267837956
0
LWPOLYLINE
5
114
100
AcDbEntity
8
0
100
AcDbPolyline
90
8
70
1
43
0.0
10
211.53311845044368
20
10.585065711234972
42
-0.41421356237310542
10
212.53311845044374
20
11.58506571123497
10
215.53311845044368
20
11.58506571123495
42
-0.41421356237310542
10
216.53311845044371
20
10.585065711234972
10
216.53311845044374
20
0.084903784267840246
42
-0.41421356237310586
10
215.53311845044368
20
-0.91509621573216182
10
212.53311845044374
20
-0.91509621573214006
42
-0.41421356237310536
10
211.53311845044371
20
0.084903784267837956
0
LWPOLYLINE
5
115
100
AcDbEntity
8
0
100
AcDbPolyline
90
8
70
1
43
0.0
10
299.53311845044374
20
-6.9149342887650231
42
-0.41421356237307422
10
300.53311845044374
20
-5.9149342887650249
10
303.53311845044368
20
-5.9149342887650089
42
-0.41421356237307422
10
304.53311845044374
20
-6.9149342887650223
10
304.53311845044374
20
-17.415096215732152
42
-0.41421356237307422
10
303.53311845044368
20
-18.415096215732156
10
300.53311845044374
20
-18.415096215732166
42
-0.41421356237307422
10
299.53311845044374
20
-17.415096215732152
0
LWPOLYLINE
5
116
100
AcDbEntity
8
0
100
AcDbPolyline
90
8
70
1
43
0.0
10
291.53311845044368
20
-6.9149342887650231
42
-0.41421356237310542
10
292.53311845044374
20
-5.9149342887650249
10
295.53311845044368
20
-5.9149342887650445
42
-0.41421356237310542
10
296.53311845044368
20
-6.9149342887650223
10
296.53311845044374
20
-17.415096215732152
42
-0.41421356237310542
10
295.53311845044368
20
-18.415096215732156
10
292.53311845044374
20
-18.415096215732131
42
-0.41421356237310542
10
291.53311845044368
20
-17.415096215732152
0
LWPOLYLINE
5
117
100
AcDbEntity
8
0
100
AcDbPolyline
90
8
70
1
43
0.0
10
283.53311845044368
20
-6.9149342887650231
42
-0.41421356237310542
10
284.53311845044374
20
-5.9149342887650249
10
287.53311845044374
20
-5.9149342887650445
42
-0.41421356237310542
10
288.53311845044374
20
-6.9149342887650223
10
288.53311845044379
20
-17.415096215732152
42
-0.41421356237310542
10
287.53311845044374
20
-18.415096215732156
10
284.53311845044374
20
-18.415096215732131
42
-0.41421356237310542
10
283.53311845044374
20
-17.415096215732152
0
LWPOLYLINE
5
118
100
AcDbEntity
8
0
100
AcDbPolyline
90
8
70
1
43
0.0
10
275.53311845044374
20
-6.9149342887650231
42
-0.41421356237307422
10
276.53311845044374
20
-5.9149342887650249
10
279.53311845044374
20
-5.9149342887650089
42
-0.41421356237307422
10
280.53311845044374
20
-6.9149342887650223
10
280.53311845044374
20
-17.415096215732152
42
-0.41421356237307422
10
279.53311845044374
20
-18.415096215732156
10
276.53311845044374
20
-18.415096215732166
42
-0.41421356237307422
10
275.53311845044374
20
-17.415096215732152
0
LWPOLYLINE
5
119
100
AcDbEntity
8
0
100
AcDbPolyline
90
8
70
1
43
0.0
10
299.53311845044374
20
10.585065711234979
42
-0.41421356237307422
10
300.53311845044374
20
11.585065711234979
10
303.53311845044368
20
11.585065711234993
42
-0.41421356237307422
10
304.53311845044374
20
10.585065711234979
10
304.53311845044374
20
0.084903784267846907
42
-0.41421356237307461
10
303.53311845044368
20
-0.91509621573215516
10
300.53311845044374
20
-0.91509621573216871
42
-0.41421356237307405
10
299.53311845044374
20
0.084903784267844618
0
LWPOLYLINE
5
120
100
AcDbEntity
8
0
100
AcDbPolyline
90
8
70
1
43
0.0
10
291.53311845044368
20
10.585065711234979
42
-0.41421356237310542
10
292.53311845044374
20
11.585065711234979
10
295.53311845044368
20
11.585065711234957
42
-0.41421356237310542
10
296.53311845044368
20
10.585065711234979
10
296.53311845044374
20
0.084903784267846907
42
-0.41421356237310586
10
295.53311845044368
20
-0.91509621573215516
10
292.53311845044374
20
-0.9150962157321334
42
-0.41421356237310536
10
291.53311845044368
20
0.084903784267844618
0
LWPOLYLINE
5
121
100
AcDbEntity
8
0
100
AcDbPolyline
90
8
70
1
43
0.0
10
267.53311845044368
20
-6.9149342887650231
42
-0.41421356237310542
10
268.53311845044374
20
-5.9149342887650249
10
271.53311845044368
20
-5.9149342887650445
42
-0.41421356237310542
10
272.53311845044374
20
-6.9149342887650223
10
272.53311845044374
20
-17.415096215732152
42
-0.41421356237310542
10
271.53311845044368
20
-18.415096215732156
10
268.53311845044374
20
-18.415096215732131
42
-0.41421356237310542
10
267.53311845044374
20
-17.415096215732152
0
LWPOLYLINE
5
122
100
AcDbEntity
8
0
100
AcDbPolyline
90
8
70
1
43
0.0
10
259.53311845044374
20
-6.9149342887650231
42
-0.41421356237307422
10
260.53311845044374
20
-5.9149342887650249
10
263.53311845044368
20
-5.9149342887650089
42
-0.41421356237307422
10
264.53311845044374
20
-6.9149342887650223
10
264.53311845044374
20
-17.415096215732152
42
-0.41421356237307422
10
263.53311845044368
20
-18.415096215732156
10
260.53311845044374
20
-18.415096215732166
42
-0.41421356237307422
10
259.53311845044374
20
-17.415096215732152
0
LWPOLYLINE
5
123
100
AcDbEntity
8
0
100
AcDbPolyline
90
8
70
1
43
0.0
10
251.53311845044368
20
-6.9149342887650231
42
-0.41421356237310542
10
252.53311845044374
20
-5.9149342887650249
10
255.53311845044368
20
-5.9149342887650445
42
-0.41421356237310542
10
256.53311845044368
20
-6.9149342887650223
10
256.53311845044374
20
-17.415096215732152
42
-0.41421356237310542
10
255.53311845044368
20
-18.415096215732156
10
252.53311845044374
20
-18.415096215732131
42
-0.41421356237310542
10
251.53311845044371
20
-17.415096215732152
0
CIRCLE
5
124
100
AcDbEntity
8
0
100
AcDbCircle
10
269.48309612368558
20
11.584741691726681
30
0
40
14.499999999999993
210
-5.1279743990554554e-36
220
-1.5407439555097887e-33
230
1
0
CIRCLE
5
125
100
AcDbEntity
8
0
100
AcDbCircle
10
250.48309612368584
20
23.584741691726649
30
0
40
1.6000000000000014
210
-1.9772096883777904e-34
220
7.3001294579689695e-53
230
1
0
CIRCLE
5
126
100
AcDbEntity
8
0
100
AcDbCircle
10
238.48309612368581
20
11.584741691726689
30
0
40
14.499999999999957
210
-5.1279743990554547e-36
220
-3.0814879110195774e-33
230
1
0
CIRCLE
5
127
100
AcDbEntity
8
0
100
AcDbCircle
10
257.48309612368593
20
23.584741691726649
30
0
40
1.6000000000000014
210
-1.9772096883777904e-34
220
7.3001294579689695e-53
230
1
0
CIRCLE
5
128
100
AcDbEntity
8
0
100
AcDbCircle
10
250.48309612368587
20
-0.41525830827327015
30
0
40
1.6000000000000014
210
-1.9772096883777904e-34
220
7.3001294579689695e-53
230
1
0
CIRCLE
5
129
100
AcDbEntity
8
0
100
AcDbCircle
10
257.48309612368598
20
-0.41525830827329568
30
0
40
1.6000000000000014
210
-1.9772096883777904e-34
220
7.3001294579689695e-53
230
1
0
CIRCLE
5
130
100
AcDbEntity
8
0
100
AcDbCircle
10
226.48309612368598
20
-0.41525830827329235
30
0
40
1.6000000000000014
210
-1.9772096883777904e-34
220
7.3001294579689695e-53
230
1
0
CIRCLE
5
131
100
AcDbEntity
8
0
100
AcDbCircle
10
226.48309612368598
20
23.584741691726659
30
0
40
1.6000000000000014
210
-1.9772096883777904e-34
220
7.3001294579689695e-53
230
1
0
CIRCLE
5
132
100
AcDbEntity
8
0
100
AcDbCircle
10
281.48309612368581
20
23.584741691726645
30
0
40
1.6000000000000014
210
-1.9772096883777904e-34
220
7.3001294579689695e-53
230
1
0
CIRCLE
5
133
100
AcDbEntity
8
0
100
AcDbCircle
10
281.48309612368593
20
-0.41525830827329124
30
0
40
1.6000000000000014
210
-1.9772096883777904e-34
220
7.3001294579689695e-53
230
1
0
CIRCLE
5
134
100
AcDbEntity
8
0
100
AcDbCircle
10
180.78311845044368
20
39.834452280336336
30
0
40
4.0000000000000036
210
-5.1279743990554554e-36
220
1.8933185079104608e-54
230
1
0
ENDSEC
0
SECTION
2
OBJECTS
0
DICTIONARY
5
C
100
AcDbDictionary
3
ACAD_GROUP
350
D
3
ACAD_MLINESTYLE
350
17
0
DICTIONARY
5
D
100
AcDbDictionary
0
DICTIONARY
5
1A
330
C
100
AcDbDictionary
0
DICTIONARY
5
17
100
AcDbDictionary
0
ENDSEC
0
EOF
