0
SECTION
2
HEADER
9
$INSUNITS
70
4
9
$ACADVER
1
AC1014
9
$HANDSEED
5
FFFF
0
ENDSEC
0
SECTION
2
TABLES
0
TABLE
2
VPORT
5
8
100
AcDbSymbolTable
0
ENDTAB
0
TABLE
2
LTYPE
5
5
100
AcDbSymbolTable
0
LTYPE
5
14
100
AcDbSymbolTableRecord
100
AcDbLinetypeTableRecord
2
BYBLOCK
70
0
0
LTYPE
5
15
100
AcDbSymbolTableRecord
100
AcDbLinetypeTableRecord
2
BYLAYER
70
0
0
ENDTAB
0
TABLE
2
LAYER
5
2
100
AcDbSymbolTable
70
2
0
LAYER
5
50
100
AcDbSymbolTableRecord
100
AcDbLayerTableRecord
2
0
70
0
6
CONTINUOUS
0
ENDTAB
0
TABLE
2
STYLE
5
3
100
AcDbSymbolTable
70
1
0
STYLE
5
11
100
AcDbSymbolTableRecord
100
AcDbTextStyleTableRecord
2
STANDARD
70
0
0
ENDTAB
0
TABLE
2
VIEW
5
6
100
AcDbSymbolTable
70
0
0
ENDTAB
0
TABLE
2
UCS
5
7
100
AcDbSymbolTable
70
0
0
ENDTAB
0
TABLE
2
APPID
5
9
100
AcDbSymbolTable
70
2
0
APPID
5
12
100
AcDbSymbolTableRecord
100
AcDbRegAppTableRecord
2
ACAD
70
0
0
ENDTAB
0
TABLE
2
DIMSTYLE
5
A
100
AcDbSymbolTable
70
1
0
ENDTAB
0
TABLE
2
BLOCK_RECORD
5
1
100
AcDbSymbolTable
70
1
0
BLOCK_RECORD
5
1F
100
AcDbSymbolTableRecord
100
AcDbBlockTableRecord
2
*MODEL_SPACE
0
BLOCK_RECORD
5
1B
100
AcDbSymbolTableRecord
100
AcDbBlockTableRecord
2
*PAPER_SPACE
0
ENDTAB
0
ENDSEC
0
SECTION
2
BLOCKS
0
BLOCK
5
20
100
AcDbEntity
100
AcDbBlockBegin
2
*MODEL_SPACE
0
ENDBLK
5
21
100
AcDbEntity
100
AcDbBlockEnd
0
BLOCK
5
1C
100
AcDbEntity
100
AcDbBlockBegin
2
*PAPER_SPACE
0
ENDBLK
5
1D
100
AcDbEntity
100
AcDbBlockEnd
0
ENDSEC
0
SECTION
2
ENTITIES
0
LWPOLYLINE
5
100
100
AcDbEntity
8
0
100
AcDbPolyline
90
8
70
1
43
0.0
10
9.4256620891781662
20
-6.9152309045732068
42
-0.41421356237309509
10
10.42566208917817
20
-5.9152309045732077
10
13.425662089178141
20
-5.9152309045732077
42
-0.4142135623730937
10
14.42566208917814
20
-6.9152309045732068
10
14.42566208917814
20
-17.415392831540338
42
-0.41421356237309176
10
13.425662089178141
20
-18.415392831540341
10
10.42566208917817
20
-18.415392831540341
42
-0.41421356237309437
10
9.4256620891781662
20
-17.415392831540338
0
LWPOLYLINE
5
101
100
AcDbEntity
8
0
100
AcDbPolyline
90
8
70
1
43
0.0
10
17.425662089178175
20
-6.9152309045732041
42
-0.41421356237309509
10
18.425662089178179
20
-5.915230904573205
10
21.42566208917815
20
-5.9152309045732068
42
-0.41421356237309409
10
22.42566208917815
20
-6.9152309045732041
10
22.42566208917815
20
-17.415392831540338
42
-0.41421356237309243
10
21.42566208917815
20
-18.415392831540341
10
18.425662089178179
20
-18.415392831540341
42
-0.41421356237309243
10
17.425662089178175
20
-17.415392831540338
0
LWPOLYLINE
5
102
100
AcDbEntity
8
0
100
AcDbPolyline
90
8
70
1
43
0.0
10
25.425662089178186
20
-6.9152309045732041
42
-0.41421356237309409
10
26.425662089178186
20
-5.915230904573205
10
29.425662089178157
20
-5.9152309045732068
42
-0.41421356237309409
10
30.425662089178157
20
-6.9152309045732041
10
30.425662089178157
20
-17.415392831540334
42
-0.41421356237309243
10
29.425662089178157
20
-18.415392831540338
10
26.425662089178186
20
-18.415392831540338
42
-0.41421356237309243
10
25.425662089178186
20
-17.415392831540334
0
LWPOLYLINE
5
103
100
AcDbEntity
8
0
100
AcDbPolyline
90
8
70
1
43
0.0
10
33.425662089178196
20
-6.9152309045732041
42
-0.41421356237309209
10
34.425662089178196
20
-5.915230904573205
10
37.425662089178168
20
-5.9152309045732041
42
-0.41421356237309209
10
38.425662089178168
20
-6.9152309045732041
10
38.425662089178168
20
-17.415392831540334
42
-0.41421356237309176
10
37.425662089178168
20
-18.415392831540338
10
34.425662089178203
20
-18.415392831540334
42
-0.41421356237309176
10
33.425662089178196
20
-17.415392831540334
0
LWPOLYLINE
5
104
100
AcDbEntity
8
0
100
AcDbPolyline
90
8
70
1
43
0.0
10
41.425662089178203
20
-6.9152309045732041
42
-0.4142135623730957
10
42.425662089178203
20
-5.915230904573205
10
45.425662089178175
20
-5.915230904573205
42
-0.4142135623730957
10
46.425662089178168
20
-6.9152309045732041
10
46.425662089178168
20
-17.415392831540334
42
-0.41421356237309509
10
45.425662089178175
20
-18.415392831540338
10
42.425662089178203
20
-18.415392831540331
42
-0.41421356237309509
10
41.425662089178203
20
-17.415392831540334
0
LWPOLYLINE
5
105
100
AcDbEntity
8
0
100
AcDbPolyline
90
8
70
1
43
0.0
10
41.425662089178203
20
10.584769095426797
42
-0.41421356237309509
10
42.425662089178203
20
11.584769095426797
10
45.425662089178175
20
11.584769095426793
42
-0.41421356237309509
10
46.425662089178168
20
10.584769095426797
10
46.425662089178168
20
0.084607168459665122
42
-0.4142135623730957
10
45.425662089178175
20
-0.91539283154033613
10
42.425662089178203
20
-0.91539283154033357
42
-0.4142135623730957
10
41.425662089178203
20
0.084607168459664983
0
LWPOLYLINE
5
106
100
AcDbEntity
8
0
100
AcDbPolyline
90
8
70
1
43
0.0
10
33.425662089178196
20
10.584769095426797
42
-0.41421356237309176
10
34.425662089178196
20
11.584769095426797
10
37.425662089178161
20
11.584769095426795
42
-0.41421356237309176
10
38.425662089178168
20
10.584769095426797
10
38.425662089178168
20
0.084607168459664955
42
-0.41421356237309259
10
37.425662089178168
20
-0.91539283154033613
10
34.425662089178196
20
-0.91539283154033635
42
-0.41421356237309259
10
33.425662089178196
20
0.084607168459664983
0
LWPOLYLINE
5
107
100
AcDbEntity
8
0
100
AcDbPolyline
90
8
70
1
43
0.0
10
25.425662089178186
20
10.584769095426797
42
-0.41421356237309243
10
26.425662089178186
20
11.584769095426797
10
29.425662089178157
20
11.584769095426797
42
-0.41421356237309243
10
30.425662089178157
20
10.584769095426797
10
30.425662089178154
20
0.084607168459664955
42
-0.41421356237309331
10
29.425662089178157
20
-0.91539283154033613
10
26.425662089178186
20
-0.91539283154033868
42
-0.41421356237309331
10
25.425662089178186
20
0.084607168459664983
0
LWPOLYLINE
5
108
100
AcDbEntity
8
0
100
AcDbPolyline
90
8
70
1
43
0.0
10
17.425662089178179
20
10.584769095426791
42
-0.41421356237309243
10
18.425662089178179
20
11.584769095426793
10
21.42566208917815
20
11.584769095426793
42
-0.41421356237309243
10
22.42566208917815
20
10.584769095426791
10
22.425662089178147
20
0.084607168459664955
42
-0.41421356237309331
10
21.42566208917815
20
-0.91539283154033613
10
18.425662089178182
20
-0.9153928315403369
42
-0.4142135623730947
10
17.425662089178175
20
0.084607168459660542
0
LWPOLYLINE
5
109
100
AcDbEntity
8
0
100
AcDbPolyline
90
8
70
1
43
0.0
10
9.4256620891781662
20
10.584769095426791
42
-0.4142135623730957
10
10.42566208917817
20
11.584769095426793
10
13.425662089178141
20
11.584769095426793
42
-0.41421356237309176
10
14.42566208917814
20
10.584769095426791
10
14.42566208917814
20
0.084607168459660542
42
-0.41421356237309415
10
13.425662089178141
20
-0.91539283154034057
10
10.42566208917817
20
-0.91539283154033935
42
-0.41421356237309676
10
9.4256620891781662
20
0.084607168459660542
0
LWPOLYLINE
5
110
100
AcDbEntity
8
0
100
AcDbPolyline
90
28
70
1
43
0.0
10
18.250662089178089
20
22.084769095426804
10
37.600662089178101
20
22.084769095426804
10
37.600662089178094
20
34.084769095426807
10
52.925458541990409
20
34.084769095426793
10
52.925458541990409
20
23.334903763059572
10
58.425458541990409
20
23.334903763059572
10
58.425458541990409
20
13.334903763059568
10
52.925458541990409
20
13.334903763059568
10
52.925458541990409
20
-8.1650962369404301
10
58.425458541990409
20
-8.1650962369404301
10
58.425458541990409
20
-18.165096236940428
10
52.925458541990409
20
-18.165096236940428
10
52.925458541990409
20
-23.415258163907566
10
43.92569306915923
20
-23.415258163907566
10
43.92569306915923
20
-22.415258163907566
10
29.92569306915922
20
-22.415258163907566
10
29.925693069159216
20
-23.415258163907566
10
2.9258656363658964
20
-23.415258163907566
10
2.925865636365903
20
-18.165096236940428
10
-2.5741343636340974
20
-18.165096236940428
10
-2.5741343636340974
20
-8.1650962369404301
10
2.9258656363659039
20
-8.1650962369404301
10
2.9258656363659252
20
13.334903763059568
10
-2.5741343636340694
20
13.334903763059568
10
-2.5741343636340694
20
23.334903763059572
10
2.9258656363659306
20
23.334903763059572
10
2.9258656363659252
20
34.084769095426793
10
18.250662089178089
20
34.084769095426807
0
ENDSEC
0
SECTION
2
OBJECTS
0
DICTIONARY
5
C
100
AcDbDictionary
3
ACAD_GROUP
350
D
3
ACAD_MLINESTYLE
350
17
0
DICTIONARY
5
D
100
AcDbDictionary
0
DICTIONARY
5
1A
330
C
100
AcDbDictionary
0
DICTIONARY
5
17
100
AcDbDictionary
0
ENDSEC
0
EOF
