0
SECTION
2
HEADER
9
$INSUNITS
70
4
9
$ACADVER
1
AC1014
9
$HANDSEED
5
FFFF
0
ENDSEC
0
SECTION
2
TABLES
0
TABLE
2
VPORT
5
8
100
AcDbSymbolTable
0
ENDTAB
0
TABLE
2
LTYPE
5
5
100
AcDbSymbolTable
0
LTYPE
5
14
100
AcDbSymbolTableRecord
100
AcDbLinetypeTableRecord
2
BYBLOCK
70
0
0
LTYPE
5
15
100
AcDbSymbolTableRecord
100
AcDbLinetypeTableRecord
2
BYLAYER
70
0
0
ENDTAB
0
TABLE
2
LAYER
5
2
100
AcDbSymbolTable
70
2
0
LAYER
5
50
100
AcDbSymbolTableRecord
100
AcDbLayerTableRecord
2
0
70
0
6
CONTINUOUS
0
ENDTAB
0
TABLE
2
STYLE
5
3
100
AcDbSymbolTable
70
1
0
STYLE
5
11
100
AcDbSymbolTableRecord
100
AcDbTextStyleTableRecord
2
STANDARD
70
0
0
ENDTAB
0
TABLE
2
VIEW
5
6
100
AcDbSymbolTable
70
0
0
ENDTAB
0
TABLE
2
UCS
5
7
100
AcDbSymbolTable
70
0
0
ENDTAB
0
TABLE
2
APPID
5
9
100
AcDbSymbolTable
70
2
0
APPID
5
12
100
AcDbSymbolTableRecord
100
AcDbRegAppTableRecord
2
ACAD
70
0
0
ENDTAB
0
TABLE
2
DIMSTYLE
5
A
100
AcDbSymbolTable
70
1
0
ENDTAB
0
TABLE
2
BLOCK_RECORD
5
1
100
AcDbSymbolTable
70
1
0
BLOCK_RECORD
5
1F
100
AcDbSymbolTableRecord
100
AcDbBlockTableRecord
2
*MODEL_SPACE
0
BLOCK_RECORD
5
1B
100
AcDbSymbolTableRecord
100
AcDbBlockTableRecord
2
*PAPER_SPACE
0
ENDTAB
0
ENDSEC
0
SECTION
2
BLOCKS
0
BLOCK
5
20
100
AcDbEntity
100
AcDbBlockBegin
2
*MODEL_SPACE
0
ENDBLK
5
21
100
AcDbEntity
100
AcDbBlockEnd
0
BLOCK
5
1C
100
AcDbEntity
100
AcDbBlockBegin
2
*PAPER_SPACE
0
ENDBLK
5
1D
100
AcDbEntity
100
AcDbBlockEnd
0
ENDSEC
0
SECTION
2
ENTITIES
0
LWPOLYLINE
5
100
100
AcDbEntity
8
0
100
AcDbPolyline
90
4
70
1
43
0.0
10
-43.025662089178176
20
22.1850656900267
10
-43.025662089178176
20
16.485065690026705
10
-12.825662089178149
20
16.485065690026705
10
-12.825662089178147
20
22.1850656900267
0
LWPOLYLINE
5
101
100
AcDbEntity
8
0
100
AcDbPolyline
90
8
70
1
43
0.0
10
-10.425662089178168
20
-5.9152309045731961
42
-0.41421356237309337
10
-9.4256620891781697
20
-6.9152309045731979
10
-9.4256620891781679
20
-17.415392831540331
42
-0.4142135623730937
10
-10.42566208917817
20
-18.415392831540331
10
-13.425662089178141
20
-18.415392831540331
42
-0.4142135623730957
10
-14.425662089178141
20
-17.415392831540331
10
-14.425662089178143
20
-6.9152309045731979
42
-0.41421356237309698
10
-13.425662089178141
20
-5.9152309045731979
0
LWPOLYLINE
5
102
100
AcDbEntity
8
0
100
AcDbPolyline
90
8
70
1
43
0.0
10
-10.42566208917817
20
11.5847690954268
42
-0.41421356237309509
10
-9.4256620891781697
20
10.5847690954268
10
-9.4256620891781715
20
0.08460716845966941
42
-0.41421356237309404
10
-10.42566208917817
20
-0.9153928315403308
10
-13.425662089178141
20
-0.91539283154033124
42
-0.4142135623730962
10
-14.425662089178141
20
0.084607168459669424
10
-14.425662089178143
20
10.5847690954268
42
-0.4142135623730957
10
-13.425662089178141
20
11.5847690954268
0
LWPOLYLINE
5
103
100
AcDbEntity
8
0
100
AcDbPolyline
90
8
70
1
43
0.0
10
-18.425662089178179
20
-5.9152309045731961
42
-0.41421356237309437
10
-17.425662089178179
20
-6.9152309045731952
10
-17.425662089178179
20
-17.415392831540331
42
-0.4142135623730937
10
-18.425662089178179
20
-18.415392831540331
10
-21.42566208917815
20
-18.415392831540331
42
-0.41421356237309243
10
-22.42566208917815
20
-17.415392831540331
10
-22.42566208917815
20
-6.9152309045731952
42
-0.4142135623730947
10
-21.42566208917815
20
-5.9152309045731952
0
LWPOLYLINE
5
104
100
AcDbEntity
8
0
100
AcDbPolyline
90
8
70
1
43
0.0
10
-18.425662089178179
20
11.5847690954268
42
-0.4142135623730937
10
-17.425662089178179
20
10.5847690954268
10
-17.425662089178179
20
0.084607168459674073
42
-0.41421356237309509
10
-18.425662089178179
20
-0.91539283154032636
10
-21.42566208917815
20
-0.91539283154032491
42
-0.41421356237309442
10
-22.42566208917815
20
0.084607168459673865
10
-22.42566208917815
20
10.5847690954268
42
-0.41421356237309243
10
-21.42566208917815
20
11.5847690954268
0
LWPOLYLINE
5
105
100
AcDbEntity
8
0
100
AcDbPolyline
90
8
70
1
43
0.0
10
-26.425662089178186
20
11.584769095426806
42
-0.41421356237309243
10
-25.425662089178186
20
10.584769095426804
10
-25.425662089178186
20
0.084607168459673948
42
-0.41421356237309448
10
-26.425662089178186
20
-0.91539283154032636
10
-29.425662089178157
20
-0.91539283154032491
42
-0.41421356237309442
10
-30.425662089178157
20
0.084607168459673865
10
-30.425662089178157
20
10.584769095426804
42
-0.41421356237309243
10
-29.425662089178157
20
11.584769095426806
0
LWPOLYLINE
5
106
100
AcDbEntity
8
0
100
AcDbPolyline
90
8
70
1
43
0.0
10
-26.425662089178186
20
-5.9152309045731952
42
-0.4142135623730947
10
-25.425662089178186
20
-6.9152309045731952
10
-25.425662089178186
20
-17.415392831540327
42
-0.41421356237309243
10
-26.425662089178186
20
-18.415392831540327
10
-29.425662089178157
20
-18.415392831540327
42
-0.41421356237309243
10
-30.425662089178157
20
-17.415392831540327
10
-30.425662089178157
20
-6.9152309045731952
42
-0.4142135623730947
10
-29.425662089178157
20
-5.9152309045731952
0
LWPOLYLINE
5
107
100
AcDbEntity
8
0
100
AcDbPolyline
90
8
70
1
43
0.0
10
-34.425662089178196
20
-5.9152309045731979
42
-0.41421356237309409
10
-33.425662089178196
20
-6.9152309045731952
10
-33.425662089178196
20
-17.415392831540327
42
-0.41421356237309176
10
-34.425662089178196
20
-18.415392831540327
10
-37.425662089178161
20
-18.415392831540323
42
-0.41421356237309176
10
-38.425662089178168
20
-17.415392831540327
10
-38.425662089178168
20
-6.9152309045731952
42
-0.41421356237309409
10
-37.425662089178168
20
-5.9152309045731952
0
LWPOLYLINE
5
108
100
AcDbEntity
8
0
100
AcDbPolyline
90
8
70
1
43
0.0
10
-34.425662089178189
20
11.584769095426804
42
-0.41421356237309048
10
-33.425662089178196
20
10.584769095426804
10
-33.425662089178196
20
0.084607168459673865
42
-0.41421356237309248
10
-34.425662089178196
20
-0.91539283154032614
10
-37.425662089178168
20
-0.91539283154032747
42
-0.41421356237309248
10
-38.425662089178168
20
0.084607168459673865
10
-38.425662089178168
20
10.584769095426804
42
-0.41421356237309176
10
-37.425662089178168
20
11.584769095426806
0
LWPOLYLINE
5
109
100
AcDbEntity
8
0
100
AcDbPolyline
90
8
70
1
43
0.0
10
-42.425662089178211
20
-5.9152309045731979
42
-0.41421356237309537
10
-41.425662089178211
20
-6.9152309045731952
10
-41.425662089178203
20
-17.415392831540327
42
-0.41421356237309509
10
-42.425662089178211
20
-18.415392831540327
10
-45.425662089178182
20
-18.415392831540323
42
-0.41421356237309509
10
-46.425662089178175
20
-17.415392831540327
10
-46.425662089178175
20
-6.9152309045731952
42
-0.41421356237309537
10
-45.425662089178182
20
-5.9152309045731952
0
LWPOLYLINE
5
110
100
AcDbEntity
8
0
100
AcDbPolyline
90
8
70
1
43
0.0
10
-42.425662089178211
20
11.5847690954268
42
-0.41421356237309509
10
-41.425662089178211
20
10.584769095426804
10
-41.425662089178211
20
0.084607168459673893
42
-0.41421356237309553
10
-42.425662089178211
20
-0.91539283154032636
10
-45.425662089178182
20
-0.91539283154032436
42
-0.41421356237309553
10
-46.425662089178175
20
0.084607168459673865
10
-46.425662089178189
20
10.584769095426804
42
-0.41421356237309509
10
-45.425662089178182
20
11.584769095426806
0
LWPOLYLINE
5
111
100
AcDbEntity
8
0
100
AcDbPolyline
90
14
70
1
43
0.0
10
-52.925458541990409
20
37.084769095426836
10
2.5741083948128844
20
37.084769095426836
10
2.5741603339958292
20
27.085065690094147
10
-2.9258656363659301
20
27.085037122561339
10
-2.9258656363659008
20
-23.415258163907563
10
-12.925662089178156
20
-23.415258163907563
10
-12.925662089178154
20
-28.915258163907559
10
-42.925662089178161
20
-28.915258163907559
10
-42.925662089178161
20
-23.415258163907563
10
-52.925458541990409
20
-23.415258163907563
10
-52.925458541990409
20
27.084777421058423
10
-58.425432571628669
20
27.084748853795404
10
-58.425484512352142
20
37.084748853660507
10
-54.528394719209984
20
37.084769095426829
0
ENDSEC
0
SECTION
2
OBJECTS
0
DICTIONARY
5
C
100
AcDbDictionary
3
ACAD_GROUP
350
D
3
ACAD_MLINESTYLE
350
17
0
DICTIONARY
5
D
100
AcDbDictionary
0
DICTIONARY
5
1A
330
C
100
AcDbDictionary
0
DICTIONARY
5
17
100
AcDbDictionary
0
ENDSEC
0
EOF
