0
SECTION
2
HEADER
9
$INSUNITS
70
4
9
$ACADVER
1
AC1014
9
$HANDSEED
5
FFFF
0
ENDSEC
0
SECTION
2
TABLES
0
TABLE
2
VPORT
5
8
100
AcDbSymbolTable
0
ENDTAB
0
TABLE
2
LTYPE
5
5
100
AcDbSymbolTable
0
LTYPE
5
14
100
AcDbSymbolTableRecord
100
AcDbLinetypeTableRecord
2
BYBLOCK
70
0
0
LTYPE
5
15
100
AcDbSymbolTableRecord
100
AcDbLinetypeTableRecord
2
BYLAYER
70
0
0
ENDTAB
0
TABLE
2
LAYER
5
2
100
AcDbSymbolTable
70
2
0
LAYER
5
50
100
AcDbSymbolTableRecord
100
AcDbLayerTableRecord
2
0
70
0
6
CONTINUOUS
0
ENDTAB
0
TABLE
2
STYLE
5
3
100
AcDbSymbolTable
70
1
0
STYLE
5
11
100
AcDbSymbolTableRecord
100
AcDbTextStyleTableRecord
2
STANDARD
70
0
0
ENDTAB
0
TABLE
2
VIEW
5
6
100
AcDbSymbolTable
70
0
0
ENDTAB
0
TABLE
2
UCS
5
7
100
AcDbSymbolTable
70
0
0
ENDTAB
0
TABLE
2
APPID
5
9
100
AcDbSymbolTable
70
2
0
APPID
5
12
100
AcDbSymbolTableRecord
100
AcDbRegAppTableRecord
2
ACAD
70
0
0
ENDTAB
0
TABLE
2
DIMSTYLE
5
A
100
AcDbSymbolTable
70
1
0
ENDTAB
0
TABLE
2
BLOCK_RECORD
5
1
100
AcDbSymbolTable
70
1
0
BLOCK_RECORD
5
1F
100
AcDbSymbolTableRecord
100
AcDbBlockTableRecord
2
*MODEL_SPACE
0
BLOCK_RECORD
5
1B
100
AcDbSymbolTableRecord
100
AcDbBlockTableRecord
2
*PAPER_SPACE
0
ENDTAB
0
ENDSEC
0
SECTION
2
BLOCKS
0
BLOCK
5
20
100
AcDbEntity
100
AcDbBlockBegin
2
*MODEL_SPACE
0
ENDBLK
5
21
100
AcDbEntity
100
AcDbBlockEnd
0
BLOCK
5
1C
100
AcDbEntity
100
AcDbBlockBegin
2
*PAPER_SPACE
0
ENDBLK
5
1D
100
AcDbEntity
100
AcDbBlockEnd
0
ENDSEC
0
SECTION
2
ENTITIES
0
CIRCLE
5
100
100
AcDbEntity
8
0
100
AcDbCircle
10
-180.78311845044368
20
39.83476911663508
30
5.5511151231257827e-16
40
4.0000000000000036
210
7.0458316042829163e-35
220
2.6014177025662325e-53
230
1
0
LWPOLYLINE
5
101
100
AcDbEntity
8
0
100
AcDbPolyline
90
26
70
1
43
0.0
10
-326.43311845044377
20
37.08474887493626
10
-326.53311845044379
20
37.08474887493626
10
-326.53311845044368
20
37.084769116635115
10
-322.727295997932
20
37.084769116635115
10
-322.72729599793206
20
37.085065711234989
10
-194.53341289840387
20
37.085065711234989
10
-187.17236820520824
20
49.83476911663508
10
-171.03341289840387
20
49.834769116635073
10
-171.03341289840387
20
-43.915258142699273
10
-191.03349326139454
20
-43.915258142699273
10
-196.03349326139454
20
-33.915258142699273
10
-312.03349326139454
20
-33.915258142699273
10
-317.03349326139454
20
-43.915258142699273
10
-337.03357362438516
20
-43.915258142699273
10
-337.03357362438521
20
37.085065711234989
10
-332.03357362438516
20
37.085065711234989
10
-332.03357362438521
20
37.08476911663513
10
-332.03311845044374
20
37.084769116635123
10
-332.03311845044374
20
37.08474887493626
10
-332.1331184504437
20
37.08474887493626
10
-332.1331184504437
20
27.08474887493626
10
-332.03311845044374
20
27.08474887493626
10
-332.03311845044368
20
27.085065711234986
10
-326.53311845044368
20
27.085065711234986
10
-326.53311845044379
20
27.08474887493626
10
-326.43311845044377
20
27.08474887493626
0
CIRCLE
5
102
100
AcDbEntity
8
0
100
AcDbCircle
10
-206.03311845044334
20
9.8631014267591652
30
0
40
1.6000000000000014
210
7.0458316042829163e-35
220
2.6014177025662321e-53
230
1
0
CIRCLE
5
103
100
AcDbEntity
8
0
100
AcDbCircle
10
-254.03311845044362
20
1.8631014267591972
30
5.5511151231257827e-16
40
1.6000000000000014
210
7.0458316042829163e-35
220
2.6014177025662321e-53
230
1
0
CIRCLE
5
104
100
AcDbEntity
8
0
100
AcDbCircle
10
-302.03311845044357
20
9.863101426759183
30
0
40
1.6000000000000014
210
7.0458316042829163e-35
220
2.6014177025662321e-53
230
1
0
LWPOLYLINE
5
105
100
AcDbEntity
8
0
100
AcDbPolyline
90
8
70
1
43
0.0
10
-260.53311845044374
20
11.585065711235011
42
-0.41421356237307422
10
-259.53311845044374
20
10.585065711234996
10
-259.53311845044374
20
0.08490378426786474
42
-0.41421356237307433
10
-260.53311845044374
20
-0.91509621573213584
10
-263.53311845044368
20
-0.91509621573214939
42
-0.414213562373074
10
-264.53311845044374
20
0.084903784267864602
10
-264.53311845044374
20
10.585065711234996
42
-0.41421356237307422
10
-263.53311845044368
20
11.585065711234996
0
LWPOLYLINE
5
106
100
AcDbEntity
8
0
100
AcDbPolyline
90
8
70
1
43
0.0
10
-252.53311845044374
20
-5.9149342887650258
42
-0.41421356237310542
10
-251.53311845044371
20
-6.9149342887650045
10
-251.53311845044368
20
-17.415096215732135
42
-0.41421356237310542
10
-252.53311845044374
20
-18.415096215732135
10
-255.53311845044368
20
-18.415096215732113
42
-0.41421356237310542
10
-256.53311845044368
20
-17.415096215732135
10
-256.53311845044374
20
-6.9149342887650045
42
-0.41421356237310542
10
-255.53311845044368
20
-5.9149342887650045
0
LWPOLYLINE
5
107
100
AcDbEntity
8
0
100
AcDbPolyline
90
8
70
1
43
0.0
10
-268.53311845044374
20
-5.9149342887650258
42
-0.41421356237310542
10
-267.53311845044374
20
-6.9149342887650045
10
-267.53311845044368
20
-17.415096215732135
42
-0.41421356237310542
10
-268.53311845044374
20
-18.415096215732135
10
-271.53311845044368
20
-18.415096215732113
42
-0.41421356237310542
10
-272.53311845044374
20
-17.415096215732135
10
-272.53311845044374
20
-6.9149342887650045
42
-0.41421356237310542
10
-271.53311845044368
20
-5.9149342887650045
0
LWPOLYLINE
5
108
100
AcDbEntity
8
0
100
AcDbPolyline
90
8
70
1
43
0.0
10
-212.53311845044374
20
11.585065711234968
42
-0.41421356237310542
10
-211.53311845044371
20
10.585065711234989
10
-211.53311845044368
20
0.084903784267858079
42
-0.41421356237310553
10
-212.53311845044374
20
-0.9150962157321425
10
-215.53311845044368
20
-0.91509621573212052
42
-0.41421356237310525
10
-216.53311845044371
20
0.08490378426785794
10
-216.53311845044374
20
10.585065711234989
42
-0.41421356237310542
10
-215.53311845044368
20
11.585065711234988
0
LWPOLYLINE
5
109
100
AcDbEntity
8
0
100
AcDbPolyline
90
8
70
1
43
0.0
10
-268.53311845044374
20
11.585065711234975
42
-0.41421356237310542
10
-267.53311845044374
20
10.585065711234996
10
-267.53311845044368
20
0.08490378426786474
42
-0.41421356237310553
10
-268.53311845044374
20
-0.91509621573213584
10
-271.53311845044368
20
-0.91509621573211386
42
-0.41421356237310525
10
-272.53311845044374
20
0.084903784267864602
10
-272.53311845044374
20
10.585065711234996
42
-0.41421356237310542
10
-271.53311845044368
20
11.585065711234996
0
LWPOLYLINE
5
110
100
AcDbEntity
8
0
100
AcDbPolyline
90
8
70
1
43
0.0
10
-244.53311845044371
20
11.585065711235007
42
-0.41421356237307422
10
-243.53311845044371
20
10.585065711234993
10
-243.53311845044371
20
0.084903784267862464
42
-0.414213562373074
10
-244.53311845044371
20
-0.91509621573213729
10
-247.53311845044368
20
-0.91509621573215072
42
-0.414213562373074
10
-248.53311845044371
20
0.084903784267862381
10
-248.53311845044371
20
10.585065711234993
42
-0.41421356237307422
10
-247.53311845044368
20
11.585065711234993
0
LWPOLYLINE
5
111
100
AcDbEntity
8
0
100
AcDbPolyline
90
8
70
1
43
0.0
10
-244.53311845044371
20
-5.9149342887649912
42
-0.41421356237307422
10
-243.53311845044371
20
-6.9149342887650045
10
-243.53311845044371
20
-17.415096215732135
42
-0.41421356237307422
10
-244.53311845044371
20
-18.415096215732138
10
-247.53311845044368
20
-18.415096215732149
42
-0.41421356237307361
10
-248.53311845044371
20
-17.415096215732138
10
-248.53311845044371
20
-6.9149342887650072
42
-0.41421356237307461
10
-247.53311845044368
20
-5.9149342887650054
0
LWPOLYLINE
5
112
100
AcDbEntity
8
0
100
AcDbPolyline
90
8
70
1
43
0.0
10
-292.53311845044374
20
11.585065711234975
42
-0.41421356237310542
10
-291.53311845044368
20
10.585065711234996
10
-291.53311845044368
20
0.08490378426786474
42
-0.41421356237310553
10
-292.53311845044374
20
-0.91509621573213584
10
-295.53311845044368
20
-0.91509621573211386
42
-0.41421356237310525
10
-296.53311845044368
20
0.084903784267864602
10
-296.53311845044374
20
10.585065711234996
42
-0.41421356237310542
10
-295.53311845044368
20
11.585065711234996
0
LWPOLYLINE
5
113
100
AcDbEntity
8
0
100
AcDbPolyline
90
8
70
1
43
0.0
10
-220.53311845044374
20
11.585065711235005
42
-0.41421356237307422
10
-219.53311845044371
20
10.585065711234991
10
-219.53311845044371
20
0.084903784267860299
42
-0.41421356237307461
10
-220.53311845044374
20
-0.91509621573214139
10
-223.53311845044371
20
-0.91509621573215494
42
-0.414213562373074
10
-224.53311845044371
20
0.08490378426785794
10
-224.53311845044371
20
10.585065711234989
42
-0.41421356237307483
10
-223.53311845044371
20
11.585065711234993
0
LWPOLYLINE
5
114
100
AcDbEntity
8
0
100
AcDbPolyline
90
8
70
1
43
0.0
10
-284.53311845044374
20
11.585065711234975
42
-0.41421356237310542
10
-283.53311845044374
20
10.585065711234996
10
-283.53311845044368
20
0.08490378426786474
42
-0.41421356237310553
10
-284.53311845044374
20
-0.91509621573213584
10
-287.53311845044374
20
-0.91509621573211386
42
-0.41421356237310525
10
-288.53311845044374
20
0.084903784267864602
10
-288.53311845044379
20
10.585065711234996
42
-0.41421356237310542
10
-287.53311845044374
20
11.585065711234996
0
LWPOLYLINE
5
115
100
AcDbEntity
8
0
100
AcDbPolyline
90
8
70
1
43
0.0
10
-228.53311845044374
20
11.58506571123497
42
-0.41421356237310542
10
-227.53311845044374
20
10.585065711234991
10
-227.53311845044368
20
0.084903784267860147
42
-0.41421356237310536
10
-228.53311845044374
20
-0.91509621573214006
10
-231.53311845044371
20
-0.91509621573211797
42
-0.41421356237310525
10
-232.53311845044374
20
0.084903784267860161
10
-232.53311845044377
20
10.585065711234991
42
-0.41421356237310542
10
-231.53311845044371
20
11.585065711234993
0
LWPOLYLINE
5
116
100
AcDbEntity
8
0
100
AcDbPolyline
90
8
70
1
43
0.0
10
-236.53311845044371
20
11.585065711234972
42
-0.41421356237310542
10
-235.53311845044368
20
10.585065711234993
10
-235.53311845044365
20
0.084903784267862409
42
-0.41421356237310564
10
-236.53311845044371
20
-0.91509621573213862
10
-239.53311845044368
20
-0.91509621573211652
42
-0.41421356237310525
10
-240.53311845044368
20
0.084903784267862381
10
-240.53311845044374
20
10.585065711234991
42
-0.41421356237310608
10
-239.53311845044368
20
11.585065711234993
0
LWPOLYLINE
5
117
100
AcDbEntity
8
0
100
AcDbPolyline
90
8
70
1
43
0.0
10
-276.53311845044374
20
11.585065711235011
42
-0.41421356237307422
10
-275.53311845044374
20
10.585065711234996
10
-275.53311845044374
20
0.08490378426786474
42
-0.41421356237307433
10
-276.53311845044374
20
-0.91509621573213584
10
-279.53311845044374
20
-0.91509621573214939
42
-0.414213562373074
10
-280.53311845044374
20
0.084903784267864602
10
-280.53311845044374
20
10.585065711234996
42
-0.41421356237307422
10
-279.53311845044374
20
11.585065711234996
0
LWPOLYLINE
5
118
100
AcDbEntity
8
0
100
AcDbPolyline
90
8
70
1
43
0.0
10
-260.53311845044374
20
-5.9149342887649903
42
-0.41421356237307422
10
-259.53311845044374
20
-6.9149342887650045
10
-259.53311845044374
20
-17.415096215732135
42
-0.41421356237307422
10
-260.53311845044374
20
-18.415096215732135
10
-263.53311845044368
20
-18.415096215732149
42
-0.41421356237307422
10
-264.53311845044374
20
-17.415096215732135
10
-264.53311845044374
20
-6.9149342887650045
42
-0.41421356237307422
10
-263.53311845044368
20
-5.9149342887650045
0
LWPOLYLINE
5
119
100
AcDbEntity
8
0
100
AcDbPolyline
90
8
70
1
43
0.0
10
-300.53311845044374
20
-5.9149342887649903
42
-0.41421356237307422
10
-299.53311845044374
20
-6.9149342887650045
10
-299.53311845044374
20
-17.415096215732135
42
-0.41421356237307422
10
-300.53311845044374
20
-18.415096215732135
10
-303.53311845044368
20
-18.415096215732149
42
-0.41421356237307422
10
-304.53311845044374
20
-17.415096215732135
10
-304.53311845044374
20
-6.9149342887650045
42
-0.41421356237307422
10
-303.53311845044368
20
-5.9149342887650045
0
LWPOLYLINE
5
120
100
AcDbEntity
8
0
100
AcDbPolyline
90
8
70
1
43
0.0
10
-292.53311845044374
20
-5.9149342887650258
42
-0.41421356237310542
10
-291.53311845044368
20
-6.9149342887650045
10
-291.53311845044368
20
-17.415096215732135
42
-0.41421356237310542
10
-292.53311845044374
20
-18.415096215732135
10
-295.53311845044368
20
-18.415096215732113
42
-0.41421356237310542
10
-296.53311845044368
20
-17.415096215732135
10
-296.53311845044374
20
-6.9149342887650045
42
-0.41421356237310542
10
-295.53311845044368
20
-5.9149342887650045
0
LWPOLYLINE
5
121
100
AcDbEntity
8
0
100
AcDbPolyline
90
8
70
1
43
0.0
10
-284.53311845044374
20
-5.9149342887650258
42
-0.41421356237310542
10
-283.53311845044374
20
-6.9149342887650045
10
-283.53311845044368
20
-17.415096215732135
42
-0.41421356237310542
10
-284.53311845044374
20
-18.415096215732135
10
-287.53311845044374
20
-18.415096215732113
42
-0.41421356237310542
10
-288.53311845044374
20
-17.415096215732135
10
-288.53311845044379
20
-6.9149342887650045
42
-0.41421356237310542
10
-287.53311845044374
20
-5.9149342887650045
0
LWPOLYLINE
5
122
100
AcDbEntity
8
0
100
AcDbPolyline
90
8
70
1
43
0.0
10
-228.53311845044374
20
-5.9149342887650302
42
-0.41421356237310542
10
-227.53311845044374
20
-6.9149342887650089
10
-227.53311845044368
20
-17.415096215732142
42
-0.41421356237310542
10
-228.53311845044374
20
-18.415096215732142
10
-231.53311845044371
20
-18.41509621573212
42
-0.41421356237310542
10
-232.53311845044374
20
-17.415096215732142
10
-232.53311845044377
20
-6.9149342887650089
42
-0.41421356237310542
10
-231.53311845044371
20
-5.9149342887650089
0
LWPOLYLINE
5
123
100
AcDbEntity
8
0
100
AcDbPolyline
90
8
70
1
43
0.0
10
-220.53311845044374
20
-5.9149342887649956
42
-0.41421356237307422
10
-219.53311845044371
20
-6.9149342887650089
10
-219.53311845044371
20
-17.415096215732142
42
-0.41421356237307422
10
-220.53311845044374
20
-18.415096215732142
10
-223.53311845044371
20
-18.415096215732156
42
-0.41421356237307422
10
-224.53311845044371
20
-17.415096215732142
10
-224.53311845044371
20
-6.9149342887650089
42
-0.41421356237307388
10
-223.53311845044371
20
-5.9149342887650107
0
LWPOLYLINE
5
124
100
AcDbEntity
8
0
100
AcDbPolyline
90
8
70
1
43
0.0
10
-212.53311845044374
20
-5.914934288765032
42
-0.41421356237310542
10
-211.53311845044371
20
-6.9149342887650107
10
-211.53311845044368
20
-17.415096215732142
42
-0.4142135623731048
10
-212.53311845044374
20
-18.415096215732142
10
-215.53311845044368
20
-18.41509621573212
42
-0.4142135623731048
10
-216.53311845044371
20
-17.415096215732142
10
-216.53311845044374
20
-6.9149342887650107
42
-0.41421356237310542
10
-215.53311845044368
20
-5.9149342887650116
0
LWPOLYLINE
5
125
100
AcDbEntity
8
0
100
AcDbPolyline
90
8
70
1
43
0.0
10
-204.53311845044371
20
-5.9149342887649983
42
-0.41421356237307422
10
-203.53311845044371
20
-6.9149342887650134
10
-203.53311845044371
20
-17.415096215732145
42
-0.41421356237307422
10
-204.53311845044371
20
-18.415096215732145
10
-207.53311845044368
20
-18.415096215732159
42
-0.41421356237307422
10
-208.53311845044371
20
-17.415096215732145
10
-208.53311845044371
20
-6.9149342887650134
42
-0.41421356237307461
10
-207.53311845044368
20
-5.9149342887650125
0
LWPOLYLINE
5
126
100
AcDbEntity
8
0
100
AcDbPolyline
90
8
70
1
43
0.0
10
-236.53311845044371
20
-5.9149342887650285
42
-0.41421356237310542
10
-235.53311845044368
20
-6.9149342887650072
10
-235.53311845044365
20
-17.415096215732138
42
-0.4142135623731048
10
-236.53311845044371
20
-18.415096215732138
10
-239.53311845044368
20
-18.415096215732113
42
-0.4142135623731048
10
-240.53311845044368
20
-17.415096215732138
10
-240.53311845044374
20
-6.9149342887650072
42
-0.41421356237310542
10
-239.53311845044368
20
-5.9149342887650072
0
LWPOLYLINE
5
127
100
AcDbEntity
8
0
100
AcDbPolyline
90
8
70
1
43
0.0
10
-276.53311845044374
20
-5.9149342887649903
42
-0.41421356237307422
10
-275.53311845044374
20
-6.9149342887650045
10
-275.53311845044374
20
-17.415096215732135
42
-0.41421356237307422
10
-276.53311845044374
20
-18.415096215732135
10
-279.53311845044374
20
-18.415096215732149
42
-0.41421356237307422
10
-280.53311845044374
20
-17.415096215732135
10
-280.53311845044374
20
-6.9149342887650045
42
-0.41421356237307422
10
-279.53311845044374
20
-5.9149342887650045
0
CIRCLE
5
128
100
AcDbEntity
8
0
100
AcDbCircle
10
-194.71651945044354
20
-7.4152581426993187
30
0
40
1.4999999999999858
210
4.2789302537116079e-46
220
3.1820913054881677e-64
230
1
0
CIRCLE
5
129
100
AcDbEntity
8
0
100
AcDbCircle
10
-314.71651945044363
20
-7.41525814269857
30
0
40
1.4999999999999858
210
4.2789302537116079e-46
220
3.1820913054881677e-64
230
1
0
LWPOLYLINE
5
130
100
AcDbEntity
8
0
100
AcDbPolyline
90
4
70
1
43
0.0
10
-199.46751945044366
20
-29.015258142699256
10
-190.61651945044363
20
-29.015258142699256
10
-190.6165194504436
20
-23.315258142699253
10
-199.46751945044366
20
-23.315258142699264
0
LWPOLYLINE
5
131
100
AcDbEntity
8
0
100
AcDbPolyline
90
4
70
1
43
0.0
10
-175.93311845044369
20
-18.265096215732125
10
-175.93311845044369
20
-8.065096215732126
10
-181.63311845044373
20
-8.065096215732126
10
-181.63311845044373
20
-18.265096215732125
0
LWPOLYLINE
5
132
100
AcDbEntity
8
0
100
AcDbPolyline
90
4
70
1
43
0.0
10
-308.79911845841394
20
-29.015258142699256
10
-299.94811845841389
20
-29.015258142699256
10
-299.94811845841389
20
-23.315258142699264
10
-308.79911845841394
20
-23.315258142699264
0
LWPOLYLINE
5
133
100
AcDbEntity
8
0
100
AcDbPolyline
90
4
70
1
43
0.0
10
-181.63311845044373
20
13.234903784267871
10
-175.93311845044369
20
13.234903784267873
10
-175.93311845044369
20
23.434903784267878
10
-181.63311845044373
20
23.434903784267878
0
ENDSEC
0
SECTION
2
OBJECTS
0
DICTIONARY
5
C
100
AcDbDictionary
3
ACAD_GROUP
350
D
3
ACAD_MLINESTYLE
350
17
0
DICTIONARY
5
D
100
AcDbDictionary
0
DICTIONARY
5
1A
330
C
100
AcDbDictionary
0
DICTIONARY
5
17
100
AcDbDictionary
0
ENDSEC
0
EOF
