0
SECTION
2
HEADER
9
$INSUNITS
70
4
9
$ACADVER
1
AC1014
9
$HANDSEED
5
FFFF
0
ENDSEC
0
SECTION
2
TABLES
0
TABLE
2
VPORT
5
8
100
AcDbSymbolTable
0
ENDTAB
0
TABLE
2
LTYPE
5
5
100
AcDbSymbolTable
0
LTYPE
5
14
100
AcDbSymbolTableRecord
100
AcDbLinetypeTableRecord
2
BYBLOCK
70
0
0
LTYPE
5
15
100
AcDbSymbolTableRecord
100
AcDbLinetypeTableRecord
2
BYLAYER
70
0
0
ENDTAB
0
TABLE
2
LAYER
5
2
100
AcDbSymbolTable
70
2
0
LAYER
5
50
100
AcDbSymbolTableRecord
100
AcDbLayerTableRecord
2
0
70
0
6
CONTINUOUS
0
ENDTAB
0
TABLE
2
STYLE
5
3
100
AcDbSymbolTable
70
1
0
STYLE
5
11
100
AcDbSymbolTableRecord
100
AcDbTextStyleTableRecord
2
STANDARD
70
0
0
ENDTAB
0
TABLE
2
VIEW
5
6
100
AcDbSymbolTable
70
0
0
ENDTAB
0
TABLE
2
UCS
5
7
100
AcDbSymbolTable
70
0
0
ENDTAB
0
TABLE
2
APPID
5
9
100
AcDbSymbolTable
70
2
0
APPID
5
12
100
AcDbSymbolTableRecord
100
AcDbRegAppTableRecord
2
ACAD
70
0
0
ENDTAB
0
TABLE
2
DIMSTYLE
5
A
100
AcDbSymbolTable
70
1
0
ENDTAB
0
TABLE
2
BLOCK_RECORD
5
1
100
AcDbSymbolTable
70
1
0
BLOCK_RECORD
5
1F
100
AcDbSymbolTableRecord
100
AcDbBlockTableRecord
2
*MODEL_SPACE
0
BLOCK_RECORD
5
1B
100
AcDbSymbolTableRecord
100
AcDbBlockTableRecord
2
*PAPER_SPACE
0
ENDTAB
0
ENDSEC
0
SECTION
2
BLOCKS
0
BLOCK
5
20
100
AcDbEntity
100
AcDbBlockBegin
2
*MODEL_SPACE
0
ENDBLK
5
21
100
AcDbEntity
100
AcDbBlockEnd
0
BLOCK
5
1C
100
AcDbEntity
100
AcDbBlockBegin
2
*PAPER_SPACE
0
ENDBLK
5
1D
100
AcDbEntity
100
AcDbBlockEnd
0
ENDSEC
0
SECTION
2
ENTITIES
0
LWPOLYLINE
5
100
100
AcDbEntity
8
0
100
AcDbPolyline
90
4
70
1
43
0.0
10
-30.525693079533085
20
22.18439105147851
10
-30.525693079533085
20
16.484391051478514
10
-12.825693079533085
20
16.484391051478514
10
-12.825693079533085
20
22.18439105147851
0
LWPOLYLINE
5
101
100
AcDbEntity
8
0
100
AcDbPolyline
90
4
70
1
43
0.0
10
-63.025693079533092
20
22.18439105147851
10
-63.025693079533092
20
16.484391051478514
10
-45.325693079533096
20
16.484391051478514
10
-45.325693079533096
20
22.18439105147851
0
LWPOLYLINE
5
102
100
AcDbEntity
8
0
100
AcDbPolyline
90
8
70
1
43
0.0
10
-12.425693079533122
20
-5.9146089485214741
42
-0.41421356237309437
10
-11.425693079533122
20
-6.9146089485214723
10
-11.425693079533122
20
-17.414770875488603
42
-0.4142135623730937
10
-12.425693079533122
20
-18.414770875488603
10
-15.425693079533094
20
-18.414770875488603
42
-0.4142135623730937
10
-16.425693079533094
20
-17.414770875488603
10
-16.425693079533094
20
-6.9146089485214723
42
-0.41421356237309437
10
-15.425693079533094
20
-5.9146089485214723
0
LWPOLYLINE
5
103
100
AcDbEntity
8
0
100
AcDbPolyline
90
8
70
1
43
0.0
10
-20.425693079533094
20
-5.9146089485214715
42
-0.41421356237309437
10
-19.425693079533094
20
-6.9146089485214706
10
-19.42569307953309
20
-17.414770875488603
42
-0.41421356237309437
10
-20.425693079533094
20
-18.414770875488603
10
-23.425693079533065
20
-18.414770875488603
42
-0.41421356237309243
10
-24.425693079533065
20
-17.414770875488603
10
-24.425693079533065
20
-6.9146089485214706
42
-0.4142135623730947
10
-23.425693079533065
20
-5.9146089485214706
0
LWPOLYLINE
5
104
100
AcDbEntity
8
0
100
AcDbPolyline
90
8
70
1
43
0.0
10
-28.425693079533101
20
-5.9146089485214679
42
-0.4142135623730947
10
-27.425693079533101
20
-6.9146089485214679
10
-27.425693079533101
20
-17.414770875488603
42
-0.41421356237309243
10
-28.425693079533101
20
-18.414770875488603
10
-31.425693079533072
20
-18.414770875488603
42
-0.41421356237309243
10
-32.425693079533076
20
-17.414770875488603
10
-32.425693079533076
20
-6.9146089485214679
42
-0.4142135623730947
10
-31.425693079533072
20
-5.9146089485214679
0
LWPOLYLINE
5
105
100
AcDbEntity
8
0
100
AcDbPolyline
90
8
70
1
43
0.0
10
-12.425693079533122
20
11.585391051478528
42
-0.41421356237309109
10
-11.425693079533122
20
10.585391051478528
10
-11.425693079533122
20
0.085229124511396748
42
-0.4142135623730947
10
-12.425693079533122
20
-0.91477087548860325
10
-15.425693079533094
20
-0.91477087548860281
42
-0.41421356237309337
10
-16.425693079533094
20
0.085229124511396748
10
-16.425693079533094
20
10.585391051478528
42
-0.41421356237309109
10
-15.425693079533094
20
11.585391051478528
0
LWPOLYLINE
5
106
100
AcDbEntity
8
0
100
AcDbPolyline
90
8
70
1
43
0.0
10
-20.425693079533094
20
11.585391051478531
42
-0.41421356237309048
10
-19.425693079533094
20
10.585391051478528
10
-19.425693079533094
20
0.085229124511396748
42
-0.4142135623730947
10
-20.425693079533094
20
-0.91477087548860325
10
-23.425693079533065
20
-0.91477087548860203
42
-0.41421356237309442
10
-24.425693079533065
20
0.085229124511396748
10
-24.425693079533069
20
10.585391051478528
42
-0.41421356237309176
10
-23.425693079533065
20
11.585391051478528
0
LWPOLYLINE
5
107
100
AcDbEntity
8
0
100
AcDbPolyline
90
8
70
1
43
0.0
10
-28.425693079533101
20
11.585391051478526
42
-0.41421356237309176
10
-27.425693079533101
20
10.585391051478528
10
-27.425693079533104
20
0.085229124511401161
42
-0.41421356237309298
10
-28.425693079533101
20
-0.91477087548859881
10
-31.425693079533072
20
-0.9147708754886017
42
-0.41421356237309304
10
-32.425693079533076
20
0.085229124511401189
10
-32.425693079533076
20
10.585391051478528
42
-0.41421356237309176
10
-31.425693079533072
20
11.585391051478528
0
LWPOLYLINE
5
108
100
AcDbEntity
8
0
100
AcDbPolyline
90
8
70
1
43
0.0
10
-60.425693079533133
20
-5.9146089485214706
42
-0.41421356237309537
10
-59.425693079533133
20
-6.9146089485214679
10
-59.425693079533133
20
-17.4147708754886
42
-0.41421356237309509
10
-60.425693079533133
20
-18.4147708754886
10
-63.425693079533104
20
-18.414770875488596
42
-0.41421356237309509
10
-64.42569307953309
20
-17.4147708754886
10
-64.42569307953309
20
-6.9146089485214679
42
-0.41421356237309537
10
-63.425693079533104
20
-5.9146089485214679
0
LWPOLYLINE
5
109
100
AcDbEntity
8
0
100
AcDbPolyline
90
8
70
1
43
0.0
10
-60.425693079533133
20
11.585391051478528
42
-0.41421356237309509
10
-59.425693079533133
20
10.585391051478531
10
-59.425693079533133
20
0.085229124511401327
42
-0.41421356237309542
10
-60.425693079533133
20
-0.91477087548859881
10
-63.425693079533104
20
-0.91477087548859637
42
-0.41421356237309542
10
-64.42569307953309
20
0.085229124511401189
10
-64.42569307953309
20
10.585391051478531
42
-0.41421356237309509
10
-63.425693079533104
20
11.585391051478533
0
LWPOLYLINE
5
110
100
AcDbEntity
8
0
100
AcDbPolyline
90
8
70
1
43
0.0
10
-52.425693079533119
20
-5.9146089485214706
42
-0.41421356237309537
10
-51.425693079533126
20
-6.9146089485214679
10
-51.425693079533126
20
-17.4147708754886
42
-0.41421356237309509
10
-52.425693079533119
20
-18.4147708754886
10
-55.42569307953309
20
-18.414770875488596
42
-0.41421356237309509
10
-56.42569307953309
20
-17.4147708754886
10
-56.42569307953309
20
-6.9146089485214679
42
-0.41421356237309537
10
-55.42569307953309
20
-5.9146089485214679
0
LWPOLYLINE
5
111
100
AcDbEntity
8
0
100
AcDbPolyline
90
8
70
1
43
0.0
10
-44.425693079533119
20
-5.9146089485214706
42
-0.41421356237309537
10
-43.425693079533119
20
-6.9146089485214679
10
-43.425693079533119
20
-17.4147708754886
42
-0.41421356237309509
10
-44.425693079533119
20
-18.4147708754886
10
-47.42569307953309
20
-18.414770875488596
42
-0.41421356237309509
10
-48.425693079533083
20
-17.4147708754886
10
-48.425693079533083
20
-6.9146089485214679
42
-0.41421356237309537
10
-47.42569307953309
20
-5.9146089485214679
0
LWPOLYLINE
5
112
100
AcDbEntity
8
0
100
AcDbPolyline
90
8
70
1
43
0.0
10
-52.425693079533119
20
11.585391051478528
42
-0.41421356237309509
10
-51.425693079533126
20
10.585391051478531
10
-51.425693079533126
20
0.085229124511401327
42
-0.41421356237309542
10
-52.425693079533119
20
-0.91477087548859881
10
-55.42569307953309
20
-0.91477087548859637
42
-0.41421356237309542
10
-56.42569307953309
20
0.085229124511401189
10
-56.42569307953309
20
10.585391051478531
42
-0.41421356237309509
10
-55.42569307953309
20
11.585391051478533
0
LWPOLYLINE
5
113
100
AcDbEntity
8
0
100
AcDbPolyline
90
8
70
1
43
0.0
10
-44.425693079533119
20
11.585391051478528
42
-0.41421356237309509
10
-43.425693079533119
20
10.585391051478531
10
-43.425693079533119
20
0.085229124511401327
42
-0.41421356237309542
10
-44.425693079533119
20
-0.91477087548859881
10
-47.42569307953309
20
-0.91477087548859637
42
-0.41421356237309542
10
-48.425693079533083
20
0.085229124511401189
10
-48.425693079533083
20
10.585391051478531
42
-0.41421356237309509
10
-47.42569307953309
20
11.585391051478533
0
LWPOLYLINE
5
114
100
AcDbEntity
8
0
100
AcDbPolyline
90
8
70
1
43
0.0
10
-36.425693079533104
20
-5.9146089485214679
42
-0.4142135623730947
10
-35.425693079533104
20
-6.9146089485214679
10
-35.425693079533104
20
-17.4147708754886
42
-0.41421356237309243
10
-36.425693079533104
20
-18.4147708754886
10
-39.425693079533076
20
-18.4147708754886
42
-0.4142135623730937
10
-40.425693079533076
20
-17.4147708754886
10
-40.425693079533076
20
-6.9146089485214679
42
-0.41421356237309409
10
-39.425693079533076
20
-5.9146089485214679
0
LWPOLYLINE
5
115
100
AcDbEntity
8
0
100
AcDbPolyline
90
8
70
1
43
0.0
10
-36.425693079533104
20
11.585391051478531
42
-0.41421356237309176
10
-35.425693079533104
20
10.585391051478531
10
-35.425693079533112
20
0.085229124511401161
42
-0.41421356237309298
10
-36.425693079533104
20
-0.91477087548859881
10
-39.425693079533076
20
-0.91477087548860081
42
-0.41421356237309415
10
-40.425693079533076
20
0.085229124511401189
10
-40.425693079533076
20
10.585391051478531
42
-0.4142135623730937
10
-39.425693079533076
20
11.585391051478533
0
LWPOLYLINE
5
116
100
AcDbEntity
8
0
100
AcDbPolyline
90
16
70
1
43
0.0
10
-2.9258656467386186
20
27.085391051478513
10
-2.9258656467386182
20
-23.415258163907559
10
-12.925693079533085
20
-23.415258163907552
10
-12.925693079533085
20
-28.915258163907559
10
-30.425693079533083
20
-28.915258163907559
10
-30.425693079533083
20
-23.415258163907552
10
-45.42569307953309
20
-23.415258163907552
10
-45.42569307953309
20
-28.915258163907559
10
-62.92569307953309
20
-28.915258163907559
10
-62.92569307953309
20
-23.415258163907552
10
-72.925520512327623
20
-23.415258163907559
10
-72.925520512327623
20
27.085391051478513
10
-78.425520512327608
20
27.085391051478513
10
-78.425520512327608
20
37.08539105147851
10
2.5741343532613818
20
37.08539105147851
10
2.5741343532613818
20
27.085391051478513
0
ENDSEC
0
SECTION
2
OBJECTS
0
DICTIONARY
5
C
100
AcDbDictionary
3
ACAD_GROUP
350
D
3
ACAD_MLINESTYLE
350
17
0
DICTIONARY
5
D
100
AcDbDictionary
0
DICTIONARY
5
1A
330
C
100
AcDbDictionary
0
DICTIONARY
5
17
100
AcDbDictionary
0
ENDSEC
0
EOF
