0
SECTION
2
HEADER
9
$INSUNITS
70
4
9
$ACADVER
1
AC1014
9
$HANDSEED
5
FFFF
0
ENDSEC
0
SECTION
2
TABLES
0
TABLE
2
VPORT
5
8
100
AcDbSymbolTable
0
ENDTAB
0
TABLE
2
LTYPE
5
5
100
AcDbSymbolTable
0
LTYPE
5
14
100
AcDbSymbolTableRecord
100
AcDbLinetypeTableRecord
2
BYBLOCK
70
0
0
LTYPE
5
15
100
AcDbSymbolTableRecord
100
AcDbLinetypeTableRecord
2
BYLAYER
70
0
0
ENDTAB
0
TABLE
2
LAYER
5
2
100
AcDbSymbolTable
70
2
0
LAYER
5
50
100
AcDbSymbolTableRecord
100
AcDbLayerTableRecord
2
0
70
0
6
CONTINUOUS
0
ENDTAB
0
TABLE
2
STYLE
5
3
100
AcDbSymbolTable
70
1
0
STYLE
5
11
100
AcDbSymbolTableRecord
100
AcDbTextStyleTableRecord
2
STANDARD
70
0
0
ENDTAB
0
TABLE
2
VIEW
5
6
100
AcDbSymbolTable
70
0
0
ENDTAB
0
TABLE
2
UCS
5
7
100
AcDbSymbolTable
70
0
0
ENDTAB
0
TABLE
2
APPID
5
9
100
AcDbSymbolTable
70
2
0
APPID
5
12
100
AcDbSymbolTableRecord
100
AcDbRegAppTableRecord
2
ACAD
70
0
0
ENDTAB
0
TABLE
2
DIMSTYLE
5
A
100
AcDbSymbolTable
70
1
0
ENDTAB
0
TABLE
2
BLOCK_RECORD
5
1
100
AcDbSymbolTable
70
1
0
BLOCK_RECORD
5
1F
100
AcDbSymbolTableRecord
100
AcDbBlockTableRecord
2
*MODEL_SPACE
0
BLOCK_RECORD
5
1B
100
AcDbSymbolTableRecord
100
AcDbBlockTableRecord
2
*PAPER_SPACE
0
ENDTAB
0
ENDSEC
0
SECTION
2
BLOCKS
0
BLOCK
5
20
100
AcDbEntity
100
AcDbBlockBegin
2
*MODEL_SPACE
0
ENDBLK
5
21
100
AcDbEntity
100
AcDbBlockEnd
0
BLOCK
5
1C
100
AcDbEntity
100
AcDbBlockBegin
2
*PAPER_SPACE
0
ENDBLK
5
1D
100
AcDbEntity
100
AcDbBlockEnd
0
ENDSEC
0
SECTION
2
ENTITIES
0
CIRCLE
5
100
100
AcDbEntity
8
0
100
AcDbCircle
10
-47.699713742947331
20
-7.9152581162237956
30
0
40
1.6000000000000014
210
1.5897148795953897e-68
220
4.3790577010150533e-47
230
1
0
CIRCLE
5
101
100
AcDbEntity
8
0
100
AcDbCircle
10
90.216736406011066
20
39.835094504562321
30
0
40
4.0000000000000036
210
-2.4839288084752997e-70
220
6.1629758220415632e-33
230
1
0
CIRCLE
5
102
100
AcDbEntity
8
0
100
AcDbCircle
10
14.466456210811137
20
1.863102022806749
30
0
40
1.5999999999999992
210
3.5032461608120372e-46
220
4.3790577010150533e-47
230
1
0
CIRCLE
5
103
100
AcDbEntity
8
0
100
AcDbCircle
10
62.466456210811423
20
9.8631020228067143
30
0
40
1.6000000000000014
210
-5.5981073544937812e-61
220
4.3790577010150533e-47
230
1
0
CIRCLE
5
104
100
AcDbEntity
8
0
100
AcDbCircle
10
-33.533543789188798
20
9.8631020228067321
30
0
40
1.6000000000000014
210
-5.5981073544937812e-61
220
4.3790577010150533e-47
230
1
0
LWPOLYLINE
5
105
100
AcDbEntity
8
0
100
AcDbPolyline
90
14
70
1
43
0.0
10
-66.133713742947435
20
27.085391099162234
10
-60.43371374294744
20
27.085391099162234
10
-60.433713742947447
20
37.08539109916223
10
76.466441958050893
20
37.085391099162237
10
83.827486651246531
20
49.835094504562321
10
99.966441958050893
20
49.835094504562321
10
99.966441958050893
20
-43.915258116223853
10
80.882435995847558
20
-43.915258116223853
10
75.882435995847558
20
-33.915258116223846
10
-41.033411948081309
20
-33.915258116223839
10
-46.033411948081309
20
-43.915258116223839
10
-71.033411948081309
20
-43.915258116223839
10
-71.033411948081309
20
37.08539109916223
10
-66.133713742947435
20
37.08539109916223
0
CIRCLE
5
106
100
AcDbEntity
8
0
100
AcDbCircle
10
76.632055210811259
20
-7.9152581162238489
30
0
40
1.6000000000000014
210
1.5897148795953897e-68
220
4.3790577010150533e-47
230
1
0
LWPOLYLINE
5
107
100
AcDbEntity
8
0
100
AcDbPolyline
90
4
70
1
43
0.0
10
89.366286257052593
20
13.235066491469203
10
95.066286257052582
20
13.235066491469203
10
95.066286257052582
20
23.435066491469211
10
89.366286257052593
20
23.435066491469211
0
LWPOLYLINE
5
108
100
AcDbEntity
8
0
100
AcDbPolyline
90
4
70
1
43
0.0
10
-40.299482696706015
20
-29.015258116223833
10
-31.448482696706019
20
-29.015258116223833
10
-31.448482696706019
20
-23.315258116223841
10
-40.299482696706015
20
-23.315258116223841
0
LWPOLYLINE
5
109
100
AcDbEntity
8
0
100
AcDbPolyline
90
4
70
1
43
0.0
10
89.366286257052593
20
-18.264933508530795
10
95.066286257052582
20
-18.264933508530795
10
95.066286257052582
20
-8.0649335085307943
10
89.366286257052593
20
-8.064933508530796
0
LWPOLYLINE
5
110
100
AcDbEntity
8
0
100
AcDbPolyline
90
4
70
1
43
0.0
10
60.381286257052565
20
-29.015258116223514
10
69.232286257052564
20
-29.015258116223514
10
69.232286257052564
20
-23.315258116223522
10
60.381286257052565
20
-23.315258116223522
0
ENDSEC
0
SECTION
2
OBJECTS
0
DICTIONARY
5
C
100
AcDbDictionary
3
ACAD_GROUP
350
D
3
ACAD_MLINESTYLE
350
17
0
DICTIONARY
5
D
100
AcDbDictionary
0
DICTIONARY
5
1A
330
C
100
AcDbDictionary
0
DICTIONARY
5
17
100
AcDbDictionary
0
ENDSEC
0
EOF
