0
SECTION
2
HEADER
9
$INSUNITS
70
4
9
$ACADVER
1
AC1014
9
$HANDSEED
5
FFFF
0
ENDSEC
0
SECTION
2
TABLES
0
TABLE
2
VPORT
5
8
100
AcDbSymbolTable
0
ENDTAB
0
TABLE
2
LTYPE
5
5
100
AcDbSymbolTable
0
LTYPE
5
14
100
AcDbSymbolTableRecord
100
AcDbLinetypeTableRecord
2
BYBLOCK
70
0
0
LTYPE
5
15
100
AcDbSymbolTableRecord
100
AcDbLinetypeTableRecord
2
BYLAYER
70
0
0
ENDTAB
0
TABLE
2
LAYER
5
2
100
AcDbSymbolTable
70
2
0
LAYER
5
50
100
AcDbSymbolTableRecord
100
AcDbLayerTableRecord
2
0
70
0
6
CONTINUOUS
0
ENDTAB
0
TABLE
2
STYLE
5
3
100
AcDbSymbolTable
70
1
0
STYLE
5
11
100
AcDbSymbolTableRecord
100
AcDbTextStyleTableRecord
2
STANDARD
70
0
0
ENDTAB
0
TABLE
2
VIEW
5
6
100
AcDbSymbolTable
70
0
0
ENDTAB
0
TABLE
2
UCS
5
7
100
AcDbSymbolTable
70
0
0
ENDTAB
0
TABLE
2
APPID
5
9
100
AcDbSymbolTable
70
2
0
APPID
5
12
100
AcDbSymbolTableRecord
100
AcDbRegAppTableRecord
2
ACAD
70
0
0
ENDTAB
0
TABLE
2
DIMSTYLE
5
A
100
AcDbSymbolTable
70
1
0
ENDTAB
0
TABLE
2
BLOCK_RECORD
5
1
100
AcDbSymbolTable
70
1
0
BLOCK_RECORD
5
1F
100
AcDbSymbolTableRecord
100
AcDbBlockTableRecord
2
*MODEL_SPACE
0
BLOCK_RECORD
5
1B
100
AcDbSymbolTableRecord
100
AcDbBlockTableRecord
2
*PAPER_SPACE
0
ENDTAB
0
ENDSEC
0
SECTION
2
BLOCKS
0
BLOCK
5
20
100
AcDbEntity
100
AcDbBlockBegin
2
*MODEL_SPACE
0
ENDBLK
5
21
100
AcDbEntity
100
AcDbBlockEnd
0
BLOCK
5
1C
100
AcDbEntity
100
AcDbBlockBegin
2
*PAPER_SPACE
0
ENDBLK
5
1D
100
AcDbEntity
100
AcDbBlockEnd
0
ENDSEC
0
SECTION
2
ENTITIES
0
LWPOLYLINE
5
100
100
AcDbEntity
8
0
100
AcDbPolyline
90
28
70
1
43
0.0
10
28.250693079533367
20
22.084391051478548
10
47.600693079533364
20
22.084391051478548
10
47.600693079533372
20
34.085391051478553
10
72.925520512327608
20
34.085391051478531
10
72.925520512327608
20
23.33506644378549
10
78.425520512327623
20
23.335066443785493
10
78.425520512327623
20
13.335066443785488
10
72.925520512327608
20
13.335066443785488
10
72.925520512327623
20
-8.1649335562145158
10
78.425520512327623
20
-8.1649335562145158
10
78.425520512327623
20
-18.164933556214518
10
72.925520512327623
20
-18.164933556214518
10
72.925520512327608
20
-23.415258163907563
10
44.925693079533112
20
-23.415258163907566
10
44.925693079533112
20
-22.415258163907566
10
30.925693079533112
20
-22.415258163907566
10
30.925693079533104
20
-23.415258163907566
10
2.9258656467385973
20
-23.415258163907563
10
2.9258656467385924
20
-18.164933556214521
10
-2.5741343532614094
20
-18.164933556214521
10
-2.5741343532614094
20
-8.1649335562145193
10
2.9258656467385924
20
-8.1649335562145193
10
2.9258656467385933
20
13.335066443785484
10
-2.5741343532614125
20
13.335066443785484
10
-2.5741343532614129
20
23.33506644378549
10
2.9258656467385928
20
23.335066443785493
10
2.925865646738588
20
34.085391051478531
10
28.250693079533367
20
34.085391051478553
0
LWPOLYLINE
5
101
100
AcDbEntity
8
0
100
AcDbPolyline
90
8
70
1
43
0.0
10
35.425693079533119
20
10.585391051478535
42
-0.41421356237309509
10
36.425693079533119
20
11.585391051478535
10
39.42569307953309
20
11.585391051478535
42
-0.4142135623730937
10
40.425693079533083
20
10.585391051478535
10
40.425693079533083
20
0.0852291245114013
42
-0.41421356237309426
10
39.42569307953309
20
-0.91477087548859992
10
36.425693079533119
20
-0.91477087548860192
42
-0.41421356237309315
10
35.425693079533119
20
0.085229124511401189
0
LWPOLYLINE
5
102
100
AcDbEntity
8
0
100
AcDbPolyline
90
8
70
1
43
0.0
10
35.425693079533119
20
-6.9146089485214688
42
-0.4142135623730947
10
36.425693079533119
20
-5.9146089485214706
10
39.42569307953309
20
-5.9146089485214679
42
-0.4142135623730937
10
40.425693079533083
20
-6.9146089485214679
10
40.425693079533083
20
-17.4147708754886
42
-0.41421356237309437
10
39.42569307953309
20
-18.414770875488603
10
36.425693079533119
20
-18.414770875488603
42
-0.41421356237309243
10
35.425693079533119
20
-17.414770875488603
0
LWPOLYLINE
5
103
100
AcDbEntity
8
0
100
AcDbPolyline
90
8
70
1
43
0.0
10
43.425693079533119
20
10.585391051478535
42
-0.41421356237309509
10
44.425693079533126
20
11.585391051478535
10
47.425693079533097
20
11.585391051478531
42
-0.41421356237309509
10
48.42569307953309
20
10.585391051478535
10
48.42569307953309
20
0.0852291245114013
42
-0.41421356237309553
10
47.425693079533097
20
-0.91477087548859992
10
44.425693079533126
20
-0.91477087548859704
42
-0.41421356237309565
10
43.425693079533126
20
0.085229124511401189
0
LWPOLYLINE
5
104
100
AcDbEntity
8
0
100
AcDbPolyline
90
8
70
1
43
0.0
10
51.425693079533126
20
10.585391051478535
42
-0.41421356237309509
10
52.425693079533133
20
11.585391051478535
10
55.425693079533104
20
11.585391051478531
42
-0.41421356237309509
10
56.425693079533097
20
10.585391051478535
10
56.425693079533097
20
0.0852291245114013
42
-0.41421356237309553
10
55.425693079533104
20
-0.91477087548859992
10
52.425693079533133
20
-0.91477087548859704
42
-0.41421356237309565
10
51.425693079533133
20
0.085229124511401189
0
LWPOLYLINE
5
105
100
AcDbEntity
8
0
100
AcDbPolyline
90
8
70
1
43
0.0
10
43.425693079533126
20
-6.9146089485214688
42
-0.4142135623730957
10
44.425693079533126
20
-5.9146089485214706
10
47.425693079533097
20
-5.9146089485214723
42
-0.41421356237309509
10
48.42569307953309
20
-6.9146089485214679
10
48.425693079533104
20
-17.4147708754886
42
-0.4142135623730957
10
47.425693079533097
20
-18.414770875488603
10
44.425693079533126
20
-18.4147708754886
42
-0.41421356237309509
10
43.425693079533126
20
-17.414770875488603
0
LWPOLYLINE
5
106
100
AcDbEntity
8
0
100
AcDbPolyline
90
8
70
1
43
0.0
10
51.425693079533133
20
-6.9146089485214688
42
-0.4142135623730957
10
52.425693079533133
20
-5.9146089485214706
10
55.425693079533104
20
-5.9146089485214723
42
-0.41421356237309509
10
56.425693079533097
20
-6.9146089485214679
10
56.425693079533104
20
-17.4147708754886
42
-0.4142135623730957
10
55.425693079533104
20
-18.414770875488603
10
52.425693079533133
20
-18.4147708754886
42
-0.41421356237309509
10
51.425693079533133
20
-17.414770875488603
0
LWPOLYLINE
5
107
100
AcDbEntity
8
0
100
AcDbPolyline
90
8
70
1
43
0.0
10
59.425693079533147
20
10.585391051478535
42
-0.41421356237309509
10
60.425693079533147
20
11.585391051478535
10
63.425693079533119
20
11.585391051478531
42
-0.41421356237309509
10
64.425693079533119
20
10.585391051478535
10
64.425693079533119
20
0.0852291245114013
42
-0.41421356237309553
10
63.425693079533119
20
-0.91477087548859992
10
60.425693079533147
20
-0.91477087548859704
42
-0.41421356237309565
10
59.425693079533147
20
0.085229124511401189
0
LWPOLYLINE
5
108
100
AcDbEntity
8
0
100
AcDbPolyline
90
8
70
1
43
0.0
10
59.425693079533147
20
-6.9146089485214688
42
-0.4142135623730957
10
60.425693079533147
20
-5.9146089485214706
10
63.425693079533119
20
-5.9146089485214723
42
-0.41421356237309509
10
64.425693079533119
20
-6.9146089485214679
10
64.425693079533119
20
-17.4147708754886
42
-0.4142135623730957
10
63.425693079533119
20
-18.414770875488603
10
60.425693079533147
20
-18.4147708754886
42
-0.41421356237309509
10
59.425693079533147
20
-17.414770875488603
0
LWPOLYLINE
5
109
100
AcDbEntity
8
0
100
AcDbPolyline
90
8
70
1
43
0.0
10
27.425693079533104
20
10.585391051478529
42
-0.41421356237309309
10
28.425693079533104
20
11.585391051478531
10
31.425693079533076
20
11.585391051478531
42
-0.41421356237309637
10
32.425693079533083
20
10.585391051478529
10
32.425693079533083
20
0.085229124511401327
42
-0.41421356237309315
10
31.425693079533083
20
-0.91477087548860014
10
28.425693079533112
20
-0.91477087548859837
42
-0.4142135623730947
10
27.425693079533104
20
0.085229124511396748
0
LWPOLYLINE
5
110
100
AcDbEntity
8
0
100
AcDbPolyline
90
8
70
1
43
0.0
10
19.425693079533101
20
10.585391051478529
42
-0.4142135623730957
10
20.425693079533097
20
11.585391051478531
10
23.425693079533065
20
11.585391051478533
42
-0.41421356237309309
10
24.425693079533069
20
10.585391051478529
10
24.425693079533069
20
0.085229124511396886
42
-0.41421356237309248
10
23.425693079533069
20
-0.91477087548860436
10
20.425693079533097
20
-0.9147708754886037
42
-0.41421356237309509
10
19.425693079533097
20
0.085229124511396748
0
LWPOLYLINE
5
111
100
AcDbEntity
8
0
100
AcDbPolyline
90
8
70
1
43
0.0
10
11.425693079533119
20
10.585391051478529
42
-0.41421356237309509
10
12.425693079533124
20
11.585391051478531
10
15.425693079533096
20
11.585391051478531
42
-0.4142135623730937
10
16.425693079533097
20
10.585391051478529
10
16.425693079533097
20
0.085229124511396873
42
-0.41421356237309431
10
15.425693079533097
20
-0.91477087548860458
10
12.425693079533126
20
-0.91477087548860292
42
-0.41421356237309598
10
11.425693079533122
20
0.085229124511396748
0
LWPOLYLINE
5
112
100
AcDbEntity
8
0
100
AcDbPolyline
90
8
70
1
43
0.0
10
27.425693079533104
20
-6.9146089485214688
42
-0.41421356237309409
10
28.425693079533104
20
-5.9146089485214706
10
31.425693079533076
20
-5.9146089485214688
42
-0.41421356237309598
10
32.425693079533083
20
-6.9146089485214679
10
32.425693079533083
20
-17.414770875488607
42
-0.41421356237309309
10
31.425693079533083
20
-18.414770875488607
10
28.425693079533112
20
-18.414770875488607
42
-0.41421356237309309
10
27.425693079533104
20
-17.414770875488607
0
LWPOLYLINE
5
113
100
AcDbEntity
8
0
100
AcDbPolyline
90
8
70
1
43
0.0
10
19.425693079533097
20
-6.9146089485214715
42
-0.41421356237309437
10
20.425693079533097
20
-5.9146089485214723
10
23.425693079533069
20
-5.9146089485214741
42
-0.41421356237309409
10
24.425693079533069
20
-6.9146089485214723
10
24.425693079533069
20
-17.414770875488607
42
-0.41421356237309243
10
23.425693079533069
20
-18.414770875488607
10
20.425693079533104
20
-18.414770875488607
42
-0.41421356237309437
10
19.425693079533097
20
-17.414770875488607
0
LWPOLYLINE
5
114
100
AcDbEntity
8
0
100
AcDbPolyline
90
8
70
1
43
0.0
10
11.425693079533122
20
-6.9146089485214732
42
-0.41421356237309698
10
12.425693079533126
20
-5.914608948521475
10
15.425693079533094
20
-5.9146089485214741
42
-0.4142135623730947
10
16.425693079533097
20
-6.9146089485214723
10
16.425693079533097
20
-17.414770875488607
42
-0.4142135623730937
10
15.425693079533097
20
-18.414770875488607
10
12.425693079533126
20
-18.414770875488607
42
-0.41421356237309437
10
11.425693079533122
20
-17.414770875488607
0
ENDSEC
0
SECTION
2
OBJECTS
0
DICTIONARY
5
C
100
AcDbDictionary
3
ACAD_GROUP
350
D
3
ACAD_MLINESTYLE
350
17
0
DICTIONARY
5
D
100
AcDbDictionary
0
DICTIONARY
5
1A
330
C
100
AcDbDictionary
0
DICTIONARY
5
17
100
AcDbDictionary
0
ENDSEC
0
EOF
