0
SECTION
2
HEADER
9
$INSUNITS
70
4
9
$ACADVER
1
AC1014
9
$HANDSEED
5
FFFF
0
ENDSEC
0
SECTION
2
TABLES
0
TABLE
2
VPORT
5
8
100
AcDbSymbolTable
0
ENDTAB
0
TABLE
2
LTYPE
5
5
100
AcDbSymbolTable
0
LTYPE
5
14
100
AcDbSymbolTableRecord
100
AcDbLinetypeTableRecord
2
BYBLOCK
70
0
0
LTYPE
5
15
100
AcDbSymbolTableRecord
100
AcDbLinetypeTableRecord
2
BYLAYER
70
0
0
ENDTAB
0
TABLE
2
LAYER
5
2
100
AcDbSymbolTable
70
2
0
LAYER
5
50
100
AcDbSymbolTableRecord
100
AcDbLayerTableRecord
2
0
70
0
6
CONTINUOUS
0
ENDTAB
0
TABLE
2
STYLE
5
3
100
AcDbSymbolTable
70
1
0
STYLE
5
11
100
AcDbSymbolTableRecord
100
AcDbTextStyleTableRecord
2
STANDARD
70
0
0
ENDTAB
0
TABLE
2
VIEW
5
6
100
AcDbSymbolTable
70
0
0
ENDTAB
0
TABLE
2
UCS
5
7
100
AcDbSymbolTable
70
0
0
ENDTAB
0
TABLE
2
APPID
5
9
100
AcDbSymbolTable
70
2
0
APPID
5
12
100
AcDbSymbolTableRecord
100
AcDbRegAppTableRecord
2
ACAD
70
0
0
ENDTAB
0
TABLE
2
DIMSTYLE
5
A
100
AcDbSymbolTable
70
1
0
ENDTAB
0
TABLE
2
BLOCK_RECORD
5
1
100
AcDbSymbolTable
70
1
0
BLOCK_RECORD
5
1F
100
AcDbSymbolTableRecord
100
AcDbBlockTableRecord
2
*MODEL_SPACE
0
BLOCK_RECORD
5
1B
100
AcDbSymbolTableRecord
100
AcDbBlockTableRecord
2
*PAPER_SPACE
0
ENDTAB
0
ENDSEC
0
SECTION
2
BLOCKS
0
BLOCK
5
20
100
AcDbEntity
100
AcDbBlockBegin
2
*MODEL_SPACE
0
ENDBLK
5
21
100
AcDbEntity
100
AcDbBlockEnd
0
BLOCK
5
1C
100
AcDbEntity
100
AcDbBlockBegin
2
*PAPER_SPACE
0
ENDBLK
5
1D
100
AcDbEntity
100
AcDbBlockEnd
0
ENDSEC
0
SECTION
2
ENTITIES
0
LWPOLYLINE
5
100
100
AcDbEntity
8
0
100
AcDbPolyline
90
14
70
1
43
0.0
10
60.43371374294744
20
27.08539109916223
10
66.133713742947435
20
27.08539109916223
10
66.133713742947435
20
37.08539109916223
10
71.033411948081309
20
37.085391099162237
10
71.033411948081309
20
-43.915258116223853
10
46.033411948081309
20
-43.915258116223839
10
41.033411948081309
20
-33.915258116223846
10
-75.882435995847558
20
-33.915258116223846
10
-80.882435995847558
20
-43.915258116223853
10
-99.966441958050893
20
-43.915258116223853
10
-99.966441958050893
20
49.835094504562321
10
-83.827486651246531
20
49.835094504562321
10
-76.466441958050908
20
37.08539109916223
10
60.43371374294744
20
37.08539109916223
0
LWPOLYLINE
5
101
100
AcDbEntity
8
0
100
AcDbPolyline
90
4
70
1
43
0.0
10
-69.232286257052564
20
-29.015258116223521
10
-60.381286257052565
20
-29.015258116223521
10
-60.381286257052565
20
-23.315258116223525
10
-69.232286257052564
20
-23.315258116223525
0
LWPOLYLINE
5
102
100
AcDbEntity
8
0
100
AcDbPolyline
90
4
70
1
43
0.0
10
-95.066286257052582
20
-18.264933508530795
10
-89.366286257052593
20
-18.264933508530795
10
-89.366286257052593
20
-8.064933508530796
10
-95.066286257052582
20
-8.064933508530796
0
LWPOLYLINE
5
103
100
AcDbEntity
8
0
100
AcDbPolyline
90
4
70
1
43
0.0
10
31.448482696706019
20
-29.015258116223841
10
40.299482696706015
20
-29.015258116223841
10
40.299482696706015
20
-23.315258116223845
10
31.448482696706019
20
-23.315258116223845
0
LWPOLYLINE
5
104
100
AcDbEntity
8
0
100
AcDbPolyline
90
4
70
1
43
0.0
10
-95.066286257052582
20
13.235066491469203
10
-89.366286257052593
20
13.235066491469203
10
-89.366286257052593
20
23.435066491469208
10
-95.066286257052582
20
23.435066491469208
0
CIRCLE
5
105
100
AcDbEntity
8
0
100
AcDbCircle
10
-76.632055210811259
20
-7.9152581162238498
30
0
40
1.6000000000000014
210
3.3194795685601624e-121
220
-8.2360921431488463e-84
230
1
0
CIRCLE
5
106
100
AcDbEntity
8
0
100
AcDbCircle
10
33.533883696706312
20
9.8631020228066628
30
0
40
1.6000000000000014
210
0
220
0
230
1
0
CIRCLE
5
107
100
AcDbEntity
8
0
100
AcDbCircle
10
-14.466116303293976
20
1.8631020228066963
30
0
40
1.5999999999999992
210
3.5032461608120427e-46
220
0
230
1
0
CIRCLE
5
108
100
AcDbEntity
8
0
100
AcDbCircle
10
-62.466116303293909
20
9.8631020228066824
30
0
40
1.6000000000000014
210
0
220
0
230
1
0
CIRCLE
5
109
100
AcDbEntity
8
0
100
AcDbCircle
10
-90.216736406011066
20
39.835094504562321
30
0
40
4.0000000000000036
210
3.5435537098585599e-136
220
5.443469466914914e-76
230
1
0
CIRCLE
5
110
100
AcDbEntity
8
0
100
AcDbCircle
10
47.699713742947331
20
-7.9152581162237965
30
0
40
1.6000000000000014
210
3.3194795685601624e-121
220
-8.2360921431488463e-84
230
1
0
LWPOLYLINE
5
111
100
AcDbEntity
8
0
100
AcDbPolyline
90
8
70
1
43
0.0
10
-64.879169259607536
20
-6.9149342622896786
42
-0.41421356237309537
10
-63.879169259607536
20
-5.9149342622896786
10
-60.879169259607565
20
-5.9149342622896803
42
-0.41421356237309537
10
-59.879169259607572
20
-6.9149342622896786
10
-59.879169259607572
20
-17.415096189256808
42
-0.41421356237309509
10
-60.879169259607565
20
-18.415096189256811
10
-63.879169259607536
20
-18.415096189256804
42
-0.41421356237309509
10
-64.879169259607536
20
-17.415096189256808
0
LWPOLYLINE
5
112
100
AcDbEntity
8
0
100
AcDbPolyline
90
8
70
1
43
0.0
10
-0.87916925960751624
20
-6.9149342622896706
42
-0.41421356237309509
10
0.12083074039248354
20
-5.9149342622896706
10
3.1208307403924551
20
-5.9149342622896706
42
-0.41421356237309509
10
4.1208307403924547
20
-6.9149342622896715
10
4.1208307403924538
20
-17.415096189256801
42
-0.41421356237309637
10
3.1208307403924551
20
-18.415096189256801
10
0.1208307403924837
20
-18.415096189256801
42
-0.4142135623730962
10
-0.87916925960751646
20
-17.415096189256801
0
LWPOLYLINE
5
113
100
AcDbEntity
8
0
100
AcDbPolyline
90
8
70
1
43
0.0
10
-56.879169259607529
20
10.585065737710323
42
-0.41421356237309509
10
-55.879169259607536
20
11.585065737710325
10
-52.879169259607565
20
11.58506573771032
42
-0.41421356237309509
10
-51.879169259607565
20
10.585065737710323
10
-51.879169259607565
20
0.08490381074319113
42
-0.41421356237309515
10
-52.879169259607565
20
-0.91509618925680825
10
-55.879169259607536
20
-0.91509618925680525
42
-0.41421356237309542
10
-56.879169259607529
20
0.084903810743193198
0
LWPOLYLINE
5
114
100
AcDbEntity
8
0
100
AcDbPolyline
90
8
70
1
43
0.0
10
-0.87916925960751624
20
10.585065737710329
42
-0.4142135623730967
10
0.12083074039248354
20
11.58506573771033
10
3.1208307403924551
20
11.585065737710332
42
-0.41421356237309753
10
4.1208307403924547
20
10.58506573771033
10
4.1208307403924547
20
0.084903810743199998
42
-0.4142135623730957
10
3.1208307403924551
20
-0.91509618925680081
10
0.12083074039248375
20
-0.91509618925680103
42
-0.41421356237309509
10
-0.87916925960751646
20
0.084903810743199859
0
LWPOLYLINE
5
115
100
AcDbEntity
8
0
100
AcDbPolyline
90
8
70
1
43
0.0
10
-24.879169259607544
20
10.585065737710329
42
-0.41421356237309176
10
-23.87916925960754
20
11.58506573771033
10
-20.879169259607568
20
11.585065737710327
42
-0.41421356237309176
10
-19.879169259607568
20
10.585065737710329
10
-19.879169259607565
20
0.084903810743197777
42
-0.41421356237309437
10
-20.879169259607568
20
-0.91509618925680269
10
-23.87916925960754
20
-0.91509618925680491
42
-0.41421356237309304
10
-24.87916925960754
20
0.084903810743197639
0
LWPOLYLINE
5
116
100
AcDbEntity
8
0
100
AcDbPolyline
90
8
70
1
43
0.0
10
-24.87916925960754
20
-6.9149342622896715
42
-0.4142135623730947
10
-23.87916925960754
20
-5.9149342622896715
10
-20.879169259607568
20
-5.9149342622896715
42
-0.4142135623730947
10
-19.879169259607568
20
-6.9149342622896715
10
-19.879169259607568
20
-17.415096189256804
42
-0.41421356237309509
10
-20.879169259607568
20
-18.415096189256804
10
-23.87916925960754
20
-18.415096189256804
42
-0.41421356237309509
10
-24.87916925960754
20
-17.415096189256804
0
LWPOLYLINE
5
117
100
AcDbEntity
8
0
100
AcDbPolyline
90
8
70
1
43
0.0
10
23.120830740392471
20
10.58506573771033
42
-0.41421356237309509
10
24.120830740392467
20
11.58506573771033
10
27.120830740392439
20
11.585065737710332
42
-0.41421356237309509
10
28.120830740392439
20
10.58506573771033
10
28.120830740392439
20
0.084903810743199873
42
-0.41421356237309448
10
27.120830740392439
20
-0.91509618925680103
10
24.120830740392467
20
-0.9150961892568038
42
-0.41421356237309304
10
23.120830740392467
20
0.084903810743199859
0
LWPOLYLINE
5
118
100
AcDbEntity
8
0
100
AcDbPolyline
90
8
70
1
43
0.0
10
-48.879169259607522
20
10.585065737710327
42
-0.4142135623730957
10
-47.879169259607522
20
11.585065737710325
10
-44.879169259607551
20
11.585065737710325
42
-0.4142135623730957
10
-43.879169259607558
20
10.585065737710327
10
-43.879169259607558
20
0.084903810743193253
42
-0.41421356237309526
10
-44.879169259607551
20
-0.91509618925680658
10
-47.879169259607522
20
-0.91509618925680414
42
-0.41421356237309542
10
-48.879169259607522
20
0.084903810743193198
0
LWPOLYLINE
5
119
100
AcDbEntity
8
0
100
AcDbPolyline
90
8
70
1
43
0.0
10
15.120830740392499
20
10.58506573771033
42
-0.4142135623731002
10
16.120830740392499
20
11.58506573771033
10
19.120830740392471
20
11.58506573771033
42
-0.4142135623731002
10
20.120830740392467
20
10.58506573771033
10
20.120830740392467
20
0.084903810743199998
42
-0.41421356237309698
10
19.120830740392471
20
-0.91509618925680103
10
16.120830740392499
20
-0.91509618925680092
42
-0.41421356237309603
10
15.120830740392497
20
0.084903810743199859
0
LWPOLYLINE
5
120
100
AcDbEntity
8
0
100
AcDbPolyline
90
8
70
1
43
0.0
10
-40.879169259607515
20
10.585065737710327
42
-0.4142135623730957
10
-39.879169259607522
20
11.585065737710325
10
-36.879169259607551
20
11.585065737710327
42
-0.41421356237309509
10
-35.879169259607544
20
10.585065737710327
10
-35.879169259607544
20
0.084903810743195432
42
-0.41421356237309448
10
-36.879169259607551
20
-0.91509618925680547
10
-39.879169259607522
20
-0.9150961892568068
42
-0.41421356237309415
10
-40.879169259607515
20
0.084903810743195418
0
LWPOLYLINE
5
121
100
AcDbEntity
8
0
100
AcDbPolyline
90
8
70
1
43
0.0
10
-32.879169259607551
20
10.585065737710329
42
-0.41421356237309176
10
-31.879169259607547
20
11.58506573771033
10
-28.879169259607576
20
11.585065737710327
42
-0.41421356237309176
10
-27.879169259607576
20
10.585065737710329
10
-27.879169259607576
20
0.084903810743195557
42
-0.41421356237309409
10
-28.879169259607576
20
-0.9150961892568038
10
-31.879169259607547
20
-0.91509618925680658
42
-0.41421356237309304
10
-32.879169259607551
20
0.084903810743195418
0
LWPOLYLINE
5
122
100
AcDbEntity
8
0
100
AcDbPolyline
90
8
70
1
43
0.0
10
7.1208307403924911
20
10.58506573771033
42
-0.4142135623730967
10
8.1208307403924902
20
11.58506573771033
10
11.120830740392462
20
11.58506573771033
42
-0.4142135623731002
10
12.12083074039246
20
10.58506573771033
10
12.120830740392464
20
0.084903810743199845
42
-0.41421356237309631
10
11.120830740392462
20
-0.91509618925680103
10
8.1208307403924902
20
-0.91509618925680114
42
-0.41421356237309453
10
7.1208307403924911
20
0.084903810743199859
0
LWPOLYLINE
5
123
100
AcDbEntity
8
0
100
AcDbPolyline
90
8
70
1
43
0.0
10
-8.879169259607524
20
10.58506573771033
42
-0.4142135623730967
10
-7.879169259607524
20
11.58506573771033
10
-4.8791692596075524
20
11.585065737710332
42
-0.41421356237309753
10
-3.8791692596075524
20
10.58506573771033
10
-3.8791692596075524
20
0.084903810743199998
42
-0.4142135623730957
10
-4.8791692596075524
20
-0.91509618925680081
10
-7.879169259607524
20
-0.91509618925680114
42
-0.41421356237309453
10
-8.879169259607524
20
0.084903810743199859
0
LWPOLYLINE
5
124
100
AcDbEntity
8
0
100
AcDbPolyline
90
8
70
1
43
0.0
10
-8.8791692596075222
20
-6.9149342622896706
42
-0.4142135623730947
10
-7.879169259607524
20
-5.9149342622896706
10
-4.8791692596075524
20
-5.9149342622896706
42
-0.41421356237309509
10
-3.8791692596075524
20
-6.9149342622896715
10
-3.8791692596075533
20
-17.415096189256801
42
-0.41421356237309637
10
-4.8791692596075524
20
-18.415096189256801
10
-7.879169259607524
20
-18.415096189256804
42
-0.41421356237309698
10
-8.879169259607524
20
-17.415096189256801
0
LWPOLYLINE
5
125
100
AcDbEntity
8
0
100
AcDbPolyline
90
8
70
1
43
0.0
10
-16.879169259607529
20
-6.9149342622896706
42
-0.4142135623730977
10
-15.879169259607531
20
-5.9149342622896706
10
-12.87916925960756
20
-5.9149342622896715
42
-0.4142135623730977
10
-11.879169259607561
20
-6.9149342622896715
10
-11.879169259607558
20
-17.415096189256801
42
-0.4142135623730957
10
-12.87916925960756
20
-18.415096189256801
10
-15.879169259607531
20
-18.415096189256801
42
-0.41421356237309637
10
-16.879169259607533
20
-17.415096189256801
0
LWPOLYLINE
5
126
100
AcDbEntity
8
0
100
AcDbPolyline
90
8
70
1
43
0.0
10
31.120830740392478
20
-6.9149342622896706
42
-0.41421356237309309
10
32.120830740392478
20
-5.9149342622896706
10
35.120830740392449
20
-5.914934262289667
42
-0.41421356237309309
10
36.120830740392449
20
-6.9149342622896715
10
36.120830740392449
20
-17.415096189256801
42
-0.41421356237309437
10
35.120830740392449
20
-18.415096189256801
10
32.120830740392478
20
-18.415096189256801
42
-0.41421356237309509
10
31.120830740392474
20
-17.415096189256801
0
LWPOLYLINE
5
127
100
AcDbEntity
8
0
100
AcDbPolyline
90
8
70
1
43
0.0
10
23.120830740392471
20
-6.9149342622896706
42
-0.41421356237309309
10
24.120830740392467
20
-5.9149342622896706
10
27.120830740392439
20
-5.914934262289667
42
-0.41421356237309309
10
28.120830740392439
20
-6.9149342622896715
10
28.120830740392439
20
-17.415096189256801
42
-0.41421356237309437
10
27.120830740392439
20
-18.415096189256801
10
24.120830740392467
20
-18.415096189256801
42
-0.41421356237309509
10
23.120830740392467
20
-17.415096189256801
0
LWPOLYLINE
5
128
100
AcDbEntity
8
0
100
AcDbPolyline
90
8
70
1
43
0.0
10
15.120830740392499
20
-6.9149342622896706
42
-0.4142135623730977
10
16.120830740392499
20
-5.9149342622896706
10
19.120830740392471
20
-5.9149342622896715
42
-0.4142135623730977
10
20.120830740392467
20
-6.9149342622896715
10
20.120830740392467
20
-17.415096189256801
42
-0.41421356237309509
10
19.120830740392471
20
-18.415096189256801
10
16.120830740392499
20
-18.415096189256801
42
-0.41421356237309637
10
15.120830740392497
20
-17.415096189256801
0
LWPOLYLINE
5
129
100
AcDbEntity
8
0
100
AcDbPolyline
90
8
70
1
43
0.0
10
-40.879169259607515
20
-6.914934262289675
42
-0.41421356237309537
10
-39.879169259607522
20
-5.914934262289675
10
-36.879169259607551
20
-5.9149342622896715
42
-0.41421356237309309
10
-35.879169259607544
20
-6.9149342622896759
10
-35.879169259607544
20
-17.415096189256808
42
-0.41421356237309437
10
-36.879169259607551
20
-18.415096189256804
10
-39.879169259607522
20
-18.415096189256804
42
-0.4142135623730937
10
-40.879169259607515
20
-17.415096189256804
0
LWPOLYLINE
5
130
100
AcDbEntity
8
0
100
AcDbPolyline
90
8
70
1
43
0.0
10
-48.879169259607522
20
-6.9149342622896759
42
-0.41421356237309537
10
-47.879169259607522
20
-5.9149342622896759
10
-44.879169259607551
20
-5.9149342622896786
42
-0.41421356237309537
10
-43.879169259607558
20
-6.9149342622896759
10
-43.879169259607558
20
-17.415096189256804
42
-0.41421356237309509
10
-44.879169259607551
20
-18.415096189256804
10
-47.879169259607522
20
-18.415096189256801
42
-0.41421356237309509
10
-48.879169259607522
20
-17.415096189256804
0
LWPOLYLINE
5
131
100
AcDbEntity
8
0
100
AcDbPolyline
90
8
70
1
43
0.0
10
-56.879169259607529
20
-6.9149342622896768
42
-0.41421356237309537
10
-55.879169259607536
20
-5.9149342622896768
10
-52.879169259607565
20
-5.9149342622896794
42
-0.41421356237309537
10
-51.879169259607565
20
-6.9149342622896759
10
-51.879169259607565
20
-17.415096189256808
42
-0.4142135623730957
10
-52.879169259607565
20
-18.415096189256811
10
-55.879169259607536
20
-18.415096189256804
42
-0.41421356237309509
10
-56.879169259607529
20
-17.415096189256808
0
LWPOLYLINE
5
132
100
AcDbEntity
8
0
100
AcDbPolyline
90
8
70
1
43
0.0
10
-32.879169259607544
20
-6.9149342622896723
42
-0.41421356237309309
10
-31.879169259607547
20
-5.9149342622896732
10
-28.879169259607576
20
-5.9149342622896697
42
-0.41421356237309309
10
-27.879169259607576
20
-6.9149342622896715
10
-27.879169259607576
20
-17.415096189256801
42
-0.4142135623730957
10
-28.879169259607576
20
-18.415096189256804
10
-31.879169259607547
20
-18.415096189256804
42
-0.41421356237309509
10
-32.879169259607551
20
-17.415096189256804
0
LWPOLYLINE
5
133
100
AcDbEntity
8
0
100
AcDbPolyline
90
8
70
1
43
0.0
10
7.120830740392492
20
-6.9149342622896706
42
-0.4142135623730947
10
8.1208307403924902
20
-5.9149342622896706
10
11.120830740392462
20
-5.9149342622896715
42
-0.4142135623730977
10
12.12083074039246
20
-6.9149342622896715
10
12.120830740392464
20
-17.415096189256801
42
-0.4142135623730957
10
11.120830740392462
20
-18.415096189256801
10
8.1208307403924902
20
-18.415096189256804
42
-0.41421356237309698
10
7.1208307403924911
20
-17.415096189256801
0
ENDSEC
0
SECTION
2
OBJECTS
0
DICTIONARY
5
C
100
AcDbDictionary
3
ACAD_GROUP
350
D
3
ACAD_MLINESTYLE
350
17
0
DICTIONARY
5
D
100
AcDbDictionary
0
DICTIONARY
5
1A
330
C
100
AcDbDictionary
0
DICTIONARY
5
17
100
AcDbDictionary
0
ENDSEC
0
EOF
