0
SECTION
2
HEADER
9
$INSUNITS
70
4
9
$ACADVER
1
AC1014
9
$HANDSEED
5
FFFF
0
ENDSEC
0
SECTION
2
TABLES
0
TABLE
2
VPORT
5
8
100
AcDbSymbolTable
0
ENDTAB
0
TABLE
2
LTYPE
5
5
100
AcDbSymbolTable
0
LTYPE
5
14
100
AcDbSymbolTableRecord
100
AcDbLinetypeTableRecord
2
BYBLOCK
70
0
0
LTYPE
5
15
100
AcDbSymbolTableRecord
100
AcDbLinetypeTableRecord
2
BYLAYER
70
0
0
ENDTAB
0
TABLE
2
LAYER
5
2
100
AcDbSymbolTable
70
2
0
LAYER
5
50
100
AcDbSymbolTableRecord
100
AcDbLayerTableRecord
2
0
70
0
6
CONTINUOUS
0
ENDTAB
0
TABLE
2
STYLE
5
3
100
AcDbSymbolTable
70
1
0
STYLE
5
11
100
AcDbSymbolTableRecord
100
AcDbTextStyleTableRecord
2
STANDARD
70
0
0
ENDTAB
0
TABLE
2
VIEW
5
6
100
AcDbSymbolTable
70
0
0
ENDTAB
0
TABLE
2
UCS
5
7
100
AcDbSymbolTable
70
0
0
ENDTAB
0
TABLE
2
APPID
5
9
100
AcDbSymbolTable
70
2
0
APPID
5
12
100
AcDbSymbolTableRecord
100
AcDbRegAppTableRecord
2
ACAD
70
0
0
ENDTAB
0
TABLE
2
DIMSTYLE
5
A
100
AcDbSymbolTable
70
1
0
ENDTAB
0
TABLE
2
BLOCK_RECORD
5
1
100
AcDbSymbolTable
70
1
0
BLOCK_RECORD
5
1F
100
AcDbSymbolTableRecord
100
AcDbBlockTableRecord
2
*MODEL_SPACE
0
BLOCK_RECORD
5
1B
100
AcDbSymbolTableRecord
100
AcDbBlockTableRecord
2
*PAPER_SPACE
0
ENDTAB
0
ENDSEC
0
SECTION
2
BLOCKS
0
BLOCK
5
20
100
AcDbEntity
100
AcDbBlockBegin
2
*MODEL_SPACE
0
ENDBLK
5
21
100
AcDbEntity
100
AcDbBlockEnd
0
BLOCK
5
1C
100
AcDbEntity
100
AcDbBlockBegin
2
*PAPER_SPACE
0
ENDBLK
5
1D
100
AcDbEntity
100
AcDbBlockEnd
0
ENDSEC
0
SECTION
2
ENTITIES
0
LWPOLYLINE
5
100
100
AcDbEntity
8
0
100
AcDbPolyline
90
4
70
1
43
0.0
10
12.825693079533087
20
-60.43371374294744
10
12.825693079533087
20
-66.133713742947421
10
30.525693079533085
20
-66.133713742947435
10
30.525693079533088
20
-60.433713742947432
0
LWPOLYLINE
5
101
100
AcDbEntity
8
0
100
AcDbPolyline
90
4
70
1
43
0.0
10
45.325693079533089
20
-60.433713742947432
10
45.325693079533089
20
-66.133713742947435
10
63.025693079533085
20
-66.133713742947421
10
63.025693079533085
20
-60.43371374294744
0
LWPOLYLINE
5
102
100
AcDbEntity
8
0
100
AcDbPolyline
90
4
70
1
43
0.0
10
48.025693079533113
20
59.266286257052698
10
48.02569307953312
20
64.966286257052687
10
27.825693079533124
20
64.966286257052701
10
27.825693079533117
20
59.266286257052705
0
CIRCLE
5
103
100
AcDbEntity
8
0
100
AcDbCircle
10
67.925693079533417
20
-55.533713742947405
30
0
40
1.6000000000000014
210
0
220
-0
230
1
0
CIRCLE
5
104
100
AcDbEntity
8
0
100
AcDbCircle
10
7.9256930795333762
20
-55.533713742947377
30
0
40
1.5999999999999979
210
-1.540743955509789e-33
220
3.675070311929709e-67
230
1
0
CIRCLE
5
105
100
AcDbEntity
8
0
100
AcDbCircle
10
7.9256930795332448
20
84.466286257052587
30
0
40
1.6000000000000003
210
0
220
-0
230
1
0
CIRCLE
5
106
100
AcDbEntity
8
0
100
AcDbCircle
10
67.925693079533261
20
84.466286257052587
30
0
40
1.6000000000000014
210
0
220
-0
230
1
0
LWPOLYLINE
5
107
100
AcDbEntity
8
0
100
AcDbPolyline
90
12
70
1
43
0.0
10
51.36613711668069
20
42.659585699012645
42
-1.5221902149940756
10
44.372083427743434
20
16.978931697013437
42
-0.025401126773634056
10
43.021812676009141
20
16.392006230319389
42
-0.81990125513382284
10
39.982074862689323
20
15.613156863802438
42
-0.20703839539529431
10
28.872083427743434
20
18.63893169701344
42
-0.02540112677363161
10
27.521812676009169
20
18.052006230319403
42
-0.81990125513382783
10
24.482074862689146
20
17.273156863803791
42
-1.5221902149941298
10
31.476128551626587
20
42.953810865801785
42
-0.025401126773632168
10
32.826399303360851
20
43.540736332495825
42
-0.8199012551338436
10
35.866137116680711
20
44.319585699012478
42
-0.20703839539528723
10
46.976128551626559
20
41.293810865801788
42
-0.025401126773633501
10
48.326399303360823
20
41.880736332495843
42
-0.81990125513382894
0
LWPOLYLINE
5
108
100
AcDbEntity
8
0
100
AcDbPolyline
90
12
70
1
43
0.0
10
24.482074862689338
20
-13.726843136197393
42
-1.5221902149940774
10
31.476128551626562
20
11.953810865801826
42
-0.025401126773629722
10
32.82639930336083
20
12.540736332495865
42
-0.81990125513382472
10
35.866137116680797
20
13.31958569901175
42
-0.20703839539526903
10
46.976128551626516
20
10.293810865801856
42
-0.025401126773641498
10
48.326399303360816
20
10.880736332495909
42
-0.8199012551338043
10
51.366137116679731
20
11.659585699019013
42
-1.5221902149937834
10
44.372083427743405
20
-14.021068302986544
42
-0.025401126773636835
10
43.021812676009105
20
-14.607993769680593
42
-0.81990125513379897
10
39.982074862689394
20
-15.386843136198301
42
-0.20703839539531108
10
28.872083427743441
20
-12.361068302986553
42
-0.025401126773633501
10
27.521812676009144
20
-12.947993769680599
42
-0.81990125513381296
0
CIRCLE
5
109
100
AcDbEntity
8
0
100
AcDbCircle
10
59.692833741825133
20
68.466286270330627
30
0
40
1.6000000000000014
210
0
220
-0
230
1
0
CIRCLE
5
110
100
AcDbEntity
8
0
100
AcDbCircle
10
10.424105989685057
20
43.626371281407614
30
0
40
1.599999999999997
210
5.0864645339085047e-63
220
3.0814879110195774e-33
230
1
0
CIRCLE
5
111
100
AcDbEntity
8
0
100
AcDbCircle
10
65.424105989684946
20
40.306371281407593
30
0
40
1.5999999999999925
210
0
220
-0
230
1
0
CIRCLE
5
112
100
AcDbEntity
8
0
100
AcDbCircle
10
10.424105989685049
20
19.626371281407643
30
0
40
1.5999999999999992
210
-5.0864645339085057e-63
220
-3.0814879110195774e-33
230
1
0
CIRCLE
5
113
100
AcDbEntity
8
0
100
AcDbCircle
10
65.424105989684904
20
9.3063712814076514
30
0
40
1.5999999999999925
210
0
220
-0
230
1
0
CIRCLE
5
114
100
AcDbEntity
8
0
100
AcDbCircle
10
65.424105989684932
20
16.306371281407635
30
0
40
1.5999999999999925
210
0
220
-0
230
1
0
CIRCLE
5
115
100
AcDbEntity
8
0
100
AcDbCircle
10
65.42410598968489
20
-14.693628718592308
30
0
40
1.5999999999999925
210
0
220
-0
230
1
0
CIRCLE
5
116
100
AcDbEntity
8
0
100
AcDbCircle
10
10.424105989685046
20
12.62637128140762
30
0
40
1.599999999999997
210
5.0864645339085047e-63
220
3.0814879110195774e-33
230
1
0
CIRCLE
5
117
100
AcDbEntity
8
0
100
AcDbCircle
10
10.424105989685037
20
-11.373628718592352
30
0
40
1.5999999999999992
210
-5.0864645339085057e-63
220
-3.0814879110195774e-33
230
1
0
CIRCLE
5
118
100
AcDbEntity
8
0
100
AcDbCircle
10
59.692833741823804
20
-21.533713729669515
30
0
40
1.6000000000000014
210
0
220
-0
230
1
0
CIRCLE
5
119
100
AcDbEntity
8
0
100
AcDbCircle
10
16.155552421370416
20
50.466456210795911
30
0
40
1.5999999999999992
210
-5.0864645339085057e-63
220
-3.0814879110195774e-33
230
1
0
CIRCLE
5
120
100
AcDbEntity
8
0
100
AcDbCircle
10
16.155552421370455
20
-39.533543789204053
30
0
40
1.5999999999999992
210
-5.0864645339085057e-63
220
-3.0814879110195774e-33
230
1
0
CIRCLE
5
121
100
AcDbEntity
8
0
100
AcDbCircle
10
28.425210475850239
20
-23.619572485901934
30
0
40
1.599999999999997
210
7.3501406238594153e-67
220
3.0814879110195774e-33
230
1
0
CIRCLE
5
122
100
AcDbEntity
8
0
100
AcDbCircle
10
28.428007169182244
20
52.552699407816021
30
0
40
1.6000000000000059
210
7.3501406238594153e-67
220
3.0814879110195774e-33
230
1
0
CIRCLE
5
123
100
AcDbEntity
8
0
100
AcDbCircle
10
47.422855782246607
20
-23.619742435237463
30
0
40
1.6000000000000014
210
0
220
-0
230
1
0
CIRCLE
5
124
100
AcDbEntity
8
0
100
AcDbCircle
10
47.425652475578595
20
52.552529458480493
30
0
40
1.6000000000000014
210
0
220
-0
230
1
0
LWPOLYLINE
5
125
100
AcDbEntity
8
0
100
AcDbPolyline
90
30
70
1
43
0.0
10
2.9258656467386182
20
-71.033713742947427
10
2.9258656467386182
20
-40.199713742947417
10
-2.5741343532613827
20
-40.199713742947417
10
-2.5741343532613827
20
-31.54871374294742
10
2.9258656467386182
20
-31.54871374294742
10
2.9258656467386173
20
-31.548543789204153
10
4.9258656467386173
20
-31.548543789204153
10
4.9258656467386173
20
-17.54854378920415
10
2.9258656467386168
20
-17.54854378920415
10
2.925865646738615
20
46.481055210811192
10
4.9258656467386155
20
46.481055210811192
10
4.9258656467386146
20
60.481055210811192
10
-2.5741343532613854
20
60.481055210811192
10
-2.5741343532613854
20
69.132055210811188
10
2.925865646738615
20
69.132055210811188
10
2.9258656467386146
20
94.966286257052587
10
72.925520512327623
20
94.966286257052573
10
72.925520512327623
20
69.13228625705257
10
78.425520512327608
20
69.13228625705257
10
78.425520512327608
20
60.481286257052567
10
70.925520512327608
20
60.481286270330514
10
70.925520512327608
20
46.481286270330514
10
72.925520512327623
20
46.481286270330514
10
72.925520512327623
20
-17.548482696706017
10
70.925520512327608
20
-17.548482696706017
10
70.925520512327608
20
-31.548482696706017
10
78.425520512327608
20
-31.548482696706017
10
78.425520512327608
20
-40.199482696706013
10
72.925520512327623
20
-40.199482696706013
10
72.925520512327623
20
-71.033713742947413
0
ENDSEC
0
SECTION
2
OBJECTS
0
DICTIONARY
5
C
100
AcDbDictionary
3
ACAD_GROUP
350
D
3
ACAD_MLINESTYLE
350
17
0
DICTIONARY
5
D
100
AcDbDictionary
0
DICTIONARY
5
1A
330
C
100
AcDbDictionary
0
DICTIONARY
5
17
100
AcDbDictionary
0
ENDSEC
0
EOF
