0
SECTION
2
HEADER
9
$INSUNITS
70
4
9
$ACADVER
1
AC1014
9
$HANDSEED
5
FFFF
0
ENDSEC
0
SECTION
2
TABLES
0
TABLE
2
VPORT
5
8
100
AcDbSymbolTable
0
ENDTAB
0
TABLE
2
LTYPE
5
5
100
AcDbSymbolTable
0
LTYPE
5
14
100
AcDbSymbolTableRecord
100
AcDbLinetypeTableRecord
2
BYBLOCK
70
0
0
LTYPE
5
15
100
AcDbSymbolTableRecord
100
AcDbLinetypeTableRecord
2
BYLAYER
70
0
0
ENDTAB
0
TABLE
2
LAYER
5
2
100
AcDbSymbolTable
70
2
0
LAYER
5
50
100
AcDbSymbolTableRecord
100
AcDbLayerTableRecord
2
0
70
0
6
CONTINUOUS
0
ENDTAB
0
TABLE
2
STYLE
5
3
100
AcDbSymbolTable
70
1
0
STYLE
5
11
100
AcDbSymbolTableRecord
100
AcDbTextStyleTableRecord
2
STANDARD
70
0
0
ENDTAB
0
TABLE
2
VIEW
5
6
100
AcDbSymbolTable
70
0
0
ENDTAB
0
TABLE
2
UCS
5
7
100
AcDbSymbolTable
70
0
0
ENDTAB
0
TABLE
2
APPID
5
9
100
AcDbSymbolTable
70
2
0
APPID
5
12
100
AcDbSymbolTableRecord
100
AcDbRegAppTableRecord
2
ACAD
70
0
0
ENDTAB
0
TABLE
2
DIMSTYLE
5
A
100
AcDbSymbolTable
70
1
0
ENDTAB
0
TABLE
2
BLOCK_RECORD
5
1
100
AcDbSymbolTable
70
1
0
BLOCK_RECORD
5
1F
100
AcDbSymbolTableRecord
100
AcDbBlockTableRecord
2
*MODEL_SPACE
0
BLOCK_RECORD
5
1B
100
AcDbSymbolTableRecord
100
AcDbBlockTableRecord
2
*PAPER_SPACE
0
ENDTAB
0
ENDSEC
0
SECTION
2
BLOCKS
0
BLOCK
5
20
100
AcDbEntity
100
AcDbBlockBegin
2
*MODEL_SPACE
0
ENDBLK
5
21
100
AcDbEntity
100
AcDbBlockEnd
0
BLOCK
5
1C
100
AcDbEntity
100
AcDbBlockBegin
2
*PAPER_SPACE
0
ENDBLK
5
1D
100
AcDbEntity
100
AcDbBlockEnd
0
ENDSEC
0
SECTION
2
ENTITIES
0
CIRCLE
5
100
100
AcDbEntity
8
0
100
AcDbCircle
10
-17.92569307953336
20
84.466286257052516
30
0
40
1.6000000000000014
210
-0
220
0
230
1
0
CIRCLE
5
101
100
AcDbEntity
8
0
100
AcDbCircle
10
-57.925693079533367
20
84.466286257052516
30
0
40
1.6000000000000014
210
-0
220
0
230
1
0
CIRCLE
5
102
100
AcDbEntity
8
0
100
AcDbCircle
10
-67.925693079533417
20
-55.533713742947405
30
0
40
1.6000000000000014
210
0
220
-0
230
1
0
CIRCLE
5
103
100
AcDbEntity
8
0
100
AcDbCircle
10
-7.9256930795333762
20
-55.533713742947377
30
0
40
1.5999999999999979
210
0
220
-0
230
1
0
CIRCLE
5
104
100
AcDbEntity
8
0
100
AcDbCircle
10
-37.925235091295811
20
-47.533713758330421
30
0
40
1.6000000000000014
210
-0
220
0
230
1
0
LWPOLYLINE
5
105
100
AcDbEntity
8
0
100
AcDbPolyline
90
10
70
1
43
0.0
10
-40.924036084329245
20
-21.619555880143295
10
-40.924011795139492
20
-21.619555879553328
10
-40.924036084329245
20
-20.619555879848306
10
-40.924036084329238
20
49.966286245096086
42
0.41421356237309509
10
-42.924036084329238
20
51.966286245096086
10
-51.924036084329252
20
51.966286245096086
42
0.41421356237309637
10
-53.924036084329252
20
49.966286245096079
10
-53.924036084329259
20
-21.0337137549039
42
0.41421356237309509
10
-51.924036084329259
20
-23.0337137549039
10
-42.836309339984666
20
-23.033713754903896
42
0.32959130991948532
0
LWPOLYLINE
5
106
100
AcDbEntity
8
0
100
AcDbPolyline
90
10
70
1
43
0.0
10
-34.925880137572257
20
-20.619410189500329
10
-34.925880137572257
20
-20.619628718592395
10
-34.925880137572257
20
-21.033543793166679
42
0.41421356237309509
10
-32.925880137572257
20
-23.033543793166679
10
-23.925880137572261
20
-23.033543793166686
42
0.41421356237309509
10
-21.925880137572264
20
-21.033543793166682
10
-21.925880137572257
20
49.966456206833321
42
0.41421356237309509
10
-23.925880137572261
20
51.966456206833328
10
-32.925880137572257
20
51.966456206833328
42
0.4142135623730937
10
-34.92588013757225
20
49.966456206833328
0
LWPOLYLINE
5
107
100
AcDbEntity
8
0
100
AcDbPolyline
90
12
70
1
43
0.0
10
-2.9258656467386186
20
89.466286257052587
10
-2.9258656467386168
20
-60.533713742947441
10
-12.925693079533085
20
-60.533713742947441
10
-12.925693079533085
20
-66.033713742947441
10
-30.425693079533083
20
-66.033713742947441
10
-30.425693079533083
20
-60.533713742947441
10
-45.42569307953309
20
-60.533713742947441
10
-45.42569307953309
20
-66.033713742947441
10
-62.92569307953309
20
-66.033713742947441
10
-62.92569307953309
20
-60.533713742947441
10
-72.925520512328234
20
-60.533713742947448
10
-72.925520512328234
20
89.466286257052573
0
CIRCLE
5
108
100
AcDbEntity
8
0
100
AcDbCircle
10
-67.925693079533261
20
84.466286257052587
30
0
40
1.6000000000000103
210
0
220
-0
230
1
0
CIRCLE
5
109
100
AcDbEntity
8
0
100
AcDbCircle
10
-7.9256930795332448
20
84.466286257052587
30
0
40
1.6000000000000003
210
-0
220
0
230
1
0
ENDSEC
0
SECTION
2
OBJECTS
0
DICTIONARY
5
C
100
AcDbDictionary
3
ACAD_GROUP
350
D
3
ACAD_MLINESTYLE
350
17
0
DICTIONARY
5
D
100
AcDbDictionary
0
DICTIONARY
5
1A
330
C
100
AcDbDictionary
0
DICTIONARY
5
17
100
AcDbDictionary
0
ENDSEC
0
EOF
