%TF.GenerationSoftware,KiCad,Pcbnew,(5.1.6-0-10_14)*%
%TF.CreationDate,2021-01-06T14:26:18+09:00*%
%TF.ProjectId,qPCR-xtal,71504352-2d78-4746-916c-2e6b69636164,rev?*%
%TF.SameCoordinates,Original*%
%TF.FileFunction,Copper,L2,Bot*%
%TF.FilePolarity,Positive*%
%FSLAX46Y46*%
G04 Gerber Fmt 4.6, Leading zero omitted, Abs format (unit mm)*
G04 Created by KiCad (PCBNEW (5.1.6-0-10_14)) date 2021-01-06 14:26:18*
%MOMM*%
%LPD*%
G01*
G04 APERTURE LIST*
%TA.AperFunction,ComponentPad*%
%ADD10O,1.700000X1.700000*%
%TD*%
%TA.AperFunction,ComponentPad*%
%ADD11R,1.700000X1.700000*%
%TD*%
%TA.AperFunction,ViaPad*%
%ADD12C,0.800000*%
%TD*%
%TA.AperFunction,Conductor*%
%ADD13C,1.524000*%
%TD*%
%TA.AperFunction,Conductor*%
%ADD14C,1.016000*%
%TD*%
%TA.AperFunction,Conductor*%
%ADD15C,0.254000*%
%TD*%
G04 APERTURE END LIST*
D10*
%TO.P,J1,4*%
%TO.N,OUT*%
X132050000Y-122745001D03*
%TO.P,J1,3*%
%TO.N,IN*%
X132050000Y-120205001D03*
%TO.P,J1,2*%
%TO.N,GND*%
X132050000Y-117665001D03*
D11*
%TO.P,J1,1*%
%TO.N,VCC*%
X132050000Y-115125001D03*
%TD*%
D12*
%TO.N,GND*%
X139000000Y-117950000D03*
X141850000Y-117950000D03*
X140500000Y-116500000D03*
X139050000Y-114200000D03*
X141850000Y-114200000D03*
X138950000Y-120750000D03*
X141800000Y-123850000D03*
X137850000Y-123850000D03*
X134300000Y-116950000D03*
%TD*%
D13*
%TO.N,GND*%
X135865001Y-117665001D02*
X138950000Y-120750000D01*
X132050000Y-117665001D02*
X135865001Y-117665001D01*
D14*
X138950000Y-122641990D02*
X137850000Y-123741990D01*
X138950000Y-120750000D02*
X138950000Y-122641990D01*
%TD*%
D15*
%TO.N,GND*%
G36*
X130561928Y-114275001D02*
G01*
X130561928Y-115975001D01*
X130574188Y-116099483D01*
X130610498Y-116219181D01*
X130669463Y-116329495D01*
X130748815Y-116426186D01*
X130845506Y-116505538D01*
X130955820Y-116564503D01*
X131036466Y-116588967D01*
X130952412Y-116664732D01*
X130778359Y-116898081D01*
X130653175Y-117160902D01*
X130608524Y-117308111D01*
X130729845Y-117538001D01*
X131923000Y-117538001D01*
X131923000Y-117518001D01*
X132177000Y-117518001D01*
X132177000Y-117538001D01*
X133370155Y-117538001D01*
X133491476Y-117308111D01*
X133446825Y-117160902D01*
X133321641Y-116898081D01*
X133147588Y-116664732D01*
X133063534Y-116588967D01*
X133144180Y-116564503D01*
X133254494Y-116505538D01*
X133351185Y-116426186D01*
X133430537Y-116329495D01*
X133489502Y-116219181D01*
X133525812Y-116099483D01*
X133538072Y-115975001D01*
X133538072Y-114275001D01*
X133529208Y-114185000D01*
X141815001Y-114185000D01*
X141815000Y-123815000D01*
X133080108Y-123815000D01*
X133203475Y-123691633D01*
X133365990Y-123448412D01*
X133477932Y-123178159D01*
X133535000Y-122891261D01*
X133535000Y-122598741D01*
X133477932Y-122311843D01*
X133365990Y-122041590D01*
X133203475Y-121798369D01*
X132996632Y-121591526D01*
X132822240Y-121475001D01*
X132996632Y-121358476D01*
X133203475Y-121151633D01*
X133365990Y-120908412D01*
X133477932Y-120638159D01*
X133535000Y-120351261D01*
X133535000Y-120058741D01*
X133477932Y-119771843D01*
X133365990Y-119501590D01*
X133203475Y-119258369D01*
X132996632Y-119051526D01*
X132814466Y-118929806D01*
X132931355Y-118860179D01*
X133147588Y-118665270D01*
X133321641Y-118431921D01*
X133446825Y-118169100D01*
X133491476Y-118021891D01*
X133370155Y-117792001D01*
X132177000Y-117792001D01*
X132177000Y-117812001D01*
X131923000Y-117812001D01*
X131923000Y-117792001D01*
X130729845Y-117792001D01*
X130608524Y-118021891D01*
X130653175Y-118169100D01*
X130778359Y-118431921D01*
X130952412Y-118665270D01*
X131168645Y-118860179D01*
X131285534Y-118929806D01*
X131103368Y-119051526D01*
X130896525Y-119258369D01*
X130734010Y-119501590D01*
X130622068Y-119771843D01*
X130565000Y-120058741D01*
X130565000Y-120351261D01*
X130622068Y-120638159D01*
X130734010Y-120908412D01*
X130896525Y-121151633D01*
X131103368Y-121358476D01*
X131277760Y-121475001D01*
X131103368Y-121591526D01*
X130896525Y-121798369D01*
X130734010Y-122041590D01*
X130622068Y-122311843D01*
X130565000Y-122598741D01*
X130565000Y-122891261D01*
X130622068Y-123178159D01*
X130734010Y-123448412D01*
X130896525Y-123691633D01*
X131019892Y-123815000D01*
X130185000Y-123815000D01*
X130185000Y-114185000D01*
X130570792Y-114185000D01*
X130561928Y-114275001D01*
G37*
X130561928Y-114275001D02*
X130561928Y-115975001D01*
X130574188Y-116099483D01*
X130610498Y-116219181D01*
X130669463Y-116329495D01*
X130748815Y-116426186D01*
X130845506Y-116505538D01*
X130955820Y-116564503D01*
X131036466Y-116588967D01*
X130952412Y-116664732D01*
X130778359Y-116898081D01*
X130653175Y-117160902D01*
X130608524Y-117308111D01*
X130729845Y-117538001D01*
X131923000Y-117538001D01*
X131923000Y-117518001D01*
X132177000Y-117518001D01*
X132177000Y-117538001D01*
X133370155Y-117538001D01*
X133491476Y-117308111D01*
X133446825Y-117160902D01*
X133321641Y-116898081D01*
X133147588Y-116664732D01*
X133063534Y-116588967D01*
X133144180Y-116564503D01*
X133254494Y-116505538D01*
X133351185Y-116426186D01*
X133430537Y-116329495D01*
X133489502Y-116219181D01*
X133525812Y-116099483D01*
X133538072Y-115975001D01*
X133538072Y-114275001D01*
X133529208Y-114185000D01*
X141815001Y-114185000D01*
X141815000Y-123815000D01*
X133080108Y-123815000D01*
X133203475Y-123691633D01*
X133365990Y-123448412D01*
X133477932Y-123178159D01*
X133535000Y-122891261D01*
X133535000Y-122598741D01*
X133477932Y-122311843D01*
X133365990Y-122041590D01*
X133203475Y-121798369D01*
X132996632Y-121591526D01*
X132822240Y-121475001D01*
X132996632Y-121358476D01*
X133203475Y-121151633D01*
X133365990Y-120908412D01*
X133477932Y-120638159D01*
X133535000Y-120351261D01*
X133535000Y-120058741D01*
X133477932Y-119771843D01*
X133365990Y-119501590D01*
X133203475Y-119258369D01*
X132996632Y-119051526D01*
X132814466Y-118929806D01*
X132931355Y-118860179D01*
X133147588Y-118665270D01*
X133321641Y-118431921D01*
X133446825Y-118169100D01*
X133491476Y-118021891D01*
X133370155Y-117792001D01*
X132177000Y-117792001D01*
X132177000Y-117812001D01*
X131923000Y-117812001D01*
X131923000Y-117792001D01*
X130729845Y-117792001D01*
X130608524Y-118021891D01*
X130653175Y-118169100D01*
X130778359Y-118431921D01*
X130952412Y-118665270D01*
X131168645Y-118860179D01*
X131285534Y-118929806D01*
X131103368Y-119051526D01*
X130896525Y-119258369D01*
X130734010Y-119501590D01*
X130622068Y-119771843D01*
X130565000Y-120058741D01*
X130565000Y-120351261D01*
X130622068Y-120638159D01*
X130734010Y-120908412D01*
X130896525Y-121151633D01*
X131103368Y-121358476D01*
X131277760Y-121475001D01*
X131103368Y-121591526D01*
X130896525Y-121798369D01*
X130734010Y-122041590D01*
X130622068Y-122311843D01*
X130565000Y-122598741D01*
X130565000Y-122891261D01*
X130622068Y-123178159D01*
X130734010Y-123448412D01*
X130896525Y-123691633D01*
X131019892Y-123815000D01*
X130185000Y-123815000D01*
X130185000Y-114185000D01*
X130570792Y-114185000D01*
X130561928Y-114275001D01*
%TD*%
M02*
