%TF.GenerationSoftware,KiCad,Pcbnew,(5.1.6-0-10_14)*%
%TF.CreationDate,2021-03-01T23:58:59+09:00*%
%TF.ProjectId,qPCR-photo_mux_74HC4067SSOP,71504352-2d70-4686-9f74-6f5f6d75785f,rev?*%
%TF.SameCoordinates,Original*%
%TF.FileFunction,Legend,Top*%
%TF.FilePolarity,Positive*%
%FSLAX46Y46*%
G04 Gerber Fmt 4.6, Leading zero omitted, Abs format (unit mm)*
G04 Created by KiCad (PCBNEW (5.1.6-0-10_14)) date 2021-03-01 23:58:59*
%MOMM*%
%LPD*%
G01*
G04 APERTURE LIST*
%ADD10C,0.150000*%
%ADD11C,0.120000*%
%ADD12C,0.152400*%
%ADD13C,0.200000*%
%ADD14C,0.127000*%
%ADD15C,0.015000*%
G04 APERTURE END LIST*
D10*
X113202380Y-111476190D02*
X113202380Y-111285714D01*
X113250000Y-111190476D01*
X113345238Y-111095238D01*
X113535714Y-111047619D01*
X113869047Y-111047619D01*
X114059523Y-111095238D01*
X114154761Y-111190476D01*
X114202380Y-111285714D01*
X114202380Y-111476190D01*
X114154761Y-111571428D01*
X114059523Y-111666666D01*
X113869047Y-111714285D01*
X113535714Y-111714285D01*
X113345238Y-111666666D01*
X113250000Y-111571428D01*
X113202380Y-111476190D01*
X113202380Y-110619047D02*
X114011904Y-110619047D01*
X114107142Y-110571428D01*
X114154761Y-110523809D01*
X114202380Y-110428571D01*
X114202380Y-110238095D01*
X114154761Y-110142857D01*
X114107142Y-110095238D01*
X114011904Y-110047619D01*
X113202380Y-110047619D01*
X113202380Y-109714285D02*
X113202380Y-109142857D01*
X114202380Y-109428571D02*
X113202380Y-109428571D01*
X113297619Y-108857142D02*
X113250000Y-108809523D01*
X113202380Y-108714285D01*
X113202380Y-108476190D01*
X113250000Y-108380952D01*
X113297619Y-108333333D01*
X113392857Y-108285714D01*
X113488095Y-108285714D01*
X113630952Y-108333333D01*
X114202380Y-108904761D01*
X114202380Y-108285714D01*
X105952380Y-111476190D02*
X105952380Y-111285714D01*
X106000000Y-111190476D01*
X106095238Y-111095238D01*
X106285714Y-111047619D01*
X106619047Y-111047619D01*
X106809523Y-111095238D01*
X106904761Y-111190476D01*
X106952380Y-111285714D01*
X106952380Y-111476190D01*
X106904761Y-111571428D01*
X106809523Y-111666666D01*
X106619047Y-111714285D01*
X106285714Y-111714285D01*
X106095238Y-111666666D01*
X106000000Y-111571428D01*
X105952380Y-111476190D01*
X105952380Y-110619047D02*
X106761904Y-110619047D01*
X106857142Y-110571428D01*
X106904761Y-110523809D01*
X106952380Y-110428571D01*
X106952380Y-110238095D01*
X106904761Y-110142857D01*
X106857142Y-110095238D01*
X106761904Y-110047619D01*
X105952380Y-110047619D01*
X105952380Y-109714285D02*
X105952380Y-109142857D01*
X106952380Y-109428571D02*
X105952380Y-109428571D01*
X106952380Y-108285714D02*
X106952380Y-108857142D01*
X106952380Y-108571428D02*
X105952380Y-108571428D01*
X106095238Y-108666666D01*
X106190476Y-108761904D01*
X106238095Y-108857142D01*
X99428571Y-67252380D02*
X99428571Y-66252380D01*
X99761904Y-66966666D01*
X100095238Y-66252380D01*
X100095238Y-67252380D01*
X100571428Y-66252380D02*
X100571428Y-67061904D01*
X100619047Y-67157142D01*
X100666666Y-67204761D01*
X100761904Y-67252380D01*
X100952380Y-67252380D01*
X101047619Y-67204761D01*
X101095238Y-67157142D01*
X101142857Y-67061904D01*
X101142857Y-66252380D01*
X101523809Y-66252380D02*
X102190476Y-67252380D01*
X102190476Y-66252380D02*
X101523809Y-67252380D01*
X102333333Y-67347619D02*
X103095238Y-67347619D01*
X103238095Y-66252380D02*
X103904761Y-66252380D01*
X103476190Y-67252380D01*
X104714285Y-66585714D02*
X104714285Y-67252380D01*
X104476190Y-66204761D02*
X104238095Y-66919047D01*
X104857142Y-66919047D01*
X105238095Y-67252380D02*
X105238095Y-66252380D01*
X105238095Y-66728571D02*
X105809523Y-66728571D01*
X105809523Y-67252380D02*
X105809523Y-66252380D01*
X106857142Y-67157142D02*
X106809523Y-67204761D01*
X106666666Y-67252380D01*
X106571428Y-67252380D01*
X106428571Y-67204761D01*
X106333333Y-67109523D01*
X106285714Y-67014285D01*
X106238095Y-66823809D01*
X106238095Y-66680952D01*
X106285714Y-66490476D01*
X106333333Y-66395238D01*
X106428571Y-66300000D01*
X106571428Y-66252380D01*
X106666666Y-66252380D01*
X106809523Y-66300000D01*
X106857142Y-66347619D01*
X107714285Y-66585714D02*
X107714285Y-67252380D01*
X107476190Y-66204761D02*
X107238095Y-66919047D01*
X107857142Y-66919047D01*
X108428571Y-66252380D02*
X108523809Y-66252380D01*
X108619047Y-66300000D01*
X108666666Y-66347619D01*
X108714285Y-66442857D01*
X108761904Y-66633333D01*
X108761904Y-66871428D01*
X108714285Y-67061904D01*
X108666666Y-67157142D01*
X108619047Y-67204761D01*
X108523809Y-67252380D01*
X108428571Y-67252380D01*
X108333333Y-67204761D01*
X108285714Y-67157142D01*
X108238095Y-67061904D01*
X108190476Y-66871428D01*
X108190476Y-66633333D01*
X108238095Y-66442857D01*
X108285714Y-66347619D01*
X108333333Y-66300000D01*
X108428571Y-66252380D01*
X109619047Y-66252380D02*
X109428571Y-66252380D01*
X109333333Y-66300000D01*
X109285714Y-66347619D01*
X109190476Y-66490476D01*
X109142857Y-66680952D01*
X109142857Y-67061904D01*
X109190476Y-67157142D01*
X109238095Y-67204761D01*
X109333333Y-67252380D01*
X109523809Y-67252380D01*
X109619047Y-67204761D01*
X109666666Y-67157142D01*
X109714285Y-67061904D01*
X109714285Y-66823809D01*
X109666666Y-66728571D01*
X109619047Y-66680952D01*
X109523809Y-66633333D01*
X109333333Y-66633333D01*
X109238095Y-66680952D01*
X109190476Y-66728571D01*
X109142857Y-66823809D01*
X110047619Y-66252380D02*
X110714285Y-66252380D01*
X110285714Y-67252380D01*
X111047619Y-67204761D02*
X111190476Y-67252380D01*
X111428571Y-67252380D01*
X111523809Y-67204761D01*
X111571428Y-67157142D01*
X111619047Y-67061904D01*
X111619047Y-66966666D01*
X111571428Y-66871428D01*
X111523809Y-66823809D01*
X111428571Y-66776190D01*
X111238095Y-66728571D01*
X111142857Y-66680952D01*
X111095238Y-66633333D01*
X111047619Y-66538095D01*
X111047619Y-66442857D01*
X111095238Y-66347619D01*
X111142857Y-66300000D01*
X111238095Y-66252380D01*
X111476190Y-66252380D01*
X111619047Y-66300000D01*
X112000000Y-67204761D02*
X112142857Y-67252380D01*
X112380952Y-67252380D01*
X112476190Y-67204761D01*
X112523809Y-67157142D01*
X112571428Y-67061904D01*
X112571428Y-66966666D01*
X112523809Y-66871428D01*
X112476190Y-66823809D01*
X112380952Y-66776190D01*
X112190476Y-66728571D01*
X112095238Y-66680952D01*
X112047619Y-66633333D01*
X112000000Y-66538095D01*
X112000000Y-66442857D01*
X112047619Y-66347619D01*
X112095238Y-66300000D01*
X112190476Y-66252380D01*
X112428571Y-66252380D01*
X112571428Y-66300000D01*
X113190476Y-66252380D02*
X113380952Y-66252380D01*
X113476190Y-66300000D01*
X113571428Y-66395238D01*
X113619047Y-66585714D01*
X113619047Y-66919047D01*
X113571428Y-67109523D01*
X113476190Y-67204761D01*
X113380952Y-67252380D01*
X113190476Y-67252380D01*
X113095238Y-67204761D01*
X113000000Y-67109523D01*
X112952380Y-66919047D01*
X112952380Y-66585714D01*
X113000000Y-66395238D01*
X113095238Y-66300000D01*
X113190476Y-66252380D01*
X114047619Y-67252380D02*
X114047619Y-66252380D01*
X114428571Y-66252380D01*
X114523809Y-66300000D01*
X114571428Y-66347619D01*
X114619047Y-66442857D01*
X114619047Y-66585714D01*
X114571428Y-66680952D01*
X114523809Y-66728571D01*
X114428571Y-66776190D01*
X114047619Y-66776190D01*
D11*
%TO.C,J1*%
X104628000Y-111330000D02*
X104628000Y-108670000D01*
X94408000Y-111330000D02*
X104628000Y-111330000D01*
X94408000Y-108670000D02*
X104628000Y-108670000D01*
X94408000Y-111330000D02*
X94408000Y-108670000D01*
X93138000Y-111330000D02*
X91808000Y-111330000D01*
X91808000Y-111330000D02*
X91808000Y-110000000D01*
%TO.C,J2*%
X104628000Y-63110000D02*
X104628000Y-64440000D01*
X103298000Y-63110000D02*
X104628000Y-63110000D01*
X102028000Y-63110000D02*
X102028000Y-65770000D01*
X102028000Y-65770000D02*
X91808000Y-65770000D01*
X102028000Y-63110000D02*
X91808000Y-63110000D01*
X91808000Y-63110000D02*
X91808000Y-65770000D01*
%TO.C,JP1*%
X107250000Y-109000000D02*
X112750000Y-109000000D01*
X112750000Y-109000000D02*
X112750000Y-110950000D01*
X112750000Y-110950000D02*
X107250000Y-110950000D01*
X107250000Y-110950000D02*
X107250000Y-109000000D01*
X108600000Y-111200000D02*
X108300000Y-111500000D01*
X108300000Y-111500000D02*
X108900000Y-111500000D01*
X108900000Y-111500000D02*
X108600000Y-111200000D01*
%TO.C,N_PD1*%
X109500000Y-75500000D02*
X109500000Y-74330000D01*
X106500000Y-75500000D02*
X109500000Y-75500000D01*
X106500000Y-74330000D02*
X106500000Y-75500000D01*
X114490000Y-74330000D02*
X114490000Y-69130000D01*
X104270000Y-74330000D02*
X114490000Y-74330000D01*
X101670000Y-69130000D02*
X114490000Y-69130000D01*
X104270000Y-74330000D02*
X104270000Y-71730000D01*
X104270000Y-71730000D02*
X101670000Y-71730000D01*
X101670000Y-71730000D02*
X101670000Y-69130000D01*
X103000000Y-74330000D02*
X101670000Y-74330000D01*
X101670000Y-74330000D02*
X101670000Y-73000000D01*
%TO.C,N_PD2*%
X101670000Y-84330000D02*
X101670000Y-83000000D01*
X103000000Y-84330000D02*
X101670000Y-84330000D01*
X101670000Y-81730000D02*
X101670000Y-79130000D01*
X104270000Y-81730000D02*
X101670000Y-81730000D01*
X104270000Y-84330000D02*
X104270000Y-81730000D01*
X101670000Y-79130000D02*
X114490000Y-79130000D01*
X104270000Y-84330000D02*
X114490000Y-84330000D01*
X114490000Y-84330000D02*
X114490000Y-79130000D01*
X106500000Y-84330000D02*
X106500000Y-85500000D01*
X106500000Y-85500000D02*
X109500000Y-85500000D01*
X109500000Y-85500000D02*
X109500000Y-84330000D01*
%TO.C,S_PD1*%
X101670000Y-94330000D02*
X101670000Y-93000000D01*
X103000000Y-94330000D02*
X101670000Y-94330000D01*
X101670000Y-91730000D02*
X101670000Y-89130000D01*
X104270000Y-91730000D02*
X101670000Y-91730000D01*
X104270000Y-94330000D02*
X104270000Y-91730000D01*
X101670000Y-89130000D02*
X114490000Y-89130000D01*
X104270000Y-94330000D02*
X114490000Y-94330000D01*
X114490000Y-94330000D02*
X114490000Y-89130000D01*
X106500000Y-94330000D02*
X106500000Y-95500000D01*
X106500000Y-95500000D02*
X109500000Y-95500000D01*
X109500000Y-95500000D02*
X109500000Y-94330000D01*
%TO.C,S_PD2*%
X109500000Y-105500000D02*
X109500000Y-104330000D01*
X106500000Y-105500000D02*
X109500000Y-105500000D01*
X106500000Y-104330000D02*
X106500000Y-105500000D01*
X114490000Y-104330000D02*
X114490000Y-99130000D01*
X104270000Y-104330000D02*
X114490000Y-104330000D01*
X101670000Y-99130000D02*
X114490000Y-99130000D01*
X104270000Y-104330000D02*
X104270000Y-101730000D01*
X104270000Y-101730000D02*
X101670000Y-101730000D01*
X101670000Y-101730000D02*
X101670000Y-99130000D01*
X103000000Y-104330000D02*
X101670000Y-104330000D01*
X101670000Y-104330000D02*
X101670000Y-103000000D01*
D12*
%TO.C,U2*%
X85426000Y-66503684D02*
X85426000Y-67108716D01*
X87287861Y-65929900D02*
X86612139Y-65929900D01*
X88474000Y-67108716D02*
X88474000Y-66503684D01*
X85223516Y-66578377D02*
G75*
G03*
X85121200Y-66806200I202484J-227823D01*
G01*
D13*
%TO.C,U1*%
X97155000Y-91595000D02*
G75*
G03*
X97155000Y-91595000I-100000J0D01*
G01*
D14*
X97135000Y-94350000D02*
X97135000Y-99650000D01*
X88865000Y-94350000D02*
X88865000Y-99650000D01*
%TO.C,U3*%
X88865000Y-74350000D02*
X88865000Y-79650000D01*
X97135000Y-74350000D02*
X97135000Y-79650000D01*
D13*
X97155000Y-71595000D02*
G75*
G03*
X97155000Y-71595000I-100000J0D01*
G01*
%TO.C,J1*%
D10*
X90474666Y-109452380D02*
X90474666Y-110166666D01*
X90427047Y-110309523D01*
X90331809Y-110404761D01*
X90188952Y-110452380D01*
X90093714Y-110452380D01*
X91474666Y-110452380D02*
X90903238Y-110452380D01*
X91188952Y-110452380D02*
X91188952Y-109452380D01*
X91093714Y-109595238D01*
X90998476Y-109690476D01*
X90903238Y-109738095D01*
%TO.C,J2*%
X95316666Y-65927380D02*
X95316666Y-66641666D01*
X95269047Y-66784523D01*
X95173809Y-66879761D01*
X95030952Y-66927380D01*
X94935714Y-66927380D01*
X95745238Y-66022619D02*
X95792857Y-65975000D01*
X95888095Y-65927380D01*
X96126190Y-65927380D01*
X96221428Y-65975000D01*
X96269047Y-66022619D01*
X96316666Y-66117857D01*
X96316666Y-66213095D01*
X96269047Y-66355952D01*
X95697619Y-66927380D01*
X96316666Y-66927380D01*
%TO.C,JP1*%
X109166666Y-107677380D02*
X109166666Y-108391666D01*
X109119047Y-108534523D01*
X109023809Y-108629761D01*
X108880952Y-108677380D01*
X108785714Y-108677380D01*
X109642857Y-108677380D02*
X109642857Y-107677380D01*
X110023809Y-107677380D01*
X110119047Y-107725000D01*
X110166666Y-107772619D01*
X110214285Y-107867857D01*
X110214285Y-108010714D01*
X110166666Y-108105952D01*
X110119047Y-108153571D01*
X110023809Y-108201190D01*
X109642857Y-108201190D01*
X111166666Y-108677380D02*
X110595238Y-108677380D01*
X110880952Y-108677380D02*
X110880952Y-107677380D01*
X110785714Y-107820238D01*
X110690476Y-107915476D01*
X110595238Y-107963095D01*
%TO.C,N_PD1*%
X101657142Y-75952380D02*
X101657142Y-74952380D01*
X102228571Y-75952380D01*
X102228571Y-74952380D01*
X102466666Y-76047619D02*
X103228571Y-76047619D01*
X103466666Y-75952380D02*
X103466666Y-74952380D01*
X103847619Y-74952380D01*
X103942857Y-75000000D01*
X103990476Y-75047619D01*
X104038095Y-75142857D01*
X104038095Y-75285714D01*
X103990476Y-75380952D01*
X103942857Y-75428571D01*
X103847619Y-75476190D01*
X103466666Y-75476190D01*
X104466666Y-75952380D02*
X104466666Y-74952380D01*
X104704761Y-74952380D01*
X104847619Y-75000000D01*
X104942857Y-75095238D01*
X104990476Y-75190476D01*
X105038095Y-75380952D01*
X105038095Y-75523809D01*
X104990476Y-75714285D01*
X104942857Y-75809523D01*
X104847619Y-75904761D01*
X104704761Y-75952380D01*
X104466666Y-75952380D01*
X105990476Y-75952380D02*
X105419047Y-75952380D01*
X105704761Y-75952380D02*
X105704761Y-74952380D01*
X105609523Y-75095238D01*
X105514285Y-75190476D01*
X105419047Y-75238095D01*
%TO.C,N_PD2*%
X101657142Y-85952380D02*
X101657142Y-84952380D01*
X102228571Y-85952380D01*
X102228571Y-84952380D01*
X102466666Y-86047619D02*
X103228571Y-86047619D01*
X103466666Y-85952380D02*
X103466666Y-84952380D01*
X103847619Y-84952380D01*
X103942857Y-85000000D01*
X103990476Y-85047619D01*
X104038095Y-85142857D01*
X104038095Y-85285714D01*
X103990476Y-85380952D01*
X103942857Y-85428571D01*
X103847619Y-85476190D01*
X103466666Y-85476190D01*
X104466666Y-85952380D02*
X104466666Y-84952380D01*
X104704761Y-84952380D01*
X104847619Y-85000000D01*
X104942857Y-85095238D01*
X104990476Y-85190476D01*
X105038095Y-85380952D01*
X105038095Y-85523809D01*
X104990476Y-85714285D01*
X104942857Y-85809523D01*
X104847619Y-85904761D01*
X104704761Y-85952380D01*
X104466666Y-85952380D01*
X105419047Y-85047619D02*
X105466666Y-85000000D01*
X105561904Y-84952380D01*
X105800000Y-84952380D01*
X105895238Y-85000000D01*
X105942857Y-85047619D01*
X105990476Y-85142857D01*
X105990476Y-85238095D01*
X105942857Y-85380952D01*
X105371428Y-85952380D01*
X105990476Y-85952380D01*
%TO.C,S_PD1*%
X101657142Y-95904761D02*
X101800000Y-95952380D01*
X102038095Y-95952380D01*
X102133333Y-95904761D01*
X102180952Y-95857142D01*
X102228571Y-95761904D01*
X102228571Y-95666666D01*
X102180952Y-95571428D01*
X102133333Y-95523809D01*
X102038095Y-95476190D01*
X101847619Y-95428571D01*
X101752380Y-95380952D01*
X101704761Y-95333333D01*
X101657142Y-95238095D01*
X101657142Y-95142857D01*
X101704761Y-95047619D01*
X101752380Y-95000000D01*
X101847619Y-94952380D01*
X102085714Y-94952380D01*
X102228571Y-95000000D01*
X102419047Y-96047619D02*
X103180952Y-96047619D01*
X103419047Y-95952380D02*
X103419047Y-94952380D01*
X103800000Y-94952380D01*
X103895238Y-95000000D01*
X103942857Y-95047619D01*
X103990476Y-95142857D01*
X103990476Y-95285714D01*
X103942857Y-95380952D01*
X103895238Y-95428571D01*
X103800000Y-95476190D01*
X103419047Y-95476190D01*
X104419047Y-95952380D02*
X104419047Y-94952380D01*
X104657142Y-94952380D01*
X104800000Y-95000000D01*
X104895238Y-95095238D01*
X104942857Y-95190476D01*
X104990476Y-95380952D01*
X104990476Y-95523809D01*
X104942857Y-95714285D01*
X104895238Y-95809523D01*
X104800000Y-95904761D01*
X104657142Y-95952380D01*
X104419047Y-95952380D01*
X105942857Y-95952380D02*
X105371428Y-95952380D01*
X105657142Y-95952380D02*
X105657142Y-94952380D01*
X105561904Y-95095238D01*
X105466666Y-95190476D01*
X105371428Y-95238095D01*
%TO.C,S_PD2*%
X101657142Y-105904761D02*
X101800000Y-105952380D01*
X102038095Y-105952380D01*
X102133333Y-105904761D01*
X102180952Y-105857142D01*
X102228571Y-105761904D01*
X102228571Y-105666666D01*
X102180952Y-105571428D01*
X102133333Y-105523809D01*
X102038095Y-105476190D01*
X101847619Y-105428571D01*
X101752380Y-105380952D01*
X101704761Y-105333333D01*
X101657142Y-105238095D01*
X101657142Y-105142857D01*
X101704761Y-105047619D01*
X101752380Y-105000000D01*
X101847619Y-104952380D01*
X102085714Y-104952380D01*
X102228571Y-105000000D01*
X102419047Y-106047619D02*
X103180952Y-106047619D01*
X103419047Y-105952380D02*
X103419047Y-104952380D01*
X103800000Y-104952380D01*
X103895238Y-105000000D01*
X103942857Y-105047619D01*
X103990476Y-105142857D01*
X103990476Y-105285714D01*
X103942857Y-105380952D01*
X103895238Y-105428571D01*
X103800000Y-105476190D01*
X103419047Y-105476190D01*
X104419047Y-105952380D02*
X104419047Y-104952380D01*
X104657142Y-104952380D01*
X104800000Y-105000000D01*
X104895238Y-105095238D01*
X104942857Y-105190476D01*
X104990476Y-105380952D01*
X104990476Y-105523809D01*
X104942857Y-105714285D01*
X104895238Y-105809523D01*
X104800000Y-105904761D01*
X104657142Y-105952380D01*
X104419047Y-105952380D01*
X105371428Y-105047619D02*
X105419047Y-105000000D01*
X105514285Y-104952380D01*
X105752380Y-104952380D01*
X105847619Y-105000000D01*
X105895238Y-105047619D01*
X105942857Y-105142857D01*
X105942857Y-105238095D01*
X105895238Y-105380952D01*
X105323809Y-105952380D01*
X105942857Y-105952380D01*
%TO.C,U2*%
X89238095Y-67452380D02*
X89238095Y-68261904D01*
X89285714Y-68357142D01*
X89333333Y-68404761D01*
X89428571Y-68452380D01*
X89619047Y-68452380D01*
X89714285Y-68404761D01*
X89761904Y-68357142D01*
X89809523Y-68261904D01*
X89809523Y-67452380D01*
X90238095Y-67547619D02*
X90285714Y-67500000D01*
X90380952Y-67452380D01*
X90619047Y-67452380D01*
X90714285Y-67500000D01*
X90761904Y-67547619D01*
X90809523Y-67642857D01*
X90809523Y-67738095D01*
X90761904Y-67880952D01*
X90190476Y-68452380D01*
X90809523Y-68452380D01*
X83750580Y-68254000D02*
X83988676Y-68254000D01*
X83893438Y-68492095D02*
X83988676Y-68254000D01*
X83893438Y-68015904D01*
X84179152Y-68396857D02*
X83988676Y-68254000D01*
X84179152Y-68111142D01*
X83750580Y-68254000D02*
X83988676Y-68254000D01*
X83893438Y-68492095D02*
X83988676Y-68254000D01*
X83893438Y-68015904D01*
X84179152Y-68396857D02*
X83988676Y-68254000D01*
X84179152Y-68111142D01*
%TO.C,U1*%
D15*
X97587380Y-96436904D02*
X98396904Y-96436904D01*
X98492142Y-96389285D01*
X98539761Y-96341666D01*
X98587380Y-96246428D01*
X98587380Y-96055952D01*
X98539761Y-95960714D01*
X98492142Y-95913095D01*
X98396904Y-95865476D01*
X97587380Y-95865476D01*
X98587380Y-94865476D02*
X98587380Y-95436904D01*
X98587380Y-95151190D02*
X97587380Y-95151190D01*
X97730238Y-95246428D01*
X97825476Y-95341666D01*
X97873095Y-95436904D01*
%TO.C,U3*%
X97587380Y-76436904D02*
X98396904Y-76436904D01*
X98492142Y-76389285D01*
X98539761Y-76341666D01*
X98587380Y-76246428D01*
X98587380Y-76055952D01*
X98539761Y-75960714D01*
X98492142Y-75913095D01*
X98396904Y-75865476D01*
X97587380Y-75865476D01*
X97587380Y-75484523D02*
X97587380Y-74865476D01*
X97968333Y-75198809D01*
X97968333Y-75055952D01*
X98015952Y-74960714D01*
X98063571Y-74913095D01*
X98158809Y-74865476D01*
X98396904Y-74865476D01*
X98492142Y-74913095D01*
X98539761Y-74960714D01*
X98587380Y-75055952D01*
X98587380Y-75341666D01*
X98539761Y-75436904D01*
X98492142Y-75484523D01*
%TD*%
M02*
