G04 #@! TF.GenerationSoftware,KiCad,Pcbnew,(5.1.6-0-10_14)*
G04 #@! TF.CreationDate,2021-08-26T03:19:47+09:00*
G04 #@! TF.ProjectId,5v,35762e6b-6963-4616-945f-706362585858,rev?*
G04 #@! TF.SameCoordinates,Original*
G04 #@! TF.FileFunction,Soldermask,Bot*
G04 #@! TF.FilePolarity,Negative*
%FSLAX46Y46*%
G04 Gerber Fmt 4.6, Leading zero omitted, Abs format (unit mm)*
G04 Created by KiCad (PCBNEW (5.1.6-0-10_14)) date 2021-08-26 03:19:47*
%MOMM*%
%LPD*%
G01*
G04 APERTURE LIST*
%ADD10R,3.500000X3.500000*%
%ADD11R,1.700000X1.700000*%
%ADD12O,1.700000X1.700000*%
G04 APERTURE END LIST*
G04 #@! TO.C,J1*
G36*
G01*
X107510000Y-96245000D02*
X107510000Y-94495000D01*
G75*
G02*
X108385000Y-93620000I875000J0D01*
G01*
X110135000Y-93620000D01*
G75*
G02*
X111010000Y-94495000I0J-875000D01*
G01*
X111010000Y-96245000D01*
G75*
G02*
X110135000Y-97120000I-875000J0D01*
G01*
X108385000Y-97120000D01*
G75*
G02*
X107510000Y-96245000I0J875000D01*
G01*
G37*
G36*
G01*
X104760000Y-91670000D02*
X104760000Y-89670000D01*
G75*
G02*
X105510000Y-88920000I750000J0D01*
G01*
X107010000Y-88920000D01*
G75*
G02*
X107760000Y-89670000I0J-750000D01*
G01*
X107760000Y-91670000D01*
G75*
G02*
X107010000Y-92420000I-750000J0D01*
G01*
X105510000Y-92420000D01*
G75*
G02*
X104760000Y-91670000I0J750000D01*
G01*
G37*
D10*
X112260000Y-90670000D03*
G04 #@! TD*
D11*
G04 #@! TO.C,J2*
X120750000Y-94980000D03*
D12*
X118210000Y-94980000D03*
G04 #@! TD*
D11*
G04 #@! TO.C,J4*
X150120000Y-83900000D03*
D12*
X152660000Y-83900000D03*
G04 #@! TD*
D11*
G04 #@! TO.C,J5*
X150120000Y-91520000D03*
D12*
X152660000Y-91520000D03*
G04 #@! TD*
G04 #@! TO.C,J6*
X128810000Y-95620000D03*
D11*
X131350000Y-95620000D03*
G04 #@! TD*
G04 #@! TO.C,J7*
X137520000Y-95610000D03*
D12*
X134980000Y-95610000D03*
G04 #@! TD*
G04 #@! TO.C,J8*
X152760000Y-79500000D03*
X152760000Y-76960000D03*
X150220000Y-79500000D03*
X150220000Y-76960000D03*
X147680000Y-79500000D03*
X147680000Y-76960000D03*
X145140000Y-79500000D03*
X145140000Y-76960000D03*
X142600000Y-79500000D03*
X142600000Y-76960000D03*
X140060000Y-79500000D03*
X140060000Y-76960000D03*
X137520000Y-79500000D03*
X137520000Y-76960000D03*
X134980000Y-79500000D03*
X134980000Y-76960000D03*
X132440000Y-79500000D03*
X132440000Y-76960000D03*
X129900000Y-79500000D03*
X129900000Y-76960000D03*
X127360000Y-79500000D03*
X127360000Y-76960000D03*
X124820000Y-79500000D03*
X124820000Y-76960000D03*
X122280000Y-79500000D03*
X122280000Y-76960000D03*
X119740000Y-79500000D03*
X119740000Y-76960000D03*
X117200000Y-79500000D03*
X117200000Y-76960000D03*
X114660000Y-79500000D03*
X114660000Y-76960000D03*
X112120000Y-79500000D03*
X112120000Y-76960000D03*
X109580000Y-79500000D03*
X109580000Y-76960000D03*
X107040000Y-79500000D03*
X107040000Y-76960000D03*
X104500000Y-79500000D03*
D11*
X104500000Y-76960000D03*
G04 #@! TD*
M02*
