%TF.GenerationSoftware,KiCad,Pcbnew,(5.1.6-0-10_14)*%
%TF.CreationDate,2020-09-10T15:29:25+09:00*%
%TF.ProjectId,qPCR-photo_mux_ADG731BSUZ,71504352-2d70-4686-9f74-6f5f6d75785f,rev?*%
%TF.SameCoordinates,Original*%
%TF.FileFunction,Copper,L2,Bot*%
%TF.FilePolarity,Positive*%
%FSLAX46Y46*%
G04 Gerber Fmt 4.6, Leading zero omitted, Abs format (unit mm)*
G04 Created by KiCad (PCBNEW (5.1.6-0-10_14)) date 2020-09-10 15:29:25*
%MOMM*%
%LPD*%
G01*
G04 APERTURE LIST*
%TA.AperFunction,ComponentPad*%
%ADD10O,1.700000X1.700000*%
%TD*%
%TA.AperFunction,ComponentPad*%
%ADD11R,1.700000X1.700000*%
%TD*%
%TA.AperFunction,ViaPad*%
%ADD12C,0.800000*%
%TD*%
%TA.AperFunction,Conductor*%
%ADD13C,0.250000*%
%TD*%
%TA.AperFunction,Conductor*%
%ADD14C,0.254000*%
%TD*%
G04 APERTURE END LIST*
D10*
%TO.P,J1,5*%
%TO.N,PD_MUX_OUT*%
X103298000Y-110000000D03*
%TO.P,J1,4*%
%TO.N,VCC_LOGIC*%
X100758000Y-110000000D03*
%TO.P,J1,3*%
%TO.N,-10V*%
X98218000Y-110000000D03*
%TO.P,J1,2*%
%TO.N,+10V*%
X95678000Y-110000000D03*
D11*
%TO.P,J1,1*%
%TO.N,GND*%
X93138000Y-110000000D03*
%TD*%
%TO.P,J2,1*%
%TO.N,Net-(J2-Pad1)*%
X103298000Y-64440000D03*
D10*
%TO.P,J2,2*%
%TO.N,Net-(J2-Pad2)*%
X100758000Y-64440000D03*
%TO.P,J2,3*%
%TO.N,PD_MUX_SPL_SCLK*%
X98218000Y-64440000D03*
%TO.P,J2,4*%
%TO.N,PD_MUX_SPI_MOSI*%
X95678000Y-64440000D03*
%TO.P,J2,5*%
%TO.N,PD_MUX_SYNC*%
X93138000Y-64440000D03*
%TD*%
%TO.P,N_PD1,10*%
%TO.N,N_PD1_OUT1*%
X113160000Y-70460000D03*
%TO.P,N_PD1,9*%
%TO.N,N_PD1_OUT2*%
X113160000Y-73000000D03*
%TO.P,N_PD1,8*%
%TO.N,N_PD1_OUT3*%
X110620000Y-70460000D03*
%TO.P,N_PD1,7*%
%TO.N,N_PD1_OUT4*%
X110620000Y-73000000D03*
%TO.P,N_PD1,6*%
%TO.N,N_PD1_OUT5*%
X108080000Y-70460000D03*
%TO.P,N_PD1,5*%
%TO.N,N_PD1_OUT6*%
X108080000Y-73000000D03*
%TO.P,N_PD1,4*%
%TO.N,N_PD1_OUT7*%
X105540000Y-70460000D03*
%TO.P,N_PD1,3*%
%TO.N,N_PD1_OUT8*%
X105540000Y-73000000D03*
%TO.P,N_PD1,2*%
%TO.N,GND*%
X103000000Y-70460000D03*
D11*
%TO.P,N_PD1,1*%
X103000000Y-73000000D03*
%TD*%
%TO.P,N_PD2,1*%
%TO.N,GND*%
X103000000Y-83000000D03*
D10*
%TO.P,N_PD2,2*%
X103000000Y-80460000D03*
%TO.P,N_PD2,3*%
%TO.N,N_PD1_OUT16*%
X105540000Y-83000000D03*
%TO.P,N_PD2,4*%
%TO.N,N_PD1_OUT15*%
X105540000Y-80460000D03*
%TO.P,N_PD2,5*%
%TO.N,N_PD1_OUT14*%
X108080000Y-83000000D03*
%TO.P,N_PD2,6*%
%TO.N,N_PD1_OUT13*%
X108080000Y-80460000D03*
%TO.P,N_PD2,7*%
%TO.N,N_PD1_OUT12*%
X110620000Y-83000000D03*
%TO.P,N_PD2,8*%
%TO.N,N_PD1_OUT10*%
X110620000Y-80460000D03*
%TO.P,N_PD2,9*%
%TO.N,N_PD1_OUT11*%
X113160000Y-83000000D03*
%TO.P,N_PD2,10*%
%TO.N,N_PD1_OUT9*%
X113160000Y-80460000D03*
%TD*%
D11*
%TO.P,S_PD1,1*%
%TO.N,GND*%
X103000000Y-93000000D03*
D10*
%TO.P,S_PD1,2*%
X103000000Y-90460000D03*
%TO.P,S_PD1,3*%
%TO.N,S_PD1_OUT8*%
X105540000Y-93000000D03*
%TO.P,S_PD1,4*%
%TO.N,S_PD1_OUT7*%
X105540000Y-90460000D03*
%TO.P,S_PD1,5*%
%TO.N,S_PD1_OUT6*%
X108080000Y-93000000D03*
%TO.P,S_PD1,6*%
%TO.N,S_PD1_OUT5*%
X108080000Y-90460000D03*
%TO.P,S_PD1,7*%
%TO.N,S_PD1_OUT4*%
X110620000Y-93000000D03*
%TO.P,S_PD1,8*%
%TO.N,S_PD1_OUT3*%
X110620000Y-90460000D03*
%TO.P,S_PD1,9*%
%TO.N,S_PD1_OUT2*%
X113160000Y-93000000D03*
%TO.P,S_PD1,10*%
%TO.N,S_PD1_OUT1*%
X113160000Y-90460000D03*
%TD*%
%TO.P,S_PD2,10*%
%TO.N,S_PD1_OUT9*%
X113160000Y-100460000D03*
%TO.P,S_PD2,9*%
%TO.N,S_PD1_OUT11*%
X113160000Y-103000000D03*
%TO.P,S_PD2,8*%
%TO.N,S_PD1_OUT10*%
X110620000Y-100460000D03*
%TO.P,S_PD2,7*%
%TO.N,S_PD1_OUT12*%
X110620000Y-103000000D03*
%TO.P,S_PD2,6*%
%TO.N,S_PD1_OUT13*%
X108080000Y-100460000D03*
%TO.P,S_PD2,5*%
%TO.N,S_PD1_OUT14*%
X108080000Y-103000000D03*
%TO.P,S_PD2,4*%
%TO.N,S_PD1_OUT15*%
X105540000Y-100460000D03*
%TO.P,S_PD2,3*%
%TO.N,S_PD1_OUT16*%
X105540000Y-103000000D03*
%TO.P,S_PD2,2*%
%TO.N,GND*%
X103000000Y-100460000D03*
D11*
%TO.P,S_PD2,1*%
X103000000Y-103000000D03*
%TD*%
D12*
%TO.N,VDD*%
X97359800Y-99719000D03*
X85457500Y-85546900D03*
%TO.N,PD_MUX_OUT*%
X101941200Y-101543300D03*
%TO.N,PD_MUX_SPL_SCLK*%
X89063900Y-84233000D03*
%TO.N,N_PD1_OUT6*%
X91094900Y-84238500D03*
%TO.N,N_PD1_OUT11*%
X93717600Y-84797400D03*
%TO.N,N_PD1_OUT9*%
X92156300Y-84224600D03*
%TO.N,S_PD1_OUT8*%
X91750000Y-92529300D03*
%TO.N,S_PD1_OUT7*%
X91250000Y-89777100D03*
%TO.N,S_PD1_OUT6*%
X92262700Y-93442600D03*
%TO.N,S_PD1_OUT5*%
X92007300Y-89032200D03*
%TO.N,S_PD1_OUT4*%
X92911100Y-94211100D03*
%TO.N,S_PD1_OUT3*%
X89432700Y-89767500D03*
%TO.N,S_PD1_OUT2*%
X93358700Y-95542300D03*
%TO.N,S_PD1_OUT1*%
X88250000Y-89748700D03*
%TO.N,S_PD1_OUT10*%
X92750000Y-87564600D03*
%TO.N,S_PD1_OUT13*%
X99364700Y-96228200D03*
%TD*%
D13*
%TO.N,GND*%
X103000000Y-80460000D02*
X103000000Y-74175300D01*
X103000000Y-83000000D02*
X103000000Y-80460000D01*
X103000000Y-73000000D02*
X103000000Y-74175300D01*
X101824700Y-100460000D02*
X101502700Y-100460000D01*
X101502700Y-100460000D02*
X93138000Y-108824700D01*
X103000000Y-73000000D02*
X103000000Y-70460000D01*
X93138000Y-110000000D02*
X93138000Y-108824700D01*
X103000000Y-100460000D02*
X101824700Y-100460000D01*
%TO.N,VDD*%
X85457500Y-85546900D02*
X85457500Y-88725500D01*
X85457500Y-88725500D02*
X96451000Y-99719000D01*
X96451000Y-99719000D02*
X97359800Y-99719000D01*
%TO.N,PD_MUX_OUT*%
X103298000Y-110000000D02*
X103298000Y-108824700D01*
X101941200Y-101543300D02*
X101820700Y-101663800D01*
X101820700Y-101663800D02*
X101820700Y-107347400D01*
X101820700Y-107347400D02*
X103298000Y-108824700D01*
%TO.N,PD_MUX_SPL_SCLK*%
X98218000Y-64440000D02*
X98218000Y-65615300D01*
X89063900Y-84233000D02*
X89063900Y-74769400D01*
X89063900Y-74769400D02*
X98218000Y-65615300D01*
%TO.N,N_PD1_OUT6*%
X108080000Y-74175300D02*
X104175400Y-78079900D01*
X104175400Y-78079900D02*
X104175400Y-84035500D01*
X104175400Y-84035500D02*
X104035500Y-84175400D01*
X104035500Y-84175400D02*
X95765700Y-84175400D01*
X95765700Y-84175400D02*
X95078600Y-83488300D01*
X95078600Y-83488300D02*
X91845100Y-83488300D01*
X91845100Y-83488300D02*
X91094900Y-84238500D01*
X108080000Y-73000000D02*
X108080000Y-74175300D01*
%TO.N,N_PD1_OUT11*%
X113160000Y-83000000D02*
X111984700Y-83000000D01*
X93717600Y-84797400D02*
X94026800Y-85106600D01*
X94026800Y-85106600D02*
X110245400Y-85106600D01*
X110245400Y-85106600D02*
X111984700Y-83367300D01*
X111984700Y-83367300D02*
X111984700Y-83000000D01*
%TO.N,N_PD1_OUT9*%
X111984700Y-80460000D02*
X111984700Y-80827400D01*
X111984700Y-80827400D02*
X111176800Y-81635300D01*
X111176800Y-81635300D02*
X107685200Y-81635300D01*
X107685200Y-81635300D02*
X106904600Y-82415900D01*
X106904600Y-82415900D02*
X106904600Y-83298100D01*
X106904600Y-83298100D02*
X105576900Y-84625800D01*
X105576900Y-84625800D02*
X95129000Y-84625800D01*
X95129000Y-84625800D02*
X94575300Y-84072100D01*
X94575300Y-84072100D02*
X92308800Y-84072100D01*
X92308800Y-84072100D02*
X92156300Y-84224600D01*
X113160000Y-80460000D02*
X111984700Y-80460000D01*
%TO.N,S_PD1_OUT8*%
X104364700Y-93000000D02*
X104364700Y-93795400D01*
X104364700Y-93795400D02*
X103984800Y-94175300D01*
X103984800Y-94175300D02*
X100426900Y-94175300D01*
X100426900Y-94175300D02*
X98780900Y-92529300D01*
X98780900Y-92529300D02*
X91750000Y-92529300D01*
X105540000Y-93000000D02*
X104364700Y-93000000D01*
%TO.N,S_PD1_OUT7*%
X91250000Y-89777100D02*
X94878000Y-89777100D01*
X94878000Y-89777100D02*
X95370400Y-89284700D01*
X95370400Y-89284700D02*
X103556800Y-89284700D01*
X103556800Y-89284700D02*
X104364700Y-90092600D01*
X104364700Y-90092600D02*
X104364700Y-90460000D01*
X105540000Y-90460000D02*
X104364700Y-90460000D01*
%TO.N,S_PD1_OUT6*%
X106904700Y-93000000D02*
X106904700Y-93367300D01*
X106904700Y-93367300D02*
X105646400Y-94625600D01*
X105646400Y-94625600D02*
X100240300Y-94625600D01*
X100240300Y-94625600D02*
X99057300Y-93442600D01*
X99057300Y-93442600D02*
X92262700Y-93442600D01*
X108080000Y-93000000D02*
X106904700Y-93000000D01*
%TO.N,S_PD1_OUT5*%
X108080000Y-90460000D02*
X106904700Y-90460000D01*
X92007300Y-89032200D02*
X92233900Y-88805600D01*
X92233900Y-88805600D02*
X105547900Y-88805600D01*
X105547900Y-88805600D02*
X106904700Y-90162400D01*
X106904700Y-90162400D02*
X106904700Y-90460000D01*
%TO.N,S_PD1_OUT4*%
X109444700Y-93000000D02*
X109444700Y-93367400D01*
X109444700Y-93367400D02*
X107736200Y-95075900D01*
X107736200Y-95075900D02*
X100053700Y-95075900D01*
X100053700Y-95075900D02*
X99188900Y-94211100D01*
X99188900Y-94211100D02*
X92911100Y-94211100D01*
X110620000Y-93000000D02*
X109444700Y-93000000D01*
%TO.N,S_PD1_OUT3*%
X89432700Y-89767500D02*
X90394600Y-88805600D01*
X90394600Y-88805600D02*
X91208300Y-88805600D01*
X91208300Y-88805600D02*
X91208300Y-88805500D01*
X91208300Y-88805500D02*
X91706900Y-88306900D01*
X91706900Y-88306900D02*
X107658900Y-88306900D01*
X107658900Y-88306900D02*
X109444700Y-90092700D01*
X109444700Y-90092700D02*
X109444700Y-90460000D01*
X110620000Y-90460000D02*
X109444700Y-90460000D01*
%TO.N,S_PD1_OUT2*%
X111984700Y-93000000D02*
X111984700Y-93367300D01*
X111984700Y-93367300D02*
X109809700Y-95542300D01*
X109809700Y-95542300D02*
X99883200Y-95542300D01*
X99883200Y-95542300D02*
X99843800Y-95502900D01*
X99843800Y-95502900D02*
X93398100Y-95502900D01*
X93398100Y-95502900D02*
X93358700Y-95542300D01*
X113160000Y-93000000D02*
X111984700Y-93000000D01*
%TO.N,S_PD1_OUT1*%
X111984700Y-90460000D02*
X111984700Y-90827400D01*
X111984700Y-90827400D02*
X111176800Y-91635300D01*
X111176800Y-91635300D02*
X90136600Y-91635300D01*
X90136600Y-91635300D02*
X88250000Y-89748700D01*
X113160000Y-90460000D02*
X111984700Y-90460000D01*
%TO.N,S_PD1_OUT10*%
X110620000Y-99284700D02*
X114377900Y-95526800D01*
X114377900Y-95526800D02*
X114377900Y-89946000D01*
X114377900Y-89946000D02*
X111996500Y-87564600D01*
X111996500Y-87564600D02*
X92750000Y-87564600D01*
X110620000Y-100460000D02*
X110620000Y-99284700D01*
%TO.N,S_PD1_OUT13*%
X106904700Y-100460000D02*
X106904700Y-100092700D01*
X106904700Y-100092700D02*
X103040200Y-96228200D01*
X103040200Y-96228200D02*
X99364700Y-96228200D01*
X108080000Y-100460000D02*
X106904700Y-100460000D01*
%TD*%
D14*
%TO.N,GND*%
G36*
X92191368Y-63286525D02*
G01*
X91984525Y-63493368D01*
X91822010Y-63736589D01*
X91710068Y-64006842D01*
X91653000Y-64293740D01*
X91653000Y-64586260D01*
X91710068Y-64873158D01*
X91822010Y-65143411D01*
X91984525Y-65386632D01*
X92191368Y-65593475D01*
X92434589Y-65755990D01*
X92704842Y-65867932D01*
X92991740Y-65925000D01*
X93284260Y-65925000D01*
X93571158Y-65867932D01*
X93841411Y-65755990D01*
X94084632Y-65593475D01*
X94291475Y-65386632D01*
X94408000Y-65212240D01*
X94524525Y-65386632D01*
X94731368Y-65593475D01*
X94974589Y-65755990D01*
X95244842Y-65867932D01*
X95531740Y-65925000D01*
X95824260Y-65925000D01*
X96111158Y-65867932D01*
X96381411Y-65755990D01*
X96624632Y-65593475D01*
X96831475Y-65386632D01*
X96948000Y-65212240D01*
X97064525Y-65386632D01*
X97218196Y-65540303D01*
X88552898Y-74205601D01*
X88523900Y-74229399D01*
X88500102Y-74258397D01*
X88500101Y-74258398D01*
X88428926Y-74345124D01*
X88358354Y-74477154D01*
X88314898Y-74620415D01*
X88300224Y-74769400D01*
X88303901Y-74806732D01*
X88303900Y-83529289D01*
X88259963Y-83573226D01*
X88146695Y-83742744D01*
X88068674Y-83931102D01*
X88028900Y-84131061D01*
X88028900Y-84334939D01*
X88068674Y-84534898D01*
X88146695Y-84723256D01*
X88259963Y-84892774D01*
X88404126Y-85036937D01*
X88573644Y-85150205D01*
X88762002Y-85228226D01*
X88961961Y-85268000D01*
X89165839Y-85268000D01*
X89365798Y-85228226D01*
X89554156Y-85150205D01*
X89723674Y-85036937D01*
X89867837Y-84892774D01*
X89981105Y-84723256D01*
X90059126Y-84534898D01*
X90078853Y-84435723D01*
X90099674Y-84540398D01*
X90177695Y-84728756D01*
X90290963Y-84898274D01*
X90435126Y-85042437D01*
X90604644Y-85155705D01*
X90793002Y-85233726D01*
X90992961Y-85273500D01*
X91196839Y-85273500D01*
X91396798Y-85233726D01*
X91585156Y-85155705D01*
X91636001Y-85121731D01*
X91666044Y-85141805D01*
X91854402Y-85219826D01*
X92054361Y-85259600D01*
X92258239Y-85259600D01*
X92458198Y-85219826D01*
X92646556Y-85141805D01*
X92720943Y-85092102D01*
X92722374Y-85099298D01*
X92800395Y-85287656D01*
X92913663Y-85457174D01*
X93057826Y-85601337D01*
X93227344Y-85714605D01*
X93415702Y-85792626D01*
X93615661Y-85832400D01*
X93801323Y-85832400D01*
X93877814Y-85855603D01*
X93989467Y-85866600D01*
X93989477Y-85866600D01*
X94026800Y-85870276D01*
X94064123Y-85866600D01*
X110208078Y-85866600D01*
X110245400Y-85870276D01*
X110282722Y-85866600D01*
X110282733Y-85866600D01*
X110394386Y-85855603D01*
X110537647Y-85812146D01*
X110669676Y-85741574D01*
X110785401Y-85646601D01*
X110809204Y-85617597D01*
X112249311Y-84177491D01*
X112456589Y-84315990D01*
X112726842Y-84427932D01*
X113013740Y-84485000D01*
X113306260Y-84485000D01*
X113593158Y-84427932D01*
X113863411Y-84315990D01*
X114106632Y-84153475D01*
X114313475Y-83946632D01*
X114315000Y-83944349D01*
X114315001Y-88808299D01*
X112560304Y-87053603D01*
X112536501Y-87024599D01*
X112420776Y-86929626D01*
X112288747Y-86859054D01*
X112145486Y-86815597D01*
X112033833Y-86804600D01*
X112033822Y-86804600D01*
X111996500Y-86800924D01*
X111959178Y-86804600D01*
X93453711Y-86804600D01*
X93409774Y-86760663D01*
X93240256Y-86647395D01*
X93051898Y-86569374D01*
X92851939Y-86529600D01*
X92648061Y-86529600D01*
X92448102Y-86569374D01*
X92259744Y-86647395D01*
X92090226Y-86760663D01*
X91946063Y-86904826D01*
X91832795Y-87074344D01*
X91754774Y-87262702D01*
X91715000Y-87462661D01*
X91715000Y-87544022D01*
X91706900Y-87543224D01*
X91669577Y-87546900D01*
X91669567Y-87546900D01*
X91557914Y-87557897D01*
X91414653Y-87601354D01*
X91282623Y-87671926D01*
X91240046Y-87706869D01*
X91166899Y-87766899D01*
X91143096Y-87795903D01*
X90893399Y-88045600D01*
X90431922Y-88045600D01*
X90394599Y-88041924D01*
X90357276Y-88045600D01*
X90357267Y-88045600D01*
X90245614Y-88056597D01*
X90102683Y-88099954D01*
X90102353Y-88100054D01*
X89970323Y-88170626D01*
X89904832Y-88224374D01*
X89854599Y-88265599D01*
X89830801Y-88294597D01*
X89392898Y-88732500D01*
X89330761Y-88732500D01*
X89130802Y-88772274D01*
X88942444Y-88850295D01*
X88855418Y-88908444D01*
X88740256Y-88831495D01*
X88551898Y-88753474D01*
X88351939Y-88713700D01*
X88148061Y-88713700D01*
X87948102Y-88753474D01*
X87759744Y-88831495D01*
X87590226Y-88944763D01*
X87446063Y-89088926D01*
X87332795Y-89258444D01*
X87254774Y-89446802D01*
X87254580Y-89447779D01*
X86217500Y-88410699D01*
X86217500Y-86250611D01*
X86261437Y-86206674D01*
X86374705Y-86037156D01*
X86452726Y-85848798D01*
X86492500Y-85648839D01*
X86492500Y-85444961D01*
X86452726Y-85245002D01*
X86374705Y-85056644D01*
X86261437Y-84887126D01*
X86117274Y-84742963D01*
X85947756Y-84629695D01*
X85759398Y-84551674D01*
X85559439Y-84511900D01*
X85355561Y-84511900D01*
X85155602Y-84551674D01*
X84967244Y-84629695D01*
X84797726Y-84742963D01*
X84653563Y-84887126D01*
X84540295Y-85056644D01*
X84462274Y-85245002D01*
X84422500Y-85444961D01*
X84422500Y-85648839D01*
X84462274Y-85848798D01*
X84540295Y-86037156D01*
X84653563Y-86206674D01*
X84697500Y-86250611D01*
X84697501Y-88688168D01*
X84693824Y-88725500D01*
X84697501Y-88762833D01*
X84698027Y-88768168D01*
X84708498Y-88874485D01*
X84751954Y-89017746D01*
X84822526Y-89149776D01*
X84888263Y-89229876D01*
X84917500Y-89265501D01*
X84946498Y-89289299D01*
X95887201Y-100230003D01*
X95910999Y-100259001D01*
X96026724Y-100353974D01*
X96158753Y-100424546D01*
X96302014Y-100468003D01*
X96413667Y-100479000D01*
X96413675Y-100479000D01*
X96451000Y-100482676D01*
X96488325Y-100479000D01*
X96656089Y-100479000D01*
X96700026Y-100522937D01*
X96869544Y-100636205D01*
X97057902Y-100714226D01*
X97257861Y-100754000D01*
X97461739Y-100754000D01*
X97661698Y-100714226D01*
X97850056Y-100636205D01*
X98019574Y-100522937D01*
X98163737Y-100378774D01*
X98277005Y-100209256D01*
X98320972Y-100103109D01*
X101558519Y-100103109D01*
X101679186Y-100333000D01*
X102873000Y-100333000D01*
X102873000Y-99139845D01*
X102643110Y-99018524D01*
X102495901Y-99063175D01*
X102233080Y-99188359D01*
X101999731Y-99362412D01*
X101804822Y-99578645D01*
X101655843Y-99828748D01*
X101558519Y-100103109D01*
X98320972Y-100103109D01*
X98355026Y-100020898D01*
X98394800Y-99820939D01*
X98394800Y-99617061D01*
X98355026Y-99417102D01*
X98277005Y-99228744D01*
X98163737Y-99059226D01*
X98019574Y-98915063D01*
X97850056Y-98801795D01*
X97661698Y-98723774D01*
X97461739Y-98684000D01*
X97257861Y-98684000D01*
X97057902Y-98723774D01*
X96869544Y-98801795D01*
X96713118Y-98906316D01*
X94085756Y-96278955D01*
X94101811Y-96262900D01*
X98329700Y-96262900D01*
X98329700Y-96330139D01*
X98369474Y-96530098D01*
X98447495Y-96718456D01*
X98560763Y-96887974D01*
X98704926Y-97032137D01*
X98874444Y-97145405D01*
X99062802Y-97223426D01*
X99262761Y-97263200D01*
X99466639Y-97263200D01*
X99666598Y-97223426D01*
X99854956Y-97145405D01*
X100024474Y-97032137D01*
X100068411Y-96988200D01*
X102725399Y-96988200D01*
X104868140Y-99130941D01*
X104836589Y-99144010D01*
X104593368Y-99306525D01*
X104386525Y-99513368D01*
X104264805Y-99695534D01*
X104195178Y-99578645D01*
X104000269Y-99362412D01*
X103766920Y-99188359D01*
X103504099Y-99063175D01*
X103356890Y-99018524D01*
X103127000Y-99139845D01*
X103127000Y-100333000D01*
X103147000Y-100333000D01*
X103147000Y-100587000D01*
X103127000Y-100587000D01*
X103127000Y-102873000D01*
X103147000Y-102873000D01*
X103147000Y-103127000D01*
X103127000Y-103127000D01*
X103127000Y-104326250D01*
X103285750Y-104485000D01*
X103850000Y-104488072D01*
X103974482Y-104475812D01*
X104094180Y-104439502D01*
X104204494Y-104380537D01*
X104301185Y-104301185D01*
X104380537Y-104204494D01*
X104439502Y-104094180D01*
X104461513Y-104021620D01*
X104593368Y-104153475D01*
X104836589Y-104315990D01*
X105106842Y-104427932D01*
X105393740Y-104485000D01*
X105686260Y-104485000D01*
X105973158Y-104427932D01*
X106243411Y-104315990D01*
X106486632Y-104153475D01*
X106693475Y-103946632D01*
X106810000Y-103772240D01*
X106926525Y-103946632D01*
X107133368Y-104153475D01*
X107376589Y-104315990D01*
X107646842Y-104427932D01*
X107933740Y-104485000D01*
X108226260Y-104485000D01*
X108513158Y-104427932D01*
X108783411Y-104315990D01*
X109026632Y-104153475D01*
X109233475Y-103946632D01*
X109350000Y-103772240D01*
X109466525Y-103946632D01*
X109673368Y-104153475D01*
X109916589Y-104315990D01*
X110186842Y-104427932D01*
X110473740Y-104485000D01*
X110766260Y-104485000D01*
X111053158Y-104427932D01*
X111323411Y-104315990D01*
X111566632Y-104153475D01*
X111773475Y-103946632D01*
X111890000Y-103772240D01*
X112006525Y-103946632D01*
X112213368Y-104153475D01*
X112456589Y-104315990D01*
X112726842Y-104427932D01*
X113013740Y-104485000D01*
X113306260Y-104485000D01*
X113593158Y-104427932D01*
X113863411Y-104315990D01*
X114106632Y-104153475D01*
X114313475Y-103946632D01*
X114315001Y-103944348D01*
X114315001Y-111315000D01*
X104002893Y-111315000D01*
X104244632Y-111153475D01*
X104451475Y-110946632D01*
X104613990Y-110703411D01*
X104725932Y-110433158D01*
X104783000Y-110146260D01*
X104783000Y-109853740D01*
X104725932Y-109566842D01*
X104613990Y-109296589D01*
X104451475Y-109053368D01*
X104244632Y-108846525D01*
X104051089Y-108717204D01*
X104047003Y-108675714D01*
X104003546Y-108532453D01*
X103932974Y-108400424D01*
X103838001Y-108284699D01*
X103809003Y-108260901D01*
X102580700Y-107032599D01*
X102580700Y-104485727D01*
X102714250Y-104485000D01*
X102873000Y-104326250D01*
X102873000Y-103127000D01*
X102853000Y-103127000D01*
X102853000Y-102873000D01*
X102873000Y-102873000D01*
X102873000Y-101998321D01*
X102936426Y-101845198D01*
X102976200Y-101645239D01*
X102976200Y-101441361D01*
X102936426Y-101241402D01*
X102873000Y-101088279D01*
X102873000Y-100587000D01*
X102337073Y-100587000D01*
X102243098Y-100548074D01*
X102043139Y-100508300D01*
X101839261Y-100508300D01*
X101639302Y-100548074D01*
X101450944Y-100626095D01*
X101281426Y-100739363D01*
X101137263Y-100883526D01*
X101023995Y-101053044D01*
X100945974Y-101241402D01*
X100906200Y-101441361D01*
X100906200Y-101645239D01*
X100945974Y-101845198D01*
X101023995Y-102033556D01*
X101060700Y-102088489D01*
X101060701Y-107310068D01*
X101057024Y-107347400D01*
X101071698Y-107496385D01*
X101115154Y-107639646D01*
X101185726Y-107771676D01*
X101256901Y-107858402D01*
X101280700Y-107887401D01*
X101309698Y-107911199D01*
X102298196Y-108899697D01*
X102144525Y-109053368D01*
X102028000Y-109227760D01*
X101911475Y-109053368D01*
X101704632Y-108846525D01*
X101461411Y-108684010D01*
X101191158Y-108572068D01*
X100904260Y-108515000D01*
X100611740Y-108515000D01*
X100324842Y-108572068D01*
X100054589Y-108684010D01*
X99811368Y-108846525D01*
X99604525Y-109053368D01*
X99488000Y-109227760D01*
X99371475Y-109053368D01*
X99164632Y-108846525D01*
X98921411Y-108684010D01*
X98651158Y-108572068D01*
X98364260Y-108515000D01*
X98071740Y-108515000D01*
X97784842Y-108572068D01*
X97514589Y-108684010D01*
X97271368Y-108846525D01*
X97064525Y-109053368D01*
X96948000Y-109227760D01*
X96831475Y-109053368D01*
X96624632Y-108846525D01*
X96381411Y-108684010D01*
X96111158Y-108572068D01*
X95824260Y-108515000D01*
X95531740Y-108515000D01*
X95244842Y-108572068D01*
X94974589Y-108684010D01*
X94731368Y-108846525D01*
X94599513Y-108978380D01*
X94577502Y-108905820D01*
X94518537Y-108795506D01*
X94439185Y-108698815D01*
X94342494Y-108619463D01*
X94232180Y-108560498D01*
X94112482Y-108524188D01*
X93988000Y-108511928D01*
X93423750Y-108515000D01*
X93265000Y-108673750D01*
X93265000Y-109873000D01*
X93285000Y-109873000D01*
X93285000Y-110127000D01*
X93265000Y-110127000D01*
X93265000Y-110147000D01*
X93011000Y-110147000D01*
X93011000Y-110127000D01*
X91811750Y-110127000D01*
X91653000Y-110285750D01*
X91649928Y-110850000D01*
X91662188Y-110974482D01*
X91698498Y-111094180D01*
X91757463Y-111204494D01*
X91836815Y-111301185D01*
X91853649Y-111315000D01*
X83685000Y-111315000D01*
X83685000Y-109150000D01*
X91649928Y-109150000D01*
X91653000Y-109714250D01*
X91811750Y-109873000D01*
X93011000Y-109873000D01*
X93011000Y-108673750D01*
X92852250Y-108515000D01*
X92288000Y-108511928D01*
X92163518Y-108524188D01*
X92043820Y-108560498D01*
X91933506Y-108619463D01*
X91836815Y-108698815D01*
X91757463Y-108795506D01*
X91698498Y-108905820D01*
X91662188Y-109025518D01*
X91649928Y-109150000D01*
X83685000Y-109150000D01*
X83685000Y-63125000D01*
X92433107Y-63125000D01*
X92191368Y-63286525D01*
G37*
X92191368Y-63286525D02*
X91984525Y-63493368D01*
X91822010Y-63736589D01*
X91710068Y-64006842D01*
X91653000Y-64293740D01*
X91653000Y-64586260D01*
X91710068Y-64873158D01*
X91822010Y-65143411D01*
X91984525Y-65386632D01*
X92191368Y-65593475D01*
X92434589Y-65755990D01*
X92704842Y-65867932D01*
X92991740Y-65925000D01*
X93284260Y-65925000D01*
X93571158Y-65867932D01*
X93841411Y-65755990D01*
X94084632Y-65593475D01*
X94291475Y-65386632D01*
X94408000Y-65212240D01*
X94524525Y-65386632D01*
X94731368Y-65593475D01*
X94974589Y-65755990D01*
X95244842Y-65867932D01*
X95531740Y-65925000D01*
X95824260Y-65925000D01*
X96111158Y-65867932D01*
X96381411Y-65755990D01*
X96624632Y-65593475D01*
X96831475Y-65386632D01*
X96948000Y-65212240D01*
X97064525Y-65386632D01*
X97218196Y-65540303D01*
X88552898Y-74205601D01*
X88523900Y-74229399D01*
X88500102Y-74258397D01*
X88500101Y-74258398D01*
X88428926Y-74345124D01*
X88358354Y-74477154D01*
X88314898Y-74620415D01*
X88300224Y-74769400D01*
X88303901Y-74806732D01*
X88303900Y-83529289D01*
X88259963Y-83573226D01*
X88146695Y-83742744D01*
X88068674Y-83931102D01*
X88028900Y-84131061D01*
X88028900Y-84334939D01*
X88068674Y-84534898D01*
X88146695Y-84723256D01*
X88259963Y-84892774D01*
X88404126Y-85036937D01*
X88573644Y-85150205D01*
X88762002Y-85228226D01*
X88961961Y-85268000D01*
X89165839Y-85268000D01*
X89365798Y-85228226D01*
X89554156Y-85150205D01*
X89723674Y-85036937D01*
X89867837Y-84892774D01*
X89981105Y-84723256D01*
X90059126Y-84534898D01*
X90078853Y-84435723D01*
X90099674Y-84540398D01*
X90177695Y-84728756D01*
X90290963Y-84898274D01*
X90435126Y-85042437D01*
X90604644Y-85155705D01*
X90793002Y-85233726D01*
X90992961Y-85273500D01*
X91196839Y-85273500D01*
X91396798Y-85233726D01*
X91585156Y-85155705D01*
X91636001Y-85121731D01*
X91666044Y-85141805D01*
X91854402Y-85219826D01*
X92054361Y-85259600D01*
X92258239Y-85259600D01*
X92458198Y-85219826D01*
X92646556Y-85141805D01*
X92720943Y-85092102D01*
X92722374Y-85099298D01*
X92800395Y-85287656D01*
X92913663Y-85457174D01*
X93057826Y-85601337D01*
X93227344Y-85714605D01*
X93415702Y-85792626D01*
X93615661Y-85832400D01*
X93801323Y-85832400D01*
X93877814Y-85855603D01*
X93989467Y-85866600D01*
X93989477Y-85866600D01*
X94026800Y-85870276D01*
X94064123Y-85866600D01*
X110208078Y-85866600D01*
X110245400Y-85870276D01*
X110282722Y-85866600D01*
X110282733Y-85866600D01*
X110394386Y-85855603D01*
X110537647Y-85812146D01*
X110669676Y-85741574D01*
X110785401Y-85646601D01*
X110809204Y-85617597D01*
X112249311Y-84177491D01*
X112456589Y-84315990D01*
X112726842Y-84427932D01*
X113013740Y-84485000D01*
X113306260Y-84485000D01*
X113593158Y-84427932D01*
X113863411Y-84315990D01*
X114106632Y-84153475D01*
X114313475Y-83946632D01*
X114315000Y-83944349D01*
X114315001Y-88808299D01*
X112560304Y-87053603D01*
X112536501Y-87024599D01*
X112420776Y-86929626D01*
X112288747Y-86859054D01*
X112145486Y-86815597D01*
X112033833Y-86804600D01*
X112033822Y-86804600D01*
X111996500Y-86800924D01*
X111959178Y-86804600D01*
X93453711Y-86804600D01*
X93409774Y-86760663D01*
X93240256Y-86647395D01*
X93051898Y-86569374D01*
X92851939Y-86529600D01*
X92648061Y-86529600D01*
X92448102Y-86569374D01*
X92259744Y-86647395D01*
X92090226Y-86760663D01*
X91946063Y-86904826D01*
X91832795Y-87074344D01*
X91754774Y-87262702D01*
X91715000Y-87462661D01*
X91715000Y-87544022D01*
X91706900Y-87543224D01*
X91669577Y-87546900D01*
X91669567Y-87546900D01*
X91557914Y-87557897D01*
X91414653Y-87601354D01*
X91282623Y-87671926D01*
X91240046Y-87706869D01*
X91166899Y-87766899D01*
X91143096Y-87795903D01*
X90893399Y-88045600D01*
X90431922Y-88045600D01*
X90394599Y-88041924D01*
X90357276Y-88045600D01*
X90357267Y-88045600D01*
X90245614Y-88056597D01*
X90102683Y-88099954D01*
X90102353Y-88100054D01*
X89970323Y-88170626D01*
X89904832Y-88224374D01*
X89854599Y-88265599D01*
X89830801Y-88294597D01*
X89392898Y-88732500D01*
X89330761Y-88732500D01*
X89130802Y-88772274D01*
X88942444Y-88850295D01*
X88855418Y-88908444D01*
X88740256Y-88831495D01*
X88551898Y-88753474D01*
X88351939Y-88713700D01*
X88148061Y-88713700D01*
X87948102Y-88753474D01*
X87759744Y-88831495D01*
X87590226Y-88944763D01*
X87446063Y-89088926D01*
X87332795Y-89258444D01*
X87254774Y-89446802D01*
X87254580Y-89447779D01*
X86217500Y-88410699D01*
X86217500Y-86250611D01*
X86261437Y-86206674D01*
X86374705Y-86037156D01*
X86452726Y-85848798D01*
X86492500Y-85648839D01*
X86492500Y-85444961D01*
X86452726Y-85245002D01*
X86374705Y-85056644D01*
X86261437Y-84887126D01*
X86117274Y-84742963D01*
X85947756Y-84629695D01*
X85759398Y-84551674D01*
X85559439Y-84511900D01*
X85355561Y-84511900D01*
X85155602Y-84551674D01*
X84967244Y-84629695D01*
X84797726Y-84742963D01*
X84653563Y-84887126D01*
X84540295Y-85056644D01*
X84462274Y-85245002D01*
X84422500Y-85444961D01*
X84422500Y-85648839D01*
X84462274Y-85848798D01*
X84540295Y-86037156D01*
X84653563Y-86206674D01*
X84697500Y-86250611D01*
X84697501Y-88688168D01*
X84693824Y-88725500D01*
X84697501Y-88762833D01*
X84698027Y-88768168D01*
X84708498Y-88874485D01*
X84751954Y-89017746D01*
X84822526Y-89149776D01*
X84888263Y-89229876D01*
X84917500Y-89265501D01*
X84946498Y-89289299D01*
X95887201Y-100230003D01*
X95910999Y-100259001D01*
X96026724Y-100353974D01*
X96158753Y-100424546D01*
X96302014Y-100468003D01*
X96413667Y-100479000D01*
X96413675Y-100479000D01*
X96451000Y-100482676D01*
X96488325Y-100479000D01*
X96656089Y-100479000D01*
X96700026Y-100522937D01*
X96869544Y-100636205D01*
X97057902Y-100714226D01*
X97257861Y-100754000D01*
X97461739Y-100754000D01*
X97661698Y-100714226D01*
X97850056Y-100636205D01*
X98019574Y-100522937D01*
X98163737Y-100378774D01*
X98277005Y-100209256D01*
X98320972Y-100103109D01*
X101558519Y-100103109D01*
X101679186Y-100333000D01*
X102873000Y-100333000D01*
X102873000Y-99139845D01*
X102643110Y-99018524D01*
X102495901Y-99063175D01*
X102233080Y-99188359D01*
X101999731Y-99362412D01*
X101804822Y-99578645D01*
X101655843Y-99828748D01*
X101558519Y-100103109D01*
X98320972Y-100103109D01*
X98355026Y-100020898D01*
X98394800Y-99820939D01*
X98394800Y-99617061D01*
X98355026Y-99417102D01*
X98277005Y-99228744D01*
X98163737Y-99059226D01*
X98019574Y-98915063D01*
X97850056Y-98801795D01*
X97661698Y-98723774D01*
X97461739Y-98684000D01*
X97257861Y-98684000D01*
X97057902Y-98723774D01*
X96869544Y-98801795D01*
X96713118Y-98906316D01*
X94085756Y-96278955D01*
X94101811Y-96262900D01*
X98329700Y-96262900D01*
X98329700Y-96330139D01*
X98369474Y-96530098D01*
X98447495Y-96718456D01*
X98560763Y-96887974D01*
X98704926Y-97032137D01*
X98874444Y-97145405D01*
X99062802Y-97223426D01*
X99262761Y-97263200D01*
X99466639Y-97263200D01*
X99666598Y-97223426D01*
X99854956Y-97145405D01*
X100024474Y-97032137D01*
X100068411Y-96988200D01*
X102725399Y-96988200D01*
X104868140Y-99130941D01*
X104836589Y-99144010D01*
X104593368Y-99306525D01*
X104386525Y-99513368D01*
X104264805Y-99695534D01*
X104195178Y-99578645D01*
X104000269Y-99362412D01*
X103766920Y-99188359D01*
X103504099Y-99063175D01*
X103356890Y-99018524D01*
X103127000Y-99139845D01*
X103127000Y-100333000D01*
X103147000Y-100333000D01*
X103147000Y-100587000D01*
X103127000Y-100587000D01*
X103127000Y-102873000D01*
X103147000Y-102873000D01*
X103147000Y-103127000D01*
X103127000Y-103127000D01*
X103127000Y-104326250D01*
X103285750Y-104485000D01*
X103850000Y-104488072D01*
X103974482Y-104475812D01*
X104094180Y-104439502D01*
X104204494Y-104380537D01*
X104301185Y-104301185D01*
X104380537Y-104204494D01*
X104439502Y-104094180D01*
X104461513Y-104021620D01*
X104593368Y-104153475D01*
X104836589Y-104315990D01*
X105106842Y-104427932D01*
X105393740Y-104485000D01*
X105686260Y-104485000D01*
X105973158Y-104427932D01*
X106243411Y-104315990D01*
X106486632Y-104153475D01*
X106693475Y-103946632D01*
X106810000Y-103772240D01*
X106926525Y-103946632D01*
X107133368Y-104153475D01*
X107376589Y-104315990D01*
X107646842Y-104427932D01*
X107933740Y-104485000D01*
X108226260Y-104485000D01*
X108513158Y-104427932D01*
X108783411Y-104315990D01*
X109026632Y-104153475D01*
X109233475Y-103946632D01*
X109350000Y-103772240D01*
X109466525Y-103946632D01*
X109673368Y-104153475D01*
X109916589Y-104315990D01*
X110186842Y-104427932D01*
X110473740Y-104485000D01*
X110766260Y-104485000D01*
X111053158Y-104427932D01*
X111323411Y-104315990D01*
X111566632Y-104153475D01*
X111773475Y-103946632D01*
X111890000Y-103772240D01*
X112006525Y-103946632D01*
X112213368Y-104153475D01*
X112456589Y-104315990D01*
X112726842Y-104427932D01*
X113013740Y-104485000D01*
X113306260Y-104485000D01*
X113593158Y-104427932D01*
X113863411Y-104315990D01*
X114106632Y-104153475D01*
X114313475Y-103946632D01*
X114315001Y-103944348D01*
X114315001Y-111315000D01*
X104002893Y-111315000D01*
X104244632Y-111153475D01*
X104451475Y-110946632D01*
X104613990Y-110703411D01*
X104725932Y-110433158D01*
X104783000Y-110146260D01*
X104783000Y-109853740D01*
X104725932Y-109566842D01*
X104613990Y-109296589D01*
X104451475Y-109053368D01*
X104244632Y-108846525D01*
X104051089Y-108717204D01*
X104047003Y-108675714D01*
X104003546Y-108532453D01*
X103932974Y-108400424D01*
X103838001Y-108284699D01*
X103809003Y-108260901D01*
X102580700Y-107032599D01*
X102580700Y-104485727D01*
X102714250Y-104485000D01*
X102873000Y-104326250D01*
X102873000Y-103127000D01*
X102853000Y-103127000D01*
X102853000Y-102873000D01*
X102873000Y-102873000D01*
X102873000Y-101998321D01*
X102936426Y-101845198D01*
X102976200Y-101645239D01*
X102976200Y-101441361D01*
X102936426Y-101241402D01*
X102873000Y-101088279D01*
X102873000Y-100587000D01*
X102337073Y-100587000D01*
X102243098Y-100548074D01*
X102043139Y-100508300D01*
X101839261Y-100508300D01*
X101639302Y-100548074D01*
X101450944Y-100626095D01*
X101281426Y-100739363D01*
X101137263Y-100883526D01*
X101023995Y-101053044D01*
X100945974Y-101241402D01*
X100906200Y-101441361D01*
X100906200Y-101645239D01*
X100945974Y-101845198D01*
X101023995Y-102033556D01*
X101060700Y-102088489D01*
X101060701Y-107310068D01*
X101057024Y-107347400D01*
X101071698Y-107496385D01*
X101115154Y-107639646D01*
X101185726Y-107771676D01*
X101256901Y-107858402D01*
X101280700Y-107887401D01*
X101309698Y-107911199D01*
X102298196Y-108899697D01*
X102144525Y-109053368D01*
X102028000Y-109227760D01*
X101911475Y-109053368D01*
X101704632Y-108846525D01*
X101461411Y-108684010D01*
X101191158Y-108572068D01*
X100904260Y-108515000D01*
X100611740Y-108515000D01*
X100324842Y-108572068D01*
X100054589Y-108684010D01*
X99811368Y-108846525D01*
X99604525Y-109053368D01*
X99488000Y-109227760D01*
X99371475Y-109053368D01*
X99164632Y-108846525D01*
X98921411Y-108684010D01*
X98651158Y-108572068D01*
X98364260Y-108515000D01*
X98071740Y-108515000D01*
X97784842Y-108572068D01*
X97514589Y-108684010D01*
X97271368Y-108846525D01*
X97064525Y-109053368D01*
X96948000Y-109227760D01*
X96831475Y-109053368D01*
X96624632Y-108846525D01*
X96381411Y-108684010D01*
X96111158Y-108572068D01*
X95824260Y-108515000D01*
X95531740Y-108515000D01*
X95244842Y-108572068D01*
X94974589Y-108684010D01*
X94731368Y-108846525D01*
X94599513Y-108978380D01*
X94577502Y-108905820D01*
X94518537Y-108795506D01*
X94439185Y-108698815D01*
X94342494Y-108619463D01*
X94232180Y-108560498D01*
X94112482Y-108524188D01*
X93988000Y-108511928D01*
X93423750Y-108515000D01*
X93265000Y-108673750D01*
X93265000Y-109873000D01*
X93285000Y-109873000D01*
X93285000Y-110127000D01*
X93265000Y-110127000D01*
X93265000Y-110147000D01*
X93011000Y-110147000D01*
X93011000Y-110127000D01*
X91811750Y-110127000D01*
X91653000Y-110285750D01*
X91649928Y-110850000D01*
X91662188Y-110974482D01*
X91698498Y-111094180D01*
X91757463Y-111204494D01*
X91836815Y-111301185D01*
X91853649Y-111315000D01*
X83685000Y-111315000D01*
X83685000Y-109150000D01*
X91649928Y-109150000D01*
X91653000Y-109714250D01*
X91811750Y-109873000D01*
X93011000Y-109873000D01*
X93011000Y-108673750D01*
X92852250Y-108515000D01*
X92288000Y-108511928D01*
X92163518Y-108524188D01*
X92043820Y-108560498D01*
X91933506Y-108619463D01*
X91836815Y-108698815D01*
X91757463Y-108795506D01*
X91698498Y-108905820D01*
X91662188Y-109025518D01*
X91649928Y-109150000D01*
X83685000Y-109150000D01*
X83685000Y-63125000D01*
X92433107Y-63125000D01*
X92191368Y-63286525D01*
G36*
X101515000Y-92714250D02*
G01*
X101673750Y-92873000D01*
X102873000Y-92873000D01*
X102873000Y-92853000D01*
X103127000Y-92853000D01*
X103127000Y-92873000D01*
X103147000Y-92873000D01*
X103147000Y-93127000D01*
X103127000Y-93127000D01*
X103127000Y-93147000D01*
X102873000Y-93147000D01*
X102873000Y-93127000D01*
X101673750Y-93127000D01*
X101515000Y-93285750D01*
X101514295Y-93415300D01*
X100741702Y-93415300D01*
X99721701Y-92395300D01*
X101513264Y-92395300D01*
X101515000Y-92714250D01*
G37*
X101515000Y-92714250D02*
X101673750Y-92873000D01*
X102873000Y-92873000D01*
X102873000Y-92853000D01*
X103127000Y-92853000D01*
X103127000Y-92873000D01*
X103147000Y-92873000D01*
X103147000Y-93127000D01*
X103127000Y-93127000D01*
X103127000Y-93147000D01*
X102873000Y-93147000D01*
X102873000Y-93127000D01*
X101673750Y-93127000D01*
X101515000Y-93285750D01*
X101514295Y-93415300D01*
X100741702Y-93415300D01*
X99721701Y-92395300D01*
X101513264Y-92395300D01*
X101515000Y-92714250D01*
G36*
X101558519Y-90103109D02*
G01*
X101679186Y-90333000D01*
X102873000Y-90333000D01*
X102873000Y-90313000D01*
X103127000Y-90313000D01*
X103127000Y-90333000D01*
X103147000Y-90333000D01*
X103147000Y-90587000D01*
X103127000Y-90587000D01*
X103127000Y-90607000D01*
X102873000Y-90607000D01*
X102873000Y-90587000D01*
X101679186Y-90587000D01*
X101558519Y-90816891D01*
X101579238Y-90875300D01*
X90451402Y-90875300D01*
X90120006Y-90543905D01*
X90236637Y-90427274D01*
X90338143Y-90275359D01*
X90446063Y-90436874D01*
X90590226Y-90581037D01*
X90759744Y-90694305D01*
X90948102Y-90772326D01*
X91148061Y-90812100D01*
X91351939Y-90812100D01*
X91551898Y-90772326D01*
X91740256Y-90694305D01*
X91909774Y-90581037D01*
X91953711Y-90537100D01*
X94840678Y-90537100D01*
X94878000Y-90540776D01*
X94915322Y-90537100D01*
X94915333Y-90537100D01*
X95026986Y-90526103D01*
X95170247Y-90482646D01*
X95302276Y-90412074D01*
X95418001Y-90317101D01*
X95441804Y-90288097D01*
X95685201Y-90044700D01*
X101579238Y-90044700D01*
X101558519Y-90103109D01*
G37*
X101558519Y-90103109D02*
X101679186Y-90333000D01*
X102873000Y-90333000D01*
X102873000Y-90313000D01*
X103127000Y-90313000D01*
X103127000Y-90333000D01*
X103147000Y-90333000D01*
X103147000Y-90587000D01*
X103127000Y-90587000D01*
X103127000Y-90607000D01*
X102873000Y-90607000D01*
X102873000Y-90587000D01*
X101679186Y-90587000D01*
X101558519Y-90816891D01*
X101579238Y-90875300D01*
X90451402Y-90875300D01*
X90120006Y-90543905D01*
X90236637Y-90427274D01*
X90338143Y-90275359D01*
X90446063Y-90436874D01*
X90590226Y-90581037D01*
X90759744Y-90694305D01*
X90948102Y-90772326D01*
X91148061Y-90812100D01*
X91351939Y-90812100D01*
X91551898Y-90772326D01*
X91740256Y-90694305D01*
X91909774Y-90581037D01*
X91953711Y-90537100D01*
X94840678Y-90537100D01*
X94878000Y-90540776D01*
X94915322Y-90537100D01*
X94915333Y-90537100D01*
X95026986Y-90526103D01*
X95170247Y-90482646D01*
X95302276Y-90412074D01*
X95418001Y-90317101D01*
X95441804Y-90288097D01*
X95685201Y-90044700D01*
X101579238Y-90044700D01*
X101558519Y-90103109D01*
G36*
X114315000Y-69515651D02*
G01*
X114313475Y-69513368D01*
X114106632Y-69306525D01*
X113863411Y-69144010D01*
X113593158Y-69032068D01*
X113306260Y-68975000D01*
X113013740Y-68975000D01*
X112726842Y-69032068D01*
X112456589Y-69144010D01*
X112213368Y-69306525D01*
X112006525Y-69513368D01*
X111890000Y-69687760D01*
X111773475Y-69513368D01*
X111566632Y-69306525D01*
X111323411Y-69144010D01*
X111053158Y-69032068D01*
X110766260Y-68975000D01*
X110473740Y-68975000D01*
X110186842Y-69032068D01*
X109916589Y-69144010D01*
X109673368Y-69306525D01*
X109466525Y-69513368D01*
X109350000Y-69687760D01*
X109233475Y-69513368D01*
X109026632Y-69306525D01*
X108783411Y-69144010D01*
X108513158Y-69032068D01*
X108226260Y-68975000D01*
X107933740Y-68975000D01*
X107646842Y-69032068D01*
X107376589Y-69144010D01*
X107133368Y-69306525D01*
X106926525Y-69513368D01*
X106810000Y-69687760D01*
X106693475Y-69513368D01*
X106486632Y-69306525D01*
X106243411Y-69144010D01*
X105973158Y-69032068D01*
X105686260Y-68975000D01*
X105393740Y-68975000D01*
X105106842Y-69032068D01*
X104836589Y-69144010D01*
X104593368Y-69306525D01*
X104386525Y-69513368D01*
X104264805Y-69695534D01*
X104195178Y-69578645D01*
X104000269Y-69362412D01*
X103766920Y-69188359D01*
X103504099Y-69063175D01*
X103356890Y-69018524D01*
X103127000Y-69139845D01*
X103127000Y-70333000D01*
X103147000Y-70333000D01*
X103147000Y-70587000D01*
X103127000Y-70587000D01*
X103127000Y-72873000D01*
X103147000Y-72873000D01*
X103147000Y-73127000D01*
X103127000Y-73127000D01*
X103127000Y-74326250D01*
X103285750Y-74485000D01*
X103850000Y-74488072D01*
X103974482Y-74475812D01*
X104094180Y-74439502D01*
X104204494Y-74380537D01*
X104301185Y-74301185D01*
X104380537Y-74204494D01*
X104439502Y-74094180D01*
X104461513Y-74021620D01*
X104593368Y-74153475D01*
X104836589Y-74315990D01*
X105106842Y-74427932D01*
X105393740Y-74485000D01*
X105686260Y-74485000D01*
X105973158Y-74427932D01*
X106243411Y-74315990D01*
X106486632Y-74153475D01*
X106693475Y-73946632D01*
X106810000Y-73772240D01*
X106926525Y-73946632D01*
X107080196Y-74100303D01*
X103664403Y-77516096D01*
X103635399Y-77539899D01*
X103580271Y-77607074D01*
X103540426Y-77655624D01*
X103469855Y-77787653D01*
X103469854Y-77787654D01*
X103426397Y-77930915D01*
X103415400Y-78042568D01*
X103415400Y-78042578D01*
X103411724Y-78079900D01*
X103415400Y-78117223D01*
X103415400Y-79036271D01*
X103356890Y-79018524D01*
X103127000Y-79139845D01*
X103127000Y-80333000D01*
X103147000Y-80333000D01*
X103147000Y-80587000D01*
X103127000Y-80587000D01*
X103127000Y-82873000D01*
X103147000Y-82873000D01*
X103147000Y-83127000D01*
X103127000Y-83127000D01*
X103127000Y-83147000D01*
X102873000Y-83147000D01*
X102873000Y-83127000D01*
X101673750Y-83127000D01*
X101515000Y-83285750D01*
X101514294Y-83415400D01*
X96080502Y-83415400D01*
X95642403Y-82977302D01*
X95618601Y-82948299D01*
X95502876Y-82853326D01*
X95370847Y-82782754D01*
X95227586Y-82739297D01*
X95115933Y-82728300D01*
X95115922Y-82728300D01*
X95078600Y-82724624D01*
X95041278Y-82728300D01*
X91882422Y-82728300D01*
X91845099Y-82724624D01*
X91807777Y-82728300D01*
X91807767Y-82728300D01*
X91696114Y-82739297D01*
X91552853Y-82782754D01*
X91420823Y-82853326D01*
X91337183Y-82921968D01*
X91305099Y-82948299D01*
X91281301Y-82977298D01*
X91055098Y-83203500D01*
X90992961Y-83203500D01*
X90793002Y-83243274D01*
X90604644Y-83321295D01*
X90435126Y-83434563D01*
X90290963Y-83578726D01*
X90177695Y-83748244D01*
X90099674Y-83936602D01*
X90079947Y-84035777D01*
X90059126Y-83931102D01*
X89981105Y-83742744D01*
X89867837Y-83573226D01*
X89823900Y-83529289D01*
X89823900Y-82150000D01*
X101511928Y-82150000D01*
X101515000Y-82714250D01*
X101673750Y-82873000D01*
X102873000Y-82873000D01*
X102873000Y-80587000D01*
X101679186Y-80587000D01*
X101558519Y-80816891D01*
X101655843Y-81091252D01*
X101804822Y-81341355D01*
X101981626Y-81537502D01*
X101905820Y-81560498D01*
X101795506Y-81619463D01*
X101698815Y-81698815D01*
X101619463Y-81795506D01*
X101560498Y-81905820D01*
X101524188Y-82025518D01*
X101511928Y-82150000D01*
X89823900Y-82150000D01*
X89823900Y-80103109D01*
X101558519Y-80103109D01*
X101679186Y-80333000D01*
X102873000Y-80333000D01*
X102873000Y-79139845D01*
X102643110Y-79018524D01*
X102495901Y-79063175D01*
X102233080Y-79188359D01*
X101999731Y-79362412D01*
X101804822Y-79578645D01*
X101655843Y-79828748D01*
X101558519Y-80103109D01*
X89823900Y-80103109D01*
X89823900Y-75084201D01*
X91058101Y-73850000D01*
X101511928Y-73850000D01*
X101524188Y-73974482D01*
X101560498Y-74094180D01*
X101619463Y-74204494D01*
X101698815Y-74301185D01*
X101795506Y-74380537D01*
X101905820Y-74439502D01*
X102025518Y-74475812D01*
X102150000Y-74488072D01*
X102714250Y-74485000D01*
X102873000Y-74326250D01*
X102873000Y-73127000D01*
X101673750Y-73127000D01*
X101515000Y-73285750D01*
X101511928Y-73850000D01*
X91058101Y-73850000D01*
X92758101Y-72150000D01*
X101511928Y-72150000D01*
X101515000Y-72714250D01*
X101673750Y-72873000D01*
X102873000Y-72873000D01*
X102873000Y-70587000D01*
X101679186Y-70587000D01*
X101558519Y-70816891D01*
X101655843Y-71091252D01*
X101804822Y-71341355D01*
X101981626Y-71537502D01*
X101905820Y-71560498D01*
X101795506Y-71619463D01*
X101698815Y-71698815D01*
X101619463Y-71795506D01*
X101560498Y-71905820D01*
X101524188Y-72025518D01*
X101511928Y-72150000D01*
X92758101Y-72150000D01*
X94804992Y-70103109D01*
X101558519Y-70103109D01*
X101679186Y-70333000D01*
X102873000Y-70333000D01*
X102873000Y-69139845D01*
X102643110Y-69018524D01*
X102495901Y-69063175D01*
X102233080Y-69188359D01*
X101999731Y-69362412D01*
X101804822Y-69578645D01*
X101655843Y-69828748D01*
X101558519Y-70103109D01*
X94804992Y-70103109D01*
X98729003Y-66179099D01*
X98758001Y-66155301D01*
X98852974Y-66039576D01*
X98923546Y-65907547D01*
X98967003Y-65764286D01*
X98971089Y-65722796D01*
X99164632Y-65593475D01*
X99371475Y-65386632D01*
X99488000Y-65212240D01*
X99604525Y-65386632D01*
X99811368Y-65593475D01*
X100054589Y-65755990D01*
X100324842Y-65867932D01*
X100611740Y-65925000D01*
X100904260Y-65925000D01*
X101191158Y-65867932D01*
X101461411Y-65755990D01*
X101704632Y-65593475D01*
X101836487Y-65461620D01*
X101858498Y-65534180D01*
X101917463Y-65644494D01*
X101996815Y-65741185D01*
X102093506Y-65820537D01*
X102203820Y-65879502D01*
X102323518Y-65915812D01*
X102448000Y-65928072D01*
X104148000Y-65928072D01*
X104272482Y-65915812D01*
X104392180Y-65879502D01*
X104502494Y-65820537D01*
X104599185Y-65741185D01*
X104678537Y-65644494D01*
X104737502Y-65534180D01*
X104773812Y-65414482D01*
X104786072Y-65290000D01*
X104786072Y-63590000D01*
X104773812Y-63465518D01*
X104737502Y-63345820D01*
X104678537Y-63235506D01*
X104599185Y-63138815D01*
X104582351Y-63125000D01*
X114315000Y-63125000D01*
X114315000Y-69515651D01*
G37*
X114315000Y-69515651D02*
X114313475Y-69513368D01*
X114106632Y-69306525D01*
X113863411Y-69144010D01*
X113593158Y-69032068D01*
X113306260Y-68975000D01*
X113013740Y-68975000D01*
X112726842Y-69032068D01*
X112456589Y-69144010D01*
X112213368Y-69306525D01*
X112006525Y-69513368D01*
X111890000Y-69687760D01*
X111773475Y-69513368D01*
X111566632Y-69306525D01*
X111323411Y-69144010D01*
X111053158Y-69032068D01*
X110766260Y-68975000D01*
X110473740Y-68975000D01*
X110186842Y-69032068D01*
X109916589Y-69144010D01*
X109673368Y-69306525D01*
X109466525Y-69513368D01*
X109350000Y-69687760D01*
X109233475Y-69513368D01*
X109026632Y-69306525D01*
X108783411Y-69144010D01*
X108513158Y-69032068D01*
X108226260Y-68975000D01*
X107933740Y-68975000D01*
X107646842Y-69032068D01*
X107376589Y-69144010D01*
X107133368Y-69306525D01*
X106926525Y-69513368D01*
X106810000Y-69687760D01*
X106693475Y-69513368D01*
X106486632Y-69306525D01*
X106243411Y-69144010D01*
X105973158Y-69032068D01*
X105686260Y-68975000D01*
X105393740Y-68975000D01*
X105106842Y-69032068D01*
X104836589Y-69144010D01*
X104593368Y-69306525D01*
X104386525Y-69513368D01*
X104264805Y-69695534D01*
X104195178Y-69578645D01*
X104000269Y-69362412D01*
X103766920Y-69188359D01*
X103504099Y-69063175D01*
X103356890Y-69018524D01*
X103127000Y-69139845D01*
X103127000Y-70333000D01*
X103147000Y-70333000D01*
X103147000Y-70587000D01*
X103127000Y-70587000D01*
X103127000Y-72873000D01*
X103147000Y-72873000D01*
X103147000Y-73127000D01*
X103127000Y-73127000D01*
X103127000Y-74326250D01*
X103285750Y-74485000D01*
X103850000Y-74488072D01*
X103974482Y-74475812D01*
X104094180Y-74439502D01*
X104204494Y-74380537D01*
X104301185Y-74301185D01*
X104380537Y-74204494D01*
X104439502Y-74094180D01*
X104461513Y-74021620D01*
X104593368Y-74153475D01*
X104836589Y-74315990D01*
X105106842Y-74427932D01*
X105393740Y-74485000D01*
X105686260Y-74485000D01*
X105973158Y-74427932D01*
X106243411Y-74315990D01*
X106486632Y-74153475D01*
X106693475Y-73946632D01*
X106810000Y-73772240D01*
X106926525Y-73946632D01*
X107080196Y-74100303D01*
X103664403Y-77516096D01*
X103635399Y-77539899D01*
X103580271Y-77607074D01*
X103540426Y-77655624D01*
X103469855Y-77787653D01*
X103469854Y-77787654D01*
X103426397Y-77930915D01*
X103415400Y-78042568D01*
X103415400Y-78042578D01*
X103411724Y-78079900D01*
X103415400Y-78117223D01*
X103415400Y-79036271D01*
X103356890Y-79018524D01*
X103127000Y-79139845D01*
X103127000Y-80333000D01*
X103147000Y-80333000D01*
X103147000Y-80587000D01*
X103127000Y-80587000D01*
X103127000Y-82873000D01*
X103147000Y-82873000D01*
X103147000Y-83127000D01*
X103127000Y-83127000D01*
X103127000Y-83147000D01*
X102873000Y-83147000D01*
X102873000Y-83127000D01*
X101673750Y-83127000D01*
X101515000Y-83285750D01*
X101514294Y-83415400D01*
X96080502Y-83415400D01*
X95642403Y-82977302D01*
X95618601Y-82948299D01*
X95502876Y-82853326D01*
X95370847Y-82782754D01*
X95227586Y-82739297D01*
X95115933Y-82728300D01*
X95115922Y-82728300D01*
X95078600Y-82724624D01*
X95041278Y-82728300D01*
X91882422Y-82728300D01*
X91845099Y-82724624D01*
X91807777Y-82728300D01*
X91807767Y-82728300D01*
X91696114Y-82739297D01*
X91552853Y-82782754D01*
X91420823Y-82853326D01*
X91337183Y-82921968D01*
X91305099Y-82948299D01*
X91281301Y-82977298D01*
X91055098Y-83203500D01*
X90992961Y-83203500D01*
X90793002Y-83243274D01*
X90604644Y-83321295D01*
X90435126Y-83434563D01*
X90290963Y-83578726D01*
X90177695Y-83748244D01*
X90099674Y-83936602D01*
X90079947Y-84035777D01*
X90059126Y-83931102D01*
X89981105Y-83742744D01*
X89867837Y-83573226D01*
X89823900Y-83529289D01*
X89823900Y-82150000D01*
X101511928Y-82150000D01*
X101515000Y-82714250D01*
X101673750Y-82873000D01*
X102873000Y-82873000D01*
X102873000Y-80587000D01*
X101679186Y-80587000D01*
X101558519Y-80816891D01*
X101655843Y-81091252D01*
X101804822Y-81341355D01*
X101981626Y-81537502D01*
X101905820Y-81560498D01*
X101795506Y-81619463D01*
X101698815Y-81698815D01*
X101619463Y-81795506D01*
X101560498Y-81905820D01*
X101524188Y-82025518D01*
X101511928Y-82150000D01*
X89823900Y-82150000D01*
X89823900Y-80103109D01*
X101558519Y-80103109D01*
X101679186Y-80333000D01*
X102873000Y-80333000D01*
X102873000Y-79139845D01*
X102643110Y-79018524D01*
X102495901Y-79063175D01*
X102233080Y-79188359D01*
X101999731Y-79362412D01*
X101804822Y-79578645D01*
X101655843Y-79828748D01*
X101558519Y-80103109D01*
X89823900Y-80103109D01*
X89823900Y-75084201D01*
X91058101Y-73850000D01*
X101511928Y-73850000D01*
X101524188Y-73974482D01*
X101560498Y-74094180D01*
X101619463Y-74204494D01*
X101698815Y-74301185D01*
X101795506Y-74380537D01*
X101905820Y-74439502D01*
X102025518Y-74475812D01*
X102150000Y-74488072D01*
X102714250Y-74485000D01*
X102873000Y-74326250D01*
X102873000Y-73127000D01*
X101673750Y-73127000D01*
X101515000Y-73285750D01*
X101511928Y-73850000D01*
X91058101Y-73850000D01*
X92758101Y-72150000D01*
X101511928Y-72150000D01*
X101515000Y-72714250D01*
X101673750Y-72873000D01*
X102873000Y-72873000D01*
X102873000Y-70587000D01*
X101679186Y-70587000D01*
X101558519Y-70816891D01*
X101655843Y-71091252D01*
X101804822Y-71341355D01*
X101981626Y-71537502D01*
X101905820Y-71560498D01*
X101795506Y-71619463D01*
X101698815Y-71698815D01*
X101619463Y-71795506D01*
X101560498Y-71905820D01*
X101524188Y-72025518D01*
X101511928Y-72150000D01*
X92758101Y-72150000D01*
X94804992Y-70103109D01*
X101558519Y-70103109D01*
X101679186Y-70333000D01*
X102873000Y-70333000D01*
X102873000Y-69139845D01*
X102643110Y-69018524D01*
X102495901Y-69063175D01*
X102233080Y-69188359D01*
X101999731Y-69362412D01*
X101804822Y-69578645D01*
X101655843Y-69828748D01*
X101558519Y-70103109D01*
X94804992Y-70103109D01*
X98729003Y-66179099D01*
X98758001Y-66155301D01*
X98852974Y-66039576D01*
X98923546Y-65907547D01*
X98967003Y-65764286D01*
X98971089Y-65722796D01*
X99164632Y-65593475D01*
X99371475Y-65386632D01*
X99488000Y-65212240D01*
X99604525Y-65386632D01*
X99811368Y-65593475D01*
X100054589Y-65755990D01*
X100324842Y-65867932D01*
X100611740Y-65925000D01*
X100904260Y-65925000D01*
X101191158Y-65867932D01*
X101461411Y-65755990D01*
X101704632Y-65593475D01*
X101836487Y-65461620D01*
X101858498Y-65534180D01*
X101917463Y-65644494D01*
X101996815Y-65741185D01*
X102093506Y-65820537D01*
X102203820Y-65879502D01*
X102323518Y-65915812D01*
X102448000Y-65928072D01*
X104148000Y-65928072D01*
X104272482Y-65915812D01*
X104392180Y-65879502D01*
X104502494Y-65820537D01*
X104599185Y-65741185D01*
X104678537Y-65644494D01*
X104737502Y-65534180D01*
X104773812Y-65414482D01*
X104786072Y-65290000D01*
X104786072Y-63590000D01*
X104773812Y-63465518D01*
X104737502Y-63345820D01*
X104678537Y-63235506D01*
X104599185Y-63138815D01*
X104582351Y-63125000D01*
X114315000Y-63125000D01*
X114315000Y-69515651D01*
%TD*%
M02*
