G04 #@! TF.GenerationSoftware,KiCad,Pcbnew,(6.0.5-0)*
G04 #@! TF.CreationDate,2022-08-24T15:35:38+09:00*
G04 #@! TF.ProjectId,photo-single,70686f74-6f2d-4736-996e-676c652e6b69,rev?*
G04 #@! TF.SameCoordinates,Original*
G04 #@! TF.FileFunction,Paste,Top*
G04 #@! TF.FilePolarity,Positive*
%FSLAX46Y46*%
G04 Gerber Fmt 4.6, Leading zero omitted, Abs format (unit mm)*
G04 Created by KiCad (PCBNEW (6.0.5-0)) date 2022-08-24 15:35:38*
%MOMM*%
%LPD*%
G01*
G04 APERTURE LIST*
G04 Aperture macros list*
%AMRoundRect*
0 Rectangle with rounded corners*
0 $1 Rounding radius*
0 $2 $3 $4 $5 $6 $7 $8 $9 X,Y pos of 4 corners*
0 Add a 4 corners polygon primitive as box body*
4,1,4,$2,$3,$4,$5,$6,$7,$8,$9,$2,$3,0*
0 Add four circle primitives for the rounded corners*
1,1,$1+$1,$2,$3*
1,1,$1+$1,$4,$5*
1,1,$1+$1,$6,$7*
1,1,$1+$1,$8,$9*
0 Add four rect primitives between the rounded corners*
20,1,$1+$1,$2,$3,$4,$5,0*
20,1,$1+$1,$4,$5,$6,$7,0*
20,1,$1+$1,$6,$7,$8,$9,0*
20,1,$1+$1,$8,$9,$2,$3,0*%
G04 Aperture macros list end*
%ADD10C,0.475000*%
%ADD11RoundRect,0.200000X-0.600000X0.300000X-0.600000X-0.300000X0.600000X-0.300000X0.600000X0.300000X0*%
%ADD12RoundRect,0.200000X0.600000X-0.300000X0.600000X0.300000X-0.600000X0.300000X-0.600000X-0.300000X0*%
%ADD13RoundRect,0.072295X0.552705X-0.072295X0.552705X0.072295X-0.552705X0.072295X-0.552705X-0.072295X0*%
%ADD14RoundRect,0.600000X0.899999X-0.600000X0.899999X0.600000X-0.899999X0.600000X-0.899999X-0.600000X0*%
%ADD15R,1.200000X0.900000*%
G04 APERTURE END LIST*
D10*
X167237500Y-74000000D02*
G75*
G03*
X167237500Y-74000000I-237500J0D01*
G01*
X94237500Y-73000000D02*
G75*
G03*
X94237500Y-73000000I-237500J0D01*
G01*
X95237500Y-124500000D02*
G75*
G03*
X95237500Y-124500000I-237500J0D01*
G01*
X167237500Y-126000000D02*
G75*
G03*
X167237500Y-126000000I-237500J0D01*
G01*
D11*
X160921217Y-89002054D03*
X160921217Y-92002054D03*
X153921211Y-89002066D03*
X153921211Y-92002066D03*
X151921211Y-89002066D03*
X151921211Y-92002066D03*
X144921211Y-89002066D03*
X144921211Y-92002066D03*
X142921211Y-89002066D03*
X142921211Y-92002066D03*
X135921211Y-89002066D03*
X135921211Y-92002066D03*
X133921211Y-89002066D03*
X133921211Y-92002066D03*
X126921211Y-89002066D03*
X126921211Y-92002066D03*
X124921211Y-89002066D03*
X124921211Y-92002066D03*
X117921211Y-89002066D03*
X117921211Y-92002066D03*
X115921211Y-89002066D03*
X115921211Y-92002066D03*
X108921211Y-89002066D03*
X108921211Y-92002066D03*
X106921211Y-89002066D03*
X106921211Y-92002066D03*
X99921211Y-89002066D03*
X99921211Y-92002066D03*
X97921211Y-89002066D03*
X97921211Y-92002066D03*
D12*
X115921211Y-111001633D03*
X115921211Y-108001633D03*
X124921211Y-111001633D03*
X124921211Y-108001633D03*
X117921211Y-111001633D03*
X117921211Y-108001633D03*
X108921211Y-111001633D03*
X108921211Y-108001633D03*
X97921211Y-111001633D03*
X97921211Y-108001633D03*
X99921211Y-111001633D03*
X99921211Y-108001633D03*
X106921211Y-111001633D03*
X106921211Y-108001633D03*
X160921211Y-111001633D03*
X160921211Y-108001633D03*
X126921211Y-108001633D03*
X126921211Y-111001633D03*
X133921211Y-111001633D03*
X133921211Y-108001633D03*
X135921211Y-111001633D03*
X135921211Y-108001633D03*
X142921211Y-111001633D03*
X142921211Y-108001633D03*
X144921211Y-111001633D03*
X144921211Y-108001633D03*
X151921211Y-111001633D03*
X151921211Y-108001633D03*
X153921211Y-111001633D03*
X153921211Y-108001633D03*
D11*
X162921213Y-89002054D03*
X162921213Y-92002054D03*
D12*
X162921211Y-111001633D03*
X162921211Y-108001633D03*
D13*
X202073993Y-115770000D03*
X202073993Y-115270000D03*
X202073993Y-114770000D03*
X202073993Y-114270000D03*
X202073993Y-113770000D03*
X202073993Y-113270000D03*
X202073993Y-112770001D03*
X202073993Y-112269999D03*
X202073993Y-111770000D03*
X202073993Y-111269999D03*
X202073993Y-110770000D03*
X202073993Y-110270001D03*
X202073993Y-109769999D03*
X202073993Y-109270000D03*
X202073993Y-108769999D03*
X202073993Y-108270000D03*
X202073993Y-107770001D03*
X202073993Y-107269999D03*
X202073993Y-106770000D03*
X202073993Y-106270001D03*
X202073993Y-105770000D03*
X202073993Y-105270001D03*
X202073993Y-104769999D03*
X202073993Y-104270000D03*
X202073993Y-103770001D03*
X202073993Y-103270000D03*
X202073993Y-102770001D03*
X202073993Y-102269999D03*
X202073993Y-101770000D03*
X202073993Y-101270001D03*
X202073993Y-100770000D03*
X202073993Y-100270001D03*
X202073993Y-99769999D03*
X202073993Y-99270000D03*
X202073993Y-98770001D03*
X202073993Y-98269999D03*
X202073993Y-97770000D03*
X202073993Y-97269999D03*
X202073993Y-96770000D03*
X202073993Y-96270001D03*
X202073993Y-95769999D03*
X202073993Y-95270000D03*
X202073993Y-94769999D03*
X202073993Y-94270000D03*
X202073993Y-93770001D03*
X202073993Y-93269999D03*
X202073993Y-92770000D03*
X202073993Y-92269999D03*
X202073993Y-91770000D03*
X202073993Y-91270001D03*
X202073993Y-90769999D03*
X202073993Y-90270000D03*
X202073993Y-89770001D03*
X202073993Y-89270002D03*
X202073993Y-88770003D03*
X202073993Y-88270004D03*
X202073993Y-87770005D03*
X202073993Y-87270006D03*
X202073993Y-86770007D03*
X202073993Y-86270008D03*
D14*
X204398993Y-117570000D03*
X204398993Y-84470012D03*
D15*
X176600005Y-94999988D03*
X174400005Y-94999988D03*
M02*
