G04 #@! TF.GenerationSoftware,KiCad,Pcbnew,(6.0.5-0)*
G04 #@! TF.CreationDate,2022-08-24T15:35:38+09:00*
G04 #@! TF.ProjectId,photo-single,70686f74-6f2d-4736-996e-676c652e6b69,rev?*
G04 #@! TF.SameCoordinates,Original*
G04 #@! TF.FileFunction,Copper,L2,Bot*
G04 #@! TF.FilePolarity,Positive*
%FSLAX46Y46*%
G04 Gerber Fmt 4.6, Leading zero omitted, Abs format (unit mm)*
G04 Created by KiCad (PCBNEW (6.0.5-0)) date 2022-08-24 15:35:38*
%MOMM*%
%LPD*%
G01*
G04 APERTURE LIST*
G04 #@! TA.AperFunction,ComponentPad*
%ADD10R,1.700000X1.700000*%
G04 #@! TD*
G04 #@! TA.AperFunction,ComponentPad*
%ADD11O,1.700000X1.700000*%
G04 #@! TD*
G04 #@! TA.AperFunction,ViaPad*
%ADD12C,0.800000*%
G04 #@! TD*
G04 #@! TA.AperFunction,Conductor*
%ADD13C,0.210820*%
G04 #@! TD*
G04 APERTURE END LIST*
D10*
X176789994Y-105780002D03*
D11*
X174249994Y-105780002D03*
D10*
X180905000Y-75372000D03*
D11*
X183445000Y-75372000D03*
X185985000Y-75372000D03*
X188525000Y-75372000D03*
X191065000Y-75372000D03*
X193605000Y-75372000D03*
X196145000Y-75372000D03*
X198685000Y-75372000D03*
X201225000Y-75372000D03*
X203765000Y-75372000D03*
D10*
X203765000Y-124628000D03*
D11*
X201225000Y-124628000D03*
X198685000Y-124628000D03*
X196145000Y-124628000D03*
X193605000Y-124628000D03*
X191065000Y-124628000D03*
X188525000Y-124628000D03*
X185985000Y-124628000D03*
X183445000Y-124628000D03*
X180905000Y-124628000D03*
D12*
X202300000Y-73790000D03*
X206280000Y-71960000D03*
X198400000Y-72030000D03*
X192690000Y-73570000D03*
X185930000Y-72280000D03*
X179110000Y-72350000D03*
X173910000Y-77340000D03*
X175640000Y-81870000D03*
X179240000Y-77680000D03*
X182970000Y-82000000D03*
X179120000Y-85810000D03*
X185750000Y-86230000D03*
X187960000Y-82140000D03*
X193830000Y-82060000D03*
X191090000Y-85670000D03*
X185670000Y-77810000D03*
X190620000Y-78700000D03*
X196520000Y-80020000D03*
X196460000Y-85670000D03*
X163740000Y-74680000D03*
X163880000Y-81490000D03*
X167820000Y-77690000D03*
X168100000Y-85780000D03*
X160160000Y-84330000D03*
X169270000Y-72660000D03*
X161220000Y-71770000D03*
X182850000Y-94500000D03*
X185050000Y-91600000D03*
X187000000Y-94410000D03*
X181490000Y-91320000D03*
X174920000Y-91350000D03*
X170640000Y-93000000D03*
X165510000Y-90970000D03*
X161920000Y-90220000D03*
X159110000Y-92010000D03*
X155760000Y-89030000D03*
X152960000Y-90120000D03*
X149850000Y-91920000D03*
X146730000Y-89160000D03*
X143890000Y-90080000D03*
X137710000Y-83800000D03*
X141050000Y-91910000D03*
X137600000Y-88830000D03*
X131980000Y-91850000D03*
X128790000Y-88930000D03*
X125950000Y-90110000D03*
X122840000Y-91760000D03*
X119880000Y-89110000D03*
X116960000Y-90280000D03*
X142510000Y-83540000D03*
X145890000Y-86960000D03*
X145350000Y-80580000D03*
X134240000Y-86840000D03*
X134240000Y-80730000D03*
X159520000Y-77920000D03*
X153930000Y-74140000D03*
X148080000Y-72160000D03*
X145140000Y-77320000D03*
X139960000Y-74400000D03*
X133920000Y-72300000D03*
X131940000Y-78230000D03*
X130280000Y-75130000D03*
X121160000Y-72130000D03*
X121980000Y-82710000D03*
X125580000Y-79650000D03*
X119270000Y-86420000D03*
X124920000Y-85790000D03*
X115500000Y-79890000D03*
X109830000Y-79010000D03*
X102990000Y-75230000D03*
X116980000Y-75260000D03*
X109810000Y-72320000D03*
X113230000Y-86960000D03*
X113750000Y-91850000D03*
X110900000Y-88970000D03*
X107920000Y-90120000D03*
X104940000Y-91950000D03*
X101910000Y-89140000D03*
X98940000Y-90200000D03*
X97590000Y-83270000D03*
X103360000Y-87120000D03*
X97590000Y-76460000D03*
X102190000Y-79560000D03*
X99890000Y-72190000D03*
X89990000Y-84490000D03*
X89190000Y-75710000D03*
X92940000Y-85990000D03*
X92990000Y-79230000D03*
X92900000Y-72380000D03*
X85860000Y-72380000D03*
X85810000Y-78900000D03*
X86090000Y-85990000D03*
X153480000Y-128040000D03*
X139390000Y-127550000D03*
X113130000Y-122610000D03*
X124180000Y-122550000D03*
X124220000Y-126500000D03*
X122180000Y-119150000D03*
X119000000Y-113670000D03*
X125200000Y-114050000D03*
X115640000Y-119150000D03*
X103450000Y-124710000D03*
X117130000Y-124630000D03*
X109710000Y-120890000D03*
X109870000Y-126550000D03*
X113190000Y-112990000D03*
X101740000Y-112920000D03*
X96860000Y-117080000D03*
X97050000Y-124340000D03*
X101460000Y-120620000D03*
X100050000Y-127840000D03*
X89180000Y-124760000D03*
X92350000Y-127870000D03*
X85770000Y-128000000D03*
X86010000Y-121040000D03*
X92100000Y-120960000D03*
X92100000Y-114200000D03*
X86050000Y-114200000D03*
X96040000Y-112230000D03*
X99010000Y-109920000D03*
X102120000Y-110680000D03*
X104820000Y-108170000D03*
X107880000Y-109920000D03*
X110710000Y-111100000D03*
X113900000Y-108070000D03*
X116920000Y-109790000D03*
X119920000Y-110990000D03*
X122900000Y-108260000D03*
X125940000Y-109810000D03*
X129060000Y-111190000D03*
X131910000Y-108170000D03*
X134970000Y-109690000D03*
X138050000Y-111320000D03*
X141050000Y-107960000D03*
X143950000Y-109880000D03*
X147020000Y-110950000D03*
X149860000Y-108260000D03*
X152960000Y-109590000D03*
X155790000Y-110950000D03*
X159070000Y-108120000D03*
X161950000Y-109620000D03*
X149480000Y-113060000D03*
X139550000Y-116080000D03*
X145270000Y-118910000D03*
X145210000Y-113340000D03*
X134200000Y-113250000D03*
X134170000Y-118970000D03*
X131370000Y-121770000D03*
X136720000Y-124640000D03*
X143590000Y-122780000D03*
X151130000Y-124250000D03*
X163990000Y-124750000D03*
X163710000Y-119380000D03*
X159220000Y-121950000D03*
X160900000Y-128260000D03*
X167720000Y-128120000D03*
X172530000Y-122230000D03*
X178510000Y-119760000D03*
X174770000Y-115410000D03*
X166350000Y-115100000D03*
X160170000Y-115570000D03*
X166730000Y-110230000D03*
X170940000Y-107330000D03*
X181560000Y-107460000D03*
X179100000Y-109960000D03*
X181480000Y-102780000D03*
X185560000Y-96850000D03*
X185340000Y-99710000D03*
X181500000Y-96990000D03*
X179190000Y-103850000D03*
X179430000Y-96500000D03*
X191900000Y-109280000D03*
X193080000Y-117650000D03*
X190250000Y-113450000D03*
X185710000Y-117540000D03*
X179980000Y-115320000D03*
X185860000Y-110620000D03*
X186970000Y-106000000D03*
X191170000Y-105270000D03*
X195950000Y-105200000D03*
X198450000Y-110020000D03*
X190510000Y-121350000D03*
X183540000Y-122630000D03*
X196090000Y-114500000D03*
X196760000Y-120040000D03*
X177220000Y-128400000D03*
X182340000Y-125890000D03*
X187780000Y-128040000D03*
X192770000Y-126040000D03*
X197790000Y-128270000D03*
X202180000Y-126070000D03*
X206610000Y-128110000D03*
X206610000Y-124990000D03*
X202180000Y-121870000D03*
X206840000Y-119950000D03*
X202280000Y-117010000D03*
X206910000Y-113720000D03*
X204080000Y-109710000D03*
X206770000Y-105540000D03*
X203960000Y-101630000D03*
X206870000Y-97840000D03*
X203730000Y-93950000D03*
X206800000Y-90960000D03*
X203640000Y-87710000D03*
X204430000Y-79910000D03*
X206840000Y-82700000D03*
X207100000Y-77950000D03*
X202350000Y-82560000D03*
X202080000Y-78170000D03*
X178700000Y-106780000D03*
X178400000Y-94560000D03*
X187208560Y-91834680D03*
X183410725Y-101600867D03*
X184340009Y-101977491D03*
X188117233Y-92258621D03*
X189025665Y-92683079D03*
X185251505Y-102395329D03*
X186161975Y-102815397D03*
X189943040Y-93087847D03*
X187070124Y-103240459D03*
X190850216Y-93514981D03*
X187992720Y-103633180D03*
X191767379Y-93920227D03*
X188903931Y-104051637D03*
X192681286Y-94332764D03*
X193601710Y-94730548D03*
X189820000Y-104459350D03*
X190518305Y-89877403D03*
X190526606Y-99894712D03*
X191430000Y-89460000D03*
X191428755Y-99457061D03*
X192345917Y-99051812D03*
X192343794Y-89028067D03*
X193266174Y-88634839D03*
X193262434Y-98645107D03*
X194177427Y-98234985D03*
X194170875Y-88202488D03*
X195092440Y-87807353D03*
X195087944Y-97815021D03*
X195991668Y-97380631D03*
X196000564Y-87382237D03*
X196910030Y-86960000D03*
X196910030Y-96978110D03*
X200890000Y-115510000D03*
X200857410Y-105535199D03*
X200631890Y-114523471D03*
X193581666Y-106593591D03*
X194493510Y-107010667D03*
X195408066Y-107421764D03*
X196314413Y-107850655D03*
X197225077Y-108270300D03*
X198136901Y-108687420D03*
X199053059Y-109094933D03*
X199068604Y-110881879D03*
X199991189Y-110489134D03*
X197245115Y-111715665D03*
X198164462Y-111315398D03*
X194490000Y-112970000D03*
X193616893Y-113463049D03*
X195416137Y-112537114D03*
X196339101Y-112145258D03*
X199976126Y-109486545D03*
X182509306Y-101161713D03*
X187123811Y-96573811D03*
X186264846Y-91495834D03*
D13*
X187208560Y-91834680D02*
X187208560Y-92832726D01*
X186577572Y-101269370D02*
X183742222Y-101269370D01*
X183742222Y-101269370D02*
X183410725Y-101600867D01*
X189279517Y-95419524D02*
X186923706Y-97775335D01*
X189279517Y-94903683D02*
X189279517Y-95419524D01*
X186923706Y-97775335D02*
X186923705Y-100926295D01*
X187208560Y-92832726D02*
X189279517Y-94903683D01*
X186923705Y-100926295D02*
X186579101Y-101270899D01*
X186579101Y-101270899D02*
X186577572Y-101269370D01*
X184633061Y-101684439D02*
X184340009Y-101977491D01*
X189840000Y-95443867D02*
X187337246Y-97946628D01*
X189840000Y-94879332D02*
X189840000Y-95443867D01*
X187337245Y-99250000D02*
X187337245Y-101422755D01*
X187075561Y-101684439D02*
X184633061Y-101684439D01*
X187337246Y-97946628D02*
X187337245Y-99250000D01*
X187337245Y-101422755D02*
X187075561Y-101684439D01*
X188117233Y-93156565D02*
X189840000Y-94879332D01*
X188117233Y-92258621D02*
X188117233Y-93156565D01*
X190390000Y-95478701D02*
X187750786Y-98117921D01*
X189025665Y-92683079D02*
X189025665Y-93480164D01*
X187750785Y-99380000D02*
X187750785Y-101789215D01*
X187750786Y-98117921D02*
X187750785Y-99380000D01*
X190390000Y-94844499D02*
X190390000Y-95478701D01*
X185548855Y-102097979D02*
X185251505Y-102395329D01*
X187442021Y-102097979D02*
X185548855Y-102097979D01*
X189025665Y-93480164D02*
X190390000Y-94844499D01*
X187750785Y-101789215D02*
X187442021Y-102097979D01*
X189943040Y-93087847D02*
X189943040Y-93812706D01*
X187958481Y-102511519D02*
X186465853Y-102511519D01*
X189943040Y-93812706D02*
X191030000Y-94899666D01*
X188164325Y-99510000D02*
X188164325Y-102305675D01*
X188164326Y-98289214D02*
X188164325Y-99510000D01*
X186465853Y-102511519D02*
X186161975Y-102815397D01*
X188164325Y-102305675D02*
X187958481Y-102511519D01*
X191030000Y-94899666D02*
X191030000Y-95423535D01*
X191030000Y-95423535D02*
X188164326Y-98289214D01*
X187070124Y-103240459D02*
X187385524Y-102925059D01*
X188577866Y-98460505D02*
X188577865Y-99480000D01*
X188280024Y-102929976D02*
X188280000Y-102930000D01*
X187385524Y-102925059D02*
X188080000Y-102925059D01*
X188280000Y-102930000D02*
X188080000Y-102930000D01*
X188577865Y-102632135D02*
X188280024Y-102929976D01*
X191642583Y-95395786D02*
X188577866Y-98460505D01*
X190850216Y-93514981D02*
X190850216Y-94135049D01*
X188577865Y-99480000D02*
X188577865Y-102632135D01*
X191642583Y-94927416D02*
X191642583Y-95395786D01*
X190850216Y-94135049D02*
X191642583Y-94927416D01*
X188766484Y-103343516D02*
X188991405Y-103118595D01*
X192267746Y-95355457D02*
X192267746Y-94967746D01*
X192267746Y-94967746D02*
X191767379Y-94467379D01*
X188282384Y-103343516D02*
X188766484Y-103343516D01*
X191767379Y-94467379D02*
X191767379Y-93920227D01*
X187992720Y-103633180D02*
X188282384Y-103343516D01*
X188991405Y-103118595D02*
X188991406Y-98631798D01*
X188991406Y-98631798D02*
X192267746Y-95355457D01*
X189404946Y-98803091D02*
X189404945Y-99660000D01*
X189404945Y-99660000D02*
X189404945Y-103550623D01*
X192681286Y-95526751D02*
X189404946Y-98803091D01*
X189404945Y-103550623D02*
X188903931Y-104051637D01*
X192681286Y-94332764D02*
X192681286Y-95526751D01*
X189818485Y-104457835D02*
X189820000Y-104459350D01*
X189818485Y-98974386D02*
X189818485Y-99930000D01*
X189818485Y-99930000D02*
X189818485Y-104457835D01*
X193601710Y-94730548D02*
X193601710Y-95191161D01*
X193601710Y-95191161D02*
X189818485Y-98974386D01*
X190810942Y-90170040D02*
X190518305Y-89877403D01*
X190526606Y-99894712D02*
X190526606Y-98851099D01*
X193880040Y-90170040D02*
X190810942Y-90170040D01*
X194309820Y-95067885D02*
X194309820Y-90599820D01*
X190526606Y-98851099D02*
X194309820Y-95067885D01*
X194309820Y-90599820D02*
X193880040Y-90170040D01*
X194723360Y-95239179D02*
X194723360Y-90093360D01*
X191428755Y-98533784D02*
X194723360Y-95239179D01*
X194723360Y-90093360D02*
X194386094Y-89756094D01*
X191428755Y-99457061D02*
X191428755Y-98533784D01*
X194385688Y-89756500D02*
X191726500Y-89756500D01*
X194386094Y-89756094D02*
X194385688Y-89756500D01*
X191726500Y-89756500D02*
X191430000Y-89460000D01*
X195136900Y-95410472D02*
X195136900Y-89616900D01*
X192658687Y-89342960D02*
X192343794Y-89028067D01*
X195136900Y-89616900D02*
X194862554Y-89342554D01*
X194862554Y-89342554D02*
X193710000Y-89342554D01*
X193709594Y-89342960D02*
X192658687Y-89342960D01*
X192345917Y-98201455D02*
X195136900Y-95410472D01*
X193710000Y-89342554D02*
X193709594Y-89342960D01*
X192345917Y-99051812D02*
X192345917Y-98201455D01*
X195299014Y-88929014D02*
X193560349Y-88929014D01*
X193262434Y-98645107D02*
X193262434Y-97869771D01*
X193560349Y-88929014D02*
X193266174Y-88634839D01*
X193262434Y-97869771D02*
X195550440Y-95581765D01*
X195550440Y-89180440D02*
X195299014Y-88929014D01*
X195550440Y-95581765D02*
X195550440Y-89180440D01*
X195963980Y-88883980D02*
X195595474Y-88515474D01*
X195963980Y-95753058D02*
X195963980Y-88883980D01*
X195595474Y-88515474D02*
X194483861Y-88515474D01*
X194177427Y-97539611D02*
X195963980Y-95753058D01*
X194483861Y-88515474D02*
X194170875Y-88202488D01*
X194177427Y-98234985D02*
X194177427Y-97539611D01*
X195375445Y-88090358D02*
X196140358Y-88090358D01*
X195092440Y-87807353D02*
X195375445Y-88090358D01*
X196377520Y-95924351D02*
X195087944Y-97213927D01*
X195087944Y-97213927D02*
X195087944Y-97815021D01*
X196140358Y-88090358D02*
X196377520Y-88327520D01*
X196377520Y-88327520D02*
X196377520Y-95924351D01*
X196000564Y-87382237D02*
X196330832Y-87382237D01*
X196330832Y-87382237D02*
X196791060Y-87842465D01*
X195991668Y-96895037D02*
X195991668Y-97380631D01*
X196791060Y-96095645D02*
X195991668Y-96895037D01*
X196791060Y-87842465D02*
X196791060Y-96095645D01*
X197204600Y-87174600D02*
X197204600Y-96705400D01*
X197204600Y-96705400D02*
X196931890Y-96978110D01*
X196910030Y-86960000D02*
X196990000Y-86960000D01*
X196931890Y-96978110D02*
X196910030Y-96978110D01*
X196990000Y-86960000D02*
X197204600Y-87174600D01*
X200890000Y-115510000D02*
X201290000Y-115510000D01*
X201340000Y-105580000D02*
X201340000Y-115460000D01*
X201340000Y-115460000D02*
X201340000Y-122400000D01*
X201340000Y-105052609D02*
X201340000Y-77797000D01*
X203568000Y-124628000D02*
X203765000Y-124628000D01*
X201290000Y-115510000D02*
X201340000Y-115460000D01*
X201295199Y-105535199D02*
X201340000Y-105580000D01*
X201340000Y-105052609D02*
X201340000Y-105580000D01*
X200857410Y-105535199D02*
X201295199Y-105535199D01*
X201340000Y-122400000D02*
X203568000Y-124628000D01*
X201340000Y-77797000D02*
X203765000Y-75372000D01*
X200926460Y-75670540D02*
X201225000Y-75372000D01*
X200926460Y-106605684D02*
X200149289Y-105828513D01*
X200181879Y-114973482D02*
X200181879Y-115803314D01*
X200149289Y-105828513D02*
X200149289Y-105241885D01*
X200926460Y-104464714D02*
X200926460Y-75670540D01*
X200181879Y-115803314D02*
X200926460Y-116547895D01*
X200926460Y-114228901D02*
X200926460Y-106605684D01*
X200149289Y-105241885D02*
X200926460Y-104464714D01*
X200631890Y-114523471D02*
X200181879Y-114973482D01*
X200631890Y-114523471D02*
X200926460Y-114228901D01*
X200926460Y-116547895D02*
X200926460Y-124329460D01*
X200926460Y-124329460D02*
X201225000Y-124628000D01*
X193878070Y-106297187D02*
X196642813Y-106297187D01*
X193906650Y-78597818D02*
X193493112Y-78184280D01*
X182063121Y-76530121D02*
X180905000Y-75372000D01*
X188755702Y-77357201D02*
X186800535Y-77357201D01*
X191124407Y-77770741D02*
X189169242Y-77770741D01*
X196840974Y-106099026D02*
X196840975Y-103871528D01*
X189169242Y-77770741D02*
X188755702Y-77357201D01*
X193493112Y-78184280D02*
X191537945Y-78184279D01*
X197201357Y-79011357D02*
X196275353Y-79011357D01*
X186386995Y-76943661D02*
X184431828Y-76943661D01*
X195861814Y-78597818D02*
X193906650Y-78597818D01*
X191537945Y-78184279D02*
X191124407Y-77770741D01*
X196642813Y-106297187D02*
X196840974Y-106099026D01*
X196840975Y-103871528D02*
X197618140Y-103094363D01*
X197618140Y-103094363D02*
X197618140Y-79428140D01*
X196275353Y-79011357D02*
X195861814Y-78597818D01*
X197618140Y-79428140D02*
X197201357Y-79011357D01*
X184431828Y-76943661D02*
X184018288Y-76530121D01*
X184018288Y-76530121D02*
X182063121Y-76530121D01*
X193581666Y-106593591D02*
X193878070Y-106297187D01*
X186800535Y-77357201D02*
X186386995Y-76943661D01*
X189340535Y-77357201D02*
X188926995Y-76943661D01*
X196999273Y-106710727D02*
X197254514Y-106455486D01*
X197254514Y-104042823D02*
X198031680Y-103265657D01*
X198031680Y-79051680D02*
X197577820Y-78597820D01*
X184603121Y-76530121D02*
X183445000Y-75372000D01*
X194077945Y-78184279D02*
X193664407Y-77770741D01*
X196446648Y-78597818D02*
X196033111Y-78184281D01*
X191709240Y-77770740D02*
X191295701Y-77357201D01*
X193664407Y-77770741D02*
X191709240Y-77770740D01*
X198031680Y-103265657D02*
X198031680Y-79051680D01*
X194493510Y-107010667D02*
X194793450Y-106710727D01*
X186558288Y-76530121D02*
X184603121Y-76530121D01*
X196033111Y-78184281D02*
X194077945Y-78184279D01*
X186971828Y-76943661D02*
X186558288Y-76530121D01*
X197254514Y-106455486D02*
X197254514Y-104042823D01*
X188926995Y-76943661D02*
X186971828Y-76943661D01*
X191295701Y-77357201D02*
X189340535Y-77357201D01*
X194793450Y-106710727D02*
X196999273Y-106710727D01*
X197577820Y-78597820D02*
X196446648Y-78597818D01*
X195408066Y-107421764D02*
X195705563Y-107124267D01*
X197668050Y-106841950D02*
X197668053Y-104214118D01*
X198445220Y-78555220D02*
X198074280Y-78184280D01*
X198074280Y-78184280D02*
X196617943Y-78184279D01*
X196617943Y-78184279D02*
X196204405Y-77770741D01*
X191466994Y-76943661D02*
X189511828Y-76943661D01*
X187143121Y-76530121D02*
X185985000Y-75372000D01*
X189511828Y-76943661D02*
X189098288Y-76530121D01*
X197668053Y-104214118D02*
X198445220Y-103436951D01*
X189098288Y-76530121D02*
X187143121Y-76530121D01*
X198445220Y-103436951D02*
X198445220Y-78555220D01*
X195705563Y-107124267D02*
X197385733Y-107124267D01*
X196204405Y-77770741D02*
X194249240Y-77770740D01*
X197385733Y-107124267D02*
X197668050Y-106841950D01*
X193835701Y-77357201D02*
X191880533Y-77357200D01*
X191880533Y-77357200D02*
X191466994Y-76943661D01*
X194249240Y-77770740D02*
X193835701Y-77357201D01*
X192051828Y-76943661D02*
X191638288Y-76530121D01*
X197660000Y-107537806D02*
X198081590Y-107116216D01*
X198490740Y-77770740D02*
X196789238Y-77770740D01*
X191638288Y-76530121D02*
X189683121Y-76530121D01*
X198858760Y-103608245D02*
X198858760Y-78138760D01*
X196789238Y-77770740D02*
X196375699Y-77357201D01*
X198081592Y-104385413D02*
X198858760Y-103608245D01*
X198081590Y-107116216D02*
X198081591Y-106342395D01*
X198081591Y-106342395D02*
X198081592Y-104385413D01*
X194006994Y-76943661D02*
X192051828Y-76943661D01*
X196314413Y-107850655D02*
X196627262Y-107537806D01*
X196375699Y-77357201D02*
X194420533Y-77357200D01*
X196627262Y-107537806D02*
X197660000Y-107537806D01*
X194420533Y-77357200D02*
X194006994Y-76943661D01*
X198858760Y-78138760D02*
X198490740Y-77770740D01*
X189683121Y-76530121D02*
X188525000Y-75372000D01*
X199058655Y-107951345D02*
X199272300Y-107737700D01*
X194178288Y-76530121D02*
X192223121Y-76530121D01*
X198495130Y-106513690D02*
X198495131Y-104556708D01*
X196546993Y-76943661D02*
X194591828Y-76943661D01*
X199272300Y-107737700D02*
X199272300Y-107290860D01*
X197544032Y-107951345D02*
X199058655Y-107951345D01*
X197225077Y-108270300D02*
X197544032Y-107951345D01*
X198887201Y-77357201D02*
X196960531Y-77357199D01*
X199272300Y-103779539D02*
X199272300Y-77742300D01*
X194591828Y-76943661D02*
X194178288Y-76530121D01*
X199272300Y-107290860D02*
X198495130Y-106513690D01*
X196960531Y-77357199D02*
X196546993Y-76943661D01*
X198495131Y-104556708D02*
X199272300Y-103779539D01*
X199272300Y-77742300D02*
X198887201Y-77357201D01*
X192223121Y-76530121D02*
X191065000Y-75372000D01*
X196718287Y-76530121D02*
X194763121Y-76530121D01*
X199685840Y-103950832D02*
X199685840Y-77542508D01*
X198459436Y-108364885D02*
X199455115Y-108364885D01*
X198136901Y-108687420D02*
X198459436Y-108364885D01*
X199685840Y-107119566D02*
X198908670Y-106342394D01*
X197131826Y-76943660D02*
X196718287Y-76530121D01*
X199455115Y-108364885D02*
X199685840Y-108134160D01*
X199086993Y-76943661D02*
X197131826Y-76943660D01*
X194763121Y-76530121D02*
X193605000Y-75372000D01*
X199685840Y-108134160D02*
X199685840Y-107119566D01*
X198908670Y-106342394D02*
X198908672Y-104728000D01*
X199685840Y-77542508D02*
X199086993Y-76943661D01*
X198908672Y-104728000D02*
X199685840Y-103950832D01*
X197303121Y-76530121D02*
X196145000Y-75372000D01*
X200099380Y-77371214D02*
X199258287Y-76530121D01*
X200099380Y-106948272D02*
X199322210Y-106171101D01*
X199369568Y-108778424D02*
X199951576Y-108778424D01*
X199322211Y-104899295D02*
X200099380Y-104122126D01*
X199053059Y-109094933D02*
X199369568Y-108778424D01*
X199322210Y-106171101D02*
X199322211Y-104899295D01*
X199258287Y-76530121D02*
X197303121Y-76530121D01*
X200099380Y-104122126D02*
X200099380Y-77371214D01*
X200099380Y-108630620D02*
X200099380Y-106948272D01*
X199951576Y-108778424D02*
X200099380Y-108630620D01*
X199383980Y-111197255D02*
X199850000Y-111197255D01*
X199258287Y-123469879D02*
X197303121Y-123469879D01*
X199354799Y-116145900D02*
X200099380Y-116890481D01*
X200099380Y-113469712D02*
X199354799Y-114214294D01*
X199354799Y-114214294D02*
X199354799Y-116145900D01*
X197303121Y-123469879D02*
X196145000Y-124628000D01*
X199068604Y-110881879D02*
X199383980Y-111197255D01*
X200099380Y-111446635D02*
X200099380Y-113469712D01*
X200099380Y-116890481D02*
X200099380Y-122628786D01*
X200099380Y-122628786D02*
X199258287Y-123469879D01*
X199850000Y-111197255D02*
X200099380Y-111446635D01*
X199768339Y-114385587D02*
X199768339Y-115974607D01*
X200512920Y-113641006D02*
X199768339Y-114385587D01*
X200512920Y-122800080D02*
X198685000Y-124628000D01*
X200512920Y-111010865D02*
X200512920Y-113641006D01*
X200512920Y-116719188D02*
X200512920Y-122800080D01*
X199991189Y-110489134D02*
X200512920Y-111010865D01*
X199768339Y-115974607D02*
X200512920Y-116719188D01*
X198527719Y-113871705D02*
X198527720Y-116488488D01*
X194178288Y-123469879D02*
X192223121Y-123469879D01*
X199272300Y-122217700D02*
X198847201Y-122642799D01*
X197553783Y-112024333D02*
X198985667Y-112024333D01*
X194591828Y-123056339D02*
X194178288Y-123469879D01*
X196960533Y-122642800D02*
X196546994Y-123056339D01*
X197245115Y-111715665D02*
X197553783Y-112024333D01*
X199272300Y-112310966D02*
X199272300Y-113127124D01*
X199272300Y-113127124D02*
X198527719Y-113871705D01*
X199272300Y-117233068D02*
X199272300Y-122217700D01*
X198847201Y-122642799D02*
X196960533Y-122642800D01*
X196546994Y-123056339D02*
X194591828Y-123056339D01*
X198527720Y-116488488D02*
X199272300Y-117233068D01*
X192223121Y-123469879D02*
X191065000Y-124628000D01*
X198985667Y-112024333D02*
X199272300Y-112310966D01*
X199086993Y-123056339D02*
X197131826Y-123056340D01*
X198941259Y-114043001D02*
X198941259Y-116317193D01*
X198941259Y-116317193D02*
X199685840Y-117061774D01*
X199685840Y-122457492D02*
X199086993Y-123056339D01*
X199685840Y-111886634D02*
X199685840Y-113298418D01*
X199410000Y-111610794D02*
X199685840Y-111886634D01*
X194763121Y-123469879D02*
X193605000Y-124628000D01*
X198459858Y-111610794D02*
X199410000Y-111610794D01*
X198164462Y-111315398D02*
X198459858Y-111610794D01*
X197131826Y-123056340D02*
X196718287Y-123469879D01*
X199685840Y-117061774D02*
X199685840Y-122457492D01*
X196718287Y-123469879D02*
X194763121Y-123469879D01*
X199685840Y-113298418D02*
X198941259Y-114043001D01*
X193664404Y-122229261D02*
X191709236Y-122229262D01*
X197767821Y-121402179D02*
X196446654Y-121402180D01*
X186971828Y-123056339D02*
X186558288Y-123469879D01*
X198031680Y-117746949D02*
X198031680Y-121138320D01*
X194490000Y-112970000D02*
X194786919Y-113266919D01*
X197287101Y-113534020D02*
X197287101Y-117002370D01*
X184603121Y-123469879D02*
X183445000Y-124628000D01*
X191709236Y-122229262D02*
X191295699Y-122642799D01*
X191295699Y-122642799D02*
X189340535Y-122642799D01*
X197287101Y-117002370D02*
X198031680Y-117746949D01*
X196033115Y-121815719D02*
X194077943Y-121815722D01*
X194786919Y-113266919D02*
X197020000Y-113266919D01*
X189340535Y-122642799D02*
X188926995Y-123056339D01*
X196446654Y-121402180D02*
X196033115Y-121815719D01*
X194077943Y-121815722D02*
X193664404Y-122229261D01*
X186558288Y-123469879D02*
X184603121Y-123469879D01*
X188926995Y-123056339D02*
X186971828Y-123056339D01*
X197020000Y-113266919D02*
X197287101Y-113534020D01*
X198031680Y-121138320D02*
X197767821Y-121402179D01*
X184431826Y-123056340D02*
X184018287Y-123469879D01*
X193493110Y-121815721D02*
X191537943Y-121815722D01*
X186800535Y-122642799D02*
X186386995Y-123056339D01*
X195861818Y-121402183D02*
X193906648Y-121402183D01*
X196873561Y-113994020D02*
X196873561Y-117173663D01*
X193906648Y-121402183D02*
X193493110Y-121815721D01*
X188755702Y-122642799D02*
X186800535Y-122642799D01*
X182063121Y-123469879D02*
X180905000Y-124628000D01*
X186386995Y-123056339D02*
X184431826Y-123056340D01*
X184018287Y-123469879D02*
X182063121Y-123469879D01*
X197441361Y-120988639D02*
X196275361Y-120988640D01*
X191537943Y-121815722D02*
X191124406Y-122229259D01*
X189169242Y-122229259D02*
X188755702Y-122642799D01*
X196560000Y-113680459D02*
X196873561Y-113994020D01*
X193834302Y-113680458D02*
X196560000Y-113680459D01*
X197618140Y-120811860D02*
X197441361Y-120988639D01*
X197618140Y-117918242D02*
X197618140Y-120811860D01*
X191124406Y-122229259D02*
X189169242Y-122229259D01*
X193616893Y-113463049D02*
X193834302Y-113680458D01*
X196275361Y-120988640D02*
X195861818Y-121402183D01*
X196873561Y-117173663D02*
X197618140Y-117918242D01*
X187143121Y-123469879D02*
X185985000Y-124628000D01*
X197700639Y-113110639D02*
X197700639Y-113871707D01*
X196204408Y-122229259D02*
X194249238Y-122229261D01*
X197700641Y-113871709D02*
X197700642Y-116831078D01*
X194249238Y-122229261D02*
X193835699Y-122642800D01*
X197700639Y-113871707D02*
X197700641Y-113871709D01*
X191466993Y-123056339D02*
X189511828Y-123056339D01*
X198445220Y-117575656D02*
X198445220Y-121524780D01*
X195416137Y-112537114D02*
X195732402Y-112853379D01*
X198154281Y-121815719D02*
X196617947Y-121815720D01*
X193835699Y-122642800D02*
X191880531Y-122642801D01*
X189511828Y-123056339D02*
X189098288Y-123469879D01*
X195732402Y-112853379D02*
X197443379Y-112853379D01*
X191880531Y-122642801D02*
X191466993Y-123056339D01*
X197443379Y-112853379D02*
X197700639Y-113110639D01*
X189098288Y-123469879D02*
X187143121Y-123469879D01*
X196617947Y-121815720D02*
X196204408Y-122229259D01*
X198445220Y-121524780D02*
X198154281Y-121815719D01*
X197700642Y-116831078D02*
X198445220Y-117575656D01*
X198557872Y-112437872D02*
X198858760Y-112738760D01*
X194420533Y-122642800D02*
X194006994Y-123056339D01*
X196631715Y-112437872D02*
X198557872Y-112437872D01*
X198858760Y-112738760D02*
X198858760Y-112955830D01*
X191638287Y-123469879D02*
X189683121Y-123469879D01*
X196339101Y-112145258D02*
X196631715Y-112437872D01*
X198858760Y-112955830D02*
X198114179Y-113700412D01*
X194006994Y-123056339D02*
X192051826Y-123056340D01*
X196375701Y-122642799D02*
X194420533Y-122642800D01*
X198114181Y-116659783D02*
X198858760Y-117404362D01*
X198858760Y-121881240D02*
X198510741Y-122229259D01*
X198858760Y-117404362D02*
X198858760Y-121881240D01*
X189683121Y-123469879D02*
X188525000Y-124628000D01*
X196789240Y-122229260D02*
X196375701Y-122642799D01*
X198510741Y-122229259D02*
X196789240Y-122229260D01*
X192051826Y-123056340D02*
X191638287Y-123469879D01*
X198114179Y-113700412D02*
X198114181Y-116659783D01*
X200512920Y-109007080D02*
X200512920Y-106776978D01*
X199735750Y-105070590D02*
X200512920Y-104293420D01*
X199735750Y-105999808D02*
X199735750Y-105070590D01*
X200512920Y-104293420D02*
X200512920Y-77199920D01*
X200033455Y-109486545D02*
X200512920Y-109007080D01*
X200512920Y-77199920D02*
X198685000Y-75372000D01*
X199976126Y-109486545D02*
X200033455Y-109486545D01*
X200512920Y-106776978D02*
X199735750Y-105999808D01*
X188690000Y-95424207D02*
X188690000Y-94899000D01*
X182815189Y-100855830D02*
X182509306Y-101161713D01*
X187123811Y-96573811D02*
X187123811Y-96990396D01*
X186074335Y-100855830D02*
X182815189Y-100855830D01*
X187123811Y-96573811D02*
X187540396Y-96573811D01*
X186264846Y-92473846D02*
X186264846Y-91495834D01*
X186510165Y-100420000D02*
X186074335Y-100855830D01*
X186500439Y-92709439D02*
X186264846Y-92473846D01*
X187123811Y-96990396D02*
X186510166Y-97604042D01*
X186510166Y-97604042D02*
X186510165Y-100420000D01*
X187540396Y-96573811D02*
X188690000Y-95424207D01*
X188690000Y-94899000D02*
X186500439Y-92709439D01*
G04 #@! TA.AperFunction,Conductor*
G36*
X100748378Y-71528502D02*
G01*
X100794871Y-71582158D01*
X100804975Y-71652432D01*
X100775481Y-71717012D01*
X100766622Y-71726244D01*
X100672897Y-71814475D01*
X100656097Y-71830290D01*
X100547477Y-71977919D01*
X100467250Y-72142711D01*
X100418045Y-72319266D01*
X100417530Y-72324944D01*
X100417529Y-72324949D01*
X100405559Y-72456807D01*
X100404330Y-72466309D01*
X100401281Y-72484439D01*
X100401280Y-72484446D01*
X100400473Y-72489247D01*
X100400321Y-72501799D01*
X100401011Y-72506613D01*
X100401011Y-72506615D01*
X100404276Y-72529397D01*
X100405550Y-72547271D01*
X100405550Y-74048534D01*
X100403806Y-74069425D01*
X100400473Y-74089249D01*
X100400321Y-74101801D01*
X100403159Y-74121602D01*
X100403911Y-74128031D01*
X100404753Y-74137292D01*
X100417307Y-74275295D01*
X100418126Y-74284303D01*
X100442538Y-74371848D01*
X100465816Y-74455325D01*
X100467349Y-74460824D01*
X100469848Y-74465955D01*
X100469848Y-74465956D01*
X100520351Y-74569664D01*
X100547581Y-74625582D01*
X100656195Y-74773182D01*
X100660355Y-74777098D01*
X100660356Y-74777099D01*
X100696911Y-74811508D01*
X100789632Y-74898787D01*
X100820268Y-74918595D01*
X100938721Y-74995181D01*
X100938724Y-74995183D01*
X100943524Y-74998286D01*
X100948806Y-75000474D01*
X100948808Y-75000475D01*
X101107555Y-75066234D01*
X101107558Y-75066235D01*
X101112828Y-75068418D01*
X101292000Y-75106886D01*
X101297710Y-75107059D01*
X101297711Y-75107059D01*
X101469456Y-75112259D01*
X101469457Y-75112259D01*
X101475172Y-75112432D01*
X101656343Y-75084872D01*
X101829580Y-75025109D01*
X101834555Y-75022304D01*
X101834559Y-75022302D01*
X101984232Y-74937908D01*
X101984234Y-74937907D01*
X101989208Y-74935102D01*
X101997788Y-74927954D01*
X102095278Y-74846727D01*
X102102867Y-74840878D01*
X102117858Y-74830208D01*
X102117865Y-74830203D01*
X102121830Y-74827380D01*
X102130815Y-74818614D01*
X102133732Y-74814723D01*
X102133739Y-74814715D01*
X102147585Y-74796245D01*
X102159306Y-74782727D01*
X102294881Y-74647153D01*
X102357193Y-74613128D01*
X102383976Y-74610249D01*
X104444126Y-74610249D01*
X104512247Y-74630251D01*
X104533221Y-74647153D01*
X104601736Y-74715669D01*
X104663284Y-74777217D01*
X104676830Y-74793233D01*
X104685643Y-74805612D01*
X104685647Y-74805617D01*
X104688468Y-74809579D01*
X104697235Y-74818563D01*
X104701131Y-74821483D01*
X104714281Y-74831339D01*
X104719379Y-74835369D01*
X104819243Y-74918595D01*
X104838912Y-74934987D01*
X104843882Y-74937790D01*
X104843886Y-74937793D01*
X104932140Y-74987570D01*
X104998531Y-75025016D01*
X105003924Y-75026877D01*
X105003926Y-75026878D01*
X105166364Y-75082935D01*
X105166366Y-75082935D01*
X105171763Y-75084798D01*
X105177406Y-75085657D01*
X105177410Y-75085658D01*
X105308986Y-75105687D01*
X105352934Y-75112377D01*
X105358640Y-75112205D01*
X105358644Y-75112205D01*
X105448357Y-75109497D01*
X105536108Y-75106848D01*
X105586300Y-75096076D01*
X105709705Y-75069592D01*
X105709710Y-75069591D01*
X105715285Y-75068394D01*
X105768289Y-75046442D01*
X105879321Y-75000457D01*
X105879324Y-75000456D01*
X105884596Y-74998272D01*
X105923310Y-74973245D01*
X106033700Y-74901882D01*
X106033702Y-74901881D01*
X106038495Y-74898782D01*
X106171941Y-74773181D01*
X106230552Y-74693538D01*
X106277176Y-74630184D01*
X106277177Y-74630182D01*
X106280561Y-74625584D01*
X106360798Y-74460825D01*
X106378844Y-74396113D01*
X106408489Y-74289809D01*
X106408490Y-74289804D01*
X106410024Y-74284303D01*
X106410844Y-74275295D01*
X106416526Y-74212828D01*
X106422533Y-74146789D01*
X106423763Y-74137292D01*
X106426818Y-74119149D01*
X106426819Y-74119140D01*
X106427625Y-74114351D01*
X106427779Y-74101799D01*
X106426679Y-74094109D01*
X106423821Y-74074142D01*
X106422550Y-74056292D01*
X106422550Y-72555033D01*
X106424298Y-72534116D01*
X106426818Y-72519146D01*
X106427625Y-72514353D01*
X106427779Y-72501801D01*
X106425225Y-72483951D01*
X106424470Y-72477497D01*
X106420789Y-72436948D01*
X106410105Y-72319259D01*
X106360898Y-72142696D01*
X106280667Y-71977895D01*
X106249344Y-71935323D01*
X106175427Y-71834858D01*
X106175424Y-71834855D01*
X106172042Y-71830258D01*
X106129796Y-71790489D01*
X106061550Y-71726244D01*
X106025659Y-71664988D01*
X106028584Y-71594051D01*
X106069396Y-71535957D01*
X106135137Y-71509150D01*
X106147915Y-71508500D01*
X113680257Y-71508500D01*
X113748378Y-71528502D01*
X113794871Y-71582158D01*
X113804975Y-71652432D01*
X113775481Y-71717012D01*
X113766622Y-71726244D01*
X113672897Y-71814475D01*
X113656097Y-71830290D01*
X113547477Y-71977919D01*
X113467250Y-72142711D01*
X113418045Y-72319266D01*
X113417530Y-72324944D01*
X113417529Y-72324949D01*
X113405559Y-72456807D01*
X113404330Y-72466309D01*
X113401281Y-72484439D01*
X113401280Y-72484446D01*
X113400473Y-72489247D01*
X113400321Y-72501799D01*
X113401011Y-72506613D01*
X113401011Y-72506615D01*
X113404276Y-72529397D01*
X113405550Y-72547271D01*
X113405550Y-74048534D01*
X113403806Y-74069425D01*
X113400473Y-74089249D01*
X113400321Y-74101801D01*
X113403159Y-74121602D01*
X113403911Y-74128031D01*
X113404753Y-74137292D01*
X113417307Y-74275295D01*
X113418126Y-74284303D01*
X113442538Y-74371848D01*
X113465816Y-74455325D01*
X113467349Y-74460824D01*
X113469848Y-74465955D01*
X113469848Y-74465956D01*
X113520351Y-74569664D01*
X113547581Y-74625582D01*
X113656195Y-74773182D01*
X113660355Y-74777098D01*
X113660356Y-74777099D01*
X113696911Y-74811508D01*
X113789632Y-74898787D01*
X113820268Y-74918595D01*
X113938721Y-74995181D01*
X113938724Y-74995183D01*
X113943524Y-74998286D01*
X113948806Y-75000474D01*
X113948808Y-75000475D01*
X114107555Y-75066234D01*
X114107558Y-75066235D01*
X114112828Y-75068418D01*
X114292000Y-75106886D01*
X114297710Y-75107059D01*
X114297711Y-75107059D01*
X114469456Y-75112259D01*
X114469457Y-75112259D01*
X114475172Y-75112432D01*
X114656343Y-75084872D01*
X114829580Y-75025109D01*
X114834555Y-75022304D01*
X114834559Y-75022302D01*
X114984232Y-74937908D01*
X114984234Y-74937907D01*
X114989208Y-74935102D01*
X114997788Y-74927954D01*
X115095278Y-74846727D01*
X115102867Y-74840878D01*
X115117858Y-74830208D01*
X115117865Y-74830203D01*
X115121830Y-74827380D01*
X115130815Y-74818614D01*
X115133732Y-74814723D01*
X115133739Y-74814715D01*
X115147585Y-74796245D01*
X115159306Y-74782727D01*
X115294881Y-74647153D01*
X115357193Y-74613128D01*
X115383976Y-74610249D01*
X118444126Y-74610249D01*
X118512247Y-74630251D01*
X118533221Y-74647153D01*
X118601736Y-74715669D01*
X118663284Y-74777217D01*
X118676830Y-74793233D01*
X118685643Y-74805612D01*
X118685647Y-74805617D01*
X118688468Y-74809579D01*
X118697235Y-74818563D01*
X118701131Y-74821483D01*
X118714281Y-74831339D01*
X118719379Y-74835369D01*
X118819243Y-74918595D01*
X118838912Y-74934987D01*
X118843882Y-74937790D01*
X118843886Y-74937793D01*
X118932140Y-74987570D01*
X118998531Y-75025016D01*
X119003924Y-75026877D01*
X119003926Y-75026878D01*
X119166364Y-75082935D01*
X119166366Y-75082935D01*
X119171763Y-75084798D01*
X119177406Y-75085657D01*
X119177410Y-75085658D01*
X119308986Y-75105687D01*
X119352934Y-75112377D01*
X119358640Y-75112205D01*
X119358644Y-75112205D01*
X119448357Y-75109497D01*
X119536108Y-75106848D01*
X119586300Y-75096076D01*
X119709705Y-75069592D01*
X119709710Y-75069591D01*
X119715285Y-75068394D01*
X119768289Y-75046442D01*
X119879321Y-75000457D01*
X119879324Y-75000456D01*
X119884596Y-74998272D01*
X119923310Y-74973245D01*
X120033700Y-74901882D01*
X120033702Y-74901881D01*
X120038495Y-74898782D01*
X120171941Y-74773181D01*
X120230552Y-74693538D01*
X120277176Y-74630184D01*
X120277177Y-74630182D01*
X120280561Y-74625584D01*
X120360798Y-74460825D01*
X120378844Y-74396113D01*
X120408489Y-74289809D01*
X120408490Y-74289804D01*
X120410024Y-74284303D01*
X120410844Y-74275295D01*
X120416526Y-74212828D01*
X120422533Y-74146789D01*
X120423763Y-74137292D01*
X120426818Y-74119149D01*
X120426819Y-74119140D01*
X120427625Y-74114351D01*
X120427779Y-74101799D01*
X120426679Y-74094109D01*
X120423821Y-74074142D01*
X120422550Y-74056292D01*
X120422550Y-72555033D01*
X120424298Y-72534116D01*
X120426818Y-72519146D01*
X120427625Y-72514353D01*
X120427779Y-72501801D01*
X120425225Y-72483951D01*
X120424470Y-72477497D01*
X120420789Y-72436948D01*
X120410105Y-72319259D01*
X120360898Y-72142696D01*
X120280667Y-71977895D01*
X120249344Y-71935323D01*
X120175427Y-71834858D01*
X120175424Y-71834855D01*
X120172042Y-71830258D01*
X120129796Y-71790489D01*
X120061550Y-71726244D01*
X120025659Y-71664988D01*
X120028584Y-71594051D01*
X120069396Y-71535957D01*
X120135137Y-71509150D01*
X120147915Y-71508500D01*
X127680257Y-71508500D01*
X127748378Y-71528502D01*
X127794871Y-71582158D01*
X127804975Y-71652432D01*
X127775481Y-71717012D01*
X127766622Y-71726244D01*
X127672897Y-71814475D01*
X127656097Y-71830290D01*
X127547477Y-71977919D01*
X127467250Y-72142711D01*
X127418045Y-72319266D01*
X127417530Y-72324944D01*
X127417529Y-72324949D01*
X127405559Y-72456807D01*
X127404330Y-72466309D01*
X127401281Y-72484439D01*
X127401280Y-72484446D01*
X127400473Y-72489247D01*
X127400321Y-72501799D01*
X127401011Y-72506613D01*
X127401011Y-72506615D01*
X127404276Y-72529397D01*
X127405550Y-72547271D01*
X127405550Y-74048534D01*
X127403806Y-74069425D01*
X127400473Y-74089249D01*
X127400321Y-74101801D01*
X127403159Y-74121602D01*
X127403911Y-74128031D01*
X127404753Y-74137292D01*
X127417307Y-74275295D01*
X127418126Y-74284303D01*
X127442538Y-74371848D01*
X127465816Y-74455325D01*
X127467349Y-74460824D01*
X127469848Y-74465955D01*
X127469848Y-74465956D01*
X127520351Y-74569664D01*
X127547581Y-74625582D01*
X127656195Y-74773182D01*
X127660355Y-74777098D01*
X127660356Y-74777099D01*
X127696911Y-74811508D01*
X127789632Y-74898787D01*
X127820268Y-74918595D01*
X127938721Y-74995181D01*
X127938724Y-74995183D01*
X127943524Y-74998286D01*
X127948806Y-75000474D01*
X127948808Y-75000475D01*
X128107555Y-75066234D01*
X128107558Y-75066235D01*
X128112828Y-75068418D01*
X128292000Y-75106886D01*
X128297710Y-75107059D01*
X128297711Y-75107059D01*
X128469456Y-75112259D01*
X128469457Y-75112259D01*
X128475172Y-75112432D01*
X128656343Y-75084872D01*
X128829580Y-75025109D01*
X128834555Y-75022304D01*
X128834559Y-75022302D01*
X128984232Y-74937908D01*
X128984234Y-74937907D01*
X128989208Y-74935102D01*
X128997788Y-74927954D01*
X129095278Y-74846727D01*
X129102867Y-74840878D01*
X129117858Y-74830208D01*
X129117865Y-74830203D01*
X129121830Y-74827380D01*
X129130815Y-74818614D01*
X129133732Y-74814723D01*
X129133739Y-74814715D01*
X129147585Y-74796245D01*
X129159306Y-74782727D01*
X129294881Y-74647153D01*
X129357193Y-74613128D01*
X129383976Y-74610249D01*
X131444126Y-74610249D01*
X131512247Y-74630251D01*
X131533221Y-74647153D01*
X131601736Y-74715669D01*
X131663284Y-74777217D01*
X131676830Y-74793233D01*
X131685643Y-74805612D01*
X131685647Y-74805617D01*
X131688468Y-74809579D01*
X131697235Y-74818563D01*
X131701131Y-74821483D01*
X131714281Y-74831339D01*
X131719379Y-74835369D01*
X131819243Y-74918595D01*
X131838912Y-74934987D01*
X131843882Y-74937790D01*
X131843886Y-74937793D01*
X131932140Y-74987570D01*
X131998531Y-75025016D01*
X132003924Y-75026877D01*
X132003926Y-75026878D01*
X132166364Y-75082935D01*
X132166366Y-75082935D01*
X132171763Y-75084798D01*
X132177406Y-75085657D01*
X132177410Y-75085658D01*
X132308986Y-75105687D01*
X132352934Y-75112377D01*
X132358640Y-75112205D01*
X132358644Y-75112205D01*
X132448357Y-75109497D01*
X132536108Y-75106848D01*
X132586300Y-75096076D01*
X132709705Y-75069592D01*
X132709710Y-75069591D01*
X132715285Y-75068394D01*
X132768289Y-75046442D01*
X132879321Y-75000457D01*
X132879324Y-75000456D01*
X132884596Y-74998272D01*
X132923310Y-74973245D01*
X133033700Y-74901882D01*
X133033702Y-74901881D01*
X133038495Y-74898782D01*
X133171941Y-74773181D01*
X133230552Y-74693538D01*
X133277176Y-74630184D01*
X133277177Y-74630182D01*
X133280561Y-74625584D01*
X133360798Y-74460825D01*
X133378844Y-74396113D01*
X133408489Y-74289809D01*
X133408490Y-74289804D01*
X133410024Y-74284303D01*
X133410844Y-74275295D01*
X133416526Y-74212828D01*
X133422533Y-74146789D01*
X133423763Y-74137292D01*
X133426818Y-74119149D01*
X133426819Y-74119140D01*
X133427625Y-74114351D01*
X133427779Y-74101799D01*
X133426679Y-74094109D01*
X133423821Y-74074142D01*
X133422550Y-74056292D01*
X133422550Y-72555033D01*
X133424298Y-72534116D01*
X133426818Y-72519146D01*
X133427625Y-72514353D01*
X133427779Y-72501801D01*
X133425225Y-72483951D01*
X133424470Y-72477497D01*
X133420789Y-72436948D01*
X133410105Y-72319259D01*
X133360898Y-72142696D01*
X133280667Y-71977895D01*
X133249344Y-71935323D01*
X133175427Y-71834858D01*
X133175424Y-71834855D01*
X133172042Y-71830258D01*
X133129796Y-71790489D01*
X133061550Y-71726244D01*
X133025659Y-71664988D01*
X133028584Y-71594051D01*
X133069396Y-71535957D01*
X133135137Y-71509150D01*
X133147915Y-71508500D01*
X140680257Y-71508500D01*
X140748378Y-71528502D01*
X140794871Y-71582158D01*
X140804975Y-71652432D01*
X140775481Y-71717012D01*
X140766622Y-71726244D01*
X140672897Y-71814475D01*
X140656097Y-71830290D01*
X140547477Y-71977919D01*
X140467250Y-72142711D01*
X140418045Y-72319266D01*
X140417530Y-72324944D01*
X140417529Y-72324949D01*
X140405559Y-72456807D01*
X140404330Y-72466309D01*
X140401281Y-72484439D01*
X140401280Y-72484446D01*
X140400473Y-72489247D01*
X140400321Y-72501799D01*
X140401011Y-72506613D01*
X140401011Y-72506615D01*
X140404276Y-72529397D01*
X140405550Y-72547271D01*
X140405550Y-74048534D01*
X140403806Y-74069425D01*
X140400473Y-74089249D01*
X140400321Y-74101801D01*
X140403159Y-74121602D01*
X140403911Y-74128031D01*
X140404753Y-74137292D01*
X140417307Y-74275295D01*
X140418126Y-74284303D01*
X140442538Y-74371848D01*
X140465816Y-74455325D01*
X140467349Y-74460824D01*
X140469848Y-74465955D01*
X140469848Y-74465956D01*
X140520351Y-74569664D01*
X140547581Y-74625582D01*
X140656195Y-74773182D01*
X140660355Y-74777098D01*
X140660356Y-74777099D01*
X140696911Y-74811508D01*
X140789632Y-74898787D01*
X140820268Y-74918595D01*
X140938721Y-74995181D01*
X140938724Y-74995183D01*
X140943524Y-74998286D01*
X140948806Y-75000474D01*
X140948808Y-75000475D01*
X141107555Y-75066234D01*
X141107558Y-75066235D01*
X141112828Y-75068418D01*
X141292000Y-75106886D01*
X141297710Y-75107059D01*
X141297711Y-75107059D01*
X141469456Y-75112259D01*
X141469457Y-75112259D01*
X141475172Y-75112432D01*
X141656343Y-75084872D01*
X141829580Y-75025109D01*
X141834555Y-75022304D01*
X141834559Y-75022302D01*
X141984232Y-74937908D01*
X141984234Y-74937907D01*
X141989208Y-74935102D01*
X141997788Y-74927954D01*
X142095278Y-74846727D01*
X142102867Y-74840878D01*
X142117858Y-74830208D01*
X142117865Y-74830203D01*
X142121830Y-74827380D01*
X142130815Y-74818614D01*
X142133732Y-74814723D01*
X142133739Y-74814715D01*
X142147585Y-74796245D01*
X142159306Y-74782727D01*
X142294881Y-74647153D01*
X142357193Y-74613128D01*
X142383976Y-74610249D01*
X145444126Y-74610249D01*
X145512247Y-74630251D01*
X145533221Y-74647153D01*
X145601736Y-74715669D01*
X145663284Y-74777217D01*
X145676830Y-74793233D01*
X145685643Y-74805612D01*
X145685647Y-74805617D01*
X145688468Y-74809579D01*
X145697235Y-74818563D01*
X145701131Y-74821483D01*
X145714281Y-74831339D01*
X145719379Y-74835369D01*
X145819243Y-74918595D01*
X145838912Y-74934987D01*
X145843882Y-74937790D01*
X145843886Y-74937793D01*
X145932140Y-74987570D01*
X145998531Y-75025016D01*
X146003924Y-75026877D01*
X146003926Y-75026878D01*
X146166364Y-75082935D01*
X146166366Y-75082935D01*
X146171763Y-75084798D01*
X146177406Y-75085657D01*
X146177410Y-75085658D01*
X146308986Y-75105687D01*
X146352934Y-75112377D01*
X146358640Y-75112205D01*
X146358644Y-75112205D01*
X146448357Y-75109497D01*
X146536108Y-75106848D01*
X146586300Y-75096076D01*
X146709705Y-75069592D01*
X146709710Y-75069591D01*
X146715285Y-75068394D01*
X146768289Y-75046442D01*
X146879321Y-75000457D01*
X146879324Y-75000456D01*
X146884596Y-74998272D01*
X146923310Y-74973245D01*
X147033700Y-74901882D01*
X147033702Y-74901881D01*
X147038495Y-74898782D01*
X147171941Y-74773181D01*
X147230552Y-74693538D01*
X147277176Y-74630184D01*
X147277177Y-74630182D01*
X147280561Y-74625584D01*
X147360798Y-74460825D01*
X147378844Y-74396113D01*
X147408489Y-74289809D01*
X147408490Y-74289804D01*
X147410024Y-74284303D01*
X147410844Y-74275295D01*
X147416526Y-74212828D01*
X147422533Y-74146789D01*
X147423763Y-74137292D01*
X147426818Y-74119149D01*
X147426819Y-74119140D01*
X147427625Y-74114351D01*
X147427779Y-74101799D01*
X147426679Y-74094109D01*
X147423821Y-74074142D01*
X147422550Y-74056292D01*
X147422550Y-72555033D01*
X147424298Y-72534116D01*
X147426818Y-72519146D01*
X147427625Y-72514353D01*
X147427779Y-72501801D01*
X147425225Y-72483951D01*
X147424470Y-72477497D01*
X147420789Y-72436948D01*
X147410105Y-72319259D01*
X147360898Y-72142696D01*
X147280667Y-71977895D01*
X147249344Y-71935323D01*
X147175427Y-71834858D01*
X147175424Y-71834855D01*
X147172042Y-71830258D01*
X147129796Y-71790489D01*
X147061550Y-71726244D01*
X147025659Y-71664988D01*
X147028584Y-71594051D01*
X147069396Y-71535957D01*
X147135137Y-71509150D01*
X147147915Y-71508500D01*
X154680257Y-71508500D01*
X154748378Y-71528502D01*
X154794871Y-71582158D01*
X154804975Y-71652432D01*
X154775481Y-71717012D01*
X154766622Y-71726244D01*
X154672897Y-71814475D01*
X154656097Y-71830290D01*
X154547477Y-71977919D01*
X154467250Y-72142711D01*
X154418045Y-72319266D01*
X154417530Y-72324944D01*
X154417529Y-72324949D01*
X154405559Y-72456807D01*
X154404330Y-72466309D01*
X154401281Y-72484439D01*
X154401280Y-72484446D01*
X154400473Y-72489247D01*
X154400321Y-72501799D01*
X154401011Y-72506613D01*
X154401011Y-72506615D01*
X154404276Y-72529397D01*
X154405550Y-72547271D01*
X154405550Y-74048534D01*
X154403806Y-74069425D01*
X154400473Y-74089249D01*
X154400321Y-74101801D01*
X154403159Y-74121602D01*
X154403911Y-74128031D01*
X154404753Y-74137292D01*
X154417307Y-74275295D01*
X154418126Y-74284303D01*
X154442538Y-74371848D01*
X154465816Y-74455325D01*
X154467349Y-74460824D01*
X154469848Y-74465955D01*
X154469848Y-74465956D01*
X154520351Y-74569664D01*
X154547581Y-74625582D01*
X154656195Y-74773182D01*
X154660355Y-74777098D01*
X154660356Y-74777099D01*
X154696911Y-74811508D01*
X154789632Y-74898787D01*
X154820268Y-74918595D01*
X154938721Y-74995181D01*
X154938724Y-74995183D01*
X154943524Y-74998286D01*
X154948806Y-75000474D01*
X154948808Y-75000475D01*
X155107555Y-75066234D01*
X155107558Y-75066235D01*
X155112828Y-75068418D01*
X155292000Y-75106886D01*
X155297710Y-75107059D01*
X155297711Y-75107059D01*
X155469456Y-75112259D01*
X155469457Y-75112259D01*
X155475172Y-75112432D01*
X155656343Y-75084872D01*
X155829580Y-75025109D01*
X155834555Y-75022304D01*
X155834559Y-75022302D01*
X155984232Y-74937908D01*
X155984234Y-74937907D01*
X155989208Y-74935102D01*
X155997788Y-74927954D01*
X156095278Y-74846727D01*
X156102867Y-74840878D01*
X156117858Y-74830208D01*
X156117865Y-74830203D01*
X156121830Y-74827380D01*
X156130815Y-74818614D01*
X156133732Y-74814723D01*
X156133739Y-74814715D01*
X156147585Y-74796245D01*
X156159306Y-74782727D01*
X156294881Y-74647153D01*
X156357193Y-74613128D01*
X156383976Y-74610249D01*
X158444126Y-74610249D01*
X158512247Y-74630251D01*
X158533221Y-74647153D01*
X158601736Y-74715669D01*
X158663284Y-74777217D01*
X158676830Y-74793233D01*
X158685643Y-74805612D01*
X158685647Y-74805617D01*
X158688468Y-74809579D01*
X158697235Y-74818563D01*
X158701131Y-74821483D01*
X158714281Y-74831339D01*
X158719379Y-74835369D01*
X158819243Y-74918595D01*
X158838912Y-74934987D01*
X158843882Y-74937790D01*
X158843886Y-74937793D01*
X158932140Y-74987570D01*
X158998531Y-75025016D01*
X159003924Y-75026877D01*
X159003926Y-75026878D01*
X159166364Y-75082935D01*
X159166366Y-75082935D01*
X159171763Y-75084798D01*
X159177406Y-75085657D01*
X159177410Y-75085658D01*
X159308986Y-75105687D01*
X159352934Y-75112377D01*
X159358640Y-75112205D01*
X159358644Y-75112205D01*
X159448357Y-75109497D01*
X159536108Y-75106848D01*
X159586300Y-75096076D01*
X159709705Y-75069592D01*
X159709710Y-75069591D01*
X159715285Y-75068394D01*
X159768289Y-75046442D01*
X159879321Y-75000457D01*
X159879324Y-75000456D01*
X159884596Y-74998272D01*
X159923310Y-74973245D01*
X160033700Y-74901882D01*
X160033702Y-74901881D01*
X160038495Y-74898782D01*
X160171941Y-74773181D01*
X160230552Y-74693538D01*
X160277176Y-74630184D01*
X160277177Y-74630182D01*
X160280561Y-74625584D01*
X160360798Y-74460825D01*
X160378844Y-74396113D01*
X160408489Y-74289809D01*
X160408490Y-74289804D01*
X160410024Y-74284303D01*
X160410844Y-74275295D01*
X160416526Y-74212828D01*
X160422533Y-74146789D01*
X160423763Y-74137292D01*
X160426818Y-74119149D01*
X160426819Y-74119140D01*
X160427625Y-74114351D01*
X160427779Y-74101799D01*
X160426679Y-74094109D01*
X160423821Y-74074142D01*
X160422550Y-74056292D01*
X160422550Y-73986202D01*
X166011837Y-73986202D01*
X166014323Y-74015800D01*
X166023206Y-74121581D01*
X166027977Y-74178400D01*
X166029676Y-74184325D01*
X166079010Y-74356373D01*
X166081140Y-74363802D01*
X166083955Y-74369279D01*
X166083956Y-74369282D01*
X166166487Y-74529871D01*
X166169302Y-74535348D01*
X166173125Y-74540172D01*
X166173128Y-74540176D01*
X166257918Y-74647153D01*
X166289106Y-74686502D01*
X166293800Y-74690497D01*
X166402170Y-74782727D01*
X166435987Y-74811508D01*
X166604351Y-74905604D01*
X166787786Y-74965205D01*
X166979303Y-74988042D01*
X166985438Y-74987570D01*
X166985440Y-74987570D01*
X167165467Y-74973718D01*
X167165471Y-74973717D01*
X167171609Y-74973245D01*
X167357379Y-74921377D01*
X167438572Y-74880364D01*
X167524035Y-74837194D01*
X167524037Y-74837193D01*
X167529536Y-74834415D01*
X167681523Y-74715669D01*
X167685549Y-74711005D01*
X167685552Y-74711002D01*
X167803522Y-74574332D01*
X167803523Y-74574330D01*
X167807551Y-74569664D01*
X167861972Y-74473866D01*
X167899775Y-74407322D01*
X167899777Y-74407318D01*
X167902820Y-74401961D01*
X167956763Y-74239800D01*
X167961755Y-74224795D01*
X167961756Y-74224792D01*
X167963700Y-74218947D01*
X167972815Y-74146798D01*
X167987432Y-74031097D01*
X167987433Y-74031087D01*
X167987874Y-74027594D01*
X167988259Y-74000000D01*
X167969438Y-73808046D01*
X167913691Y-73623404D01*
X167823142Y-73453106D01*
X167819252Y-73448336D01*
X167819249Y-73448332D01*
X167705135Y-73308414D01*
X167705132Y-73308411D01*
X167701240Y-73303639D01*
X167696491Y-73299710D01*
X167557377Y-73184625D01*
X167557374Y-73184623D01*
X167552627Y-73180696D01*
X167382966Y-73088960D01*
X167290841Y-73060443D01*
X167204604Y-73033748D01*
X167204601Y-73033747D01*
X167198717Y-73031926D01*
X167192592Y-73031282D01*
X167192591Y-73031282D01*
X167013027Y-73012409D01*
X167013026Y-73012409D01*
X167006899Y-73011765D01*
X166927188Y-73019019D01*
X166820958Y-73028687D01*
X166820955Y-73028688D01*
X166814819Y-73029246D01*
X166808913Y-73030984D01*
X166808909Y-73030985D01*
X166670795Y-73071634D01*
X166629792Y-73083702D01*
X166458866Y-73173060D01*
X166308551Y-73293916D01*
X166304593Y-73298633D01*
X166304591Y-73298635D01*
X166254880Y-73357878D01*
X166184574Y-73441666D01*
X166181610Y-73447058D01*
X166181607Y-73447062D01*
X166098247Y-73598694D01*
X166091656Y-73610683D01*
X166033337Y-73794529D01*
X166032651Y-73800646D01*
X166032650Y-73800650D01*
X166028863Y-73834415D01*
X166011837Y-73986202D01*
X160422550Y-73986202D01*
X160422550Y-72555033D01*
X160424298Y-72534116D01*
X160426818Y-72519146D01*
X160427625Y-72514353D01*
X160427779Y-72501801D01*
X160425225Y-72483951D01*
X160424470Y-72477497D01*
X160420789Y-72436948D01*
X160410105Y-72319259D01*
X160360898Y-72142696D01*
X160280667Y-71977895D01*
X160249344Y-71935323D01*
X160175427Y-71834858D01*
X160175424Y-71834855D01*
X160172042Y-71830258D01*
X160129796Y-71790489D01*
X160061550Y-71726244D01*
X160025659Y-71664988D01*
X160028584Y-71594051D01*
X160069396Y-71535957D01*
X160135137Y-71509150D01*
X160147915Y-71508500D01*
X207264500Y-71508500D01*
X207332621Y-71528502D01*
X207379114Y-71582158D01*
X207390500Y-71634500D01*
X207390500Y-128365500D01*
X207370498Y-128433621D01*
X207316842Y-128480114D01*
X207264500Y-128491500D01*
X160147895Y-128491500D01*
X160079774Y-128471498D01*
X160033281Y-128417842D01*
X160023177Y-128347568D01*
X160052671Y-128282988D01*
X160061525Y-128273760D01*
X160159883Y-128181159D01*
X160172009Y-128169743D01*
X160280628Y-128022103D01*
X160360853Y-127857302D01*
X160410057Y-127680739D01*
X160410573Y-127675054D01*
X160410574Y-127675049D01*
X160422543Y-127543185D01*
X160423772Y-127533681D01*
X160426820Y-127515553D01*
X160426820Y-127515548D01*
X160427627Y-127510751D01*
X160427779Y-127498199D01*
X160425981Y-127485649D01*
X160423824Y-127470601D01*
X160422550Y-127452727D01*
X160422550Y-125986202D01*
X166011837Y-125986202D01*
X166027977Y-126178400D01*
X166029676Y-126184325D01*
X166073293Y-126336435D01*
X166081140Y-126363802D01*
X166083955Y-126369279D01*
X166083956Y-126369282D01*
X166103506Y-126407322D01*
X166169302Y-126535348D01*
X166173125Y-126540172D01*
X166173128Y-126540176D01*
X166280421Y-126675545D01*
X166289106Y-126686502D01*
X166435987Y-126811508D01*
X166604351Y-126905604D01*
X166787786Y-126965205D01*
X166979303Y-126988042D01*
X166985438Y-126987570D01*
X166985440Y-126987570D01*
X167165467Y-126973718D01*
X167165471Y-126973717D01*
X167171609Y-126973245D01*
X167357379Y-126921377D01*
X167438572Y-126880364D01*
X167524035Y-126837194D01*
X167524037Y-126837193D01*
X167529536Y-126834415D01*
X167681523Y-126715669D01*
X167685549Y-126711005D01*
X167685552Y-126711002D01*
X167803522Y-126574332D01*
X167803523Y-126574330D01*
X167807551Y-126569664D01*
X167855185Y-126485813D01*
X167899775Y-126407322D01*
X167899777Y-126407318D01*
X167902820Y-126401961D01*
X167946912Y-126269414D01*
X167961755Y-126224795D01*
X167961756Y-126224792D01*
X167963700Y-126218947D01*
X167969598Y-126172258D01*
X167987432Y-126031097D01*
X167987433Y-126031087D01*
X167987874Y-126027594D01*
X167988259Y-126000000D01*
X167969438Y-125808046D01*
X167913691Y-125623404D01*
X167860155Y-125522717D01*
X167826036Y-125458548D01*
X167826034Y-125458545D01*
X167823142Y-125453106D01*
X167819252Y-125448336D01*
X167819249Y-125448332D01*
X167705135Y-125308414D01*
X167705132Y-125308411D01*
X167701240Y-125303639D01*
X167696491Y-125299710D01*
X167557377Y-125184625D01*
X167557374Y-125184623D01*
X167552627Y-125180696D01*
X167382966Y-125088960D01*
X167290841Y-125060443D01*
X167204604Y-125033748D01*
X167204601Y-125033747D01*
X167198717Y-125031926D01*
X167192592Y-125031282D01*
X167192591Y-125031282D01*
X167013027Y-125012409D01*
X167013026Y-125012409D01*
X167006899Y-125011765D01*
X166927188Y-125019019D01*
X166820958Y-125028687D01*
X166820955Y-125028688D01*
X166814819Y-125029246D01*
X166808913Y-125030984D01*
X166808909Y-125030985D01*
X166681414Y-125068509D01*
X166629792Y-125083702D01*
X166458866Y-125173060D01*
X166454066Y-125176920D01*
X166454065Y-125176920D01*
X166443603Y-125185332D01*
X166308551Y-125293916D01*
X166304593Y-125298633D01*
X166304591Y-125298635D01*
X166244885Y-125369790D01*
X166184574Y-125441666D01*
X166181610Y-125447058D01*
X166181607Y-125447062D01*
X166096464Y-125601938D01*
X166091656Y-125610683D01*
X166033337Y-125794529D01*
X166032651Y-125800646D01*
X166032650Y-125800650D01*
X166017237Y-125938062D01*
X166011837Y-125986202D01*
X160422550Y-125986202D01*
X160422550Y-125951468D01*
X160424294Y-125930576D01*
X160426821Y-125915547D01*
X160426821Y-125915546D01*
X160427627Y-125910753D01*
X160427779Y-125898201D01*
X160425413Y-125881687D01*
X160424657Y-125875231D01*
X160410660Y-125721369D01*
X160410142Y-125715675D01*
X160398011Y-125672171D01*
X160382894Y-125617962D01*
X160360911Y-125539132D01*
X160356236Y-125529531D01*
X160283166Y-125379492D01*
X160280664Y-125374354D01*
X160277278Y-125369753D01*
X160277275Y-125369748D01*
X160203734Y-125269818D01*
X160172031Y-125226740D01*
X160167875Y-125222828D01*
X160042727Y-125105037D01*
X160042723Y-125105034D01*
X160038569Y-125101124D01*
X160033771Y-125098022D01*
X159889450Y-125004722D01*
X159889444Y-125004719D01*
X159884652Y-125001621D01*
X159807994Y-124969873D01*
X159720605Y-124933680D01*
X159720601Y-124933679D01*
X159715321Y-124931492D01*
X159536122Y-124893033D01*
X159448245Y-124890380D01*
X159358636Y-124887675D01*
X159358632Y-124887675D01*
X159352926Y-124887503D01*
X159319304Y-124892621D01*
X159177382Y-124914225D01*
X159177378Y-124914226D01*
X159171735Y-124915085D01*
X159166338Y-124916947D01*
X159166336Y-124916948D01*
X159003877Y-124973013D01*
X159003875Y-124973014D01*
X158998482Y-124974875D01*
X158838844Y-125064914D01*
X158834459Y-125068569D01*
X158834451Y-125068574D01*
X158732748Y-125153334D01*
X158725159Y-125159185D01*
X158710180Y-125169849D01*
X158710173Y-125169855D01*
X158706219Y-125172670D01*
X158697235Y-125181437D01*
X158694316Y-125185332D01*
X158680498Y-125203769D01*
X158668768Y-125217299D01*
X158586358Y-125299710D01*
X158533222Y-125352846D01*
X158470910Y-125386871D01*
X158444126Y-125389751D01*
X156383976Y-125389751D01*
X156315855Y-125369749D01*
X156294881Y-125352847D01*
X156164794Y-125222761D01*
X156151257Y-125206758D01*
X156142411Y-125194337D01*
X156142404Y-125194328D01*
X156139584Y-125190369D01*
X156130815Y-125181386D01*
X156124854Y-125176920D01*
X156116399Y-125170585D01*
X156111297Y-125166553D01*
X156099116Y-125156404D01*
X155989237Y-125064855D01*
X155945911Y-125040425D01*
X155873215Y-124999435D01*
X155829601Y-124974843D01*
X155656355Y-124915078D01*
X155475175Y-124887516D01*
X155469460Y-124887689D01*
X155297705Y-124892889D01*
X155297704Y-124892889D01*
X155291994Y-124893062D01*
X155202403Y-124912297D01*
X155118396Y-124930333D01*
X155118393Y-124930334D01*
X155112813Y-124931532D01*
X155107539Y-124933717D01*
X155107538Y-124933717D01*
X154948891Y-124999435D01*
X154943500Y-125001668D01*
X154900846Y-125029246D01*
X154794400Y-125098068D01*
X154794396Y-125098071D01*
X154789600Y-125101172D01*
X154734186Y-125153334D01*
X154660359Y-125222828D01*
X154656156Y-125226784D01*
X154547536Y-125374391D01*
X154545037Y-125379522D01*
X154545035Y-125379526D01*
X154492192Y-125488042D01*
X154467300Y-125539158D01*
X154465769Y-125544649D01*
X154465767Y-125544654D01*
X154443808Y-125623404D01*
X154418075Y-125715688D01*
X154417558Y-125721369D01*
X154417558Y-125721370D01*
X154405564Y-125853219D01*
X154404334Y-125862719D01*
X154401282Y-125880848D01*
X154401281Y-125880859D01*
X154400475Y-125885647D01*
X154400321Y-125898199D01*
X154401010Y-125903012D01*
X154401010Y-125903015D01*
X154404279Y-125925856D01*
X154405550Y-125943706D01*
X154405550Y-127444969D01*
X154403802Y-127465885D01*
X154400475Y-127485649D01*
X154400321Y-127498201D01*
X154401010Y-127503014D01*
X154401010Y-127503016D01*
X154402877Y-127516061D01*
X154403632Y-127522520D01*
X154417996Y-127680743D01*
X154467203Y-127857306D01*
X154547434Y-128022107D01*
X154656059Y-128169743D01*
X154660224Y-128173663D01*
X154660225Y-128173665D01*
X154766550Y-128273756D01*
X154802441Y-128335012D01*
X154799516Y-128405949D01*
X154758704Y-128464043D01*
X154692963Y-128490850D01*
X154680185Y-128491500D01*
X147147895Y-128491500D01*
X147079774Y-128471498D01*
X147033281Y-128417842D01*
X147023177Y-128347568D01*
X147052671Y-128282988D01*
X147061525Y-128273760D01*
X147159883Y-128181159D01*
X147172009Y-128169743D01*
X147280628Y-128022103D01*
X147360853Y-127857302D01*
X147410057Y-127680739D01*
X147410573Y-127675054D01*
X147410574Y-127675049D01*
X147422543Y-127543185D01*
X147423772Y-127533681D01*
X147426820Y-127515553D01*
X147426820Y-127515548D01*
X147427627Y-127510751D01*
X147427779Y-127498199D01*
X147425981Y-127485649D01*
X147423824Y-127470601D01*
X147422550Y-127452727D01*
X147422550Y-125951468D01*
X147424294Y-125930576D01*
X147426821Y-125915547D01*
X147426821Y-125915546D01*
X147427627Y-125910753D01*
X147427779Y-125898201D01*
X147425413Y-125881687D01*
X147424657Y-125875231D01*
X147410660Y-125721369D01*
X147410142Y-125715675D01*
X147398011Y-125672171D01*
X147382894Y-125617962D01*
X147360911Y-125539132D01*
X147356236Y-125529531D01*
X147283166Y-125379492D01*
X147280664Y-125374354D01*
X147277278Y-125369753D01*
X147277275Y-125369748D01*
X147203734Y-125269818D01*
X147172031Y-125226740D01*
X147167875Y-125222828D01*
X147042727Y-125105037D01*
X147042723Y-125105034D01*
X147038569Y-125101124D01*
X147033771Y-125098022D01*
X146889450Y-125004722D01*
X146889444Y-125004719D01*
X146884652Y-125001621D01*
X146807994Y-124969873D01*
X146720605Y-124933680D01*
X146720601Y-124933679D01*
X146715321Y-124931492D01*
X146536122Y-124893033D01*
X146448245Y-124890380D01*
X146358636Y-124887675D01*
X146358632Y-124887675D01*
X146352926Y-124887503D01*
X146319304Y-124892621D01*
X146177382Y-124914225D01*
X146177378Y-124914226D01*
X146171735Y-124915085D01*
X146166338Y-124916947D01*
X146166336Y-124916948D01*
X146003877Y-124973013D01*
X146003875Y-124973014D01*
X145998482Y-124974875D01*
X145838844Y-125064914D01*
X145834459Y-125068569D01*
X145834451Y-125068574D01*
X145732748Y-125153334D01*
X145725159Y-125159185D01*
X145710180Y-125169849D01*
X145710173Y-125169855D01*
X145706219Y-125172670D01*
X145697235Y-125181437D01*
X145694316Y-125185332D01*
X145680498Y-125203769D01*
X145668768Y-125217299D01*
X145586358Y-125299710D01*
X145533222Y-125352846D01*
X145470910Y-125386871D01*
X145444126Y-125389751D01*
X142383976Y-125389751D01*
X142315855Y-125369749D01*
X142294881Y-125352847D01*
X142164794Y-125222761D01*
X142151257Y-125206758D01*
X142142411Y-125194337D01*
X142142404Y-125194328D01*
X142139584Y-125190369D01*
X142130815Y-125181386D01*
X142124854Y-125176920D01*
X142116399Y-125170585D01*
X142111297Y-125166553D01*
X142099116Y-125156404D01*
X141989237Y-125064855D01*
X141945911Y-125040425D01*
X141873215Y-124999435D01*
X141829601Y-124974843D01*
X141656355Y-124915078D01*
X141475175Y-124887516D01*
X141469460Y-124887689D01*
X141297705Y-124892889D01*
X141297704Y-124892889D01*
X141291994Y-124893062D01*
X141202403Y-124912297D01*
X141118396Y-124930333D01*
X141118393Y-124930334D01*
X141112813Y-124931532D01*
X141107539Y-124933717D01*
X141107538Y-124933717D01*
X140948891Y-124999435D01*
X140943500Y-125001668D01*
X140900846Y-125029246D01*
X140794400Y-125098068D01*
X140794396Y-125098071D01*
X140789600Y-125101172D01*
X140734186Y-125153334D01*
X140660359Y-125222828D01*
X140656156Y-125226784D01*
X140547536Y-125374391D01*
X140545037Y-125379522D01*
X140545035Y-125379526D01*
X140492192Y-125488042D01*
X140467300Y-125539158D01*
X140465769Y-125544649D01*
X140465767Y-125544654D01*
X140443808Y-125623404D01*
X140418075Y-125715688D01*
X140417558Y-125721369D01*
X140417558Y-125721370D01*
X140405564Y-125853219D01*
X140404334Y-125862719D01*
X140401282Y-125880848D01*
X140401281Y-125880859D01*
X140400475Y-125885647D01*
X140400321Y-125898199D01*
X140401010Y-125903012D01*
X140401010Y-125903015D01*
X140404279Y-125925856D01*
X140405550Y-125943706D01*
X140405550Y-127444969D01*
X140403802Y-127465885D01*
X140400475Y-127485649D01*
X140400321Y-127498201D01*
X140401010Y-127503014D01*
X140401010Y-127503016D01*
X140402877Y-127516061D01*
X140403632Y-127522520D01*
X140417996Y-127680743D01*
X140467203Y-127857306D01*
X140547434Y-128022107D01*
X140656059Y-128169743D01*
X140660224Y-128173663D01*
X140660225Y-128173665D01*
X140766550Y-128273756D01*
X140802441Y-128335012D01*
X140799516Y-128405949D01*
X140758704Y-128464043D01*
X140692963Y-128490850D01*
X140680185Y-128491500D01*
X133147895Y-128491500D01*
X133079774Y-128471498D01*
X133033281Y-128417842D01*
X133023177Y-128347568D01*
X133052671Y-128282988D01*
X133061525Y-128273760D01*
X133159883Y-128181159D01*
X133172009Y-128169743D01*
X133280628Y-128022103D01*
X133360853Y-127857302D01*
X133410057Y-127680739D01*
X133410573Y-127675054D01*
X133410574Y-127675049D01*
X133422543Y-127543185D01*
X133423772Y-127533681D01*
X133426820Y-127515553D01*
X133426820Y-127515548D01*
X133427627Y-127510751D01*
X133427779Y-127498199D01*
X133425981Y-127485649D01*
X133423824Y-127470601D01*
X133422550Y-127452727D01*
X133422550Y-125951468D01*
X133424294Y-125930576D01*
X133426821Y-125915547D01*
X133426821Y-125915546D01*
X133427627Y-125910753D01*
X133427779Y-125898201D01*
X133425413Y-125881687D01*
X133424657Y-125875231D01*
X133410660Y-125721369D01*
X133410142Y-125715675D01*
X133398011Y-125672171D01*
X133382894Y-125617962D01*
X133360911Y-125539132D01*
X133356236Y-125529531D01*
X133283166Y-125379492D01*
X133280664Y-125374354D01*
X133277278Y-125369753D01*
X133277275Y-125369748D01*
X133203734Y-125269818D01*
X133172031Y-125226740D01*
X133167875Y-125222828D01*
X133042727Y-125105037D01*
X133042723Y-125105034D01*
X133038569Y-125101124D01*
X133033771Y-125098022D01*
X132889450Y-125004722D01*
X132889444Y-125004719D01*
X132884652Y-125001621D01*
X132807994Y-124969873D01*
X132720605Y-124933680D01*
X132720601Y-124933679D01*
X132715321Y-124931492D01*
X132536122Y-124893033D01*
X132448245Y-124890380D01*
X132358636Y-124887675D01*
X132358632Y-124887675D01*
X132352926Y-124887503D01*
X132319304Y-124892621D01*
X132177382Y-124914225D01*
X132177378Y-124914226D01*
X132171735Y-124915085D01*
X132166338Y-124916947D01*
X132166336Y-124916948D01*
X132003877Y-124973013D01*
X132003875Y-124973014D01*
X131998482Y-124974875D01*
X131838844Y-125064914D01*
X131834459Y-125068569D01*
X131834451Y-125068574D01*
X131732748Y-125153334D01*
X131725159Y-125159185D01*
X131710180Y-125169849D01*
X131710173Y-125169855D01*
X131706219Y-125172670D01*
X131697235Y-125181437D01*
X131694316Y-125185332D01*
X131680498Y-125203769D01*
X131668768Y-125217299D01*
X131586358Y-125299710D01*
X131533222Y-125352846D01*
X131470910Y-125386871D01*
X131444126Y-125389751D01*
X129383976Y-125389751D01*
X129315855Y-125369749D01*
X129294881Y-125352847D01*
X129164794Y-125222761D01*
X129151257Y-125206758D01*
X129142411Y-125194337D01*
X129142404Y-125194328D01*
X129139584Y-125190369D01*
X129130815Y-125181386D01*
X129124854Y-125176920D01*
X129116399Y-125170585D01*
X129111297Y-125166553D01*
X129099116Y-125156404D01*
X128989237Y-125064855D01*
X128945911Y-125040425D01*
X128873215Y-124999435D01*
X128829601Y-124974843D01*
X128656355Y-124915078D01*
X128475175Y-124887516D01*
X128469460Y-124887689D01*
X128297705Y-124892889D01*
X128297704Y-124892889D01*
X128291994Y-124893062D01*
X128202403Y-124912297D01*
X128118396Y-124930333D01*
X128118393Y-124930334D01*
X128112813Y-124931532D01*
X128107539Y-124933717D01*
X128107538Y-124933717D01*
X127948891Y-124999435D01*
X127943500Y-125001668D01*
X127900846Y-125029246D01*
X127794400Y-125098068D01*
X127794396Y-125098071D01*
X127789600Y-125101172D01*
X127734186Y-125153334D01*
X127660359Y-125222828D01*
X127656156Y-125226784D01*
X127547536Y-125374391D01*
X127545037Y-125379522D01*
X127545035Y-125379526D01*
X127492192Y-125488042D01*
X127467300Y-125539158D01*
X127465769Y-125544649D01*
X127465767Y-125544654D01*
X127443808Y-125623404D01*
X127418075Y-125715688D01*
X127417558Y-125721369D01*
X127417558Y-125721370D01*
X127405564Y-125853219D01*
X127404334Y-125862719D01*
X127401282Y-125880848D01*
X127401281Y-125880859D01*
X127400475Y-125885647D01*
X127400321Y-125898199D01*
X127401010Y-125903012D01*
X127401010Y-125903015D01*
X127404279Y-125925856D01*
X127405550Y-125943706D01*
X127405550Y-127444969D01*
X127403802Y-127465885D01*
X127400475Y-127485649D01*
X127400321Y-127498201D01*
X127401010Y-127503014D01*
X127401010Y-127503016D01*
X127402877Y-127516061D01*
X127403632Y-127522520D01*
X127417996Y-127680743D01*
X127467203Y-127857306D01*
X127547434Y-128022107D01*
X127656059Y-128169743D01*
X127660224Y-128173663D01*
X127660225Y-128173665D01*
X127766550Y-128273756D01*
X127802441Y-128335012D01*
X127799516Y-128405949D01*
X127758704Y-128464043D01*
X127692963Y-128490850D01*
X127680185Y-128491500D01*
X120147895Y-128491500D01*
X120079774Y-128471498D01*
X120033281Y-128417842D01*
X120023177Y-128347568D01*
X120052671Y-128282988D01*
X120061525Y-128273760D01*
X120159883Y-128181159D01*
X120172009Y-128169743D01*
X120280628Y-128022103D01*
X120360853Y-127857302D01*
X120410057Y-127680739D01*
X120410573Y-127675054D01*
X120410574Y-127675049D01*
X120422543Y-127543185D01*
X120423772Y-127533681D01*
X120426820Y-127515553D01*
X120426820Y-127515548D01*
X120427627Y-127510751D01*
X120427779Y-127498199D01*
X120425981Y-127485649D01*
X120423824Y-127470601D01*
X120422550Y-127452727D01*
X120422550Y-125951468D01*
X120424294Y-125930576D01*
X120426821Y-125915547D01*
X120426821Y-125915546D01*
X120427627Y-125910753D01*
X120427779Y-125898201D01*
X120425413Y-125881687D01*
X120424657Y-125875231D01*
X120410660Y-125721369D01*
X120410142Y-125715675D01*
X120398011Y-125672171D01*
X120382894Y-125617962D01*
X120360911Y-125539132D01*
X120356236Y-125529531D01*
X120283166Y-125379492D01*
X120280664Y-125374354D01*
X120277278Y-125369753D01*
X120277275Y-125369748D01*
X120203734Y-125269818D01*
X120172031Y-125226740D01*
X120167875Y-125222828D01*
X120042727Y-125105037D01*
X120042723Y-125105034D01*
X120038569Y-125101124D01*
X120033771Y-125098022D01*
X119889450Y-125004722D01*
X119889444Y-125004719D01*
X119884652Y-125001621D01*
X119807994Y-124969873D01*
X119720605Y-124933680D01*
X119720601Y-124933679D01*
X119715321Y-124931492D01*
X119536122Y-124893033D01*
X119448245Y-124890380D01*
X119358636Y-124887675D01*
X119358632Y-124887675D01*
X119352926Y-124887503D01*
X119319304Y-124892621D01*
X119177382Y-124914225D01*
X119177378Y-124914226D01*
X119171735Y-124915085D01*
X119166338Y-124916947D01*
X119166336Y-124916948D01*
X119003877Y-124973013D01*
X119003875Y-124973014D01*
X118998482Y-124974875D01*
X118838844Y-125064914D01*
X118834459Y-125068569D01*
X118834451Y-125068574D01*
X118732748Y-125153334D01*
X118725159Y-125159185D01*
X118710180Y-125169849D01*
X118710173Y-125169855D01*
X118706219Y-125172670D01*
X118697235Y-125181437D01*
X118694316Y-125185332D01*
X118680498Y-125203769D01*
X118668768Y-125217299D01*
X118586358Y-125299710D01*
X118533222Y-125352846D01*
X118470910Y-125386871D01*
X118444126Y-125389751D01*
X115383976Y-125389751D01*
X115315855Y-125369749D01*
X115294881Y-125352847D01*
X115164794Y-125222761D01*
X115151257Y-125206758D01*
X115142411Y-125194337D01*
X115142404Y-125194328D01*
X115139584Y-125190369D01*
X115130815Y-125181386D01*
X115124854Y-125176920D01*
X115116399Y-125170585D01*
X115111297Y-125166553D01*
X115099116Y-125156404D01*
X114989237Y-125064855D01*
X114945911Y-125040425D01*
X114873215Y-124999435D01*
X114829601Y-124974843D01*
X114656355Y-124915078D01*
X114475175Y-124887516D01*
X114469460Y-124887689D01*
X114297705Y-124892889D01*
X114297704Y-124892889D01*
X114291994Y-124893062D01*
X114202403Y-124912297D01*
X114118396Y-124930333D01*
X114118393Y-124930334D01*
X114112813Y-124931532D01*
X114107539Y-124933717D01*
X114107538Y-124933717D01*
X113948891Y-124999435D01*
X113943500Y-125001668D01*
X113900846Y-125029246D01*
X113794400Y-125098068D01*
X113794396Y-125098071D01*
X113789600Y-125101172D01*
X113734186Y-125153334D01*
X113660359Y-125222828D01*
X113656156Y-125226784D01*
X113547536Y-125374391D01*
X113545037Y-125379522D01*
X113545035Y-125379526D01*
X113492192Y-125488042D01*
X113467300Y-125539158D01*
X113465769Y-125544649D01*
X113465767Y-125544654D01*
X113443808Y-125623404D01*
X113418075Y-125715688D01*
X113417558Y-125721369D01*
X113417558Y-125721370D01*
X113405564Y-125853219D01*
X113404334Y-125862719D01*
X113401282Y-125880848D01*
X113401281Y-125880859D01*
X113400475Y-125885647D01*
X113400321Y-125898199D01*
X113401010Y-125903012D01*
X113401010Y-125903015D01*
X113404279Y-125925856D01*
X113405550Y-125943706D01*
X113405550Y-127444969D01*
X113403802Y-127465885D01*
X113400475Y-127485649D01*
X113400321Y-127498201D01*
X113401010Y-127503014D01*
X113401010Y-127503016D01*
X113402877Y-127516061D01*
X113403632Y-127522520D01*
X113417996Y-127680743D01*
X113467203Y-127857306D01*
X113547434Y-128022107D01*
X113656059Y-128169743D01*
X113660224Y-128173663D01*
X113660225Y-128173665D01*
X113766550Y-128273756D01*
X113802441Y-128335012D01*
X113799516Y-128405949D01*
X113758704Y-128464043D01*
X113692963Y-128490850D01*
X113680185Y-128491500D01*
X106147895Y-128491500D01*
X106079774Y-128471498D01*
X106033281Y-128417842D01*
X106023177Y-128347568D01*
X106052671Y-128282988D01*
X106061525Y-128273760D01*
X106159883Y-128181159D01*
X106172009Y-128169743D01*
X106280628Y-128022103D01*
X106360853Y-127857302D01*
X106410057Y-127680739D01*
X106410573Y-127675054D01*
X106410574Y-127675049D01*
X106422543Y-127543185D01*
X106423772Y-127533681D01*
X106426820Y-127515553D01*
X106426820Y-127515548D01*
X106427627Y-127510751D01*
X106427779Y-127498199D01*
X106425981Y-127485649D01*
X106423824Y-127470601D01*
X106422550Y-127452727D01*
X106422550Y-125951468D01*
X106424294Y-125930576D01*
X106426821Y-125915547D01*
X106426821Y-125915546D01*
X106427627Y-125910753D01*
X106427779Y-125898201D01*
X106425413Y-125881687D01*
X106424657Y-125875231D01*
X106410660Y-125721369D01*
X106410142Y-125715675D01*
X106398011Y-125672171D01*
X106382894Y-125617962D01*
X106360911Y-125539132D01*
X106356236Y-125529531D01*
X106283166Y-125379492D01*
X106280664Y-125374354D01*
X106277278Y-125369753D01*
X106277275Y-125369748D01*
X106203734Y-125269818D01*
X106172031Y-125226740D01*
X106167875Y-125222828D01*
X106042727Y-125105037D01*
X106042723Y-125105034D01*
X106038569Y-125101124D01*
X106033771Y-125098022D01*
X105889450Y-125004722D01*
X105889444Y-125004719D01*
X105884652Y-125001621D01*
X105807994Y-124969873D01*
X105720605Y-124933680D01*
X105720601Y-124933679D01*
X105715321Y-124931492D01*
X105536122Y-124893033D01*
X105448245Y-124890380D01*
X105358636Y-124887675D01*
X105358632Y-124887675D01*
X105352926Y-124887503D01*
X105319304Y-124892621D01*
X105177382Y-124914225D01*
X105177378Y-124914226D01*
X105171735Y-124915085D01*
X105166338Y-124916947D01*
X105166336Y-124916948D01*
X105003877Y-124973013D01*
X105003875Y-124973014D01*
X104998482Y-124974875D01*
X104838844Y-125064914D01*
X104834459Y-125068569D01*
X104834451Y-125068574D01*
X104732748Y-125153334D01*
X104725159Y-125159185D01*
X104710180Y-125169849D01*
X104710173Y-125169855D01*
X104706219Y-125172670D01*
X104697235Y-125181437D01*
X104694316Y-125185332D01*
X104680498Y-125203769D01*
X104668768Y-125217299D01*
X104586358Y-125299710D01*
X104533222Y-125352846D01*
X104470910Y-125386871D01*
X104444126Y-125389751D01*
X102383976Y-125389751D01*
X102315855Y-125369749D01*
X102294881Y-125352847D01*
X102164794Y-125222761D01*
X102151257Y-125206758D01*
X102142411Y-125194337D01*
X102142404Y-125194328D01*
X102139584Y-125190369D01*
X102130815Y-125181386D01*
X102124854Y-125176920D01*
X102116399Y-125170585D01*
X102111297Y-125166553D01*
X102099116Y-125156404D01*
X101989237Y-125064855D01*
X101945911Y-125040425D01*
X101873215Y-124999435D01*
X101829601Y-124974843D01*
X101656355Y-124915078D01*
X101475175Y-124887516D01*
X101469460Y-124887689D01*
X101297705Y-124892889D01*
X101297704Y-124892889D01*
X101291994Y-124893062D01*
X101202403Y-124912297D01*
X101118396Y-124930333D01*
X101118393Y-124930334D01*
X101112813Y-124931532D01*
X101107539Y-124933717D01*
X101107538Y-124933717D01*
X100948891Y-124999435D01*
X100943500Y-125001668D01*
X100900846Y-125029246D01*
X100794400Y-125098068D01*
X100794396Y-125098071D01*
X100789600Y-125101172D01*
X100734186Y-125153334D01*
X100660359Y-125222828D01*
X100656156Y-125226784D01*
X100547536Y-125374391D01*
X100545037Y-125379522D01*
X100545035Y-125379526D01*
X100492192Y-125488042D01*
X100467300Y-125539158D01*
X100465769Y-125544649D01*
X100465767Y-125544654D01*
X100443808Y-125623404D01*
X100418075Y-125715688D01*
X100417558Y-125721369D01*
X100417558Y-125721370D01*
X100405564Y-125853219D01*
X100404334Y-125862719D01*
X100401282Y-125880848D01*
X100401281Y-125880859D01*
X100400475Y-125885647D01*
X100400321Y-125898199D01*
X100401010Y-125903012D01*
X100401010Y-125903015D01*
X100404279Y-125925856D01*
X100405550Y-125943706D01*
X100405550Y-127444969D01*
X100403802Y-127465885D01*
X100400475Y-127485649D01*
X100400321Y-127498201D01*
X100401010Y-127503014D01*
X100401010Y-127503016D01*
X100402877Y-127516061D01*
X100403632Y-127522520D01*
X100417996Y-127680743D01*
X100467203Y-127857306D01*
X100547434Y-128022107D01*
X100656059Y-128169743D01*
X100660224Y-128173663D01*
X100660225Y-128173665D01*
X100766550Y-128273756D01*
X100802441Y-128335012D01*
X100799516Y-128405949D01*
X100758704Y-128464043D01*
X100692963Y-128490850D01*
X100680185Y-128491500D01*
X85398500Y-128491500D01*
X85330379Y-128471498D01*
X85283886Y-128417842D01*
X85272500Y-128365500D01*
X85272500Y-124486202D01*
X94011837Y-124486202D01*
X94027977Y-124678400D01*
X94029676Y-124684325D01*
X94041281Y-124724795D01*
X94081140Y-124863802D01*
X94083955Y-124869279D01*
X94083956Y-124869282D01*
X94151969Y-125001621D01*
X94169302Y-125035348D01*
X94173125Y-125040172D01*
X94173128Y-125040176D01*
X94274948Y-125168639D01*
X94289106Y-125186502D01*
X94293800Y-125190497D01*
X94415317Y-125293916D01*
X94435987Y-125311508D01*
X94604351Y-125405604D01*
X94787786Y-125465205D01*
X94979303Y-125488042D01*
X94985438Y-125487570D01*
X94985440Y-125487570D01*
X95165467Y-125473718D01*
X95165471Y-125473717D01*
X95171609Y-125473245D01*
X95357379Y-125421377D01*
X95493049Y-125352846D01*
X95524035Y-125337194D01*
X95524037Y-125337193D01*
X95529536Y-125334415D01*
X95681523Y-125215669D01*
X95685549Y-125211005D01*
X95685552Y-125211002D01*
X95803522Y-125074332D01*
X95803523Y-125074330D01*
X95807551Y-125069664D01*
X95884801Y-124933680D01*
X95899775Y-124907322D01*
X95899777Y-124907318D01*
X95902820Y-124901961D01*
X95963700Y-124718947D01*
X95979397Y-124594695D01*
X179542251Y-124594695D01*
X179555110Y-124817715D01*
X179556247Y-124822761D01*
X179556248Y-124822767D01*
X179572778Y-124896113D01*
X179604222Y-125035639D01*
X179661242Y-125176064D01*
X179678865Y-125219463D01*
X179688266Y-125242616D01*
X179725661Y-125303639D01*
X179802291Y-125428688D01*
X179804987Y-125433088D01*
X179951250Y-125601938D01*
X180123126Y-125744632D01*
X180316000Y-125857338D01*
X180320825Y-125859180D01*
X180320826Y-125859181D01*
X180390134Y-125885647D01*
X180524692Y-125937030D01*
X180529760Y-125938061D01*
X180529763Y-125938062D01*
X180637017Y-125959883D01*
X180743597Y-125981567D01*
X180748772Y-125981757D01*
X180748774Y-125981757D01*
X180961673Y-125989564D01*
X180961677Y-125989564D01*
X180966837Y-125989753D01*
X180971957Y-125989097D01*
X180971959Y-125989097D01*
X181183288Y-125962025D01*
X181183289Y-125962025D01*
X181188416Y-125961368D01*
X181193366Y-125959883D01*
X181397429Y-125898661D01*
X181397434Y-125898659D01*
X181402384Y-125897174D01*
X181602994Y-125798896D01*
X181784860Y-125669173D01*
X181943096Y-125511489D01*
X181960284Y-125487570D01*
X182073453Y-125330077D01*
X182074776Y-125331028D01*
X182121645Y-125287857D01*
X182191580Y-125275625D01*
X182257026Y-125303144D01*
X182284875Y-125334994D01*
X182344987Y-125433088D01*
X182491250Y-125601938D01*
X182663126Y-125744632D01*
X182856000Y-125857338D01*
X182860825Y-125859180D01*
X182860826Y-125859181D01*
X182930134Y-125885647D01*
X183064692Y-125937030D01*
X183069760Y-125938061D01*
X183069763Y-125938062D01*
X183177017Y-125959883D01*
X183283597Y-125981567D01*
X183288772Y-125981757D01*
X183288774Y-125981757D01*
X183501673Y-125989564D01*
X183501677Y-125989564D01*
X183506837Y-125989753D01*
X183511957Y-125989097D01*
X183511959Y-125989097D01*
X183723288Y-125962025D01*
X183723289Y-125962025D01*
X183728416Y-125961368D01*
X183733366Y-125959883D01*
X183937429Y-125898661D01*
X183937434Y-125898659D01*
X183942384Y-125897174D01*
X184142994Y-125798896D01*
X184324860Y-125669173D01*
X184483096Y-125511489D01*
X184500284Y-125487570D01*
X184613453Y-125330077D01*
X184614776Y-125331028D01*
X184661645Y-125287857D01*
X184731580Y-125275625D01*
X184797026Y-125303144D01*
X184824875Y-125334994D01*
X184884987Y-125433088D01*
X185031250Y-125601938D01*
X185203126Y-125744632D01*
X185396000Y-125857338D01*
X185400825Y-125859180D01*
X185400826Y-125859181D01*
X185470134Y-125885647D01*
X185604692Y-125937030D01*
X185609760Y-125938061D01*
X185609763Y-125938062D01*
X185717017Y-125959883D01*
X185823597Y-125981567D01*
X185828772Y-125981757D01*
X185828774Y-125981757D01*
X186041673Y-125989564D01*
X186041677Y-125989564D01*
X186046837Y-125989753D01*
X186051957Y-125989097D01*
X186051959Y-125989097D01*
X186263288Y-125962025D01*
X186263289Y-125962025D01*
X186268416Y-125961368D01*
X186273366Y-125959883D01*
X186477429Y-125898661D01*
X186477434Y-125898659D01*
X186482384Y-125897174D01*
X186682994Y-125798896D01*
X186864860Y-125669173D01*
X187023096Y-125511489D01*
X187040284Y-125487570D01*
X187153453Y-125330077D01*
X187154776Y-125331028D01*
X187201645Y-125287857D01*
X187271580Y-125275625D01*
X187337026Y-125303144D01*
X187364875Y-125334994D01*
X187424987Y-125433088D01*
X187571250Y-125601938D01*
X187743126Y-125744632D01*
X187936000Y-125857338D01*
X187940825Y-125859180D01*
X187940826Y-125859181D01*
X188010134Y-125885647D01*
X188144692Y-125937030D01*
X188149760Y-125938061D01*
X188149763Y-125938062D01*
X188257017Y-125959883D01*
X188363597Y-125981567D01*
X188368772Y-125981757D01*
X188368774Y-125981757D01*
X188581673Y-125989564D01*
X188581677Y-125989564D01*
X188586837Y-125989753D01*
X188591957Y-125989097D01*
X188591959Y-125989097D01*
X188803288Y-125962025D01*
X188803289Y-125962025D01*
X188808416Y-125961368D01*
X188813366Y-125959883D01*
X189017429Y-125898661D01*
X189017434Y-125898659D01*
X189022384Y-125897174D01*
X189222994Y-125798896D01*
X189404860Y-125669173D01*
X189563096Y-125511489D01*
X189580284Y-125487570D01*
X189693453Y-125330077D01*
X189694776Y-125331028D01*
X189741645Y-125287857D01*
X189811580Y-125275625D01*
X189877026Y-125303144D01*
X189904875Y-125334994D01*
X189964987Y-125433088D01*
X190111250Y-125601938D01*
X190283126Y-125744632D01*
X190476000Y-125857338D01*
X190480825Y-125859180D01*
X190480826Y-125859181D01*
X190550134Y-125885647D01*
X190684692Y-125937030D01*
X190689760Y-125938061D01*
X190689763Y-125938062D01*
X190797017Y-125959883D01*
X190903597Y-125981567D01*
X190908772Y-125981757D01*
X190908774Y-125981757D01*
X191121673Y-125989564D01*
X191121677Y-125989564D01*
X191126837Y-125989753D01*
X191131957Y-125989097D01*
X191131959Y-125989097D01*
X191343288Y-125962025D01*
X191343289Y-125962025D01*
X191348416Y-125961368D01*
X191353366Y-125959883D01*
X191557429Y-125898661D01*
X191557434Y-125898659D01*
X191562384Y-125897174D01*
X191762994Y-125798896D01*
X191944860Y-125669173D01*
X192103096Y-125511489D01*
X192120284Y-125487570D01*
X192233453Y-125330077D01*
X192234776Y-125331028D01*
X192281645Y-125287857D01*
X192351580Y-125275625D01*
X192417026Y-125303144D01*
X192444875Y-125334994D01*
X192504987Y-125433088D01*
X192651250Y-125601938D01*
X192823126Y-125744632D01*
X193016000Y-125857338D01*
X193020825Y-125859180D01*
X193020826Y-125859181D01*
X193090134Y-125885647D01*
X193224692Y-125937030D01*
X193229760Y-125938061D01*
X193229763Y-125938062D01*
X193337017Y-125959883D01*
X193443597Y-125981567D01*
X193448772Y-125981757D01*
X193448774Y-125981757D01*
X193661673Y-125989564D01*
X193661677Y-125989564D01*
X193666837Y-125989753D01*
X193671957Y-125989097D01*
X193671959Y-125989097D01*
X193883288Y-125962025D01*
X193883289Y-125962025D01*
X193888416Y-125961368D01*
X193893366Y-125959883D01*
X194097429Y-125898661D01*
X194097434Y-125898659D01*
X194102384Y-125897174D01*
X194302994Y-125798896D01*
X194484860Y-125669173D01*
X194643096Y-125511489D01*
X194660284Y-125487570D01*
X194773453Y-125330077D01*
X194774776Y-125331028D01*
X194821645Y-125287857D01*
X194891580Y-125275625D01*
X194957026Y-125303144D01*
X194984875Y-125334994D01*
X195044987Y-125433088D01*
X195191250Y-125601938D01*
X195363126Y-125744632D01*
X195556000Y-125857338D01*
X195560825Y-125859180D01*
X195560826Y-125859181D01*
X195630134Y-125885647D01*
X195764692Y-125937030D01*
X195769760Y-125938061D01*
X195769763Y-125938062D01*
X195877017Y-125959883D01*
X195983597Y-125981567D01*
X195988772Y-125981757D01*
X195988774Y-125981757D01*
X196201673Y-125989564D01*
X196201677Y-125989564D01*
X196206837Y-125989753D01*
X196211957Y-125989097D01*
X196211959Y-125989097D01*
X196423288Y-125962025D01*
X196423289Y-125962025D01*
X196428416Y-125961368D01*
X196433366Y-125959883D01*
X196637429Y-125898661D01*
X196637434Y-125898659D01*
X196642384Y-125897174D01*
X196842994Y-125798896D01*
X197024860Y-125669173D01*
X197183096Y-125511489D01*
X197200284Y-125487570D01*
X197313453Y-125330077D01*
X197314776Y-125331028D01*
X197361645Y-125287857D01*
X197431580Y-125275625D01*
X197497026Y-125303144D01*
X197524875Y-125334994D01*
X197584987Y-125433088D01*
X197731250Y-125601938D01*
X197903126Y-125744632D01*
X198096000Y-125857338D01*
X198100825Y-125859180D01*
X198100826Y-125859181D01*
X198170134Y-125885647D01*
X198304692Y-125937030D01*
X198309760Y-125938061D01*
X198309763Y-125938062D01*
X198417017Y-125959883D01*
X198523597Y-125981567D01*
X198528772Y-125981757D01*
X198528774Y-125981757D01*
X198741673Y-125989564D01*
X198741677Y-125989564D01*
X198746837Y-125989753D01*
X198751957Y-125989097D01*
X198751959Y-125989097D01*
X198963288Y-125962025D01*
X198963289Y-125962025D01*
X198968416Y-125961368D01*
X198973366Y-125959883D01*
X199177429Y-125898661D01*
X199177434Y-125898659D01*
X199182384Y-125897174D01*
X199382994Y-125798896D01*
X199564860Y-125669173D01*
X199723096Y-125511489D01*
X199740284Y-125487570D01*
X199853453Y-125330077D01*
X199854776Y-125331028D01*
X199901645Y-125287857D01*
X199971580Y-125275625D01*
X200037026Y-125303144D01*
X200064875Y-125334994D01*
X200124987Y-125433088D01*
X200271250Y-125601938D01*
X200443126Y-125744632D01*
X200636000Y-125857338D01*
X200640825Y-125859180D01*
X200640826Y-125859181D01*
X200710134Y-125885647D01*
X200844692Y-125937030D01*
X200849760Y-125938061D01*
X200849763Y-125938062D01*
X200957017Y-125959883D01*
X201063597Y-125981567D01*
X201068772Y-125981757D01*
X201068774Y-125981757D01*
X201281673Y-125989564D01*
X201281677Y-125989564D01*
X201286837Y-125989753D01*
X201291957Y-125989097D01*
X201291959Y-125989097D01*
X201503288Y-125962025D01*
X201503289Y-125962025D01*
X201508416Y-125961368D01*
X201513366Y-125959883D01*
X201717429Y-125898661D01*
X201717434Y-125898659D01*
X201722384Y-125897174D01*
X201922994Y-125798896D01*
X202104860Y-125669173D01*
X202213091Y-125561319D01*
X202275462Y-125527404D01*
X202346268Y-125532592D01*
X202403030Y-125575238D01*
X202420012Y-125606341D01*
X202424369Y-125617962D01*
X202464385Y-125724705D01*
X202551739Y-125841261D01*
X202668295Y-125928615D01*
X202804684Y-125979745D01*
X202866866Y-125986500D01*
X204663134Y-125986500D01*
X204725316Y-125979745D01*
X204861705Y-125928615D01*
X204978261Y-125841261D01*
X205065615Y-125724705D01*
X205116745Y-125588316D01*
X205123500Y-125526134D01*
X205123500Y-123729866D01*
X205116745Y-123667684D01*
X205065615Y-123531295D01*
X204978261Y-123414739D01*
X204861705Y-123327385D01*
X204725316Y-123276255D01*
X204663134Y-123269500D01*
X203129890Y-123269500D01*
X203061769Y-123249498D01*
X203040795Y-123232595D01*
X201990815Y-122182615D01*
X201956789Y-122120303D01*
X201953910Y-122093520D01*
X201953910Y-115518234D01*
X201955461Y-115498524D01*
X201957244Y-115487266D01*
X201958484Y-115479437D01*
X201954469Y-115436962D01*
X201953910Y-115425105D01*
X201953910Y-105656186D01*
X201954412Y-105645528D01*
X201956043Y-105638233D01*
X201953972Y-105572331D01*
X201953910Y-105568373D01*
X201953910Y-78103480D01*
X201973912Y-78035359D01*
X201990815Y-78014385D01*
X203286529Y-76718671D01*
X203348841Y-76684645D01*
X203400745Y-76684296D01*
X203603597Y-76725567D01*
X203608772Y-76725757D01*
X203608774Y-76725757D01*
X203821673Y-76733564D01*
X203821677Y-76733564D01*
X203826837Y-76733753D01*
X203831957Y-76733097D01*
X203831959Y-76733097D01*
X204043288Y-76706025D01*
X204043289Y-76706025D01*
X204048416Y-76705368D01*
X204117489Y-76684645D01*
X204257429Y-76642661D01*
X204257434Y-76642659D01*
X204262384Y-76641174D01*
X204462994Y-76542896D01*
X204644860Y-76413173D01*
X204803096Y-76255489D01*
X204933453Y-76074077D01*
X205032430Y-75873811D01*
X205097370Y-75660069D01*
X205126529Y-75438590D01*
X205128156Y-75372000D01*
X205109852Y-75149361D01*
X205055431Y-74932702D01*
X204966354Y-74727840D01*
X204903221Y-74630251D01*
X204847822Y-74544617D01*
X204847820Y-74544614D01*
X204845014Y-74540277D01*
X204694670Y-74375051D01*
X204690619Y-74371852D01*
X204690615Y-74371848D01*
X204523414Y-74239800D01*
X204523410Y-74239798D01*
X204519359Y-74236598D01*
X204323789Y-74128638D01*
X204318920Y-74126914D01*
X204318916Y-74126912D01*
X204118087Y-74055795D01*
X204118083Y-74055794D01*
X204113212Y-74054069D01*
X204108119Y-74053162D01*
X204108116Y-74053161D01*
X203898373Y-74015800D01*
X203898367Y-74015799D01*
X203893284Y-74014894D01*
X203819452Y-74013992D01*
X203675081Y-74012228D01*
X203675079Y-74012228D01*
X203669911Y-74012165D01*
X203449091Y-74045955D01*
X203236756Y-74115357D01*
X203038607Y-74218507D01*
X203034474Y-74221610D01*
X203034471Y-74221612D01*
X202864100Y-74349530D01*
X202859965Y-74352635D01*
X202856393Y-74356373D01*
X202748729Y-74469037D01*
X202705629Y-74514138D01*
X202598201Y-74671621D01*
X202543293Y-74716621D01*
X202472768Y-74724792D01*
X202409021Y-74693538D01*
X202388324Y-74669054D01*
X202307822Y-74544617D01*
X202307820Y-74544614D01*
X202305014Y-74540277D01*
X202154670Y-74375051D01*
X202150619Y-74371852D01*
X202150615Y-74371848D01*
X201983414Y-74239800D01*
X201983410Y-74239798D01*
X201979359Y-74236598D01*
X201783789Y-74128638D01*
X201778920Y-74126914D01*
X201778916Y-74126912D01*
X201578087Y-74055795D01*
X201578083Y-74055794D01*
X201573212Y-74054069D01*
X201568119Y-74053162D01*
X201568116Y-74053161D01*
X201358373Y-74015800D01*
X201358367Y-74015799D01*
X201353284Y-74014894D01*
X201279452Y-74013992D01*
X201135081Y-74012228D01*
X201135079Y-74012228D01*
X201129911Y-74012165D01*
X200909091Y-74045955D01*
X200696756Y-74115357D01*
X200498607Y-74218507D01*
X200494474Y-74221610D01*
X200494471Y-74221612D01*
X200324100Y-74349530D01*
X200319965Y-74352635D01*
X200316393Y-74356373D01*
X200208729Y-74469037D01*
X200165629Y-74514138D01*
X200058201Y-74671621D01*
X200003293Y-74716621D01*
X199932768Y-74724792D01*
X199869021Y-74693538D01*
X199848324Y-74669054D01*
X199767822Y-74544617D01*
X199767820Y-74544614D01*
X199765014Y-74540277D01*
X199614670Y-74375051D01*
X199610619Y-74371852D01*
X199610615Y-74371848D01*
X199443414Y-74239800D01*
X199443410Y-74239798D01*
X199439359Y-74236598D01*
X199243789Y-74128638D01*
X199238920Y-74126914D01*
X199238916Y-74126912D01*
X199038087Y-74055795D01*
X199038083Y-74055794D01*
X199033212Y-74054069D01*
X199028119Y-74053162D01*
X199028116Y-74053161D01*
X198818373Y-74015800D01*
X198818367Y-74015799D01*
X198813284Y-74014894D01*
X198739452Y-74013992D01*
X198595081Y-74012228D01*
X198595079Y-74012228D01*
X198589911Y-74012165D01*
X198369091Y-74045955D01*
X198156756Y-74115357D01*
X197958607Y-74218507D01*
X197954474Y-74221610D01*
X197954471Y-74221612D01*
X197784100Y-74349530D01*
X197779965Y-74352635D01*
X197776393Y-74356373D01*
X197668729Y-74469037D01*
X197625629Y-74514138D01*
X197518201Y-74671621D01*
X197463293Y-74716621D01*
X197392768Y-74724792D01*
X197329021Y-74693538D01*
X197308324Y-74669054D01*
X197227822Y-74544617D01*
X197227820Y-74544614D01*
X197225014Y-74540277D01*
X197074670Y-74375051D01*
X197070619Y-74371852D01*
X197070615Y-74371848D01*
X196903414Y-74239800D01*
X196903410Y-74239798D01*
X196899359Y-74236598D01*
X196703789Y-74128638D01*
X196698920Y-74126914D01*
X196698916Y-74126912D01*
X196498087Y-74055795D01*
X196498083Y-74055794D01*
X196493212Y-74054069D01*
X196488119Y-74053162D01*
X196488116Y-74053161D01*
X196278373Y-74015800D01*
X196278367Y-74015799D01*
X196273284Y-74014894D01*
X196199452Y-74013992D01*
X196055081Y-74012228D01*
X196055079Y-74012228D01*
X196049911Y-74012165D01*
X195829091Y-74045955D01*
X195616756Y-74115357D01*
X195418607Y-74218507D01*
X195414474Y-74221610D01*
X195414471Y-74221612D01*
X195244100Y-74349530D01*
X195239965Y-74352635D01*
X195236393Y-74356373D01*
X195128729Y-74469037D01*
X195085629Y-74514138D01*
X194978201Y-74671621D01*
X194923293Y-74716621D01*
X194852768Y-74724792D01*
X194789021Y-74693538D01*
X194768324Y-74669054D01*
X194687822Y-74544617D01*
X194687820Y-74544614D01*
X194685014Y-74540277D01*
X194534670Y-74375051D01*
X194530619Y-74371852D01*
X194530615Y-74371848D01*
X194363414Y-74239800D01*
X194363410Y-74239798D01*
X194359359Y-74236598D01*
X194163789Y-74128638D01*
X194158920Y-74126914D01*
X194158916Y-74126912D01*
X193958087Y-74055795D01*
X193958083Y-74055794D01*
X193953212Y-74054069D01*
X193948119Y-74053162D01*
X193948116Y-74053161D01*
X193738373Y-74015800D01*
X193738367Y-74015799D01*
X193733284Y-74014894D01*
X193659452Y-74013992D01*
X193515081Y-74012228D01*
X193515079Y-74012228D01*
X193509911Y-74012165D01*
X193289091Y-74045955D01*
X193076756Y-74115357D01*
X192878607Y-74218507D01*
X192874474Y-74221610D01*
X192874471Y-74221612D01*
X192704100Y-74349530D01*
X192699965Y-74352635D01*
X192696393Y-74356373D01*
X192588729Y-74469037D01*
X192545629Y-74514138D01*
X192438201Y-74671621D01*
X192383293Y-74716621D01*
X192312768Y-74724792D01*
X192249021Y-74693538D01*
X192228324Y-74669054D01*
X192147822Y-74544617D01*
X192147820Y-74544614D01*
X192145014Y-74540277D01*
X191994670Y-74375051D01*
X191990619Y-74371852D01*
X191990615Y-74371848D01*
X191823414Y-74239800D01*
X191823410Y-74239798D01*
X191819359Y-74236598D01*
X191623789Y-74128638D01*
X191618920Y-74126914D01*
X191618916Y-74126912D01*
X191418087Y-74055795D01*
X191418083Y-74055794D01*
X191413212Y-74054069D01*
X191408119Y-74053162D01*
X191408116Y-74053161D01*
X191198373Y-74015800D01*
X191198367Y-74015799D01*
X191193284Y-74014894D01*
X191119452Y-74013992D01*
X190975081Y-74012228D01*
X190975079Y-74012228D01*
X190969911Y-74012165D01*
X190749091Y-74045955D01*
X190536756Y-74115357D01*
X190338607Y-74218507D01*
X190334474Y-74221610D01*
X190334471Y-74221612D01*
X190164100Y-74349530D01*
X190159965Y-74352635D01*
X190156393Y-74356373D01*
X190048729Y-74469037D01*
X190005629Y-74514138D01*
X189898201Y-74671621D01*
X189843293Y-74716621D01*
X189772768Y-74724792D01*
X189709021Y-74693538D01*
X189688324Y-74669054D01*
X189607822Y-74544617D01*
X189607820Y-74544614D01*
X189605014Y-74540277D01*
X189454670Y-74375051D01*
X189450619Y-74371852D01*
X189450615Y-74371848D01*
X189283414Y-74239800D01*
X189283410Y-74239798D01*
X189279359Y-74236598D01*
X189083789Y-74128638D01*
X189078920Y-74126914D01*
X189078916Y-74126912D01*
X188878087Y-74055795D01*
X188878083Y-74055794D01*
X188873212Y-74054069D01*
X188868119Y-74053162D01*
X188868116Y-74053161D01*
X188658373Y-74015800D01*
X188658367Y-74015799D01*
X188653284Y-74014894D01*
X188579452Y-74013992D01*
X188435081Y-74012228D01*
X188435079Y-74012228D01*
X188429911Y-74012165D01*
X188209091Y-74045955D01*
X187996756Y-74115357D01*
X187798607Y-74218507D01*
X187794474Y-74221610D01*
X187794471Y-74221612D01*
X187624100Y-74349530D01*
X187619965Y-74352635D01*
X187616393Y-74356373D01*
X187508729Y-74469037D01*
X187465629Y-74514138D01*
X187358201Y-74671621D01*
X187303293Y-74716621D01*
X187232768Y-74724792D01*
X187169021Y-74693538D01*
X187148324Y-74669054D01*
X187067822Y-74544617D01*
X187067820Y-74544614D01*
X187065014Y-74540277D01*
X186914670Y-74375051D01*
X186910619Y-74371852D01*
X186910615Y-74371848D01*
X186743414Y-74239800D01*
X186743410Y-74239798D01*
X186739359Y-74236598D01*
X186543789Y-74128638D01*
X186538920Y-74126914D01*
X186538916Y-74126912D01*
X186338087Y-74055795D01*
X186338083Y-74055794D01*
X186333212Y-74054069D01*
X186328119Y-74053162D01*
X186328116Y-74053161D01*
X186118373Y-74015800D01*
X186118367Y-74015799D01*
X186113284Y-74014894D01*
X186039452Y-74013992D01*
X185895081Y-74012228D01*
X185895079Y-74012228D01*
X185889911Y-74012165D01*
X185669091Y-74045955D01*
X185456756Y-74115357D01*
X185258607Y-74218507D01*
X185254474Y-74221610D01*
X185254471Y-74221612D01*
X185084100Y-74349530D01*
X185079965Y-74352635D01*
X185076393Y-74356373D01*
X184968729Y-74469037D01*
X184925629Y-74514138D01*
X184818201Y-74671621D01*
X184763293Y-74716621D01*
X184692768Y-74724792D01*
X184629021Y-74693538D01*
X184608324Y-74669054D01*
X184527822Y-74544617D01*
X184527820Y-74544614D01*
X184525014Y-74540277D01*
X184374670Y-74375051D01*
X184370619Y-74371852D01*
X184370615Y-74371848D01*
X184203414Y-74239800D01*
X184203410Y-74239798D01*
X184199359Y-74236598D01*
X184003789Y-74128638D01*
X183998920Y-74126914D01*
X183998916Y-74126912D01*
X183798087Y-74055795D01*
X183798083Y-74055794D01*
X183793212Y-74054069D01*
X183788119Y-74053162D01*
X183788116Y-74053161D01*
X183578373Y-74015800D01*
X183578367Y-74015799D01*
X183573284Y-74014894D01*
X183499452Y-74013992D01*
X183355081Y-74012228D01*
X183355079Y-74012228D01*
X183349911Y-74012165D01*
X183129091Y-74045955D01*
X182916756Y-74115357D01*
X182718607Y-74218507D01*
X182714474Y-74221610D01*
X182714471Y-74221612D01*
X182544100Y-74349530D01*
X182539965Y-74352635D01*
X182483537Y-74411684D01*
X182459283Y-74437064D01*
X182397759Y-74472494D01*
X182326846Y-74469037D01*
X182269060Y-74427791D01*
X182250207Y-74394243D01*
X182208767Y-74283703D01*
X182205615Y-74275295D01*
X182118261Y-74158739D01*
X182001705Y-74071385D01*
X181865316Y-74020255D01*
X181803134Y-74013500D01*
X180006866Y-74013500D01*
X179944684Y-74020255D01*
X179808295Y-74071385D01*
X179691739Y-74158739D01*
X179604385Y-74275295D01*
X179553255Y-74411684D01*
X179546500Y-74473866D01*
X179546500Y-76270134D01*
X179553255Y-76332316D01*
X179604385Y-76468705D01*
X179691739Y-76585261D01*
X179808295Y-76672615D01*
X179944684Y-76723745D01*
X180006866Y-76730500D01*
X181343110Y-76730500D01*
X181411231Y-76750502D01*
X181432205Y-76767405D01*
X181575151Y-76910351D01*
X181582331Y-76918241D01*
X181586336Y-76924552D01*
X181592114Y-76929978D01*
X181592115Y-76929979D01*
X181634403Y-76969690D01*
X181637245Y-76972445D01*
X181656331Y-76991531D01*
X181659456Y-76993955D01*
X181659990Y-76994426D01*
X181668313Y-77001534D01*
X181699406Y-77030732D01*
X181706355Y-77034552D01*
X181716335Y-77040039D01*
X181732858Y-77050892D01*
X181748131Y-77062739D01*
X181787307Y-77079692D01*
X181797951Y-77084907D01*
X181835330Y-77105456D01*
X181843003Y-77107426D01*
X181843005Y-77107427D01*
X181854043Y-77110261D01*
X181872745Y-77116664D01*
X181883210Y-77121193D01*
X181883214Y-77121194D01*
X181890484Y-77124340D01*
X181898309Y-77125579D01*
X181898311Y-77125580D01*
X181923973Y-77129644D01*
X181932617Y-77131013D01*
X181944239Y-77133421D01*
X181977881Y-77142059D01*
X181977890Y-77142060D01*
X181985566Y-77144031D01*
X182004893Y-77144031D01*
X182024603Y-77145582D01*
X182043684Y-77148604D01*
X182051576Y-77147858D01*
X182056803Y-77147364D01*
X182086151Y-77144590D01*
X182098008Y-77144031D01*
X183711808Y-77144031D01*
X183779929Y-77164033D01*
X183800903Y-77180936D01*
X183943858Y-77323891D01*
X183951038Y-77331781D01*
X183955043Y-77338092D01*
X183960821Y-77343518D01*
X183960822Y-77343519D01*
X184003110Y-77383230D01*
X184005952Y-77385985D01*
X184025038Y-77405071D01*
X184028163Y-77407495D01*
X184028697Y-77407966D01*
X184037020Y-77415074D01*
X184068113Y-77444272D01*
X184085048Y-77453581D01*
X184101573Y-77464437D01*
X184110573Y-77471419D01*
X184110576Y-77471421D01*
X184116839Y-77476279D01*
X184124112Y-77479426D01*
X184124115Y-77479428D01*
X184155997Y-77493224D01*
X184166660Y-77498448D01*
X184197090Y-77515178D01*
X184197097Y-77515181D01*
X184204037Y-77518996D01*
X184211711Y-77520966D01*
X184211718Y-77520969D01*
X184222756Y-77523803D01*
X184241459Y-77530206D01*
X184259192Y-77537880D01*
X184267018Y-77539120D01*
X184267023Y-77539121D01*
X184301330Y-77544554D01*
X184312947Y-77546960D01*
X184354273Y-77557571D01*
X184373594Y-77557571D01*
X184393306Y-77559122D01*
X184412391Y-77562145D01*
X184420283Y-77561399D01*
X184454865Y-77558130D01*
X184466723Y-77557571D01*
X186080515Y-77557571D01*
X186148636Y-77577573D01*
X186169610Y-77594476D01*
X186312565Y-77737431D01*
X186319745Y-77745321D01*
X186323750Y-77751632D01*
X186329528Y-77757058D01*
X186329529Y-77757059D01*
X186371817Y-77796770D01*
X186374659Y-77799525D01*
X186393745Y-77818611D01*
X186396870Y-77821035D01*
X186397404Y-77821506D01*
X186405727Y-77828614D01*
X186436820Y-77857812D01*
X186453755Y-77867121D01*
X186470280Y-77877977D01*
X186479280Y-77884959D01*
X186479283Y-77884961D01*
X186485546Y-77889819D01*
X186492819Y-77892966D01*
X186492822Y-77892968D01*
X186524704Y-77906764D01*
X186535367Y-77911988D01*
X186565797Y-77928718D01*
X186565804Y-77928721D01*
X186572744Y-77932536D01*
X186580418Y-77934506D01*
X186580425Y-77934509D01*
X186591463Y-77937343D01*
X186610166Y-77943746D01*
X186627899Y-77951420D01*
X186635725Y-77952660D01*
X186635730Y-77952661D01*
X186670037Y-77958094D01*
X186681654Y-77960500D01*
X186722980Y-77971111D01*
X186742301Y-77971111D01*
X186762013Y-77972662D01*
X186781098Y-77975685D01*
X186788990Y-77974939D01*
X186823572Y-77971670D01*
X186835430Y-77971111D01*
X188449222Y-77971111D01*
X188517343Y-77991113D01*
X188538317Y-78008016D01*
X188681272Y-78150971D01*
X188688452Y-78158861D01*
X188692457Y-78165172D01*
X188698235Y-78170598D01*
X188698236Y-78170599D01*
X188740524Y-78210310D01*
X188743366Y-78213065D01*
X188762452Y-78232151D01*
X188765577Y-78234575D01*
X188766111Y-78235046D01*
X188774434Y-78242154D01*
X188805527Y-78271352D01*
X188822462Y-78280661D01*
X188838987Y-78291517D01*
X188847987Y-78298499D01*
X188847990Y-78298501D01*
X188854253Y-78303359D01*
X188861526Y-78306506D01*
X188861529Y-78306508D01*
X188893411Y-78320304D01*
X188904074Y-78325528D01*
X188934504Y-78342258D01*
X188934511Y-78342261D01*
X188941451Y-78346076D01*
X188949125Y-78348046D01*
X188949132Y-78348049D01*
X188960170Y-78350883D01*
X188978873Y-78357286D01*
X188996606Y-78364960D01*
X189004432Y-78366200D01*
X189004437Y-78366201D01*
X189038744Y-78371634D01*
X189050361Y-78374040D01*
X189091687Y-78384651D01*
X189111008Y-78384651D01*
X189130720Y-78386202D01*
X189149805Y-78389225D01*
X189157697Y-78388479D01*
X189192279Y-78385210D01*
X189204137Y-78384651D01*
X190817927Y-78384651D01*
X190886048Y-78404653D01*
X190907022Y-78421556D01*
X191049975Y-78564509D01*
X191057155Y-78572399D01*
X191061160Y-78578710D01*
X191066938Y-78584136D01*
X191066939Y-78584137D01*
X191109227Y-78623848D01*
X191112069Y-78626603D01*
X191131155Y-78645689D01*
X191134280Y-78648113D01*
X191134814Y-78648584D01*
X191143137Y-78655692D01*
X191174230Y-78684890D01*
X191191165Y-78694199D01*
X191207690Y-78705055D01*
X191222956Y-78716897D01*
X191262116Y-78733843D01*
X191272774Y-78739064D01*
X191310154Y-78759614D01*
X191328868Y-78764419D01*
X191347568Y-78770822D01*
X191358029Y-78775349D01*
X191358035Y-78775351D01*
X191365308Y-78778498D01*
X191407449Y-78785172D01*
X191419057Y-78787576D01*
X191460390Y-78798189D01*
X191479711Y-78798189D01*
X191499423Y-78799740D01*
X191518508Y-78802763D01*
X191526400Y-78802017D01*
X191560982Y-78798748D01*
X191572840Y-78798189D01*
X191737845Y-78798189D01*
X193186632Y-78798190D01*
X193254753Y-78818192D01*
X193275727Y-78835095D01*
X193418680Y-78978048D01*
X193425860Y-78985938D01*
X193429865Y-78992249D01*
X193435643Y-78997675D01*
X193435644Y-78997676D01*
X193477932Y-79037387D01*
X193480774Y-79040142D01*
X193499860Y-79059228D01*
X193502985Y-79061652D01*
X193503519Y-79062123D01*
X193511842Y-79069231D01*
X193542935Y-79098429D01*
X193559870Y-79107738D01*
X193576395Y-79118594D01*
X193591661Y-79130436D01*
X193630821Y-79147382D01*
X193641479Y-79152603D01*
X193678859Y-79173153D01*
X193697573Y-79177958D01*
X193716273Y-79184361D01*
X193726734Y-79188888D01*
X193726740Y-79188890D01*
X193734013Y-79192037D01*
X193776154Y-79198711D01*
X193787762Y-79201115D01*
X193829095Y-79211728D01*
X193848416Y-79211728D01*
X193868128Y-79213279D01*
X193887213Y-79216302D01*
X193895105Y-79215556D01*
X193929687Y-79212287D01*
X193941545Y-79211728D01*
X195555333Y-79211728D01*
X195623454Y-79231730D01*
X195644428Y-79248632D01*
X195787380Y-79391583D01*
X195794563Y-79399477D01*
X195798568Y-79405788D01*
X195804345Y-79411213D01*
X195846651Y-79450941D01*
X195849493Y-79453696D01*
X195868563Y-79472766D01*
X195871700Y-79475199D01*
X195872221Y-79475659D01*
X195880529Y-79482756D01*
X195905856Y-79506539D01*
X195905859Y-79506541D01*
X195911638Y-79511968D01*
X195928573Y-79521278D01*
X195945087Y-79532126D01*
X195960363Y-79543975D01*
X195999539Y-79560928D01*
X196010183Y-79566143D01*
X196047562Y-79586692D01*
X196055235Y-79588662D01*
X196055237Y-79588663D01*
X196066275Y-79591497D01*
X196084977Y-79597900D01*
X196095442Y-79602429D01*
X196095446Y-79602430D01*
X196102716Y-79605576D01*
X196110541Y-79606815D01*
X196110543Y-79606816D01*
X196136205Y-79610880D01*
X196144849Y-79612249D01*
X196156471Y-79614657D01*
X196190113Y-79623295D01*
X196190122Y-79623296D01*
X196197798Y-79625267D01*
X196217125Y-79625267D01*
X196236835Y-79626818D01*
X196255916Y-79629840D01*
X196263808Y-79629094D01*
X196269035Y-79628600D01*
X196298383Y-79625826D01*
X196310240Y-79625267D01*
X196878230Y-79625267D01*
X196946351Y-79645269D01*
X196992844Y-79698925D01*
X197004230Y-79751267D01*
X197004230Y-85925500D01*
X196984228Y-85993621D01*
X196930572Y-86040114D01*
X196878230Y-86051500D01*
X196814543Y-86051500D01*
X196808091Y-86052872D01*
X196808086Y-86052872D01*
X196741325Y-86067063D01*
X196627742Y-86091206D01*
X196621712Y-86093891D01*
X196621711Y-86093891D01*
X196459308Y-86166197D01*
X196459306Y-86166198D01*
X196453278Y-86168882D01*
X196298777Y-86281134D01*
X196170990Y-86423056D01*
X196170879Y-86423249D01*
X196116529Y-86465154D01*
X196070821Y-86473737D01*
X195905077Y-86473737D01*
X195898625Y-86475109D01*
X195898620Y-86475109D01*
X195836474Y-86488319D01*
X195718276Y-86513443D01*
X195712246Y-86516128D01*
X195712245Y-86516128D01*
X195549842Y-86588434D01*
X195549840Y-86588435D01*
X195543812Y-86591119D01*
X195538471Y-86594999D01*
X195538470Y-86595000D01*
X195511232Y-86614790D01*
X195389311Y-86703371D01*
X195261524Y-86845293D01*
X195260097Y-86847764D01*
X195204978Y-86890268D01*
X195159264Y-86898853D01*
X194996953Y-86898853D01*
X194990501Y-86900225D01*
X194990496Y-86900225D01*
X194903553Y-86918706D01*
X194810152Y-86938559D01*
X194804122Y-86941244D01*
X194804121Y-86941244D01*
X194641718Y-87013550D01*
X194641716Y-87013551D01*
X194635688Y-87016235D01*
X194481187Y-87128487D01*
X194476766Y-87133397D01*
X194476765Y-87133398D01*
X194368868Y-87253230D01*
X194308422Y-87290470D01*
X194266362Y-87293881D01*
X194266362Y-87293988D01*
X194075388Y-87293988D01*
X194068936Y-87295360D01*
X194068931Y-87295360D01*
X194009989Y-87307889D01*
X193888587Y-87333694D01*
X193882557Y-87336379D01*
X193882556Y-87336379D01*
X193720153Y-87408685D01*
X193720151Y-87408686D01*
X193714123Y-87411370D01*
X193559622Y-87523622D01*
X193555201Y-87528532D01*
X193555200Y-87528533D01*
X193543697Y-87541309D01*
X193431835Y-87665544D01*
X193428534Y-87671262D01*
X193426253Y-87674401D01*
X193370030Y-87717755D01*
X193324318Y-87726339D01*
X193170687Y-87726339D01*
X193164235Y-87727711D01*
X193164230Y-87727711D01*
X193077286Y-87746192D01*
X192983886Y-87766045D01*
X192977856Y-87768730D01*
X192977855Y-87768730D01*
X192815452Y-87841036D01*
X192815450Y-87841037D01*
X192809422Y-87843721D01*
X192654921Y-87955973D01*
X192544097Y-88079055D01*
X192483655Y-88116293D01*
X192440382Y-88119801D01*
X192439281Y-88119567D01*
X192248307Y-88119567D01*
X192241855Y-88120939D01*
X192241850Y-88120939D01*
X192154906Y-88139420D01*
X192061506Y-88159273D01*
X192055476Y-88161958D01*
X192055475Y-88161958D01*
X191893072Y-88234264D01*
X191893070Y-88234265D01*
X191887042Y-88236949D01*
X191732541Y-88349201D01*
X191604754Y-88491123D01*
X191601451Y-88496844D01*
X191599477Y-88499561D01*
X191543254Y-88542915D01*
X191497541Y-88551500D01*
X191334513Y-88551500D01*
X191328061Y-88552872D01*
X191328056Y-88552872D01*
X191241112Y-88571353D01*
X191147712Y-88591206D01*
X191141682Y-88593891D01*
X191141681Y-88593891D01*
X190979278Y-88666197D01*
X190979276Y-88666198D01*
X190973248Y-88668882D01*
X190818747Y-88781134D01*
X190690960Y-88923056D01*
X190689750Y-88921967D01*
X190640022Y-88960316D01*
X190594304Y-88968903D01*
X190422818Y-88968903D01*
X190416366Y-88970275D01*
X190416361Y-88970275D01*
X190329418Y-88988756D01*
X190236017Y-89008609D01*
X190229987Y-89011294D01*
X190229986Y-89011294D01*
X190067583Y-89083600D01*
X190067581Y-89083601D01*
X190061553Y-89086285D01*
X189907052Y-89198537D01*
X189779265Y-89340459D01*
X189683778Y-89505847D01*
X189624763Y-89687475D01*
X189624073Y-89694036D01*
X189624073Y-89694038D01*
X189616558Y-89765541D01*
X189604801Y-89877403D01*
X189624763Y-90067331D01*
X189683778Y-90248959D01*
X189779265Y-90414347D01*
X189783683Y-90419254D01*
X189783684Y-90419255D01*
X189894855Y-90542723D01*
X189907052Y-90556269D01*
X190061553Y-90668521D01*
X190067581Y-90671205D01*
X190067583Y-90671206D01*
X190229986Y-90743512D01*
X190236017Y-90746197D01*
X190329417Y-90766050D01*
X190416361Y-90784531D01*
X190416366Y-90784531D01*
X190422818Y-90785903D01*
X190613792Y-90785903D01*
X190620245Y-90784531D01*
X190620249Y-90784531D01*
X190648804Y-90778461D01*
X190654478Y-90777255D01*
X190712010Y-90778461D01*
X190733387Y-90783950D01*
X190752708Y-90783950D01*
X190772420Y-90785501D01*
X190791505Y-90788524D01*
X190799397Y-90787778D01*
X190823485Y-90785501D01*
X190833980Y-90784509D01*
X190845837Y-90783950D01*
X193569910Y-90783950D01*
X193638031Y-90803952D01*
X193684524Y-90857608D01*
X193695910Y-90909950D01*
X193695910Y-93696048D01*
X193675908Y-93764169D01*
X193622252Y-93810662D01*
X193569910Y-93822048D01*
X193506223Y-93822048D01*
X193506223Y-93820575D01*
X193443911Y-93809182D01*
X193406943Y-93780956D01*
X193292539Y-93653898D01*
X193193443Y-93581900D01*
X193143380Y-93545527D01*
X193143379Y-93545526D01*
X193138038Y-93541646D01*
X193132010Y-93538962D01*
X193132008Y-93538961D01*
X192969605Y-93466655D01*
X192969604Y-93466655D01*
X192963574Y-93463970D01*
X192870174Y-93444117D01*
X192783230Y-93425636D01*
X192783225Y-93425636D01*
X192776773Y-93424264D01*
X192599417Y-93424264D01*
X192531296Y-93404262D01*
X192505783Y-93382577D01*
X192378632Y-93241361D01*
X192224131Y-93129109D01*
X192218103Y-93126425D01*
X192218101Y-93126424D01*
X192055698Y-93054118D01*
X192055697Y-93054118D01*
X192049667Y-93051433D01*
X191956267Y-93031580D01*
X191869323Y-93013099D01*
X191869318Y-93013099D01*
X191862866Y-93011727D01*
X191675689Y-93011727D01*
X191607568Y-92991725D01*
X191582053Y-92970037D01*
X191465891Y-92841026D01*
X191465890Y-92841025D01*
X191461469Y-92836115D01*
X191306968Y-92723863D01*
X191300940Y-92721179D01*
X191300938Y-92721178D01*
X191138535Y-92648872D01*
X191138534Y-92648872D01*
X191132504Y-92646187D01*
X191039103Y-92626334D01*
X190952160Y-92607853D01*
X190952155Y-92607853D01*
X190945703Y-92606481D01*
X190785807Y-92606481D01*
X190717686Y-92586479D01*
X190684554Y-92555188D01*
X190682080Y-92550903D01*
X190560265Y-92415613D01*
X190558715Y-92413892D01*
X190558714Y-92413891D01*
X190554293Y-92408981D01*
X190399792Y-92296729D01*
X190393764Y-92294045D01*
X190393762Y-92294044D01*
X190231359Y-92221738D01*
X190231358Y-92221738D01*
X190225328Y-92219053D01*
X190131928Y-92199200D01*
X190044984Y-92180719D01*
X190044979Y-92180719D01*
X190038527Y-92179347D01*
X189850707Y-92179347D01*
X189782586Y-92159345D01*
X189757071Y-92137657D01*
X189755404Y-92135805D01*
X189636918Y-92004213D01*
X189482417Y-91891961D01*
X189476389Y-91889277D01*
X189476387Y-91889276D01*
X189313984Y-91816970D01*
X189313983Y-91816970D01*
X189307953Y-91814285D01*
X189214552Y-91794432D01*
X189127609Y-91775951D01*
X189127604Y-91775951D01*
X189121152Y-91774579D01*
X188958056Y-91774579D01*
X188889935Y-91754577D01*
X188857682Y-91724117D01*
X188856273Y-91721677D01*
X188728486Y-91579755D01*
X188573985Y-91467503D01*
X188567957Y-91464819D01*
X188567955Y-91464818D01*
X188405552Y-91392512D01*
X188405551Y-91392512D01*
X188399521Y-91389827D01*
X188306120Y-91369974D01*
X188219177Y-91351493D01*
X188219172Y-91351493D01*
X188212720Y-91350121D01*
X188049007Y-91350121D01*
X187980886Y-91330119D01*
X187948802Y-91299818D01*
X187947600Y-91297736D01*
X187819813Y-91155814D01*
X187665312Y-91043562D01*
X187659284Y-91040878D01*
X187659282Y-91040877D01*
X187496879Y-90968571D01*
X187496878Y-90968571D01*
X187490848Y-90965886D01*
X187397448Y-90946033D01*
X187310504Y-90927552D01*
X187310499Y-90927552D01*
X187304047Y-90926180D01*
X187113073Y-90926180D01*
X187106621Y-90927552D01*
X187106616Y-90927552D01*
X187067861Y-90935790D01*
X186997070Y-90930388D01*
X186948028Y-90896854D01*
X186876099Y-90816968D01*
X186721598Y-90704716D01*
X186715570Y-90702032D01*
X186715568Y-90702031D01*
X186553165Y-90629725D01*
X186553164Y-90629725D01*
X186547134Y-90627040D01*
X186453734Y-90607187D01*
X186366790Y-90588706D01*
X186366785Y-90588706D01*
X186360333Y-90587334D01*
X186169359Y-90587334D01*
X186162907Y-90588706D01*
X186162902Y-90588706D01*
X186075959Y-90607187D01*
X185982558Y-90627040D01*
X185976528Y-90629725D01*
X185976527Y-90629725D01*
X185814124Y-90702031D01*
X185814122Y-90702032D01*
X185808094Y-90704716D01*
X185653593Y-90816968D01*
X185649175Y-90821875D01*
X185649171Y-90821879D01*
X185617001Y-90857608D01*
X185525806Y-90958890D01*
X185430319Y-91124278D01*
X185371304Y-91305906D01*
X185351342Y-91495834D01*
X185352032Y-91502399D01*
X185360679Y-91584666D01*
X185371304Y-91685762D01*
X185430319Y-91867390D01*
X185525806Y-92032778D01*
X185530224Y-92037685D01*
X185530225Y-92037686D01*
X185618572Y-92135805D01*
X185649289Y-92199812D01*
X185650936Y-92220115D01*
X185650936Y-92397660D01*
X185650434Y-92408318D01*
X185648803Y-92415613D01*
X185649052Y-92423536D01*
X185650874Y-92481515D01*
X185650936Y-92485473D01*
X185650936Y-92512468D01*
X185651430Y-92516382D01*
X185651473Y-92517061D01*
X185652334Y-92527990D01*
X185653675Y-92570646D01*
X185655887Y-92578260D01*
X185659066Y-92589201D01*
X185663075Y-92608562D01*
X185665497Y-92627733D01*
X185668416Y-92635105D01*
X185668417Y-92635110D01*
X185681201Y-92667399D01*
X185685045Y-92678626D01*
X185694737Y-92711982D01*
X185694739Y-92711986D01*
X185696950Y-92719597D01*
X185700984Y-92726419D01*
X185700985Y-92726420D01*
X185706784Y-92736226D01*
X185715483Y-92753984D01*
X185719676Y-92764575D01*
X185719680Y-92764583D01*
X185722597Y-92771950D01*
X185727257Y-92778364D01*
X185747668Y-92806457D01*
X185754187Y-92816381D01*
X185771870Y-92846283D01*
X185771874Y-92846288D01*
X185775906Y-92853106D01*
X185789569Y-92866769D01*
X185802409Y-92881802D01*
X185813768Y-92897436D01*
X185846654Y-92924641D01*
X185855420Y-92932620D01*
X187995309Y-95072509D01*
X188029335Y-95134821D01*
X188024270Y-95205636D01*
X187995313Y-95250694D01*
X187560666Y-95685341D01*
X187498356Y-95719365D01*
X187427540Y-95714300D01*
X187420323Y-95711350D01*
X187412135Y-95707704D01*
X187412132Y-95707703D01*
X187406099Y-95705017D01*
X187313527Y-95685340D01*
X187225755Y-95666683D01*
X187225750Y-95666683D01*
X187219298Y-95665311D01*
X187028324Y-95665311D01*
X187021872Y-95666683D01*
X187021867Y-95666683D01*
X186934923Y-95685164D01*
X186841523Y-95705017D01*
X186835493Y-95707702D01*
X186835492Y-95707702D01*
X186673089Y-95780008D01*
X186673087Y-95780009D01*
X186667059Y-95782693D01*
X186512558Y-95894945D01*
X186384771Y-96036867D01*
X186381470Y-96042585D01*
X186312121Y-96162701D01*
X186289284Y-96202255D01*
X186230269Y-96383883D01*
X186210307Y-96573811D01*
X186230269Y-96763739D01*
X186232309Y-96770017D01*
X186268209Y-96880506D01*
X186270237Y-96951473D01*
X186237471Y-97008537D01*
X186129936Y-97116072D01*
X186122046Y-97123252D01*
X186115735Y-97127257D01*
X186110309Y-97133035D01*
X186110308Y-97133036D01*
X186070598Y-97175323D01*
X186067843Y-97178165D01*
X186048756Y-97197252D01*
X186046332Y-97200377D01*
X186045861Y-97200911D01*
X186038753Y-97209234D01*
X186009555Y-97240327D01*
X186005737Y-97247272D01*
X186005734Y-97247276D01*
X186000247Y-97257257D01*
X185989398Y-97273775D01*
X185977547Y-97289053D01*
X185974399Y-97296328D01*
X185960602Y-97328212D01*
X185955379Y-97338874D01*
X185934831Y-97376251D01*
X185932860Y-97383926D01*
X185932858Y-97383932D01*
X185930024Y-97394970D01*
X185923621Y-97413672D01*
X185915947Y-97431406D01*
X185914707Y-97439237D01*
X185909273Y-97473544D01*
X185906867Y-97485161D01*
X185896256Y-97526487D01*
X185896256Y-97545809D01*
X185894705Y-97565520D01*
X185891682Y-97584606D01*
X185892428Y-97592498D01*
X185895697Y-97627080D01*
X185896256Y-97638938D01*
X185896255Y-100113520D01*
X185876253Y-100181641D01*
X185859350Y-100202615D01*
X185856950Y-100205015D01*
X185794638Y-100239041D01*
X185767855Y-100241920D01*
X182891375Y-100241920D01*
X182880717Y-100241418D01*
X182873422Y-100239787D01*
X182823335Y-100241361D01*
X182807520Y-100241858D01*
X182803562Y-100241920D01*
X182776567Y-100241920D01*
X182772653Y-100242414D01*
X182771974Y-100242457D01*
X182761045Y-100243318D01*
X182718389Y-100244659D01*
X182699830Y-100250051D01*
X182680473Y-100254059D01*
X182661301Y-100256481D01*
X182661068Y-100254639D01*
X182615950Y-100255584D01*
X182611256Y-100254586D01*
X182611249Y-100254585D01*
X182604793Y-100253213D01*
X182413819Y-100253213D01*
X182407367Y-100254585D01*
X182407362Y-100254585D01*
X182320419Y-100273066D01*
X182227018Y-100292919D01*
X182220988Y-100295604D01*
X182220987Y-100295604D01*
X182058584Y-100367910D01*
X182058582Y-100367911D01*
X182052554Y-100370595D01*
X182047213Y-100374475D01*
X182047212Y-100374476D01*
X181997149Y-100410849D01*
X181898053Y-100482847D01*
X181893632Y-100487757D01*
X181893631Y-100487758D01*
X181816359Y-100573578D01*
X181770266Y-100624769D01*
X181674779Y-100790157D01*
X181615764Y-100971785D01*
X181595802Y-101161713D01*
X181615764Y-101351641D01*
X181674779Y-101533269D01*
X181770266Y-101698657D01*
X181898053Y-101840579D01*
X182052554Y-101952831D01*
X182058582Y-101955515D01*
X182058584Y-101955516D01*
X182190650Y-102014315D01*
X182227018Y-102030507D01*
X182320418Y-102050360D01*
X182407362Y-102068841D01*
X182407367Y-102068841D01*
X182413819Y-102070213D01*
X182559911Y-102070213D01*
X182628032Y-102090215D01*
X182663534Y-102127450D01*
X182664500Y-102126748D01*
X182668384Y-102132093D01*
X182671685Y-102137811D01*
X182799472Y-102279733D01*
X182877288Y-102336270D01*
X182931910Y-102375955D01*
X182953973Y-102391985D01*
X182960001Y-102394669D01*
X182960003Y-102394670D01*
X183122406Y-102466976D01*
X183128437Y-102469661D01*
X183221838Y-102489514D01*
X183308781Y-102507995D01*
X183308786Y-102507995D01*
X183315238Y-102509367D01*
X183506212Y-102509367D01*
X183512670Y-102507994D01*
X183519236Y-102507304D01*
X183519421Y-102509062D01*
X183581544Y-102513799D01*
X183630593Y-102547336D01*
X183728756Y-102656357D01*
X183883257Y-102768609D01*
X183889285Y-102771293D01*
X183889287Y-102771294D01*
X184051690Y-102843600D01*
X184057721Y-102846285D01*
X184151122Y-102866138D01*
X184238065Y-102884619D01*
X184238070Y-102884619D01*
X184244522Y-102885991D01*
X184415493Y-102885991D01*
X184483614Y-102905993D01*
X184511939Y-102932746D01*
X184512465Y-102932273D01*
X184611860Y-103042662D01*
X184640252Y-103074195D01*
X184794753Y-103186447D01*
X184800781Y-103189131D01*
X184800783Y-103189132D01*
X184963186Y-103261438D01*
X184969217Y-103264123D01*
X185062618Y-103283976D01*
X185149561Y-103302457D01*
X185149566Y-103302457D01*
X185156018Y-103303829D01*
X185324342Y-103303829D01*
X185392463Y-103323831D01*
X185422789Y-103352472D01*
X185422935Y-103352341D01*
X185427350Y-103357245D01*
X185427352Y-103357247D01*
X185527432Y-103468397D01*
X185550722Y-103494263D01*
X185625648Y-103548700D01*
X185697839Y-103601150D01*
X185705223Y-103606515D01*
X185711251Y-103609199D01*
X185711253Y-103609200D01*
X185852429Y-103672055D01*
X185879687Y-103684191D01*
X185948845Y-103698891D01*
X186060031Y-103722525D01*
X186060036Y-103722525D01*
X186066488Y-103723897D01*
X186228863Y-103723897D01*
X186296984Y-103743899D01*
X186329436Y-103774549D01*
X186331084Y-103777403D01*
X186335502Y-103782310D01*
X186335503Y-103782311D01*
X186386295Y-103838721D01*
X186458871Y-103919325D01*
X186613372Y-104031577D01*
X186619400Y-104034261D01*
X186619402Y-104034262D01*
X186739638Y-104087794D01*
X186787836Y-104109253D01*
X186881236Y-104129106D01*
X186968180Y-104147587D01*
X186968185Y-104147587D01*
X186974637Y-104148959D01*
X187165611Y-104148959D01*
X187166366Y-104148798D01*
X187234075Y-104161181D01*
X187271042Y-104189406D01*
X187381467Y-104312046D01*
X187535968Y-104424298D01*
X187541996Y-104426982D01*
X187541998Y-104426983D01*
X187691902Y-104493724D01*
X187710432Y-104501974D01*
X187794701Y-104519886D01*
X187890776Y-104540308D01*
X187890781Y-104540308D01*
X187897233Y-104541680D01*
X188067469Y-104541680D01*
X188135590Y-104561682D01*
X188164471Y-104588959D01*
X188164891Y-104588581D01*
X188250174Y-104683297D01*
X188292678Y-104730503D01*
X188330403Y-104757912D01*
X188405244Y-104812287D01*
X188447179Y-104842755D01*
X188453207Y-104845439D01*
X188453209Y-104845440D01*
X188615612Y-104917746D01*
X188621643Y-104920431D01*
X188715044Y-104940284D01*
X188801987Y-104958765D01*
X188801992Y-104958765D01*
X188808444Y-104960137D01*
X188992306Y-104960137D01*
X189060427Y-104980139D01*
X189085942Y-105001827D01*
X189208747Y-105138216D01*
X189363248Y-105250468D01*
X189369276Y-105253152D01*
X189369278Y-105253153D01*
X189531681Y-105325459D01*
X189537712Y-105328144D01*
X189631112Y-105347997D01*
X189718056Y-105366478D01*
X189718061Y-105366478D01*
X189724513Y-105367850D01*
X189915487Y-105367850D01*
X189921939Y-105366478D01*
X189921944Y-105366478D01*
X190008887Y-105347997D01*
X190102288Y-105328144D01*
X190108319Y-105325459D01*
X190270722Y-105253153D01*
X190270724Y-105253152D01*
X190276752Y-105250468D01*
X190431253Y-105138216D01*
X190559040Y-104996294D01*
X190632711Y-104868693D01*
X190651223Y-104836629D01*
X190651224Y-104836628D01*
X190654527Y-104830906D01*
X190713542Y-104649278D01*
X190719922Y-104588581D01*
X190732814Y-104465915D01*
X190733504Y-104459350D01*
X190727424Y-104401500D01*
X190714232Y-104275985D01*
X190714232Y-104275983D01*
X190713542Y-104269422D01*
X190654527Y-104087794D01*
X190559040Y-103922406D01*
X190464759Y-103817696D01*
X190434041Y-103753689D01*
X190432395Y-103733386D01*
X190432395Y-100929212D01*
X190452397Y-100861091D01*
X190506053Y-100814598D01*
X190558395Y-100803212D01*
X190622093Y-100803212D01*
X190628545Y-100801840D01*
X190628550Y-100801840D01*
X190715494Y-100783359D01*
X190808894Y-100763506D01*
X190893305Y-100725924D01*
X190977328Y-100688515D01*
X190977330Y-100688514D01*
X190983358Y-100685830D01*
X191137859Y-100573578D01*
X191215132Y-100487758D01*
X191261227Y-100436564D01*
X191261228Y-100436563D01*
X191265646Y-100431656D01*
X191268947Y-100425938D01*
X191272830Y-100420594D01*
X191274508Y-100421813D01*
X191318818Y-100379566D01*
X191376552Y-100365561D01*
X191524242Y-100365561D01*
X191530694Y-100364189D01*
X191530699Y-100364189D01*
X191617642Y-100345708D01*
X191711043Y-100325855D01*
X191717074Y-100323170D01*
X191879477Y-100250864D01*
X191879479Y-100250863D01*
X191885507Y-100248179D01*
X191898085Y-100239041D01*
X191999015Y-100165710D01*
X192040008Y-100135927D01*
X192160595Y-100002001D01*
X192221040Y-99964762D01*
X192254230Y-99960312D01*
X192441404Y-99960312D01*
X192447856Y-99958940D01*
X192447861Y-99958940D01*
X192534805Y-99940459D01*
X192628205Y-99920606D01*
X192634236Y-99917921D01*
X192796639Y-99845615D01*
X192796641Y-99845614D01*
X192802669Y-99842930D01*
X192957170Y-99730678D01*
X193079068Y-99595296D01*
X193139513Y-99558057D01*
X193172703Y-99553607D01*
X193357921Y-99553607D01*
X193364373Y-99552235D01*
X193364378Y-99552235D01*
X193451321Y-99533754D01*
X193544722Y-99513901D01*
X193550753Y-99511216D01*
X193713156Y-99438910D01*
X193713158Y-99438909D01*
X193719186Y-99436225D01*
X193873687Y-99323973D01*
X193998661Y-99185175D01*
X194059107Y-99147935D01*
X194092297Y-99143485D01*
X194272914Y-99143485D01*
X194279366Y-99142113D01*
X194279371Y-99142113D01*
X194366315Y-99123632D01*
X194459715Y-99103779D01*
X194465746Y-99101094D01*
X194628149Y-99028788D01*
X194628151Y-99028787D01*
X194634179Y-99026103D01*
X194788680Y-98913851D01*
X194793102Y-98908940D01*
X194912043Y-98776843D01*
X194912045Y-98776840D01*
X194916467Y-98771929D01*
X194917002Y-98772410D01*
X194969271Y-98732106D01*
X195014984Y-98723521D01*
X195183431Y-98723521D01*
X195189883Y-98722149D01*
X195189888Y-98722149D01*
X195276832Y-98703668D01*
X195370232Y-98683815D01*
X195376263Y-98681130D01*
X195538666Y-98608824D01*
X195538668Y-98608823D01*
X195544696Y-98606139D01*
X195699197Y-98493887D01*
X195826984Y-98351965D01*
X195830286Y-98346246D01*
X195834049Y-98341067D01*
X195890273Y-98297715D01*
X195935983Y-98289131D01*
X196087155Y-98289131D01*
X196093607Y-98287759D01*
X196093612Y-98287759D01*
X196180555Y-98269278D01*
X196273956Y-98249425D01*
X196279987Y-98246740D01*
X196442390Y-98174434D01*
X196442392Y-98174433D01*
X196448420Y-98171749D01*
X196602921Y-98059497D01*
X196721051Y-97928300D01*
X196781497Y-97891060D01*
X196814687Y-97886610D01*
X196878230Y-97886610D01*
X196946351Y-97906612D01*
X196992844Y-97960268D01*
X197004230Y-98012610D01*
X197004230Y-102787883D01*
X196984228Y-102856004D01*
X196967325Y-102876979D01*
X196460741Y-103383562D01*
X196452854Y-103390738D01*
X196446544Y-103394743D01*
X196441118Y-103400521D01*
X196401406Y-103442810D01*
X196398651Y-103445652D01*
X196379565Y-103464738D01*
X196377141Y-103467863D01*
X196376670Y-103468397D01*
X196369562Y-103476720D01*
X196340364Y-103507813D01*
X196331055Y-103524748D01*
X196320199Y-103541273D01*
X196308357Y-103556539D01*
X196305210Y-103563812D01*
X196291411Y-103595699D01*
X196286190Y-103606357D01*
X196265640Y-103643737D01*
X196260835Y-103662451D01*
X196254432Y-103681151D01*
X196249905Y-103691612D01*
X196249903Y-103691618D01*
X196246756Y-103698891D01*
X196245516Y-103706721D01*
X196240083Y-103741026D01*
X196237678Y-103752640D01*
X196227065Y-103793973D01*
X196227065Y-103813294D01*
X196225514Y-103833005D01*
X196222491Y-103852091D01*
X196223237Y-103859983D01*
X196226506Y-103894565D01*
X196227065Y-103906423D01*
X196227064Y-105557277D01*
X196207062Y-105625398D01*
X196153406Y-105671891D01*
X196101064Y-105683277D01*
X193954256Y-105683277D01*
X193943598Y-105682775D01*
X193936303Y-105681144D01*
X193886216Y-105682718D01*
X193870401Y-105683215D01*
X193866443Y-105683277D01*
X193839448Y-105683277D01*
X193835534Y-105683771D01*
X193834855Y-105683814D01*
X193823926Y-105684675D01*
X193781270Y-105686016D01*
X193769508Y-105689433D01*
X193708160Y-105691682D01*
X193677153Y-105685091D01*
X193486179Y-105685091D01*
X193479727Y-105686463D01*
X193479722Y-105686463D01*
X193392778Y-105704944D01*
X193299378Y-105724797D01*
X193293348Y-105727482D01*
X193293347Y-105727482D01*
X193130944Y-105799788D01*
X193130942Y-105799789D01*
X193124914Y-105802473D01*
X192970413Y-105914725D01*
X192842626Y-106056647D01*
X192747139Y-106222035D01*
X192688124Y-106403663D01*
X192687434Y-106410224D01*
X192687434Y-106410226D01*
X192676628Y-106513039D01*
X192668162Y-106593591D01*
X192668852Y-106600156D01*
X192677673Y-106684079D01*
X192688124Y-106783519D01*
X192747139Y-106965147D01*
X192750442Y-106970869D01*
X192750443Y-106970870D01*
X192770888Y-107006281D01*
X192842626Y-107130535D01*
X192847044Y-107135442D01*
X192847045Y-107135443D01*
X192965991Y-107267546D01*
X192970413Y-107272457D01*
X193124914Y-107384709D01*
X193130942Y-107387393D01*
X193130944Y-107387394D01*
X193293347Y-107459700D01*
X193299378Y-107462385D01*
X193392778Y-107482238D01*
X193479722Y-107500719D01*
X193479727Y-107500719D01*
X193486179Y-107502091D01*
X193658051Y-107502091D01*
X193726172Y-107522093D01*
X193753816Y-107548200D01*
X193754470Y-107547611D01*
X193882257Y-107689533D01*
X194036758Y-107801785D01*
X194042786Y-107804469D01*
X194042788Y-107804470D01*
X194205191Y-107876776D01*
X194211222Y-107879461D01*
X194304623Y-107899314D01*
X194391566Y-107917795D01*
X194391571Y-107917795D01*
X194398023Y-107919167D01*
X194577325Y-107919167D01*
X194645446Y-107939169D01*
X194670961Y-107960857D01*
X194796813Y-108100630D01*
X194951314Y-108212882D01*
X194957342Y-108215566D01*
X194957344Y-108215567D01*
X195119747Y-108287873D01*
X195125778Y-108290558D01*
X195219178Y-108310411D01*
X195306122Y-108328892D01*
X195306127Y-108328892D01*
X195312579Y-108330264D01*
X195470369Y-108330264D01*
X195538490Y-108350266D01*
X195572199Y-108382102D01*
X195575373Y-108387599D01*
X195703160Y-108529521D01*
X195857661Y-108641773D01*
X195863689Y-108644457D01*
X195863691Y-108644458D01*
X196026094Y-108716764D01*
X196032125Y-108719449D01*
X196125526Y-108739302D01*
X196212469Y-108757783D01*
X196212474Y-108757783D01*
X196218926Y-108759155D01*
X196387752Y-108759155D01*
X196455873Y-108779157D01*
X196485819Y-108807441D01*
X196486037Y-108807244D01*
X196613824Y-108949166D01*
X196768325Y-109061418D01*
X196774353Y-109064102D01*
X196774355Y-109064103D01*
X196936758Y-109136409D01*
X196942789Y-109139094D01*
X197036189Y-109158947D01*
X197123133Y-109177428D01*
X197123138Y-109177428D01*
X197129590Y-109178800D01*
X197301410Y-109178800D01*
X197369531Y-109198802D01*
X197397214Y-109224947D01*
X197397861Y-109224364D01*
X197525648Y-109366286D01*
X197680149Y-109478538D01*
X197686177Y-109481222D01*
X197686179Y-109481223D01*
X197848582Y-109553529D01*
X197854613Y-109556214D01*
X197948013Y-109576067D01*
X198034957Y-109594548D01*
X198034962Y-109594548D01*
X198041414Y-109595920D01*
X198225545Y-109595920D01*
X198293666Y-109615922D01*
X198319181Y-109637610D01*
X198441806Y-109773799D01*
X198495344Y-109812697D01*
X198590962Y-109882168D01*
X198590965Y-109882169D01*
X198596215Y-109885984D01*
X198596307Y-109886051D01*
X198596295Y-109886068D01*
X198643545Y-109935625D01*
X198656979Y-110005339D01*
X198630591Y-110071250D01*
X198605611Y-110095295D01*
X198568899Y-110121968D01*
X198457351Y-110203013D01*
X198452930Y-110207923D01*
X198452929Y-110207924D01*
X198423877Y-110240190D01*
X198329564Y-110344935D01*
X198326262Y-110350654D01*
X198323132Y-110354962D01*
X198266909Y-110398314D01*
X198221198Y-110406898D01*
X198068975Y-110406898D01*
X198062523Y-110408270D01*
X198062518Y-110408270D01*
X197986522Y-110424424D01*
X197882174Y-110446604D01*
X197876144Y-110449289D01*
X197876143Y-110449289D01*
X197713740Y-110521595D01*
X197713738Y-110521596D01*
X197707710Y-110524280D01*
X197553209Y-110636532D01*
X197548788Y-110641442D01*
X197548787Y-110641443D01*
X197436860Y-110765751D01*
X197376414Y-110802991D01*
X197340602Y-110805893D01*
X197340602Y-110807165D01*
X197149628Y-110807165D01*
X197143176Y-110808537D01*
X197143171Y-110808537D01*
X197056228Y-110827018D01*
X196962827Y-110846871D01*
X196956797Y-110849556D01*
X196956796Y-110849556D01*
X196794393Y-110921862D01*
X196794391Y-110921863D01*
X196788363Y-110924547D01*
X196633862Y-111036799D01*
X196629441Y-111041709D01*
X196629440Y-111041710D01*
X196510499Y-111173807D01*
X196510497Y-111173810D01*
X196506075Y-111178721D01*
X196502769Y-111184446D01*
X196502498Y-111184820D01*
X196446275Y-111228173D01*
X196400562Y-111236758D01*
X196243614Y-111236758D01*
X196237162Y-111238130D01*
X196237157Y-111238130D01*
X196150214Y-111256611D01*
X196056813Y-111276464D01*
X196050783Y-111279149D01*
X196050782Y-111279149D01*
X195888379Y-111351455D01*
X195888377Y-111351456D01*
X195882349Y-111354140D01*
X195727848Y-111466392D01*
X195723427Y-111471302D01*
X195723426Y-111471303D01*
X195618105Y-111588274D01*
X195557659Y-111625514D01*
X195513782Y-111629073D01*
X195511624Y-111628614D01*
X195320650Y-111628614D01*
X195314198Y-111629986D01*
X195314193Y-111629986D01*
X195252320Y-111643138D01*
X195133849Y-111668320D01*
X195127819Y-111671005D01*
X195127818Y-111671005D01*
X194965415Y-111743311D01*
X194965413Y-111743312D01*
X194959385Y-111745996D01*
X194804884Y-111858248D01*
X194800463Y-111863158D01*
X194800462Y-111863159D01*
X194749126Y-111920174D01*
X194677097Y-112000170D01*
X194673798Y-112005884D01*
X194671125Y-112009563D01*
X194614902Y-112052916D01*
X194569191Y-112061500D01*
X194394513Y-112061500D01*
X194388061Y-112062872D01*
X194388056Y-112062872D01*
X194301113Y-112081353D01*
X194207712Y-112101206D01*
X194201682Y-112103891D01*
X194201681Y-112103891D01*
X194039278Y-112176197D01*
X194039276Y-112176198D01*
X194033248Y-112178882D01*
X194027907Y-112182762D01*
X194027906Y-112182763D01*
X193977843Y-112219136D01*
X193878747Y-112291134D01*
X193874326Y-112296044D01*
X193874325Y-112296045D01*
X193853754Y-112318892D01*
X193750960Y-112433056D01*
X193732239Y-112465482D01*
X193717189Y-112491549D01*
X193665806Y-112540542D01*
X193608070Y-112554549D01*
X193521406Y-112554549D01*
X193514954Y-112555921D01*
X193514949Y-112555921D01*
X193428005Y-112574402D01*
X193334605Y-112594255D01*
X193328575Y-112596940D01*
X193328574Y-112596940D01*
X193166171Y-112669246D01*
X193166169Y-112669247D01*
X193160141Y-112671931D01*
X193154800Y-112675811D01*
X193154799Y-112675812D01*
X193118384Y-112702269D01*
X193005640Y-112784183D01*
X193001219Y-112789093D01*
X193001218Y-112789094D01*
X192889511Y-112913158D01*
X192877853Y-112926105D01*
X192782366Y-113091493D01*
X192723351Y-113273121D01*
X192722661Y-113279682D01*
X192722661Y-113279684D01*
X192711227Y-113388477D01*
X192703389Y-113463049D01*
X192704079Y-113469614D01*
X192722466Y-113644553D01*
X192723351Y-113652977D01*
X192782366Y-113834605D01*
X192877853Y-113999993D01*
X193005640Y-114141915D01*
X193160141Y-114254167D01*
X193166169Y-114256851D01*
X193166171Y-114256852D01*
X193295362Y-114314371D01*
X193334605Y-114331843D01*
X193428006Y-114351696D01*
X193514949Y-114370177D01*
X193514954Y-114370177D01*
X193521406Y-114371549D01*
X193712380Y-114371549D01*
X193718832Y-114370177D01*
X193718837Y-114370177D01*
X193805780Y-114351696D01*
X193899181Y-114331843D01*
X193958885Y-114305261D01*
X194010134Y-114294368D01*
X194382388Y-114294368D01*
X196133651Y-114294369D01*
X196201772Y-114314371D01*
X196248265Y-114368027D01*
X196259651Y-114420369D01*
X196259651Y-117097477D01*
X196259149Y-117108135D01*
X196257518Y-117115430D01*
X196257767Y-117123353D01*
X196259589Y-117181332D01*
X196259651Y-117185290D01*
X196259651Y-117212285D01*
X196260145Y-117216199D01*
X196260188Y-117216878D01*
X196261049Y-117227807D01*
X196262390Y-117270463D01*
X196264602Y-117278077D01*
X196267781Y-117289018D01*
X196271790Y-117308379D01*
X196274212Y-117327550D01*
X196277131Y-117334922D01*
X196277132Y-117334927D01*
X196289916Y-117367216D01*
X196293760Y-117378443D01*
X196303452Y-117411799D01*
X196303454Y-117411803D01*
X196305665Y-117419414D01*
X196309699Y-117426236D01*
X196309700Y-117426237D01*
X196315499Y-117436043D01*
X196324198Y-117453801D01*
X196328391Y-117464392D01*
X196328395Y-117464400D01*
X196331312Y-117471767D01*
X196335972Y-117478181D01*
X196356383Y-117506274D01*
X196362902Y-117516198D01*
X196380585Y-117546100D01*
X196380589Y-117546105D01*
X196384621Y-117552923D01*
X196398284Y-117566586D01*
X196411124Y-117581619D01*
X196422483Y-117597253D01*
X196455369Y-117624458D01*
X196464135Y-117632437D01*
X196967325Y-118135627D01*
X197001351Y-118197939D01*
X197004230Y-118224722D01*
X197004230Y-120248729D01*
X196984228Y-120316850D01*
X196930572Y-120363343D01*
X196878230Y-120374729D01*
X196384477Y-120374730D01*
X196351541Y-120374730D01*
X196340890Y-120374228D01*
X196333594Y-120372597D01*
X196325668Y-120372846D01*
X196325667Y-120372846D01*
X196267693Y-120374668D01*
X196263735Y-120374730D01*
X196236738Y-120374730D01*
X196232820Y-120375225D01*
X196232165Y-120375266D01*
X196221209Y-120376128D01*
X196192906Y-120377018D01*
X196178561Y-120377469D01*
X196170948Y-120379681D01*
X196170947Y-120379681D01*
X196160001Y-120382861D01*
X196140644Y-120386869D01*
X196121473Y-120389291D01*
X196114109Y-120392207D01*
X196114104Y-120392208D01*
X196092732Y-120400670D01*
X196081797Y-120405000D01*
X196070569Y-120408844D01*
X196037220Y-120418532D01*
X196037213Y-120418535D01*
X196029610Y-120420744D01*
X196012976Y-120430581D01*
X195995226Y-120439276D01*
X195987971Y-120442149D01*
X195977257Y-120446391D01*
X195970841Y-120451052D01*
X195970840Y-120451053D01*
X195942750Y-120471462D01*
X195932826Y-120477981D01*
X195902924Y-120495664D01*
X195902919Y-120495668D01*
X195896101Y-120499700D01*
X195882438Y-120513363D01*
X195867405Y-120526203D01*
X195851771Y-120537562D01*
X195824566Y-120570448D01*
X195816587Y-120579214D01*
X195644433Y-120751368D01*
X195582121Y-120785394D01*
X195555338Y-120788273D01*
X193982834Y-120788273D01*
X193972176Y-120787771D01*
X193964881Y-120786140D01*
X193914794Y-120787714D01*
X193898979Y-120788211D01*
X193895021Y-120788273D01*
X193868026Y-120788273D01*
X193864112Y-120788767D01*
X193863433Y-120788810D01*
X193852504Y-120789671D01*
X193809848Y-120791012D01*
X193791289Y-120796404D01*
X193771932Y-120800412D01*
X193752761Y-120802834D01*
X193745389Y-120805753D01*
X193745384Y-120805754D01*
X193713095Y-120818538D01*
X193701868Y-120822382D01*
X193668512Y-120832074D01*
X193668508Y-120832076D01*
X193660897Y-120834287D01*
X193654075Y-120838321D01*
X193654074Y-120838322D01*
X193644268Y-120844121D01*
X193626510Y-120852820D01*
X193615919Y-120857013D01*
X193615911Y-120857017D01*
X193608544Y-120859934D01*
X193602130Y-120864594D01*
X193574037Y-120885005D01*
X193564113Y-120891524D01*
X193534211Y-120909207D01*
X193534206Y-120909211D01*
X193527388Y-120913243D01*
X193513725Y-120926906D01*
X193498692Y-120939746D01*
X193483058Y-120951105D01*
X193455853Y-120983991D01*
X193447874Y-120992757D01*
X193275725Y-121164906D01*
X193213413Y-121198932D01*
X193186630Y-121201811D01*
X191832242Y-121201812D01*
X191614123Y-121201812D01*
X191603472Y-121201310D01*
X191596176Y-121199679D01*
X191588250Y-121199928D01*
X191588249Y-121199928D01*
X191530275Y-121201750D01*
X191526317Y-121201812D01*
X191499321Y-121201812D01*
X191495407Y-121202306D01*
X191494728Y-121202349D01*
X191483799Y-121203210D01*
X191441143Y-121204551D01*
X191422584Y-121209943D01*
X191403227Y-121213951D01*
X191384056Y-121216373D01*
X191376686Y-121219291D01*
X191376682Y-121219292D01*
X191344386Y-121232079D01*
X191333158Y-121235923D01*
X191299813Y-121245611D01*
X191299805Y-121245614D01*
X191292193Y-121247826D01*
X191285366Y-121251864D01*
X191285365Y-121251864D01*
X191275564Y-121257660D01*
X191257814Y-121266356D01*
X191249427Y-121269677D01*
X191239839Y-121273473D01*
X191233424Y-121278134D01*
X191205327Y-121298547D01*
X191195404Y-121305065D01*
X191165507Y-121322746D01*
X191165505Y-121322747D01*
X191158683Y-121326782D01*
X191145020Y-121340445D01*
X191129987Y-121353285D01*
X191114353Y-121364644D01*
X191087148Y-121397530D01*
X191079169Y-121406296D01*
X190907021Y-121578444D01*
X190844709Y-121612470D01*
X190817926Y-121615349D01*
X189245428Y-121615349D01*
X189234770Y-121614847D01*
X189227475Y-121613216D01*
X189177388Y-121614790D01*
X189161573Y-121615287D01*
X189157615Y-121615349D01*
X189130620Y-121615349D01*
X189126706Y-121615843D01*
X189126027Y-121615886D01*
X189115098Y-121616747D01*
X189072442Y-121618088D01*
X189053883Y-121623480D01*
X189034526Y-121627488D01*
X189015355Y-121629910D01*
X189007983Y-121632829D01*
X189007978Y-121632830D01*
X188975689Y-121645614D01*
X188964462Y-121649458D01*
X188931106Y-121659150D01*
X188931102Y-121659152D01*
X188923491Y-121661363D01*
X188916669Y-121665397D01*
X188916668Y-121665398D01*
X188906862Y-121671197D01*
X188889104Y-121679896D01*
X188878513Y-121684089D01*
X188878505Y-121684093D01*
X188871138Y-121687010D01*
X188864724Y-121691670D01*
X188836631Y-121712081D01*
X188826707Y-121718600D01*
X188796805Y-121736283D01*
X188796800Y-121736287D01*
X188789982Y-121740319D01*
X188776319Y-121753982D01*
X188761286Y-121766822D01*
X188745652Y-121778181D01*
X188718447Y-121811067D01*
X188710468Y-121819833D01*
X188538317Y-121991984D01*
X188476005Y-122026010D01*
X188449222Y-122028889D01*
X186876721Y-122028889D01*
X186866063Y-122028387D01*
X186858768Y-122026756D01*
X186808681Y-122028330D01*
X186792866Y-122028827D01*
X186788908Y-122028889D01*
X186761913Y-122028889D01*
X186757999Y-122029383D01*
X186757320Y-122029426D01*
X186746391Y-122030287D01*
X186703735Y-122031628D01*
X186685176Y-122037020D01*
X186665819Y-122041028D01*
X186646648Y-122043450D01*
X186639276Y-122046369D01*
X186639271Y-122046370D01*
X186606982Y-122059154D01*
X186595755Y-122062998D01*
X186562399Y-122072690D01*
X186562395Y-122072692D01*
X186554784Y-122074903D01*
X186547962Y-122078937D01*
X186547961Y-122078938D01*
X186538155Y-122084737D01*
X186520397Y-122093436D01*
X186509806Y-122097629D01*
X186509798Y-122097633D01*
X186502431Y-122100550D01*
X186475244Y-122120303D01*
X186467924Y-122125621D01*
X186458000Y-122132140D01*
X186428098Y-122149823D01*
X186428093Y-122149827D01*
X186421275Y-122153859D01*
X186407612Y-122167522D01*
X186392579Y-122180362D01*
X186376945Y-122191721D01*
X186349740Y-122224607D01*
X186341761Y-122233373D01*
X186169610Y-122405524D01*
X186107298Y-122439550D01*
X186080515Y-122442429D01*
X184725936Y-122442430D01*
X184507994Y-122442430D01*
X184497353Y-122441928D01*
X184490059Y-122440298D01*
X184482133Y-122440547D01*
X184482132Y-122440547D01*
X184424190Y-122442368D01*
X184420232Y-122442430D01*
X184393204Y-122442430D01*
X184389282Y-122442926D01*
X184388640Y-122442966D01*
X184377660Y-122443831D01*
X184350274Y-122444691D01*
X184342949Y-122444921D01*
X184342948Y-122444921D01*
X184335026Y-122445170D01*
X184327417Y-122447381D01*
X184327409Y-122447382D01*
X184316479Y-122450558D01*
X184297115Y-122454569D01*
X184277939Y-122456991D01*
X184238254Y-122472704D01*
X184227053Y-122476539D01*
X184186075Y-122488444D01*
X184169441Y-122498281D01*
X184151691Y-122506976D01*
X184147188Y-122508759D01*
X184133722Y-122514091D01*
X184099205Y-122539169D01*
X184089293Y-122545681D01*
X184052565Y-122567401D01*
X184038903Y-122581063D01*
X184023870Y-122593903D01*
X184008236Y-122605262D01*
X183981031Y-122638148D01*
X183973052Y-122646914D01*
X183800902Y-122819064D01*
X183738590Y-122853090D01*
X183711807Y-122855969D01*
X182139289Y-122855969D01*
X182128648Y-122855467D01*
X182121354Y-122853837D01*
X182113428Y-122854086D01*
X182113427Y-122854086D01*
X182055484Y-122855907D01*
X182051526Y-122855969D01*
X182024499Y-122855969D01*
X182020577Y-122856465D01*
X182019935Y-122856505D01*
X182008955Y-122857370D01*
X181981569Y-122858230D01*
X181974244Y-122858460D01*
X181974243Y-122858460D01*
X181966321Y-122858709D01*
X181958712Y-122860920D01*
X181958704Y-122860921D01*
X181947774Y-122864097D01*
X181928410Y-122868108D01*
X181909234Y-122870530D01*
X181869549Y-122886243D01*
X181858348Y-122890078D01*
X181817370Y-122901983D01*
X181800736Y-122911820D01*
X181782986Y-122920515D01*
X181778483Y-122922298D01*
X181765017Y-122927630D01*
X181730500Y-122952708D01*
X181720588Y-122959220D01*
X181683860Y-122980940D01*
X181670198Y-122994602D01*
X181655165Y-123007442D01*
X181639531Y-123018801D01*
X181612326Y-123051687D01*
X181604347Y-123060453D01*
X181384398Y-123280402D01*
X181322086Y-123314428D01*
X181263644Y-123311008D01*
X181263087Y-123313116D01*
X181258084Y-123311794D01*
X181253212Y-123310069D01*
X181248123Y-123309162D01*
X181248121Y-123309162D01*
X181038373Y-123271800D01*
X181038367Y-123271799D01*
X181033284Y-123270894D01*
X180959452Y-123269992D01*
X180815081Y-123268228D01*
X180815079Y-123268228D01*
X180809911Y-123268165D01*
X180589091Y-123301955D01*
X180376756Y-123371357D01*
X180178607Y-123474507D01*
X180174474Y-123477610D01*
X180174471Y-123477612D01*
X180022267Y-123591890D01*
X179999965Y-123608635D01*
X179845629Y-123770138D01*
X179719743Y-123954680D01*
X179717564Y-123959375D01*
X179638686Y-124129304D01*
X179625688Y-124157305D01*
X179565989Y-124372570D01*
X179542251Y-124594695D01*
X95979397Y-124594695D01*
X95987432Y-124531097D01*
X95987433Y-124531087D01*
X95987874Y-124527594D01*
X95988259Y-124500000D01*
X95969438Y-124308046D01*
X95913691Y-124123404D01*
X95868417Y-124038255D01*
X95826036Y-123958548D01*
X95826034Y-123958545D01*
X95823142Y-123953106D01*
X95819252Y-123948336D01*
X95819249Y-123948332D01*
X95705135Y-123808414D01*
X95705132Y-123808411D01*
X95701240Y-123803639D01*
X95696491Y-123799710D01*
X95557377Y-123684625D01*
X95557374Y-123684623D01*
X95552627Y-123680696D01*
X95382966Y-123588960D01*
X95223841Y-123539703D01*
X95204604Y-123533748D01*
X95204601Y-123533747D01*
X95198717Y-123531926D01*
X95192592Y-123531282D01*
X95192591Y-123531282D01*
X95013027Y-123512409D01*
X95013026Y-123512409D01*
X95006899Y-123511765D01*
X94927188Y-123519019D01*
X94820958Y-123528687D01*
X94820955Y-123528688D01*
X94814819Y-123529246D01*
X94808913Y-123530984D01*
X94808909Y-123530985D01*
X94670795Y-123571634D01*
X94629792Y-123583702D01*
X94458866Y-123673060D01*
X94308551Y-123793916D01*
X94304593Y-123798633D01*
X94304591Y-123798635D01*
X94224058Y-123894611D01*
X94184574Y-123941666D01*
X94181610Y-123947058D01*
X94181607Y-123947062D01*
X94177419Y-123954680D01*
X94091656Y-124110683D01*
X94033337Y-124294529D01*
X94032651Y-124300646D01*
X94032650Y-124300650D01*
X94025142Y-124367588D01*
X94011837Y-124486202D01*
X85272500Y-124486202D01*
X85272500Y-117977869D01*
X86686689Y-117977869D01*
X86703238Y-118264883D01*
X86704063Y-118269088D01*
X86704064Y-118269096D01*
X86736010Y-118431921D01*
X86758586Y-118546995D01*
X86759973Y-118551045D01*
X86759974Y-118551050D01*
X86849751Y-118813265D01*
X86851710Y-118818986D01*
X86902950Y-118920866D01*
X86967425Y-119049059D01*
X86980885Y-119075822D01*
X87143721Y-119312750D01*
X87146608Y-119315923D01*
X87146609Y-119315924D01*
X87325969Y-119513039D01*
X87337206Y-119525388D01*
X87340501Y-119528143D01*
X87340502Y-119528144D01*
X87450748Y-119620323D01*
X87557759Y-119709798D01*
X87801298Y-119862571D01*
X88063318Y-119980877D01*
X88067437Y-119982097D01*
X88334857Y-120061311D01*
X88334862Y-120061312D01*
X88338970Y-120062529D01*
X88343204Y-120063177D01*
X88343209Y-120063178D01*
X88591811Y-120101219D01*
X88623153Y-120106015D01*
X88769485Y-120108314D01*
X88906317Y-120110464D01*
X88906323Y-120110464D01*
X88910608Y-120110531D01*
X88914860Y-120110016D01*
X88914868Y-120110016D01*
X89191756Y-120076508D01*
X89191761Y-120076507D01*
X89196017Y-120075992D01*
X89474097Y-120003039D01*
X89739704Y-119893021D01*
X89863813Y-119820498D01*
X89984219Y-119750138D01*
X89984220Y-119750137D01*
X89987922Y-119747974D01*
X90214159Y-119570582D01*
X90255285Y-119528144D01*
X90348959Y-119431479D01*
X90414227Y-119364128D01*
X90416760Y-119360680D01*
X90416764Y-119360675D01*
X90581887Y-119135886D01*
X90584425Y-119132431D01*
X90611409Y-119082733D01*
X90719554Y-118883555D01*
X90719555Y-118883553D01*
X90721604Y-118879779D01*
X90820741Y-118617422D01*
X90821707Y-118614866D01*
X90821708Y-118614862D01*
X90823225Y-118610848D01*
X90887407Y-118330613D01*
X90896858Y-118224722D01*
X90912743Y-118046726D01*
X90912743Y-118046724D01*
X90912963Y-118044260D01*
X90913427Y-118000000D01*
X90893873Y-117713175D01*
X90889336Y-117691264D01*
X90842353Y-117464392D01*
X90835574Y-117431658D01*
X90739607Y-117160657D01*
X90607750Y-116905188D01*
X90594488Y-116886317D01*
X90444904Y-116673482D01*
X90442441Y-116669977D01*
X90246740Y-116459378D01*
X90024268Y-116277287D01*
X89779142Y-116127073D01*
X89761048Y-116119130D01*
X89519830Y-116013243D01*
X89515898Y-116011517D01*
X89489963Y-116004129D01*
X89243534Y-115933932D01*
X89243535Y-115933932D01*
X89239406Y-115932756D01*
X89026704Y-115902485D01*
X88959036Y-115892854D01*
X88959034Y-115892854D01*
X88954784Y-115892249D01*
X88950495Y-115892227D01*
X88950488Y-115892226D01*
X88671583Y-115890765D01*
X88671576Y-115890765D01*
X88667297Y-115890743D01*
X88663053Y-115891302D01*
X88663049Y-115891302D01*
X88537660Y-115907810D01*
X88382266Y-115928268D01*
X88378126Y-115929401D01*
X88378124Y-115929401D01*
X88301311Y-115950415D01*
X88104964Y-116004129D01*
X88101016Y-116005813D01*
X87844476Y-116115237D01*
X87844472Y-116115239D01*
X87840524Y-116116923D01*
X87715960Y-116191473D01*
X87597521Y-116262357D01*
X87597517Y-116262360D01*
X87593839Y-116264561D01*
X87369472Y-116444313D01*
X87171577Y-116652851D01*
X87003814Y-116886317D01*
X86869288Y-117140392D01*
X86867813Y-117144423D01*
X86784259Y-117372746D01*
X86770489Y-117410373D01*
X86709245Y-117691264D01*
X86708909Y-117695534D01*
X86687196Y-117971428D01*
X86687195Y-117971428D01*
X86687196Y-117971430D01*
X86686689Y-117977869D01*
X85272500Y-117977869D01*
X85272500Y-114459371D01*
X102888367Y-114459371D01*
X102915927Y-114640542D01*
X102917791Y-114645945D01*
X102967100Y-114788880D01*
X102975689Y-114813779D01*
X102978494Y-114818753D01*
X102978495Y-114818756D01*
X103062890Y-114968431D01*
X103065696Y-114973407D01*
X103154093Y-115079504D01*
X103159932Y-115087081D01*
X103161261Y-115088948D01*
X103173419Y-115106029D01*
X103182185Y-115115014D01*
X103186074Y-115117930D01*
X103186078Y-115117933D01*
X103204548Y-115131779D01*
X103218065Y-115143500D01*
X103353646Y-115279082D01*
X103387671Y-115341394D01*
X103390550Y-115368177D01*
X103390550Y-118528326D01*
X103370548Y-118596447D01*
X103353646Y-118617421D01*
X103223585Y-118747483D01*
X103207576Y-118761024D01*
X103191219Y-118772670D01*
X103182235Y-118781437D01*
X103179315Y-118785333D01*
X103169459Y-118798483D01*
X103165429Y-118803581D01*
X103105275Y-118875761D01*
X103065811Y-118923114D01*
X103063005Y-118928089D01*
X103054082Y-118943909D01*
X102975784Y-119082733D01*
X102916001Y-119255965D01*
X102888423Y-119437135D01*
X102888595Y-119442838D01*
X102888595Y-119442845D01*
X102890619Y-119509888D01*
X102893952Y-119620309D01*
X102932407Y-119799486D01*
X102934594Y-119804766D01*
X102934595Y-119804770D01*
X102957588Y-119860288D01*
X103002528Y-119968797D01*
X103102018Y-120122695D01*
X103227619Y-120256140D01*
X103232223Y-120259528D01*
X103232225Y-120259530D01*
X103370610Y-120361372D01*
X103370615Y-120361375D01*
X103375216Y-120364761D01*
X103539973Y-120444998D01*
X103716495Y-120494224D01*
X103823893Y-120503993D01*
X103854008Y-120506733D01*
X103863511Y-120507964D01*
X103881637Y-120511016D01*
X103881648Y-120511017D01*
X103886447Y-120511825D01*
X103891310Y-120511885D01*
X103891314Y-120511885D01*
X103892565Y-120511900D01*
X103898999Y-120511979D01*
X103903812Y-120511290D01*
X103903815Y-120511290D01*
X103926649Y-120508022D01*
X103944499Y-120506751D01*
X113845834Y-120506751D01*
X113866725Y-120508495D01*
X113873357Y-120509610D01*
X113881720Y-120511016D01*
X113886549Y-120511828D01*
X113891407Y-120511887D01*
X113891409Y-120511887D01*
X113893188Y-120511908D01*
X113899101Y-120511980D01*
X113915648Y-120509609D01*
X113922090Y-120508855D01*
X113978176Y-120503753D01*
X114075935Y-120494860D01*
X114075938Y-120494859D01*
X114081626Y-120494342D01*
X114087127Y-120492808D01*
X114087132Y-120492807D01*
X114252668Y-120446644D01*
X114258169Y-120445110D01*
X114422946Y-120364863D01*
X114488188Y-120316850D01*
X114565962Y-120259615D01*
X114565965Y-120259612D01*
X114570561Y-120256230D01*
X114577621Y-120248729D01*
X114692263Y-120126927D01*
X114692266Y-120126923D01*
X114696176Y-120122769D01*
X114704131Y-120110464D01*
X114792578Y-119973650D01*
X114792581Y-119973644D01*
X114795679Y-119968852D01*
X114865808Y-119799521D01*
X114904267Y-119620323D01*
X114907485Y-119513729D01*
X114909625Y-119442838D01*
X114909625Y-119442834D01*
X114909797Y-119437128D01*
X114890325Y-119309213D01*
X114883075Y-119261582D01*
X114883074Y-119261576D01*
X114882215Y-119255936D01*
X114855413Y-119178272D01*
X114824288Y-119088079D01*
X114824287Y-119088077D01*
X114822426Y-119082684D01*
X114794024Y-119032326D01*
X114766227Y-118983043D01*
X114732388Y-118923046D01*
X114725528Y-118914814D01*
X114643964Y-118816945D01*
X114638116Y-118809359D01*
X114627457Y-118794389D01*
X114624632Y-118790421D01*
X114615865Y-118781437D01*
X114593537Y-118764703D01*
X114580007Y-118752973D01*
X114535907Y-118708873D01*
X114444454Y-118617421D01*
X114410430Y-118555110D01*
X114407550Y-118528326D01*
X114407550Y-118493724D01*
X127386309Y-118493724D01*
X127388136Y-118507692D01*
X127388345Y-118509290D01*
X127388929Y-118514644D01*
X127392114Y-118551050D01*
X127403028Y-118675793D01*
X127404452Y-118681107D01*
X127404452Y-118681108D01*
X127444551Y-118830759D01*
X127448700Y-118846245D01*
X127451022Y-118851226D01*
X127451023Y-118851227D01*
X127520951Y-119001189D01*
X127520954Y-119001194D01*
X127523277Y-119006176D01*
X127545615Y-119038078D01*
X127616359Y-119139110D01*
X127624493Y-119150727D01*
X127749273Y-119275507D01*
X127753781Y-119278664D01*
X127753784Y-119278666D01*
X127797410Y-119309213D01*
X127893824Y-119376723D01*
X127898806Y-119379046D01*
X127898811Y-119379049D01*
X128023363Y-119437128D01*
X128053755Y-119451300D01*
X128059063Y-119452722D01*
X128059065Y-119452723D01*
X128218892Y-119495548D01*
X128218893Y-119495548D01*
X128224207Y-119496972D01*
X128353712Y-119508302D01*
X128363626Y-119509568D01*
X128374556Y-119511407D01*
X128382656Y-119512770D01*
X128382658Y-119512770D01*
X128387448Y-119513576D01*
X128393724Y-119513653D01*
X128395140Y-119513670D01*
X128395143Y-119513670D01*
X128400000Y-119513729D01*
X128427624Y-119509773D01*
X128445486Y-119508500D01*
X132346750Y-119508500D01*
X132367655Y-119510246D01*
X132382656Y-119512770D01*
X132382659Y-119512770D01*
X132387448Y-119513576D01*
X132393525Y-119513650D01*
X132395135Y-119513670D01*
X132395139Y-119513670D01*
X132400000Y-119513729D01*
X132404814Y-119513040D01*
X132404824Y-119513039D01*
X132421280Y-119510682D01*
X132428149Y-119509889D01*
X132575793Y-119496972D01*
X132581107Y-119495548D01*
X132581108Y-119495548D01*
X132740935Y-119452723D01*
X132740937Y-119452722D01*
X132746245Y-119451300D01*
X132776637Y-119437128D01*
X132901189Y-119379049D01*
X132901194Y-119379046D01*
X132906176Y-119376723D01*
X133002590Y-119309213D01*
X133046216Y-119278666D01*
X133046219Y-119278664D01*
X133050727Y-119275507D01*
X133175507Y-119150727D01*
X133183642Y-119139110D01*
X133254385Y-119038078D01*
X133276723Y-119006176D01*
X133279046Y-119001194D01*
X133279049Y-119001189D01*
X133348977Y-118851227D01*
X133348978Y-118851226D01*
X133351300Y-118846245D01*
X133355450Y-118830759D01*
X133395548Y-118681108D01*
X133395548Y-118681107D01*
X133396972Y-118675793D01*
X133408302Y-118546288D01*
X133409569Y-118536368D01*
X133412770Y-118517344D01*
X133412770Y-118517342D01*
X133413576Y-118512552D01*
X133413729Y-118500000D01*
X133409773Y-118472376D01*
X133408500Y-118454514D01*
X133408500Y-114459371D01*
X145888367Y-114459371D01*
X145915927Y-114640542D01*
X145917791Y-114645945D01*
X145967100Y-114788880D01*
X145975689Y-114813779D01*
X145978494Y-114818753D01*
X145978495Y-114818756D01*
X146062890Y-114968431D01*
X146065696Y-114973407D01*
X146154093Y-115079504D01*
X146159932Y-115087081D01*
X146161261Y-115088948D01*
X146173419Y-115106029D01*
X146182185Y-115115014D01*
X146186074Y-115117930D01*
X146186078Y-115117933D01*
X146204548Y-115131779D01*
X146218065Y-115143500D01*
X146353646Y-115279082D01*
X146387671Y-115341394D01*
X146390550Y-115368177D01*
X146390550Y-118528326D01*
X146370548Y-118596447D01*
X146353646Y-118617421D01*
X146223585Y-118747483D01*
X146207576Y-118761024D01*
X146191219Y-118772670D01*
X146182235Y-118781437D01*
X146179315Y-118785333D01*
X146169459Y-118798483D01*
X146165429Y-118803581D01*
X146105275Y-118875761D01*
X146065811Y-118923114D01*
X146063005Y-118928089D01*
X146054082Y-118943909D01*
X145975784Y-119082733D01*
X145916001Y-119255965D01*
X145888423Y-119437135D01*
X145888595Y-119442838D01*
X145888595Y-119442845D01*
X145890619Y-119509888D01*
X145893952Y-119620309D01*
X145932407Y-119799486D01*
X145934594Y-119804766D01*
X145934595Y-119804770D01*
X145957588Y-119860288D01*
X146002528Y-119968797D01*
X146102018Y-120122695D01*
X146227619Y-120256140D01*
X146232223Y-120259528D01*
X146232225Y-120259530D01*
X146370610Y-120361372D01*
X146370615Y-120361375D01*
X146375216Y-120364761D01*
X146539973Y-120444998D01*
X146716495Y-120494224D01*
X146823893Y-120503993D01*
X146854008Y-120506733D01*
X146863511Y-120507964D01*
X146881637Y-120511016D01*
X146881648Y-120511017D01*
X146886447Y-120511825D01*
X146891310Y-120511885D01*
X146891314Y-120511885D01*
X146892565Y-120511900D01*
X146898999Y-120511979D01*
X146903812Y-120511290D01*
X146903815Y-120511290D01*
X146926649Y-120508022D01*
X146944499Y-120506751D01*
X156845834Y-120506751D01*
X156866725Y-120508495D01*
X156873357Y-120509610D01*
X156881720Y-120511016D01*
X156886549Y-120511828D01*
X156891407Y-120511887D01*
X156891409Y-120511887D01*
X156893188Y-120511908D01*
X156899101Y-120511980D01*
X156915648Y-120509609D01*
X156922090Y-120508855D01*
X156978176Y-120503753D01*
X157075935Y-120494860D01*
X157075938Y-120494859D01*
X157081626Y-120494342D01*
X157087127Y-120492808D01*
X157087132Y-120492807D01*
X157252668Y-120446644D01*
X157258169Y-120445110D01*
X157422946Y-120364863D01*
X157488188Y-120316850D01*
X157565962Y-120259615D01*
X157565965Y-120259612D01*
X157570561Y-120256230D01*
X157577621Y-120248729D01*
X157692263Y-120126927D01*
X157692266Y-120126923D01*
X157696176Y-120122769D01*
X157704131Y-120110464D01*
X157792578Y-119973650D01*
X157792581Y-119973644D01*
X157795679Y-119968852D01*
X157865808Y-119799521D01*
X157904267Y-119620323D01*
X157907485Y-119513729D01*
X157909625Y-119442838D01*
X157909625Y-119442834D01*
X157909797Y-119437128D01*
X157890325Y-119309213D01*
X157883075Y-119261582D01*
X157883074Y-119261576D01*
X157882215Y-119255936D01*
X157855413Y-119178272D01*
X157824288Y-119088079D01*
X157824287Y-119088077D01*
X157822426Y-119082684D01*
X157794024Y-119032326D01*
X157766227Y-118983043D01*
X157732388Y-118923046D01*
X157725528Y-118914814D01*
X157643964Y-118816945D01*
X157638116Y-118809359D01*
X157627457Y-118794389D01*
X157624632Y-118790421D01*
X157615865Y-118781437D01*
X157593537Y-118764703D01*
X157580007Y-118752973D01*
X157535907Y-118708873D01*
X157444454Y-118617421D01*
X157410430Y-118555110D01*
X157407550Y-118528326D01*
X157407550Y-117977869D01*
X169886689Y-117977869D01*
X169903238Y-118264883D01*
X169904063Y-118269088D01*
X169904064Y-118269096D01*
X169936010Y-118431921D01*
X169958586Y-118546995D01*
X169959973Y-118551045D01*
X169959974Y-118551050D01*
X170049751Y-118813265D01*
X170051710Y-118818986D01*
X170102950Y-118920866D01*
X170167425Y-119049059D01*
X170180885Y-119075822D01*
X170343721Y-119312750D01*
X170346608Y-119315923D01*
X170346609Y-119315924D01*
X170525969Y-119513039D01*
X170537206Y-119525388D01*
X170540501Y-119528143D01*
X170540502Y-119528144D01*
X170650748Y-119620323D01*
X170757759Y-119709798D01*
X171001298Y-119862571D01*
X171263318Y-119980877D01*
X171267437Y-119982097D01*
X171534857Y-120061311D01*
X171534862Y-120061312D01*
X171538970Y-120062529D01*
X171543204Y-120063177D01*
X171543209Y-120063178D01*
X171791811Y-120101219D01*
X171823153Y-120106015D01*
X171969485Y-120108314D01*
X172106317Y-120110464D01*
X172106323Y-120110464D01*
X172110608Y-120110531D01*
X172114860Y-120110016D01*
X172114868Y-120110016D01*
X172391756Y-120076508D01*
X172391761Y-120076507D01*
X172396017Y-120075992D01*
X172674097Y-120003039D01*
X172939704Y-119893021D01*
X173063813Y-119820498D01*
X173184219Y-119750138D01*
X173184220Y-119750137D01*
X173187922Y-119747974D01*
X173414159Y-119570582D01*
X173455285Y-119528144D01*
X173548959Y-119431479D01*
X173614227Y-119364128D01*
X173616760Y-119360680D01*
X173616764Y-119360675D01*
X173781887Y-119135886D01*
X173784425Y-119132431D01*
X173811409Y-119082733D01*
X173919554Y-118883555D01*
X173919555Y-118883553D01*
X173921604Y-118879779D01*
X174020741Y-118617422D01*
X174021707Y-118614866D01*
X174021708Y-118614862D01*
X174023225Y-118610848D01*
X174087407Y-118330613D01*
X174096858Y-118224722D01*
X174112743Y-118046726D01*
X174112743Y-118046724D01*
X174112963Y-118044260D01*
X174113427Y-118000000D01*
X174093873Y-117713175D01*
X174089336Y-117691264D01*
X174042353Y-117464392D01*
X174035574Y-117431658D01*
X173939607Y-117160657D01*
X173807750Y-116905188D01*
X173794488Y-116886317D01*
X173644904Y-116673482D01*
X173642441Y-116669977D01*
X173446740Y-116459378D01*
X173224268Y-116277287D01*
X172979142Y-116127073D01*
X172961048Y-116119130D01*
X172719830Y-116013243D01*
X172715898Y-116011517D01*
X172689963Y-116004129D01*
X172443534Y-115933932D01*
X172443535Y-115933932D01*
X172439406Y-115932756D01*
X172226704Y-115902485D01*
X172159036Y-115892854D01*
X172159034Y-115892854D01*
X172154784Y-115892249D01*
X172150495Y-115892227D01*
X172150488Y-115892226D01*
X171871583Y-115890765D01*
X171871576Y-115890765D01*
X171867297Y-115890743D01*
X171863053Y-115891302D01*
X171863049Y-115891302D01*
X171737660Y-115907810D01*
X171582266Y-115928268D01*
X171578126Y-115929401D01*
X171578124Y-115929401D01*
X171501311Y-115950415D01*
X171304964Y-116004129D01*
X171301016Y-116005813D01*
X171044476Y-116115237D01*
X171044472Y-116115239D01*
X171040524Y-116116923D01*
X170915960Y-116191473D01*
X170797521Y-116262357D01*
X170797517Y-116262360D01*
X170793839Y-116264561D01*
X170569472Y-116444313D01*
X170371577Y-116652851D01*
X170203814Y-116886317D01*
X170069288Y-117140392D01*
X170067813Y-117144423D01*
X169984259Y-117372746D01*
X169970489Y-117410373D01*
X169909245Y-117691264D01*
X169908909Y-117695534D01*
X169887196Y-117971428D01*
X169887195Y-117971428D01*
X169887196Y-117971430D01*
X169886689Y-117977869D01*
X157407550Y-117977869D01*
X157407550Y-115368177D01*
X157427552Y-115300056D01*
X157444455Y-115279081D01*
X157574519Y-115149018D01*
X157590535Y-115135472D01*
X157602914Y-115126659D01*
X157602919Y-115126655D01*
X157606881Y-115123834D01*
X157615865Y-115115067D01*
X157625895Y-115101684D01*
X157629896Y-115096623D01*
X157732479Y-114973532D01*
X157735356Y-114968431D01*
X157819717Y-114818853D01*
X157819719Y-114818848D01*
X157822520Y-114813882D01*
X157882307Y-114640616D01*
X157883179Y-114634890D01*
X157909022Y-114465056D01*
X157909881Y-114459411D01*
X157904339Y-114276204D01*
X157865862Y-114096996D01*
X157795712Y-113927661D01*
X157696185Y-113773745D01*
X157588397Y-113659255D01*
X157574461Y-113644452D01*
X157574458Y-113644449D01*
X157570544Y-113640292D01*
X157422904Y-113531673D01*
X157417771Y-113529174D01*
X157417769Y-113529173D01*
X157268450Y-113456484D01*
X157258103Y-113451447D01*
X157081539Y-113402243D01*
X157075854Y-113401727D01*
X157075849Y-113401726D01*
X156980994Y-113393116D01*
X156943980Y-113389756D01*
X156934481Y-113388528D01*
X156916353Y-113385480D01*
X156916348Y-113385480D01*
X156911551Y-113384673D01*
X156906693Y-113384614D01*
X156906691Y-113384614D01*
X156904912Y-113384593D01*
X156898999Y-113384521D01*
X156894185Y-113385211D01*
X156894183Y-113385211D01*
X156871394Y-113388477D01*
X156853520Y-113389751D01*
X146952266Y-113389751D01*
X146931374Y-113388007D01*
X146930221Y-113387813D01*
X146911551Y-113384674D01*
X146906693Y-113384615D01*
X146906691Y-113384615D01*
X146904999Y-113384595D01*
X146898999Y-113384522D01*
X146894188Y-113385211D01*
X146894180Y-113385212D01*
X146879248Y-113387352D01*
X146872789Y-113388108D01*
X146722189Y-113401807D01*
X146722186Y-113401807D01*
X146716497Y-113402325D01*
X146586131Y-113438678D01*
X146545473Y-113450015D01*
X146545471Y-113450016D01*
X146539976Y-113451548D01*
X146534849Y-113454045D01*
X146534843Y-113454047D01*
X146380352Y-113529279D01*
X146380348Y-113529281D01*
X146375217Y-113531780D01*
X146370616Y-113535166D01*
X146232220Y-113637007D01*
X146232217Y-113637010D01*
X146227618Y-113640394D01*
X146102012Y-113773831D01*
X146002514Y-113927723D01*
X145932381Y-114097027D01*
X145931183Y-114102606D01*
X145931182Y-114102610D01*
X145921910Y-114145798D01*
X145893913Y-114276200D01*
X145893740Y-114281910D01*
X145893740Y-114281911D01*
X145892228Y-114331843D01*
X145888367Y-114459371D01*
X133408500Y-114459371D01*
X133408500Y-112553250D01*
X133410246Y-112532345D01*
X133412770Y-112517344D01*
X133412770Y-112517341D01*
X133413576Y-112512552D01*
X133413729Y-112500000D01*
X133413040Y-112495186D01*
X133413039Y-112495176D01*
X133410682Y-112478720D01*
X133409888Y-112471839D01*
X133409749Y-112470245D01*
X133396972Y-112324207D01*
X133351300Y-112153755D01*
X133326796Y-112101206D01*
X133279049Y-111998811D01*
X133279046Y-111998806D01*
X133276723Y-111993824D01*
X133185230Y-111863159D01*
X133178666Y-111853784D01*
X133178664Y-111853781D01*
X133175507Y-111849273D01*
X133050727Y-111724493D01*
X133046219Y-111721336D01*
X133046216Y-111721334D01*
X132915757Y-111629986D01*
X132906176Y-111623277D01*
X132901194Y-111620954D01*
X132901189Y-111620951D01*
X132751227Y-111551023D01*
X132751226Y-111551022D01*
X132746245Y-111548700D01*
X132740937Y-111547278D01*
X132740935Y-111547277D01*
X132581108Y-111504452D01*
X132581107Y-111504452D01*
X132575793Y-111503028D01*
X132446288Y-111491698D01*
X132436374Y-111490432D01*
X132425444Y-111488593D01*
X132417344Y-111487230D01*
X132417342Y-111487230D01*
X132412552Y-111486424D01*
X132406276Y-111486347D01*
X132404860Y-111486330D01*
X132404857Y-111486330D01*
X132400000Y-111486271D01*
X132375679Y-111489754D01*
X132372376Y-111490227D01*
X132354514Y-111491500D01*
X128453250Y-111491500D01*
X128432345Y-111489754D01*
X128417344Y-111487230D01*
X128417341Y-111487230D01*
X128412552Y-111486424D01*
X128406475Y-111486350D01*
X128404865Y-111486330D01*
X128404861Y-111486330D01*
X128400000Y-111486271D01*
X128395186Y-111486960D01*
X128395176Y-111486961D01*
X128378720Y-111489318D01*
X128371851Y-111490111D01*
X128224207Y-111503028D01*
X128218893Y-111504452D01*
X128218892Y-111504452D01*
X128059065Y-111547277D01*
X128059063Y-111547278D01*
X128053755Y-111548700D01*
X128048774Y-111551022D01*
X128048773Y-111551023D01*
X127898811Y-111620951D01*
X127898806Y-111620954D01*
X127893824Y-111623277D01*
X127884243Y-111629986D01*
X127753784Y-111721334D01*
X127753781Y-111721336D01*
X127749273Y-111724493D01*
X127624493Y-111849273D01*
X127621336Y-111853781D01*
X127621334Y-111853784D01*
X127614770Y-111863159D01*
X127523277Y-111993824D01*
X127520954Y-111998806D01*
X127520951Y-111998811D01*
X127473204Y-112101206D01*
X127448700Y-112153755D01*
X127403028Y-112324207D01*
X127394111Y-112426129D01*
X127390987Y-112461839D01*
X127389969Y-112470224D01*
X127386309Y-112493724D01*
X127388771Y-112512552D01*
X127390436Y-112525283D01*
X127391500Y-112541621D01*
X127391500Y-118450633D01*
X127390000Y-118470018D01*
X127387690Y-118484851D01*
X127387690Y-118484855D01*
X127386309Y-118493724D01*
X114407550Y-118493724D01*
X114407550Y-115368177D01*
X114427552Y-115300056D01*
X114444455Y-115279081D01*
X114574519Y-115149018D01*
X114590535Y-115135472D01*
X114602914Y-115126659D01*
X114602919Y-115126655D01*
X114606881Y-115123834D01*
X114615865Y-115115067D01*
X114625895Y-115101684D01*
X114629896Y-115096623D01*
X114732479Y-114973532D01*
X114735356Y-114968431D01*
X114819717Y-114818853D01*
X114819719Y-114818848D01*
X114822520Y-114813882D01*
X114882307Y-114640616D01*
X114883179Y-114634890D01*
X114909022Y-114465056D01*
X114909881Y-114459411D01*
X114904339Y-114276204D01*
X114865862Y-114096996D01*
X114795712Y-113927661D01*
X114696185Y-113773745D01*
X114588397Y-113659255D01*
X114574461Y-113644452D01*
X114574458Y-113644449D01*
X114570544Y-113640292D01*
X114422904Y-113531673D01*
X114417771Y-113529174D01*
X114417769Y-113529173D01*
X114268450Y-113456484D01*
X114258103Y-113451447D01*
X114081539Y-113402243D01*
X114075854Y-113401727D01*
X114075849Y-113401726D01*
X113980994Y-113393116D01*
X113943980Y-113389756D01*
X113934481Y-113388528D01*
X113916353Y-113385480D01*
X113916348Y-113385480D01*
X113911551Y-113384673D01*
X113906693Y-113384614D01*
X113906691Y-113384614D01*
X113904912Y-113384593D01*
X113898999Y-113384521D01*
X113894185Y-113385211D01*
X113894183Y-113385211D01*
X113871394Y-113388477D01*
X113853520Y-113389751D01*
X103952266Y-113389751D01*
X103931374Y-113388007D01*
X103930221Y-113387813D01*
X103911551Y-113384674D01*
X103906693Y-113384615D01*
X103906691Y-113384615D01*
X103904999Y-113384595D01*
X103898999Y-113384522D01*
X103894188Y-113385211D01*
X103894180Y-113385212D01*
X103879248Y-113387352D01*
X103872789Y-113388108D01*
X103722189Y-113401807D01*
X103722186Y-113401807D01*
X103716497Y-113402325D01*
X103586131Y-113438678D01*
X103545473Y-113450015D01*
X103545471Y-113450016D01*
X103539976Y-113451548D01*
X103534849Y-113454045D01*
X103534843Y-113454047D01*
X103380352Y-113529279D01*
X103380348Y-113529281D01*
X103375217Y-113531780D01*
X103370616Y-113535166D01*
X103232220Y-113637007D01*
X103232217Y-113637010D01*
X103227618Y-113640394D01*
X103102012Y-113773831D01*
X103002514Y-113927723D01*
X102932381Y-114097027D01*
X102931183Y-114102606D01*
X102931182Y-114102610D01*
X102921910Y-114145798D01*
X102893913Y-114276200D01*
X102893740Y-114281910D01*
X102893740Y-114281911D01*
X102892228Y-114331843D01*
X102888367Y-114459371D01*
X85272500Y-114459371D01*
X85272500Y-113634500D01*
X85292502Y-113566379D01*
X85346158Y-113519886D01*
X85398500Y-113508500D01*
X92246750Y-113508500D01*
X92267655Y-113510246D01*
X92282656Y-113512770D01*
X92282659Y-113512770D01*
X92287448Y-113513576D01*
X92293445Y-113513649D01*
X92295132Y-113513670D01*
X92295136Y-113513670D01*
X92300000Y-113513729D01*
X92304822Y-113513039D01*
X92306551Y-113512926D01*
X92315805Y-113512052D01*
X92667362Y-113495798D01*
X92667369Y-113495797D01*
X92670253Y-113495664D01*
X92882572Y-113466047D01*
X93034459Y-113444860D01*
X93034462Y-113444859D01*
X93037347Y-113444457D01*
X93235064Y-113397954D01*
X93395311Y-113360265D01*
X93395317Y-113360263D01*
X93398150Y-113359597D01*
X93749584Y-113241808D01*
X94088651Y-113092095D01*
X94412458Y-112911736D01*
X94718241Y-112702269D01*
X95003394Y-112465482D01*
X95265482Y-112203394D01*
X95502269Y-111918241D01*
X95711736Y-111612458D01*
X95772955Y-111502549D01*
X95890671Y-111291208D01*
X95890673Y-111291204D01*
X95892095Y-111288651D01*
X96041808Y-110949584D01*
X96159597Y-110598150D01*
X96244457Y-110237347D01*
X96295664Y-109870253D01*
X96300124Y-109773799D01*
X96311330Y-109531405D01*
X96312438Y-109521038D01*
X96312769Y-109517350D01*
X96313576Y-109512552D01*
X96313729Y-109500000D01*
X96309773Y-109472376D01*
X96308500Y-109454514D01*
X96308500Y-106634500D01*
X96328502Y-106566379D01*
X96382158Y-106519886D01*
X96434500Y-106508500D01*
X171946750Y-106508500D01*
X171967655Y-106510246D01*
X171982656Y-106512770D01*
X171982659Y-106512770D01*
X171987448Y-106513576D01*
X171993525Y-106513650D01*
X171995135Y-106513670D01*
X171995139Y-106513670D01*
X172000000Y-106513729D01*
X172004814Y-106513040D01*
X172004824Y-106513039D01*
X172021280Y-106510682D01*
X172028149Y-106509889D01*
X172175793Y-106496972D01*
X172181107Y-106495548D01*
X172181108Y-106495548D01*
X172340935Y-106452723D01*
X172340937Y-106452722D01*
X172346245Y-106451300D01*
X172434329Y-106410226D01*
X172501189Y-106379049D01*
X172501194Y-106379046D01*
X172506176Y-106376723D01*
X172586874Y-106320217D01*
X172646216Y-106278666D01*
X172646219Y-106278664D01*
X172650727Y-106275507D01*
X172754420Y-106171814D01*
X172816732Y-106137788D01*
X172887547Y-106142853D01*
X172944383Y-106185400D01*
X172960258Y-106213505D01*
X173031764Y-106389605D01*
X173036407Y-106398796D01*
X173147688Y-106580390D01*
X173153771Y-106588701D01*
X173293207Y-106749669D01*
X173300574Y-106756885D01*
X173464428Y-106892918D01*
X173472875Y-106898833D01*
X173656750Y-107006281D01*
X173666036Y-107010731D01*
X173864995Y-107086705D01*
X173874893Y-107089581D01*
X173978244Y-107110608D01*
X173992293Y-107109412D01*
X173995994Y-107099067D01*
X173995994Y-105652002D01*
X174015996Y-105583881D01*
X174069652Y-105537388D01*
X174121994Y-105526002D01*
X174377994Y-105526002D01*
X174446115Y-105546004D01*
X174492608Y-105599660D01*
X174503994Y-105652002D01*
X174503994Y-107098519D01*
X174508058Y-107112361D01*
X174521472Y-107114395D01*
X174528178Y-107113536D01*
X174538256Y-107111394D01*
X174742249Y-107050193D01*
X174751836Y-107046435D01*
X174943089Y-106952741D01*
X174951939Y-106947466D01*
X175125322Y-106823794D01*
X175133187Y-106817147D01*
X175237891Y-106712807D01*
X175300262Y-106678891D01*
X175371069Y-106684079D01*
X175427831Y-106726725D01*
X175444813Y-106757828D01*
X175489379Y-106876707D01*
X175576733Y-106993263D01*
X175693289Y-107080617D01*
X175829678Y-107131747D01*
X175891860Y-107138502D01*
X177688128Y-107138502D01*
X177750310Y-107131747D01*
X177886699Y-107080617D01*
X178003255Y-106993263D01*
X178090609Y-106876707D01*
X178141739Y-106740318D01*
X178148494Y-106678136D01*
X178148494Y-104881868D01*
X178141739Y-104819686D01*
X178090609Y-104683297D01*
X178003255Y-104566741D01*
X177886699Y-104479387D01*
X177750310Y-104428257D01*
X177688128Y-104421502D01*
X177509394Y-104421502D01*
X177441273Y-104401500D01*
X177394780Y-104347844D01*
X177384676Y-104277570D01*
X177414170Y-104212990D01*
X177458500Y-104180238D01*
X177501660Y-104161181D01*
X177775758Y-104040155D01*
X177791159Y-104031577D01*
X178137402Y-103838721D01*
X178139955Y-103837299D01*
X178483881Y-103601704D01*
X178486107Y-103599856D01*
X178486117Y-103599848D01*
X178802365Y-103337238D01*
X178802368Y-103337235D01*
X178804601Y-103335381D01*
X179099381Y-103040601D01*
X179189336Y-102932273D01*
X179363848Y-102722117D01*
X179363856Y-102722107D01*
X179365704Y-102719881D01*
X179601299Y-102375955D01*
X179793712Y-102030507D01*
X179802731Y-102014315D01*
X179802733Y-102014311D01*
X179804155Y-102011758D01*
X179972542Y-101630398D01*
X180105023Y-101235128D01*
X180200468Y-100829320D01*
X180258063Y-100416436D01*
X180260183Y-100370595D01*
X180277182Y-100002898D01*
X180277316Y-100000000D01*
X180265044Y-99734561D01*
X180258197Y-99586455D01*
X180258196Y-99586448D01*
X180258063Y-99583564D01*
X180221852Y-99323973D01*
X180200871Y-99173568D01*
X180200870Y-99173565D01*
X180200468Y-99170680D01*
X180140976Y-98917734D01*
X180105691Y-98767711D01*
X180105689Y-98767705D01*
X180105023Y-98764872D01*
X179972542Y-98369602D01*
X179804155Y-97988242D01*
X179758688Y-97906612D01*
X179602721Y-97626598D01*
X179601299Y-97624045D01*
X179365704Y-97280119D01*
X179363856Y-97277893D01*
X179363848Y-97277883D01*
X179101238Y-96961635D01*
X179101235Y-96961632D01*
X179099381Y-96959399D01*
X178804601Y-96664619D01*
X178802365Y-96662762D01*
X178486117Y-96400152D01*
X178486107Y-96400144D01*
X178483881Y-96398296D01*
X178139955Y-96162701D01*
X177924305Y-96042585D01*
X177778315Y-95961269D01*
X177778311Y-95961267D01*
X177775758Y-95959845D01*
X177394398Y-95791458D01*
X176999128Y-95658977D01*
X176996295Y-95658311D01*
X176996289Y-95658309D01*
X176815703Y-95615836D01*
X176593320Y-95563532D01*
X176590435Y-95563130D01*
X176590432Y-95563129D01*
X176183303Y-95506337D01*
X176183304Y-95506337D01*
X176180436Y-95505937D01*
X176177552Y-95505804D01*
X176177545Y-95505803D01*
X175901517Y-95493042D01*
X175789919Y-95487883D01*
X175784485Y-95487513D01*
X175781355Y-95487232D01*
X175776552Y-95486424D01*
X175770059Y-95486345D01*
X175768860Y-95486330D01*
X175768857Y-95486330D01*
X175764000Y-95486271D01*
X175738058Y-95489986D01*
X175736376Y-95490227D01*
X175718514Y-95491500D01*
X173134500Y-95491500D01*
X173066379Y-95471498D01*
X173019886Y-95417842D01*
X173008500Y-95365500D01*
X173008500Y-94553250D01*
X173010246Y-94532345D01*
X173012770Y-94517344D01*
X173012770Y-94517341D01*
X173013576Y-94512552D01*
X173013729Y-94500000D01*
X173013040Y-94495186D01*
X173013039Y-94495176D01*
X173010682Y-94478720D01*
X173009888Y-94471839D01*
X173004144Y-94406186D01*
X172996972Y-94324207D01*
X172951300Y-94153755D01*
X172948977Y-94148773D01*
X172879049Y-93998811D01*
X172879046Y-93998806D01*
X172876723Y-93993824D01*
X172775507Y-93849273D01*
X172650727Y-93724493D01*
X172646219Y-93721336D01*
X172646216Y-93721334D01*
X172586874Y-93679783D01*
X172506176Y-93623277D01*
X172501194Y-93620954D01*
X172501189Y-93620951D01*
X172351227Y-93551023D01*
X172351226Y-93551022D01*
X172346245Y-93548700D01*
X172340937Y-93547278D01*
X172340935Y-93547277D01*
X172181108Y-93504452D01*
X172181107Y-93504452D01*
X172175793Y-93503028D01*
X172046288Y-93491698D01*
X172036374Y-93490432D01*
X172025444Y-93488593D01*
X172017344Y-93487230D01*
X172017342Y-93487230D01*
X172012552Y-93486424D01*
X172006276Y-93486347D01*
X172004860Y-93486330D01*
X172004857Y-93486330D01*
X172000000Y-93486271D01*
X171974058Y-93489986D01*
X171972376Y-93490227D01*
X171954514Y-93491500D01*
X96434500Y-93491500D01*
X96366379Y-93471498D01*
X96319886Y-93417842D01*
X96308500Y-93365500D01*
X96308500Y-90553250D01*
X96310246Y-90532345D01*
X96312770Y-90517344D01*
X96312770Y-90517341D01*
X96313576Y-90512552D01*
X96313729Y-90500000D01*
X96313039Y-90495178D01*
X96312926Y-90493449D01*
X96312052Y-90484195D01*
X96295798Y-90132638D01*
X96295797Y-90132631D01*
X96295664Y-90129747D01*
X96244457Y-89762653D01*
X96159597Y-89401850D01*
X96041808Y-89050416D01*
X95892095Y-88711349D01*
X95826672Y-88593891D01*
X95713158Y-88390095D01*
X95711736Y-88387542D01*
X95502269Y-88081759D01*
X95265482Y-87796606D01*
X95003394Y-87534518D01*
X94954267Y-87493724D01*
X127386309Y-87493724D01*
X127388345Y-87509290D01*
X127388929Y-87514644D01*
X127390668Y-87534518D01*
X127403028Y-87675793D01*
X127404452Y-87681107D01*
X127404452Y-87681108D01*
X127416572Y-87726339D01*
X127448700Y-87846245D01*
X127451022Y-87851226D01*
X127451023Y-87851227D01*
X127520951Y-88001189D01*
X127520954Y-88001194D01*
X127523277Y-88006176D01*
X127574847Y-88079826D01*
X127587500Y-88097895D01*
X127624493Y-88150727D01*
X127749273Y-88275507D01*
X127753781Y-88278664D01*
X127753784Y-88278666D01*
X127813126Y-88320217D01*
X127893824Y-88376723D01*
X127898806Y-88379046D01*
X127898811Y-88379049D01*
X128048773Y-88448977D01*
X128053755Y-88451300D01*
X128059063Y-88452722D01*
X128059065Y-88452723D01*
X128218892Y-88495548D01*
X128218893Y-88495548D01*
X128224207Y-88496972D01*
X128353712Y-88508302D01*
X128363626Y-88509568D01*
X128374556Y-88511407D01*
X128382656Y-88512770D01*
X128382658Y-88512770D01*
X128387448Y-88513576D01*
X128393724Y-88513653D01*
X128395140Y-88513670D01*
X128395143Y-88513670D01*
X128400000Y-88513729D01*
X128427624Y-88509773D01*
X128445486Y-88508500D01*
X132346750Y-88508500D01*
X132367655Y-88510246D01*
X132382656Y-88512770D01*
X132382659Y-88512770D01*
X132387448Y-88513576D01*
X132393525Y-88513650D01*
X132395135Y-88513670D01*
X132395139Y-88513670D01*
X132400000Y-88513729D01*
X132404814Y-88513040D01*
X132404824Y-88513039D01*
X132421280Y-88510682D01*
X132428149Y-88509889D01*
X132575793Y-88496972D01*
X132581107Y-88495548D01*
X132581108Y-88495548D01*
X132740935Y-88452723D01*
X132740937Y-88452722D01*
X132746245Y-88451300D01*
X132751227Y-88448977D01*
X132901189Y-88379049D01*
X132901194Y-88379046D01*
X132906176Y-88376723D01*
X132986874Y-88320217D01*
X133046216Y-88278666D01*
X133046219Y-88278664D01*
X133050727Y-88275507D01*
X133175507Y-88150727D01*
X133212501Y-88097895D01*
X133225153Y-88079826D01*
X133276723Y-88006176D01*
X133279046Y-88001194D01*
X133279049Y-88001189D01*
X133348977Y-87851227D01*
X133348978Y-87851226D01*
X133351300Y-87846245D01*
X133383429Y-87726339D01*
X133395548Y-87681108D01*
X133395548Y-87681107D01*
X133396972Y-87675793D01*
X133408302Y-87546288D01*
X133409569Y-87536368D01*
X133412770Y-87517344D01*
X133412770Y-87517342D01*
X133413576Y-87512552D01*
X133413729Y-87500000D01*
X133409773Y-87472376D01*
X133408500Y-87454514D01*
X133408500Y-85540589D01*
X145888220Y-85540589D01*
X145893762Y-85723796D01*
X145932239Y-85903003D01*
X146002389Y-86072338D01*
X146101916Y-86226254D01*
X146227557Y-86359708D01*
X146232148Y-86363086D01*
X146232153Y-86363090D01*
X146370598Y-86464943D01*
X146370602Y-86464945D01*
X146375197Y-86468326D01*
X146380332Y-86470826D01*
X146380334Y-86470827D01*
X146416988Y-86488670D01*
X146539998Y-86548552D01*
X146716561Y-86597756D01*
X146722246Y-86598272D01*
X146722251Y-86598273D01*
X146817106Y-86606883D01*
X146854120Y-86610243D01*
X146863619Y-86611471D01*
X146881747Y-86614519D01*
X146881752Y-86614519D01*
X146886549Y-86615326D01*
X146891407Y-86615385D01*
X146891409Y-86615385D01*
X146893188Y-86615406D01*
X146899101Y-86615478D01*
X146903915Y-86614788D01*
X146903917Y-86614788D01*
X146926699Y-86611523D01*
X146944573Y-86610249D01*
X156845761Y-86610249D01*
X156866679Y-86611997D01*
X156886447Y-86615325D01*
X156891301Y-86615385D01*
X156891306Y-86615385D01*
X156892769Y-86615403D01*
X156898999Y-86615479D01*
X156920114Y-86612457D01*
X156926549Y-86611705D01*
X157081517Y-86597638D01*
X157258060Y-86548440D01*
X157422841Y-86468224D01*
X157429283Y-86463485D01*
X157562469Y-86365500D01*
X157570464Y-86359618D01*
X157574378Y-86355461D01*
X157574381Y-86355458D01*
X157648009Y-86277251D01*
X157696090Y-86226180D01*
X157795605Y-86072283D01*
X157865747Y-85902968D01*
X157904219Y-85723782D01*
X157909761Y-85540597D01*
X157882190Y-85359413D01*
X157880314Y-85353974D01*
X157841885Y-85242607D01*
X157822410Y-85186168D01*
X157766221Y-85086540D01*
X157735185Y-85031509D01*
X157735183Y-85031507D01*
X157732380Y-85026536D01*
X157728725Y-85022151D01*
X157728720Y-85022143D01*
X157643975Y-84920456D01*
X157638127Y-84912871D01*
X157627455Y-84897882D01*
X157624632Y-84893917D01*
X157615865Y-84884933D01*
X157593533Y-84868196D01*
X157580003Y-84856466D01*
X157444455Y-84720919D01*
X157410430Y-84658607D01*
X157407550Y-84631823D01*
X157407550Y-81977869D01*
X169886689Y-81977869D01*
X169903238Y-82264883D01*
X169904063Y-82269088D01*
X169904064Y-82269096D01*
X169936010Y-82431921D01*
X169958586Y-82546995D01*
X169959973Y-82551045D01*
X169959974Y-82551050D01*
X170035557Y-82771807D01*
X170051710Y-82818986D01*
X170053637Y-82822817D01*
X170141310Y-82997135D01*
X170180885Y-83075822D01*
X170343721Y-83312750D01*
X170537206Y-83525388D01*
X170540501Y-83528143D01*
X170540502Y-83528144D01*
X170591258Y-83570582D01*
X170757759Y-83709798D01*
X171001298Y-83862571D01*
X171263318Y-83980877D01*
X171267437Y-83982097D01*
X171534857Y-84061311D01*
X171534862Y-84061312D01*
X171538970Y-84062529D01*
X171543204Y-84063177D01*
X171543209Y-84063178D01*
X171791811Y-84101219D01*
X171823153Y-84106015D01*
X171969485Y-84108314D01*
X172106317Y-84110464D01*
X172106323Y-84110464D01*
X172110608Y-84110531D01*
X172114860Y-84110016D01*
X172114868Y-84110016D01*
X172391756Y-84076508D01*
X172391761Y-84076507D01*
X172396017Y-84075992D01*
X172674097Y-84003039D01*
X172939704Y-83893021D01*
X173187922Y-83747974D01*
X173414159Y-83570582D01*
X173455285Y-83528144D01*
X173611244Y-83367206D01*
X173614227Y-83364128D01*
X173616760Y-83360680D01*
X173616764Y-83360675D01*
X173781887Y-83135886D01*
X173784425Y-83132431D01*
X173921604Y-82879779D01*
X174023225Y-82610848D01*
X174087407Y-82330613D01*
X174101675Y-82170748D01*
X174112743Y-82046726D01*
X174112743Y-82046724D01*
X174112963Y-82044260D01*
X174113427Y-82000000D01*
X174093873Y-81713175D01*
X174089336Y-81691264D01*
X174050734Y-81504865D01*
X174035574Y-81431658D01*
X173939607Y-81160657D01*
X173812545Y-80914479D01*
X173809715Y-80908995D01*
X173809715Y-80908994D01*
X173807750Y-80905188D01*
X173798747Y-80892377D01*
X173644904Y-80673482D01*
X173642441Y-80669977D01*
X173495038Y-80511353D01*
X173449661Y-80462521D01*
X173449658Y-80462519D01*
X173446740Y-80459378D01*
X173224268Y-80277287D01*
X172979142Y-80127073D01*
X172961048Y-80119130D01*
X172719830Y-80013243D01*
X172715898Y-80011517D01*
X172689963Y-80004129D01*
X172443534Y-79933932D01*
X172443535Y-79933932D01*
X172439406Y-79932756D01*
X172226704Y-79902485D01*
X172159036Y-79892854D01*
X172159034Y-79892854D01*
X172154784Y-79892249D01*
X172150495Y-79892227D01*
X172150488Y-79892226D01*
X171871583Y-79890765D01*
X171871576Y-79890765D01*
X171867297Y-79890743D01*
X171863053Y-79891302D01*
X171863049Y-79891302D01*
X171737660Y-79907810D01*
X171582266Y-79928268D01*
X171578126Y-79929401D01*
X171578124Y-79929401D01*
X171501311Y-79950415D01*
X171304964Y-80004129D01*
X171301016Y-80005813D01*
X171044476Y-80115237D01*
X171044472Y-80115239D01*
X171040524Y-80116923D01*
X170915960Y-80191473D01*
X170797521Y-80262357D01*
X170797517Y-80262360D01*
X170793839Y-80264561D01*
X170569472Y-80444313D01*
X170452372Y-80567711D01*
X170399642Y-80623277D01*
X170371577Y-80652851D01*
X170302125Y-80749504D01*
X170222085Y-80860891D01*
X170203814Y-80886317D01*
X170069288Y-81140392D01*
X170033207Y-81238987D01*
X169980661Y-81382578D01*
X169970489Y-81410373D01*
X169909245Y-81691264D01*
X169908909Y-81695534D01*
X169887196Y-81971428D01*
X169887195Y-81971428D01*
X169887196Y-81971430D01*
X169886689Y-81977869D01*
X157407550Y-81977869D01*
X157407550Y-81471674D01*
X157427552Y-81403553D01*
X157444455Y-81382578D01*
X157497347Y-81329687D01*
X157574491Y-81252543D01*
X157590516Y-81238991D01*
X157606828Y-81227380D01*
X157615813Y-81218614D01*
X157618727Y-81214727D01*
X157618735Y-81214718D01*
X157627774Y-81202662D01*
X157631802Y-81197568D01*
X157728666Y-81081369D01*
X157732323Y-81076982D01*
X157822380Y-80917349D01*
X157831782Y-80890113D01*
X157859784Y-80808990D01*
X157882184Y-80744097D01*
X157885170Y-80724493D01*
X157908915Y-80568556D01*
X157909776Y-80562902D01*
X157908595Y-80523725D01*
X157904422Y-80385409D01*
X157904250Y-80379701D01*
X157880114Y-80267243D01*
X157866988Y-80206083D01*
X157866987Y-80206080D01*
X157865789Y-80200498D01*
X157795653Y-80031165D01*
X157731637Y-79932152D01*
X157699243Y-79882048D01*
X157699242Y-79882046D01*
X157696140Y-79877249D01*
X157570510Y-79743795D01*
X157422880Y-79635175D01*
X157258087Y-79554948D01*
X157081532Y-79505743D01*
X157075850Y-79505227D01*
X157075849Y-79505227D01*
X156943991Y-79493257D01*
X156934493Y-79492029D01*
X156930108Y-79491292D01*
X156911551Y-79488172D01*
X156906691Y-79488113D01*
X156906689Y-79488113D01*
X156905032Y-79488093D01*
X156898999Y-79488020D01*
X156894185Y-79488710D01*
X156894183Y-79488710D01*
X156871401Y-79491975D01*
X156853527Y-79493249D01*
X146952327Y-79493249D01*
X146931410Y-79491501D01*
X146925951Y-79490582D01*
X146911653Y-79488175D01*
X146906799Y-79488115D01*
X146906794Y-79488115D01*
X146905355Y-79488098D01*
X146899101Y-79488021D01*
X146894288Y-79488710D01*
X146894285Y-79488710D01*
X146881205Y-79490582D01*
X146874746Y-79491337D01*
X146867718Y-79491975D01*
X146716560Y-79505697D01*
X146539996Y-79554904D01*
X146375196Y-79635135D01*
X146227559Y-79743760D01*
X146101923Y-79877220D01*
X146098821Y-79882017D01*
X146098820Y-79882019D01*
X146065256Y-79933932D01*
X146002405Y-80031143D01*
X145932266Y-80200484D01*
X145931068Y-80206066D01*
X145931067Y-80206069D01*
X145917938Y-80267243D01*
X145893803Y-80379696D01*
X145893631Y-80385404D01*
X145889459Y-80523725D01*
X145888277Y-80562905D01*
X145889138Y-80568556D01*
X145889138Y-80568559D01*
X145915009Y-80738452D01*
X145915870Y-80744108D01*
X145941249Y-80817631D01*
X145966269Y-80890113D01*
X145975677Y-80917369D01*
X146065738Y-81077009D01*
X146069394Y-81081395D01*
X146069399Y-81081402D01*
X146154163Y-81183084D01*
X146160006Y-81190660D01*
X146173518Y-81209632D01*
X146176913Y-81213110D01*
X146176916Y-81213113D01*
X146178890Y-81215135D01*
X146178893Y-81215138D01*
X146182287Y-81218614D01*
X146186179Y-81221530D01*
X146204590Y-81235325D01*
X146218132Y-81247065D01*
X146353645Y-81382578D01*
X146387671Y-81444890D01*
X146390550Y-81471673D01*
X146390550Y-84631823D01*
X146370548Y-84699944D01*
X146353646Y-84720918D01*
X146223586Y-84850979D01*
X146207569Y-84864527D01*
X146191220Y-84876167D01*
X146187742Y-84879561D01*
X146187736Y-84879566D01*
X146185719Y-84881535D01*
X146182236Y-84884934D01*
X146179316Y-84888830D01*
X146179310Y-84888837D01*
X146172230Y-84898283D01*
X146168198Y-84903383D01*
X146069281Y-85022075D01*
X146069276Y-85022083D01*
X146065621Y-85026468D01*
X146062818Y-85031439D01*
X146062816Y-85031441D01*
X146055258Y-85044842D01*
X145975581Y-85186118D01*
X145915794Y-85359384D01*
X145888220Y-85540589D01*
X133408500Y-85540589D01*
X133408500Y-81553250D01*
X133410246Y-81532345D01*
X133412770Y-81517344D01*
X133412770Y-81517341D01*
X133413576Y-81512552D01*
X133413729Y-81500000D01*
X133413040Y-81495186D01*
X133413039Y-81495176D01*
X133410682Y-81478720D01*
X133409888Y-81471839D01*
X133409874Y-81471674D01*
X133396972Y-81324207D01*
X133376302Y-81247065D01*
X133352723Y-81159065D01*
X133352722Y-81159063D01*
X133351300Y-81153755D01*
X133348977Y-81148773D01*
X133279049Y-80998811D01*
X133279046Y-80998806D01*
X133276723Y-80993824D01*
X133193598Y-80875109D01*
X133178666Y-80853784D01*
X133178664Y-80853781D01*
X133175507Y-80849273D01*
X133050727Y-80724493D01*
X133046219Y-80721336D01*
X133046216Y-80721334D01*
X132972870Y-80669977D01*
X132906176Y-80623277D01*
X132901194Y-80620954D01*
X132901189Y-80620951D01*
X132751227Y-80551023D01*
X132751226Y-80551022D01*
X132746245Y-80548700D01*
X132740937Y-80547278D01*
X132740935Y-80547277D01*
X132581108Y-80504452D01*
X132581107Y-80504452D01*
X132575793Y-80503028D01*
X132446288Y-80491698D01*
X132436374Y-80490432D01*
X132425444Y-80488593D01*
X132417344Y-80487230D01*
X132417342Y-80487230D01*
X132412552Y-80486424D01*
X132406276Y-80486347D01*
X132404860Y-80486330D01*
X132404857Y-80486330D01*
X132400000Y-80486271D01*
X132375679Y-80489754D01*
X132372376Y-80490227D01*
X132354514Y-80491500D01*
X128453250Y-80491500D01*
X128432345Y-80489754D01*
X128417344Y-80487230D01*
X128417341Y-80487230D01*
X128412552Y-80486424D01*
X128406475Y-80486350D01*
X128404865Y-80486330D01*
X128404861Y-80486330D01*
X128400000Y-80486271D01*
X128395186Y-80486960D01*
X128395176Y-80486961D01*
X128378720Y-80489318D01*
X128371851Y-80490111D01*
X128224207Y-80503028D01*
X128218893Y-80504452D01*
X128218892Y-80504452D01*
X128059065Y-80547277D01*
X128059063Y-80547278D01*
X128053755Y-80548700D01*
X128048774Y-80551022D01*
X128048773Y-80551023D01*
X127898811Y-80620951D01*
X127898806Y-80620954D01*
X127893824Y-80623277D01*
X127827130Y-80669977D01*
X127753784Y-80721334D01*
X127753781Y-80721336D01*
X127749273Y-80724493D01*
X127624493Y-80849273D01*
X127621336Y-80853781D01*
X127621334Y-80853784D01*
X127606402Y-80875109D01*
X127523277Y-80993824D01*
X127520954Y-80998806D01*
X127520951Y-80998811D01*
X127451023Y-81148773D01*
X127448700Y-81153755D01*
X127447278Y-81159063D01*
X127447277Y-81159065D01*
X127423698Y-81247065D01*
X127403028Y-81324207D01*
X127396086Y-81403553D01*
X127390987Y-81461839D01*
X127389969Y-81470224D01*
X127386309Y-81493724D01*
X127388771Y-81512552D01*
X127390436Y-81525283D01*
X127391500Y-81541621D01*
X127391500Y-87450633D01*
X127390000Y-87470018D01*
X127387690Y-87484851D01*
X127387690Y-87484855D01*
X127386309Y-87493724D01*
X94954267Y-87493724D01*
X94718241Y-87297731D01*
X94412458Y-87088264D01*
X94283141Y-87016235D01*
X94091208Y-86909329D01*
X94091204Y-86909327D01*
X94088651Y-86907905D01*
X93749584Y-86758192D01*
X93398150Y-86640403D01*
X93395317Y-86639737D01*
X93395311Y-86639735D01*
X93177191Y-86588434D01*
X93037347Y-86555543D01*
X93034462Y-86555141D01*
X93034459Y-86555140D01*
X92725030Y-86511977D01*
X92670253Y-86504336D01*
X92667369Y-86504203D01*
X92667362Y-86504202D01*
X92426528Y-86493068D01*
X92331403Y-86488670D01*
X92321038Y-86487562D01*
X92317350Y-86487231D01*
X92312552Y-86486424D01*
X92306276Y-86486347D01*
X92304860Y-86486330D01*
X92304857Y-86486330D01*
X92300000Y-86486271D01*
X92274058Y-86489986D01*
X92272376Y-86490227D01*
X92254514Y-86491500D01*
X85398500Y-86491500D01*
X85330379Y-86471498D01*
X85283886Y-86417842D01*
X85272500Y-86365500D01*
X85272500Y-85540589D01*
X102888220Y-85540589D01*
X102893762Y-85723796D01*
X102932239Y-85903003D01*
X103002389Y-86072338D01*
X103101916Y-86226254D01*
X103227557Y-86359708D01*
X103232148Y-86363086D01*
X103232153Y-86363090D01*
X103370598Y-86464943D01*
X103370602Y-86464945D01*
X103375197Y-86468326D01*
X103380332Y-86470826D01*
X103380334Y-86470827D01*
X103416988Y-86488670D01*
X103539998Y-86548552D01*
X103716561Y-86597756D01*
X103722246Y-86598272D01*
X103722251Y-86598273D01*
X103817106Y-86606883D01*
X103854120Y-86610243D01*
X103863619Y-86611471D01*
X103881747Y-86614519D01*
X103881752Y-86614519D01*
X103886549Y-86615326D01*
X103891407Y-86615385D01*
X103891409Y-86615385D01*
X103893188Y-86615406D01*
X103899101Y-86615478D01*
X103903915Y-86614788D01*
X103903917Y-86614788D01*
X103926699Y-86611523D01*
X103944573Y-86610249D01*
X113845761Y-86610249D01*
X113866679Y-86611997D01*
X113886447Y-86615325D01*
X113891301Y-86615385D01*
X113891306Y-86615385D01*
X113892769Y-86615403D01*
X113898999Y-86615479D01*
X113920114Y-86612457D01*
X113926549Y-86611705D01*
X114081517Y-86597638D01*
X114258060Y-86548440D01*
X114422841Y-86468224D01*
X114429283Y-86463485D01*
X114562469Y-86365500D01*
X114570464Y-86359618D01*
X114574378Y-86355461D01*
X114574381Y-86355458D01*
X114648009Y-86277251D01*
X114696090Y-86226180D01*
X114795605Y-86072283D01*
X114865747Y-85902968D01*
X114904219Y-85723782D01*
X114909761Y-85540597D01*
X114882190Y-85359413D01*
X114880314Y-85353974D01*
X114841885Y-85242607D01*
X114822410Y-85186168D01*
X114766221Y-85086540D01*
X114735185Y-85031509D01*
X114735183Y-85031507D01*
X114732380Y-85026536D01*
X114728725Y-85022151D01*
X114728720Y-85022143D01*
X114643975Y-84920456D01*
X114638127Y-84912871D01*
X114627455Y-84897882D01*
X114624632Y-84893917D01*
X114615865Y-84884933D01*
X114593533Y-84868196D01*
X114580003Y-84856466D01*
X114444455Y-84720919D01*
X114410430Y-84658607D01*
X114407550Y-84631823D01*
X114407550Y-81471674D01*
X114427552Y-81403553D01*
X114444455Y-81382578D01*
X114497347Y-81329687D01*
X114574491Y-81252543D01*
X114590516Y-81238991D01*
X114606828Y-81227380D01*
X114615813Y-81218614D01*
X114618727Y-81214727D01*
X114618735Y-81214718D01*
X114627774Y-81202662D01*
X114631802Y-81197568D01*
X114728666Y-81081369D01*
X114732323Y-81076982D01*
X114822380Y-80917349D01*
X114831782Y-80890113D01*
X114859784Y-80808990D01*
X114882184Y-80744097D01*
X114885170Y-80724493D01*
X114908915Y-80568556D01*
X114909776Y-80562902D01*
X114908595Y-80523725D01*
X114904422Y-80385409D01*
X114904250Y-80379701D01*
X114880114Y-80267243D01*
X114866988Y-80206083D01*
X114866987Y-80206080D01*
X114865789Y-80200498D01*
X114795653Y-80031165D01*
X114731637Y-79932152D01*
X114699243Y-79882048D01*
X114699242Y-79882046D01*
X114696140Y-79877249D01*
X114570510Y-79743795D01*
X114422880Y-79635175D01*
X114258087Y-79554948D01*
X114081532Y-79505743D01*
X114075850Y-79505227D01*
X114075849Y-79505227D01*
X113943991Y-79493257D01*
X113934493Y-79492029D01*
X113930108Y-79491292D01*
X113911551Y-79488172D01*
X113906691Y-79488113D01*
X113906689Y-79488113D01*
X113905032Y-79488093D01*
X113898999Y-79488020D01*
X113894185Y-79488710D01*
X113894183Y-79488710D01*
X113871401Y-79491975D01*
X113853527Y-79493249D01*
X103952327Y-79493249D01*
X103931410Y-79491501D01*
X103925951Y-79490582D01*
X103911653Y-79488175D01*
X103906799Y-79488115D01*
X103906794Y-79488115D01*
X103905355Y-79488098D01*
X103899101Y-79488021D01*
X103894288Y-79488710D01*
X103894285Y-79488710D01*
X103881205Y-79490582D01*
X103874746Y-79491337D01*
X103867718Y-79491975D01*
X103716560Y-79505697D01*
X103539996Y-79554904D01*
X103375196Y-79635135D01*
X103227559Y-79743760D01*
X103101923Y-79877220D01*
X103098821Y-79882017D01*
X103098820Y-79882019D01*
X103065256Y-79933932D01*
X103002405Y-80031143D01*
X102932266Y-80200484D01*
X102931068Y-80206066D01*
X102931067Y-80206069D01*
X102917938Y-80267243D01*
X102893803Y-80379696D01*
X102893631Y-80385404D01*
X102889459Y-80523725D01*
X102888277Y-80562905D01*
X102889138Y-80568556D01*
X102889138Y-80568559D01*
X102915009Y-80738452D01*
X102915870Y-80744108D01*
X102941249Y-80817631D01*
X102966269Y-80890113D01*
X102975677Y-80917369D01*
X103065738Y-81077009D01*
X103069394Y-81081395D01*
X103069399Y-81081402D01*
X103154163Y-81183084D01*
X103160006Y-81190660D01*
X103173518Y-81209632D01*
X103176913Y-81213110D01*
X103176916Y-81213113D01*
X103178890Y-81215135D01*
X103178893Y-81215138D01*
X103182287Y-81218614D01*
X103186179Y-81221530D01*
X103204590Y-81235325D01*
X103218132Y-81247065D01*
X103353645Y-81382578D01*
X103387671Y-81444890D01*
X103390550Y-81471673D01*
X103390550Y-84631823D01*
X103370548Y-84699944D01*
X103353646Y-84720918D01*
X103223586Y-84850979D01*
X103207569Y-84864527D01*
X103191220Y-84876167D01*
X103187742Y-84879561D01*
X103187736Y-84879566D01*
X103185719Y-84881535D01*
X103182236Y-84884934D01*
X103179316Y-84888830D01*
X103179310Y-84888837D01*
X103172230Y-84898283D01*
X103168198Y-84903383D01*
X103069281Y-85022075D01*
X103069276Y-85022083D01*
X103065621Y-85026468D01*
X103062818Y-85031439D01*
X103062816Y-85031441D01*
X103055258Y-85044842D01*
X102975581Y-85186118D01*
X102915794Y-85359384D01*
X102888220Y-85540589D01*
X85272500Y-85540589D01*
X85272500Y-81977869D01*
X86686689Y-81977869D01*
X86703238Y-82264883D01*
X86704063Y-82269088D01*
X86704064Y-82269096D01*
X86736010Y-82431921D01*
X86758586Y-82546995D01*
X86759973Y-82551045D01*
X86759974Y-82551050D01*
X86835557Y-82771807D01*
X86851710Y-82818986D01*
X86853637Y-82822817D01*
X86941310Y-82997135D01*
X86980885Y-83075822D01*
X87143721Y-83312750D01*
X87337206Y-83525388D01*
X87340501Y-83528143D01*
X87340502Y-83528144D01*
X87391258Y-83570582D01*
X87557759Y-83709798D01*
X87801298Y-83862571D01*
X88063318Y-83980877D01*
X88067437Y-83982097D01*
X88334857Y-84061311D01*
X88334862Y-84061312D01*
X88338970Y-84062529D01*
X88343204Y-84063177D01*
X88343209Y-84063178D01*
X88591811Y-84101219D01*
X88623153Y-84106015D01*
X88769485Y-84108314D01*
X88906317Y-84110464D01*
X88906323Y-84110464D01*
X88910608Y-84110531D01*
X88914860Y-84110016D01*
X88914868Y-84110016D01*
X89191756Y-84076508D01*
X89191761Y-84076507D01*
X89196017Y-84075992D01*
X89474097Y-84003039D01*
X89739704Y-83893021D01*
X89987922Y-83747974D01*
X90214159Y-83570582D01*
X90255285Y-83528144D01*
X90411244Y-83367206D01*
X90414227Y-83364128D01*
X90416760Y-83360680D01*
X90416764Y-83360675D01*
X90581887Y-83135886D01*
X90584425Y-83132431D01*
X90721604Y-82879779D01*
X90823225Y-82610848D01*
X90887407Y-82330613D01*
X90901675Y-82170748D01*
X90912743Y-82046726D01*
X90912743Y-82046724D01*
X90912963Y-82044260D01*
X90913427Y-82000000D01*
X90893873Y-81713175D01*
X90889336Y-81691264D01*
X90850734Y-81504865D01*
X90835574Y-81431658D01*
X90739607Y-81160657D01*
X90612545Y-80914479D01*
X90609715Y-80908995D01*
X90609715Y-80908994D01*
X90607750Y-80905188D01*
X90598747Y-80892377D01*
X90444904Y-80673482D01*
X90442441Y-80669977D01*
X90295038Y-80511353D01*
X90249661Y-80462521D01*
X90249658Y-80462519D01*
X90246740Y-80459378D01*
X90024268Y-80277287D01*
X89779142Y-80127073D01*
X89761048Y-80119130D01*
X89519830Y-80013243D01*
X89515898Y-80011517D01*
X89489963Y-80004129D01*
X89243534Y-79933932D01*
X89243535Y-79933932D01*
X89239406Y-79932756D01*
X89026704Y-79902485D01*
X88959036Y-79892854D01*
X88959034Y-79892854D01*
X88954784Y-79892249D01*
X88950495Y-79892227D01*
X88950488Y-79892226D01*
X88671583Y-79890765D01*
X88671576Y-79890765D01*
X88667297Y-79890743D01*
X88663053Y-79891302D01*
X88663049Y-79891302D01*
X88537660Y-79907810D01*
X88382266Y-79928268D01*
X88378126Y-79929401D01*
X88378124Y-79929401D01*
X88301311Y-79950415D01*
X88104964Y-80004129D01*
X88101016Y-80005813D01*
X87844476Y-80115237D01*
X87844472Y-80115239D01*
X87840524Y-80116923D01*
X87715960Y-80191473D01*
X87597521Y-80262357D01*
X87597517Y-80262360D01*
X87593839Y-80264561D01*
X87369472Y-80444313D01*
X87252372Y-80567711D01*
X87199642Y-80623277D01*
X87171577Y-80652851D01*
X87102125Y-80749504D01*
X87022085Y-80860891D01*
X87003814Y-80886317D01*
X86869288Y-81140392D01*
X86833207Y-81238987D01*
X86780661Y-81382578D01*
X86770489Y-81410373D01*
X86709245Y-81691264D01*
X86708909Y-81695534D01*
X86687196Y-81971428D01*
X86687195Y-81971428D01*
X86687196Y-81971430D01*
X86686689Y-81977869D01*
X85272500Y-81977869D01*
X85272500Y-72986202D01*
X93011837Y-72986202D01*
X93027977Y-73178400D01*
X93029676Y-73184325D01*
X93063889Y-73303639D01*
X93081140Y-73363802D01*
X93083955Y-73369279D01*
X93083956Y-73369282D01*
X93129832Y-73458548D01*
X93169302Y-73535348D01*
X93173125Y-73540172D01*
X93173128Y-73540176D01*
X93261073Y-73651133D01*
X93289106Y-73686502D01*
X93435987Y-73811508D01*
X93604351Y-73905604D01*
X93787786Y-73965205D01*
X93979303Y-73988042D01*
X93985438Y-73987570D01*
X93985440Y-73987570D01*
X94165467Y-73973718D01*
X94165471Y-73973717D01*
X94171609Y-73973245D01*
X94357379Y-73921377D01*
X94438572Y-73880364D01*
X94524035Y-73837194D01*
X94524037Y-73837193D01*
X94529536Y-73834415D01*
X94681523Y-73715669D01*
X94685549Y-73711005D01*
X94685552Y-73711002D01*
X94803522Y-73574332D01*
X94803523Y-73574330D01*
X94807551Y-73569664D01*
X94870674Y-73458548D01*
X94899775Y-73407322D01*
X94899777Y-73407318D01*
X94902820Y-73401961D01*
X94963700Y-73218947D01*
X94969858Y-73170206D01*
X94987432Y-73031097D01*
X94987433Y-73031087D01*
X94987874Y-73027594D01*
X94988259Y-73000000D01*
X94969438Y-72808046D01*
X94913691Y-72623404D01*
X94844947Y-72494115D01*
X94826036Y-72458548D01*
X94826034Y-72458545D01*
X94823142Y-72453106D01*
X94819252Y-72448336D01*
X94819249Y-72448332D01*
X94705135Y-72308414D01*
X94705132Y-72308411D01*
X94701240Y-72303639D01*
X94696491Y-72299710D01*
X94557377Y-72184625D01*
X94557374Y-72184623D01*
X94552627Y-72180696D01*
X94382966Y-72088960D01*
X94290841Y-72060443D01*
X94204604Y-72033748D01*
X94204601Y-72033747D01*
X94198717Y-72031926D01*
X94192592Y-72031282D01*
X94192591Y-72031282D01*
X94013027Y-72012409D01*
X94013026Y-72012409D01*
X94006899Y-72011765D01*
X93927188Y-72019019D01*
X93820958Y-72028687D01*
X93820955Y-72028688D01*
X93814819Y-72029246D01*
X93808913Y-72030984D01*
X93808909Y-72030985D01*
X93670795Y-72071634D01*
X93629792Y-72083702D01*
X93458866Y-72173060D01*
X93308551Y-72293916D01*
X93304593Y-72298633D01*
X93304591Y-72298635D01*
X93287280Y-72319266D01*
X93184574Y-72441666D01*
X93181610Y-72447058D01*
X93181607Y-72447062D01*
X93128041Y-72544499D01*
X93091656Y-72610683D01*
X93033337Y-72794529D01*
X93032651Y-72800646D01*
X93032650Y-72800650D01*
X93015633Y-72952364D01*
X93011837Y-72986202D01*
X85272500Y-72986202D01*
X85272500Y-71634500D01*
X85292502Y-71566379D01*
X85346158Y-71519886D01*
X85398500Y-71508500D01*
X100680257Y-71508500D01*
X100748378Y-71528502D01*
G37*
G04 #@! TD.AperFunction*
M02*
