%TF.GenerationSoftware,KiCad,Pcbnew,(5.1.6-0-10_14)*%
%TF.CreationDate,2021-01-04T10:33:49+09:00*%
%TF.ProjectId,greengrass,67726565-6e67-4726-9173-732e6b696361,rev?*%
%TF.SameCoordinates,Original*%
%TF.FileFunction,Legend,Top*%
%TF.FilePolarity,Positive*%
%FSLAX46Y46*%
G04 Gerber Fmt 4.6, Leading zero omitted, Abs format (unit mm)*
G04 Created by KiCad (PCBNEW (5.1.6-0-10_14)) date 2021-01-04 10:33:49*
%MOMM*%
%LPD*%
G01*
G04 APERTURE LIST*
%ADD10C,0.150000*%
%ADD11C,0.125000*%
%ADD12C,0.120000*%
G04 APERTURE END LIST*
D10*
X128700000Y-64250000D02*
X128700000Y-78250000D01*
D11*
X126354761Y-75926190D02*
X126069047Y-75926190D01*
X126211904Y-75926190D02*
X126211904Y-75426190D01*
X126164285Y-75497619D01*
X126116666Y-75545238D01*
X126069047Y-75569047D01*
X126664285Y-75426190D02*
X126711904Y-75426190D01*
X126759523Y-75450000D01*
X126783333Y-75473809D01*
X126807142Y-75521428D01*
X126830952Y-75616666D01*
X126830952Y-75735714D01*
X126807142Y-75830952D01*
X126783333Y-75878571D01*
X126759523Y-75902380D01*
X126711904Y-75926190D01*
X126664285Y-75926190D01*
X126616666Y-75902380D01*
X126592857Y-75878571D01*
X126569047Y-75830952D01*
X126545238Y-75735714D01*
X126545238Y-75616666D01*
X126569047Y-75521428D01*
X126592857Y-75473809D01*
X126616666Y-75450000D01*
X126664285Y-75426190D01*
X127045238Y-75926190D02*
X127045238Y-75426190D01*
X127330952Y-75926190D02*
X127116666Y-75640476D01*
X127330952Y-75426190D02*
X127045238Y-75711904D01*
X128216666Y-64595238D02*
X128216666Y-64833333D01*
X128073809Y-64547619D02*
X128573809Y-64714285D01*
X128073809Y-64880952D01*
X128073809Y-65047619D02*
X128573809Y-65047619D01*
X128216666Y-65214285D01*
X128573809Y-65380952D01*
X128073809Y-65380952D01*
X128526190Y-65595238D02*
X128550000Y-65619047D01*
X128573809Y-65666666D01*
X128573809Y-65785714D01*
X128550000Y-65833333D01*
X128526190Y-65857142D01*
X128478571Y-65880952D01*
X128430952Y-65880952D01*
X128359523Y-65857142D01*
X128073809Y-65571428D01*
X128073809Y-65880952D01*
X128573809Y-66047619D02*
X128573809Y-66357142D01*
X128383333Y-66190476D01*
X128383333Y-66261904D01*
X128359523Y-66309523D01*
X128335714Y-66333333D01*
X128288095Y-66357142D01*
X128169047Y-66357142D01*
X128121428Y-66333333D01*
X128097619Y-66309523D01*
X128073809Y-66261904D01*
X128073809Y-66119047D01*
X128097619Y-66071428D01*
X128121428Y-66047619D01*
X128573809Y-66666666D02*
X128573809Y-66714285D01*
X128550000Y-66761904D01*
X128526190Y-66785714D01*
X128478571Y-66809523D01*
X128383333Y-66833333D01*
X128264285Y-66833333D01*
X128169047Y-66809523D01*
X128121428Y-66785714D01*
X128097619Y-66761904D01*
X128073809Y-66714285D01*
X128073809Y-66666666D01*
X128097619Y-66619047D01*
X128121428Y-66595238D01*
X128169047Y-66571428D01*
X128264285Y-66547619D01*
X128383333Y-66547619D01*
X128478571Y-66571428D01*
X128526190Y-66595238D01*
X128550000Y-66619047D01*
X128573809Y-66666666D01*
X128526190Y-67023809D02*
X128550000Y-67047619D01*
X128573809Y-67095238D01*
X128573809Y-67214285D01*
X128550000Y-67261904D01*
X128526190Y-67285714D01*
X128478571Y-67309523D01*
X128430952Y-67309523D01*
X128359523Y-67285714D01*
X128073809Y-67000000D01*
X128073809Y-67309523D01*
X128264285Y-67523809D02*
X128264285Y-67904761D01*
X128073809Y-68404761D02*
X128073809Y-68119047D01*
X128073809Y-68261904D02*
X128573809Y-68261904D01*
X128502380Y-68214285D01*
X128454761Y-68166666D01*
X128430952Y-68119047D01*
X124073809Y-65414285D02*
X124311904Y-65247619D01*
X124073809Y-65128571D02*
X124573809Y-65128571D01*
X124573809Y-65319047D01*
X124550000Y-65366666D01*
X124526190Y-65390476D01*
X124478571Y-65414285D01*
X124407142Y-65414285D01*
X124359523Y-65390476D01*
X124335714Y-65366666D01*
X124311904Y-65319047D01*
X124311904Y-65128571D01*
X124216666Y-65604761D02*
X124216666Y-65842857D01*
X124073809Y-65557142D02*
X124573809Y-65723809D01*
X124073809Y-65890476D01*
X124097619Y-66033333D02*
X124073809Y-66104761D01*
X124073809Y-66223809D01*
X124097619Y-66271428D01*
X124121428Y-66295238D01*
X124169047Y-66319047D01*
X124216666Y-66319047D01*
X124264285Y-66295238D01*
X124288095Y-66271428D01*
X124311904Y-66223809D01*
X124335714Y-66128571D01*
X124359523Y-66080952D01*
X124383333Y-66057142D01*
X124430952Y-66033333D01*
X124478571Y-66033333D01*
X124526190Y-66057142D01*
X124550000Y-66080952D01*
X124573809Y-66128571D01*
X124573809Y-66247619D01*
X124550000Y-66319047D01*
X124073809Y-66533333D02*
X124573809Y-66533333D01*
X124573809Y-66723809D01*
X124550000Y-66771428D01*
X124526190Y-66795238D01*
X124478571Y-66819047D01*
X124407142Y-66819047D01*
X124359523Y-66795238D01*
X124335714Y-66771428D01*
X124311904Y-66723809D01*
X124311904Y-66533333D01*
X124073809Y-67295238D02*
X124073809Y-67009523D01*
X124073809Y-67152380D02*
X124573809Y-67152380D01*
X124502380Y-67104761D01*
X124454761Y-67057142D01*
X124430952Y-67009523D01*
D12*
%TO.C,J1*%
X121695001Y-77685001D02*
X124355001Y-77685001D01*
X121695001Y-67465001D02*
X121695001Y-77685001D01*
X124355001Y-67465001D02*
X124355001Y-77685001D01*
X121695001Y-67465001D02*
X124355001Y-67465001D01*
X121695001Y-66195001D02*
X121695001Y-64865001D01*
X121695001Y-64865001D02*
X123025001Y-64865001D01*
%TO.C,J3*%
X125505001Y-75145001D02*
X128165001Y-75145001D01*
X125505001Y-67465001D02*
X125505001Y-75145001D01*
X128165001Y-67465001D02*
X128165001Y-75145001D01*
X125505001Y-67465001D02*
X128165001Y-67465001D01*
X125505001Y-66195001D02*
X125505001Y-64865001D01*
X125505001Y-64865001D02*
X126835001Y-64865001D01*
%TO.C,R1*%
X126100000Y-76120000D02*
X127100000Y-76120000D01*
X127100000Y-77480000D02*
X126100000Y-77480000D01*
%TD*%
M02*
