0
SECTION
2
HEADER
9
$INSUNITS
70
4
9
$ACADVER
1
AC1014
9
$HANDSEED
5
FFFF
0
ENDSEC
0
SECTION
2
TABLES
0
TABLE
2
VPORT
5
8
100
AcDbSymbolTable
0
ENDTAB
0
TABLE
2
LTYPE
5
5
100
AcDbSymbolTable
0
LTYPE
5
14
100
AcDbSymbolTableRecord
100
AcDbLinetypeTableRecord
2
BYBLOCK
70
0
0
LTYPE
5
15
100
AcDbSymbolTableRecord
100
AcDbLinetypeTableRecord
2
BYLAYER
70
0
0
ENDTAB
0
TABLE
2
LAYER
5
2
100
AcDbSymbolTable
70
2
0
LAYER
5
50
100
AcDbSymbolTableRecord
100
AcDbLayerTableRecord
2
0
70
0
6
CONTINUOUS
0
ENDTAB
0
TABLE
2
STYLE
5
3
100
AcDbSymbolTable
70
1
0
STYLE
5
11
100
AcDbSymbolTableRecord
100
AcDbTextStyleTableRecord
2
STANDARD
70
0
0
ENDTAB
0
TABLE
2
VIEW
5
6
100
AcDbSymbolTable
70
0
0
ENDTAB
0
TABLE
2
UCS
5
7
100
AcDbSymbolTable
70
0
0
ENDTAB
0
TABLE
2
APPID
5
9
100
AcDbSymbolTable
70
2
0
APPID
5
12
100
AcDbSymbolTableRecord
100
AcDbRegAppTableRecord
2
ACAD
70
0
0
ENDTAB
0
TABLE
2
DIMSTYLE
5
A
100
AcDbSymbolTable
70
1
0
ENDTAB
0
TABLE
2
BLOCK_RECORD
5
1
100
AcDbSymbolTable
70
1
0
BLOCK_RECORD
5
1F
100
AcDbSymbolTableRecord
100
AcDbBlockTableRecord
2
*MODEL_SPACE
0
BLOCK_RECORD
5
1B
100
AcDbSymbolTableRecord
100
AcDbBlockTableRecord
2
*PAPER_SPACE
0
ENDTAB
0
ENDSEC
0
SECTION
2
BLOCKS
0
BLOCK
5
20
100
AcDbEntity
100
AcDbBlockBegin
2
*MODEL_SPACE
0
ENDBLK
5
21
100
AcDbEntity
100
AcDbBlockEnd
0
BLOCK
5
1C
100
AcDbEntity
100
AcDbBlockBegin
2
*PAPER_SPACE
0
ENDBLK
5
1D
100
AcDbEntity
100
AcDbBlockEnd
0
ENDSEC
0
SECTION
2
ENTITIES
0
CIRCLE
5
100
100
AcDbEntity
8
0
100
AcDbCircle
10
-8.2331944495418803
20
-43.283651046069977
30
0
40
1.5999999999999979
210
-3.8518598887744726e-34
220
-6.39375432992368e-50
230
1
0
CIRCLE
5
101
100
AcDbEntity
8
0
100
AcDbCircle
10
-8.2330038877964942
20
-59.284901043184981
30
0
40
1.6000000000000003
210
-1.2154326714572282e-63
220
4.9303806576313238e-32
230
1
0
CIRCLE
5
102
100
AcDbEntity
8
0
100
AcDbCircle
10
175.46010509421694
20
-31.778336749896884
30
0
40
1.6000000000000014
210
-3.8518598887744717e-34
220
-6.39375432992368e-50
230
1
0
LWPOLYLINE
5
103
100
AcDbEntity
8
0
100
AcDbPolyline
90
4
70
1
43
0.0
10
152.39397724426507
20
-54.533947490046408
10
157.39397724426507
20
-54.533947490046408
42
0.99999999999999989
10
157.39397724426507
20
-48.033947490046415
10
152.39397724426507
20
-48.033947490046423
42
0.99999999999999989
0
LWPOLYLINE
5
104
100
AcDbEntity
8
0
100
AcDbPolyline
90
4
70
1
43
0.0
10
180.45833774244599
20
-40.317733165965244
10
180.45833774244599
20
-75.317733165965194
10
185.95833774244599
20
-75.317733165965194
10
185.95833774244596
20
-40.317733165965244
0
LWPOLYLINE
5
105
100
AcDbEntity
8
0
100
AcDbPolyline
90
8
70
1
43
0.0
10
185.95833774244596
20
0.68226683403471822
42
-0.41421356237309448
10
190.95833774244596
20
-4.3177331659652651
10
190.95833774244591
20
-104.31773316596517
42
-0.41421356237309814
10
185.95833774244596
20
-109.31773316596517
10
-23.001646056684123
20
-109.31773316596512
42
-0.4142135623730992
10
-28.001646056684123
20
-104.31773316596508
10
-28.001646056684134
20
-4.3177331659652189
42
-0.41421356237309509
10
-23.001646056684137
20
0.68226683403477617
0
LWPOLYLINE
5
106
100
AcDbEntity
8
0
100
AcDbPolyline
90
8
70
1
43
0.0
10
16.393977244265017
20
-66.28309055556943
10
126.39397724426516
20
-66.283090555569316
42
0.41421356237309448
10
131.39397724426513
20
-61.283090555569288
10
131.39397724426505
20
-41.284804424523507
42
0.41421356237308882
10
126.39397724426505
20
-36.284804424523429
10
16.393977244264978
20
-36.284804424523607
42
0.41421356237308982
10
11.393977244264978
20
-41.284804424523514
10
11.393977244264999
20
-61.283090555569366
42
0.41421356237310125
0
LWPOLYLINE
5
107
100
AcDbEntity
8
0
100
AcDbPolyline
90
8
70
1
43
0.0
10
135.29466707462285
20
-12.704336749896935
10
153.49466707462284
20
-12.704336749896939
10
154.19466707462283
20
-12.004336749896936
10
154.19466707462283
20
-7.9043367498969292
10
153.49466707462284
20
-7.2043367498969282
10
135.29466707462285
20
-7.2043367498969282
10
134.59466707462283
20
-7.9043367498969275
10
134.59466707462283
20
-12.004336749896932
0
CIRCLE
5
108
100
AcDbEntity
8
0
100
AcDbCircle
10
131.89397724426487
20
-30.784804424523585
30
0
40
4.0000000000000036
210
3.4578893436820226e-50
220
-4.9303806576313249e-32
230
1
0
CIRCLE
5
109
100
AcDbEntity
8
0
100
AcDbCircle
10
12.893977244264963
20
-30.784804424523546
30
0
40
3.9999999999999991
210
3.4578893436817781e-50
220
-4.9303806576313238e-32
230
1
0
CIRCLE
5
110
100
AcDbEntity
8
0
100
AcDbCircle
10
131.89397724426496
20
-71.783090555569387
30
0
40
4.0000000000000036
210
3.4578893436820226e-50
220
-4.9303806576313249e-32
230
1
0
CIRCLE
5
111
100
AcDbEntity
8
0
100
AcDbCircle
10
12.893977244265002
20
-71.783090555569359
30
0
40
3.9999999999999991
210
3.4578893436817781e-50
220
-4.9303806576313238e-32
230
1
0
CIRCLE
5
112
100
AcDbEntity
8
0
100
AcDbCircle
10
108.88807668572646
20
-88.782359352635254
30
0
40
2.5
210
-4.7377876631926002e-32
220
-7.8975459812188454e-48
230
1
0
CIRCLE
5
113
100
AcDbEntity
8
0
100
AcDbCircle
10
33.887493450759401
20
-13.782942592137813
30
0
40
2.5
210
-4.7377876631926002e-32
220
-7.8975459812188478e-48
230
1
0
CIRCLE
5
114
100
AcDbEntity
8
0
100
AcDbCircle
10
108.88749344849168
20
-13.782359354903033
30
0
40
2.5
210
-4.7377876631926002e-32
220
-7.897545981218843e-48
230
1
0
CIRCLE
5
115
100
AcDbEntity
8
0
100
AcDbCircle
10
33.888076687994165
20
-88.782942589870046
30
0
40
2.5
210
-4.7377876631926002e-32
220
-7.8975459812188478e-48
230
1
0
LWPOLYLINE
5
116
100
AcDbEntity
8
0
100
AcDbPolyline
90
4
70
1
43
0.0
10
-22.999878704912913
20
-15.7783367498969
10
-22.999878704912916
20
-84.778336749896823
10
-17.499878704912909
20
-84.778336749896823
10
-17.499878704912923
20
-15.778336749896912
0
LWPOLYLINE
5
117
100
AcDbEntity
8
0
100
AcDbPolyline
90
4
70
1
43
0.0
10
159.39420989249379
20
-98.817733165965208
10
119.39359209890172
20
-98.817733165965194
10
119.39359209890172
20
-104.31773316596518
10
159.39420989249379
20
-104.31773316596521
0
CIRCLE
5
118
100
AcDbEntity
8
0
100
AcDbCircle
10
-12.501646056684086
20
-12.817733165965219
30
0
40
1.6000000000000014
210
-3.8518598887744717e-34
220
2.1320779818738393e-50
230
1
0
LWPOLYLINE
5
119
100
AcDbEntity
8
0
100
AcDbPolyline
90
4
70
1
43
0.0
10
-23.001878704912855
20
-12.317732914096943
10
-17.499878704912923
20
-12.317732914096934
10
-17.499878704912923
20
-5.2783367498969387
10
-23.001878704912855
20
-5.2783367498969511
0
CIRCLE
5
120
100
AcDbEntity
8
0
100
AcDbCircle
10
-12.501646056684139
20
-87.817733165965166
30
0
40
1.6000000000000003
210
-3.8518598887743627e-34
220
4.9303806576313238e-32
230
1
0
LWPOLYLINE
5
121
100
AcDbEntity
8
0
100
AcDbPolyline
90
4
70
1
43
0.0
10
36.845592098901705
20
-104.31773316596517
10
36.845592098901705
20
-98.817733165965137
10
6.8455920989017072
20
-98.817733165965095
10
6.8455920989017027
20
-104.31773316596512
0
LWPOLYLINE
5
122
100
AcDbEntity
8
0
100
AcDbPolyline
90
4
70
1
43
0.0
10
-17.49987870491282
20
-94.27833674989688
10
-17.49987870491282
20
-89.27833674989688
10
-22.999878704912827
20
-89.278336749896908
10
-22.999878704912827
20
-94.278336749896908
0
ENDSEC
0
SECTION
2
OBJECTS
0
DICTIONARY
5
C
100
AcDbDictionary
3
ACAD_GROUP
350
D
3
ACAD_MLINESTYLE
350
17
0
DICTIONARY
5
D
100
AcDbDictionary
0
DICTIONARY
5
1A
330
C
100
AcDbDictionary
0
DICTIONARY
5
17
100
AcDbDictionary
0
ENDSEC
0
EOF
