0
SECTION
2
HEADER
9
$INSUNITS
70
4
9
$ACADVER
1
AC1014
9
$HANDSEED
5
FFFF
0
ENDSEC
0
SECTION
2
TABLES
0
TABLE
2
VPORT
5
8
100
AcDbSymbolTable
0
ENDTAB
0
TABLE
2
LTYPE
5
5
100
AcDbSymbolTable
0
LTYPE
5
14
100
AcDbSymbolTableRecord
100
AcDbLinetypeTableRecord
2
BYBLOCK
70
0
0
LTYPE
5
15
100
AcDbSymbolTableRecord
100
AcDbLinetypeTableRecord
2
BYLAYER
70
0
0
ENDTAB
0
TABLE
2
LAYER
5
2
100
AcDbSymbolTable
70
2
0
LAYER
5
50
100
AcDbSymbolTableRecord
100
AcDbLayerTableRecord
2
0
70
0
6
CONTINUOUS
0
ENDTAB
0
TABLE
2
STYLE
5
3
100
AcDbSymbolTable
70
1
0
STYLE
5
11
100
AcDbSymbolTableRecord
100
AcDbTextStyleTableRecord
2
STANDARD
70
0
0
ENDTAB
0
TABLE
2
VIEW
5
6
100
AcDbSymbolTable
70
0
0
ENDTAB
0
TABLE
2
UCS
5
7
100
AcDbSymbolTable
70
0
0
ENDTAB
0
TABLE
2
APPID
5
9
100
AcDbSymbolTable
70
2
0
APPID
5
12
100
AcDbSymbolTableRecord
100
AcDbRegAppTableRecord
2
ACAD
70
0
0
ENDTAB
0
TABLE
2
DIMSTYLE
5
A
100
AcDbSymbolTable
70
1
0
ENDTAB
0
TABLE
2
BLOCK_RECORD
5
1
100
AcDbSymbolTable
70
1
0
BLOCK_RECORD
5
1F
100
AcDbSymbolTableRecord
100
AcDbBlockTableRecord
2
*MODEL_SPACE
0
BLOCK_RECORD
5
1B
100
AcDbSymbolTableRecord
100
AcDbBlockTableRecord
2
*PAPER_SPACE
0
ENDTAB
0
ENDSEC
0
SECTION
2
BLOCKS
0
BLOCK
5
20
100
AcDbEntity
100
AcDbBlockBegin
2
*MODEL_SPACE
0
ENDBLK
5
21
100
AcDbEntity
100
AcDbBlockEnd
0
BLOCK
5
1C
100
AcDbEntity
100
AcDbBlockBegin
2
*PAPER_SPACE
0
ENDBLK
5
1D
100
AcDbEntity
100
AcDbBlockEnd
0
ENDSEC
0
SECTION
2
ENTITIES
0
CIRCLE
5
100
100
AcDbEntity
8
0
100
AcDbCircle
10
26.044246233996393
20
-51.279582792560461
30
0
40
1.4999999999999993
210
0
220
2.4651903288156619e-32
230
1
0
CIRCLE
5
101
100
AcDbEntity
8
0
100
AcDbCircle
10
120.04424623399643
20
-41.77958279256049
30
0
40
1.5000000000000038
210
-7.8886090522101181e-31
220
1.0691058839865449e-50
230
1
0
CIRCLE
5
102
100
AcDbEntity
8
0
100
AcDbCircle
10
120.04424623399643
20
-60.77958279256049
30
0
40
1.5000000000000038
210
-7.8886090522101181e-31
220
1.0691058839865449e-50
230
1
0
LWPOLYLINE
5
103
100
AcDbEntity
8
0
100
AcDbPolyline
90
35
70
1
43
0.0
10
122.48142951050954
20
-8.7835258290437697
42
-0.41421356237309465
10
127.48142951050954
20
-13.783525829043768
10
127.48142951050954
20
-88.783525826776014
42
-0.41421356237309087
10
122.48142951050959
20
-93.783525826776014
10
-1.9998866655683754
20
-93.783525826776057
42
-0.4142135623730932
10
-6.9998866655684111
20
-88.783525826776014
10
-6.9998866655683809
20
-87.778336749568126
42
0.41421356237309137
10
-12.499886665568381
20
-82.278336749568126
10
-22.99988666556839
20
-82.278336749568112
10
-22.999886665568354
20
-77.253667459226648
42
-0.41421356237307944
10
-22.499886665568376
20
-76.753667459226634
10
25.673012441900198
20
-76.753667459226889
42
0.41421356237309509
10
26.173012441900223
20
-76.253667459226889
10
26.173012441900177
20
-75.560334125892879
42
0.41421356237307944
10
25.673012441900205
20
-75.060334125892879
10
-22.499886665568383
20
-75.060334125892638
42
-0.41421356237309509
10
-22.99988666556839
20
-74.560334125892624
10
-22.999886665568397
20
-71.278749792562166
10
11.308105233996315
20
-71.278749792562166
42
0.41421356237309509
10
16.308105233996297
20
-66.278749792562166
10
16.308105233996315
20
-36.278749792562174
42
0.41421356237309448
10
11.308105233996324
20
-31.278749792562177
10
-22.99988666556839
20
-31.278749792562174
10
-22.999886665568351
20
-27.996667459226671
42
-0.41421356237307944
10
-22.499886665568376
20
-27.496667459226668
10
25.673012441900536
20
-27.496667459226924
42
0.41421356237309243
10
26.173012441900543
20
-26.996667459226931
10
26.173012441900532
20
-26.303334125892917
42
0.41421356237308204
10
25.673012441900561
20
-25.803334125892921
10
-22.499886665568383
20
-25.803334125892675
42
-0.41421356237309243
10
-22.99988666556839
20
-25.303334125892675
10
-22.99988666556839
20
-18.278336749568108
10
-12.499886665568347
20
-18.278336749568105
42
0.3864020200265918
10
-7.0251475235921079
20
-13.30486436262678
42
-0.38640202002659002
10
-2.0481119399773817
20
-8.7835258290437608
0
CIRCLE
5
104
100
AcDbEntity
8
0
100
AcDbCircle
10
109.46830411213129
20
-60.782129723127298
30
0
40
1.5500000000000025
210
-7.8886090522101198e-31
220
5.6796250084261723e-51
230
1
0
CIRCLE
5
105
100
AcDbEntity
8
0
100
AcDbCircle
10
109.46847406146679
20
-41.784484416730919
30
0
40
1.5500000000000025
210
-7.8886090522101198e-31
220
5.6796250084261723e-51
230
1
0
CIRCLE
5
106
100
AcDbEntity
8
0
100
AcDbCircle
10
108.88806872507102
20
-88.782359352306472
30
0
40
2.5000000000000004
210
-0
220
0
230
1
0
CIRCLE
5
107
100
AcDbEntity
8
0
100
AcDbCircle
10
33.887485490103977
20
-13.782942591809004
30
0
40
2.5000000000000004
210
-0
220
0
230
1
0
CIRCLE
5
108
100
AcDbEntity
8
0
100
AcDbCircle
10
33.888068727338734
20
-88.782942589541264
30
0
40
2.5000000000000004
210
-0
220
0
230
1
0
CIRCLE
5
109
100
AcDbEntity
8
0
100
AcDbCircle
10
108.88748548783626
20
-13.782359354574226
30
0
40
2.5000000000000004
210
-0
220
0
230
1
0
CIRCLE
5
110
100
AcDbEntity
8
0
100
AcDbCircle
10
33.30792282945508
20
-51.282729877337516
30
0
40
1.5500000000000025
210
-7.8886090522101198e-31
220
1.069105883986545e-50
230
1
0
LWPOLYLINE
5
111
100
AcDbEntity
8
0
100
AcDbPolyline
90
35
70
1
43
0.0
10
115.78142951050958
20
-69.279333029795055
10
115.78142951050958
20
-68.064584061882954
42
0.41421356237309509
10
112.9814295105096
20
-65.264584061882942
10
110.48127557354701
20
-65.264584061882957
42
-0.40908358176498844
10
109.48142951050954
20
-64.282129723127298
10
109.46830411213129
20
-64.282129723127298
42
-0.99999999999999989
10
109.46830411213129
20
-57.282129723127298
10
109.48142951050954
20
-57.282129723127298
10
109.48142951050954
20
-45.284484416730919
10
109.46845611728517
20
-45.284484416684911
42
-0.99999743654876883
10
109.46847406146679
20
-38.284484416730933
10
109.48142951050954
20
-38.284484416730933
10
109.48142951050954
20
-38.282358849416873
42
-0.4142135623730937
10
110.48142951050954
20
-37.28235884941688
10
112.9814295105096
20
-37.282358849416873
42
0.41421356237309509
10
115.78142951050958
20
-34.482358849416876
10
115.78142951050957
20
-33.279333029795119
42
0.41421356237309176
10
112.98142951050956
20
-30.479333029795104
10
29.781429510509572
20
-30.479333029795104
42
0.41421356237309592
10
26.98142951050956
20
-33.279333029795104
10
26.98142951050955
20
-34.482358849416876
42
0.41421356237309509
10
29.781429510509554
20
-37.28235884941688
10
32.281429510509568
20
-37.28235884941688
42
-0.41421356237308982
10
33.281429510509568
20
-38.282358849416866
10
33.281429510509561
20
-46.889293324712426
42
0.35169537582822247
10
34.065094692497468
20
-47.86561255862911
42
-0.80267309581116186
10
34.065094692497468
20
-54.699847196045923
42
0.35169537582822191
10
33.281429510509568
20
-55.676166429962606
10
33.281429510509561
20
-64.264584061882957
42
-0.41421356237309509
10
32.281429510509568
20
-65.264584061882942
10
29.781429510509554
20
-65.264584061882957
42
0.41421356237309509
10
26.98142951050956
20
-68.064584061882954
10
26.981429510509574
20
-69.279333029795055
42
0.41421356237309509
10
29.781429510509572
20
-72.079333029795066
10
112.98142951050956
20
-72.079333029795094
42
0.41421356237309875
0
LWPOLYLINE
5
112
100
AcDbEntity
8
0
100
AcDbPolyline
90
8
70
1
43
0.0
10
29.000113334431656
20
-16.778525829043758
10
29.000113334431656
20
-12.033525829043757
42
0.41421356237308654
10
28.000113334431667
20
-11.03352582904375
10
-3.9998866655683329
20
-11.033525829043755
42
0.41421356237309509
10
-4.9998866655683827
20
-12.033525829043757
10
-4.9998866655683329
20
-16.778525829043758
42
0.41421356237308726
10
-3.9998866655683596
20
-17.778525829043762
10
28.000113334431624
20
-17.778525829043758
42
0.41421356237309509
0
ENDSEC
0
SECTION
2
OBJECTS
0
DICTIONARY
5
C
100
AcDbDictionary
3
ACAD_GROUP
350
D
3
ACAD_MLINESTYLE
350
17
0
DICTIONARY
5
D
100
AcDbDictionary
0
DICTIONARY
5
1A
330
C
100
AcDbDictionary
0
DICTIONARY
5
17
100
AcDbDictionary
0
ENDSEC
0
EOF
