0
SECTION
2
HEADER
9
$INSUNITS
70
4
9
$ACADVER
1
AC1014
9
$HANDSEED
5
FFFF
0
ENDSEC
0
SECTION
2
TABLES
0
TABLE
2
VPORT
5
8
100
AcDbSymbolTable
0
ENDTAB
0
TABLE
2
LTYPE
5
5
100
AcDbSymbolTable
0
LTYPE
5
14
100
AcDbSymbolTableRecord
100
AcDbLinetypeTableRecord
2
BYBLOCK
70
0
0
LTYPE
5
15
100
AcDbSymbolTableRecord
100
AcDbLinetypeTableRecord
2
BYLAYER
70
0
0
ENDTAB
0
TABLE
2
LAYER
5
2
100
AcDbSymbolTable
70
2
0
LAYER
5
50
100
AcDbSymbolTableRecord
100
AcDbLayerTableRecord
2
0
70
0
6
CONTINUOUS
0
ENDTAB
0
TABLE
2
STYLE
5
3
100
AcDbSymbolTable
70
1
0
STYLE
5
11
100
AcDbSymbolTableRecord
100
AcDbTextStyleTableRecord
2
STANDARD
70
0
0
ENDTAB
0
TABLE
2
VIEW
5
6
100
AcDbSymbolTable
70
0
0
ENDTAB
0
TABLE
2
UCS
5
7
100
AcDbSymbolTable
70
0
0
ENDTAB
0
TABLE
2
APPID
5
9
100
AcDbSymbolTable
70
2
0
APPID
5
12
100
AcDbSymbolTableRecord
100
AcDbRegAppTableRecord
2
ACAD
70
0
0
ENDTAB
0
TABLE
2
DIMSTYLE
5
A
100
AcDbSymbolTable
70
1
0
ENDTAB
0
TABLE
2
BLOCK_RECORD
5
1
100
AcDbSymbolTable
70
1
0
BLOCK_RECORD
5
1F
100
AcDbSymbolTableRecord
100
AcDbBlockTableRecord
2
*MODEL_SPACE
0
BLOCK_RECORD
5
1B
100
AcDbSymbolTableRecord
100
AcDbBlockTableRecord
2
*PAPER_SPACE
0
ENDTAB
0
ENDSEC
0
SECTION
2
BLOCKS
0
BLOCK
5
20
100
AcDbEntity
100
AcDbBlockBegin
2
*MODEL_SPACE
0
ENDBLK
5
21
100
AcDbEntity
100
AcDbBlockEnd
0
BLOCK
5
1C
100
AcDbEntity
100
AcDbBlockBegin
2
*PAPER_SPACE
0
ENDBLK
5
1D
100
AcDbEntity
100
AcDbBlockEnd
0
ENDSEC
0
SECTION
2
ENTITIES
0
CIRCLE
5
100
100
AcDbEntity
8
0
100
AcDbCircle
10
-175.46010561620963
20
-31.778336749569114
30
0
40
1.6000000000000003
210
-0
220
0
230
1
0
CIRCLE
5
101
100
AcDbEntity
8
0
100
AcDbCircle
10
-175.46010561620977
20
-87.778336749569107
30
0
40
1.6000000000000003
210
-0
220
0
230
1
0
CIRCLE
5
102
100
AcDbEntity
8
0
100
AcDbCircle
10
-165.46010561620986
20
43.259837164445763
30
0
40
1.6000000000000003
210
-0
220
0
230
1
0
CIRCLE
5
103
100
AcDbEntity
8
0
100
AcDbCircle
10
2.4998781829201255
20
43.259837164445763
30
0
40
1.6000000000000003
210
-0
220
0
230
1
0
LWPOLYLINE
5
104
100
AcDbEntity
8
0
100
AcDbPolyline
90
4
70
1
43
0.0
10
-185.96010561620994
20
-35.278336749569178
10
-185.96010561620994
20
-65.278336749569164
10
-180.46010561620994
20
-65.278336749569149
10
-180.46010561620992
20
-35.278336749569164
0
LWPOLYLINE
5
105
100
AcDbEntity
8
0
100
AcDbPolyline
90
4
70
1
43
0.0
10
-6.8473599726657319
20
-104.27833674956916
10
-6.8473599726657319
20
-98.778336749569149
10
-36.847359972665714
20
-98.778336749569121
10
-36.847359972665721
20
-104.27833674956915
0
LWPOLYLINE
5
106
100
AcDbEntity
8
0
100
AcDbPolyline
90
4
70
1
43
0.0
10
23.001878182920194
20
-35.278336749569135
10
17.499878182920085
20
-35.278336749569156
10
17.499878182920089
20
-65.278336749569164
10
23.001878182920187
20
-65.278336749569121
0
LWPOLYLINE
5
107
100
AcDbEntity
8
0
100
AcDbPolyline
90
4
70
1
43
0.0
10
-185.96010561620997
20
14.721663250417468
10
-180.46010561620994
20
14.721663250417469
10
-180.46010561620992
20
44.72166325041745
10
-185.96010561620994
20
44.72166325041745
0
LWPOLYLINE
5
108
100
AcDbEntity
8
0
100
AcDbPolyline
90
4
70
1
43
0.0
10
-116.8473599726657
20
-104.27833674956916
10
-116.8473599726657
20
-98.778336749569164
10
-146.84735997266563
20
-98.778336749569149
10
-146.84735997266563
20
-104.27833674956915
0
LWPOLYLINE
5
109
100
AcDbEntity
8
0
100
AcDbPolyline
90
4
70
1
43
0.0
10
23.001878182920187
20
44.72166325041745
10
17.499878182920085
20
44.72166325041745
10
17.499878182920085
20
14.721663250417469
10
23.001878182920187
20
14.721663250417475
0
CIRCLE
5
110
100
AcDbEntity
8
0
100
AcDbCircle
10
12.49987818292009
20
-87.778336749569149
30
0
40
1.5999999999999994
210
0
220
-0
230
1
0
CIRCLE
5
111
100
AcDbEntity
8
0
100
AcDbCircle
10
12.499878182920076
20
-12.778336749569178
30
0
40
1.6000000000000003
210
0
220
-0
230
1
0
CIRCLE
5
112
100
AcDbEntity
8
0
100
AcDbCircle
10
-71.387785590235836
20
-51.282650972058754
30
0
40
48.000000000000014
210
-0
220
0
230
1
0
CIRCLE
5
113
100
AcDbEntity
8
0
100
AcDbCircle
10
-112.63778559023572
20
-92.532650972058718
30
0
40
2.1499999999999977
210
9.7050146780818234e-62
220
-6.1629758220391547e-33
230
1
0
CIRCLE
5
114
100
AcDbEntity
8
0
100
AcDbCircle
10
-30.137785590235797
20
-92.532650972058718
30
0
40
2.1499999999999977
210
9.7050146780818234e-62
220
-6.1629758220391547e-33
230
1
0
CIRCLE
5
115
100
AcDbEntity
8
0
100
AcDbCircle
10
-112.63778559023572
20
-10.032650972058747
30
0
40
2.1499999999999977
210
9.7050146780818234e-62
220
-6.1629758220391547e-33
230
1
0
CIRCLE
5
116
100
AcDbEntity
8
0
100
AcDbCircle
10
-30.137785590235797
20
-10.032650972058747
30
0
40
2.1499999999999977
210
9.7050146780818234e-62
220
-6.1629758220391547e-33
230
1
0
LWPOLYLINE
5
117
100
AcDbEntity
8
0
100
AcDbPolyline
90
8
70
1
43
0.0
10
22.999878182920082
20
72.75983716444577
42
-0.41421356237309426
10
27.999878182920082
20
67.759837164445784
10
27.999878182920078
20
-104.2783360204691
42
-0.4142135623730927
10
22.999878182920099
20
-109.27833602046908
10
-185.96010561620994
20
-109.27833602046906
42
-0.41421356237309193
10
-190.96010561620994
20
-104.27833602046911
10
-190.96010561620994
20
67.75983716444577
42
-0.41421356237309342
10
-185.96010561620994
20
72.759837164445742
0
ENDSEC
0
SECTION
2
OBJECTS
0
DICTIONARY
5
C
100
AcDbDictionary
3
ACAD_GROUP
350
D
3
ACAD_MLINESTYLE
350
17
0
DICTIONARY
5
D
100
AcDbDictionary
0
DICTIONARY
5
1A
330
C
100
AcDbDictionary
0
DICTIONARY
5
17
100
AcDbDictionary
0
ENDSEC
0
EOF
