0
SECTION
2
HEADER
9
$INSUNITS
70
4
9
$ACADVER
1
AC1014
9
$HANDSEED
5
FFFF
0
ENDSEC
0
SECTION
2
TABLES
0
TABLE
2
VPORT
5
8
100
AcDbSymbolTable
0
ENDTAB
0
TABLE
2
LTYPE
5
5
100
AcDbSymbolTable
0
LTYPE
5
14
100
AcDbSymbolTableRecord
100
AcDbLinetypeTableRecord
2
BYBLOCK
70
0
0
LTYPE
5
15
100
AcDbSymbolTableRecord
100
AcDbLinetypeTableRecord
2
BYLAYER
70
0
0
ENDTAB
0
TABLE
2
LAYER
5
2
100
AcDbSymbolTable
70
2
0
LAYER
5
50
100
AcDbSymbolTableRecord
100
AcDbLayerTableRecord
2
0
70
0
6
CONTINUOUS
0
ENDTAB
0
TABLE
2
STYLE
5
3
100
AcDbSymbolTable
70
1
0
STYLE
5
11
100
AcDbSymbolTableRecord
100
AcDbTextStyleTableRecord
2
STANDARD
70
0
0
ENDTAB
0
TABLE
2
VIEW
5
6
100
AcDbSymbolTable
70
0
0
ENDTAB
0
TABLE
2
UCS
5
7
100
AcDbSymbolTable
70
0
0
ENDTAB
0
TABLE
2
APPID
5
9
100
AcDbSymbolTable
70
2
0
APPID
5
12
100
AcDbSymbolTableRecord
100
AcDbRegAppTableRecord
2
ACAD
70
0
0
ENDTAB
0
TABLE
2
DIMSTYLE
5
A
100
AcDbSymbolTable
70
1
0
ENDTAB
0
TABLE
2
BLOCK_RECORD
5
1
100
AcDbSymbolTable
70
1
0
BLOCK_RECORD
5
1F
100
AcDbSymbolTableRecord
100
AcDbBlockTableRecord
2
*MODEL_SPACE
0
BLOCK_RECORD
5
1B
100
AcDbSymbolTableRecord
100
AcDbBlockTableRecord
2
*PAPER_SPACE
0
ENDTAB
0
ENDSEC
0
SECTION
2
BLOCKS
0
BLOCK
5
20
100
AcDbEntity
100
AcDbBlockBegin
2
*MODEL_SPACE
0
ENDBLK
5
21
100
AcDbEntity
100
AcDbBlockEnd
0
BLOCK
5
1C
100
AcDbEntity
100
AcDbBlockBegin
2
*PAPER_SPACE
0
ENDBLK
5
1D
100
AcDbEntity
100
AcDbBlockEnd
0
ENDSEC
0
SECTION
2
ENTITIES
0
LWPOLYLINE
5
100
100
AcDbEntity
8
0
100
AcDbPolyline
90
46
70
1
43
0.0
10
162.39220734680157
20
-14.990000603436053
10
162.39220734680157
20
-18.990000603436055
42
0.99999999999999989
10
170.39220734680154
20
-18.990000603436055
10
170.39220734680154
20
-14.990000603436053
10
185.95833774244599
20
-14.990000603436025
10
185.95833774244599
20
-29.990000603436041
10
180.45833774244599
20
-29.990000603436041
10
180.45833774244599
20
-59.990000603436037
10
185.95833774244599
20
-59.99000060343603
10
185.95833774244599
20
-89.99000060343603
10
180.45833774244599
20
-89.99000060343603
10
180.45833774244599
20
-119.99000060343603
10
185.95833774244599
20
-119.99000060343603
10
185.95833774244599
20
-134.99000060343604
10
146.84559209890159
20
-134.99000060343602
10
146.84559209890162
20
-140.49000060343602
10
116.84559209890168
20
-140.49000060343602
10
116.84559209890168
20
-134.99000060343602
10
36.845592098901705
20
-134.99000060343602
10
36.84559209890169
20
-140.49000060343602
10
6.8455920989017134
20
-140.49000060343602
10
6.845592098901716
20
-134.99000060343602
10
-23.001646056684137
20
-134.99000060343604
10
-23.001646056684134
20
-119.99000060343604
10
-17.501646056684127
20
-119.99000060343604
10
-17.50164605668413
20
-89.990000603436044
10
-23.001646056684137
20
-89.990000603436044
10
-23.001646056684134
20
-59.990000603436044
10
-17.501646056684127
20
-59.990000603436044
10
-17.50164605668413
20
-29.990000603436048
10
-23.001646056684137
20
-29.990000603436048
10
-23.001646056684137
20
-14.990000603436043
10
6.8455920989016921
20
-14.990000603435991
10
6.8455920989016894
20
-9.4899689534360316
10
36.845592098901683
20
-9.4899689534360334
10
36.84559209890169
20
-14.990000603436034
10
119.39359209890169
20
-14.99000060343603
10
119.39359209890168
20
-9.4900006034360178
10
129.39220989249364
20
-9.4900005556736566
42
0.41417307906400452
10
139.3908276860856
20
0.50999934880161524
10
139.3908276860856
20
13.774499388573258
42
-0.99999999999999989
10
159.3908276860856
20
13.774499388573258
10
159.3908276860856
20
0.50999939656398052
10
159.39220989249361
20
0.50999939656398152
10
159.39220734680163
20
-9.4900006034360178
10
159.3922073468016
20
-14.990000603436036
0
LWPOLYLINE
5
101
100
AcDbEntity
8
0
100
AcDbPolyline
90
4
70
1
43
0.0
10
168.859977244265
20
-33.041200331090849
10
157.85997724426497
20
-33.041200331090849
10
157.85997724426497
20
-42.041200331090849
10
168.859977244265
20
-42.041200331090856
0
LWPOLYLINE
5
102
100
AcDbEntity
8
0
100
AcDbPolyline
90
4
70
1
43
0.0
10
156.85957724426473
20
-128.40210033109079
10
173.85957724426473
20
-128.40210033109105
10
173.85957724426498
20
-113.11790033109106
10
156.85957724426493
20
-113.11790033109079
0
LWPOLYLINE
5
103
100
AcDbEntity
8
0
100
AcDbPolyline
90
4
70
1
43
0.0
10
156.85957724426501
20
-110.40210033109084
10
173.85957724426501
20
-110.40210033109111
10
173.85957724426527
20
-95.117900331091093
10
156.85957724426521
20
-95.117900331090851
0
LWPOLYLINE
5
104
100
AcDbEntity
8
0
100
AcDbPolyline
90
4
70
1
43
0.0
10
156.85957724426527
20
-91.947500331090822
10
171.3595772442653
20
-91.947500331091035
10
171.35957724426555
20
-76.072500331091106
10
156.85957724426549
20
-76.072500331090879
0
CIRCLE
5
105
100
AcDbEntity
8
0
100
AcDbCircle
10
149.3908276860856
20
13.774499388573258
30
0
40
5.6993824446162469
210
9.1263766384536256e-41
220
-3.0004047807414152e-64
230
1
0
LWPOLYLINE
5
106
100
AcDbEntity
8
0
100
AcDbPolyline
90
8
70
1
43
0.0
10
121.38601771647186
20
-60.990000537187669
42
-0.41421356237309509
10
119.38601771647184
20
-62.990000537187669
10
113.38601771647183
20
-62.990000537187655
42
-0.41421356237309509
10
111.38601771647183
20
-60.990000537187669
10
111.38601771647181
20
-24.990000537187669
42
-0.41421356237309509
10
113.38601771647183
20
-22.990000537187669
10
119.38601771647184
20
-22.990000537187676
42
-0.4142135623730957
10
121.38601771647183
20
-24.990000537187672
0
LWPOLYLINE
5
107
100
AcDbEntity
8
0
100
AcDbPolyline
90
8
70
1
43
0.0
10
106.38601771647186
20
-60.990000537187669
42
-0.41421356237309509
10
104.38601771647184
20
-62.990000537187669
10
98.386017716471827
20
-62.990000537187655
42
-0.41421356237309509
10
96.386017716471827
20
-60.990000537187669
10
96.386017716471812
20
-24.990000537187669
42
-0.41421356237309509
10
98.386017716471827
20
-22.990000537187669
10
104.38601771647184
20
-22.990000537187676
42
-0.4142135623730957
10
106.38601771647183
20
-24.990000537187672
0
LWPOLYLINE
5
108
100
AcDbEntity
8
0
100
AcDbPolyline
90
8
70
1
43
0.0
10
91.386017716471855
20
-60.990000537187669
42
-0.41421356237309509
10
89.386017716471841
20
-62.990000537187669
10
83.386017716471827
20
-62.990000537187655
42
-0.41421356237309509
10
81.386017716471827
20
-60.990000537187669
10
81.386017716471812
20
-24.990000537187669
42
-0.41421356237309509
10
83.386017716471827
20
-22.990000537187669
10
89.386017716471841
20
-22.990000537187676
42
-0.4142135623730957
10
91.386017716471827
20
-24.990000537187672
0
LWPOLYLINE
5
109
100
AcDbEntity
8
0
100
AcDbPolyline
90
8
70
1
43
0.0
10
76.386017716471841
20
-60.990000537187669
42
-0.41421356237309243
10
74.386017716471841
20
-62.990000537187669
10
68.386017716471841
20
-62.990000537187669
42
-0.41421356237309243
10
66.386017716471841
20
-60.990000537187669
10
66.386017716471827
20
-24.990000537187669
42
-0.41421356237309176
10
68.386017716471841
20
-22.990000537187669
10
74.386017716471841
20
-22.990000537187672
42
-0.41421356237309509
10
76.386017716471841
20
-24.990000537187672
0
LWPOLYLINE
5
110
100
AcDbEntity
8
0
100
AcDbPolyline
90
8
70
1
43
0.0
10
61.386017716471855
20
-60.990000537187669
42
-0.41421356237309243
10
59.386017716471855
20
-62.990000537187669
10
53.386017716471855
20
-62.990000537187669
42
-0.41421356237309243
10
51.386017716471855
20
-60.990000537187669
10
51.386017716471848
20
-24.990000537187669
42
-0.41421356237309176
10
53.386017716471855
20
-22.990000537187669
10
59.386017716471855
20
-22.990000537187672
42
-0.41421356237309509
10
61.386017716471855
20
-24.990000537187672
0
LWPOLYLINE
5
111
100
AcDbEntity
8
0
100
AcDbPolyline
90
8
70
1
43
0.0
10
46.386017716471855
20
-60.990000537187669
42
-0.41421356237309243
10
44.386017716471855
20
-62.990000537187669
10
38.386017716471855
20
-62.990000537187676
42
-0.41421356237309309
10
36.386017716471848
20
-60.990000537187669
10
36.386017716471848
20
-24.990000537187669
42
-0.41421356237309109
10
38.386017716471848
20
-22.990000537187669
10
44.386017716471848
20
-22.990000537187672
42
-0.41421356237309637
10
46.386017716471855
20
-24.990000537187672
0
LWPOLYLINE
5
112
100
AcDbEntity
8
0
100
AcDbPolyline
90
8
70
1
43
0.0
10
31.386017716471844
20
-60.990000537187669
42
-0.41421356237309176
10
29.386017716471848
20
-62.990000537187669
10
23.386017716471848
20
-62.990000537187655
42
-0.41421356237309437
10
21.386017716471855
20
-60.990000537187669
10
21.386017716471855
20
-24.990000537187669
42
-0.4142135623730957
10
23.386017716471855
20
-22.990000537187669
10
29.386017716471851
20
-22.990000537187676
42
-0.41421356237309509
10
31.386017716471848
20
-24.990000537187672
0
LWPOLYLINE
5
113
100
AcDbEntity
8
0
100
AcDbPolyline
90
8
70
1
43
0.0
10
31.386017716471841
20
-105.99000053718765
42
-0.41421356237309509
10
29.386017716471848
20
-107.99000053718764
10
23.386017716471848
20
-107.99000053718764
42
-0.41421356237309509
10
21.386017716471855
20
-105.99000053718765
10
21.386017716471851
20
-69.990000537187669
42
-0.41421356237309509
10
23.386017716471855
20
-67.990000537187669
10
29.386017716471851
20
-67.990000537187683
42
-0.41421356237308915
10
31.386017716471848
20
-69.990000537187683
0
LWPOLYLINE
5
114
100
AcDbEntity
8
0
100
AcDbPolyline
90
8
70
1
43
0.0
10
46.386017716471848
20
-105.99000053718765
42
-0.41421356237309509
10
44.386017716471855
20
-107.99000053718764
10
38.386017716471855
20
-107.99000053718764
42
-0.41421356237309637
10
36.386017716471848
20
-105.99000053718765
10
36.386017716471855
20
-69.990000537187669
42
-0.41421356237309176
10
38.386017716471848
20
-67.990000537187669
10
44.386017716471848
20
-67.990000537187669
42
-0.41421356237309243
10
46.386017716471855
20
-69.990000537187683
0
LWPOLYLINE
5
115
100
AcDbEntity
8
0
100
AcDbPolyline
90
8
70
1
43
0.0
10
61.386017716471848
20
-105.99000053718765
42
-0.41421356237309509
10
59.386017716471855
20
-107.99000053718764
10
53.386017716471855
20
-107.99000053718764
42
-0.41421356237309509
10
51.386017716471855
20
-105.99000053718765
10
51.386017716471855
20
-69.990000537187669
42
-0.41421356237309243
10
53.386017716471855
20
-67.990000537187669
10
59.386017716471855
20
-67.990000537187669
42
-0.41421356237309109
10
61.386017716471855
20
-69.990000537187683
0
LWPOLYLINE
5
116
100
AcDbEntity
8
0
100
AcDbPolyline
90
8
70
1
43
0.0
10
76.386017716471827
20
-105.99000053718765
42
-0.41421356237309509
10
74.386017716471841
20
-107.99000053718764
10
68.386017716471841
20
-107.99000053718764
42
-0.41421356237309509
10
66.386017716471841
20
-105.99000053718765
10
66.386017716471841
20
-69.990000537187669
42
-0.41421356237309243
10
68.386017716471841
20
-67.990000537187669
10
74.386017716471841
20
-67.990000537187669
42
-0.41421356237309109
10
76.386017716471841
20
-69.990000537187683
0
LWPOLYLINE
5
117
100
AcDbEntity
8
0
100
AcDbPolyline
90
8
70
1
43
0.0
10
91.386017716471827
20
-105.99000053718765
42
-0.41421356237309509
10
89.386017716471841
20
-107.99000053718764
10
83.386017716471827
20
-107.99000053718764
42
-0.41421356237309509
10
81.386017716471827
20
-105.99000053718765
10
81.386017716471812
20
-69.990000537187669
42
-0.41421356237309509
10
83.386017716471827
20
-67.990000537187669
10
89.386017716471841
20
-67.990000537187669
42
-0.41421356237309243
10
91.386017716471827
20
-69.990000537187683
0
LWPOLYLINE
5
118
100
AcDbEntity
8
0
100
AcDbPolyline
90
8
70
1
43
0.0
10
106.38601771647183
20
-105.99000053718765
42
-0.41421356237309509
10
104.38601771647184
20
-107.99000053718764
10
98.386017716471827
20
-107.99000053718764
42
-0.41421356237309509
10
96.386017716471827
20
-105.99000053718765
10
96.386017716471812
20
-69.990000537187669
42
-0.41421356237309509
10
98.386017716471827
20
-67.990000537187669
10
104.38601771647184
20
-67.990000537187669
42
-0.41421356237309243
10
106.38601771647183
20
-69.990000537187683
0
LWPOLYLINE
5
119
100
AcDbEntity
8
0
100
AcDbPolyline
90
8
70
1
43
0.0
10
121.38601771647183
20
-105.99000053718765
42
-0.41421356237309509
10
119.38601771647184
20
-107.99000053718764
10
113.38601771647183
20
-107.99000053718764
42
-0.41421356237309509
10
111.38601771647183
20
-105.99000053718765
10
111.38601771647181
20
-69.990000537187669
42
-0.41421356237309509
10
113.38601771647183
20
-67.990000537187669
10
119.38601771647184
20
-67.990000537187669
42
-0.41421356237309243
10
121.38601771647183
20
-69.990000537187683
0
ENDSEC
0
SECTION
2
OBJECTS
0
DICTIONARY
5
C
100
AcDbDictionary
3
ACAD_GROUP
350
D
3
ACAD_MLINESTYLE
350
17
0
DICTIONARY
5
D
100
AcDbDictionary
0
DICTIONARY
5
1A
330
C
100
AcDbDictionary
0
DICTIONARY
5
17
100
AcDbDictionary
0
ENDSEC
0
EOF
