0
SECTION
2
HEADER
9
$INSUNITS
70
4
9
$ACADVER
1
AC1014
9
$HANDSEED
5
FFFF
0
ENDSEC
0
SECTION
2
TABLES
0
TABLE
2
VPORT
5
8
100
AcDbSymbolTable
0
ENDTAB
0
TABLE
2
LTYPE
5
5
100
AcDbSymbolTable
0
LTYPE
5
14
100
AcDbSymbolTableRecord
100
AcDbLinetypeTableRecord
2
BYBLOCK
70
0
0
LTYPE
5
15
100
AcDbSymbolTableRecord
100
AcDbLinetypeTableRecord
2
BYLAYER
70
0
0
ENDTAB
0
TABLE
2
LAYER
5
2
100
AcDbSymbolTable
70
2
0
LAYER
5
50
100
AcDbSymbolTableRecord
100
AcDbLayerTableRecord
2
0
70
0
6
CONTINUOUS
0
ENDTAB
0
TABLE
2
STYLE
5
3
100
AcDbSymbolTable
70
1
0
STYLE
5
11
100
AcDbSymbolTableRecord
100
AcDbTextStyleTableRecord
2
STANDARD
70
0
0
ENDTAB
0
TABLE
2
VIEW
5
6
100
AcDbSymbolTable
70
0
0
ENDTAB
0
TABLE
2
UCS
5
7
100
AcDbSymbolTable
70
0
0
ENDTAB
0
TABLE
2
APPID
5
9
100
AcDbSymbolTable
70
2
0
APPID
5
12
100
AcDbSymbolTableRecord
100
AcDbRegAppTableRecord
2
ACAD
70
0
0
ENDTAB
0
TABLE
2
DIMSTYLE
5
A
100
AcDbSymbolTable
70
1
0
ENDTAB
0
TABLE
2
BLOCK_RECORD
5
1
100
AcDbSymbolTable
70
1
0
BLOCK_RECORD
5
1F
100
AcDbSymbolTableRecord
100
AcDbBlockTableRecord
2
*MODEL_SPACE
0
BLOCK_RECORD
5
1B
100
AcDbSymbolTableRecord
100
AcDbBlockTableRecord
2
*PAPER_SPACE
0
ENDTAB
0
ENDSEC
0
SECTION
2
BLOCKS
0
BLOCK
5
20
100
AcDbEntity
100
AcDbBlockBegin
2
*MODEL_SPACE
0
ENDBLK
5
21
100
AcDbEntity
100
AcDbBlockEnd
0
BLOCK
5
1C
100
AcDbEntity
100
AcDbBlockBegin
2
*PAPER_SPACE
0
ENDBLK
5
1D
100
AcDbEntity
100
AcDbBlockEnd
0
ENDSEC
0
SECTION
2
ENTITIES
0
LWPOLYLINE
5
100
100
AcDbEntity
8
0
100
AcDbPolyline
90
4
70
1
43
0.0
10
86.393977766257777
20
-20.284804424195766
10
56.393977766257777
20
-20.284804424195766
10
56.393977766257777
20
-25.784804424195759
10
86.393977766257777
20
-25.784804424195762
0
LWPOLYLINE
5
101
100
AcDbEntity
8
0
100
AcDbPolyline
90
16
70
1
43
0.0
10
131.39397776625788
20
-63.431444010996394
10
131.39397776625793
20
-39.136450968440833
42
0.25226365250224858
10
129.14397776625782
20
-34.960627696318284
42
-0.17261938225261991
10
127.12428175917304
20
-32.284804424195755
42
0.32753822171853952
10
122.35458575208831
20
-28.784804424195748
10
22.43336978042727
20
-28.784804424195755
42
0.32753822171853875
10
17.663673773342545
20
-32.284804424195741
42
-0.23112135482778884
10
14.643977766257798
20
-35.468552922994547
42
0.31296265436827586
10
11.393977766257793
20
-40.152301421793354
10
11.393977766257812
20
-62.41559355764398
42
0.31296265436827342
10
14.643977766257809
20
-67.099342056442751
42
-0.23112135482778989
10
17.663673773342552
20
-70.283090555241586
42
0.32753822171854069
10
22.433369780427288
20
-73.783090555241586
10
122.3545857520883
20
-73.783090555241614
42
0.32753822171854091
10
127.12428175917303
20
-70.283090555241586
42
-0.17261938225262377
10
129.14397776625785
20
-67.607267283118986
42
0.25226365250225208
0
CIRCLE
5
102
100
AcDbEntity
8
0
100
AcDbCircle
10
12.893977766257814
20
-71.783090555241557
30
-5.5511151231257827e-16
40
1.6000000000000012
210
1.2325951644078308e-32
220
-2.4651903288156624e-32
230
1
0
CIRCLE
5
103
100
AcDbEntity
8
0
100
AcDbCircle
10
131.89397776625776
20
-71.783090555241557
30
-5.5511151231257827e-16
40
1.6000000000000012
210
1.2325951644078308e-32
220
-2.4651903288156624e-32
230
1
0
CIRCLE
5
104
100
AcDbEntity
8
0
100
AcDbCircle
10
12.893977766257814
20
-30.784804424195741
30
-5.5511151231257827e-16
40
1.599999999999999
210
1.2325951644078307e-32
220
-2.4651903288156619e-32
230
1
0
CIRCLE
5
105
100
AcDbEntity
8
0
100
AcDbCircle
10
131.89397776625776
20
-30.784804424195741
30
-5.5511151231257827e-16
40
1.6000000000000012
210
1.2325951644078308e-32
220
-2.4651903288156624e-32
230
1
0
LWPOLYLINE
5
106
100
AcDbEntity
8
0
100
AcDbPolyline
90
4
70
1
43
0.0
10
136.89397776625779
20
-58.783947489718678
10
142.39397776625779
20
-58.783947489718678
10
142.39397776625779
20
-43.783947489718685
10
136.89397776625779
20
-43.783947489718685
0
LWPOLYLINE
5
107
100
AcDbEntity
8
0
100
AcDbPolyline
90
40
70
1
43
0.0
10
5.8939777662578283
20
-30.783947489718688
10
5.8939777662578283
20
-25.284804424195784
10
0.39397776625783371
20
-25.28480442419578
10
0.39397776625783143
20
-28.783947489718692
10
-4.6060222337421717
20
-28.783947489718692
10
-4.6060222337421672
20
-20.284804424195762
42
-0.41421356237309492
10
0.39397776625783809
20
-15.284804424195764
10
20.89947810947087
20
-15.284804424195764
42
-0.16826226834450533
10
30.176632297529022
20
-18.497760258205915
42
0.34632989480178916
10
37.598355647975524
20
-18.497760258205908
42
-0.16826226834450453
10
46.87550983603365
20
-15.284804424195764
10
95.900219170737117
20
-15.284804424195793
42
-0.16825072374172165
10
105.17684402769956
20
-18.49734366018107
42
0.34630474828074503
10
112.59814391326954
20
-18.497343660181073
42
-0.16825072374172165
10
121.87476877023201
20
-15.284804424195764
10
142.39397776625776
20
-15.28480442419573
42
-0.41421356237309448
10
147.39397776625779
20
-20.284804424195755
10
147.39397776625779
20
-82.283090555241614
42
-0.41421356237309193
10
142.39397776625782
20
-87.283090555241614
10
121.87938696317401
20
-87.283090555241628
42
-0.16831358746368907
10
112.59987999499209
20
-84.068282553145735
42
0.346441681990105
10
105.17627442044662
20
-84.068282553145764
42
-0.1683135874636868
10
95.896767452264712
20
-87.283090555241614
10
46.878646206231437
20
-87.283090555241586
42
-0.16830204559434309
10
37.599668351771157
20
-84.068699151170591
42
0.34641654010693179
10
30.176486068202927
20
-84.06869915117062
42
-0.16830204559434286
10
20.897508213742626
20
-87.283090555241614
10
0.39397776625783004
20
-87.283090555241614
42
-0.41421356237309337
10
-4.6060222337421761
20
-82.283090555241614
10
-4.6060222337421699
20
-73.78394748971867
10
0.39397776625783371
20
-73.78394748971867
10
0.39397776625783143
20
-77.283093864418703
10
5.8939777662578283
20
-77.283093864418703
10
5.8939777662578301
20
-71.78394748971867
10
8.893977766257823
20
-71.78394748971867
10
8.8939777662578212
20
-65.783947489718685
10
5.8939777662578328
20
-65.783947489718685
10
5.8939777662578337
20
-36.783947489718692
10
8.893977766257823
20
-36.783947489718692
10
8.8939777662578212
20
-30.783947489718692
0
LWPOLYLINE
5
108
100
AcDbEntity
8
0
100
AcDbPolyline
90
4
70
1
43
0.0
10
86.393977766257819
20
-76.783090555241643
10
56.393977766257812
20
-76.783090555241643
10
56.393977766257812
20
-82.283090555241628
10
86.393977766257819
20
-82.283090555241628
0
ENDSEC
0
SECTION
2
OBJECTS
0
DICTIONARY
5
C
100
AcDbDictionary
3
ACAD_GROUP
350
D
3
ACAD_MLINESTYLE
350
17
0
DICTIONARY
5
D
100
AcDbDictionary
0
DICTIONARY
5
1A
330
C
100
AcDbDictionary
0
DICTIONARY
5
17
100
AcDbDictionary
0
ENDSEC
0
EOF
