0
SECTION
2
HEADER
9
$INSUNITS
70
4
9
$ACADVER
1
AC1014
9
$HANDSEED
5
FFFF
0
ENDSEC
0
SECTION
2
TABLES
0
TABLE
2
VPORT
5
8
100
AcDbSymbolTable
0
ENDTAB
0
TABLE
2
LTYPE
5
5
100
AcDbSymbolTable
0
LTYPE
5
14
100
AcDbSymbolTableRecord
100
AcDbLinetypeTableRecord
2
BYBLOCK
70
0
0
LTYPE
5
15
100
AcDbSymbolTableRecord
100
AcDbLinetypeTableRecord
2
BYLAYER
70
0
0
ENDTAB
0
TABLE
2
LAYER
5
2
100
AcDbSymbolTable
70
2
0
LAYER
5
50
100
AcDbSymbolTableRecord
100
AcDbLayerTableRecord
2
0
70
0
6
CONTINUOUS
0
ENDTAB
0
TABLE
2
STYLE
5
3
100
AcDbSymbolTable
70
1
0
STYLE
5
11
100
AcDbSymbolTableRecord
100
AcDbTextStyleTableRecord
2
STANDARD
70
0
0
ENDTAB
0
TABLE
2
VIEW
5
6
100
AcDbSymbolTable
70
0
0
ENDTAB
0
TABLE
2
UCS
5
7
100
AcDbSymbolTable
70
0
0
ENDTAB
0
TABLE
2
APPID
5
9
100
AcDbSymbolTable
70
2
0
APPID
5
12
100
AcDbSymbolTableRecord
100
AcDbRegAppTableRecord
2
ACAD
70
0
0
ENDTAB
0
TABLE
2
DIMSTYLE
5
A
100
AcDbSymbolTable
70
1
0
ENDTAB
0
TABLE
2
BLOCK_RECORD
5
1
100
AcDbSymbolTable
70
1
0
BLOCK_RECORD
5
1F
100
AcDbSymbolTableRecord
100
AcDbBlockTableRecord
2
*MODEL_SPACE
0
BLOCK_RECORD
5
1B
100
AcDbSymbolTableRecord
100
AcDbBlockTableRecord
2
*PAPER_SPACE
0
ENDTAB
0
ENDSEC
0
SECTION
2
BLOCKS
0
BLOCK
5
20
100
AcDbEntity
100
AcDbBlockBegin
2
*MODEL_SPACE
0
ENDBLK
5
21
100
AcDbEntity
100
AcDbBlockEnd
0
BLOCK
5
1C
100
AcDbEntity
100
AcDbBlockBegin
2
*PAPER_SPACE
0
ENDBLK
5
1D
100
AcDbEntity
100
AcDbBlockEnd
0
ENDSEC
0
SECTION
2
ENTITIES
0
LWPOLYLINE
5
100
100
AcDbEntity
8
0
100
AcDbPolyline
90
24
70
1
43
0.0
10
-98.817336749569307
20
-134.99000033109863
10
-98.817336749569307
20
-119.99000033109859
10
-104.3177291727693
20
-119.99000033109859
10
-104.3177291727693
20
-89.990000331098585
10
-98.817336749569307
20
-89.990000331098585
10
-98.817336749569307
20
-59.990000331098592
10
-104.31733674956931
20
-59.990000331098592
10
-104.31733674956931
20
-29.990000331098589
10
-98.817336749569307
20
-29.990000331098603
10
-98.817336749569307
20
-14.990000331098585
10
-75.317733165637549
20
-14.990001187698503
10
-75.317733165637549
20
-9.4899689534440324
10
-40.31773316563757
20
-9.489968953444091
10
-40.317733165637591
20
-14.990001187698567
10
4.3359003304542298
20
-14.990000331098585
10
73.617932633209321
20
-134.9900003310986
10
44.721663250417322
20
-134.9900003310986
10
44.721663250417322
20
-140.4900003310986
10
14.721663250417318
20
-140.4900003310986
10
14.721663250417327
20
-134.9900003310986
10
-35.278336749569313
20
-134.9900003310986
10
-35.27833674956932
20
-140.4900003310986
10
-65.27833674956932
20
-140.4900003310986
10
-65.27833674956932
20
-134.99000033109863
0
LWPOLYLINE
5
101
100
AcDbEntity
8
0
100
AcDbPolyline
90
4
70
1
43
0.0
10
63.581799974867863
20
-126.60690799311666
10
58.581799974867863
20
-117.9466539552723
10
53.818660254053448
20
-120.6966539552723
10
58.818660254053448
20
-129.35690799311666
0
LWPOLYLINE
5
102
100
AcDbEntity
8
0
100
AcDbPolyline
90
4
70
1
43
0.0
10
1.2692999748678635
20
-18.678492046480997
10
-3.493839745946552
20
-21.428492046480994
10
0.256160254053448
20
-27.923682574864284
10
5.0192999748678622
20
-25.173682574864284
0
CIRCLE
5
103
100
AcDbEntity
8
0
100
AcDbCircle
10
-5.817336749569133
20
-32.990000331098898
30
0
40
1.6000000000000014
210
9.9568244445778267e-60
220
-2.7635739376302223e-76
230
1
0
CIRCLE
5
104
100
AcDbEntity
8
0
100
AcDbCircle
10
-91.817336749569193
20
-19.990000331098919
30
0
40
1.6000000000000014
210
9.9568244445778267e-60
220
-2.7635739376302223e-76
230
1
0
CIRCLE
5
105
100
AcDbEntity
8
0
100
AcDbCircle
10
2.1826632504308714
20
-129.99000033109894
30
0
40
1.6000000000000014
210
9.9568244445778267e-60
220
-2.7635739376302223e-76
230
1
0
CIRCLE
5
106
100
AcDbEntity
8
0
100
AcDbCircle
10
-74.317336749569179
20
-114.99000033109895
30
0
40
1.6000000000000014
210
9.9568244445778267e-60
220
-2.7635739376302223e-76
230
1
0
LWPOLYLINE
5
107
100
AcDbEntity
8
0
100
AcDbPolyline
90
28
70
1
43
0.0
10
-77.317336749569208
20
-129.99000033109894
10
-2.8173367495691282
20
-129.99000033109894
42
-0.41421356237309515
10
2.1826632504308741
20
-124.99000033109894
10
5.1826632504308723
20
-124.99000033109894
10
5.1826632504308634
20
-46.990000331098912
10
-0.71353052119544846
20
-35.9346370092996
10
-3.4643955730985407
20
-37.401765036981246
42
-0.99999999999999989
10
-8.1702779260397254
20
-28.578235625216553
10
-5.419412874136631
20
-27.1111075975349
10
-8.9525900829025051
20
-20.486400331098899
10
-56.297336749568927
20
-20.486400331098711
42
-0.41421356237309509
10
-58.29733674956892
20
-18.4864003310987
10
-58.297336749568913
20
-18.136400331098699
42
0.41421356237309509
10
-60.297336749568906
20
-16.136400331098688
10
-66.297336749568913
20
-16.136400331098663
42
0.41421356237309731
10
-68.297336749568927
20
-18.136400331098656
10
-68.297336749568927
20
-18.486400331098658
42
-0.41421356237309509
10
-70.297336749568927
20
-20.48640033109864
10
-88.297336749568956
20
-20.486400331098558
42
0.4142135623730977
10
-90.297336749568942
20
-22.486400331098551
10
-90.297336749568927
20
-24.75336048964239
42
-0.24270112106597888
10
-94.817336749569222
20
-23.990000331098909
10
-94.817336749569193
20
-72.760000331098936
10
-77.317336749569193
20
-72.760000331098936
10
-77.317336749569193
20
-109.99000033109895
10
-74.317336749569165
20
-109.99000033109895
42
-0.99999999999999989
10
-74.317336749569193
20
-119.99000033109895
10
-77.317336749569193
20
-119.99000033109895
0
ENDSEC
0
SECTION
2
OBJECTS
0
DICTIONARY
5
C
100
AcDbDictionary
3
ACAD_GROUP
350
D
3
ACAD_MLINESTYLE
350
17
0
DICTIONARY
5
D
100
AcDbDictionary
0
DICTIONARY
5
1A
330
C
100
AcDbDictionary
0
DICTIONARY
5
17
100
AcDbDictionary
0
ENDSEC
0
EOF
