0
SECTION
2
HEADER
9
$INSUNITS
70
4
9
$ACADVER
1
AC1014
9
$HANDSEED
5
FFFF
0
ENDSEC
0
SECTION
2
TABLES
0
TABLE
2
VPORT
5
8
100
AcDbSymbolTable
0
ENDTAB
0
TABLE
2
LTYPE
5
5
100
AcDbSymbolTable
0
LTYPE
5
14
100
AcDbSymbolTableRecord
100
AcDbLinetypeTableRecord
2
BYBLOCK
70
0
0
LTYPE
5
15
100
AcDbSymbolTableRecord
100
AcDbLinetypeTableRecord
2
BYLAYER
70
0
0
ENDTAB
0
TABLE
2
LAYER
5
2
100
AcDbSymbolTable
70
2
0
LAYER
5
50
100
AcDbSymbolTableRecord
100
AcDbLayerTableRecord
2
0
70
0
6
CONTINUOUS
0
ENDTAB
0
TABLE
2
STYLE
5
3
100
AcDbSymbolTable
70
1
0
STYLE
5
11
100
AcDbSymbolTableRecord
100
AcDbTextStyleTableRecord
2
STANDARD
70
0
0
ENDTAB
0
TABLE
2
VIEW
5
6
100
AcDbSymbolTable
70
0
0
ENDTAB
0
TABLE
2
UCS
5
7
100
AcDbSymbolTable
70
0
0
ENDTAB
0
TABLE
2
APPID
5
9
100
AcDbSymbolTable
70
2
0
APPID
5
12
100
AcDbSymbolTableRecord
100
AcDbRegAppTableRecord
2
ACAD
70
0
0
ENDTAB
0
TABLE
2
DIMSTYLE
5
A
100
AcDbSymbolTable
70
1
0
ENDTAB
0
TABLE
2
BLOCK_RECORD
5
1
100
AcDbSymbolTable
70
1
0
BLOCK_RECORD
5
1F
100
AcDbSymbolTableRecord
100
AcDbBlockTableRecord
2
*MODEL_SPACE
0
BLOCK_RECORD
5
1B
100
AcDbSymbolTableRecord
100
AcDbBlockTableRecord
2
*PAPER_SPACE
0
ENDTAB
0
ENDSEC
0
SECTION
2
BLOCKS
0
BLOCK
5
20
100
AcDbEntity
100
AcDbBlockBegin
2
*MODEL_SPACE
0
ENDBLK
5
21
100
AcDbEntity
100
AcDbBlockEnd
0
BLOCK
5
1C
100
AcDbEntity
100
AcDbBlockBegin
2
*PAPER_SPACE
0
ENDBLK
5
1D
100
AcDbEntity
100
AcDbBlockEnd
0
ENDSEC
0
SECTION
2
ENTITIES
0
LWPOLYLINE
5
100
100
AcDbEntity
8
0
100
AcDbPolyline
90
4
70
1
43
0.0
10
136.89397776625773
20
-58.783947489718678
10
142.39397776625773
20
-58.78394748971867
10
142.39397776625773
20
-43.783947489718678
10
136.89397776625773
20
-43.783947489718678
0
LWPOLYLINE
5
101
100
AcDbEntity
8
0
100
AcDbPolyline
90
4
70
1
43
0.0
10
5.8939777662578061
20
-43.783947489718656
10
0.39397776625781145
20
-43.783947489718656
10
0.39397776625781478
20
-58.783947489718649
10
5.893977766257807
20
-58.783947489718649
0
CIRCLE
5
102
100
AcDbEntity
8
0
100
AcDbCircle
10
12.893977766257834
20
-71.783090555241586
30
2.2204460492503131e-15
40
1.6000000000000003
210
6.1629758220391547e-33
220
-4.9303806576313227e-32
230
1
0
CIRCLE
5
103
100
AcDbEntity
8
0
100
AcDbCircle
10
131.89397776625776
20
-71.783090555241586
30
2.2204460492503131e-15
40
1.6000000000000003
210
6.1629758220391547e-33
220
-4.9303806576313227e-32
230
1
0
CIRCLE
5
104
100
AcDbEntity
8
0
100
AcDbCircle
10
12.893977766257825
20
-30.784804424195755
30
2.2204460492503131e-15
40
1.5999999999999979
210
1.2325951644078312e-32
220
-4.9303806576313227e-32
230
1
0
CIRCLE
5
105
100
AcDbEntity
8
0
100
AcDbCircle
10
131.89397776625773
20
-30.784804424195752
30
2.2204460492503131e-15
40
1.6000000000000003
210
6.1629758220391547e-33
220
-4.9303806576313227e-32
230
1
0
LWPOLYLINE
5
106
100
AcDbEntity
8
0
100
AcDbPolyline
90
6
70
1
43
0.0
10
76.393975435007334
20
-48.397197489718728
10
71.39397776625789
20
-45.510447489718729
10
66.393980097508432
20
-48.397197489718707
10
66.393980097508432
20
-54.170697489718698
10
71.393977766257876
20
-57.057447489718705
10
76.393975435007334
20
-54.170697489718719
0
LWPOLYLINE
5
107
100
AcDbEntity
8
0
100
AcDbPolyline
90
16
70
1
43
0.0
10
-11.606022233742175
20
-20.284804424195734
42
-0.41421356237309548
10
-6.606022233742177
20
-15.284804424195739
10
129.11340064870254
20
-15.284804424195762
42
0.18578805688848096
10
132.46550010369202
20
-13.994714024692698
42
-0.18578805688847846
10
135.81759955868148
20
-12.704623625189617
10
144.39397776625773
20
-12.704623625189617
10
144.39397776625771
20
-10.278336749569267
42
-0.99999999999999989
10
154.39397776625776
20
-10.278336749569323
10
154.39397776625773
20
-101.27833674956921
42
-0.99999999999999989
10
144.39397776625773
20
-101.27833674956921
10
144.39397776625773
20
-98.778336749569235
10
136.73349753919356
20
-98.778336749569235
42
-0.33288562802653221
10
126.17847607960202
20
-90.875354990968958
42
0.33288562802653016
10
121.380739052515
20
-87.283090555241586
10
-6.6060222337421903
20
-87.283090555241586
42
-0.41421356237309426
10
-11.606022233742188
20
-82.283090555241571
0
CIRCLE
5
108
100
AcDbEntity
8
0
100
AcDbCircle
10
18.393977766257787
20
-59.283090555241586
30
2.2204460492503131e-15
40
1.6499999999999992
210
6.1629758220391506e-33
220
-2.4651903288156613e-32
230
1
0
CIRCLE
5
109
100
AcDbEntity
8
0
100
AcDbCircle
10
124.39397776625773
20
-59.2830905552416
30
2.2204460492503131e-15
40
1.6000000000000003
210
1.2325951644078301e-32
220
-4.9303806576313227e-32
230
1
0
CIRCLE
5
110
100
AcDbEntity
8
0
100
AcDbCircle
10
124.39397776625781
20
-43.284804424195762
30
2.2204460492503131e-15
40
1.6000000000000003
210
1.2325951644078301e-32
220
-4.9303806576313227e-32
230
1
0
CIRCLE
5
111
100
AcDbEntity
8
0
100
AcDbCircle
10
18.393977766257798
20
-43.284804424195727
30
2.2204460492503131e-15
40
1.5999999999999914
210
1.2325951644078301e-32
220
-4.9303806576313227e-32
230
1
0
LWPOLYLINE
5
112
100
AcDbEntity
8
0
100
AcDbPolyline
90
4
70
1
43
0.0
10
56.393977766257784
20
-25.784804424195737
10
56.393977766257784
20
-20.284804424195745
10
26.393977766257795
20
-20.284804424195741
10
26.393977766257805
20
-25.784804424195734
0
LWPOLYLINE
5
113
100
AcDbEntity
8
0
100
AcDbPolyline
90
4
70
1
43
0.0
10
116.39397776625773
20
-25.784804424195748
10
116.39397776625773
20
-20.284804424195752
10
86.393977766257763
20
-20.284804424195748
10
86.393977766257763
20
-25.784804424195741
0
LWPOLYLINE
5
114
100
AcDbEntity
8
0
100
AcDbPolyline
90
4
70
1
43
0.0
10
86.393977766257734
20
-76.783090555241586
10
86.393977766257734
20
-82.283090555241586
10
116.39397776625772
20
-82.283090555241586
10
116.39397776625772
20
-76.783090555241586
0
LWPOLYLINE
5
115
100
AcDbEntity
8
0
100
AcDbPolyline
90
4
70
1
43
0.0
10
26.393977766257777
20
-76.783090555241586
10
26.393977766257777
20
-82.283090555241586
10
56.39397776625777
20
-82.283090555241586
10
56.39397776625777
20
-76.783090555241586
0
ENDSEC
0
SECTION
2
OBJECTS
0
DICTIONARY
5
C
100
AcDbDictionary
3
ACAD_GROUP
350
D
3
ACAD_MLINESTYLE
350
17
0
DICTIONARY
5
D
100
AcDbDictionary
0
DICTIONARY
5
1A
330
C
100
AcDbDictionary
0
DICTIONARY
5
17
100
AcDbDictionary
0
ENDSEC
0
EOF
