0
SECTION
2
HEADER
9
$INSUNITS
70
4
9
$ACADVER
1
AC1014
9
$HANDSEED
5
FFFF
0
ENDSEC
0
SECTION
2
TABLES
0
TABLE
2
VPORT
5
8
100
AcDbSymbolTable
0
ENDTAB
0
TABLE
2
LTYPE
5
5
100
AcDbSymbolTable
0
LTYPE
5
14
100
AcDbSymbolTableRecord
100
AcDbLinetypeTableRecord
2
BYBLOCK
70
0
0
LTYPE
5
15
100
AcDbSymbolTableRecord
100
AcDbLinetypeTableRecord
2
BYLAYER
70
0
0
ENDTAB
0
TABLE
2
LAYER
5
2
100
AcDbSymbolTable
70
2
0
LAYER
5
50
100
AcDbSymbolTableRecord
100
AcDbLayerTableRecord
2
0
70
0
6
CONTINUOUS
0
ENDTAB
0
TABLE
2
STYLE
5
3
100
AcDbSymbolTable
70
1
0
STYLE
5
11
100
AcDbSymbolTableRecord
100
AcDbTextStyleTableRecord
2
STANDARD
70
0
0
ENDTAB
0
TABLE
2
VIEW
5
6
100
AcDbSymbolTable
70
0
0
ENDTAB
0
TABLE
2
UCS
5
7
100
AcDbSymbolTable
70
0
0
ENDTAB
0
TABLE
2
APPID
5
9
100
AcDbSymbolTable
70
2
0
APPID
5
12
100
AcDbSymbolTableRecord
100
AcDbRegAppTableRecord
2
ACAD
70
0
0
ENDTAB
0
TABLE
2
DIMSTYLE
5
A
100
AcDbSymbolTable
70
1
0
ENDTAB
0
TABLE
2
BLOCK_RECORD
5
1
100
AcDbSymbolTable
70
1
0
BLOCK_RECORD
5
1F
100
AcDbSymbolTableRecord
100
AcDbBlockTableRecord
2
*MODEL_SPACE
0
BLOCK_RECORD
5
1B
100
AcDbSymbolTableRecord
100
AcDbBlockTableRecord
2
*PAPER_SPACE
0
ENDTAB
0
ENDSEC
0
SECTION
2
BLOCKS
0
BLOCK
5
20
100
AcDbEntity
100
AcDbBlockBegin
2
*MODEL_SPACE
0
ENDBLK
5
21
100
AcDbEntity
100
AcDbBlockEnd
0
BLOCK
5
1C
100
AcDbEntity
100
AcDbBlockBegin
2
*PAPER_SPACE
0
ENDBLK
5
1D
100
AcDbEntity
100
AcDbBlockEnd
0
ENDSEC
0
SECTION
2
ENTITIES
0
LWPOLYLINE
5
100
100
AcDbEntity
8
0
100
AcDbPolyline
90
40
70
1
43
0.0
10
15.778336749569126
20
-14.990000331090485
10
15.778336749569135
20
-32.490000264842386
42
0.41421356237309426
10
18.278336749569132
20
-34.990000264842386
10
18.278336749569139
20
-40.490000264842394
10
31.278749792563204
20
-40.490000264842379
10
31.278749792563204
20
-34.990000264842386
10
71.278749792563204
20
-34.990000264842394
10
71.278749792563204
20
-40.490000264842372
10
82.278336749569149
20
-40.490000264842379
10
82.278336749569149
20
-34.990000264842379
42
0.41421356237309298
10
84.778336749569135
20
-32.490000264842379
10
84.778336749569135
20
-14.990000331090487
10
89.278336749569149
20
-14.990000331090487
10
89.278336749569149
20
-9.4900003310904886
10
94.278336749569149
20
-9.4900003310904886
10
94.278336749569149
20
-14.990000331090487
10
98.817336749569137
20
-14.990000331090489
10
98.817336749569137
20
-29.990000331090489
10
104.31733674956915
20
-29.990000331090489
10
104.31733674956915
20
-59.990000331090492
10
98.817336749569137
20
-59.990000331090492
10
98.817336749569137
20
-89.990000331090485
10
104.31733674956915
20
-89.990000331090485
10
104.31733674956915
20
-119.99000033109049
10
98.817336749569137
20
-119.99000033109049
10
98.817336749569122
20
-134.99000033109053
10
65.278336749569149
20
-134.99000033109053
10
65.278336749569149
20
-140.4900003310905
10
35.278336749569149
20
-140.4900003310905
10
35.278336749569142
20
-134.9900003310905
10
-14.7216632504175
20
-134.9900003310905
10
-14.721663250417487
20
-140.4900003310905
10
-44.721663250417485
20
-140.4900003310905
10
-44.721663250417485
20
-134.99000033109047
10
-73.617932633209492
20
-134.9900003310905
10
-4.3359003304543977
20
-14.990000331090483
10
5.2783367495691556
20
-14.990000331090485
10
5.2783367495691547
20
-9.4899686795904614
10
12.31773291376915
20
-9.4899686795904614
10
12.31773291376915
20
-14.990000331090485
0
LWPOLYLINE
5
101
100
AcDbEntity
8
0
100
AcDbPolyline
90
4
70
1
43
0.0
10
3.4938397459464103
20
-21.428492046472925
10
-1.2692999748680029
20
-18.678492046472922
10
-5.0192999748680034
20
-25.173682574856212
10
-0.25616025405359177
20
-27.923682574856215
0
LWPOLYLINE
5
102
100
AcDbEntity
8
0
100
AcDbPolyline
90
4
70
1
43
0.0
10
-58.581799974868012
20
-117.94665395526422
10
-63.581799974868012
20
-126.60690799310859
10
-58.81866025405359
20
-129.35690799310859
10
-53.81866025405359
20
-120.69665395526422
0
ENDSEC
0
SECTION
2
OBJECTS
0
DICTIONARY
5
C
100
AcDbDictionary
3
ACAD_GROUP
350
D
3
ACAD_MLINESTYLE
350
17
0
DICTIONARY
5
D
100
AcDbDictionary
0
DICTIONARY
5
1A
330
C
100
AcDbDictionary
0
DICTIONARY
5
17
100
AcDbDictionary
0
ENDSEC
0
EOF
