0
SECTION
2
HEADER
9
$INSUNITS
70
4
9
$ACADVER
1
AC1014
9
$HANDSEED
5
FFFF
0
ENDSEC
0
SECTION
2
TABLES
0
TABLE
2
VPORT
5
8
100
AcDbSymbolTable
0
ENDTAB
0
TABLE
2
LTYPE
5
5
100
AcDbSymbolTable
0
LTYPE
5
14
100
AcDbSymbolTableRecord
100
AcDbLinetypeTableRecord
2
BYBLOCK
70
0
0
LTYPE
5
15
100
AcDbSymbolTableRecord
100
AcDbLinetypeTableRecord
2
BYLAYER
70
0
0
ENDTAB
0
TABLE
2
LAYER
5
2
100
AcDbSymbolTable
70
2
0
LAYER
5
50
100
AcDbSymbolTableRecord
100
AcDbLayerTableRecord
2
0
70
0
6
CONTINUOUS
0
ENDTAB
0
TABLE
2
STYLE
5
3
100
AcDbSymbolTable
70
1
0
STYLE
5
11
100
AcDbSymbolTableRecord
100
AcDbTextStyleTableRecord
2
STANDARD
70
0
0
ENDTAB
0
TABLE
2
VIEW
5
6
100
AcDbSymbolTable
70
0
0
ENDTAB
0
TABLE
2
UCS
5
7
100
AcDbSymbolTable
70
0
0
ENDTAB
0
TABLE
2
APPID
5
9
100
AcDbSymbolTable
70
2
0
APPID
5
12
100
AcDbSymbolTableRecord
100
AcDbRegAppTableRecord
2
ACAD
70
0
0
ENDTAB
0
TABLE
2
DIMSTYLE
5
A
100
AcDbSymbolTable
70
1
0
ENDTAB
0
TABLE
2
BLOCK_RECORD
5
1
100
AcDbSymbolTable
70
1
0
BLOCK_RECORD
5
1F
100
AcDbSymbolTableRecord
100
AcDbBlockTableRecord
2
*MODEL_SPACE
0
BLOCK_RECORD
5
1B
100
AcDbSymbolTableRecord
100
AcDbBlockTableRecord
2
*PAPER_SPACE
0
ENDTAB
0
ENDSEC
0
SECTION
2
BLOCKS
0
BLOCK
5
20
100
AcDbEntity
100
AcDbBlockBegin
2
*MODEL_SPACE
0
ENDBLK
5
21
100
AcDbEntity
100
AcDbBlockEnd
0
BLOCK
5
1C
100
AcDbEntity
100
AcDbBlockBegin
2
*PAPER_SPACE
0
ENDBLK
5
1D
100
AcDbEntity
100
AcDbBlockEnd
0
ENDSEC
0
SECTION
2
ENTITIES
0
CIRCLE
5
100
100
AcDbEntity
8
0
100
AcDbCircle
10
-74.317336749569037
20
-114.9900003310909
30
0
40
1.6000000000000014
210
-5.6331316230194268e-54
220
4.4841550858394146e-44
230
1
0
CIRCLE
5
101
100
AcDbEntity
8
0
100
AcDbCircle
10
-74.317336749569051
20
-88.990000331090883
30
0
40
1.6000000000000014
210
-5.6331316230194268e-54
220
4.4841550858394146e-44
230
1
0
CIRCLE
5
102
100
AcDbEntity
8
0
100
AcDbCircle
10
2.1826632504310162
20
-129.99000033109087
30
0
40
1.6000000000000014
210
-5.6331316230194268e-54
220
4.4841550858394146e-44
230
1
0
CIRCLE
5
103
100
AcDbEntity
8
0
100
AcDbCircle
10
-91.817336749569051
20
-19.990000331090858
30
0
40
1.6000000000000014
210
-5.6331316230194268e-54
220
4.4841550858394146e-44
230
1
0
CIRCLE
5
104
100
AcDbEntity
8
0
100
AcDbCircle
10
-5.8173367495689909
20
-32.990000331090833
30
0
40
1.6000000000000014
210
-5.6331316230194268e-54
220
4.4841550858394146e-44
230
1
0
LWPOLYLINE
5
105
100
AcDbEntity
8
0
100
AcDbPolyline
90
16
70
1
43
0.0
10
-88.297336749568842
20
-32.486400331090493
10
-38.297336749568835
20
-32.486400331090721
42
0.41421356237309309
10
-36.297336749568821
20
-30.486400331090735
10
-36.297336749568785
20
-22.486400331090728
42
0.41421356237309309
10
-38.297336749568778
20
-20.486400331090717
10
-56.297336749568785
20
-20.486400331090646
42
-0.41421356237309509
10
-58.297336749568778
20
-18.486400331090639
10
-58.297336749568771
20
-18.136400331090638
42
0.4142135623730947
10
-60.297336749568764
20
-16.136400331090627
10
-66.297336749568771
20
-16.136400331090602
42
0.41421356237309959
10
-68.297336749568785
20
-18.136400331090591
10
-68.297336749568785
20
-18.486400331090593
42
-0.41421356237309509
10
-70.297336749568785
20
-20.486400331090579
10
-88.297336749568814
20
-20.486400331090501
42
0.41421356237309825
10
-90.2973367495688
20
-22.486400331090493
10
-90.297336749568814
20
-30.486400331090501
42
0.41421356237309959
0
LWPOLYLINE
5
106
100
AcDbEntity
8
0
100
AcDbPolyline
90
4
70
1
43
0.0
10
1.2692999748680052
20
-18.678492046472932
10
-3.4938397459464103
20
-21.428492046472929
10
0.25616025405359011
20
-27.923682574856219
10
5.0192999748680034
20
-25.173682574856219
0
LWPOLYLINE
5
107
100
AcDbEntity
8
0
100
AcDbPolyline
90
4
70
1
43
0.0
10
63.581799974868005
20
-126.60690799310859
10
58.581799974868005
20
-117.94665395526422
10
53.81866025405359
20
-120.69665395526422
10
58.81866025405359
20
-129.35690799310859
0
LWPOLYLINE
5
108
100
AcDbEntity
8
0
100
AcDbPolyline
90
24
70
1
43
0.0
10
-98.817336749569165
20
-134.99000033109056
10
-98.817336749569165
20
-119.99000033109053
10
-104.31772917276916
20
-119.99000033109053
10
-104.31772917276916
20
-89.990000331090528
10
-98.817336749569165
20
-89.990000331090528
10
-98.817336749569165
20
-59.990000331090528
10
-104.31733674956917
20
-59.990000331090542
10
-104.31733674956917
20
-29.990000331090528
10
-98.817336749569165
20
-29.990000331090538
10
-98.817336749569165
20
-14.990000331090522
10
-75.317733165637407
20
-14.99000118769044
10
-75.317733165637407
20
-9.4899689534359695
10
-40.317733165637428
20
-9.4899689534360281
10
-40.317733165637449
20
-14.990001187690504
10
4.335900330454372
20
-14.990000331090521
10
73.617932633209463
20
-134.99000033109053
10
44.721663250417464
20
-134.99000033109053
10
44.721663250417464
20
-140.49000033109053
10
14.721663250417464
20
-140.49000033109053
10
14.721663250417475
20
-134.99000033109053
10
-35.278336749569171
20
-134.99000033109053
10
-35.278336749569178
20
-140.49000033109053
10
-65.278336749569178
20
-140.49000033109053
10
-65.278336749569178
20
-134.99000033109056
0
ENDSEC
0
SECTION
2
OBJECTS
0
DICTIONARY
5
C
100
AcDbDictionary
3
ACAD_GROUP
350
D
3
ACAD_MLINESTYLE
350
17
0
DICTIONARY
5
D
100
AcDbDictionary
0
DICTIONARY
5
1A
330
C
100
AcDbDictionary
0
DICTIONARY
5
17
100
AcDbDictionary
0
ENDSEC
0
EOF
